<svg width='83' height='83' >
                                <g transform="translate(3, 70) scale(0.07, -0.07)">
                                    <!-- 先将完整的字以灰色字体绘制完成，层级位于下面 -->
                                                                        <path d="M 433 375 Q 649 436 864 443 Q 889 443 895 453 Q 901 469 887 480 Q 812 531 750 510 Q 698 494 450 429 Q 441 428 434 424 L 387 414 Q 314 398 270 386 Q 204 367 103 353 Q 88 352 88 339 Q 89 326 111 313 Q 130 303 166 293 Q 179 290 196 301 Q 253 328 386 363 L 433 375 Z" style="fill: #0070C0;"></path>
                                                                        <path d="M 386 363 Q 386 159 409 117 Q 445 69 575 64 Q 719 58 792 93 Q 805 102 804 113 Q 800 132 779 142 Q 749 157 729 154 Q 716 154 707 147 Q 680 125 543 118 Q 473 118 450 150 Q 426 189 433 375 L 434 424 Q 437 644 465 686 Q 481 714 452 734 Q 416 759 394 765 Q 363 772 354 758 Q 347 748 357 739 Q 391 705 388 630 Q 391 551 387 414 L 386 363 Z" style="fill: #0070C0;"></path>
                                    
                                    
                                                                                                                                                                                                                                    </g>
                            </svg>