<svg width='83' height='83' >
                                <g transform="translate(3, 70) scale(0.07, -0.07)">
                                    <!-- 先将完整的字以灰色字体绘制完成，层级位于下面 -->
                                                                        <path d="M 515 137 L 527 461 Q 538 688 549 716 Q 564 741 546 759 Q 507 790 480 800 Q 450 811 427 794 Q 425 790 424 788 Q 423 782 431 763 Q 458 710 458 629 L 458 132 C 458 102 514 107 515 137 Z" style="fill: #0070C0;"></path>
                                                                        <path d="M 98 106 Q 81 106 80 94 Q 80 93 80 91 Q 82 73 109 57 Q 149 31 196 42 Q 314 82 670 100 Q 749 104 827 98 L 924 86 Q 961 82 967 91 Q 978 106 963 121 Q 929 153 882 175 Q 866 182 837 173 Q 798 165 515 137 L 458 132 Q 382 127 267 115 Q 167 104 98 106 Z" style="fill: #0070C0;"></path>
                                    
                                    
                                                                                                                                                                                                                                    </g>
                            </svg>