<svg width='83' height='83' >
                                <g transform="translate(3, 70) scale(0.07, -0.07)">
                                    <!-- 先将完整的字以灰色字体绘制完成，层级位于下面 -->
                                                                        <path d="M 520 133 Q 523 296 525 442 L 525 479 Q 525 654 543 722 Q 556 746 540 761 Q 498 792 465 802 Q 449 805 432 791 Q 425 782 432 770 Q 462 727 462 629 Q 462 394 466 128 C 466 98 519 103 520 133 Z" style="fill: #0070C0;"></path>
                                                                        <path d="M 525 442 Q 573 436 682 459 Q 769 477 776 484 Q 786 493 780 503 Q 771 516 738 523 Q 704 529 670 514 Q 637 502 601 493 Q 564 484 525 479 C 495 475 495 445 525 442 Z" style="fill: #0070C0;"></path>
                                                                        <path d="M 528 82 Q 582 83 633 88 Q 781 100 911 81 Q 938 78 945 88 Q 954 103 940 116 Q 907 147 859 171 Q 843 178 813 169 Q 707 150 520 133 L 466 128 Q 363 121 309 114 Q 239 104 137 106 Q 121 106 120 93 Q 119 80 139 63 Q 184 30 234 41 Q 289 56 416 71 Q 468 78 528 82 Z" style="fill: #0070C0;"></path>
                                    
                                    
                                                                                                                                                                                                                                                                                                                </g>
                            </svg>