<svg width='83' height='83' >
                                <g transform="translate(3, 70) scale(0.07, -0.07)">
                                    <!-- 先将完整的字以灰色字体绘制完成，层级位于下面 -->
                                                                        <path d="M 520 688 Q 758 710 827 705 Q 920 702 927 705 Q 927 706 929 707 Q 936 722 923 735 Q 848 801 781 778 Q 673 757 477 733 Q 173 697 130 695 Q 123 696 116 695 Q 101 695 100 683 Q 99 670 120 654 Q 138 641 172 629 Q 184 625 203 633 Q 219 640 294 653 Q 376 674 478 684 L 520 688 Z" style="fill: #0070C0;"></path>
                                                                        <path d="M 544 524 Q 544 642 547 654 Q 551 667 541 675 Q 534 682 520 688 C 494 703 470 713 478 684 Q 499 648 485 268 Q 473 39 480 22 Q 486 6 498 -8 Q 511 -24 523 -5 Q 553 53 546 104 Q 540 161 544 492 L 544 524 Z" style="fill: #0070C0;"></path>
                                                                        <path d="M 544 492 Q 620 446 712 378 Q 733 360 749 359 Q 759 359 765 371 Q 775 387 753 430 Q 723 493 544 524 C 514 529 518 508 544 492 Z" style="fill: #0070C0;"></path>
                                    
                                    
                                                                                                                                                                                                                                                                                                                </g>
                            </svg>