<svg width='83' height='83' >
                                <g transform="translate(3, 70) scale(0.07, -0.07)">
                                    <!-- 先将完整的字以灰色字体绘制完成，层级位于下面 -->
                                                                        <path d="M 670 645 Q 763 655 907 643 Q 932 640 938 649 Q 947 662 934 675 Q 903 703 857 724 Q 842 731 815 722 Q 752 707 555 683 Q 444 674 315 654 Q 248 644 145 642 Q 130 642 129 630 Q 129 617 148 602 Q 187 572 237 584 Q 294 600 344 606 L 396 616 Q 481 631 616 640 L 670 645 Z" style="fill: #0070C0;"></path>
                                                                        <path d="M 344 606 Q 371 558 360 393 Q 359 387 359 379 Q 344 204 204 76 Q 189 63 186 56 Q 185 49 196 50 Q 235 50 305 123 Q 383 207 403 338 Q 419 420 424 544 Q 428 565 429 576 Q 436 597 415 607 Q 405 613 396 616 C 369 629 332 634 344 606 Z" style="fill: #0070C0;"></path>
                                                                        <path d="M 616 640 Q 646 579 628 257 Q 621 146 614 119 Q 596 65 660 1 Q 661 0 664 -3 Q 677 -4 682 11 Q 695 47 691 80 Q 672 512 687 616 Q 687 626 670 645 C 652 669 606 668 616 640 Z" style="fill: #0070C0;"></path>
                                    
                                    
                                                                                                                                                                                                                                                                                                                </g>
                            </svg>