<svg width='83' height='83' >
                                <g transform="translate(3, 70) scale(0.07, -0.07)">
                                    <!-- 先将完整的字以灰色字体绘制完成，层级位于下面 -->
                                                                        <path d="M 585 690 Q 604 696 788 710 Q 800 709 811 722 Q 812 735 788 748 Q 746 773 687 757 Q 488 718 235 696 Q 201 695 226 673 Q 265 643 292 647 Q 406 666 547 686 L 585 690 Z" style="fill: #0070C0;"></path>
                                                                        <path d="M 547 686 Q 547 685 548 683 Q 549 641 500 567 L 464 517 Q 454 507 443 493 Q 349 382 111 236 Q 101 232 112 227 Q 185 227 349 341 Q 391 377 467 447 L 520 504 Q 601 603 624 622 Q 633 626 633 637 Q 633 647 621 662 Q 599 689 585 690 C 558 704 548 709 547 686 Z" style="fill: #0070C0;"></path>
                                                                        <path d="M 500 567 Q 470 597 457 603 Q 447 604 443 598 Q 436 580 451 554 Q 461 535 464 517 L 467 447 Q 467 369 450 287 Q 446 268 454 234 Q 466 200 477 188 Q 495 172 507 199 Q 522 239 521 286 Q 517 458 520 504 C 521 534 521 546 500 567 Z" style="fill: #0070C0;"></path>
                                                                        <path d="M 610 431 Q 700 376 810 291 Q 829 273 846 271 Q 855 271 861 283 Q 871 299 851 340 Q 824 398 606 463 Q 596 467 596 454 Q 597 441 610 431 Z" style="fill: #0070C0;"></path>
                                                                        <path d="M 176 104 Q 151 103 168 83 Q 204 47 246 56 Q 468 105 840 82 Q 862 81 869 90 Q 876 103 858 120 Q 795 171 730 156 Q 567 135 176 104 Z" style="fill: #0070C0;"></path>
                                    
                                    
                                                                                                                                                                                                                                                                                                                                                                                                                                                                        </g>
                            </svg>