<svg width='83' height='83' >
                                <g transform="translate(3, 70) scale(0.07, -0.07)">
                                    <!-- 先将完整的字以灰色字体绘制完成，层级位于下面 -->
                                                                        <path d="M 492 669 Q 585 687 685 702 Q 752 715 761 724 Q 771 733 767 742 Q 760 757 727 766 Q 694 773 587 741 Q 436 705 305 697 Q 263 693 292 672 Q 340 647 417 658 Q 432 661 449 662 L 492 669 Z" style="fill: #0070C0;"></path>
                                                                        <path d="M 223 459 Q 192 481 171 485 Q 164 489 159 481 Q 155 474 159 459 Q 187 410 191 365 Q 198 265 188 152 Q 184 127 195 104 Q 208 82 228 68 Q 244 58 246 71 Q 253 75 255 100 Q 261 125 252 209 Q 245 308 244 421 C 244 445 244 445 223 459 Z" style="fill: #0070C0;"></path>
                                                                        <path d="M 511 464 Q 568 474 768 482 Q 784 482 791 474 Q 800 467 800 424 Q 803 243 779 140 Q 770 103 738 107 Q 707 114 679 122 Q 663 129 661 122 Q 660 113 671 97 Q 738 21 754 -17 Q 764 -33 776 -32 Q 792 -29 807 -2 Q 844 58 864 231 Q 882 439 894 459 Q 915 483 899 490 Q 881 509 839 528 Q 814 546 784 535 Q 750 525 662 518 Q 583 512 520 504 L 455 495 Q 418 492 387 485 Q 303 469 223 459 C 193 455 216 410 244 421 Q 259 439 449 457 L 511 464 Z" style="fill: #0070C0;"></path>
                                                                        <path d="M 490 392 Q 493 402 497 413 Q 504 437 511 464 L 520 504 Q 527 553 543 611 Q 552 633 530 647 Q 508 662 492 669 C 465 683 440 691 449 662 Q 464 614 465 602 Q 465 557 455 495 L 449 457 Q 424 319 304 226 Q 286 213 282 206 Q 279 199 293 198 Q 333 195 398 250 Q 435 281 458 318 Q 471 342 483 371 L 490 392 Z" style="fill: #0070C0;"></path>
                                                                        <path d="M 483 371 Q 484 368 490 364 Q 556 313 635 238 Q 651 220 666 217 Q 673 216 681 227 Q 691 240 677 280 Q 658 338 490 392 C 461 401 463 393 483 371 Z" style="fill: #0070C0;"></path>
                                    
                                    
                                                                                                                                                                                                                                                                                                                                                                                                                                                                        </g>
                            </svg>