<svg width='83' height='83' >
                                <g transform="translate(3, 70) scale(0.07, -0.07)">
                                    <!-- 先将完整的字以灰色字体绘制完成，层级位于下面 -->
                                                                        <path d="M 593 743 Q 615 749 748 759 Q 758 758 768 770 Q 769 782 747 793 Q 717 817 645 796 Q 503 769 316 750 Q 307 750 301 748 Q 273 747 294 728 Q 321 701 354 706 Q 382 712 415 716 L 457 723 Q 500 730 550 737 L 593 743 Z" style="fill: #0070C0;"></path>
                                                                        <path d="M 415 716 Q 424 688 427 617 Q 427 568 428 478 C 428 448 467 453 468 483 Q 472 585 477 661 Q 481 704 462 720 Q 459 721 457 723 C 432 740 407 745 415 716 Z" style="fill: #0070C0;"></path>
                                                                        <path d="M 598 504 L 613 723 Q 603 735 593 743 C 570 763 542 766 550 737 Q 559 710 559 635 Q 558 586 557 496 C 557 466 596 474 598 504 Z" style="fill: #0070C0;"></path>
                                                                        <path d="M 281 589 Q 299 570 318 544 Q 330 531 344 529 Q 354 529 361 541 Q 367 554 362 584 Q 356 608 281 636 Q 266 640 260 639 Q 256 636 255 623 Q 256 613 281 589 Z" style="fill: #0070C0;"></path>
                                                                        <path d="M 709 665 Q 690 634 651 585 Q 645 578 651 571 Q 658 570 666 574 Q 744 625 781 644 Q 799 648 795 660 Q 789 676 770 694 Q 751 712 729 714 Q 714 713 715 694 Q 718 681 709 665 Z" style="fill: #0070C0;"></path>
                                                                        <path d="M 305 419 Q 315 418 332 421 Q 558 460 797 480 Q 809 479 819 491 Q 820 504 797 516 Q 755 540 687 523 Q 642 516 598 504 L 557 496 Q 511 489 468 483 L 428 478 Q 385 478 297 468 C 267 465 275 418 305 419 Z" style="fill: #0070C0;"></path>
                                                                        <path d="M 297 468 Q 281 478 269 481 Q 245 491 228 482 Q 215 476 224 463 Q 260 414 240 253 Q 239 249 238 243 Q 208 113 81 -1 Q 71 -11 82 -13 Q 136 -7 208 76 Q 283 160 297 309 Q 291 330 305 419 C 309 449 311 460 297 468 Z" style="fill: #0070C0;"></path>
                                    
                                    
                                                                                                                                                                                                                                                                                                                                                                                                                                                                                                                                                                                                                                </g>
                            </svg>