<svg width='83' height='83' >
                                <g transform="translate(3, 70) scale(0.07, -0.07)">
                                    <!-- 先将完整的字以灰色字体绘制完成，层级位于下面 -->
                                                                        <path d="M 519 700 Q 531 724 551 744 Q 560 750 558 760 Q 557 770 543 784 Q 507 815 475 811 Q 465 808 468 795 Q 486 692 300 485 Q 296 482 293 478 Q 241 423 110 316 Q 100 312 112 308 Q 178 317 306 429 Q 387 504 505 679 L 519 700 Z" style="fill: #0070C0;"></path>
                                                                        <path d="M 505 679 Q 614 538 756 391 Q 777 367 812 369 Q 933 373 971 381 Q 983 384 984 389 Q 984 395 967 402 Q 790 456 742 495 Q 639 579 519 700 C 498 721 487 703 505 679 Z" style="fill: #0070C0;"></path>
                                                                        <path d="M 472 486 Q 500 441 475 153 Q 474 143 472 131 Q 471 103 467 91 Q 454 37 508 -19 Q 509 -20 512 -22 Q 524 -23 529 -10 Q 535 8 536 92 Q 529 386 540 455 Q 541 468 535 474 Q 511 495 492 504 Q 479 508 470 500 Q 464 496 472 486 Z" style="fill: #0070C0;"></path>
                                    
                                    
                                                                                                                                                                                                                                                                                                                </g>
                            </svg>