<svg width='83' height='83' >
                                <g transform="translate(3, 70) scale(0.07, -0.07)">
                                    <!-- 先将完整的字以灰色字体绘制完成，层级位于下面 -->
                                                                        <path d="M 244 729 Q 295 678 355 604 Q 370 583 385 579 Q 392 578 401 586 Q 414 599 404 643 Q 391 703 246 759 Q 237 765 235 753 Q 234 740 244 729 Z" style="fill: #0070C0;"></path>
                                                                        <path d="M 536 529 Q 608 583 651 621 Q 744 708 783 726 Q 810 739 795 760 Q 779 781 746 798 Q 715 814 700 810 Q 684 807 690 791 Q 699 740 597 637 Q 557 594 514 544 C 494 521 512 511 536 529 Z" style="fill: #0070C0;"></path>
                                                                        <path d="M 456 92 Q 447 49 472 -7 Q 479 -23 486 -27 Q 493 -34 500 -26 Q 527 -4 525 54 Q 524 87 527 390 Q 527 453 539 495 Q 546 510 544 523 Q 543 526 536 529 L 514 544 Q 502 554 483 565 Q 459 581 439 566 Q 435 560 441 546 Q 462 516 467 431 Q 467 152 466 143 Q 462 119 456 92 Z" style="fill: #0070C0;"></path>
                                    
                                    
                                                                                                                                                                                                                                                                                                                </g>
                            </svg>