<svg width='83' height='83' >
                                <g transform="translate(3, 70) scale(0.07, -0.07)">
                                    <!-- 先将完整的字以灰色字体绘制完成，层级位于下面 -->
                                                                        <path d="M 384 399 Q 306 383 249 360 Q 228 353 232 379 Q 236 473 242 570 Q 245 600 232 616 Q 187 661 156 654 Q 143 647 154 625 Q 197 540 187 452 Q 181 367 148 329 Q 129 307 139 290 Q 154 274 176 262 Q 192 255 204 265 Q 237 311 356 345 Q 372 351 381 350 C 411 354 413 405 384 399 Z" style="fill: #0070C0;"></path>
                                                                        <path d="M 381 350 Q 365 182 292 75 Q 258 32 203 -14 Q 191 -24 191 -29 Q 194 -33 206 -32 Q 219 -36 255 -17 Q 372 38 415 218 Q 433 300 436 413 Q 443 659 464 703 Q 471 719 458 731 Q 433 750 390 762 Q 362 768 352 760 Q 342 753 351 739 Q 399 666 384 399 L 381 350 Z" style="fill: #0070C0;"></path>
                                                                        <path d="M 632 385 Q 633 611 640 713 Q 641 749 659 778 Q 666 794 645 811 Q 620 830 575 842 Q 554 848 541 833 Q 531 824 544 812 Q 575 787 577 749 Q 581 308 574 154 Q 573 75 579 -11 Q 580 -50 592 -68 Q 607 -84 616 -62 Q 631 -26 632 345 L 632 385 Z" style="fill: #0070C0;"></path>
                                                                        <path d="M 835 417 Q 863 570 890 648 Q 894 660 876 677 Q 842 701 817 707 Q 801 713 792 705 Q 783 698 790 681 Q 805 656 804 639 Q 803 536 790 418 C 787 388 830 387 835 417 Z" style="fill: #0070C0;"></path>
                                                                        <path d="M 790 418 Q 787 419 785 418 Q 700 396 632 385 C 602 380 603 338 632 345 Q 696 361 858 373 Q 870 374 872 385 Q 872 394 838 416 Q 837 417 835 417 L 790 418 Z" style="fill: #0070C0;"></path>
                                    
                                    
                                                                                                                                                                                                                                                                                                                                                                                                                                                                        </g>
                            </svg>