<svg width='83' height='83' >
                                <g transform="translate(3, 70) scale(0.07, -0.07)">
                                    <!-- 先将完整的字以灰色字体绘制完成，层级位于下面 -->
                                                                        <path d="M 321 674 Q 311 680 271 683 Q 258 684 255 679 Q 249 672 260 656 Q 291 610 316 529 Q 322 505 338 490 Q 359 469 363 486 Q 364 492 364 500 L 359 537 Q 341 609 335 638 C 329 667 328 671 321 674 Z" style="fill: #0070C0;"></path>
                                                                        <path d="M 710 569 Q 743 632 773 649 Q 795 670 769 689 Q 747 710 722 727 Q 709 739 638 719 Q 613 718 547 706 L 486 697 Q 449 693 412 686 Q 360 679 321 674 C 291 670 306 631 335 638 Q 336 639 339 639 Q 418 658 462 663 Q 472 664 487 666 L 545 673 Q 599 680 669 684 Q 685 685 690 678 Q 696 660 659 578 C 647 551 696 543 710 569 Z" style="fill: #0070C0;"></path>
                                                                        <path d="M 543 520 Q 619 527 721 532 Q 733 533 734 542 Q 735 549 710 569 C 695 582 689 581 659 578 Q 656 579 654 578 Q 596 568 543 558 L 487 549 Q 420 542 359 537 C 329 535 334 499 364 500 Q 368 500 374 500 Q 419 509 487 515 L 543 520 Z" style="fill: #0070C0;"></path>
                                                                        <path d="M 290 409 Q 277 416 234 418 Q 221 421 217 414 Q 211 407 223 390 Q 260 332 290 234 Q 297 204 317 187 Q 339 165 343 183 Q 344 193 344 206 L 336 245 Q 312 332 303 369 C 296 398 293 408 290 409 Z" style="fill: #0070C0;"></path>
                                                                        <path d="M 754 283 Q 790 352 822 371 Q 847 393 818 416 Q 793 441 764 460 Q 748 475 693 459 Q 653 453 542 439 L 487 433 Q 441 429 393 421 Q 335 414 290 409 C 260 406 274 363 303 369 Q 405 391 487 398 L 542 402 Q 611 409 702 413 Q 721 414 727 404 Q 736 385 693 291 C 681 264 740 257 754 283 Z" style="fill: #0070C0;"></path>
                                                                        <path d="M 544 229 Q 640 238 768 242 Q 780 243 782 253 Q 782 262 754 283 C 735 298 723 296 693 291 Q 614 278 543 267 L 487 259 Q 408 250 336 245 C 306 243 315 200 344 206 Q 362 212 486 224 L 544 229 Z" style="fill: #0070C0;"></path>
                                                                        <path d="M 486 224 Q 486 -34 504 -60 Q 519 -76 528 -54 Q 546 -14 544 229 L 543 267 Q 543 304 543 346 Q 542 374 542 402 L 542 439 Q 542 482 543 520 L 543 558 Q 543 625 545 673 L 547 706 Q 547 748 567 782 Q 574 798 554 815 Q 527 836 483 846 Q 462 852 449 837 Q 439 828 452 816 Q 483 791 486 753 Q 486 728 486 697 L 487 666 Q 487 615 487 549 L 487 515 Q 487 478 487 433 L 487 398 Q 487 319 487 259 L 486 224 Z" style="fill: #0070C0;"></path>
                                    
                                    
                                                                                                                                                                                                                                                                                                                                                                                                                                                                                                                                                                                                                                </g>
                            </svg>