<svg width='83' height='83' >
                                <g transform="translate(3, 70) scale(0.07, -0.07)">
                                    <!-- 先将完整的字以灰色字体绘制完成，层级位于下面 -->
                                                                        <path d="M 316 519 Q 318 511 331 499 Q 370 464 397 433 Q 410 421 427 421 Q 455 421 442 482 L 440 486 Q 428 509 374 527 Q 331 543 319 537 Q 314 533 316 519 Z" style="fill: #0070C0;"></path>
                                                                        <path d="M 629 547 Q 609 514 531 429 Q 528 423 527 420 Q 525 412 538 415 Q 597 447 657 488 Q 700 517 719 524 Q 735 531 733 545 Q 731 563 699 584 Q 668 604 652 600 Q 649 600 647 600 Q 641 598 643 587 Q 644 564 629 547 Z" style="fill: #0070C0;"></path>
                                    
                                    
                                                                                                                                                                                                                                    </g>
                            </svg>