<svg width='83' height='83' >
                                <g transform="translate(3, 70) scale(0.07, -0.07)">
                                    <!-- 先将完整的字以灰色字体绘制完成，层级位于下面 -->
                                                                        <path d="M 407 333 Q 417 358 430 381 Q 464 460 477 550 L 482 584 Q 500 716 521 761 Q 531 783 512 792 Q 458 831 426 820 Q 410 814 419 797 Q 450 740 428 571 L 421 534 Q 394 420 360 355 L 339 317 Q 324 295 309 271 Q 266 208 186 147 Q 167 131 141 114 Q 125 101 107 87 Q 92 75 106 73 Q 122 73 162 90 Q 243 130 302 190 Q 350 235 380 282 L 407 333 Z" style="fill: #0070C0;"></path>
                                                                        <path d="M 477 550 Q 544 572 594 579 Q 616 583 622 578 Q 626 571 621 554 Q 497 139 642 65 Q 678 44 746 35 Q 884 22 968 74 Q 987 84 980 107 Q 964 165 961 251 Q 960 270 954 269 Q 948 270 942 251 Q 908 149 879 125 Q 861 109 804 103 Q 740 96 687 113 Q 642 128 628 160 Q 606 200 615 289 Q 628 386 674 503 Q 693 554 726 581 Q 742 594 741 607 Q 740 619 670 651 Q 655 661 637 646 Q 588 612 505 591 Q 493 588 482 584 L 428 571 Q 367 558 308 541 Q 262 531 188 530 Q 173 531 176 516 Q 179 503 206 487 Q 237 469 275 485 Q 354 513 421 534 L 477 550 Z" style="fill: #0070C0;"></path>
                                                                        <path d="M 380 282 Q 455 216 463 214 Q 470 213 477 222 Q 487 235 473 272 Q 463 306 407 333 L 360 355 Q 312 379 284 389 Q 277 393 275 382 Q 275 370 285 361 Q 310 342 339 317 L 380 282 Z" style="fill: #0070C0;"></path>
                                    
                                    
                                                                                                                                                                                                                                                                                                                </g>
                            </svg>