<svg width='83' height='83' >
                                <g transform="translate(3, 70) scale(0.07, -0.07)">
                                    <!-- 先将完整的字以灰色字体绘制完成，层级位于下面 -->
                                                                        <path d="M 378 715 Q 335 734 321 731 Q 300 727 318 704 Q 357 647 346 416 Q 346 413 346 407 L 341 358 Q 314 181 206 63 Q 151 5 149 0 Q 148 -7 160 -6 Q 176 -5 197 11 Q 252 53 285 93 Q 372 198 391 366 L 396 413 Q 405 512 401 647 Q 405 672 406 684 C 408 703 406 704 378 715 Z" style="fill: #0070C0;"></path>
                                                                        <path d="M 587 58 Q 553 65 517 72 Q 495 76 496 67 Q 569 15 610 -24 Q 625 -45 642 -50 Q 652 -54 661 -43 Q 706 14 702 73 Q 695 206 690 394 L 689 442 Q 685 676 701 705 Q 714 727 701 738 Q 677 759 637 775 Q 618 782 600 774 Q 512 726 378 715 C 348 712 377 678 406 684 Q 407 684 589 723 Q 611 730 617 718 Q 626 696 629 659 Q 633 541 634 436 L 634 389 Q 634 83 616 59 Q 610 52 587 58 Z" style="fill: #0070C0;"></path>
                                                                        <path d="M 468 576 Q 498 516 531 492 Q 546 486 559 498 Q 568 510 569 528 Q 568 553 552 572 Q 519 611 472 620 Q 466 621 463 620 Q 456 620 456 607 Q 455 594 468 576 Z" style="fill: #0070C0;"></path>
                                                                        <path d="M 690 394 Q 780 403 923 387 Q 947 383 953 392 Q 962 405 949 419 Q 876 485 812 463 Q 749 451 689 442 L 634 436 Q 417 417 396 413 L 346 407 Q 312 406 287 401 Q 212 391 102 390 Q 87 390 86 378 Q 85 365 104 350 Q 149 317 187 329 Q 214 341 341 358 L 391 366 Q 424 372 624 390 Q 627 390 634 389 L 690 394 Z" style="fill: #0070C0;"></path>
                                    
                                    
                                                                                                                                                                                                                                                                                                                                                                                            </g>
                            </svg>