<svg width='83' height='83' >
                                <g transform="translate(3, 70) scale(0.07, -0.07)">
                                    <!-- 先将完整的字以灰色字体绘制完成，层级位于下面 -->
                                                                        <path d="M 324 704 Q 349 673 378 635 Q 390 619 406 617 Q 416 616 425 629 Q 432 644 428 676 Q 422 715 327 754 Q 311 761 304 759 Q 298 756 298 742 Q 299 730 324 704 Z" style="fill: #0070C0;"></path>
                                                                        <path d="M 460 496 Q 367 331 357 314 Q 353 311 350 305 Q 263 187 115 58 Q 108 54 104 47 Q 98 37 110 35 Q 143 32 266 135 Q 308 172 349 220 Q 449 341 527 509 L 542 542 Q 558 582 574 622 Q 614 725 630 751 Q 643 764 639 780 Q 627 804 598 828 Q 580 846 565 844 Q 550 840 553 823 Q 563 786 552 735 Q 540 704 528 664 Q 503 594 475 530 L 460 496 Z" style="fill: #0070C0;"></path>
                                                                        <path d="M 475 530 Q 459 529 443 525 Q 298 504 216 507 Q 194 510 192 497 Q 191 485 216 468 Q 247 446 277 454 Q 368 479 460 496 L 527 509 Q 612 525 699 534 Q 727 535 733 521 Q 742 502 738 454 Q 725 276 692 181 Q 674 121 655 103 Q 642 88 613 96 Q 571 109 533 121 Q 508 128 526 105 Q 581 50 612 6 Q 624 -19 648 -11 Q 670 -7 696 23 Q 772 101 798 406 Q 804 473 829 514 Q 848 539 838 551 Q 819 573 778 591 Q 748 606 717 591 Q 641 563 542 542 L 475 530 Z" style="fill: #0070C0;"></path>
                                                                        <path d="M 496 321 Q 524 291 554 256 Q 564 243 580 242 Q 590 241 597 253 Q 603 266 598 296 Q 591 332 497 368 Q 482 372 476 371 Q 472 368 471 355 Q 472 345 496 321 Z" style="fill: #0070C0;"></path>
                                    
                                    
                                                                                                                                                                                                                                                                                                                                                                                            </g>
                            </svg>