<svg width='83' height='83' >
                                <g transform="translate(3, 70) scale(0.07, -0.07)">
                                    <!-- 先将完整的字以灰色字体绘制完成，层级位于下面 -->
                                                                        <path d="M 476 759 Q 504 734 536 702 Q 554 686 575 686 Q 590 687 596 705 Q 602 724 590 764 Q 578 798 469 823 Q 448 827 440 824 Q 433 818 436 801 Q 440 786 476 759 Z" style="fill: #0070C0;"></path>
                                                                        <path d="M 536 539 Q 605 552 679 565 Q 748 578 758 588 Q 768 597 763 606 Q 756 619 723 629 Q 693 635 591 606 Q 432 564 289 553 Q 247 549 276 528 Q 318 504 404 515 Q 437 521 474 528 L 536 539 Z" style="fill: #0070C0;"></path>
                                                                        <path d="M 549 308 Q 696 338 702 343 Q 712 350 707 360 Q 700 372 670 380 Q 643 386 552 358 L 488 342 Q 482 342 476 340 Q 400 324 311 317 Q 274 313 300 294 Q 337 267 399 281 Q 442 288 488 296 L 549 308 Z" style="fill: #0070C0;"></path>
                                                                        <path d="M 541 114 Q 545 219 549 308 L 552 358 Q 553 440 559 485 Q 569 515 536 539 C 513 558 465 556 474 528 Q 489 497 488 342 L 488 296 Q 487 220 486 108 C 486 78 540 84 541 114 Z" style="fill: #0070C0;"></path>
                                                                        <path d="M 486 108 Q 365 99 302 91 Q 229 81 121 82 Q 105 82 104 69 Q 103 56 123 39 Q 142 24 177 11 Q 189 7 209 15 Q 255 30 410 51 Q 465 58 528 63 Q 585 66 638 70 Q 773 83 931 66 Q 958 62 965 72 Q 974 87 960 100 Q 927 131 879 154 Q 863 161 833 153 Q 760 138 686 129 Q 598 122 541 114 L 486 108 Z" style="fill: #0070C0;"></path>
                                    
                                    
                                                                                                                                                                                                                                                                                                                                                                                                                                                                        </g>
                            </svg>