<svg width='83' height='83' >
                                <g transform="translate(3, 70) scale(0.07, -0.07)">
                                    <!-- 先将完整的字以灰色字体绘制完成，层级位于下面 -->
                                                                        <path d="M 304 668 Q 326 646 351 618 Q 364 605 380 604 Q 390 604 397 617 Q 403 632 395 662 Q 391 681 362 695 Q 301 725 280 719 Q 274 715 276 702 Q 279 692 304 668 Z" style="fill: #0070C0;"></path>
                                                                        <path d="M 437 749 Q 462 725 487 697 Q 500 684 516 684 Q 526 684 533 697 Q 537 712 530 742 Q 526 761 496 776 Q 426 806 412 799 Q 408 795 408 782 Q 411 772 437 749 Z" style="fill: #0070C0;"></path>
                                                                        <path d="M 583 586 Q 680 707 732 757 Q 748 766 742 776 Q 733 791 710 805 Q 686 820 663 817 Q 648 813 654 794 Q 658 781 653 763 Q 622 693 556 582 C 541 556 564 563 583 586 Z" style="fill: #0070C0;"></path>
                                                                        <path d="M 593 547 Q 683 554 798 554 Q 871 551 879 563 Q 885 575 868 589 Q 814 629 775 621 Q 699 605 583 586 L 556 582 Q 528 579 501 574 Q 347 553 165 531 Q 143 530 159 511 Q 192 481 231 490 Q 280 503 334 514 L 365 519 Q 447 537 570 545 L 593 547 Z" style="fill: #0070C0;"></path>
                                                                        <path d="M 334 514 Q 334 513 335 511 Q 338 433 208 305 Q 205 304 203 300 Q 164 263 70 195 Q 63 191 71 187 Q 123 187 247 285 Q 331 369 389 444 Q 399 457 405 461 Q 412 465 412 475 Q 409 500 372 517 Q 368 518 365 519 C 337 530 333 531 334 514 Z" style="fill: #0070C0;"></path>
                                                                        <path d="M 570 545 Q 571 535 581 525 Q 669 408 766 301 Q 808 253 973 274 Q 992 275 994 280 Q 997 286 982 293 Q 805 374 790 382 Q 727 424 598 542 Q 595 545 593 547 C 571 568 558 573 570 545 Z" style="fill: #0070C0;"></path>
                                                                        <path d="M 540 321 Q 573 328 610 333 Q 652 340 658 346 Q 665 353 662 361 Q 656 371 630 380 Q 606 386 542 367 L 483 353 Q 479 353 476 352 Q 419 342 354 337 Q 320 333 343 317 Q 376 296 449 307 Q 465 310 483 311 L 540 321 Z" style="fill: #0070C0;"></path>
                                                                        <path d="M 536 192 Q 587 196 759 197 Q 778 197 783 206 Q 787 216 772 230 Q 724 267 670 257 Q 615 247 537 233 L 482 224 Q 368 211 236 193 Q 217 192 231 175 Q 244 162 262 156 Q 281 152 298 155 Q 418 186 481 187 L 536 192 Z" style="fill: #0070C0;"></path>
                                                                        <path d="M 483 -31 Q 487 -56 494 -65 Q 500 -72 507 -70 Q 534 -49 535 165 Q 535 178 536 192 L 537 233 Q 538 272 540 321 L 542 367 Q 545 388 551 415 Q 555 433 541 442 Q 510 464 494 466 Q 482 472 466 463 Q 457 456 464 445 Q 482 415 483 353 L 483 311 Q 483 271 482 224 L 481 187 Q 475 34 483 -31 Z" style="fill: #0070C0;"></path>
                                    
                                    
                                                                                                                                                                                                                                                                                                                                                                                                                                                                                                                                                                                                                                                                                                                                                                                        </g>
                            </svg>