<svg width='83' height='83' >
                                <g transform="translate(3, 70) scale(0.07, -0.07)">
                                    <!-- 先将完整的字以灰色字体绘制完成，层级位于下面 -->
                                                                        <path d="M 407 578 Q 443 633 489 712 Q 498 728 505 735 Q 512 741 510 753 Q 507 763 493 776 Q 451 807 418 799 Q 408 796 412 782 Q 431 688 299 515 Q 296 514 294 509 Q 255 460 157 361 Q 147 355 160 353 Q 224 365 342 491 Q 357 510 375 531 Q 385 544 397 562 L 407 578 Z" style="fill: #0070C0;"></path>
                                                                        <path d="M 539 331 Q 585 406 631 503 Q 650 537 679 558 Q 697 568 697 579 Q 696 594 662 612 Q 619 637 603 638 Q 590 637 577 627 Q 507 596 439 581 Q 418 581 407 578 C 377 575 371 575 397 562 Q 442 528 518 564 Q 554 582 568 572 Q 577 566 555 503 Q 533 430 485 356 Q 418 244 320 159 Q 235 86 127 31 Q 117 25 118 20 Q 119 14 128 15 Q 261 21 424 183 Q 467 231 523 306 L 539 331 Z" style="fill: #0070C0;"></path>
                                                                        <path d="M 523 306 Q 628 137 741 18 Q 766 -12 792 -11 Q 864 -1 925 7 Q 952 10 951 17 Q 952 24 922 39 Q 763 105 722 143 Q 610 245 539 331 C 520 354 507 331 523 306 Z" style="fill: #0070C0;"></path>
                                    
                                    
                                                                                                                                                                                                                                                                                                                </g>
                            </svg>