<svg width='83' height='83' >
                                <g transform="translate(3, 70) scale(0.07, -0.07)">
                                    <!-- 先将完整的字以灰色字体绘制完成，层级位于下面 -->
                                                                        <path d="M 412 631 Q 487 662 544 695 Q 593 717 635 728 Q 654 729 658 739 Q 661 751 647 763 Q 623 779 574 796 Q 556 803 542 801 Q 533 797 534 784 Q 534 745 338 635 Q 287 607 224 577 Q 220 567 226 564 Q 247 564 372 615 L 412 631 Z" style="fill: #0070C0;"></path>
                                                                        <path d="M 459 399 Q 460 400 465 400 Q 679 433 786 433 Q 849 433 854 440 Q 861 455 847 466 Q 814 493 768 510 Q 752 514 726 505 Q 662 486 597 472 Q 513 459 463 448 L 409 438 Q 310 422 258 411 Q 194 396 98 389 Q 83 388 83 376 Q 83 363 104 349 Q 122 339 155 328 Q 167 324 185 334 Q 200 341 268 356 Q 331 375 409 390 L 459 399 Z" style="fill: #0070C0;"></path>
                                                                        <path d="M 938 87 Q 911 144 892 245 Q 888 261 881 268 Q 872 275 869 258 Q 862 200 851 153 Q 847 122 822 102 Q 782 63 598 65 Q 528 72 501 86 Q 479 101 465 129 Q 447 171 459 399 L 463 448 Q 467 524 478 560 Q 487 582 456 605 Q 432 621 412 631 C 386 646 359 642 372 615 Q 403 552 405 547 Q 408 511 409 438 L 409 390 Q 402 140 420 102 Q 427 84 442 68 Q 503 -1 734 8 Q 837 12 915 46 Q 952 59 938 87 Z" style="fill: #0070C0;"></path>
                                    
                                    
                                                                                                                                                                                                                                                                                                                </g>
                            </svg>