<svg width='83' height='83' >
                                <g transform="translate(3, 70) scale(0.07, -0.07)">
                                    <!-- 先将完整的字以灰色字体绘制完成，层级位于下面 -->
                                                                        <path d="M 446 766 Q 480 739 515 706 Q 530 693 547 693 Q 559 694 564 708 Q 570 724 559 757 Q 547 796 440 819 Q 424 823 416 819 Q 410 815 412 801 Q 416 788 446 766 Z" style="fill: #0070C0;"></path>
                                                                        <path d="M 311 281 Q 464 372 633 513 Q 666 541 738 570 Q 763 579 749 597 Q 737 619 682 648 Q 667 655 651 644 Q 581 596 300 559 Q 251 555 229 556 Q 213 557 209 542 Q 208 529 240 504 Q 268 482 297 497 Q 346 524 576 567 Q 592 570 596 564 Q 600 560 588 548 Q 407 388 258 283 C 234 266 285 265 311 281 Z" style="fill: #0070C0;"></path>
                                                                        <path d="M 258 283 Q 219 282 175 262 Q 139 255 93 259 Q 72 262 72 248 Q 73 233 102 214 Q 123 198 154 208 Q 257 266 364 225 Q 436 206 632 74 Q 647 65 654 58 Q 711 19 750 18 Q 756 19 762 19 Q 942 61 953 88 Q 954 97 930 97 Q 780 103 694 130 Q 516 202 477 221 Q 353 281 311 281 L 258 283 Z" style="fill: #0070C0;"></path>
                                    
                                    
                                                                                                                                                                                                                                                                                                                </g>
                            </svg>