<svg width='83' height='83' >
                                <g transform="translate(3, 70) scale(0.07, -0.07)">
                                    <!-- 先将完整的字以灰色字体绘制完成，层级位于下面 -->
                                                                        <path d="M 361 626 Q 424 726 449 748 Q 459 758 455 774 Q 451 787 421 812 Q 394 831 374 832 Q 355 831 362 808 Q 375 775 363 749 Q 290 589 132 412 Q 122 402 119 395 Q 115 383 130 386 Q 181 392 347 607 L 361 626 Z" style="fill: #0070C0;"></path>
                                                                        <path d="M 509 599 Q 824 657 838 669 Q 848 678 843 687 Q 836 700 804 709 Q 777 715 663 680 Q 507 641 361 626 C 331 623 328 622 347 607 Q 383 571 467 591 L 509 599 Z" style="fill: #0070C0;"></path>
                                                                        <path d="M 537 277 Q 537 346 538 416 L 538 437 Q 539 518 547 553 Q 550 571 509 599 C 485 617 454 618 467 591 Q 500 558 479 207 Q 475 159 470 125 Q 469 89 462 73 Q 450 33 490 -28 Q 503 -50 512 -55 Q 525 -56 531 -41 Q 546 -4 541 30 Q 537 148 537 253 L 537 277 Z" style="fill: #0070C0;"></path>
                                                                        <path d="M 538 416 Q 550 407 573 409 Q 678 425 755 434 Q 783 438 773 454 Q 760 473 729 478 Q 701 482 650 469 Q 589 451 538 437 C 513 430 513 430 538 416 Z" style="fill: #0070C0;"></path>
                                                                        <path d="M 537 253 L 538 253 Q 550 244 575 247 Q 696 262 785 269 Q 816 273 805 290 Q 792 309 760 317 Q 729 321 537 277 C 508 270 510 266 537 253 Z" style="fill: #0070C0;"></path>
                                    
                                    
                                                                                                                                                                                                                                                                                                                                                                                                                                                                        </g>
                            </svg>