<svg width='83' height='83' >
                                <g transform="translate(3, 70) scale(0.07, -0.07)">
                                    <!-- 先将完整的字以灰色字体绘制完成，层级位于下面 -->
                                                                        <path d="M 340 603 Q 497 651 596 702 Q 644 721 685 731 Q 704 732 707 740 Q 711 752 698 763 Q 676 779 628 798 Q 612 805 598 804 Q 591 800 589 788 Q 589 742 331 622 C 304 609 311 594 340 603 Z" style="fill: #0070C0;"></path>
                                                                        <path d="M 331 622 Q 309 647 277 659 Q 261 665 252 655 Q 246 649 257 630 Q 276 599 273 555 Q 270 447 232 395 Q 219 379 225 367 Q 232 345 252 328 Q 265 316 283 331 Q 346 374 511 392 L 566 398 Q 669 408 799 396 Q 823 392 833 399 Q 840 405 835 418 Q 829 431 788 456 Q 764 471 690 458 Q 656 457 565 445 L 510 438 Q 422 428 334 408 Q 315 402 312 408 Q 303 415 308 435 Q 324 558 338 592 Q 339 598 340 603 C 342 612 342 612 331 622 Z" style="fill: #0070C0;"></path>
                                                                        <path d="M 511 392 Q 517 116 494 97 Q 484 90 469 94 Q 423 104 379 116 Q 366 117 367 110 Q 368 103 380 94 Q 471 24 504 -19 Q 520 -38 537 -22 Q 577 20 573 94 Q 569 137 566 398 L 565 445 Q 566 491 578 523 Q 588 544 569 558 Q 541 580 508 592 Q 489 599 479 590 Q 473 583 485 566 Q 510 524 509 478 Q 509 459 510 438 L 511 392 Z" style="fill: #0070C0;"></path>
                                                                        <path d="M 292 261 Q 249 203 196 154 Q 166 124 175 84 Q 179 63 204 71 Q 232 81 255 111 Q 291 153 303 194 Q 318 227 317 255 Q 314 265 308 268 Q 299 269 292 261 Z" style="fill: #0070C0;"></path>
                                                                        <path d="M 692 252 Q 752 185 822 90 Q 838 65 854 59 Q 864 56 873 67 Q 889 80 880 131 Q 871 200 696 287 Q 687 294 683 280 Q 682 265 692 252 Z" style="fill: #0070C0;"></path>
                                    
                                    
                                                                                                                                                                                                                                                                                                                                                                                                                                                                        </g>
                            </svg>