<svg width='83' height='83' >
                                <g transform="translate(3, 70) scale(0.07, -0.07)">
                                    <!-- 先将完整的字以灰色字体绘制完成，层级位于下面 -->
                                                                        <path d="M 385 635 Q 508 668 594 715 Q 646 737 689 747 Q 708 748 713 757 Q 717 770 703 782 Q 637 828 595 824 Q 586 820 586 807 Q 586 767 375 656 C 348 642 356 627 385 635 Z" style="fill: #0070C0;"></path>
                                                                        <path d="M 385 518 Q 384 600 385 621 Q 385 628 385 635 L 375 656 Q 366 672 314 688 Q 298 694 288 686 Q 279 679 287 662 Q 315 614 327 562 Q 337 508 358 290 C 361 260 407 265 404 295 Q 394 407 387 486 L 385 518 Z" style="fill: #0070C0;"></path>
                                                                        <path d="M 614 514 Q 761 550 767 555 Q 776 562 771 572 Q 764 584 734 591 Q 704 598 605 562 Q 472 529 385 518 C 355 514 358 492 387 486 Q 427 476 497 490 Q 531 497 569 505 L 614 514 Z" style="fill: #0070C0;"></path>
                                                                        <path d="M 604 323 Q 637 452 650 474 Q 654 483 639 497 Q 626 507 614 514 C 588 530 558 533 569 505 Q 582 481 571 372 Q 568 347 565 317 C 562 287 597 294 604 323 Z" style="fill: #0070C0;"></path>
                                                                        <path d="M 358 290 Q 243 278 115 262 Q 90 259 108 239 Q 138 209 206 219 Q 452 283 906 283 Q 930 283 935 293 Q 942 306 923 323 Q 862 368 817 360 Q 732 344 604 323 L 565 317 Q 532 313 501 308 Q 453 304 404 295 L 358 290 Z" style="fill: #0070C0;"></path>
                                                                        <path d="M 582 177 Q 660 105 752 2 Q 770 -22 787 -27 Q 797 -28 805 -17 Q 820 -2 806 47 Q 794 116 584 212 Q 574 219 572 204 Q 571 189 582 177 Z" style="fill: #0070C0;"></path>
                                    
                                    
                                                                                                                                                                                                                                                                                                                                                                                                                                                                                                                                                    </g>
                            </svg>