<svg width='83' height='83' >
                                <g transform="translate(3, 70) scale(0.07, -0.07)">
                                    <!-- 先将完整的字以灰色字体绘制完成，层级位于下面 -->
                                                                        <path d="M 873 94 Q 904 107 894 147 Q 875 205 863 295 Q 862 313 854 322 Q 847 331 841 305 Q 828 226 810 175 Q 798 150 772 136 Q 634 76 381 108 Q 345 115 324 129 Q 287 150 281 180 Q 253 270 379 434 Q 434 507 575 635 Q 612 669 654 691 Q 670 697 673 707 Q 680 722 661 736 Q 627 760 585 772 Q 575 776 559 769 Q 474 735 426 725 Q 356 712 253 709 Q 240 710 235 702 Q 231 695 245 682 Q 261 666 278 661 Q 315 652 512 707 Q 525 711 531 704 Q 537 697 524 685 Q 260 379 237 252 Q 236 249 235 243 Q 225 186 239 148 Q 245 120 273 97 Q 375 4 674 36 Q 680 37 686 38 Q 771 48 873 94 Z" style="fill: #0070C0;"></path>
                                    
                                    
                                                                                                                                                        </g>
                            </svg>