<svg width='83' height='83' >
                                <g transform="translate(3, 70) scale(0.07, -0.07)">
                                    <!-- 先将完整的字以灰色字体绘制完成，层级位于下面 -->
                                                                        <path d="M 403 424 Q 512 464 680 519 Q 705 523 708 509 Q 714 497 671 370 Q 658 318 624 336 Q 599 345 575 353 Q 559 356 563 347 Q 569 334 641 266 Q 663 235 684 258 Q 721 300 750 395 Q 771 486 817 525 Q 833 541 816 556 Q 795 571 740 586 Q 719 593 703 579 Q 634 530 404 457 L 356 443 Q 341 440 330 436 Q 183 396 104 381 Q 89 381 87 370 Q 86 363 130 343 Q 158 330 184 344 Q 218 360 357 408 L 403 424 Z" style="fill: #0070C0;"></path>
                                                                        <path d="M 433 77 Q 520 5 815 40 Q 861 47 896 59 Q 926 66 934 81 Q 938 91 928 114 Q 903 177 889 315 Q 885 331 876 337 Q 870 340 867 325 Q 857 252 845 188 Q 835 134 806 113 Q 790 103 703 94 Q 613 87 544 95 Q 490 102 470 115 Q 418 146 407 267 Q 404 312 403 424 L 404 457 Q 408 560 428 614 Q 435 633 425 647 Q 410 660 370 676 Q 336 686 325 676 Q 316 667 332 645 Q 354 615 355 566 Q 355 508 356 443 L 357 408 Q 357 174 389 125 Q 404 100 433 77 Z" style="fill: #0070C0;"></path>
                                    
                                    
                                                                                                                                                                                                                                    </g>
                            </svg>