<svg width='83' height='83' >
                                <g transform="translate(3, 70) scale(0.07, -0.07)">
                                    <!-- 先将完整的字以灰色字体绘制完成，层级位于下面 -->
                                                                        <path d="M 388 486 Q 319 225 74 56 Q 59 44 74 41 Q 92 42 133 60 Q 217 103 278 166 Q 348 230 380 303 Q 438 441 451 505 L 456 539 Q 456 593 481 702 Q 487 733 500 762 Q 510 784 490 795 Q 430 835 398 823 Q 382 817 390 799 Q 411 762 412 689 Q 402 550 396 523 L 388 486 Z" style="fill: #0070C0;"></path>
                                                                        <path d="M 451 505 Q 520 527 570 535 Q 592 539 598 534 Q 602 527 598 511 Q 490 112 639 36 Q 676 18 741 10 Q 877 -3 968 54 Q 989 66 980 90 Q 961 156 954 255 Q 953 274 946 273 Q 940 273 935 254 Q 925 212 913 164 Q 903 127 879 104 Q 860 86 800 80 Q 733 70 679 89 Q 631 104 616 136 Q 594 173 602 259 Q 612 350 654 464 Q 673 512 702 538 Q 718 551 717 564 Q 716 576 646 607 Q 631 617 613 602 Q 568 572 456 539 L 396 523 Q 335 510 278 493 Q 232 483 156 482 Q 141 483 144 467 Q 147 455 174 439 Q 205 421 243 437 Q 321 465 388 486 L 451 505 Z" style="fill: #0070C0;"></path>
                                    
                                    
                                                                                                                                                                                                                                    </g>
                            </svg>