<svg width='83' height='83' >
                                <g transform="translate(3, 70) scale(0.07, -0.07)">
                                    <!-- 先将完整的字以灰色字体绘制完成，层级位于下面 -->
                                                                        <path d="M 378 638 Q 477 771 485 780 Q 497 793 483 810 Q 437 852 412 850 Q 399 849 401 833 Q 402 713 250 565 Q 208 534 158 489 Q 148 473 165 477 Q 190 478 226 502 Q 304 554 359 616 L 378 638 Z" style="fill: #0070C0;"></path>
                                                                        <path d="M 359 616 Q 389 586 469 599 L 689 645 Q 740 657 747 664 Q 757 673 752 682 Q 743 695 710 704 Q 676 711 642 697 Q 585 678 524 662 Q 457 647 378 638 C 348 634 337 633 359 616 Z" style="fill: #0070C0;"></path>
                                                                        <path d="M 912 25 Q 945 41 934 81 Q 910 145 896 241 Q 895 260 886 270 Q 879 279 874 253 Q 864 165 848 106 Q 836 84 812 70 Q 692 13 453 49 Q 414 56 393 70 Q 359 89 354 119 Q 339 174 427 275 Q 466 318 560 392 Q 584 411 612 424 Q 628 430 631 439 Q 638 454 619 469 Q 585 493 545 507 Q 533 511 517 503 Q 438 469 394 459 Q 330 446 232 441 Q 219 442 214 434 Q 211 425 225 414 Q 243 398 258 394 Q 289 387 334 403 Q 484 452 491 441 Q 495 437 487 430 Q 318 228 307 149 Q 300 113 310 90 Q 314 62 341 40 Q 432 -51 722 -25 Q 726 -24 733 -24 Q 815 -17 912 25 Z" style="fill: #0070C0;"></path>
                                    
                                    
                                                                                                                                                                                                                                                                                                                </g>
                            </svg>