<svg width='83' height='83' >
                                <g transform="translate(3, 70) scale(0.07, -0.07)">
                                    <!-- 先将完整的字以灰色字体绘制完成，层级位于下面 -->
                                                                        <path d="M 375 792 Q 330 752 189 691 Q 185 684 189 680 Q 228 680 374 732 Q 405 751 469 762 Q 485 763 488 770 Q 492 780 481 790 Q 427 832 395 828 Q 388 824 388 814 Q 387 801 375 792 Z" style="fill: #0070C0;"></path>
                                                                        <path d="M 168 592 Q 213 535 227 532 Q 236 531 241 541 Q 247 553 243 577 Q 242 593 219 608 Q 167 639 152 635 Q 148 632 147 621 Q 148 612 168 592 Z" style="fill: #0070C0;"></path>
                                                                        <path d="M 283 647 Q 322 581 343 576 Q 355 573 362 588 Q 366 598 360 618 Q 354 634 334 645 Q 304 664 291 670 Q 284 673 281 663 Q 278 656 283 647 Z" style="fill: #0070C0;"></path>
                                                                        <path d="M 468 677 Q 453 647 409 588 Q 402 575 416 577 Q 453 601 474 618 Q 523 658 539 667 Q 557 676 547 690 Q 535 703 512 714 Q 493 724 482 721 Q 472 720 475 708 Q 479 693 468 677 Z" style="fill: #0070C0;"></path>
                                                                        <path d="M 375 372 Q 456 453 492 468 Q 510 475 503 489 Q 499 504 438 535 Q 420 542 400 534 Q 348 515 269 490 Q 248 483 198 484 Q 176 485 185 466 Q 192 454 209 444 Q 236 429 271 449 Q 388 500 402 490 Q 414 483 408 469 Q 386 430 360 383 C 345 357 354 351 375 372 Z" style="fill: #0070C0;"></path>
                                                                        <path d="M 403 329 Q 394 359 375 372 L 360 383 Q 351 387 341 391 Q 322 398 312 392 Q 299 385 313 373 Q 344 349 355 311 L 364 273 Q 388 153 357 81 Q 344 57 312 63 Q 276 70 244 78 Q 232 81 237 70 Q 243 63 263 50 Q 306 17 322 -9 Q 332 -25 348 -23 Q 361 -22 386 3 Q 458 82 413 297 L 403 329 Z" style="fill: #0070C0;"></path>
                                                                        <path d="M 413 297 Q 426 304 443 311 Q 474 324 497 343 Q 510 350 510 360 Q 504 366 491 363 Q 448 347 403 329 L 355 311 Q 264 280 166 246 Q 144 237 104 237 Q 91 236 89 224 Q 88 211 98 202 Q 122 186 157 168 Q 167 165 180 175 Q 238 221 364 273 L 413 297 Z" style="fill: #0070C0;"></path>
                                                                        <path d="M 977 37 Q 993 53 973 84 Q 951 139 940 212 Q 939 222 931 232 Q 919 238 917 212 Q 910 187 902 142 Q 895 100 883 83 Q 876 70 851 65 Q 752 41 687 66 Q 651 78 639 119 Q 618 186 633 421 Q 645 644 672 686 Q 690 731 597 760 Q 594 761 592 761 Q 571 765 563 756 Q 554 746 562 736 Q 584 715 586 640 Q 571 199 589 108 Q 598 62 642 31 Q 721 -20 893 3 Q 902 6 911 7 Q 957 19 977 37 Z" style="fill: #0070C0;"></path>
                                    
                                    
                                                                                                                                                                                                                                                                                                                                                                                                                                                                                                                                                                                                                                                                                                            </g>
                            </svg>