<svg width='83' height='83' >
                                <g transform="translate(3, 70) scale(0.07, -0.07)">
                                    <!-- 先将完整的字以灰色字体绘制完成，层级位于下面 -->
                                                                        <path d="M 461 695 Q 483 423 458 144 Q 455 113 443 105 Q 437 99 358 97 Q 321 104 327 94 Q 330 88 377 61.5 Q 424 35 444 7.5 Q 464 -20 482 -18 Q 498 -16 509 19 Q 528 72 521 186 Q 512 335 521 578 Q 526 713 538 735 Q 555 765 493 799 Q 484 805 438 810 Q 415 813 436 779 Q 457 744 461 695 Z" style="fill: #0070C0;"></path>
                                    
                                    
                                                                                                                                                        </g>
                            </svg>