<svg width='83' height='83' >
                                <g transform="translate(3, 70) scale(0.07, -0.07)">
                                    <!-- 先将完整的字以灰色字体绘制完成，层级位于下面 -->
                                                                        <path d="M 526 549 Q 569 571 661 633 Q 704 664 732 669 Q 778 679 784 698 Q 787 708 749 753 Q 716 793 703 793 Q 336 721 301 716 Q 265 715 244 719 Q 225 723 216 711 Q 212 702 222 690 Q 232 675 260 657 Q 284 638 295 639 Q 305 638 328 653 Q 391 698 626 741 Q 671 750 677 746 Q 681 745 680 739 Q 679 729 522 577 Q 512 570 506 563 C 484 543 500 535 526 549 Z" style="fill: #0070C0;"></path>
                                                                        <path d="M 506 563 Q 475 585 461 588 Q 448 591 448 567 Q 449 549 471 533 Q 513 497 525 417 Q 544 180 506 126 Q 505 126 505 124 Q 493 114 469 123 Q 430 130 383 141 Q 364 148 363 140 Q 363 137 456 50 Q 480 28 496 -3 Q 506 -13 518 -8 Q 534 -1 563 42 Q 614 127 585 436 Q 581 464 577 485 Q 568 528 526 549 L 506 563 Z" style="fill: #0070C0;"></path>
                                    
                                    
                                                                                                                                                                                                                                    </g>
                            </svg>