<svg width='83' height='83' >
                                <g transform="translate(3, 70) scale(0.07, -0.07)">
                                    <!-- 先将完整的字以灰色字体绘制完成，层级位于下面 -->
                                                                        <path d="M 332 729 Q 292 723 320 704 Q 371 674 430 689 Q 536 707 647 727 Q 698 737 706 744 Q 716 753 711 762 Q 704 775 671 785 Q 641 791 539 762 Q 410 735 332 729 Z" style="fill: #0070C0;"></path>
                                                                        <path d="M 523 501 Q 646 516 891 516 Q 915 517 920 526 Q 926 539 907 556 Q 849 598 789 587 Q 606 551 130 489 Q 106 488 124 467 Q 140 451 161 445 Q 185 439 203 445 Q 390 494 473 495 L 523 501 Z" style="fill: #0070C0;"></path>
                                                                        <path d="M 444 50 Q 414 63 377 75 Q 365 79 365 72 Q 365 65 375 53 Q 445 -8 491 -59 Q 503 -69 518 -53 Q 563 2 558 85 Q 551 352 557 436 Q 564 464 557 475 Q 550 485 523 501 C 498 517 460 522 473 495 Q 474 489 481 481 Q 491 456 492 76 Q 489 58 482 48 Q 470 41 444 50 Z" style="fill: #0070C0;"></path>
                                    
                                    
                                                                                                                                                                                                                                                                                                                </g>
                            </svg>