<svg width='83' height='83' >
                                <g transform="translate(3, 70) scale(0.07, -0.07)">
                                    <!-- 先将完整的字以灰色字体绘制完成，层级位于下面 -->
                                                                        <path d="M 500 709 Q 591 724 710 735 Q 722 734 732 747 Q 733 760 709 772 Q 673 794 598 775 Q 562 769 528 760 Q 449 745 302 731 Q 271 728 294 709 Q 330 678 360 686 Q 403 695 456 702 L 500 709 Z" style="fill: #0070C0;"></path>
                                                                        <path d="M 556 484 Q 634 490 898 491 Q 922 491 927 501 Q 934 514 914 531 Q 842 588 796 565 Q 699 549 552 525 L 502 518 Q 499 519 497 518 Q 322 497 115 474 Q 90 471 108 451 Q 124 435 146 428 Q 171 421 190 427 Q 328 463 506 480 L 556 484 Z" style="fill: #0070C0;"></path>
                                                                        <path d="M 506 480 Q 527 186 476 99 Q 473 90 464 87 Q 446 81 349 100 Q 340 101 338 97 Q 337 93 346 84 Q 416 30 455 -12 Q 468 -25 475 -23 Q 491 -22 517 6 Q 574 63 575 174 Q 576 234 556 484 L 552 525 Q 531 687 528 692 Q 519 701 500 709 C 474 724 442 729 456 702 Q 487 656 502 518 L 506 480 Z" style="fill: #0070C0;"></path>
                                    
                                    
                                                                                                                                                                                                                                                                                                                </g>
                            </svg>