<svg width='83' height='83' >
                                <g transform="translate(3, 70) scale(0.07, -0.07)">
                                    <!-- 先将完整的字以灰色字体绘制完成，层级位于下面 -->
                                                                        <path d="M 499 673 Q 590 688 686 701 Q 750 711 761 720 Q 771 729 767 738 Q 760 753 727 762 Q 693 772 598 744 Q 453 713 314 705 Q 272 701 301 680 Q 340 653 430 664 Q 440 665 452 667 L 499 673 Z" style="fill: #0070C0;"></path>
                                                                        <path d="M 482 468 Q 494 520 507 568 Q 525 635 524 641 Q 512 660 499 673 C 479 695 448 697 452 667 Q 461 625 443 526 Q 436 499 428 460 L 419 421 Q 395 322 357 159 C 350 130 401 136 408 165 Q 442 307 472 429 L 482 468 Z" style="fill: #0070C0;"></path>
                                                                        <path d="M 641 177 Q 678 360 738 416 Q 759 438 741 459 Q 722 475 661 505 Q 640 514 614 505 Q 545 481 482 468 L 428 460 Q 355 450 280 446 Q 261 446 262 434 Q 265 424 286 416 Q 314 401 357 413 Q 388 417 419 421 L 472 429 Q 527 439 584 446 Q 614 452 625 440 Q 643 421 637 384 Q 615 266 585 174 C 576 145 635 148 641 177 Z" style="fill: #0070C0;"></path>
                                                                        <path d="M 357 159 Q 329 158 301 152 Q 159 130 72 134 Q 62 135 53 128 Q 46 121 52 110 Q 64 94 119 62 Q 134 55 156 64 Q 339 130 526 140 Q 670 152 937 99 Q 943 99 949 97 Q 970 93 977 103 Q 984 115 964 132 Q 883 199 844 191 Q 840 191 837 189 Q 807 183 641 177 L 585 174 Q 521 178 408 165 L 357 159 Z" style="fill: #0070C0;"></path>
                                    
                                    
                                                                                                                                                                                                                                                                                                                                                                                            </g>
                            </svg>