<svg width='83' height='83' >
                                <g transform="translate(3, 70) scale(0.07, -0.07)">
                                    <!-- 先将完整的字以灰色字体绘制完成，层级位于下面 -->
                                                                        <path d="M 647 576 Q 780 597 797 609 Q 807 618 803 627 Q 796 640 765 650 Q 734 657 648 632 L 590 617 Q 472 596 419 586 L 364 580 Q 324 579 281 575 Q 241 571 268 551 Q 311 524 364 531 L 418 540 Q 500 553 590 567 L 647 576 Z" style="fill: #0070C0;"></path>
                                                                        <path d="M 644 356 Q 761 368 903 355 Q 928 352 934 361 Q 941 374 929 387 Q 898 415 853 436 Q 838 443 811 434 Q 754 422 644 405 L 589 399 Q 526 396 406 379 L 353 372 Q 319 371 296 366 Q 226 356 121 354 Q 106 354 105 342 Q 105 329 124 314 Q 163 284 213 296 Q 234 302 341 321 L 398 331 Q 446 340 589 351 L 644 356 Z" style="fill: #0070C0;"></path>
                                                                        <path d="M 419 586 Q 419 686 423 719 Q 427 741 405 751 Q 353 773 336 770 Q 314 766 333 743 Q 360 701 364 580 L 364 531 Q 358 404 353 372 L 341 321 Q 302 186 228 99 Q 165 32 161 25 Q 160 16 172 18 Q 188 19 210 36 Q 267 79 300 119 Q 373 209 398 331 L 406 379 Q 416 502 418 540 L 419 586 Z" style="fill: #0070C0;"></path>
                                                                        <path d="M 589 351 Q 585 -21 604 -48 Q 619 -64 628 -42 Q 643 -6 644 356 L 644 405 Q 644 502 647 576 L 648 632 Q 651 749 671 782 Q 678 798 657 815 Q 632 834 587 846 Q 566 852 553 837 Q 543 828 556 816 Q 587 791 589 754 Q 589 700 590 617 L 590 567 Q 590 497 590 405 Q 590 402 589 399 L 589 351 Z" style="fill: #0070C0;"></path>
                                    
                                    
                                                                                                                                                                                                                                                                                                                                                                                            </g>
                            </svg>