<svg width='83' height='83' >
                                <g transform="translate(3, 70) scale(0.07, -0.07)">
                                    <!-- 先将完整的字以灰色字体绘制完成，层级位于下面 -->
                                                                        <path d="M 448 780 Q 488 749 529 711 Q 544 698 560 698 Q 572 699 577 713 Q 581 728 572 759 Q 565 784 526 804 Q 435 838 420 831 Q 414 827 416 813 Q 420 803 448 780 Z" style="fill: #0070C0;"></path>
                                                                        <path d="M 505 583 Q 559 587 610 593 Q 748 608 892 595 Q 916 592 922 601 Q 931 616 918 628 Q 848 692 780 670 Q 669 649 477 625 Q 165 592 131 590 Q 124 591 117 590 Q 102 590 101 578 Q 101 565 120 550 Q 138 537 170 525 Q 182 521 200 530 Q 216 536 291 549 Q 385 571 505 583 Z" style="fill: #0070C0;"></path>
                                                                        <path d="M 273 432 Q 251 445 229 451 Q 222 452 216 448 Q 209 441 218 429 Q 275 333 279 107 Q 280 71 299 40 Q 312 16 323 11 Q 342 5 343 38 Q 343 45 343 51 L 339 87 Q 336 100 333 112 Q 306 350 304 391 C 302 416 299 418 273 432 Z" style="fill: #0070C0;"></path>
                                                                        <path d="M 669 76 Q 679 52 700 13 Q 709 -6 719 -4 Q 735 -1 744 25 Q 781 101 784 203 Q 791 266 796 340 Q 800 391 825 423 Q 843 445 829 458 Q 805 480 756 502 Q 735 512 701 499 Q 608 469 502 451 Q 408 439 273 432 C 243 430 275 384 304 391 Q 332 400 470 417 L 511 423 Q 584 436 671 447 Q 711 454 726 435 Q 736 419 737 400 Q 737 265 712 133 Q 711 111 701 108 Q 697 104 670 121 Q 663 125 660 123 C 644 130 656 103 669 76 Z" style="fill: #0070C0;"></path>
                                                                        <path d="M 534 238 Q 595 245 648 251 Q 673 254 665 268 Q 655 284 628 290 Q 589 296 535 281 L 487 271 Q 424 261 369 250 Q 350 246 371 230 Q 384 220 413 223 Q 450 229 487 232 L 534 238 Z" style="fill: #0070C0;"></path>
                                                                        <path d="M 535 281 Q 538 398 539 398 Q 538 401 537 401 Q 524 414 511 423 C 487 441 457 444 470 417 Q 474 407 480 399 Q 486 383 487 271 L 487 232 Q 487 180 487 101 C 487 71 529 77 529 107 Q 530 177 534 238 L 535 281 Z" style="fill: #0070C0;"></path>
                                                                        <path d="M 343 51 Q 347 50 358 51 Q 458 70 669 76 C 699 77 690 122 660 123 Q 648 126 529 107 L 487 101 Q 408 92 339 87 C 309 85 313 52 343 51 Z" style="fill: #0070C0;"></path>
                                    
                                    
                                                                                                                                                                                                                                                                                                                                                                                                                                                                                                                                                                                                                                </g>
                            </svg>