<svg width='83' height='83' >
                                <g transform="translate(3, 70) scale(0.07, -0.07)">
                                    <!-- 先将完整的字以灰色字体绘制完成，层级位于下面 -->
                                                                        <path d="M 476 790 Q 501 771 529 747 Q 545 734 561 737 Q 573 738 577 752 Q 580 768 568 799 Q 556 827 467 840 Q 451 843 444 839 Q 440 835 442 821 Q 446 811 476 790 Z" style="fill: #0070C0;"></path>
                                                                        <path d="M 230 662 Q 199 659 222 640 Q 255 612 285 618 Q 558 667 779 685 Q 789 684 799 696 Q 800 709 778 720 Q 739 744 673 725 Q 444 682 230 662 Z" style="fill: #0070C0;"></path>
                                                                        <path d="M 377 584 Q 367 588 334 590 Q 324 591 321 586 Q 315 580 325 567 Q 350 533 371 473 Q 375 455 388 444 Q 407 428 409 442 Q 410 446 410 451 L 407 481 Q 394 532 388 554 C 380 583 380 583 377 584 Z" style="fill: #0070C0;"></path>
                                                                        <path d="M 634 508 Q 658 553 681 564 Q 697 579 685 596 Q 624 653 576 629 Q 495 601 377 584 C 347 580 358 549 388 554 Q 398 555 412 559 Q 494 574 572 588 Q 591 592 600 584 Q 604 580 603 568 Q 597 541 589 517 C 580 488 619 482 634 508 Z" style="fill: #0070C0;"></path>
                                                                        <path d="M 410 451 Q 417 450 428 452 Q 495 468 640 480 Q 650 481 652 489 Q 652 496 634 508 L 589 517 Q 585 518 580 516 Q 484 494 407 481 C 377 476 380 452 410 451 Z" style="fill: #0070C0;"></path>
                                                                        <path d="M 540 284 Q 639 353 668 360 Q 689 366 683 383 Q 680 399 616 439 Q 597 449 574 442 Q 508 423 408 400 Q 383 393 320 399 Q 298 400 304 381 Q 311 368 330 355 Q 360 336 394 354 Q 419 361 547 397 Q 560 401 572 394 Q 584 385 577 372 Q 552 338 525 298 C 508 273 515 267 540 284 Z" style="fill: #0070C0;"></path>
                                                                        <path d="M 558 250 Q 551 269 540 284 L 525 298 Q 510 308 491 313 Q 469 320 459 312 Q 446 305 462 292 Q 490 274 503 244 L 514 209 Q 535 113 509 55 Q 496 30 464 35 Q 437 39 412 42 Q 400 45 406 34 Q 410 27 427 15 Q 464 -16 477 -39 Q 487 -57 504 -53 Q 517 -52 543 -24 Q 601 43 569 213 L 558 250 Z" style="fill: #0070C0;"></path>
                                                                        <path d="M 569 213 Q 677 219 821 215 Q 852 214 879 213 Q 901 212 906 221 Q 913 234 895 249 Q 841 292 800 285 Q 707 269 558 250 L 503 244 Q 343 228 154 211 Q 132 210 148 191 Q 163 175 181 169 Q 203 162 221 167 Q 362 201 514 209 L 569 213 Z" style="fill: #0070C0;"></path>
                                    
                                    
                                                                                                                                                                                                                                                                                                                                                                                                                                                                                                                                                                                                                                                                                                            </g>
                            </svg>