<svg width='83' height='83' >
                                <g transform="translate(3, 70) scale(0.07, -0.07)">
                                    <!-- 先将完整的字以灰色字体绘制完成，层级位于下面 -->
                                                                        <path d="M 475 485 Q 547 653 563 683 Q 573 695 565 708 Q 558 721 519 742 Q 491 757 480 754 Q 462 750 465 730 Q 484 537 292 308 Q 280 296 269 284 Q 212 217 68 102 Q 58 92 66 89 Q 76 86 90 92 Q 190 138 274 210 Q 380 294 462 456 L 475 485 Z" style="fill: #0070C0;"></path>
                                                                        <path d="M 462 456 Q 480 423 575 292 Q 666 171 733 101 Q 764 67 793 69 Q 881 75 958 79 Q 991 80 992 89 Q 993 98 956 112 Q 772 178 740 205 Q 617 304 490 466 Q 481 476 475 485 C 457 509 447 482 462 456 Z" style="fill: #0070C0;"></path>
                                    
                                    
                                                                                                                                                                                                                                    </g>
                            </svg>