<svg width='83' height='83' >
                                <g transform="translate(3, 70) scale(0.07, -0.07)">
                                    <!-- 先将完整的字以灰色字体绘制完成，层级位于下面 -->
                                                                        <path d="M 532 697 Q 460 531 279 320 Q 269 310 266 303 Q 262 291 277 294 Q 316 298 426 437 Q 436 450 449 465 L 472 494 Q 515 552 562 626 Q 592 678 618 705 Q 628 715 623 730 Q 619 743 589 768 Q 561 787 542 787 Q 523 786 531 762 Q 546 726 532 697 Z" style="fill: #0070C0;"></path>
                                                                        <path d="M 449 465 Q 473 399 475 391 Q 474 390 475 387 Q 481 239 453 119 Q 438 70 475 22 Q 476 19 480 16 Q 499 0 511 28 Q 526 70 526 118 Q 523 349 530 401 Q 537 429 527 440 Q 509 462 495 476 Q 485 486 472 494 C 447 511 439 493 449 465 Z" style="fill: #0070C0;"></path>
                                    
                                    
                                                                                                                                                                                                                                    </g>
                            </svg>