<svg width='83' height='83' >
                                <g transform="translate(3, 70) scale(0.07, -0.07)">
                                    <!-- 先将完整的字以灰色字体绘制完成，层级位于下面 -->
                                                                        <path d="M 529 709 Q 537 721 544 731 Q 551 741 566 756 Q 576 763 574 774 Q 574 776 573 777 Q 570 797 537 816 Q 502 837 482 832 Q 472 831 474 815 Q 480 771 453 702 Q 409 586 304 467 Q 297 462 282 446 Q 227 388 83 274 Q 73 269 85 265 Q 171 274 314 406 Q 324 417 337 430 Q 423 523 514 686 L 529 709 Z" style="fill: #0070C0;"></path>
                                                                        <path d="M 514 686 L 517 680 L 688 449 Q 749 368 772 361 Q 847 342 966 355 Q 986 356 990 361 Q 996 368 976 378 Q 772 469 745 488 Q 711 519 647 588 Q 550 690 529 709 C 507 730 498 711 514 686 Z" style="fill: #0070C0;"></path>
                                                                        <path d="M 323 90 Q 370 100 457 109 L 619 122 Q 745 131 880 116 Q 910 112 913 126 Q 915 137 907 147 Q 838 214 780 195 L 779 195 L 492 162 Q 166 138 170 139 L 157 139 Q 141 140 141 127 Q 141 114 159 98 Q 178 85 210 73 Q 216 71 223 73 Q 290 86 323 90 Z" style="fill: #0070C0;"></path>
                                    
                                    
                                                                                                                                                                                                                                                                                                                </g>
                            </svg>