<svg width='83' height='83' >
                                <g transform="translate(3, 70) scale(0.07, -0.07)">
                                    <!-- 先将完整的字以灰色字体绘制完成，层级位于下面 -->
                                                                        <path d="M 249 488 Q 307 558 372 660 Q 403 715 431 741 Q 441 753 436 768 Q 432 781 401 808 Q 371 829 351 828 Q 330 827 339 802 Q 355 765 340 735 Q 264 561 76 346 Q 64 334 62 328 Q 58 315 74 318 Q 110 322 221 454 L 249 488 Z" style="fill: #0070C0;"></path>
                                                                        <path d="M 221 454 Q 242 412 243 327 Q 242 318 242 308 Q 241 205 213 99 Q 198 50 235 2 Q 236 -1 240 -4 Q 259 -20 271 8 Q 286 50 286 98 Q 289 345 298 401 Q 305 429 295 440 Q 277 462 263 476 Q 256 483 249 488 C 226 507 209 482 221 454 Z" style="fill: #0070C0;"></path>
                                                                        <path d="M 441 588 Q 426 587 423 580 Q 422 573 429 568 Q 486 552 613 583 Q 637 587 639 580 Q 642 571 621 538 Q 345 192 482 99 Q 515 78 575 62 Q 746 20 940 95 Q 971 110 963 134 Q 941 197 930 300 Q 926 313 918 313 Q 912 313 907 297 Q 900 260 893 221 Q 883 164 840 142 Q 794 117 685 116 Q 577 115 537 136 Q 500 155 489 192 Q 464 295 634 484 Q 685 544 737 569 Q 762 579 755 593 Q 748 609 699 639 Q 680 652 652 639 Q 540 596 441 588 Z" style="fill: #0070C0;"></path>
                                    
                                    
                                                                                                                                                                                                                                                                                                                </g>
                            </svg>