<svg width='83' height='83' >
                                <g transform="translate(3, 70) scale(0.07, -0.07)">
                                    <!-- 先将完整的字以灰色字体绘制完成，层级位于下面 -->
                                                                        <path d="M 368 662 Q 404 647 491 661 Q 599 679 713 698 Q 773 710 781 717 Q 791 726 787 735 Q 780 748 749 757 Q 713 766 628 737 Q 493 704 364 695 Q 354 694 350 692 C 321 686 339 671 368 662 Z" style="fill: #0070C0;"></path>
                                                                        <path d="M 350 692 Q 305 717 291 715 Q 270 714 285 690 Q 319 624 277 406 Q 262 349 230 281 Q 197 212 101 131 Q 86 119 83 113 Q 80 106 92 106 Q 131 103 211 178 Q 286 248 320 375 Q 347 519 367 658 Q 367 661 368 662 C 371 681 371 681 350 692 Z" style="fill: #0070C0;"></path>
                                                                        <path d="M 561 399 Q 579 507 594 532 Q 604 551 586 561 Q 535 600 506 589 Q 491 583 499 568 Q 533 505 494 349 Q 490 334 485 317 Q 434 172 308 86 Q 292 73 275 61 Q 262 51 275 48 Q 336 48 428 132 Q 521 217 553 355 L 561 399 Z" style="fill: #0070C0;"></path>
                                                                        <path d="M 553 355 Q 572 319 631 231 Q 701 125 753 65 Q 777 37 802 36 Q 874 39 937 42 Q 964 43 964 49 Q 965 56 936 71 Q 786 137 743 180 Q 635 288 561 399 C 544 424 538 381 553 355 Z" style="fill: #0070C0;"></path>
                                    
                                    
                                                                                                                                                                                                                                                                                                                                                                                            </g>
                            </svg>