<svg width='83' height='83' >
                                <g transform="translate(3, 70) scale(0.07, -0.07)">
                                    <!-- 先将完整的字以灰色字体绘制完成，层级位于下面 -->
                                                                        <path d="M 290 544 Q 327 593 365 655 Q 393 707 419 731 Q 429 743 424 757 Q 420 770 389 796 Q 361 815 340 815 Q 321 814 329 790 Q 344 756 331 727 Q 291 630 230 541 Q 172 456 91 361 Q 81 351 78 343 Q 74 331 90 334 Q 132 340 264 509 L 290 544 Z" style="fill: #0070C0;"></path>
                                                                        <path d="M 264 509 Q 286 473 288 383 Q 288 247 262 139 Q 252 94 286 43 Q 287 43 289 40 Q 307 24 319 51 Q 334 91 333 138 Q 329 400 337 460 Q 344 487 335 498 Q 296 540 290 544 C 268 564 251 536 264 509 Z" style="fill: #0070C0;"></path>
                                                                        <path d="M 577 92 Q 567 50 594 -13 Q 601 -32 609 -35 Q 616 -42 623 -33 Q 632 -29 642 -7 Q 652 20 651 52 Q 650 104 651 580 Q 651 679 668 746 Q 678 762 674 776 Q 667 786 609 821 Q 584 837 563 822 Q 557 816 564 800 Q 598 751 600 702 Q 601 629 604 546 Q 603 401 601 243 Q 597 165 577 92 Z" style="fill: #0070C0;"></path>
                                                                        <path d="M 715 460 Q 785 417 874 353 Q 893 337 910 335 Q 919 335 925 347 Q 935 363 913 404 Q 888 458 709 491 Q 699 495 700 482 Q 701 469 715 460 Z" style="fill: #0070C0;"></path>
                                    
                                    
                                                                                                                                                                                                                                                                                                                                                                                            </g>
                            </svg>