<svg width='83' height='83' >
                                <g transform="translate(3, 70) scale(0.07, -0.07)">
                                    <!-- 先将完整的字以灰色字体绘制完成，层级位于下面 -->
                                                                        <path d="M 253 534 Q 290 585 332 648 Q 360 697 386 721 Q 396 731 391 746 Q 387 759 357 784 Q 330 803 310 804 Q 291 803 299 779 Q 312 745 299 718 Q 227 558 64 368 Q 54 358 50 351 Q 46 339 61 342 Q 100 346 204 474 Q 214 487 227 501 L 253 534 Z" style="fill: #0070C0;"></path>
                                                                        <path d="M 227 501 Q 246 438 247 399 Q 247 266 220 155 Q 208 104 242 65 Q 243 62 246 60 Q 262 44 274 70 Q 289 110 288 155 Q 288 399 296 455 Q 303 482 294 492 Q 258 531 253 534 C 231 554 219 530 227 501 Z" style="fill: #0070C0;"></path>
                                                                        <path d="M 619 528 Q 620 529 622 531 Q 743 639 777 650 Q 798 657 790 675 Q 786 691 716 728 Q 695 738 672 728 Q 611 704 520 677 Q 496 668 438 669 Q 413 669 422 648 Q 431 635 451 623 Q 484 605 518 628 Q 540 637 647 680 Q 660 686 674 678 Q 687 669 681 655 Q 647 601 608 538 C 592 512 597 508 619 528 Z" style="fill: #0070C0;"></path>
                                                                        <path d="M 660 447 Q 647 501 619 528 L 608 538 Q 598 547 588 552 Q 576 559 570 551 Q 566 547 574 531 Q 593 491 605 440 L 612 403 Q 636 181 590 121 Q 589 121 588 119 Q 579 113 493 124 Q 466 130 460 124 Q 454 123 472 109 Q 541 58 580 14 Q 601 -5 620 5 Q 644 20 661 81 Q 694 208 667 407 L 660 447 Z" style="fill: #0070C0;"></path>
                                                                        <path d="M 667 407 Q 724 411 918 412 Q 937 412 943 420 Q 947 432 932 446 Q 880 485 842 477 Q 772 464 660 447 L 605 440 Q 487 425 349 410 Q 327 409 343 391 Q 356 378 375 371 Q 396 365 412 370 Q 538 403 612 403 L 667 407 Z" style="fill: #0070C0;"></path>
                                    
                                    
                                                                                                                                                                                                                                                                                                                                                                                                                                                                        </g>
                            </svg>