<svg width='83' height='83' >
                                <g transform="translate(3, 70) scale(0.07, -0.07)">
                                    <!-- 先将完整的字以灰色字体绘制完成，层级位于下面 -->
                                                                        <path d="M 255 523 Q 292 574 333 636 Q 361 685 387 709 Q 397 721 392 736 Q 388 749 357 776 Q 327 797 307 796 Q 286 795 295 770 Q 308 737 296 709 Q 256 615 197 529 Q 139 445 60 354 Q 48 342 46 336 Q 42 323 58 326 Q 104 332 225 486 L 255 523 Z" style="fill: #0070C0;"></path>
                                                                        <path d="M 225 486 Q 246 441 247 398 Q 247 269 242 221 Q 235 166 221 107 Q 206 58 243 10 Q 244 7 248 4 Q 267 -12 279 16 Q 294 58 294 106 Q 290 379 298 441 Q 305 469 295 480 Q 277 502 263 516 Q 259 520 255 523 C 233 543 213 514 225 486 Z" style="fill: #0070C0;"></path>
                                                                        <path d="M 643 234 Q 658 642 660 646 Q 660 658 672 706 Q 676 719 653 734 Q 613 753 587 758 Q 569 762 560 752 Q 553 743 561 727 Q 592 684 593 653 Q 606 455 597 225 C 596 195 642 204 643 234 Z" style="fill: #0070C0;"></path>
                                                                        <path d="M 824 263 Q 727 253 643 234 L 597 225 Q 527 212 467 193 Q 445 187 450 214 Q 456 274 463 337 Q 467 362 456 377 Q 440 396 414 409 Q 402 416 391 413 Q 381 409 388 388 Q 416 324 407 261 Q 400 200 375 174 Q 356 155 363 140 Q 376 124 393 113 Q 408 104 418 113 Q 458 159 705 209 Q 798 228 820 220 C 850 217 854 266 824 263 Z" style="fill: #0070C0;"></path>
                                                                        <path d="M 820 220 Q 817 183 807 159 Q 792 134 822 77 Q 832 61 844 73 Q 869 100 873 189 Q 885 393 901 425 Q 901 428 903 430 Q 912 446 900 461 Q 879 477 845 497 Q 832 504 818 497 Q 811 493 813 479 Q 841 430 824 263 L 820 220 Z" style="fill: #0070C0;"></path>
                                    
                                    
                                                                                                                                                                                                                                                                                                                                                                                                                                                                        </g>
                            </svg>