<svg width='83' height='83' >
                                <g transform="translate(3, 70) scale(0.07, -0.07)">
                                    <!-- 先将完整的字以灰色字体绘制完成，层级位于下面 -->
                                                                        <path d="M 528 716 Q 531 728 554 747 Q 561 753 561 764 Q 560 774 547 787 Q 514 820 479 816 Q 470 815 471 801 Q 486 717 328 535 Q 310 517 293 500 Q 239 448 110 348 Q 101 344 112 340 Q 193 352 330 473 Q 418 563 513 695 L 528 716 Z" style="fill: #0070C0;"></path>
                                                                        <path d="M 513 695 Q 613 565 745 429 Q 767 407 801 410 Q 919 417 956 425 Q 966 428 968 433 Q 968 439 952 446 Q 793 491 708 555 Q 624 622 528 716 C 507 737 495 719 513 695 Z" style="fill: #0070C0;"></path>
                                                                        <path d="M 524 369 Q 671 397 673 399 Q 683 406 679 416 Q 672 429 642 437 Q 618 443 509 416 Q 383 395 336 393 Q 299 389 324 370 Q 369 343 423 354 Q 450 358 479 362 L 524 369 Z" style="fill: #0070C0;"></path>
                                                                        <path d="M 520 122 Q 535 284 543 323 Q 553 344 524 369 C 502 389 471 391 479 362 Q 488 353 475 116 C 473 86 517 92 520 122 Z" style="fill: #0070C0;"></path>
                                                                        <path d="M 475 116 Q 348 106 199 93 Q 175 92 192 71 Q 226 37 271 45 Q 496 96 814 74 Q 814 75 817 74 Q 839 73 846 82 Q 853 95 834 112 Q 776 160 733 151 Q 652 138 520 122 L 475 116 Z" style="fill: #0070C0;"></path>
                                    
                                    
                                                                                                                                                                                                                                                                                                                                                                                                                                                                        </g>
                            </svg>