<svg width='83' height='83' >
                                <g transform="translate(3, 70) scale(0.07, -0.07)">
                                    <!-- 先将完整的字以灰色字体绘制完成，层级位于下面 -->
                                                                        <path d="M 246 497 Q 289 555 334 629 Q 359 678 384 701 Q 394 713 388 727 Q 384 740 354 763 Q 326 782 305 782 Q 286 779 295 757 Q 310 726 298 698 Q 231 535 79 348 Q 69 338 66 331 Q 62 319 77 322 Q 119 332 214 456 Q 215 460 219 463 L 246 497 Z" style="fill: #0070C0;"></path>
                                                                        <path d="M 219 463 Q 240 408 241 362 Q 240 337 240 311 Q 239 205 210 95 Q 200 50 234 -1 Q 235 -1 237 -4 Q 255 -20 267 7 Q 282 47 281 94 Q 284 353 293 412 Q 300 439 291 450 Q 249 495 246 497 C 225 518 209 491 219 463 Z" style="fill: #0070C0;"></path>
                                                                        <path d="M 527 586 Q 599 716 611 730 Q 618 742 613 754 Q 609 767 578 787 Q 550 803 532 801 Q 513 797 523 776 Q 535 755 521 702 Q 484 591 388 447 Q 379 437 377 430 Q 376 418 389 422 Q 429 434 509 559 L 527 586 Z" style="fill: #0070C0;"></path>
                                                                        <path d="M 509 559 Q 564 543 626 557 Q 803 603 809 609 Q 818 619 812 627 Q 803 640 772 646 Q 739 650 708 635 Q 668 619 625 606 Q 579 594 527 586 C 497 581 480 567 509 559 Z" style="fill: #0070C0;"></path>
                                                                        <path d="M 427 373 Q 412 370 410 362 Q 409 355 417 351 Q 451 344 484 353 Q 557 381 584 390 Q 606 394 609 387 Q 609 386 596 357 Q 398 114 486 36 Q 487 36 490 33 Q 521 5 592 -11 Q 757 -47 932 28 Q 965 44 955 69 Q 930 129 911 228 Q 905 241 898 241 Q 892 241 888 224 Q 884 190 879 150 Q 872 95 832 72 Q 790 48 692 45 Q 595 41 558 58 Q 524 74 513 108 Q 497 183 627 317 Q 666 359 705 376 Q 730 388 721 401 Q 714 417 663 445 Q 644 457 616 443 Q 516 391 427 373 Z" style="fill: #0070C0;"></path>
                                    
                                    
                                                                                                                                                                                                                                                                                                                                                                                                                                                                        </g>
                            </svg>