<svg width='83' height='83' >
                                <g transform="translate(3, 70) scale(0.07, -0.07)">
                                    <!-- 先将完整的字以灰色字体绘制完成，层级位于下面 -->
                                                                        <path d="M 225 514 Q 229 492 229 411 Q 228 345 214 308 Q 210 268 173 219 Q 160 206 171 181 Q 183 150 200 138 Q 213 128 228 146 Q 288 239 477 437 Q 493 452 493 462 Q 494 469 487 467 Q 469 461 298 299 Q 283 287 276 291 Q 272 294 273 307 Q 282 532 286 557 Q 290 576 278 586 Q 265 599 217 612 Q 198 615 192 609 Q 185 602 197 582 Q 218 554 225 514 Z" style="fill: #0070C0;"></path>
                                                                        <path d="M 446 658 Q 500 594 532 579 Q 548 575 559 589 Q 566 602 564 620 Q 552 668 461 698 Q 445 704 434 700 Q 427 699 429 686 Q 430 673 446 658 Z" style="fill: #0070C0;"></path>
                                                                        <path d="M 695 336 Q 746 441 761 512 Q 794 656 810 685 Q 822 707 803 718 Q 748 761 717 752 Q 701 748 707 729 Q 723 693 716 602 Q 716 536 671 414 Q 599 240 430 137 Q 411 124 392 111 Q 376 101 391 97 Q 407 96 449 111 Q 524 142 580 192 Q 661 255 681 310 L 695 336 Z" style="fill: #0070C0;"></path>
                                                                        <path d="M 681 310 Q 759 232 846 127 Q 862 105 879 98 Q 889 97 897 107 Q 912 120 900 169 Q 888 232 695 336 C 669 350 660 331 681 310 Z" style="fill: #0070C0;"></path>
                                    
                                    
                                                                                                                                                                                                                                                                                                                                                                                            </g>
                            </svg>