<svg width='83' height='83' >
                                <g transform="translate(3, 70) scale(0.07, -0.07)">
                                    <!-- 先将完整的字以灰色字体绘制完成，层级位于下面 -->
                                                                        <path d="M 231 497 Q 282 560 338 644 Q 368 696 394 721 Q 404 733 400 748 Q 396 761 365 788 Q 337 809 315 809 Q 294 808 303 783 Q 318 749 303 719 Q 228 551 63 363 Q 45 345 38 332 Q 34 319 50 322 Q 89 325 203 463 Q 203 464 204 465 L 231 497 Z" style="fill: #0070C0;"></path>
                                                                        <path d="M 204 465 Q 207 456 212 448 Q 242 391 222 195 Q 215 140 201 83 Q 186 34 223 -14 Q 224 -17 228 -20 Q 247 -36 259 -8 Q 274 34 274 82 Q 273 349 282 409 Q 289 437 279 448 Q 261 470 247 484 Q 240 491 231 497 C 207 516 192 492 204 465 Z" style="fill: #0070C0;"></path>
                                                                        <path d="M 437 582 Q 391 575 424 553 Q 481 523 545 540 Q 636 558 729 577 Q 772 587 779 593 Q 789 603 784 613 Q 775 628 739 637 Q 712 643 611 613 Q 515 589 437 582 Z" style="fill: #0070C0;"></path>
                                                                        <path d="M 459 354 Q 419 347 448 328 Q 496 298 558 316 Q 634 331 713 347 Q 749 354 755 360 Q 765 369 760 378 Q 751 391 718 400 Q 684 407 650 393 Q 610 380 566 369 Q 517 359 459 354 Z" style="fill: #0070C0;"></path>
                                                                        <path d="M 338 113 Q 314 112 332 91 Q 365 58 422 71 Q 572 110 895 109 Q 917 109 923 118 Q 930 131 911 148 Q 851 191 808 183 Q 661 153 338 113 Z" style="fill: #0070C0;"></path>
                                    
                                    
                                                                                                                                                                                                                                                                                                                                                                                                                                                                        </g>
                            </svg>