<svg width='83' height='83' >
                                <g transform="translate(3, 70) scale(0.07, -0.07)">
                                    <!-- 先将完整的字以灰色字体绘制完成，层级位于下面 -->
                                                                        <path d="M 251 490 Q 303 557 362 649 Q 392 704 419 729 Q 429 741 425 756 Q 421 771 389 796 Q 359 815 339 816 Q 318 815 327 790 Q 343 753 328 724 Q 255 550 72 338 Q 60 326 58 320 Q 54 307 70 310 Q 112 319 225 458 Q 225 459 226 460 L 251 490 Z" style="fill: #0070C0;"></path>
                                                                        <path d="M 226 460 Q 248 391 250 385 Q 249 384 250 381 Q 256 222 222 91 Q 212 46 246 -5 Q 247 -5 249 -8 Q 267 -24 279 3 Q 294 43 293 90 Q 293 346 301 404 Q 308 431 299 442 Q 259 485 251 490 C 228 510 217 489 226 460 Z" style="fill: #0070C0;"></path>
                                                                        <path d="M 571 699 Q 583 672 572 649 Q 539 573 491 500 Q 445 431 380 356 Q 370 346 367 339 Q 363 327 377 330 Q 440 339 597 560 Q 621 609 657 640 Q 667 652 663 666 Q 659 679 629 704 Q 602 723 582 724 Q 563 723 571 699 Z" style="fill: #0070C0;"></path>
                                                                        <path d="M 784 185 Q 660 170 526 141 Q 511 137 507 141 Q 504 147 514 161 Q 674 369 709 404 Q 724 414 717 430 Q 710 443 657 473 Q 639 483 628 479 Q 613 473 618 449 Q 636 386 480 190 Q 453 160 407 131 Q 391 118 394 105 Q 398 86 427 61 Q 439 48 454 60 Q 517 105 795 155 Q 796 156 800 155 C 830 159 814 189 784 185 Z" style="fill: #0070C0;"></path>
                                                                        <path d="M 800 155 Q 845 73 856 66 Q 863 62 873 70 Q 889 80 888 124 Q 889 184 738 304 Q 731 311 726 300 Q 722 287 729 275 Q 754 235 784 185 L 800 155 Z" style="fill: #0070C0;"></path>
                                    
                                    
                                                                                                                                                                                                                                                                                                                                                                                                                                                                        </g>
                            </svg>