<svg width='83' height='83' >
                                <g transform="translate(3, 70) scale(0.07, -0.07)">
                                    <!-- 先将完整的字以灰色字体绘制完成，层级位于下面 -->
                                                                        <path d="M 242 533 Q 285 588 331 661 Q 359 712 383 735 Q 393 747 388 761 Q 384 774 353 800 Q 325 819 304 819 Q 285 818 293 794 Q 308 760 295 733 Q 228 571 63 377 Q 53 367 50 359 Q 46 347 62 350 Q 99 354 204 486 Q 208 492 213 497 L 242 533 Z" style="fill: #0070C0;"></path>
                                                                        <path d="M 213 497 Q 214 493 218 489 Q 248 429 228 232 Q 221 177 206 119 Q 196 74 230 23 Q 231 23 233 20 Q 251 4 263 31 Q 278 71 277 118 Q 276 391 285 452 Q 292 479 283 490 Q 244 532 242 533 C 221 554 199 523 213 497 Z" style="fill: #0070C0;"></path>
                                                                        <path d="M 613 636 Q 736 685 779 693 Q 798 694 802 702 Q 806 714 794 726 Q 770 745 723 764 Q 705 773 691 772 Q 684 768 682 756 Q 676 704 417 597 Q 411 587 418 584 Q 433 580 552 618 Q 561 621 571 623 L 613 636 Z" style="fill: #0070C0;"></path>
                                                                        <path d="M 644 385 Q 749 398 918 399 Q 940 400 944 409 Q 950 422 932 437 Q 875 476 835 467 Q 762 451 645 428 L 593 419 Q 476 401 341 380 Q 319 377 335 359 Q 374 328 410 340 Q 495 365 592 377 L 644 385 Z" style="fill: #0070C0;"></path>
                                                                        <path d="M 637 150 Q 641 277 644 385 L 645 428 Q 646 527 652 576 Q 661 606 615 635 Q 614 636 613 636 C 588 652 559 650 571 623 Q 589 590 594 503 Q 593 473 593 419 L 592 377 Q 591 286 589 143 C 589 113 636 120 637 150 Z" style="fill: #0070C0;"></path>
                                                                        <path d="M 589 143 Q 501 133 400 118 Q 379 117 395 99 Q 408 86 427 80 Q 448 74 464 79 Q 596 112 854 112 Q 873 112 879 120 Q 885 132 868 146 Q 813 188 755 171 Q 706 162 637 150 L 589 143 Z" style="fill: #0070C0;"></path>
                                    
                                    
                                                                                                                                                                                                                                                                                                                                                                                                                                                                                                                                                    </g>
                            </svg>