<svg width='83' height='83' >
                                <g transform="translate(3, 70) scale(0.07, -0.07)">
                                    <!-- 先将完整的字以灰色字体绘制完成，层级位于下面 -->
                                                                        <path d="M 218 509 Q 261 564 307 637 Q 332 683 356 705 Q 366 717 361 732 Q 357 747 325 771 Q 295 792 275 791 Q 254 790 263 765 Q 276 734 266 708 Q 232 621 178 539 Q 126 460 55 374 Q 45 362 42 356 Q 38 343 54 346 Q 90 355 186 470 L 218 509 Z" style="fill: #0070C0;"></path>
                                                                        <path d="M 186 470 Q 205 434 206 346 Q 205 337 205 326 Q 205 215 177 103 Q 162 54 199 6 Q 200 3 204 0 Q 223 -16 235 12 Q 250 54 250 102 Q 249 369 258 429 Q 265 459 239 487 Q 233 493 218 509 C 197 531 174 498 186 470 Z" style="fill: #0070C0;"></path>
                                                                        <path d="M 603 550 Q 762 595 768 599 Q 777 608 772 616 Q 765 628 734 634 Q 710 637 606 600 L 556 585 Q 501 572 440 562 Q 403 555 430 539 Q 475 515 534 533 Q 541 536 554 538 L 603 550 Z" style="fill: #0070C0;"></path>
                                                                        <path d="M 589 380 Q 674 401 813 422 Q 823 421 833 435 Q 834 448 809 458 Q 770 479 701 455 Q 629 439 594 426 L 545 414 Q 505 407 468 400 Q 419 393 364 383 Q 333 379 357 360 Q 396 333 425 342 Q 474 355 537 368 L 589 380 Z" style="fill: #0070C0;"></path>
                                                                        <path d="M 585 360 Q 586 370 589 380 L 594 426 Q 598 486 603 550 L 606 600 Q 607 703 632 766 Q 639 781 627 792 Q 605 811 563 823 Q 536 829 528 822 Q 518 815 526 802 Q 551 763 554 715 Q 557 649 556 585 L 554 538 Q 551 468 545 414 L 537 368 Q 509 211 405 116 Q 356 74 285 32 Q 272 23 272 19 Q 273 15 286 15 Q 305 11 352 29 Q 532 92 578 322 L 585 360 Z" style="fill: #0070C0;"></path>
                                                                        <path d="M 578 322 Q 656 193 756 55 Q 775 31 809 29 Q 926 23 963 26 Q 973 27 976 33 Q 977 39 962 48 Q 796 123 740 186 Q 667 261 585 360 C 566 383 562 348 578 322 Z" style="fill: #0070C0;"></path>
                                    
                                    
                                                                                                                                                                                                                                                                                                                                                                                                                                                                                                                                                    </g>
                            </svg>