<svg width='83' height='83' >
                                <g transform="translate(3, 70) scale(0.07, -0.07)">
                                    <!-- 先将完整的字以灰色字体绘制完成，层级位于下面 -->
                                                                        <path d="M 255 477 Q 301 544 354 634 Q 382 689 407 717 Q 417 729 411 744 Q 407 759 373 783 Q 342 802 320 801 Q 299 798 309 774 Q 327 740 314 708 Q 253 540 78 311 Q 68 299 65 292 Q 62 279 78 283 Q 118 292 225 436 Q 226 439 229 442 L 255 477 Z" style="fill: #0070C0;"></path>
                                                                        <path d="M 229 442 Q 230 436 235 431 Q 262 371 238 206 Q 231 158 217 107 Q 202 58 239 10 Q 240 7 244 4 Q 263 -12 275 16 Q 290 58 290 106 Q 297 337 306 389 Q 313 417 303 428 Q 285 450 271 464 Q 264 471 255 477 C 231 495 215 469 229 442 Z" style="fill: #0070C0;"></path>
                                                                        <path d="M 410 466 Q 431 432 452 394 Q 459 378 475 374 Q 485 371 493 381 Q 502 394 503 423 Q 503 459 420 511 Q 407 518 401 519 Q 395 518 392 504 Q 392 494 410 466 Z" style="fill: #0070C0;"></path>
                                                                        <path d="M 781 571 Q 762 540 683 449 Q 671 430 691 433 Q 736 458 829 519 Q 851 538 880 549 Q 905 559 892 581 Q 877 600 847 618 Q 819 634 805 631 Q 790 630 795 614 Q 798 592 781 571 Z" style="fill: #0070C0;"></path>
                                                                        <path d="M 618 383 Q 630 476 646 655 Q 647 685 668 731 Q 675 746 664 758 Q 640 779 598 791 Q 571 798 562 791 Q 552 784 560 771 Q 611 684 566 367 Q 539 241 475 158 Q 430 109 353 56 Q 340 49 340 43 Q 341 39 354 39 Q 370 35 409 51 Q 542 99 595 277 Q 602 307 610 341 L 618 383 Z" style="fill: #0070C0;"></path>
                                                                        <path d="M 610 341 Q 718 122 803 38 Q 816 26 834 24 Q 901 28 959 30 Q 983 31 984 37 Q 985 44 958 60 Q 816 139 775 183 Q 679 285 618 383 C 602 408 597 368 610 341 Z" style="fill: #0070C0;"></path>
                                    
                                    
                                                                                                                                                                                                                                                                                                                                                                                                                                                                                                                                                    </g>
                            </svg>