<svg width='83' height='83' >
                                <g transform="translate(3, 70) scale(0.07, -0.07)">
                                    <!-- 先将完整的字以灰色字体绘制完成，层级位于下面 -->
                                                                        <path d="M 224 479 Q 276 543 334 635 Q 362 684 386 709 Q 396 719 392 734 Q 388 747 358 772 Q 330 791 310 791 Q 291 790 299 766 Q 312 732 300 705 Q 234 543 67 348 Q 57 338 54 331 Q 50 319 65 322 Q 101 326 198 447 L 224 479 Z" style="fill: #0070C0;"></path>
                                                                        <path d="M 198 447 Q 217 384 218 352 Q 218 214 192 111 Q 180 60 214 21 Q 215 18 218 16 Q 234 0 246 26 Q 261 66 260 111 Q 260 346 268 399 Q 275 426 266 436 Q 229 476 224 479 C 202 499 190 476 198 447 Z" style="fill: #0070C0;"></path>
                                                                        <path d="M 507 624 Q 528 652 549 687 Q 568 721 585 738 Q 594 748 589 760 Q 585 772 559 792 Q 534 808 517 807 Q 501 806 508 786 Q 518 764 511 744 Q 487 678 449 617 Q 412 557 362 492 Q 352 482 351 477 Q 348 467 360 469 Q 388 478 490 600 L 507 624 Z" style="fill: #0070C0;"></path>
                                                                        <path d="M 490 600 Q 506 591 532 585 Q 559 582 607 593 Q 808 638 815 645 Q 825 655 820 663 Q 811 676 780 683 Q 752 689 634 649 Q 513 625 507 624 C 478 618 463 613 490 600 Z" style="fill: #0070C0;"></path>
                                                                        <path d="M 536 386 Q 457 373 387 369 Q 366 368 363 358 Q 362 349 388 336 Q 415 317 438 325 Q 483 338 525 347 L 586 360 Q 653 376 711 382 Q 736 385 741 377 Q 753 356 742 307 Q 720 169 683 110 Q 664 77 634 83 Q 603 93 576 105 Q 551 114 568 88 Q 617 39 641 2 Q 663 -23 686 -3 Q 722 22 748 68 Q 779 122 802 287 Q 809 345 831 374 Q 846 389 839 400 Q 829 413 773 439 Q 751 449 729 435 Q 701 420 597 398 L 536 386 Z" style="fill: #0070C0;"></path>
                                                                        <path d="M 525 347 Q 468 169 367 56 Q 342 25 315 -4 Q 309 -8 306 -15 Q 302 -25 312 -24 Q 330 -25 370 12 Q 505 111 586 360 L 597 398 Q 621 471 626 477 Q 636 490 632 504 Q 619 523 592 542 Q 576 555 562 554 Q 549 550 553 534 Q 568 500 536 386 L 525 347 Z" style="fill: #0070C0;"></path>
                                    
                                    
                                                                                                                                                                                                                                                                                                                                                                                                                                                                                                                                                    </g>
                            </svg>