<svg width='83' height='83' >
                                <g transform="translate(3, 70) scale(0.07, -0.07)">
                                    <!-- 先将完整的字以灰色字体绘制完成，层级位于下面 -->
                                                                        <path d="M 251 488 Q 297 552 348 640 Q 376 694 401 720 Q 411 732 405 746 Q 401 759 369 783 Q 341 802 320 801 Q 299 800 309 775 Q 325 741 313 711 Q 274 611 215 518 Q 157 428 78 329 Q 68 319 66 311 Q 62 299 77 302 Q 117 311 221 449 Q 224 453 227 457 L 251 488 Z" style="fill: #0070C0;"></path>
                                                                        <path d="M 227 457 Q 230 447 235 439 Q 263 370 241 208 Q 234 159 221 107 Q 206 58 243 10 Q 244 7 248 4 Q 267 -12 279 16 Q 294 58 294 106 Q 298 344 306 397 Q 313 425 303 436 Q 285 458 271 472 Q 262 482 251 488 C 226 505 216 485 227 457 Z" style="fill: #0070C0;"></path>
                                                                        <path d="M 630 676 Q 642 695 656 707 Q 666 719 660 733 Q 656 746 625 771 Q 597 790 576 791 Q 557 788 565 765 Q 580 731 567 703 Q 498 535 335 341 Q 325 331 322 323 Q 318 311 334 314 Q 404 333 568 577 Q 607 643 615 653 L 630 676 Z" style="fill: #0070C0;"></path>
                                                                        <path d="M 615 653 Q 625 619 795 413 Q 822 382 973 402 Q 983 403 984 409 Q 985 413 971 421 Q 820 484 777 527 Q 711 588 636 670 Q 633 674 630 676 C 609 698 602 680 615 653 Z" style="fill: #0070C0;"></path>
                                                                        <path d="M 522 242 Q 525 243 527 243 Q 660 313 724 337 Q 743 338 741 350 Q 738 368 722 390 Q 706 412 684 419 Q 669 420 666 401 Q 666 386 654 372 Q 608 329 525 265 C 501 247 494 233 522 242 Z" style="fill: #0070C0;"></path>
                                                                        <path d="M 525 265 Q 529 304 539 345 Q 543 364 532 375 Q 519 390 493 400 Q 480 404 470 399 Q 463 395 468 376 Q 481 333 477 293 Q 465 131 478 86 Q 482 64 503 43 Q 573 -15 735 5 Q 750 8 767 12 Q 807 22 846 49 Q 865 65 851 93 Q 836 121 814 209 Q 813 225 805 230 Q 798 233 795 215 Q 771 121 754 90 Q 724 57 628 62 Q 591 65 562 77 Q 537 90 529 106 Q 514 143 522 242 L 525 265 Z" style="fill: #0070C0;"></path>
                                    
                                    
                                                                                                                                                                                                                                                                                                                                                                                                                                                                                                                                                    </g>
                            </svg>