<svg width='83' height='83' >
                                <g transform="translate(3, 70) scale(0.07, -0.07)">
                                    <!-- 先将完整的字以灰色字体绘制完成，层级位于下面 -->
                                                                        <path d="M 251 508 Q 299 566 352 640 Q 383 691 411 714 Q 421 724 418 740 Q 414 753 385 780 Q 357 802 337 803 Q 318 802 324 778 Q 337 742 322 714 Q 244 554 57 356 Q 47 346 43 340 Q 39 328 54 330 Q 94 336 209 462 Q 216 471 226 480 L 251 508 Z" style="fill: #0070C0;"></path>
                                                                        <path d="M 226 480 Q 230 467 236 458 Q 264 398 245 220 Q 238 169 225 115 Q 210 66 247 18 Q 248 15 252 12 Q 271 -4 283 24 Q 298 66 298 114 Q 298 361 306 417 Q 313 445 303 456 Q 285 478 271 492 Q 262 502 251 508 C 226 525 215 508 226 480 Z" style="fill: #0070C0;"></path>
                                                                        <path d="M 403 429 Q 418 383 404 298 Q 401 259 368 214 Q 347 187 388 146 Q 391 145 394 141 Q 407 132 420 149 Q 463 219 602 372 Q 615 385 617 394 Q 618 401 611 399 Q 599 395 478 287 Q 468 280 462 282 Q 459 283 459 293 Q 455 453 457 471 Q 460 489 448 497 Q 435 507 391 517 Q 375 518 369 514 Q 362 507 375 489 Q 394 464 403 429 Z" style="fill: #0070C0;"></path>
                                                                        <path d="M 552 618 Q 583 596 617 567 Q 633 554 649 557 Q 661 558 665 572 Q 668 588 657 619 Q 642 652 543 668 Q 527 671 520 667 Q 516 663 517 649 Q 521 639 552 618 Z" style="fill: #0070C0;"></path>
                                                                        <path d="M 753 262 Q 802 385 813 429 Q 819 519 841 602 Q 845 629 857 653 Q 867 675 848 684 Q 793 723 762 711 Q 746 705 755 689 Q 788 634 763 466 Q 754 420 739 367 Q 679 193 513 70 Q 497 57 479 43 Q 464 31 478 29 Q 494 29 534 46 Q 607 83 660 137 Q 712 185 740 237 L 753 262 Z" style="fill: #0070C0;"></path>
                                                                        <path d="M 740 237 Q 815 167 905 64 Q 921 43 936 38 Q 945 37 953 47 Q 966 60 954 105 Q 942 168 753 262 C 726 275 718 258 740 237 Z" style="fill: #0070C0;"></path>
                                    
                                    
                                                                                                                                                                                                                                                                                                                                                                                                                                                                                                                                                    </g>
                            </svg>