<svg width='83' height='83' >
                                <g transform="translate(3, 70) scale(0.07, -0.07)">
                                    <!-- 先将完整的字以灰色字体绘制完成，层级位于下面 -->
                                                                        <path d="M 220 499 Q 272 566 330 665 Q 355 717 380 741 Q 390 753 385 767 Q 381 780 350 803 Q 322 822 301 821 Q 282 818 291 796 Q 333 712 80 381 Q 74 375 70 368 Q 60 358 58 351 Q 54 339 69 342 Q 103 351 195 467 L 220 499 Z" style="fill: #0070C0;"></path>
                                                                        <path d="M 263 137 Q 262 363 268 415 Q 275 442 266 452 Q 248 471 235 485 Q 228 494 220 499 C 197 519 182 494 195 467 Q 217 427 219 351 Q 219 228 196 131 Q 184 80 218 41 Q 219 38 222 36 Q 238 20 250 46 Q 263 82 264 121 L 263 137 Z" style="fill: #0070C0;"></path>
                                                                        <path d="M 421 512 Q 316 493 313 491 Q 297 491 297 482 Q 297 475 316 464 Q 338 451 359 460 Q 386 470 415 478 L 470 493 Q 494 500 521 505 Q 533 506 535 502 Q 542 489 541 450 Q 535 314 511 240 Q 499 194 485 180 Q 475 170 454 176 Q 424 186 398 196 Q 377 203 391 184 Q 431 138 454 104 Q 461 85 481 89 Q 497 92 518 116 Q 575 177 590 414 Q 593 466 612 498 Q 625 517 617 525 Q 604 541 572 553 Q 550 563 527 551 Q 505 541 477 529 L 421 512 Z" style="fill: #0070C0;"></path>
                                                                        <path d="M 477 529 Q 484 569 489 610 Q 498 694 504 709 Q 513 722 506 736 Q 490 754 460 767 Q 441 779 428 774 Q 416 767 423 753 Q 442 723 436 647 Q 435 644 435 638 Q 431 572 421 512 L 415 478 Q 382 319 267 142 Q 264 141 263 137 C 246 112 240 104 264 121 Q 301 146 321 169 Q 420 277 470 493 L 477 529 Z" style="fill: #0070C0;"></path>
                                                                        <path d="M 672 475 Q 662 479 639 485 Q 629 489 625 485 Q 619 479 625 465 Q 653 386 663 260 Q 663 223 682 195 Q 697 174 702 188 Q 708 203 709 226 L 707 261 Q 706 265 706 271 Q 688 407 686 445 C 684 471 684 471 672 475 Z" style="fill: #0070C0;"></path>
                                                                        <path d="M 867 286 Q 886 409 918 448 Q 943 476 917 492 Q 895 504 866 523 Q 848 533 795 507 Q 744 486 672 475 C 642 470 656 440 686 445 Q 693 446 704 448 Q 753 460 796 468 Q 824 474 831 463 Q 843 453 833 402 Q 824 347 812 283 C 807 254 862 256 867 286 Z" style="fill: #0070C0;"></path>
                                                                        <path d="M 709 226 Q 719 225 730 227 Q 781 237 891 244 Q 901 245 904 254 Q 904 263 872 284 Q 871 285 867 286 L 812 283 Q 754 270 707 261 C 678 255 679 227 709 226 Z" style="fill: #0070C0;"></path>
                                    
                                    
                                                                                                                                                                                                                                                                                                                                                                                                                                                                                                                                                                                                                                </g>
                            </svg>