<svg width='83' height='83' >
                                <g transform="translate(3, 70) scale(0.07, -0.07)">
                                    <!-- 先将完整的字以灰色字体绘制完成，层级位于下面 -->
                                                                        <path d="M 240 513 Q 282 576 328 657 Q 353 711 378 736 Q 388 748 382 762 Q 378 775 345 799 Q 315 818 295 816 Q 276 813 285 790 Q 301 757 290 728 Q 233 565 70 349 Q 60 339 57 331 Q 54 319 69 322 Q 103 331 217 481 L 240 513 Z" style="fill: #0070C0;"></path>
                                                                        <path d="M 217 481 Q 241 421 242 350 Q 241 337 241 320 Q 240 211 210 99 Q 200 54 234 3 Q 235 3 237 0 Q 255 -16 267 11 Q 282 51 281 98 Q 284 365 293 424 Q 300 451 291 462 Q 248 508 240 513 C 218 533 207 509 217 481 Z" style="fill: #0070C0;"></path>
                                                                        <path d="M 671 641 Q 692 645 843 660 Q 862 661 867 670 Q 871 682 854 694 Q 794 727 740 707 Q 614 673 410 626 Q 391 622 406 607 Q 439 583 492 600 Q 540 616 622 633 L 671 641 Z" style="fill: #0070C0;"></path>
                                                                        <path d="M 617 462 Q 647 508 685 572 Q 704 608 705 609 Q 704 619 691 630 Q 681 637 671 641 C 644 655 621 663 622 633 Q 628 594 586 504 L 561 460 Q 507 373 365 239 Q 358 235 367 232 Q 425 241 536 356 Q 549 372 566 390 L 617 462 Z" style="fill: #0070C0;"></path>
                                                                        <path d="M 566 390 Q 576 369 554 238 Q 538 190 572 142 Q 573 141 575 139 Q 591 124 602 149 Q 615 186 615 227 Q 611 402 614 442 Q 617 454 617 462 C 618 471 607 483 586 504 Q 573 519 557 527 Q 547 528 544 522 Q 541 515 561 460 L 566 390 Z" style="fill: #0070C0;"></path>
                                                                        <path d="M 705 382 Q 777 331 865 257 Q 884 238 901 236 Q 910 235 917 247 Q 927 263 909 307 Q 885 367 702 414 Q 692 418 692 405 Q 693 392 705 382 Z" style="fill: #0070C0;"></path>
                                                                        <path d="M 387 76 Q 363 75 380 55 Q 395 39 415 33 Q 437 26 456 30 Q 651 75 898 55 Q 920 54 926 64 Q 933 77 915 92 Q 858 137 816 129 Q 728 114 387 76 Z" style="fill: #0070C0;"></path>
                                    
                                    
                                                                                                                                                                                                                                                                                                                                                                                                                                                                                                                                                                                                                                </g>
                            </svg>