<svg width='83' height='83' >
                                <g transform="translate(3, 70) scale(0.07, -0.07)">
                                    <!-- 先将完整的字以灰色字体绘制完成，层级位于下面 -->
                                                                        <path d="M 199 462 Q 251 528 309 626 Q 334 674 356 697 Q 366 709 361 723 Q 357 736 326 759 Q 298 778 277 777 Q 258 774 267 752 Q 282 721 271 694 Q 237 603 184 519 Q 133 438 62 348 Q 52 338 50 331 Q 46 319 61 322 Q 92 331 177 434 L 199 462 Z" style="fill: #0070C0;"></path>
                                                                        <path d="M 177 434 Q 201 368 203 358 Q 202 357 203 354 Q 203 186 176 75 Q 164 24 198 -15 Q 199 -18 202 -20 Q 218 -36 230 -10 Q 245 30 244 75 Q 244 319 252 375 Q 259 402 250 412 Q 210 457 199 462 C 175 480 167 462 177 434 Z" style="fill: #0070C0;"></path>
                                                                        <path d="M 615 540 Q 774 583 780 587 Q 789 596 784 604 Q 777 616 746 622 Q 715 626 685 614 Q 652 602 618 590 L 562 573 Q 501 560 436 550 Q 399 543 427 527 Q 469 505 558 527 Q 559 528 563 528 L 615 540 Z" style="fill: #0070C0;"></path>
                                                                        <path d="M 606 391 Q 610 467 615 540 L 618 590 Q 619 650 637 725 Q 640 735 619 751 Q 582 770 557 775 Q 541 778 532 769 Q 525 762 533 746 Q 555 715 556 693 Q 560 635 562 573 L 563 528 Q 563 459 562 384 C 562 354 604 361 606 391 Z" style="fill: #0070C0;"></path>
                                                                        <path d="M 576 347 Q 696 371 877 371 Q 898 371 904 380 Q 910 393 892 406 Q 840 442 802 433 Q 729 415 606 391 L 562 384 Q 454 368 332 347 Q 311 344 327 327 Q 360 299 405 312 Q 463 330 531 340 L 576 347 Z" style="fill: #0070C0;"></path>
                                                                        <path d="M 736 159 Q 490 119 490 118 Q 487 122 494 130 Q 579 269 613 305 Q 628 321 617 330 Q 607 342 576 347 C 547 354 530 358 531 340 Q 530 334 532 321 Q 548 257 444 137 Q 425 119 397 100 Q 354 81 380 37 Q 392 18 405 12 Q 414 9 424 15 Q 517 78 751 140 C 780 148 766 164 736 159 Z" style="fill: #0070C0;"></path>
                                                                        <path d="M 751 140 Q 784 97 821 41 Q 834 19 848 12 Q 857 9 865 18 Q 880 30 873 74 Q 870 134 706 234 Q 699 241 694 229 Q 693 216 701 204 Q 717 183 736 159 L 751 140 Z" style="fill: #0070C0;"></path>
                                    
                                    
                                                                                                                                                                                                                                                                                                                                                                                                                                                                                                                                                                                                                                </g>
                            </svg>