<svg width='83' height='83' >
                                <g transform="translate(3, 70) scale(0.07, -0.07)">
                                    <!-- 先将完整的字以灰色字体绘制完成，层级位于下面 -->
                                                                        <path d="M 232 500 Q 280 566 332 657 Q 357 709 382 734 Q 392 746 386 761 Q 382 774 349 799 Q 318 818 298 817 Q 277 814 287 790 Q 303 757 292 728 Q 232 565 70 354 Q 60 342 57 336 Q 54 323 69 327 Q 106 331 207 468 L 232 500 Z" style="fill: #0070C0;"></path>
                                                                        <path d="M 207 468 Q 229 428 231 347 Q 231 232 209 135 Q 194 86 231 38 Q 232 35 236 32 Q 255 16 267 44 Q 282 86 282 134 Q 279 357 286 409 Q 293 437 283 448 Q 265 470 251 484 Q 242 494 232 500 C 208 518 194 495 207 468 Z" style="fill: #0070C0;"></path>
                                                                        <path d="M 623 635 Q 720 690 756 702 Q 774 706 776 714 Q 779 726 765 736 Q 696 772 660 765 Q 653 761 653 748 Q 654 703 465 584 C 440 568 452 559 480 570 Q 510 582 562 606 Q 575 612 591 618 L 623 635 Z" style="fill: #0070C0;"></path>
                                                                        <path d="M 465 584 Q 450 594 414 603 Q 396 606 391 600 Q 384 593 396 574 Q 426 531 431 407 Q 430 389 431 365 Q 428 208 371 137 Q 358 124 367 102 Q 377 72 393 59 Q 406 49 419 66 Q 459 121 587 240 Q 603 252 604 262 Q 607 269 599 267 Q 590 266 489 204 Q 480 200 478 202 Q 471 206 472 222 Q 476 519 481 551 Q 482 563 480 570 C 480 577 480 577 465 584 Z" style="fill: #0070C0;"></path>
                                                                        <path d="M 690 404 Q 825 447 829 451 Q 838 460 832 468 Q 825 480 794 484 Q 763 488 733 473 Q 705 461 677 449 L 633 434 Q 587 421 534 411 Q 497 401 526 387 Q 562 372 637 389 Q 640 390 645 391 L 690 404 Z" style="fill: #0070C0;"></path>
                                                                        <path d="M 645 391 Q 660 307 751 177 Q 781 138 820 107 Q 874 67 909 59 Q 937 59 934 94 Q 924 128 932 290 Q 932 303 926 305 Q 920 306 916 292 Q 903 255 891 218 Q 875 170 858 170 Q 840 171 807 207 Q 771 241 741 294 Q 714 342 690 404 L 677 449 Q 658 521 678 576 Q 688 606 623 635 C 596 648 577 644 591 618 Q 610 590 616 545 Q 622 487 633 434 L 645 391 Z" style="fill: #0070C0;"></path>
                                                                        <path d="M 594 115 Q 628 90 664 58 Q 677 46 691 47 Q 701 48 705 60 Q 709 73 700 101 Q 688 134 588 159 Q 573 162 568 159 Q 564 155 565 143 Q 569 133 594 115 Z" style="fill: #0070C0;"></path>
                                    
                                    
                                                                                                                                                                                                                                                                                                                                                                                                                                                                                                                                                                                                                                </g>
                            </svg>