<svg width='83' height='83' >
                                <g transform="translate(3, 70) scale(0.07, -0.07)">
                                    <!-- 先将完整的字以灰色字体绘制完成，层级位于下面 -->
                                                                        <path d="M 517 737 Q 530 758 543 770 Q 552 776 550 787 Q 549 797 535 811 Q 502 844 465 840 Q 455 837 458 824 Q 471 716 290 521 Q 286 518 283 514 Q 231 460 102 357 Q 92 351 104 348 Q 180 358 314 479 Q 404 569 504 717 L 517 737 Z" style="fill: #0070C0;"></path>
                                                                        <path d="M 504 717 Q 739 455 799 442 Q 910 442 960 452 Q 979 453 981 459 Q 984 466 968 472 Q 761 553 729 573 Q 644 630 523 732 Q 519 735 517 737 C 494 756 484 739 504 717 Z" style="fill: #0070C0;"></path>
                                                                        <path d="M 390 480 Q 350 473 379 455 Q 424 433 496 449 Q 535 458 578 465 Q 600 471 603 473 Q 613 483 608 491 Q 599 504 568 511 Q 540 517 456 490 Q 426 484 390 480 Z" style="fill: #0070C0;"></path>
                                                                        <path d="M 495 319 Q 582 329 714 330 Q 772 327 780 339 Q 784 351 768 365 Q 714 404 674 396 Q 533 366 233 323 Q 211 320 227 303 Q 258 275 309 286 Q 376 305 456 313 L 495 319 Z" style="fill: #0070C0;"></path>
                                                                        <path d="M 456 313 Q 456 312 458 308 Q 471 272 472 160 Q 472 90 466 74 Q 462 61 437 63 Q 407 70 376 75 Q 364 75 363 68 Q 362 62 373 53 Q 442 1 465 -31 Q 481 -44 493 -42 Q 503 -38 515 -3 Q 531 31 528 95 Q 524 201 526 240 Q 533 282 515 303 Q 505 313 495 319 C 471 337 446 341 456 313 Z" style="fill: #0070C0;"></path>
                                                                        <path d="M 290 223 Q 259 174 220 132 Q 195 102 207 66 Q 211 47 234 57 Q 291 84 306 162 Q 316 193 314 219 Q 310 229 305 230 Q 296 230 290 223 Z" style="fill: #0070C0;"></path>
                                                                        <path d="M 626 220 Q 678 171 743 99 Q 759 78 776 73 Q 785 72 793 83 Q 806 96 793 143 Q 783 186 711 218 Q 701 228 627 252 Q 617 258 615 245 Q 615 230 626 220 Z" style="fill: #0070C0;"></path>
                                    
                                    
                                                                                                                                                                                                                                                                                                                                                                                                                                                                                                                                                                                                                                </g>
                            </svg>