<svg width='83' height='83' >
                                <g transform="translate(3, 70) scale(0.07, -0.07)">
                                    <!-- 先将完整的字以灰色字体绘制完成，层级位于下面 -->
                                                                        <path d="M 239 572 Q 281 629 326 701 Q 354 753 379 777 Q 389 787 384 802 Q 380 815 350 839 Q 322 858 302 858 Q 283 857 291 833 Q 306 800 293 771 Q 254 677 195 587 Q 137 502 59 408 Q 49 398 46 391 Q 42 379 57 382 Q 96 388 199 521 Q 206 531 215 540 L 239 572 Z" style="fill: #0070C0;"></path>
                                                                        <path d="M 215 540 Q 242 476 242 403 Q 241 387 241 370 Q 240 256 209 139 Q 194 90 231 42 Q 232 39 236 36 Q 255 20 267 48 Q 282 90 282 138 Q 283 418 294 481 Q 301 509 291 520 Q 273 542 259 556 Q 250 566 239 572 C 215 589 204 568 215 540 Z" style="fill: #0070C0;"></path>
                                                                        <path d="M 786 565 Q 811 619 833 633 Q 852 655 826 672 Q 801 691 775 706 Q 759 716 738 707 Q 714 698 683 689 L 632 678 Q 592 671 552 659 L 504 647 Q 456 637 426 632 Q 413 632 411 624 Q 410 617 431 606 Q 452 593 480 603 Q 492 607 506 611 L 551 624 Q 561 628 632 641 L 682 650 Q 704 654 731 658 Q 744 659 748 654 Q 754 641 732 568 C 724 539 773 538 786 565 Z" style="fill: #0070C0;"></path>
                                                                        <path d="M 508 513 Q 471 507 439 500 C 410 494 420 460 449 469 Q 449 470 452 470 Q 474 477 507 484 L 548 493 Q 584 500 630 508 L 678 516 Q 732 526 798 535 Q 808 536 808 545 Q 808 552 786 565 C 767 577 761 575 732 568 Q 704 561 679 553 L 630 541 Q 587 531 549 522 L 508 513 Z" style="fill: #0070C0;"></path>
                                                                        <path d="M 439 500 Q 430 510 421 515 Q 402 525 393 521 Q 386 517 390 505 Q 406 460 376 395 Q 367 383 350 364 Q 340 351 346 339 Q 355 329 373 314 Q 383 305 399 315 Q 436 337 498 353 L 544 365 Q 584 375 628 383 L 677 392 Q 800 416 821 399 Q 836 381 806 249 Q 802 236 791 228 Q 782 224 716 249 Q 701 258 699 250 Q 698 241 714 225 Q 745 183 757 150 Q 767 128 786 139 Q 838 167 863 260 Q 893 374 908 384 Q 921 400 915 409 Q 905 421 858 444 Q 836 454 807 449 Q 758 434 699 427 Q 687 426 677 423 L 629 414 Q 584 407 546 397 L 501 387 Q 465 380 432 370 Q 416 366 416 377 Q 435 441 449 468 L 449 469 C 457 487 457 487 439 500 Z" style="fill: #0070C0;"></path>
                                                                        <path d="M 506 611 Q 507 562 508 513 L 507 484 Q 506 457 505 430 Q 504 409 501 387 L 498 353 Q 479 206 417 116 Q 366 56 367 54 Q 370 50 380 52 Q 390 49 417 67 Q 514 122 540 329 Q 541 347 544 365 L 546 397 Q 547 424 548 452 Q 548 473 548 493 L 549 522 Q 549 574 551 624 L 552 659 Q 552 695 568 738 Q 574 751 564 761 Q 542 777 506 786 Q 482 790 475 784 Q 466 777 474 766 Q 498 732 504 647 L 506 611 Z" style="fill: #0070C0;"></path>
                                                                        <path d="M 628 383 Q 619 -31 633 -63 Q 634 -66 636 -69 Q 651 -84 659 -63 Q 677 -21 677 392 L 677 423 Q 677 472 678 516 L 679 553 Q 679 608 682 650 L 683 689 Q 683 759 706 798 Q 713 814 694 829 Q 670 848 628 859 Q 610 863 598 851 Q 588 842 600 831 Q 631 804 633 766 Q 633 729 632 678 L 632 641 Q 631 596 630 541 L 630 508 Q 629 465 629 414 L 628 383 Z" style="fill: #0070C0;"></path>
                                    
                                    
                                                                                                                                                                                                                                                                                                                                                                                                                                                                                                                                                                                                                                </g>
                            </svg>