<svg width='83' height='83' >
                                <g transform="translate(3, 70) scale(0.07, -0.07)">
                                    <!-- 先将完整的字以灰色字体绘制完成，层级位于下面 -->
                                                                        <path d="M 244 521 Q 290 584 342 668 Q 370 722 396 747 Q 406 759 401 774 Q 397 787 365 811 Q 337 830 316 830 Q 297 829 305 805 Q 321 771 308 740 Q 268 640 207 548 Q 147 460 67 361 Q 57 351 54 343 Q 50 331 65 334 Q 107 343 211 479 Q 214 483 217 487 L 244 521 Z" style="fill: #0070C0;"></path>
                                                                        <path d="M 217 487 Q 241 427 241 365 Q 240 350 240 335 Q 240 229 213 119 Q 198 70 235 22 Q 236 19 240 16 Q 259 0 271 28 Q 286 70 286 118 Q 286 374 294 433 Q 301 461 291 472 Q 273 494 259 508 Q 252 515 244 521 C 221 540 206 515 217 487 Z" style="fill: #0070C0;"></path>
                                                                        <path d="M 504 615 Q 507 616 770 668 Q 830 681 838 689 Q 848 698 843 707 Q 836 720 804 728 Q 773 735 739 723 Q 672 701 599 682 Q 518 664 423 656 Q 383 649 412 631 Q 422 625 462 614 L 504 615 Z" style="fill: #0070C0;"></path>
                                                                        <path d="M 498 362 Q 507 414 515 461 L 518 483 Q 524 526 537 558 Q 547 579 504 615 C 482 635 455 643 462 614 Q 462 611 464 606 Q 497 498 416 204 Q 406 158 358 116 Q 331 89 361 43 Q 362 42 364 39 Q 376 29 390 44 Q 409 68 568 153 Q 589 162 595 170 Q 601 179 591 181 Q 579 182 468 149 Q 452 145 454 158 Q 476 254 493 337 L 498 362 Z" style="fill: #0070C0;"></path>
                                                                        <path d="M 515 461 Q 539 457 646 486 Q 659 490 664 485 Q 670 476 654 348 Q 614 62 814 3 Q 827 0 844 -2 Q 890 -6 939 5 Q 973 15 962 51 Q 943 105 940 187 Q 940 211 934 215 Q 925 221 921 206 Q 893 89 871 72 Q 855 65 822 70 Q 738 85 712 150 Q 664 235 712 410 Q 730 465 764 493 Q 791 515 760 528 Q 744 537 708 548 Q 683 557 635 525 Q 559 492 518 483 C 489 475 485 459 515 461 Z" style="fill: #0070C0;"></path>
                                                                        <path d="M 493 337 Q 502 333 577 280 Q 587 273 597 275 Q 604 276 606 284 Q 607 294 600 312 Q 587 345 498 362 C 469 368 467 351 493 337 Z" style="fill: #0070C0;"></path>
                                    
                                    
                                                                                                                                                                                                                                                                                                                                                                                                                                                                                                                                                    </g>
                            </svg>