<svg width='83' height='83' >
                                <g transform="translate(3, 70) scale(0.07, -0.07)">
                                    <!-- 先将完整的字以灰色字体绘制完成，层级位于下面 -->
                                                                        <path d="M 231 498 Q 279 561 331 647 Q 356 696 380 719 Q 390 731 385 746 Q 381 759 349 783 Q 321 802 300 802 Q 279 801 289 776 Q 304 745 292 717 Q 256 626 201 539 Q 149 457 75 365 Q 65 355 62 347 Q 58 335 73 338 Q 112 347 208 469 L 231 498 Z" style="fill: #0070C0;"></path>
                                                                        <path d="M 208 469 Q 232 394 233 355 Q 232 334 232 311 Q 231 206 202 99 Q 192 54 226 3 Q 227 3 229 0 Q 247 -16 259 11 Q 274 51 273 98 Q 276 351 285 408 Q 292 435 283 446 Q 238 494 231 498 C 209 518 199 498 208 469 Z" style="fill: #0070C0;"></path>
                                                                        <path d="M 369 537 Q 391 512 414 481 Q 424 468 438 467 Q 447 466 453 477 Q 459 489 455 516 Q 454 535 427 552 Q 367 586 352 583 Q 348 580 347 569 Q 348 559 369 537 Z" style="fill: #0070C0;"></path>
                                                                        <path d="M 334 204 Q 324 201 326 187 Q 338 124 366 110 Q 370 104 380 107 Q 386 108 387 129 Q 393 168 461 349 Q 467 362 466 367 Q 466 376 458 370 Q 448 364 363 233 Q 354 218 334 204 Z" style="fill: #0070C0;"></path>
                                                                        <path d="M 586 518 Q 590 527 596 535 Q 630 590 665 673 Q 678 712 693 731 Q 700 744 693 756 Q 687 769 654 786 Q 624 799 605 796 Q 586 790 599 770 Q 614 749 610 727 Q 597 655 569 585 Q 542 518 501 440 Q 494 428 492 421 Q 491 409 504 415 Q 529 427 577 503 L 586 518 Z" style="fill: #0070C0;"></path>
                                                                        <path d="M 577 503 Q 578 502 582 497 Q 604 478 629 488 Q 758 549 785 542 Q 800 535 797 524 Q 798 518 754 436 Q 748 426 753 421 Q 757 417 767 428 Q 861 507 904 527 Q 914 530 914 539 Q 914 552 885 565 Q 863 577 840 590 Q 812 603 798 595 Q 722 555 586 518 C 567 513 567 513 577 503 Z" style="fill: #0070C0;"></path>
                                                                        <path d="M 641 283 Q 656 350 667 370 Q 677 386 662 396 Q 620 430 594 422 Q 581 418 587 404 Q 614 356 572 220 Q 526 106 437 55 Q 422 45 408 34 Q 395 27 407 23 Q 458 23 530 81 Q 603 142 633 249 L 641 283 Z" style="fill: #0070C0;"></path>
                                                                        <path d="M 633 249 Q 648 221 695 150 Q 750 68 791 19 Q 810 -3 829 -4 Q 881 3 928 10 Q 947 11 948 17 Q 949 23 927 36 Q 807 96 758 148 Q 686 220 641 283 C 623 307 618 275 633 249 Z" style="fill: #0070C0;"></path>
                                    
                                    
                                                                                                                                                                                                                                                                                                                                                                                                                                                                                                                                                                                                                                                                                                            </g>
                            </svg>