<svg width='83' height='83' >
                                <g transform="translate(3, 70) scale(0.07, -0.07)">
                                    <!-- 先将完整的字以灰色字体绘制完成，层级位于下面 -->
                                                                        <path d="M 242 557 Q 282 615 326 690 Q 351 742 375 766 Q 385 779 379 793 Q 373 808 341 831 Q 310 850 290 849 Q 269 846 279 822 Q 295 791 284 761 Q 221 589 70 394 Q 60 382 57 376 Q 54 363 69 367 Q 105 376 217 522 L 242 557 Z" style="fill: #0070C0;"></path>
                                                                        <path d="M 217 522 Q 241 473 242 389 Q 241 377 241 364 Q 240 256 211 147 Q 198 101 233 49 Q 234 45 239 41 Q 258 23 271 53 Q 287 96 286 146 Q 290 404 299 461 Q 308 491 296 502 Q 259 545 242 557 C 219 576 205 550 217 522 Z" style="fill: #0070C0;"></path>
                                                                        <path d="M 491 655 Q 533 689 566 727 L 591 757 Q 613 785 636 810 Q 648 820 636 836 Q 600 875 575 873 Q 565 873 565 858 Q 565 762 439 657 Q 420 648 387 615 Q 377 602 392 604 Q 413 605 471 642 L 491 655 Z" style="fill: #0070C0;"></path>
                                                                        <path d="M 566 727 Q 596 715 653 731 Q 677 735 684 725 Q 688 716 671 693 Q 635 623 572 551 Q 520 493 418 414 Q 403 402 418 401 Q 556 423 735 669 Q 757 697 795 727 Q 811 737 806 748 Q 805 758 740 786 Q 722 798 676 774 Q 637 765 591 757 C 561 752 537 734 566 727 Z" style="fill: #0070C0;"></path>
                                                                        <path d="M 471 642 L 529 566 Q 538 553 551 552 Q 558 551 565 561 Q 571 571 568 597 Q 565 621 494 655 Q 493 656 491 655 C 461 659 458 659 471 642 Z" style="fill: #0070C0;"></path>
                                                                        <path d="M 540 332 Q 543 335 547 338 Q 587 369 621 402 L 652 435 Q 677 462 691 474 Q 701 484 699 494 Q 696 506 673 514 Q 646 524 635 522 Q 628 521 625 508 Q 610 432 409 279 Q 388 266 414 268 Q 454 271 523 319 L 540 332 Z" style="fill: #0070C0;"></path>
                                                                        <path d="M 621 402 Q 634 398 650 394 Q 675 395 718 414 Q 745 421 755 413 Q 762 406 735 346 Q 674 199 516 83 Q 440 26 328 -18 Q 318 -22 318 -28 Q 318 -34 327 -34 Q 477 -38 653 127 Q 660 137 671 146 Q 740 219 811 339 Q 833 370 864 389 Q 883 396 883 407 Q 884 423 852 444 Q 812 474 796 475 Q 783 475 769 467 L 652 435 C 623 427 592 410 621 402 Z" style="fill: #0070C0;"></path>
                                                                        <path d="M 523 319 L 589 231 Q 598 218 610 216 Q 619 215 625 225 Q 632 235 629 261 Q 628 280 602 300 Q 553 333 540 332 C 511 335 511 335 523 319 Z" style="fill: #0070C0;"></path>
                                    
                                    
                                                                                                                                                                                                                                                                                                                                                                                                                                                                                                                                                                                                                                                                                                            </g>
                            </svg>