<svg width='83' height='83' >
                                <g transform="translate(3, 70) scale(0.07, -0.07)">
                                    <!-- 先将完整的字以灰色字体绘制完成，层级位于下面 -->
                                                                        <path d="M 235 513 Q 284 574 337 658 Q 364 707 388 729 Q 398 741 393 756 Q 389 771 357 795 Q 327 816 307 815 Q 286 814 295 789 Q 310 758 297 730 Q 231 571 75 382 Q 65 370 62 364 Q 58 351 74 354 Q 113 363 205 476 L 235 513 Z" style="fill: #0070C0;"></path>
                                                                        <path d="M 205 476 Q 217 452 224 377 Q 224 229 198 123 Q 188 78 222 27 Q 223 27 225 24 Q 243 8 255 35 Q 270 75 269 122 Q 266 378 273 436 Q 280 463 271 474 Q 252 495 239 509 Q 238 512 235 513 C 214 535 194 504 205 476 Z" style="fill: #0070C0;"></path>
                                                                        <path d="M 424 617 Q 405 633 381 641 Q 371 644 364 635 Q 360 628 367 617 Q 388 565 387 498 Q 387 261 344 138 Q 334 110 339 89 Q 348 52 360 38 Q 370 22 382 37 Q 421 76 422 211 Q 434 520 446 577 C 450 599 448 599 424 617 Z" style="fill: #0070C0;"></path>
                                                                        <path d="M 446 577 Q 456 576 476 579 Q 723 660 748 636 Q 761 629 767 568 Q 786 364 779 132 Q 779 98 767 88 Q 751 76 672 91 Q 653 94 655 83 Q 656 74 671 68 Q 744 19 781 -19 Q 806 -41 820 -37 Q 835 -33 846 0 Q 862 52 860 127 Q 836 430 835 542 Q 834 585 846 612 Q 859 637 847 650 Q 834 666 781 691 Q 754 703 698 681 Q 545 639 424 617 C 395 611 416 574 446 577 Z" style="fill: #0070C0;"></path>
                                                                        <path d="M 501 507 Q 468 498 493 485 Q 535 467 583 484 Q 629 497 677 512 Q 699 519 702 522 Q 709 531 704 538 Q 697 548 669 552 Q 641 555 615 541 Q 591 531 565 522 Q 535 513 501 507 Z" style="fill: #0070C0;"></path>
                                                                        <path d="M 523 392 Q 513 396 491 401 Q 481 404 477 399 Q 471 395 478 380 Q 499 334 511 260 Q 512 238 526 223 Q 541 202 546 217 Q 550 226 550 241 L 548 270 Q 539 346 539 366 C 538 386 538 386 523 392 Z" style="fill: #0070C0;"></path>
                                                                        <path d="M 685 290 Q 704 350 723 367 Q 745 391 723 405 Q 705 415 679 433 Q 661 443 617 419 Q 556 400 523 392 C 494 385 510 359 539 366 Q 545 367 553 370 Q 590 379 623 386 Q 645 390 650 382 Q 656 378 649 351 Q 642 324 634 292 C 627 263 676 261 685 290 Z" style="fill: #0070C0;"></path>
                                                                        <path d="M 550 241 Q 560 240 572 242 Q 612 251 698 259 Q 708 260 708 269 Q 708 276 685 290 C 668 301 663 300 634 292 Q 585 279 548 270 C 519 263 520 243 550 241 Z" style="fill: #0070C0;"></path>
                                    
                                    
                                                                                                                                                                                                                                                                                                                                                                                                                                                                                                                                                                                                                                                                                                            </g>
                            </svg>