<svg width='83' height='83' >
                                <g transform="translate(3, 70) scale(0.07, -0.07)">
                                    <!-- 先将完整的字以灰色字体绘制完成，层级位于下面 -->
                                                                        <path d="M 252 512 Q 295 569 343 644 Q 370 693 395 717 Q 405 727 400 742 Q 396 755 365 780 Q 337 799 318 799 Q 299 798 307 774 Q 320 741 309 713 Q 270 620 212 534 Q 157 452 79 360 Q 69 350 66 343 Q 62 331 77 334 Q 114 338 218 469 Q 222 476 229 482 L 252 512 Z" style="fill: #0070C0;"></path>
                                                                        <path d="M 229 482 Q 232 472 238 462 Q 253 431 255 325 Q 255 214 226 99 Q 216 54 250 3 Q 251 3 253 0 Q 271 -16 283 11 Q 298 51 297 98 Q 297 363 305 424 Q 312 451 303 462 Q 260 508 252 512 C 229 531 218 510 229 482 Z" style="fill: #0070C0;"></path>
                                                                        <path d="M 631 577 Q 638 643 643 703 L 646 734 Q 646 737 647 739 Q 650 758 653 771 Q 657 783 659 791 Q 662 801 644 814 Q 613 832 590 835 Q 575 839 568 831 Q 561 824 569 810 Q 584 791 585 775 Q 594 679 593 568 C 593 538 628 547 631 577 Z" style="fill: #0070C0;"></path>
                                                                        <path d="M 643 703 Q 674 699 796 718 Q 811 721 827 726 Q 834 733 831 741 Q 824 751 798 759 Q 777 763 697 742 Q 673 739 646 734 C 616 729 613 706 643 703 Z" style="fill: #0070C0;"></path>
                                                                        <path d="M 491 560 Q 472 575 451 581 Q 442 582 437 575 Q 434 569 441 560 Q 480 460 450 287 Q 437 227 439 216 Q 448 186 458 175 Q 468 163 477 176 Q 501 206 501 387 Q 501 493 506 528 C 508 548 508 548 491 560 Z" style="fill: #0070C0;"></path>
                                                                        <path d="M 737 248 Q 730 226 744 205 Q 757 177 766 178 Q 779 179 795 211 Q 808 236 807 256 Q 780 473 816 533 Q 829 554 794 579 Q 772 592 744 605 Q 728 611 705 602 Q 671 589 631 577 L 593 568 Q 536 561 491 560 C 461 559 476 524 506 528 Q 608 541 711 555 Q 720 554 726 550 Q 736 528 742 467 Q 746 283 737 248 Z" style="fill: #0070C0;"></path>
                                                                        <path d="M 589 392 Q 601 160 513 69 Q 504 62 494 53 Q 458 22 377 -19 Q 365 -23 362 -27 Q 358 -31 372 -34 Q 385 -35 435 -20 Q 469 -10 521 21 Q 641 93 641 328 Q 641 380 654 423 Q 658 433 650 440 Q 632 455 599 467 Q 580 476 564 470 Q 546 463 561 446 Q 588 421 589 392 Z" style="fill: #0070C0;"></path>
                                                                        <path d="M 704 112 Q 758 57 822 -23 Q 837 -44 852 -49 Q 861 -50 869 -41 Q 882 -28 872 17 Q 859 80 707 143 Q 698 150 695 137 Q 694 124 704 112 Z" style="fill: #0070C0;"></path>
                                    
                                    
                                                                                                                                                                                                                                                                                                                                                                                                                                                                                                                                                                                                                                                                                                            </g>
                            </svg>