<svg width='83' height='83' >
                                <g transform="translate(3, 70) scale(0.07, -0.07)">
                                    <!-- 先将完整的字以灰色字体绘制完成，层级位于下面 -->
                                                                        <path d="M 257 562 Q 288 608 323 662 Q 348 711 373 734 Q 383 746 377 760 Q 373 775 341 799 Q 311 818 290 819 Q 269 816 279 792 Q 294 761 282 734 Q 225 586 67 386 Q 57 374 54 368 Q 50 355 66 358 Q 108 368 203 492 Q 215 507 227 522 L 257 562 Z" style="fill: #0070C0;"></path>
                                                                        <path d="M 227 522 Q 227 521 229 518 Q 262 452 237 246 Q 228 188 213 127 Q 198 78 235 30 Q 236 27 240 24 Q 259 8 271 36 Q 286 78 286 126 Q 287 415 298 481 Q 305 509 295 520 Q 277 542 263 556 Q 260 560 257 562 C 236 583 215 549 227 522 Z" style="fill: #0070C0;"></path>
                                                                        <path d="M 489 703 Q 477 709 444 711 Q 431 712 429 707 Q 423 700 433 685 Q 466 633 491 542 Q 497 514 515 498 Q 534 479 538 494 Q 539 501 540 511 L 535 545 Q 520 593 504 672 C 498 699 498 699 489 703 Z" style="fill: #0070C0;"></path>
                                                                        <path d="M 755 575 Q 782 653 819 681 Q 838 700 822 719 Q 804 734 749 761 Q 727 771 663 744 Q 597 723 489 703 C 460 697 475 664 504 672 Q 510 675 688 713 Q 710 719 719 710 Q 728 700 724 680 Q 711 625 695 578 C 686 550 745 547 755 575 Z" style="fill: #0070C0;"></path>
                                                                        <path d="M 644 527 Q 696 536 768 542 Q 778 543 780 551 Q 780 560 755 575 C 735 588 724 585 695 578 Q 607 557 535 545 C 505 540 510 509 540 511 Q 544 511 551 512 Q 567 516 590 519 L 644 527 Z" style="fill: #0070C0;"></path>
                                                                        <path d="M 648 161 Q 652 266 655 352 L 657 383 Q 660 512 661 512 Q 654 519 644 527 C 621 546 581 547 590 519 Q 599 504 603 392 Q 602 325 602 194 C 602 164 647 131 648 161 Z" style="fill: #0070C0;"></path>
                                                                        <path d="M 655 352 Q 688 343 776 362 Q 797 368 819 372 Q 838 376 840 379 Q 849 388 844 396 Q 837 408 806 414 Q 785 417 705 392 Q 681 388 657 383 C 628 377 626 358 655 352 Z" style="fill: #0070C0;"></path>
                                                                        <path d="M 490 288 Q 503 312 517 332 Q 527 345 511 359 Q 469 390 443 385 Q 431 382 435 368 Q 453 272 345 140 Q 332 134 301 88 Q 294 72 308 78 Q 327 82 351 103 Q 427 167 467 246 Q 468 252 472 256 L 490 288 Z" style="fill: #0070C0;"></path>
                                                                        <path d="M 472 256 Q 559 157 674 76 Q 758 9 797 8 Q 806 8 916 22 Q 953 29 964 42 Q 971 54 949 57 Q 882 73 839 78 Q 739 96 648 161 L 602 194 Q 547 237 490 288 C 468 308 452 278 472 256 Z" style="fill: #0070C0;"></path>
                                    
                                    
                                                                                                                                                                                                                                                                                                                                                                                                                                                                                                                                                                                                                                                                                                                                                                                        </g>
                            </svg>