<svg width='83' height='83' >
                                <g transform="translate(3, 70) scale(0.07, -0.07)">
                                    <!-- 先将完整的字以灰色字体绘制完成，层级位于下面 -->
                                                                        <path d="M 217 473 Q 271 543 328 642 Q 356 696 381 722 Q 391 734 386 749 Q 382 762 349 787 Q 319 806 298 806 Q 277 803 287 779 Q 303 745 291 715 Q 225 546 55 330 Q 45 318 42 312 Q 38 299 54 302 Q 93 312 191 439 L 217 473 Z" style="fill: #0070C0;"></path>
                                                                        <path d="M 191 439 Q 212 406 213 308 Q 213 203 190 107 Q 180 62 214 11 Q 215 11 217 8 Q 235 -8 247 19 Q 262 59 261 106 Q 258 335 265 388 Q 272 415 263 426 Q 223 469 217 473 C 195 493 178 466 191 439 Z" style="fill: #0070C0;"></path>
                                                                        <path d="M 602 538 Q 743 574 752 581 Q 761 591 756 599 Q 747 612 716 619 Q 685 623 604 593 L 554 576 Q 545 575 537 572 Q 471 554 393 544 Q 354 537 383 519 Q 429 494 488 511 Q 519 518 553 526 L 602 538 Z" style="fill: #0070C0;"></path>
                                                                        <path d="M 600 388 Q 599 464 602 538 L 604 593 Q 604 680 623 745 Q 639 775 584 797 Q 550 816 531 809 Q 513 802 530 779 Q 551 752 552 718 Q 553 702 554 576 L 553 526 Q 552 373 550 96 Q 549 71 536 61 Q 530 58 457 71 Q 424 83 427 73 Q 428 66 448 51 Q 514 2 531 -28 Q 550 -62 566 -63 Q 581 -64 595 -29 Q 613 17 610 90 Q 603 217 601 342 L 600 388 Z" style="fill: #0070C0;"></path>
                                                                        <path d="M 387 392 Q 430 338 458 325 Q 471 322 480 333 Q 486 343 484 359 Q 474 404 401 424 L 400 425 Q 387 429 377 427 Q 373 426 374 415 Q 374 405 387 392 Z" style="fill: #0070C0;"></path>
                                                                        <path d="M 300 177 Q 288 174 289 159 Q 293 141 320 129 Q 345 113 360 114 Q 370 115 377 137 Q 417 188 514 293 Q 521 299 517 306 Q 514 309 506 305 Q 428 245 366 200 Q 348 184 321 180 Q 314 179 300 177 Z" style="fill: #0070C0;"></path>
                                                                        <path d="M 648 340 Q 748 406 798 429 Q 817 433 813 445 Q 809 461 790 482 Q 771 501 748 505 Q 733 506 733 486 Q 734 471 724 456 Q 693 416 633 355 C 612 334 623 324 648 340 Z" style="fill: #0070C0;"></path>
                                                                        <path d="M 633 355 Q 617 371 600 388 C 579 409 583 366 601 342 Q 685 233 792 118 Q 811 99 842 100 Q 948 107 981 113 Q 991 116 992 121 Q 992 127 978 133 Q 827 181 743 253 Q 698 292 648 340 L 633 355 Z" style="fill: #0070C0;"></path>
                                                                        <path d="M 735 697 Q 766 675 798 645 Q 811 633 826 635 Q 836 636 841 648 Q 845 663 835 691 Q 823 722 729 743 Q 714 746 708 743 Q 704 739 705 727 Q 709 717 735 697 Z" style="fill: #0070C0;"></path>
                                    
                                    
                                                                                                                                                                                                                                                                                                                                                                                                                                                                                                                                                                                                                                                                                                                                                                                        </g>
                            </svg>