<svg width='83' height='83' >
                                <g transform="translate(3, 70) scale(0.07, -0.07)">
                                    <!-- 先将完整的字以灰色字体绘制完成，层级位于下面 -->
                                                                        <path d="M 227 533 Q 264 582 308 647 Q 332 690 354 710 Q 364 720 359 735 Q 355 748 326 772 Q 298 791 279 790 Q 260 789 268 766 Q 281 738 270 713 Q 237 632 187 556 Q 138 483 71 403 Q 61 393 58 387 Q 55 375 69 378 Q 105 382 197 496 Q 197 497 199 498 L 227 533 Z" style="fill: #0070C0;"></path>
                                                                        <path d="M 199 498 Q 220 477 216 364 Q 215 265 188 163 Q 176 112 210 73 Q 211 70 214 68 Q 230 52 242 78 Q 257 118 256 163 Q 260 401 268 455 Q 275 482 266 492 Q 230 531 227 533 C 206 554 184 524 199 498 Z" style="fill: #0070C0;"></path>
                                                                        <path d="M 483 666 Q 582 720 606 726 Q 622 727 625 736 Q 626 746 615 755 Q 561 786 525 782 Q 519 778 520 767 Q 523 727 344 623 Q 340 614 345 612 Q 360 612 442 648 L 483 666 Z" style="fill: #0070C0;"></path>
                                                                        <path d="M 502 486 Q 508 489 518 491 Q 596 506 604 519 Q 604 529 581 537 Q 551 555 503 534 L 462 519 Q 458 519 457 518 Q 406 503 325 484 Q 298 477 321 463 Q 352 445 389 455 Q 416 464 450 472 L 502 486 Z" style="fill: #0070C0;"></path>
                                                                        <path d="M 500 399 Q 501 439 502 486 L 503 534 Q 506 580 517 615 Q 524 627 521 638 Q 517 645 483 666 C 458 682 428 674 442 648 Q 460 620 460 588 Q 461 555 462 519 L 460 388 Q 456 217 447 173 Q 429 125 454 70 Q 458 55 465 53 Q 471 47 476 54 Q 483 58 491 75 Q 498 94 498 120 Q 497 150 500 368 L 500 399 Z" style="fill: #0070C0;"></path>
                                                                        <path d="M 450 472 Q 431 420 405 373 Q 371 313 290 204 Q 286 194 296 194 Q 302 193 310 201 Q 403 285 460 388 C 520 494 460 500 450 472 Z" style="fill: #0070C0;"></path>
                                                                        <path d="M 500 368 Q 519 353 558 315 Q 570 305 583 305 Q 593 305 597 317 Q 601 330 594 355 Q 585 379 511 398 Q 504 399 500 399 C 470 400 477 387 500 368 Z" style="fill: #0070C0;"></path>
                                                                        <path d="M 640 582 Q 670 527 652 354 Q 643 323 672 289 Q 682 280 690 290 Q 705 314 706 390 Q 702 499 708 556 Q 714 577 695 587 Q 680 596 664 604 Q 652 608 644 602 Q 637 596 640 582 Z" style="fill: #0070C0;"></path>
                                                                        <path d="M 790 708 Q 794 674 791 143 Q 791 121 779 112 Q 772 105 749 108 Q 724 111 700 113 Q 663 123 667 112 Q 668 105 692 90 Q 759 42 778 14 Q 799 -20 815 -20 Q 830 -21 845 17 Q 861 66 858 145 Q 825 587 866 737 Q 884 770 824 794 Q 787 813 767 806 Q 748 799 765 774 Q 789 744 790 708 Z" style="fill: #0070C0;"></path>
                                    
                                    
                                                                                                                                                                                                                                                                                                                                                                                                                                                                                                                                                                                                                                                                                                                                                                                        </g>
                            </svg>