<svg width='83' height='83' >
                                <g transform="translate(3, 70) scale(0.07, -0.07)">
                                    <!-- 先将完整的字以灰色字体绘制完成，层级位于下面 -->
                                                                        <path d="M 237 500 Q 286 561 342 647 Q 370 696 394 719 Q 404 729 400 745 Q 396 758 365 784 Q 337 803 316 804 Q 297 803 305 778 Q 318 745 306 718 Q 239 562 76 369 Q 64 359 62 351 Q 58 339 74 342 Q 108 346 212 471 L 237 500 Z" style="fill: #0070C0;"></path>
                                                                        <path d="M 212 471 Q 239 407 240 351 Q 240 198 214 91 Q 204 46 238 -5 Q 239 -5 241 -8 Q 259 -24 271 3 Q 286 43 285 90 Q 281 352 289 412 Q 296 439 287 450 Q 245 495 237 500 C 214 520 201 499 212 471 Z" style="fill: #0070C0;"></path>
                                                                        <path d="M 471 705 Q 480 674 429 590 Q 428 589 427 587 Q 412 565 373 522 Q 366 518 375 516 Q 435 516 534 657 Q 538 664 542 667 Q 548 671 546 680 Q 545 689 534 699 Q 504 723 477 718 Q 470 715 471 705 Z" style="fill: #0070C0;"></path>
                                                                        <path d="M 675 681 Q 717 650 762 613 Q 775 601 790 603 Q 800 604 805 616 Q 809 631 799 659 Q 792 684 752 702 Q 665 735 648 727 Q 644 723 645 711 Q 649 701 675 681 Z" style="fill: #0070C0;"></path>
                                                                        <path d="M 607 507 Q 622 534 631 542 Q 638 546 637 557 Q 636 566 622 577 Q 609 590 590 595 Q 571 602 559 599 Q 552 598 553 585 Q 572 507 438 346 Q 435 343 433 340 Q 396 297 301 211 Q 294 207 303 204 Q 379 217 500 352 Q 501 356 506 360 Q 542 406 595 488 L 607 507 Z" style="fill: #0070C0;"></path>
                                                                        <path d="M 595 488 Q 594 488 595 487 Q 682 387 777 296 Q 799 274 837 272 Q 904 269 976 284 Q 994 287 996 291 Q 997 298 983 303 Q 782 375 712 425 Q 685 443 660 464 Q 626 492 607 507 C 584 526 576 512 595 488 Z" style="fill: #0070C0;"></path>
                                                                        <path d="M 475 237 Q 463 243 433 249 Q 420 253 417 248 Q 410 241 418 225 Q 446 161 461 57 Q 462 26 480 4 Q 498 -18 503 -3 Q 510 15 507 49 L 502 84 Q 489 175 486 206 C 483 234 483 234 475 237 Z" style="fill: #0070C0;"></path>
                                                                        <path d="M 725 108 Q 752 186 782 208 Q 800 227 785 244 Q 710 304 649 274 Q 561 250 475 237 C 445 232 456 202 486 206 Q 540 213 659 236 Q 678 240 686 232 Q 695 223 692 205 Q 683 153 672 111 C 665 82 715 80 725 108 Z" style="fill: #0070C0;"></path>
                                                                        <path d="M 507 49 Q 517 48 530 49 Q 597 62 742 68 Q 752 69 755 78 Q 755 87 725 108 C 710 119 701 117 672 111 Q 576 92 502 84 C 472 81 477 51 507 49 Z" style="fill: #0070C0;"></path>
                                    
                                    
                                                                                                                                                                                                                                                                                                                                                                                                                                                                                                                                                                                                                                                                                                                                                                                        </g>
                            </svg>