<svg width='83' height='83' >
                                <g transform="translate(3, 70) scale(0.07, -0.07)">
                                    <!-- 先将完整的字以灰色字体绘制完成，层级位于下面 -->
                                                                        <path d="M 262 533 Q 299 582 341 643 Q 368 688 391 709 Q 401 721 396 736 Q 392 749 361 776 Q 331 797 311 797 Q 290 796 299 770 Q 312 740 300 715 Q 266 630 211 550 Q 159 474 88 390 Q 76 378 74 372 Q 70 359 86 362 Q 125 365 225 488 Q 228 492 231 496 L 262 533 Z" style="fill: #0070C0;"></path>
                                                                        <path d="M 231 496 Q 252 433 253 427 Q 252 426 253 423 Q 253 240 221 119 Q 206 70 243 22 Q 244 19 248 16 Q 267 0 279 28 Q 294 70 294 118 Q 297 388 306 449 Q 313 479 287 507 Q 281 513 262 533 C 241 555 222 524 231 496 Z" style="fill: #0070C0;"></path>
                                                                        <path d="M 477 736 Q 465 740 440 744 Q 428 747 425 742 Q 418 735 427 720 Q 457 663 475 570 Q 479 542 496 523 Q 514 501 519 517 Q 522 529 522 547 L 518 579 Q 502 670 497 701 C 492 731 492 732 477 736 Z" style="fill: #0070C0;"></path>
                                                                        <path d="M 745 600 Q 779 685 813 707 Q 832 726 817 746 Q 736 813 679 781 Q 601 757 477 736 C 447 731 468 694 497 701 Q 506 704 683 737 Q 705 741 713 733 Q 722 724 718 706 Q 706 654 691 610 C 682 582 734 572 745 600 Z" style="fill: #0070C0;"></path>
                                                                        <path d="M 603 556 Q 658 565 751 570 Q 761 571 763 579 Q 763 586 745 600 L 691 610 Q 690 611 687 610 Q 593 588 518 579 C 488 575 492 552 522 547 Q 532 544 547 547 Q 559 550 575 552 L 603 556 Z" style="fill: #0070C0;"></path>
                                                                        <path d="M 641 405 Q 726 418 854 422 Q 914 422 921 432 Q 925 445 908 458 Q 851 497 789 478 Q 726 465 639 446 L 589 436 Q 483 420 360 399 Q 339 396 355 379 Q 370 366 388 361 Q 409 357 425 362 Q 482 381 549 391 L 641 405 Z" style="fill: #0070C0;"></path>
                                                                        <path d="M 639 446 Q 638 510 640 518 Q 643 530 634 537 Q 624 546 603 556 C 576 570 568 575 575 552 Q 575 549 578 545 Q 584 533 589 436 L 589 356 Q 582 10 583 3 Q 589 -21 603 -37 Q 616 -52 625 -34 Q 643 3 644 73 Q 644 83 639 363 L 639 446 Z" style="fill: #0070C0;"></path>
                                                                        <path d="M 549 391 Q 516 286 329 144 Q 313 131 329 130 Q 357 127 447 187 Q 532 274 538 279 Q 569 319 588 354 Q 588 355 589 356 C 617 406 568 444 549 391 Z" style="fill: #0070C0;"></path>
                                                                        <path d="M 639 363 Q 705 266 789 160 Q 807 141 837 141 Q 940 144 973 150 Q 983 151 984 157 Q 985 161 971 170 Q 824 230 745 305 Q 694 350 641 405 L 639 405 C 616 423 622 388 639 363 Z" style="fill: #0070C0;"></path>
                                    
                                    
                                                                                                                                                                                                                                                                                                                                                                                                                                                                                                                                                                                                                                                                                                                                                                                        </g>
                            </svg>