<svg width='83' height='83' >
                                <g transform="translate(3, 70) scale(0.07, -0.07)">
                                    <!-- 先将完整的字以灰色字体绘制完成，层级位于下面 -->
                                                                        <path d="M 248 537 Q 288 591 335 663 Q 360 709 383 731 Q 393 743 388 757 Q 384 770 353 795 Q 325 814 304 815 Q 285 814 293 789 Q 306 758 295 732 Q 261 644 206 563 Q 154 484 83 397 Q 73 387 70 379 Q 66 367 82 370 Q 124 380 217 499 Q 218 502 221 504 L 248 537 Z" style="fill: #0070C0;"></path>
                                                                        <path d="M 221 504 Q 224 495 229 487 Q 245 454 246 422 Q 245 379 244 340 Q 243 226 213 111 Q 207 90 216 56 Q 228 20 240 8 Q 259 -8 271 20 Q 286 62 286 110 Q 287 387 298 449 Q 305 477 295 488 Q 277 510 263 524 Q 256 531 248 537 C 225 556 209 531 221 504 Z" style="fill: #0070C0;"></path>
                                                                        <path d="M 588 778 Q 616 753 647 722 Q 663 707 682 708 Q 695 709 700 724 Q 706 743 695 777 Q 683 810 582 835 Q 563 839 556 836 Q 550 832 552 815 Q 556 802 588 778 Z" style="fill: #0070C0;"></path>
                                                                        <path d="M 372 599 Q 351 596 367 579 Q 397 552 437 561 Q 624 618 893 619 Q 894 619 896 619 Q 915 620 920 628 Q 926 641 908 654 Q 856 690 818 681 Q 709 653 372 599 Z" style="fill: #0070C0;"></path>
                                                                        <path d="M 500 482 Q 467 476 491 461 Q 530 440 580 451 Q 646 464 715 479 Q 746 486 751 490 Q 758 497 755 505 Q 748 515 722 523 Q 694 527 667 517 Q 631 505 593 496 Q 550 486 500 482 Z" style="fill: #0070C0;"></path>
                                                                        <path d="M 493 362 Q 459 356 483 341 Q 517 319 572 331 Q 642 344 716 358 Q 750 365 755 370 Q 762 377 759 385 Q 752 395 726 403 Q 699 409 624 384 Q 512 365 493 362 Z" style="fill: #0070C0;"></path>
                                                                        <path d="M 499 229 Q 487 235 456 241 Q 444 244 441 239 Q 434 233 443 217 Q 443 214 445 212 Q 470 160 485 72 Q 488 45 504 28 Q 522 6 527 21 Q 530 31 531 44 L 528 80 Q 515 162 512 194 C 509 224 509 225 499 229 Z" style="fill: #0070C0;"></path>
                                                                        <path d="M 771 100 Q 798 175 830 195 Q 849 214 833 235 Q 746 301 699 273 Q 620 246 499 229 C 469 225 483 188 512 194 Q 557 203 695 226 Q 717 230 725 221 Q 734 214 732 194 Q 725 148 714 109 C 706 80 760 72 771 100 Z" style="fill: #0070C0;"></path>
                                                                        <path d="M 531 44 Q 541 44 550 45 Q 623 58 781 64 Q 793 65 795 74 Q 795 81 771 100 C 751 116 743 115 714 109 Q 611 88 528 80 C 498 77 501 43 531 44 Z" style="fill: #0070C0;"></path>
                                    
                                    
                                                                                                                                                                                                                                                                                                                                                                                                                                                                                                                                                                                                                                                                                                                                                                                        </g>
                            </svg>