<svg width='83' height='83' >
                                <g transform="translate(3, 70) scale(0.07, -0.07)">
                                    <!-- 先将完整的字以灰色字体绘制完成，层级位于下面 -->
                                                                        <path d="M 230 484 Q 281 550 337 639 Q 365 691 392 717 Q 402 729 397 744 Q 393 759 361 783 Q 331 804 311 803 Q 290 802 299 777 Q 315 743 301 713 Q 261 613 198 521 Q 137 431 55 334 Q 45 322 42 316 Q 38 303 54 306 Q 96 315 203 451 L 230 484 Z" style="fill: #0070C0;"></path>
                                                                        <path d="M 203 451 Q 227 390 228 335 Q 228 190 202 83 Q 192 38 226 -13 Q 227 -13 229 -16 Q 247 -32 259 -5 Q 274 35 273 82 Q 269 341 277 400 Q 284 427 275 438 Q 236 480 230 484 C 208 504 193 479 203 451 Z" style="fill: #0070C0;"></path>
                                                                        <path d="M 608 637 Q 660 649 717 659 Q 763 669 771 677 Q 780 684 775 693 Q 768 703 740 711 Q 712 717 617 685 L 556 670 Q 498 660 433 652 Q 399 646 423 630 Q 462 606 520 619 Q 532 623 549 625 L 608 637 Z" style="fill: #0070C0;"></path>
                                                                        <path d="M 581 520 Q 603 526 732 546 Q 742 545 750 556 Q 750 566 730 576 Q 697 594 610 566 Q 601 565 593 562 Q 592 562 592 561 L 533 549 Q 461 539 431 534 Q 406 530 426 515 Q 453 497 495 502 Q 507 505 524 508 L 581 520 Z" style="fill: #0070C0;"></path>
                                                                        <path d="M 545 406 Q 695 434 873 434 Q 892 435 896 443 Q 900 455 885 467 Q 834 500 801 492 Q 728 473 599 450 Q 578 447 558 442 L 501 432 Q 429 422 351 409 Q 332 406 346 391 Q 359 378 377 374 Q 396 370 411 375 Q 447 387 487 394 L 545 406 Z" style="fill: #0070C0;"></path>
                                                                        <path d="M 558 442 Q 571 482 581 520 L 592 561 Q 599 600 608 637 L 617 685 Q 630 752 637 767 Q 647 782 641 796 Q 625 815 594 833 Q 575 846 561 842 Q 548 835 554 820 Q 572 790 566 731 Q 562 707 558 680 Q 557 676 556 670 L 549 625 Q 542 588 533 549 L 524 508 Q 512 471 501 432 L 487 394 Q 424 244 305 95 Q 299 89 297 83 Q 293 71 305 73 Q 321 73 369 124 Q 472 220 545 406 L 558 442 Z" style="fill: #0070C0;"></path>
                                                                        <path d="M 749 263 Q 761 266 884 279 Q 894 278 904 290 Q 905 302 883 312 Q 852 336 758 310 Q 755 310 753 309 L 700 298 Q 652 291 521 276 Q 493 273 514 256 Q 542 228 575 235 Q 630 247 701 256 L 749 263 Z" style="fill: #0070C0;"></path>
                                                                        <path d="M 664 59 Q 633 65 602 71 Q 590 74 591 66 Q 592 60 602 53 Q 669 -4 695 -39 Q 710 -55 724 -42 Q 757 -8 756 58 Q 753 85 750 260 Q 749 261 749 263 L 753 309 Q 754 325 761 337 Q 770 355 754 367 Q 729 388 701 398 Q 683 404 676 397 Q 670 390 680 376 Q 702 339 700 298 L 701 256 Q 705 78 686 62 Q 679 55 664 59 Z" style="fill: #0070C0;"></path>
                                                                        <path d="M 513 178 Q 538 156 564 128 Q 574 118 588 118 Q 597 118 601 129 Q 605 141 599 165 Q 595 183 568 197 Q 505 224 492 219 Q 488 215 489 205 Q 490 195 513 178 Z" style="fill: #0070C0;"></path>
                                    
                                    
                                                                                                                                                                                                                                                                                                                                                                                                                                                                                                                                                                                                                                                                                                                                                                                        </g>
                            </svg>