<svg width='83' height='83' >
                                <g transform="translate(3, 70) scale(0.07, -0.07)">
                                    <!-- 先将完整的字以灰色字体绘制完成，层级位于下面 -->
                                                                        <path d="M 211 515 Q 253 572 296 649 Q 320 695 341 718 Q 351 728 345 743 Q 341 756 310 779 Q 280 797 261 796 Q 242 793 251 771 Q 264 743 247 692 Q 187 545 62 380 Q 52 370 50 363 Q 46 351 61 354 Q 97 363 184 480 L 211 515 Z" style="fill: #0070C0;"></path>
                                                                        <path d="M 184 480 Q 223 417 197 218 Q 188 164 174 107 Q 164 62 198 11 Q 199 11 201 8 Q 219 -8 231 19 Q 246 59 245 106 Q 248 373 257 432 Q 264 459 255 470 Q 216 512 211 515 C 189 536 170 507 184 480 Z" style="fill: #0070C0;"></path>
                                                                        <path d="M 404 661 Q 423 637 442 610 Q 452 597 466 595 Q 475 594 481 605 Q 488 617 484 644 Q 483 660 458 677 Q 400 710 388 707 Q 384 704 383 693 Q 384 683 404 661 Z" style="fill: #0070C0;"></path>
                                                                        <path d="M 684 726 Q 665 695 623 645 Q 617 638 623 631 Q 630 630 638 634 Q 717 685 756 704 Q 774 708 770 719 Q 764 735 746 754 Q 727 772 705 774 Q 690 774 691 755 Q 694 742 684 726 Z" style="fill: #0070C0;"></path>
                                                                        <path d="M 561 521 Q 705 549 719 558 Q 726 565 723 573 Q 716 583 690 591 Q 665 597 570 565 L 521 554 Q 464 544 405 538 Q 371 532 395 517 Q 426 496 496 509 Q 502 510 511 511 L 561 521 Z" style="fill: #0070C0;"></path>
                                                                        <path d="M 521 412 Q 542 419 617 424 L 647 427 Q 708 433 788 434 Q 845 434 852 443 Q 856 455 841 467 Q 793 501 757 493 Q 682 474 553 452 Q 543 451 537 449 L 485 440 Q 398 428 303 413 Q 284 410 298 395 Q 311 382 329 378 Q 348 374 363 378 Q 412 393 467 403 L 521 412 Z" style="fill: #0070C0;"></path>
                                                                        <path d="M 458 308 Q 509 371 521 412 L 537 449 Q 537 452 539 453 Q 552 487 561 521 L 570 565 Q 591 754 606 790 Q 615 809 597 816 Q 549 849 522 837 Q 509 833 516 817 Q 555 754 523 564 Q 522 560 521 554 L 511 511 Q 510 508 509 503 Q 499 472 485 440 L 467 403 Q 389 273 295 209 Q 282 196 266 184 Q 253 174 266 172 Q 281 173 314 189 Q 383 226 433 281 Q 434 282 436 284 L 458 308 Z" style="fill: #0070C0;"></path>
                                                                        <path d="M 617 424 Q 684 333 760 249 Q 779 227 815 223 Q 879 217 948 226 Q 966 227 967 232 Q 970 238 956 244 Q 916 262 867 279 Q 752 322 647 427 C 626 448 599 448 617 424 Z" style="fill: #0070C0;"></path>
                                                                        <path d="M 495 269 Q 502 278 598 295 Q 607 296 609 293 Q 613 289 613 271 Q 612 226 604 206 Q 588 181 567 186 Q 546 193 529 203 Q 508 213 521 190 Q 555 150 569 118 Q 579 105 591 113 Q 634 137 663 250 Q 670 278 682 291 Q 692 301 688 310 Q 681 320 637 339 Q 621 346 604 336 Q 592 329 547 316 Q 508 306 475 300 C 446 294 468 256 495 269 Z" style="fill: #0070C0;"></path>
                                                                        <path d="M 821 60 Q 811 85 795 162 Q 795 177 789 182 Q 783 185 779 169 Q 751 87 733 62 Q 720 46 682 37 Q 594 15 524 43 Q 496 56 489 73 Q 468 118 494 265 Q 494 268 495 269 C 500 293 500 293 475 300 Q 468 304 458 308 C 432 323 429 313 436 284 Q 445 253 443 221 Q 436 92 446 56 Q 450 32 472 13 Q 493 -3 534 -17 Q 690 -59 815 22 Q 833 35 821 60 Z" style="fill: #0070C0;"></path>
                                    
                                    
                                                                                                                                                                                                                                                                                                                                                                                                                                                                                                                                                                                                                                                                                                                                                                                                                                                                    </g>
                            </svg>