<svg width='83' height='83' >
                                <g transform="translate(3, 70) scale(0.07, -0.07)">
                                    <!-- 先将完整的字以灰色字体绘制完成，层级位于下面 -->
                                                                        <path d="M 242 497 Q 290 555 342 633 Q 370 681 394 703 Q 404 713 399 729 Q 395 742 365 768 Q 337 787 317 788 Q 296 787 305 763 Q 318 732 305 704 Q 238 551 76 365 Q 66 355 62 347 Q 58 335 74 338 Q 113 342 215 466 L 242 497 Z" style="fill: #0070C0;"></path>
                                                                        <path d="M 215 466 Q 216 459 221 452 Q 248 392 230 218 Q 223 169 210 115 Q 200 70 234 19 Q 235 19 237 16 Q 255 0 267 27 Q 282 67 281 114 Q 281 358 289 412 Q 296 439 287 450 Q 245 495 242 497 C 221 518 203 494 215 466 Z" style="fill: #0070C0;"></path>
                                                                        <path d="M 612 625 Q 672 640 812 656 Q 824 655 833 668 Q 834 681 810 691 Q 774 712 711 692 Q 662 680 621 670 L 569 659 Q 422 641 416 638 Q 386 634 410 616 Q 440 591 485 600 Q 519 609 565 616 L 612 625 Z" style="fill: #0070C0;"></path>
                                                                        <path d="M 591 512 Q 601 570 612 625 L 621 670 Q 622 715 650 775 Q 654 785 637 800 Q 607 821 586 827 Q 573 831 564 825 Q 557 819 562 804 Q 577 777 576 759 Q 575 711 569 659 L 565 616 Q 558 562 551 503 C 547 473 586 482 591 512 Z" style="fill: #0070C0;"></path>
                                                                        <path d="M 494 496 Q 478 509 462 517 Q 452 520 443 516 Q 436 512 438 502 Q 457 463 460 422 Q 461 385 460 79 C 460 49 501 53 501 83 Q 501 123 502 162 L 502 186 Q 503 223 504 256 L 504 279 Q 505 316 506 352 L 506 376 Q 506 460 510 463 C 513 481 513 481 494 496 Z" style="fill: #0070C0;"></path>
                                                                        <path d="M 751 113 Q 752 431 778 467 Q 791 482 778 499 Q 768 511 719 540 Q 703 550 680 540 Q 643 527 591 512 L 551 503 Q 523 499 494 496 C 464 493 481 454 510 463 Q 580 487 670 496 Q 688 499 693 493 Q 702 481 699 106 C 699 76 751 83 751 113 Z" style="fill: #0070C0;"></path>
                                                                        <path d="M 506 352 Q 510 351 518 352 Q 594 365 651 373 Q 673 377 665 389 Q 655 402 631 406 Q 600 410 506 376 C 478 366 476 355 506 352 Z" style="fill: #0070C0;"></path>
                                                                        <path d="M 504 256 Q 510 255 521 256 Q 594 269 648 277 Q 670 281 661 293 Q 651 306 627 310 Q 599 313 504 279 C 476 269 474 259 504 256 Z" style="fill: #0070C0;"></path>
                                                                        <path d="M 502 162 Q 509 161 518 162 Q 597 172 654 177 Q 676 181 669 193 Q 659 206 635 212 Q 607 218 502 186 C 473 177 472 164 502 162 Z" style="fill: #0070C0;"></path>
                                                                        <path d="M 460 79 Q 393 73 325 66 Q 304 65 319 47 Q 332 32 351 27 Q 372 20 388 25 Q 616 80 905 60 Q 924 60 930 68 Q 936 80 920 94 Q 865 139 795 121 Q 774 118 751 113 L 699 106 Q 656 102 603 94 Q 552 90 501 83 L 460 79 Z" style="fill: #0070C0;"></path>
                                    
                                    
                                                                                                                                                                                                                                                                                                                                                                                                                                                                                                                                                                                                                                                                                                                                                                                                                                                                    </g>
                            </svg>