<svg width='83' height='83' >
                                <g transform="translate(3, 70) scale(0.07, -0.07)">
                                    <!-- 先将完整的字以灰色字体绘制完成，层级位于下面 -->
                                                                        <path d="M 218 504 Q 264 568 315 658 Q 340 707 362 732 Q 372 744 366 758 Q 362 771 329 795 Q 299 813 279 812 Q 260 809 269 786 Q 285 755 274 727 Q 243 634 190 547 Q 139 462 70 369 Q 60 359 57 351 Q 54 339 69 342 Q 102 349 195 473 L 218 504 Z" style="fill: #0070C0;"></path>
                                                                        <path d="M 195 473 Q 220 413 221 350 Q 220 332 220 314 Q 220 206 192 95 Q 180 44 214 5 Q 215 2 218 0 Q 234 -16 246 10 Q 261 50 260 95 Q 260 360 268 419 Q 275 446 266 456 Q 227 498 218 504 C 196 524 184 501 195 473 Z" style="fill: #0070C0;"></path>
                                                                        <path d="M 609 686 Q 768 717 774 722 Q 781 729 778 737 Q 772 747 746 756 Q 718 763 691 752 Q 652 742 613 730 L 557 718 Q 493 708 417 701 Q 384 697 407 681 Q 446 656 496 668 Q 527 674 559 678 L 609 686 Z" style="fill: #0070C0;"></path>
                                                                        <path d="M 601 610 Q 605 649 609 686 L 613 730 Q 613 733 627 803 Q 630 813 612 826 Q 581 844 558 847 Q 543 851 536 843 Q 529 836 537 822 Q 552 803 553 788 Q 556 755 557 718 L 559 678 Q 560 641 560 600 C 560 570 598 580 601 610 Z" style="fill: #0070C0;"></path>
                                                                        <path d="M 560 600 Q 535 596 515 592 Q 490 589 463 585 Q 438 581 458 567 Q 488 546 511 552 Q 562 564 705 587 Q 715 586 722 597 Q 723 607 703 616 Q 673 632 601 610 L 560 600 Z" style="fill: #0070C0;"></path>
                                                                        <path d="M 461 496 Q 449 500 422 503 Q 412 506 408 501 Q 404 495 412 481 Q 434 442 452 377 Q 456 358 469 345 Q 485 327 490 341 Q 491 347 492 355 L 488 387 Q 476 445 474 467 C 471 493 471 493 461 496 Z" style="fill: #0070C0;"></path>
                                                                        <path d="M 698 415 Q 716 458 743 473 Q 758 488 746 504 Q 733 517 688 540 Q 672 547 653 541 Q 574 511 461 496 C 431 492 445 460 474 467 Q 481 470 636 498 Q 655 502 663 494 Q 669 485 651 420 C 643 391 686 388 698 415 Z" style="fill: #0070C0;"></path>
                                                                        <path d="M 702 383 Q 718 392 720 393 Q 720 400 698 415 L 651 420 Q 650 421 648 420 Q 558 398 488 387 C 458 382 462 354 492 355 Q 499 355 508 356 Q 560 369 666 379 L 702 383 Z" style="fill: #0070C0;"></path>
                                                                        <path d="M 495 256 Q 496 266 493 284 Q 487 300 468 311 Q 440 332 427 337 Q 420 340 417 331 Q 414 324 451 264 Q 455 257 461 252 C 483 232 493 226 495 256 Z" style="fill: #0070C0;"></path>
                                                                        <path d="M 667 278 Q 667 279 668 279 Q 683 295 699 315 Q 706 324 718 334 Q 731 343 726 352 Q 720 365 702 383 C 681 404 664 409 666 379 Q 669 357 637 285 Q 633 279 631 273 C 620 245 646 256 667 278 Z" style="fill: #0070C0;"></path>
                                                                        <path d="M 631 273 Q 583 270 495 256 L 461 252 Q 376 243 288 233 Q 269 232 283 215 Q 296 202 313 196 Q 334 190 349 195 Q 541 246 915 246 L 918 246 Q 937 245 943 254 Q 947 264 932 278 Q 875 320 816 303 Q 753 293 667 278 L 631 273 Z" style="fill: #0070C0;"></path>
                                                                        <path d="M 418 179 Q 412 180 408 180 Q 396 183 393 178 Q 386 171 396 156 Q 423 105 440 21 Q 444 -4 460 -21 Q 478 -43 483 -27 Q 487 -14 485 9 L 480 42 Q 467 118 464 142 C 460 172 448 175 418 179 Z" style="fill: #0070C0;"></path>
                                                                        <path d="M 722 66 Q 746 123 774 144 Q 792 162 778 180 Q 709 237 657 215 Q 483 164 418 179 C 388 184 434 137 464 142 Q 557 157 651 173 Q 673 177 681 168 Q 688 161 687 146 Q 680 106 669 71 C 660 42 710 39 722 66 Z" style="fill: #0070C0;"></path>
                                                                        <path d="M 485 9 Q 492 8 503 10 Q 576 23 734 30 Q 744 31 747 40 Q 747 47 722 66 C 707 78 699 76 669 71 Q 563 52 480 42 C 450 38 455 10 485 9 Z" style="fill: #0070C0;"></path>
                                    
                                    
                                                                                                                                                                                                                                                                                                                                                                                                                                                                                                                                                                                                                                                                                                                                                                                                                                                                                                                                                                                                                                                                                                                                                                                    </g>
                            </svg>