<svg width='83' height='83' >
                                <g transform="translate(3, 70) scale(0.07, -0.07)">
                                    <!-- 先将完整的字以灰色字体绘制完成，层级位于下面 -->
                                                                        <path d="M 218 491 Q 270 555 325 645 Q 350 694 375 717 Q 385 727 380 742 Q 376 755 346 779 Q 318 798 298 798 Q 279 797 287 773 Q 302 742 289 714 Q 225 558 67 364 Q 57 354 54 347 Q 50 335 65 338 Q 98 342 196 463 L 218 491 Z" style="fill: #0070C0;"></path>
                                                                        <path d="M 196 463 Q 214 418 223 370 Q 223 222 200 127 Q 188 76 222 37 Q 223 34 226 32 Q 242 16 254 42 Q 269 82 268 127 Q 265 353 272 403 Q 279 430 270 440 Q 228 486 218 491 C 194 510 185 491 196 463 Z" style="fill: #0070C0;"></path>
                                                                        <path d="M 473 743 Q 510 680 538 664 Q 551 658 563 669 Q 570 681 572 697 Q 565 746 491 778 Q 476 785 466 783 Q 460 783 461 771 Q 460 759 473 743 Z" style="fill: #0070C0;"></path>
                                                                        <path d="M 720 795 Q 701 761 630 678 Q 620 662 638 665 Q 689 696 718 719 Q 778 767 803 779 Q 824 789 813 806 Q 800 822 774 836 Q 750 849 738 846 Q 725 845 730 831 Q 734 813 720 795 Z" style="fill: #0070C0;"></path>
                                                                        <path d="M 409 601 Q 396 605 376 608 Q 364 611 361 606 Q 354 599 363 584 Q 394 521 414 418 Q 418 387 436 367 Q 454 345 459 361 Q 462 371 462 386 L 461 411 Q 460 420 458 429 Q 437 535 433 568 C 429 595 429 595 409 601 Z" style="fill: #0070C0;"></path>
                                                                        <path d="M 730 415 Q 748 387 764 377 Q 774 368 791 390 Q 807 412 841 533 Q 851 564 876 589 Q 889 602 878 617 Q 863 635 820 663 Q 802 672 724 654 Q 703 654 534 623 Q 467 610 409 601 C 379 596 404 560 433 568 Q 491 584 575 598 L 614 606 Q 761 636 780 615 Q 792 602 789 587 Q 761 460 745 443 C 731 417 730 415 730 415 Z" style="fill: #0070C0;"></path>
                                                                        <path d="M 619 434 Q 623 563 627 573 Q 631 588 614 606 C 594 629 569 627 575 598 Q 579 591 582 428 C 583 398 618 404 619 434 Z" style="fill: #0070C0;"></path>
                                                                        <path d="M 486 522 Q 514 468 530 465 Q 539 462 546 474 Q 550 483 546 499 Q 539 521 493 541 Q 487 544 484 535 Q 483 531 486 522 Z" style="fill: #0070C0;"></path>
                                                                        <path d="M 689 553 Q 676 529 647 493 Q 643 489 647 484 Q 651 483 657 486 Q 712 525 739 540 Q 751 544 748 551 Q 744 561 730 573 Q 717 585 702 586 Q 692 586 693 573 Q 694 563 689 553 Z" style="fill: #0070C0;"></path>
                                                                        <path d="M 462 386 Q 472 385 490 387 Q 626 406 730 415 C 760 418 773 431 745 443 Q 741 446 734 447 Q 712 453 619 434 L 582 428 Q 518 421 461 411 C 431 406 432 387 462 386 Z" style="fill: #0070C0;"></path>
                                                                        <path d="M 506 297 Q 488 315 458 312 Q 446 308 452 298 Q 489 222 454 100 Q 430 67 460 22 Q 461 19 465 16 Q 471 4 480 9 Q 490 16 498 40 L 505 67 Q 509 86 510 110 Q 510 138 511 161 L 511 187 Q 512 248 515 266 C 518 287 518 287 506 297 Z" style="fill: #0070C0;"></path>
                                                                        <path d="M 659 55 Q 690 18 711 -17 Q 718 -33 729 -32 Q 744 -31 757 -1 Q 773 33 770 75 Q 764 133 757 242 Q 756 270 770 290 Q 777 303 769 311 Q 751 329 704 349 Q 688 356 673 348 Q 628 327 506 297 C 477 290 485 261 515 266 Q 542 269 663 301 Q 684 305 695 298 Q 720 273 705 79 L 705 77 Q 702 65 693 66 C 671 46 649 67 659 55 Z" style="fill: #0070C0;"></path>
                                                                        <path d="M 511 161 Q 517 161 522 161 Q 600 170 658 174 Q 680 175 673 189 Q 663 202 640 209 Q 618 213 511 187 C 482 180 481 161 511 161 Z" style="fill: #0070C0;"></path>
                                                                        <path d="M 498 40 Q 588 49 659 55 C 689 58 696 58 693 66 Q 693 67 692 70 Q 685 83 664 88 Q 645 92 505 67 C 475 62 468 37 498 40 Z" style="fill: #0070C0;"></path>
                                    
                                    
                                                                                                                                                                                                                                                                                                                                                                                                                                                                                                                                                                                                                                                                                                                                                                                                                                                                                                                                                                                                                                                                                                                                                                                    </g>
                            </svg>