<svg width='83' height='83' >
                                <g transform="translate(3, 70) scale(0.07, -0.07)">
                                    <!-- 先将完整的字以灰色字体绘制完成，层级位于下面 -->
                                                                        <path d="M 310 637 Q 340 577 311 357 Q 299 300 269 232 Q 236 163 146 80 Q 130 67 125 59 Q 122 50 136 50 Q 178 50 258 125 Q 354 224 386 446 Q 395 524 405 602 Q 412 627 389 639 Q 334 669 315 667 Q 293 663 310 637 Z" style="fill: #0070C0;"></path>
                                                                        <path d="M 979 84 Q 954 144 939 247 Q 936 265 930 272 Q 920 279 916 262 Q 903 201 887 155 Q 880 124 852 105 Q 825 78 707 87 Q 641 96 622 132 Q 595 201 620 515 Q 627 621 641 666 Q 653 697 566 747 Q 547 760 526 749 Q 513 742 536 711 Q 564 671 565 570 Q 565 489 557 329 Q 542 128 591 71 Q 630 32 708 20 Q 753 16 816 16 Q 895 17 953 42 Q 993 54 979 84 Z" style="fill: #0070C0;"></path>
                                    
                                    
                                                                                                                                                                                                                                    </g>
                            </svg>