<svg width='83' height='83' >
                                <g transform="translate(3, 70) scale(0.07, -0.07)">
                                    <!-- 先将完整的字以灰色字体绘制完成，层级位于下面 -->
                                                                        <path d="M 345 707 Q 305 697 335 680 Q 378 659 457 677 Q 530 695 609 716 Q 646 726 652 732 Q 662 742 656 751 Q 647 764 614 770 Q 581 774 475 735 Q 418 717 345 707 Z" style="fill: #0070C0;"></path>
                                                                        <path d="M 526 493 Q 553 502 740 536 Q 753 535 762 550 Q 763 563 736 574 Q 696 596 614 565 Q 452 519 256 478 Q 220 472 183 465 Q 152 459 177 441 Q 214 411 248 423 Q 285 433 329 444 L 363 453 Q 418 469 485 484 L 526 493 Z" style="fill: #0070C0;"></path>
                                                                        <path d="M 329 444 Q 329 375 325 358 Q 279 217 148 101 Q 129 85 107 66 Q 100 59 107 55 Q 141 49 234 126 Q 324 195 383 352 Q 393 377 407 402 Q 414 412 409 422 Q 397 441 363 453 C 335 464 329 467 329 444 Z" style="fill: #0070C0;"></path>
                                                                        <path d="M 961 112 Q 939 164 924 253 Q 921 269 914 274 Q 905 278 902 258 Q 892 146 877 126 Q 847 90 702 86 Q 624 89 592 102 Q 564 117 557 136 Q 527 220 554 362 Q 560 396 569 419 Q 587 462 526 493 C 501 509 474 512 485 484 Q 506 442 501 383 Q 492 140 520 100 Q 529 84 545 72 Q 605 26 812 36 Q 906 40 943 60 Q 976 78 961 112 Z" style="fill: #0070C0;"></path>
                                    
                                    
                                                                                                                                                                                                                                                                                                                                                                                            </g>
                            </svg>