<svg width='83' height='83' >
                                <g transform="translate(3, 70) scale(0.07, -0.07)">
                                    <!-- 先将完整的字以灰色字体绘制完成，层级位于下面 -->
                                                                        <path d="M 468 792 Q 496 770 525 741 Q 541 728 559 728 Q 571 729 576 744 Q 582 762 570 795 Q 558 826 461 847 Q 443 851 436 847 Q 430 843 432 828 Q 436 815 468 792 Z" style="fill: #0070C0;"></path>
                                                                        <path d="M 480 616 Q 772 662 789 675 Q 799 682 794 692 Q 787 705 759 713 Q 728 722 697 711 Q 463 644 240 633 Q 203 629 228 610 Q 267 586 347 596 Q 387 602 430 609 L 480 616 Z" style="fill: #0070C0;"></path>
                                                                        <path d="M 543 415 Q 562 419 584 424 Q 611 428 632 433 C 661 439 647 455 617 452 Q 503 439 385 424 Q 375 423 373 425 Q 372 428 379 435 Q 476 541 511 568 Q 529 581 520 593 Q 510 606 480 616 C 452 627 432 635 430 609 Q 430 540 348 463 Q 324 441 280 422 Q 252 412 251 401 Q 250 383 259 362 Q 269 341 282 335 Q 289 331 301 337 Q 335 356 375 369 L 406 378 Q 413 387 503 405 L 543 415 Z" style="fill: #0070C0;"></path>
                                                                        <path d="M 632 433 Q 674 382 684 380 Q 694 379 701 389 Q 708 402 706 430 Q 705 457 671 484 Q 637 508 596 530 Q 583 536 576 535 Q 572 532 570 520 Q 570 514 617 452 L 632 433 Z" style="fill: #0070C0;"></path>
                                                                        <path d="M 375 369 L 376 367 Q 377 247 246 113 Q 243 112 241 109 Q 204 72 113 9 Q 106 2 111 -1 Q 118 -4 129 0 Q 192 21 246 60 Q 339 118 417 277 Q 430 302 447 326 Q 454 335 450 344 Q 441 366 406 378 C 378 389 374 391 375 369 Z" style="fill: #0070C0;"></path>
                                                                        <path d="M 970 76 Q 954 128 947 216 Q 946 232 938 238 Q 929 244 925 223 Q 903 114 886 96 Q 855 59 726 55 Q 656 55 624 66 Q 597 79 591 96 Q 564 157 578 264 Q 581 313 593 341 Q 608 384 543 415 C 517 430 492 433 503 405 Q 527 354 526 302 Q 526 92 562 49 Q 587 16 668 6 Q 731 -1 829 4 Q 917 10 952 29 Q 982 44 970 76 Z" style="fill: #0070C0;"></path>
                                    
                                    
                                                                                                                                                                                                                                                                                                                                                                                                                                                                                                                                                    </g>
                            </svg>