<svg width='83' height='83' >
                                <g transform="translate(3, 70) scale(0.07, -0.07)">
                                    <!-- 先将完整的字以灰色字体绘制完成，层级位于下面 -->
                                                                        <path d="M 538 652 Q 563 689 587 744 Q 597 766 612 787 Q 619 796 615 805 Q 609 815 581 833 Q 562 845 552 843 Q 539 840 540 826 Q 543 762 492 672 L 467 636 Q 412 570 324 505 Q 317 498 323 495 Q 350 485 442 551 Q 479 576 507 610 L 538 652 Z" style="fill: #0070C0;"></path>
                                                                        <path d="M 507 610 Q 543 588 582 559 Q 598 546 610 545 Q 616 546 620 554 Q 627 566 611 597 Q 599 622 538 652 L 492 672 Q 480 684 358 722 Q 351 723 351 714 Q 352 704 362 698 Q 411 671 467 636 L 507 610 Z" style="fill: #0070C0;"></path>
                                                                        <path d="M 557 434 Q 632 450 666 451 C 696 453 704 493 674 489 Q 466 464 311 417 Q 286 410 291 439 Q 294 508 298 578 Q 301 603 289 618 Q 271 636 245 648 Q 233 654 222 651 Q 212 645 221 626 Q 255 559 247 491 Q 243 425 218 395 Q 199 376 207 362 Q 220 346 238 335 Q 253 328 263 336 Q 282 358 376 388 L 417 400 Q 462 415 512 425 L 557 434 Z" style="fill: #0070C0;"></path>
                                                                        <path d="M 666 451 Q 667 421 675 400 Q 682 381 698 392 Q 726 413 745 507 Q 778 625 793 646 Q 803 661 795 678 Q 776 697 743 723 Q 730 733 716 728 Q 707 725 708 710 Q 727 671 688 520 Q 681 504 674 489 L 666 451 Z" style="fill: #0070C0;"></path>
                                                                        <path d="M 376 388 Q 383 361 310 220 Q 307 219 306 214 Q 240 100 116 7 Q 109 3 105 -3 Q 98 -12 109 -14 Q 143 -21 240 54 Q 249 63 258 70 Q 336 148 423 307 Q 448 344 449 354 Q 440 376 417 400 C 397 422 377 418 376 388 Z" style="fill: #0070C0;"></path>
                                                                        <path d="M 512 425 Q 536 401 530 323 Q 521 307 525 166 Q 525 45 611 3 Q 692 -31 829 -23 Q 916 -16 948 5 Q 982 21 971 56 Q 953 111 947 206 Q 946 224 938 230 Q 929 237 924 214 Q 899 99 880 80 Q 870 61 835 55 Q 789 46 724 47 Q 651 50 620 63 Q 592 76 586 95 Q 561 165 589 302 Q 595 333 604 353 Q 625 402 557 434 C 531 449 498 451 512 425 Z" style="fill: #0070C0;"></path>
                                    
                                    
                                                                                                                                                                                                                                                                                                                                                                                                                                                                                                                                                    </g>
                            </svg>