<svg width='83' height='83' >
                                <g transform="translate(3, 70) scale(0.07, -0.07)">
                                    <!-- 先将完整的字以灰色字体绘制完成，层级位于下面 -->
                                                                        <path d="M 266 592 Q 296 614 314 630 Q 362 675 382 685 Q 400 695 388 710 Q 375 723 352 734 Q 330 744 319 740 Q 309 737 313 726 Q 319 704 255 609 C 238 584 242 574 266 592 Z" style="fill: #0070C0;"></path>
                                                                        <path d="M 255 609 Q 245 616 213 623 Q 200 624 195 619 Q 191 615 200 600 Q 239 555 232 440 Q 231 434 229 427 Q 222 399 194 368 Q 184 359 189 342 Q 196 320 206 310 Q 216 303 226 313 Q 263 347 371 413 Q 384 419 388 426 Q 389 430 385 431 Q 378 432 293 411 Q 286 410 284 412 Q 281 413 280 422 Q 265 576 266 592 C 266 604 266 604 255 609 Z" style="fill: #0070C0;"></path>
                                                                        <path d="M 457 667 Q 488 706 507 731 Q 537 782 564 808 Q 580 823 565 835 Q 549 845 522 850 Q 497 854 488 848 Q 478 844 485 833 Q 497 809 442 669 Q 441 666 441 663 C 436 641 438 644 457 667 Z" style="fill: #0070C0;"></path>
                                                                        <path d="M 437 661 Q 427 667 404 674 Q 394 678 391 674 Q 385 670 390 656 Q 412 574 413 449 Q 412 412 428 383 Q 440 364 446 376 Q 450 386 453 399 L 456 426 Q 456 441 455 458 Q 452 491 450 518 L 449 548 Q 445 615 445 637 C 445 657 445 657 437 661 Z" style="fill: #0070C0;"></path>
                                                                        <path d="M 552 409 Q 561 393 572 376 Q 585 354 593 356 Q 600 357 610 376 Q 614 386 620 470 Q 620 620 637 651 Q 647 667 640 677 Q 633 687 587 702 Q 565 709 549 700 Q 500 678 457 667 L 441 663 Q 440 663 437 661 C 408 652 416 630 445 637 Q 556 665 558 665 Q 562 664 567 660 Q 583 644 571 455 Q 572 439 564 436 C 551 411 551 411 552 409 Z" style="fill: #0070C0;"></path>
                                                                        <path d="M 450 518 Q 498 528 534 534 Q 553 538 545 549 Q 535 562 512 564 Q 485 565 449 548 C 422 535 421 512 450 518 Z" style="fill: #0070C0;"></path>
                                                                        <path d="M 453 399 Q 508 406 552 409 C 582 411 591 422 564 436 Q 557 440 545 443 Q 506 449 456 426 C 429 414 423 395 453 399 Z" style="fill: #0070C0;"></path>
                                                                        <path d="M 789 445 Q 816 581 859 620 Q 875 639 859 657 Q 843 670 789 692 Q 774 698 718 676 Q 694 669 671 662 Q 656 661 658 651 Q 661 644 678 639 Q 702 630 732 642 Q 757 645 762 641 Q 775 628 772 600 Q 757 512 736 443 C 727 414 783 416 789 445 Z" style="fill: #0070C0;"></path>
                                                                        <path d="M 736 443 Q 687 431 648 425 Q 626 422 639 404 Q 646 394 657 391 Q 669 388 682 391 Q 722 398 811 403 Q 823 404 824 414 Q 824 423 792 444 Q 791 445 789 445 L 736 443 Z" style="fill: #0070C0;"></path>
                                                                        <path d="M 404 318 Q 392 198 256 91 Q 250 88 245 84 Q 205 53 111 2 Q 102 -4 108 -9 Q 135 -24 248 33 Q 348 81 440 221 Q 456 243 475 264 Q 485 271 481 283 Q 477 295 449 318 Q 430 334 420 334 Q 405 333 404 318 Z" style="fill: #0070C0;"></path>
                                                                        <path d="M 963 59 Q 953 93 947 191 Q 948 207 941 214 Q 935 218 929 200 Q 889 98 866 67 Q 853 51 813 40 Q 717 16 648 45 Q 618 58 611 76 Q 587 124 613 286 Q 619 314 570 335 Q 557 339 549 334 Q 542 330 548 312 Q 561 273 558 237 Q 551 95 563 57 Q 569 32 592 10 Q 665 -53 832 -30 Q 851 -26 872 -21 Q 914 -8 954 21 Q 973 34 963 59 Z" style="fill: #0070C0;"></path>
                                    
                                    
                                                                                                                                                                                                                                                                                                                                                                                                                                                                                                                                                                                                                                                                                                                                                                                                                                                                                                                                                </g>
                            </svg>