<svg width='83' height='83' >
                                <g transform="translate(3, 70) scale(0.07, -0.07)">
                                    <!-- 先将完整的字以灰色字体绘制完成，层级位于下面 -->
                                                                        <path d="M 520 705 Q 521 706 522 707 Q 535 725 543 732 Q 552 738 550 750 Q 549 760 536 775 Q 499 809 464 805 Q 454 804 456 789 Q 466 690 306 509 Q 291 496 278 481 Q 224 427 94 325 Q 84 319 96 316 Q 132 320 235 386 Q 236 389 241 390 Q 355 468 504 681 L 520 705 Z" style="fill: #0070C0;"></path>
                                                                        <path d="M 504 681 Q 741 402 799 394 Q 806 394 817 394 Q 938 406 976 416 Q 986 419 988 425 Q 988 431 971 438 Q 809 478 744 521 Q 641 596 520 705 C 498 725 485 704 504 681 Z" style="fill: #0070C0;"></path>
                                                                        <path d="M 493 371 Q 652 402 658 407 Q 668 414 663 424 Q 656 436 626 444 Q 595 451 565 440 Q 514 424 459 411 Q 398 398 327 393 Q 290 389 316 370 Q 352 349 431 360 Q 440 361 451 363 L 493 371 Z" style="fill: #0070C0;"></path>
                                                                        <path d="M 518 206 Q 561 215 607 221 Q 655 231 662 237 Q 671 244 666 252 Q 660 264 632 272 Q 605 278 521 254 L 466 240 Q 463 241 460 240 Q 394 228 318 223 Q 284 219 308 202 Q 344 175 401 187 Q 432 193 467 198 L 518 206 Z" style="fill: #0070C0;"></path>
                                                                        <path d="M 512 69 Q 515 142 518 206 L 521 254 Q 522 273 523 292 Q 524 307 525 317 Q 532 336 523 346 Q 507 362 493 371 C 468 388 438 390 451 363 Q 466 339 466 240 L 467 198 Q 467 146 467 64 C 467 34 511 39 512 69 Z" style="fill: #0070C0;"></path>
                                                                        <path d="M 467 64 Q 338 51 191 36 Q 167 35 184 15 Q 199 -1 219 -7 Q 241 -14 260 -9 Q 494 48 803 27 Q 803 28 806 27 Q 828 26 834 36 Q 841 49 823 64 Q 766 109 724 101 Q 645 86 512 69 L 467 64 Z" style="fill: #0070C0;"></path>
                                    
                                    
                                                                                                                                                                                                                                                                                                                                                                                                                                                                                                                                                    </g>
                            </svg>