<svg width='83' height='83' >
                                <g transform="translate(3, 70) scale(0.07, -0.07)">
                                    <!-- 先将完整的字以灰色字体绘制完成，层级位于下面 -->
                                                                        <path d="M 317 465 Q 318 338 155 190 Q 136 178 79 126 Q 67 110 85 113 Q 110 114 146 137 Q 258 209 325 305 Q 368 363 406 409 Q 419 422 404 441 Q 355 486 329 484 Q 316 483 317 465 Z" style="fill: #0070C0;"></path>
                                                                        <path d="M 446 687 Q 507 636 530 577 Q 608 343 711 190 Q 732 163 846 151 Q 892 147 958 141 Q 983 140 984 146 Q 984 152 963 163 Q 756 269 675 396 Q 621 480 551 644 Q 530 690 483 702 Q 449 709 445 702 Q 438 692 446 687 Z" style="fill: #0070C0;"></path>
                                    
                                    
                                                                                                                                                                                                                                    </g>
                            </svg>