<svg width='83' height='83' >
                                <g transform="translate(3, 70) scale(0.07, -0.07)">
                                    <!-- 先将完整的字以灰色字体绘制完成，层级位于下面 -->
                                                                        <path d="M 304 649 Q 322 577 199 422 Q 193 418 189 411 Q 152 368 61 284 Q 52 280 64 276 Q 140 291 252 412 Q 256 419 264 426 Q 307 477 374 581 Q 383 594 389 601 Q 396 607 395 617 Q 394 627 380 640 Q 344 670 310 665 Q 301 662 304 649 Z" style="fill: #0070C0;"></path>
                                                                        <path d="M 467 783 Q 527 747 562 678 Q 662 477 753 386 Q 775 370 886 372 Q 919 375 966 376 Q 987 377 987 383 Q 987 387 968 395 Q 794 459 735 515 Q 656 594 554 760 Q 533 794 495 799 Q 467 802 465 795 Q 461 786 467 783 Z" style="fill: #0070C0;"></path>
                                                                        <path d="M 629 177 Q 500 164 362 133 Q 347 129 343 133 Q 340 137 347 150 Q 477 334 505 364 Q 520 376 512 391 Q 505 406 448 432 Q 429 442 417 436 Q 401 429 409 405 Q 430 333 302 171 Q 277 146 238 118 Q 222 103 226 91 Q 232 70 262 47 Q 275 34 291 47 Q 357 93 633 146 Q 640 147 647 150 C 676 157 659 180 629 177 Z" style="fill: #0070C0;"></path>
                                                                        <path d="M 647 150 Q 707 54 718 48 Q 727 45 738 54 Q 754 66 750 118 Q 750 181 585 289 Q 576 296 571 284 Q 567 269 576 255 Q 601 221 629 177 L 647 150 Z" style="fill: #0070C0;"></path>
                                    
                                    
                                                                                                                                                                                                                                                                                                                                                                                            </g>
                            </svg>