<svg width='83' height='83' >
                                <g transform="translate(3, 70) scale(0.07, -0.07)">
                                    <!-- 先将完整的字以灰色字体绘制完成，层级位于下面 -->
                                                                        <path d="M 357 683 Q 385 652 416 617 Q 428 602 443 601 Q 453 600 461 613 Q 467 626 462 658 Q 455 694 358 731 Q 343 737 336 735 Q 330 732 331 719 Q 332 707 357 683 Z" style="fill: #0070C0;"></path>
                                                                        <path d="M 622 749 Q 604 719 530 624 Q 520 605 539 609 Q 584 637 670 700 Q 691 719 718 731 Q 742 743 729 763 Q 713 782 683 797 Q 656 812 642 808 Q 627 807 633 791 Q 637 770 622 749 Z" style="fill: #0070C0;"></path>
                                                                        <path d="M 290 533 Q 248 529 277 508 Q 319 478 405 490 Q 540 508 681 528 Q 750 540 760 548 Q 770 557 767 566 Q 760 581 727 591 Q 693 600 595 572 Q 430 538 290 533 Z" style="fill: #0070C0;"></path>
                                                                        <path d="M 330 345 Q 288 341 316 320 Q 362 290 426 301 Q 534 317 646 333 Q 697 342 705 348 Q 715 357 711 366 Q 704 381 671 390 Q 640 399 522 368 Q 432 350 330 345 Z" style="fill: #0070C0;"></path>
                                                                        <path d="M 527 112 Q 576 113 624 117 Q 757 129 879 109 Q 906 106 912 115 Q 922 131 908 144 Q 875 175 827 199 Q 811 206 782 197 Q 686 179 488 163 Q 376 156 318 149 Q 255 140 161 142 Q 145 142 144 129 Q 143 116 163 99 Q 182 84 217 70 Q 229 66 249 74 Q 265 78 332 88 Q 420 106 527 112 Z" style="fill: #0070C0;"></path>
                                    
                                    
                                                                                                                                                                                                                                                                                                                                                                                                                                                                        </g>
                            </svg>