<svg width='83' height='83' >
                                <g transform="translate(3, 70) scale(0.07, -0.07)">
                                    <!-- 先将完整的字以灰色字体绘制完成，层级位于下面 -->
                                                                        <path d="M 657 539 Q 786 563 797 572 Q 807 581 803 590 Q 796 605 763 614 Q 732 623 664 602 L 606 585 Q 557 575 507 564 Q 471 558 434 551 L 382 545 Q 330 541 273 537 Q 231 533 260 512 Q 305 484 385 496 L 433 503 Q 515 518 603 531 L 657 539 Z" style="fill: #0070C0;"></path>
                                                                        <path d="M 434 551 Q 435 630 440 651 Q 444 676 428 690 Q 403 711 373 722 Q 357 729 347 722 Q 338 715 345 698 Q 376 634 382 545 L 385 496 Q 386 429 391 318 C 392 288 437 293 436 323 Q 433 429 433 503 L 434 551 Z" style="fill: #0070C0;"></path>
                                                                        <path d="M 635 349 Q 645 446 657 539 L 664 602 Q 670 668 695 755 Q 699 767 679 784 Q 642 808 615 813 Q 597 819 588 809 Q 578 802 587 784 Q 612 744 610 717 Q 609 653 606 585 L 603 531 Q 596 440 587 342 C 584 312 632 319 635 349 Z" style="fill: #0070C0;"></path>
                                                                        <path d="M 391 318 Q 261 306 119 290 Q 94 287 112 267 Q 146 233 194 242 Q 434 303 859 304 Q 887 304 913 303 Q 937 303 943 313 Q 950 326 930 343 Q 870 389 825 381 Q 747 366 635 349 L 587 342 Q 548 338 508 332 Q 472 329 436 323 L 391 318 Z" style="fill: #0070C0;"></path>
                                                                        <path d="M 365 177 Q 307 98 210 10 Q 198 -6 215 -9 Q 255 -9 349 69 Q 395 108 443 147 Q 462 157 455 176 Q 448 192 407 220 Q 394 229 382 225 Q 366 219 371 205 Q 378 189 365 177 Z" style="fill: #0070C0;"></path>
                                                                        <path d="M 613 198 Q 674 131 746 35 Q 762 10 781 2 Q 791 -1 802 11 Q 818 26 808 79 Q 801 127 718 180 Q 700 192 618 235 Q 608 242 603 228 Q 602 212 613 198 Z" style="fill: #0070C0;"></path>
                                    
                                    
                                                                                                                                                                                                                                                                                                                                                                                                                                                                                                                                                    </g>
                            </svg>