<svg width='83' height='83' >
                                <g transform="translate(3, 70) scale(0.07, -0.07)">
                                    <!-- 先将完整的字以灰色字体绘制完成，层级位于下面 -->
                                                                        <path d="M 359 703 Q 383 681 409 652 Q 422 639 440 639 Q 450 639 457 653 Q 461 668 454 700 Q 445 730 355 754 Q 339 758 332 755 Q 326 751 328 738 Q 331 726 359 703 Z" style="fill: #0070C0;"></path>
                                                                        <path d="M 641 764 Q 620 733 543 647 Q 533 629 550 633 Q 599 660 684 716 Q 703 732 730 742 Q 752 752 742 771 Q 729 790 701 806 Q 676 821 663 818 Q 650 817 654 803 Q 657 784 641 764 Z" style="fill: #0070C0;"></path>
                                                                        <path d="M 500 524 Q 582 537 670 550 Q 731 562 741 570 Q 751 577 747 587 Q 740 600 709 610 Q 673 619 586 591 Q 445 558 313 551 Q 273 547 300 527 Q 342 502 419 513 Q 434 516 451 516 L 500 524 Z" style="fill: #0070C0;"></path>
                                                                        <path d="M 531 330 Q 585 336 871 335 Q 893 334 898 344 Q 905 357 887 372 Q 827 418 775 406 Q 678 390 525 369 L 462 362 Q 323 349 166 332 Q 144 331 160 311 Q 175 295 195 289 Q 217 282 236 287 Q 338 312 453 323 L 531 330 Z" style="fill: #0070C0;"></path>
                                                                        <path d="M 525 369 Q 532 400 538 438 Q 542 466 548 479 Q 555 486 550 498 Q 537 511 500 524 C 472 535 441 544 451 516 Q 452 512 456 506 Q 471 443 463 372 Q 462 368 462 362 L 453 323 Q 411 200 348 147 Q 308 110 201 60 Q 173 45 206 45 Q 258 42 357 93 Q 405 117 437 161 Q 482 218 509 309 L 525 369 Z" style="fill: #0070C0;"></path>
                                                                        <path d="M 509 309 Q 588 185 689 52 Q 708 30 742 30 Q 856 29 892 34 Q 902 35 905 41 Q 905 47 890 55 Q 739 127 675 181 Q 606 245 531 330 C 511 352 493 334 509 309 Z" style="fill: #0070C0;"></path>
                                    
                                    
                                                                                                                                                                                                                                                                                                                                                                                                                                                                                                                                                    </g>
                            </svg>