<svg width='83' height='83' >
                                <g transform="translate(3, 70) scale(0.07, -0.07)">
                                    <!-- 先将完整的字以灰色字体绘制完成，层级位于下面 -->
                                                                        <path d="M 376 757 Q 398 739 422 717 Q 435 705 450 707 Q 460 708 465 720 Q 469 735 459 763 Q 447 790 369 803 Q 354 806 348 803 Q 344 799 345 787 Q 349 777 376 757 Z" style="fill: #0070C0;"></path>
                                                                        <path d="M 603 808 Q 579 774 532 720 Q 526 714 531 707 Q 538 706 545 710 Q 630 765 671 786 Q 687 790 685 801 Q 679 816 662 834 Q 644 852 624 854 Q 609 854 610 836 Q 611 823 603 808 Z" style="fill: #0070C0;"></path>
                                                                        <path d="M 501 630 Q 567 640 638 648 Q 696 658 705 665 Q 714 672 710 680 Q 704 693 676 702 Q 649 709 536 680 Q 386 658 308 655 Q 272 651 296 633 Q 330 609 408 619 Q 426 622 448 623 L 501 630 Z" style="fill: #0070C0;"></path>
                                                                        <path d="M 476 512 Q 540 524 679 538 Q 688 537 696 548 Q 697 558 677 569 Q 650 590 568 567 Q 514 558 495 552 L 435 542 Q 423 542 312 530 Q 287 527 306 511 Q 325 495 365 494 Q 390 500 423 504 L 476 512 Z" style="fill: #0070C0;"></path>
                                                                        <path d="M 600 424 Q 654 427 838 428 Q 857 428 863 436 Q 869 448 852 462 Q 798 502 735 488 Q 644 472 501 451 Q 473 448 446 444 L 394 437 Q 291 427 181 414 Q 159 413 175 395 Q 188 382 207 375 Q 228 369 244 374 Q 305 390 374 401 L 429 408 Q 460 417 567 423 L 600 424 Z" style="fill: #0070C0;"></path>
                                                                        <path d="M 446 444 Q 450 459 476 512 L 495 552 Q 505 571 518 587 Q 530 600 517 613 Q 508 623 501 630 C 480 652 449 653 448 623 Q 451 604 435 542 L 423 504 Q 411 473 394 437 L 374 401 Q 286 257 120 196 Q 104 189 87 182 Q 74 176 84 171 Q 145 159 251 218 Q 308 248 377 329 Q 407 366 429 408 L 446 444 Z" style="fill: #0070C0;"></path>
                                                                        <path d="M 567 423 Q 568 419 573 415 Q 661 297 776 174 Q 809 141 965 169 Q 975 172 976 177 Q 976 183 962 189 Q 820 234 739 298 Q 673 353 600 424 C 578 445 549 447 567 423 Z" style="fill: #0070C0;"></path>
                                                                        <path d="M 384 284 Q 409 253 391 156 Q 370 72 287 6 Q 275 -3 286 -5 Q 370 4 419 91 Q 419 92 421 94 Q 446 160 457 221 Q 458 240 467 256 Q 474 274 459 281 Q 443 293 429 298 Q 407 308 390 302 Q 377 298 384 284 Z" style="fill: #0070C0;"></path>
                                                                        <path d="M 554 310 Q 570 286 563 87 Q 562 80 561 72 Q 557 6 578 -30 Q 585 -54 604 -62 Q 614 -63 620 -50 Q 630 -19 626 11 Q 614 224 620 282 Q 621 294 615 300 Q 591 319 573 327 Q 560 331 552 323 Q 546 319 554 310 Z" style="fill: #0070C0;"></path>
                                    
                                    
                                                                                                                                                                                                                                                                                                                                                                                                                                                                                                                                                                                                                                                                                                                                                                                        </g>
                            </svg>