<svg width='83' height='83' >
                                <g transform="translate(3, 70) scale(0.07, -0.07)">
                                    <!-- 先将完整的字以灰色字体绘制完成，层级位于下面 -->
                                                                        <path d="M 267 708 Q 242 730 212 741 Q 202 744 194 734 Q 190 727 198 715 Q 222 657 221 582 Q 222 315 174 174 Q 164 146 169 123 Q 179 86 191 70 Q 203 54 215 69 Q 251 111 259 341 Q 268 593 278 660 C 282 690 282 696 267 708 Z" style="fill: #0070C0;"></path>
                                                                        <path d="M 278 660 Q 288 659 304 662 Q 476 698 683 720 Q 714 726 730 709 Q 745 702 750 635 Q 769 415 760 165 Q 759 128 746 118 Q 727 106 639 130 Q 620 134 622 123 Q 623 114 638 108 Q 716 56 758 16 Q 780 -5 795 -2 Q 808 1 820 33 Q 836 82 834 155 Q 812 492 813 618 Q 812 663 825 690 Q 838 715 827 728 Q 814 744 760 771 Q 738 781 716 776 Q 551 728 267 708 C 237 706 248 656 278 660 Z" style="fill: #0070C0;"></path>
                                    
                                    
                                                                                                                                                                                                                                    </g>
                            </svg>