<svg width='83' height='83' >
                                <g transform="translate(3, 70) scale(0.07, -0.07)">
                                    <!-- 先将完整的字以灰色字体绘制完成，层级位于下面 -->
                                                                        <path d="M 278 711 Q 256 731 229 739 Q 219 743 211 733 Q 207 726 215 714 Q 239 650 237 572 Q 235 284 184 143 Q 173 114 178 92 Q 188 53 200 38 Q 212 22 223 37 Q 260 76 267 225 Q 284 626 295 670 C 299 695 299 695 278 711 Z" style="fill: #0070C0;"></path>
                                                                        <path d="M 295 670 Q 442 708 690 741 Q 712 744 723 731 Q 747 717 754 519 Q 760 337 755 141 Q 755 101 739 90 Q 726 80 659 94 Q 639 98 641 87 Q 641 78 657 71 Q 715 25 750 -18 Q 772 -37 787 -35 Q 803 -33 815 0 Q 833 50 831 127 Q 809 499 809 636 Q 809 664 815 686 Q 815 689 827 717 Q 832 733 823 743 Q 811 759 760 786 Q 747 792 737 792 Q 724 793 684 780 Q 533 737 278 711 C 248 708 266 663 295 670 Z" style="fill: #0070C0;"></path>
                                                                        <path d="M 397 497 L 394 498 Q 363 509 357 502 Q 353 496 360 480 Q 386 418 401 343 Q 404 319 417 300 Q 434 282 439 296 Q 443 310 441 331 L 436 364 Q 423 447 419 470 C 415 491 415 491 397 497 Z" style="fill: #0070C0;"></path>
                                                                        <path d="M 608 390 Q 625 453 658 476 Q 672 492 660 510 Q 590 559 541 534 Q 472 510 397 497 C 367 492 389 466 419 470 Q 430 471 439 474 L 553 498 Q 570 502 576 492 Q 585 474 561 394 C 553 365 600 361 608 390 Z" style="fill: #0070C0;"></path>
                                                                        <path d="M 441 331 Q 449 329 463 332 Q 535 347 623 356 Q 633 357 633 367 Q 633 374 608 390 C 590 402 590 402 561 394 Q 560 394 557 393 Q 491 374 436 364 C 407 359 411 335 441 331 Z" style="fill: #0070C0;"></path>
                                    
                                    
                                                                                                                                                                                                                                                                                                                                                                                                                                                                        </g>
                            </svg>