<svg width='83' height='83' >
                                <g transform="translate(3, 70) scale(0.07, -0.07)">
                                    <!-- 先将完整的字以灰色字体绘制完成，层级位于下面 -->
                                                                        <path d="M 521 731 Q 764 767 777 777 Q 786 784 782 792 Q 776 805 748 813 Q 720 822 690 812 Q 492 755 276 747 Q 240 743 264 725 Q 297 701 379 711 Q 424 717 472 724 L 521 731 Z" style="fill: #0070C0;"></path>
                                                                        <path d="M 359 580 Q 358 581 357 582 Q 326 598 307 598 Q 292 594 298 580 Q 341 484 321 304 L 314 260 Q 295 163 280 136 Q 256 90 291 42 Q 291 41 293 39 Q 300 24 312 30 Q 358 63 360 253 Q 360 262 361 268 L 363 309 Q 369 493 375 540 C 378 570 378 570 359 580 Z" style="fill: #0070C0;"></path>
                                                                        <path d="M 680 298 Q 680 100 665 89 Q 653 79 589 90 Q 573 93 574 83 Q 575 76 588 70 Q 646 28 677 -5 Q 698 -24 710 -21 Q 723 -18 734 11 Q 749 56 747 122 Q 740 224 736 301 L 733 347 Q 724 531 741 562 Q 753 584 742 595 Q 732 610 684 634 Q 665 643 646 638 Q 609 626 537 609 L 489 599 Q 423 589 359 580 C 329 576 346 533 375 540 Q 394 546 489 565 L 536 575 Q 575 584 620 590 Q 642 594 655 582 Q 674 570 679 339 L 680 298 Z" style="fill: #0070C0;"></path>
                                                                        <path d="M 537 609 Q 537 651 541 688 Q 550 712 522 730 L 521 731 C 497 750 461 752 472 724 Q 487 697 489 599 L 489 565 Q 488 522 488 457 L 488 420 Q 488 377 488 321 C 488 291 529 295 530 325 Q 531 380 532 430 L 533 470 Q 534 525 536 575 L 537 609 Z" style="fill: #0070C0;"></path>
                                                                        <path d="M 532 430 Q 560 437 594 444 Q 619 450 623 453 Q 630 460 627 467 Q 620 476 597 482 Q 573 486 533 470 L 488 457 Q 454 450 414 446 Q 386 442 406 428 Q 442 409 485 420 Q 486 421 488 420 C 496 421 503 423 532 430 Z" style="fill: #0070C0;"></path>
                                                                        <path d="M 504 285 Q 663 297 680 298 L 736 301 Q 773 307 917 292 Q 939 288 945 297 Q 952 310 941 321 Q 913 348 872 367 Q 859 373 834 366 Q 782 356 733 347 L 679 339 Q 588 332 530 325 L 488 321 Q 415 315 363 309 L 321 304 Q 140 291 103 290 Q 90 291 88 280 Q 87 268 105 254 Q 121 242 151 230 Q 161 226 178 233 Q 208 245 314 260 L 361 268 Q 425 280 504 285 Z" style="fill: #0070C0;"></path>
                                    
                                    
                                                                                                                                                                                                                                                                                                                                                                                                                                                                                                                                                    </g>
                            </svg>