<svg width='83' height='83' >
                                <g transform="translate(3, 70) scale(0.07, -0.07)">
                                    <!-- 先将完整的字以灰色字体绘制完成，层级位于下面 -->
                                                                        <path d="M 388 756 Q 366 772 338 782 Q 325 786 316 780 Q 309 774 316 760 Q 346 706 369 513 C 373 483 409 489 407 519 Q 403 577 399 619 L 398 645 Q 398 649 398 653 Q 397 707 398 723 C 399 748 399 748 388 756 Z" style="fill: #0070C0;"></path>
                                                                        <path d="M 669 558 Q 682 702 724 750 Q 740 771 723 788 Q 705 801 649 822 Q 630 829 608 818 Q 530 784 388 756 C 359 750 369 716 398 723 Q 609 771 615 768 Q 618 767 621 764 Q 637 752 636 722 Q 632 626 618 550 C 613 520 666 528 669 558 Z" style="fill: #0070C0;"></path>
                                                                        <path d="M 534 539 Q 543 603 557 630 Q 564 637 560 646 Q 554 656 513 671 Q 507 674 398 645 C 369 637 369 619 399 619 Q 409 618 418 622 Q 484 646 493 641 Q 500 637 496 533 C 495 503 530 509 534 539 Z" style="fill: #0070C0;"></path>
                                                                        <path d="M 220 492 Q 208 516 197 523 Q 178 538 176 510 Q 180 480 147 430 Q 111 387 114 366 Q 120 333 131 315 Q 147 288 167 317 Q 183 344 196 384 Q 209 429 220 456 C 228 477 228 477 220 492 Z" style="fill: #0070C0;"></path>
                                                                        <path d="M 220 456 Q 239 447 263 453 Q 393 492 672 528 Q 763 540 786 536 Q 805 526 803 518 Q 803 515 769 439 Q 762 426 769 421 Q 776 417 793 429 Q 850 469 897 482 Q 934 495 934 503 Q 933 513 858 568 Q 837 584 813 580 Q 746 571 669 558 L 618 550 Q 579 546 534 539 L 496 533 Q 454 529 407 519 L 369 513 Q 354 513 339 509 Q 279 500 220 492 C 190 488 191 462 220 456 Z" style="fill: #0070C0;"></path>
                                    
                                    
                                                                                                                                                                                                                                                                                                                                                                                                                                                                        </g>
                            </svg>