<svg width='83' height='83' >
                                <g transform="translate(3, 70) scale(0.07, -0.07)">
                                    <!-- 先将完整的字以灰色字体绘制完成，层级位于下面 -->
                                                                        <path d="M 265 683 Q 253 707 242 716 Q 223 731 221 705 Q 225 674 176 611 Q 140 575 167 515 Q 182 488 202 515 Q 214 533 260 650 C 270 674 270 674 265 683 Z" style="fill: #0070C0;"></path>
                                                                        <path d="M 260 650 Q 279 641 336 651 Q 474 691 701 706 Q 725 707 737 705 Q 755 692 752 684 Q 752 681 721 603 Q 714 590 721 585 Q 728 581 745 594 Q 800 636 846 651 Q 885 666 883 675 Q 882 685 808 737 Q 787 753 713 741 Q 563 725 367 695 Q 315 688 265 683 C 235 680 231 656 260 650 Z" style="fill: #0070C0;"></path>
                                    
                                    
                                                                                                                                                                                                                                    </g>
                            </svg>