<svg width='83' height='83' >
                                <g transform="translate(3, 70) scale(0.07, -0.07)">
                                    <!-- 先将完整的字以灰色字体绘制完成，层级位于下面 -->
                                                                        <path d="M 284 604 Q 274 626 263 636 Q 245 649 243 625 Q 249 592 182 515 Q 163 494 187 439 Q 200 414 220 439 Q 223 445 283 578 C 290 592 290 592 284 604 Z" style="fill: #0070C0;"></path>
                                                                        <path d="M 505 610 Q 658 638 700 635 Q 715 625 712 618 Q 712 615 681 545 Q 675 532 681 529 Q 688 525 703 536 Q 754 573 797 586 Q 831 598 831 606 Q 830 616 763 663 Q 741 679 669 664 Q 561 649 513 639 L 451 629 Q 417 625 379 618 Q 331 609 284 604 C 254 601 256 590 283 578 Q 307 563 332 570 Q 384 588 442 598 L 505 610 Z" style="fill: #0070C0;"></path>
                                                                        <path d="M 450 471 Q 481 538 505 610 L 513 639 Q 535 718 560 758 Q 569 768 561 780 Q 516 841 472 838 Q 450 834 462 812 Q 484 775 478 742 Q 465 681 451 629 L 442 598 Q 351 355 234 255 Q 183 209 84 152 Q 69 146 66 142 Q 62 136 78 134 Q 91 131 147 155 Q 187 171 255 219 Q 294 247 328 285 L 354 316 Q 394 368 434 442 L 450 471 Z" style="fill: #0070C0;"></path>
                                                                        <path d="M 328 285 Q 340 255 339 228 Q 338 147 331 120 Q 325 89 311 73 Q 296 51 304 28 Q 314 -6 331 -20 Q 343 -29 356 -9 Q 392 31 509 127 Q 528 142 530 149 Q 533 162 510 153 Q 396 99 387 102 Q 378 109 380 130 Q 387 233 394 258 Q 400 279 385 291 Q 369 309 354 316 C 328 332 318 313 328 285 Z" style="fill: #0070C0;"></path>
                                                                        <path d="M 587 326 Q 696 389 751 411 Q 770 414 768 426 Q 764 444 746 466 Q 728 488 704 493 Q 688 494 687 474 Q 688 459 676 443 Q 640 403 573 342 C 551 322 561 311 587 326 Z" style="fill: #0070C0;"></path>
                                                                        <path d="M 434 442 Q 465 421 486 388 Q 703 85 745 76 Q 875 76 915 80 Q 934 81 942 90 Q 946 97 934 102 Q 766 159 718 201 Q 682 225 587 326 L 573 342 Q 530 390 483 448 Q 470 467 450 471 C 422 483 410 460 434 442 Z" style="fill: #0070C0;"></path>
                                    
                                    
                                                                                                                                                                                                                                                                                                                                                                                                                                                                                                                                                    </g>
                            </svg>