<svg width='83' height='83' >
                                <g transform="translate(3, 70) scale(0.07, -0.07)">
                                    <!-- 先将完整的字以灰色字体绘制完成，层级位于下面 -->
                                                                        <path d="M 253 733 Q 244 753 235 759 Q 217 774 214 748 Q 220 705 157 641 Q 137 619 162 564 Q 179 539 194 564 Q 213 589 225 626 Q 250 695 257 702 C 263 712 263 712 253 733 Z" style="fill: #0070C0;"></path>
                                                                        <path d="M 257 702 Q 278 690 316 698 Q 447 741 676 766 Q 727 772 744 770 Q 759 765 756 757 Q 756 751 733 711 Q 708 666 713 662 L 717 662 Q 725 661 753 675 Q 807 705 851 712 Q 890 719 890 731 Q 886 741 815 800 Q 791 821 706 806 Q 551 782 441 764 Q 288 738 253 733 C 223 728 228 711 257 702 Z" style="fill: #0070C0;"></path>
                                                                        <path d="M 381 628 Q 349 623 371 608 Q 382 602 390 598 Q 412 588 451 594 L 602 619 Q 635 625 639 629 Q 649 636 643 645 Q 640 650 631 655 Q 598 674 557 659 L 478 640 Q 434 631 381 628 Z" style="fill: #0070C0;"></path>
                                                                        <path d="M 457 500 Q 529 514 592 522 Q 622 527 759 544 Q 769 543 778 555 Q 778 564 757 573 Q 745 579 733 581 Q 688 588 500 549 Q 455 537 378 526 L 211 506 Q 184 503 206 488 Q 212 484 216 482 Q 257 465 409 490 L 457 500 Z" style="fill: #0070C0;"></path>
                                                                        <path d="M 425 416 Q 447 435 474 453 Q 480 458 480 464 Q 480 484 457 500 C 433 519 424 516 409 490 Q 373 425 278 364 L 220 328 Q 212 325 221 321 Q 265 310 400 396 L 425 416 Z" style="fill: #0070C0;"></path>
                                                                        <path d="M 400 396 Q 416 388 425 382 L 480 341 Q 492 330 506 314 L 534 256 Q 536 249 537 241 Q 548 180 529 104 Q 514 46 498 37 Q 485 29 404 39 Q 381 45 378 39 Q 374 31 390 18 Q 459 -25 486 -57 Q 500 -74 515 -69 Q 533 -63 547 -43 Q 582 4 592 98 Q 604 198 578 270 L 553 321 Q 507 383 425 416 C 397 428 374 410 400 396 Z" style="fill: #0070C0;"></path>
                                                                        <path d="M 425 382 Q 402 318 231 220 Q 210 210 235 209 Q 308 209 431 303 Q 433 312 480 341 C 505 357 437 410 425 382 Z" style="fill: #0070C0;"></path>
                                                                        <path d="M 506 314 Q 412 186 214 84 Q 196 74 186 70 Q 172 61 182 55 Q 192 51 204 53 Q 334 76 480 204 Q 527 242 527 245 Q 527 246 534 256 C 550 281 524 338 506 314 Z" style="fill: #0070C0;"></path>
                                                                        <path d="M 575 312 Q 672 378 725 408 Q 733 410 737 412 Q 751 424 712 461 Q 690 478 665 480 Q 650 479 651 459 Q 653 445 643 427 Q 615 386 561 325 Q 557 323 557 319 C 540 294 550 295 575 312 Z" style="fill: #0070C0;"></path>
                                                                        <path d="M 578 270 L 655 190 Q 703 141 798 71 Q 827 53 868 65 L 961 87 Q 970 90 984 96 Q 992 104 980 111 Q 964 118 845 147 Q 733 174 585 304 Q 582 308 575 312 L 557 319 Q 554 319 553 321 C 525 333 557 292 578 270 Z" style="fill: #0070C0;"></path>
                                    
                                    
                                                                                                                                                                                                                                                                                                                                                                                                                                                                                                                                                                                                                                                                                                                                                                                                                                                                    </g>
                            </svg>