<svg width='83' height='83' >
                                <g transform="translate(3, 70) scale(0.07, -0.07)">
                                    <!-- 先将完整的字以灰色字体绘制完成，层级位于下面 -->
                                                                        <path d="M 275 712 Q 265 736 254 744 Q 236 759 233 733 Q 239 697 174 630 Q 153 608 179 551 Q 192 524 214 551 Q 232 575 245 612 Q 261 657 274 683 Q 277 687 277 694 L 275 712 Z" style="fill: #0070C0;"></path>
                                                                        <path d="M 277 694 Q 307 669 340 677 Q 475 722 653 736 Q 665 737 671 736 Q 687 726 685 717 Q 685 716 661 650 Q 654 637 661 633 Q 668 629 684 641 Q 736 675 778 687 Q 812 697 812 705 Q 811 715 739 766 Q 718 784 638 768 Q 580 762 376 726 Q 333 719 287 714 Q 280 714 275 712 C 255 709 255 709 277 694 Z" style="fill: #0070C0;"></path>
                                                                        <path d="M 429 559 Q 501 577 600 591 Q 610 590 618 603 Q 619 613 597 623 Q 564 642 470 610 Q 460 609 452 605 Q 398 592 350 583 Q 316 579 279 571 Q 252 567 273 551 Q 307 530 330 535 Q 357 542 390 550 L 429 559 Z" style="fill: #0070C0;"></path>
                                                                        <path d="M 401 474 Q 422 496 445 511 Q 452 512 453 521 Q 453 539 429 559 C 407 579 401 578 390 550 Q 363 472 203 385 Q 196 382 203 378 Q 234 371 329 421 Q 335 427 344 431 Q 360 441 381 458 L 401 474 Z" style="fill: #0070C0;"></path>
                                                                        <path d="M 548 358 Q 508 439 415 470 Q 408 473 401 474 C 372 483 355 473 381 458 Q 384 455 390 452 Q 409 443 426 432 L 471 397 Q 492 376 496 363 L 517 300 Q 526 222 506 135 Q 494 87 479 78 Q 470 74 385 89 Q 367 98 364 88 Q 363 81 375 68 Q 439 19 465 -15 Q 478 -34 495 -30 Q 549 0 570 139 Q 580 238 568 294 L 548 358 Z" style="fill: #0070C0;"></path>
                                                                        <path d="M 426 432 Q 411 384 328 321 L 299 300 Q 265 278 212 245 Q 196 235 216 236 Q 253 236 321 277 L 359 302 Q 390 326 471 397 C 494 417 437 460 426 432 Z" style="fill: #0070C0;"></path>
                                                                        <path d="M 376 220 Q 357 207 338 191 Q 299 157 197 98 Q 184 88 192 85 Q 201 79 213 83 Q 339 111 475 253 Q 518 296 517 300 C 534 325 512 388 496 363 Q 495 362 494 360 Q 449 285 392 235 L 376 220 Z" style="fill: #0070C0;"></path>
                                                                        <path d="M 328 321 Q 288 345 265 355 Q 259 358 258 350 Q 257 344 299 300 L 321 277 Q 339 259 358 237 Q 368 224 376 220 C 391 211 391 211 392 235 Q 395 268 375 289 Q 369 296 359 302 L 328 321 Z" style="fill: #0070C0;"></path>
                                                                        <path d="M 557 348 L 558 348 Q 616 381 699 436 Q 720 451 744 460 Q 766 469 756 488 Q 743 506 718 522 Q 694 537 681 534 Q 668 534 672 520 Q 675 490 615 428 Q 582 394 548 358 C 527 336 530 335 557 348 Z" style="fill: #0070C0;"></path>
                                                                        <path d="M 568 294 Q 734 120 778 110 Q 841 101 944 122 Q 963 125 965 130 Q 966 137 951 142 Q 899 161 837 180 Q 725 217 557 348 C 533 366 503 362 568 294 Z" style="fill: #0070C0;"></path>
                                    
                                    
                                                                                                                                                                                                                                                                                                                                                                                                                                                                                                                                                                                                                                                                                                                                                                                                                                                                    </g>
                            </svg>