<svg width='83' height='83' >
                                <g transform="translate(3, 70) scale(0.07, -0.07)">
                                    <!-- 先将完整的字以灰色字体绘制完成，层级位于下面 -->
                                                                        <path d="M 441 644 Q 484 599 529 546 Q 542 530 558 529 Q 570 528 577 541 Q 584 556 579 588 Q 572 639 443 695 Q 427 701 420 699 Q 414 696 414 682 Q 417 670 441 644 Z" style="fill: #0070C0;"></path>
                                                                        <path d="M 403 190 Q 390 187 391 169 Q 404 88 436 70 Q 442 63 453 64 Q 462 65 464 91 Q 471 133 591 395 Q 600 411 599 418 Q 598 428 589 422 Q 579 416 447 231 Q 432 210 403 190 Z" style="fill: #0070C0;"></path>
                                    
                                    
                                                                                                                                                                                                                                    </g>
                            </svg>