<svg width='83' height='83' >
                                <g transform="translate(3, 70) scale(0.07, -0.07)">
                                    <!-- 先将完整的字以灰色字体绘制完成，层级位于下面 -->
                                                                        <path d="M 155 645 Q 180 617 206 585 Q 216 572 232 570 Q 242 569 249 581 Q 255 594 251 624 Q 244 655 157 691 Q 142 697 136 695 Q 132 692 131 679 Q 132 669 155 645 Z" style="fill: #0070C0;"></path>
                                                                        <path d="M 96 255 Q 86 251 89 237 Q 107 174 135 159 Q 142 155 150 157 Q 157 158 156 180 Q 160 219 179 276 Q 242 477 243 479 Q 242 488 234 482 Q 225 476 131 297 Q 121 278 96 255 Z" style="fill: #0070C0;"></path>
                                                                        <path d="M 357 628 Q 370 632 384 635 Q 454 666 526 699 Q 536 703 535 711 Q 532 718 518 727 Q 487 743 469 743 Q 460 743 460 734 Q 460 707 358 648 C 332 633 328 619 357 628 Z" style="fill: #0070C0;"></path>
                                                                        <path d="M 545 564 Q 538 580 529 628 Q 529 638 524 641 Q 521 644 517 633 Q 490 561 462 552 Q 422 540 387 550 Q 374 556 369 563 Q 357 585 357 628 L 358 648 Q 358 688 365 734 Q 369 749 359 757 Q 347 767 328 773 Q 318 776 311 772 Q 307 768 311 754 Q 323 723 322 692 Q 321 545 347 523 Q 401 492 498 517 Q 520 524 542 541 Q 552 550 545 564 Z" style="fill: #0070C0;"></path>
                                                                        <path d="M 332 407 Q 351 443 365 454 Q 371 461 367 469 Q 364 478 345 492 Q 327 502 315 503 Q 303 502 309 487 Q 327 456 236 320 Q 229 313 228 309 Q 227 302 235 304 Q 262 308 319 389 L 332 407 Z" style="fill: #0070C0;"></path>
                                                                        <path d="M 399 384 Q 398 385 400 385 Q 505 410 513 417 Q 520 424 515 431 Q 508 440 485 444 Q 460 447 437 436 Q 415 426 389 419 Q 362 412 332 407 C 302 402 293 400 319 389 Q 338 380 360 379 C 382 377 382 377 399 384 Z" style="fill: #0070C0;"></path>
                                                                        <path d="M 404 254 Q 450 267 513 280 Q 526 283 526 289 Q 527 299 511 305 Q 489 314 471 308 Q 440 299 414 291 L 363 277 Q 255 252 213 244 Q 203 243 201 236 Q 200 227 212 218 Q 246 197 278 211 Q 318 227 355 239 L 404 254 Z" style="fill: #0070C0;"></path>
                                                                        <path d="M 355 239 Q 312 137 269 102 Q 260 96 250 88 Q 246 85 204 56 Q 194 49 203 47 Q 245 43 310 95 Q 379 150 404 254 L 414 291 Q 423 327 432 344 Q 439 357 427 366 Q 415 378 399 384 C 372 397 345 405 360 379 Q 378 361 363 277 L 355 239 Z" style="fill: #0070C0;"></path>
                                                                        <path d="M 433 177 Q 472 134 485 132 Q 492 131 498 141 Q 502 151 497 173 Q 494 186 474 197 Q 429 218 416 214 Q 412 213 412 202 Q 415 195 433 177 Z" style="fill: #0070C0;"></path>
                                                                        <path d="M 721 564 Q 817 655 842 665 Q 858 672 852 685 Q 849 698 790 728 Q 775 735 683 700 Q 610 679 578 679 Q 557 679 565 661 Q 572 651 589 641 Q 616 628 645 645 Q 738 697 756 685 Q 768 678 763 666 Q 738 623 707 572 C 691 546 699 543 721 564 Z" style="fill: #0070C0;"></path>
                                                                        <path d="M 707 572 Q 659 591 644 586 Q 640 583 642 575 L 715 510 Q 725 503 735 503 Q 742 503 746 513 Q 749 523 742 543 Q 738 556 721 564 L 707 572 Z" style="fill: #0070C0;"></path>
                                                                        <path d="M 696 443 Q 748 456 800 465 Q 831 469 832 455 Q 833 442 807 390 Q 800 377 807 373 Q 814 369 825 381 Q 891 433 917 443 Q 939 449 937 461 Q 936 471 870 504 Q 851 513 827 506 Q 760 487 703 474 Q 639 461 548 447 Q 523 444 542 424 Q 557 406 598 419 Q 629 428 662 434 L 696 443 Z" style="fill: #0070C0;"></path>
                                                                        <path d="M 712 141 Q 715 208 718 266 L 719 297 Q 720 373 725 396 Q 731 412 723 420 Q 710 435 696 443 C 671 459 650 461 662 434 Q 675 407 676 381 Q 676 357 674 161 C 674 131 711 111 712 141 Z" style="fill: #0070C0;"></path>
                                                                        <path d="M 718 266 Q 775 266 857 293 Q 857 294 858 294 Q 865 303 860 310 Q 853 320 825 323 Q 810 324 744 303 Q 731 302 719 297 C 691 286 688 266 718 266 Z" style="fill: #0070C0;"></path>
                                                                        <path d="M 587 213 Q 605 253 622 286 Q 629 296 616 307 Q 579 329 560 324 Q 551 321 555 310 Q 576 216 480 86 Q 470 82 440 34 Q 434 21 446 26 Q 464 32 485 53 Q 548 120 580 195 L 587 213 Z" style="fill: #0070C0;"></path>
                                                                        <path d="M 580 195 Q 665 110 787 28 Q 808 16 840 18 Q 904 24 970 47 Q 986 51 987 56 Q 988 63 974 66 Q 800 99 712 141 L 674 161 Q 664 167 653 173 Q 604 206 587 213 C 560 226 559 216 580 195 Z" style="fill: #0070C0;"></path>
                                    
                                    
                                                                                                                                                                                                                                                                                                                                                                                                                                                                                                                                                                                                                                                                                                                                                                                                                                                                                                                                                                                                                                                                                                                                                                                                                                                                                                                                            </g>
                            </svg>