<svg width='83' height='83' >
                                <g transform="translate(3, 70) scale(0.07, -0.07)">
                                    <!-- 先将完整的字以灰色字体绘制完成，层级位于下面 -->
                                                                        <path d="M 395 691 Q 394 692 392 693 Q 340 720 324 717 Q 302 714 319 690 Q 352 632 330 422 Q 323 335 277 234 Q 244 158 141 62 Q 125 49 121 41 Q 120 34 132 34 Q 150 34 172 49 Q 226 85 259 119 Q 352 221 377 378 Q 395 478 401 627 Q 404 643 406 654 C 411 683 411 683 395 691 Z" style="fill: #0070C0;"></path>
                                                                        <path d="M 970 80 Q 992 89 984 112 Q 969 164 964 237 Q 961 277 953 284 Q 944 288 941 276 Q 905 152 866 122 Q 844 107 791 102 Q 721 96 682 108 Q 642 118 626 139 Q 610 158 603 191 Q 594 231 608 375 Q 621 522 647 617 Q 657 662 696 694 Q 712 713 694 728 Q 670 747 617 766 Q 595 772 576 760 Q 501 708 395 691 C 366 685 377 647 406 654 Q 427 657 555 696 Q 568 702 576 698 Q 580 694 581 679 Q 547 261 549 216 Q 549 27 798 35 Q 819 38 842 40 Q 906 49 970 80 Z" style="fill: #0070C0;"></path>
                                    
                                    
                                                                                                                                                                                                                                    </g>
                            </svg>