<svg width='83' height='83' >
                                <g transform="translate(3, 70) scale(0.07, -0.07)">
                                    <!-- 先将完整的字以灰色字体绘制完成，层级位于下面 -->
                                                                        <path d="M 393 463 Q 394 482 395 500 Q 398 629 411 670 C 417 696 417 696 392 708 Q 343 735 316 721 Q 303 714 311 699 Q 347 645 342 488 Q 338 442 329 390 Q 286 206 143 84 Q 127 68 112 54 Q 99 41 114 40 Q 129 41 165 63 Q 231 105 277 162 Q 361 259 390 431 Q 390 435 391 438 L 393 463 Z" style="fill: #0070C0;"></path>
                                                                        <path d="M 411 670 Q 426 673 560 714 Q 575 721 583 717 Q 589 711 577 528 Q 553 194 580 140 Q 580 100 674 60 Q 749 33 845 43 Q 908 49 971 78 Q 993 85 986 111 Q 973 159 967 225 Q 964 261 957 267 Q 948 273 944 260 Q 899 149 863 126 Q 841 113 792 109 Q 728 108 691 119 Q 654 131 639 151 Q 606 196 623 388 Q 633 538 659 636 Q 669 681 708 714 Q 724 735 705 750 Q 680 769 624 788 Q 602 794 580 780 Q 498 723 392 708 C 363 703 382 662 411 670 Z" style="fill: #0070C0;"></path>
                                                                        <path d="M 391 438 Q 397 431 411 420 Q 442 392 478 360 Q 490 348 503 349 Q 513 349 517 361 Q 521 374 514 399 Q 505 433 407 462 Q 398 463 393 463 C 367 464 370 460 391 438 Z" style="fill: #0070C0;"></path>
                                    
                                    
                                                                                                                                                                                                                                                                                                                </g>
                            </svg>