<svg width='83' height='83' >
                                <g transform="translate(3, 70) scale(0.07, -0.07)">
                                    <!-- 先将完整的字以灰色字体绘制完成，层级位于下面 -->
                                                                        <path d="M 792 167 Q 503 155 285 107 Q 251 100 260 139 Q 267 238 275 341 Q 279 372 265 390 Q 244 412 213 429 Q 197 436 185 433 Q 170 426 182 402 Q 225 309 213 217 Q 204 127 169 87 Q 144 65 154 47 Q 167 26 189 12 Q 207 3 222 13 Q 268 64 601 110 Q 751 129 781 115 C 811 110 822 168 792 167 Z" style="fill: #0070C0;"></path>
                                                                        <path d="M 781 115 Q 781 94 804 49 Q 814 31 828 45 Q 855 76 854 172 Q 863 376 872 399 Q 873 408 877 414 Q 886 432 872 447 Q 850 463 811 483 Q 796 490 783 483 Q 774 479 778 463 Q 814 408 794 178 Q 793 174 792 167 L 781 115 Z" style="fill: #0070C0;"></path>
                                    
                                    
                                                                                                                                                                                                                                    </g>
                            </svg>