<svg width='83' height='83' >
                                <g transform="translate(3, 70) scale(0.07, -0.07)">
                                    <!-- 先将完整的字以灰色字体绘制完成，层级位于下面 -->
                                                                        <path d="M 482 465 Q 431 401 301 280 Q 292 276 304 272 Q 373 284 498 414 Q 505 424 516 434 L 553 481 Q 596 539 656 638 Q 678 674 679 678 Q 678 688 664 700 Q 625 731 594 724 Q 585 723 588 709 Q 600 654 532 539 Q 522 524 513 508 L 482 465 Z" style="fill: #0070C0;"></path>
                                                                        <path d="M 516 434 Q 583 373 657 300 Q 672 281 686 278 Q 693 277 701 286 Q 711 299 699 338 Q 690 383 553 481 L 513 508 Q 390 593 321 632 Q 312 636 311 625 Q 311 613 321 604 Q 397 543 482 465 L 516 434 Z" style="fill: #0070C0;"></path>
                                                                        <path d="M 807 218 Q 494 205 256 153 Q 225 146 233 182 Q 240 276 248 374 Q 252 402 239 419 Q 220 440 191 455 Q 178 462 165 459 Q 152 453 162 431 Q 202 343 190 256 Q 183 172 149 134 Q 127 115 134 97 Q 147 78 168 64 Q 184 54 196 64 Q 211 80 252 95 Q 427 141 609 166 Q 757 185 800 174 C 830 170 837 219 807 218 Z" style="fill: #0070C0;"></path>
                                                                        <path d="M 800 174 Q 785 111 803 72 Q 806 65 811 55 Q 821 36 837 50 Q 867 83 869 203 Q 869 209 870 216 Q 882 429 893 455 Q 896 467 902 479 Q 912 498 898 515 Q 874 534 834 556 Q 818 563 803 556 Q 793 552 797 535 Q 836 475 807 226 Q 807 223 807 218 L 800 174 Z" style="fill: #0070C0;"></path>
                                    
                                    
                                                                                                                                                                                                                                                                                                                                                                                            </g>
                            </svg>