<svg width='83' height='83' >
                                <g transform="translate(3, 70) scale(0.07, -0.07)">
                                    <!-- 先将完整的字以灰色字体绘制完成，层级位于下面 -->
                                                                        <path d="M 484 621 Q 599 646 707 656 Q 732 657 737 645 Q 746 623 739 568 Q 715 366 671 259 Q 649 192 625 172 Q 612 160 586 169 Q 552 179 521 192 Q 496 201 513 177 Q 559 122 582 81 Q 592 59 614 64 Q 638 67 668 99 Q 755 187 792 517 Q 799 590 829 634 Q 848 659 838 671 Q 820 693 779 711 Q 751 727 719 713 Q 622 677 474 655 Q 347 637 273 640 Q 248 644 248 630 Q 247 618 272 600 Q 303 576 335 586 Q 389 601 442 611 L 484 621 Z" style="fill: #0070C0;"></path>
                                                                        <path d="M 442 611 Q 442 410 281 247 Q 233 192 116 100 Q 107 91 115 88 Q 122 85 136 90 Q 314 168 401 307 Q 450 377 496 494 Q 511 530 531 563 Q 540 573 533 586 Q 518 610 484 621 C 456 633 443 638 442 611 Z" style="fill: #0070C0;"></path>
                                    
                                    
                                                                                                                                                                                                                                    </g>
                            </svg>