<svg width='83' height='83' >
                                <g transform="translate(3, 70) scale(0.07, -0.07)">
                                    <!-- 先将完整的字以灰色字体绘制完成，层级位于下面 -->
                                                                        <path d="M 736 644 Q 745 710 765 734 Q 777 746 771 755 Q 764 765 717 788 Q 698 797 680 786 Q 659 774 581 760 Q 502 744 435 743 Q 419 743 416 735 Q 415 728 436 716 Q 458 701 476 707 Q 494 711 512 715 L 557 724 Q 615 737 666 740 Q 684 741 687 736 Q 697 720 689 682 Q 673 576 644 529 Q 628 499 601 504 Q 579 510 558 517 Q 536 524 551 502 Q 590 465 608 436 Q 626 415 644 432 Q 707 474 733 624 L 736 644 Z" style="fill: #0070C0;"></path>
                                                                        <path d="M 512 715 Q 531 589 363 428 Q 356 421 362 418 Q 389 414 459 476 Q 522 530 565 650 Q 572 669 582 689 Q 589 698 583 706 Q 577 713 557 724 C 531 739 509 745 512 715 Z" style="fill: #0070C0;"></path>
                                                                        <path d="M 430 644 Q 409 616 385 592 Q 364 571 374 547 Q 377 534 393 539 Q 429 557 439 601 Q 448 623 446 641 Q 445 648 440 649 Q 434 649 430 644 Z" style="fill: #0070C0;"></path>
                                                                        <path d="M 733 624 Q 734 623 738 621 Q 781 593 837 548 Q 852 535 865 533 Q 872 533 876 542 Q 885 555 869 587 Q 856 620 795 633 Q 756 642 736 644 C 706 647 707 639 733 624 Z" style="fill: #0070C0;"></path>
                                    
                                    
                                                                                                                                                                                                                                                                                                                                                                                            </g>
                            </svg>