<svg width='83' height='83' >
                                <g transform="translate(3, 70) scale(0.07, -0.07)">
                                    <!-- 先将完整的字以灰色字体绘制完成，层级位于下面 -->
                                                                        <path d="M 439 664 Q 488 724 522 746 Q 532 753 531 767 Q 530 780 507 805 Q 485 827 468 830 Q 450 831 454 809 Q 466 767 361 651 Q 312 599 247 543 Q 237 536 233 530 Q 229 520 241 520 Q 286 520 422 648 L 439 664 Z" style="fill: #0070C0;"></path>
                                                                        <path d="M 526 466 Q 551 494 601 552 Q 652 615 702 650 Q 721 662 708 676 Q 693 689 653 712 Q 644 715 594 700 Q 456 667 439 664 C 410 658 403 656 422 648 Q 438 633 529 646 Q 592 659 598 654 Q 602 650 595 636 Q 565 579 494 460 C 479 434 506 444 526 466 Z" style="fill: #0070C0;"></path>
                                                                        <path d="M 494 460 Q 490 460 486 459 Q 366 438 240 433 Q 218 432 220 420 Q 223 410 246 400 Q 277 384 322 397 Q 479 422 629 446 Q 669 453 684 437 Q 705 418 701 377 Q 682 248 655 147 C 648 118 708 113 713 143 Q 746 353 809 414 Q 830 438 811 460 Q 789 478 723 508 Q 701 518 672 507 Q 596 482 526 466 L 494 460 Z" style="fill: #0070C0;"></path>
                                                                        <path d="M 249 267 Q 218 264 242 245 Q 278 214 308 222 Q 449 250 626 267 Q 638 266 648 279 Q 649 292 625 304 Q 586 326 504 304 Q 347 277 249 267 Z" style="fill: #0070C0;"></path>
                                                                        <path d="M 655 147 Q 427 105 247 95 Q 219 94 234 68 Q 243 55 257 50 Q 272 46 290 48 Q 432 73 740 86 Q 756 87 758 99 Q 759 109 718 141 Q 717 142 713 143 L 655 147 Z" style="fill: #0070C0;"></path>
                                    
                                    
                                                                                                                                                                                                                                                                                                                                                                                                                                                                        </g>
                            </svg>