<svg width='83' height='83' >
                                <g transform="translate(3, 70) scale(0.07, -0.07)">
                                    <!-- 先将完整的字以灰色字体绘制完成，层级位于下面 -->
                                                                        <path d="M 323 468 Q 392 487 463 506 Q 517 522 525 531 Q 532 540 528 548 Q 521 560 490 565 Q 459 569 429 555 Q 374 533 317 513 L 276 500 Q 212 484 139 471 Q 102 462 130 447 Q 169 426 250 448 Q 265 452 282 456 L 323 468 Z" style="fill: #0070C0;"></path>
                                                                        <path d="M 363 192 Q 405 110 470 47 Q 545 -2 567 12 Q 588 19 584 59 Q 575 93 571 213 Q 572 235 566 238 Q 562 239 556 220 Q 534 132 514 115 Q 501 112 471 142 Q 428 185 401 230 L 377 276 Q 338 369 323 468 L 317 513 Q 304 648 332 716 Q 344 741 303 769 Q 272 793 253 791 Q 234 791 241 763 Q 262 721 262 677 Q 265 586 276 500 L 282 456 Q 300 339 341 239 L 363 192 Z" style="fill: #0070C0;"></path>
                                                                        <path d="M 341 239 Q 272 175 135 105 Q 126 99 132 95 Q 139 91 150 93 Q 217 106 279 138 Q 325 160 363 192 L 401 230 Q 441 270 484 336 Q 500 360 521 381 Q 531 388 527 400 Q 523 410 498 434 Q 479 450 470 450 Q 457 449 454 434 Q 448 361 377 276 L 341 239 Z" style="fill: #0070C0;"></path>
                                                                        <path d="M 420 691 Q 447 669 475 642 Q 490 629 505 630 Q 515 631 521 644 Q 525 660 515 689 Q 509 708 478 722 Q 408 746 392 739 Q 388 735 389 722 Q 393 712 420 691 Z" style="fill: #0070C0;"></path>
                                                                        <path d="M 608 588 Q 639 519 618 333 Q 609 300 639 261 Q 649 251 659 262 Q 677 287 677 381 Q 677 525 682 558 Q 689 580 668 593 Q 652 603 635 611 Q 622 615 613 610 Q 604 603 608 588 Z" style="fill: #0070C0;"></path>
                                                                        <path d="M 795 736 Q 799 697 799 116 Q 799 91 786 82 Q 780 81 714 103 Q 681 119 682 108 Q 683 101 702 82 Q 765 19 779 -14 Q 795 -53 812 -56 Q 828 -57 846 -20 Q 868 29 869 109 Q 850 365 854 621 Q 857 715 871 765 Q 889 799 828 821 Q 791 840 771 833 Q 752 826 769 801 Q 793 773 795 736 Z" style="fill: #0070C0;"></path>
                                    
                                    
                                                                                                                                                                                                                                                                                                                                                                                                                                                                                                                                                    </g>
                            </svg>