<svg width='83' height='83' >
                                <g transform="translate(3, 70) scale(0.07, -0.07)">
                                    <!-- 先将完整的字以灰色字体绘制完成，层级位于下面 -->
                                                                        <path d="M 191 617 Q 216 589 242 557 Q 252 544 268 542 Q 278 541 285 553 Q 291 566 287 596 Q 280 627 193 663 Q 178 669 172 667 Q 168 664 167 651 Q 168 641 191 617 Z" style="fill: #0070C0;"></path>
                                                                        <path d="M 488 681 Q 482 669 434 594 Q 425 578 441 582 Q 456 591 530 642 Q 546 658 569 669 Q 588 679 577 696 Q 564 711 538 723 Q 516 735 503 731 Q 491 730 496 716 Q 500 700 488 681 Z" style="fill: #0070C0;"></path>
                                                                        <path d="M 384 449 Q 489 479 492 481 Q 499 488 495 497 Q 488 507 460 514 Q 432 518 386 500 L 339 484 Q 225 460 204 456 Q 168 449 194 434 Q 233 413 292 428 Q 311 434 336 438 L 384 449 Z" style="fill: #0070C0;"></path>
                                                                        <path d="M 372 315 Q 439 334 524 350 Q 543 354 543 362 Q 544 377 523 386 Q 492 398 466 390 Q 417 377 378 364 L 327 349 Q 189 313 76 292 Q 61 291 59 281 Q 56 268 73 257 Q 119 227 165 246 Q 256 283 321 301 L 372 315 Z" style="fill: #0070C0;"></path>
                                                                        <path d="M 321 301 Q 294 135 191 10 Q 161 -20 163 -26 Q 166 -30 177 -27 Q 190 -31 221 -9 Q 344 67 372 315 L 378 364 Q 381 404 384 449 L 386 500 Q 393 708 412 748 Q 419 763 407 774 Q 385 792 344 802 Q 319 808 309 801 Q 300 794 309 781 Q 351 715 339 484 L 336 438 Q 333 395 327 349 L 321 301 Z" style="fill: #0070C0;"></path>
                                                                        <path d="M 590 588 Q 620 522 594 334 Q 585 298 615 262 Q 625 250 635 262 Q 659 298 657 343 Q 651 475 666 555 Q 673 579 652 591 Q 636 603 618 612 Q 605 616 595 611 Q 586 604 590 588 Z" style="fill: #0070C0;"></path>
                                                                        <path d="M 784 731 Q 788 694 783 112 Q 782 87 769 78 Q 760 75 690 97 Q 656 112 658 100 Q 659 93 679 76 Q 745 18 761 -14 Q 780 -51 796 -53 Q 812 -54 828 -19 Q 847 29 848 106 Q 832 362 839 620 Q 843 711 856 759 Q 874 790 816 813 Q 782 832 761 825 Q 743 818 759 794 Q 781 766 784 731 Z" style="fill: #0070C0;"></path>
                                    
                                    
                                                                                                                                                                                                                                                                                                                                                                                                                                                                                                                                                                                                                                </g>
                            </svg>