<svg width='83' height='83' >
                                <g transform="translate(3, 70) scale(0.07, -0.07)">
                                    <!-- 先将完整的字以灰色字体绘制完成，层级位于下面 -->
                                                                        <path d="M 354 663 Q 450 702 492 709 Q 511 710 515 718 Q 519 730 506 743 Q 484 759 434 779 Q 418 788 403 786 Q 394 782 394 770 Q 394 727 189 633 Q 183 623 190 620 Q 208 620 317 651 L 354 663 Z" style="fill: #0070C0;"></path>
                                                                        <path d="M 379 499 Q 458 515 555 526 Q 573 527 573 536 Q 574 549 556 559 Q 528 572 505 566 Q 438 553 387 540 L 332 529 Q 170 499 70 488 Q 57 487 53 479 Q 50 467 66 456 Q 105 426 149 440 Q 255 473 330 489 L 379 499 Z" style="fill: #0070C0;"></path>
                                                                        <path d="M 362 368 Q 371 446 379 499 L 387 540 Q 394 580 399 592 Q 406 614 393 630 Q 375 649 354 663 C 329 680 308 680 317 651 Q 317 650 318 648 Q 334 596 332 529 L 330 489 Q 326 438 318 357 C 315 327 359 338 362 368 Z" style="fill: #0070C0;"></path>
                                                                        <path d="M 236 343 Q 223 349 195 352 Q 182 356 179 350 Q 172 343 182 327 Q 213 263 233 160 Q 237 129 255 108 Q 274 86 279 102 Q 286 123 280 163 L 273 201 Q 257 286 253 314 C 249 338 249 338 236 343 Z" style="fill: #0070C0;"></path>
                                                                        <path d="M 470 235 Q 489 299 511 318 Q 536 345 512 361 Q 491 374 462 394 Q 443 407 421 395 Q 393 379 362 368 L 318 357 Q 282 350 236 343 C 206 338 225 304 253 314 Q 256 318 380 342 Q 417 351 427 335 Q 434 329 426 299 Q 420 271 413 238 C 407 209 461 206 470 235 Z" style="fill: #0070C0;"></path>
                                                                        <path d="M 280 163 Q 287 163 298 165 Q 358 181 488 197 Q 500 198 501 209 Q 501 218 470 235 L 413 238 L 412 238 Q 336 214 273 201 C 244 195 250 161 280 163 Z" style="fill: #0070C0;"></path>
                                                                        <path d="M 599 599 Q 632 521 611 335 Q 604 302 635 261 Q 645 251 655 262 Q 679 301 674 346 Q 668 490 676 568 Q 683 592 661 604 Q 645 614 626 623 Q 613 627 603 622 Q 594 615 599 599 Z" style="fill: #0070C0;"></path>
                                                                        <path d="M 793 725 Q 797 688 792 116 Q 791 91 778 82 Q 772 79 708 96 Q 672 112 674 100 Q 675 91 696 74 Q 760 13 774 -19 Q 790 -56 807 -59 Q 823 -60 841 -22 Q 863 29 863 112 Q 830 610 872 755 Q 891 789 828 814 Q 791 833 769 826 Q 750 819 767 793 Q 791 763 793 725 Z" style="fill: #0070C0;"></path>
                                    
                                    
                                                                                                                                                                                                                                                                                                                                                                                                                                                                                                                                                                                                                                                                                                            </g>
                            </svg>