<svg width='83' height='83' >
                                <g transform="translate(3, 70) scale(0.07, -0.07)">
                                    <!-- 先将完整的字以灰色字体绘制完成，层级位于下面 -->
                                                                        <path d="M 523 633 Q 545 697 574 715 Q 589 733 575 749 Q 559 762 511 784 Q 493 791 473 784 Q 404 754 304 735 C 275 729 289 698 318 705 Q 477 742 485 735 Q 495 725 474 637 C 467 608 513 605 523 633 Z" style="fill: #0070C0;"></path>
                                                                        <path d="M 290 562 Q 291 562 294 561 Q 304 560 316 562 Q 385 581 534 603 Q 544 604 545 613 Q 545 620 523 633 L 474 637 Q 473 637 472 637 Q 375 609 295 592 C 266 586 260 567 290 562 Z" style="fill: #0070C0;"></path>
                                                                        <path d="M 256 415 Q 257 418 258 419 Q 279 491 290 562 L 295 592 Q 295 593 296 595 Q 302 661 318 705 C 323 721 323 721 304 735 Q 291 747 271 756 Q 253 768 240 763 Q 228 756 234 743 Q 252 712 247 660 Q 228 456 180 338 Q 141 245 56 122 Q 50 115 48 110 Q 45 100 56 101 Q 92 107 173 226 Q 186 248 200 273 Q 228 330 249 394 L 256 415 Z" style="fill: #0070C0;"></path>
                                                                        <path d="M 295 401 Q 292 405 287 407 Q 268 416 256 415 C 241 416 241 416 249 394 Q 274 331 249 242 Q 231 215 253 178 Q 254 174 259 170 Q 265 160 273 164 Q 297 183 297 272 Q 297 344 300 369 C 303 395 303 395 295 401 Z" style="fill: #0070C0;"></path>
                                                                        <path d="M 431 394 Q 462 400 495 403 Q 520 407 524 391 Q 527 265 512 248 Q 506 245 465 249 Q 452 253 449 249 Q 446 245 455 236 Q 495 202 520 178 Q 533 166 544 178 Q 572 212 570 255 Q 567 351 577 396 Q 581 412 572 421 Q 548 443 532 452 Q 522 456 513 449 Q 507 443 432 424 L 388 416 Q 354 412 295 401 C 265 396 271 363 300 369 Q 379 385 388 386 L 431 394 Z" style="fill: #0070C0;"></path>
                                                                        <path d="M 388 386 Q 388 155 367 90 Q 355 39 405 -13 L 407 -14 Q 417 -15 423 -3 Q 435 27 431 55 Q 427 310 431 394 L 432 424 Q 433 458 437 475 Q 440 487 433 492 Q 411 511 393 520 Q 383 524 374 517 Q 368 513 375 504 Q 387 486 388 416 L 388 386 Z" style="fill: #0070C0;"></path>
                                                                        <path d="M 626 589 Q 656 520 635 342 Q 626 305 656 274 Q 665 264 674 274 Q 692 299 692 389 Q 692 527 697 561 Q 704 583 684 594 Q 668 604 651 612 Q 639 616 630 610 Q 623 604 626 589 Z" style="fill: #0070C0;"></path>
                                                                        <path d="M 802 714 Q 808 677 814 115 Q 814 91 801 82 Q 792 76 770 84 Q 745 91 721 98 Q 688 111 691 100 Q 692 93 712 78 Q 779 24 795 -6 Q 814 -42 832 -43 Q 845 -44 861 -9 Q 879 37 876 111 Q 855 358 858 608 Q 859 696 872 742 Q 888 773 832 793 Q 798 811 779 804 Q 761 797 778 774 Q 800 747 802 714 Z" style="fill: #0070C0;"></path>
                                    
                                    
                                                                                                                                                                                                                                                                                                                                                                                                                                                                                                                                                                                                                                                                                                            </g>
                            </svg>