<svg width='83' height='83' >
                                <g transform="translate(3, 70) scale(0.07, -0.07)">
                                    <!-- 先将完整的字以灰色字体绘制完成，层级位于下面 -->
                                                                        <path d="M 426 658 Q 432 670 512 760 Q 524 770 512 787 Q 476 826 450 827 Q 440 826 439 812 Q 438 758 385 678 L 355 642 Q 351 639 347 634 Q 305 585 255 550 Q 212 522 191 504 Q 181 491 196 492 Q 220 493 255 513 Q 334 559 391 618 L 426 658 Z" style="fill: #0070C0;"></path>
                                                                        <path d="M 391 618 Q 494 546 501 545 Q 508 546 512 554 Q 519 566 504 597 Q 492 625 426 658 L 385 678 Q 379 682 372 684 Q 285 721 238 737 Q 231 740 231 730 Q 232 720 242 714 Q 294 683 355 642 L 391 618 Z" style="fill: #0070C0;"></path>
                                                                        <path d="M 408 394 Q 459 403 519 408 Q 535 409 537 417 Q 538 430 521 439 Q 490 454 411 434 L 362 424 Q 155 390 82 386 Q 69 385 66 377 Q 63 367 77 355 Q 116 325 157 338 Q 316 383 362 387 L 408 394 Z" style="fill: #0070C0;"></path>
                                                                        <path d="M 327 121 Q 296 128 265 138 Q 255 142 255 135 Q 255 128 264 121 Q 328 61 349 25 Q 361 9 376 22 Q 409 52 409 139 Q 406 200 409 390 Q 408 393 408 394 L 411 434 Q 412 450 419 463 Q 428 479 412 492 Q 390 511 363 521 Q 347 527 339 520 Q 333 514 343 500 Q 361 467 362 424 L 362 387 Q 363 135 345 122 Q 338 118 327 121 Z" style="fill: #0070C0;"></path>
                                                                        <path d="M 227 288 Q 199 248 163 212 Q 138 188 148 150 Q 152 132 174 140 Q 225 162 241 229 Q 251 259 250 283 Q 246 293 241 295 Q 234 295 227 288 Z" style="fill: #0070C0;"></path>
                                                                        <path d="M 471 280 Q 498 247 527 207 Q 536 194 549 192 Q 559 191 565 201 Q 572 213 569 240 Q 568 262 539 285 Q 470 330 456 327 Q 452 324 450 313 Q 451 303 471 280 Z" style="fill: #0070C0;"></path>
                                                                        <path d="M 596 584 Q 630 509 605 318 Q 598 285 627 245 Q 637 235 647 246 Q 671 280 666 330 Q 660 480 670 555 Q 677 577 656 589 Q 640 599 623 607 Q 610 611 601 606 Q 592 599 596 584 Z" style="fill: #0070C0;"></path>
                                                                        <path d="M 778 710 Q 782 673 784 114 Q 783 90 771 81 Q 765 78 693 91 Q 660 103 663 93 Q 664 86 684 71 Q 750 22 767 -8 Q 786 -42 802 -43 Q 817 -43 831 -8 Q 847 37 845 111 Q 826 357 832 604 Q 835 692 847 737 Q 863 768 808 789 Q 774 808 755 800 Q 737 793 754 771 Q 776 744 778 710 Z" style="fill: #0070C0;"></path>
                                    
                                    
                                                                                                                                                                                                                                                                                                                                                                                                                                                                                                                                                                                                                                                                                                            </g>
                            </svg>