<svg width='83' height='83' >
                                <g transform="translate(3, 70) scale(0.07, -0.07)">
                                    <!-- 先将完整的字以灰色字体绘制完成，层级位于下面 -->
                                                                        <path d="M 317 742 Q 284 761 272 759 Q 254 758 267 737 Q 289 701 265 581 Q 259 560 249 535 Q 233 496 188 459 Q 175 449 172 443 Q 169 437 180 437 Q 207 436 253 474 Q 313 525 332 682 Q 336 698 338 707 C 343 728 343 728 317 742 Z" style="fill: #0070C0;"></path>
                                                                        <path d="M 616 496 Q 629 502 620 517 Q 605 535 586 544 Q 574 550 551 539 Q 488 511 477 542 Q 461 566 471 638 Q 472 683 514 729 Q 532 745 514 759 Q 489 778 463 790 Q 453 794 435 784 Q 372 756 317 742 C 288 734 310 696 338 707 Q 341 708 345 710 Q 420 740 426 738 Q 433 735 433 720 Q 420 558 430 528 Q 436 506 454 494 Q 482 478 536 479 Q 588 480 616 496 Z" style="fill: #0070C0;"></path>
                                                                        <path d="M 394 353 Q 460 363 538 371 Q 556 372 557 380 Q 558 393 540 403 Q 513 416 489 413 Q 437 404 397 396 L 347 387 Q 190 363 111 359 Q 98 359 94 351 Q 91 341 106 327 Q 148 296 197 311 Q 260 329 310 338 L 394 353 Z" style="fill: #0070C0;"></path>
                                                                        <path d="M 344 297 Q 332 98 320 59 Q 308 26 341 -27 Q 351 -46 360 -50 Q 370 -51 376 -39 Q 385 -15 386 97 Q 386 209 394 353 L 397 396 Q 400 435 397 439 Q 375 458 357 469 Q 345 473 336 466 Q 330 462 337 453 Q 346 435 347 387 L 344 297 Z" style="fill: #0070C0;"></path>
                                                                        <path d="M 310 338 Q 244 209 75 78 Q 63 66 72 65 Q 81 61 92 66 Q 203 109 325 271 Q 337 289 344 297 C 385 349 334 383 310 338 Z" style="fill: #0070C0;"></path>
                                                                        <path d="M 446 259 Q 485 216 531 153 Q 544 134 557 128 Q 564 127 573 134 Q 586 144 578 186 Q 571 231 449 287 Q 442 291 438 281 Q 437 269 446 259 Z" style="fill: #0070C0;"></path>
                                                                        <path d="M 638 558 Q 665 492 644 324 Q 635 294 663 259 L 664 258 Q 673 248 682 258 Q 704 291 702 333 Q 696 456 708 529 Q 715 551 695 561 Q 656 585 642 579 Q 635 572 638 558 Z" style="fill: #0070C0;"></path>
                                                                        <path d="M 787 688 Q 791 651 793 99 Q 792 75 780 67 Q 771 61 695 82 Q 661 95 663 84 Q 664 77 685 60 Q 755 3 774 -29 Q 793 -66 812 -68 Q 828 -69 843 -32 Q 862 17 861 97 Q 842 335 846 573 Q 849 667 863 717 Q 881 751 820 773 Q 783 792 763 785 Q 744 778 761 753 Q 785 725 787 688 Z" style="fill: #0070C0;"></path>
                                    
                                    
                                                                                                                                                                                                                                                                                                                                                                                                                                                                                                                                                                                                                                                                                                            </g>
                            </svg>