<svg width='83' height='83' >
                                <g transform="translate(3, 70) scale(0.07, -0.07)">
                                    <!-- 先将完整的字以灰色字体绘制完成，层级位于下面 -->
                                                                        <path d="M 378 762 Q 438 698 453 697 Q 463 696 469 709 Q 475 722 468 752 Q 464 771 436 786 Q 373 816 356 811 Q 352 807 351 795 Q 354 785 378 762 Z" style="fill: #0070C0;"></path>
                                                                        <path d="M 640 810 Q 622 779 570 707 Q 560 689 578 693 Q 596 705 686 766 Q 705 784 730 795 Q 752 807 739 825 Q 724 841 697 856 Q 672 869 658 866 Q 645 865 649 850 Q 653 831 640 810 Z" style="fill: #0070C0;"></path>
                                                                        <path d="M 520 614 Q 578 618 633 625 Q 772 643 935 629 Q 959 628 965 636 Q 972 649 960 661 Q 891 724 816 698 Q 713 679 384 638 Q 333 632 300 627 Q 225 614 113 612 Q 100 612 98 601 Q 98 588 117 574 Q 133 561 165 550 Q 175 546 194 554 Q 212 561 290 575 Q 393 600 520 614 Z" style="fill: #0070C0;"></path>
                                                                        <path d="M 303 368 Q 307 434 312 455 Q 312 458 312 459 C 314 477 314 477 305 485 Q 281 509 251 506 Q 238 502 243 491 Q 289 385 237 183 Q 213 123 214 114 Q 214 84 232 62 Q 238 49 248 54 Q 282 76 292 198 Q 293 216 294 231 L 296 263 Q 297 306 301 341 L 303 368 Z" style="fill: #0070C0;"></path>
                                                                        <path d="M 312 459 Q 312 460 414 483 Q 430 487 436 480 Q 451 431 446 189 Q 442 116 437 108 L 376 117 Q 358 124 357 116 Q 402 74 428 42 Q 438 26 452 22 Q 459 18 467 27 Q 500 66 501 129 Q 480 429 500 469 Q 510 485 500 494 Q 482 510 451 523 Q 436 529 422 522 Q 376 497 305 485 C 276 479 283 451 312 459 Z" style="fill: #0070C0;"></path>
                                                                        <path d="M 301 341 Q 304 341 308 341 Q 363 351 404 356 Q 426 360 417 373 Q 407 386 382 389 Q 343 392 303 368 C 277 353 271 341 301 341 Z" style="fill: #0070C0;"></path>
                                                                        <path d="M 294 231 Q 354 238 399 244 Q 421 248 413 260 Q 403 275 377 279 Q 332 285 296 263 C 270 248 264 228 294 231 Z" style="fill: #0070C0;"></path>
                                                                        <path d="M 569 464 Q 596 407 575 254 Q 566 226 593 194 Q 600 184 610 194 Q 629 222 627 262 Q 621 367 634 437 Q 640 458 622 467 Q 607 477 593 484 Q 583 488 573 483 Q 566 479 569 464 Z" style="fill: #0070C0;"></path>
                                                                        <path d="M 692 64 Q 671 73 645 83 Q 633 87 633 81 Q 632 72 641 62 Q 695 4 729 -43 Q 739 -53 754 -37 Q 793 8 794 110 Q 778 338 788 507 Q 794 535 788 544 Q 778 557 740 577 Q 724 587 713 579 Q 703 570 715 549 Q 725 527 730 366 Q 733 93 728 71 Q 718 56 692 64 Z" style="fill: #0070C0;"></path>
                                    
                                    
                                                                                                                                                                                                                                                                                                                                                                                                                                                                                                                                                                                                                                                                                                                                                                                        </g>
                            </svg>