<svg width='83' height='83' >
                                <g transform="translate(3, 70) scale(0.07, -0.07)">
                                    <!-- 先将完整的字以灰色字体绘制完成，层级位于下面 -->
                                                                        <path d="M 279 629 Q 276 659 274 690 Q 274 708 261 711 Q 231 729 216 721 Q 203 713 214 696 Q 236 664 245 626 Q 245 622 245 620 L 253 588 Q 255 553 270 533 Q 281 524 284 535 Q 286 549 282 602 L 279 629 Z" style="fill: #0070C0;"></path>
                                                                        <path d="M 282 602 L 283 602 L 319 618 Q 331 624 329 635 Q 329 638 319 641 Q 307 638 279 629 L 245 620 Q 215 613 181 604 Q 157 604 145 602 Q 137 602 137 598 Q 136 590 139 584 Q 145 576 169 564 Q 179 559 188 561 L 253 588 L 282 602 Z" style="fill: #0070C0;"></path>
                                                                        <path d="M 424 643 Q 432 668 439 688 L 463 749 Q 465 755 461 760 Q 451 776 424 791 Q 414 800 400 792 Q 390 786 397 776 Q 412 735 371 576 Q 366 552 368 540 Q 368 528 380 535 Q 387 543 414 612 L 424 643 Z" style="fill: #0070C0;"></path>
                                                                        <path d="M 414 612 Q 425 608 451 612 Q 504 620 551 613 Q 559 612 563 617 Q 568 627 559 639 Q 547 654 527 658 Q 500 663 424 643 C 395 635 385 619 414 612 Z" style="fill: #0070C0;"></path>
                                                                        <path d="M 341 463 Q 348 488 348 490 Q 345 502 321 506 Q 300 511 292 506 L 290 506 Q 288 502 285 486 Q 272 384 127 190 L 123 186 Q 116 174 132 180 Q 207 214 304 392 Q 306 402 329 443 L 341 463 Z" style="fill: #0070C0;"></path>
                                                                        <path d="M 329 443 Q 401 347 482 259 Q 500 237 527 237 Q 559 236 598 243 Q 650 251 651 259 Q 653 266 641 270 Q 627 276 612 282 Q 547 308 527 318 Q 450 357 345 459 Q 342 461 341 463 C 320 484 311 467 329 443 Z" style="fill: #0070C0;"></path>
                                                                        <path d="M 253 265 Q 226 259 247 243 Q 276 227 338 245 L 406 269 Q 409 272 410 276 Q 410 292 380 300 L 372 300 Q 357 300 330 288 Q 292 270 253 265 Z" style="fill: #0070C0;"></path>
                                                                        <path d="M 245 169 Q 242 171 233 173 Q 202 183 198 176 Q 195 170 200 155 Q 223 88 239 6 Q 241 -22 255 -39 Q 270 -61 272 -46 Q 276 -35 275 -18 L 270 18 Q 262 77 254 135 C 250 165 250 167 245 169 Z" style="fill: #0070C0;"></path>
                                                                        <path d="M 451 43 Q 468 116 498 141 Q 512 159 500 176 Q 486 190 443 218 Q 439 220 435 220 Q 425 223 402 213 Q 331 183 245 169 C 215 164 225 127 254 135 Q 265 139 397 169 Q 412 172 419 165 Q 427 153 408 49 C 403 19 444 14 451 43 Z" style="fill: #0070C0;"></path>
                                                                        <path d="M 275 -18 Q 278 -19 287 -18 Q 363 -2 463 6 Q 472 6 472 16 Q 472 25 451 43 C 437 55 437 55 408 49 L 406 49 Q 333 27 270 18 C 240 14 245 -16 275 -18 Z" style="fill: #0070C0;"></path>
                                                                        <path d="M 620 615 Q 617 613 616 612 Q 613 607 619 591 Q 647 515 628 357 Q 622 323 651 290 Q 661 280 668 291 Q 684 316 686 390 Q 681 501 688 566 Q 694 590 674 600 Q 655 612 646 615 Q 630 623 620 615 Z" style="fill: #0070C0;"></path>
                                    
                                    
                                                                                                                                                                                                                                                                                                                                                                                                                                                                                                                                                                                                                                                                                                                                                                                                                                                                                                                                                </g>
                            </svg>