<svg width='83' height='83' >
                                <g transform="translate(3, 70) scale(0.07, -0.07)">
                                    <!-- 先将完整的字以灰色字体绘制完成，层级位于下面 -->
                                                                        <path d="M 335 693 Q 390 700 453 703 L 492 705 Q 553 709 598 706 Q 611 705 615 713 Q 619 723 608 735 Q 563 771 512 755 L 463 746 Q 402 736 332 724 L 291 718 Q 228 712 160 702 Q 135 699 153 686 Q 189 662 258 678 Q 277 684 299 686 L 335 693 Z" style="fill: #0070C0;"></path>
                                                                        <path d="M 299 686 Q 311 647 320 638 Q 332 629 335 639 Q 341 658 335 693 L 332 724 Q 331 751 330 771 Q 331 787 314 792 Q 281 810 261 802 Q 246 795 259 778 Q 283 754 291 718 L 299 686 Z" style="fill: #0070C0;"></path>
                                                                        <path d="M 453 703 Q 441 658 443 646 Q 444 633 458 644 Q 473 659 492 705 L 512 755 Q 513 758 514 760 Q 521 779 536 804 Q 548 817 539 826 Q 529 841 498 855 Q 483 862 469 855 Q 460 849 467 840 Q 477 813 463 746 L 453 703 Z" style="fill: #0070C0;"></path>
                                                                        <path d="M 251 509 Q 317 585 318 588 L 317 591 Q 316 601 296 621 Q 278 637 263 639 Q 250 640 253 622 Q 259 603 251 588 Q 223 539 185 493 Q 149 450 100 403 Q 91 396 89 391 Q 85 384 96 384 Q 126 384 229 486 L 251 509 Z" style="fill: #0070C0;"></path>
                                                                        <path d="M 274 321 Q 275 328 275 336 Q 276 430 281 451 Q 287 472 257 503 Q 254 507 251 509 C 230 530 218 514 229 486 Q 250 440 224 336 Q 214 306 239 270 Q 240 269 243 265 Q 256 253 265 273 Q 268 282 270 291 L 274 321 Z" style="fill: #0070C0;"></path>
                                                                        <path d="M 365 642 Q 402 593 421 590 Q 431 589 437 603 Q 438 613 432 629 Q 425 641 407 648 Q 382 661 370 663 Q 363 664 361 655 Q 360 649 365 642 Z" style="fill: #0070C0;"></path>
                                                                        <path d="M 430 542 Q 526 563 531 567 Q 538 573 534 579 Q 530 588 507 593 Q 485 597 462 589 Q 434 579 403 571 Q 369 564 330 560 Q 302 556 322 543 Q 349 527 392 534 L 430 542 Z" style="fill: #0070C0;"></path>
                                                                        <path d="M 440 459 Q 474 466 505 472 Q 524 475 517 486 Q 508 498 487 501 Q 469 502 442 495 L 397 482 Q 363 472 330 462 Q 317 459 333 447 Q 339 444 397 451 L 440 459 Z" style="fill: #0070C0;"></path>
                                                                        <path d="M 436 393 Q 472 400 505 404 Q 524 407 517 418 Q 508 430 487 434 Q 468 435 438 428 L 397 416 Q 360 407 326 398 Q 313 395 329 383 Q 333 380 398 387 L 436 393 Z" style="fill: #0070C0;"></path>
                                                                        <path d="M 434 346 Q 435 371 436 393 L 438 428 Q 439 444 440 459 L 442 495 Q 446 531 431 541 L 430 542 C 408 562 390 564 392 534 Q 391 534 392 533 Q 392 530 397 482 L 397 451 Q 397 436 397 416 L 398 387 Q 398 366 398 339 C 398 309 433 316 434 346 Z" style="fill: #0070C0;"></path>
                                                                        <path d="M 398 339 Q 359 332 324 328 Q 299 327 274 321 C 245 315 241 298 270 291 Q 282 285 345 293 Q 432 309 548 324 Q 557 323 565 334 Q 566 344 547 353 Q 511 371 442 348 Q 438 348 434 346 L 398 339 Z" style="fill: #0070C0;"></path>
                                                                        <path d="M 440 113 Q 465 147 491 192 Q 504 219 524 234 Q 543 247 531 261 Q 519 273 491 286 Q 469 293 444 283 Q 413 270 373 258 Q 331 246 263 237 Q 250 236 245 229 Q 241 222 259 215 Q 295 202 343 217 Q 413 242 426 241 Q 442 241 440 223 Q 424 171 396 133 L 365 98 Q 296 46 181 18 Q 168 17 178 7 Q 182 3 223 5 Q 323 14 403 74 L 440 113 Z" style="fill: #0070C0;"></path>
                                                                        <path d="M 403 74 Q 527 -5 529 -7 Q 536 -7 540 2 Q 547 15 531 47 Q 519 77 440 113 L 396 133 Q 396 134 395 134 Q 307 171 258 186 Q 251 189 251 178 Q 252 168 262 161 Q 311 133 365 98 L 403 74 Z" style="fill: #0070C0;"></path>
                                                                        <path d="M 598 565 Q 628 505 607 336 Q 598 300 628 270 Q 637 260 646 270 Q 664 295 664 386 Q 664 495 669 537 Q 676 559 656 570 Q 640 580 623 588 Q 611 592 602 586 Q 595 580 598 565 Z" style="fill: #0070C0;"></path>
                                                                        <path d="M 776 687 Q 780 651 782 111 Q 782 89 770 79 Q 760 72 738 79 Q 711 86 686 91 Q 652 103 655 92 Q 656 85 677 70 Q 747 18 764 -13 Q 785 -49 802 -49 Q 817 -50 832 -14 Q 850 34 847 110 Q 828 342 833 577 Q 836 668 849 715 Q 865 746 808 770 Q 774 788 753 781 Q 734 774 752 750 Q 774 722 776 687 Z" style="fill: #0070C0;"></path>
                                    
                                    
                                                                                                                                                                                                                                                                                                                                                                                                                                                                                                                                                                                                                                                                                                                                                                                                                                                                                                                                                                                                                                                                                                                                                                                                                                                                </g>
                            </svg>