<svg width='83' height='83' >
                                <g transform="translate(3, 70) scale(0.07, -0.07)">
                                    <!-- 先将完整的字以灰色字体绘制完成，层级位于下面 -->
                                                                        <path d="M 373 548 Q 479 675 494 687 Q 510 699 504 708 Q 503 718 439 742 Q 421 751 377 726 Q 319 702 215 683 Q 194 680 209 665 Q 234 647 276 658 Q 324 670 360 680 Q 376 684 383 677 Q 386 671 375 653 Q 309 524 122 378 Q 107 366 122 365 Q 203 377 359 532 L 373 548 Z" style="fill: #0070C0;"></path>
                                                                        <path d="M 359 532 Q 360 528 366 525 Q 411 497 465 456 Q 480 443 493 441 Q 500 441 504 450 Q 511 463 496 495 Q 481 531 373 548 C 345 553 345 553 359 532 Z" style="fill: #0070C0;"></path>
                                                                        <path d="M 359 328 Q 474 361 476 361 Q 483 368 479 377 Q 472 387 444 394 Q 414 398 385 387 Q 348 374 307 362 Q 261 350 208 344 Q 172 337 199 322 Q 238 300 309 318 Q 310 318 312 318 L 359 328 Z" style="fill: #0070C0;"></path>
                                                                        <path d="M 312 318 Q 315 306 315 166 C 315 136 357 150 360 180 Q 366 234 370 276 Q 376 315 359 328 C 337 349 308 348 312 318 Z" style="fill: #0070C0;"></path>
                                                                        <path d="M 315 166 Q 246 148 172 126 Q 150 119 115 121 Q 100 120 98 108 Q 97 93 106 84 Q 131 65 168 44 Q 180 41 193 50 Q 232 80 431 167 Q 459 179 480 194 Q 495 203 495 213 Q 489 219 475 216 Q 420 200 360 180 L 315 166 Z" style="fill: #0070C0;"></path>
                                                                        <path d="M 720 449 Q 769 464 821 472 Q 836 473 839 467 Q 846 451 841 407 Q 825 250 792 166 Q 774 114 756 98 Q 746 88 724 97 Q 685 116 652 134 Q 630 144 643 121 Q 689 60 713 15 Q 722 -10 746 -6 Q 765 -5 790 22 Q 862 92 895 361 Q 902 422 927 456 Q 943 478 935 489 Q 919 508 883 523 Q 858 536 830 524 Q 787 505 729 488 L 668 472 Q 599 459 558 457 Q 539 458 538 447 Q 537 437 560 424 Q 588 408 612 417 Q 633 424 658 431 L 720 449 Z" style="fill: #0070C0;"></path>
                                                                        <path d="M 658 431 Q 607 218 466 82 Q 441 58 409 31 Q 396 24 393 19 Q 389 12 406 12 Q 418 12 467 41 Q 501 62 557 116 Q 663 218 720 449 L 729 488 Q 738 536 744 584 Q 757 692 776 736 Q 783 748 774 757 Q 720 811 677 801 Q 655 794 671 774 Q 699 740 697 708 Q 690 570 668 472 L 658 431 Z" style="fill: #0070C0;"></path>
                                    
                                    
                                                                                                                                                                                                                                                                                                                                                                                                                                                                                                                                                                                                                                </g>
                            </svg>