<svg width='83' height='83' >
                                <g transform="translate(3, 70) scale(0.07, -0.07)">
                                    <!-- 先将完整的字以灰色字体绘制完成，层级位于下面 -->
                                                                        <path d="M 547 677 Q 659 750 694 758 Q 715 762 709 780 Q 708 796 642 837 Q 624 847 601 841 Q 528 817 420 791 Q 392 782 323 787 Q 301 788 308 768 Q 315 755 334 743 Q 365 725 399 745 Q 582 803 597 794 Q 609 788 604 775 Q 571 736 534 690 C 515 667 522 661 547 677 Z" style="fill: #0070C0;"></path>
                                                                        <path d="M 554 641 Q 557 666 547 677 L 534 690 Q 519 705 464 714 Q 452 717 448 714 Q 444 711 446 702 L 523 636 C 546 616 551 612 554 641 Z" style="fill: #0070C0;"></path>
                                                                        <path d="M 329 599 Q 299 620 277 623 Q 271 626 268 619 Q 264 613 269 601 Q 302 553 300 415 Q 297 393 308 376 Q 320 358 336 348 Q 349 341 351 351 Q 357 355 358 375 Q 359 391 352 442 Q 340 532 340 565 C 339 592 339 592 329 599 Z" style="fill: #0070C0;"></path>
                                                                        <path d="M 513 602 Q 663 632 689 617 Q 701 611 696 576 Q 677 444 665 418 Q 659 399 665 383 Q 671 367 684 369 Q 697 372 705 386 Q 718 407 740 504 Q 755 558 791 589 Q 810 605 793 621 Q 774 637 723 663 Q 708 670 636 654 Q 588 650 554 641 L 523 636 Q 477 629 436 619 Q 373 607 329 599 C 299 594 311 556 340 565 Q 389 581 476 596 L 513 602 Z" style="fill: #0070C0;"></path>
                                                                        <path d="M 536 509 Q 582 518 624 524 Q 643 527 637 538 Q 628 550 607 554 Q 600 555 538 543 L 488 530 Q 442 520 402 510 Q 389 507 405 495 Q 415 488 438 491 Q 463 497 490 500 L 536 509 Z" style="fill: #0070C0;"></path>
                                                                        <path d="M 533 429 Q 585 439 632 444 Q 651 447 645 458 Q 636 470 615 474 Q 588 480 534 462 L 491 453 Q 445 444 402 434 Q 389 431 405 419 Q 414 410 492 423 L 533 429 Z" style="fill: #0070C0;"></path>
                                                                        <path d="M 496 384 Q 500 365 504 358 Q 508 354 514 355 Q 523 362 533 429 L 534 462 Q 534 478 536 509 C 538 539 538 542 538 543 Q 538 544 539 544 Q 539 556 543 568 Q 546 581 535 589 Q 522 598 513 602 C 486 616 467 625 476 596 Q 488 557 488 530 L 490 500 Q 490 479 491 453 L 492 423 Q 493 396 496 384 Z" style="fill: #0070C0;"></path>
                                                                        <path d="M 490 247 Q 574 263 646 271 Q 680 274 685 263 Q 694 248 684 212 Q 663 109 634 67 Q 610 33 579 42 Q 552 52 529 64 Q 502 74 519 47 Q 562 -4 580 -41 Q 596 -66 618 -50 Q 687 -16 735 148 Q 753 227 779 253 Q 795 266 788 280 Q 778 295 720 326 Q 696 338 673 324 Q 636 305 510 283 L 437 270 Q 328 254 235 252 Q 213 252 210 241 Q 207 231 236 216 Q 266 195 290 203 Q 359 221 423 233 L 490 247 Z" style="fill: #0070C0;"></path>
                                                                        <path d="M 423 233 Q 365 109 185 -22 Q 176 -29 183 -33 Q 190 -36 202 -32 Q 266 -10 322 32 Q 416 95 490 247 L 510 283 Q 517 296 525 307 Q 534 316 529 327 Q 522 337 493 357 Q 471 370 461 369 Q 448 366 448 351 Q 449 312 437 270 L 423 233 Z" style="fill: #0070C0;"></path>
                                    
                                    
                                                                                                                                                                                                                                                                                                                                                                                                                                                                                                                                                                                                                                                                                                                                                                                        </g>
                            </svg>