<svg width='83' height='83' >
                                <g transform="translate(3, 70) scale(0.07, -0.07)">
                                    <!-- 先将完整的字以灰色字体绘制完成，层级位于下面 -->
                                                                        <path d="M 175 756 Q 162 763 129 769 Q 116 773 113 767 Q 106 761 115 745 Q 142 684 157 586 Q 160 556 176 536 Q 194 514 199 529 Q 208 550 201 594 Q 188 687 184 721 C 180 751 180 754 175 756 Z" style="fill: #0070C0;"></path>
                                                                        <path d="M 184 721 Q 214 736 396 757 Q 421 760 430 754 Q 440 748 435 717 Q 414 599 404 576 Q 397 558 402 543 Q 408 527 420 529 Q 433 530 440 545 Q 453 561 475 646 Q 491 697 526 726 Q 544 742 528 757 Q 510 773 462 799 Q 450 806 382 793 Q 360 793 242 769 Q 203 762 175 756 C 146 750 156 711 184 721 Z" style="fill: #0070C0;"></path>
                                                                        <path d="M 223 660 Q 207 656 226 643 Q 233 637 248 640 Q 318 650 371 657 Q 393 661 385 673 Q 375 686 351 691 Q 326 694 223 660 Z" style="fill: #0070C0;"></path>
                                                                        <path d="M 238 563 Q 223 560 242 547 Q 246 543 259 544 Q 317 553 360 558 Q 381 562 373 573 Q 363 586 341 590 Q 319 591 238 563 Z" style="fill: #0070C0;"></path>
                                                                        <path d="M 201 452 Q 165 474 152 469 Q 145 465 150 453 Q 151 446 155 439 Q 176 397 163 226 Q 150 133 159 117 Q 165 104 175 93 Q 184 81 194 92 Q 203 104 204 118 L 207 151 Q 207 160 208 223 L 208 250 Q 209 290 210 320 L 211 348 Q 212 406 214 412 Q 215 419 215 425 C 216 443 216 443 201 452 Z" style="fill: #0070C0;"></path>
                                                                        <path d="M 380 135 Q 419 69 424 68 Q 434 68 443 90 Q 459 133 456 184 Q 446 400 457 432 Q 466 453 454 462 Q 447 472 412 489 Q 397 498 308 471 Q 257 461 201 452 C 171 447 186 419 215 425 Q 323 446 359 449 Q 381 450 387 443 Q 399 428 396 253 Q 397 189 391 177 Q 388 173 382 170 C 369 153 369 153 380 135 Z" style="fill: #0070C0;"></path>
                                                                        <path d="M 210 320 Q 280 329 331 337 Q 353 341 345 353 Q 335 366 311 370 Q 275 374 211 348 C 183 337 180 316 210 320 Z" style="fill: #0070C0;"></path>
                                                                        <path d="M 208 223 Q 209 223 213 223 Q 286 235 339 241 Q 361 245 353 257 Q 343 270 319 275 Q 294 278 208 250 C 179 241 178 223 208 223 Z" style="fill: #0070C0;"></path>
                                                                        <path d="M 204 118 Q 207 118 212 119 Q 266 129 380 135 C 410 137 407 153 382 170 Q 381 171 380 172 Q 365 181 336 174 Q 266 159 207 151 C 177 147 174 115 204 118 Z" style="fill: #0070C0;"></path>
                                                                        <path d="M 697 482 Q 737 492 778 496 Q 791 497 795 490 Q 804 474 801 430 Q 794 270 765 183 Q 750 129 733 113 Q 723 101 699 108 Q 668 118 639 128 Q 617 135 632 114 Q 675 65 699 28 Q 709 7 729 13 Q 748 16 771 43 Q 837 118 855 388 Q 859 449 880 485 Q 896 506 887 516 Q 871 534 837 548 Q 812 560 787 548 Q 750 533 703 518 L 648 506 Q 645 506 643 505 Q 567 490 523 490 Q 505 491 505 482 Q 504 472 524 460 Q 549 444 571 452 Q 605 462 642 470 L 697 482 Z" style="fill: #0070C0;"></path>
                                                                        <path d="M 642 470 Q 596 245 493 100 Q 460 60 407 7 Q 395 0 393 -6 Q 389 -13 406 -11 Q 442 -11 536 90 Q 650 216 697 482 L 703 518 Q 724 699 746 755 Q 752 767 743 775 Q 727 793 690 810 Q 669 820 652 816 Q 631 809 647 791 Q 672 760 672 728 Q 665 604 648 506 L 642 470 Z" style="fill: #0070C0;"></path>
                                    
                                    
                                                                                                                                                                                                                                                                                                                                                                                                                                                                                                                                                                                                                                                                                                                                                                                                                                                                                                                                                </g>
                            </svg>