<svg width='83' height='83' >
                                <g transform="translate(3, 70) scale(0.07, -0.07)">
                                    <!-- 先将完整的字以灰色字体绘制完成，层级位于下面 -->
                                                                        <path d="M 346 360 Q 506 403 693 547 Q 714 566 743 579 Q 759 589 756 600 Q 750 610 728 622 Q 676 644 647 641 Q 634 640 636 625 Q 627 544 362 389 Q 353 386 347 381 C 321 366 317 352 346 360 Z" style="fill: #0070C0;"></path>
                                                                        <path d="M 900 123 Q 878 190 867 308 Q 864 327 857 336 Q 848 343 844 326 Q 831 256 816 202 Q 810 165 779 142 Q 730 94 515 96 Q 431 103 401 121 Q 374 137 357 170 Q 339 213 346 360 L 347 381 Q 353 556 369 614 Q 378 636 345 660 Q 318 678 295 690 Q 276 703 257 691 Q 244 684 267 654 Q 294 617 295 567 Q 299 507 296 326 Q 289 158 330 111 Q 330 96 386 69 Q 462 32 669 40 Q 789 44 877 85 Q 913 95 900 123 Z" style="fill: #0070C0;"></path>
                                    
                                    
                                                                                                                                                                                                                                    </g>
                            </svg>