<svg width='83' height='83' >
                                <g transform="translate(3, 70) scale(0.07, -0.07)">
                                    <!-- 先将完整的字以灰色字体绘制完成，层级位于下面 -->
                                                                        <path d="M 299 762 Q 287 768 262 773 Q 250 777 247 772 Q 240 768 248 751 Q 275 682 287 572 Q 288 538 305 516 Q 321 494 327 509 Q 328 516 331 525 L 332 552 Q 326 615 323 630 L 320 657 Q 313 718 312 737 C 311 757 311 757 299 762 Z" style="fill: #0070C0;"></path>
                                                                        <path d="M 425 543 Q 443 521 458 514 Q 467 508 479 527 Q 492 555 511 698 Q 517 725 535 747 Q 545 757 536 769 Q 523 782 485 802 Q 473 808 412 792 Q 334 774 299 762 C 270 753 283 729 312 737 Q 355 750 427 765 Q 446 769 452 763 Q 467 748 465 732 Q 450 600 439 575 C 430 546 422 546 425 543 Z" style="fill: #0070C0;"></path>
                                                                        <path d="M 323 630 Q 372 642 410 647 Q 429 651 421 662 Q 411 672 390 676 Q 357 679 320 657 C 294 642 294 623 323 630 Z" style="fill: #0070C0;"></path>
                                                                        <path d="M 331 525 Q 382 537 425 543 C 455 547 468 567 439 575 Q 436 576 431 577 Q 403 580 332 552 C 304 541 302 518 331 525 Z" style="fill: #0070C0;"></path>
                                                                        <path d="M 401 428 Q 468 441 548 449 Q 564 450 565 458 Q 566 470 550 479 Q 525 491 503 486 Q 209 425 86 416 Q 73 415 70 408 Q 67 398 81 387 Q 117 357 157 371 Q 304 414 360 421 L 401 428 Z" style="fill: #0070C0;"></path>
                                                                        <path d="M 413 188 Q 417 249 420 299 L 422 324 Q 423 345 425 363 Q 425 375 426 382 Q 433 400 425 409 Q 413 421 401 428 C 376 444 353 450 360 421 Q 367 396 371 312 Q 371 273 371 212 C 371 182 411 158 413 188 Z" style="fill: #0070C0;"></path>
                                                                        <path d="M 420 299 Q 463 295 560 325 L 561 325 Q 568 332 563 339 Q 556 348 533 351 Q 523 352 455 332 Q 439 329 422 324 C 393 316 390 301 420 299 Z" style="fill: #0070C0;"></path>
                                                                        <path d="M 275 274 Q 285 293 298 310 Q 307 322 294 335 Q 258 365 230 362 Q 220 359 222 346 Q 234 247 126 125 Q 120 122 81 75 Q 74 62 87 66 Q 106 69 130 89 Q 206 150 247 227 Q 251 234 256 242 L 275 274 Z" style="fill: #0070C0;"></path>
                                                                        <path d="M 256 242 Q 259 241 263 238 Q 440 94 697 -25 Q 730 -40 784 -28 Q 851 -10 927 15 Q 964 28 973 42 Q 977 55 955 55 Q 861 61 803 59 Q 644 59 433 177 Q 423 183 413 188 L 371 212 Q 323 242 275 274 C 250 291 232 260 256 242 Z" style="fill: #0070C0;"></path>
                                                                        <path d="M 667 449 Q 733 483 827 541 Q 848 554 872 561 Q 894 568 886 587 Q 876 606 851 622 Q 830 638 817 638 Q 804 638 807 624 Q 808 594 727 525 Q 699 503 668 477 C 645 458 640 435 667 449 Z" style="fill: #0070C0;"></path>
                                                                        <path d="M 906 249 Q 919 259 907 284 Q 894 324 892 377 Q 893 387 886 395 Q 877 402 872 381 Q 830 290 809 281 Q 808 282 807 281 Q 752 266 705 286 Q 675 301 670 347 Q 666 396 667 449 L 668 477 Q 675 669 699 706 Q 706 725 689 739 Q 664 761 628 770 Q 612 774 603 766 Q 596 757 602 749 Q 623 728 624 672 Q 624 642 623 591 Q 616 383 631 315 Q 646 252 713 231 Q 740 224 775 222 Q 832 218 861 226 Q 892 236 906 249 Z" style="fill: #0070C0;"></path>
                                    
                                    
                                                                                                                                                                                                                                                                                                                                                                                                                                                                                                                                                                                                                                                                                                                                                                                                                                                                                                                                                </g>
                            </svg>