<svg width='83' height='83' >
                                <g transform="translate(3, 70) scale(0.07, -0.07)">
                                    <!-- 先将完整的字以灰色字体绘制完成，层级位于下面 -->
                                                                        <path d="M 315 653 Q 357 635 406 643 Q 560 665 720 687 Q 793 699 804 708 Q 814 717 811 726 Q 804 741 771 751 Q 741 758 634 731 Q 468 695 310 689 Q 309 689 309 688 C 279 685 287 663 315 653 Z" style="fill: #0070C0;"></path>
                                                                        <path d="M 309 688 L 309 689 Q 263 714 242 716 Q 229 717 220 710 Q 210 703 224 685 Q 246 655 245 383 Q 242 149 205 73 Q 199 67 195 62 Q 173 43 186 24 Q 193 6 209 -7 Q 225 -20 245 -6 Q 252 3 318 26 Q 414 47 595 52 Q 779 55 844 46 Q 869 42 883 49 Q 895 55 895 63 Q 894 79 858 102 Q 822 123 801 122 Q 758 121 425 82 Q 298 61 288 75 Q 279 84 290 226 Q 284 257 306 546 Q 309 628 315 653 C 319 683 319 683 309 688 Z" style="fill: #0070C0;"></path>
                                    
                                    
                                                                                                                                                                                                                                    </g>
                            </svg>