<svg width='83' height='83' >
                                <g transform="translate(3, 70) scale(0.07, -0.07)">
                                    <!-- 先将完整的字以灰色字体绘制完成，层级位于下面 -->
                                                                        <path d="M 313 679 Q 322 678 336 681 Q 550 720 777 740 Q 789 737 799 751 Q 800 764 777 776 Q 735 801 673 782 Q 490 748 301 729 C 271 726 283 678 313 679 Z" style="fill: #0070C0;"></path>
                                                                        <path d="M 488 545 Q 564 563 610 584 Q 653 605 692 614 Q 708 615 712 624 Q 715 634 702 645 Q 645 684 607 679 Q 600 675 600 664 Q 600 634 479 560 C 453 544 459 538 488 545 Z" style="fill: #0070C0;"></path>
                                                                        <path d="M 484 458 Q 485 480 485 505 Q 488 544 488 545 C 489 554 489 554 479 560 Q 478 563 472 565 Q 423 586 408 582 Q 389 578 406 556 Q 442 502 426 347 Q 422 317 411 283 Q 396 235 341 171 Q 328 158 325 151 Q 324 144 336 145 Q 369 148 419 206 Q 476 278 483 423 L 484 458 Z" style="fill: #0070C0;"></path>
                                                                        <path d="M 659 440 Q 791 470 794 471 Q 804 478 799 488 Q 792 500 762 508 Q 738 514 626 482 Q 541 466 484 458 C 454 454 453 426 483 423 Q 514 419 598 429 Q 601 430 605 430 L 659 440 Z" style="fill: #0070C0;"></path>
                                                                        <path d="M 621 161 Q 625 139 631 131 Q 635 124 642 126 Q 660 138 669 288 Q 669 358 679 409 Q 683 424 670 433 Q 664 437 659 440 C 634 456 596 459 605 430 Q 615 412 617 243 Q 618 182 621 161 Z" style="fill: #0070C0;"></path>
                                                                        <path d="M 301 729 Q 261 751 242 752 Q 229 753 220 746 Q 210 739 224 720 Q 254 681 243 317 Q 228 92 195 66 Q 173 47 186 28 Q 193 10 209 -3 Q 225 -18 245 -2 Q 252 7 318 30 Q 415 51 597 56 Q 784 59 848 50 Q 873 46 887 53 Q 899 59 899 67 Q 898 83 862 106 Q 826 127 805 126 Q 762 125 426 86 Q 297 65 288 80 Q 279 89 288 221 Q 288 353 309 637 Q 310 664 313 679 C 316 709 317 721 301 729 Z" style="fill: #0070C0;"></path>
                                    
                                    
                                                                                                                                                                                                                                                                                                                                                                                                                                                                                                                                                    </g>
                            </svg>