<svg width='83' height='83' >
                                <g transform="translate(3, 70) scale(0.07, -0.07)">
                                    <!-- 先将完整的字以灰色字体绘制完成，层级位于下面 -->
                                                                        <path d="M 300 689 Q 339 677 376 683 Q 766 731 784 746 Q 794 753 790 763 Q 783 776 753 787 Q 723 796 618 768 Q 447 732 286 726 Q 285 726 285 725 C 255 722 271 697 300 689 Z" style="fill: #0070C0;"></path>
                                                                        <path d="M 560 546 Q 728 580 734 585 Q 743 592 739 600 Q 732 612 704 620 Q 676 626 646 615 Q 595 599 541 586 Q 480 573 410 568 Q 374 562 399 546 Q 435 522 515 538 L 517 538 L 560 546 Z" style="fill: #0070C0;"></path>
                                                                        <path d="M 581 393 Q 698 421 703 424 Q 710 431 707 438 Q 700 448 675 454 Q 650 460 583 436 L 530 421 Q 478 411 419 404 Q 388 398 411 384 Q 447 365 505 378 Q 515 381 530 382 L 581 393 Z" style="fill: #0070C0;"></path>
                                                                        <path d="M 583 436 Q 586 491 588 496 Q 595 514 586 524 Q 573 537 560 546 C 536 564 506 566 517 538 Q 529 513 530 421 L 530 382 Q 531 339 531 275 C 531 245 573 253 575 283 Q 578 341 581 393 L 583 436 Z" style="fill: #0070C0;"></path>
                                                                        <path d="M 531 275 Q 455 263 367 249 Q 348 246 362 231 Q 375 218 393 214 Q 412 210 427 214 Q 541 247 731 250 Q 747 250 761 251 Q 780 251 784 259 Q 788 269 773 283 Q 713 322 657 301 Q 621 295 575 283 L 531 275 Z" style="fill: #0070C0;"></path>
                                                                        <path d="M 285 725 Q 245 747 226 747 Q 213 750 204 741 Q 194 734 209 716 Q 231 689 235 415 Q 236 187 200 104 Q 194 98 190 93 Q 168 74 181 54 Q 187 36 204 23 Q 219 11 241 25 Q 295 91 734 79 Q 818 78 859 70 Q 886 66 898 72 Q 911 79 911 86 Q 910 102 874 126 Q 840 148 817 148 Q 774 147 426 112 Q 293 93 284 108 Q 278 114 282 234 Q 282 474 295 642 Q 296 676 300 689 C 303 717 303 717 285 725 Z" style="fill: #0070C0;"></path>
                                    
                                    
                                                                                                                                                                                                                                                                                                                                                                                                                                                                                                                                                    </g>
                            </svg>