<svg width='83' height='83' >
                                <g transform="translate(3, 70) scale(0.07, -0.07)">
                                    <!-- 先将完整的字以灰色字体绘制完成，层级位于下面 -->
                                                                        <path d="M 300 697 Q 312 690 357 696 Q 558 732 781 752 Q 793 749 803 763 Q 804 776 781 788 Q 739 813 677 794 Q 475 755 400 749 Q 348 746 292 739 C 262 735 271 704 300 697 Z" style="fill: #0070C0;"></path>
                                                                        <path d="M 417 616 Q 407 620 382 624 Q 372 627 368 622 Q 364 616 371 602 Q 398 550 415 465 Q 418 440 433 422 Q 449 403 454 417 Q 455 424 457 436 L 454 465 Q 454 468 445 512 L 441 533 Q 434 572 433 588 C 431 611 431 611 417 616 Z" style="fill: #0070C0;"></path>
                                                                        <path d="M 656 490 Q 683 577 716 602 Q 732 618 718 636 Q 702 648 653 671 Q 635 680 571 652 Q 490 630 417 616 C 388 610 404 580 433 588 Q 440 589 450 593 Q 526 609 600 627 Q 619 631 628 624 Q 637 614 634 595 Q 622 540 608 495 C 599 466 647 461 656 490 Z" style="fill: #0070C0;"></path>
                                                                        <path d="M 445 512 Q 449 512 455 512 Q 525 525 577 532 Q 596 535 589 546 Q 580 558 559 561 Q 529 565 441 533 C 413 523 415 512 445 512 Z" style="fill: #0070C0;"></path>
                                                                        <path d="M 514 444 Q 571 454 665 462 Q 675 463 676 470 Q 676 476 656 490 C 640 502 637 501 608 495 Q 520 476 454 465 C 424 460 427 437 457 436 Q 464 435 473 437 Q 479 438 486 439 L 514 444 Z" style="fill: #0070C0;"></path>
                                                                        <path d="M 511 348 Q 526 381 538 401 Q 545 408 543 415 Q 539 425 514 444 C 491 463 481 469 486 439 Q 495 415 470 342 L 456 308 Q 431 265 434 251 Q 437 244 451 241 Q 499 232 523 216 L 560 197 Q 597 178 648 141 Q 670 128 684 129 Q 700 130 699 146 Q 698 162 671 197 Q 658 218 592 234 L 549 246 Q 512 256 485 260 Q 469 263 477 277 Q 487 299 495 316 L 511 348 Z" style="fill: #0070C0;"></path>
                                                                        <path d="M 655 372 Q 636 397 618 398 Q 608 398 607 386 Q 608 376 607 363 L 596 330 Q 566 272 549 246 L 523 216 Q 471 164 370 137 Q 367 137 364 135 Q 352 131 361 126 Q 397 111 475 140 Q 517 155 560 197 L 592 234 Q 602 247 611 263 Q 648 326 659 335 C 673 351 673 351 655 372 Z" style="fill: #0070C0;"></path>
                                                                        <path d="M 659 335 Q 714 341 811 340 Q 827 340 831 348 Q 835 357 822 368 Q 771 401 719 386 Q 689 382 655 372 L 607 363 Q 583 363 511 348 L 470 342 Q 401 333 330 322 Q 312 321 326 307 Q 338 295 352 291 Q 370 287 383 291 Q 417 301 456 308 L 495 316 Q 514 320 538 323 Q 563 327 596 330 L 659 335 Z" style="fill: #0070C0;"></path>
                                                                        <path d="M 292 739 Q 250 763 232 763 Q 219 766 210 758 Q 200 751 215 733 Q 245 697 233 314 Q 218 82 184 57 Q 163 39 175 20 Q 181 4 197 -9 Q 213 -24 231 -9 Q 270 39 574 44 Q 793 44 864 33 Q 904 24 913 45 L 913 47 Q 913 63 879 86 Q 845 107 825 107 Q 779 106 421 74 Q 283 55 274 70 Q 265 79 274 217 Q 274 361 295 644 Q 296 680 300 697 C 303 727 304 733 292 739 Z" style="fill: #0070C0;"></path>
                                    
                                    
                                                                                                                                                                                                                                                                                                                                                                                                                                                                                                                                                                                                                                                                                                                                                                                        </g>
                            </svg>