<svg width='83' height='83' >
                                <g transform="translate(3, 70) scale(0.07, -0.07)">
                                    <!-- 先将完整的字以灰色字体绘制完成，层级位于下面 -->
                                                                        <path d="M 541 450 Q 754 474 901 462 Q 935 462 940 467 Q 949 482 935 494 Q 862 560 793 538 Q 745 529 542 499 L 482 492 Q 355 479 290 469 Q 218 457 112 455 Q 97 455 96 443 Q 95 430 116 414 Q 134 401 168 388 Q 180 384 199 393 Q 215 399 292 413 Q 377 434 482 444 L 541 450 Z" style="fill: #0070C0;"></path>
                                                                        <path d="M 482 444 Q 482 240 478 171 Q 475 -6 495 -40 Q 511 -56 521 -34 Q 539 21 540 425 Q 540 438 541 450 L 542 499 Q 543 722 569 763 Q 576 781 555 798 Q 528 819 482 830 Q 461 836 447 821 Q 437 812 450 799 Q 480 774 482 739 Q 482 651 482 492 L 482 444 Z" style="fill: #0070C0;"></path>
                                    
                                    
                                                                                                                                                                                                                                    </g>
                            </svg>