<svg width='83' height='83' >
                                <g transform="translate(3, 70) scale(0.07, -0.07)">
                                    <!-- 先将完整的字以灰色字体绘制完成，层级位于下面 -->
                                                                        <path d="M 288 481 Q 313 490 344 498 Q 380 510 385 515 Q 394 524 388 532 Q 381 544 350 549 Q 319 552 289 537 L 245 519 Q 172 494 95 479 Q 58 469 86 455 Q 131 437 223 463 Q 232 466 243 468 L 288 481 Z" style="fill: #0070C0;"></path>
                                                                        <path d="M 215 117 Q 203 81 228 18 Q 235 0 243 -3 Q 249 -9 256 -1 Q 283 15 283 78 Q 282 121 288 481 L 289 537 Q 289 651 309 726 Q 324 751 294 771 Q 279 783 254 797 Q 232 813 211 799 Q 207 795 213 779 Q 243 734 244 659 Q 244 590 245 519 L 243 468 Q 240 368 239 258 Q 235 185 215 117 Z" style="fill: #0070C0;"></path>
                                                                        <path d="M 786 397 Q 786 398 787 400 Q 791 464 814 503 Q 830 525 821 536 Q 805 555 768 570 Q 741 583 714 569 Q 674 553 622 538 L 566 525 Q 446 506 411 505 Q 392 506 391 496 Q 390 486 412 472 Q 439 454 464 463 Q 512 478 559 488 L 614 499 Q 660 509 706 515 Q 722 516 726 508 Q 735 490 732 444 Q 722 273 692 182 Q 676 124 658 107 Q 646 94 620 101 Q 584 111 552 121 Q 528 128 545 106 Q 594 57 621 17 Q 631 -5 653 2 Q 674 6 698 35 Q 765 107 784 367 L 786 397 Z" style="fill: #0070C0;"></path>
                                                                        <path d="M 622 538 Q 644 682 654 710 Q 664 723 657 738 Q 641 756 611 772 Q 592 784 579 780 Q 566 773 572 759 Q 593 726 584 651 Q 581 638 580 620 Q 574 571 566 525 L 559 488 Q 520 269 344 31 Q 340 24 337 18 Q 333 8 344 9 Q 380 15 474 143 Q 493 174 514 209 Q 580 342 614 499 L 622 538 Z" style="fill: #0070C0;"></path>
                                                                        <path d="M 418 382 Q 391 336 357 294 Q 336 270 347 236 Q 351 220 372 229 Q 423 259 434 330 Q 441 358 438 380 Q 435 387 430 389 Q 423 389 418 382 Z" style="fill: #0070C0;"></path>
                                                                        <path d="M 784 367 Q 830 325 883 265 Q 896 247 910 243 Q 917 242 925 250 Q 935 262 925 300 Q 915 351 786 397 C 758 407 762 387 784 367 Z" style="fill: #0070C0;"></path>
                                    
                                    
                                                                                                                                                                                                                                                                                                                                                                                                                                                                                                                                                    </g>
                            </svg>