<svg width='83' height='83' >
                                <g transform="translate(3, 70) scale(0.07, -0.07)">
                                    <!-- 先将完整的字以灰色字体绘制完成，层级位于下面 -->
                                                                        <path d="M 375 674 Q 405 696 424 714 Q 490 772 512 784 Q 534 797 520 814 Q 505 830 476 843 Q 451 856 437 851 Q 424 850 429 835 Q 438 805 386 736 Q 362 703 336 667 C 318 643 351 656 375 674 Z" style="fill: #0070C0;"></path>
                                                                        <path d="M 312 663 Q 299 670 259 676 Q 246 679 243 673 Q 236 666 246 650 Q 286 574 311 449 Q 315 412 338 387 Q 359 365 363 382 Q 364 388 365 395 L 365 427 Q 364 445 358 465 Q 331 577 322 622 C 316 651 314 662 312 663 Z" style="fill: #0070C0;"></path>
                                                                        <path d="M 623 429 Q 639 402 656 392 Q 666 382 686 405 Q 705 433 752 586 Q 762 622 791 649 Q 807 662 794 679 Q 778 700 730 731 Q 708 743 621 721 Q 606 720 592 716 Q 403 682 375 674 L 336 667 Q 323 666 312 663 C 282 658 294 611 322 622 Q 331 631 457 654 L 493 661 Q 554 674 631 686 Q 674 693 688 678 Q 701 659 697 642 Q 654 477 635 465 C 618 440 617 438 623 429 Z" style="fill: #0070C0;"></path>
                                                                        <path d="M 515 540 Q 549 550 588 558 Q 616 565 620 569 Q 627 576 623 583 Q 616 592 593 597 Q 566 601 521 582 L 470 566 Q 436 560 398 554 Q 368 548 390 536 Q 420 520 467 529 L 515 540 Z" style="fill: #0070C0;"></path>
                                                                        <path d="M 480 413 Q 538 423 623 429 C 653 431 664 456 635 465 Q 614 477 493 448 L 443 439 Q 401 432 365 427 C 335 423 335 393 365 395 Q 369 395 376 396 Q 397 402 429 406 L 480 413 Z" style="fill: #0070C0;"></path>
                                                                        <path d="M 369 271 Q 438 328 480 413 L 493 448 Q 506 487 515 540 L 521 582 Q 525 607 532 630 Q 536 640 530 647 Q 523 654 493 661 C 464 669 452 672 457 654 Q 457 651 459 645 Q 472 609 470 566 L 467 529 Q 461 496 443 439 L 429 406 Q 408 360 343 268 C 326 243 346 251 369 271 Z" style="fill: #0070C0;"></path>
                                                                        <path d="M 593 260 Q 702 269 851 269 Q 935 266 944 278 Q 950 291 931 308 Q 871 351 828 343 Q 737 324 595 302 L 536 293 Q 520 293 369 271 L 343 268 Q 235 256 118 241 Q 94 240 112 219 Q 145 186 191 196 Q 360 244 537 255 L 593 260 Z" style="fill: #0070C0;"></path>
                                                                        <path d="M 543 -40 Q 547 -64 554 -73 Q 560 -80 567 -78 Q 580 -69 587 -13 Q 593 36 592 86 Q 591 123 593 260 L 595 302 Q 598 332 603 345 Q 606 361 592 371 Q 561 392 547 394 Q 535 398 520 390 Q 511 383 519 373 Q 534 330 536 295 L 536 293 L 537 255 Q 538 182 538 82 Q 539 -9 543 -40 Z" style="fill: #0070C0;"></path>
                                    
                                    
                                                                                                                                                                                                                                                                                                                                                                                                                                                                                                                                                                                                                                                                                                            </g>
                            </svg>