<svg width='83' height='83' >
                                <g transform="translate(3, 70) scale(0.07, -0.07)">
                                    <!-- 先将完整的字以灰色字体绘制完成，层级位于下面 -->
                                                                        <path d="M 479 820 Q 530 772 562 763 Q 578 762 587 776 Q 591 791 587 808 Q 569 850 488 862 Q 470 866 461 861 Q 454 858 458 846 Q 461 833 479 820 Z" style="fill: #0070C0;"></path>
                                                                        <path d="M 311 695 Q 275 691 300 673 Q 339 651 411 660 Q 534 678 664 697 Q 728 709 737 717 Q 746 724 742 732 Q 736 745 708 753 Q 675 762 591 735 Q 440 702 311 695 Z" style="fill: #0070C0;"></path>
                                                                        <path d="M 366 501 Q 394 550 419 580 Q 428 590 416 604 Q 380 632 358 630 Q 348 629 350 616 Q 359 534 271 438 Q 255 429 229 394 Q 222 381 235 385 Q 250 386 271 403 Q 320 439 353 482 L 366 501 Z" style="fill: #0070C0;"></path>
                                                                        <path d="M 353 482 Q 357 476 369 466 Q 435 405 441 403 Q 448 403 454 413 Q 458 423 453 445 Q 447 472 368 501 L 366 501 C 337 507 335 506 353 482 Z" style="fill: #0070C0;"></path>
                                                                        <path d="M 543 441 Q 585 462 633 522 L 647 542 Q 671 584 701 628 Q 710 638 697 652 Q 660 679 636 677 Q 626 676 628 662 Q 640 592 563 490 Q 554 484 528 451 C 509 428 517 427 543 441 Z" style="fill: #0070C0;"></path>
                                                                        <path d="M 633 522 Q 639 516 652 505 Q 692 474 734 435 Q 744 425 757 426 Q 766 426 769 437 Q 773 447 766 471 Q 757 510 649 542 L 647 542 C 618 548 611 543 633 522 Z" style="fill: #0070C0;"></path>
                                                                        <path d="M 548 310 Q 605 316 901 315 Q 925 315 931 325 Q 938 338 918 355 Q 843 412 799 390 Q 700 374 550 353 L 493 346 Q 318 327 115 306 Q 90 305 108 283 Q 142 249 190 258 Q 334 295 493 306 L 548 310 Z" style="fill: #0070C0;"></path>
                                                                        <path d="M 495 -24 Q 499 -48 506 -57 Q 512 -64 519 -62 Q 546 -44 546 116 Q 545 159 548 310 L 550 353 Q 550 372 553 383 Q 560 429 548 439 Q 545 440 543 441 L 528 451 Q 498 470 476 459 Q 467 452 474 441 Q 492 411 493 346 L 493 306 Q 493 -7 495 -24 Z" style="fill: #0070C0;"></path>
                                    
                                    
                                                                                                                                                                                                                                                                                                                                                                                                                                                                                                                                                                                                                                                                                                            </g>
                            </svg>