<svg width='83' height='83' >
                                <g transform="translate(3, 70) scale(0.07, -0.07)">
                                    <!-- 先将完整的字以灰色字体绘制完成，层级位于下面 -->
                                                                        <path d="M 418 80 Q 406 41 436 -32 Q 443 -51 452 -55 Q 459 -62 467 -53 Q 497 -32 496 37 Q 495 89 497 567 Q 497 666 515 733 Q 525 749 521 765 Q 514 775 451 812 Q 426 831 402 813 Q 396 807 404 791 Q 434 749 441 652 Q 450 250 429 129 Q 425 105 418 80 Z" style="fill: #0070C0;"></path>
                                                                        <path d="M 558 499 Q 657 448 780 371 Q 804 353 821 353 Q 831 354 837 367 Q 846 386 820 430 Q 783 493 551 533 Q 539 536 540 522 Q 544 506 558 499 Z" style="fill: #0070C0;"></path>
                                    
                                    
                                                                                                                                                                                                                                    </g>
                            </svg>