<svg width='83' height='83' >
                                <g transform="translate(3, 70) scale(0.07, -0.07)">
                                    <!-- 先将完整的字以灰色字体绘制完成，层级位于下面 -->
                                                                        <path d="M 529 543 Q 535 601 540 655 L 543 686 Q 543 726 561 775 Q 565 785 545 801 Q 511 820 488 824 Q 472 827 464 819 Q 457 812 464 797 Q 480 775 481 759 Q 490 656 488 535 C 488 505 526 513 529 543 Z" style="fill: #0070C0;"></path>
                                                                        <path d="M 540 655 Q 571 646 663 665 Q 685 671 709 675 Q 728 679 732 683 Q 741 692 736 700 Q 729 712 698 718 Q 667 722 636 709 Q 597 697 543 686 C 514 680 511 662 540 655 Z" style="fill: #0070C0;"></path>
                                                                        <path d="M 700 401 Q 727 476 759 497 Q 778 516 762 536 Q 693 593 649 580 Q 586 558 529 543 L 488 535 Q 424 525 359 517 C 329 513 343 476 372 482 Q 633 536 651 526 Q 654 525 657 521 Q 664 514 663 496 Q 656 448 645 409 C 637 380 689 373 700 401 Z" style="fill: #0070C0;"></path>
                                                                        <path d="M 350 333 Q 372 327 385 328 Q 488 349 713 362 Q 725 363 727 373 Q 727 382 700 401 L 645 409 Q 644 410 641 409 Q 482 376 355 365 C 325 362 321 340 350 333 Z" style="fill: #0070C0;"></path>
                                                                        <path d="M 359 517 Q 308 545 292 544 Q 270 541 286 516 Q 310 470 282 261 Q 270 209 240 149 Q 209 82 126 13 Q 110 0 106 -6 Q 103 -13 116 -14 Q 155 -17 229 52 Q 316 137 350 333 L 355 365 Q 359 405 365 449 Q 369 471 372 482 C 378 507 378 507 359 517 Z" style="fill: #0070C0;"></path>
                                    
                                    
                                                                                                                                                                                                                                                                                                                                                                                                                                                                        </g>
                            </svg>