<svg width='83' height='83' >
                                <g transform="translate(3, 70) scale(0.07, -0.07)">
                                    <!-- 先将完整的字以灰色字体绘制完成，层级位于下面 -->
                                                                        <path d="M 403 622 Q 527 650 530 653 Q 539 660 535 668 Q 528 680 500 687 Q 467 696 406 670 L 353 657 Q 349 657 347 656 Q 293 646 230 640 Q 194 634 219 618 Q 258 594 317 607 Q 333 611 355 613 L 403 622 Z" style="fill: #0070C0;"></path>
                                                                        <path d="M 396 511 Q 400 569 403 622 L 406 670 Q 406 695 422 800 Q 426 810 406 825 Q 372 843 348 847 Q 332 850 324 841 Q 317 834 325 819 Q 346 792 346 773 Q 350 718 353 657 L 355 613 Q 355 561 355 502 C 355 472 394 481 396 511 Z" style="fill: #0070C0;"></path>
                                                                        <path d="M 370 465 Q 457 484 567 498 Q 585 499 585 508 Q 586 521 568 531 Q 540 544 517 538 Q 448 523 396 511 L 355 502 Q 217 475 110 464 Q 97 463 93 455 Q 90 443 105 432 Q 147 404 189 416 Q 271 441 332 456 L 370 465 Z" style="fill: #0070C0;"></path>
                                                                        <path d="M 398 315 Q 407 318 512 335 Q 522 334 530 347 Q 531 357 509 367 Q 473 388 403 360 Q 402 360 400 359 L 347 345 Q 317 339 207 319 Q 180 315 201 299 Q 235 278 258 283 Q 297 293 347 304 L 398 315 Z" style="fill: #0070C0;"></path>
                                                                        <path d="M 391 192 Q 394 259 398 315 L 400 359 Q 401 374 402 388 Q 406 434 402 440 Q 386 456 370 465 C 344 481 320 483 332 456 Q 344 437 347 345 L 347 304 Q 347 255 347 182 C 347 152 390 162 391 192 Z" style="fill: #0070C0;"></path>
                                                                        <path d="M 347 182 Q 283 169 217 154 Q 195 148 158 152 Q 145 151 142 141 Q 138 128 148 118 Q 170 100 202 78 Q 212 74 226 82 Q 272 110 486 183 Q 517 193 540 207 Q 553 214 555 224 Q 549 230 537 228 Q 467 210 391 192 L 347 182 Z" style="fill: #0070C0;"></path>
                                                                        <path d="M 708 564 Q 708 694 725 758 Q 738 785 713 803 Q 695 815 665 833 Q 640 849 619 833 Q 613 829 621 812 Q 657 761 657 702 Q 672 227 637 92 Q 627 50 654 -14 Q 661 -32 669 -35 Q 676 -42 684 -33 Q 691 -29 702 -7 Q 712 20 710 52 Q 709 103 708 539 L 708 564 Z" style="fill: #0070C0;"></path>
                                                                        <path d="M 708 539 Q 709 538 715 534 Q 796 491 895 426 Q 916 411 931 411 Q 940 411 944 423 Q 953 439 930 477 Q 903 531 709 564 L 708 564 C 678 569 683 556 708 539 Z" style="fill: #0070C0;"></path>
                                    
                                    
                                                                                                                                                                                                                                                                                                                                                                                                                                                                                                                                                                                                                                                                                                            </g>
                            </svg>