<svg width='83' height='83' >
                                <g transform="translate(3, 70) scale(0.07, -0.07)">
                                    <!-- 先将完整的字以灰色字体绘制完成，层级位于下面 -->
                                                                        <path d="M 377 667 Q 513 703 515 703 Q 525 712 519 720 Q 512 732 482 739 Q 458 742 364 713 Q 232 688 226 686 C 197 679 206 658 236 653 Q 282 644 315 654 Q 328 658 343 659 L 377 667 Z" style="fill: #0070C0;"></path>
                                                                        <path d="M 385 514 Q 397 601 403 615 Q 410 631 404 641 Q 391 657 377 667 C 353 685 335 688 343 659 Q 349 653 341 500 C 339 470 381 484 385 514 Z" style="fill: #0070C0;"></path>
                                                                        <path d="M 475 394 Q 496 443 525 463 Q 541 479 528 496 Q 512 509 465 532 Q 449 539 429 532 Q 407 522 385 514 L 341 500 Q 283 487 226 478 C 196 473 196 465 225 456 Q 228 456 230 455 Q 252 445 284 457 Q 353 470 417 485 Q 433 489 441 483 Q 448 476 445 461 Q 436 424 425 394 C 415 366 463 367 475 394 Z" style="fill: #0070C0;"></path>
                                                                        <path d="M 387 344 Q 433 351 492 357 Q 502 358 504 367 Q 504 376 475 394 C 460 403 454 402 425 394 Q 313 364 226 351 Q 220 351 220 349 C 203 344 203 344 219 331 Q 226 324 236 320 Q 246 317 259 321 Q 292 330 344 337 L 387 344 Z" style="fill: #0070C0;"></path>
                                                                        <path d="M 383 175 Q 392 239 399 289 Q 402 328 394 338 Q 390 342 387 344 C 364 363 340 367 344 337 Q 345 330 346 315 Q 346 299 341 168 C 340 138 379 145 383 175 Z" style="fill: #0070C0;"></path>
                                                                        <path d="M 226 686 Q 214 696 191 708 Q 169 720 161 713 Q 154 706 161 690 Q 179 654 179 589 Q 182 390 161 206 Q 158 167 136 131 Q 126 116 135 96 Q 144 74 154 66 Q 164 59 181 71 Q 263 134 523 147 Q 545 147 546 158 Q 545 173 517 190 Q 502 202 472 193 Q 423 183 383 175 L 341 168 Q 290 164 232 148 Q 222 145 217 148 Q 211 149 211 166 Q 215 245 219 331 L 220 349 Q 221 401 225 456 L 226 478 Q 229 626 236 653 C 239 677 239 677 226 686 Z" style="fill: #0070C0;"></path>
                                                                        <path d="M 686 489 Q 686 687 704 752 Q 717 779 692 796 Q 676 808 646 825 Q 622 841 601 825 Q 597 821 603 805 Q 639 753 640 690 Q 659 212 618 56 Q 609 13 635 -46 Q 642 -64 650 -67 Q 657 -74 664 -66 Q 691 -42 690 17 Q 687 66 686 459 L 686 489 Z" style="fill: #0070C0;"></path>
                                                                        <path d="M 686 459 L 687 459 Q 775 395 881 302 Q 897 283 914 281 Q 923 280 929 291 Q 939 304 923 347 Q 904 408 686 489 C 658 500 661 475 686 459 Z" style="fill: #0070C0;"></path>
                                    
                                    
                                                                                                                                                                                                                                                                                                                                                                                                                                                                                                                                                                                                                                                                                                            </g>
                            </svg>