<svg width='83' height='83' >
                                <g transform="translate(3, 70) scale(0.07, -0.07)">
                                    <!-- 先将完整的字以灰色字体绘制完成，层级位于下面 -->
                                                                        <path d="M 462 624 Q 543 649 600 660 Q 613 661 616 658 Q 629 639 624 589 Q 617 448 586 386 Q 573 356 548 359 Q 520 366 495 377 Q 470 384 488 362 Q 537 319 560 284 Q 585 262 604 285 Q 635 313 655 361 Q 677 416 680 578 Q 680 636 697 666 Q 710 681 703 691 Q 693 703 637 723 Q 615 732 595 716 Q 567 697 443 669 C 414 662 433 615 462 624 Z" style="fill: #0070C0;"></path>
                                                                        <path d="M 394 584 Q 398 434 397 200 Q 397 -4 417 -33 Q 423 -40 431 -38 Q 440 -34 445 -17 Q 463 25 458 202 Q 455 265 454 565 Q 454 583 462 624 C 467 654 467 654 443 669 Q 415 688 400 689 Q 385 695 369 684 Q 359 675 367 664 Q 391 621 394 584 Z" style="fill: #0070C0;"></path>
                                    
                                    
                                                                                                                                                                                                                                    </g>
                            </svg>