<svg width='83' height='83' >
                                <g transform="translate(3, 70) scale(0.07, -0.07)">
                                    <!-- 先将完整的字以灰色字体绘制完成，层级位于下面 -->
                                                                        <path d="M 277 603 Q 305 618 437 692 Q 459 705 485 714 Q 509 721 499 741 Q 487 760 462 779 Q 440 797 425 795 Q 412 795 414 781 Q 414 751 311 658 Q 289 640 265 619 C 242 599 251 589 277 603 Z" style="fill: #0070C0;"></path>
                                                                        <path d="M 265 619 Q 241 641 219 653 Q 198 660 188 654 Q 176 647 186 630 Q 231 534 206 324 Q 197 281 162 234 Q 149 216 158 191 Q 170 161 185 149 Q 200 140 213 159 Q 234 199 432 367 Q 451 383 456 393 Q 460 405 449 404 Q 430 403 269 297 Q 262 291 259 300 Q 272 430 271 532 Q 270 563 276 588 Q 279 595 277 603 L 265 619 Z" style="fill: #0070C0;"></path>
                                                                        <path d="M 597 559 Q 694 593 767 608 Q 783 611 787 606 Q 800 587 796 536 Q 790 391 759 327 Q 746 296 718 298 Q 699 302 681 308 Q 654 318 672 291 Q 712 245 729 210 Q 756 186 776 210 Q 810 240 832 290 Q 857 348 860 522 Q 861 583 880 615 Q 892 630 885 640 Q 875 650 819 670 Q 797 677 778 662 Q 730 631 583 597 C 554 590 569 549 597 559 Z" style="fill: #0070C0;"></path>
                                                                        <path d="M 583 597 Q 552 619 535 622 Q 522 626 504 617 Q 494 608 503 597 Q 524 545 527 533 Q 527 -40 533 -59 Q 536 -71 541 -77 Q 547 -84 555 -82 Q 564 -78 569 -61 Q 588 -16 586 151 Q 582 218 588 479 Q 589 507 592 523 Q 595 542 597 559 C 600 585 600 585 583 597 Z" style="fill: #0070C0;"></path>
                                    
                                    
                                                                                                                                                                                                                                                                                                                                                                                            </g>
                            </svg>