<svg width='83' height='83' >
                                <g transform="translate(3, 70) scale(0.07, -0.07)">
                                    <!-- 先将完整的字以灰色字体绘制完成，层级位于下面 -->
                                                                        <path d="M 364 648 Q 394 644 429 650 Q 586 675 751 701 Q 826 716 837 725 Q 849 734 843 745 Q 836 761 799 771 Q 763 781 666 751 Q 498 709 337 697 C 307 695 334 651 364 648 Z" style="fill: #0070C0;"></path>
                                                                        <path d="M 337 697 Q 292 727 262 718 Q 240 709 257 690 Q 288 657 288 623 Q 289 472 270 371 Q 237 178 109 54 Q 94 41 77 24 Q 64 15 61 11 Q 57 4 75 4 Q 111 4 204 90 Q 297 184 334 399 Q 343 466 349 566 Q 350 605 364 648 C 372 677 363 682 337 697 Z" style="fill: #0070C0;"></path>
                                    
                                    
                                                                                                                                                                                                                                    </g>
                            </svg>