<svg width='83' height='83' >
                                <g transform="translate(3, 70) scale(0.07, -0.07)">
                                    <!-- 先将完整的字以灰色字体绘制完成，层级位于下面 -->
                                                                        <path d="M 470 744 Q 498 782 523 809 Q 535 821 521 838 Q 479 874 456 876 Q 439 878 441 858 Q 441 759 328 649 Q 322 647 278 604 Q 272 593 277 591 Q 290 586 331 610 Q 400 651 453 719 L 470 744 Z" style="fill: #0070C0;"></path>
                                                                        <path d="M 519 563 Q 551 590 595 629 Q 629 661 662 682 L 711 712 Q 722 719 718 729 Q 711 743 660 780 Q 649 784 625 778 L 593 770 Q 477 745 470 744 C 441 738 424 726 453 719 Q 460 716 474 715 Q 500 715 583 725 L 596 724 Q 596 723 598 723 L 598 721 Q 600 717 593 707 Q 534 623 496 580 Q 478 560 476 555 C 459 531 496 544 519 563 Z" style="fill: #0070C0;"></path>
                                                                        <path d="M 329 484 Q 337 484 347 486 Q 498 538 739 552 Q 790 557 796 563 Q 799 570 793 577 L 785 585 Q 736 615 703 608 Q 635 589 519 563 L 476 555 L 310 521 C 281 515 299 481 329 484 Z" style="fill: #0070C0;"></path>
                                                                        <path d="M 310 521 Q 308 523 305 525 Q 272 545 249 541 Q 245 541 241 539 Q 225 533 233 517 Q 240 504 245 484 Q 269 400 239 272 Q 226 225 205 184 Q 170 116 100 51 Q 58 13 55 9 Q 41 -2 55 -4 Q 71 -3 99 12 Q 157 42 198 88 Q 243 133 263 182 Q 300 294 304 316 Q 304 339 306 365 Q 313 449 329 484 C 337 504 335 505 310 521 Z" style="fill: #0070C0;"></path>
                                    
                                    
                                                                                                                                                                                                                                                                                                                                                                                            </g>
                            </svg>