<svg width='83' height='83' >
                                <g transform="translate(3, 70) scale(0.07, -0.07)">
                                    <!-- 先将完整的字以灰色字体绘制完成，层级位于下面 -->
                                                                        <path d="M 341 691 Q 386 678 449 687 Q 755 739 766 749 Q 776 758 771 767 Q 764 780 733 789 Q 700 796 601 765 Q 459 734 340 723 Q 330 722 327 720 C 298 713 312 698 341 691 Z" style="fill: #0070C0;"></path>
                                                                        <path d="M 327 720 Q 312 733 290 744 Q 271 756 257 751 Q 244 744 251 729 Q 269 695 263 620 Q 262 614 261 606 Q 246 434 197 307 Q 152 199 68 80 Q 62 73 60 67 Q 57 55 68 57 Q 102 63 191 188 Q 204 212 219 238 Q 295 397 317 575 Q 330 662 341 691 C 346 706 346 706 327 720 Z" style="fill: #0070C0;"></path>
                                                                        <path d="M 610 489 Q 694 504 838 515 Q 848 514 859 527 Q 860 540 837 552 Q 795 577 735 558 Q 573 527 358 503 Q 327 500 350 481 Q 386 451 416 457 Q 480 470 559 481 L 610 489 Z" style="fill: #0070C0;"></path>
                                                                        <path d="M 547 116 Q 495 129 443 144 Q 430 145 431 138 Q 432 131 443 123 Q 543 53 582 7 Q 598 -9 613 5 Q 649 42 648 115 Q 641 199 640 368 Q 641 407 652 433 Q 662 452 644 466 Q 628 479 610 489 C 584 505 541 505 559 481 Q 587 453 586 390 Q 592 231 585 149 Q 584 127 571 118 Q 562 111 547 116 Z" style="fill: #0070C0;"></path>
                                    
                                    
                                                                                                                                                                                                                                                                                                                                                                                            </g>
                            </svg>