<svg width='83' height='83' >
                                <g transform="translate(3, 70) scale(0.07, -0.07)">
                                    <!-- 先将完整的字以灰色字体绘制完成，层级位于下面 -->
                                                                        <path d="M 337 680 Q 385 665 445 673 Q 748 724 765 728 Q 777 732 781 735 Q 791 742 786 752 Q 779 765 750 773 Q 720 780 618 750 Q 449 714 340 709 Q 334 709 330 706 C 301 699 308 688 337 680 Z" style="fill: #0070C0;"></path>
                                                                        <path d="M 330 706 Q 314 722 286 735 Q 267 747 253 742 Q 240 735 247 720 Q 268 690 264 628 Q 245 403 204 286 Q 200 277 197 268 Q 158 169 64 24 Q 58 17 56 11 Q 53 -1 64 1 Q 98 7 183 134 Q 201 164 219 198 Q 294 354 316 560 Q 325 659 337 680 C 342 696 342 696 330 706 Z" style="fill: #0070C0;"></path>
                                                                        <path d="M 355 550 Q 322 543 346 529 Q 382 511 472 531 Q 508 540 546 548 Q 571 555 576 558 Q 583 565 579 573 Q 572 583 545 590 Q 517 594 491 582 Q 463 572 431 563 Q 397 556 355 550 Z" style="fill: #0070C0;"></path>
                                                                        <path d="M 368 423 Q 358 427 331 431 Q 321 434 318 429 Q 314 425 321 411 Q 345 366 361 293 Q 365 271 378 257 Q 394 239 398 253 Q 399 262 400 274 L 396 304 Q 381 376 378 399 C 375 421 375 421 368 423 Z" style="fill: #0070C0;"></path>
                                                                        <path d="M 536 330 Q 552 390 573 409 Q 592 431 573 443 Q 557 453 534 468 Q 516 480 476 454 Q 424 436 368 423 C 339 416 349 390 378 399 Q 396 405 475 424 Q 502 430 508 420 Q 514 414 493 332 C 486 303 528 301 536 330 Z" style="fill: #0070C0;"></path>
                                                                        <path d="M 522 295 Q 532 298 550 299 Q 560 300 561 309 Q 561 316 536 330 L 493 332 Q 489 332 488 331 Q 437 315 396 304 C 367 296 370 276 400 274 Q 407 273 416 275 Q 441 282 490 290 L 522 295 Z" style="fill: #0070C0;"></path>
                                                                        <path d="M 316 207 Q 349 129 367 123 Q 377 119 388 131 Q 392 141 391 161 Q 387 179 368 194 Q 340 221 327 228 Q 320 232 316 222 Q 312 216 316 207 Z" style="fill: #0070C0;"></path>
                                                                        <path d="M 486 136 Q 513 182 529 214 Q 536 230 550 249 Q 562 259 554 268 Q 547 281 522 295 C 496 310 478 317 490 290 Q 490 289 492 286 Q 502 256 466 152 Q 462 139 460 129 C 454 100 471 110 486 136 Z" style="fill: #0070C0;"></path>
                                                                        <path d="M 460 129 Q 276 86 240 88 Q 228 87 226 78 Q 223 65 231 57 Q 252 41 282 21 Q 292 17 304 25 Q 349 55 508 112 Q 538 122 560 136 Q 573 143 574 151 Q 570 157 557 155 Q 523 146 486 136 L 460 129 Z" style="fill: #0070C0;"></path>
                                                                        <path d="M 811 443 Q 824 449 908 459 Q 918 458 926 471 Q 927 481 905 491 Q 868 512 811 488 L 760 475 Q 724 468 611 447 Q 584 443 606 427 Q 639 403 664 411 Q 706 423 761 433 L 811 443 Z" style="fill: #0070C0;"></path>
                                                                        <path d="M 761 433 Q 764 318 769 114 Q 769 95 759 87 Q 749 80 720 87 Q 689 94 657 101 Q 624 111 627 101 Q 628 94 650 80 Q 729 31 751 1 Q 776 -35 794 -34 Q 809 -35 822 1 Q 837 47 832 119 Q 814 281 811 443 L 811 488 Q 812 573 824 618 Q 840 649 784 669 Q 750 687 731 679 Q 713 672 730 650 Q 752 623 755 589 Q 756 576 760 475 L 761 433 Z" style="fill: #0070C0;"></path>
                                                                        <path d="M 616 307 Q 641 282 670 250 Q 680 238 695 238 Q 704 238 709 249 Q 713 261 708 287 Q 701 320 615 348 Q 602 352 596 351 Q 592 347 592 336 Q 593 326 616 307 Z" style="fill: #0070C0;"></path>
                                    
                                    
                                                                                                                                                                                                                                                                                                                                                                                                                                                                                                                                                                                                                                                                                                                                                                                                                                                                                                                                                                                                                            </g>
                            </svg>