<svg width='83' height='83' >
                                <g transform="translate(3, 70) scale(0.07, -0.07)">
                                    <!-- 先将完整的字以灰色字体绘制完成，层级位于下面 -->
                                                                        <path d="M 440 550 Q 268 249 204 207 Q 147 174 163 120 Q 173 90 190 89 Q 197 90 219 104 Q 336 173 638 205 Q 675 209 735 210 C 765 211 746 240 716 240 Q 515 240 306 198 Q 258 189 286 224 Q 316 276 403 396 Q 536 583 565 605 Q 575 615 582 624 Q 586 640 562 660 Q 516 693 483 695 Q 465 695 457 687 Q 453 678 464 667 Q 471 655 475 633 Q 474 611 440 550 Z" style="fill: #0070C0;"></path>
                                                                        <path d="M 735 210 Q 760 170 787 123 Q 799 98 814 89 Q 823 85 834 94 Q 850 106 847 155 Q 848 230 640 401 Q 633 408 626 396 Q 622 381 631 368 Q 671 311 716 240 L 735 210 Z" style="fill: #0070C0;"></path>
                                    
                                    
                                                                                                                                                                                                                                    </g>
                            </svg>