<svg width='83' height='83' >
                                <g transform="translate(3, 70) scale(0.07, -0.07)">
                                    <!-- 先将完整的字以灰色字体绘制完成，层级位于下面 -->
                                                                        <path d="M 530 735 Q 575 745 622 752 Q 664 761 670 766 Q 679 773 674 781 Q 668 791 642 799 Q 618 805 536 780 L 477 767 Q 425 758 365 753 Q 331 749 355 733 Q 386 712 460 724 Q 467 725 479 727 L 530 735 Z" style="fill: #0070C0;"></path>
                                                                        <path d="M 314 633 Q 304 637 276 639 Q 263 640 261 635 Q 255 628 265 614 Q 298 559 323 467 Q 329 439 347 422 Q 366 403 370 418 L 372 430 L 370 457 Q 369 467 366 479 Q 342 570 335 601 C 329 629 329 629 314 633 Z" style="fill: #0070C0;"></path>
                                                                        <path d="M 647 461 Q 651 448 664 448 Q 677 449 686 464 Q 696 474 720 527 Q 739 578 777 606 Q 796 621 781 638 Q 765 656 715 685 Q 702 694 615 678 Q 587 678 526 666 L 480 659 Q 455 656 431 651 Q 361 639 314 633 C 284 629 306 595 335 601 Q 339 601 345 602 Q 393 618 480 629 L 525 636 Q 660 657 681 644 Q 688 638 683 613 Q 659 519 647 494 C 637 470 637 470 647 461 Z" style="fill: #0070C0;"></path>
                                                                        <path d="M 523 544 Q 562 551 595 553 Q 617 557 609 569 Q 599 582 575 588 Q 556 591 524 583 L 481 572 Q 448 565 419 556 Q 403 553 422 538 Q 431 532 448 534 Q 464 537 481 539 L 523 544 Z" style="fill: #0070C0;"></path>
                                                                        <path d="M 519 446 Q 588 456 647 461 C 677 464 675 483 647 494 Q 635 506 520 482 L 479 475 Q 422 466 370 457 C 340 452 342 427 372 430 Q 376 430 479 441 L 519 446 Z" style="fill: #0070C0;"></path>
                                                                        <path d="M 516 365 Q 517 407 519 446 L 520 482 Q 521 513 523 544 L 524 583 Q 524 610 525 636 L 526 666 Q 527 688 528 711 Q 529 724 530 735 L 536 780 Q 543 804 546 820 Q 550 830 530 845 Q 496 863 472 867 Q 456 870 448 861 Q 441 854 449 839 Q 476 800 477 767 L 479 727 Q 479 694 480 659 L 480 629 Q 481 601 481 572 L 481 539 Q 480 508 479 475 L 479 441 Q 478 402 476 359 C 475 329 515 335 516 365 Z" style="fill: #0070C0;"></path>
                                                                        <path d="M 585 350 Q 595 354 609 356 Q 630 360 649 367 C 677 377 665 390 635 385 Q 577 376 516 365 L 476 359 Q 415 352 349 342 Q 327 338 292 345 Q 282 345 278 337 Q 274 327 281 319 Q 297 303 322 283 Q 329 279 340 284 Q 407 315 555 343 L 585 350 Z" style="fill: #0070C0;"></path>
                                                                        <path d="M 649 367 Q 674 342 687 339 Q 699 336 705 352 Q 708 364 700 382 Q 688 409 623 431 Q 616 432 613 423 Q 610 411 635 385 L 649 367 Z" style="fill: #0070C0;"></path>
                                    
                                    
                                                                                                                                                                                                                                                                                                                                                                                                                                                                                                                                                                                                                                                                                                            </g>
                            </svg>