<svg width='83' height='83' >
                                <g transform="translate(3, 70) scale(0.07, -0.07)">
                                    <!-- 先将完整的字以灰色字体绘制完成，层级位于下面 -->
                                                                        <path d="M 532 313 Q 539 325 549 337 Q 616 430 658 564 Q 673 612 708 643 Q 730 662 711 678 Q 686 696 653 704 Q 626 716 551 686 Q 404 646 283 635 Q 262 635 258 629 Q 254 616 280 599 Q 311 578 384 603 Q 568 658 589 652 Q 601 652 601 632 Q 568 473 491 354 L 468 322 Q 438 288 405 254 Q 317 175 148 91 Q 130 82 140 76 Q 147 72 175 81 Q 400 151 503 276 L 532 313 Z" style="fill: #0070C0;"></path>
                                                                        <path d="M 503 276 Q 669 62 732 58 Q 844 49 936 57 Q 984 61 980 74 Q 979 80 932 96 Q 749 153 725 166 Q 623 221 532 313 L 491 354 Q 428 423 364 503 Q 327 549 289 553 Q 270 554 265 550 Q 262 543 278 530 Q 344 485 468 322 L 503 276 Z" style="fill: #0070C0;"></path>
                                    
                                    
                                                                                                                                                                                                                                    </g>
                            </svg>