<svg width='83' height='83' >
                                <g transform="translate(3, 70) scale(0.07, -0.07)">
                                    <!-- 先将完整的字以灰色字体绘制完成，层级位于下面 -->
                                                                        <path d="M 485 583 Q 585 604 691 625 Q 767 643 778 653 Q 788 662 783 671 Q 776 684 744 692 Q 713 699 679 686 Q 592 656 500 632 L 433 618 Q 357 605 271 596 Q 231 589 260 571 Q 302 546 388 564 Q 401 567 417 569 L 485 583 Z" style="fill: #0070C0;"></path>
                                                                        <path d="M 419 422 Q 458 500 485 583 L 500 632 Q 521 707 553 759 Q 563 769 554 781 Q 538 805 502 830 Q 481 846 461 844 Q 436 841 450 817 Q 474 777 466 743 Q 450 676 433 618 L 417 569 Q 318 290 132 130 Q 113 115 92 98 Q 77 91 74 87 Q 70 80 87 78 Q 97 77 144 103 Q 178 119 236 169 Q 317 239 404 392 L 419 422 Z" style="fill: #0070C0;"></path>
                                                                        <path d="M 594 174 Q 642 252 684 373 Q 697 404 718 425 Q 739 443 724 458 Q 709 471 675 482 Q 651 488 570 456 Q 452 428 419 422 C 390 416 374 396 404 392 Q 441 382 488 397 Q 582 428 600 428 Q 625 425 620 397 Q 602 313 552 212 L 529 178 Q 447 76 288 25 Q 273 19 286 11 Q 293 4 344 8 Q 464 23 565 134 L 594 174 Z" style="fill: #0070C0;"></path>
                                                                        <path d="M 565 134 Q 694 -14 741 -16 Q 832 -19 906 -10 Q 943 -6 941 5 Q 941 8 757 69 Q 693 96 594 174 L 552 212 Q 516 248 480 288 Q 443 328 409 328 Q 391 329 387 324 Q 386 318 401 307 Q 446 279 529 178 L 565 134 Z" style="fill: #0070C0;"></path>
                                    
                                    
                                                                                                                                                                                                                                                                                                                                                                                            </g>
                            </svg>