<svg width='83' height='83' >
                                <g transform="translate(3, 70) scale(0.07, -0.07)">
                                    <!-- 先将完整的字以灰色字体绘制完成，层级位于下面 -->
                                                                        <path d="M 375 660 Q 541 687 621 716 Q 676 729 720 732 Q 739 731 745 739 Q 751 751 739 765 Q 681 819 639 824 Q 630 820 628 808 Q 624 766 364 682 C 335 673 345 655 375 660 Z" style="fill: #0070C0;"></path>
                                                                        <path d="M 354 470 Q 361 537 367 618 Q 373 657 375 660 C 378 674 378 674 364 682 Q 363 683 359 685 Q 308 713 292 710 Q 270 707 287 683 Q 317 629 293 416 Q 283 331 236 230 Q 197 148 97 61 Q 81 48 78 41 Q 75 34 88 34 Q 106 33 128 48 Q 183 82 216 117 Q 310 213 344 407 Q 347 425 350 441 L 354 470 Z" style="fill: #0070C0;"></path>
                                                                        <path d="M 504 221 Q 414 122 256 73 Q 241 67 254 59 Q 261 52 314 56 Q 444 71 538 179 L 570 217 Q 622 296 667 425 Q 680 458 702 479 Q 724 498 708 513 Q 693 526 657 538 Q 630 545 557 514 Q 463 484 354 470 C 324 466 320 446 350 441 Q 393 428 449 445 Q 558 479 578 479 Q 606 480 603 450 Q 573 318 528 256 L 504 221 Z" style="fill: #0070C0;"></path>
                                                                        <path d="M 538 179 Q 596 112 697 23 Q 731 -4 781 6 Q 847 16 895 24 Q 911 27 925 33 Q 932 42 919 51 Q 901 60 762 99 Q 666 127 570 217 L 528 256 Q 488 296 445 343 Q 421 370 382 376 Q 372 377 364 372 Q 360 365 368 359 Q 414 329 482 248 Q 492 236 504 221 L 538 179 Z" style="fill: #0070C0;"></path>
                                    
                                    
                                                                                                                                                                                                                                                                                                                                                                                            </g>
                            </svg>