<svg width='83' height='83' >
                                <g transform="translate(3, 70) scale(0.07, -0.07)">
                                    <!-- 先将完整的字以灰色字体绘制完成，层级位于下面 -->
                                                                        <path d="M 441 842 Q 429 842 427 835 Q 424 826 435 817 Q 513 745 550 740 Q 559 740 564 744 Q 568 750 570 767 Q 571 783 563 799 Q 536 841 441 842 Z" style="fill: #0070C0;"></path>
                                                                        <path d="M 600 663 Q 658 666 802 667 Q 823 668 827 676 Q 833 688 816 702 Q 764 741 726 732 Q 606 705 216 654 Q 195 653 211 635 Q 244 605 280 615 Q 328 628 382 638 L 425 645 Q 483 657 561 660 L 600 663 Z" style="fill: #0070C0;"></path>
                                                                        <path d="M 382 638 Q 406 590 387 475 Q 365 430 401 388 L 402 387 Q 412 375 421 388 Q 436 410 443 528 Q 444 597 447 614 Q 448 630 435 638 Q 431 642 425 645 C 400 661 370 665 382 638 Z" style="fill: #0070C0;"></path>
                                                                        <path d="M 561 660 Q 573 645 564 516 Q 552 429 598 390 Q 598 391 599 390 Q 609 389 614 401 Q 620 419 621 490 Q 614 595 621 634 Q 622 644 617 650 Q 608 657 600 663 C 576 681 550 688 561 660 Z" style="fill: #0070C0;"></path>
                                                                        <path d="M 287 566 Q 253 505 210 453 Q 186 422 199 390 Q 203 371 225 381 Q 283 417 305 508 Q 314 539 310 563 Q 306 572 301 574 Q 292 574 287 566 Z" style="fill: #0070C0;"></path>
                                                                        <path d="M 668 549 Q 726 509 798 447 Q 816 431 830 428 Q 839 428 845 439 Q 855 452 837 492 Q 819 543 669 577 Q 666 578 665 578 Q 655 582 655 570 Q 656 557 668 549 Z" style="fill: #0070C0;"></path>
                                                                        <path d="M 557 131 Q 602 183 642 258 Q 660 288 683 305 Q 705 321 693 337 Q 680 352 647 367 Q 623 379 546 353 Q 444 328 325 321 Q 309 320 303 312 Q 299 305 319 295 Q 359 277 416 292 Q 546 323 568 319 Q 589 318 584 295 Q 559 217 515 163 L 487 134 Q 402 53 206 12 Q 190 9 202 -1 Q 209 -5 266 -3 Q 338 1 420 36 Q 478 61 524 98 L 557 131 Z" style="fill: #0070C0;"></path>
                                                                        <path d="M 524 98 Q 663 -41 712 -43 Q 784 -43 875 -22 Q 912 -15 908 -4 Q 907 0 869 10 Q 656 58 583 113 Q 570 122 557 131 L 515 163 Q 484 188 451 218 Q 411 255 376 252 Q 358 252 356 246 Q 355 239 370 230 Q 409 209 487 134 L 524 98 Z" style="fill: #0070C0;"></path>
                                    
                                    
                                                                                                                                                                                                                                                                                                                                                                                                                                                                                                                                                                                                                                                                                                            </g>
                            </svg>