<svg width='83' height='83' >
                                <g transform="translate(3, 70) scale(0.07, -0.07)">
                                    <!-- 先将完整的字以灰色字体绘制完成，层级位于下面 -->
                                                                        <path d="M 343 702 Q 330 708 297 713 Q 284 717 279 711 Q 272 704 282 685 Q 319 607 340 481 Q 344 442 365 417 Q 386 392 392 410 Q 396 423 396 440 L 393 479 Q 369 596 362 665 C 359 695 359 696 343 702 Z" style="fill: #0070C0;"></path>
                                                                        <path d="M 681 517 Q 714 632 756 670 Q 777 691 759 712 Q 675 782 614 752 Q 509 719 343 702 C 313 699 332 661 362 665 Q 372 665 606 702 Q 633 708 643 696 Q 656 684 653 659 Q 640 580 622 518 C 614 489 672 488 681 517 Z" style="fill: #0070C0;"></path>
                                                                        <path d="M 396 440 Q 402 440 409 441 Q 502 460 701 474 Q 713 475 715 485 Q 716 494 682 517 L 681 517 L 622 518 Q 495 491 393 479 C 363 475 366 438 396 440 Z" style="fill: #0070C0;"></path>
                                                                        <path d="M 347 312 Q 329 225 118 70 Q 93 54 124 56 Q 203 60 352 196 Q 373 223 426 270 Q 439 283 437 293 Q 433 309 405 318 Q 374 331 360 328 Q 351 327 347 312 Z" style="fill: #0070C0;"></path>
                                                                        <path d="M 612 320 Q 696 230 794 102 Q 810 77 826 71 Q 836 68 845 79 Q 861 92 851 143 Q 845 194 745 266 Q 712 299 616 355 Q 607 362 603 348 Q 602 333 612 320 Z" style="fill: #0070C0;"></path>
                                    
                                    
                                                                                                                                                                                                                                                                                                                                                                                                                                                                        </g>
                            </svg>