<svg width='83' height='83' >
                                <g transform="translate(3, 70) scale(0.07, -0.07)">
                                    <!-- 先将完整的字以灰色字体绘制完成，层级位于下面 -->
                                                                        <path d="M 139 540 Q 126 547 96 554 Q 83 558 79 553 Q 72 547 80 530 Q 110 451 120 325 Q 121 288 140 261 Q 156 237 164 253 Q 174 278 169 329 L 165 363 Q 152 480 151 511 C 150 535 150 535 139 540 Z" style="fill: #0070C0;"></path>
                                                                        <path d="M 312 394 Q 328 488 356 518 Q 378 546 354 560 Q 288 593 287 593 Q 277 593 266 587 Q 230 563 139 540 C 110 533 123 501 151 511 Q 184 523 243 534 Q 268 541 274 530 Q 284 523 276 481 Q 269 438 258 389 C 252 360 307 364 312 394 Z" style="fill: #0070C0;"></path>
                                                                        <path d="M 169 329 Q 176 329 184 331 Q 230 344 334 357 Q 344 358 345 368 Q 345 375 313 394 L 312 394 L 258 389 Q 204 373 165 363 C 136 355 139 327 169 329 Z" style="fill: #0070C0;"></path>
                                                                        <path d="M 431 498 Q 446 386 338 250 Q 335 249 334 245 Q 304 206 227 139 Q 220 130 226 128 Q 235 125 246 130 Q 303 155 350 196 Q 432 262 491 412 Q 501 437 514 460 Q 523 470 516 481 Q 509 491 476 509 Q 452 521 443 518 Q 428 514 431 498 Z" style="fill: #0070C0;"></path>
                                                                        <path d="M 493 711 Q 560 660 575 634 Q 621 531 650 444 Q 681 341 745 214 Q 757 190 825 169 Q 969 135 985 136 Q 985 137 987 137 Q 1003 141 994 155 Q 984 167 962 177 Q 812 273 771 330 Q 707 426 660 549 Q 612 681 570 713 Q 543 731 514 732 Q 499 738 487 733 Q 480 729 482 722 Q 483 716 493 711 Z" style="fill: #0070C0;"></path>
                                    
                                    
                                                                                                                                                                                                                                                                                                                                                                                                                                                                        </g>
                            </svg>