<svg width='83' height='83' >
                                <g transform="translate(3, 70) scale(0.07, -0.07)">
                                    <!-- 先将完整的字以灰色字体绘制完成，层级位于下面 -->
                                                                        <path d="M 164 557 Q 151 564 120 570 Q 107 574 103 568 Q 96 562 104 545 Q 134 475 147 362 Q 148 328 168 305 Q 184 281 191 297 Q 197 312 197 336 L 195 371 Q 179 492 176 526 C 173 553 173 553 164 557 Z" style="fill: #0070C0;"></path>
                                                                        <path d="M 347 402 Q 366 502 393 532 Q 418 560 392 575 Q 370 587 341 606 Q 317 618 281 593 Q 233 571 164 557 C 135 551 147 519 176 526 Q 255 545 276 550 Q 301 556 308 545 Q 318 538 309 496 Q 302 450 291 398 C 285 369 341 373 347 402 Z" style="fill: #0070C0;"></path>
                                                                        <path d="M 197 336 Q 206 335 219 338 Q 265 351 369 363 Q 379 364 381 374 Q 381 383 347 402 C 332 411 320 407 291 398 Q 239 382 195 371 C 166 364 167 337 197 336 Z" style="fill: #0070C0;"></path>
                                                                        <path d="M 542 277 Q 666 373 826 606 Q 839 625 848 633 Q 858 639 856 651 Q 855 663 840 678 Q 804 714 764 710 Q 754 709 756 693 Q 766 585 587 384 Q 580 378 541 339 L 488 293 Q 439 251 366 194 Q 356 188 368 184 Q 398 187 491 243 L 542 277 Z" style="fill: #0070C0;"></path>
                                                                        <path d="M 967 104 Q 985 123 961 157 Q 933 215 918 296 Q 917 308 907 316 Q 895 320 894 295 Q 873 163 869 152 Q 860 136 827 129 Q 773 114 701 116 Q 647 115 613 127 Q 571 140 550 193 Q 546 214 542 277 L 541 339 Q 541 567 570 654 Q 573 673 579 680 Q 588 704 567 719 Q 536 747 494 757 Q 473 761 464 751 Q 455 741 463 731 Q 487 710 490 636 Q 481 437 488 293 L 491 243 Q 492 137 564 90 Q 652 35 858 60 Q 874 64 888 67 Q 943 83 967 104 Z" style="fill: #0070C0;"></path>
                                    
                                    
                                                                                                                                                                                                                                                                                                                                                                                                                                                                        </g>
                            </svg>