<svg width='83' height='83' >
                                <g transform="translate(3, 70) scale(0.07, -0.07)">
                                    <!-- 先将完整的字以灰色字体绘制完成，层级位于下面 -->
                                                                        <path d="M 488 525 Q 641 550 907 550 Q 931 551 936 561 Q 943 574 923 591 Q 853 639 785 619 Q 682 598 516 570 Q 509 570 505 568 L 444 559 Q 302 540 146 518 Q 121 515 140 495 Q 158 479 178 473 Q 203 467 222 473 Q 318 501 428 517 L 488 525 Z" style="fill: #0070C0;"></path>
                                                                        <path d="M 374 313 Q 446 427 488 525 L 505 568 Q 527 628 536 675 Q 543 706 561 736 Q 577 755 555 769 Q 527 791 486 802 Q 467 808 457 801 Q 450 795 456 776 Q 493 703 444 559 L 428 517 Q 323 277 127 118 Q 64 73 61 62 Q 60 55 77 63 Q 224 120 346 272 L 374 313 Z" style="fill: #0070C0;"></path>
                                                                        <path d="M 404 303 Q 394 309 374 313 C 345 320 336 300 346 272 Q 374 196 388 80 Q 389 40 411 13 Q 430 -12 436 5 Q 442 21 442 45 L 439 83 Q 430 110 414 266 C 411 296 410 300 404 303 Z" style="fill: #0070C0;"></path>
                                                                        <path d="M 722 128 Q 749 246 791 284 Q 810 306 792 327 Q 774 342 707 370 Q 686 377 663 367 Q 566 328 404 303 C 374 298 384 262 414 266 Q 432 266 642 310 Q 667 316 677 306 Q 690 293 688 267 Q 678 191 664 129 C 658 100 715 99 722 128 Z" style="fill: #0070C0;"></path>
                                                                        <path d="M 442 45 Q 449 44 462 46 Q 550 68 742 85 Q 754 86 756 97 Q 756 106 722 128 C 705 139 693 136 664 129 Q 540 98 439 83 C 409 78 412 45 442 45 Z" style="fill: #0070C0;"></path>
                                    
                                    
                                                                                                                                                                                                                                                                                                                                                                                                                                                                        </g>
                            </svg>