<svg width='83' height='83' >
                                <g transform="translate(3, 70) scale(0.07, -0.07)">
                                    <!-- 先将完整的字以灰色字体绘制完成，层级位于下面 -->
                                                                        <path d="M 145 574 L 145 575 Q 133 582 97 589 Q 84 593 81 587 Q 74 581 83 565 Q 114 493 130 378 Q 133 344 152 320 Q 170 298 175 313 Q 182 332 179 365 L 174 400 Q 155 508 151 544 L 145 574 Z" style="fill: #0070C0;"></path>
                                                                        <path d="M 316 433 Q 332 527 360 558 Q 382 586 357 599 Q 336 609 308 627 Q 290 637 244 609 Q 207 593 145 574 C 116 565 122 537 151 544 Q 158 545 166 548 Q 209 561 248 572 Q 273 579 280 569 Q 289 562 280 520 Q 273 477 262 427 C 256 398 311 403 316 433 Z" style="fill: #0070C0;"></path>
                                                                        <path d="M 179 365 Q 225 380 338 397 Q 348 398 349 408 Q 349 415 317 433 L 316 433 L 262 427 Q 213 412 174 400 C 145 391 150 356 179 365 Z" style="fill: #0070C0;"></path>
                                                                        <path d="M 633 292 Q 643 308 656 326 Q 719 419 758 553 Q 771 599 804 630 Q 825 649 806 663 Q 781 679 750 688 Q 726 697 643 666 Q 544 638 434 626 Q 415 626 410 620 Q 406 607 431 591 Q 462 572 530 595 Q 672 641 688 637 Q 701 637 701 616 Q 671 457 596 333 L 566 292 Q 544 267 520 240 Q 439 161 283 78 Q 267 71 276 64 Q 283 60 309 70 Q 510 139 599 246 L 633 292 Z" style="fill: #0070C0;"></path>
                                                                        <path d="M 599 246 Q 729 69 758 56 Q 816 41 959 52 Q 981 53 989 62 Q 995 72 981 76 Q 803 139 746 185 Q 739 192 730 199 Q 685 236 633 292 L 596 333 Q 539 397 475 479 Q 462 503 438 506 Q 410 507 402 499 Q 398 493 408 487 Q 454 459 481 414 Q 524 350 566 292 L 599 246 Z" style="fill: #0070C0;"></path>
                                    
                                    
                                                                                                                                                                                                                                                                                                                                                                                                                                                                        </g>
                            </svg>