<svg width='83' height='83' >
                                <g transform="translate(3, 70) scale(0.07, -0.07)">
                                    <!-- 先将完整的字以灰色字体绘制完成，层级位于下面 -->
                                                                        <path d="M 523 708 Q 535 727 544 733 Q 554 739 552 751 Q 551 763 536 778 Q 500 814 460 810 Q 450 809 452 793 Q 464 685 286 491 Q 238 446 188 400 Q 139 361 70 306 Q 60 300 72 296 Q 147 305 287 423 Q 380 507 506 683 L 523 708 Z" style="fill: #0070C0;"></path>
                                                                        <path d="M 506 683 Q 612 544 747 397 Q 772 373 810 376 Q 942 386 983 395 Q 995 399 997 405 Q 996 414 884 453 Q 776 498 741 522 Q 641 598 523 708 C 501 728 488 707 506 683 Z" style="fill: #0070C0;"></path>
                                                                        <path d="M 347 420 Q 307 413 335 395 Q 377 368 440 384 Q 513 397 591 413 Q 625 420 631 425 Q 641 434 635 443 Q 628 456 596 464 Q 571 470 483 443 Q 413 427 347 420 Z" style="fill: #0070C0;"></path>
                                                                        <path d="M 322 267 Q 309 273 278 277 Q 265 280 261 274 Q 254 267 264 250 Q 300 177 321 56 Q 325 20 346 -4 Q 365 -28 372 -10 Q 378 9 374 40 L 368 79 Q 346 191 340 229 C 335 259 335 262 322 267 Z" style="fill: #0070C0;"></path>
                                                                        <path d="M 660 109 Q 688 202 726 232 Q 747 254 730 275 Q 712 290 645 324 Q 624 331 601 323 Q 495 286 322 267 C 292 264 310 224 340 229 Q 592 271 604 265 Q 607 264 611 260 Q 623 250 620 228 Q 611 167 598 116 C 591 87 651 80 660 109 Z" style="fill: #0070C0;"></path>
                                                                        <path d="M 374 40 Q 381 40 389 41 Q 479 59 673 70 Q 685 71 687 81 Q 687 90 660 109 C 639 125 627 122 598 116 Q 471 89 368 79 C 338 76 344 39 374 40 Z" style="fill: #0070C0;"></path>
                                    
                                    
                                                                                                                                                                                                                                                                                                                                                                                                                                                                                                                                                    </g>
                            </svg>