<svg width='83' height='83' >
                                <g transform="translate(3, 70) scale(0.07, -0.07)">
                                    <!-- 先将完整的字以灰色字体绘制完成，层级位于下面 -->
                                                                        <path d="M 543 642 Q 601 652 664 661 Q 724 671 733 679 Q 743 686 738 696 Q 731 709 703 717 Q 672 724 641 715 Q 592 702 542 688 L 490 678 Q 411 665 320 661 Q 283 657 308 638 Q 350 614 424 625 Q 457 631 492 634 L 543 642 Z" style="fill: #0070C0;"></path>
                                                                        <path d="M 277 523 Q 259 523 257 520 Q 251 513 261 498 Q 289 452 311 376 Q 315 352 331 338 Q 350 319 354 334 Q 355 343 356 354 L 351 388 Q 335 458 330 484 C 324 513 307 524 277 523 Z" style="fill: #0070C0;"></path>
                                                                        <path d="M 703 420 Q 730 474 758 492 Q 777 511 763 530 Q 747 546 693 575 Q 674 584 651 577 Q 596 559 545 547 L 492 538 Q 348 517 277 523 C 247 525 300 479 330 484 Q 387 493 491 509 L 544 516 Q 578 523 613 527 Q 647 534 660 519 Q 667 512 665 497 Q 658 460 648 429 C 639 400 689 393 703 420 Z" style="fill: #0070C0;"></path>
                                                                        <path d="M 356 354 Q 366 351 382 352 Q 422 361 480 366 L 534 371 Q 610 380 713 384 Q 725 385 726 394 Q 727 401 703 420 C 685 435 678 433 648 429 Q 647 429 646 429 Q 591 419 538 409 L 484 401 Q 411 394 351 388 C 321 385 326 359 356 354 Z" style="fill: #0070C0;"></path>
                                                                        <path d="M 480 366 Q 471 293 440 234 L 417 199 Q 351 115 175 31 Q 162 27 158 22 Q 154 16 169 13 Q 227 13 351 78 Q 426 121 461 164 L 486 203 Q 513 249 534 371 L 538 409 Q 542 463 544 516 L 545 547 Q 544 583 543 642 L 542 688 Q 542 737 556 793 Q 560 805 551 812 Q 530 827 493 839 Q 471 846 454 840 Q 435 831 452 814 Q 483 787 486 756 Q 487 716 490 678 L 492 634 Q 493 585 492 538 L 491 509 Q 490 452 484 401 L 480 366 Z" style="fill: #0070C0;"></path>
                                                                        <path d="M 440 234 Q 332 309 314 312 Q 296 321 249 310 Q 236 307 235 299 Q 236 290 252 287 Q 309 287 385 224 Q 400 212 417 199 L 461 164 Q 521 118 557 84 Q 690 -27 743 -33 Q 794 -27 877 -11 Q 919 -2 932 7 Q 954 17 933 24 Q 915 33 755 60 Q 682 72 486 203 L 440 234 Z" style="fill: #0070C0;"></path>
                                    
                                    
                                                                                                                                                                                                                                                                                                                                                                                                                                                                                                                                                    </g>
                            </svg>