<svg width='83' height='83' >
                                <g transform="translate(3, 70) scale(0.07, -0.07)">
                                    <!-- 先将完整的字以灰色字体绘制完成，层级位于下面 -->
                                                                        <path d="M 476 709 Q 680 754 687 759 Q 696 766 691 776 Q 684 788 654 796 Q 623 802 525 768 Q 354 737 334 734 Q 297 727 323 710 Q 363 689 438 702 L 476 709 Z" style="fill: #0070C0;"></path>
                                                                        <path d="M 572 512 Q 671 521 845 520 Q 866 520 871 529 Q 877 542 859 557 Q 796 603 735 583 Q 639 565 487 543 Q 474 542 461 539 L 402 531 Q 282 518 149 500 Q 127 497 144 479 Q 159 464 178 458 Q 200 452 218 458 Q 296 480 383 491 L 442 499 Q 446 505 538 510 L 572 512 Z" style="fill: #0070C0;"></path>
                                                                        <path d="M 461 539 Q 488 605 519 654 Q 528 664 522 675 Q 509 699 476 709 C 448 721 438 725 438 702 Q 437 701 438 697 Q 441 627 402 531 L 383 491 Q 290 341 120 210 Q 98 195 72 175 Q 65 168 71 164 Q 78 161 91 165 Q 179 201 254 260 Q 365 341 442 499 L 461 539 Z" style="fill: #0070C0;"></path>
                                                                        <path d="M 538 510 Q 539 509 543 504 Q 736 266 791 250 Q 869 238 965 253 Q 984 254 987 260 Q 990 267 974 274 Q 922 296 860 317 Q 733 365 572 512 C 550 532 519 533 538 510 Z" style="fill: #0070C0;"></path>
                                                                        <path d="M 354 245 Q 341 251 307 257 Q 294 260 291 255 Q 284 248 293 231 Q 326 164 344 52 Q 348 18 367 -4 Q 386 -26 391 -10 Q 395 5 395 27 L 390 66 Q 371 174 366 210 C 362 240 361 242 354 245 Z" style="fill: #0070C0;"></path>
                                                                        <path d="M 660 91 Q 687 187 726 219 Q 744 238 729 258 Q 711 273 656 299 Q 637 308 614 299 Q 515 263 354 245 C 324 242 336 205 366 210 Q 609 249 614 248 Q 620 247 624 242 Q 636 232 633 208 Q 623 148 609 98 C 601 69 652 62 660 91 Z" style="fill: #0070C0;"></path>
                                                                        <path d="M 395 27 Q 401 27 409 28 Q 494 43 676 50 Q 689 51 690 61 Q 691 70 660 91 L 609 98 Q 608 99 605 98 Q 484 74 390 66 C 360 63 365 25 395 27 Z" style="fill: #0070C0;"></path>
                                    
                                    
                                                                                                                                                                                                                                                                                                                                                                                                                                                                                                                                                                                                                                </g>
                            </svg>