<svg width='83' height='83' >
                                <g transform="translate(3, 70) scale(0.07, -0.07)">
                                    <!-- 先将完整的字以灰色字体绘制完成，层级位于下面 -->
                                                                        <path d="M 117 523 Q 105 529 81 533 Q 68 537 65 532 Q 58 526 66 510 Q 94 443 109 335 Q 110 302 128 280 Q 144 258 151 273 Q 158 292 155 328 L 150 363 Q 135 468 134 495 C 133 517 133 517 117 523 Z" style="fill: #0070C0;"></path>
                                                                        <path d="M 286 380 Q 302 473 328 503 Q 350 530 326 544 Q 260 577 259 577 Q 249 577 238 570 Q 204 548 117 523 C 88 515 105 488 134 495 Q 140 496 150 499 Q 187 509 220 517 Q 242 523 247 514 Q 254 508 235 386 C 230 356 281 350 286 380 Z" style="fill: #0070C0;"></path>
                                                                        <path d="M 155 328 Q 161 328 168 330 Q 208 340 297 349 Q 307 350 309 360 Q 309 367 286 380 L 235 386 Q 232 386 231 385 Q 186 372 150 363 C 121 356 125 326 155 328 Z" style="fill: #0070C0;"></path>
                                                                        <path d="M 367 415 Q 349 342 319 273 Q 304 231 326 204 Q 336 186 357 202 Q 376 223 387 257 Q 406 312 402 360 Q 403 394 391 419 Q 385 426 379 427 Q 370 424 367 415 Z" style="fill: #0070C0;"></path>
                                                                        <path d="M 927 241 Q 921 254 897 270 Q 860 295 759 384 Q 752 391 745 390 Q 742 389 745 381 Q 769 336 793 286 Q 803 265 792 250 Q 750 217 642 233 Q 558 246 527 330 Q 509 382 502 439 Q 498 466 480 479 Q 464 491 457 484 L 475 375 Q 490 266 548 210 Q 635 137 818 174 Q 828 177 839 180 Q 875 192 915 222 Q 930 231 927 241 Z" style="fill: #0070C0;"></path>
                                                                        <path d="M 525 563 Q 558 532 593 497 Q 608 481 626 481 Q 638 482 644 497 Q 651 513 641 548 Q 632 585 521 618 Q 503 622 496 619 Q 490 615 491 600 Q 495 587 525 563 Z" style="fill: #0070C0;"></path>
                                                                        <path d="M 772 586 Q 827 544 895 482 Q 913 463 929 460 Q 938 460 945 471 Q 955 486 939 529 Q 921 583 774 617 Q 771 618 770 618 Q 760 622 760 609 Q 760 596 772 586 Z" style="fill: #0070C0;"></path>
                                    
                                    
                                                                                                                                                                                                                                                                                                                                                                                                                                                                                                                                                                                                                                </g>
                            </svg>