<svg width='83' height='83' >
                                <g transform="translate(3, 70) scale(0.07, -0.07)">
                                    <!-- 先将完整的字以灰色字体绘制完成，层级位于下面 -->
                                                                        <path d="M 116 546 Q 104 552 78 557 Q 66 561 63 556 Q 56 550 64 535 Q 95 462 108 343 Q 109 309 129 283 Q 145 262 151 277 Q 158 296 154 333 L 149 367 Q 131 484 128 518 C 126 542 126 542 116 546 Z" style="fill: #0070C0;"></path>
                                                                        <path d="M 286 391 Q 302 494 330 525 Q 352 550 329 564 Q 310 574 282 592 Q 263 602 220 576 Q 160 555 116 546 C 87 540 99 511 128 518 Q 135 519 144 522 Q 186 532 222 541 Q 247 545 252 537 Q 261 530 254 490 Q 247 445 237 392 C 231 363 281 361 286 391 Z" style="fill: #0070C0;"></path>
                                                                        <path d="M 154 333 Q 160 333 168 335 Q 210 345 302 357 Q 312 358 313 368 Q 313 375 286 391 C 272 400 266 398 237 392 Q 236 392 235 392 Q 186 376 149 367 C 120 360 124 331 154 333 Z" style="fill: #0070C0;"></path>
                                                                        <path d="M 717 538 Q 599 529 474 492 Q 440 483 458 510 Q 476 541 527 615 Q 606 730 624 743 Q 633 752 638 760 Q 642 775 619 791 Q 579 818 549 818 Q 533 817 527 810 Q 524 803 534 793 Q 552 769 528 710 Q 417 518 393 494 Q 341 469 360 416 Q 370 391 385 392 Q 391 393 408 405 Q 495 471 669 502 Q 681 505 734 513 C 764 518 747 541 717 538 Z" style="fill: #0070C0;"></path>
                                                                        <path d="M 734 513 Q 785 432 793 429 Q 800 426 809 434 Q 822 444 819 485 Q 815 542 673 637 Q 666 644 662 633 Q 659 621 667 610 Q 691 579 717 538 L 734 513 Z" style="fill: #0070C0;"></path>
                                                                        <path d="M 448 362 Q 454 221 275 73 Q 218 33 227 27 Q 255 17 348 84 Q 432 142 494 279 Q 506 301 520 323 Q 527 332 523 341 Q 517 351 489 369 Q 470 381 460 379 Q 447 376 448 362 Z" style="fill: #0070C0;"></path>
                                                                        <path d="M 976 76 Q 964 107 951 197 Q 952 213 945 218 Q 939 222 934 204 Q 903 110 883 81 Q 871 65 835 57 Q 753 42 681 71 Q 654 86 647 104 Q 619 167 656 359 Q 665 392 609 416 Q 594 420 585 415 Q 578 411 583 391 Q 596 348 592 305 Q 579 131 593 83 Q 597 58 619 36 Q 701 -34 875 -5 Q 881 -4 888 -2 Q 928 10 968 37 Q 987 50 976 76 Z" style="fill: #0070C0;"></path>
                                    
                                    
                                                                                                                                                                                                                                                                                                                                                                                                                                                                                                                                                                                                                                </g>
                            </svg>