<svg width='83' height='83' >
                                <g transform="translate(3, 70) scale(0.07, -0.07)">
                                    <!-- 先将完整的字以灰色字体绘制完成，层级位于下面 -->
                                                                        <path d="M 110 547 Q 100 554 66 561 Q 54 565 51 560 Q 44 554 52 539 Q 80 466 93 348 Q 94 312 113 288 Q 129 266 135 281 Q 145 306 137 358 L 132 390 Q 119 487 116 519 C 113 545 113 545 110 547 Z" style="fill: #0070C0;"></path>
                                                                        <path d="M 263 418 Q 279 503 304 531 Q 323 556 302 568 Q 283 578 258 593 Q 237 605 199 577 Q 142 556 110 547 C 81 539 87 511 116 519 Q 122 520 129 523 Q 169 535 202 544 Q 226 550 231 541 Q 240 534 232 498 Q 225 461 216 417 C 210 388 257 389 263 418 Z" style="fill: #0070C0;"></path>
                                                                        <path d="M 137 358 Q 144 359 153 361 Q 192 373 279 387 Q 289 388 290 397 Q 289 404 263 418 C 246 427 244 427 216 417 Q 170 401 132 390 C 103 382 107 353 137 358 Z" style="fill: #0070C0;"></path>
                                                                        <path d="M 458 525 Q 560 631 596 648 Q 614 655 607 670 Q 603 683 541 714 Q 523 721 503 713 Q 454 692 380 668 Q 361 661 313 660 Q 292 660 300 642 Q 307 630 325 621 Q 352 606 386 626 Q 491 680 506 669 Q 518 662 513 648 Q 482 596 445 533 C 430 507 437 503 458 525 Z" style="fill: #0070C0;"></path>
                                                                        <path d="M 510 416 Q 494 503 458 525 L 445 533 Q 441 536 434 538 Q 413 545 404 540 Q 391 534 404 521 Q 440 494 460 391 L 467 352 Q 482 207 451 126 Q 438 102 406 110 Q 373 117 344 126 Q 334 129 337 118 Q 341 111 360 98 Q 400 64 413 37 Q 422 21 438 22 Q 451 23 477 47 Q 552 119 517 382 L 510 416 Z" style="fill: #0070C0;"></path>
                                                                        <path d="M 517 382 Q 523 386 530 390 Q 558 406 578 426 Q 590 436 589 445 Q 583 449 571 446 Q 541 433 510 416 L 460 391 Q 369 349 269 304 Q 248 294 211 289 Q 198 286 198 275 Q 197 262 208 254 Q 233 241 270 226 Q 280 225 292 235 Q 340 283 467 352 L 517 382 Z" style="fill: #0070C0;"></path>
                                                                        <path d="M 984 87 Q 1000 103 982 132 Q 963 184 955 254 Q 955 266 947 275 Q 935 282 931 256 Q 886 127 870 119 Q 864 118 858 116 Q 785 95 735 114 Q 711 120 699 149 Q 681 212 697 444 Q 709 664 738 703 Q 753 746 665 779 Q 659 780 654 782 Q 633 786 624 776 Q 615 766 623 756 Q 639 741 646 718 Q 650 693 643 536 Q 625 239 648 138 Q 654 99 692 78 Q 753 41 910 59 Q 917 62 926 63 Q 966 73 984 87 Z" style="fill: #0070C0;"></path>
                                    
                                    
                                                                                                                                                                                                                                                                                                                                                                                                                                                                                                                                                                                                                                </g>
                            </svg>