<svg width='83' height='83' >
                                <g transform="translate(3, 70) scale(0.07, -0.07)">
                                    <!-- 先将完整的字以灰色字体绘制完成，层级位于下面 -->
                                                                        <path d="M 133 559 Q 121 565 97 569 Q 84 573 81 568 Q 74 562 82 546 Q 110 479 125 374 Q 126 343 144 320 Q 160 298 167 313 Q 173 328 172 350 L 168 383 Q 152 503 150 531 C 148 553 148 553 133 559 Z" style="fill: #0070C0;"></path>
                                                                        <path d="M 305 408 Q 321 511 348 543 Q 370 571 346 584 Q 325 594 296 612 Q 277 622 226 590 Q 169 569 133 559 C 104 551 122 520 150 531 Q 177 543 239 556 Q 261 562 268 553 Q 277 546 269 505 Q 262 462 252 410 C 246 381 300 378 305 408 Z" style="fill: #0070C0;"></path>
                                                                        <path d="M 172 350 Q 179 350 188 352 Q 228 364 318 377 Q 328 378 329 388 Q 329 395 305 408 L 252 410 L 251 410 Q 203 394 168 383 C 139 374 142 348 172 350 Z" style="fill: #0070C0;"></path>
                                                                        <path d="M 573 500 Q 603 515 783 526 Q 834 532 839 539 Q 843 552 825 565 Q 764 604 697 580 Q 648 567 579 548 L 525 535 Q 456 522 379 504 Q 357 500 375 484 Q 391 471 410 466 Q 432 462 448 469 Q 482 481 521 489 L 573 500 Z" style="fill: #0070C0;"></path>
                                                                        <path d="M 570 482 Q 571 492 573 500 L 579 548 Q 591 662 618 732 Q 627 747 615 760 Q 593 782 549 796 Q 522 805 512 798 Q 502 791 509 777 Q 542 714 525 535 L 521 489 Q 494 306 455 238 Q 400 151 267 84 Q 254 77 253 72 Q 254 68 266 66 Q 282 62 325 74 Q 424 101 485 190 L 499 211 Q 541 286 564 434 L 570 482 Z" style="fill: #0070C0;"></path>
                                                                        <path d="M 564 434 Q 666 223 732 127 Q 754 93 779 91 Q 855 84 922 77 Q 950 76 952 81 Q 955 88 925 107 Q 778 183 734 238 Q 631 368 570 482 C 556 508 551 461 564 434 Z" style="fill: #0070C0;"></path>
                                                                        <path d="M 485 190 Q 489 184 500 174 Q 533 140 567 100 Q 576 90 588 88 Q 595 87 601 97 Q 607 107 603 131 Q 599 167 501 211 L 499 211 C 470 219 467 214 485 190 Z" style="fill: #0070C0;"></path>
                                    
                                    
                                                                                                                                                                                                                                                                                                                                                                                                                                                                                                                                                                                                                                </g>
                            </svg>