<svg width='83' height='83' >
                                <g transform="translate(3, 70) scale(0.07, -0.07)">
                                    <!-- 先将完整的字以灰色字体绘制完成，层级位于下面 -->
                                                                        <path d="M 166 606 Q 153 613 120 622 Q 107 626 103 622 Q 96 615 104 598 Q 132 522 141 400 Q 142 363 160 337 Q 176 313 184 329 Q 191 348 191 382 L 188 417 Q 175 541 174 576 C 173 603 173 603 166 606 Z" style="fill: #0070C0;"></path>
                                                                        <path d="M 326 448 Q 344 551 372 582 Q 394 610 370 624 Q 304 657 303 657 Q 293 657 282 651 Q 245 626 166 606 C 137 598 146 565 174 576 Q 184 582 260 598 Q 285 604 291 594 Q 300 587 292 545 Q 283 499 272 443 C 266 414 321 418 326 448 Z" style="fill: #0070C0;"></path>
                                                                        <path d="M 191 382 Q 233 397 346 413 Q 356 414 357 424 Q 357 431 326 448 C 312 456 301 452 272 443 Q 224 428 188 417 C 159 408 163 372 191 382 Z" style="fill: #0070C0;"></path>
                                                                        <path d="M 746 587 Q 774 672 809 699 Q 825 717 811 735 Q 795 748 742 773 Q 724 780 702 772 Q 630 741 503 714 C 474 708 489 677 518 683 Q 614 704 710 724 Q 711 724 715 721 Q 728 705 693 589 C 684 560 736 559 746 587 Z" style="fill: #0070C0;"></path>
                                                                        <path d="M 490 508 Q 502 508 515 509 Q 593 531 761 553 Q 771 554 772 564 Q 772 571 746 587 C 728 599 722 597 693 589 Q 582 558 495 542 C 466 536 460 508 490 508 Z" style="fill: #0070C0;"></path>
                                                                        <path d="M 503 714 Q 457 742 443 740 Q 422 739 436 715 Q 467 652 426 428 Q 411 337 354 232 Q 314 154 194 59 Q 178 47 175 41 Q 172 34 184 34 Q 227 31 321 115 Q 447 236 490 508 L 495 542 Q 502 593 509 650 Q 515 669 517 681 Q 517 682 518 683 C 523 702 523 702 503 714 Z" style="fill: #0070C0;"></path>
                                                                        <path d="M 569 248 Q 651 288 700 317 Q 785 372 823 381 Q 847 388 838 409 Q 828 428 802 448 Q 780 466 766 465 Q 753 465 755 450 Q 755 414 652 335 Q 612 305 572 271 C 549 252 542 235 569 248 Z" style="fill: #0070C0;"></path>
                                                                        <path d="M 959 82 Q 940 137 927 233 Q 926 249 917 254 Q 910 258 906 238 Q 896 120 879 97 Q 849 61 714 60 Q 641 61 610 74 Q 582 87 576 106 Q 558 161 569 248 L 572 271 Q 578 326 592 354 Q 605 384 586 401 Q 537 440 520 436 Q 505 430 512 413 Q 531 376 526 320 Q 516 116 541 72 Q 569 30 655 16 Q 718 6 817 11 Q 907 15 942 34 Q 973 50 959 82 Z" style="fill: #0070C0;"></path>
                                    
                                    
                                                                                                                                                                                                                                                                                                                                                                                                                                                                                                                                                                                                                                                                                                            </g>
                            </svg>