<svg width='83' height='83' >
                                <g transform="translate(3, 70) scale(0.07, -0.07)">
                                    <!-- 先将完整的字以灰色字体绘制完成，层级位于下面 -->
                                                                        <path d="M 131 568 Q 119 575 89 582 Q 76 586 73 581 Q 66 575 74 558 Q 102 488 113 377 Q 114 343 132 320 Q 148 298 155 313 Q 162 332 160 369 L 156 403 Q 143 506 142 539 C 141 563 141 563 131 568 Z" style="fill: #0070C0;"></path>
                                                                        <path d="M 298 427 Q 314 521 340 551 Q 362 578 338 592 Q 317 602 288 619 Q 266 631 226 602 Q 168 580 131 568 C 103 559 114 528 142 539 Q 169 551 231 564 Q 253 570 260 561 Q 269 554 261 515 Q 254 475 244 427 C 238 398 293 397 298 427 Z" style="fill: #0070C0;"></path>
                                                                        <path d="M 160 369 Q 167 369 176 370 Q 219 382 314 393 Q 324 394 325 404 Q 325 411 298 427 C 280 438 273 436 244 427 Q 195 412 156 403 C 127 396 130 368 160 369 Z" style="fill: #0070C0;"></path>
                                                                        <path d="M 587 682 Q 623 749 623 755 Q 620 765 605 777 Q 587 790 567 794 Q 543 800 532 796 Q 522 793 526 779 Q 556 692 415 483 Q 406 473 398 460 Q 355 402 244 285 Q 237 278 247 277 Q 298 283 419 412 Q 494 502 572 652 L 587 682 Z" style="fill: #0070C0;"></path>
                                                                        <path d="M 572 652 Q 585 639 597 622 Q 783 367 821 360 Q 903 360 960 372 Q 976 375 982 382 Q 986 389 975 392 Q 834 446 788 484 Q 710 541 592 676 Q 589 679 587 682 C 567 705 552 674 572 652 Z" style="fill: #0070C0;"></path>
                                                                        <path d="M 507 465 Q 570 402 596 403 Q 611 403 615 423 Q 615 436 603 457 Q 578 487 509 494 Q 499 494 499 482 Q 498 473 507 465 Z" style="fill: #0070C0;"></path>
                                                                        <path d="M 576 117 Q 708 270 749 289 Q 770 298 762 315 Q 758 331 682 367 Q 660 377 637 366 Q 579 341 489 312 Q 467 303 409 303 Q 384 302 393 281 Q 402 268 423 255 Q 456 237 497 262 Q 617 326 641 312 Q 656 302 649 286 Q 607 213 559 127 C 544 101 556 94 576 117 Z" style="fill: #0070C0;"></path>
                                                                        <path d="M 559 127 Q 507 155 478 168 Q 469 174 467 161 Q 466 148 477 137 Q 543 77 622 -10 Q 638 -29 653 -34 Q 662 -35 669 -25 Q 682 -12 669 31 Q 660 73 576 117 L 559 127 Z" style="fill: #0070C0;"></path>
                                    
                                    
                                                                                                                                                                                                                                                                                                                                                                                                                                                                                                                                                                                                                                                                                                            </g>
                            </svg>