<svg width='83' height='83' >
                                <g transform="translate(3, 70) scale(0.07, -0.07)">
                                    <!-- 先将完整的字以灰色字体绘制完成，层级位于下面 -->
                                                                        <path d="M 107 583 Q 95 589 73 594 Q 61 598 57 593 Q 50 587 58 571 Q 85 501 95 389 Q 96 356 113 333 Q 129 309 135 325 Q 142 343 141 374 L 138 408 Q 125 529 125 556 C 124 575 124 575 107 583 Z" style="fill: #0070C0;"></path>
                                                                        <path d="M 277 430 Q 290 532 317 564 Q 339 592 314 605 Q 293 615 265 632 Q 244 642 202 616 Q 148 595 107 583 C 78 574 96 549 125 556 Q 131 557 138 559 Q 175 569 208 577 Q 230 583 235 574 Q 245 567 238 525 Q 232 483 224 435 C 219 405 273 400 277 430 Z" style="fill: #0070C0;"></path>
                                                                        <path d="M 141 374 Q 195 387 286 401 Q 296 402 297 412 Q 297 419 277 430 L 224 435 Q 221 436 218 434 Q 175 419 138 408 C 109 399 112 367 141 374 Z" style="fill: #0070C0;"></path>
                                                                        <path d="M 530 671 Q 591 693 635 718 Q 683 740 723 750 Q 742 751 745 761 Q 749 773 735 784 Q 671 824 633 820 Q 626 816 625 804 Q 626 765 441 662 C 415 647 433 639 462 648 Q 475 652 497 659 L 530 671 Z" style="fill: #0070C0;"></path>
                                                                        <path d="M 441 662 Q 401 684 387 683 Q 366 680 381 657 Q 399 624 398 580 Q 399 522 384 403 Q 374 321 327 226 Q 296 160 203 76 Q 184 61 174 49 Q 173 42 184 42 Q 224 39 306 119 Q 354 167 383 222 Q 410 279 426 360 Q 447 454 456 595 Q 460 614 464 627 Q 468 640 462 648 L 441 662 Z" style="fill: #0070C0;"></path>
                                                                        <path d="M 574 589 Q 575 602 579 614 Q 583 627 574 638 Q 552 660 530 671 C 504 687 486 687 497 659 Q 548 551 507 240 Q 503 191 463 144 Q 451 128 458 106 Q 468 79 481 68 Q 493 61 505 77 Q 518 102 641 205 Q 645 209 650 211 C 674 229 665 242 638 229 Q 631 226 622 221 Q 594 209 563 195 Q 551 188 551 199 Q 570 388 571 533 Q 571 552 572 568 L 574 589 Z" style="fill: #0070C0;"></path>
                                                                        <path d="M 650 211 Q 672 180 695 143 Q 704 128 719 125 Q 729 122 737 133 Q 744 146 745 175 Q 745 215 644 276 Q 631 283 624 283 Q 620 280 617 268 Q 617 259 638 229 L 650 211 Z" style="fill: #0070C0;"></path>
                                                                        <path d="M 572 568 Q 600 543 616 508 Q 764 213 802 196 Q 865 181 953 180 Q 971 180 978 186 Q 982 193 973 198 Q 820 288 761 359 Q 700 435 622 563 Q 607 596 574 589 C 552 588 552 588 572 568 Z" style="fill: #0070C0;"></path>
                                    
                                    
                                                                                                                                                                                                                                                                                                                                                                                                                                                                                                                                                                                                                                                                                                            </g>
                            </svg>