<svg width='83' height='83' >
                                <g transform="translate(3, 70) scale(0.07, -0.07)">
                                    <!-- 先将完整的字以灰色字体绘制完成，层级位于下面 -->
                                                                        <path d="M 151 603 Q 139 609 117 614 Q 105 618 101 613 Q 94 607 102 591 Q 129 518 138 403 Q 139 369 157 345 Q 173 321 179 337 Q 188 358 185 398 L 181 434 Q 169 546 169 575 C 169 595 169 595 151 603 Z" style="fill: #0070C0;"></path>
                                                                        <path d="M 322 456 Q 338 550 364 579 Q 386 606 362 620 Q 341 630 313 649 Q 295 658 247 632 Q 198 614 151 603 C 122 596 140 566 169 575 Q 175 578 254 595 Q 276 599 282 591 Q 289 585 270 465 C 265 435 317 426 322 456 Z" style="fill: #0070C0;"></path>
                                                                        <path d="M 185 398 Q 191 398 199 400 Q 239 413 330 426 Q 342 429 342 438 Q 342 445 322 456 C 297 471 297 471 270 465 Q 263 464 257 461 Q 217 445 181 434 C 152 425 155 396 185 398 Z" style="fill: #0070C0;"></path>
                                                                        <path d="M 444 709 Q 431 716 399 722 Q 386 726 381 720 Q 374 713 383 695 Q 422 599 440 447 Q 441 401 467 369 Q 486 344 492 362 Q 496 375 498 391 L 497 419 Q 496 440 492 463 Q 464 625 459 673 C 456 703 455 704 444 709 Z" style="fill: #0070C0;"></path>
                                                                        <path d="M 739 423 Q 740 422 743 418 Q 765 384 785 376 Q 797 369 812 392 Q 831 429 859 626 Q 868 660 893 689 Q 906 702 894 718 Q 876 736 829 763 Q 807 773 789 765 Q 750 756 700 749 Q 633 739 547 725 Q 492 716 444 709 C 414 705 430 666 459 673 Q 507 685 573 695 L 625 703 Q 769 724 787 708 Q 806 686 803 665 Q 779 485 765 454 C 756 425 728 439 739 423 Z" style="fill: #0070C0;"></path>
                                                                        <path d="M 651 556 Q 694 563 733 569 Q 758 573 749 587 Q 737 603 709 608 Q 687 612 654 602 L 603 587 Q 558 574 520 563 Q 501 559 524 542 Q 534 535 556 539 Q 580 543 603 547 L 651 556 Z" style="fill: #0070C0;"></path>
                                                                        <path d="M 498 391 Q 505 391 518 392 Q 558 399 600 404 L 649 411 Q 695 418 739 423 C 769 426 792 441 765 454 Q 759 458 750 460 Q 726 464 649 447 L 601 438 Q 546 429 497 419 C 468 413 468 390 498 391 Z" style="fill: #0070C0;"></path>
                                                                        <path d="M 600 404 Q 594 2 605 -27 Q 606 -33 610 -37 Q 616 -44 623 -42 Q 641 -30 644 25 Q 653 113 651 201 Q 648 255 649 411 L 649 447 Q 649 496 651 556 L 654 602 Q 654 615 664 659 Q 667 677 653 686 Q 637 696 625 703 C 599 718 561 723 573 695 Q 600 632 603 614 Q 603 602 603 587 L 603 547 Q 602 498 601 438 L 600 404 Z" style="fill: #0070C0;"></path>
                                    
                                    
                                                                                                                                                                                                                                                                                                                                                                                                                                                                                                                                                                                                                                                                                                            </g>
                            </svg>