<svg width='83' height='83' >
                                <g transform="translate(3, 70) scale(0.07, -0.07)">
                                    <!-- 先将完整的字以灰色字体绘制完成，层级位于下面 -->
                                                                        <path d="M 123 552 Q 113 559 81 565 Q 68 569 65 564 Q 58 558 66 542 Q 97 466 111 342 Q 112 305 132 280 Q 148 258 155 273 Q 162 294 160 330 L 155 364 Q 136 485 134 522 C 132 547 132 547 123 552 Z" style="fill: #0070C0;"></path>
                                                                        <path d="M 300 395 Q 310 500 335 534 Q 357 562 331 575 Q 310 585 281 601 Q 262 610 218 584 Q 161 562 123 552 C 94 544 105 516 134 522 Q 143 523 154 527 Q 191 537 224 545 Q 246 551 251 542 Q 260 536 248 393 C 246 363 297 365 300 395 Z" style="fill: #0070C0;"></path>
                                                                        <path d="M 160 330 Q 199 343 318 361 Q 328 362 329 372 Q 329 379 300 395 C 283 405 276 402 248 393 Q 194 375 155 364 C 126 356 131 321 160 330 Z" style="fill: #0070C0;"></path>
                                                                        <path d="M 667 671 Q 706 680 827 694 Q 839 693 849 707 Q 850 720 825 731 Q 783 755 704 728 Q 599 706 405 675 Q 374 671 397 652 Q 433 624 465 632 Q 531 647 612 661 L 667 671 Z" style="fill: #0070C0;"></path>
                                                                        <path d="M 588 479 Q 669 605 689 623 Q 696 627 696 638 Q 693 656 667 671 C 643 689 615 691 612 661 Q 612 613 555 513 L 534 480 Q 444 360 331 263 Q 283 224 218 172 Q 209 168 220 164 Q 296 173 445 307 Q 502 367 551 428 L 588 479 Z" style="fill: #0070C0;"></path>
                                                                        <path d="M 551 428 Q 557 319 538 227 Q 526 178 561 137 L 562 135 Q 578 120 590 145 Q 603 184 603 227 Q 599 393 603 431 Q 610 456 601 466 Q 594 473 588 479 L 555 513 Q 549 517 544 519 Q 534 520 530 514 Q 524 501 534 480 L 551 428 Z" style="fill: #0070C0;"></path>
                                                                        <path d="M 700 410 Q 781 353 879 269 Q 897 250 913 248 Q 922 248 929 259 Q 939 274 922 317 Q 903 377 698 442 Q 688 446 688 433 Q 688 420 700 410 Z" style="fill: #0070C0;"></path>
                                                                        <path d="M 354 52 Q 332 49 348 31 Q 363 16 382 10 Q 404 3 422 8 Q 626 54 836 36 Q 858 36 863 45 Q 869 58 851 73 Q 788 121 727 101 Q 526 73 354 52 Z" style="fill: #0070C0;"></path>
                                    
                                    
                                                                                                                                                                                                                                                                                                                                                                                                                                                                                                                                                                                                                                                                                                            </g>
                            </svg>