<svg width='83' height='83' >
                                <g transform="translate(3, 70) scale(0.07, -0.07)">
                                    <!-- 先将完整的字以灰色字体绘制完成，层级位于下面 -->
                                                                        <path d="M 137 545 Q 124 552 96 558 Q 83 562 79 557 Q 72 551 80 534 Q 108 459 117 342 Q 118 306 136 281 Q 152 257 160 273 Q 167 292 166 326 L 163 362 Q 151 486 151 516 C 150 539 150 539 137 545 Z" style="fill: #0070C0;"></path>
                                                                        <path d="M 306 388 Q 324 490 352 522 Q 374 550 350 564 Q 284 597 283 597 Q 273 597 262 591 Q 222 564 137 545 C 108 538 124 504 151 516 Q 155 522 239 538 Q 264 545 270 534 Q 280 527 272 484 Q 265 441 254 391 C 248 362 301 358 306 388 Z" style="fill: #0070C0;"></path>
                                                                        <path d="M 166 326 Q 175 335 318 357 Q 328 358 329 368 Q 329 375 306 388 L 254 391 Q 251 391 250 390 Q 202 374 163 362 C 134 353 140 312 166 326 Z" style="fill: #0070C0;"></path>
                                                                        <path d="M 498 588 Q 499 591 503 594 Q 542 646 583 726 Q 599 763 616 781 Q 625 793 618 806 Q 614 819 582 839 Q 554 855 534 853 Q 515 849 525 827 Q 537 806 529 775 Q 493 655 400 508 Q 390 496 389 490 Q 386 478 401 482 Q 426 494 480 562 L 498 588 Z" style="fill: #0070C0;"></path>
                                                                        <path d="M 480 562 Q 481 562 484 560 Q 508 545 529 554 Q 632 585 726 600 Q 739 601 743 595 Q 747 585 747 558 Q 746 461 729 408 Q 722 375 711 365 Q 701 356 640 371 Q 618 381 631 356 Q 664 308 680 273 Q 686 254 704 256 Q 717 257 736 276 Q 787 324 812 519 Q 818 562 835 588 Q 851 609 842 619 Q 827 638 792 653 Q 767 666 741 653 Q 632 604 498 588 C 468 584 453 575 480 562 Z" style="fill: #0070C0;"></path>
                                                                        <path d="M 582 317 Q 601 387 624 408 Q 646 432 624 445 Q 606 455 581 472 Q 566 481 520 455 Q 463 434 442 428 C 413 419 425 393 454 402 Q 493 414 528 423 Q 550 430 555 421 Q 562 414 553 383 Q 546 358 536 326 C 527 297 574 288 582 317 Z" style="fill: #0070C0;"></path>
                                                                        <path d="M 435 262 Q 444 261 456 264 Q 498 276 590 289 Q 600 290 601 300 Q 601 306 582 317 C 559 331 559 331 536 326 Q 529 325 522 322 Q 476 306 438 296 C 409 288 405 263 435 262 Z" style="fill: #0070C0;"></path>
                                                                        <path d="M 957 101 Q 945 134 935 231 Q 936 247 929 254 Q 923 258 916 239 Q 879 139 855 109 Q 833 82 771 66 Q 624 30 506 80 Q 460 102 447 132 Q 426 177 435 262 L 438 296 Q 442 344 453 397 Q 453 400 454 402 C 457 418 457 418 442 428 Q 430 440 410 447 Q 397 451 389 446 Q 382 442 388 425 Q 400 386 397 349 Q 384 165 400 113 Q 406 77 438 48 Q 547 -39 774 -9 Q 801 -3 830 3 Q 890 19 947 59 Q 969 74 957 101 Z" style="fill: #0070C0;"></path>
                                    
                                    
                                                                                                                                                                                                                                                                                                                                                                                                                                                                                                                                                                                                                                                                                                            </g>
                            </svg>