<svg width='83' height='83' >
                                <g transform="translate(3, 70) scale(0.07, -0.07)">
                                    <!-- 先将完整的字以灰色字体绘制完成，层级位于下面 -->
                                                                        <path d="M 118 600 Q 108 604 85 609 Q 72 613 69 608 Q 62 602 70 586 Q 100 516 112 402 Q 113 368 132 344 Q 148 322 155 337 Q 162 356 160 394 L 155 427 Q 139 548 138 575 C 137 594 137 594 118 600 Z" style="fill: #0070C0;"></path>
                                                                        <path d="M 304 457 Q 317 551 343 582 Q 365 607 341 621 Q 322 631 294 648 Q 276 657 231 632 Q 171 611 118 600 C 89 594 109 568 138 575 Q 198 590 233 597 Q 258 603 264 593 Q 274 586 267 545 Q 261 505 255 459 C 251 429 300 427 304 457 Z" style="fill: #0070C0;"></path>
                                                                        <path d="M 160 394 Q 167 394 176 396 Q 221 409 319 425 Q 329 426 330 436 Q 330 443 304 457 L 255 459 Q 251 459 250 458 Q 198 439 155 427 C 126 419 130 392 160 394 Z" style="fill: #0070C0;"></path>
                                                                        <path d="M 492 577 Q 522 629 554 692 Q 576 741 597 767 Q 606 779 599 793 Q 593 806 562 827 Q 532 843 512 841 Q 493 837 504 815 Q 517 790 508 745 Q 454 582 328 397 Q 318 385 317 378 Q 314 366 329 371 Q 374 383 479 556 L 492 577 Z" style="fill: #0070C0;"></path>
                                                                        <path d="M 616 550 Q 721 574 829 597 Q 887 610 895 619 Q 904 626 899 636 Q 892 648 862 655 Q 837 661 729 625 Q 612 592 494 578 Q 491 578 492 577 C 462 572 452 570 479 556 Q 480 556 483 554 Q 520 533 574 541 L 616 550 Z" style="fill: #0070C0;"></path>
                                                                        <path d="M 634 254 Q 634 323 636 391 L 637 420 Q 641 528 642 529 Q 627 541 616 550 C 593 569 566 570 574 541 Q 595 502 576 171 Q 557 42 567 10 Q 580 -41 608 -59 Q 621 -60 627 -46 Q 640 -10 637 23 Q 634 128 634 221 L 634 254 Z" style="fill: #0070C0;"></path>
                                                                        <path d="M 636 391 Q 672 382 757 399 Q 785 405 817 412 Q 839 416 844 421 Q 851 428 847 437 Q 840 447 812 454 Q 782 458 753 447 Q 728 438 700 431 Q 670 425 637 420 C 607 415 607 397 636 391 Z" style="fill: #0070C0;"></path>
                                                                        <path d="M 634 221 Q 679 217 761 231 Q 860 252 863 255 Q 872 264 867 272 Q 860 284 830 291 Q 799 297 768 284 Q 738 274 705 266 Q 671 259 634 254 C 604 250 604 223 634 221 Z" style="fill: #0070C0;"></path>
                                    
                                    
                                                                                                                                                                                                                                                                                                                                                                                                                                                                                                                                                                                                                                                                                                            </g>
                            </svg>