<svg width='83' height='83' >
                                <g transform="translate(3, 70) scale(0.07, -0.07)">
                                    <!-- 先将完整的字以灰色字体绘制完成，层级位于下面 -->
                                                                        <path d="M 357 706 Q 471 751 500 757 Q 518 758 522 765 Q 526 777 514 788 Q 453 833 417 829 Q 410 825 409 814 Q 409 768 161 660 Q 155 651 162 648 Q 192 648 288 682 Q 297 685 309 688 L 357 706 Z" style="fill: #0070C0;"></path>
                                                                        <path d="M 383 515 Q 441 528 512 538 Q 528 539 530 548 Q 531 561 512 570 Q 484 583 461 577 Q 421 568 386 559 L 334 546 Q 169 510 81 500 Q 68 499 65 490 Q 61 480 77 468 Q 119 438 161 454 Q 254 484 321 502 L 383 515 Z" style="fill: #0070C0;"></path>
                                                                        <path d="M 380 391 Q 383 493 383 515 L 386 559 Q 390 607 401 642 Q 410 657 407 670 Q 400 679 357 706 C 332 722 295 714 309 688 Q 333 649 334 609 Q 334 579 334 546 L 334 416 Q 327 170 317 123 Q 299 42 312 3 Q 315 -6 320 -18 Q 327 -36 335 -39 Q 341 -46 348 -37 Q 375 -21 375 42 Q 374 79 380 367 L 380 391 Z" style="fill: #0070C0;"></path>
                                                                        <path d="M 321 502 Q 255 358 63 147 Q 56 137 68 135 Q 90 132 219 260 Q 279 321 334 416 C 397 523 334 529 321 502 Z" style="fill: #0070C0;"></path>
                                                                        <path d="M 380 367 Q 387 360 403 351 Q 436 329 470 303 Q 483 293 497 295 Q 506 296 509 308 Q 512 321 502 346 Q 495 365 462 378 Q 390 399 380 391 C 361 384 361 384 380 367 Z" style="fill: #0070C0;"></path>
                                                                        <path d="M 596 494 Q 584 501 547 510 Q 534 514 529 509 Q 522 502 530 484 Q 564 399 576 260 Q 577 218 599 190 Q 617 165 624 181 Q 633 203 631 245 L 626 285 Q 608 418 605 459 C 602 489 602 491 596 494 Z" style="fill: #0070C0;"></path>
                                                                        <path d="M 848 318 Q 872 436 909 470 Q 927 492 909 511 Q 890 526 829 551 Q 808 558 785 548 Q 719 518 596 494 C 567 488 576 453 605 459 Q 615 460 628 465 Q 790 498 798 491 Q 811 481 810 454 Q 803 381 790 320 C 784 291 842 289 848 318 Z" style="fill: #0070C0;"></path>
                                                                        <path d="M 631 245 Q 658 260 866 277 Q 879 278 880 289 Q 880 298 848 318 C 830 330 819 327 790 320 Q 700 298 626 285 C 596 280 603 234 631 245 Z" style="fill: #0070C0;"></path>
                                    
                                    
                                                                                                                                                                                                                                                                                                                                                                                                                                                                                                                                                                                                                                                                                                            </g>
                            </svg>