<svg width='83' height='83' >
                                <g transform="translate(3, 70) scale(0.07, -0.07)">
                                    <!-- 先将完整的字以灰色字体绘制完成，层级位于下面 -->
                                                                        <path d="M 93 555 Q 83 559 69 561 Q 56 565 53 560 Q 46 554 54 538 Q 81 475 94 375 Q 95 345 112 324 Q 128 302 135 317 Q 142 333 139 366 L 136 397 Q 123 505 122 527 Q 122 530 121 532 C 119 546 119 546 93 555 Z" style="fill: #0070C0;"></path>
                                                                        <path d="M 262 421 Q 277 508 300 535 Q 321 560 299 573 Q 280 583 254 599 Q 238 608 193 583 Q 130 562 93 555 C 64 549 92 525 121 532 Q 125 533 129 534 Q 166 543 199 550 Q 221 554 226 546 Q 233 540 228 505 Q 221 466 214 420 C 209 390 257 391 262 421 Z" style="fill: #0070C0;"></path>
                                                                        <path d="M 139 366 Q 145 373 275 393 Q 285 394 285 402 Q 285 409 262 421 C 247 429 243 428 214 420 Q 171 408 136 397 C 107 388 112 352 139 366 Z" style="fill: #0070C0;"></path>
                                                                        <path d="M 394 439 Q 443 518 495 622 Q 520 683 547 714 Q 557 727 549 742 Q 543 755 509 778 Q 476 796 455 794 Q 434 790 446 766 Q 467 729 455 696 Q 398 509 224 259 Q 214 246 212 240 Q 209 227 225 231 Q 268 246 370 402 Q 370 403 371 404 L 394 439 Z" style="fill: #0070C0;"></path>
                                                                        <path d="M 371 404 Q 389 347 390 304 Q 390 198 366 99 Q 356 54 390 3 Q 391 3 393 0 Q 411 -16 423 11 Q 438 51 437 98 Q 438 306 445 352 Q 452 379 443 390 Q 401 435 394 439 C 371 459 362 433 371 404 Z" style="fill: #0070C0;"></path>
                                                                        <path d="M 786 492 Q 846 498 918 498 Q 937 499 941 507 Q 945 519 929 531 Q 878 567 815 548 Q 800 545 786 540 L 732 529 Q 626 508 495 485 Q 476 482 490 467 Q 503 455 521 451 Q 540 447 555 451 Q 649 481 732 486 L 786 492 Z" style="fill: #0070C0;"></path>
                                                                        <path d="M 732 486 Q 731 353 731 136 Q 730 114 718 105 Q 712 99 640 108 Q 604 120 607 108 Q 608 101 631 86 Q 698 35 716 6 Q 737 -28 753 -28 Q 769 -29 783 9 Q 802 58 798 137 Q 785 314 786 492 L 786 540 Q 786 663 806 737 Q 824 770 764 794 Q 727 813 707 806 Q 688 799 705 774 Q 729 746 730 708 Q 731 690 732 529 L 732 486 Z" style="fill: #0070C0;"></path>
                                                                        <path d="M 530 342 Q 561 291 597 266 Q 612 262 623 273 Q 630 286 631 303 Q 624 346 548 379 Q 532 386 522 384 Q 516 383 517 371 Q 517 358 530 342 Z" style="fill: #0070C0;"></path>
                                    
                                    
                                                                                                                                                                                                                                                                                                                                                                                                                                                                                                                                                                                                                                                                                                            </g>
                            </svg>