<svg width='83' height='83' >
                                <g transform="translate(3, 70) scale(0.07, -0.07)">
                                    <!-- 先将完整的字以灰色字体绘制完成，层级位于下面 -->
                                                                        <path d="M 161 567 Q 149 574 116 582 Q 103 586 99 580 Q 92 574 100 557 Q 130 484 143 368 Q 144 334 164 309 Q 180 285 187 301 Q 196 322 192 361 L 188 397 Q 172 506 172 538 C 171 562 171 562 161 567 Z" style="fill: #0070C0;"></path>
                                                                        <path d="M 325 421 Q 338 521 365 552 Q 387 580 362 593 Q 341 603 312 619 Q 294 628 249 601 Q 207 582 161 567 C 133 558 143 529 172 538 Q 211 550 255 563 Q 279 570 284 560 Q 294 553 287 514 Q 281 471 272 423 C 267 394 321 391 325 421 Z" style="fill: #0070C0;"></path>
                                                                        <path d="M 192 361 Q 201 360 211 363 Q 251 375 342 387 Q 352 388 353 398 Q 353 405 325 421 L 272 423 Q 271 423 269 422 Q 224 406 188 397 C 159 390 162 362 192 361 Z" style="fill: #0070C0;"></path>
                                                                        <path d="M 616 504 Q 622 568 626 629 L 628 660 Q 629 720 646 776 Q 649 786 629 801 Q 595 819 572 823 Q 556 827 548 818 Q 541 811 549 796 Q 568 771 568 753 Q 578 635 576 497 C 576 467 613 474 616 504 Z" style="fill: #0070C0;"></path>
                                                                        <path d="M 626 629 Q 656 622 721 636 Q 755 645 792 655 Q 811 659 813 663 Q 822 672 816 680 Q 809 692 778 696 Q 756 699 676 671 Q 652 665 628 660 C 599 654 597 634 626 629 Z" style="fill: #0070C0;"></path>
                                                                        <path d="M 601 458 Q 613 467 724 474 Q 787 480 866 482 Q 926 482 933 493 Q 939 506 920 521 Q 863 560 822 549 Q 749 530 622 506 Q 619 506 616 504 L 576 497 Q 480 482 377 464 Q 355 461 371 443 Q 408 413 447 425 Q 502 441 563 452 L 601 458 Z" style="fill: #0070C0;"></path>
                                                                        <path d="M 563 452 Q 590 412 564 134 Q 563 124 561 113 Q 560 88 556 75 Q 544 42 580 -15 Q 592 -34 600 -39 Q 612 -40 617 -26 Q 630 5 626 37 Q 620 332 631 419 Q 634 432 627 438 Q 614 450 601 458 C 576 475 551 480 563 452 Z" style="fill: #0070C0;"></path>
                                                                        <path d="M 677 331 Q 726 288 787 224 Q 803 205 818 202 Q 825 201 833 211 Q 843 224 831 265 Q 822 304 750 333 Q 704 352 677 360 Q 668 364 667 353 Q 667 340 677 331 Z" style="fill: #0070C0;"></path>
                                    
                                    
                                                                                                                                                                                                                                                                                                                                                                                                                                                                                                                                                                                                                                                                                                            </g>
                            </svg>