<svg width='83' height='83' >
                                <g transform="translate(3, 70) scale(0.07, -0.07)">
                                    <!-- 先将完整的字以灰色字体绘制完成，层级位于下面 -->
                                                                        <path d="M 140 559 Q 128 565 105 570 Q 92 574 89 569 Q 82 563 90 546 Q 118 476 129 365 Q 130 331 148 308 Q 164 286 171 301 Q 178 320 177 353 L 173 387 Q 158 501 158 531 C 157 552 157 552 140 559 Z" style="fill: #0070C0;"></path>
                                                                        <path d="M 317 408 Q 330 505 354 537 Q 376 565 351 578 Q 330 588 301 606 Q 282 616 238 589 Q 184 568 140 559 C 111 553 129 523 158 531 Q 165 534 242 551 Q 264 555 270 547 Q 280 540 275 497 Q 271 458 265 413 C 261 383 313 378 317 408 Z" style="fill: #0070C0;"></path>
                                                                        <path d="M 177 353 Q 184 353 192 354 Q 235 366 330 377 Q 340 378 341 388 Q 341 395 317 408 C 292 422 292 422 265 413 Q 264 413 262 412 Q 213 396 173 387 C 144 380 147 352 177 353 Z" style="fill: #0070C0;"></path>
                                                                        <path d="M 635 480 Q 761 502 905 503 Q 929 503 933 512 Q 937 525 921 538 Q 866 574 829 564 Q 759 546 641 522 L 582 511 Q 485 495 376 475 Q 354 471 371 455 Q 399 430 450 441 Q 508 460 579 471 L 635 480 Z" style="fill: #0070C0;"></path>
                                                                        <path d="M 607 291 Q 620 388 635 480 L 641 522 Q 656 669 689 756 Q 695 769 672 789 Q 632 816 603 823 Q 584 829 574 819 Q 564 810 572 792 Q 597 746 596 716 Q 592 617 582 511 L 579 471 Q 569 380 555 281 C 551 251 603 261 607 291 Z" style="fill: #0070C0;"></path>
                                                                        <path d="M 448 273 Q 415 282 409 276 Q 402 269 411 251 Q 442 184 457 73 Q 460 39 478 17 Q 497 -8 504 10 Q 511 26 509 56 L 504 94 Q 488 202 486 233 C 484 263 477 266 448 273 Z" style="fill: #0070C0;"></path>
                                                                        <path d="M 758 125 Q 785 218 818 243 Q 836 262 820 282 Q 739 342 682 314 Q 643 302 607 291 L 555 281 Q 479 269 448 273 C 418 275 456 228 486 233 Q 498 234 513 239 Q 600 254 683 269 Q 705 273 713 265 Q 723 256 722 236 Q 715 176 703 127 C 696 98 749 96 758 125 Z" style="fill: #0070C0;"></path>
                                                                        <path d="M 509 56 Q 519 55 533 57 Q 611 72 777 82 Q 789 83 791 93 Q 792 102 758 125 C 743 135 732 133 703 127 Q 591 103 504 94 C 474 91 479 57 509 56 Z" style="fill: #0070C0;"></path>
                                    
                                    
                                                                                                                                                                                                                                                                                                                                                                                                                                                                                                                                                                                                                                                                                                            </g>
                            </svg>