<svg width='83' height='83' >
                                <g transform="translate(3, 70) scale(0.07, -0.07)">
                                    <!-- 先将完整的字以灰色字体绘制完成，层级位于下面 -->
                                                                        <path d="M 117 549 Q 104 556 76 562 Q 63 566 59 560 Q 52 554 60 537 Q 88 471 101 366 Q 102 335 120 313 Q 136 289 143 305 Q 149 320 149 344 L 146 379 Q 133 488 132 519 C 131 543 131 543 117 549 Z" style="fill: #0070C0;"></path>
                                                                        <path d="M 287 403 Q 306 497 333 528 Q 357 556 331 571 Q 309 583 280 600 Q 258 612 207 579 Q 144 557 117 549 C 88 540 104 509 132 519 Q 153 528 221 543 Q 243 549 250 540 Q 259 531 232 404 C 226 375 281 374 287 403 Z" style="fill: #0070C0;"></path>
                                                                        <path d="M 149 344 Q 158 343 171 346 Q 213 356 305 367 Q 315 368 317 378 Q 317 387 287 403 C 266 415 261 413 232 404 Q 181 388 146 379 C 117 371 119 345 149 344 Z" style="fill: #0070C0;"></path>
                                                                        <path d="M 595 455 Q 614 707 630 757 Q 634 769 614 784 Q 578 803 554 808 Q 538 812 530 803 Q 523 796 530 780 Q 551 750 551 730 Q 558 600 552 447 C 551 417 593 425 595 455 Z" style="fill: #0070C0;"></path>
                                                                        <path d="M 401 587 Q 434 532 462 515 Q 475 511 487 521 Q 494 533 495 549 Q 492 573 477 588 Q 468 597 419 622 Q 404 629 394 627 Q 388 627 389 615 Q 389 603 401 587 Z" style="fill: #0070C0;"></path>
                                                                        <path d="M 729 657 Q 719 641 651 559 Q 641 541 658 545 Q 704 567 731 584 Q 797 627 817 634 Q 839 644 829 663 Q 816 682 789 698 Q 764 713 751 710 Q 738 709 742 695 Q 745 676 729 657 Z" style="fill: #0070C0;"></path>
                                                                        <path d="M 625 416 Q 697 426 800 430 Q 854 430 861 440 Q 865 453 849 465 Q 789 504 731 485 Q 676 473 595 455 L 552 447 Q 464 432 368 415 Q 346 411 363 395 Q 394 367 442 381 Q 506 400 579 410 Q 580 411 582 410 L 625 416 Z" style="fill: #0070C0;"></path>
                                                                        <path d="M 461 347 Q 473 316 436 242 Q 394 155 298 52 Q 292 48 292 40 Q 292 36 297 35 Q 375 50 499 238 Q 508 262 533 293 Q 540 303 533 318 Q 503 367 471 367 Q 455 367 461 347 Z" style="fill: #0070C0;"></path>
                                                                        <path d="M 971 107 Q 952 152 936 230 Q 933 246 925 250 Q 918 254 915 234 Q 905 138 891 120 Q 864 90 758 90 Q 700 91 675 101 Q 653 111 648 126 Q 627 192 650 294 Q 654 327 664 346 Q 680 385 625 416 C 600 433 571 438 582 410 Q 582 409 584 405 Q 603 368 598 312 Q 591 156 600 124 Q 607 93 631 74 Q 676 38 847 40 Q 923 43 954 58 Q 985 76 971 107 Z" style="fill: #0070C0;"></path>
                                    
                                    
                                                                                                                                                                                                                                                                                                                                                                                                                                                                                                                                                                                                                                                                                                                                                                                        </g>
                            </svg>