<svg width='83' height='83' >
                                <g transform="translate(3, 70) scale(0.07, -0.07)">
                                    <!-- 先将完整的字以灰色字体绘制完成，层级位于下面 -->
                                                                        <path d="M 135 554 Q 125 558 108 562 Q 95 566 91 561 Q 84 555 92 538 Q 119 472 130 367 Q 131 336 148 313 Q 164 289 172 305 Q 179 321 178 349 L 174 386 Q 164 501 163 525 Q 163 526 162 527 C 159 545 159 545 135 554 Z" style="fill: #0070C0;"></path>
                                                                        <path d="M 315 409 Q 331 503 358 533 Q 382 561 356 576 Q 283 610 282 610 Q 272 610 263 603 Q 224 576 135 554 C 106 547 133 518 162 527 Q 169 530 180 532 Q 217 541 247 548 Q 268 552 273 544 Q 282 537 275 498 Q 268 458 260 412 C 255 382 310 379 315 409 Z" style="fill: #0070C0;"></path>
                                                                        <path d="M 178 349 Q 184 349 191 351 Q 234 363 329 375 Q 341 376 341 386 Q 341 393 315 409 C 293 423 288 422 260 412 Q 259 412 257 411 Q 211 395 174 386 C 145 379 148 347 178 349 Z" style="fill: #0070C0;"></path>
                                                                        <path d="M 579 770 Q 604 749 633 724 Q 649 711 665 713 Q 675 714 681 728 Q 685 744 673 775 Q 661 805 571 820 Q 555 823 548 819 Q 542 815 545 801 Q 549 791 579 770 Z" style="fill: #0070C0;"></path>
                                                                        <path d="M 464 629 Q 449 653 432 662 Q 428 666 422 662 Q 418 658 417 646 Q 423 613 396 542 Q 386 524 389 504 Q 393 485 405 469 Q 414 459 419 467 Q 426 468 433 486 Q 437 493 446 522 Q 459 574 471 596 C 477 609 477 609 464 629 Z" style="fill: #0070C0;"></path>
                                                                        <path d="M 471 596 Q 486 590 542 605 Q 597 627 734 647 Q 759 651 769 650 Q 782 644 782 638 Q 782 635 743 566 Q 736 553 741 548 Q 748 544 764 554 Q 821 588 866 597 Q 903 607 903 615 Q 902 625 835 678 Q 811 699 731 679 Q 689 675 532 641 Q 498 635 464 629 C 434 624 441 599 471 596 Z" style="fill: #0070C0;"></path>
                                                                        <path d="M 584 434 Q 585 435 589 437 Q 629 456 676 486 Q 689 496 707 502 Q 720 509 717 518 Q 714 525 696 536 Q 657 555 634 555 Q 624 554 624 543 Q 624 498 451 404 Q 442 397 456 394 Q 492 400 551 420 L 584 434 Z" style="fill: #0070C0;"></path>
                                                                        <path d="M 602 287 Q 629 293 827 310 Q 846 311 850 319 Q 854 331 838 342 Q 781 378 720 356 Q 672 344 607 327 L 559 316 Q 469 298 366 277 Q 347 274 362 259 Q 392 235 436 248 Q 491 267 557 279 L 602 287 Z" style="fill: #0070C0;"></path>
                                                                        <path d="M 944 118 Q 928 146 902 234 Q 901 250 893 254 Q 886 257 884 239 Q 868 142 852 111 Q 819 75 717 80 Q 677 83 646 96 Q 618 109 611 128 Q 590 170 602 287 L 607 327 Q 611 357 617 389 Q 621 407 610 417 Q 600 427 584 434 C 558 449 544 449 551 420 Q 551 419 552 417 Q 564 375 559 316 L 557 279 Q 547 104 590 65 Q 680 -4 854 33 Q 855 34 860 35 Q 900 47 940 74 Q 959 92 944 118 Z" style="fill: #0070C0;"></path>
                                    
                                    
                                                                                                                                                                                                                                                                                                                                                                                                                                                                                                                                                                                                                                                                                                                                                                                        </g>
                            </svg>