<svg width='83' height='83' >
                                <g transform="translate(3, 70) scale(0.07, -0.07)">
                                    <!-- 先将完整的字以灰色字体绘制完成，层级位于下面 -->
                                                                        <path d="M 229 657 Q 260 632 293 602 Q 308 589 324 590 Q 336 590 341 604 Q 345 620 335 651 Q 328 673 294 687 Q 215 714 200 707 Q 194 703 197 689 Q 201 679 229 657 Z" style="fill: #0070C0;"></path>
                                                                        <path d="M 180 371 Q 170 370 168 354 Q 168 285 193 264 Q 197 257 207 257 Q 214 257 220 278 Q 230 314 348 496 Q 357 509 357 514 Q 358 523 349 519 Q 337 515 218 395 Q 205 382 180 371 Z" style="fill: #0070C0;"></path>
                                                                        <path d="M 491 655 Q 515 692 539 740 Q 551 768 563 782 Q 570 792 564 804 Q 558 814 531 831 Q 506 843 490 841 Q 474 837 483 819 Q 513 777 402 572 Q 395 562 393 556 Q 392 546 404 550 Q 422 556 476 631 L 491 655 Z" style="fill: #0070C0;"></path>
                                                                        <path d="M 476 631 Q 495 613 519 622 Q 577 644 643 660 Q 677 670 688 666 Q 701 656 696 646 Q 696 645 667 580 Q 660 570 665 565 Q 669 561 680 571 Q 765 632 804 647 Q 814 648 814 656 Q 815 669 787 683 Q 765 696 744 708 Q 717 723 704 715 Q 625 681 491 655 C 462 649 453 648 476 631 Z" style="fill: #0070C0;"></path>
                                                                        <path d="M 560 475 Q 570 503 589 525 Q 601 538 589 549 Q 556 589 531 587 Q 518 586 520 572 Q 533 521 481 425 Q 426 341 347 311 Q 331 304 315 297 Q 302 293 312 287 Q 361 277 428 313 Q 506 352 547 447 Q 548 451 550 453 L 560 475 Z" style="fill: #0070C0;"></path>
                                                                        <path d="M 550 453 Q 644 366 744 288 Q 768 269 803 272 Q 869 275 934 296 Q 952 300 952 304 Q 953 311 939 315 Q 761 361 739 371 Q 697 387 565 472 Q 562 475 560 475 C 535 491 528 473 550 453 Z" style="fill: #0070C0;"></path>
                                                                        <path d="M 344 224 Q 331 231 295 236 Q 282 240 279 234 Q 272 227 282 211 Q 315 141 335 28 Q 339 -6 359 -28 Q 378 -50 383 -34 Q 387 -18 386 8 L 381 45 Q 359 151 354 190 C 350 220 350 222 344 224 Z" style="fill: #0070C0;"></path>
                                                                        <path d="M 652 74 Q 683 173 722 196 Q 741 215 726 235 Q 708 250 653 279 Q 634 288 610 279 Q 502 242 344 224 C 314 220 324 185 354 190 Q 364 191 377 194 Q 483 210 584 228 Q 609 232 620 222 Q 630 212 627 191 Q 614 127 596 75 C 587 47 643 45 652 74 Z" style="fill: #0070C0;"></path>
                                                                        <path d="M 386 8 Q 390 8 398 8 Q 483 24 669 32 Q 681 33 682 42 Q 683 51 652 74 C 640 83 626 80 596 75 Q 475 53 381 45 C 351 42 356 8 386 8 Z" style="fill: #0070C0;"></path>
                                    
                                    
                                                                                                                                                                                                                                                                                                                                                                                                                                                                                                                                                                                                                                                                                                                                                                                        </g>
                            </svg>