<svg width='83' height='83' >
                                <g transform="translate(3, 70) scale(0.07, -0.07)">
                                    <!-- 先将完整的字以灰色字体绘制完成，层级位于下面 -->
                                                                        <path d="M 129 562 Q 116 568 90 573 Q 78 577 75 572 Q 68 566 76 551 Q 104 478 117 360 Q 118 324 137 300 Q 153 278 159 293 Q 168 315 162 361 L 157 393 Q 141 504 140 534 C 139 558 139 558 129 562 Z" style="fill: #0070C0;"></path>
                                                                        <path d="M 294 419 Q 307 513 332 542 Q 353 569 329 582 Q 310 592 282 608 Q 263 617 244 605 Q 214 584 129 562 C 100 554 111 528 140 534 Q 149 535 160 539 Q 196 548 227 555 Q 248 559 253 552 Q 262 545 256 508 Q 252 466 245 418 C 241 388 290 389 294 419 Z" style="fill: #0070C0;"></path>
                                                                        <path d="M 162 361 Q 195 373 310 387 Q 320 388 321 397 Q 321 404 294 419 C 280 427 274 426 245 418 Q 196 405 157 393 C 128 384 134 351 162 361 Z" style="fill: #0070C0;"></path>
                                                                        <path d="M 511 684 Q 581 793 583 796 Q 582 800 582 803 Q 578 815 551 836 Q 526 852 508 852 Q 490 851 498 829 Q 508 807 501 788 Q 479 722 440 661 Q 404 603 354 537 Q 344 527 343 521 Q 339 511 353 514 Q 374 517 443 595 L 457 613 Q 473 635 494 659 L 511 684 Z" style="fill: #0070C0;"></path>
                                                                        <path d="M 613 489 Q 652 547 693 619 Q 711 647 737 666 Q 753 673 753 684 Q 753 697 723 715 Q 686 739 672 739 Q 660 738 648 730 Q 546 688 519 685 Q 515 685 511 684 C 482 678 465 665 494 659 Q 536 644 590 668 Q 624 689 638 677 Q 644 673 624 623 Q 603 572 570 521 L 546 486 Q 413 306 195 213 Q 185 209 186 204 Q 187 200 194 199 Q 321 196 489 344 Q 531 383 584 449 L 613 489 Z" style="fill: #0070C0;"></path>
                                                                        <path d="M 584 449 Q 660 376 747 299 Q 772 277 810 282 Q 939 300 979 311 Q 991 315 992 321 Q 991 328 973 334 Q 778 371 702 426 Q 659 456 613 489 L 570 521 Q 518 563 460 610 Q 459 611 457 613 C 434 632 424 618 443 595 Q 455 577 546 486 L 584 449 Z" style="fill: #0070C0;"></path>
                                                                        <path d="M 440 245 Q 427 252 394 257 Q 381 261 377 255 Q 370 248 380 230 Q 411 166 429 61 Q 432 30 450 9 Q 469 -16 476 2 Q 482 18 480 45 L 475 81 Q 459 175 456 209 C 453 239 453 239 440 245 Z" style="fill: #0070C0;"></path>
                                                                        <path d="M 705 108 Q 733 190 764 214 Q 783 233 767 253 Q 749 268 693 295 Q 674 302 650 294 Q 569 264 440 245 C 410 241 426 204 456 209 Q 462 210 633 241 Q 652 245 661 237 Q 671 228 669 208 Q 660 154 649 110 C 642 81 695 80 705 108 Z" style="fill: #0070C0;"></path>
                                                                        <path d="M 480 45 Q 486 44 494 45 Q 567 60 722 68 Q 732 69 735 78 Q 735 87 705 108 C 691 118 678 116 649 110 Q 553 91 475 81 C 445 77 450 47 480 45 Z" style="fill: #0070C0;"></path>
                                    
                                    
                                                                                                                                                                                                                                                                                                                                                                                                                                                                                                                                                                                                                                                                                                                                                                                        </g>
                            </svg>