<svg width='83' height='83' >
                                <g transform="translate(3, 70) scale(0.07, -0.07)">
                                    <!-- 先将完整的字以灰色字体绘制完成，层级位于下面 -->
                                                                        <path d="M 137 570 Q 125 576 101 582 Q 89 586 85 581 Q 78 575 86 559 Q 116 474 125 341 Q 125 301 145 273 Q 161 249 167 265 Q 179 292 172 345 L 168 379 Q 153 506 153 541 C 152 563 152 563 137 570 Z" style="fill: #0070C0;"></path>
                                                                        <path d="M 312 402 Q 333 508 362 541 Q 386 568 362 583 Q 343 595 314 613 Q 295 625 248 599 Q 197 581 137 570 C 108 564 124 534 153 541 Q 189 550 249 562 Q 274 566 281 556 Q 291 547 281 501 Q 271 456 260 404 C 254 375 306 373 312 402 Z" style="fill: #0070C0;"></path>
                                                                        <path d="M 172 345 Q 176 345 184 346 Q 227 358 325 369 Q 335 370 337 380 Q 337 387 312 402 C 295 413 289 411 260 404 L 259 404 Q 210 389 168 379 C 139 372 142 343 172 345 Z" style="fill: #0070C0;"></path>
                                                                        <path d="M 720 528 Q 778 537 829 542 Q 839 541 849 554 Q 850 566 827 576 Q 797 597 728 576 L 671 562 Q 662 562 536 535 L 490 530 Q 448 527 404 521 Q 376 517 398 500 Q 428 473 470 483 Q 480 486 492 487 L 536 496 Q 594 509 667 520 L 720 528 Z" style="fill: #0070C0;"></path>
                                                                        <path d="M 536 535 Q 536 634 543 670 Q 547 694 531 708 Q 507 727 478 739 Q 463 745 454 738 Q 445 732 452 715 Q 482 646 490 530 L 492 487 Q 493 423 496 326 C 497 296 540 302 539 332 Q 536 426 536 496 L 536 535 Z" style="fill: #0070C0;"></path>
                                                                        <path d="M 691 354 Q 706 444 720 528 L 728 576 Q 740 684 771 759 Q 777 772 757 791 Q 721 816 695 824 Q 677 828 668 821 Q 658 814 666 796 Q 688 754 685 728 Q 681 649 671 562 L 667 520 Q 657 438 643 346 C 639 316 686 324 691 354 Z" style="fill: #0070C0;"></path>
                                                                        <path d="M 496 326 Q 405 316 308 302 Q 287 301 303 283 Q 336 253 372 263 Q 576 323 943 323 Q 962 324 967 332 Q 973 344 956 358 Q 899 401 847 384 Q 783 371 691 354 L 643 346 Q 630 346 615 343 Q 576 339 539 332 L 496 326 Z" style="fill: #0070C0;"></path>
                                                                        <path d="M 479 243 Q 461 162 282 22 Q 257 6 288 8 Q 366 14 498 141 Q 519 169 559 202 Q 572 215 569 226 Q 566 241 537 250 Q 506 263 491 259 Q 484 258 479 243 Z" style="fill: #0070C0;"></path>
                                                                        <path d="M 676 217 Q 734 144 799 40 Q 812 16 827 8 Q 836 5 845 14 Q 861 26 856 74 Q 852 137 683 250 Q 676 257 671 244 Q 667 231 676 217 Z" style="fill: #0070C0;"></path>
                                    
                                    
                                                                                                                                                                                                                                                                                                                                                                                                                                                                                                                                                                                                                                                                                                                                                                                        </g>
                            </svg>