<svg width='83' height='83' >
                                <g transform="translate(3, 70) scale(0.07, -0.07)">
                                    <!-- 先将完整的字以灰色字体绘制完成，层级位于下面 -->
                                                                        <path d="M 134 593 Q 121 597 101 601 Q 88 605 85 600 Q 78 593 86 577 Q 117 507 131 393 Q 134 359 152 336 Q 170 314 175 329 Q 182 350 179 386 L 174 420 Q 156 532 154 562 C 152 588 152 588 134 593 Z" style="fill: #0070C0;"></path>
                                                                        <path d="M 319 456 Q 335 546 360 575 Q 382 603 357 618 Q 287 651 286 651 Q 274 651 265 644 Q 225 617 134 593 C 105 585 125 553 154 562 Q 181 571 247 586 Q 269 590 275 582 Q 284 576 278 538 Q 272 498 263 449 C 258 419 314 427 319 456 Z" style="fill: #0070C0;"></path>
                                                                        <path d="M 179 386 Q 185 386 192 388 Q 238 403 343 421 Q 353 422 354 432 Q 354 439 321 456 L 319 456 L 263 449 Q 214 433 174 420 C 145 411 149 384 179 386 Z" style="fill: #0070C0;"></path>
                                                                        <path d="M 590 723 Q 620 765 643 782 Q 653 792 650 804 Q 647 817 623 841 Q 599 860 582 862 Q 564 861 570 840 Q 589 780 417 596 Q 407 587 404 582 Q 400 572 413 573 Q 435 576 494 627 L 503 635 Q 510 642 518 649 Q 540 668 563 693 L 590 723 Z" style="fill: #0070C0;"></path>
                                                                        <path d="M 573 539 Q 566 533 561 525 Q 506 464 398 382 Q 383 370 398 369 Q 509 385 715 632 Q 730 665 782 704 Q 797 714 792 724 Q 791 734 729 758 Q 714 767 663 742 Q 644 739 590 723 C 561 715 533 696 563 693 Q 584 686 651 702 Q 670 706 676 699 Q 679 692 667 672 Q 636 614 586 554 L 573 539 Z" style="fill: #0070C0;"></path>
                                                                        <path d="M 494 627 Q 490 618 535 558 Q 550 540 573 539 C 585 538 585 538 586 554 Q 587 567 581 586 Q 568 616 504 635 L 503 635 C 494 637 494 637 494 627 Z" style="fill: #0070C0;"></path>
                                                                        <path d="M 534 274 Q 535 277 540 279 Q 583 313 617 348 L 646 379 Q 676 413 693 428 Q 703 440 701 449 Q 698 462 673 470 Q 645 480 633 477 Q 626 476 623 463 Q 596 370 393 212 Q 372 197 399 201 Q 438 204 512 256 L 534 274 Z" style="fill: #0070C0;"></path>
                                                                        <path d="M 617 348 Q 666 336 739 361 Q 761 365 769 359 Q 776 353 751 305 Q 628 53 312 -51 Q 302 -55 302 -60 Q 302 -64 310 -65 Q 430 -77 605 50 Q 633 74 664 102 Q 739 174 819 295 Q 838 322 867 338 Q 883 345 885 354 Q 886 367 858 388 Q 824 415 808 416 Q 796 417 784 409 Q 706 390 646 379 C 617 373 587 352 617 348 Z" style="fill: #0070C0;"></path>
                                                                        <path d="M 512 256 Q 515 247 591 183 Q 610 167 628 167 Q 643 167 648 187 Q 648 200 637 221 Q 622 243 591 253 Q 555 269 534 274 C 505 281 495 281 512 256 Z" style="fill: #0070C0;"></path>
                                    
                                    
                                                                                                                                                                                                                                                                                                                                                                                                                                                                                                                                                                                                                                                                                                                                                                                        </g>
                            </svg>