<svg width='83' height='83' >
                                <g transform="translate(3, 70) scale(0.07, -0.07)">
                                    <!-- 先将完整的字以灰色字体绘制完成，层级位于下面 -->
                                                                        <path d="M 139 536 Q 127 543 97 550 Q 84 554 81 549 Q 74 543 82 526 Q 113 447 124 321 Q 125 284 144 256 Q 160 234 167 249 Q 177 274 171 325 L 167 359 Q 151 473 149 507 C 147 532 147 532 139 536 Z" style="fill: #0070C0;"></path>
                                                                        <path d="M 313 380 Q 329 483 356 515 Q 378 543 354 556 Q 333 568 305 585 Q 286 595 266 583 Q 230 559 139 536 C 110 529 120 498 149 507 Q 179 517 243 530 Q 268 537 274 526 Q 284 519 277 477 Q 270 434 261 385 C 256 355 308 350 313 380 Z" style="fill: #0070C0;"></path>
                                                                        <path d="M 171 325 Q 178 324 188 326 Q 231 338 326 349 Q 336 350 337 360 Q 337 367 313 380 C 288 394 288 394 261 385 Q 260 385 258 384 Q 209 368 167 359 C 138 353 141 327 171 325 Z" style="fill: #0070C0;"></path>
                                                                        <path d="M 630 566 Q 775 596 783 603 Q 792 610 787 620 Q 780 632 750 640 Q 722 646 633 616 L 581 603 Q 524 593 462 586 Q 425 580 451 562 Q 487 543 565 554 Q 571 555 582 557 L 630 566 Z" style="fill: #0070C0;"></path>
                                                                        <path d="M 621 435 Q 625 502 630 566 L 633 616 Q 633 682 655 774 Q 658 784 638 800 Q 602 819 578 823 Q 562 827 554 818 Q 547 811 555 795 Q 577 764 577 742 Q 581 675 581 603 L 582 557 Q 581 496 579 429 C 578 399 619 405 621 435 Z" style="fill: #0070C0;"></path>
                                                                        <path d="M 606 395 Q 691 410 827 411 Q 878 408 887 419 Q 893 429 877 443 Q 825 482 775 466 Q 714 453 621 435 L 579 429 Q 486 416 383 401 Q 364 398 378 383 Q 391 370 408 365 Q 427 361 443 365 Q 500 381 564 390 L 606 395 Z" style="fill: #0070C0;"></path>
                                                                        <path d="M 630 200 Q 672 209 784 221 Q 794 220 804 232 Q 805 245 782 256 Q 745 277 655 253 Q 643 250 632 247 L 582 236 Q 552 233 433 218 Q 403 214 426 196 Q 459 168 490 176 Q 532 185 583 193 L 630 200 Z" style="fill: #0070C0;"></path>
                                                                        <path d="M 626 72 Q 627 141 630 200 L 632 247 Q 635 368 636 369 Q 621 384 606 395 C 582 413 554 418 564 390 Q 577 353 581 333 Q 581 315 582 236 L 583 193 Q 583 141 583 67 C 583 37 626 42 626 72 Z" style="fill: #0070C0;"></path>
                                                                        <path d="M 583 67 Q 456 54 309 39 Q 287 38 303 19 Q 318 4 336 -2 Q 358 -8 375 -4 Q 606 54 908 34 Q 929 34 934 43 Q 940 55 923 69 Q 869 111 831 103 Q 753 90 626 72 L 583 67 Z" style="fill: #0070C0;"></path>
                                    
                                    
                                                                                                                                                                                                                                                                                                                                                                                                                                                                                                                                                                                                                                                                                                                                                                                        </g>
                            </svg>