<svg width='83' height='83' >
                                <g transform="translate(3, 70) scale(0.07, -0.07)">
                                    <!-- 先将完整的字以灰色字体绘制完成，层级位于下面 -->
                                                                        <path d="M 124 575 Q 112 581 88 586 Q 75 590 71 585 Q 64 578 72 561 Q 103 486 115 366 Q 116 330 136 305 Q 152 281 159 297 Q 169 321 164 366 L 159 403 Q 144 523 143 550 C 142 568 142 568 124 575 Z" style="fill: #0070C0;"></path>
                                                                        <path d="M 290 425 Q 302 530 328 563 Q 349 590 325 602 Q 304 612 277 627 Q 258 636 240 624 Q 206 597 124 575 C 95 567 114 542 143 550 Q 144 550 222 573 Q 244 579 250 570 Q 260 563 254 522 Q 250 480 242 431 C 237 401 286 395 290 425 Z" style="fill: #0070C0;"></path>
                                                                        <path d="M 164 366 Q 189 379 299 396 Q 309 399 310 408 Q 310 415 290 425 L 242 431 Q 236 431 230 428 Q 191 413 159 403 C 130 394 137 353 164 366 Z" style="fill: #0070C0;"></path>
                                                                        <path d="M 699 676 Q 708 680 820 694 Q 830 693 841 707 Q 842 720 817 731 Q 780 753 715 732 Q 568 699 416 675 Q 385 671 409 652 Q 448 624 486 635 L 539 646 Q 585 656 644 667 L 699 676 Z" style="fill: #0070C0;"></path>
                                                                        <path d="M 486 635 Q 504 599 505 551 Q 506 505 503 111 C 503 81 547 86 547 116 Q 551 572 555 606 Q 562 627 539 646 C 519 668 474 663 486 635 Z" style="fill: #0070C0;"></path>
                                                                        <path d="M 700 134 Q 701 230 705 317 L 706 350 Q 710 593 715 635 Q 722 657 699 676 C 679 698 635 696 644 667 Q 662 622 662 508 Q 659 397 654 128 C 653 98 700 104 700 134 Z" style="fill: #0070C0;"></path>
                                                                        <path d="M 358 371 Q 383 341 412 306 Q 422 293 437 291 Q 447 290 453 301 Q 460 314 455 342 Q 454 363 424 383 Q 352 422 340 419 Q 336 416 335 404 Q 336 394 358 371 Z" style="fill: #0070C0;"></path>
                                                                        <path d="M 705 317 Q 706 318 709 319 Q 827 418 885 456 Q 906 463 900 475 Q 893 493 870 514 Q 846 533 820 535 Q 804 534 805 511 Q 809 495 799 476 Q 766 427 706 350 C 688 326 680 300 705 317 Z" style="fill: #0070C0;"></path>
                                                                        <path d="M 503 111 Q 407 104 303 92 Q 279 91 296 71 Q 311 55 331 49 Q 353 42 372 47 Q 606 104 915 83 Q 915 84 918 83 Q 940 82 946 92 Q 953 105 935 120 Q 871 171 805 151 Q 759 145 700 134 L 654 128 Q 626 127 596 122 Q 571 121 547 116 L 503 111 Z" style="fill: #0070C0;"></path>
                                    
                                    
                                                                                                                                                                                                                                                                                                                                                                                                                                                                                                                                                                                                                                                                                                                                                                                        </g>
                            </svg>