<svg width='83' height='83' >
                                <g transform="translate(3, 70) scale(0.07, -0.07)">
                                    <!-- 先将完整的字以灰色字体绘制完成，层级位于下面 -->
                                                                        <path d="M 160 550 Q 148 556 120 561 Q 107 565 103 560 Q 96 553 105 536 Q 135 467 150 357 Q 153 323 171 301 Q 190 277 195 293 Q 202 314 199 352 L 193 389 Q 177 491 176 520 C 175 544 175 544 160 550 Z" style="fill: #0070C0;"></path>
                                                                        <path d="M 335 408 Q 354 502 381 532 Q 405 560 379 575 Q 357 585 328 604 Q 307 614 262 586 Q 216 567 160 550 C 131 541 149 508 176 520 Q 182 526 267 546 Q 292 553 298 543 Q 307 536 298 497 Q 291 460 281 414 C 275 385 329 379 335 408 Z" style="fill: #0070C0;"></path>
                                                                        <path d="M 199 352 Q 269 367 349 375 Q 359 376 361 386 Q 361 393 335 408 L 281 414 Q 278 414 277 413 Q 231 398 193 389 C 164 382 170 346 199 352 Z" style="fill: #0070C0;"></path>
                                                                        <path d="M 653 614 Q 665 710 682 774 Q 685 784 667 798 Q 636 816 614 820 Q 599 824 592 816 Q 585 809 592 795 Q 613 771 613 607 C 613 577 649 584 653 614 Z" style="fill: #0070C0;"></path>
                                                                        <path d="M 765 629 Q 704 623 653 614 L 613 607 Q 561 598 516 584 Q 497 580 501 603 Q 504 633 508 664 Q 511 686 501 699 Q 488 715 465 727 Q 455 731 445 730 Q 435 726 443 709 Q 462 667 456 625 Q 452 585 436 567 Q 420 551 426 539 Q 436 524 452 515 Q 465 508 474 515 Q 502 552 713 591 Q 756 598 768 593 C 798 589 795 632 765 629 Z" style="fill: #0070C0;"></path>
                                                                        <path d="M 768 593 Q 771 577 777 564 Q 784 549 796 559 Q 820 580 828 659 Q 844 711 850 717 Q 859 730 849 744 Q 833 759 803 778 Q 791 785 780 780 Q 773 777 774 764 Q 784 754 785 695 Q 784 683 765 629 L 768 593 Z" style="fill: #0070C0;"></path>
                                                                        <path d="M 589 416 Q 625 462 638 472 Q 647 479 644 492 Q 641 502 619 525 Q 598 541 582 544 Q 566 543 571 524 Q 590 469 416 281 Q 407 274 404 269 Q 400 259 413 260 Q 453 266 568 392 L 589 416 Z" style="fill: #0070C0;"></path>
                                                                        <path d="M 568 392 Q 613 371 700 410 Q 722 417 732 411 Q 739 407 720 352 Q 702 297 667 243 L 640 203 Q 541 67 371 -18 Q 361 -22 362 -28 Q 363 -32 371 -32 Q 480 -32 619 99 Q 646 127 674 161 Q 732 234 789 351 Q 805 381 832 400 Q 848 409 848 418 Q 847 431 817 449 Q 780 471 764 472 Q 752 471 740 462 Q 653 423 596 417 Q 592 417 589 416 C 559 412 539 400 568 392 Z" style="fill: #0070C0;"></path>
                                                                        <path d="M 667 243 Q 655 291 581 318 Q 568 324 556 328 Q 543 332 536 331 Q 532 327 532 316 Q 586 261 640 203 C 660 181 675 214 667 243 Z" style="fill: #0070C0;"></path>
                                    
                                    
                                                                                                                                                                                                                                                                                                                                                                                                                                                                                                                                                                                                                                                                                                                                                                                        </g>
                            </svg>