<svg width='83' height='83' >
                                <g transform="translate(3, 70) scale(0.07, -0.07)">
                                    <!-- 先将完整的字以灰色字体绘制完成，层级位于下面 -->
                                                                        <path d="M 99 528 Q 87 532 65 537 Q 52 541 49 536 Q 42 530 50 514 Q 77 450 90 345 Q 91 314 108 292 Q 124 270 131 285 Q 138 301 136 331 L 133 361 Q 118 478 118 504 C 117 522 117 522 99 528 Z" style="fill: #0070C0;"></path>
                                                                        <path d="M 257 389 Q 269 486 293 516 Q 312 541 290 554 Q 232 581 231 581 Q 219 581 210 575 Q 180 553 99 528 C 70 519 90 495 118 504 Q 157 517 191 526 Q 213 533 220 524 Q 229 518 223 480 Q 217 437 210 388 C 206 358 253 359 257 389 Z" style="fill: #0070C0;"></path>
                                                                        <path d="M 136 331 Q 145 330 157 334 Q 193 344 272 359 Q 282 360 282 369 Q 282 376 257 389 L 210 388 Q 209 388 208 388 Q 165 372 133 361 C 105 351 106 332 136 331 Z" style="fill: #0070C0;"></path>
                                                                        <path d="M 471 463 Q 426 464 390 463 Q 356 462 373 484 Q 439 607 502 700 Q 515 716 512 724 Q 509 737 471 766 Q 455 778 437 774 Q 427 770 433 756 Q 455 704 355 520 Q 337 495 312 469 Q 294 456 296 444 Q 300 425 315 409 Q 325 399 337 406 Q 376 430 456 440 C 486 444 501 462 471 463 Z" style="fill: #0070C0;"></path>
                                                                        <path d="M 456 440 Q 366 308 343 297 Q 330 287 333 274 Q 334 261 361 242 Q 371 230 386 243 Q 437 285 538 323 Q 557 329 559 337 Q 562 347 542 343 Q 491 333 429 313 Q 401 303 418 326 Q 454 378 536 482 Q 563 519 587 542 Q 599 552 592 562 Q 582 580 548 598 Q 532 607 523 603 Q 513 600 516 585 Q 517 551 471 463 L 456 440 Z" style="fill: #0070C0;"></path>
                                                                        <path d="M 280 127 Q 267 124 266 114 Q 266 101 276 93 Q 301 80 336 66 Q 346 65 357 74 Q 375 95 514 185 Q 533 197 546 211 Q 558 220 557 229 Q 550 235 436 184 Q 303 130 280 127 Z" style="fill: #0070C0;"></path>
                                                                        <path d="M 671 548 Q 722 653 736 686 Q 746 720 759 738 Q 766 750 759 761 Q 752 771 723 786 Q 696 796 679 793 Q 663 789 675 770 Q 699 737 653 604 Q 631 543 596 473 Q 589 461 588 456 Q 587 446 599 450 Q 614 456 657 522 L 671 548 Z" style="fill: #0070C0;"></path>
                                                                        <path d="M 755 71 Q 742 70 676 105 Q 667 109 667 104 Q 666 100 676 90 Q 716 41 734 7 Q 744 -14 757 -14 Q 778 -15 797 7 Q 867 68 883 215 Q 896 315 900 469 Q 900 503 921 531 Q 933 544 931 552 Q 930 559 911 571 Q 886 590 851 598 Q 826 605 810 596 Q 797 590 764 578 Q 719 562 688 554 Q 678 553 671 548 C 642 539 627 521 657 522 Q 684 519 785 543 Q 828 552 832 546 Q 854 504 836 282 Q 824 180 791 108 Q 775 74 755 71 Z" style="fill: #0070C0;"></path>
                                                                        <path d="M 598 350 Q 623 322 650 289 Q 660 276 674 275 Q 683 274 689 285 Q 695 297 691 324 Q 687 354 599 391 Q 586 395 580 395 Q 576 392 575 381 Q 576 371 598 350 Z" style="fill: #0070C0;"></path>
                                    
                                    
                                                                                                                                                                                                                                                                                                                                                                                                                                                                                                                                                                                                                                                                                                                                                                                        </g>
                            </svg>