<svg width='83' height='83' >
                                <g transform="translate(3, 70) scale(0.07, -0.07)">
                                    <!-- 先将完整的字以灰色字体绘制完成，层级位于下面 -->
                                                                        <path d="M 130 534 Q 120 541 86 550 Q 74 554 71 549 Q 64 543 72 528 Q 100 449 110 324 Q 111 287 129 260 Q 145 238 151 253 Q 160 277 156 323 L 151 359 Q 138 468 135 504 C 132 533 132 533 130 534 Z" style="fill: #0070C0;"></path>
                                                                        <path d="M 284 391 Q 299 493 326 525 Q 347 552 323 564 Q 304 574 276 589 Q 258 598 213 568 Q 156 544 130 534 C 102 523 107 494 135 504 Q 159 513 223 534 Q 245 541 251 533 Q 261 526 252 484 Q 245 441 235 390 C 229 361 279 361 284 391 Z" style="fill: #0070C0;"></path>
                                                                        <path d="M 156 323 Q 219 344 300 360 Q 310 363 311 372 Q 310 379 284 391 L 235 390 Q 232 390 231 389 Q 188 371 151 359 C 122 350 128 314 156 323 Z" style="fill: #0070C0;"></path>
                                                                        <path d="M 448 605 Q 505 647 531 656 Q 550 663 541 679 Q 531 695 509 708 Q 488 721 477 720 Q 467 719 469 707 Q 470 679 415 625 Q 387 597 355 564 Q 345 551 360 552 Q 397 573 424 589 L 448 605 Z" style="fill: #0070C0;"></path>
                                                                        <path d="M 665 489 Q 668 490 675 492 Q 748 508 808 521 Q 818 520 827 534 Q 827 546 804 554 Q 762 570 715 550 Q 687 541 658 530 L 615 516 Q 612 516 611 515 Q 548 496 490 482 L 446 472 Q 400 465 350 453 Q 322 447 345 432 Q 381 408 410 419 Q 425 425 447 429 L 490 442 Q 548 460 621 478 L 665 489 Z" style="fill: #0070C0;"></path>
                                                                        <path d="M 490 482 Q 490 524 499 554 Q 506 570 492 581 Q 471 597 448 605 C 420 617 409 615 424 589 Q 425 589 426 587 Q 445 556 445 518 Q 445 496 446 472 L 447 429 Q 448 368 448 313 L 448 266 Q 445 89 434 80 Q 428 77 365 90 Q 355 93 355 87 Q 355 81 364 74 Q 419 20 438 -13 Q 451 -28 464 -15 Q 497 18 495 74 Q 492 113 490 295 L 490 336 Q 490 385 490 442 L 490 482 Z" style="fill: #0070C0;"></path>
                                                                        <path d="M 448 313 Q 372 273 289 229 Q 270 219 236 213 Q 223 209 223 198 Q 224 185 235 178 Q 262 166 299 154 Q 309 153 320 164 Q 362 212 448 266 L 490 295 Q 553 340 570 358 Q 582 368 581 377 Q 574 381 562 377 Q 528 358 490 336 L 448 313 Z" style="fill: #0070C0;"></path>
                                                                        <path d="M 683 234 Q 740 83 833 -3 Q 891 -55 922 -55 Q 943 -51 936 -22 Q 933 24 942 158 Q 943 182 935 183 Q 934 183 889 98 Q 871 61 846 76 Q 836 82 825 92 Q 768 155 719 263 L 703 312 Q 696 339 665 489 L 658 530 Q 639 681 655 767 Q 668 810 612 833 Q 576 849 555 843 Q 534 836 544 816 Q 590 773 590 737 Q 600 613 615 516 L 621 478 Q 636 375 669 275 L 683 234 Z" style="fill: #0070C0;"></path>
                                                                        <path d="M 669 275 Q 639 245 605 222 Q 569 198 551 183 Q 541 170 556 172 Q 595 171 683 234 L 719 263 Q 741 284 762 306 Q 799 349 834 383 Q 847 393 836 410 Q 800 450 775 453 Q 763 452 763 438 Q 760 378 703 312 L 669 275 Z" style="fill: #0070C0;"></path>
                                                                        <path d="M 735 681 Q 760 665 786 643 Q 802 633 818 635 Q 830 638 833 652 Q 834 668 821 698 Q 814 714 784 723 Q 709 735 699 727 Q 695 723 698 709 Q 704 699 735 681 Z" style="fill: #0070C0;"></path>
                                    
                                    
                                                                                                                                                                                                                                                                                                                                                                                                                                                                                                                                                                                                                                                                                                                                                                                                                                                                    </g>
                            </svg>