<svg width='83' height='83' >
                                <g transform="translate(3, 70) scale(0.07, -0.07)">
                                    <!-- 先将完整的字以灰色字体绘制完成，层级位于下面 -->
                                                                        <path d="M 362 688 Q 393 697 422 701 Q 441 702 445 698 Q 451 688 447 663 Q 438 593 420 562 Q 404 534 379 540 Q 354 547 333 557 Q 312 564 327 543 Q 366 504 384 475 Q 397 459 412 470 Q 457 497 484 593 Q 506 681 518 694 Q 528 706 524 715 Q 515 725 470 746 Q 452 755 434 743 Q 419 734 373 720 L 321 706 Q 248 688 186 683 Q 170 682 167 673 Q 166 666 188 656 Q 210 643 228 649 Q 268 662 309 673 L 362 688 Z" style="fill: #0070C0;"></path>
                                                                        <path d="M 309 673 Q 257 570 176 481 Q 167 474 158 463 Q 152 456 158 454 Q 165 453 174 458 Q 226 486 267 530 Q 325 585 362 688 L 373 720 Q 388 777 400 798 Q 406 807 400 815 Q 393 824 365 835 Q 346 844 337 841 Q 327 837 329 823 Q 338 786 321 706 L 309 673 Z" style="fill: #0070C0;"></path>
                                                                        <path d="M 594 716 Q 584 720 561 724 Q 551 728 547 723 Q 540 717 549 702 Q 573 653 588 571 Q 591 547 605 531 Q 621 510 626 525 Q 630 535 630 552 L 626 586 Q 614 668 613 690 C 612 710 612 710 594 716 Z" style="fill: #0070C0;"></path>
                                                                        <path d="M 773 608 Q 789 672 809 692 Q 831 717 808 732 Q 745 765 742 765 Q 733 765 725 759 Q 682 732 594 716 C 565 710 584 683 613 690 Q 625 693 703 710 Q 725 714 732 705 Q 738 701 733 670 Q 729 642 722 609 C 716 580 765 579 773 608 Z" style="fill: #0070C0;"></path>
                                                                        <path d="M 630 552 Q 636 552 643 553 Q 689 563 789 573 Q 799 574 800 583 Q 800 592 773 608 C 757 618 751 616 722 609 Q 668 596 626 586 C 597 579 600 551 630 552 Z" style="fill: #0070C0;"></path>
                                                                        <path d="M 661 428 Q 709 429 876 430 Q 898 430 903 440 Q 910 453 891 468 Q 828 516 762 496 Q 542 456 142 408 Q 118 407 136 387 Q 170 356 213 365 Q 385 413 606 425 L 661 428 Z" style="fill: #0070C0;"></path>
                                                                        <path d="M 340 321 Q 330 328 297 332 Q 287 336 283 331 Q 277 325 285 310 Q 309 261 324 182 Q 327 158 341 143 Q 357 122 362 137 Q 365 147 366 160 L 363 195 Q 351 270 349 294 C 347 318 347 318 340 321 Z" style="fill: #0070C0;"></path>
                                                                        <path d="M 510 219 Q 526 277 545 296 Q 567 321 544 335 Q 525 347 498 363 Q 480 373 434 348 Q 353 324 340 321 C 311 313 319 290 349 294 Q 359 295 368 297 Q 407 307 440 313 Q 462 317 468 309 Q 474 305 469 275 Q 465 250 459 221 C 453 192 502 190 510 219 Z" style="fill: #0070C0;"></path>
                                                                        <path d="M 366 160 Q 402 172 525 185 Q 535 186 537 196 Q 537 203 510 219 C 491 231 488 230 459 221 Q 407 205 363 195 C 334 188 337 151 366 160 Z" style="fill: #0070C0;"></path>
                                                                        <path d="M 575 44 Q 550 54 516 67 Q 506 71 505 64 Q 505 57 514 47 Q 577 -8 617 -54 Q 627 -64 641 -49 Q 681 3 676 125 Q 670 258 678 378 Q 684 403 678 413 Q 674 420 661 428 C 638 447 595 453 606 425 Q 618 413 619 333 Q 619 249 620 82 Q 619 54 609 43 Q 599 36 575 44 Z" style="fill: #0070C0;"></path>
                                    
                                    
                                                                                                                                                                                                                                                                                                                                                                                                                                                                                                                                                                                                                                                                                                                                                                                                                                                                    </g>
                            </svg>