<svg width='83' height='83' >
                                <g transform="translate(3, 70) scale(0.07, -0.07)">
                                    <!-- 先将完整的字以灰色字体绘制完成，层级位于下面 -->
                                                                        <path d="M 90 573 Q 81 577 63 581 Q 53 585 49 580 Q 42 576 50 560 Q 77 488 87 374 Q 88 340 106 315 Q 121 294 126 308 Q 133 329 131 366 L 127 398 Q 111 518 110 547 C 109 566 109 566 90 573 Z" style="fill: #0070C0;"></path>
                                                                        <path d="M 259 419 Q 278 521 305 552 Q 327 577 304 591 Q 241 624 238 624 Q 229 624 221 618 Q 181 593 90 573 C 61 566 81 540 110 547 Q 159 559 199 568 Q 223 574 228 564 Q 237 557 229 518 Q 220 475 210 424 C 204 395 253 390 259 419 Z" style="fill: #0070C0;"></path>
                                                                        <path d="M 131 366 Q 140 365 152 368 Q 189 378 270 389 Q 280 390 281 400 Q 281 407 259 419 L 210 424 Q 204 424 202 422 Q 159 407 127 398 C 98 390 101 367 131 366 Z" style="fill: #0070C0;"></path>
                                                                        <path d="M 480 674 Q 513 687 541 703 Q 587 722 627 732 Q 645 733 648 742 Q 652 752 639 764 Q 617 780 570 796 Q 554 803 540 801 Q 533 797 533 786 Q 533 741 321 636 Q 315 627 322 624 Q 344 624 433 658 L 480 674 Z" style="fill: #0070C0;"></path>
                                                                        <path d="M 501 495 Q 534 505 570 513 Q 607 523 612 529 Q 621 536 616 545 Q 609 555 580 562 Q 541 568 505 546 L 455 528 Q 445 527 434 523 Q 383 510 323 500 Q 289 493 314 478 Q 354 460 420 475 Q 430 478 444 480 L 501 495 Z" style="fill: #0070C0;"></path>
                                                                        <path d="M 453 380 Q 449 305 448 224 Q 444 163 427 105 Q 417 68 439 13 Q 445 -3 452 -7 Q 456 -13 464 -6 Q 489 9 490 68 Q 489 108 501 485 Q 501 491 501 495 L 505 546 Q 509 586 519 615 Q 526 628 524 641 Q 518 648 480 674 C 455 691 419 685 433 658 Q 455 622 455 586 Q 455 558 455 528 L 453 380 Z" style="fill: #0070C0;"></path>
                                                                        <path d="M 444 480 Q 381 324 187 160 Q 174 147 184 145 Q 206 136 287 194 Q 365 249 453 380 C 534 499 456 508 444 480 Z" style="fill: #0070C0;"></path>
                                                                        <path d="M 537 361 Q 565 340 594 314 Q 607 304 620 304 Q 629 305 633 316 Q 637 329 628 355 Q 619 382 531 403 Q 518 404 512 403 Q 508 399 509 388 Q 513 378 537 361 Z" style="fill: #0070C0;"></path>
                                                                        <path d="M 670 578 Q 697 512 676 344 Q 667 314 695 279 L 696 278 Q 705 268 714 278 Q 736 311 734 353 Q 728 476 740 549 Q 747 571 727 581 Q 688 605 674 599 Q 667 592 670 578 Z" style="fill: #0070C0;"></path>
                                                                        <path d="M 829 723 Q 833 684 838 102 Q 838 77 825 68 Q 819 65 750 78 Q 716 91 719 80 Q 720 73 741 57 Q 805 5 822 -25 Q 840 -59 856 -62 Q 872 -63 887 -26 Q 905 22 902 98 Q 883 354 886 612 Q 889 703 901 752 Q 917 783 860 806 Q 824 824 805 816 Q 786 809 804 786 Q 826 758 829 723 Z" style="fill: #0070C0;"></path>
                                    
                                    
                                                                                                                                                                                                                                                                                                                                                                                                                                                                                                                                                                                                                                                                                                                                                                                                                                                                    </g>
                            </svg>