<svg width='83' height='83' >
                                <g transform="translate(3, 70) scale(0.07, -0.07)">
                                    <!-- 先将完整的字以灰色字体绘制完成，层级位于下面 -->
                                                                        <path d="M 113 527 Q 103 531 73 536 Q 61 539 59 534 Q 53 527 61 513 Q 95 441 116 325 Q 120 289 140 267 Q 158 246 162 261 Q 169 283 161 325 L 154 357 Q 130 471 126 502 C 123 524 123 524 113 527 Z" style="fill: #0070C0;"></path>
                                                                        <path d="M 292 376 Q 314 476 343 507 Q 365 532 343 546 Q 324 556 298 575 Q 280 584 235 560 Q 172 539 113 527 C 84 521 96 500 126 502 Q 139 502 156 506 Q 199 516 237 525 Q 262 531 268 521 Q 277 514 266 473 Q 256 430 243 381 C 235 352 285 347 292 376 Z" style="fill: #0070C0;"></path>
                                                                        <path d="M 161 325 Q 165 325 172 327 Q 212 337 302 347 Q 312 348 313 357 Q 313 364 292 376 C 270 389 270 389 243 381 Q 242 381 240 380 Q 194 367 154 357 C 125 350 131 322 161 325 Z" style="fill: #0070C0;"></path>
                                                                        <path d="M 731 580 Q 765 691 810 723 Q 828 742 812 762 Q 794 777 739 804 Q 720 813 697 804 Q 603 762 455 742 Q 439 741 440 730 Q 443 721 462 715 Q 489 705 524 717 Q 605 733 682 750 Q 701 754 710 747 Q 720 735 716 712 Q 698 642 678 586 C 668 558 722 551 731 580 Z" style="fill: #0070C0;"></path>
                                                                        <path d="M 467 646 Q 437 642 458 627 Q 494 608 537 619 Q 583 628 633 637 Q 655 641 659 645 Q 666 652 662 659 Q 656 668 633 674 Q 609 678 585 669 Q 560 662 532 655 Q 502 648 467 646 Z" style="fill: #0070C0;"></path>
                                                                        <path d="M 678 586 Q 675 587 672 586 Q 546 555 445 542 Q 423 539 436 520 Q 443 510 455 506 Q 467 503 482 506 Q 564 525 746 541 Q 758 542 760 553 Q 760 562 731 580 L 678 586 Z" style="fill: #0070C0;"></path>
                                                                        <path d="M 430 431 Q 430 458 403 477 Q 385 489 385 465 Q 394 426 336 339 Q 321 315 349 270 Q 368 251 379 274 Q 395 302 405 343 Q 412 374 419 396 L 430 431 Z" style="fill: #0070C0;"></path>
                                                                        <path d="M 419 396 Q 431 392 481 403 Q 599 442 778 465 Q 823 471 837 470 Q 853 469 853 460 Q 853 457 783 360 Q 773 348 779 344 Q 786 340 803 349 Q 867 395 922 411 Q 967 423 966 436 Q 965 446 900 498 Q 878 520 814 504 Q 763 498 430 431 C 401 425 389 396 419 396 Z" style="fill: #0070C0;"></path>
                                                                        <path d="M 639 123 Q 681 184 718 278 Q 731 308 750 327 Q 769 343 755 357 Q 742 369 710 380 Q 691 386 606 350 Q 510 323 470 316 Q 455 315 451 306 Q 447 299 467 291 Q 507 278 560 297 Q 627 325 640 325 Q 662 328 661 304 Q 640 216 601 155 Q 600 155 600 154 L 578 125 Q 503 38 348 -4 Q 335 -8 346 -17 Q 353 -21 400 -19 Q 511 -10 612 89 L 639 123 Z" style="fill: #0070C0;"></path>
                                                                        <path d="M 612 89 Q 624 65 750 -36 Q 783 -69 952 -36 Q 989 -29 985 -20 Q 984 -16 947 -5 Q 782 34 737 58 Q 713 70 639 123 L 600 154 Q 566 184 530 218 Q 493 254 461 252 Q 443 252 441 247 Q 440 240 454 231 Q 493 210 578 125 L 612 89 Z" style="fill: #0070C0;"></path>
                                    
                                    
                                                                                                                                                                                                                                                                                                                                                                                                                                                                                                                                                                                                                                                                                                                                                                                                                                                                    </g>
                            </svg>