<svg width='83' height='83' >
                                <g transform="translate(3, 70) scale(0.07, -0.07)">
                                    <!-- 先将完整的字以灰色字体绘制完成，层级位于下面 -->
                                                                        <path d="M 128 577 Q 115 583 84 589 Q 72 592 69 587 Q 62 581 71 565 Q 102 498 118 387 Q 122 354 140 332 Q 158 310 163 325 Q 170 346 165 385 L 159 417 Q 143 517 139 549 C 136 574 136 574 128 577 Z" style="fill: #0070C0;"></path>
                                                                        <path d="M 288 436 Q 304 530 330 561 Q 351 586 328 600 Q 309 610 281 626 Q 262 636 244 624 Q 210 600 128 577 C 99 569 111 538 139 549 Q 142 552 224 574 Q 248 580 254 571 Q 263 564 255 523 Q 248 486 240 441 C 235 411 283 406 288 436 Z" style="fill: #0070C0;"></path>
                                                                        <path d="M 165 385 Q 205 395 298 407 Q 308 408 309 417 Q 309 424 288 436 L 240 441 Q 237 441 236 440 Q 193 427 159 417 C 130 409 136 378 165 385 Z" style="fill: #0070C0;"></path>
                                                                        <path d="M 536 455 Q 537 454 538 452 Q 559 416 584 444 Q 603 465 605 486 Q 627 642 650 674 Q 663 693 650 709 Q 631 725 599 744 Q 583 751 566 744 Q 499 713 421 694 C 392 687 410 657 439 665 Q 446 666 459 671 Q 552 707 568 701 Q 578 694 573 664 Q 552 498 542 486 C 532 460 532 460 536 455 Z" style="fill: #0070C0;"></path>
                                                                        <path d="M 434 551 Q 483 564 522 572 Q 544 578 534 589 Q 522 602 498 603 Q 453 603 434 584 C 412 564 405 543 434 551 Z" style="fill: #0070C0;"></path>
                                                                        <path d="M 433 433 Q 491 446 536 455 C 565 461 571 478 542 486 Q 518 495 434 462 C 406 451 404 426 433 433 Z" style="fill: #0070C0;"></path>
                                                                        <path d="M 543 343 Q 540 343 440 289 Q 428 282 427 293 Q 431 366 433 433 L 434 462 Q 434 508 434 551 L 434 584 Q 435 624 439 665 C 440 680 440 680 421 694 Q 405 707 390 714 Q 372 721 364 715 Q 354 708 363 694 Q 408 600 384 331 Q 381 285 345 238 Q 333 223 341 203 Q 351 178 363 167 Q 376 160 386 176 Q 402 204 550 322 Q 551 323 554 325 C 578 344 570 356 543 343 Z" style="fill: #0070C0;"></path>
                                                                        <path d="M 554 325 Q 578 280 593 278 Q 602 275 609 285 Q 616 297 616 323 Q 616 339 596 357 Q 544 390 532 391 Q 528 388 525 377 Q 526 367 543 343 L 554 325 Z" style="fill: #0070C0;"></path>
                                                                        <path d="M 734 538 Q 741 539 745 541 Q 853 589 863 580 Q 873 565 869 526 Q 862 417 837 369 Q 824 344 803 347 Q 785 354 770 362 Q 748 374 761 348 Q 792 302 806 269 Q 825 248 843 267 Q 871 289 891 328 Q 913 374 924 511 Q 928 560 944 584 Q 954 597 949 606 Q 939 616 889 634 Q 870 640 852 626 Q 840 617 791 599 Q 751 583 719 574 C 690 565 706 528 734 538 Z" style="fill: #0070C0;"></path>
                                                                        <path d="M 674 -27 Q 678 -52 686 -61 Q 692 -68 699 -66 Q 717 -54 720 1 Q 727 77 725 152 Q 722 215 726 461 Q 726 488 729 503 Q 732 522 734 538 C 737 563 737 563 719 574 Q 691 593 678 594 Q 665 598 650 590 Q 641 581 649 571 Q 671 526 672 499 Q 675 363 670 150 Q 669 17 674 -27 Z" style="fill: #0070C0;"></path>
                                    
                                    
                                                                                                                                                                                                                                                                                                                                                                                                                                                                                                                                                                                                                                                                                                                                                                                                                                                                    </g>
                            </svg>