<svg width='83' height='83' >
                                <g transform="translate(3, 70) scale(0.07, -0.07)">
                                    <!-- 先将完整的字以灰色字体绘制完成，层级位于下面 -->
                                                                        <path d="M 117 549 Q 107 556 77 561 Q 64 565 61 560 Q 54 554 62 538 Q 89 475 102 375 Q 103 345 120 324 Q 136 302 143 317 Q 149 332 148 358 L 144 393 Q 131 499 130 524 C 129 543 129 543 117 549 Z" style="fill: #0070C0;"></path>
                                                                        <path d="M 278 421 Q 293 508 316 535 Q 335 560 314 572 Q 295 582 269 597 Q 254 606 205 577 Q 154 559 117 549 C 88 541 101 517 130 524 Q 136 525 145 528 Q 182 538 216 547 Q 238 554 243 545 Q 250 538 245 504 Q 238 467 230 421 C 225 391 273 391 278 421 Z" style="fill: #0070C0;"></path>
                                                                        <path d="M 148 358 Q 155 358 164 361 Q 204 374 295 389 Q 305 390 306 400 Q 306 407 278 421 L 230 421 Q 227 421 226 420 Q 181 404 144 393 C 115 384 118 356 148 358 Z" style="fill: #0070C0;"></path>
                                                                        <path d="M 542 783 Q 584 731 618 715 Q 633 711 643 725 Q 650 738 647 755 Q 641 780 624 793 Q 576 826 538 826 Q 532 826 529 824 Q 523 823 525 810 Q 526 798 542 783 Z" style="fill: #0070C0;"></path>
                                                                        <path d="M 433 636 Q 421 661 403 671 Q 400 675 394 671 Q 390 668 388 657 Q 392 624 365 564 Q 355 548 357 530 Q 360 511 369 498 Q 376 486 382 494 Q 394 497 409 543 Q 428 600 434 606 C 442 618 442 618 433 636 Z" style="fill: #0070C0;"></path>
                                                                        <path d="M 434 606 Q 450 599 487 606 Q 554 633 704 655 Q 731 659 740 658 Q 756 645 754 637 Q 754 633 731 561 Q 727 548 733 545 Q 740 542 754 555 Q 800 597 842 615 Q 875 631 873 639 Q 872 648 803 690 Q 782 703 700 685 Q 642 679 500 648 Q 466 641 433 636 C 403 631 405 612 434 606 Z" style="fill: #0070C0;"></path>
                                                                        <path d="M 533 502 Q 536 520 512 545 Q 493 561 478 563 Q 463 563 467 545 Q 474 527 466 513 Q 424 432 332 336 Q 323 329 321 324 Q 317 315 328 316 Q 367 322 468 429 L 479 441 Q 494 462 508 476 C 529 498 533 502 533 502 Z" style="fill: #0070C0;"></path>
                                                                        <path d="M 430 195 Q 503 240 587 327 L 610 353 Q 692 458 712 469 Q 727 475 728 483 Q 729 495 704 513 Q 674 537 661 538 Q 651 539 639 532 Q 594 517 533 502 C 504 495 478 481 508 476 Q 542 464 600 489 Q 619 492 625 486 Q 629 482 609 442 Q 593 411 569 380 L 550 358 Q 463 271 431 248 Q 343 185 227 151 Q 218 150 218 144 Q 218 140 225 139 Q 295 130 404 182 L 430 195 Z" style="fill: #0070C0;"></path>
                                                                        <path d="M 587 327 Q 788 174 826 166 Q 898 166 982 194 Q 1000 198 1001 204 Q 1002 211 987 214 Q 764 274 733 288 Q 646 331 610 353 L 569 380 Q 568 381 566 382 Q 500 431 479 441 C 453 456 448 451 468 429 Q 474 417 550 358 L 587 327 Z" style="fill: #0070C0;"></path>
                                                                        <path d="M 467 182 L 467 183 Q 457 189 430 195 C 401 202 394 204 404 182 Q 434 122 450 1 Q 451 -30 469 -53 Q 485 -74 491 -59 Q 497 -41 495 -10 L 490 24 Q 475 118 473 151 L 467 182 Z" style="fill: #0070C0;"></path>
                                                                        <path d="M 694 59 Q 716 134 748 157 Q 764 176 749 193 Q 733 206 681 230 Q 663 237 593 211 Q 529 193 467 182 C 437 177 444 144 473 151 Q 480 152 492 156 Q 562 169 628 183 Q 646 187 653 180 Q 666 167 640 53 C 633 24 685 30 694 59 Z" style="fill: #0070C0;"></path>
                                                                        <path d="M 495 -10 Q 499 -10 507 -9 Q 574 6 719 18 Q 729 19 731 28 Q 732 35 702 56 Q 698 57 694 59 C 684 63 669 59 640 53 Q 558 35 490 24 C 460 19 465 -12 495 -10 Z" style="fill: #0070C0;"></path>
                                    
                                    
                                                                                                                                                                                                                                                                                                                                                                                                                                                                                                                                                                                                                                                                                                                                                                                                                                                                                                                                                                                                                            </g>
                            </svg>