<svg width='83' height='83' >
                                <g transform="translate(3, 70) scale(0.07, -0.07)">
                                    <!-- 先将完整的字以灰色字体绘制完成，层级位于下面 -->
                                                                        <path d="M 384 745 Q 435 702 452 702 Q 462 703 465 716 Q 468 729 458 756 Q 446 780 376 788 Q 361 789 356 787 Q 352 783 354 771 Q 358 761 384 745 Z" style="fill: #0070C0;"></path>
                                                                        <path d="M 595 803 Q 576 772 535 724 Q 531 717 535 711 Q 542 710 549 714 Q 627 763 664 782 Q 680 786 677 797 Q 671 812 654 830 Q 636 846 615 849 Q 602 849 602 831 Q 603 818 595 803 Z" style="fill: #0070C0;"></path>
                                                                        <path d="M 525 636 Q 583 645 643 652 Q 700 662 709 669 Q 718 676 714 684 Q 708 697 680 705 Q 656 712 559 689 Q 418 662 316 659 Q 280 655 304 637 Q 343 610 397 620 Q 433 624 470 629 L 525 636 Z" style="fill: #0070C0;"></path>
                                                                        <path d="M 528 531 Q 661 555 669 558 Q 678 565 674 573 Q 668 585 642 593 Q 618 599 530 576 L 477 565 Q 414 555 346 553 Q 312 549 335 533 Q 362 512 448 521 Q 461 522 477 524 L 528 531 Z" style="fill: #0070C0;"></path>
                                                                        <path d="M 524 442 Q 563 448 715 460 Q 725 457 735 470 Q 736 482 715 493 Q 685 517 607 497 Q 570 491 532 484 Q 528 484 525 482 L 476 475 Q 430 471 390 467 Q 342 464 290 460 Q 262 459 282 440 Q 310 412 342 417 Q 403 427 476 436 L 524 442 Z" style="fill: #0070C0;"></path>
                                                                        <path d="M 518 298 Q 521 376 524 442 L 525 482 Q 526 507 528 531 L 530 576 Q 533 627 531 631 Q 528 634 525 636 C 507 660 463 658 470 629 Q 476 611 477 565 L 477 524 Q 477 503 476 475 L 476 436 Q 476 378 476 293 C 476 263 517 268 518 298 Z" style="fill: #0070C0;"></path>
                                                                        <path d="M 311 360 Q 348 309 374 297 Q 387 294 396 305 Q 402 315 400 331 Q 391 370 324 392 Q 311 398 302 395 Q 296 394 297 383 Q 298 373 311 360 Z" style="fill: #0070C0;"></path>
                                                                        <path d="M 602 307 Q 662 359 694 380 Q 710 386 705 396 Q 698 409 678 425 Q 659 441 637 440 Q 624 439 626 420 Q 632 401 572 304 C 556 278 579 287 602 307 Z" style="fill: #0070C0;"></path>
                                                                        <path d="M 509 254 Q 749 275 854 265 Q 918 262 924 267 Q 931 280 919 292 Q 891 320 847 340 Q 832 346 806 338 Q 736 323 665 314 Q 631 311 602 307 L 572 304 Q 541 303 518 298 L 476 293 Q 359 283 299 275 Q 229 265 126 264 Q 113 264 111 253 Q 110 240 129 226 Q 145 213 176 201 Q 188 197 205 205 Q 221 211 295 223 Q 391 244 509 254 Z" style="fill: #0070C0;"></path>
                                                                        <path d="M 357 175 Q 345 181 315 184 Q 302 187 299 181 Q 292 174 302 158 Q 332 104 353 15 Q 357 -12 374 -29 Q 395 -51 399 -34 Q 403 -22 402 -5 L 396 32 Q 380 111 375 141 C 370 170 370 170 357 175 Z" style="fill: #0070C0;"></path>
                                                                        <path d="M 669 54 Q 696 126 728 146 Q 747 165 732 184 Q 660 245 602 222 Q 506 192 357 175 C 327 172 345 136 375 141 Q 385 142 397 145 Q 497 161 593 176 Q 618 180 628 170 Q 637 163 634 144 Q 627 99 615 62 C 606 33 658 26 669 54 Z" style="fill: #0070C0;"></path>
                                                                        <path d="M 402 -5 Q 447 10 681 16 Q 691 17 694 26 Q 695 35 669 54 L 615 62 L 614 62 Q 493 40 396 32 C 366 29 373 -13 402 -5 Z" style="fill: #0070C0;"></path>
                                    
                                    
                                                                                                                                                                                                                                                                                                                                                                                                                                                                                                                                                                                                                                                                                                                                                                                                                                                                                                                                                                                                                            </g>
                            </svg>