<svg width='83' height='83' >
                                <g transform="translate(3, 70) scale(0.07, -0.07)">
                                    <!-- 先将完整的字以灰色字体绘制完成，层级位于下面 -->
                                                                        <path d="M 147 553 Q 137 560 101 570 Q 89 574 85 569 Q 78 563 86 547 Q 113 474 122 359 Q 123 325 141 301 Q 157 277 163 293 Q 170 312 169 350 L 166 384 Q 153 493 153 526 C 152 550 152 550 147 553 Z" style="fill: #0070C0;"></path>
                                                                        <path d="M 303 409 Q 321 503 346 533 Q 368 558 344 572 Q 283 605 275 603 Q 268 603 260 597 Q 221 573 147 553 C 118 545 124 518 153 526 Q 198 538 237 548 Q 262 554 269 544 Q 278 535 254 411 C 248 382 297 380 303 409 Z" style="fill: #0070C0;"></path>
                                                                        <path d="M 169 350 Q 176 350 184 352 Q 226 364 318 377 Q 328 378 329 388 Q 329 395 303 409 L 254 411 Q 251 411 250 410 Q 204 394 166 384 C 137 376 139 348 169 350 Z" style="fill: #0070C0;"></path>
                                                                        <path d="M 553 707 Q 611 795 612 796 Q 611 800 610 803 Q 606 815 579 835 Q 554 851 536 852 Q 518 849 526 829 Q 553 784 422 597 Q 412 587 410 581 Q 407 571 421 573 Q 449 582 537 686 L 553 707 Z" style="fill: #0070C0;"></path>
                                                                        <path d="M 620 545 Q 719 653 759 677 Q 778 687 766 701 Q 753 714 716 738 Q 707 742 646 725 Q 567 709 553 707 C 523 702 508 693 537 686 Q 559 677 648 688 Q 658 689 660 686 Q 664 682 658 672 Q 616 588 590 548 Q 587 544 585 539 C 570 513 600 523 620 545 Z" style="fill: #0070C0;"></path>
                                                                        <path d="M 429 514 Q 416 521 401 525 Q 388 529 381 523 Q 374 517 381 505 Q 400 474 410 441 Q 417 408 436 281 C 440 251 475 255 472 285 Q 468 322 465 351 L 465 356 Q 459 399 458 480 C 458 500 456 501 429 514 Z" style="fill: #0070C0;"></path>
                                                                        <path d="M 799 330 Q 827 459 858 510 Q 868 520 864 532 Q 857 548 797 574 Q 781 581 767 577 Q 697 561 620 545 L 585 539 Q 507 527 429 514 C 399 509 430 470 458 480 Q 482 492 609 515 L 638 520 Q 746 545 767 534 Q 774 528 774 506 Q 768 464 759 412 L 754 383 Q 748 355 741 320 C 735 291 792 301 799 330 Z" style="fill: #0070C0;"></path>
                                                                        <path d="M 465 351 Q 504 351 565 446 Q 568 450 570 452 Q 574 456 573 462 Q 572 468 563 474 Q 542 489 522 485 Q 518 484 519 476 Q 528 442 465 356 C 461 351 461 351 465 351 Z" style="fill: #0070C0;"></path>
                                                                        <path d="M 609 515 Q 618 506 614 438 Q 610 360 751 382 Q 751 383 754 383 C 783 389 783 394 759 412 Q 752 418 739 424 Q 726 428 714 420 Q 687 399 655 412 Q 648 419 647 436 Q 648 467 660 484 Q 667 497 657 507 Q 648 516 638 520 C 611 533 597 541 609 515 Z" style="fill: #0070C0;"></path>
                                                                        <path d="M 602 270 Q 720 283 900 282 Q 972 279 978 290 Q 984 300 968 314 Q 911 357 851 339 Q 826 336 799 330 L 741 320 Q 683 313 613 303 Q 612 303 612 302 L 553 295 Q 513 291 472 285 L 436 281 Q 363 274 284 265 Q 265 264 279 247 Q 292 234 309 228 Q 330 222 345 227 Q 441 252 549 264 L 602 270 Z" style="fill: #0070C0;"></path>
                                                                        <path d="M 600 265 Q 601 268 602 270 L 612 302 Q 616 311 620 315 Q 629 325 620 335 Q 610 348 585 355 Q 567 362 550 359 Q 538 355 545 342 Q 551 330 553 295 L 549 264 Q 512 114 347 38 Q 311 25 267 8 Q 251 1 270 -2 Q 391 -9 486 65 Q 553 119 593 238 L 600 265 Z" style="fill: #0070C0;"></path>
                                                                        <path d="M 593 238 Q 663 132 754 21 Q 773 2 802 3 Q 905 7 937 14 Q 947 15 948 21 Q 949 25 935 33 Q 781 99 718 157 Q 661 205 600 265 C 579 286 576 263 593 238 Z" style="fill: #0070C0;"></path>
                                    
                                    
                                                                                                                                                                                                                                                                                                                                                                                                                                                                                                                                                                                                                                                                                                                                                                                                                                                                                                                                                                                                                            </g>
                            </svg>