<svg width='83' height='83' >
                                <g transform="translate(3, 70) scale(0.07, -0.07)">
                                    <!-- 先将完整的字以灰色字体绘制完成，层级位于下面 -->
                                                                        <path d="M 126 563 Q 113 569 89 574 Q 76 578 73 572 Q 66 566 74 550 Q 102 483 114 375 Q 115 342 132 320 Q 148 298 155 313 Q 162 332 160 365 L 157 398 Q 142 507 142 535 C 141 557 141 557 126 563 Z" style="fill: #0070C0;"></path>
                                                                        <path d="M 297 420 Q 313 517 340 547 Q 362 574 337 588 Q 316 598 288 615 Q 269 625 249 613 Q 216 588 126 563 C 97 555 113 529 142 535 Q 149 536 162 540 Q 199 552 232 560 Q 254 566 260 557 Q 269 550 261 511 Q 254 471 245 425 C 239 396 292 390 297 420 Z" style="fill: #0070C0;"></path>
                                                                        <path d="M 160 365 Q 169 364 180 367 Q 220 377 310 389 Q 320 390 321 400 Q 321 407 297 420 C 272 434 272 434 245 425 Q 244 425 242 424 Q 194 408 157 398 C 128 390 130 366 160 365 Z" style="fill: #0070C0;"></path>
                                                                        <path d="M 443 694 Q 497 640 510 640 Q 520 641 525 653 Q 529 666 522 693 Q 518 709 493 721 Q 439 743 420 739 Q 416 735 416 724 Q 419 714 443 694 Z" style="fill: #0070C0;"></path>
                                                                        <path d="M 710 765 Q 692 738 656 696 Q 650 690 655 683 Q 662 682 669 685 Q 742 727 778 742 Q 794 746 792 756 Q 788 772 770 790 Q 754 808 732 811 Q 719 811 718 793 Q 719 780 710 765 Z" style="fill: #0070C0;"></path>
                                                                        <path d="M 623 585 Q 653 594 801 610 Q 811 609 821 622 Q 822 634 799 644 Q 769 665 701 645 Q 662 636 622 627 Q 618 626 616 625 L 575 616 Q 554 613 392 593 Q 364 589 386 572 Q 416 545 447 552 Q 484 561 532 569 L 623 585 Z" style="fill: #0070C0;"></path>
                                                                        <path d="M 616 625 Q 622 730 646 774 Q 652 783 641 796 Q 619 815 591 826 Q 575 835 560 829 Q 547 825 553 811 Q 580 766 575 616 L 572 543 Q 571 479 562 450 Q 561 438 577 399 Q 587 383 601 391 Q 611 400 612 559 L 616 625 Z" style="fill: #0070C0;"></path>
                                                                        <path d="M 532 569 Q 489 485 377 399 Q 362 387 377 386 Q 405 383 477 433 Q 534 491 540 497 Q 559 521 572 543 C 596 583 560 621 532 569 Z" style="fill: #0070C0;"></path>
                                                                        <path d="M 612 559 Q 667 492 728 431 Q 747 410 782 409 Q 843 406 908 418 Q 924 419 925 424 Q 928 430 914 435 Q 749 492 682 540 Q 663 553 644 568 Q 632 578 623 585 C 600 604 590 585 612 559 Z" style="fill: #0070C0;"></path>
                                                                        <path d="M 614 84 Q 672 48 759 -21 Q 784 -42 802 -41 Q 823 -41 823 -21 Q 823 -2 794 44 Q 782 66 753 79 Q 692 106 643 125 L 595 143 Q 555 158 525 165 Q 503 169 514 192 Q 530 229 542 256 L 559 294 Q 560 297 561 298 Q 570 323 580 338 Q 589 345 585 355 Q 579 368 540 394 Q 530 403 519 398 Q 506 394 514 379 Q 524 357 518 333 Q 512 309 506 288 L 495 250 Q 482 213 466 188 Q 457 170 460 158 Q 464 148 481 145 Q 523 135 568 109 L 614 84 Z" style="fill: #0070C0;"></path>
                                                                        <path d="M 568 109 Q 499 51 368 13 Q 350 4 371 2 Q 521 -14 614 84 L 643 125 Q 674 171 689 223 Q 696 253 705 268 C 718 295 721 303 705 313 Q 695 322 676 327 Q 657 337 637 334 Q 624 330 630 315 Q 633 311 635 304 L 639 265 Q 639 243 627 212 Q 615 172 595 143 L 568 109 Z" style="fill: #0070C0;"></path>
                                                                        <path d="M 705 268 Q 771 271 853 269 Q 919 266 926 276 Q 932 288 916 302 Q 861 345 805 330 Q 762 324 705 313 L 635 304 Q 590 303 559 294 L 506 288 Q 407 278 297 266 Q 276 265 291 247 Q 304 232 323 227 Q 344 221 360 225 Q 424 241 495 250 L 542 256 Q 575 262 639 265 L 705 268 Z" style="fill: #0070C0;"></path>
                                    
                                    
                                                                                                                                                                                                                                                                                                                                                                                                                                                                                                                                                                                                                                                                                                                                                                                                                                                                                                                                                                                                                            </g>
                            </svg>