<svg width='83' height='83' >
                                <g transform="translate(3, 70) scale(0.07, -0.07)">
                                    <!-- 先将完整的字以灰色字体绘制完成，层级位于下面 -->
                                                                        <path d="M 310 704 Q 343 679 378 646 Q 391 634 406 635 Q 416 636 421 649 Q 425 662 416 691 Q 410 713 376 729 Q 295 756 284 751 Q 280 747 281 735 Q 285 725 310 704 Z" style="fill: #0070C0;"></path>
                                                                        <path d="M 446 779 Q 500 695 527 691 Q 542 688 550 707 Q 554 720 546 743 Q 525 780 454 807 Q 444 810 442 797 Q 439 790 446 779 Z" style="fill: #0070C0;"></path>
                                                                        <path d="M 615 624 Q 697 705 741 738 Q 760 745 753 756 Q 744 772 722 789 Q 698 805 674 805 Q 658 802 662 782 Q 666 767 660 749 Q 635 700 582 620 C 565 595 594 603 615 624 Z" style="fill: #0070C0;"></path>
                                                                        <path d="M 262 578 Q 261 579 261 582 Q 249 607 237 616 Q 218 631 216 604 Q 219 577 190 533 Q 139 485 171 423 Q 187 395 207 424 Q 223 448 235 484 Q 250 526 260 555 C 265 569 265 569 262 578 Z" style="fill: #0070C0;"></path>
                                                                        <path d="M 582 620 Q 497 611 378 592 Q 323 585 268 579 Q 264 579 262 578 C 232 574 234 569 260 555 Q 288 534 330 543 Q 474 586 699 604 Q 735 608 749 605 Q 765 593 763 586 Q 763 583 729 507 Q 722 494 729 489 Q 736 485 753 497 Q 810 537 857 550 Q 894 563 894 571 Q 893 581 820 635 Q 799 651 775 647 Q 702 637 615 624 L 582 620 Z" style="fill: #0070C0;"></path>
                                                                        <path d="M 362 404 Q 374 423 388 437 Q 398 449 385 462 Q 346 495 323 492 Q 313 491 314 476 Q 323 421 261 339 Q 254 336 233 307 Q 226 294 239 297 Q 284 303 347 382 Q 348 388 354 393 L 362 404 Z" style="fill: #0070C0;"></path>
                                                                        <path d="M 534 386 Q 684 416 690 421 Q 699 428 695 436 Q 688 448 660 456 Q 639 462 538 433 L 481 420 Q 430 413 374 407 Q 365 406 362 404 C 346 400 346 400 354 393 Q 390 357 460 374 Q 470 377 483 377 L 534 386 Z" style="fill: #0070C0;"></path>
                                                                        <path d="M 525 290 Q 529 339 534 386 L 538 433 Q 539 442 540 450 Q 543 471 546 484 Q 550 497 552 505 Q 556 515 537 530 Q 503 548 481 551 Q 465 555 458 546 Q 451 539 459 525 Q 475 503 476 488 Q 479 455 481 420 L 483 377 Q 484 334 484 284 C 484 254 523 260 525 290 Z" style="fill: #0070C0;"></path>
                                                                        <path d="M 484 284 Q 345 268 182 248 Q 158 247 176 227 Q 192 211 211 205 Q 235 199 252 204 Q 453 255 791 255 Q 812 255 831 254 Q 853 254 859 264 Q 866 277 847 292 Q 790 335 748 327 Q 663 311 525 290 L 484 284 Z" style="fill: #0070C0;"></path>
                                                                        <path d="M 372 151 Q 360 157 332 160 Q 320 163 317 158 Q 310 151 320 136 Q 345 87 365 4 Q 369 -21 384 -37 Q 402 -59 407 -43 Q 408 -36 410 -28 L 407 9 Q 392 88 389 117 C 386 145 386 145 372 151 Z" style="fill: #0070C0;"></path>
                                                                        <path d="M 658 34 Q 686 100 715 117 Q 734 136 719 155 Q 703 170 648 199 Q 629 208 607 200 Q 529 172 372 151 C 342 147 359 113 389 117 Q 392 117 586 148 Q 608 152 616 142 Q 623 135 622 118 Q 615 76 604 41 C 595 12 646 7 658 34 Z" style="fill: #0070C0;"></path>
                                                                        <path d="M 410 -28 Q 420 -29 433 -28 Q 509 -13 673 -6 Q 685 -5 687 5 Q 687 14 658 34 L 604 41 Q 603 42 601 41 Q 493 19 407 9 C 377 5 380 -26 410 -28 Z" style="fill: #0070C0;"></path>
                                    
                                    
                                                                                                                                                                                                                                                                                                                                                                                                                                                                                                                                                                                                                                                                                                                                                                                                                                                                                                                                                                                                                            </g>
                            </svg>