<svg width='83' height='83' >
                                <g transform="translate(3, 70) scale(0.07, -0.07)">
                                    <!-- 先将完整的字以灰色字体绘制完成，层级位于下面 -->
                                                                        <path d="M 123 573 Q 113 577 92 581 Q 79 585 75 580 Q 68 573 77 556 Q 102 498 117 404 Q 120 376 135 357 Q 154 333 159 349 Q 163 362 164 381 L 162 416 Q 150 524 147 549 C 145 566 145 566 123 573 Z" style="fill: #0070C0;"></path>
                                                                        <path d="M 294 436 Q 307 530 332 558 Q 353 585 329 598 Q 308 608 281 623 Q 260 635 221 606 Q 184 591 123 573 C 94 564 119 539 147 549 Q 154 553 226 570 Q 248 576 253 567 Q 262 561 257 523 Q 253 486 246 442 C 241 412 290 406 294 436 Z" style="fill: #0070C0;"></path>
                                                                        <path d="M 164 381 Q 197 393 306 405 Q 316 406 317 416 Q 317 423 294 436 L 246 442 Q 242 442 238 440 Q 198 427 162 416 C 133 407 136 371 164 381 Z" style="fill: #0070C0;"></path>
                                                                        <path d="M 618 692 Q 745 719 750 722 Q 759 729 755 737 Q 748 747 722 755 Q 695 762 624 737 L 561 723 Q 512 714 453 710 Q 419 706 443 689 Q 476 668 545 680 Q 552 681 562 682 L 618 692 Z" style="fill: #0070C0;"></path>
                                                                        <path d="M 607 591 Q 665 601 717 607 Q 742 610 733 624 Q 723 640 696 645 Q 671 649 612 635 L 563 624 Q 496 611 436 598 Q 418 594 439 578 Q 452 568 481 572 Q 523 579 563 584 L 607 591 Z" style="fill: #0070C0;"></path>
                                                                        <path d="M 601 534 Q 604 564 607 591 L 612 635 Q 615 665 618 692 L 624 737 Q 625 749 628 757 Q 632 770 635 780 Q 639 790 620 805 Q 587 824 565 828 Q 549 832 542 824 Q 535 817 542 802 Q 558 778 559 761 Q 560 743 561 723 L 562 682 Q 563 654 563 624 L 563 584 Q 562 557 561 528 C 560 498 598 504 601 534 Z" style="fill: #0070C0;"></path>
                                                                        <path d="M 547 488 Q 610 509 864 509 Q 883 509 888 518 Q 892 528 876 542 Q 825 578 789 570 Q 719 554 601 534 L 561 528 Q 462 515 352 498 Q 331 495 347 479 Q 360 466 378 461 Q 399 457 414 461 Q 460 474 512 482 L 547 488 Z" style="fill: #0070C0;"></path>
                                                                        <path d="M 578 345 Q 521 348 475 348 Q 459 349 468 359 Q 514 401 555 430 Q 570 442 569 448 Q 569 460 547 488 C 529 512 517 512 512 482 Q 512 455 452 389 Q 439 373 415 361 Q 399 351 398 342 Q 399 326 408 310 Q 415 300 426 304 Q 456 316 551 324 C 581 327 608 343 578 345 Z" style="fill: #0070C0;"></path>
                                                                        <path d="M 600 230 Q 664 246 729 253 C 759 257 745 273 715 271 Q 618 264 503 242 Q 496 241 501 246 Q 544 279 644 342 Q 680 367 708 380 Q 721 386 719 396 Q 715 417 690 442 Q 678 455 669 455 Q 659 455 657 440 Q 647 403 578 345 L 551 324 Q 440 245 426 240 Q 413 236 412 222 Q 411 209 429 187 Q 436 174 452 182 Q 509 207 565 222 L 600 230 Z" style="fill: #0070C0;"></path>
                                                                        <path d="M 729 253 Q 762 211 771 209 Q 780 208 785 217 Q 792 227 789 251 Q 786 281 705 326 Q 693 332 688 330 Q 684 329 683 318 Q 683 317 715 271 L 729 253 Z" style="fill: #0070C0;"></path>
                                                                        <path d="M 565 222 Q 565 221 566 218 Q 579 181 575 70 Q 574 64 572 63 Q 568 48 541 52 Q 517 56 492 59 Q 480 59 479 53 Q 478 46 489 37 Q 550 -12 571 -43 Q 586 -56 596 -54 Q 608 -50 620 -16 Q 636 18 635 81 Q 632 130 632 148 Q 641 188 623 211 Q 610 223 600 230 C 576 248 557 251 565 222 Z" style="fill: #0070C0;"></path>
                                                                        <path d="M 419 148 Q 391 108 357 72 Q 333 45 343 10 Q 347 -8 370 0 Q 421 28 434 89 Q 444 119 442 143 Q 438 153 433 154 Q 426 155 419 148 Z" style="fill: #0070C0;"></path>
                                                                        <path d="M 712 138 Q 758 95 812 34 Q 827 15 841 10 Q 850 9 857 18 Q 869 31 857 73 Q 850 112 781 141 Q 738 160 713 168 Q 706 172 703 161 Q 702 148 712 138 Z" style="fill: #0070C0;"></path>
                                    
                                    
                                                                                                                                                                                                                                                                                                                                                                                                                                                                                                                                                                                                                                                                                                                                                                                                                                                                                                                                                                                                                                                                                                        </g>
                            </svg>