<svg width='83' height='83' >
                                <g transform="translate(3, 70) scale(0.07, -0.07)">
                                    <!-- 先将完整的字以灰色字体绘制完成，层级位于下面 -->
                                                                        <path d="M 141 553 Q 131 560 101 565 Q 88 569 85 564 Q 78 558 86 542 Q 116 472 128 358 Q 129 324 148 300 Q 164 278 171 293 Q 178 312 176 350 L 171 383 Q 155 492 154 524 C 153 547 153 547 141 553 Z" style="fill: #0070C0;"></path>
                                                                        <path d="M 316 410 Q 329 504 353 532 Q 375 560 351 573 Q 284 606 280 606 Q 271 606 262 599 Q 222 572 141 553 C 112 546 126 513 154 524 Q 164 530 240 546 Q 265 552 271 542 Q 277 536 263 414 C 260 384 312 380 316 410 Z" style="fill: #0070C0;"></path>
                                                                        <path d="M 176 350 Q 185 349 196 353 Q 236 366 327 381 Q 337 382 338 392 Q 338 399 316 410 C 289 424 289 424 263 414 Q 259 413 258 412 Q 209 393 171 383 C 142 375 146 351 176 350 Z" style="fill: #0070C0;"></path>
                                                                        <path d="M 611 675 Q 804 711 809 715 Q 819 722 815 732 Q 808 744 778 753 Q 748 760 717 750 Q 669 737 620 723 L 563 712 Q 493 702 416 697 Q 379 693 404 674 Q 449 647 503 658 Q 531 662 561 667 L 611 675 Z" style="fill: #0070C0;"></path>
                                                                        <path d="M 592 577 Q 602 628 611 675 L 620 723 Q 620 736 638 782 Q 642 791 625 805 Q 597 824 575 830 Q 562 834 554 828 Q 547 822 552 808 Q 565 787 565 774 Q 565 744 563 712 L 561 667 Q 558 621 554 568 C 552 538 586 548 592 577 Z" style="fill: #0070C0;"></path>
                                                                        <path d="M 478 560 Q 462 573 446 580 Q 434 583 425 579 Q 418 575 421 564 Q 436 534 443 453 Q 444 384 451 212 C 452 182 494 187 494 217 Q 494 245 494 272 L 494 294 Q 494 325 494 352 L 494 376 Q 494 406 494 432 L 494 456 Q 494 522 497 531 C 499 544 499 544 478 560 Z" style="fill: #0070C0;"></path>
                                                                        <path d="M 730 250 Q 736 505 759 533 Q 772 546 759 563 Q 750 573 704 601 Q 691 611 669 602 Q 636 590 592 577 L 554 568 Q 518 564 478 561 Q 477 561 478 560 C 448 556 467 530 497 531 Q 510 530 527 534 Q 671 570 681 559 Q 690 541 680 242 C 679 212 729 220 730 250 Z" style="fill: #0070C0;"></path>
                                                                        <path d="M 494 432 Q 500 432 508 433 Q 578 449 629 458 Q 650 462 641 473 Q 631 486 608 488 Q 578 491 494 456 C 466 445 464 431 494 432 Z" style="fill: #0070C0;"></path>
                                                                        <path d="M 494 352 Q 500 352 507 353 Q 574 366 625 374 Q 644 378 637 389 Q 627 402 605 405 Q 577 406 494 376 C 466 366 464 351 494 352 Z" style="fill: #0070C0;"></path>
                                                                        <path d="M 494 272 Q 497 271 508 272 Q 581 284 636 290 Q 657 294 649 305 Q 639 318 617 322 Q 584 326 494 294 C 466 284 464 275 494 272 Z" style="fill: #0070C0;"></path>
                                                                        <path d="M 451 212 Q 376 205 297 195 Q 275 194 291 175 Q 306 160 324 155 Q 346 149 363 154 Q 555 202 874 203 Q 893 203 913 202 Q 934 202 939 211 Q 945 223 928 237 Q 870 282 803 264 Q 770 258 730 250 L 680 242 Q 640 238 593 230 Q 544 224 494 217 L 451 212 Z" style="fill: #0070C0;"></path>
                                                                        <path d="M 458 130 Q 437 70 279 -28 Q 254 -40 284 -41 Q 348 -44 475 43 Q 475 46 528 82 Q 541 92 540 103 Q 539 118 513 130 Q 485 146 471 144 Q 462 144 458 130 Z" style="fill: #0070C0;"></path>
                                                                        <path d="M 687 109 Q 733 58 788 -14 Q 801 -35 816 -41 Q 825 -42 833 -34 Q 846 -21 838 22 Q 828 82 690 139 Q 683 145 679 133 Q 678 120 687 109 Z" style="fill: #0070C0;"></path>
                                    
                                    
                                                                                                                                                                                                                                                                                                                                                                                                                                                                                                                                                                                                                                                                                                                                                                                                                                                                                                                                                                                                                                                                                                        </g>
                            </svg>