<svg width='83' height='83' >
                                <g transform="translate(3, 70) scale(0.07, -0.07)">
                                    <!-- 先将完整的字以灰色字体绘制完成，层级位于下面 -->
                                                                        <path d="M 138 597 Q 128 603 98 609 Q 86 613 83 608 Q 76 602 84 587 Q 111 526 123 426 Q 124 396 141 375 Q 157 354 163 369 Q 169 385 167 414 L 163 444 Q 150 543 148 571 C 146 593 146 593 138 597 Z" style="fill: #0070C0;"></path>
                                                                        <path d="M 290 468 Q 302 553 325 580 Q 344 605 323 617 Q 304 627 278 642 Q 259 651 242 639 Q 217 621 138 597 C 109 588 119 564 148 571 Q 155 572 165 576 Q 199 585 227 592 Q 246 596 251 589 Q 258 583 254 548 Q 250 511 242 469 C 237 440 286 438 290 468 Z" style="fill: #0070C0;"></path>
                                                                        <path d="M 167 414 Q 177 413 189 417 Q 225 427 303 439 Q 313 440 313 449 Q 313 456 290 468 L 242 469 Q 241 469 240 469 Q 197 454 163 444 C 134 435 137 415 167 414 Z" style="fill: #0070C0;"></path>
                                                                        <path d="M 588 674 Q 678 693 682 696 Q 689 703 686 710 Q 680 720 656 727 Q 632 733 592 719 L 543 705 Q 537 705 531 703 Q 489 696 440 692 Q 409 688 431 672 Q 465 653 527 664 Q 534 665 544 666 L 588 674 Z" style="fill: #0070C0;"></path>
                                                                        <path d="M 579 582 Q 583 630 588 674 L 592 719 Q 595 755 602 785 Q 611 812 594 828 Q 566 844 544 848 Q 531 851 524 844 Q 517 837 524 825 Q 540 803 540 788 Q 541 748 543 705 L 544 666 Q 544 623 543 576 C 542 546 576 552 579 582 Z" style="fill: #0070C0;"></path>
                                                                        <path d="M 649 561 Q 731 571 847 575 Q 904 575 912 585 Q 916 595 901 607 Q 849 643 789 625 Q 744 615 687 602 L 617 588 Q 611 589 579 582 L 543 576 Q 447 563 342 544 Q 324 543 338 527 Q 351 515 367 511 Q 386 507 400 511 Q 484 536 578 551 Q 579 552 585 552 L 649 561 Z" style="fill: #0070C0;"></path>
                                                                        <path d="M 547 460 Q 602 512 649 561 L 687 602 Q 744 677 782 708 Q 792 718 786 735 Q 776 766 761 781 Q 749 796 733 799 Q 717 803 718 781 Q 718 774 720 762 Q 720 738 693 694 Q 654 633 617 588 L 585 552 Q 557 524 521 490 L 493 465 Q 475 452 457 434 Q 345 340 207 256 Q 200 252 197 245 Q 196 241 202 239 Q 238 239 353 309 Q 411 346 496 415 L 547 460 Z" style="fill: #0070C0;"></path>
                                                                        <path d="M 532 397 Q 587 409 624 419 Q 694 443 724 443 Q 743 444 740 461 Q 736 477 721 496 Q 708 512 697 515 Q 687 518 687 507 Q 680 486 589 440 Q 562 428 535 415 C 508 402 503 391 532 397 Z" style="fill: #0070C0;"></path>
                                                                        <path d="M 535 415 Q 538 434 544 444 Q 547 453 547 460 C 549 473 547 474 521 490 Q 499 505 491 502 Q 481 498 485 485 Q 489 476 493 465 L 496 415 Q 496 346 527 323 Q 570 293 711 307 Q 775 314 800 329 Q 821 341 811 362 Q 799 386 788 427 Q 787 437 781 442 Q 775 445 773 430 Q 761 381 753 373 Q 743 360 716 351 Q 617 327 559 345 Q 538 354 533 366 Q 530 376 532 397 L 535 415 Z" style="fill: #0070C0;"></path>
                                                                        <path d="M 509 247 Q 490 262 468 269 Q 461 270 455 263 Q 452 259 458 249 Q 482 201 465 69 Q 452 30 457 10 Q 464 -18 475 -29 Q 485 -41 493 -29 Q 502 -17 508 10 L 513 42 Q 514 52 514 60 Q 514 88 515 115 L 516 139 Q 517 197 520 218 C 522 237 522 237 509 247 Z" style="fill: #0070C0;"></path>
                                                                        <path d="M 658 19 Q 680 -9 696 -38 Q 703 -53 713 -52 Q 726 -51 740 -24 Q 756 9 753 48 Q 749 97 743 190 Q 742 217 755 236 Q 762 246 755 255 Q 739 271 694 292 Q 678 299 665 291 Q 614 267 509 247 C 480 241 490 215 520 218 Q 541 218 658 246 Q 676 250 684 244 Q 708 220 692 53 L 692 51 Q 688 38 676 40 C 651 28 651 28 658 19 Z" style="fill: #0070C0;"></path>
                                                                        <path d="M 515 115 Q 518 115 523 115 Q 592 122 643 127 Q 664 130 657 141 Q 647 154 625 159 Q 595 165 516 139 C 487 130 485 115 515 115 Z" style="fill: #0070C0;"></path>
                                                                        <path d="M 508 10 Q 512 10 519 10 Q 564 17 658 19 C 688 20 698 20 676 40 Q 669 47 656 56 Q 641 66 613 60 Q 558 48 513 42 C 483 38 478 10 508 10 Z" style="fill: #0070C0;"></path>
                                    
                                    
                                                                                                                                                                                                                                                                                                                                                                                                                                                                                                                                                                                                                                                                                                                                                                                                                                                                                                                                                                                                                                                                                                        </g>
                            </svg>