<svg width='83' height='83' >
                                <g transform="translate(3, 70) scale(0.07, -0.07)">
                                    <!-- 先将完整的字以灰色字体绘制完成，层级位于下面 -->
                                                                        <path d="M 150 555 Q 138 562 105 569 Q 92 573 89 568 Q 82 562 90 545 Q 121 473 135 358 Q 138 324 156 300 Q 174 278 179 293 Q 186 315 183 354 L 178 386 Q 162 494 158 527 C 155 553 155 553 150 555 Z" style="fill: #0070C0;"></path>
                                                                        <path d="M 315 411 Q 328 508 352 539 Q 373 564 349 578 Q 330 588 301 603 Q 280 615 241 586 Q 202 570 150 555 C 121 547 129 520 158 527 Q 165 528 176 532 Q 213 542 246 550 Q 268 556 273 547 Q 283 540 277 501 Q 273 461 265 413 C 260 383 311 381 315 411 Z" style="fill: #0070C0;"></path>
                                                                        <path d="M 183 354 Q 190 355 197 356 Q 237 369 327 383 Q 337 384 337 393 Q 337 400 315 411 L 265 413 L 264 413 Q 215 397 178 386 C 149 377 153 350 183 354 Z" style="fill: #0070C0;"></path>
                                                                        <path d="M 458 739 Q 422 735 447 718 Q 486 691 541 704 Q 638 720 737 738 Q 783 747 790 753 Q 799 760 795 768 Q 788 780 760 788 Q 739 794 623 763 Q 523 744 458 739 Z" style="fill: #0070C0;"></path>
                                                                        <path d="M 507 628 Q 495 632 469 636 Q 457 639 455 633 Q 449 627 458 612 Q 483 566 502 486 Q 506 461 520 446 Q 538 427 542 441 Q 546 451 545 468 L 540 500 Q 525 576 523 600 C 521 624 521 624 507 628 Z" style="fill: #0070C0;"></path>
                                                                        <path d="M 719 527 Q 737 587 765 611 Q 780 627 766 643 Q 708 691 671 675 Q 602 647 507 628 C 478 622 494 594 523 600 Q 532 601 542 605 Q 672 635 680 628 Q 689 619 672 531 C 666 502 710 498 719 527 Z" style="fill: #0070C0;"></path>
                                                                        <path d="M 545 468 Q 552 467 563 469 Q 617 482 733 493 Q 743 494 744 503 Q 744 512 719 527 L 672 531 Q 669 532 667 531 Q 597 512 540 500 C 511 494 515 469 545 468 Z" style="fill: #0070C0;"></path>
                                                                        <path d="M 415 360 Q 397 378 375 383 Q 369 387 364 380 Q 360 374 363 361 Q 396 292 370 122 Q 364 98 373 78 Q 383 57 400 45 Q 413 35 416 46 Q 423 50 427 71 Q 431 90 430 156 Q 429 271 435 314 Q 436 320 436 324 C 438 340 437 340 415 360 Z" style="fill: #0070C0;"></path>
                                                                        <path d="M 436 324 Q 445 324 455 328 Q 581 379 801 394 Q 817 394 827 384 Q 834 377 830 362 Q 840 137 826 104 Q 825 98 814 100 Q 783 107 750 114 Q 725 117 743 100 Q 812 51 840 13 Q 855 -2 868 12 Q 884 31 892 62 Q 901 95 888 269 Q 881 333 899 367 Q 912 386 906 394 Q 899 404 850 433 Q 834 446 799 432 Q 517 383 415 360 C 386 354 407 316 436 324 Z" style="fill: #0070C0;"></path>
                                                                        <path d="M 513 284 Q 529 265 545 241 Q 552 231 565 229 Q 572 228 578 237 Q 582 247 580 269 Q 577 290 516 319 Q 506 323 500 322 Q 496 321 495 311 Q 496 302 513 284 Z" style="fill: #0070C0;"></path>
                                                                        <path d="M 677 327 Q 668 305 646 270 Q 642 264 647 259 Q 653 259 658 263 Q 710 302 734 316 Q 747 320 744 329 Q 738 341 722 353 Q 706 366 689 366 Q 679 365 680 350 Q 683 340 677 327 Z" style="fill: #0070C0;"></path>
                                                                        <path d="M 641 193 Q 698 203 746 209 Q 768 213 761 225 Q 751 238 727 244 Q 705 247 666 238 Q 578 216 499 200 Q 483 197 502 182 Q 514 173 539 177 Q 567 183 596 186 L 641 193 Z" style="fill: #0070C0;"></path>
                                                                        <path d="M 596 186 Q 590 47 614 21 Q 623 12 631 32 Q 649 75 641 193 C 639 223 597 216 596 186 Z" style="fill: #0070C0;"></path>
                                    
                                    
                                                                                                                                                                                                                                                                                                                                                                                                                                                                                                                                                                                                                                                                                                                                                                                                                                                                                                                                                                                                                                                                                                        </g>
                            </svg>