<svg width='83' height='83' >
                                <g transform="translate(3, 70) scale(0.07, -0.07)">
                                    <!-- 先将完整的字以灰色字体绘制完成，层级位于下面 -->
                                                                        <path d="M 227 741 Q 215 745 192 748 Q 180 751 177 746 Q 170 739 180 724 Q 205 678 222 601 Q 226 579 240 563 Q 258 541 263 557 Q 264 566 266 577 L 263 610 Q 248 695 248 715 C 247 735 247 735 227 741 Z" style="fill: #0070C0;"></path>
                                                                        <path d="M 436 635 Q 457 702 479 722 Q 501 747 479 761 Q 421 797 412 796 Q 405 796 397 791 Q 342 758 227 741 C 197 736 220 704 248 715 Q 257 721 362 743 Q 396 750 403 737 Q 410 733 402 704 Q 395 677 388 646 C 381 617 427 606 436 635 Z" style="fill: #0070C0;"></path>
                                                                        <path d="M 266 577 Q 275 576 288 579 Q 336 594 442 609 Q 452 610 453 620 Q 453 626 436 635 L 388 646 Q 381 646 374 643 Q 313 622 263 610 C 234 603 236 578 266 577 Z" style="fill: #0070C0;"></path>
                                                                        <path d="M 139 468 Q 112 481 95 479 Q 82 475 88 463 Q 131 388 104 214 Q 86 157 90 146 Q 94 119 111 100 Q 118 87 128 93 Q 158 120 159 221 Q 158 396 160 433 C 161 458 161 458 139 468 Z" style="fill: #0070C0;"></path>
                                                                        <path d="M 339 487 Q 426 506 440 493 Q 447 487 445 474 Q 449 215 432 176 Q 429 169 420 171 Q 395 175 369 179 Q 345 180 362 166 Q 420 126 444 94 Q 460 78 474 93 Q 492 115 499 148 Q 509 182 495 371 Q 488 441 506 477 Q 518 496 512 502 Q 505 512 460 537 Q 445 549 403 532 Q 385 528 362 521 Q 314 512 139 468 C 110 461 132 423 160 433 Q 167 434 176 438 Q 191 445 213 453 L 234 461 Q 265 473 306 480 L 339 487 Z" style="fill: #0070C0;"></path>
                                                                        <path d="M 359 342 Q 386 349 412 353 Q 434 357 425 369 Q 415 382 391 386 Q 378 387 361 383 L 319 372 Q 288 365 261 355 L 223 344 Q 198 338 178 332 Q 162 328 182 315 Q 194 308 217 312 Q 218 313 223 313 L 260 321 Q 288 328 319 334 L 359 342 Z" style="fill: #0070C0;"></path>
                                                                        <path d="M 213 453 Q 213 452 215 447 Q 224 404 223 344 L 223 313 Q 217 247 229 224 Q 239 203 246 215 Q 259 234 259 280 Q 259 302 260 321 L 261 355 Q 262 413 266 429 Q 267 439 265 444 Q 258 451 234 461 C 207 473 207 473 213 453 Z" style="fill: #0070C0;"></path>
                                                                        <path d="M 321 219 Q 324 201 329 194 Q 333 190 338 191 Q 357 209 358 327 Q 358 334 359 342 L 361 383 Q 362 419 370 454 Q 371 467 362 473 Q 349 483 339 487 C 312 500 291 506 306 480 L 313 468 Q 319 455 319 372 L 319 334 Q 319 246 321 219 Z" style="fill: #0070C0;"></path>
                                                                        <path d="M 563 730 Q 541 730 542 719 Q 543 709 564 695 Q 589 677 626 688 Q 716 730 795 729 Q 816 729 820 698 Q 820 664 818 562 Q 814 334 820 191 Q 824 86 815 74 Q 811 65 799 65 Q 787 64 714 78 Q 701 81 699 75 Q 698 68 724 50 Q 773 20 807 -11 Q 837 -39 848 -35 Q 858 -34 865 -16 Q 889 32 886 73 Q 853 427 870 608 Q 873 683 894 702 Q 901 714 901 720 Q 901 730 871 751 Q 823 784 798 774 Q 690 735 563 730 Z" style="fill: #0070C0;"></path>
                                                                        <path d="M 575 578 Q 542 571 566 557 Q 602 539 682 556 Q 752 572 756 574 Q 763 581 759 589 Q 752 599 725 606 Q 697 610 671 598 Q 632 585 575 578 Z" style="fill: #0070C0;"></path>
                                                                        <path d="M 573 428 Q 563 435 536 441 Q 526 445 522 440 Q 518 436 523 422 Q 544 370 553 285 Q 554 260 567 243 Q 580 224 586 236 Q 592 251 591 277 L 588 309 Q 581 379 580 403 C 579 425 579 425 573 428 Z" style="fill: #0070C0;"></path>
                                                                        <path d="M 715 328 Q 728 386 746 405 Q 765 429 745 440 Q 727 450 703 465 Q 687 474 669 464 Q 650 451 623 442 Q 601 435 573 428 C 544 421 550 398 580 403 Q 587 404 595 406 Q 626 413 653 419 Q 672 423 676 416 Q 683 412 678 384 Q 674 359 668 330 C 662 301 708 299 715 328 Z" style="fill: #0070C0;"></path>
                                                                        <path d="M 591 277 Q 595 277 600 278 Q 640 287 729 295 Q 739 296 740 305 Q 740 312 715 328 C 699 339 697 338 668 330 Q 623 317 588 309 C 559 302 561 275 591 277 Z" style="fill: #0070C0;"></path>
                                    
                                    
                                                                                                                                                                                                                                                                                                                                                                                                                                                                                                                                                                                                                                                                                                                                                                                                                                                                                                                                                                                                                                                                                                        </g>
                            </svg>