<svg width='83' height='83' >
                                <g transform="translate(3, 70) scale(0.07, -0.07)">
                                    <!-- 先将完整的字以灰色字体绘制完成，层级位于下面 -->
                                                                        <path d="M 131 574 Q 121 580 94 585 Q 82 589 79 584 Q 72 578 80 563 Q 108 496 122 386 Q 123 355 141 331 Q 157 310 163 325 Q 170 344 166 381 L 162 414 Q 146 517 144 547 C 142 569 142 569 131 574 Z" style="fill: #0070C0;"></path>
                                                                        <path d="M 298 430 Q 314 527 339 557 Q 360 584 336 597 Q 317 607 289 623 Q 268 635 229 606 Q 174 585 131 574 C 102 566 115 541 144 547 Q 151 548 160 551 Q 199 563 233 571 Q 255 577 261 567 Q 270 561 263 523 Q 257 483 249 437 C 244 407 293 400 298 430 Z" style="fill: #0070C0;"></path>
                                                                        <path d="M 166 381 Q 206 391 306 403 Q 316 404 317 413 Q 317 420 298 430 L 249 437 Q 245 437 244 436 Q 201 423 162 414 C 133 407 137 374 166 381 Z" style="fill: #0070C0;"></path>
                                                                        <path d="M 619 695 Q 674 705 735 712 Q 792 722 801 729 Q 810 736 806 744 Q 800 757 772 765 Q 744 772 714 763 Q 669 751 624 740 L 570 729 Q 494 719 407 715 Q 371 711 396 693 Q 438 669 489 677 Q 529 683 572 688 L 619 695 Z" style="fill: #0070C0;"></path>
                                                                        <path d="M 612 628 Q 615 662 619 695 L 624 740 Q 624 773 638 808 Q 641 818 623 831 Q 592 847 571 852 Q 558 855 550 847 Q 543 840 551 827 Q 566 808 570 729 L 572 688 Q 573 657 573 621 C 573 591 609 598 612 628 Z" style="fill: #0070C0;"></path>
                                                                        <path d="M 573 621 Q 539 617 464 608 Q 439 607 458 591 Q 488 570 526 576 Q 641 597 712 600 Q 721 599 729 610 Q 730 620 711 629 Q 681 653 615 629 Q 614 629 612 628 L 573 621 Z" style="fill: #0070C0;"></path>
                                                                        <path d="M 445 522 Q 441 523 438 523 Q 428 526 424 521 Q 420 515 427 501 Q 449 464 465 401 Q 469 382 481 370 Q 497 351 502 365 Q 505 375 504 390 L 499 421 Q 490 472 488 490 C 485 515 475 517 445 522 Z" style="fill: #0070C0;"></path>
                                                                        <path d="M 710 441 Q 729 474 751 485 Q 767 500 755 516 Q 742 529 700 553 Q 685 560 666 555 Q 540 513 445 522 C 415 524 458 488 488 490 Q 503 490 650 512 Q 666 515 674 507 Q 678 503 677 492 Q 671 467 664 446 C 655 417 694 415 710 441 Z" style="fill: #0070C0;"></path>
                                                                        <path d="M 705 406 Q 712 407 723 408 Q 733 409 735 417 Q 735 424 710 441 C 695 451 694 451 664 446 Q 571 430 499 421 C 469 417 474 392 504 390 Q 510 389 520 390 Q 569 400 667 405 L 668 404 C 680 403 680 403 705 406 Z" style="fill: #0070C0;"></path>
                                                                        <path d="M 431 340 Q 441 324 451 306 Q 463 290 476 288 Q 486 285 494 299 Q 497 309 492 328 Q 480 349 439 362 Q 432 363 429 355 Q 428 348 431 340 Z" style="fill: #0070C0;"></path>
                                                                        <path d="M 666 284 Q 694 320 724 356 Q 739 366 732 376 Q 725 391 705 406 C 681 424 664 434 668 404 Q 674 377 635 291 Q 632 287 630 281 C 619 253 648 260 666 284 Z" style="fill: #0070C0;"></path>
                                                                        <path d="M 604 240 Q 652 241 698 246 Q 828 258 948 242 Q 970 239 976 247 Q 983 259 972 270 Q 945 295 906 314 Q 893 320 869 313 Q 853 310 666 284 L 630 281 Q 578 280 414 261 Q 353 252 259 253 Q 247 253 246 242 Q 245 232 262 218 Q 277 206 305 195 Q 315 191 332 198 Q 347 202 412 213 Q 497 232 604 240 Z" style="fill: #0070C0;"></path>
                                                                        <path d="M 455 153 Q 443 159 412 165 Q 400 168 397 163 Q 390 156 399 140 Q 424 88 441 2 Q 445 -23 460 -41 Q 478 -63 483 -47 Q 487 -34 486 -10 L 481 29 Q 471 96 468 122 C 465 149 465 149 455 153 Z" style="fill: #0070C0;"></path>
                                                                        <path d="M 723 46 Q 747 106 773 122 Q 789 140 776 157 Q 707 214 651 190 Q 561 162 455 153 C 425 150 438 119 468 122 Q 477 122 654 149 Q 673 153 681 145 Q 690 136 672 52 C 666 23 711 18 723 46 Z" style="fill: #0070C0;"></path>
                                                                        <path d="M 486 -10 Q 493 -11 505 -10 Q 580 2 740 3 Q 752 3 754 13 Q 754 22 723 46 C 711 56 702 55 672 52 Q 671 53 669 52 Q 564 36 481 29 C 451 26 456 -8 486 -10 Z" style="fill: #0070C0;"></path>
                                    
                                    
                                                                                                                                                                                                                                                                                                                                                                                                                                                                                                                                                                                                                                                                                                                                                                                                                                                                                                                                                                                                                                                                                                                                                                                                                                                                </g>
                            </svg>