<svg width='83' height='83' >
                                <g transform="translate(3, 70) scale(0.07, -0.07)">
                                    <!-- 先将完整的字以灰色字体绘制完成，层级位于下面 -->
                                                                        <path d="M 127 582 Q 117 588 90 593 Q 78 597 75 592 Q 68 586 76 571 Q 104 504 118 397 Q 119 366 137 343 Q 153 322 159 337 Q 163 353 163 378 L 160 410 Q 141 525 140 556 C 139 577 139 577 127 582 Z" style="fill: #0070C0;"></path>
                                                                        <path d="M 299 438 Q 314 535 339 566 Q 360 591 337 605 Q 318 615 290 631 Q 266 643 227 614 Q 173 596 127 582 C 98 573 112 546 140 556 Q 173 568 230 579 Q 255 586 261 576 Q 268 570 250 437 C 246 407 294 408 299 438 Z" style="fill: #0070C0;"></path>
                                                                        <path d="M 163 378 Q 169 378 177 380 Q 220 393 315 407 Q 325 408 325 417 Q 325 424 299 438 C 283 447 279 446 250 437 Q 198 421 160 410 C 131 402 133 376 163 378 Z" style="fill: #0070C0;"></path>
                                                                        <path d="M 492 666 Q 529 706 552 732 Q 600 793 622 811 Q 640 826 626 840 Q 610 853 581 860 Q 556 867 543 862 Q 531 858 539 845 Q 548 821 498 717 Q 486 695 475 670 Q 474 669 473 665 C 462 637 472 644 492 666 Z" style="fill: #0070C0;"></path>
                                                                        <path d="M 446 665 Q 427 678 407 684 Q 398 685 393 678 Q 390 674 397 664 Q 424 610 411 455 Q 408 433 401 408 Q 394 386 399 368 Q 408 338 418 327 Q 428 315 437 328 Q 458 358 459 513 Q 459 604 462 633 C 464 654 464 654 446 665 Z" style="fill: #0070C0;"></path>
                                                                        <path d="M 737 409 Q 730 388 741 368 Q 754 341 762 342 Q 775 343 790 373 Q 805 395 803 415 Q 784 601 817 649 Q 827 665 820 675 Q 792 700 744 721 Q 728 727 705 718 Q 612 681 492 666 L 473 665 Q 460 665 446 665 C 416 665 432 629 462 633 Q 471 633 597 658 Q 706 683 731 667 Q 740 648 744 596 Q 745 439 737 409 Z" style="fill: #0070C0;"></path>
                                                                        <path d="M 491 580 Q 515 535 530 532 Q 540 531 546 542 Q 547 551 544 565 Q 540 575 526 582 Q 507 595 497 597 Q 490 600 489 592 Q 488 586 491 580 Z" style="fill: #0070C0;"></path>
                                                                        <path d="M 673 608 Q 672 605 649 564 Q 645 555 653 557 Q 672 567 682 575 Q 706 596 720 601 Q 730 608 724 617 Q 717 626 702 632 Q 689 639 682 637 Q 675 636 678 628 Q 679 618 673 608 Z" style="fill: #0070C0;"></path>
                                                                        <path d="M 612 490 Q 619 493 631 494 Q 694 503 698 511 Q 699 518 684 525 Q 654 535 615 522 L 579 512 Q 522 503 482 495 Q 463 492 478 481 Q 496 466 543 476 Q 549 477 557 478 L 612 490 Z" style="fill: #0070C0;"></path>
                                                                        <path d="M 579 458 Q 579 383 588 368 Q 595 358 605 363 Q 615 372 612 432 Q 611 462 612 490 L 615 522 Q 618 570 630 592 Q 634 599 626 608 Q 610 621 590 629 Q 577 635 567 631 Q 557 627 562 617 Q 577 593 579 512 L 579 458 Z" style="fill: #0070C0;"></path>
                                                                        <path d="M 557 478 L 557 477 Q 536 438 483 395 Q 474 388 482 387 Q 503 384 542 416 Q 555 428 570 446 Q 574 453 579 458 C 602 484 569 507 557 478 Z" style="fill: #0070C0;"></path>
                                                                        <path d="M 656 429 Q 696 393 705 392 Q 711 393 714 401 Q 717 408 711 427 Q 708 437 690 446 Q 650 462 640 458 Q 637 457 638 448 Q 639 441 656 429 Z" style="fill: #0070C0;"></path>
                                                                        <path d="M 587 232 Q 638 238 901 238 Q 920 238 926 247 Q 933 259 915 273 Q 861 315 823 307 Q 738 291 597 271 L 534 264 Q 422 254 293 239 Q 271 238 287 219 Q 302 204 320 198 Q 342 192 359 197 Q 438 216 528 225 L 587 232 Z" style="fill: #0070C0;"></path>
                                                                        <path d="M 586 228 Q 586 231 587 232 L 597 271 Q 601 284 608 291 Q 617 304 608 313 Q 595 328 568 335 Q 547 344 529 339 Q 516 335 523 319 Q 538 295 534 264 L 528 225 Q 527 222 526 217 Q 499 99 342 38 Q 320 31 295 22 Q 279 12 299 10 Q 411 6 492 67 Q 547 109 578 201 L 586 228 Z" style="fill: #0070C0;"></path>
                                                                        <path d="M 578 201 Q 653 110 734 26 Q 756 4 793 2 Q 860 -2 932 10 Q 951 11 952 17 Q 953 23 940 29 Q 757 95 678 152 Q 656 168 636 185 Q 603 215 586 228 C 563 247 559 224 578 201 Z" style="fill: #0070C0;"></path>
                                    
                                    
                                                                                                                                                                                                                                                                                                                                                                                                                                                                                                                                                                                                                                                                                                                                                                                                                                                                                                                                                                                                                                                                                                                                                                                                                                                                </g>
                            </svg>