<svg width='83' height='83' >
                                <g transform="translate(3, 70) scale(0.07, -0.07)">
                                    <!-- 先将完整的字以灰色字体绘制完成，层级位于下面 -->
                                                                        <path d="M 120 573 Q 110 579 83 585 Q 73 589 69 584 Q 63 580 70 564 Q 97 495 108 387 Q 109 354 126 331 Q 141 310 146 324 Q 153 343 151 377 L 147 409 Q 132 514 130 546 C 128 569 128 569 120 573 Z" style="fill: #0070C0;"></path>
                                                                        <path d="M 273 429 Q 288 523 312 551 Q 333 576 311 589 Q 292 599 266 615 Q 248 624 231 613 Q 209 598 180 589 Q 155 582 120 573 C 91 565 101 540 130 546 Q 139 547 212 566 Q 233 570 238 562 Q 245 556 227 433 C 223 403 268 399 273 429 Z" style="fill: #0070C0;"></path>
                                                                        <path d="M 151 377 Q 157 377 164 379 Q 203 389 286 399 Q 296 400 297 409 Q 297 416 273 429 C 252 441 252 441 227 433 L 224 432 Q 181 419 147 409 C 118 401 121 375 151 377 Z" style="fill: #0070C0;"></path>
                                                                        <path d="M 448 644 Q 460 674 485 724 Q 492 737 478 747 Q 435 771 417 763 Q 407 759 411 747 Q 432 669 363 563 Q 345 541 339 526 Q 335 513 346 518 Q 391 533 438 622 L 448 644 Z" style="fill: #0070C0;"></path>
                                                                        <path d="M 438 622 Q 480 607 518 619 Q 546 625 576 631 Q 589 634 592 636 Q 599 643 595 650 Q 588 660 563 665 Q 538 669 512 658 Q 493 652 448 644 C 418 639 410 632 438 622 Z" style="fill: #0070C0;"></path>
                                                                        <path d="M 471 533 Q 505 491 517 488 Q 524 488 530 497 Q 534 507 530 529 Q 529 542 510 552 Q 467 573 456 570 Q 452 569 452 559 Q 453 550 471 533 Z" style="fill: #0070C0;"></path>
                                                                        <path d="M 687 678 Q 720 759 727 770 Q 734 783 719 794 Q 676 819 653 811 Q 643 807 647 794 Q 671 727 604 605 Q 594 601 575 559 Q 571 544 583 551 Q 623 563 674 653 L 687 678 Z" style="fill: #0070C0;"></path>
                                                                        <path d="M 674 653 Q 708 641 788 654 Q 819 660 853 666 Q 875 670 879 674 Q 886 681 883 689 Q 876 699 850 707 Q 822 711 795 701 Q 770 694 742 687 Q 715 683 687 678 C 657 673 645 662 674 653 Z" style="fill: #0070C0;"></path>
                                                                        <path d="M 703 568 Q 757 519 765 518 Q 772 519 777 529 Q 781 539 775 563 Q 769 585 701 605 Q 689 608 684 606 Q 680 603 681 594 Q 682 585 703 568 Z" style="fill: #0070C0;"></path>
                                                                        <path d="M 598 414 Q 650 424 710 433 Q 752 440 758 446 Q 765 453 762 461 Q 756 471 730 480 Q 709 486 610 459 Q 496 441 454 437 Q 420 433 443 417 Q 482 393 534 404 Q 541 405 553 407 L 598 414 Z" style="fill: #0070C0;"></path>
                                                                        <path d="M 605 79 Q 612 229 617 342 Q 620 391 618 396 Q 608 406 598 414 C 575 433 544 436 553 407 Q 565 374 566 277 Q 565 208 564 75 C 564 45 604 49 605 79 Z" style="fill: #0070C0;"></path>
                                                                        <path d="M 436 237 Q 458 271 478 298 Q 487 308 475 320 Q 442 348 420 346 Q 411 345 412 332 Q 421 248 327 153 Q 305 131 293 118 Q 286 106 298 109 Q 314 110 334 126 Q 389 168 425 220 L 436 237 Z" style="fill: #0070C0;"></path>
                                                                        <path d="M 425 220 Q 429 214 442 205 Q 464 186 487 164 Q 496 155 507 155 Q 514 156 518 165 Q 521 175 515 195 Q 511 210 488 222 Q 466 231 439 237 Q 438 238 436 237 C 410 238 410 238 425 220 Z" style="fill: #0070C0;"></path>
                                                                        <path d="M 733 265 Q 752 292 783 342 Q 793 361 794 365 Q 787 383 754 393 Q 738 396 729 394 Q 723 391 726 382 Q 747 328 632 189 Q 626 185 634 183 Q 670 195 718 246 L 733 265 Z" style="fill: #0070C0;"></path>
                                                                        <path d="M 718 246 Q 722 240 736 229 Q 770 201 806 168 Q 816 158 829 158 Q 838 158 841 169 Q 845 179 838 203 Q 834 225 801 241 Q 770 254 733 265 C 704 274 699 269 718 246 Z" style="fill: #0070C0;"></path>
                                                                        <path d="M 564 75 Q 437 66 290 54 Q 268 53 283 35 Q 298 19 316 13 Q 337 6 354 10 Q 567 56 895 35 Q 916 34 921 43 Q 928 55 911 70 Q 857 113 819 106 Q 738 93 605 79 L 564 75 Z" style="fill: #0070C0;"></path>
                                    
                                    
                                                                                                                                                                                                                                                                                                                                                                                                                                                                                                                                                                                                                                                                                                                                                                                                                                                                                                                                                                                                                                                                                                                                                                                                                                                                                                                                            </g>
                            </svg>