<svg width='83' height='83' >
                                <g transform="translate(3, 70) scale(0.07, -0.07)">
                                    <!-- 先将完整的字以灰色字体绘制完成，层级位于下面 -->
                                                                        <path d="M 129 556 Q 117 563 86 569 Q 74 573 71 568 Q 64 562 72 547 Q 99 480 111 374 Q 112 343 129 320 Q 145 298 151 313 Q 157 331 155 362 L 152 396 Q 137 499 136 529 C 135 553 135 553 129 556 Z" style="fill: #0070C0;"></path>
                                                                        <path d="M 288 419 Q 301 512 325 540 Q 344 565 323 577 Q 304 587 278 602 Q 257 614 218 585 Q 170 567 129 556 C 100 548 108 518 136 529 Q 137 532 220 552 Q 245 559 251 549 Q 257 545 242 425 C 238 395 284 389 288 419 Z" style="fill: #0070C0;"></path>
                                                                        <path d="M 155 362 Q 161 362 168 364 Q 208 376 298 389 Q 308 390 309 400 Q 309 407 288 419 C 269 430 269 430 242 425 Q 235 424 231 422 Q 186 406 152 396 C 123 387 125 360 155 362 Z" style="fill: #0070C0;"></path>
                                                                        <path d="M 569 796 Q 591 777 613 754 Q 628 741 644 742 Q 656 742 661 756 Q 665 772 655 803 Q 649 821 622 832 Q 553 853 540 847 Q 534 843 536 829 Q 540 819 569 796 Z" style="fill: #0070C0;"></path>
                                                                        <path d="M 429 682 Q 416 715 400 725 Q 397 729 391 726 Q 385 723 384 712 Q 385 682 355 625 Q 343 609 343 591 Q 344 572 353 558 Q 360 546 366 554 Q 372 554 381 569 Q 385 575 396 599 Q 414 639 423 654 Q 423 655 425 656 C 435 669 435 669 429 682 Z" style="fill: #0070C0;"></path>
                                                                        <path d="M 425 656 Q 443 647 493 659 Q 583 692 714 707 Q 736 711 746 709 Q 759 700 758 694 Q 758 693 741 637 Q 735 624 741 621 Q 748 617 762 628 Q 807 659 844 668 Q 874 678 873 685 Q 872 694 806 738 Q 788 753 711 736 Q 597 720 429 682 C 400 675 396 663 425 656 Z" style="fill: #0070C0;"></path>
                                                                        <path d="M 426 505 Q 438 520 450 534 L 460 549 Q 461 553 464 555 Q 492 601 491 607 Q 487 616 468 618 Q 447 621 439 617 Q 435 616 434 606 Q 434 560 346 449 Q 333 436 351 442 Q 372 448 414 491 L 426 505 Z" style="fill: #0070C0;"></path>
                                                                        <path d="M 450 534 Q 459 527 482 531 Q 528 541 530 535 Q 534 523 516 481 Q 500 435 448 373 Q 399 307 315 245 Q 296 235 312 235 Q 369 235 463 333 Q 518 394 563 477 Q 584 517 598 528 Q 608 535 603 545 Q 599 554 558 572 Q 548 576 531 567 Q 509 557 460 549 C 430 544 421 542 450 534 Z" style="fill: #0070C0;"></path>
                                                                        <path d="M 414 491 Q 415 490 417 487 Q 447 445 466 442 Q 476 441 481 454 Q 482 464 475 479 Q 466 495 426 505 C 397 512 397 512 414 491 Z" style="fill: #0070C0;"></path>
                                                                        <path d="M 371 417 Q 398 365 417 360 Q 427 357 434 371 Q 437 381 433 397 Q 421 424 378 437 Q 371 440 369 431 Q 366 425 371 417 Z" style="fill: #0070C0;"></path>
                                                                        <path d="M 693 464 Q 777 525 815 541 Q 824 544 825 551 Q 826 561 805 575 Q 747 618 733 605 Q 691 587 621 571 Q 602 570 615 553 Q 633 534 655 540 Q 709 570 722 565 Q 738 559 736 550 Q 736 547 682 473 C 664 449 669 446 693 464 Z" style="fill: #0070C0;"></path>
                                                                        <path d="M 682 473 Q 649 515 609 511 Q 594 511 592 506 Q 591 502 605 493 Q 644 471 710 400 Q 794 316 840 315 Q 900 319 948 330 Q 976 336 973 343 Q 972 349 841 383 Q 780 398 693 464 L 682 473 Z" style="fill: #0070C0;"></path>
                                                                        <path d="M 499 346 Q 465 339 490 325 Q 529 306 580 320 Q 625 330 672 341 Q 693 347 696 350 Q 703 357 699 365 Q 692 375 665 381 Q 637 385 611 373 Q 587 364 561 357 Q 533 350 499 346 Z" style="fill: #0070C0;"></path>
                                                                        <path d="M 592 227 Q 652 237 748 241 Q 791 241 796 250 Q 800 260 786 272 Q 732 308 679 286 Q 463 243 414 232 Q 396 229 410 215 Q 440 193 470 201 Q 507 213 553 221 L 592 227 Z" style="fill: #0070C0;"></path>
                                                                        <path d="M 553 221 Q 568 206 567 75 Q 566 53 563 48 Q 560 35 537 39 Q 507 46 476 54 Q 464 55 463 49 Q 462 43 472 34 Q 538 -20 560 -52 Q 575 -65 586 -63 Q 598 -59 609 -26 Q 625 7 623 67 Q 620 128 621 151 Q 628 191 611 211 Q 601 221 592 227 C 568 245 540 248 553 221 Z" style="fill: #0070C0;"></path>
                                                                        <path d="M 393 165 Q 371 125 344 89 Q 323 62 338 28 Q 344 12 364 22 Q 407 50 413 111 Q 420 141 414 163 Q 410 172 405 173 Q 398 172 393 165 Z" style="fill: #0070C0;"></path>
                                                                        <path d="M 708 157 Q 754 111 811 44 Q 826 23 841 18 Q 848 17 857 27 Q 870 39 859 83 Q 849 131 710 188 Q 701 192 699 181 Q 698 168 708 157 Z" style="fill: #0070C0;"></path>
                                    
                                    
                                                                                                                                                                                                                                                                                                                                                                                                                                                                                                                                                                                                                                                                                                                                                                                                                                                                                                                                                                                                                                                                                                                                                                                                                                                                                                                                                                                                                        </g>
                            </svg>