<svg width='83' height='83' >
                                <g transform="translate(3, 70) scale(0.07, -0.07)">
                                    <!-- 先将完整的字以灰色字体绘制完成，层级位于下面 -->
                                                                        <path d="M 268 735 Q 226 762 208 756 Q 199 750 206 735 Q 231 648 233 614 Q 233 290 214 199 Q 196 109 198 93 Q 198 69 227 34 Q 239 18 252 33 Q 262 48 266 65 L 270 102 Q 274 138 274 192 Q 284 681 289 692 C 292 721 292 721 268 735 Z" style="fill: #0070C0;"></path>
                                                                        <path d="M 723 85 Q 750 52 771 9 Q 781 -15 797 -14 Q 810 -13 820 9 Q 853 61 832 251 Q 814 662 838 697 Q 839 700 843 703 Q 855 716 854 725 Q 854 738 821 762 Q 763 804 720 789 Q 699 785 665 779 Q 517 766 338 738 Q 301 734 268 735 C 238 735 260 687 289 692 Q 301 693 318 697 Q 331 701 451 719 Q 601 740 715 746 Q 740 747 745 735 Q 769 711 767 408 Q 768 225 770 182 Q 773 134 763 116 Q 759 103 752 102 Q 745 101 735 107 Q 734 108 731 108 C 710 103 710 103 723 85 Z" style="fill: #0070C0;"></path>
                                                                        <path d="M 531 465 Q 673 498 679 502 Q 686 509 683 517 Q 676 527 650 535 Q 626 538 539 511 L 482 496 Q 424 486 360 478 Q 327 472 351 457 Q 390 436 451 450 Q 461 453 476 454 L 531 465 Z" style="fill: #0070C0;"></path>
                                                                        <path d="M 539 511 Q 543 536 548 565 Q 554 584 556 595 Q 563 614 544 626 Q 499 654 484 653 Q 465 652 478 628 Q 493 598 482 496 L 476 454 Q 464 340 372 250 Q 369 249 366 245 Q 332 218 319 205 Q 316 198 328 197 Q 362 194 426 248 Q 495 312 526 445 Q 527 455 531 465 L 539 511 Z" style="fill: #0070C0;"></path>
                                                                        <path d="M 550 364 Q 596 315 652 243 Q 665 224 678 220 Q 685 219 693 226 Q 705 236 696 276 Q 689 324 553 391 Q 546 395 542 385 Q 541 373 550 364 Z" style="fill: #0070C0;"></path>
                                                                        <path d="M 266 65 Q 269 64 271 63 Q 284 59 300 61 Q 432 79 723 85 C 753 86 752 87 731 108 Q 722 118 705 132 Q 686 145 649 139 Q 438 108 270 102 C 240 101 237 73 266 65 Z" style="fill: #0070C0;"></path>
                                    
                                    
                                                                                                                                                                                                                                                                                                                                                                                                                                                                                                                                                    </g>
                            </svg>