<svg width='83' height='83' >
                                <g transform="translate(3, 70) scale(0.07, -0.07)">
                                    <!-- 先将完整的字以灰色字体绘制完成，层级位于下面 -->
                                                                        <path d="M 249 743 Q 234 758 209 767 Q 197 773 184 768 Q 175 762 182 748 Q 207 652 209 620 Q 209 284 175 149 Q 154 68 195 19 Q 207 3 220 17 Q 229 29 233 42 L 238 80 Q 244 119 244 181 Q 259 695 264 699 C 267 729 267 729 249 743 Z" style="fill: #0070C0;"></path>
                                                                        <path d="M 716 74 Q 740 44 759 4 Q 769 -18 785 -18 Q 798 -17 808 5 Q 839 62 817 249 Q 799 675 817 698 Q 818 704 824 707 Q 836 722 835 730 Q 835 743 801 766 Q 737 811 705 795 Q 684 791 645 784 Q 497 772 318 745 Q 284 741 249 743 C 219 743 234 694 264 699 Q 277 698 298 704 Q 311 708 431 726 Q 581 745 695 750 Q 720 751 725 738 Q 750 713 751 407 Q 754 223 756 179 Q 760 130 749 111 Q 745 98 741 98 C 730 70 706 88 716 74 Z" style="fill: #0070C0;"></path>
                                                                        <path d="M 510 596 Q 543 605 579 611 Q 607 618 611 621 Q 618 628 614 635 Q 608 644 585 650 Q 558 656 515 637 L 464 624 Q 428 618 391 614 Q 361 610 382 595 Q 418 576 461 587 Q 462 588 466 587 L 510 596 Z" style="fill: #0070C0;"></path>
                                                                        <path d="M 503 526 Q 507 563 510 596 L 515 637 Q 515 638 516 640 Q 516 641 526 681 Q 527 690 513 701 Q 485 717 467 720 Q 454 723 448 716 Q 442 710 448 698 Q 460 683 464 624 L 466 587 Q 467 556 468 519 C 469 489 500 496 503 526 Z" style="fill: #0070C0;"></path>
                                                                        <path d="M 575 500 Q 620 506 675 507 Q 721 507 728 516 Q 732 526 718 536 Q 667 569 612 550 Q 566 541 503 526 L 468 519 Q 381 504 281 487 Q 265 484 278 471 Q 305 449 343 460 Q 437 490 540 497 L 575 500 Z" style="fill: #0070C0;"></path>
                                                                        <path d="M 377 446 Q 401 395 418 389 Q 427 386 435 398 Q 438 407 435 423 Q 426 447 385 465 Q 379 468 376 459 Q 375 455 377 446 Z" style="fill: #0070C0;"></path>
                                                                        <path d="M 536 399 Q 560 432 570 447 Q 576 456 585 467 Q 595 474 590 482 Q 586 491 575 500 C 552 520 538 527 540 497 Q 543 476 520 415 Q 514 402 513 393 C 508 363 518 375 536 399 Z" style="fill: #0070C0;"></path>
                                                                        <path d="M 494 354 Q 521 360 622 374 Q 629 373 637 383 Q 638 392 620 401 Q 598 416 536 399 L 513 393 Q 504 393 497 390 Q 473 386 351 367 Q 329 364 346 350 Q 373 331 418 341 Q 433 345 454 347 L 494 354 Z" style="fill: #0070C0;"></path>
                                                                        <path d="M 510 250 Q 568 259 655 261 Q 698 261 703 269 Q 707 279 694 289 Q 651 319 592 303 Q 558 296 513 285 L 464 276 Q 392 264 309 250 Q 293 247 305 235 Q 317 225 331 221 Q 347 217 360 221 Q 408 237 464 244 L 510 250 Z" style="fill: #0070C0;"></path>
                                                                        <path d="M 503 144 Q 506 166 510 250 L 513 285 Q 513 306 519 324 Q 520 337 511 344 Q 501 351 494 354 C 467 368 445 376 454 347 Q 460 335 464 276 L 464 244 Q 465 220 465 190 Q 466 115 475 99 C 483 77 483 77 492 101 Q 498 116 503 144 Z" style="fill: #0070C0;"></path>
                                                                        <path d="M 233 42 Q 237 42 245 42 Q 396 67 716 74 C 746 75 763 78 741 98 Q 708 137 618 119 Q 552 110 492 101 L 475 99 Q 348 86 238 80 C 208 78 203 41 233 42 Z" style="fill: #0070C0;"></path>
                                    
                                    
                                                                                                                                                                                                                                                                                                                                                                                                                                                                                                                                                                                                                                                                                                                                                                                                                                                                                                                                                </g>
                            </svg>