<svg width='83' height='83' >
                                <g transform="translate(3, 70) scale(0.07, -0.07)">
                                    <!-- 先将完整的字以灰色字体绘制完成，层级位于下面 -->
                                                                        <path d="M 310 540 Q 398 567 400 567 Q 409 576 404 584 Q 397 596 366 602 Q 338 606 312 596 L 262 577 Q 187 558 140 551 Q 103 542 130 527 Q 175 503 233 522 Q 245 526 262 528 L 310 540 Z" style="fill: #0070C0;"></path>
                                                                        <path d="M 299 351 Q 303 448 310 540 L 312 596 Q 315 695 336 768 Q 340 780 319 795 Q 282 814 257 819 Q 241 823 232 814 Q 225 807 233 790 Q 260 750 260 723 Q 261 653 262 577 L 262 528 Q 261 435 255 333 C 253 303 298 321 299 351 Z" style="fill: #0070C0;"></path>
                                                                        <path d="M 255 333 Q 201 314 147 292 Q 131 285 101 283 Q 88 280 86 269 Q 85 254 96 247 Q 123 232 160 216 Q 172 215 183 224 Q 196 239 361 343 Q 383 356 397 370 Q 410 380 410 389 Q 403 395 390 390 Q 345 371 299 351 L 255 333 Z" style="fill: #0070C0;"></path>
                                                                        <path d="M 636 671 Q 810 707 819 713 Q 829 722 823 731 Q 816 744 784 752 Q 760 758 649 725 Q 552 704 503 700 Q 463 693 491 675 Q 531 650 596 663 L 636 671 Z" style="fill: #0070C0;"></path>
                                                                        <path d="M 687 457 Q 777 469 919 469 Q 940 470 944 479 Q 950 491 932 505 Q 869 548 813 528 Q 759 518 684 501 L 633 492 Q 534 477 420 459 Q 398 456 415 439 Q 451 409 497 423 Q 561 442 636 450 L 687 457 Z" style="fill: #0070C0;"></path>
                                                                        <path d="M 636 450 Q 646 177 598 103 Q 595 96 586 92 Q 574 91 497 126 Q 490 127 486 125 Q 483 121 491 111 Q 548 44 576 -3 Q 585 -19 594 -18 Q 607 -17 634 7 Q 691 58 694 163 Q 697 217 687 457 L 684 501 Q 672 645 666 652 Q 659 659 636 671 C 610 686 583 690 596 663 Q 621 627 633 492 L 636 450 Z" style="fill: #0070C0;"></path>
                                    
                                    
                                                                                                                                                                                                                                                                                                                                                                                                                                                                                                                                                    </g>
                            </svg>