<svg width='83' height='83' >
                                <g transform="translate(3, 70) scale(0.07, -0.07)">
                                    <!-- 先将完整的字以灰色字体绘制完成，层级位于下面 -->
                                                                        <path d="M 316 478 Q 415 506 421 511 Q 430 520 424 528 Q 417 540 386 545 Q 338 551 319 532 L 267 513 Q 215 495 139 483 Q 102 474 130 459 Q 170 438 259 463 Q 262 464 267 465 L 316 478 Z" style="fill: #0070C0;"></path>
                                                                        <path d="M 307 288 Q 311 385 316 478 L 319 532 Q 322 640 342 711 Q 345 723 324 739 Q 287 758 260 763 Q 242 767 234 757 Q 227 750 235 733 Q 263 693 263 665 Q 266 592 267 513 L 267 465 Q 266 372 262 271 C 261 241 306 258 307 288 Z" style="fill: #0070C0;"></path>
                                                                        <path d="M 262 271 Q 205 253 145 231 Q 126 224 95 223 Q 80 220 79 209 Q 78 193 89 184 Q 117 168 156 149 Q 169 146 182 157 Q 216 190 377 277 Q 399 290 416 305 Q 431 315 430 326 Q 424 332 410 328 Q 361 309 307 288 L 262 271 Z" style="fill: #0070C0;"></path>
                                                                        <path d="M 546 594 Q 582 645 620 718 Q 636 755 653 773 Q 660 785 655 798 Q 649 811 618 831 Q 590 846 570 844 Q 551 840 562 819 Q 586 780 518 638 Q 485 574 440 500 Q 430 488 429 482 Q 426 470 441 474 Q 463 484 527 566 L 546 594 Z" style="fill: #0070C0;"></path>
                                                                        <path d="M 527 566 Q 570 548 642 565 Q 711 583 784 602 Q 820 612 825 617 Q 834 627 828 635 Q 819 648 788 654 Q 755 658 724 643 Q 684 627 641 614 Q 598 604 546 594 C 517 588 499 576 527 566 Z" style="fill: #0070C0;"></path>
                                                                        <path d="M 462 396 Q 449 393 446 385 Q 445 378 453 375 Q 486 369 517 378 Q 560 397 588 406 Q 609 412 611 405 Q 617 396 605 380 Q 479 194 488 113 Q 491 77 518 55 Q 584 -2 743 1 Q 828 2 931 45 Q 962 60 953 82 Q 931 137 918 228 Q 914 241 906 241 Q 900 241 896 225 Q 890 194 883 158 Q 873 109 836 89 Q 796 68 705 67 Q 614 66 580 83 Q 549 99 540 130 Q 519 200 634 339 Q 668 382 705 401 Q 727 414 719 426 Q 712 441 662 464 Q 643 474 617 461 Q 536 415 462 396 Z" style="fill: #0070C0;"></path>
                                    
                                    
                                                                                                                                                                                                                                                                                                                                                                                                                                                                                                                                                    </g>
                            </svg>