<svg width='83' height='83' >
                                <g transform="translate(3, 70) scale(0.07, -0.07)">
                                    <!-- 先将完整的字以灰色字体绘制完成，层级位于下面 -->
                                                                        <path d="M 532 578 Q 704 609 713 615 Q 723 622 719 632 Q 712 644 682 653 Q 652 660 621 650 Q 578 638 536 627 L 479 616 Q 413 606 340 601 Q 303 597 328 578 Q 368 554 443 565 Q 459 568 479 570 L 532 578 Z" style="fill: #0070C0;"></path>
                                                                        <path d="M 522 452 Q 526 518 532 578 L 536 627 Q 537 696 557 779 Q 561 791 540 806 Q 503 827 476 831 Q 458 835 450 826 Q 443 817 451 801 Q 473 770 473 749 Q 477 685 479 616 L 479 570 Q 479 512 478 445 C 478 415 520 422 522 452 Z" style="fill: #0070C0;"></path>
                                                                        <path d="M 478 445 Q 342 429 186 409 Q 162 406 180 387 Q 214 356 257 365 Q 464 422 844 422 Q 866 422 872 432 Q 878 445 859 460 Q 802 502 759 494 Q 671 475 522 452 L 478 445 Z" style="fill: #0070C0;"></path>
                                                                        <path d="M 540 227 Q 592 237 649 245 Q 704 255 713 263 Q 723 270 719 280 Q 712 292 682 301 Q 652 308 621 298 Q 582 286 543 276 L 480 262 Q 405 250 324 245 Q 287 241 312 222 Q 355 195 411 207 Q 444 213 480 218 L 540 227 Z" style="fill: #0070C0;"></path>
                                                                        <path d="M 531 79 Q 535 160 540 227 L 543 276 Q 544 285 545 292 Q 549 343 545 349 Q 520 376 494 388 Q 481 392 470 388 Q 460 384 464 371 Q 479 332 480 262 L 480 218 Q 480 163 480 74 C 480 44 529 49 531 79 Z" style="fill: #0070C0;"></path>
                                                                        <path d="M 480 74 Q 332 58 160 42 Q 135 41 153 19 Q 189 -17 236 -8 Q 503 55 861 34 Q 861 35 864 34 Q 889 33 895 43 Q 902 58 882 75 Q 821 123 774 115 Q 681 99 531 79 L 480 74 Z" style="fill: #0070C0;"></path>
                                    
                                    
                                                                                                                                                                                                                                                                                                                                                                                                                                                                                                                                                    </g>
                            </svg>