<svg width='83' height='83' >
                                <g transform="translate(3, 70) scale(0.07, -0.07)">
                                    <!-- 先将完整的字以灰色字体绘制完成，层级位于下面 -->
                                                                        <path d="M 312 496 Q 391 520 398 527 Q 405 536 401 544 Q 392 556 361 560 Q 336 563 314 553 L 259 529 Q 243 525 229 518 Q 187 505 138 495 Q 101 485 130 471 Q 164 456 239 474 Q 248 477 260 480 L 312 496 Z" style="fill: #0070C0;"></path>
                                                                        <path d="M 304 319 Q 308 410 312 496 L 314 553 Q 315 632 335 734 Q 339 746 317 762 Q 277 783 251 787 Q 233 790 224 780 Q 215 773 225 756 Q 253 716 253 689 Q 257 613 259 529 L 260 480 Q 260 395 257 300 C 256 270 303 289 304 319 Z" style="fill: #0070C0;"></path>
                                                                        <path d="M 257 300 Q 197 278 133 252 Q 115 245 85 243 Q 72 240 70 229 Q 69 214 80 207 Q 107 192 144 176 Q 156 173 167 184 Q 192 208 355 306 Q 377 319 393 334 Q 406 344 406 353 Q 399 359 386 354 Q 346 338 304 319 L 257 300 Z" style="fill: #0070C0;"></path>
                                                                        <path d="M 540 658 Q 648 694 697 721 Q 743 743 784 754 Q 803 757 806 765 Q 809 777 795 788 Q 732 827 693 823 Q 686 819 685 806 Q 686 772 521 672 C 495 656 512 648 540 658 Z" style="fill: #0070C0;"></path>
                                                                        <path d="M 534 522 Q 537 610 541 640 Q 542 650 540 658 C 540 664 540 664 521 672 Q 472 694 457 691 Q 436 687 454 664 Q 493 601 471 385 Q 461 334 439 274 Q 418 217 333 123 Q 317 108 313 100 Q 312 93 324 94 Q 367 98 433 173 Q 518 273 532 489 L 534 522 Z" style="fill: #0070C0;"></path>
                                                                        <path d="M 726 515 Q 730 521 903 542 Q 918 543 918 550 Q 919 563 896 579 Q 859 600 807 581 Q 725 556 613 536 Q 573 530 534 522 C 505 516 502 492 532 489 Q 533 490 535 489 Q 548 486 571 488 Q 623 498 667 505 L 726 515 Z" style="fill: #0070C0;"></path>
                                                                        <path d="M 697 4 Q 701 -23 709 -33 Q 715 -40 723 -38 Q 738 -29 745 34 Q 745 319 762 472 Q 766 491 751 500 Q 738 510 726 515 C 700 529 654 532 667 505 Q 683 480 690 410 Q 694 16 697 4 Z" style="fill: #0070C0;"></path>
                                    
                                    
                                                                                                                                                                                                                                                                                                                                                                                                                                                                                                                                                                                                                                </g>
                            </svg>