<svg width='83' height='83' >
                                <g transform="translate(3, 70) scale(0.07, -0.07)">
                                    <!-- 先将完整的字以灰色字体绘制完成，层级位于下面 -->
                                                                        <path d="M 290 471 Q 371 496 377 501 Q 384 508 380 517 Q 373 527 343 533 Q 316 536 292 524 L 242 504 Q 124 476 114 473 Q 80 464 106 450 Q 151 431 201 447 Q 220 453 242 458 L 290 471 Z" style="fill: #0070C0;"></path>
                                                                        <path d="M 283 285 Q 287 382 290 471 L 292 524 Q 293 612 314 719 Q 318 731 296 747 Q 259 766 232 771 Q 214 774 206 765 Q 199 756 207 740 Q 235 700 236 671 Q 240 592 242 504 L 242 458 Q 242 367 238 266 C 237 236 282 255 283 285 Z" style="fill: #0070C0;"></path>
                                                                        <path d="M 238 266 Q 180 242 117 215 Q 101 208 72 205 Q 59 202 58 191 Q 57 178 68 170 Q 93 157 130 142 Q 140 141 152 150 Q 176 175 327 271 Q 348 284 362 298 Q 374 308 373 317 Q 367 321 355 318 Q 319 302 283 285 L 238 266 Z" style="fill: #0070C0;"></path>
                                                                        <path d="M 491 649 Q 512 568 418 346 Q 376 252 306 170 Q 281 137 254 108 Q 248 102 246 97 Q 242 87 252 88 Q 286 88 382 198 Q 392 214 406 231 Q 439 283 489 392 L 498 415 Q 519 478 546 576 Q 550 592 558 607 Q 568 620 564 633 Q 554 648 536 660 C 513 679 486 679 491 649 Z" style="fill: #0070C0;"></path>
                                                                        <path d="M 638 216 Q 539 125 428 85 Q 403 78 404 73 Q 405 61 473 79 Q 578 106 670 175 L 709 214 Q 769 286 792 379 Q 804 421 826 441 Q 832 445 830 454 Q 827 475 774 500 Q 755 507 729 495 Q 719 488 685 476 Q 655 467 678 517 Q 699 560 742 651 Q 755 676 771 686 Q 789 696 793 707 Q 796 720 753 742 Q 705 767 666 744 Q 611 708 447 683 Q 443 683 441 682 Q 419 681 420 669 Q 421 659 453 651 Q 468 647 491 649 L 536 660 Q 539 663 663 700 Q 681 706 685 697 Q 694 673 639 537 Q 623 509 608 491 Q 593 475 601 459 Q 610 444 621 436 Q 630 430 637 431 Q 644 432 657 440 Q 711 464 734 442 Q 744 432 734 394 Q 710 292 669 251 L 638 216 Z" style="fill: #0070C0;"></path>
                                                                        <path d="M 489 392 Q 541 350 628 228 Q 632 222 638 216 L 670 175 Q 752 82 774 74 Q 823 62 945 69 Q 982 70 979 81 Q 979 85 944 100 Q 767 163 710 214 L 709 214 L 669 251 Q 614 305 558 374 Q 530 410 498 415 C 469 424 466 412 489 392 Z" style="fill: #0070C0;"></path>
                                    
                                    
                                                                                                                                                                                                                                                                                                                                                                                                                                                                                                                                                    </g>
                            </svg>