<svg width='83' height='83' >
                                <g transform="translate(3, 70) scale(0.07, -0.07)">
                                    <!-- 先将完整的字以灰色字体绘制完成，层级位于下面 -->
                                                                        <path d="M 306 472 Q 388 496 392 499 Q 401 508 396 516 Q 389 528 358 534 Q 331 538 308 528 L 258 510 Q 179 489 136 483 Q 99 474 126 459 Q 168 438 259 461 L 306 472 Z" style="fill: #0070C0;"></path>
                                                                        <path d="M 299 282 Q 303 379 306 472 L 308 528 Q 311 660 330 727 Q 334 739 312 755 Q 275 774 248 779 Q 230 782 222 773 Q 215 764 223 748 Q 253 706 253 677 Q 257 598 258 510 L 259 461 Q 258 368 254 266 C 253 236 298 252 299 282 Z" style="fill: #0070C0;"></path>
                                                                        <path d="M 254 266 Q 116 218 83 215 Q 70 212 68 201 Q 67 188 77 179 Q 102 163 140 146 Q 150 143 163 153 Q 191 180 358 271 Q 380 284 397 298 Q 410 307 410 317 Q 404 323 391 319 Q 346 301 299 282 L 254 266 Z" style="fill: #0070C0;"></path>
                                                                        <path d="M 525 633 Q 615 648 695 683 Q 741 699 779 707 Q 797 707 800 715 Q 804 725 793 737 Q 736 782 701 778 Q 694 774 693 764 Q 687 725 511 647 C 484 635 495 628 525 633 Z" style="fill: #0070C0;"></path>
                                                                        <path d="M 508 482 Q 515 584 523 608 Q 530 621 525 633 L 511 647 Q 496 659 475 667 Q 456 677 442 672 Q 430 665 437 651 Q 488 587 424 306 Q 420 291 415 275 Q 390 203 314 67 Q 310 60 307 54 Q 306 44 316 46 Q 350 52 424 177 Q 433 195 442 214 Q 482 311 505 452 L 508 482 Z" style="fill: #0070C0;"></path>
                                                                        <path d="M 676 233 Q 730 324 754 418 Q 761 455 782 474 Q 798 489 779 505 Q 757 521 721 534 Q 699 541 676 529 Q 610 495 519 484 Q 512 484 508 482 C 478 477 475 450 505 452 Q 526 449 668 482 Q 692 489 692 462 Q 692 363 637 270 L 614 236 Q 560 169 412 119 Q 396 115 407 106 Q 414 100 444 106 Q 535 118 589 147 Q 620 166 647 195 L 676 233 Z" style="fill: #0070C0;"></path>
                                                                        <path d="M 647 195 Q 755 66 791 61 Q 909 61 946 65 Q 980 68 978 78 Q 977 84 888 114 Q 752 165 690 221 Q 683 227 676 233 L 637 270 Q 615 292 592 317 Q 558 354 525 356 Q 509 357 505 352 Q 504 346 517 336 Q 544 318 614 236 L 647 195 Z" style="fill: #0070C0;"></path>
                                    
                                    
                                                                                                                                                                                                                                                                                                                                                                                                                                                                                                                                                                                                                                </g>
                            </svg>