<svg width='83' height='83' >
                                <g transform="translate(3, 70) scale(0.07, -0.07)">
                                    <!-- 先将完整的字以灰色字体绘制完成，层级位于下面 -->
                                                                        <path d="M 354 722 Q 357 677 256 567 Q 253 567 252 564 Q 222 537 151 487 Q 142 483 152 479 Q 209 479 308 555 Q 309 558 313 559 Q 350 590 410 655 Q 419 664 424 667 Q 431 671 431 681 Q 431 691 421 704 Q 390 738 362 735 Q 353 734 354 722 Z" style="fill: #0070C0;"></path>
                                                                        <path d="M 483 791 Q 484 784 499 780 Q 541 780 567 753 Q 657 662 698 613 Q 779 520 819 515 Q 927 515 960 533 Q 976 537 963 546 Q 942 555 834 591 Q 768 612 596 776 Q 557 818 496 801 Q 483 798 483 791 Z" style="fill: #0070C0;"></path>
                                                                        <path d="M 467 534 Q 533 550 588 556 Q 607 557 611 552 Q 618 542 614 518 Q 608 448 592 417 Q 574 386 547 391 Q 523 395 502 402 Q 480 408 496 387 Q 536 353 556 324 Q 569 308 584 319 Q 635 350 662 470 Q 668 527 689 550 Q 699 560 695 571 Q 686 581 641 602 Q 623 609 606 599 Q 584 586 499 568 Q 414 549 343 545 Q 327 545 325 537 Q 324 530 344 520 Q 365 507 382 513 Q 407 520 435 526 L 467 534 Z" style="fill: #0070C0;"></path>
                                                                        <path d="M 435 526 Q 435 442 283 304 Q 279 301 277 295 Q 276 291 281 291 Q 341 291 463 441 Q 463 444 491 477 Q 498 486 493 498 Q 481 522 469 533 Q 468 534 467 534 C 445 554 437 556 435 526 Z" style="fill: #0070C0;"></path>
                                                                        <path d="M 526 182 Q 580 191 636 197 Q 691 206 701 213 Q 710 220 706 228 Q 700 241 672 250 Q 644 257 614 249 Q 574 239 531 228 L 472 218 Q 399 208 316 207 Q 280 204 304 185 Q 337 161 422 170 Q 446 173 474 176 L 526 182 Z" style="fill: #0070C0;"></path>
                                                                        <path d="M 515 68 Q 521 128 526 182 L 531 228 Q 534 247 537 260 Q 541 270 543 279 Q 546 289 528 302 Q 497 320 474 323 Q 459 327 452 319 Q 445 312 453 298 Q 468 280 472 218 L 474 176 Q 475 124 476 66 C 477 36 512 38 515 68 Z" style="fill: #0070C0;"></path>
                                                                        <path d="M 476 66 Q 344 56 191 43 Q 169 42 184 23 Q 197 7 217 0 Q 239 -7 257 -2 Q 488 47 830 25 Q 852 24 857 33 Q 864 46 847 61 Q 792 106 752 98 Q 664 85 515 68 L 476 66 Z" style="fill: #0070C0;"></path>
                                    
                                    
                                                                                                                                                                                                                                                                                                                                                                                                                                                                                                                                                                                                                                </g>
                            </svg>