<svg width='83' height='83' >
                                <g transform="translate(3, 70) scale(0.07, -0.07)">
                                    <!-- 先将完整的字以灰色字体绘制完成，层级位于下面 -->
                                                                        <path d="M 309 473 Q 334 482 364 489 Q 395 498 401 503 Q 410 512 404 520 Q 397 532 366 537 Q 338 541 312 530 L 258 509 Q 195 488 135 479 Q 98 470 126 455 Q 165 434 258 459 L 309 473 Z" style="fill: #0070C0;"></path>
                                                                        <path d="M 300 285 Q 304 382 309 473 L 312 530 Q 315 638 335 709 Q 339 722 316 738 Q 277 759 251 763 Q 233 767 224 757 Q 215 748 225 732 Q 253 692 253 664 Q 257 589 258 509 L 258 459 Q 257 366 253 266 C 252 236 299 255 300 285 Z" style="fill: #0070C0;"></path>
                                                                        <path d="M 253 266 Q 189 244 122 217 Q 103 210 70 207 Q 57 204 55 193 Q 54 180 65 171 Q 90 156 128 139 Q 138 136 151 147 Q 181 175 362 276 Q 387 289 405 306 Q 418 316 418 325 Q 411 331 398 327 Q 350 308 300 285 L 253 266 Z" style="fill: #0070C0;"></path>
                                                                        <path d="M 543 550 Q 574 610 608 694 Q 621 734 637 757 Q 644 770 636 783 Q 629 796 594 813 Q 561 826 542 822 Q 523 816 536 795 Q 552 773 549 749 Q 537 671 509 595 Q 481 522 440 438 Q 433 425 431 418 Q 430 405 444 411 Q 471 421 529 524 L 543 550 Z" style="fill: #0070C0;"></path>
                                                                        <path d="M 529 524 Q 550 505 575 513 Q 630 535 694 552 Q 727 562 738 558 Q 753 545 746 535 Q 747 528 707 450 Q 700 440 705 433 Q 709 427 722 440 Q 822 518 868 537 Q 878 540 879 549 Q 879 562 848 578 Q 824 591 800 606 Q 772 621 755 612 Q 676 578 543 550 C 514 544 505 541 529 524 Z" style="fill: #0070C0;"></path>
                                                                        <path d="M 587 298 Q 602 355 620 385 Q 632 404 615 415 Q 567 458 539 450 Q 524 447 529 430 Q 556 367 502 225 Q 448 102 341 47 Q 323 37 305 25 Q 290 16 303 13 Q 364 9 446 69 Q 533 132 576 259 Q 576 263 578 266 L 587 298 Z" style="fill: #0070C0;"></path>
                                                                        <path d="M 578 266 Q 674 107 769 7 Q 791 -21 815 -20 Q 878 -10 932 0 Q 956 3 955 9 Q 956 16 930 30 Q 789 96 731 148 Q 646 227 587 298 C 568 321 562 292 578 266 Z" style="fill: #0070C0;"></path>
                                    
                                    
                                                                                                                                                                                                                                                                                                                                                                                                                                                                                                                                                                                                                                </g>
                            </svg>