<svg width='83' height='83' >
                                <g transform="translate(3, 70) scale(0.07, -0.07)">
                                    <!-- 先将完整的字以灰色字体绘制完成，层级位于下面 -->
                                                                        <path d="M 303 510 Q 396 537 400 539 Q 409 548 404 556 Q 397 568 366 574 Q 335 578 305 565 Q 304 565 304 564 L 253 546 Q 178 527 124 518 Q 87 511 114 495 Q 159 471 218 489 Q 234 493 254 497 L 303 510 Z" style="fill: #0070C0;"></path>
                                                                        <path d="M 295 313 Q 299 415 303 510 L 304 564 Q 305 639 326 747 Q 330 759 308 775 Q 271 794 244 799 Q 226 802 218 793 Q 211 784 219 768 Q 247 728 248 699 Q 252 626 253 546 L 254 497 Q 254 401 250 296 C 249 266 294 283 295 313 Z" style="fill: #0070C0;"></path>
                                                                        <path d="M 250 296 Q 121 251 91 249 Q 78 246 76 236 Q 75 223 85 214 Q 110 199 145 182 Q 155 181 168 190 Q 201 220 359 304 Q 381 316 397 330 Q 410 339 410 349 Q 401 355 295 313 L 250 296 Z" style="fill: #0070C0;"></path>
                                                                        <path d="M 675 632 Q 741 642 833 642 Q 884 642 892 652 Q 898 665 880 678 Q 823 717 764 698 Q 629 671 416 635 Q 395 632 411 615 Q 441 588 490 600 Q 605 633 630 626 L 675 632 Z" style="fill: #0070C0;"></path>
                                                                        <path d="M 634 446 Q 679 519 710 555 Q 719 568 711 584 Q 695 617 677 631 Q 676 632 675 632 C 653 652 628 656 630 626 L 631 625 Q 637 588 603 512 Q 600 506 597 498 L 566 445 Q 479 306 284 138 Q 277 134 276 126 Q 275 119 282 120 Q 309 120 415 201 Q 416 204 420 206 Q 493 269 582 377 L 634 446 Z" style="fill: #0070C0;"></path>
                                                                        <path d="M 582 377 Q 597 302 563 73 Q 551 19 600 -15 Q 616 -27 618 -14 Q 627 -10 630 15 Q 639 49 632 163 Q 625 364 633 436 Q 634 442 634 446 C 637 476 624 485 597 498 Q 564 514 562 515 Q 555 519 549 511 Q 545 504 548 489 Q 558 467 566 445 L 582 377 Z" style="fill: #0070C0;"></path>
                                                                        <path d="M 719 338 Q 789 274 875 181 Q 894 159 911 153 Q 921 152 929 163 Q 942 178 929 227 Q 914 291 720 373 Q 710 379 708 364 Q 707 349 719 338 Z" style="fill: #0070C0;"></path>
                                    
                                    
                                                                                                                                                                                                                                                                                                                                                                                                                                                                                                                                                                                                                                </g>
                            </svg>