<svg width='83' height='83' >
                                <g transform="translate(3, 70) scale(0.07, -0.07)">
                                    <!-- 先将完整的字以灰色字体绘制完成，层级位于下面 -->
                                                                        <path d="M 305 489 Q 392 514 397 519 Q 406 528 400 536 Q 393 548 362 553 Q 332 557 307 545 L 254 525 Q 163 501 127 495 Q 90 486 118 471 Q 160 450 220 468 Q 235 472 255 476 L 305 489 Z" style="fill: #0070C0;"></path>
                                                                        <path d="M 298 314 Q 302 404 305 489 L 307 545 Q 307 611 326 716 Q 330 728 308 743 Q 271 762 244 766 Q 226 770 218 760 Q 211 753 219 736 Q 246 699 247 673 Q 251 603 254 525 L 255 476 Q 255 389 254 294 C 254 264 297 284 298 314 Z" style="fill: #0070C0;"></path>
                                                                        <path d="M 254 294 Q 196 270 134 242 Q 118 235 87 231 Q 74 228 73 216 Q 72 203 84 195 Q 111 182 148 166 Q 160 165 171 175 Q 198 203 353 304 Q 375 317 390 334 Q 402 344 401 353 Q 395 359 382 354 Q 342 335 298 314 L 254 294 Z" style="fill: #0070C0;"></path>
                                                                        <path d="M 567 754 Q 604 730 644 700 Q 660 688 677 691 Q 689 692 693 708 Q 696 724 682 756 Q 664 793 555 805 Q 539 806 532 803 Q 526 799 530 785 Q 536 773 567 754 Z" style="fill: #0070C0;"></path>
                                                                        <path d="M 432 579 Q 401 575 425 556 Q 464 529 493 538 Q 694 589 841 610 Q 853 609 862 623 Q 862 636 837 646 Q 800 668 719 640 Q 632 618 432 579 Z" style="fill: #0070C0;"></path>
                                                                        <path d="M 526 422 Q 510 434 497 437 Q 475 449 458 442 Q 445 438 452 423 Q 485 380 455 241 Q 424 132 310 42 Q 300 33 310 31 Q 397 40 470 154 Q 476 169 491 199 Q 503 229 521 336 Q 521 364 535 395 C 542 412 542 412 526 422 Z" style="fill: #0070C0;"></path>
                                                                        <path d="M 959 52 Q 986 62 975 89 Q 957 141 959 223 Q 959 245 953 251 Q 946 258 940 242 Q 904 122 876 101 Q 863 88 825 83 Q 737 73 684 133 Q 644 205 689 357 Q 705 406 735 428 Q 763 450 731 463 Q 715 472 678 483 Q 653 492 609 460 Q 588 451 526 422 C 499 409 506 387 535 395 Q 560 401 619 420 Q 629 426 636 422 Q 640 413 628 301 Q 601 109 691 53 Q 718 37 754 23 Q 854 -7 959 52 Z" style="fill: #0070C0;"></path>
                                    
                                    
                                                                                                                                                                                                                                                                                                                                                                                                                                                                                                                                                                                                                                </g>
                            </svg>