<svg width='83' height='83' >
                                <g transform="translate(3, 70) scale(0.07, -0.07)">
                                    <!-- 先将完整的字以灰色字体绘制完成，层级位于下面 -->
                                                                        <path d="M 315 507 Q 414 540 418 543 Q 425 552 420 560 Q 413 572 382 576 Q 351 580 321 564 Q 320 564 318 563 L 269 543 Q 202 522 146 511 Q 109 501 138 487 Q 174 471 248 488 Q 255 491 269 494 L 315 507 Z" style="fill: #0070C0;"></path>
                                                                        <path d="M 307 325 Q 311 419 315 507 L 318 563 Q 319 648 340 756 Q 344 768 323 783 Q 286 802 261 807 Q 245 811 236 801 Q 229 794 237 778 Q 265 738 265 709 Q 269 630 269 543 L 269 494 Q 268 406 262 308 C 260 278 306 295 307 325 Z" style="fill: #0070C0;"></path>
                                                                        <path d="M 262 308 Q 201 289 137 267 Q 118 260 84 259 Q 71 258 69 246 Q 68 231 77 223 Q 102 207 139 188 Q 151 187 163 196 Q 197 224 381 318 Q 406 331 425 346 Q 438 355 438 365 Q 432 371 419 367 Q 365 348 307 325 L 262 308 Z" style="fill: #0070C0;"></path>
                                                                        <path d="M 523 692 Q 522 693 521 694 Q 499 712 471 720 Q 462 721 456 714 Q 452 707 460 697 Q 508 591 471 360 Q 450 285 455 267 Q 465 233 476 220 Q 488 207 498 221 Q 525 251 526 384 Q 526 612 534 663 C 536 682 536 682 523 692 Z" style="fill: #0070C0;"></path>
                                                                        <path d="M 745 307 Q 738 282 753 259 Q 768 228 778 230 Q 793 231 809 267 Q 825 295 823 316 Q 807 422 805 585 Q 804 633 829 674 Q 839 690 832 701 Q 804 726 754 746 Q 738 750 714 742 Q 630 705 523 692 C 493 688 505 656 534 663 Q 533 664 536 664 Q 588 674 629 684 Q 713 705 731 693 Q 744 663 751 586 Q 758 352 745 307 Z" style="fill: #0070C0;"></path>
                                                                        <path d="M 602 502 Q 617 210 543 118 Q 534 109 524 99 Q 475 56 368 17 Q 355 11 354 7 Q 354 3 366 1 Q 382 -3 426 9 Q 499 24 551 68 Q 636 135 647 298 Q 663 518 667 523 Q 670 533 678 551 Q 685 566 674 577 Q 652 596 612 607 Q 587 613 577 606 Q 568 599 576 586 Q 598 549 602 502 Z" style="fill: #0070C0;"></path>
                                                                        <path d="M 672 172 Q 739 108 817 16 Q 833 -5 848 -10 Q 857 -11 865 -1 Q 878 12 867 57 Q 858 112 675 204 Q 665 210 663 197 Q 662 184 672 172 Z" style="fill: #0070C0;"></path>
                                    
                                    
                                                                                                                                                                                                                                                                                                                                                                                                                                                                                                                                                                                                                                </g>
                            </svg>