<svg width='83' height='83' >
                                <g transform="translate(3, 70) scale(0.07, -0.07)">
                                    <!-- 先将完整的字以灰色字体绘制完成，层级位于下面 -->
                                                                        <path d="M 308 508 Q 399 533 404 537 Q 411 544 407 553 Q 400 563 372 570 Q 342 573 311 561 L 260 543 Q 245 540 231 535 Q 185 523 128 516 Q 92 509 119 494 Q 158 470 216 488 Q 235 494 260 497 L 308 508 Z" style="fill: #0070C0;"></path>
                                                                        <path d="M 299 324 Q 303 418 308 508 L 311 561 Q 312 633 332 736 Q 336 748 315 763 Q 278 782 253 787 Q 237 791 228 782 Q 221 773 229 758 Q 256 719 256 692 Q 259 620 260 543 L 260 497 Q 259 406 254 308 C 253 278 298 294 299 324 Z" style="fill: #0070C0;"></path>
                                                                        <path d="M 254 308 Q 194 289 132 268 Q 113 261 80 261 Q 67 260 65 248 Q 64 235 74 226 Q 98 210 133 192 Q 143 189 156 199 Q 189 227 335 298 Q 404 335 413 343 Q 426 350 426 360 Q 420 366 407 363 Q 355 344 299 324 L 254 308 Z" style="fill: #0070C0;"></path>
                                                                        <path d="M 536 682 Q 558 703 621 771 Q 636 790 656 803 Q 674 816 660 831 Q 644 844 618 853 Q 593 860 582 856 Q 570 852 577 840 Q 589 813 512 682 C 497 656 514 661 536 682 Z" style="fill: #0070C0;"></path>
                                                                        <path d="M 542 646 Q 585 662 694 684 Q 704 685 711 681 Q 720 677 720 662 Q 720 625 707 560 Q 703 533 678 537 Q 644 543 618 548 Q 603 549 607 541 Q 608 531 636 513 Q 672 483 693 451 Q 700 442 710 445 Q 717 446 731 468 Q 749 493 763 568 Q 775 659 788 672 Q 798 682 793 693 Q 783 705 746 725 Q 734 731 670 715 Q 658 715 536 682 C 504 673 480 625 542 646 Z" style="fill: #0070C0;"></path>
                                                                        <path d="M 512 682 Q 505 688 493 692 Q 474 698 465 689 Q 458 683 467 671 Q 483 640 481 576 Q 480 524 479 460 Q 480 397 467 345 Q 461 323 477 308 Q 498 290 520 306 Q 556 331 681 347 Q 805 366 826 347 Q 839 335 826 290 Q 817 226 804 157 Q 794 103 770 70 Q 761 57 736 59 Q 702 69 670 78 Q 654 82 655 75 Q 655 69 663 62 Q 721 10 741 -27 Q 750 -48 768 -38 Q 831 -8 846 64 Q 867 158 883 261 Q 892 301 911 333 Q 924 349 912 363 Q 894 384 856 406 Q 834 419 805 406 Q 762 390 723 386 Q 668 380 554 360 Q 527 356 526 378 Q 526 597 542 645 Q 541 646 542 646 C 547 670 540 672 512 682 Z" style="fill: #0070C0;"></path>
                                                                        <path d="M 544 173 Q 676 194 742 190 Q 763 190 767 198 Q 773 210 761 220 Q 695 268 635 242 Q 611 238 588 230 Q 468 211 403 194 Q 369 187 316 181 Q 304 180 304 170 Q 304 160 322 148 Q 361 124 393 138 Q 436 156 544 173 Z" style="fill: #0070C0;"></path>
                                    
                                    
                                                                                                                                                                                                                                                                                                                                                                                                                                                                                                                                                                                                                                </g>
                            </svg>