<svg width='83' height='83' >
                                <g transform="translate(3, 70) scale(0.07, -0.07)">
                                    <!-- 先将完整的字以灰色字体绘制完成，层级位于下面 -->
                                                                        <path d="M 403 506 Q 396 494 370 497 Q 339 501 303 500 Q 281 499 307 487 Q 370 465 428 435 Q 441 425 452 437 Q 462 447 467 469 Q 471 490 454 524 Q 435 561 403 589 Q 388 605 386 613 Q 382 625 392 637 Q 435 701 457 715 Q 476 728 466 740 Q 453 758 417 777 Q 398 784 383 773 Q 329 734 260 724 C 230 719 250 690 279 696 Q 316 703 356 719 Q 372 726 381 718 Q 385 714 379 698 Q 366 667 356 634 Q 344 613 368 581 Q 414 523 403 506 Z" style="fill: #0070C0;"></path>
                                                                        <path d="M 260 724 Q 239 740 213 748 Q 206 749 199 742 Q 196 738 203 727 Q 245 631 220 421 Q 214 388 204 352 Q 197 328 202 310 Q 211 279 222 268 Q 232 255 241 268 Q 265 298 267 464 Q 267 696 279 696 C 283 708 283 708 260 724 Z" style="fill: #0070C0;"></path>
                                                                        <path d="M 627 592 Q 642 632 656 683 Q 663 707 673 730 Q 679 740 672 750 Q 665 759 632 772 Q 610 779 600 777 Q 588 771 592 757 Q 625 607 446 403 Q 440 399 437 393 Q 431 386 438 383 Q 466 379 547 462 Q 587 502 610 552 Q 614 561 618 569 L 627 592 Z" style="fill: #0070C0;"></path>
                                                                        <path d="M 618 569 Q 682 481 754 398 Q 772 376 806 372 Q 867 365 932 372 Q 948 373 950 377 Q 953 383 940 389 Q 763 468 698 524 Q 665 554 627 592 C 606 613 600 593 618 569 Z" style="fill: #0070C0;"></path>
                                                                        <path d="M 535 213 Q 595 223 657 230 Q 715 240 725 247 Q 735 254 730 264 Q 724 277 695 286 Q 664 293 633 284 Q 585 271 538 260 L 481 250 Q 405 240 320 237 Q 283 233 308 214 Q 351 187 407 196 Q 444 202 483 206 L 535 213 Z" style="fill: #0070C0;"></path>
                                                                        <path d="M 524 79 Q 530 149 535 213 L 538 260 Q 538 269 546 310 Q 555 340 542 354 Q 539 357 537 358 Q 503 376 481 379 Q 465 382 458 374 Q 451 367 459 353 Q 477 329 477 312 Q 478 282 481 250 L 483 206 Q 484 145 484 75 C 484 45 521 49 524 79 Z" style="fill: #0070C0;"></path>
                                                                        <path d="M 484 75 Q 342 65 178 51 Q 156 50 172 31 Q 185 15 205 9 Q 227 2 245 6 Q 489 60 846 37 Q 868 36 873 45 Q 880 58 863 73 Q 808 118 768 110 Q 675 95 524 79 L 484 75 Z" style="fill: #0070C0;"></path>
                                    
                                    
                                                                                                                                                                                                                                                                                                                                                                                                                                                                                                                                                                                                                                </g>
                            </svg>