<svg width='83' height='83' >
                                <g transform="translate(3, 70) scale(0.07, -0.07)">
                                    <!-- 先将完整的字以灰色字体绘制完成，层级位于下面 -->
                                                                        <path d="M 308 455 Q 393 480 397 483 Q 404 492 400 500 Q 393 512 362 517 Q 334 521 309 511 L 261 493 Q 155 468 132 463 Q 95 454 122 439 Q 159 418 257 442 Q 258 443 262 443 L 308 455 Z" style="fill: #0070C0;"></path>
                                                                        <path d="M 302 257 Q 305 360 308 455 L 309 511 Q 312 650 331 732 Q 334 744 312 759 Q 275 778 248 782 Q 230 786 222 776 Q 215 769 223 752 Q 254 709 255 678 Q 259 590 261 493 L 262 443 Q 262 346 258 239 C 257 209 301 227 302 257 Z" style="fill: #0070C0;"></path>
                                                                        <path d="M 258 239 Q 200 218 139 194 Q 120 187 90 185 Q 77 182 75 172 Q 74 157 85 150 Q 110 137 145 119 Q 157 118 168 127 Q 285 202 405 278 Q 418 288 418 297 Q 411 301 399 298 Q 353 279 302 257 L 258 239 Z" style="fill: #0070C0;"></path>
                                                                        <path d="M 495 629 Q 483 635 453 641 Q 440 645 437 639 Q 430 633 439 617 Q 476 524 494 375 Q 494 333 520 300 Q 538 278 543 293 Q 546 302 547 312 L 548 348 Q 547 367 542 392 Q 535 429 529 461 L 524 490 Q 511 565 508 595 C 505 625 505 625 495 629 Z" style="fill: #0070C0;"></path>
                                                                        <path d="M 703 331 Q 722 301 741 293 Q 751 284 768 307 Q 790 346 827 549 Q 837 582 861 608 Q 874 621 863 636 Q 847 654 802 681 Q 784 690 707 671 Q 695 671 580 647 Q 534 637 495 629 C 466 623 479 586 508 595 Q 509 596 514 597 Q 589 619 721 639 Q 749 643 759 634 Q 778 612 774 589 Q 734 370 712 358 C 699 337 699 337 703 331 Z" style="fill: #0070C0;"></path>
                                                                        <path d="M 529 461 Q 563 455 650 469 Q 701 479 707 482 Q 714 489 711 497 Q 704 507 678 515 Q 650 519 623 509 Q 601 502 577 497 Q 552 493 524 490 C 494 487 499 465 529 461 Z" style="fill: #0070C0;"></path>
                                                                        <path d="M 547 312 Q 596 324 703 331 C 733 333 735 339 712 358 Q 705 364 694 371 Q 678 380 647 372 Q 593 359 548 348 C 519 341 518 305 547 312 Z" style="fill: #0070C0;"></path>
                                                                        <path d="M 335 121 Q 310 120 328 99 Q 361 66 407 75 Q 581 117 898 118 Q 916 118 934 117 Q 958 117 963 126 Q 970 139 951 156 Q 891 199 848 192 Q 664 158 335 121 Z" style="fill: #0070C0;"></path>
                                    
                                    
                                                                                                                                                                                                                                                                                                                                                                                                                                                                                                                                                                                                                                                                                                            </g>
                            </svg>