<svg width='83' height='83' >
                                <g transform="translate(3, 70) scale(0.07, -0.07)">
                                    <!-- 先将完整的字以灰色字体绘制完成，层级位于下面 -->
                                                                        <path d="M 310 558 Q 400 591 402 591 Q 409 600 404 608 Q 397 620 365 624 Q 337 627 313 615 L 264 594 Q 198 570 138 559 Q 101 549 130 535 Q 172 517 245 539 Q 252 542 264 544 L 310 558 Z" style="fill: #0070C0;"></path>
                                                                        <path d="M 302 400 Q 306 482 310 558 L 313 615 Q 314 697 335 794 Q 339 806 318 820 Q 284 839 258 843 Q 242 847 234 838 Q 227 831 235 815 Q 260 778 261 752 Q 264 676 264 594 L 264 544 Q 263 465 259 380 C 258 350 301 370 302 400 Z" style="fill: #0070C0;"></path>
                                                                        <path d="M 259 380 Q 199 353 134 323 Q 118 316 86 311 Q 73 307 72 296 Q 72 281 83 275 Q 111 262 148 247 Q 160 246 171 256 Q 202 290 357 391 Q 379 406 394 422 Q 406 432 405 441 Q 398 447 386 442 Q 346 423 302 400 L 259 380 Z" style="fill: #0070C0;"></path>
                                                                        <path d="M 621 722 Q 808 765 811 768 Q 821 777 816 787 Q 807 800 774 808 Q 744 814 643 781 Q 499 756 491 754 Q 449 747 479 728 Q 512 710 567 712 L 621 722 Z" style="fill: #0070C0;"></path>
                                                                        <path d="M 459 554 Q 481 532 506 503 Q 516 491 530 490 Q 540 490 545 501 Q 551 513 545 539 Q 539 569 459 596 Q 446 600 440 599 Q 436 596 436 584 Q 437 574 459 554 Z" style="fill: #0070C0;"></path>
                                                                        <path d="M 766 619 Q 747 582 697 514 Q 690 498 705 502 Q 723 514 810 579 Q 828 595 850 607 Q 869 619 858 635 Q 845 651 818 663 Q 793 675 781 671 Q 769 670 774 656 Q 778 638 766 619 Z" style="fill: #0070C0;"></path>
                                                                        <path d="M 649 380 Q 746 396 896 400 Q 959 400 965 411 Q 969 424 952 437 Q 897 476 858 465 Q 780 446 649 420 L 600 412 Q 497 394 380 375 Q 358 372 375 355 Q 408 328 467 343 Q 528 361 599 372 L 649 380 Z" style="fill: #0070C0;"></path>
                                                                        <path d="M 601 -18 Q 607 -43 614 -53 Q 620 -60 627 -58 Q 642 -49 648 12 Q 657 105 653 196 Q 649 245 649 380 L 649 420 Q 649 618 662 678 Q 665 696 650 705 Q 634 715 621 722 C 595 737 552 738 567 712 Q 568 711 571 706 Q 598 658 599 618 Q 600 530 600 412 L 599 372 Q 593 54 601 -18 Z" style="fill: #0070C0;"></path>
                                    
                                    
                                                                                                                                                                                                                                                                                                                                                                                                                                                                                                                                                                                                                                                                                                            </g>
                            </svg>