<svg width='83' height='83' >
                                <g transform="translate(3, 70) scale(0.07, -0.07)">
                                    <!-- 先将完整的字以灰色字体绘制完成，层级位于下面 -->
                                                                        <path d="M 316 448 Q 412 478 413 479 Q 420 488 416 496 Q 409 508 378 513 Q 347 517 317 503 L 264 484 Q 204 466 139 455 Q 102 446 130 431 Q 169 410 260 434 Q 261 435 265 435 L 316 448 Z" style="fill: #0070C0;"></path>
                                                                        <path d="M 310 273 Q 313 363 316 448 L 317 503 Q 318 611 336 702 Q 340 715 317 730 Q 277 749 251 754 Q 233 757 224 747 Q 217 738 226 722 Q 254 683 255 656 Q 261 574 264 484 L 265 435 Q 266 350 265 255 C 265 225 309 243 310 273 Z" style="fill: #0070C0;"></path>
                                                                        <path d="M 265 255 Q 198 231 128 204 Q 109 197 78 195 Q 65 192 63 181 Q 62 166 73 159 Q 98 143 136 127 Q 146 124 159 135 Q 195 168 357 258 Q 381 271 397 286 Q 410 295 410 305 Q 403 311 390 307 Q 350 291 310 273 L 265 255 Z" style="fill: #0070C0;"></path>
                                                                        <path d="M 589 719 Q 620 692 652 659 Q 668 643 689 644 Q 702 644 708 661 Q 714 679 703 716 Q 691 755 583 778 Q 564 782 556 780 Q 549 776 552 759 Q 556 746 589 719 Z" style="fill: #0070C0;"></path>
                                                                        <path d="M 491 522 Q 449 515 479 496 Q 527 469 590 484 Q 687 505 790 526 Q 836 538 843 544 Q 853 553 848 563 Q 839 576 806 584 Q 779 590 673 556 Q 580 532 491 522 Z" style="fill: #0070C0;"></path>
                                                                        <path d="M 480 334 Q 501 268 526 239 Q 538 230 552 238 Q 562 247 566 263 Q 572 311 513 357 Q 510 360 507 363 Q 494 373 484 374 Q 478 375 475 364 Q 472 354 480 334 Z" style="fill: #0070C0;"></path>
                                                                        <path d="M 660 139 Q 694 191 748 309 Q 763 345 792 389 Q 810 405 798 418 Q 785 440 746 462 Q 728 475 707 466 Q 694 459 703 446 Q 722 383 631 168 Q 624 149 622 134 C 616 105 644 114 660 139 Z" style="fill: #0070C0;"></path>
                                                                        <path d="M 622 134 Q 501 122 359 109 Q 335 108 352 87 Q 388 51 442 64 Q 655 109 925 89 Q 947 89 954 98 Q 961 111 942 128 Q 878 180 822 162 Q 756 152 660 139 L 622 134 Z" style="fill: #0070C0;"></path>
                                    
                                    
                                                                                                                                                                                                                                                                                                                                                                                                                                                                                                                                                                                                                                                                                                            </g>
                            </svg>