<svg width='83' height='83' >
                                <g transform="translate(3, 70) scale(0.07, -0.07)">
                                    <!-- 先将完整的字以灰色字体绘制完成，层级位于下面 -->
                                                                        <path d="M 292 572 Q 412 714 414 716 Q 413 720 413 723 Q 412 736 386 761 Q 364 782 345 783 Q 326 784 332 762 Q 341 734 328 712 Q 288 639 232 572 Q 178 509 106 441 Q 96 432 92 426 Q 88 416 101 417 Q 141 421 267 546 L 292 572 Z" style="fill: #0070C0;"></path>
                                                                        <path d="M 267 546 Q 266 546 267 545 Q 294 490 269 368 Q 257 328 289 285 Q 290 284 292 282 Q 308 269 318 292 Q 331 326 330 367 Q 326 476 329 501 Q 336 525 327 534 Q 311 552 300 564 Q 296 568 292 572 C 271 593 256 574 267 546 Z" style="fill: #0070C0;"></path>
                                                                        <path d="M 596 580 Q 636 596 683 611 Q 725 627 731 634 Q 740 644 733 652 Q 723 664 692 667 Q 656 668 577 627 L 536 610 Q 443 580 401 569 Q 364 557 393 544 Q 438 528 506 549 Q 527 558 554 565 L 596 580 Z" style="fill: #0070C0;"></path>
                                                                        <path d="M 631 426 Q 739 272 857 244 Q 858 244 862 243 Q 887 244 883 277 Q 876 308 883 450 Q 884 463 878 465 Q 872 466 868 453 Q 852 422 839 390 Q 820 350 805 350 Q 786 351 747 381 Q 710 409 676 452 L 650 487 Q 625 524 604 566 Q 600 573 596 580 L 577 627 Q 556 691 568 744 Q 572 763 532 785 Q 492 804 481 800 Q 469 794 475 777 Q 499 752 509 705 Q 521 656 536 610 L 554 565 Q 578 508 610 458 L 631 426 Z" style="fill: #0070C0;"></path>
                                                                        <path d="M 610 458 Q 600 454 592 447 Q 556 426 472 389 Q 463 388 472 382 Q 521 370 631 426 L 676 452 Q 713 477 766 517 Q 790 535 791 538 Q 792 547 785 560 Q 769 593 739 597 Q 732 598 729 587 Q 725 551 662 497 Q 655 493 650 487 L 610 458 Z" style="fill: #0070C0;"></path>
                                                                        <path d="M 688 749 Q 716 728 748 703 Q 761 693 776 694 Q 786 695 789 708 Q 792 721 782 748 Q 775 767 744 778 Q 672 799 660 791 Q 656 787 658 775 Q 662 765 688 749 Z" style="fill: #0070C0;"></path>
                                                                        <path d="M 533 173 Q 683 195 693 203 Q 703 210 698 220 Q 692 233 663 242 Q 632 249 601 239 Q 567 230 535 222 L 478 210 Q 408 200 328 197 Q 291 193 316 174 Q 361 146 415 157 Q 446 161 481 166 L 533 173 Z" style="fill: #0070C0;"></path>
                                                                        <path d="M 525 63 Q 529 120 533 173 L 535 222 Q 536 231 537 238 Q 540 260 543 275 Q 547 288 549 298 Q 552 308 533 322 Q 499 338 477 343 Q 461 346 454 337 Q 447 330 455 316 Q 473 292 478 210 L 481 166 Q 484 115 484 59 C 484 29 523 33 525 63 Z" style="fill: #0070C0;"></path>
                                                                        <path d="M 484 59 Q 352 49 200 37 Q 175 36 192 15 Q 228 -21 270 -12 Q 495 36 829 14 Q 851 13 857 22 Q 864 35 846 52 Q 786 100 745 92 Q 663 79 525 63 L 484 59 Z" style="fill: #0070C0;"></path>
                                    
                                    
                                                                                                                                                                                                                                                                                                                                                                                                                                                                                                                                                                                                                                                                                                                                                                                        </g>
                            </svg>