<svg width='83' height='83' >
                                <g transform="translate(3, 70) scale(0.07, -0.07)">
                                    <!-- 先将完整的字以灰色字体绘制完成，层级位于下面 -->
                                                                        <path d="M 305 471 Q 383 498 385 499 Q 394 508 388 516 Q 381 528 350 532 Q 328 535 307 528 L 255 507 Q 194 486 134 475 Q 97 465 126 451 Q 166 433 256 457 L 305 471 Z" style="fill: #0070C0;"></path>
                                                                        <path d="M 299 304 Q 302 389 305 471 L 307 528 Q 307 639 327 712 Q 330 724 308 739 Q 271 758 244 762 Q 226 766 218 756 Q 211 749 219 732 Q 247 693 248 666 Q 252 590 255 507 L 256 457 Q 256 373 254 283 C 253 253 298 274 299 304 Z" style="fill: #0070C0;"></path>
                                                                        <path d="M 254 283 Q 191 258 127 228 Q 109 221 79 217 Q 66 214 66 203 Q 65 190 76 182 Q 101 169 138 154 Q 148 153 160 163 Q 193 197 348 292 Q 370 307 386 322 Q 398 332 397 341 Q 391 345 379 342 Q 340 324 299 304 L 254 283 Z" style="fill: #0070C0;"></path>
                                                                        <path d="M 588 726 Q 625 699 665 667 Q 681 654 697 657 Q 709 658 713 672 Q 717 688 705 719 Q 690 755 579 776 Q 563 779 556 775 Q 550 771 553 757 Q 557 747 588 726 Z" style="fill: #0070C0;"></path>
                                                                        <path d="M 428 542 Q 407 541 423 523 Q 438 510 456 505 Q 477 499 493 505 Q 637 547 883 547 Q 904 548 908 556 Q 912 568 896 582 Q 836 622 788 606 Q 689 585 428 542 Z" style="fill: #0070C0;"></path>
                                                                        <path d="M 682 346 Q 710 385 750 449 Q 765 473 766 477 Q 765 486 753 495 Q 725 517 698 513 Q 691 512 693 501 Q 703 468 660 390 Q 653 380 647 367 L 623 332 Q 580 280 517 218 Q 510 214 519 211 Q 574 223 651 308 L 682 346 Z" style="fill: #0070C0;"></path>
                                                                        <path d="M 651 308 Q 747 229 749 227 Q 756 226 760 234 Q 769 244 757 275 Q 748 306 682 346 L 647 367 Q 646 368 644 369 Q 568 412 526 432 Q 519 435 518 426 Q 518 416 527 409 Q 573 375 623 332 L 651 308 Z" style="fill: #0070C0;"></path>
                                                                        <path d="M 800 185 Q 632 178 505 149 Q 478 143 485 174 Q 489 235 496 297 Q 500 322 488 337 Q 454 377 423 373 Q 411 367 421 348 Q 449 284 441 221 Q 435 160 410 133 Q 391 115 398 100 Q 410 84 427 71 Q 442 62 452 71 Q 489 110 685 138 Q 770 151 790 143 Q 793 144 796 143 C 826 139 830 186 800 185 Z" style="fill: #0070C0;"></path>
                                                                        <path d="M 796 143 Q 803 113 814 95 Q 824 80 835 92 Q 857 119 856 200 Q 862 332 871 354 Q 878 369 867 382 Q 848 395 814 412 Q 801 418 790 411 Q 783 407 786 394 Q 816 357 803 199 Q 802 193 800 185 L 796 143 Z" style="fill: #0070C0;"></path>
                                    
                                    
                                                                                                                                                                                                                                                                                                                                                                                                                                                                                                                                                                                                                                                                                                                                                                                        </g>
                            </svg>