<svg width='83' height='83' >
                                <g transform="translate(3, 70) scale(0.07, -0.07)">
                                    <!-- 先将完整的字以灰色字体绘制完成，层级位于下面 -->
                                                                        <path d="M 306 469 Q 337 479 370 487 Q 404 497 409 503 Q 418 512 412 520 Q 405 532 374 537 Q 343 541 313 526 Q 310 525 308 524 L 258 505 Q 194 484 131 475 Q 94 466 122 451 Q 162 430 251 455 Q 254 456 259 457 L 306 469 Z" style="fill: #0070C0;"></path>
                                                                        <path d="M 298 271 Q 302 374 306 469 L 308 524 Q 311 660 330 727 Q 334 739 312 755 Q 275 774 248 779 Q 230 782 222 773 Q 215 764 223 748 Q 253 706 253 677 Q 257 595 258 505 L 259 457 Q 258 360 254 255 C 253 225 297 241 298 271 Z" style="fill: #0070C0;"></path>
                                                                        <path d="M 254 255 Q 196 234 134 210 Q 115 203 82 201 Q 69 198 67 187 Q 66 172 77 164 Q 104 148 142 130 Q 154 127 166 138 Q 206 174 363 260 Q 387 276 413 294 Q 426 303 426 313 Q 419 319 406 315 Q 354 294 298 271 L 254 255 Z" style="fill: #0070C0;"></path>
                                                                        <path d="M 493 698 Q 483 705 443 713 Q 430 717 427 711 Q 420 705 429 688 Q 465 603 482 466 Q 485 424 507 396 Q 526 374 531 389 Q 534 399 536 412 L 536 440 Q 535 458 532 480 Q 508 613 502 660 C 498 690 497 696 493 698 Z" style="fill: #0070C0;"></path>
                                                                        <path d="M 745 442 Q 763 414 780 404 Q 792 394 810 418 Q 829 446 871 607 Q 881 641 909 668 Q 925 681 912 698 Q 896 717 849 748 Q 830 758 772 745 Q 765 745 582 713 Q 533 704 493 698 C 463 693 473 652 502 660 Q 544 672 601 681 L 652 690 Q 787 717 805 699 Q 818 680 815 661 Q 776 489 756 476 C 740 451 739 450 745 442 Z" style="fill: #0070C0;"></path>
                                                                        <path d="M 670 547 Q 704 553 735 557 Q 757 561 749 573 Q 739 586 715 590 Q 696 593 671 586 L 622 571 Q 585 561 555 552 Q 539 548 558 535 Q 567 528 585 532 Q 604 536 622 538 L 670 547 Z" style="fill: #0070C0;"></path>
                                                                        <path d="M 667 431 Q 707 438 745 442 C 775 445 783 464 756 476 Q 728 491 673 472 Q 670 472 668 470 L 620 459 Q 575 449 536 440 C 507 433 506 411 536 412 Q 543 412 555 413 Q 588 419 620 424 L 667 431 Z" style="fill: #0070C0;"></path>
                                                                        <path d="M 660 135 Q 661 195 663 250 L 664 300 Q 665 369 667 431 L 668 470 Q 669 510 670 547 L 671 586 Q 671 592 675 643 Q 684 667 652 690 C 629 710 588 708 601 681 Q 607 668 614 656 Q 620 634 622 571 L 622 538 Q 621 508 620 459 L 620 424 Q 619 367 617 289 L 616 242 Q 615 190 614 129 C 614 99 659 105 660 135 Z" style="fill: #0070C0;"></path>
                                                                        <path d="M 663 250 Q 787 271 798 279 Q 808 286 803 296 Q 796 308 766 316 Q 738 322 664 300 L 617 289 Q 613 289 611 288 Q 557 278 495 273 Q 458 269 484 250 Q 520 223 585 237 Q 600 241 616 242 L 663 250 Z" style="fill: #0070C0;"></path>
                                                                        <path d="M 614 129 Q 496 117 358 103 Q 336 102 352 83 Q 367 67 385 61 Q 407 55 425 59 Q 611 104 897 94 Q 918 94 939 93 Q 961 92 966 101 Q 973 114 955 129 Q 898 171 860 164 Q 784 151 660 135 L 614 129 Z" style="fill: #0070C0;"></path>
                                    
                                    
                                                                                                                                                                                                                                                                                                                                                                                                                                                                                                                                                                                                                                                                                                                                                                                                                                                                    </g>
                            </svg>