<svg width='83' height='83' >
                                <g transform="translate(3, 70) scale(0.07, -0.07)">
                                    <!-- 先将完整的字以灰色字体绘制完成，层级位于下面 -->
                                                                        <path d="M 319 481 Q 343 490 369 496 Q 400 506 405 511 Q 414 520 408 528 Q 401 540 370 545 Q 345 548 321 538 L 268 517 Q 208 496 139 483 Q 102 473 130 459 Q 175 440 230 456 Q 248 462 269 467 L 319 481 Z" style="fill: #0070C0;"></path>
                                                                        <path d="M 311 289 Q 315 388 319 481 L 321 538 Q 322 599 342 703 Q 346 715 324 731 Q 287 750 260 755 Q 242 758 234 749 Q 227 740 235 725 Q 263 685 263 657 Q 267 590 268 517 L 269 467 Q 269 373 266 272 C 265 242 310 259 311 289 Z" style="fill: #0070C0;"></path>
                                                                        <path d="M 266 272 Q 211 253 154 230 Q 136 223 106 221 Q 93 218 92 208 Q 91 195 101 186 Q 126 171 161 155 Q 173 154 184 163 Q 218 194 258 216 Q 319 249 378 283 Q 400 296 417 310 Q 430 319 430 329 Q 423 333 411 330 Q 363 311 311 289 L 266 272 Z" style="fill: #0070C0;"></path>
                                                                        <path d="M 517 754 Q 505 760 472 764 Q 460 767 457 761 Q 451 754 460 739 Q 488 690 508 607 Q 512 582 527 567 Q 546 545 551 562 Q 554 574 553 591 L 548 623 Q 533 696 529 722 C 524 751 524 751 517 754 Z" style="fill: #0070C0;"></path>
                                                                        <path d="M 774 655 Q 795 712 822 731 Q 838 750 824 767 Q 755 822 699 795 Q 633 771 517 754 C 487 750 499 717 529 722 Q 539 723 551 727 Q 629 740 703 755 Q 722 759 730 751 Q 742 739 724 660 C 718 631 763 627 774 655 Z" style="fill: #0070C0;"></path>
                                                                        <path d="M 553 591 Q 557 591 564 592 Q 634 608 785 624 Q 795 625 796 633 Q 796 640 774 655 C 756 668 753 667 724 660 Q 627 635 548 623 C 518 618 523 589 553 591 Z" style="fill: #0070C0;"></path>
                                                                        <path d="M 515 505 Q 502 518 482 525 Q 473 529 462 525 Q 455 521 460 509 Q 461 502 465 496 Q 489 454 470 295 Q 449 223 486 177 Q 496 164 506 176 Q 521 194 521 260 Q 524 467 528 474 C 531 492 531 492 515 505 Z" style="fill: #0070C0;"></path>
                                                                        <path d="M 750 236 Q 744 215 757 195 Q 770 170 778 170 Q 791 171 805 202 Q 818 226 816 244 Q 806 317 805 430 Q 804 463 822 491 Q 832 507 824 517 Q 796 541 747 561 Q 731 565 708 557 Q 624 518 515 505 C 485 501 498 469 528 474 Q 537 474 637 496 Q 718 517 736 505 Q 746 486 751 431 Q 758 268 750 236 Z" style="fill: #0070C0;"></path>
                                                                        <path d="M 601 352 Q 616 151 524 79 Q 493 52 421 17 Q 409 13 406 9 Q 402 5 416 1 Q 491 -5 588 74 Q 595 83 603 91 Q 651 160 655 296 Q 659 366 666 383 Q 670 393 662 400 Q 646 415 611 427 Q 592 434 576 429 Q 558 422 573 406 Q 600 381 601 352 Z" style="fill: #0070C0;"></path>
                                                                        <path d="M 692 125 Q 737 80 791 16 Q 806 -5 821 -10 Q 828 -11 837 -1 Q 850 11 839 55 Q 827 106 694 156 Q 685 160 683 149 Q 682 136 692 125 Z" style="fill: #0070C0;"></path>
                                    
                                    
                                                                                                                                                                                                                                                                                                                                                                                                                                                                                                                                                                                                                                                                                                                                                                                                                                                                    </g>
                            </svg>