<svg width='83' height='83' >
                                <g transform="translate(3, 70) scale(0.07, -0.07)">
                                    <!-- 先将完整的字以灰色字体绘制完成，层级位于下面 -->
                                                                        <path d="M 282 468 Q 307 477 334 483 Q 365 492 369 497 Q 376 504 372 513 Q 365 523 335 529 Q 310 533 285 522 L 237 503 Q 144 479 114 473 Q 80 464 106 450 Q 151 431 217 451 Q 226 454 237 456 L 282 468 Z" style="fill: #0070C0;"></path>
                                                                        <path d="M 274 312 Q 278 393 282 468 L 285 522 Q 286 601 307 710 Q 311 720 290 736 Q 254 755 230 759 Q 214 763 206 754 Q 199 747 207 731 Q 232 694 233 667 Q 237 588 237 503 L 237 456 Q 236 378 231 294 C 229 264 273 282 274 312 Z" style="fill: #0070C0;"></path>
                                                                        <path d="M 231 294 Q 111 248 84 245 Q 71 242 70 231 Q 70 218 80 210 Q 105 197 142 181 Q 152 180 164 189 Q 266 259 370 330 Q 382 340 381 349 Q 375 353 363 350 Q 320 332 274 312 L 231 294 Z" style="fill: #0070C0;"></path>
                                                                        <path d="M 732 457 Q 741 500 750 527 L 771 577 Q 781 598 796 609 Q 812 628 797 645 Q 779 658 727 681 Q 709 688 688 678 Q 649 662 615 651 L 563 638 Q 505 625 443 616 Q 427 615 429 605 Q 432 598 450 591 Q 475 581 510 593 Q 535 599 563 604 L 613 614 Q 641 621 671 627 Q 692 633 700 624 Q 712 614 710 591 Q 709 578 705 562 L 699 521 Q 692 491 686 463 C 680 434 726 428 732 457 Z" style="fill: #0070C0;"></path>
                                                                        <path d="M 750 527 Q 796 531 852 534 Q 907 538 913 545 Q 917 555 902 567 Q 847 600 791 583 Q 781 580 771 577 L 705 562 Q 626 550 611 542 L 563 533 Q 485 520 402 504 Q 383 501 398 487 Q 411 475 428 471 Q 447 467 461 472 Q 509 488 563 499 L 611 508 Q 614 512 699 521 L 750 527 Z" style="fill: #0070C0;"></path>
                                                                        <path d="M 610 404 Q 668 416 745 425 Q 755 426 756 436 Q 756 443 732 457 L 686 463 Q 682 464 679 462 Q 643 452 610 442 L 563 431 Q 500 418 446 408 Q 427 404 439 388 Q 446 379 456 376 Q 466 375 479 377 Q 512 387 563 396 L 610 404 Z" style="fill: #0070C0;"></path>
                                                                        <path d="M 612 302 Q 611 354 610 404 L 610 442 Q 610 476 611 508 L 611 542 Q 611 579 613 614 L 615 651 Q 619 715 631 753 Q 647 784 592 805 Q 558 824 539 817 Q 521 810 537 787 Q 559 760 561 726 Q 562 714 563 638 L 563 604 Q 563 573 563 533 L 563 499 Q 562 468 563 431 L 563 396 Q 562 275 562 107 Q 561 82 548 73 Q 542 67 473 80 Q 440 90 443 81 Q 444 74 465 59 Q 528 11 544 -17 Q 563 -50 579 -51 Q 594 -51 607 -17 Q 625 29 622 102 Q 616 181 613 258 L 612 302 Z" style="fill: #0070C0;"></path>
                                                                        <path d="M 426 285 Q 450 269 477 247 Q 489 238 502 240 Q 509 241 513 252 Q 516 265 506 288 Q 496 312 417 324 Q 404 325 400 323 Q 396 319 398 309 Q 402 300 426 285 Z" style="fill: #0070C0;"></path>
                                                                        <path d="M 325 129 Q 312 128 313 112 Q 314 94 340 80 Q 365 61 379 62 Q 389 62 398 83 Q 432 122 513 201 Q 520 207 517 214 Q 514 218 506 214 Q 365 133 348 130 Q 345 131 325 129 Z" style="fill: #0070C0;"></path>
                                                                        <path d="M 671 247 Q 756 301 798 320 Q 816 324 813 334 Q 807 350 790 370 Q 772 389 750 392 Q 735 393 736 373 Q 737 351 655 261 C 635 239 646 231 671 247 Z" style="fill: #0070C0;"></path>
                                                                        <path d="M 655 261 Q 634 280 612 302 C 591 323 595 282 613 258 Q 677 173 759 80 Q 777 62 805 64 Q 901 71 930 78 Q 939 81 940 85 Q 940 89 928 96 Q 793 144 719 206 Q 695 227 671 247 L 655 261 Z" style="fill: #0070C0;"></path>
                                    
                                    
                                                                                                                                                                                                                                                                                                                                                                                                                                                                                                                                                                                                                                                                                                                                                                                                                                                                                                                                                </g>
                            </svg>