<svg width='83' height='83' >
                                <g transform="translate(3, 70) scale(0.07, -0.07)">
                                    <!-- 先将完整的字以灰色字体绘制完成，层级位于下面 -->
                                                                        <path d="M 302 465 Q 384 489 389 493 Q 396 500 392 509 Q 385 519 355 525 Q 328 529 304 517 L 257 499 Q 209 484 146 473 Q 112 464 138 450 Q 181 431 240 449 Q 247 452 257 452 L 302 465 Z" style="fill: #0070C0;"></path>
                                                                        <path d="M 297 319 Q 300 394 302 465 L 304 517 Q 305 622 324 719 Q 327 729 307 744 Q 271 763 246 767 Q 230 770 222 761 Q 215 754 223 738 Q 250 701 250 676 Q 256 591 257 499 L 257 452 Q 257 382 255 303 C 254 273 296 289 297 319 Z" style="fill: #0070C0;"></path>
                                                                        <path d="M 255 303 Q 194 281 126 254 Q 108 247 78 245 Q 65 242 63 232 Q 62 217 73 210 Q 98 197 133 179 Q 145 178 156 187 Q 190 218 229 240 Q 287 273 347 307 Q 369 320 385 334 Q 398 344 398 353 Q 388 359 297 319 L 255 303 Z" style="fill: #0070C0;"></path>
                                                                        <path d="M 641 663 Q 768 694 775 698 Q 782 705 779 713 Q 772 723 746 730 Q 719 736 651 710 C 623 699 616 697 598 694 Q 597 695 595 694 Q 540 681 476 674 Q 442 668 467 653 Q 500 635 570 648 Q 577 649 587 651 L 641 663 Z" style="fill: #0070C0;"></path>
                                                                        <path d="M 587 651 Q 557 567 486 515 Q 473 505 459 494 Q 447 485 459 483 Q 505 483 566 539 Q 615 584 641 663 L 651 710 Q 666 779 673 794 Q 680 810 666 817 Q 623 848 600 840 Q 588 836 594 822 Q 615 782 598 694 L 587 651 Z" style="fill: #0070C0;"></path>
                                                                        <path d="M 690 575 Q 717 553 744 527 Q 756 517 768 517 Q 777 518 781 529 Q 785 541 777 565 Q 773 583 745 596 Q 682 620 668 615 Q 664 611 665 601 Q 668 591 690 575 Z" style="fill: #0070C0;"></path>
                                                                        <path d="M 742 441 Q 811 447 921 448 Q 939 449 943 457 Q 947 467 933 479 Q 888 513 852 505 Q 737 478 399 428 Q 380 427 394 411 Q 407 399 423 394 Q 442 390 456 394 Q 588 431 687 436 L 742 441 Z" style="fill: #0070C0;"></path>
                                                                        <path d="M 453 322 Q 443 328 415 332 Q 405 335 402 331 Q 398 325 404 312 Q 426 266 439 188 Q 440 166 454 150 Q 469 131 474 144 Q 478 157 476 181 L 472 211 Q 462 275 461 298 C 460 319 460 319 453 322 Z" style="fill: #0070C0;"></path>
                                                                        <path d="M 600 230 Q 610 284 626 301 Q 644 323 624 334 Q 608 344 584 357 Q 568 366 552 356 Q 531 343 453 322 C 424 314 433 288 461 298 Q 485 307 534 314 Q 553 318 558 310 Q 564 307 556 234 C 553 204 594 201 600 230 Z" style="fill: #0070C0;"></path>
                                                                        <path d="M 476 181 Q 483 180 492 182 Q 531 191 614 199 Q 624 200 624 209 Q 624 216 600 230 L 556 234 Q 553 234 552 233 Q 507 220 472 211 C 443 203 446 183 476 181 Z" style="fill: #0070C0;"></path>
                                                                        <path d="M 687 436 Q 702 391 705 237 Q 705 59 698 40 Q 695 36 693 31 Q 681 24 651 32 Q 629 39 601 44 Q 588 48 589 40 Q 589 31 600 22 Q 666 -32 706 -73 Q 719 -83 733 -66 Q 775 -12 771 73 Q 761 248 769 380 Q 776 408 769 419 Q 762 429 742 441 C 717 458 680 465 687 436 Z" style="fill: #0070C0;"></path>
                                    
                                    
                                                                                                                                                                                                                                                                                                                                                                                                                                                                                                                                                                                                                                                                                                                                                                                                                                                                                                                                                </g>
                            </svg>