<svg width='83' height='83' >
                                <g transform="translate(3, 70) scale(0.07, -0.07)">
                                    <!-- 先将完整的字以灰色字体绘制完成，层级位于下面 -->
                                                                        <path d="M 251 470 Q 273 479 299 487 Q 327 497 331 502 Q 338 511 332 518 Q 325 528 297 530 Q 275 531 253 522 L 205 499 Q 102 466 95 463 Q 64 453 89 441 Q 131 425 179 445 Q 191 449 206 454 L 251 470 Z" style="fill: #0070C0;"></path>
                                                                        <path d="M 245 302 Q 248 387 251 470 L 253 522 Q 253 603 272 707 Q 275 717 255 732 Q 219 751 194 755 Q 178 758 170 749 Q 163 742 171 726 Q 198 689 199 662 Q 203 584 205 499 L 206 454 Q 206 373 203 284 C 202 254 244 272 245 302 Z" style="fill: #0070C0;"></path>
                                                                        <path d="M 203 284 Q 154 266 104 245 Q 89 238 64 237 Q 52 234 51 224 Q 51 211 61 205 Q 83 192 117 178 Q 127 177 138 186 Q 154 204 291 291 Q 310 301 322 315 Q 334 324 333 332 Q 327 336 316 333 Q 282 318 245 302 L 203 284 Z" style="fill: #0070C0;"></path>
                                                                        <path d="M 410 511 Q 411 515 415 518 Q 457 576 500 665 Q 516 705 535 726 Q 542 736 537 749 Q 531 761 503 779 Q 476 792 459 791 Q 441 787 451 768 Q 463 746 452 701 Q 410 571 311 421 Q 304 411 301 405 Q 300 395 312 398 Q 333 404 387 476 L 410 511 Z" style="fill: #0070C0;"></path>
                                                                        <path d="M 387 476 Q 388 470 393 464 Q 424 401 400 211 Q 393 156 378 99 Q 366 50 401 9 L 402 7 Q 418 -8 430 17 Q 443 56 443 99 Q 446 370 455 431 Q 462 456 453 466 Q 420 505 410 511 C 387 531 374 503 387 476 Z" style="fill: #0070C0;"></path>
                                                                        <path d="M 745 593 Q 767 653 794 676 Q 809 692 795 709 Q 717 757 676 729 Q 615 705 567 692 Q 552 689 555 681 Q 558 674 574 671 Q 586 668 649 682 Q 706 697 709 693 Q 716 686 715 670 Q 705 621 692 581 C 683 552 734 565 745 593 Z" style="fill: #0070C0;"></path>
                                                                        <path d="M 692 581 Q 685 581 677 579 Q 592 563 493 546 Q 477 543 489 531 Q 501 521 515 517 Q 531 513 544 518 Q 694 566 889 565 Q 904 566 908 573 Q 912 583 898 593 Q 853 624 792 604 Q 770 600 745 593 L 692 581 Z" style="fill: #0070C0;"></path>
                                                                        <path d="M 595 407 Q 595 413 638 464 Q 648 474 636 487 Q 602 517 579 515 Q 569 514 570 501 Q 579 434 507 359 Q 491 341 481 330 Q 474 317 487 321 Q 523 325 578 386 L 595 407 Z" style="fill: #0070C0;"></path>
                                                                        <path d="M 670 384 Q 719 397 778 410 Q 806 417 812 421 Q 819 428 815 435 Q 808 444 785 449 Q 770 452 687 427 Q 645 415 595 407 C 565 402 550 396 578 386 Q 605 376 624 377 L 670 384 Z" style="fill: #0070C0;"></path>
                                                                        <path d="M 680 254 Q 746 267 852 270 Q 900 274 904 280 Q 908 290 894 300 Q 849 330 788 314 Q 743 304 679 289 L 628 279 Q 555 266 473 251 Q 457 248 470 235 Q 497 213 527 221 Q 570 236 620 244 L 680 254 Z" style="fill: #0070C0;"></path>
                                                                        <path d="M 679 289 Q 683 320 698 346 Q 705 362 692 369 Q 680 379 670 384 C 644 399 614 405 624 377 Q 637 350 628 279 L 620 244 Q 602 148 480 65 Q 468 58 479 55 Q 521 51 585 105 Q 642 150 667 235 L 679 289 Z" style="fill: #0070C0;"></path>
                                                                        <path d="M 667 235 Q 722 145 793 49 Q 820 19 951 39 Q 958 40 960 45 Q 961 49 950 56 Q 820 117 748 189 Q 715 219 680 254 C 659 275 651 261 667 235 Z" style="fill: #0070C0;"></path>
                                    
                                    
                                                                                                                                                                                                                                                                                                                                                                                                                                                                                                                                                                                                                                                                                                                                                                                                                                                                                                                                                                                                                            </g>
                            </svg>