<svg width='83' height='83' >
                                <g transform="translate(3, 70) scale(0.07, -0.07)">
                                    <!-- 先将完整的字以灰色字体绘制完成，层级位于下面 -->
                                                                        <path d="M 278 460 Q 300 467 325 473 Q 353 482 357 486 Q 364 493 360 502 Q 353 512 325 516 Q 301 520 280 510 L 233 491 Q 161 470 121 463 Q 88 454 114 441 Q 154 422 203 439 Q 216 443 232 446 L 278 460 Z" style="fill: #0070C0;"></path>
                                                                        <path d="M 270 295 Q 274 380 278 460 L 280 510 Q 280 607 304 733 Q 308 743 287 759 Q 250 778 225 783 Q 209 787 200 777 Q 193 770 201 754 Q 229 714 229 686 Q 233 593 233 491 L 232 446 Q 231 365 226 277 C 224 247 269 265 270 295 Z" style="fill: #0070C0;"></path>
                                                                        <path d="M 226 277 Q 111 234 88 231 Q 75 228 75 218 Q 74 205 84 197 Q 109 184 143 169 Q 153 168 165 177 Q 178 192 322 286 Q 341 298 354 311 Q 366 320 365 329 Q 359 333 347 329 Q 310 313 270 295 L 226 277 Z" style="fill: #0070C0;"></path>
                                                                        <path d="M 465 524 Q 493 514 554 527 Q 588 536 626 544 L 668 555 Q 696 564 730 571 Q 773 584 780 590 Q 787 597 783 605 Q 776 615 749 621 Q 724 624 664 601 L 621 586 Q 521 559 463 550 Q 460 550 458 548 C 429 540 436 532 465 524 Z" style="fill: #0070C0;"></path>
                                                                        <path d="M 431 319 Q 443 377 450 434 Q 456 498 463 517 Q 464 521 465 524 C 469 539 469 539 458 548 Q 445 561 421 571 Q 403 581 391 577 Q 381 570 386 558 Q 398 542 400 479 Q 399 472 399 461 Q 393 320 357 221 Q 324 128 262 37 Q 258 30 256 25 Q 253 15 263 17 Q 297 24 359 125 Q 369 144 380 165 Q 386 178 426 298 L 431 319 Z" style="fill: #0070C0;"></path>
                                                                        <path d="M 473 407 Q 445 397 468 388 Q 499 379 564 399 Q 580 405 598 411 Q 610 415 611 418 Q 617 425 612 431 Q 605 440 581 441 Q 572 441 509 418 Q 493 412 473 407 Z" style="fill: #0070C0;"></path>
                                                                        <path d="M 426 298 Q 447 249 457 170 Q 458 148 471 130 Q 484 111 490 124 Q 496 137 495 162 L 492 190 Q 485 269 484 287 Q 484 288 483 288 L 465 310 Q 444 319 431 319 C 417 320 417 320 426 298 Z" style="fill: #0070C0;"></path>
                                                                        <path d="M 605 208 Q 618 272 636 291 Q 655 313 635 325 Q 619 334 595 348 Q 579 355 564 346 Q 540 331 465 310 C 436 302 455 277 483 288 Q 484 291 547 304 Q 566 308 570 301 Q 577 297 572 267 Q 568 242 562 211 C 556 182 599 179 605 208 Z" style="fill: #0070C0;"></path>
                                                                        <path d="M 495 162 Q 502 161 513 164 Q 544 173 615 181 Q 625 182 625 190 Q 625 196 605 208 L 562 211 Q 559 212 557 211 Q 521 199 492 190 C 463 181 465 164 495 162 Z" style="fill: #0070C0;"></path>
                                                                        <path d="M 626 544 Q 648 363 704 225 L 725 178 Q 759 100 833 34 Q 891 -14 919 -14 Q 938 -10 932 18 Q 928 67 931 212 Q 931 234 923 234 Q 916 234 910 214 Q 897 174 885 139 Q 873 105 860 103 Q 848 103 825 124 Q 788 166 757 219 L 732 272 Q 686 392 668 555 L 664 601 Q 660 683 668 732 Q 681 771 628 793 Q 594 809 575 802 Q 556 795 565 777 Q 608 735 608 703 Q 614 642 621 586 L 626 544 Z" style="fill: #0070C0;"></path>
                                                                        <path d="M 704 225 Q 614 120 586 93 Q 579 86 586 83 Q 593 82 604 87 Q 659 114 703 157 Q 713 167 725 178 L 757 219 Q 799 285 829 376 Q 838 401 850 424 Q 857 434 851 444 Q 844 454 812 468 Q 790 478 781 475 Q 768 471 771 456 Q 784 380 732 272 L 704 225 Z" style="fill: #0070C0;"></path>
                                                                        <path d="M 740 717 Q 774 690 810 658 Q 822 648 836 648 Q 845 649 849 660 Q 853 673 845 699 Q 833 735 735 758 Q 722 761 716 759 Q 712 755 713 744 Q 717 734 740 717 Z" style="fill: #0070C0;"></path>
                                    
                                    
                                                                                                                                                                                                                                                                                                                                                                                                                                                                                                                                                                                                                                                                                                                                                                                                                                                                                                                                                                                                                            </g>
                            </svg>