<svg width='83' height='83' >
                                <g transform="translate(3, 70) scale(0.07, -0.07)">
                                    <!-- 先将完整的字以灰色字体绘制完成，层级位于下面 -->
                                                                        <path d="M 270 474 Q 298 484 333 493 Q 361 503 366 507 Q 373 516 368 524 Q 361 536 330 540 Q 299 544 272 529 L 222 509 Q 147 488 118 483 Q 81 473 110 459 Q 153 440 210 457 Q 214 458 222 460 L 270 474 Z" style="fill: #0070C0;"></path>
                                                                        <path d="M 262 308 Q 266 393 270 474 L 272 529 Q 275 649 293 713 Q 296 725 275 740 Q 238 759 213 763 Q 197 766 188 757 Q 181 750 189 734 Q 216 695 216 669 Q 220 593 222 509 L 222 460 Q 221 378 218 288 C 217 258 261 278 262 308 Z" style="fill: #0070C0;"></path>
                                                                        <path d="M 218 288 Q 169 269 120 245 Q 102 236 71 233 Q 58 230 57 219 Q 57 206 68 198 Q 93 185 130 170 Q 140 169 152 179 Q 180 209 343 312 Q 365 325 382 342 Q 394 352 393 361 Q 387 365 374 362 Q 322 337 262 308 L 218 288 Z" style="fill: #0070C0;"></path>
                                                                        <path d="M 499 784 Q 505 711 373 586 Q 366 582 375 579 Q 442 579 558 732 Q 564 739 568 742 Q 574 746 573 755 Q 572 764 561 774 Q 531 801 505 796 Q 498 795 499 784 Z" style="fill: #0070C0;"></path>
                                                                        <path d="M 625 825 Q 667 792 721 714 Q 817 581 878 585 L 962 597 Q 972 598 982 603 Q 989 607 980 616 Q 968 623 873 661 Q 788 694 683 825 Q 670 841 646 847 Q 633 850 621 842 Q 615 835 625 825 Z" style="fill: #0070C0;"></path>
                                                                        <path d="M 715 555 Q 642 543 563 529 Q 557 528 556 529 Q 555 530 560 536 Q 627 611 652 630 Q 665 640 658 650 Q 651 660 622 669 Q 603 673 593 671 Q 586 670 588 651 Q 591 585 490 526 Q 486 526 482 523 Q 458 513 458 504 Q 457 489 466 472 Q 475 456 486 450 Q 493 447 502 453 Q 553 489 726 540 C 755 549 745 560 715 555 Z" style="fill: #0070C0;"></path>
                                                                        <path d="M 726 540 Q 765 483 777 481 Q 786 480 793 489 Q 800 501 799 527 Q 796 560 715 605 Q 702 612 696 611 Q 692 608 690 597 Q 690 593 715 555 L 726 540 Z" style="fill: #0070C0;"></path>
                                                                        <path d="M 410 382 Q 397 381 404 373 Q 413 363 426 359 Q 435 358 516 380 Q 529 386 537 380 Q 543 374 542 355 Q 546 201 538 109 Q 537 84 528 72 Q 525 71 470 75 Q 451 81 453 72 Q 496 32 519 3 Q 531 -13 545 -19 Q 552 -22 561 -13 Q 600 38 598 79 Q 583 331 603 365 Q 613 383 604 392 Q 585 408 553 422 Q 537 429 524 423 Q 499 407 483 400 Q 461 390 410 382 Z" style="fill: #0070C0;"></path>
                                                                        <path d="M 420 282 Q 453 245 476 236 Q 489 233 496 245 Q 500 255 498 269 Q 489 300 445 311 Q 415 317 409 315 Q 405 314 406 304 Q 407 294 420 282 Z" style="fill: #0070C0;"></path>
                                                                        <path d="M 353 131 Q 343 128 343 115 Q 347 99 370 89 Q 394 74 406 76 Q 415 77 421 96 Q 448 133 514 210 Q 520 216 517 222 Q 514 225 507 221 Q 395 139 353 131 Z" style="fill: #0070C0;"></path>
                                                                        <path d="M 653 399 Q 640 398 648 389 Q 657 379 671 375 Q 689 372 784 403 Q 797 409 807 402 Q 814 396 814 373 Q 820 190 812 81 Q 811 56 802 45 Q 798 39 779 44 Q 754 51 726 58 Q 707 65 708 56 Q 763 7 792 -29 Q 805 -47 819 -52 Q 828 -56 836 -47 Q 873 -2 875 64 Q 854 349 877 388 Q 889 407 877 416 Q 858 434 823 447 Q 802 456 746 421 Q 716 411 653 399 Z" style="fill: #0070C0;"></path>
                                                                        <path d="M 667 312 Q 707 275 733 266 Q 746 265 752 276 Q 756 286 752 301 Q 745 320 729 329 Q 678 354 655 344 Q 652 344 652 343 Q 648 342 650 331 Q 653 322 667 312 Z" style="fill: #0070C0;"></path>
                                                                        <path d="M 623 171 Q 611 170 612 155 Q 615 137 639 125 Q 664 107 678 108 Q 687 108 695 129 Q 728 168 806 249 Q 812 255 809 262 Q 806 265 799 261 Q 666 176 643 173 Q 634 173 623 171 Z" style="fill: #0070C0;"></path>
                                    
                                    
                                                                                                                                                                                                                                                                                                                                                                                                                                                                                                                                                                                                                                                                                                                                                                                                                                                                                                                                                                                                                                                                                                        </g>
                            </svg>