<svg width='83' height='83' >
                                <g transform="translate(3, 70) scale(0.07, -0.07)">
                                    <!-- 先将完整的字以灰色字体绘制完成，层级位于下面 -->
                                                                        <path d="M 276 479 Q 300 489 327 497 Q 355 507 359 511 Q 366 521 361 528 Q 352 540 321 543 Q 297 544 278 536 L 232 516 Q 181 497 113 479 Q 76 469 105 455 Q 153 436 206 457 Q 218 461 232 465 L 276 479 Z" style="fill: #0070C0;"></path>
                                                                        <path d="M 269 303 Q 273 394 276 479 L 278 536 Q 281 659 300 726 Q 303 738 282 752 Q 248 771 222 775 Q 206 778 198 769 Q 191 762 199 746 Q 227 706 227 679 Q 231 601 232 516 L 232 465 Q 231 380 227 287 C 226 257 268 273 269 303 Z" style="fill: #0070C0;"></path>
                                                                        <path d="M 227 287 Q 175 268 119 247 Q 103 240 73 239 Q 60 236 59 225 Q 58 210 69 203 Q 94 188 132 171 Q 144 170 155 179 Q 261 251 369 322 Q 382 332 382 341 Q 375 347 362 342 Q 316 323 269 303 L 227 287 Z" style="fill: #0070C0;"></path>
                                                                        <path d="M 464 784 Q 457 788 446 788 Q 436 791 432 786 Q 428 782 435 766 Q 460 714 476 629 Q 479 604 493 586 Q 509 567 514 581 Q 517 590 517 604 L 515 625 Q 514 631 506 680 L 502 703 Q 496 742 495 756 C 493 772 492 773 464 784 Z" style="fill: #0070C0;"></path>
                                                                        <path d="M 655 625 Q 671 601 685 594 Q 695 587 708 606 Q 718 622 741 716 Q 748 744 770 765 Q 780 777 771 789 Q 758 804 720 826 Q 701 835 639 818 Q 630 818 545 800 Q 502 790 464 784 C 434 779 466 749 495 756 Q 555 772 657 788 Q 679 792 686 784 Q 696 774 694 762 Q 679 660 664 648 C 652 629 652 629 655 625 Z" style="fill: #0070C0;"></path>
                                                                        <path d="M 506 680 Q 506 681 637 704 Q 656 707 649 718 Q 640 730 619 733 Q 589 736 502 703 C 474 692 477 673 506 680 Z" style="fill: #0070C0;"></path>
                                                                        <path d="M 517 604 Q 518 604 521 604 Q 594 617 655 625 C 685 629 689 631 664 648 Q 660 652 651 653 Q 630 654 515 625 C 486 618 487 603 517 604 Z" style="fill: #0070C0;"></path>
                                                                        <path d="M 430 530 Q 420 536 390 540 Q 380 541 376 538 Q 372 532 379 518 Q 404 472 420 396 Q 423 374 437 358 Q 453 339 458 353 Q 459 360 460 370 L 459 394 Q 458 400 441 497 C 436 527 436 527 430 530 Z" style="fill: #0070C0;"></path>
                                                                        <path d="M 743 407 Q 743 406 744 403 Q 748 388 759 389 Q 775 390 806 445 Q 822 491 857 516 Q 875 529 861 545 Q 845 561 801 587 Q 789 596 711 579 Q 705 579 430 530 C 400 525 413 485 441 497 Q 447 504 517 517 L 535 521 Q 575 531 631 538 L 660 543 Q 756 558 772 549 Q 778 545 774 524 Q 756 452 744 428 C 739 416 739 416 743 407 Z" style="fill: #0070C0;"></path>
                                                                        <path d="M 559 409 Q 559 410 560 411 Q 564 441 542 511 Q 539 517 535 521 C 515 544 507 545 517 517 L 518 516 Q 527 426 531 421 Q 535 412 541 406 C 554 392 554 392 559 409 Z" style="fill: #0070C0;"></path>
                                                                        <path d="M 636 505 Q 635 489 625 422 C 621 392 650 401 658 430 Q 664 452 670 468 Q 685 513 680 521 Q 671 534 660 543 C 637 563 624 567 631 538 Q 635 522 636 505 Z" style="fill: #0070C0;"></path>
                                                                        <path d="M 460 370 Q 461 370 463 369 Q 470 368 481 369 Q 563 390 743 407 C 766 409 766 409 744 428 Q 740 432 732 438 Q 717 447 658 430 L 625 422 Q 591 416 559 409 L 541 406 Q 495 400 459 394 C 429 389 430 375 460 370 Z" style="fill: #0070C0;"></path>
                                                                        <path d="M 636 134 Q 675 182 709 253 Q 724 281 744 297 Q 763 310 751 325 Q 739 338 710 351 Q 689 360 614 331 Q 518 310 475 305 Q 462 304 457 298 Q 453 291 471 283 Q 507 270 555 283 Q 628 307 642 306 Q 661 303 655 283 Q 636 213 598 163 L 573 135 Q 504 71 361 35 Q 348 32 358 23 Q 364 19 409 21 Q 515 30 605 102 L 636 134 Z" style="fill: #0070C0;"></path>
                                                                        <path d="M 605 102 Q 722 -15 764 -17 Q 845 -14 911 0 Q 945 7 942 15 Q 941 19 907 29 Q 747 65 697 94 Q 676 104 636 134 L 598 163 Q 564 191 527 224 Q 493 258 461 256 Q 445 256 442 251 Q 441 244 455 236 Q 492 215 573 135 L 605 102 Z" style="fill: #0070C0;"></path>
                                    
                                    
                                                                                                                                                                                                                                                                                                                                                                                                                                                                                                                                                                                                                                                                                                                                                                                                                                                                                                                                                                                                                                                                                                                                                                                    </g>
                            </svg>