<svg width='83' height='83' >
                                <g transform="translate(3, 70) scale(0.07, -0.07)">
                                    <!-- 先将完整的字以灰色字体绘制完成，层级位于下面 -->
                                                                        <path d="M 293 500 Q 386 531 389 534 Q 396 543 392 550 Q 385 560 357 564 Q 330 567 295 549 L 243 528 Q 231 525 221 521 Q 173 505 117 495 Q 84 486 110 473 Q 146 455 216 478 Q 228 482 243 485 L 293 500 Z" style="fill: #0070C0;"></path>
                                                                        <path d="M 283 305 Q 287 405 293 500 L 295 549 Q 296 616 316 708 Q 320 720 299 735 Q 262 754 237 759 Q 221 763 212 754 Q 205 745 213 730 Q 238 691 239 665 Q 242 599 243 528 L 243 485 Q 243 392 238 289 C 237 259 282 275 283 305 Z" style="fill: #0070C0;"></path>
                                                                        <path d="M 238 289 Q 181 270 121 248 Q 105 242 75 241 Q 62 238 60 228 Q 59 215 69 206 Q 94 191 129 174 Q 139 173 152 181 Q 185 211 222 231 Q 280 262 336 293 Q 358 305 373 318 Q 386 327 386 337 Q 379 343 283 305 L 238 289 Z" style="fill: #0070C0;"></path>
                                                                        <path d="M 574 814 Q 598 798 624 777 Q 637 767 652 770 Q 662 771 665 784 Q 668 799 656 824 Q 644 848 563 857 Q 550 858 544 855 Q 540 851 542 839 Q 546 829 574 814 Z" style="fill: #0070C0;"></path>
                                                                        <path d="M 694 705 Q 709 709 728 712 Q 768 721 775 726 Q 782 733 779 741 Q 772 751 746 759 Q 722 765 622 734 Q 531 715 477 710 Q 443 704 467 689 Q 500 668 570 681 Q 615 690 663 699 L 694 705 Z" style="fill: #0070C0;"></path>
                                                                        <path d="M 478 616 Q 503 571 526 557 Q 536 553 544 561 Q 551 570 551 582 Q 548 612 507 633 Q 483 648 474 646 Q 470 646 469 636 Q 469 629 478 616 Z" style="fill: #0070C0;"></path>
                                                                        <path d="M 646 561 Q 682 604 719 648 Q 734 658 727 668 Q 720 684 696 704 Q 695 705 694 705 C 669 722 655 728 663 699 L 664 697 Q 670 670 628 583 Q 619 568 617 556 C 610 527 627 538 646 561 Z" style="fill: #0070C0;"></path>
                                                                        <path d="M 617 556 Q 517 540 402 520 Q 383 517 398 503 Q 411 491 427 487 Q 446 483 461 487 Q 648 544 888 544 L 890 544 Q 908 545 912 553 Q 916 563 901 575 Q 850 611 782 590 Q 725 578 646 561 L 617 556 Z" style="fill: #0070C0;"></path>
                                                                        <path d="M 463 434 Q 450 438 430 439 Q 420 442 416 437 Q 412 431 420 417 Q 448 365 468 277 Q 472 255 485 238 C 502 213 505 210 509 228 Q 509 229 510 229 Q 511 238 512 250 L 510 272 Q 507 291 497 328 L 493 349 Q 484 389 482 405 C 478 430 478 430 463 434 Z" style="fill: #0070C0;"></path>
                                                                        <path d="M 672 268 Q 687 246 701 238 Q 710 231 724 250 Q 734 268 760 368 Q 769 395 789 417 Q 801 427 790 440 Q 777 455 740 478 Q 724 487 665 471 Q 565 453 463 434 C 434 429 453 397 482 405 Q 549 424 671 441 Q 698 445 706 436 Q 716 426 714 413 Q 696 308 684 296 C 671 270 671 270 672 268 Z" style="fill: #0070C0;"></path>
                                                                        <path d="M 497 328 Q 503 327 514 328 Q 590 341 647 349 Q 669 353 661 365 Q 651 378 627 382 Q 602 385 493 349 C 465 340 467 331 497 328 Z" style="fill: #0070C0;"></path>
                                                                        <path d="M 627 263 Q 648 267 672 268 C 702 269 711 284 684 296 Q 683 297 677 299 Q 659 302 510 272 C 481 266 482 250 512 250 Q 516 250 522 250 Q 559 256 594 259 L 627 263 Z" style="fill: #0070C0;"></path>
                                                                        <path d="M 485 238 Q 475 237 474 224 Q 468 112 282 0 Q 275 -6 280 -9 Q 286 -13 297 -10 Q 423 12 513 148 Q 525 163 537 178 Q 546 185 542 195 Q 538 205 514 225 Q 511 228 509 228 C 490 241 490 241 485 238 Z" style="fill: #0070C0;"></path>
                                                                        <path d="M 960 46 Q 944 71 918 154 Q 917 170 909 174 Q 902 177 900 159 Q 882 68 868 39 Q 841 9 745 12 Q 708 15 681 26 Q 656 39 650 54 Q 634 96 659 219 Q 665 243 627 263 C 602 279 586 288 594 259 Q 594 255 597 246 Q 609 209 605 174 Q 596 66 605 37 Q 609 15 629 -4 Q 699 -62 863 -38 Q 872 -35 881 -34 Q 918 -24 956 2 Q 975 20 960 46 Z" style="fill: #0070C0;"></path>
                                    
                                    
                                                                                                                                                                                                                                                                                                                                                                                                                                                                                                                                                                                                                                                                                                                                                                                                                                                                                                                                                                                                                                                                                                                                                                                    </g>
                            </svg>