<svg width='83' height='83' >
                                <g transform="translate(3, 70) scale(0.07, -0.07)">
                                    <!-- 先将完整的字以灰色字体绘制完成，层级位于下面 -->
                                                                        <path d="M 269 494 Q 290 501 314 508 Q 342 517 346 521 Q 353 528 348 537 Q 341 547 311 552 Q 290 555 271 548 L 221 526 Q 122 501 110 497 Q 76 488 102 474 Q 144 456 197 473 Q 207 477 222 480 L 269 494 Z" style="fill: #0070C0;"></path>
                                                                        <path d="M 262 335 Q 266 417 269 494 L 271 548 Q 271 629 291 710 Q 295 722 274 736 Q 238 755 214 759 Q 198 762 190 753 Q 183 746 191 731 Q 216 695 216 671 Q 220 601 221 526 L 222 480 Q 222 402 219 317 C 218 287 261 305 262 335 Z" style="fill: #0070C0;"></path>
                                                                        <path d="M 219 317 Q 170 299 119 278 Q 104 272 80 271 Q 67 268 67 258 Q 66 245 76 237 Q 101 224 135 210 Q 145 209 157 218 Q 175 237 301 319 Q 317 331 330 343 Q 342 352 341 361 Q 335 365 323 361 Q 293 349 262 335 L 219 317 Z" style="fill: #0070C0;"></path>
                                                                        <path d="M 416 720 Q 440 702 464 681 Q 476 671 489 672 Q 498 673 501 684 Q 504 697 496 721 Q 484 748 410 759 Q 397 760 392 759 Q 388 755 390 745 Q 393 736 416 720 Z" style="fill: #0070C0;"></path>
                                                                        <path d="M 362 608 Q 404 575 428 570 Q 440 569 444 580 Q 447 590 443 602 Q 436 618 421 625 Q 412 629 366 637 Q 354 638 348 634 Q 344 633 347 624 Q 350 617 362 608 Z" style="fill: #0070C0;"></path>
                                                                        <path d="M 386 443 Q 379 431 368 433 Q 361 434 353 436 Q 340 440 341 424 Q 365 369 394 364 Q 407 363 412 381 Q 419 411 469 527 Q 478 537 476 545 Q 475 555 465 547 Q 425 495 386 443 Z" style="fill: #0070C0;"></path>
                                                                        <path d="M 789 598 Q 795 667 815 692 Q 825 704 821 712 Q 812 722 768 742 Q 752 749 734 739 Q 718 729 655 715 Q 592 700 539 697 Q 523 697 521 689 Q 520 682 540 672 Q 561 659 578 665 Q 590 669 603 670 L 641 680 Q 687 690 725 695 Q 738 696 742 692 Q 751 679 744 641 Q 731 538 706 494 Q 691 469 669 473 Q 653 477 637 484 Q 616 493 630 471 Q 661 434 674 406 Q 692 387 709 402 Q 763 441 785 573 L 789 598 Z" style="fill: #0070C0;"></path>
                                                                        <path d="M 603 670 Q 622 577 525 453 Q 480 405 486 401 Q 492 400 500 405 Q 612 468 651 616 Q 657 634 664 651 Q 670 658 664 666 Q 658 672 641 680 C 614 693 598 700 603 670 Z" style="fill: #0070C0;"></path>
                                                                        <path d="M 531 609 Q 518 578 498 549 Q 485 528 496 505 Q 500 493 515 501 Q 546 525 548 571 Q 552 593 547 609 Q 543 615 540 615 Q 534 614 531 609 Z" style="fill: #0070C0;"></path>
                                                                        <path d="M 785 573 Q 819 548 859 510 Q 872 497 885 494 Q 892 494 896 502 Q 905 512 892 546 Q 882 576 829 589 Q 807 596 789 598 C 759 602 761 591 785 573 Z" style="fill: #0070C0;"></path>
                                                                        <path d="M 621 282 Q 681 289 855 289 Q 874 289 879 298 Q 883 308 868 322 Q 814 365 745 344 Q 690 335 614 321 L 562 313 Q 460 301 344 285 Q 323 284 339 267 Q 352 254 370 248 Q 389 244 406 248 Q 461 264 522 270 L 621 282 Z" style="fill: #0070C0;"></path>
                                                                        <path d="M 614 321 Q 617 364 614 367 Q 592 386 573 396 Q 561 400 552 393 Q 546 389 553 380 Q 562 367 562 313 L 561 236 Q 561 125 546 71 Q 536 29 577 -28 Q 581 -35 588 -38 Q 598 -39 604 -27 Q 616 4 613 34 Q 613 110 612 252 L 614 321 Z" style="fill: #0070C0;"></path>
                                                                        <path d="M 522 270 Q 470 171 295 63 Q 277 53 293 50 Q 303 47 343 61 Q 386 74 428 102 Q 515 165 561 236 C 591 281 549 319 522 270 Z" style="fill: #0070C0;"></path>
                                                                        <path d="M 612 252 Q 676 170 750 92 Q 772 68 809 66 Q 876 62 948 73 Q 967 74 968 79 Q 971 86 956 92 Q 799 152 769 170 Q 721 201 621 282 C 598 301 587 284 612 252 Z" style="fill: #0070C0;"></path>
                                    
                                    
                                                                                                                                                                                                                                                                                                                                                                                                                                                                                                                                                                                                                                                                                                                                                                                                                                                                                                                                                                                                                                                                                                                                                                                    </g>
                            </svg>