<svg width='83' height='83' >
                                <g transform="translate(3, 70) scale(0.07, -0.07)">
                                    <!-- 先将完整的字以灰色字体绘制完成，层级位于下面 -->
                                                                        <path d="M 491 809 Q 510 793 530 773 Q 543 761 558 763 Q 568 764 573 776 Q 577 791 567 819 Q 558 843 485 855 Q 470 858 464 855 Q 460 851 461 839 Q 465 829 491 809 Z" style="fill: #0070C0;"></path>
                                                                        <path d="M 315 669 Q 327 668 341 670 Q 504 691 674 711 Q 753 724 764 733 Q 774 740 770 748 Q 764 761 737 770 Q 709 779 678 769 Q 477 717 260 710 Q 224 709 248 689 Q 263 679 281 673 L 315 669 Z" style="fill: #0070C0;"></path>
                                                                        <path d="M 344 504 Q 301 504 266 504 Q 244 505 256 518 Q 299 567 337 602 Q 352 615 350 623 Q 349 636 318 667 Q 317 668 315 669 C 293 689 275 702 281 673 Q 280 670 283 663 Q 293 623 219 531 Q 210 522 198 514 Q 180 502 181 491 Q 184 475 196 457 Q 205 447 216 453 Q 238 465 314 480 Q 318 481 325 481 C 355 484 374 504 344 504 Z" style="fill: #0070C0;"></path>
                                                                        <path d="M 376 385 Q 345 386 307 381 Q 271 372 297 398 Q 412 525 454 554 Q 466 563 461 572 Q 452 591 423 611 Q 408 621 399 619 Q 389 618 390 602 Q 390 575 344 504 L 325 481 Q 241 388 221 379 Q 208 372 209 358 Q 209 345 231 324 Q 241 312 256 322 Q 307 352 367 362 C 396 368 406 385 376 385 Z" style="fill: #0070C0;"></path>
                                                                        <path d="M 367 362 Q 325 281 221 203 Q 214 197 219 194 Q 237 185 311 230 Q 371 270 424 365 Q 433 380 444 395 Q 451 402 447 411 Q 443 420 418 436 Q 402 448 393 447 Q 381 444 382 432 Q 382 410 376 385 L 367 362 Z" style="fill: #0070C0;"></path>
                                                                        <path d="M 525 535 Q 546 560 568 591 Q 581 613 593 624 Q 600 631 596 642 Q 593 651 572 668 Q 553 681 539 681 Q 526 680 531 664 Q 550 618 433 467 Q 426 460 424 455 Q 421 446 432 448 Q 450 451 503 510 L 525 535 Z" style="fill: #0070C0;"></path>
                                                                        <path d="M 545 321 Q 546 333 547 344 Q 548 453 553 479 Q 559 500 525 535 C 505 557 492 538 503 510 Q 522 471 498 351 Q 483 327 509 282 Q 510 278 515 273 Q 528 261 537 281 Q 540 291 542 301 L 545 321 Z" style="fill: #0070C0;"></path>
                                                                        <path d="M 632 669 Q 672 621 695 620 Q 708 620 712 636 Q 712 648 703 665 Q 688 686 635 692 Q 626 693 626 683 Q 625 676 632 669 Z" style="fill: #0070C0;"></path>
                                                                        <path d="M 690 559 Q 726 569 765 577 Q 787 584 792 587 Q 798 593 795 599 Q 789 608 767 613 Q 745 616 722 607 Q 695 597 667 589 Q 634 582 597 576 Q 570 572 590 559 Q 617 544 653 551 L 690 559 Z" style="fill: #0070C0;"></path>
                                                                        <path d="M 705 476 Q 738 483 769 488 Q 788 491 781 502 Q 772 514 751 517 Q 733 518 707 511 L 660 497 Q 627 487 598 478 Q 585 475 601 463 Q 610 457 627 461 Q 642 465 660 467 L 705 476 Z" style="fill: #0070C0;"></path>
                                                                        <path d="M 702 402 Q 739 411 773 416 Q 792 419 785 430 Q 776 442 755 445 Q 736 446 703 437 L 660 424 Q 626 415 598 406 Q 585 403 601 391 Q 610 385 627 388 Q 643 392 661 394 L 702 402 Z" style="fill: #0070C0;"></path>
                                                                        <path d="M 699 345 Q 700 375 702 402 L 703 437 Q 703 458 705 476 L 707 511 Q 711 539 706 546 Q 699 553 690 559 C 666 576 648 581 653 551 Q 656 533 660 497 L 660 467 Q 660 449 660 424 L 661 394 Q 661 370 662 339 C 663 309 698 315 699 345 Z" style="fill: #0070C0;"></path>
                                                                        <path d="M 662 339 Q 605 332 545 321 C 516 316 516 316 542 301 Q 563 286 600 295 Q 663 313 828 312 Q 843 312 846 318 Q 850 327 838 338 Q 793 368 736 353 Q 718 350 699 345 L 662 339 Z" style="fill: #0070C0;"></path>
                                                                        <path d="M 527 150 Q 690 174 697 178 Q 706 185 702 193 Q 696 205 670 213 Q 643 220 615 213 Q 573 203 532 193 L 466 181 Q 400 174 327 173 Q 293 170 316 153 Q 346 129 425 138 Q 446 141 470 142 L 527 150 Z" style="fill: #0070C0;"></path>
                                                                        <path d="M 517 53 Q 521 104 527 150 L 532 193 Q 533 203 536 209 Q 539 219 541 226 Q 544 236 525 250 Q 491 266 469 271 Q 453 274 446 266 Q 439 259 447 244 Q 460 226 466 181 L 470 142 Q 473 99 475 50 C 476 20 515 23 517 53 Z" style="fill: #0070C0;"></path>
                                                                        <path d="M 475 50 Q 345 41 195 32 Q 173 31 188 11 Q 203 -5 222 -13 Q 244 -20 263 -16 Q 482 26 841 4 Q 863 3 869 12 Q 876 25 858 41 Q 804 86 761 81 Q 670 68 517 53 L 475 50 Z" style="fill: #0070C0;"></path>
                                    
                                    
                                                                                                                                                                                                                                                                                                                                                                                                                                                                                                                                                                                                                                                                                                                                                                                                                                                                                                                                                                                                                                                                                                                                                                                                                                                                                                                                            </g>
                            </svg>