<svg width='83' height='83' >
                                <g transform="translate(3, 70) scale(0.07, -0.07)">
                                    <!-- 先将完整的字以灰色字体绘制完成，层级位于下面 -->
                                                                        <path d="M 269 520 Q 288 527 308 532 Q 336 542 341 546 Q 348 553 344 562 Q 337 572 309 576 Q 290 579 271 572 L 219 550 Q 111 522 101 519 Q 68 510 94 497 Q 133 478 183 496 Q 199 502 219 506 L 269 520 Z" style="fill: #0070C0;"></path>
                                                                        <path d="M 259 331 Q 263 428 269 520 L 271 572 Q 272 636 292 728 Q 296 740 275 755 Q 238 774 213 779 Q 197 783 188 774 Q 181 765 189 750 Q 214 713 215 686 Q 218 620 219 550 L 219 506 Q 219 412 214 310 C 213 280 258 301 259 331 Z" style="fill: #0070C0;"></path>
                                                                        <path d="M 214 310 Q 96 256 70 253 Q 58 249 58 240 Q 58 227 68 221 Q 92 209 125 196 Q 135 195 146 205 Q 168 232 296 317 Q 314 330 326 343 Q 338 352 336 361 Q 330 365 319 361 Q 291 348 259 331 L 214 310 Z" style="fill: #0070C0;"></path>
                                                                        <path d="M 553 818 Q 575 802 600 782 Q 613 772 628 774 Q 638 775 641 788 Q 644 803 632 828 Q 625 844 599 852 Q 535 867 524 859 Q 520 855 522 843 Q 526 833 553 818 Z" style="fill: #0070C0;"></path>
                                                                        <path d="M 404 714 Q 379 711 398 695 Q 429 674 450 677 Q 628 713 795 734 Q 805 733 813 744 Q 814 754 794 764 Q 761 785 703 765 Q 573 737 404 714 Z" style="fill: #0070C0;"></path>
                                                                        <path d="M 495 638 Q 488 641 468 643 Q 458 644 456 640 Q 452 636 459 623 Q 478 593 493 541 Q 496 526 507 516 Q 522 500 525 513 Q 526 519 526 526 L 523 553 Q 514 602 513 616 C 511 633 511 633 495 638 Z" style="fill: #0070C0;"></path>
                                                                        <path d="M 699 583 Q 714 611 732 622 Q 745 635 735 650 Q 678 695 633 672 Q 570 651 495 638 C 465 633 484 611 513 616 Q 531 619 642 643 Q 657 646 662 640 Q 666 636 666 626 Q 662 604 655 584 C 646 556 684 557 699 583 Z" style="fill: #0070C0;"></path>
                                                                        <path d="M 526 526 Q 530 526 538 527 Q 592 540 711 556 Q 720 557 720 564 Q 720 570 699 583 C 685 592 684 592 655 584 Q 582 565 523 553 C 494 547 496 524 526 526 Z" style="fill: #0070C0;"></path>
                                                                        <path d="M 415 470 Q 400 497 389 503 Q 385 507 380 504 Q 376 500 374 490 Q 377 468 351 409 Q 341 394 342 377 Q 345 359 353 346 Q 360 336 365 342 Q 377 345 391 385 Q 398 406 418 444 C 424 455 424 455 415 470 Z" style="fill: #0070C0;"></path>
                                                                        <path d="M 418 444 Q 439 434 462 439 Q 579 479 741 496 Q 768 499 778 498 Q 793 488 791 480 Q 791 470 768 413 Q 764 400 769 397 Q 776 394 790 405 Q 836 442 875 455 Q 906 468 906 475 Q 905 484 839 527 Q 818 542 729 523 Q 705 522 499 483 Q 457 476 415 470 C 385 466 390 453 418 444 Z" style="fill: #0070C0;"></path>
                                                                        <path d="M 551 376 Q 690 412 692 413 Q 699 420 695 427 Q 688 436 665 441 Q 650 444 567 419 Q 510 404 462 398 Q 432 392 454 380 Q 472 370 496 369 L 551 376 Z" style="fill: #0070C0;"></path>
                                                                        <path d="M 514 325 Q 535 344 550 349 Q 556 350 557 358 Q 557 364 551 376 C 538 403 516 392 496 369 Q 456 321 367 275 Q 360 274 367 270 Q 394 263 490 309 Q 490 310 491 310 L 514 325 Z" style="fill: #0070C0;"></path>
                                                                        <path d="M 618 257 Q 575 305 514 325 C 486 335 466 326 491 310 Q 494 307 500 304 Q 506 301 512 297 L 563 261 Q 576 251 587 236 L 615 185 Q 628 134 609 59 Q 600 28 591 23 Q 587 20 533 19 Q 500 19 500 16 Q 499 9 512 -2 Q 561 -41 580 -68 Q 593 -84 607 -79 Q 649 -60 664 40 Q 677 137 653 203 L 618 257 Z" style="fill: #0070C0;"></path>
                                                                        <path d="M 512 297 Q 488 231 317 129 Q 299 120 320 119 Q 389 119 512 219 Q 515 228 563 261 C 588 278 524 325 512 297 Z" style="fill: #0070C0;"></path>
                                                                        <path d="M 587 236 Q 503 115 309 10 Q 296 0 304 -3 Q 311 -9 325 -6 Q 436 15 571 139 Q 611 178 611 180 Q 612 183 615 185 C 634 208 604 260 587 236 Z" style="fill: #0070C0;"></path>
                                                                        <path d="M 636 247 Q 670 266 692 280 Q 746 317 771 326 Q 790 333 782 350 Q 772 366 748 381 Q 727 394 715 392 Q 703 391 707 379 Q 707 355 618 257 C 598 235 610 232 636 247 Z" style="fill: #0070C0;"></path>
                                                                        <path d="M 653 203 Q 800 83 837 77 Q 898 77 981 107 Q 997 111 998 116 Q 999 122 985 125 Q 940 134 890 141 Q 832 151 787 170 Q 732 191 675 224 Q 651 239 636 247 C 610 262 583 260 653 203 Z" style="fill: #0070C0;"></path>
                                    
                                    
                                                                                                                                                                                                                                                                                                                                                                                                                                                                                                                                                                                                                                                                                                                                                                                                                                                                                                                                                                                                                                                                                                                                                                                                                                                                                                                                                                                                                        </g>
                            </svg>