<svg width='83' height='83' >
                                <g transform="translate(3, 70) scale(0.07, -0.07)">
                                    <!-- 先将完整的字以灰色字体绘制完成，层级位于下面 -->
                                                                        <path d="M 509 645 Q 650 694 662 696 Q 713 706 716 709 Q 720 721 709 734 Q 687 753 639 775 Q 623 785 608 785 Q 601 781 598 769 Q 592 715 282 605 Q 275 595 282 592 Q 303 586 468 634 L 509 645 Z" style="fill: #0070C0;"></path>
                                                                        <path d="M 543 379 Q 633 386 894 387 Q 918 387 923 397 Q 930 410 911 427 Q 835 482 791 461 Q 694 445 544 420 L 490 412 Q 318 393 119 370 Q 94 367 112 347 Q 128 331 150 324 Q 175 317 194 323 Q 344 362 489 373 L 543 379 Z" style="fill: #0070C0;"></path>
                                                                        <path d="M 534 152 Q 538 273 543 379 L 544 420 Q 545 519 552 581 Q 559 602 550 613 Q 528 635 509 645 C 484 661 457 662 468 634 Q 490 585 491 475 Q 490 450 490 412 L 489 373 Q 488 285 484 146 C 483 116 533 122 534 152 Z" style="fill: #0070C0;"></path>
                                                                        <path d="M 528 105 Q 564 106 598 111 Q 688 123 782 110 Q 804 109 809 116 Q 816 129 805 139 Q 777 164 737 181 Q 724 187 700 179 Q 661 172 534 152 L 484 146 Q 262 125 254 124 Q 241 124 241 114 Q 240 102 258 89 Q 300 62 331 73 Q 385 91 528 105 Z" style="fill: #0070C0;"></path>
                                    
                                    
                                                                                                                                                                                                                                                                                                                                                                                            </g>
                            </svg>