<svg width='83' height='83' >
                                <g transform="translate(3, 70) scale(0.07, -0.07)">
                                    <!-- 先将完整的字以灰色字体绘制完成，层级位于下面 -->
                                                                        <path d="M 547 665 Q 701 695 706 699 Q 715 706 711 716 Q 704 728 674 737 Q 644 744 552 715 L 494 701 Q 490 701 486 700 Q 413 687 327 681 Q 290 677 316 658 Q 352 634 431 646 Q 462 652 496 656 L 547 665 Z" style="fill: #0070C0;"></path>
                                                                        <path d="M 538 593 Q 542 630 547 665 L 552 715 Q 556 760 568 785 Q 571 795 552 809 Q 519 828 497 832 Q 481 835 474 827 Q 467 820 474 806 Q 489 787 490 772 Q 491 738 494 701 L 496 656 Q 496 622 496 584 C 496 554 535 563 538 593 Z" style="fill: #0070C0;"></path>
                                                                        <path d="M 496 584 Q 459 578 425 574 Q 394 571 360 567 Q 333 564 354 547 Q 384 523 412 529 Q 548 556 654 564 Q 664 563 673 575 Q 674 585 652 596 Q 622 617 542 594 Q 539 594 538 593 L 496 584 Z" style="fill: #0070C0;"></path>
                                                                        <path d="M 253 451 Q 243 472 233 480 Q 214 496 211 469 Q 215 438 182 397 Q 143 355 145 335 Q 149 302 159 283 Q 174 255 195 283 L 256 419 C 262 433 262 433 253 451 Z" style="fill: #0070C0;"></path>
                                                                        <path d="M 256 419 Q 280 404 314 415 Q 455 457 693 476 Q 738 480 753 477 Q 772 465 769 456 Q 769 453 737 374 Q 730 361 737 357 Q 744 353 760 365 Q 815 408 860 424 Q 897 439 897 447 Q 896 457 823 509 Q 799 525 715 510 Q 493 485 367 464 Q 309 455 253 451 C 223 449 228 429 256 419 Z" style="fill: #0070C0;"></path>
                                                                        <path d="M 457 64 Q 458 206 460 316 Q 463 364 458 370 Q 436 391 415 400 Q 403 404 395 399 Q 388 395 390 385 Q 406 358 410 269 Q 411 203 415 60 C 416 30 457 34 457 64 Z" style="fill: #0070C0;"></path>
                                                                        <path d="M 595 79 Q 605 358 608 372 Q 615 390 606 400 Q 584 422 561 433 Q 551 436 541 432 Q 532 428 536 418 Q 551 384 554 275 Q 553 206 552 74 C 552 44 594 49 595 79 Z" style="fill: #0070C0;"></path>
                                                                        <path d="M 266 211 Q 297 180 328 141 Q 338 128 353 126 Q 363 125 369 137 Q 375 150 371 178 Q 364 215 268 255 Q 255 261 248 259 Q 244 256 243 244 Q 244 234 266 211 Z" style="fill: #0070C0;"></path>
                                                                        <path d="M 692 284 Q 670 247 623 186 Q 617 179 623 171 Q 630 170 639 175 Q 727 239 771 264 Q 790 270 786 282 Q 779 298 758 318 Q 736 337 712 338 Q 696 337 698 316 Q 701 301 692 284 Z" style="fill: #0070C0;"></path>
                                                                        <path d="M 552 74 Q 501 73 457 64 L 415 60 Q 307 51 191 40 Q 167 39 184 19 Q 199 3 219 -4 Q 241 -11 260 -6 Q 494 49 826 27 Q 848 26 854 36 Q 861 49 843 65 Q 779 113 710 96 Q 659 90 595 79 L 552 74 Z" style="fill: #0070C0;"></path>
                                    
                                    
                                                                                                                                                                                                                                                                                                                                                                                                                                                                                                                                                                                                                                                                                                                                                                                                                                                                    </g>
                            </svg>