<svg width='83' height='83' >
                                <g transform="translate(3, 70) scale(0.07, -0.07)">
                                    <!-- 先将完整的字以灰色字体绘制完成，层级位于下面 -->
                                                                        <path d="M 429 712 Q 453 746 483 766 Q 493 773 491 787 Q 490 800 467 825 Q 445 846 427 849 Q 409 850 414 829 Q 421 805 410 788 Q 376 730 328 676 Q 283 625 223 571 Q 213 564 209 558 Q 205 548 217 548 Q 250 552 336 624 Q 340 628 347 633 L 365 649 Q 381 665 402 684 L 429 712 Z" style="fill: #0070C0;"></path>
                                                                        <path d="M 532 526 Q 575 575 625 643 Q 644 670 672 686 Q 688 693 689 702 Q 689 715 662 734 Q 628 761 613 762 Q 601 762 589 755 Q 526 733 429 712 C 400 705 372 689 402 684 Q 447 668 548 704 Q 567 708 574 701 Q 578 697 557 655 Q 529 606 486 556 L 463 531 Q 334 402 152 348 Q 142 345 142 340 Q 142 336 150 334 Q 297 319 471 467 Q 474 471 503 497 L 532 526 Z" style="fill: #0070C0;"></path>
                                                                        <path d="M 503 497 Q 692 337 735 329 Q 822 329 907 352 Q 926 356 928 362 Q 929 369 914 374 Q 847 396 768 417 Q 666 447 532 526 L 486 556 Q 467 571 447 585 Q 392 631 365 649 C 341 666 325 654 347 633 Q 375 605 463 531 L 503 497 Z" style="fill: #0070C0;"></path>
                                    
                                    
                                                                                                                                                                                                                                                                                                                </g>
                            </svg>