<svg width='83' height='83' >
                                <g transform="translate(3, 70) scale(0.07, -0.07)">
                                    <!-- 先将完整的字以灰色字体绘制完成，层级位于下面 -->
                                                                        <path d="M 421 692 Q 422 693 424 695 Q 449 729 470 744 Q 480 754 477 767 Q 476 780 450 805 Q 428 826 409 827 Q 390 828 396 806 Q 405 781 393 760 Q 357 693 307 633 Q 258 575 194 513 Q 184 504 180 498 Q 176 488 189 489 Q 249 498 395 662 L 421 692 Z" style="fill: #0070C0;"></path>
                                                                        <path d="M 285 292 Q 420 365 522 474 L 546 503 Q 589 558 636 627 Q 654 652 680 669 Q 695 676 696 684 Q 696 697 669 715 Q 636 739 622 740 Q 612 740 600 733 Q 533 712 421 692 C 391 687 365 664 395 662 Q 462 653 560 685 Q 579 689 587 683 Q 591 679 571 636 Q 546 584 506 532 L 484 506 Q 345 341 127 268 Q 117 265 118 260 Q 118 256 126 255 Q 168 252 256 278 L 285 292 Z" style="fill: #0070C0;"></path>
                                                                        <path d="M 522 474 Q 741 294 805 294 Q 811 294 951 335 Q 966 339 979 349 Q 986 359 971 365 Q 952 369 810 381 Q 707 388 546 503 L 506 532 Q 478 554 449 578 Q 421 602 379 602 Q 367 602 360 594 Q 357 587 367 581 Q 415 560 484 506 L 522 474 Z" style="fill: #0070C0;"></path>
                                                                        <path d="M 309 281 Q 297 288 285 292 C 257 303 241 304 256 278 Q 296 215 307 67 Q 308 6 347 -22 Q 348 -23 351 -25 Q 370 -29 370 2 L 368 29 Q 365 50 358 73 Q 355 104 349 145 Q 342 200 340 244 Q 340 247 339 249 C 337 266 335 267 309 281 Z" style="fill: #0070C0;"></path>
                                                                        <path d="M 595 22 Q 596 21 599 18 Q 621 -16 641 -24 Q 653 -31 668 -8 Q 684 25 711 198 Q 720 232 745 260 Q 758 273 746 288 Q 730 306 682 333 Q 664 342 579 323 Q 576 323 420 299 Q 359 289 309 281 C 279 276 310 242 339 249 Q 388 262 460 271 L 509 278 Q 546 285 591 289 Q 628 293 639 280 Q 655 261 654 242 Q 633 74 616 46 C 605 18 587 32 595 22 Z" style="fill: #0070C0;"></path>
                                                                        <path d="M 515 138 Q 558 145 598 149 Q 620 153 613 165 Q 603 178 579 184 Q 557 188 518 178 Q 515 178 516 177 C 508 175 497 172 468 166 Q 425 157 387 148 Q 371 145 390 130 Q 397 126 470 133 L 515 138 Z" style="fill: #0070C0;"></path>
                                                                        <path d="M 513 50 Q 514 96 515 138 L 516 177 Q 519 271 511 276 Q 510 277 509 278 C 492 303 455 301 460 271 Q 464 256 468 166 L 470 133 Q 470 96 471 44 C 472 14 512 20 513 50 Z" style="fill: #0070C0;"></path>
                                                                        <path d="M 370 2 Q 379 2 388 2 Q 505 15 595 22 C 625 24 640 28 616 46 Q 609 53 594 57 Q 551 66 513 50 L 471 44 Q 417 37 368 29 C 338 24 340 2 370 2 Z" style="fill: #0070C0;"></path>
                                    
                                    
                                                                                                                                                                                                                                                                                                                                                                                                                                                                                                                                                                                                                                                                                                            </g>
                            </svg>