<svg width='83' height='83' >
                                <g transform="translate(3, 70) scale(0.07, -0.07)">
                                    <!-- 先将完整的字以灰色字体绘制完成，层级位于下面 -->
                                                                        <path d="M 443 570 Q 461 602 487 662 Q 514 722 527 739 Q 530 743 531 745 Q 536 758 514 778 Q 496 792 482 800 Q 461 808 443 799 Q 431 792 441 780 Q 455 762 452 743 Q 451 727 426 661 Q 398 582 365 529 L 343 499 Q 311 459 259 406 Q 249 392 259 388 Q 264 386 284 398 Q 319 419 344 441 L 372 468 L 394 495 L 418 527 L 419 529 L 443 570 Z" style="fill: #0070C0;"></path>
                                                                        <path d="M 486 295 Q 463 261 441 236 Q 351 136 157 42 Q 141 35 149 27 Q 157 24 182 33 Q 312 74 396 125 Q 459 167 518 244 Q 519 245 519 246 L 550 288 Q 608 374 645 490 Q 658 534 690 561 Q 710 577 694 592 Q 633 637 588 615 Q 582 610 515 589 L 443 570 C 414 562 389 530 419 529 Q 427 527 439 527 Q 470 526 537 557 Q 578 574 585 572 Q 588 572 589 557 Q 564 439 525 359 L 512 335 L 486 295 Z" style="fill: #0070C0;"></path>
                                                                        <path d="M 519 246 Q 583 153 655 59 Q 676 31 714 29 Q 860 14 910 14 Q 936 14 945 22 Q 949 32 935 37 L 811 78 Q 770 92 741 109 Q 664 153 550 288 L 512 335 L 394 495 L 365 529 Q 350 541 331 540 Q 314 540 308 533 Q 304 529 312 521 Q 329 512 343 499 L 372 468 Q 386 451 400 429 L 486 295 L 519 246 Z" style="fill: #0070C0;"></path>
                                    
                                    
                                                                                                                                                                                                                                                                                                                </g>
                            </svg>