<svg width='83' height='83' >
                                <g transform="translate(3, 70) scale(0.07, -0.07)">
                                    <!-- 先将完整的字以灰色字体绘制完成，层级位于下面 -->
                                                                        <path d="M 371 481 Q 410 518 443 557 L 463 584 Q 479 606 494 630 Q 534 697 573 751 Q 586 764 569 783 Q 523 822 492 820 Q 479 819 481 801 Q 490 657 322 489 Q 283 459 242 414 Q 232 396 249 401 Q 282 407 355 467 L 371 481 Z" style="fill: #0070C0;"></path>
                                                                        <path d="M 443 557 Q 500 532 631 578 Q 658 588 669 581 Q 678 575 656 510 Q 605 333 438 167 Q 320 62 207 3 Q 197 -3 198 -8 Q 199 -14 208 -13 Q 340 -7 516 168 Q 550 207 586 253 Q 659 353 732 511 Q 751 545 780 567 Q 798 577 797 587 Q 797 603 762 621 Q 720 646 703 646 Q 690 645 677 635 Q 548 592 471 585 Q 467 585 463 584 C 433 580 414 564 443 557 Z" style="fill: #0070C0;"></path>
                                                                        <path d="M 355 467 Q 358 460 364 454 Q 407 412 460 350 Q 475 331 489 327 Q 498 326 505 334 Q 517 347 506 388 Q 499 427 432 457 Q 393 473 371 481 C 343 491 342 492 355 467 Z" style="fill: #0070C0;"></path>
                                    
                                    
                                                                                                                                                                                                                                                                                                                </g>
                            </svg>