<svg width='83' height='83' >
                                <g transform="translate(3, 70) scale(0.07, -0.07)">
                                    <!-- 先将完整的字以灰色字体绘制完成，层级位于下面 -->
                                                                        <path d="M 214 439 Q 221 449 233 461 Q 258 489 285 524 L 301 545 Q 382 666 397 678 Q 407 688 402 703 Q 398 716 370 740 Q 343 759 324 759 Q 305 758 312 735 Q 336 684 225 522 Q 173 449 104 367 Q 94 357 91 351 Q 87 339 101 342 Q 120 345 196 419 L 214 439 Z" style="fill: #0070C0;"></path>
                                                                        <path d="M 285 524 Q 297 515 328 523 Q 401 545 408 536 Q 415 517 391 449 Q 370 374 295 271 Q 223 162 98 54 Q 73 36 95 39 Q 230 55 385 316 Q 421 379 453 450 Q 480 514 500 533 Q 513 545 505 557 Q 499 569 441 589 Q 428 593 404 580 Q 373 564 301 545 C 272 537 255 529 285 524 Z" style="fill: #0070C0;"></path>
                                                                        <path d="M 196 419 Q 200 412 213 400 Q 240 372 268 336 Q 278 324 291 323 Q 300 323 305 333 Q 311 345 307 369 Q 303 402 214 439 C 186 451 179 444 196 419 Z" style="fill: #0070C0;"></path>
                                                                        <path d="M 596 547 Q 602 547 609 549 Q 696 577 758 589 Q 773 592 775 587 Q 785 574 778 537 Q 765 437 739 393 Q 726 368 703 373 Q 681 383 662 395 Q 641 405 653 381 Q 689 335 704 300 Q 722 281 739 296 Q 767 315 788 350 Q 810 390 830 519 Q 836 565 853 586 Q 865 599 859 609 Q 850 621 799 642 Q 780 651 761 638 Q 718 611 583 588 C 553 583 567 541 596 547 Z" style="fill: #0070C0;"></path>
                                                                        <path d="M 583 588 Q 570 600 548 607 Q 535 611 525 606 Q 518 602 523 582 Q 538 539 535 497 Q 519 206 544 126 Q 551 96 577 71 Q 665 -5 854 22 Q 872 25 891 30 Q 937 43 982 78 Q 1001 94 986 121 Q 970 146 946 227 Q 945 242 937 246 Q 931 249 928 232 Q 913 144 899 115 Q 886 94 840 83 Q 737 61 645 104 Q 608 123 597 148 Q 552 241 596 547 C 600 577 600 578 583 588 Z" style="fill: #0070C0;"></path>
                                    
                                    
                                                                                                                                                                                                                                                                                                                                                                                                                                                                        </g>
                            </svg>