<svg width='83' height='83' >
                                <g transform="translate(3, 70) scale(0.07, -0.07)">
                                    <!-- 先将完整的字以灰色字体绘制完成，层级位于下面 -->
                                                                        <path d="M 214 707 Q 202 711 176 717 Q 164 720 161 715 Q 154 709 163 693 Q 194 626 210 515 Q 214 482 232 460 Q 250 438 255 453 Q 258 462 259 474 L 258 503 Q 257 513 255 525 Q 236 642 231 676 C 227 703 227 703 214 707 Z" style="fill: #0070C0;"></path>
                                                                        <path d="M 416 498 Q 431 476 445 470 Q 455 463 469 482 Q 482 506 511 635 Q 518 665 541 688 Q 553 698 542 712 Q 527 728 488 752 Q 470 759 407 744 Q 395 744 290 722 Q 250 713 214 707 C 184 702 202 667 231 676 Q 231 677 232 677 Q 266 687 319 696 L 357 702 Q 385 708 418 712 Q 443 716 452 707 Q 465 692 462 678 Q 441 546 424 528 C 411 505 411 505 416 498 Z" style="fill: #0070C0;"></path>
                                                                        <path d="M 371 597 Q 395 601 416 605 Q 438 609 429 621 Q 419 634 395 638 Q 385 639 371 636 L 324 623 Q 297 614 274 604 Q 258 600 278 587 Q 281 586 325 589 L 371 597 Z" style="fill: #0070C0;"></path>
                                                                        <path d="M 369 491 Q 390 495 416 498 C 446 502 445 507 424 528 Q 423 531 418 533 Q 396 545 370 531 L 325 518 Q 288 509 258 503 C 229 497 229 475 259 474 Q 265 473 273 475 Q 292 481 324 485 L 369 491 Z" style="fill: #0070C0;"></path>
                                                                        <path d="M 367 364 Q 428 376 505 385 Q 521 386 521 394 Q 522 406 506 415 Q 481 425 459 421 Q 407 411 368 401 L 322 392 Q 192 368 93 356 Q 81 355 78 348 Q 75 338 89 327 Q 128 300 174 315 Q 238 336 292 348 L 367 364 Z" style="fill: #0070C0;"></path>
                                                                        <path d="M 366 299 Q 366 332 367 364 L 368 401 Q 368 446 369 491 L 370 531 Q 370 559 371 587 Q 371 593 371 597 L 371 636 Q 371 690 370 692 Q 364 698 357 702 C 337 724 313 725 319 696 Q 323 684 324 664 Q 324 645 324 623 L 325 589 Q 325 555 325 518 L 324 485 Q 323 439 322 392 L 320 296 Q 308 71 315 57 Q 319 47 328 34 Q 338 21 349 37 Q 367 73 368 134 Q 367 162 366 275 L 366 299 Z" style="fill: #0070C0;"></path>
                                                                        <path d="M 292 348 Q 261 255 70 132 Q 54 120 69 118 Q 79 115 118 131 Q 161 144 202 174 Q 280 235 320 296 C 366 363 307 387 292 348 Z" style="fill: #0070C0;"></path>
                                                                        <path d="M 366 275 Q 370 272 378 267 Q 427 239 479 203 Q 489 196 500 198 Q 507 199 510 208 Q 511 218 503 238 Q 494 263 455 279 Q 415 291 370 299 Q 367 300 366 299 C 336 301 341 292 366 275 Z" style="fill: #0070C0;"></path>
                                                                        <path d="M 594 627 Q 648 681 658 693 L 674 712 Q 692 746 719 766 Q 728 773 724 785 Q 723 795 700 816 Q 679 832 663 833 Q 648 833 653 815 Q 666 782 602 691 Q 572 648 531 601 Q 522 594 520 588 Q 516 579 528 580 Q 532 580 577 612 L 594 627 Z" style="fill: #0070C0;"></path>
                                                                        <path d="M 658 693 Q 668 684 697 690 Q 742 703 745 697 Q 748 687 732 651 Q 719 612 675 560 Q 632 503 561 451 Q 539 438 558 438 Q 657 438 785 634 Q 806 676 824 688 Q 836 697 830 708 Q 826 718 776 740 Q 766 744 744 734 Q 722 724 674 712 C 645 705 634 702 658 693 Z" style="fill: #0070C0;"></path>
                                                                        <path d="M 577 612 Q 581 606 593 596 Q 636 553 646 552 Q 653 552 658 561 Q 661 571 656 591 Q 653 604 633 614 Q 614 623 594 627 C 565 633 560 634 577 612 Z" style="fill: #0070C0;"></path>
                                                                        <path d="M 609 294 Q 618 303 630 312 Q 646 327 665 345 L 690 372 Q 711 403 740 425 Q 749 432 747 445 Q 744 455 724 477 Q 705 493 688 496 Q 673 496 677 478 Q 684 460 676 446 Q 637 370 540 268 Q 531 261 529 256 Q 525 247 537 248 Q 546 249 592 280 L 609 294 Z" style="fill: #0070C0;"></path>
                                                                        <path d="M 665 345 Q 695 333 735 343 Q 774 364 793 351 Q 802 344 775 281 Q 736 164 617 62 Q 512 -7 485 -22 Q 464 -26 466 -36 Q 467 -40 475 -41 Q 688 -28 844 279 Q 863 307 892 326 Q 908 333 909 343 Q 910 356 880 377 Q 843 402 828 404 Q 815 404 803 396 Q 719 375 690 372 C 660 367 636 352 665 345 Z" style="fill: #0070C0;"></path>
                                                                        <path d="M 592 280 Q 593 270 615 250 Q 637 228 662 199 Q 672 187 686 186 Q 696 186 701 197 Q 707 209 701 235 Q 695 265 615 292 Q 611 293 609 294 C 585 302 585 302 592 280 Z" style="fill: #0070C0;"></path>
                                    
                                    
                                                                                                                                                                                                                                                                                                                                                                                                                                                                                                                                                                                                                                                                                                                                                                                                                                                                                                                                                                                                                                                                                                                                                                                    </g>
                            </svg>