<svg width='83' height='83' >
                                <g transform="translate(3, 70) scale(0.07, -0.07)">
                                    <!-- 先将完整的字以灰色字体绘制完成，层级位于下面 -->
                                                                        <path d="M 499 681 Q 581 697 671 713 Q 726 725 734 732 Q 744 741 739 750 Q 732 763 699 773 Q 666 780 562 747 Q 439 719 336 709 Q 294 703 324 684 Q 369 659 430 668 L 499 681 Z" style="fill: #0070C0;"></path>
                                                                        <path d="M 509 439 Q 615 454 771 455 Q 843 455 848 465 Q 854 478 836 493 Q 781 532 739 524 Q 652 505 506 478 L 447 470 Q 323 452 181 432 Q 159 429 175 411 Q 208 381 250 391 Q 340 416 442 430 L 509 439 Z" style="fill: #0070C0;"></path>
                                                                        <path d="M 506 478 Q 512 583 534 637 Q 540 650 530 658 Q 518 670 499 681 C 474 698 413 693 430 668 Q 455 637 455 606 Q 454 531 447 470 L 442 430 Q 412 253 320 176 Q 232 113 145 75 Q 130 71 127 66 Q 121 60 138 57 Q 214 51 362 143 Q 390 167 413 194 Q 470 267 494 405 L 506 478 Z" style="fill: #0070C0;"></path>
                                                                        <path d="M 494 405 Q 629 144 722 51 Q 740 33 762 31 Q 847 30 920 27 Q 951 26 952 33 Q 953 42 920 59 Q 752 134 710 180 Q 601 294 515 430 Q 511 434 509 439 C 493 464 473 446 494 405 Z" style="fill: #0070C0;"></path>
                                    
                                    
                                                                                                                                                                                                                                                                                                                                                                                            </g>
                            </svg>