<svg width='83' height='83' >
                                <g transform="translate(3, 70) scale(0.07, -0.07)">
                                    <!-- 先将完整的字以灰色字体绘制完成，层级位于下面 -->
                                                                        <path d="M 508 569 Q 584 585 666 597 Q 721 609 730 616 Q 740 625 735 634 Q 728 647 695 657 Q 661 664 626 653 Q 571 637 513 621 L 459 611 Q 398 602 333 597 Q 291 593 320 572 Q 368 545 433 557 Q 443 560 456 560 L 508 569 Z" style="fill: #0070C0;"></path>
                                                                        <path d="M 492 391 Q 597 406 757 407 Q 826 407 832 417 Q 838 430 820 445 Q 765 484 723 476 Q 638 457 496 432 L 444 425 Q 443 425 443 424 Q 326 408 193 388 Q 171 385 187 367 Q 220 337 262 347 Q 344 372 439 384 L 492 391 Z" style="fill: #0070C0;"></path>
                                                                        <path d="M 491 390 Q 491 391 492 391 L 496 432 Q 497 444 508 569 L 513 621 Q 516 720 543 771 Q 552 787 541 801 Q 516 822 473 835 Q 446 842 436 836 Q 426 829 434 815 Q 458 773 460 722 Q 461 667 459 611 L 456 560 Q 452 491 444 425 L 439 384 Q 411 224 332 146 Q 265 80 120 19 Q 105 12 105 8 Q 106 4 118 2 Q 142 -4 198 13 Q 294 35 364 101 Q 451 180 484 342 L 491 390 Z" style="fill: #0070C0;"></path>
                                                                        <path d="M 484 342 Q 587 159 723 8 Q 751 -26 779 -26 Q 864 -20 936 -16 Q 967 -15 967 -7 Q 968 2 934 18 Q 763 94 758 98 Q 649 179 504 372 Q 497 382 491 390 C 473 414 469 368 484 342 Z" style="fill: #0070C0;"></path>
                                    
                                    
                                                                                                                                                                                                                                                                                                                                                                                            </g>
                            </svg>