<svg width='83' height='83' >
                                <g transform="translate(3, 70) scale(0.07, -0.07)">
                                    <!-- 先将完整的字以灰色字体绘制完成，层级位于下面 -->
                                                                        <path d="M 571 651 Q 590 657 734 671 Q 746 670 756 683 Q 757 696 733 708 Q 694 732 601 706 Q 541 696 471 678 L 410 668 Q 356 665 241 651 Q 210 648 234 629 Q 270 598 300 606 Q 340 615 388 622 L 451 633 Q 494 640 542 647 L 571 651 Z" style="fill: #0070C0;"></path>
                                                                        <path d="M 471 678 Q 495 738 525 788 Q 534 798 528 810 Q 521 822 488 841 Q 464 854 454 853 Q 439 849 441 832 Q 445 759 415 680 Q 412 676 410 668 L 388 622 Q 316 490 183 375 Q 137 336 72 287 Q 63 280 71 276 Q 78 273 91 278 Q 182 315 258 378 Q 334 435 382 511 Q 416 560 451 633 L 471 678 Z" style="fill: #0070C0;"></path>
                                                                        <path d="M 542 647 Q 752 377 801 365 Q 846 359 963 376 Q 964 377 968 377 Q 978 380 980 385 Q 980 391 965 397 Q 797 451 759 484 Q 672 553 571 651 C 549 672 524 671 542 647 Z" style="fill: #0070C0;"></path>
                                                                        <path d="M 388 476 Q 354 469 379 454 Q 419 430 473 446 Q 524 456 576 467 Q 600 473 604 477 Q 611 484 607 493 Q 600 503 572 510 Q 542 516 514 503 Q 487 494 458 487 Q 427 480 388 476 Z" style="fill: #0070C0;"></path>
                                                                        <path d="M 431 335 Q 488 350 675 353 Q 723 350 731 361 Q 735 371 721 383 Q 670 425 623 406 Q 482 379 267 348 Q 248 347 262 331 Q 275 318 291 314 Q 310 310 324 314 Q 351 320 383 324 L 431 335 Z" style="fill: #0070C0;"></path>
                                                                        <path d="M 362 158 Q 416 195 525 216 Q 559 226 580 220 Q 601 213 604 179 Q 592 115 557 69 Q 538 42 521 36 Q 502 32 475 41 Q 448 48 429 53 Q 413 62 410 54 Q 410 47 422 35 Q 461 -7 486 -43 Q 496 -56 506 -56 Q 522 -57 541 -44 Q 610 4 657 151 Q 660 181 673 199 Q 685 212 675 224 Q 659 240 620 259 Q 605 268 523 247 Q 481 240 428 230 Q 409 227 418 246 Q 442 283 451 291 Q 464 306 454 321 Q 445 328 431 335 C 405 351 380 354 383 324 Q 395 300 361 244 Q 354 234 332 220 Q 314 202 317 187 Q 318 172 335 157 Q 348 145 362 158 Z" style="fill: #0070C0;"></path>
                                    
                                    
                                                                                                                                                                                                                                                                                                                                                                                                                                                                                                                                                    </g>
                            </svg>