<svg width='83' height='83' >
                                <g transform="translate(3, 70) scale(0.07, -0.07)">
                                    <!-- 先将完整的字以灰色字体绘制完成，层级位于下面 -->
                                                                        <path d="M 569 651 Q 600 660 746 677 Q 758 676 768 690 Q 769 703 744 715 Q 702 739 610 710 Q 576 704 469 678 L 412 668 Q 406 668 257 649 Q 224 645 249 625 Q 286 595 317 602 Q 353 609 389 617 L 448 629 Q 491 639 540 646 L 569 651 Z" style="fill: #0070C0;"></path>
                                                                        <path d="M 469 678 Q 497 751 525 799 Q 532 809 527 820 Q 520 830 488 849 Q 466 862 455 859 Q 440 855 442 839 Q 451 748 412 668 L 389 617 Q 314 488 191 373 Q 145 334 80 283 Q 71 276 79 272 Q 86 269 98 274 Q 290 359 386 515 Q 417 563 448 629 L 469 678 Z" style="fill: #0070C0;"></path>
                                                                        <path d="M 540 646 Q 541 643 545 639 Q 641 512 764 377 Q 785 356 818 358 Q 933 365 968 373 Q 978 376 980 381 Q 980 387 965 394 Q 806 448 759 484 Q 671 553 569 651 C 547 672 522 670 540 646 Z" style="fill: #0070C0;"></path>
                                                                        <path d="M 365 430 Q 328 423 355 406 Q 400 382 455 397 Q 519 410 585 424 Q 615 431 619 435 Q 628 444 623 452 Q 616 464 586 471 Q 555 477 524 464 Q 490 452 454 444 Q 414 434 365 430 Z" style="fill: #0070C0;"></path>
                                                                        <path d="M 488 274 Q 567 284 728 285 Q 747 285 751 294 Q 757 304 740 318 Q 683 358 635 342 Q 502 317 264 282 Q 243 279 259 263 Q 272 250 290 245 Q 311 241 326 244 Q 384 260 451 268 L 488 274 Z" style="fill: #0070C0;"></path>
                                                                        <path d="M 451 268 Q 478 211 465 65 Q 464 59 462 54 Q 458 41 434 45 Q 403 55 368 62 Q 356 63 355 56 Q 354 50 364 41 Q 434 -16 458 -49 Q 474 -65 486 -62 Q 498 -58 510 -23 Q 526 11 524 75 Q 521 160 522 192 Q 529 234 511 255 Q 498 267 488 274 C 464 292 440 296 451 268 Z" style="fill: #0070C0;"></path>
                                                                        <path d="M 282 183 Q 254 143 221 108 Q 194 78 207 43 Q 211 24 234 32 Q 285 59 298 122 Q 308 153 306 179 Q 302 189 297 190 Q 288 190 282 183 Z" style="fill: #0070C0;"></path>
                                                                        <path d="M 644 152 Q 686 106 730 51 Q 742 35 758 33 Q 768 32 777 45 Q 784 60 780 92 Q 776 141 647 202 Q 631 209 624 207 Q 618 204 618 190 Q 619 178 644 152 Z" style="fill: #0070C0;"></path>
                                    
                                    
                                                                                                                                                                                                                                                                                                                                                                                                                                                                                                                                                                                                                                                                                                            </g>
                            </svg>