<svg width='83' height='83' >
                                <g transform="translate(3, 70) scale(0.07, -0.07)">
                                    <!-- 先将完整的字以灰色字体绘制完成，层级位于下面 -->
                                                                        <path d="M 511 640 Q 548 649 699 672 Q 709 671 717 683 Q 718 693 696 704 Q 657 723 587 698 Q 521 683 512 678 L 457 667 Q 423 661 393 656 Q 348 652 300 643 Q 272 639 294 623 Q 327 599 352 606 Q 401 618 458 629 L 511 640 Z" style="fill: #0070C0;"></path>
                                                                        <path d="M 284 503 Q 324 513 367 522 Q 392 528 395 531 Q 402 537 398 543 Q 394 552 371 557 Q 349 561 326 553 Q 298 543 267 535 Q 233 528 194 524 Q 166 520 186 507 Q 207 494 246 496 L 284 503 Z" style="fill: #0070C0;"></path>
                                                                        <path d="M 257 426 Q 284 460 300 475 Q 310 482 305 488 Q 298 495 284 503 C 258 518 238 525 246 496 Q 252 483 233 420 C 224 391 238 403 257 426 Z" style="fill: #0070C0;"></path>
                                                                        <path d="M 198 410 Q 182 420 165 424 Q 161 425 156 422 Q 150 418 157 410 Q 181 373 189 276 Q 192 228 219 210 Q 232 206 233 229 L 233 230 L 231 253 Q 230 266 226 280 Q 225 295 222 313 L 219 339 Q 216 363 216 387 C 216 400 216 400 198 410 Z" style="fill: #0070C0;"></path>
                                                                        <path d="M 312 243 Q 328 221 342 215 Q 349 209 361 226 Q 371 247 390 355 Q 396 379 412 398 Q 422 408 413 418 Q 400 430 368 449 Q 352 455 257 426 L 233 420 Q 212 416 198 410 C 170 400 188 377 216 387 Q 321 426 339 413 Q 351 406 349 389 Q 336 290 324 265 C 314 240 310 246 312 243 Z" style="fill: #0070C0;"></path>
                                                                        <path d="M 222 313 Q 265 320 298 323 Q 317 327 309 338 Q 299 350 279 352 Q 236 355 219 339 C 196 320 192 308 222 313 Z" style="fill: #0070C0;"></path>
                                                                        <path d="M 233 230 Q 275 237 312 243 C 342 248 346 249 324 265 Q 317 271 304 272 Q 280 273 231 253 C 203 242 203 225 233 230 Z" style="fill: #0070C0;"></path>
                                                                        <path d="M 662 542 Q 719 557 780 569 Q 811 576 815 581 Q 822 588 819 595 Q 812 604 789 610 Q 767 614 699 590 Q 579 568 578 566 Q 550 562 570 548 Q 597 533 629 536 L 662 542 Z" style="fill: #0070C0;"></path>
                                                                        <path d="M 628 449 Q 662 494 683 511 Q 693 518 689 524 Q 674 542 662 542 C 632 546 625 547 629 536 Q 629 535 631 531 Q 637 519 608 442 C 597 414 610 425 628 449 Z" style="fill: #0070C0;"></path>
                                                                        <path d="M 608 442 L 607 442 Q 600 448 578 453 Q 569 456 566 452 Q 562 448 567 436 Q 586 382 592 297 Q 592 272 605 254 Q 617 236 621 248 Q 624 255 625 264 L 627 287 Q 624 297 621 348 L 619 372 Q 616 403 616 417 C 616 438 616 438 608 442 Z" style="fill: #0070C0;"></path>
                                                                        <path d="M 726 263 Q 739 244 754 238 Q 763 232 774 251 Q 784 273 801 391 Q 807 416 824 436 Q 833 446 823 457 Q 810 470 775 488 Q 760 494 636 452 Q 632 451 628 449 C 600 439 582 403 616 417 Q 724 463 746 451 Q 759 444 757 426 Q 744 302 731 288 C 721 269 721 269 726 263 Z" style="fill: #0070C0;"></path>
                                                                        <path d="M 621 348 Q 669 351 705 356 Q 724 359 717 370 Q 708 382 687 386 Q 642 389 619 372 C 594 355 591 346 621 348 Z" style="fill: #0070C0;"></path>
                                                                        <path d="M 625 264 Q 626 264 632 264 Q 719 270 726 263 C 753 250 752 267 731 288 Q 722 298 703 302 Q 673 306 627 287 C 599 276 595 264 625 264 Z" style="fill: #0070C0;"></path>
                                                                        <path d="M 494 326 Q 497 344 511 640 L 512 678 Q 512 718 535 795 Q 542 811 530 823 Q 505 842 462 854 Q 434 861 424 853 Q 414 846 423 831 Q 448 791 454 740 Q 455 704 457 667 L 458 629 Q 461 313 396 203 Q 377 175 353 150 Q 287 86 144 23 Q 129 16 129 12 Q 130 8 142 6 Q 167 2 223 20 Q 320 45 388 110 Q 460 179 487 288 L 494 326 Z" style="fill: #0070C0;"></path>
                                                                        <path d="M 487 288 Q 502 278 584 161 Q 702 1 767 -19 Q 846 -19 927 -3 Q 933 -2 940 1 Q 949 8 936 18 Q 920 28 794 73 Q 676 116 522 303 Q 510 318 494 326 C 469 342 466 309 487 288 Z" style="fill: #0070C0;"></path>
                                    
                                    
                                                                                                                                                                                                                                                                                                                                                                                                                                                                                                                                                                                                                                                                                                                                                                                                                                                                                                                                                                                                                                                                                                                                                                                                                                                                </g>
                            </svg>