<svg width='83' height='83' >
                                <g transform="translate(3, 70) scale(0.07, -0.07)">
                                    <!-- 先将完整的字以灰色字体绘制完成，层级位于下面 -->
                                                                        <path d="M 321 152 Q 405 86 411 84 Q 420 85 425 96 Q 432 108 424 138 Q 415 169 349 201 L 305 221 Q 278 234 243 248 Q 222 257 223 276 Q 242 337 259 400 L 270 441 Q 295 540 315 641 Q 324 687 342 713 Q 354 735 346 748 Q 333 766 285 792 Q 264 804 248 795 Q 235 788 245 771 Q 281 723 227 433 L 217 387 Q 204 320 179 275 Q 170 251 192 235 Q 241 213 282 181 L 321 152 Z" style="fill: #0070C0;"></path>
                                                                        <path d="M 282 181 Q 222 100 116 32 Q 103 23 115 20 Q 130 19 164 31 Q 218 52 259 87 Q 298 118 321 152 L 349 201 Q 349 202 350 202 Q 378 253 392 315 Q 416 417 429 438 Q 439 456 423 466 Q 377 503 351 495 Q 336 491 342 476 Q 346 469 349 458 L 353 432 Q 353 429 353 425 Q 344 308 305 221 L 282 181 Z" style="fill: #0070C0;"></path>
                                                                        <path d="M 349 458 Q 310 451 270 441 L 227 433 Q 163 423 94 409 Q 75 405 43 410 Q 30 409 27 400 Q 24 387 32 378 Q 53 359 84 338 Q 94 334 106 341 Q 160 374 217 387 L 259 400 Q 293 412 330 424 Q 340 428 353 432 C 382 441 379 463 349 458 Z" style="fill: #0070C0;"></path>
                                                                        <path d="M 569 578 Q 575 582 584 587 Q 650 621 695 655 Q 738 683 778 698 Q 797 702 799 711 Q 800 724 786 733 Q 761 745 711 755 Q 693 759 680 756 Q 673 750 674 739 Q 680 691 478 553 Q 472 550 467 545 Q 463 535 470 532 Q 489 538 537 561 L 569 578 Z" style="fill: #0070C0;"></path>
                                                                        <path d="M 590 374 Q 668 405 869 425 Q 888 428 892 437 Q 896 450 878 461 Q 817 494 769 474 Q 717 458 633 431 Q 614 427 596 420 L 544 406 Q 495 394 446 380 Q 425 376 443 360 Q 459 348 477 345 Q 489 345 541 359 L 590 374 Z" style="fill: #0070C0;"></path>
                                                                        <path d="M 541 359 Q 531 182 549 123 Q 553 95 578 71 Q 671 -2 851 23 Q 864 26 880 29 Q 925 41 970 72 Q 991 87 977 115 Q 964 146 948 244 Q 948 260 941 266 Q 935 270 930 251 Q 900 149 880 117 Q 865 99 824 89 Q 728 68 644 105 Q 611 123 602 144 Q 571 210 590 374 L 596 420 Q 602 469 612 523 Q 618 542 605 554 Q 592 569 569 578 C 543 593 528 590 537 561 Q 549 549 550 475 Q 547 469 544 406 L 541 359 Z" style="fill: #0070C0;"></path>
                                    
                                    
                                                                                                                                                                                                                                                                                                                                                                                                                                                                                                                                                    </g>
                            </svg>