<svg width='83' height='83' >
                                <g transform="translate(3, 70) scale(0.07, -0.07)">
                                    <!-- 先将完整的字以灰色字体绘制完成，层级位于下面 -->
                                                                        <path d="M 467 804 Q 518 756 550 747 Q 566 746 575 760 Q 579 775 575 792 Q 557 834 476 846 Q 458 850 449 845 Q 442 842 446 830 Q 449 817 467 804 Z" style="fill: #0070C0;"></path>
                                                                        <path d="M 364 635 Q 541 663 778 678 Q 788 677 799 689 Q 800 701 778 713 Q 736 737 673 720 Q 472 687 284 673 Q 257 672 230 669 Q 200 668 222 648 Q 247 627 292 625 Q 302 628 315 628 L 364 635 Z" style="fill: #0070C0;"></path>
                                                                        <path d="M 315 628 Q 334 609 337 564 Q 334 516 315 493 Q 300 472 334 443 Q 344 434 358 446 Q 439 506 668 493 Q 678 493 692 491 Q 711 488 719 493 Q 725 497 720 508 Q 716 518 683 538 Q 665 548 644 544 Q 619 540 585 537 Q 488 530 394 510 Q 382 506 381 510 Q 377 513 378 522 Q 382 582 388 599 Q 392 612 381 622 Q 374 629 364 635 C 340 653 297 652 315 628 Z" style="fill: #0070C0;"></path>
                                                                        <path d="M 444 329 Q 456 359 478 388 Q 488 395 485 406 Q 479 422 440 453 Q 428 463 416 459 Q 403 456 410 439 Q 419 409 387 323 L 369 279 Q 353 243 335 219 Q 325 200 327 186 Q 330 176 349 171 Q 424 155 479 120 L 527 93 Q 591 54 683 -14 Q 711 -36 730 -35 Q 752 -34 753 -12 Q 752 10 720 59 Q 705 84 673 95 Q 612 120 561 140 L 511 158 Q 444 183 397 194 Q 375 198 387 219 Q 406 258 422 286 L 444 329 Z" style="fill: #0070C0;"></path>
                                                                        <path d="M 644 350 Q 620 381 579 382 Q 573 382 567 380 Q 554 376 561 361 Q 565 354 568 342 L 569 300 Q 563 237 511 158 L 479 120 Q 457 101 434 82 Q 377 42 255 1 Q 239 -8 259 -10 Q 433 -19 527 93 L 561 140 Q 601 201 620 275 Q 624 294 629 306 C 638 334 644 350 644 350 Z" style="fill: #0070C0;"></path>
                                                                        <path d="M 629 306 Q 758 322 922 305 Q 946 302 952 311 Q 959 324 947 336 Q 919 364 875 384 Q 860 390 834 382 Q 828 382 644 350 L 568 342 Q 472 335 444 329 L 387 323 Q 324 319 285 312 Q 210 302 98 300 Q 85 300 83 289 Q 82 276 101 262 Q 117 249 149 237 Q 159 233 177 241 Q 217 256 369 279 L 422 286 Q 471 295 569 300 L 629 306 Z" style="fill: #0070C0;"></path>
                                    
                                    
                                                                                                                                                                                                                                                                                                                                                                                                                                                                                                                                                    </g>
                            </svg>