<svg width='83' height='83' >
                                <g transform="translate(3, 70) scale(0.07, -0.07)">
                                    <!-- 先将完整的字以灰色字体绘制完成，层级位于下面 -->
                                                                        <path d="M 343 196 Q 412 141 420 140 Q 429 141 434 152 Q 440 164 432 194 Q 425 222 375 247 L 330 266 Q 302 279 263 293 Q 244 300 243 320 Q 264 380 282 441 L 294 480 Q 318 567 340 656 Q 349 704 368 728 Q 381 750 373 763 Q 360 781 313 809 Q 292 821 276 812 Q 263 805 273 789 Q 306 740 249 471 L 239 429 Q 215 348 199 319 Q 190 295 212 279 Q 263 255 304 224 L 343 196 Z" style="fill: #0070C0;"></path>
                                                                        <path d="M 304 224 Q 294 212 284 198 Q 253 159 199 123 Q 186 114 169 105 Q 153 95 137 84 Q 124 75 135 72 Q 195 66 282 137 Q 319 165 343 196 L 375 247 Q 414 325 423 365 Q 442 455 464 490 Q 474 508 458 517 Q 416 556 387 549 Q 374 545 378 530 Q 385 515 386 499 L 386 469 Q 385 453 382 435 Q 376 360 330 266 L 304 224 Z" style="fill: #0070C0;"></path>
                                                                        <path d="M 386 499 Q 340 490 294 480 L 249 471 Q 182 461 112 447 Q 88 443 51 447 Q 39 447 36 438 Q 32 425 40 417 Q 59 399 89 378 Q 99 374 111 380 Q 189 422 239 429 L 282 441 Q 331 456 386 469 C 415 476 415 505 386 499 Z" style="fill: #0070C0;"></path>
                                                                        <path d="M 629 741 Q 660 717 693 688 Q 709 675 727 676 Q 740 677 744 692 Q 748 710 737 743 Q 730 765 694 778 Q 610 803 596 795 Q 590 791 593 776 Q 597 763 629 741 Z" style="fill: #0070C0;"></path>
                                                                        <path d="M 831 462 Q 858 543 889 563 Q 907 582 891 600 Q 816 657 759 628 Q 678 598 580 576 C 551 569 561 536 590 543 Q 593 543 765 586 Q 784 590 793 583 Q 802 576 799 557 Q 789 508 778 468 C 770 439 821 434 831 462 Z" style="fill: #0070C0;"></path>
                                                                        <path d="M 575 396 Q 587 387 611 392 Q 684 411 844 427 Q 854 428 856 438 Q 856 445 831 462 L 778 468 Q 777 469 774 468 Q 665 438 578 425 C 548 420 548 409 575 396 Z" style="fill: #0070C0;"></path>
                                                                        <path d="M 580 576 Q 564 589 539 598 Q 520 608 506 603 Q 494 596 502 581 Q 520 559 521 481 Q 521 319 490 216 Q 465 135 398 11 Q 394 4 391 -2 Q 390 -12 400 -10 Q 424 -6 493 104 Q 506 129 519 157 Q 562 265 575 396 L 578 425 Q 579 438 580 450 Q 583 520 589 541 Q 589 542 590 543 C 595 566 595 566 580 576 Z" style="fill: #0070C0;"></path>
                                    
                                    
                                                                                                                                                                                                                                                                                                                                                                                                                                                                                                                                                                                                                                </g>
                            </svg>