<svg width='83' height='83' >
                                <g transform="translate(3, 70) scale(0.07, -0.07)">
                                    <!-- 先将完整的字以灰色字体绘制完成，层级位于下面 -->
                                                                        <path d="M 315 198 Q 375 152 385 149 Q 394 150 398 161 Q 404 171 396 201 Q 387 232 345 248 L 301 265 Q 279 275 245 286 Q 226 293 226 311 Q 245 371 263 432 L 275 473 Q 297 560 317 647 Q 326 692 343 716 Q 355 737 348 749 Q 335 765 290 792 Q 271 804 254 795 Q 242 788 252 773 Q 282 730 232 465 L 222 419 Q 219 410 218 398 Q 206 349 184 310 Q 175 288 197 272 Q 240 253 278 225 L 315 198 Z" style="fill: #0070C0;"></path>
                                                                        <path d="M 278 225 Q 223 152 129 94 Q 120 90 113 83 Q 100 76 111 72 Q 124 71 159 82 Q 211 101 253 136 Q 292 164 315 198 L 345 248 Q 375 299 388 358 Q 409 454 427 480 Q 437 496 422 506 Q 377 542 353 536 Q 340 532 344 518 Q 350 505 352 490 L 352 460 Q 351 444 349 426 Q 343 360 301 265 L 278 225 Z" style="fill: #0070C0;"></path>
                                                                        <path d="M 352 490 Q 315 483 275 473 L 232 465 Q 177 455 117 444 Q 98 440 66 444 Q 54 443 51 434 Q 48 421 56 413 Q 75 395 106 375 Q 115 371 127 378 Q 160 399 222 419 L 263 432 Q 305 447 352 460 C 381 468 381 496 352 490 Z" style="fill: #0070C0;"></path>
                                                                        <path d="M 799 595 Q 826 664 854 680 Q 870 698 857 716 Q 841 729 790 754 Q 772 761 751 753 Q 676 723 563 701 C 534 695 550 665 579 671 Q 582 671 738 704 Q 756 708 763 702 Q 770 695 768 678 Q 759 635 747 599 C 738 570 788 567 799 595 Z" style="fill: #0070C0;"></path>
                                                                        <path d="M 559 528 Q 577 522 591 525 Q 661 543 813 561 Q 823 562 824 572 Q 824 579 799 595 C 779 608 776 607 747 599 Q 644 569 561 555 C 531 550 530 536 559 528 Z" style="fill: #0070C0;"></path>
                                                                        <path d="M 563 701 Q 523 732 502 725 Q 490 718 497 705 Q 518 674 515 613 Q 494 387 464 282 Q 460 269 455 255 Q 418 156 326 9 Q 322 3 320 -3 Q 317 -13 327 -11 Q 357 -5 434 112 Q 455 146 474 187 Q 541 340 559 528 L 561 555 Q 570 654 579 671 C 583 687 583 687 563 701 Z" style="fill: #0070C0;"></path>
                                                                        <path d="M 639 264 Q 786 348 857 376 Q 878 379 875 391 Q 871 410 854 434 Q 836 458 812 464 Q 796 467 793 445 Q 793 429 780 413 Q 731 365 644 296 C 621 277 613 249 639 264 Z" style="fill: #0070C0;"></path>
                                                                        <path d="M 963 102 Q 945 142 931 213 Q 930 229 921 234 Q 914 238 910 218 Q 897 133 883 117 Q 859 87 753 87 Q 695 88 671 97 Q 649 107 644 123 Q 629 163 639 264 L 644 296 Q 648 333 660 354 Q 673 384 654 401 Q 605 440 588 436 Q 573 430 580 413 Q 599 376 594 320 Q 585 124 610 87 Q 631 56 703 43 Q 755 34 840 37 Q 916 38 946 54 Q 977 70 963 102 Z" style="fill: #0070C0;"></path>
                                    
                                    
                                                                                                                                                                                                                                                                                                                                                                                                                                                                                                                                                                                                                                                                                                            </g>
                            </svg>