<svg width='83' height='83' >
                                <g transform="translate(3, 70) scale(0.07, -0.07)">
                                    <!-- 先将完整的字以灰色字体绘制完成，层级位于下面 -->
                                                                        <path d="M 293 197 Q 324 172 366 130 Q 381 117 390 115 Q 399 115 404 126 Q 411 136 405 166 Q 399 199 324 238 L 287 258 Q 262 271 232 286 Q 213 296 215 314 Q 242 386 267 460 L 280 500 Q 302 573 322 646 Q 332 691 352 714 Q 365 735 358 747 Q 345 765 302 793 Q 283 805 267 798 Q 254 791 264 775 Q 289 732 234 492 L 223 448 Q 216 426 211 402 Q 196 353 173 315 Q 163 293 183 277 Q 226 253 262 223 L 293 197 Z" style="fill: #0070C0;"></path>
                                                                        <path d="M 262 223 Q 190 151 109 106 Q 96 99 107 95 Q 182 88 288 191 Q 289 195 293 197 L 324 238 Q 373 322 387 378 Q 414 480 428 499 Q 438 515 424 524 Q 385 558 361 552 Q 348 549 353 536 Q 357 526 359 515 L 360 485 L 360 484 Q 351 358 287 258 L 262 223 Z" style="fill: #0070C0;"></path>
                                                                        <path d="M 359 515 Q 320 508 280 500 L 234 492 Q 173 485 110 474 Q 89 470 56 475 Q 43 475 41 466 Q 37 454 45 445 Q 64 427 93 405 Q 102 401 114 407 Q 172 440 223 448 L 267 460 Q 312 472 360 485 C 389 493 389 520 359 515 Z" style="fill: #0070C0;"></path>
                                                                        <path d="M 574 696 Q 559 709 538 718 Q 519 725 516 716 Q 512 707 519 699 Q 538 671 537 637 Q 530 541 513 452 L 505 413 Q 483 305 452 259 Q 409 211 424 190 Q 428 183 439 174 Q 455 161 475 178 Q 532 215 720 197 Q 732 197 744 194 L 800 186 Q 849 179 898 162 Q 914 155 926 160 Q 938 164 933 178 Q 927 196 909 209 Q 896 224 871 224 Q 852 224 807 228 L 753 233 Q 662 237 517 231 Q 496 230 503 254 Q 525 333 544 420 L 551 457 Q 570 554 583 661 C 586 688 586 688 574 696 Z" style="fill: #0070C0;"></path>
                                                                        <path d="M 831 493 Q 835 637 848 666 Q 861 688 850 696 Q 843 708 787 742 Q 772 754 709 729 Q 636 708 574 696 C 545 690 553 657 583 661 Q 601 660 627 669 Q 745 702 763 689 Q 776 682 778 653 Q 779 560 777 484 L 776 445 Q 770 324 753 233 L 744 194 Q 722 92 690 67 Q 684 66 593 99 Q 580 102 584 90 Q 587 81 604 70 Q 656 25 682 -10 Q 710 -38 728 -19 Q 768 32 800 186 L 807 228 Q 819 297 829 445 L 831 493 Z" style="fill: #0070C0;"></path>
                                                                        <path d="M 615 589 Q 657 517 677 512 Q 690 509 699 525 Q 703 538 697 558 Q 690 574 670 587 Q 639 609 624 614 Q 617 617 613 606 Q 610 599 615 589 Z" style="fill: #0070C0;"></path>
                                                                        <path d="M 829 445 Q 869 446 914 446 Q 971 443 978 453 Q 982 463 969 476 Q 917 515 860 498 Q 845 497 831 493 L 777 484 Q 734 480 681 472 Q 618 465 551 457 L 513 452 Q 471 449 427 444 Q 408 443 422 427 Q 435 414 451 409 Q 460 408 505 413 L 544 420 Q 596 430 656 436 Q 707 443 776 445 L 829 445 Z" style="fill: #0070C0;"></path>
                                                                        <path d="M 612 340 Q 625 321 638 297 Q 648 282 663 279 Q 673 278 681 289 Q 688 302 686 332 Q 685 347 663 362 Q 611 393 596 391 Q 592 388 590 376 Q 591 364 612 340 Z" style="fill: #0070C0;"></path>
                                    
                                    
                                                                                                                                                                                                                                                                                                                                                                                                                                                                                                                                                                                                                                                                                                            </g>
                            </svg>