<svg width='83' height='83' >
                                <g transform="translate(3, 70) scale(0.07, -0.07)">
                                    <!-- 先将完整的字以灰色字体绘制完成，层级位于下面 -->
                                                                        <path d="M 262 447 Q 286 537 306 628 Q 315 676 333 701 Q 345 723 338 736 Q 323 754 277 780 Q 256 793 240 783 Q 227 776 237 760 Q 271 709 218 437 L 208 392 Q 196 328 171 287 Q 161 265 181 248 Q 227 220 266 183 L 301 151 Q 376 76 384 74 Q 391 74 399 85 Q 406 95 402 126 Q 398 154 376 169 Q 360 181 331 199 L 290 223 Q 265 238 233 255 Q 212 267 215 288 Q 234 346 251 406 L 262 447 Z" style="fill: #0070C0;"></path>
                                                                        <path d="M 266 183 Q 194 102 104 44 Q 91 35 103 32 Q 116 31 152 43 Q 206 64 247 99 Q 280 124 301 151 L 331 199 Q 368 263 382 326 Q 401 417 420 450 Q 430 468 415 478 Q 367 514 343 508 Q 328 504 334 489 Q 338 479 342 466 L 343 436 Q 334 304 290 223 L 266 183 Z" style="fill: #0070C0;"></path>
                                                                        <path d="M 342 466 Q 303 457 262 447 L 218 437 Q 160 427 100 413 Q 79 409 46 412 Q 33 411 31 402 Q 27 389 36 381 Q 55 365 86 344 Q 96 340 107 347 Q 149 372 208 392 L 251 406 Q 294 422 343 436 C 372 444 371 473 342 466 Z" style="fill: #0070C0;"></path>
                                                                        <path d="M 628 555 Q 713 576 724 582 Q 731 589 727 597 Q 720 607 693 613 Q 665 617 639 605 Q 635 604 632 602 L 581 586 Q 578 586 577 585 Q 541 576 499 570 Q 465 563 490 549 Q 529 530 580 544 L 628 555 Z" style="fill: #0070C0;"></path>
                                                                        <path d="M 617 438 Q 621 498 628 555 L 632 602 Q 638 725 658 781 Q 662 793 642 808 Q 606 827 582 832 Q 566 836 558 827 Q 551 820 558 804 Q 580 773 580 750 Q 583 672 581 586 L 580 544 Q 579 490 575 430 C 573 400 615 408 617 438 Z" style="fill: #0070C0;"></path>
                                                                        <path d="M 694 417 Q 706 420 907 436 Q 925 437 929 445 Q 933 455 918 467 Q 861 500 811 482 Q 774 475 727 462 L 666 448 Q 630 444 617 438 L 575 430 Q 499 417 418 401 Q 399 397 414 383 Q 427 371 444 368 Q 463 364 477 369 Q 550 393 633 407 Q 634 408 636 407 L 694 417 Z" style="fill: #0070C0;"></path>
                                                                        <path d="M 603 303 Q 676 396 694 417 L 727 462 Q 758 511 785 554 Q 816 609 836 635 Q 843 645 836 661 Q 806 713 774 713 Q 758 714 763 693 Q 769 660 760 626 Q 757 622 756 615 Q 723 534 666 448 L 636 407 Q 617 383 596 356 Q 586 344 576 332 L 547 299 Q 483 232 411 164 Q 404 160 404 152 Q 404 148 409 147 Q 443 153 537 235 Q 540 241 550 248 L 603 303 Z" style="fill: #0070C0;"></path>
                                                                        <path d="M 586 165 Q 658 196 766 253 Q 785 263 808 269 Q 829 273 823 292 Q 814 310 793 327 Q 774 343 763 343 Q 751 344 752 331 Q 752 298 669 243 Q 629 215 587 183 C 563 165 558 153 586 165 Z" style="fill: #0070C0;"></path>
                                                                        <path d="M 896 81 Q 883 105 861 181 Q 860 197 853 202 Q 846 205 842 187 Q 815 105 798 78 Q 788 66 756 57 Q 684 39 625 58 Q 603 68 597 81 Q 579 120 586 165 L 587 183 Q 591 234 602 293 Q 603 299 603 303 C 606 320 604 321 576 332 Q 570 336 563 338 Q 553 342 544 338 Q 538 334 543 318 Q 544 309 547 299 L 550 248 Q 543 104 554 64 Q 558 43 577 26 Q 658 -34 818 3 Q 855 13 890 38 Q 911 54 896 81 Z" style="fill: #0070C0;"></path>
                                    
                                    
                                                                                                                                                                                                                                                                                                                                                                                                                                                                                                                                                                                                                                                                                                                                                                                        </g>
                            </svg>