<svg width='83' height='83' >
                                <g transform="translate(3, 70) scale(0.07, -0.07)">
                                    <!-- 先将完整的字以灰色字体绘制完成，层级位于下面 -->
                                                                        <path d="M 283 458 L 333 634 Q 343 683 364 708 Q 377 730 370 744 Q 357 763 308 793 Q 287 806 270 798 Q 257 791 266 774 Q 297 725 235 450 L 224 404 Q 214 352 183 300 Q 173 275 196 258 Q 245 236 287 203 L 325 176 Q 353 155 387 125 Q 405 112 415 110 Q 424 111 430 123 Q 436 135 428 167 Q 419 201 357 227 L 313 246 Q 285 258 249 272 Q 228 279 229 300 Q 250 358 269 416 L 283 458 Z" style="fill: #0070C0;"></path>
                                                                        <path d="M 287 203 Q 236 140 117 64 Q 104 55 115 52 Q 202 45 311 159 Q 318 168 325 176 L 357 227 Q 358 228 359 228 Q 390 280 405 342 Q 433 444 447 466 Q 457 482 442 493 Q 400 532 371 525 Q 358 521 362 506 Q 369 490 370 473 L 369 445 Q 357 328 313 246 L 287 203 Z" style="fill: #0070C0;"></path>
                                                                        <path d="M 370 473 Q 327 466 283 458 L 235 450 Q 97 432 72 435 Q 59 435 57 426 Q 53 414 61 405 Q 80 387 109 365 Q 118 361 130 367 Q 173 391 219 403 Q 220 404 224 404 L 269 416 Q 312 429 357 442 Q 361 443 369 445 C 398 452 400 478 370 473 Z" style="fill: #0070C0;"></path>
                                                                        <path d="M 522 650 Q 482 643 511 624 Q 554 600 633 618 Q 706 636 784 653 Q 821 663 828 668 Q 838 677 832 687 Q 823 700 790 707 Q 766 711 658 677 Q 579 658 522 650 Z" style="fill: #0070C0;"></path>
                                                                        <path d="M 527 480 Q 517 484 493 489 Q 480 493 477 488 Q 470 481 478 465 Q 511 389 526 263 Q 527 226 548 200 Q 566 178 571 193 Q 575 205 576 222 L 575 248 Q 572 275 562 335 L 558 363 Q 548 421 547 444 C 545 474 545 474 527 480 Z" style="fill: #0070C0;"></path>
                                                                        <path d="M 728 244 Q 750 210 769 201 Q 779 192 796 215 Q 814 245 847 405 Q 856 439 881 466 Q 894 479 882 495 Q 864 513 818 540 Q 796 550 740 532 Q 734 532 606 500 Q 563 488 527 480 C 498 473 518 435 547 444 Q 619 466 743 492 Q 768 496 779 489 Q 795 476 791 453 Q 763 288 747 272 C 734 245 725 248 728 244 Z" style="fill: #0070C0;"></path>
                                                                        <path d="M 562 335 Q 563 335 566 335 Q 654 351 719 360 Q 741 364 733 376 Q 723 391 697 395 Q 670 398 558 363 C 529 354 532 333 562 335 Z" style="fill: #0070C0;"></path>
                                                                        <path d="M 576 222 Q 663 234 728 244 C 758 249 774 259 747 272 Q 740 276 729 279 Q 695 283 575 248 C 546 240 546 218 576 222 Z" style="fill: #0070C0;"></path>
                                                                        <path d="M 442 72 Q 420 71 436 51 Q 452 35 471 29 Q 495 22 512 27 Q 630 55 913 56 Q 926 56 943 55 Q 965 54 971 64 Q 977 77 959 92 Q 901 137 860 128 Q 737 106 442 72 Z" style="fill: #0070C0;"></path>
                                    
                                    
                                                                                                                                                                                                                                                                                                                                                                                                                                                                                                                                                                                                                                                                                                                                                                                        </g>
                            </svg>