<svg width='83' height='83' >
                                <g transform="translate(3, 70) scale(0.07, -0.07)">
                                    <!-- 先将完整的字以灰色字体绘制完成，层级位于下面 -->
                                                                        <path d="M 282 438 Q 306 526 326 616 Q 335 664 353 689 Q 365 711 358 724 Q 343 742 297 768 Q 276 781 260 771 Q 247 764 257 748 Q 290 699 237 428 L 227 382 Q 218 331 195 295 Q 183 270 232 241 Q 265 222 294 198 L 330 169 Q 355 150 384 120 Q 400 107 410 105 Q 419 105 424 116 Q 431 128 425 158 Q 416 192 360 219 L 319 239 Q 292 252 258 267 Q 239 276 239 296 Q 255 345 270 397 L 282 438 Z" style="fill: #0070C0;"></path>
                                                                        <path d="M 294 198 Q 233 120 149 70 Q 140 66 133 59 Q 120 52 131 48 Q 144 47 179 58 Q 231 77 271 110 Q 308 138 330 169 L 360 219 Q 361 220 362 220 Q 387 266 421 389 Q 427 420 443 448 Q 453 464 438 474 Q 393 510 369 504 Q 356 500 361 486 Q 365 474 368 460 L 368 433 Q 356 316 319 239 L 294 198 Z" style="fill: #0070C0;"></path>
                                                                        <path d="M 368 460 Q 326 450 282 438 L 237 428 Q 177 416 116 402 Q 97 398 65 400 Q 52 399 50 390 Q 47 377 56 369 Q 75 353 106 332 Q 116 328 128 336 Q 188 375 227 382 L 270 397 Q 309 412 351 426 Q 358 430 368 433 C 396 443 397 467 368 460 Z" style="fill: #0070C0;"></path>
                                                                        <path d="M 676 540 Q 805 571 807 573 Q 816 580 811 589 Q 804 599 776 607 Q 742 613 679 588 L 628 574 Q 582 565 529 560 Q 493 554 519 538 Q 558 517 616 529 Q 620 530 627 530 L 676 540 Z" style="fill: #0070C0;"></path>
                                                                        <path d="M 667 425 Q 671 483 676 540 L 679 588 Q 683 678 702 758 Q 706 768 686 784 Q 650 803 626 808 Q 610 811 602 803 Q 595 796 602 780 Q 624 747 625 725 Q 628 653 628 574 L 627 530 Q 626 478 624 418 C 623 388 665 395 667 425 Z" style="fill: #0070C0;"></path>
                                                                        <path d="M 649 384 Q 721 396 841 396 Q 889 396 895 405 Q 899 415 885 427 Q 836 464 774 446 Q 729 437 667 425 L 624 418 Q 545 406 455 392 Q 436 391 450 375 Q 463 363 479 358 Q 498 354 512 358 Q 557 371 608 378 L 649 384 Z" style="fill: #0070C0;"></path>
                                                                        <path d="M 675 211 Q 694 217 783 228 Q 793 227 801 239 Q 802 249 780 260 Q 755 279 680 258 Q 679 258 677 257 L 625 245 Q 607 242 504 227 Q 476 223 498 207 Q 532 183 556 190 Q 587 197 626 204 L 675 211 Z" style="fill: #0070C0;"></path>
                                                                        <path d="M 670 84 Q 671 151 675 211 L 677 257 Q 677 305 681 332 Q 688 357 649 384 C 625 402 598 406 608 378 Q 623 339 624 275 Q 624 263 625 245 L 626 204 Q 626 155 627 79 C 627 49 669 54 670 84 Z" style="fill: #0070C0;"></path>
                                                                        <path d="M 627 79 Q 530 69 417 58 Q 396 57 411 39 Q 424 24 443 19 Q 464 12 480 17 Q 687 63 917 44 Q 936 44 942 52 Q 948 64 932 78 Q 883 117 824 108 Q 763 98 670 84 L 627 79 Z" style="fill: #0070C0;"></path>
                                    
                                    
                                                                                                                                                                                                                                                                                                                                                                                                                                                                                                                                                                                                                                                                                                                                                                                        </g>
                            </svg>