<svg width='83' height='83' >
                                <g transform="translate(3, 70) scale(0.07, -0.07)">
                                    <!-- 先将完整的字以灰色字体绘制完成，层级位于下面 -->
                                                                        <path d="M 289 476 Q 307 542 322 608 Q 331 656 349 681 Q 361 703 354 716 Q 339 734 293 760 Q 272 773 256 763 Q 243 756 253 740 Q 283 695 242 468 L 233 424 Q 215 349 199 323 Q 189 301 209 284 Q 255 257 292 223 L 327 192 Q 352 168 383 135 Q 399 119 408 118 Q 417 118 423 129 Q 430 139 426 170 Q 422 198 399 213 Q 383 225 355 241 L 314 264 Q 290 277 261 292 Q 240 302 243 324 Q 262 381 278 438 L 289 476 Z" style="fill: #0070C0;"></path>
                                                                        <path d="M 292 223 Q 235 138 125 70 Q 116 66 109 59 Q 96 52 107 48 Q 164 42 253 114 Q 302 148 327 192 L 355 241 Q 373 277 412 410 Q 418 443 435 472 Q 445 488 430 498 Q 385 534 361 528 Q 348 524 353 510 Q 357 501 359 491 L 361 463 Q 361 382 314 264 L 292 223 Z" style="fill: #0070C0;"></path>
                                                                        <path d="M 359 491 Q 325 485 289 476 L 242 468 Q 181 458 115 447 Q 96 443 63 447 Q 50 447 48 438 Q 44 425 52 417 Q 71 399 101 378 Q 111 374 123 381 Q 189 417 233 424 L 278 438 Q 315 450 353 461 Q 356 462 361 463 C 390 471 389 496 359 491 Z" style="fill: #0070C0;"></path>
                                                                        <path d="M 614 620 Q 771 692 777 700 Q 784 710 778 717 Q 768 727 737 728 Q 706 728 678 709 Q 636 684 592 660 L 554 643 Q 505 624 450 604 Q 414 591 444 579 Q 489 564 555 596 Q 562 600 574 603 L 614 620 Z" style="fill: #0070C0;"></path>
                                                                        <path d="M 662 486 Q 774 374 861 372 Q 883 376 875 405 Q 865 432 852 557 Q 851 567 846 569 Q 842 569 840 557 Q 831 527 823 499 Q 813 460 800 460 Q 770 459 705 513 L 674 545 Q 643 579 614 620 L 592 660 Q 561 726 568 771 Q 569 790 532 804 Q 495 819 484 814 Q 474 807 480 792 Q 505 771 519 730 Q 535 684 554 643 L 574 603 Q 616 540 636 516 L 662 486 Z" style="fill: #0070C0;"></path>
                                                                        <path d="M 705 513 Q 756 553 782 563 Q 792 567 793 579 Q 794 589 780 615 Q 767 637 752 642 Q 739 646 737 628 Q 738 606 724 592 Q 700 568 674 545 L 636 516 Q 587 480 506 436 Q 496 432 492 428 Q 486 421 497 419 Q 533 415 662 486 L 705 513 Z" style="fill: #0070C0;"></path>
                                                                        <path d="M 645 328 Q 648 329 750 346 Q 760 345 770 358 Q 770 370 747 379 Q 720 400 639 374 Q 495 344 443 337 Q 415 333 437 316 Q 476 291 499 298 Q 550 311 615 323 L 645 328 Z" style="fill: #0070C0;"></path>
                                                                        <path d="M 512 276 Q 522 156 363 20 Q 357 13 363 10 Q 388 4 455 57 Q 516 102 562 209 Q 569 227 580 243 Q 587 252 582 261 Q 576 270 549 284 Q 530 294 522 292 Q 510 289 512 276 Z" style="fill: #0070C0;"></path>
                                                                        <path d="M 960 85 Q 947 113 928 198 Q 928 214 921 218 Q 915 221 911 204 Q 889 113 872 84 Q 842 56 758 58 Q 724 59 699 69 Q 677 79 670 94 Q 649 139 679 283 Q 685 310 645 328 C 619 343 610 348 615 323 Q 614 319 617 310 Q 629 273 625 238 Q 615 112 625 77 Q 628 56 647 39 Q 726 -21 877 13 Q 880 14 883 14 Q 920 24 955 47 Q 971 62 960 85 Z" style="fill: #0070C0;"></path>
                                    
                                    
                                                                                                                                                                                                                                                                                                                                                                                                                                                                                                                                                                                                                                                                                                                                                                                        </g>
                            </svg>