<svg width='83' height='83' >
                                <g transform="translate(3, 70) scale(0.07, -0.07)">
                                    <!-- 先将完整的字以灰色字体绘制完成，层级位于下面 -->
                                                                        <path d="M 258 476 Q 283 564 304 654 Q 313 700 331 723 Q 343 744 336 756 Q 323 774 278 800 Q 259 812 242 803 Q 230 796 240 781 Q 273 733 215 466 L 203 416 Q 202 413 202 409 Q 190 360 168 323 Q 159 301 179 285 Q 222 263 259 234 L 295 207 Q 326 183 366 145 Q 382 132 391 130 Q 400 131 405 141 Q 411 151 405 181 Q 396 217 323 250 L 283 269 Q 258 281 228 295 Q 209 304 210 323 Q 228 377 245 431 L 258 476 Z" style="fill: #0070C0;"></path>
                                                                        <path d="M 259 234 Q 211 168 134 126 Q 119 116 105 106 Q 92 99 103 95 Q 116 94 149 105 Q 201 124 242 157 Q 273 181 295 207 L 323 250 Q 362 328 373 367 Q 373 398 401 468 Q 405 481 414 494 Q 424 510 409 519 Q 366 555 343 548 Q 330 544 335 530 Q 342 514 343 496 L 341 466 Q 329 367 283 269 L 259 234 Z" style="fill: #0070C0;"></path>
                                                                        <path d="M 343 496 Q 301 487 258 476 L 215 466 Q 160 456 103 443 Q 84 439 54 442 Q 41 441 38 431 Q 35 418 44 410 Q 65 392 96 371 Q 106 367 119 375 Q 158 399 203 416 L 245 431 Q 288 447 332 463 Q 336 464 341 466 C 369 476 372 502 343 496 Z" style="fill: #0070C0;"></path>
                                                                        <path d="M 615 684 Q 745 729 761 732 Q 777 733 781 740 Q 785 750 773 761 Q 754 777 711 794 Q 696 801 684 800 Q 677 796 676 786 Q 676 750 485 663 Q 481 656 485 652 Q 497 652 577 673 L 615 684 Z" style="fill: #0070C0;"></path>
                                                                        <path d="M 683 550 Q 702 556 824 575 Q 834 574 842 587 Q 843 597 821 607 Q 790 625 708 598 Q 683 592 659 584 Q 640 580 621 574 L 565 561 Q 550 561 455 543 Q 428 539 449 523 Q 479 505 521 511 Q 533 514 547 517 L 603 531 Q 628 538 657 544 L 683 550 Z" style="fill: #0070C0;"></path>
                                                                        <path d="M 621 574 Q 640 617 654 633 Q 661 642 659 649 Q 650 673 615 684 C 587 695 563 700 577 673 Q 592 655 582 613 Q 576 594 565 561 L 547 517 Q 505 420 398 314 Q 388 302 397 300 Q 413 296 478 348 Q 542 403 603 531 L 621 574 Z" style="fill: #0070C0;"></path>
                                                                        <path d="M 657 544 Q 658 543 660 541 Q 795 340 838 328 Q 913 328 967 339 Q 974 340 976 345 Q 976 349 965 356 Q 839 404 754 482 Q 720 513 683 550 C 662 571 639 568 657 544 Z" style="fill: #0070C0;"></path>
                                                                        <path d="M 512 328 Q 537 298 521 196 Q 520 195 520 190 Q 502 109 414 32 Q 404 23 414 22 Q 459 28 507 78 Q 564 138 571 228 Q 581 300 585 307 Q 592 322 578 328 Q 536 355 516 344 Q 506 340 512 328 Z" style="fill: #0070C0;"></path>
                                                                        <path d="M 682 359 Q 704 326 688 126 Q 687 119 686 110 Q 686 91 683 82 Q 673 43 718 -18 Q 722 -24 728 -26 Q 738 -27 744 -14 Q 754 17 751 47 Q 741 287 748 330 Q 749 342 743 348 Q 719 367 701 376 Q 689 379 680 372 Q 674 368 682 359 Z" style="fill: #0070C0;"></path>
                                    
                                    
                                                                                                                                                                                                                                                                                                                                                                                                                                                                                                                                                                                                                                                                                                                                                                                        </g>
                            </svg>