<svg width='83' height='83' >
                                <g transform="translate(3, 70) scale(0.07, -0.07)">
                                    <!-- 先将完整的字以灰色字体绘制完成，层级位于下面 -->
                                                                        <path d="M 264 442 Q 286 539 306 641 Q 313 689 331 714 Q 343 736 335 749 Q 320 765 272 792 Q 251 802 235 794 Q 223 787 234 770 Q 273 716 221 432 L 211 385 Q 201 339 182 302 Q 173 280 193 264 Q 235 239 270 208 L 304 178 Q 332 153 367 115 Q 383 99 392 98 Q 401 98 407 109 Q 414 119 410 150 Q 404 183 334 223 L 294 246 Q 272 259 245 272 Q 224 284 227 305 Q 240 351 253 399 L 264 442 Z" style="fill: #0070C0;"></path>
                                                                        <path d="M 270 208 Q 227 151 128 87 Q 115 78 127 76 Q 140 75 174 86 Q 223 105 262 138 Q 287 157 304 178 L 334 223 Q 367 283 400 404 Q 404 435 420 460 Q 430 476 414 487 Q 369 523 345 515 Q 332 511 337 497 Q 344 481 346 461 L 344 432 Q 344 347 294 246 L 270 208 Z" style="fill: #0070C0;"></path>
                                                                        <path d="M 346 461 Q 306 452 264 442 L 221 432 Q 166 422 114 409 Q 95 405 65 408 Q 52 407 50 398 Q 47 385 56 377 Q 75 361 106 340 Q 116 336 128 344 Q 167 368 211 385 L 253 399 Q 296 415 341 431 Q 342 432 344 432 C 372 442 375 468 346 461 Z" style="fill: #0070C0;"></path>
                                                                        <path d="M 571 732 Q 559 736 532 740 Q 520 743 517 737 Q 511 730 520 715 Q 548 666 568 583 Q 572 558 587 543 Q 606 521 611 538 Q 612 545 613 553 L 611 584 Q 607 599 589 701 C 584 728 584 728 571 732 Z" style="fill: #0070C0;"></path>
                                                                        <path d="M 787 618 Q 811 688 843 713 Q 859 731 845 748 Q 829 761 777 785 Q 759 792 738 784 Q 678 756 571 732 C 542 725 561 691 589 701 Q 599 707 729 735 Q 745 739 751 733 Q 760 724 757 707 Q 747 658 735 618 C 727 589 777 590 787 618 Z" style="fill: #0070C0;"></path>
                                                                        <path d="M 613 553 Q 620 553 628 555 Q 683 571 802 587 Q 812 588 813 597 Q 813 604 787 618 C 769 628 764 627 735 618 Q 666 597 611 584 C 582 577 583 551 613 553 Z" style="fill: #0070C0;"></path>
                                                                        <path d="M 799 345 Q 800 346 801 349 Q 825 421 845 445 Q 863 458 857 467 Q 847 480 801 499 Q 786 506 766 495 Q 741 482 706 476 Q 637 463 527 438 Q 517 434 517 448 Q 521 497 531 530 Q 540 546 531 553 Q 516 568 488 577 Q 475 581 469 577 Q 460 570 469 558 Q 490 524 482 485 Q 478 455 457 433 Q 444 420 451 406 Q 458 393 476 381 Q 485 375 498 383 Q 523 402 565 416 Q 566 417 570 417 L 599 425 Q 654 441 736 451 Q 760 452 766 443 Q 775 434 767 413 Q 760 379 750 347 Q 747 340 748 335 C 741 306 788 317 799 345 Z" style="fill: #0070C0;"></path>
                                                                        <path d="M 635 284 Q 635 285 640 285 Q 751 304 941 304 Q 959 305 963 313 Q 967 323 953 335 Q 902 374 845 355 Q 823 351 799 345 L 748 335 Q 655 322 642 317 L 583 308 Q 501 298 411 284 Q 392 283 406 267 Q 419 255 435 250 Q 454 246 468 250 Q 520 265 579 275 L 635 284 Z" style="fill: #0070C0;"></path>
                                                                        <path d="M 630 265 Q 631 275 635 284 L 642 317 Q 643 332 647 347 Q 651 371 656 381 Q 663 388 657 398 Q 651 405 623 416 Q 611 423 599 425 C 570 434 562 436 570 417 Q 570 413 575 405 Q 587 369 583 308 L 579 275 Q 546 155 491 103 Q 488 102 487 100 Q 454 69 368 25 Q 344 12 373 13 Q 451 10 541 84 Q 551 97 564 111 Q 600 159 622 233 L 630 265 Z" style="fill: #0070C0;"></path>
                                                                        <path d="M 622 233 Q 695 128 789 15 Q 808 -4 838 -3 Q 941 3 973 10 Q 983 11 984 17 Q 985 21 971 29 Q 824 84 752 152 Q 694 201 630 265 C 609 286 605 258 622 233 Z" style="fill: #0070C0;"></path>
                                    
                                    
                                                                                                                                                                                                                                                                                                                                                                                                                                                                                                                                                                                                                                                                                                                                                                                                                                                                    </g>
                            </svg>