<svg width='83' height='83' >
                                <g transform="translate(3, 70) scale(0.07, -0.07)">
                                    <!-- 先将完整的字以灰色字体绘制完成，层级位于下面 -->
                                                                        <path d="M 276 477 Q 304 580 326 684 Q 335 732 353 757 Q 365 779 358 792 Q 343 810 297 836 Q 276 849 260 839 Q 247 832 257 816 Q 293 764 233 467 L 222 421 Q 222 387 187 323 Q 178 302 210 277 Q 249 253 285 224 L 321 193 Q 352 166 391 126 Q 407 111 417 109 Q 426 110 432 121 Q 439 131 433 162 Q 427 198 351 238 L 309 262 Q 282 277 250 293 Q 229 303 231 324 Q 249 379 265 436 L 276 477 Z" style="fill: #0070C0;"></path>
                                                                        <path d="M 285 224 Q 251 169 132 92 Q 119 83 131 80 Q 144 79 180 91 Q 234 113 275 149 Q 302 171 321 193 L 351 238 Q 396 334 424 445 Q 430 478 445 507 Q 455 525 439 534 Q 393 571 367 563 Q 352 559 359 544 Q 369 523 369 499 L 367 471 Q 352 374 345 345 Q 329 296 309 262 L 285 224 Z" style="fill: #0070C0;"></path>
                                                                        <path d="M 369 499 Q 324 489 276 477 L 233 467 Q 172 455 113 441 Q 94 437 61 440 Q 48 439 46 430 Q 43 417 52 409 Q 71 393 102 372 Q 112 368 124 376 Q 172 404 222 421 L 265 436 Q 308 452 353 466 Q 359 469 367 471 C 396 480 398 506 369 499 Z" style="fill: #0070C0;"></path>
                                                                        <path d="M 548 738 Q 538 744 505 748 Q 493 751 491 745 Q 485 739 493 725 Q 520 676 538 595 Q 542 570 556 554 Q 574 535 578 549 Q 581 559 581 575 L 577 606 Q 564 679 559 706 C 554 736 554 736 548 738 Z" style="fill: #0070C0;"></path>
                                                                        <path d="M 779 633 Q 801 690 832 709 Q 848 727 835 744 Q 762 805 713 776 Q 656 757 548 738 C 518 733 529 702 559 706 Q 571 707 583 711 Q 652 723 718 735 Q 734 739 742 731 Q 749 724 747 709 Q 740 669 729 636 C 720 607 768 605 779 633 Z" style="fill: #0070C0;"></path>
                                                                        <path d="M 581 575 Q 585 575 592 576 Q 655 589 792 600 Q 802 601 803 609 Q 803 616 779 633 C 764 644 758 643 729 636 Q 644 617 577 606 C 547 601 551 573 581 575 Z" style="fill: #0070C0;"></path>
                                                                        <path d="M 566 258 Q 567 300 571 331 L 573 357 Q 576 417 580 440 C 583 461 583 461 572 470 Q 550 492 519 490 Q 506 486 511 475 Q 557 370 506 172 Q 484 115 486 105 Q 487 75 504 57 Q 510 44 520 50 Q 551 71 565 233 L 566 258 Z" style="fill: #0070C0;"></path>
                                                                        <path d="M 580 440 Q 590 441 603 444 Q 667 459 732 473 Q 753 477 758 467 Q 779 412 779 165 Q 779 107 771 93 Q 767 87 746 92 Q 724 95 699 99 Q 680 105 681 95 Q 733 50 764 16 Q 777 -3 793 -7 Q 803 -11 811 -1 Q 850 48 848 104 Q 809 407 835 458 Q 848 477 835 488 Q 813 506 776 520 Q 757 527 742 519 Q 675 483 572 470 C 542 466 550 435 580 440 Z" style="fill: #0070C0;"></path>
                                                                        <path d="M 571 331 Q 575 331 581 331 Q 656 340 710 345 Q 732 349 725 361 Q 715 374 691 380 Q 667 383 573 357 C 544 349 541 331 571 331 Z" style="fill: #0070C0;"></path>
                                                                        <path d="M 565 233 Q 569 233 578 233 Q 659 242 718 246 Q 740 247 732 261 Q 723 274 700 281 Q 663 288 566 258 C 537 249 535 233 565 233 Z" style="fill: #0070C0;"></path>
                                    
                                    
                                                                                                                                                                                                                                                                                                                                                                                                                                                                                                                                                                                                                                                                                                                                                                                                                                                                    </g>
                            </svg>