<svg width='83' height='83' >
                                <g transform="translate(3, 70) scale(0.07, -0.07)">
                                    <!-- 先将完整的字以灰色字体绘制完成，层级位于下面 -->
                                                                        <path d="M 255 497 Q 276 579 294 663 Q 301 708 320 732 Q 330 753 324 765 Q 311 783 265 808 Q 246 818 230 811 Q 218 804 228 788 Q 259 746 212 488 L 203 442 Q 185 367 164 326 Q 155 304 175 289 Q 214 268 246 242 L 282 213 Q 348 156 355 154 Q 362 155 369 165 Q 375 175 369 205 Q 362 239 312 260 L 270 279 Q 251 289 224 299 Q 205 308 206 327 Q 225 391 244 456 L 255 497 Z" style="fill: #0070C0;"></path>
                                                                        <path d="M 246 242 Q 195 178 135 140 Q 119 130 104 119 Q 91 110 103 108 Q 116 107 150 119 Q 199 138 238 172 Q 263 191 282 213 L 312 260 Q 351 330 362 385 Q 386 481 396 500 Q 406 518 390 527 Q 345 563 320 555 Q 307 551 313 536 Q 319 526 321 512 L 322 483 Q 321 468 320 450 Q 313 360 270 279 L 246 242 Z" style="fill: #0070C0;"></path>
                                                                        <path d="M 212 488 Q 160 479 105 468 Q 87 464 58 468 Q 45 467 43 458 Q 39 445 48 437 Q 67 421 98 399 Q 108 395 119 403 Q 158 427 199 441 Q 200 442 203 442 L 244 456 Q 281 469 322 483 C 350 493 350 518 321 512 Q 288 505 255 497 L 212 488 Z" style="fill: #0070C0;"></path>
                                                                        <path d="M 528 712 Q 555 693 584 668 Q 597 658 612 659 Q 621 660 625 672 Q 628 685 618 713 Q 606 740 520 756 Q 505 757 500 755 Q 496 751 498 739 Q 502 729 528 712 Z" style="fill: #0070C0;"></path>
                                                                        <path d="M 411 662 Q 435 599 434 539 Q 438 287 397 162 Q 379 108 413 69 Q 423 54 434 69 Q 468 105 469 256 Q 469 539 486 630 Q 487 648 472 657 Q 450 676 423 685 Q 413 686 407 678 Q 404 674 411 662 Z" style="fill: #0070C0;"></path>
                                                                        <path d="M 814 27 Q 827 8 844 2 Q 854 -2 863 9 Q 905 63 903 118 Q 891 302 888 603 Q 885 664 900 691 Q 913 712 900 722 Q 878 741 838 757 Q 816 766 774 740 Q 720 721 666 713 Q 650 712 660 702 Q 669 692 684 686 Q 708 682 793 708 Q 814 714 819 703 Q 832 664 837 369 Q 837 137 822 108 Q 818 102 796 107 Q 768 113 740 119 Q 719 125 720 115 Q 780 64 814 27 Z" style="fill: #0070C0;"></path>
                                                                        <path d="M 673 452 Q 697 458 792 470 Q 802 469 809 480 Q 810 490 790 500 Q 763 519 687 496 Q 683 496 679 494 L 637 484 Q 622 483 515 466 Q 490 462 510 447 Q 543 423 568 432 Q 587 438 616 441 L 673 452 Z" style="fill: #0070C0;"></path>
                                                                        <path d="M 671 383 Q 672 425 673 452 L 679 494 Q 682 513 690 531 Q 697 544 687 556 Q 669 569 640 585 Q 628 591 618 585 Q 611 581 614 569 Q 630 542 637 484 L 633 378 Q 618 243 614 231 Q 602 210 628 162 Q 637 149 647 159 Q 666 184 668 278 Q 668 318 670 356 L 671 383 Z" style="fill: #0070C0;"></path>
                                                                        <path d="M 616 441 Q 591 351 485 236 Q 476 226 484 225 Q 502 222 547 262 Q 583 295 633 378 C 682 458 625 470 616 441 Z" style="fill: #0070C0;"></path>
                                                                        <path d="M 670 356 Q 713 316 764 258 Q 777 243 788 239 Q 795 238 801 246 Q 810 256 801 290 Q 789 336 671 383 C 643 394 648 377 670 356 Z" style="fill: #0070C0;"></path>
                                    
                                    
                                                                                                                                                                                                                                                                                                                                                                                                                                                                                                                                                                                                                                                                                                                                                                                                                                                                    </g>
                            </svg>