<svg width='83' height='83' >
                                <g transform="translate(3, 70) scale(0.07, -0.07)">
                                    <!-- 先将完整的字以灰色字体绘制完成，层级位于下面 -->
                                                                        <path d="M 280 448 Q 308 551 330 655 Q 337 700 356 724 Q 366 745 360 757 Q 347 775 301 800 Q 282 810 266 803 Q 254 796 264 780 Q 300 732 240 441 L 231 399 Q 219 354 200 318 Q 190 297 210 281 Q 256 254 293 222 L 328 191 Q 359 164 397 124 Q 412 109 421 107 Q 430 107 435 118 Q 442 128 438 158 Q 434 183 412 198 Q 393 211 356 234 L 316 257 Q 291 272 260 289 Q 241 299 242 319 Q 255 364 269 409 L 280 448 Z" style="fill: #0070C0;"></path>
                                                                        <path d="M 293 222 Q 218 144 125 91 Q 112 84 124 80 Q 214 71 325 187 Q 325 190 328 191 L 356 234 Q 393 291 409 349 Q 442 452 453 467 Q 463 483 449 493 Q 406 532 381 526 Q 368 523 372 508 Q 381 489 379 466 L 376 437 Q 355 319 316 257 L 293 222 Z" style="fill: #0070C0;"></path>
                                                                        <path d="M 379 466 Q 331 459 280 448 L 240 441 Q 174 432 104 421 Q 82 417 48 423 Q 36 423 33 414 Q 29 402 37 393 Q 56 374 85 352 Q 94 348 106 355 Q 157 382 231 399 L 269 409 Q 314 422 360 433 Q 367 434 376 437 C 405 445 409 470 379 466 Z" style="fill: #0070C0;"></path>
                                                                        <path d="M 533 717 Q 509 733 482 738 Q 476 739 472 735 Q 465 729 474 719 Q 511 665 525 532 Q 531 468 566 452 L 567 451 Q 583 447 583 474 L 581 499 Q 574 538 565 576 L 560 599 Q 560 600 560 603 Q 553 648 549 684 C 546 709 546 709 533 717 Z" style="fill: #0070C0;"></path>
                                                                        <path d="M 724 488 Q 740 464 757 457 Q 767 450 783 471 Q 799 496 829 638 Q 839 669 862 695 Q 875 708 864 722 Q 848 738 804 765 Q 788 774 712 755 Q 700 755 533 717 C 504 710 520 675 549 684 Q 548 685 550 685 Q 616 704 731 723 Q 756 727 765 718 Q 778 702 776 686 Q 749 533 731 520 C 717 497 717 497 724 488 Z" style="fill: #0070C0;"></path>
                                                                        <path d="M 565 576 Q 569 576 575 576 Q 653 589 711 597 Q 733 601 725 613 Q 715 626 691 631 Q 652 634 560 599 C 532 588 535 576 565 576 Z" style="fill: #0070C0;"></path>
                                                                        <path d="M 583 474 Q 587 474 592 474 Q 665 483 724 488 C 754 491 758 506 731 520 Q 727 523 719 524 Q 686 530 581 499 C 552 491 553 474 583 474 Z" style="fill: #0070C0;"></path>
                                                                        <path d="M 501 349 Q 488 353 468 357 Q 456 361 453 355 Q 446 349 455 333 Q 489 254 505 128 Q 506 91 528 64 Q 546 42 551 57 Q 554 66 555 77 L 555 113 Q 552 135 541 193 L 537 222 Q 527 283 524 309 C 520 339 520 344 501 349 Z" style="fill: #0070C0;"></path>
                                                                        <path d="M 766 98 Q 776 73 796 29 Q 805 11 815 12 Q 831 13 841 40 Q 868 88 888 251 Q 894 300 917 329 Q 935 348 923 362 Q 901 384 855 406 Q 836 416 803 405 Q 647 350 501 349 C 471 348 494 307 524 309 Q 534 308 543 310 Q 637 329 786 355 Q 811 361 823 348 Q 844 312 809 142 Q 808 126 801 124 Q 798 123 792 125 C 767 109 762 107 766 98 Z" style="fill: #0070C0;"></path>
                                                                        <path d="M 541 193 Q 548 192 557 193 Q 665 209 745 219 Q 770 222 761 236 Q 751 252 724 257 Q 700 261 537 222 C 508 215 511 195 541 193 Z" style="fill: #0070C0;"></path>
                                                                        <path d="M 555 77 Q 562 76 574 78 Q 637 90 766 98 C 796 100 814 105 792 125 Q 785 132 772 141 Q 754 151 722 143 Q 631 124 555 113 C 525 109 525 78 555 77 Z" style="fill: #0070C0;"></path>
                                    
                                    
                                                                                                                                                                                                                                                                                                                                                                                                                                                                                                                                                                                                                                                                                                                                                                                                                                                                                                                                                </g>
                            </svg>