<svg width='83' height='83' >
                                <g transform="translate(3, 70) scale(0.07, -0.07)">
                                    <!-- 先将完整的字以灰色字体绘制完成，层级位于下面 -->
                                                                        <path d="M 282 735 Q 303 719 326 699 Q 339 687 355 690 Q 365 691 369 704 Q 372 719 361 746 Q 349 771 273 780 Q 257 781 252 779 Q 248 775 250 763 Q 254 753 282 735 Z" style="fill: #0070C0;"></path>
                                                                        <path d="M 210 611 Q 244 577 277 562 Q 289 561 296 572 Q 300 582 297 597 Q 284 633 218 644 Q 205 647 196 643 Q 192 642 194 631 Q 195 622 210 611 Z" style="fill: #0070C0;"></path>
                                                                        <path d="M 344 561 Q 284 474 244 427 Q 234 415 222 418 Q 209 419 204 404 Q 203 382 214 365 Q 227 343 241 334 Q 251 327 260 329 Q 267 333 271 341 Q 277 369 349 538 Q 356 554 356 561 Q 355 574 344 561 Z" style="fill: #0070C0;"></path>
                                                                        <path d="M 620 688 Q 663 700 708 708 Q 738 714 740 701 Q 740 689 720 646 Q 713 633 719 629 Q 725 625 737 636 Q 800 679 825 688 Q 844 692 844 703 Q 843 715 778 747 Q 759 756 734 750 Q 674 732 623 718 L 575 708 Q 530 701 476 690 C 447 684 449 649 479 654 Q 489 655 506 660 Q 540 670 576 677 L 620 688 Z" style="fill: #0070C0;"></path>
                                                                        <path d="M 476 690 Q 464 700 447 708 Q 432 717 422 713 Q 412 707 417 697 Q 448 658 401 479 Q 400 478 399 475 Q 381 424 338 353 Q 334 349 332 343 Q 331 334 338 336 Q 371 345 422 434 Q 465 527 477 642 Q 478 649 479 654 C 484 684 484 684 476 690 Z" style="fill: #0070C0;"></path>
                                                                        <path d="M 611 594 Q 615 643 620 688 L 623 718 Q 624 760 634 797 Q 643 824 626 840 Q 598 856 576 860 Q 563 863 556 856 Q 549 849 556 837 Q 572 815 572 800 Q 573 757 575 708 L 576 677 Q 576 634 575 583 C 574 553 609 564 611 594 Z" style="fill: #0070C0;"></path>
                                                                        <path d="M 643 448 Q 643 449 644 449 Q 671 482 694 535 Q 704 557 720 571 Q 735 583 725 593 Q 715 603 691 612 Q 673 619 652 609 Q 634 602 611 594 L 575 583 Q 499 571 496 567 Q 493 561 507 556 Q 535 546 573 557 Q 628 576 638 576 Q 654 573 650 556 Q 638 510 617 477 Q 614 474 612 470 L 591 447 Q 543 411 479 393 Q 469 390 478 383 Q 508 368 585 405 Q 601 412 615 423 L 643 448 Z" style="fill: #0070C0;"></path>
                                                                        <path d="M 615 423 Q 619 420 624 415 Q 711 336 756 334 Q 813 340 861 352 Q 886 358 884 365 Q 883 369 857 375 Q 835 379 812 384 Q 719 402 643 448 L 612 470 Q 593 485 574 500 Q 543 525 517 523 Q 504 522 502 518 Q 501 514 513 506 Q 541 494 591 447 L 615 423 Z" style="fill: #0070C0;"></path>
                                                                        <path d="M 465 262 Q 474 281 494 301 Q 504 307 502 316 Q 499 329 468 361 Q 459 371 449 368 Q 436 367 441 351 Q 447 330 411 256 L 392 223 Q 373 193 356 173 Q 346 157 347 144 Q 348 134 366 130 Q 429 118 490 87 L 537 64 Q 604 28 699 -38 Q 724 -57 741 -55 Q 760 -54 760 -35 Q 759 -16 729 26 Q 716 47 688 56 Q 624 81 570 101 L 525 117 Q 455 142 407 151 Q 392 155 401 168 Q 425 205 443 229 L 465 262 Z" style="fill: #0070C0;"></path>
                                                                        <path d="M 654 283 Q 630 307 601 305 Q 591 304 594 290 Q 595 284 597 276 L 595 241 Q 577 175 532 124 Q 528 121 525 117 L 490 87 Q 420 39 284 14 Q 268 10 286 4 Q 391 -17 494 33 Q 518 45 537 64 L 570 101 Q 606 138 635 206 Q 645 231 654 244 C 669 270 669 270 654 283 Z" style="fill: #0070C0;"></path>
                                                                        <path d="M 654 244 Q 765 250 920 242 Q 941 242 946 251 Q 952 263 935 278 Q 881 320 843 312 Q 767 299 654 283 L 597 276 Q 561 273 522 268 Q 494 265 465 262 L 411 256 Q 278 246 130 231 Q 108 230 123 211 Q 138 196 156 190 Q 178 183 195 188 Q 288 212 392 223 L 443 229 Q 450 230 459 231 Q 519 238 595 241 L 654 244 Z" style="fill: #0070C0;"></path>
                                    
                                    
                                                                                                                                                                                                                                                                                                                                                                                                                                                                                                                                                                                                                                                                                                                                                                                                                                                                                                                                                </g>
                            </svg>