<svg width='83' height='83' >
                                <g transform="translate(3, 70) scale(0.07, -0.07)">
                                    <!-- 先将完整的字以灰色字体绘制完成，层级位于下面 -->
                                                                        <path d="M 307 225 Q 380 165 384 164 Q 391 164 397 174 Q 403 184 397 213 Q 390 243 335 269 L 297 287 Q 275 299 243 312 Q 224 321 225 338 Q 244 396 261 455 L 273 495 Q 294 573 312 653 Q 321 696 337 719 Q 349 738 342 750 Q 329 766 286 791 Q 268 803 253 795 Q 241 788 250 773 Q 280 731 232 489 L 222 445 Q 203 367 185 338 Q 176 317 196 302 Q 239 280 274 251 L 307 225 Z" style="fill: #0070C0;"></path>
                                                                        <path d="M 274 251 Q 204 173 121 126 Q 108 119 119 115 Q 191 108 298 214 Q 302 220 307 225 L 335 269 Q 365 315 382 381 Q 403 468 421 495 Q 430 511 416 520 Q 377 554 353 548 Q 340 545 345 531 Q 349 521 352 508 L 352 479 Q 351 463 348 444 Q 341 375 297 287 L 274 251 Z" style="fill: #0070C0;"></path>
                                                                        <path d="M 352 508 Q 313 504 273 495 L 232 489 Q 171 482 109 473 Q 88 469 57 475 Q 44 475 41 466 Q 37 454 45 445 Q 64 426 92 404 Q 102 400 114 406 Q 180 439 222 445 L 261 455 Q 301 468 348 479 Q 349 480 352 479 C 382 483 382 511 352 508 Z" style="fill: #0070C0;"></path>
                                                                        <path d="M 569 650 Q 603 690 624 717 Q 673 789 691 801 Q 707 816 693 829 Q 677 841 649 847 Q 624 853 613 847 Q 603 843 610 831 Q 620 804 557 669 Q 551 659 547 646 C 537 618 550 627 569 650 Z" style="fill: #0070C0;"></path>
                                                                        <path d="M 520 643 Q 499 659 478 665 Q 472 668 467 663 Q 460 659 468 648 Q 507 570 502 396 Q 502 330 536 310 Q 551 306 554 333 Q 554 334 554 337 L 554 365 Q 553 381 549 397 Q 548 413 546 432 L 544 456 Q 543 472 542 488 Q 541 504 540 520 L 540 543 Q 540 579 540 616 C 540 629 540 629 520 643 Z" style="fill: #0070C0;"></path>
                                                                        <path d="M 706 354 Q 716 335 725 316 Q 741 289 749 292 Q 758 293 770 314 Q 777 330 789 454 Q 801 610 817 629 Q 830 648 821 660 Q 814 672 761 691 Q 736 701 716 692 Q 637 664 569 650 L 547 646 Q 532 645 520 643 C 490 639 511 609 540 616 Q 543 617 549 618 Q 601 630 662 647 Q 717 662 736 644 Q 743 637 742 605 Q 739 478 730 408 Q 731 381 709 387 Q 705 388 701 387 C 689 387 692 381 706 354 Z" style="fill: #0070C0;"></path>
                                                                        <path d="M 540 520 Q 544 520 551 521 Q 621 534 673 542 Q 692 546 685 557 Q 675 570 653 573 Q 614 576 540 543 C 513 531 510 518 540 520 Z" style="fill: #0070C0;"></path>
                                                                        <path d="M 546 432 Q 550 431 556 432 Q 626 442 679 449 Q 701 453 693 465 Q 683 478 659 483 Q 632 486 544 456 C 516 446 516 435 546 432 Z" style="fill: #0070C0;"></path>
                                                                        <path d="M 554 337 Q 639 349 706 354 C 736 356 730 380 701 387 Q 700 388 698 388 Q 677 392 554 365 C 525 359 524 333 554 337 Z" style="fill: #0070C0;"></path>
                                                                        <path d="M 434 202 Q 418 153 392 109 Q 376 81 393 51 Q 400 35 419 48 Q 462 85 460 153 Q 463 183 455 204 Q 451 211 445 211 Q 438 210 434 202 Z" style="fill: #0070C0;"></path>
                                                                        <path d="M 503 198 Q 512 108 577 57 Q 655 -1 833 -3 Q 861 0 886 8 Q 908 15 911 29 Q 915 39 877 65 Q 819 116 777 168 Q 765 184 761 176 Q 758 173 791 83 Q 792 55 754 53 Q 751 53 750 53 Q 620 62 571 116 Q 549 140 540 179 Q 536 201 525 207 Q 513 214 507 211 Q 501 210 503 198 Z" style="fill: #0070C0;"></path>
                                                                        <path d="M 605 240 Q 627 216 652 188 Q 662 176 675 175 Q 684 174 689 185 Q 695 197 690 221 Q 687 240 661 256 Q 601 287 588 283 Q 584 280 584 269 Q 585 260 605 240 Z" style="fill: #0070C0;"></path>
                                                                        <path d="M 836 230 Q 870 202 908 167 Q 920 155 935 156 Q 945 156 949 169 Q 953 182 945 209 Q 936 245 832 274 Q 817 277 812 275 Q 808 271 809 259 Q 812 249 836 230 Z" style="fill: #0070C0;"></path>
                                    
                                    
                                                                                                                                                                                                                                                                                                                                                                                                                                                                                                                                                                                                                                                                                                                                                                                                                                                                                                                                                                                                                                                                                                        </g>
                            </svg>