<svg width='83' height='83' >
                                <g transform="translate(3, 70) scale(0.07, -0.07)">
                                    <!-- 先将完整的字以灰色字体绘制完成，层级位于下面 -->
                                                                        <path d="M 383 688 Q 407 695 433 700 Q 460 707 464 712 Q 471 719 467 726 Q 460 736 435 741 Q 411 745 390 735 L 339 717 Q 329 716 319 712 Q 282 702 238 696 Q 207 690 230 676 Q 261 660 324 674 Q 330 675 338 676 L 383 688 Z" style="fill: #0070C0;"></path>
                                                                        <path d="M 374 590 Q 413 600 459 607 Q 474 608 474 616 Q 475 626 459 634 Q 428 646 376 627 L 337 617 Q 210 587 143 577 Q 131 576 129 569 Q 128 560 140 551 Q 176 529 209 541 Q 255 559 293 569 L 374 590 Z" style="fill: #0070C0;"></path>
                                                                        <path d="M 333 547 Q 330 498 324 472 Q 323 460 338 422 Q 347 407 361 415 Q 371 424 373 502 Q 373 568 374 590 L 376 627 Q 379 658 383 688 L 390 735 Q 394 756 408 780 Q 414 789 403 802 Q 352 842 326 834 Q 313 830 319 816 Q 341 777 339 717 L 338 676 Q 337 645 337 617 L 333 547 Z" style="fill: #0070C0;"></path>
                                                                        <path d="M 293 569 Q 233 481 145 418 Q 130 408 144 406 Q 205 402 299 502 Q 320 526 333 547 C 358 586 327 619 293 569 Z" style="fill: #0070C0;"></path>
                                                                        <path d="M 400 534 Q 442 483 464 485 Q 476 484 480 500 Q 480 510 471 527 Q 455 549 402 556 Q 395 557 394 547 Q 393 540 400 534 Z" style="fill: #0070C0;"></path>
                                                                        <path d="M 580 715 Q 625 802 626 802 Q 625 805 624 807 Q 620 816 596 831 Q 574 843 560 841 Q 547 838 554 822 Q 579 789 486 622 Q 480 619 474 603 Q 473 594 483 597 Q 486 598 522 633 L 533 647 Q 548 669 566 693 L 580 715 Z" style="fill: #0070C0;"></path>
                                                                        <path d="M 675 694 Q 718 707 767 719 Q 792 726 797 730 Q 804 737 799 745 Q 792 755 765 761 Q 737 764 711 752 Q 683 740 650 730 Q 617 723 580 715 C 551 709 539 705 566 693 Q 602 675 654 688 L 675 694 Z" style="fill: #0070C0;"></path>
                                                                        <path d="M 661 550 Q 668 562 675 575 Q 702 627 713 638 Q 723 650 714 660 Q 692 690 675 694 C 651 705 651 705 654 688 Q 654 687 655 683 Q 661 653 627 579 L 610 551 Q 562 491 472 459 Q 460 455 469 450 Q 509 440 568 467 Q 596 479 636 518 Q 636 519 637 519 L 661 550 Z" style="fill: #0070C0;"></path>
                                                                        <path d="M 637 519 Q 677 471 728 426 Q 750 401 888 418 Q 916 422 914 429 Q 914 433 886 443 Q 739 491 682 534 Q 672 543 661 550 L 627 579 Q 609 597 590 616 Q 562 647 533 647 C 503 651 497 650 522 633 Q 523 632 527 630 Q 554 612 610 551 L 637 519 Z" style="fill: #0070C0;"></path>
                                                                        <path d="M 494 357 Q 563 369 636 378 Q 688 388 697 394 Q 706 401 702 409 Q 696 421 670 429 Q 648 435 531 406 Q 431 385 330 381 Q 329 381 329 380 C 299 376 300 363 329 355 Q 362 343 433 349 Q 443 352 457 352 L 494 357 Z" style="fill: #0070C0;"></path>
                                                                        <path d="M 329 380 Q 326 384 322 386 Q 282 416 267 415 Q 249 415 260 393 Q 281 333 232 183 Q 219 152 197 115 Q 167 66 99 19 Q 84 10 81 5 Q 78 -2 89 -3 Q 122 -6 183 38 Q 250 92 295 224 Q 328 353 329 355 C 335 375 335 375 329 380 Z" style="fill: #0070C0;"></path>
                                                                        <path d="M 486 247 Q 505 287 519 304 Q 529 311 526 321 Q 522 334 494 357 C 471 377 451 381 457 352 L 458 351 Q 465 329 457 305 Q 445 271 434 242 L 418 204 Q 402 171 385 149 Q 375 131 377 119 Q 380 109 397 105 Q 460 90 491 68 L 537 42 Q 589 11 660 -43 Q 687 -62 703 -61 Q 724 -60 724 -41 Q 723 -20 693 24 Q 678 51 574 85 L 528 101 Q 477 120 441 127 Q 422 131 432 148 Q 451 185 466 212 L 486 247 Z" style="fill: #0070C0;"></path>
                                                                        <path d="M 643 266 Q 613 290 590 285 Q 577 284 582 268 Q 583 264 585 258 L 585 225 Q 581 165 528 101 L 491 68 Q 431 23 301 0 Q 283 -7 302 -11 Q 435 -38 537 42 L 574 85 Q 608 127 629 179 Q 642 215 652 227 C 666 249 666 249 643 266 Z" style="fill: #0070C0;"></path>
                                                                        <path d="M 652 227 Q 745 231 827 225 Q 845 225 850 232 Q 854 242 840 256 Q 792 295 740 281 Q 698 275 643 266 L 585 258 Q 555 258 486 247 L 434 242 Q 376 239 316 232 Q 297 231 310 214 Q 340 187 375 196 Q 394 202 418 204 L 466 212 Q 500 219 538 221 Q 559 224 585 225 L 652 227 Z" style="fill: #0070C0;"></path>
                                    
                                    
                                                                                                                                                                                                                                                                                                                                                                                                                                                                                                                                                                                                                                                                                                                                                                                                                                                                                                                                                                                                                                                                                                                                                                                    </g>
                            </svg>