<svg width='83' height='83' >
                                <g transform="translate(3, 70) scale(0.07, -0.07)">
                                    <!-- 先将完整的字以灰色字体绘制完成，层级位于下面 -->
                                                                        <path d="M 466 646 Q 485 694 508 706 Q 521 721 510 734 Q 453 779 407 756 Q 362 740 290 722 C 261 715 273 688 301 697 Q 325 706 417 724 Q 430 728 436 722 Q 442 718 440 706 Q 433 675 425 649 C 416 620 455 618 466 646 Z" style="fill: #0070C0;"></path>
                                                                        <path d="M 278 588 Q 288 584 305 587 Q 360 602 479 617 Q 488 618 488 626 Q 488 633 466 646 L 425 649 Q 422 649 421 648 Q 345 626 283 613 C 254 607 249 596 278 588 Z" style="fill: #0070C0;"></path>
                                                                        <path d="M 264 532 Q 264 533 265 535 Q 272 562 278 588 L 283 613 Q 284 623 287 634 Q 293 682 301 697 C 306 709 306 709 290 722 Q 280 732 262 740 Q 247 750 236 746 Q 226 740 231 729 Q 262 689 215 515 Q 212 506 209 496 Q 188 438 142 370 Q 138 364 136 360 Q 135 350 142 352 Q 175 359 228 447 Q 228 451 231 453 Q 244 480 256 510 L 264 532 Z" style="fill: #0070C0;"></path>
                                                                        <path d="M 305 521 Q 295 527 268 532 Q 265 533 264 532 C 244 533 244 533 256 510 Q 277 470 288 398 Q 289 376 303 362 Q 316 343 322 356 Q 326 368 325 388 L 321 418 Q 314 479 313 498 C 312 518 312 518 305 521 Z" style="fill: #0070C0;"></path>
                                                                        <path d="M 460 436 Q 473 487 491 502 Q 510 524 490 536 Q 438 564 435 564 Q 426 565 420 560 Q 389 541 305 521 C 276 514 284 489 313 498 Q 320 501 397 518 Q 419 522 426 514 Q 429 511 417 439 C 412 409 452 407 460 436 Z" style="fill: #0070C0;"></path>
                                                                        <path d="M 325 388 Q 332 387 344 389 Q 384 398 473 404 Q 483 405 484 413 Q 484 420 460 436 C 455 440 447 439 417 439 Q 414 440 412 439 Q 361 426 321 418 C 292 412 295 390 325 388 Z" style="fill: #0070C0;"></path>
                                                                        <path d="M 615 798 Q 639 783 665 765 Q 678 756 690 759 Q 699 760 701 772 Q 702 785 692 808 Q 685 823 659 830 Q 596 842 587 835 Q 584 831 587 821 Q 591 812 615 798 Z" style="fill: #0070C0;"></path>
                                                                        <path d="M 719 710 Q 737 714 759 718 Q 790 725 795 729 Q 802 736 798 743 Q 792 752 769 758 Q 745 764 721 754 Q 685 744 647 734 Q 605 725 555 722 Q 525 718 547 703 Q 575 685 639 697 Q 666 703 700 707 L 719 710 Z" style="fill: #0070C0;"></path>
                                                                        <path d="M 547 649 Q 577 594 597 588 Q 607 585 614 599 Q 617 609 613 625 Q 607 638 591 648 Q 566 666 554 669 Q 547 672 545 663 Q 542 657 547 649 Z" style="fill: #0070C0;"></path>
                                                                        <path d="M 702 584 Q 706 591 712 598 Q 724 614 738 635 Q 744 645 754 656 Q 767 666 760 675 Q 753 688 729 706 Q 725 710 719 710 C 702 713 702 713 700 707 Q 696 704 700 697 Q 707 679 681 600 Q 675 588 673 578 C 666 549 686 558 702 584 Z" style="fill: #0070C0;"></path>
                                                                        <path d="M 685 546 Q 704 550 731 553 Q 818 562 825 571 Q 826 581 808 589 Q 781 605 706 585 Q 703 585 702 584 L 673 578 Q 630 571 591 566 Q 561 563 528 559 Q 504 556 522 542 Q 547 524 583 529 Q 605 535 636 538 L 685 546 Z" style="fill: #0070C0;"></path>
                                                                        <path d="M 686 438 Q 725 441 820 442 Q 835 442 839 449 Q 843 458 830 469 Q 785 500 729 485 Q 711 482 689 476 L 642 468 Q 587 459 525 450 Q 509 449 521 434 Q 533 424 547 420 Q 563 416 576 420 Q 607 429 643 433 L 686 438 Z" style="fill: #0070C0;"></path>
                                                                        <path d="M 648 356 Q 652 337 656 330 Q 660 326 666 327 Q 676 333 683 376 Q 686 397 686 438 L 689 476 Q 689 506 695 524 Q 698 537 687 545 Q 686 546 685 546 C 661 564 631 568 636 538 Q 639 526 642 468 L 643 433 Q 643 403 648 356 Z" style="fill: #0070C0;"></path>
                                                                        <path d="M 471 291 Q 481 312 492 324 Q 501 331 498 341 Q 494 354 458 384 Q 448 394 436 390 Q 423 387 430 371 Q 437 347 415 285 L 399 246 Q 381 209 365 185 Q 355 167 357 155 Q 360 145 378 141 Q 423 132 477 106 L 526 82 Q 587 48 677 -16 Q 704 -35 720 -34 Q 741 -33 740 -12 Q 739 7 709 51 Q 694 78 559 122 L 510 139 Q 458 157 421 163 Q 402 167 412 185 Q 434 225 449 252 L 471 291 Z" style="fill: #0070C0;"></path>
                                                                        <path d="M 642 309 Q 609 342 577 336 Q 565 335 570 319 Q 573 312 575 302 L 573 263 Q 558 188 510 139 L 477 106 Q 399 49 264 20 Q 248 13 266 9 Q 419 -15 526 82 L 559 122 Q 598 173 619 231 Q 626 256 635 269 C 649 295 652 300 642 309 Z" style="fill: #0070C0;"></path>
                                                                        <path d="M 635 269 Q 749 281 921 268 Q 943 265 950 273 Q 957 286 946 297 Q 918 324 876 343 Q 863 349 838 341 Q 808 335 642 309 L 575 302 Q 487 296 471 291 L 415 285 Q 330 278 280 271 Q 204 259 91 258 Q 78 259 76 248 Q 75 236 93 222 Q 109 210 139 198 Q 149 194 166 202 Q 248 227 399 246 L 449 252 Q 488 259 573 263 L 635 269 Z" style="fill: #0070C0;"></path>
                                    
                                    
                                                                                                                                                                                                                                                                                                                                                                                                                                                                                                                                                                                                                                                                                                                                                                                                                                                                                                                                                                                                                                                                                                                                                                                                                                                                                                                                            </g>
                            </svg>