<svg width='83' height='83' >
                                <g transform="translate(3, 70) scale(0.07, -0.07)">
                                    <!-- 先将完整的字以灰色字体绘制完成，层级位于下面 -->
                                                                        <path d="M 255 464 Q 276 552 293 641 Q 300 687 319 714 Q 329 736 323 749 Q 308 765 260 792 Q 239 804 223 794 Q 211 787 222 771 Q 256 720 210 454 L 201 406 Q 189 346 167 303 Q 157 281 178 264 Q 221 242 256 212 L 290 185 Q 321 160 364 117 Q 380 102 390 101 Q 397 101 404 112 Q 411 124 405 154 Q 398 190 318 229 L 279 249 Q 257 261 230 274 Q 209 284 211 304 Q 227 362 244 421 L 255 464 Z" style="fill: #0070C0;"></path>
                                                                        <path d="M 256 212 Q 223 161 107 78 Q 95 71 107 67 Q 186 67 290 185 L 318 229 Q 355 307 383 429 Q 383 454 404 499 Q 413 515 398 524 Q 356 558 330 549 Q 317 545 323 531 Q 336 509 335 483 L 333 454 Q 332 447 332 437 Q 328 347 279 249 L 256 212 Z" style="fill: #0070C0;"></path>
                                                                        <path d="M 335 483 Q 296 476 255 464 L 210 454 Q 161 445 108 433 Q 90 429 61 432 Q 48 431 46 422 Q 43 409 52 401 Q 71 385 102 364 Q 112 360 124 368 Q 158 392 201 406 L 244 421 Q 284 437 327 452 Q 328 453 333 454 C 361 464 364 489 335 483 Z" style="fill: #0070C0;"></path>
                                                                        <path d="M 592 808 Q 640 763 670 753 Q 683 752 691 764 Q 695 777 692 792 Q 685 813 667 823 Q 640 839 600 845 Q 585 848 577 844 Q 571 843 574 831 Q 577 821 592 808 Z" style="fill: #0070C0;"></path>
                                                                        <path d="M 425 696 Q 397 693 418 676 Q 451 648 479 656 Q 671 695 865 715 Q 875 714 884 726 Q 885 738 863 748 Q 830 769 745 746 Q 622 722 460 700 Q 442 699 425 696 Z" style="fill: #0070C0;"></path>
                                                                        <path d="M 491 604 Q 479 608 456 613 Q 444 616 441 611 Q 434 605 443 589 Q 474 520 490 408 Q 493 374 512 352 Q 530 330 535 345 Q 538 355 539 367 L 538 398 Q 537 408 535 419 Q 513 549 511 578 C 509 599 509 599 491 604 Z" style="fill: #0070C0;"></path>
                                                                        <path d="M 742 391 Q 758 369 773 362 Q 783 355 797 375 Q 812 402 837 548 Q 844 576 865 600 Q 877 612 866 624 Q 851 639 812 662 Q 796 669 726 651 Q 690 647 578 622 Q 532 612 491 604 C 462 598 482 570 511 578 Q 593 602 733 624 Q 766 630 777 619 Q 792 603 789 587 Q 767 433 749 418 C 737 397 737 397 742 391 Z" style="fill: #0070C0;"></path>
                                                                        <path d="M 590 549 Q 581 553 563 555 Q 556 556 554 553 Q 550 549 555 539 Q 571 511 582 463 Q 585 448 594 439 Q 604 426 608 436 Q 609 443 609 457 L 607 473 Q 600 516 598 531 C 596 547 596 547 590 549 Z" style="fill: #0070C0;"></path>
                                                                        <path d="M 704 488 Q 714 524 726 534 Q 741 552 725 561 Q 677 588 654 571 Q 627 559 590 549 C 561 541 568 527 598 531 Q 604 531 657 544 Q 670 547 673 541 Q 676 540 673 523 Q 670 508 667 490 C 662 460 696 459 704 488 Z" style="fill: #0070C0;"></path>
                                                                        <path d="M 609 457 L 707 468 Q 722 471 716 479 Q 712 485 704 488 L 667 490 Q 660 490 650 487 Q 626 480 607 473 C 579 463 579 454 609 457 Z" style="fill: #0070C0;"></path>
                                                                        <path d="M 539 367 Q 545 367 552 368 Q 612 381 742 391 C 772 393 774 401 749 418 Q 743 422 736 427 Q 720 436 692 429 Q 607 410 538 398 C 508 393 509 366 539 367 Z" style="fill: #0070C0;"></path>
                                                                        <path d="M 522 297 Q 513 301 495 305 Q 485 309 481 304 Q 475 300 482 284 Q 504 229 514 137 Q 515 110 530 91 Q 545 70 550 84 Q 554 94 555 107 L 554 136 Q 554 140 554 143 Q 551 168 549 188 L 546 210 Q 542 253 542 269 C 542 290 542 290 522 297 Z" style="fill: #0070C0;"></path>
                                                                        <path d="M 719 121 Q 732 105 745 98 Q 755 91 767 110 Q 777 129 800 229 Q 807 256 827 277 Q 837 289 828 300 Q 815 315 777 337 Q 762 343 698 329 Q 692 329 594 310 Q 554 303 522 297 C 493 292 513 262 542 269 Q 602 285 711 301 Q 735 304 743 296 Q 753 286 751 273 Q 738 177 731 162 Q 727 153 718 149 C 704 137 704 137 719 121 Z" style="fill: #0070C0;"></path>
                                                                        <path d="M 549 188 Q 553 188 560 188 Q 633 201 688 210 Q 709 214 701 225 Q 691 238 669 241 Q 642 244 546 210 C 518 200 519 188 549 188 Z" style="fill: #0070C0;"></path>
                                                                        <path d="M 555 107 Q 562 106 573 108 Q 619 117 719 121 C 749 122 742 131 718 149 Q 714 152 710 155 Q 697 162 669 157 Q 605 144 554 136 C 524 131 525 109 555 107 Z" style="fill: #0070C0;"></path>
                                                                        <path d="M 397 29 Q 376 28 391 11 Q 404 -2 421 -9 Q 442 -15 457 -11 Q 665 34 905 14 Q 924 13 930 21 Q 934 33 920 47 Q 869 86 834 79 Q 732 61 397 29 Z" style="fill: #0070C0;"></path>
                                    
                                    
                                                                                                                                                                                                                                                                                                                                                                                                                                                                                                                                                                                                                                                                                                                                                                                                                                                                                                                                                                                                                                                                                                                                                                                                                                                                                                                                            </g>
                            </svg>