<svg width='83' height='83' >
                                <g transform="translate(3, 70) scale(0.07, -0.07)">
                                    <!-- 先将完整的字以灰色字体绘制完成，层级位于下面 -->
                                                                        <path d="M 532 669 Q 676 697 682 701 Q 691 708 686 716 Q 680 728 652 736 Q 628 742 540 718 L 477 703 Q 411 691 335 687 Q 299 683 324 666 Q 360 639 417 651 Q 445 655 476 660 L 532 669 Z" style="fill: #0070C0;"></path>
                                                                        <path d="M 512 561 Q 522 616 532 669 L 540 718 Q 541 736 562 795 Q 566 805 548 822 Q 514 844 490 850 Q 474 854 466 847 Q 457 840 464 825 Q 480 800 479 784 Q 479 745 477 703 L 476 660 Q 472 611 468 555 C 466 525 507 531 512 561 Z" style="fill: #0070C0;"></path>
                                                                        <path d="M 252 527 Q 243 554 229 565 Q 211 581 207 554 Q 208 539 191 500 Q 140 446 140 440 Q 134 416 151 375 Q 164 347 187 374 Q 205 396 219 432 Q 235 475 248 500 C 256 516 256 516 252 527 Z" style="fill: #0070C0;"></path>
                                                                        <path d="M 248 500 Q 275 482 314 491 Q 461 536 687 553 Q 723 556 737 553 Q 755 546 754 538 Q 754 535 715 466 Q 708 453 713 448 Q 720 444 736 454 Q 793 488 838 497 Q 875 507 875 515 Q 874 525 806 581 Q 782 602 702 586 Q 561 570 512 561 L 468 555 Q 419 549 363 540 Q 308 533 252 527 C 222 524 221 512 248 500 Z" style="fill: #0070C0;"></path>
                                                                        <path d="M 517 312 Q 634 388 663 394 Q 682 400 677 417 Q 676 433 610 473 Q 591 483 568 476 Q 504 454 408 428 Q 383 421 323 423 Q 299 424 308 404 Q 315 391 334 379 Q 365 361 399 381 Q 421 390 543 430 Q 553 436 565 430 Q 577 423 572 411 Q 539 371 502 324 C 483 300 492 296 517 312 Z" style="fill: #0070C0;"></path>
                                                                        <path d="M 543 263 Q 534 294 517 312 L 502 324 Q 490 331 475 336 Q 453 343 444 336 Q 431 329 445 316 Q 476 294 489 257 L 498 218 Q 520 104 491 40 Q 478 21 451 29 Q 420 39 392 49 Q 382 53 385 42 Q 389 33 405 19 Q 442 -20 453 -47 Q 462 -65 478 -63 Q 491 -62 519 -38 Q 570 13 564 133 Q 558 199 554 222 L 543 263 Z" style="fill: #0070C0;"></path>
                                                                        <path d="M 554 222 Q 566 223 847 223 Q 869 222 874 232 Q 881 245 863 260 Q 806 305 764 297 Q 679 281 543 263 L 489 257 Q 338 241 166 224 Q 144 223 160 203 Q 175 187 195 181 Q 217 174 236 179 Q 357 209 498 218 L 554 222 Z" style="fill: #0070C0;"></path>
                                    
                                    
                                                                                                                                                                                                                                                                                                                                                                                                                                                                                                                                                                                                                                </g>
                            </svg>