<svg width='83' height='83' >
                                <g transform="translate(3, 70) scale(0.07, -0.07)">
                                    <!-- 先将完整的字以灰色字体绘制完成，层级位于下面 -->
                                                                        <path d="M 528 679 Q 633 704 635 705 Q 644 712 639 720 Q 632 732 604 739 Q 564 749 532 729 L 480 715 Q 470 714 462 711 Q 414 701 357 696 Q 323 690 347 674 Q 381 653 453 666 Q 465 669 480 670 L 528 679 Z" style="fill: #0070C0;"></path>
                                                                        <path d="M 517 568 Q 521 626 528 679 L 532 729 Q 535 768 550 818 Q 554 828 535 842 Q 504 860 482 864 Q 467 868 460 860 Q 453 853 460 839 Q 476 815 477 798 Q 478 758 480 715 L 480 670 Q 479 619 477 562 C 476 532 515 538 517 568 Z" style="fill: #0070C0;"></path>
                                                                        <path d="M 592 545 Q 697 555 835 557 Q 917 557 924 567 Q 928 579 912 593 Q 858 632 818 624 Q 742 608 628 586 L 561 575 Q 539 572 517 568 L 477 562 Q 314 540 125 515 Q 103 512 119 495 Q 152 465 191 475 Q 353 521 530 539 L 592 545 Z" style="fill: #0070C0;"></path>
                                                                        <path d="M 491 441 Q 546 496 592 545 L 628 586 Q 694 676 750 727 Q 760 737 755 756 Q 743 790 727 806 Q 714 822 696 825 Q 678 829 680 805 Q 680 763 676 750 Q 636 663 561 575 L 530 539 Q 481 485 411 422 L 366 384 Q 233 272 67 170 Q 58 166 57 158 Q 56 152 62 151 Q 86 151 191 208 Q 302 269 423 377 L 491 441 Z" style="fill: #0070C0;"></path>
                                                                        <path d="M 564 316 Q 655 394 699 406 Q 718 413 712 428 Q 709 444 645 479 Q 627 489 605 480 Q 557 462 491 441 L 411 422 Q 390 422 362 422 Q 340 422 348 403 Q 354 393 366 384 C 388 364 395 365 423 377 Q 426 380 585 437 Q 594 441 605 435 Q 617 429 612 416 Q 582 376 548 329 C 530 305 541 297 564 316 Z" style="fill: #0070C0;"></path>
                                                                        <path d="M 588 260 Q 581 299 564 316 L 548 329 Q 538 338 521 343 Q 502 350 492 344 Q 479 337 492 325 Q 526 300 535 256 Q 535 255 536 252 L 543 215 Q 558 106 530 42 Q 517 20 486 26 Q 461 32 436 38 Q 426 41 429 30 Q 433 23 448 11 Q 482 -22 493 -46 Q 502 -64 518 -61 Q 531 -60 557 -36 Q 620 25 596 220 L 588 260 Z" style="fill: #0070C0;"></path>
                                                                        <path d="M 596 220 Q 638 224 834 224 Q 853 224 859 232 Q 865 244 848 258 Q 794 298 730 284 Q 670 274 588 260 L 536 252 Q 416 239 277 222 Q 255 221 271 203 Q 284 190 303 183 Q 324 179 340 182 Q 464 215 543 215 L 596 220 Z" style="fill: #0070C0;"></path>
                                    
                                    
                                                                                                                                                                                                                                                                                                                                                                                                                                                                                                                                                                                                                                </g>
                            </svg>