<svg width='83' height='83' >
                                <g transform="translate(3, 70) scale(0.07, -0.07)">
                                    <!-- 先将完整的字以灰色字体绘制完成，层级位于下面 -->
                                                                        <path d="M 678 714 Q 706 765 729 775 Q 745 791 733 808 Q 718 821 672 847 Q 656 854 636 848 Q 533 809 370 792 C 340 789 358 760 388 762 Q 400 762 415 766 Q 515 784 611 801 Q 636 805 646 796 Q 650 790 632 717 C 625 688 663 688 678 714 Z" style="fill: #0070C0;"></path>
                                                                        <path d="M 361 640 Q 371 637 384 639 Q 481 661 692 680 Q 702 681 703 689 Q 703 696 678 714 C 664 724 661 724 632 717 Q 484 683 366 669 C 336 665 331 645 361 640 Z" style="fill: #0070C0;"></path>
                                                                        <path d="M 370 792 Q 325 826 305 820 Q 292 813 298 799 Q 316 769 312 700 Q 309 682 307 660 Q 286 474 225 323 Q 183 227 73 71 Q 67 65 65 59 Q 61 47 72 49 Q 105 55 196 173 Q 220 207 243 249 Q 330 420 360 629 Q 360 635 361 640 L 366 669 Q 367 688 373 706 Q 377 728 383 748 Q 387 755 388 762 C 393 776 393 776 370 792 Z" style="fill: #0070C0;"></path>
                                                                        <path d="M 590 511 Q 660 565 690 571 Q 706 577 701 590 Q 698 603 643 633 Q 625 642 548 611 Q 478 590 438 589 Q 419 589 426 573 Q 433 563 448 553 Q 473 540 501 557 Q 594 605 609 595 Q 619 589 615 578 Q 599 553 580 523 C 564 498 566 493 590 511 Z" style="fill: #0070C0;"></path>
                                                                        <path d="M 601 492 Q 595 505 590 511 L 580 523 Q 570 532 560 537 Q 553 541 548 536 Q 547 532 551 523 Q 558 507 563 485 L 566 459 Q 569 411 557 398 Q 556 398 501 401 Q 494 402 489 400 Q 485 399 497 391 Q 533 360 554 333 Q 567 321 579 328 Q 595 338 605 377 Q 605 380 606 465 L 601 492 Z" style="fill: #0070C0;"></path>
                                                                        <path d="M 606 465 Q 667 474 758 476 Q 801 476 807 484 Q 811 493 799 502 Q 757 529 705 514 Q 660 505 601 492 L 563 485 Q 481 472 388 456 Q 373 455 385 442 Q 395 433 408 430 Q 423 426 435 430 Q 495 449 563 459 Q 564 460 566 459 L 606 465 Z" style="fill: #0070C0;"></path>
                                                                        <path d="M 432 225 Q 432 226 433 226 Q 511 295 520 298 Q 535 304 529 316 Q 526 326 477 351 Q 462 357 368 321 Q 341 318 314 314 Q 298 314 304 299 Q 310 290 323 282 Q 345 270 370 285 Q 380 289 429 316 Q 439 320 449 314 Q 459 307 454 296 Q 441 268 424 233 C 411 206 411 206 432 225 Z" style="fill: #0070C0;"></path>
                                                                        <path d="M 448 202 L 448 203 Q 441 216 432 225 L 424 233 Q 417 240 409 244 Q 400 250 396 244 Q 393 240 398 229 Q 405 211 411 189 L 415 158 Q 425 88 402 49 Q 401 49 401 48 Q 394 44 380 48 Q 334 55 329 52 Q 325 51 337 41 Q 373 4 392 -26 Q 407 -41 421 -33 Q 439 -23 453 21 Q 474 97 456 177 L 448 202 Z" style="fill: #0070C0;"></path>
                                                                        <path d="M 456 177 Q 478 187 494 200 Q 504 207 505 215 Q 501 219 489 217 Q 468 210 448 202 L 411 189 Q 333 164 246 134 Q 228 128 200 128 Q 188 127 187 118 Q 186 106 194 99 Q 215 86 243 71 Q 253 68 262 76 Q 307 110 415 158 L 456 177 Z" style="fill: #0070C0;"></path>
                                                                        <path d="M 725 260 Q 806 324 837 330 Q 853 336 848 349 Q 847 362 791 393 Q 775 402 684 367 Q 635 358 622 357 Q 603 357 610 341 Q 617 331 632 321 Q 656 309 688 326 Q 739 363 757 356 Q 767 350 763 340 Q 738 306 711 266 C 694 241 701 241 725 260 Z" style="fill: #0070C0;"></path>
                                                                        <path d="M 762 218 Q 756 245 725 260 L 711 266 Q 710 267 707 268 Q 688 274 679 268 Q 669 261 681 250 Q 703 235 715 210 L 724 180 Q 742 90 717 40 Q 705 24 682 31 Q 663 35 643 41 Q 633 45 636 34 Q 639 28 651 16 Q 676 -15 683 -36 Q 692 -52 706 -50 Q 718 -49 741 -28 Q 763 -6 775 28 Q 785 71 779 133 Q 776 163 771 185 L 762 218 Z" style="fill: #0070C0;"></path>
                                                                        <path d="M 771 185 Q 831 191 931 190 Q 947 190 951 197 Q 955 206 942 217 Q 896 250 846 234 Q 810 228 762 218 L 715 210 Q 633 200 537 186 Q 521 185 533 170 Q 560 146 588 155 Q 675 180 724 180 L 771 185 Z" style="fill: #0070C0;"></path>
                                    
                                    
                                                                                                                                                                                                                                                                                                                                                                                                                                                                                                                                                                                                                                                                                                                                                                                                                                                                                                                                                                                                                            </g>
                            </svg>