<svg width='83' height='83' >
                                <g transform="translate(3, 70) scale(0.07, -0.07)">
                                    <!-- 先将完整的字以灰色字体绘制完成，层级位于下面 -->
                                                                        <path d="M 163 584 Q 178 596 265 669 Q 281 685 302 697 Q 321 709 310 724 Q 297 739 270 750 Q 246 760 235 758 Q 223 755 228 743 Q 234 713 152 602 C 134 578 140 565 163 584 Z" style="fill: #0070C0;"></path>
                                                                        <path d="M 159 505 Q 160 544 163 584 C 164 592 164 592 152 602 Q 136 617 120 624 Q 105 630 99 624 Q 90 620 98 607 Q 132 538 117 377 Q 116 338 83 298 Q 74 286 80 268 Q 89 246 99 237 Q 109 231 119 244 Q 129 265 233 350 Q 236 353 240 355 C 264 373 270 383 241 374 Q 232 374 166 340 Q 156 334 154 345 Q 158 421 159 484 L 159 505 Z" style="fill: #0070C0;"></path>
                                                                        <path d="M 159 484 Q 160 483 165 479 Q 204 440 213 438 Q 219 438 222 445 Q 225 452 221 469 Q 218 484 164 505 Q 161 506 159 505 C 139 502 139 502 159 484 Z" style="fill: #0070C0;"></path>
                                                                        <path d="M 240 355 Q 228 210 113 93 Q 103 83 100 78 Q 99 72 108 72 Q 166 78 240 198 Q 244 210 251 221 Q 287 317 288 511 Q 289 527 291 536 Q 295 552 279 560 Q 240 579 228 576 Q 213 573 226 556 Q 250 514 241 374 L 240 355 Z" style="fill: #0070C0;"></path>
                                                                        <path d="M 365 560 Q 369 561 375 563 Q 415 579 445 588 Q 452 589 454 588 Q 464 575 462 537 Q 461 434 441 387 Q 434 365 415 366 Q 399 370 383 377 Q 365 383 377 365 Q 410 334 425 310 Q 444 294 458 312 Q 503 358 505 486 Q 499 565 514 596 Q 521 606 516 613 Q 509 620 471 631 Q 455 635 443 625 Q 436 618 402 605 Q 377 595 356 588 C 328 578 337 551 365 560 Z" style="fill: #0070C0;"></path>
                                                                        <path d="M 364 510 Q 364 546 365 560 C 366 582 366 582 356 588 Q 346 595 329 604 Q 322 608 317 602 Q 313 598 316 591 Q 335 555 316 99 Q 315 95 315 91 Q 312 60 334 30 Q 343 17 351 32 Q 366 62 367 121 Q 364 157 364 493 L 364 510 Z" style="fill: #0070C0;"></path>
                                                                        <path d="M 364 493 Q 409 442 427 438 Q 436 437 440 450 Q 441 459 435 473 Q 420 500 368 511 Q 365 512 364 510 C 353 505 353 505 364 493 Z" style="fill: #0070C0;"></path>
                                                                        <path d="M 685 747 Q 652 710 552 650 Q 548 643 553 640 Q 589 640 696 696 Q 720 711 774 730 Q 787 731 791 738 Q 792 748 782 756 Q 733 786 700 782 Q 694 778 695 769 Q 696 756 685 747 Z" style="fill: #0070C0;"></path>
                                                                        <path d="M 563 563 Q 617 509 622 508 Q 629 508 634 517 Q 638 527 634 547 Q 630 571 563 596 Q 553 600 548 598 Q 544 597 544 587 Q 545 580 563 563 Z" style="fill: #0070C0;"></path>
                                                                        <path d="M 644 619 Q 668 574 688 559 Q 697 555 705 561 Q 711 568 711 579 Q 711 607 657 640 Q 648 646 642 645 Q 638 645 637 637 Q 637 630 644 619 Z" style="fill: #0070C0;"></path>
                                                                        <path d="M 804 651 Q 794 635 738 561 Q 729 546 744 549 Q 781 570 841 613 Q 857 626 878 636 Q 897 645 887 660 Q 875 675 852 687 Q 831 699 820 696 Q 810 695 813 683 Q 816 667 804 651 Z" style="fill: #0070C0;"></path>
                                                                        <path d="M 697 356 Q 778 434 816 447 Q 834 454 827 467 Q 824 482 765 511 Q 749 518 730 511 Q 684 490 613 467 Q 594 460 549 459 Q 530 458 537 441 Q 544 431 561 421 Q 589 408 617 426 Q 632 433 710 470 Q 720 474 731 470 Q 741 464 737 452 Q 712 415 684 370 C 668 345 675 335 697 356 Z" style="fill: #0070C0;"></path>
                                                                        <path d="M 725 301 Q 716 337 697 356 L 684 370 Q 674 379 663 384 Q 653 391 647 383 Q 643 379 651 366 Q 667 333 678 292 L 685 254 Q 704 101 674 50 Q 673 50 671 47 Q 665 41 596 45 Q 575 49 568 44 Q 564 43 580 32 Q 635 -8 667 -44 Q 685 -60 701 -51 Q 722 -38 734 16 Q 753 89 739 213 Q 738 240 733 261 L 725 301 Z" style="fill: #0070C0;"></path>
                                                                        <path d="M 733 261 Q 817 274 934 274 Q 952 275 956 283 Q 960 295 945 307 Q 887 344 830 324 Q 785 315 725 301 L 678 292 Q 584 276 475 257 Q 456 254 470 239 Q 483 227 501 222 Q 520 218 535 223 Q 602 244 680 254 Q 681 255 685 254 L 733 261 Z" style="fill: #0070C0;"></path>
                                    
                                    
                                                                                                                                                                                                                                                                                                                                                                                                                                                                                                                                                                                                                                                                                                                                                                                                                                                                                                                                                                                                                                                                                                                                                                                    </g>
                            </svg>