<svg width='83' height='83' >
                                <g transform="translate(3, 70) scale(0.07, -0.07)">
                                    <!-- 先将完整的字以灰色字体绘制完成，层级位于下面 -->
                                                                        <path d="M 468 784 Q 499 757 533 726 Q 549 711 567 712 Q 579 713 584 728 Q 590 746 579 779 Q 567 815 461 839 Q 443 843 436 839 Q 430 835 432 820 Q 436 807 468 784 Z" style="fill: #0070C0;"></path>
                                                                        <path d="M 254 613 L 254 614 Q 241 638 228 646 Q 209 661 208 633 Q 214 594 155 514 Q 128 505 159 434 Q 160 431 163 427 Q 179 400 199 430 Q 217 458 229 502 Q 241 547 252 576 C 261 599 261 599 254 613 Z" style="fill: #0070C0;"></path>
                                                                        <path d="M 252 576 Q 274 567 328 582 Q 427 612 644 646 Q 720 658 740 655 Q 761 645 760 636 Q 760 635 717 543 Q 710 530 717 525 Q 724 521 741 533 Q 801 581 851 599 Q 893 615 891 625 Q 890 635 813 690 Q 788 708 714 692 Q 555 668 254 613 C 224 608 222 580 252 576 Z" style="fill: #0070C0;"></path>
                                                                        <path d="M 397 261 Q 448 279 646 361 Q 671 373 699 376 Q 724 380 719 401 Q 710 423 688 446 Q 667 468 653 469 Q 640 472 639 456 Q 636 420 513 350 Q 458 319 398 285 C 372 270 369 251 397 261 Z" style="fill: #0070C0;"></path>
                                                                        <path d="M 374 69 Q 398 35 445 19 Q 503 0 633 3 Q 831 12 852 46 Q 859 59 849 80 Q 827 134 811 217 Q 805 236 796 240 Q 789 244 784 223 Q 754 105 739 94 Q 730 84 697 76 Q 589 54 521 57 Q 440 63 407 109 Q 391 139 397 261 L 398 285 Q 404 379 416 426 Q 423 448 399 464 Q 353 498 340 491 Q 327 484 337 466 Q 353 427 350 355 Q 349 300 348 236 Q 345 116 374 69 Z" style="fill: #0070C0;"></path>
                                    
                                    
                                                                                                                                                                                                                                                                                                                                                                                                                                                                        </g>
                            </svg>