<svg width='83' height='83' >
                                <g transform="translate(3, 70) scale(0.07, -0.07)">
                                    <!-- 先将完整的字以灰色字体绘制完成，层级位于下面 -->
                                                                        <path d="M 468 799 Q 502 777 537 749 Q 555 736 572 739 Q 585 740 588 756 Q 592 774 578 806 Q 562 840 457 853 Q 438 854 432 851 Q 426 847 430 832 Q 436 819 468 799 Z" style="fill: #0070C0;"></path>
                                                                        <path d="M 292 651 Q 276 684 264 691 Q 243 706 242 678 Q 249 636 198 583 Q 168 553 203 491 Q 219 463 240 494 Q 256 519 267 555 Q 279 598 289 624 C 296 643 296 643 292 651 Z" style="fill: #0070C0;"></path>
                                                                        <path d="M 289 624 Q 316 605 354 616 Q 462 653 673 680 Q 718 686 733 683 Q 749 674 747 667 Q 732 624 715 578 L 717 577 Q 724 573 741 584 Q 796 620 841 631 Q 878 641 878 650 Q 877 660 803 715 Q 778 736 682 713 Q 487 683 292 651 C 262 646 262 637 289 624 Z" style="fill: #0070C0;"></path>
                                                                        <path d="M 371 509 Q 332 499 362 483 Q 413 462 468 481 Q 610 521 617 525 Q 626 535 620 544 Q 611 556 580 561 Q 547 565 516 549 Q 485 537 452 526 Q 415 516 371 509 Z" style="fill: #0070C0;"></path>
                                                                        <path d="M 545 365 Q 569 372 704 390 Q 716 389 725 403 Q 726 416 701 427 Q 664 448 577 421 Q 447 390 288 364 Q 273 363 260 359 Q 229 355 253 336 Q 287 311 332 320 Q 353 326 379 330 L 419 338 Q 461 348 509 357 L 545 365 Z" style="fill: #0070C0;"></path>
                                                                        <path d="M 379 330 Q 367 180 122 41 Q 115 35 120 31 Q 127 27 137 30 Q 266 60 333 138 Q 373 177 416 248 Q 429 269 447 288 Q 456 295 452 306 Q 448 316 422 337 Q 421 338 419 338 C 394 355 382 360 379 330 Z" style="fill: #0070C0;"></path>
                                                                        <path d="M 948 69 Q 929 124 919 217 Q 918 233 909 238 Q 902 242 898 223 Q 885 106 867 85 Q 836 51 708 50 Q 638 51 608 63 Q 583 76 576 95 Q 557 162 581 257 Q 585 278 592 290 Q 611 335 545 365 C 519 379 498 385 509 357 Q 530 312 526 256 Q 519 94 545 53 Q 573 19 651 6 Q 712 -4 809 0 Q 896 4 930 22 Q 960 38 948 69 Z" style="fill: #0070C0;"></path>
                                    
                                    
                                                                                                                                                                                                                                                                                                                                                                                                                                                                                                                                                                                                                                </g>
                            </svg>