<svg width='83' height='83' >
                                <g transform="translate(3, 70) scale(0.07, -0.07)">
                                    <!-- 先将完整的字以灰色字体绘制完成，层级位于下面 -->
                                                                        <path d="M 477 789 Q 505 765 537 737 Q 553 722 571 724 Q 583 725 588 740 Q 592 758 581 791 Q 569 822 469 843 Q 451 847 444 843 Q 438 839 441 824 Q 445 811 477 789 Z" style="fill: #0070C0;"></path>
                                                                        <path d="M 283 643 Q 283 673 258 691 Q 239 706 237 680 Q 243 643 168 550 Q 149 529 175 471 Q 190 444 210 472 Q 231 500 246 545 Q 258 579 268 603 L 283 643 Z" style="fill: #0070C0;"></path>
                                                                        <path d="M 268 603 Q 283 597 331 605 Q 481 648 700 668 Q 745 672 760 669 Q 779 662 779 654 Q 752 605 723 553 Q 723 552 725 548 Q 732 544 750 555 Q 814 595 866 607 Q 909 619 908 629 Q 907 639 834 700 Q 809 722 713 704 Q 584 688 372 655 Q 327 649 283 643 C 253 639 238 606 268 603 Z" style="fill: #0070C0;"></path>
                                                                        <path d="M 466 431 Q 703 471 713 480 Q 723 489 719 498 Q 712 511 679 522 Q 649 528 536 497 Q 401 467 293 461 Q 251 457 280 436 Q 331 409 393 420 Q 396 420 400 420 L 466 431 Z" style="fill: #0070C0;"></path>
                                                                        <path d="M 373 234 Q 413 286 465 362 Q 475 378 483 384 Q 490 388 489 400 Q 486 418 466 431 C 443 450 402 450 400 420 Q 400 333 270 185 Q 189 106 98 28 Q 88 24 100 20 Q 178 33 304 154 Q 331 184 337 190 L 373 234 Z" style="fill: #0070C0;"></path>
                                                                        <path d="M 393 227 Q 387 231 373 234 C 344 241 327 218 337 190 Q 359 132 374 46 Q 377 15 394 -7 Q 413 -32 420 -14 Q 424 -1 425 18 L 421 60 Q 405 160 402 193 C 399 223 399 224 393 227 Z" style="fill: #0070C0;"></path>
                                                                        <path d="M 688 84 Q 721 162 756 186 Q 777 205 761 227 Q 743 242 684 275 Q 666 284 643 276 Q 559 246 393 227 C 363 224 372 189 402 193 Q 409 193 620 224 Q 642 228 652 219 Q 661 209 657 190 Q 644 135 628 91 C 618 63 676 57 688 84 Z" style="fill: #0070C0;"></path>
                                                                        <path d="M 425 18 Q 432 18 440 19 Q 524 34 703 40 Q 716 41 718 51 Q 719 61 688 84 C 669 99 657 97 628 91 Q 513 69 421 60 C 391 57 395 17 425 18 Z" style="fill: #0070C0;"></path>
                                    
                                    
                                                                                                                                                                                                                                                                                                                                                                                                                                                                                                                                                                                                                                                                                                            </g>
                            </svg>