<svg width='83' height='83' >
                                <g transform="translate(3, 70) scale(0.07, -0.07)">
                                    <!-- 先将完整的字以灰色字体绘制完成，层级位于下面 -->
                                                                        <path d="M 474 810 Q 501 788 529 763 Q 545 750 563 751 Q 576 752 580 768 Q 584 786 572 819 Q 565 838 532 850 Q 456 871 440 863 Q 434 859 437 844 Q 441 831 474 810 Z" style="fill: #0070C0;"></path>
                                                                        <path d="M 263 667 Q 247 694 234 703 Q 212 719 211 689 Q 217 656 186 610 Q 147 568 151 547 Q 151 526 171 487 Q 190 457 211 490 Q 227 518 239 557 Q 252 605 262 632 C 270 655 270 655 263 667 Z" style="fill: #0070C0;"></path>
                                                                        <path d="M 262 632 Q 280 625 314 632 Q 432 671 671 697 Q 720 703 737 700 Q 753 688 750 681 Q 750 680 721 607 Q 714 594 721 589 Q 728 585 746 597 Q 801 634 848 647 Q 885 659 885 667 Q 884 677 808 731 Q 781 752 679 730 L 263 667 C 233 663 232 637 262 632 Z" style="fill: #0070C0;"></path>
                                                                        <path d="M 541 519 Q 695 550 702 554 Q 711 561 706 569 Q 700 579 674 587 Q 644 596 557 565 Q 434 541 381 537 Q 371 536 369 534 C 340 526 357 511 387 508 Q 426 504 481 509 Q 490 512 501 512 L 541 519 Z" style="fill: #0070C0;"></path>
                                                                        <path d="M 547 382 Q 565 491 566 492 Q 554 508 541 519 C 519 539 495 541 501 512 Q 501 511 502 510 Q 503 500 499 372 C 498 342 542 352 547 382 Z" style="fill: #0070C0;"></path>
                                                                        <path d="M 664 263 Q 691 314 721 328 Q 739 344 726 363 Q 656 426 603 400 Q 573 391 547 382 L 499 372 Q 435 360 370 353 C 340 350 338 318 368 322 Q 374 322 599 361 Q 624 365 634 356 Q 640 349 636 334 Q 623 298 611 269 C 600 241 649 237 664 263 Z" style="fill: #0070C0;"></path>
                                                                        <path d="M 548 216 Q 603 223 675 230 Q 685 231 687 240 Q 687 247 664 263 C 645 277 640 276 611 269 Q 472 235 363 223 Q 362 223 361 222 C 332 216 331 211 359 199 Q 372 189 421 197 Q 458 204 514 211 L 548 216 Z" style="fill: #0070C0;"></path>
                                                                        <path d="M 569 66 Q 587 175 588 177 Q 587 180 586 180 Q 567 204 548 216 C 523 233 505 240 514 211 Q 514 210 515 207 Q 524 189 519 60 C 518 30 564 36 569 66 Z" style="fill: #0070C0;"></path>
                                                                        <path d="M 369 534 Q 335 555 317 555 Q 305 558 297 550 Q 287 544 300 527 Q 321 502 316 291 Q 315 200 298 106 Q 291 51 272 37 Q 253 21 264 3 Q 270 -13 284 -25 Q 299 -38 317 -24 Q 371 33 724 23 Q 826 22 841 25 Q 844 29 845 33 Q 845 48 811 69 Q 778 88 759 87 Q 732 87 569 66 L 519 60 Q 492 59 463 54 Q 363 38 356 49 Q 349 56 354 99 Q 357 121 359 173 Q 359 180 359 199 L 361 222 Q 362 259 368 322 L 370 353 Q 371 366 373 379 Q 379 493 387 508 C 390 523 390 523 369 534 Z" style="fill: #0070C0;"></path>
                                    
                                    
                                                                                                                                                                                                                                                                                                                                                                                                                                                                                                                                                                                                                                                                                                                                                                                        </g>
                            </svg>