<svg width='83' height='83' >
                                <g transform="translate(3, 70) scale(0.07, -0.07)">
                                    <!-- 先将完整的字以灰色字体绘制完成，层级位于下面 -->
                                                                        <path d="M 459 791 Q 492 766 527 735 Q 543 722 562 723 Q 575 724 580 740 Q 584 759 572 793 Q 565 815 527 830 Q 440 854 424 848 Q 418 842 421 827 Q 425 814 459 791 Z" style="fill: #0070C0;"></path>
                                                                        <path d="M 275 645 Q 265 667 253 676 Q 234 691 231 664 Q 235 633 193 575 Q 139 518 171 459 Q 186 431 207 459 Q 228 487 243 530 Q 261 582 274 612 C 282 631 282 631 275 645 Z" style="fill: #0070C0;"></path>
                                                                        <path d="M 274 612 Q 295 600 346 608 Q 460 644 678 664 Q 718 668 732 666 Q 750 656 748 647 Q 748 646 722 580 Q 715 565 721 561 Q 728 557 747 568 Q 804 601 849 610 Q 886 619 886 627 Q 885 637 808 697 Q 783 718 712 704 Q 493 676 275 645 C 245 641 245 621 274 612 Z" style="fill: #0070C0;"></path>
                                                                        <path d="M 361 528 Q 351 532 339 532 Q 326 535 323 529 Q 316 522 326 506 Q 354 458 375 378 Q 379 354 394 339 Q 415 317 419 334 Q 420 343 421 354 L 417 388 Q 401 476 399 498 C 397 516 390 519 361 528 Z" style="fill: #0070C0;"></path>
                                                                        <path d="M 634 413 Q 662 477 692 494 Q 710 510 696 529 Q 680 544 631 571 Q 615 580 592 573 Q 498 537 361 528 C 331 526 369 494 399 498 Q 594 525 596 524 Q 597 523 601 520 Q 608 513 605 496 Q 593 453 581 417 C 572 388 622 386 634 413 Z" style="fill: #0070C0;"></path>
                                                                        <path d="M 421 354 Q 427 354 435 355 Q 502 368 647 378 Q 657 379 659 387 Q 659 396 634 413 C 618 425 610 423 581 417 Q 490 398 417 388 C 387 384 391 353 421 354 Z" style="fill: #0070C0;"></path>
                                                                        <path d="M 348 265 Q 335 272 288 281 Q 273 285 269 278 Q 262 271 272 252 Q 306 185 328 73 Q 332 39 352 18 Q 374 -9 380 10 Q 384 20 384 35 L 381 74 Q 371 104 356 228 C 352 258 352 263 348 265 Z" style="fill: #0070C0;"></path>
                                                                        <path d="M 700 104 Q 737 200 773 223 Q 794 244 778 265 Q 699 332 644 314 Q 529 280 348 265 C 318 262 326 223 356 228 Q 390 234 620 262 Q 651 268 662 254 Q 672 244 669 222 Q 656 161 640 110 C 631 81 689 76 700 104 Z" style="fill: #0070C0;"></path>
                                                                        <path d="M 384 35 Q 390 35 397 35 Q 499 54 716 62 Q 728 63 730 73 Q 731 82 700 104 C 682 117 670 115 640 110 Q 496 85 381 74 C 351 71 354 35 384 35 Z" style="fill: #0070C0;"></path>
                                    
                                    
                                                                                                                                                                                                                                                                                                                                                                                                                                                                                                                                                                                                                                                                                                                                                                                        </g>
                            </svg>