<svg width='83' height='83' >
                                <g transform="translate(3, 70) scale(0.07, -0.07)">
                                    <!-- 先将完整的字以灰色字体绘制完成，层级位于下面 -->
                                                                        <path d="M 458 798 Q 492 750 533 732 Q 551 728 562 745 Q 569 761 566 781 Q 559 809 536 825 Q 479 856 447 847 Q 444 847 442 846 Q 435 845 437 829 Q 438 816 458 798 Z" style="fill: #0070C0;"></path>
                                                                        <path d="M 259 653 Q 258 654 258 657 Q 245 682 232 691 Q 211 706 210 678 Q 216 635 158 564 Q 139 540 168 484 L 169 482 Q 190 458 204 485 Q 211 500 255 619 C 263 641 263 641 259 653 Z" style="fill: #0070C0;"></path>
                                                                        <path d="M 255 619 Q 282 604 319 613 Q 476 656 738 672 Q 765 673 777 671 Q 792 664 788 654 Q 788 651 752 581 Q 739 565 747 560 Q 757 556 777 567 Q 841 600 891 607 Q 931 613 932 624 Q 931 636 854 700 Q 827 725 761 713 Q 670 706 373 667 Q 315 658 259 653 C 229 650 227 629 255 619 Z" style="fill: #0070C0;"></path>
                                                                        <path d="M 386 522 Q 374 528 339 532 Q 326 535 323 529 Q 316 522 326 506 Q 354 458 375 378 Q 379 354 394 339 Q 415 317 419 334 Q 420 341 421 353 L 417 388 Q 402 464 400 490 C 397 518 397 518 386 522 Z" style="fill: #0070C0;"></path>
                                                                        <path d="M 638 404 Q 671 470 702 489 Q 720 505 707 524 Q 692 539 643 566 Q 625 575 553 552 Q 472 531 386 522 C 356 519 370 485 400 490 Q 604 521 608 520 Q 609 519 613 516 Q 620 509 616 492 Q 604 452 590 417 C 579 389 624 377 638 404 Z" style="fill: #0070C0;"></path>
                                                                        <path d="M 500 363 Q 555 370 643 374 Q 653 375 655 383 Q 655 390 638 404 L 590 417 Q 584 418 579 416 Q 489 397 417 388 C 387 384 392 345 421 353 Q 428 356 450 357 L 500 363 Z" style="fill: #0070C0;"></path>
                                                                        <path d="M 460 244 Q 478 265 499 295 Q 509 313 526 327 Q 539 340 527 352 Q 517 359 500 363 C 471 371 440 379 450 357 Q 450 356 453 351 Q 463 332 437 262 Q 433 252 429 240 C 419 212 441 221 460 244 Z" style="fill: #0070C0;"></path>
                                                                        <path d="M 343 234 Q 328 241 296 246 Q 281 250 277 243 Q 270 236 280 217 Q 311 151 330 44 Q 334 11 353 -10 Q 374 -37 380 -18 Q 384 -8 385 7 L 383 45 Q 374 72 363 196 C 360 226 360 227 343 234 Z" style="fill: #0070C0;"></path>
                                                                        <path d="M 706 71 Q 742 170 781 195 Q 802 216 786 237 Q 699 309 641 281 Q 584 268 460 244 L 429 240 Q 386 239 343 234 C 313 231 333 191 363 196 Q 375 197 386 200 Q 510 216 628 233 Q 659 239 671 225 Q 681 215 678 193 Q 665 130 647 79 C 637 51 695 43 706 71 Z" style="fill: #0070C0;"></path>
                                                                        <path d="M 385 7 Q 395 6 409 7 Q 508 23 720 30 Q 732 31 734 41 Q 734 50 706 71 C 687 86 677 84 647 79 Q 500 54 383 45 C 353 43 355 8 385 7 Z" style="fill: #0070C0;"></path>
                                    
                                    
                                                                                                                                                                                                                                                                                                                                                                                                                                                                                                                                                                                                                                                                                                                                                                                                                                                                    </g>
                            </svg>