<svg width='83' height='83' >
                                <g transform="translate(3, 70) scale(0.07, -0.07)">
                                    <!-- 先将完整的字以灰色字体绘制完成，层级位于下面 -->
                                                                        <path d="M 478 811 Q 500 795 526 774 Q 541 764 555 765 Q 565 766 569 780 Q 572 795 560 822 Q 548 847 469 856 Q 453 857 448 855 Q 444 851 446 839 Q 450 829 478 811 Z" style="fill: #0070C0;"></path>
                                                                        <path d="M 266 699 Q 256 721 247 728 Q 231 743 227 718 Q 227 679 168 619 Q 147 598 171 543 Q 184 518 204 542 Q 222 566 236 601 Q 251 640 263 663 C 273 683 273 683 266 699 Z" style="fill: #0070C0;"></path>
                                                                        <path d="M 263 663 Q 278 657 330 667 Q 450 701 678 720 Q 721 724 735 721 Q 753 708 750 699 Q 743 663 735 626 L 737 625 Q 744 621 760 634 Q 806 665 846 675 Q 877 685 877 692 Q 876 702 804 752 Q 783 767 710 755 Q 599 743 363 710 Q 314 703 266 699 C 236 696 233 666 263 663 Z" style="fill: #0070C0;"></path>
                                                                        <path d="M 570 556 Q 618 565 692 563 Q 705 562 709 571 Q 712 580 701 591 Q 661 621 587 601 L 544 591 Q 489 581 426 566 L 389 560 Q 335 553 278 542 Q 254 538 272 526 Q 308 505 356 518 Q 372 524 394 528 L 426 535 Q 441 544 537 552 L 570 556 Z" style="fill: #0070C0;"></path>
                                                                        <path d="M 426 566 Q 426 594 426 615 Q 427 631 412 636 Q 379 654 363 649 Q 348 642 359 626 Q 380 599 389 560 C 396 531 386 547 394 528 L 395 527 Q 399 509 409 498 Q 419 488 424 498 Q 430 514 427 532 Q 426 533 426 535 L 426 566 Z" style="fill: #0070C0;"></path>
                                                                        <path d="M 587 601 Q 587 602 588 604 Q 592 620 604 643 Q 614 655 605 662 Q 595 675 568 686 Q 555 692 543 684 Q 536 680 542 671 Q 554 650 544 591 L 537 552 Q 531 512 531 504 Q 532 494 544 503 Q 554 513 563 537 Q 566 547 570 556 L 587 601 Z" style="fill: #0070C0;"></path>
                                                                        <path d="M 364 434 Q 352 441 340 445 Q 333 446 327 439 Q 324 435 330 425 Q 354 368 334 264 Q 322 243 329 218 Q 336 190 347 179 Q 357 167 365 179 Q 380 200 388 315 Q 389 382 393 400 Q 393 404 392 408 C 391 419 390 420 364 434 Z" style="fill: #0070C0;"></path>
                                                                        <path d="M 585 254 Q 578 233 590 213 Q 602 185 610 186 Q 623 187 638 216 Q 653 240 652 259 Q 640 379 665 413 Q 675 428 668 437 Q 643 459 600 479 Q 585 483 564 477 Q 474 438 364 434 C 334 433 363 402 392 408 Q 563 444 581 432 Q 587 419 590 383 Q 591 274 585 254 Z" style="fill: #0070C0;"></path>
                                                                        <path d="M 461 311 Q 452 125 342 58 Q 305 34 222 6 Q 210 5 207 1 Q 201 -3 215 -8 Q 227 -11 275 -3 Q 309 1 359 23 Q 471 72 506 256 Q 513 302 527 331 Q 533 341 526 349 Q 511 365 481 381 Q 463 391 448 388 Q 429 384 442 366 Q 464 338 461 311 Z" style="fill: #0070C0;"></path>
                                                                        <path d="M 901 45 Q 886 81 872 186 Q 872 202 865 206 Q 859 209 855 192 Q 831 80 813 45 Q 774 9 670 12 Q 630 13 599 24 Q 572 34 567 50 Q 558 75 574 151 Q 583 178 535 199 Q 523 203 515 199 Q 508 195 513 178 Q 523 141 520 106 Q 514 22 546 -8 Q 622 -63 788 -37 Q 800 -34 814 -31 Q 854 -19 895 7 Q 913 20 901 45 Z" style="fill: #0070C0;"></path>
                                    
                                    
                                                                                                                                                                                                                                                                                                                                                                                                                                                                                                                                                                                                                                                                                                                                                                                                                                                                    </g>
                            </svg>