<svg width='83' height='83' >
                                <g transform="translate(3, 70) scale(0.07, -0.07)">
                                    <!-- 先将完整的字以灰色字体绘制完成，层级位于下面 -->
                                                                        <path d="M 485 809 Q 507 790 533 765 Q 549 750 567 752 Q 579 753 584 768 Q 588 786 577 819 Q 570 838 540 849 Q 465 871 452 863 Q 446 859 449 844 Q 453 831 485 809 Z" style="fill: #0070C0;"></path>
                                                                        <path d="M 269 675 Q 259 697 248 704 Q 229 720 226 692 Q 230 665 214 638 Q 196 619 172 597 Q 162 584 165 562 Q 169 529 179 511 Q 195 483 217 512 Q 233 534 245 570 Q 260 612 271 639 C 278 656 278 656 269 675 Z" style="fill: #0070C0;"></path>
                                                                        <path d="M 271 639 Q 283 636 331 641 Q 490 684 705 701 Q 744 704 757 701 Q 772 688 768 681 Q 768 677 738 604 Q 731 589 737 585 Q 744 581 763 593 Q 821 632 869 645 Q 908 657 907 666 Q 906 676 830 731 Q 805 750 720 734 Q 509 710 374 688 Q 322 681 269 675 C 239 672 241 640 271 639 Z" style="fill: #0070C0;"></path>
                                                                        <path d="M 377 593 Q 344 589 367 573 Q 406 548 456 560 Q 525 572 596 584 Q 629 590 634 594 Q 643 601 638 609 Q 632 619 606 628 Q 578 634 551 624 Q 514 614 474 605 Q 429 596 377 593 Z" style="fill: #0070C0;"></path>
                                                                        <path d="M 333 498 Q 321 499 319 495 Q 313 488 323 474 Q 350 435 372 369 Q 378 350 392 337 Q 411 318 414 334 Q 415 341 415 351 L 410 382 Q 392 445 389 466 C 384 496 363 497 333 498 Z" style="fill: #0070C0;"></path>
                                                                        <path d="M 644 411 Q 671 457 697 468 Q 715 484 702 503 Q 687 518 638 546 Q 622 555 600 548 Q 468 499 333 498 C 303 497 360 459 389 466 Q 434 478 581 501 Q 600 504 610 496 Q 616 487 590 415 C 580 387 628 385 644 411 Z" style="fill: #0070C0;"></path>
                                                                        <path d="M 415 351 Q 421 351 428 352 Q 500 368 656 380 Q 666 381 667 389 Q 667 396 644 411 C 626 423 619 421 590 415 Q 490 393 410 382 C 380 378 385 349 415 351 Z" style="fill: #0070C0;"></path>
                                                                        <path d="M 272 275 Q 253 285 233 288 Q 226 289 221 284 Q 214 277 224 266 Q 267 206 284 68 Q 291 1 332 -23 Q 333 -23 335 -25 Q 351 -28 352 -4 L 350 30 Q 317 184 312 234 C 309 257 299 262 272 275 Z" style="fill: #0070C0;"></path>
                                                                        <path d="M 650 21 Q 660 -7 683 -57 Q 692 -76 703 -76 Q 721 -73 732 -45 Q 760 7 781 164 Q 788 216 815 248 Q 834 269 822 284 Q 800 309 750 333 Q 729 345 693 334 Q 602 306 499 290 Q 408 280 272 275 C 242 274 283 228 312 234 Q 312 235 313 235 Q 379 247 464 258 L 505 264 Q 574 274 658 285 Q 695 289 710 272 Q 731 232 697 65 Q 696 50 689 48 Q 686 48 662 61 Q 658 64 653 65 C 628 77 639 49 650 21 Z" style="fill: #0070C0;"></path>
                                                                        <path d="M 532 144 Q 577 151 618 156 Q 640 159 633 172 Q 623 187 597 192 Q 575 196 534 186 L 478 172 Q 432 162 392 153 Q 376 149 395 134 Q 405 127 428 129 Q 453 133 480 136 L 532 144 Z" style="fill: #0070C0;"></path>
                                                                        <path d="M 527 50 Q 528 101 532 144 L 534 186 Q 534 201 536 212 Q 545 236 505 264 C 481 282 452 286 464 258 Q 474 240 478 172 L 480 136 Q 480 99 483 44 C 485 14 526 20 527 50 Z" style="fill: #0070C0;"></path>
                                                                        <path d="M 352 -4 Q 358 -4 367 -3 Q 460 13 650 21 C 680 22 682 59 653 65 Q 649 68 646 67 Q 637 68 527 50 L 483 44 Q 413 37 350 30 C 320 27 322 -6 352 -4 Z" style="fill: #0070C0;"></path>
                                    
                                    
                                                                                                                                                                                                                                                                                                                                                                                                                                                                                                                                                                                                                                                                                                                                                                                                                                                                                                                                                                                                                            </g>
                            </svg>