<svg width='83' height='83' >
                                <g transform="translate(3, 70) scale(0.07, -0.07)">
                                    <!-- 先将完整的字以灰色字体绘制完成，层级位于下面 -->
                                                                        <path d="M 491 802 Q 512 784 533 764 Q 549 751 565 753 Q 575 754 581 768 Q 585 784 573 815 Q 561 839 483 852 Q 467 855 460 851 Q 454 847 457 833 Q 461 823 491 802 Z" style="fill: #0070C0;"></path>
                                                                        <path d="M 287 681 Q 278 708 266 717 Q 248 732 245 706 Q 251 682 232 657 Q 213 636 189 614 Q 177 604 180 582 Q 184 552 191 535 Q 204 508 226 534 Q 242 556 256 590 Q 271 627 283 651 C 292 668 292 668 287 681 Z" style="fill: #0070C0;"></path>
                                                                        <path d="M 283 651 Q 305 639 338 649 Q 455 685 678 712 Q 724 718 741 715 Q 751 705 748 699 Q 736 660 723 618 L 725 617 Q 732 613 751 624 Q 806 655 850 663 Q 886 670 886 679 Q 885 689 811 743 Q 783 764 686 742 Q 628 736 385 695 Q 336 688 287 681 C 257 677 254 660 283 651 Z" style="fill: #0070C0;"></path>
                                                                        <path d="M 618 540 Q 690 555 698 560 Q 705 566 702 574 Q 696 584 672 592 Q 650 599 627 592 L 569 575 Q 529 566 491 557 Q 472 554 452 550 L 404 544 Q 367 541 329 539 Q 298 536 319 520 Q 352 499 404 507 Q 405 507 409 507 L 450 513 Q 508 523 568 532 L 618 540 Z" style="fill: #0070C0;"></path>
                                                                        <path d="M 605 431 Q 641 437 674 439 Q 695 440 688 453 Q 681 466 658 472 Q 639 476 610 470 L 566 463 Q 505 454 449 444 L 412 438 Q 370 434 331 427 Q 316 424 333 410 Q 349 397 384 402 Q 397 405 413 405 L 450 411 Q 510 421 564 426 L 605 431 Z" style="fill: #0070C0;"></path>
                                                                        <path d="M 452 550 Q 453 569 455 576 Q 459 595 447 607 Q 428 623 404 632 Q 392 636 384 632 Q 377 626 382 613 Q 398 579 404 544 L 409 507 Q 410 482 412 438 L 413 405 Q 413 377 415 340 C 417 310 452 315 451 345 Q 450 381 450 411 L 449 444 Q 449 478 450 513 L 452 550 Z" style="fill: #0070C0;"></path>
                                                                        <path d="M 596 364 Q 600 398 605 431 L 610 470 Q 614 507 618 540 L 627 592 Q 628 599 631 606 Q 635 621 639 631 Q 643 640 626 654 Q 596 673 575 677 Q 562 681 554 674 Q 547 667 553 654 Q 568 629 569 575 L 568 532 Q 567 499 566 463 L 564 426 Q 560 395 558 359 C 556 329 592 334 596 364 Z" style="fill: #0070C0;"></path>
                                                                        <path d="M 607 327 Q 634 328 792 329 Q 810 329 814 336 Q 820 346 805 359 Q 753 398 695 381 Q 652 375 596 364 L 558 359 Q 531 356 505 352 Q 477 349 451 345 L 415 340 Q 330 331 235 320 Q 216 319 230 303 Q 243 290 259 285 Q 278 281 292 284 Q 320 291 350 297 L 401 307 Q 470 322 572 325 L 607 327 Z" style="fill: #0070C0;"></path>
                                                                        <path d="M 350 297 Q 332 198 130 58 Q 123 54 131 51 Q 230 51 401 251 Q 410 261 415 264 Q 422 268 422 277 Q 419 293 401 307 C 379 327 357 326 350 297 Z" style="fill: #0070C0;"></path>
                                                                        <path d="M 572 325 Q 606 273 777 109 Q 798 93 827 97 Q 927 115 958 125 Q 967 128 968 133 Q 968 137 954 144 Q 810 184 729 237 Q 671 276 607 327 C 583 346 555 349 572 325 Z" style="fill: #0070C0;"></path>
                                                                        <path d="M 476 213 Q 515 161 543 148 Q 558 144 567 157 Q 574 169 572 185 Q 568 209 551 222 Q 500 259 469 253 Q 466 253 466 252 Q 459 251 461 239 Q 462 227 476 213 Z" style="fill: #0070C0;"></path>
                                                                        <path d="M 461 60 Q 503 12 546 -44 Q 556 -59 572 -61 Q 582 -62 589 -51 Q 596 -38 593 -8 Q 590 41 465 106 Q 452 112 444 111 Q 440 108 438 96 Q 439 84 461 60 Z" style="fill: #0070C0;"></path>
                                    
                                    
                                                                                                                                                                                                                                                                                                                                                                                                                                                                                                                                                                                                                                                                                                                                                                                                                                                                                                                                                                                                                            </g>
                            </svg>