<svg width='83' height='83' >
                                <g transform="translate(3, 70) scale(0.07, -0.07)">
                                    <!-- 先将完整的字以灰色字体绘制完成，层级位于下面 -->
                                                                        <path d="M 440 815 Q 465 794 491 769 Q 506 757 521 758 Q 531 759 537 772 Q 541 788 531 817 Q 525 835 496 847 Q 427 871 412 863 Q 408 859 409 846 Q 413 836 440 815 Z" style="fill: #0070C0;"></path>
                                                                        <path d="M 270 709 Q 260 728 250 736 Q 231 749 229 724 Q 235 687 183 637 Q 159 616 187 555 Q 202 528 222 556 Q 237 578 248 611 Q 261 651 272 675 C 279 692 279 692 270 709 Z" style="fill: #0070C0;"></path>
                                                                        <path d="M 272 675 Q 285 669 334 679 Q 442 710 663 729 Q 697 732 710 729 Q 723 720 722 713 Q 722 710 690 646 Q 683 633 689 629 Q 696 625 712 635 Q 766 666 809 676 Q 843 685 844 693 Q 843 703 776 756 Q 755 774 687 762 Q 435 732 363 720 Q 317 714 270 709 C 240 706 242 678 272 675 Z" style="fill: #0070C0;"></path>
                                                                        <path d="M 538 560 Q 641 576 654 586 Q 661 593 658 601 Q 652 611 626 620 Q 598 627 571 617 Q 516 601 457 587 L 399 577 Q 354 573 306 569 Q 272 565 295 549 Q 331 525 384 535 L 439 544 Q 473 551 513 556 L 538 560 Z" style="fill: #0070C0;"></path>
                                                                        <path d="M 457 587 Q 467 609 481 631 Q 488 641 483 650 Q 477 660 449 676 Q 428 688 419 686 Q 406 683 408 668 Q 411 625 399 577 L 384 535 Q 327 400 136 249 Q 129 242 135 239 Q 142 236 152 241 Q 246 280 321 354 L 350 387 Q 405 465 439 544 L 457 587 Z" style="fill: #0070C0;"></path>
                                                                        <path d="M 675 378 Q 706 347 741 314 Q 763 292 801 289 Q 868 285 940 298 Q 959 299 960 305 Q 961 312 948 317 Q 762 392 752 397 Q 719 415 653 462 L 634 476 Q 613 492 593 510 Q 557 544 538 560 C 515 580 496 581 513 556 Q 523 535 635 420 L 675 378 Z" style="fill: #0070C0;"></path>
                                                                        <path d="M 229 488 Q 278 431 303 432 Q 315 432 320 449 Q 320 461 310 479 Q 289 506 231 512 Q 222 513 222 503 Q 221 496 229 488 Z" style="fill: #0070C0;"></path>
                                                                        <path d="M 653 462 Q 714 499 746 512 Q 762 516 759 526 Q 755 539 738 558 Q 722 574 702 578 Q 689 578 689 561 Q 690 543 634 476 C 615 453 627 446 653 462 Z" style="fill: #0070C0;"></path>
                                                                        <path d="M 321 354 Q 343 306 359 231 Q 362 206 377 190 Q 393 171 398 185 Q 401 194 401 205 L 399 228 Q 398 234 397 240 Q 393 264 388 283 L 384 306 Q 377 349 376 360 Q 375 361 376 361 C 371 412 296 410 321 354 Z" style="fill: #0070C0;"></path>
                                                                        <path d="M 376 361 Q 440 379 554 393 Q 579 397 587 388 Q 597 376 595 365 Q 580 271 568 244 C 558 216 549 225 553 219 Q 569 194 585 186 Q 595 179 607 198 Q 619 217 642 320 Q 649 347 670 369 Q 674 373 675 378 C 683 390 660 404 635 420 Q 628 424 621 429 Q 606 435 540 421 Q 534 421 433 402 Q 387 392 350 387 C 320 383 347 353 376 361 Z" style="fill: #0070C0;"></path>
                                                                        <path d="M 388 283 Q 392 282 404 283 Q 486 296 547 305 Q 569 309 561 321 Q 551 334 527 339 Q 499 342 384 306 C 355 297 358 286 388 283 Z" style="fill: #0070C0;"></path>
                                                                        <path d="M 499 213 Q 527 217 553 219 C 583 221 594 229 568 244 Q 562 248 552 251 Q 534 255 399 228 C 370 222 371 203 401 205 Q 402 205 455 209 L 499 213 Z" style="fill: #0070C0;"></path>
                                                                        <path d="M 455 209 Q 468 175 467 67 Q 466 52 463 48 Q 459 38 439 42 Q 408 52 376 61 Q 364 62 363 56 Q 362 52 371 41 Q 435 -17 457 -50 Q 472 -65 484 -63 Q 494 -59 507 -27 Q 525 6 524 67 Q 520 122 521 143 Q 528 183 511 203 Q 505 209 499 213 C 475 232 446 238 455 209 Z" style="fill: #0070C0;"></path>
                                                                        <path d="M 295 158 Q 271 121 242 89 Q 218 58 231 26 Q 235 7 257 17 Q 303 45 313 100 Q 322 131 318 155 Q 314 164 309 166 Q 300 166 295 158 Z" style="fill: #0070C0;"></path>
                                                                        <path d="M 633 139 Q 682 97 739 36 Q 755 17 770 14 Q 777 13 785 23 Q 795 36 783 77 Q 768 128 633 168 Q 624 172 623 161 Q 623 148 633 139 Z" style="fill: #0070C0;"></path>
                                    
                                    
                                                                                                                                                                                                                                                                                                                                                                                                                                                                                                                                                                                                                                                                                                                                                                                                                                                                                                                                                                                                                                                                                                                                                                                                                                                                </g>
                            </svg>