<svg width='83' height='83' >
                                <g transform="translate(3, 70) scale(0.07, -0.07)">
                                    <!-- 先将完整的字以灰色字体绘制完成，层级位于下面 -->
                                                                        <path d="M 367 367 Q 404 431 428 515 Q 438 558 468 590 Q 487 609 468 622 Q 444 635 414 642 Q 386 651 360 634 Q 335 624 292 609 Q 244 597 194 590 Q 175 590 170 584 Q 166 571 192 555 Q 222 536 291 560 Q 349 588 356 588 Q 375 588 375 569 Q 356 463 325 400 L 301 356 Q 279 323 253 293 Q 199 235 94 173 Q 79 166 88 160 Q 95 157 117 166 Q 205 199 261 237 Q 298 264 335 316 L 367 367 Z" style="fill: #0070C0;"></path>
                                                                        <path d="M 335 316 Q 372 276 412 227 Q 425 208 438 203 Q 445 202 453 210 Q 465 220 456 260 Q 450 299 367 367 L 325 400 Q 246 461 201 491 Q 194 495 190 485 Q 189 473 198 464 Q 247 415 301 356 L 335 316 Z" style="fill: #0070C0;"></path>
                                                                        <path d="M 771 530 Q 786 536 914 549 Q 926 548 936 562 Q 937 575 912 587 Q 870 612 786 586 Q 779 585 772 582 L 720 570 Q 657 558 481 537 Q 448 533 474 513 Q 513 483 543 490 Q 622 508 720 522 L 771 530 Z" style="fill: #0070C0;"></path>
                                                                        <path d="M 720 522 Q 721 383 724 145 Q 724 123 711 113 Q 702 109 615 121 Q 579 131 583 120 Q 586 113 607 100 Q 683 51 705 21 Q 730 -13 748 -13 Q 763 -13 776 23 Q 792 71 787 146 Q 771 338 771 530 L 772 582 Q 772 688 789 747 Q 805 778 748 802 Q 714 820 693 813 Q 674 806 692 782 Q 714 754 716 719 Q 717 703 720 570 L 720 522 Z" style="fill: #0070C0;"></path>
                                                                        <path d="M 510 363 Q 540 332 571 296 Q 584 281 600 281 Q 610 280 617 293 Q 623 306 617 338 Q 610 377 510 412 Q 495 416 488 415 Q 482 411 483 399 Q 486 387 510 363 Z" style="fill: #0070C0;"></path>
                                    
                                    
                                                                                                                                                                                                                                                                                                                                                                                                                                                                        </g>
                            </svg>