<svg width='83' height='83' >
                                <g transform="translate(3, 70) scale(0.07, -0.07)">
                                    <!-- 先将完整的字以灰色字体绘制完成，层级位于下面 -->
                                                                        <path d="M 654 652 Q 679 709 709 727 Q 725 745 711 763 Q 695 776 643 802 Q 625 811 604 802 Q 528 772 393 744 C 364 738 377 704 406 711 Q 419 715 587 751 Q 608 757 616 748 Q 623 741 621 728 Q 612 691 602 660 C 593 631 641 625 654 652 Z" style="fill: #0070C0;"></path>
                                                                        <path d="M 381 588 Q 394 582 437 587 Q 531 608 657 624 Q 666 623 673 634 Q 674 644 655 652 L 654 652 L 602 660 Q 521 644 384 618 C 355 612 352 596 381 588 Z" style="fill: #0070C0;"></path>
                                                                        <path d="M 776 516 Q 757 549 740 607 Q 737 622 729 626 Q 722 630 719 611 Q 710 538 699 525 Q 668 488 531 477 Q 456 476 424 486 Q 396 499 388 517 Q 381 539 381 588 L 384 618 Q 390 670 402 697 Q 405 704 406 711 C 412 730 412 730 393 744 Q 348 778 334 775 Q 319 769 327 753 Q 345 717 340 664 Q 333 517 359 480 Q 389 441 475 434 Q 539 428 638 438 Q 728 448 762 469 Q 790 487 776 516 Z" style="fill: #0070C0;"></path>
                                                                        <path d="M 671 292 Q 749 301 899 289 Q 923 286 928 295 Q 935 308 924 321 Q 857 382 792 361 Q 735 349 678 339 L 615 332 Q 528 325 311 297 Q 244 285 141 284 Q 128 284 126 273 Q 126 260 145 246 Q 161 233 193 222 Q 203 218 221 226 Q 237 232 310 245 Q 401 266 616 287 L 671 292 Z" style="fill: #0070C0;"></path>
                                                                        <path d="M 575 60 Q 536 67 499 76 Q 486 77 487 70 Q 488 63 499 55 Q 580 -9 610 -49 Q 625 -65 641 -51 Q 677 -14 676 58 Q 672 152 671 292 L 678 339 Q 679 349 684 356 Q 693 375 676 390 Q 649 412 618 423 Q 599 430 591 423 Q 584 416 595 400 Q 613 369 615 332 L 616 287 Q 620 163 614 94 Q 613 70 600 62 Q 590 55 575 60 Z" style="fill: #0070C0;"></path>
                                                                        <path d="M 368 187 Q 390 162 412 133 Q 424 118 439 117 Q 449 116 457 129 Q 464 142 458 174 Q 455 193 428 210 Q 364 243 348 239 Q 342 236 342 223 Q 345 211 368 187 Z" style="fill: #0070C0;"></path>
                                    
                                    
                                                                                                                                                                                                                                                                                                                                                                                                                                                                                                                                                    </g>
                            </svg>