<svg width='83' height='83' >
                                <g transform="translate(3, 70) scale(0.07, -0.07)">
                                    <!-- 先将完整的字以灰色字体绘制完成，层级位于下面 -->
                                                                        <path d="M 285 639 Q 322 679 344 704 Q 392 765 414 783 Q 432 798 418 812 Q 402 825 373 832 Q 348 839 335 834 Q 323 830 331 817 Q 340 793 290 689 Q 278 667 267 642 Q 266 641 266 640 C 253 613 265 617 285 639 Z" style="fill: #0070C0;"></path>
                                                                        <path d="M 266 640 Q 250 655 235 661 Q 225 664 216 660 Q 209 656 212 647 Q 227 611 228 590 Q 229 563 232 337 C 232 307 272 316 273 346 Q 274 386 274 422 L 275 443 Q 275 477 276 506 L 276 529 Q 279 583 279 608 C 279 628 279 628 266 640 Z" style="fill: #0070C0;"></path>
                                                                        <path d="M 424 293 Q 418 83 405 64 Q 401 61 327 72 Q 308 76 309 67 Q 366 25 399 -8 Q 412 -26 427 -30 Q 436 -34 443 -24 Q 480 19 479 75 Q 472 250 475 534 Q 474 589 488 614 Q 500 632 488 642 Q 469 660 434 675 Q 416 682 401 675 Q 352 648 285 639 C 255 634 231 600 279 608 Q 312 612 391 631 Q 410 635 415 626 Q 425 599 426 381 L 424 293 Z" style="fill: #0070C0;"></path>
                                                                        <path d="M 276 506 Q 277 506 282 506 Q 334 516 374 523 Q 393 527 385 538 Q 375 548 354 552 Q 321 555 276 529 C 250 514 246 506 276 506 Z" style="fill: #0070C0;"></path>
                                                                        <path d="M 274 422 Q 277 421 286 422 Q 338 432 378 439 Q 397 443 389 454 Q 379 464 358 468 Q 325 471 275 443 C 249 429 244 426 274 422 Z" style="fill: #0070C0;"></path>
                                                                        <path d="M 232 337 Q 195 331 158 323 Q 139 319 105 322 Q 93 321 91 312 Q 88 300 96 292 Q 115 276 144 256 Q 153 252 164 259 Q 209 286 397 346 C 426 355 455 387 426 381 Q 353 365 273 346 L 232 337 Z" style="fill: #0070C0;"></path>
                                                                        <path d="M 397 346 Q 391 327 373 304 Q 321 235 264 190 Q 216 150 119 91 Q 101 81 117 78 Q 127 75 167 89 Q 219 104 269 137 Q 366 209 424 293 C 495 394 421 405 397 346 Z" style="fill: #0070C0;"></path>
                                                                        <path d="M 776 469 Q 825 476 893 478 Q 941 482 945 489 Q 949 499 934 511 Q 877 545 820 524 Q 799 520 776 513 L 727 501 Q 714 501 522 461 Q 503 457 518 443 Q 531 431 548 428 Q 567 424 581 429 Q 678 462 727 462 L 776 469 Z" style="fill: #0070C0;"></path>
                                                                        <path d="M 727 462 Q 728 329 731 110 Q 730 86 718 78 Q 708 72 621 99 Q 588 111 591 101 Q 592 94 612 79 Q 688 24 708 -8 Q 730 -45 749 -47 Q 764 -47 778 -12 Q 796 34 793 107 Q 777 288 776 469 L 776 513 Q 776 658 792 714 Q 808 744 752 765 Q 718 783 699 776 Q 681 769 698 746 Q 720 721 722 686 Q 723 667 727 501 L 727 462 Z" style="fill: #0070C0;"></path>
                                                                        <path d="M 558 322 Q 577 300 598 273 Q 608 260 622 259 Q 631 258 637 269 Q 643 281 639 308 Q 632 336 559 363 Q 546 367 540 367 Q 536 364 535 353 Q 536 343 558 322 Z" style="fill: #0070C0;"></path>
                                    
                                    
                                                                                                                                                                                                                                                                                                                                                                                                                                                                                                                                                                                                                                                                                                                                                                                                                                                                    </g>
                            </svg>