<svg width='83' height='83' >
                                <g transform="translate(3, 70) scale(0.07, -0.07)">
                                    <!-- 先将完整的字以灰色字体绘制完成，层级位于下面 -->
                                                                        <path d="M 499 695 Q 503 661 501 132 Q 500 110 488 101 Q 478 92 448 100 Q 414 107 383 113 Q 347 123 351 112 Q 352 105 375 91 Q 456 42 479 10 Q 504 -26 523 -25 Q 538 -26 552 11 Q 568 57 564 133 Q 531 583 572 723 Q 590 754 532 778 Q 498 797 477 789 Q 459 782 475 759 Q 497 731 499 695 Z" style="fill: #0070C0;"></path>
                                                                        <path d="M 266 475 Q 223 408 170 349 Q 160 339 155 320 Q 148 292 154 273 Q 158 251 185 261 Q 213 274 237 308 Q 273 357 284 404 Q 297 441 293 470 Q 289 480 283 484 Q 273 484 266 475 Z" style="fill: #0070C0;"></path>
                                                                        <path d="M 706 472 Q 769 411 842 323 Q 860 299 878 293 Q 888 292 897 303 Q 913 318 900 370 Q 887 431 709 508 Q 699 515 696 500 Q 695 484 706 472 Z" style="fill: #0070C0;"></path>
                                    
                                    
                                                                                                                                                                                                                                                                                                                </g>
                            </svg>