<svg width='83' height='83' >
                                <g transform="translate(3, 70) scale(0.07, -0.07)">
                                    <!-- 先将完整的字以灰色字体绘制完成，层级位于下面 -->
                                                                        <path d="M 335 556 Q 375 613 419 693 Q 438 735 458 756 Q 467 768 462 781 Q 456 794 426 815 Q 398 831 378 830 Q 359 827 369 805 Q 384 780 375 755 Q 350 674 307 599 Q 267 526 209 444 Q 199 432 197 426 Q 194 414 209 418 Q 240 427 319 534 L 335 556 Z" style="fill: #0070C0;"></path>
                                                                        <path d="M 319 534 Q 353 509 388 519 Q 485 558 677 589 Q 710 593 710 581 Q 710 578 644 486 Q 635 473 641 468 Q 648 464 666 473 Q 736 515 792 527 Q 838 539 838 549 Q 837 559 765 620 Q 738 644 656 621 Q 601 614 415 572 Q 375 563 335 556 C 305 551 295 549 319 534 Z" style="fill: #0070C0;"></path>
                                                                        <path d="M 447 97 Q 404 107 363 119 Q 350 122 351 114 Q 352 107 363 98 Q 448 25 478 -18 Q 494 -37 511 -22 Q 551 20 550 93 Q 544 150 544 334 Q 545 374 557 402 Q 567 423 549 437 Q 521 461 489 472 Q 468 479 460 471 Q 453 464 465 447 Q 489 405 487 358 Q 491 207 485 129 Q 484 107 471 99 Q 461 92 447 97 Z" style="fill: #0070C0;"></path>
                                                                        <path d="M 292 351 Q 253 287 204 230 Q 177 199 190 160 Q 194 139 220 149 Q 245 162 267 194 Q 300 240 310 285 Q 320 319 318 347 Q 314 357 308 359 Q 298 359 292 351 Z" style="fill: #0070C0;"></path>
                                                                        <path d="M 672 335 Q 727 272 792 183 Q 808 158 825 151 Q 835 148 845 159 Q 861 172 852 225 Q 845 288 677 371 Q 667 378 663 364 Q 662 348 672 335 Z" style="fill: #0070C0;"></path>
                                    
                                    
                                                                                                                                                                                                                                                                                                                                                                                                                                                                        </g>
                            </svg>