<svg width='83' height='83' >
                                <g transform="translate(3, 70) scale(0.07, -0.07)">
                                    <!-- 先将完整的字以灰色字体绘制完成，层级位于下面 -->
                                                                        <path d="M 510 484 Q 528 743 541 792 Q 545 805 523 821 Q 447 860 429 840 Q 427 837 426 835 Q 423 827 436 808 Q 453 780 453 764 Q 465 626 463 478 C 463 448 508 454 510 484 Z" style="fill: #0070C0;"></path>
                                                                        <path d="M 314 705 Q 316 695 304 674 Q 274 623 200 564 Q 184 556 184 551 Q 183 545 192 545 Q 234 545 318 608 Q 361 639 368 643 Q 378 649 377 661 Q 377 669 368 684 Q 349 715 327 721 Q 312 722 314 705 Z" style="fill: #0070C0;"></path>
                                                                        <path d="M 612 720 Q 612 715 613 713 Q 615 706 634 692 Q 696 646 737 610 Q 757 592 772 590 Q 780 590 786 602 Q 796 615 778 657 Q 770 683 733 700 Q 704 712 621 729 Q 612 733 612 720 Z" style="fill: #0070C0;"></path>
                                                                        <path d="M 225 437 Q 202 462 162 456 Q 147 450 155 437 Q 206 345 172 175 Q 148 100 188 57 Q 196 44 208 50 Q 241 77 239 188 Q 237 332 237 394 C 237 424 237 426 225 437 Z" style="fill: #0070C0;"></path>
                                                                        <path d="M 237 394 Q 246 394 270 402 Q 395 444 770 466 Q 786 466 793 458 Q 802 452 801 410 Q 802 232 778 132 Q 769 92 735 98 Q 662 114 661 114 Q 661 113 660 110 Q 659 109 661 104 Q 664 92 694 57 Q 739 6 752 -24 Q 759 -37 768 -39 Q 786 -43 804 -10 Q 829 27 843 80 Q 860 155 879 379 Q 884 423 898 445 Q 918 469 902 476 Q 884 494 839 515 Q 830 521 824 525 Q 812 529 789 525 Q 713 510 659 503 Q 580 496 510 484 L 463 478 Q 423 474 394 467 Q 308 449 225 437 C 195 432 208 387 237 394 Z" style="fill: #0070C0;"></path>
                                                                        <path d="M 388 326 Q 384 328 378 330 Q 335 345 330 337 Q 323 331 331 314 Q 356 265 369 182 Q 370 157 385 141 Q 404 119 409 133 Q 413 145 413 163 L 410 196 Q 400 272 400 296 C 399 321 399 321 388 326 Z" style="fill: #0070C0;"></path>
                                                                        <path d="M 600 213 Q 624 274 653 293 Q 668 312 655 328 Q 639 341 590 368 Q 588 368 584 369 Q 573 372 549 367 Q 466 342 388 326 C 359 320 371 289 400 296 Q 549 331 563 318 Q 576 304 549 223 C 540 194 589 185 600 213 Z" style="fill: #0070C0;"></path>
                                                                        <path d="M 413 163 Q 419 162 430 163 Q 518 176 606 182 Q 615 183 617 192 Q 617 200 600 213 L 549 223 Q 541 223 529 220 Q 466 204 410 196 C 380 192 383 165 413 163 Z" style="fill: #0070C0;"></path>
                                    
                                    
                                                                                                                                                                                                                                                                                                                                                                                                                                                                                                                                                                                                                                                                                                            </g>
                            </svg>