<svg width='83' height='83' >
                                <g transform="translate(3, 70) scale(0.07, -0.07)">
                                    <!-- 先将完整的字以灰色字体绘制完成，层级位于下面 -->
                                                                        <path d="M 519 487 Q 532 728 549 789 Q 552 799 531 815 Q 494 834 469 839 Q 453 842 444 833 Q 437 826 445 810 Q 466 780 467 760 Q 477 630 474 480 C 473 450 517 457 519 487 Z" style="fill: #0070C0;"></path>
                                                                        <path d="M 259 637 Q 310 564 344 546 Q 359 540 371 553 Q 378 566 378 584 Q 372 635 278 676 Q 262 683 250 680 Q 243 680 245 666 Q 245 653 259 637 Z" style="fill: #0070C0;"></path>
                                                                        <path d="M 682 712 Q 666 691 572 587 Q 560 569 579 573 Q 618 594 725 662 Q 747 678 773 688 Q 797 698 786 718 Q 773 737 745 754 Q 720 770 705 768 Q 692 767 695 752 Q 698 733 682 712 Z" style="fill: #0070C0;"></path>
                                                                        <path d="M 237 436 Q 216 463 171 459 Q 156 455 163 441 Q 209 354 181 188 Q 175 164 167 147 Q 152 114 178 71 Q 181 64 188 57 Q 197 44 207 50 Q 243 78 241 186 Q 241 343 243 394 C 244 424 244 429 237 436 Z" style="fill: #0070C0;"></path>
                                                                        <path d="M 243 394 Q 307 430 649 461 Q 697 465 760 469 Q 776 470 783 462 Q 793 455 793 411 Q 797 227 773 121 Q 763 81 728 85 Q 688 91 653 96 Q 637 100 637 93 Q 637 86 650 74 Q 731 16 753 -17 Q 763 -33 775 -31 Q 791 -28 804 -1 Q 843 63 857 277 Q 860 425 876 453 Q 895 477 880 482 Q 864 500 822 518 Q 797 534 769 523 Q 735 513 649 503 Q 577 496 519 487 L 474 480 Q 420 473 378 463 Q 306 447 237 436 C 207 431 215 383 243 394 Z" style="fill: #0070C0;"></path>
                                                                        <path d="M 391 328 Q 379 332 356 337 Q 344 340 341 335 Q 334 329 343 313 Q 368 261 383 178 Q 384 153 400 136 Q 418 114 423 129 Q 427 142 427 162 L 423 196 Q 411 274 411 298 C 410 322 410 322 391 328 Z" style="fill: #0070C0;"></path>
                                                                        <path d="M 613 215 Q 637 281 661 298 Q 677 316 663 332 Q 594 383 540 359 Q 465 338 391 328 C 361 324 382 292 411 298 Q 418 299 429 302 Q 490 311 550 321 Q 566 324 572 317 Q 584 305 567 223 C 561 194 602 187 613 215 Z" style="fill: #0070C0;"></path>
                                                                        <path d="M 427 162 Q 434 162 443 163 Q 500 173 623 182 Q 633 183 635 191 Q 635 198 613 215 C 599 226 597 226 567 223 Q 563 223 559 222 Q 484 204 423 196 C 393 192 397 161 427 162 Z" style="fill: #0070C0;"></path>
                                    
                                    
                                                                                                                                                                                                                                                                                                                                                                                                                                                                                                                                                                                                                                                                                                            </g>
                            </svg>