<svg width='83' height='83' >
                                <g transform="translate(3, 70) scale(0.07, -0.07)">
                                    <!-- 先将完整的字以灰色字体绘制完成，层级位于下面 -->
                                                                        <path d="M 464 822 Q 488 786 484 643 Q 480 619 497 578 Q 507 563 521 571 Q 531 580 532 646 Q 533 754 554 789 Q 560 799 549 811 Q 497 850 470 841 Q 457 837 464 822 Z" style="fill: #0070C0;"></path>
                                                                        <path d="M 326 702 Q 330 678 274 619 Q 247 591 212 563 Q 202 557 199 553 Q 193 544 205 543 Q 253 543 353 622 Q 369 635 380 640 Q 390 647 389 658 Q 389 670 372 694 Q 356 715 340 719 Q 324 720 326 702 Z" style="fill: #0070C0;"></path>
                                                                        <path d="M 636 696 Q 687 660 748 608 Q 767 590 782 588 Q 791 588 797 599 Q 807 614 789 654 Q 777 691 703 711 Q 658 721 633 726 Q 623 730 623 718 Q 624 705 636 696 Z" style="fill: #0070C0;"></path>
                                                                        <path d="M 601 438 Q 611 441 823 455 Q 835 452 846 466 Q 849 479 823 493 Q 786 515 757 510 Q 652 491 483 462 L 413 454 Q 320 451 175 440 Q 142 439 166 417 Q 203 384 234 390 Q 306 402 389 412 L 457 421 Q 509 428 572 435 L 601 438 Z" style="fill: #0070C0;"></path>
                                                                        <path d="M 483 462 Q 496 481 512 500 Q 522 509 518 520 Q 514 532 485 554 Q 466 570 455 569 Q 442 568 440 552 Q 436 503 413 454 L 389 412 Q 305 283 95 166 Q 85 159 92 155 Q 99 151 111 154 Q 273 196 366 301 Q 409 346 457 421 L 483 462 Z" style="fill: #0070C0;"></path>
                                                                        <path d="M 572 435 Q 573 432 578 427 Q 668 321 765 222 Q 810 177 964 206 Q 983 207 984 213 Q 987 219 972 225 Q 780 303 778 304 Q 735 329 601 438 C 578 457 554 459 572 435 Z" style="fill: #0070C0;"></path>
                                                                        <path d="M 456 64 Q 419 73 382 83 Q 370 86 371 78 Q 372 71 382 63 Q 457 -1 484 -41 Q 499 -57 514 -44 Q 553 -7 548 93 Q 536 244 554 291 Q 563 309 547 322 Q 522 344 492 355 Q 473 362 465 354 Q 459 347 470 332 Q 503 272 490 91 Q 487 73 478 66 Q 469 59 456 64 Z" style="fill: #0070C0;"></path>
                                                                        <path d="M 334 212 Q 304 169 267 132 Q 242 104 251 67 Q 255 48 278 56 Q 335 83 348 150 Q 360 181 358 207 Q 354 217 349 219 Q 340 219 334 212 Z" style="fill: #0070C0;"></path>
                                                                        <path d="M 624 197 Q 673 149 731 80 Q 746 59 761 54 Q 768 53 777 63 Q 790 75 779 119 Q 769 170 626 228 Q 617 232 615 221 Q 614 208 624 197 Z" style="fill: #0070C0;"></path>
                                    
                                    
                                                                                                                                                                                                                                                                                                                                                                                                                                                                                                                                                                                                                                                                                                                                                                                        </g>
                            </svg>