<svg width='83' height='83' >
                                <g transform="translate(3, 70) scale(0.07, -0.07)">
                                    <!-- 先将完整的字以灰色字体绘制完成，层级位于下面 -->
                                                                        <path d="M 665 601 Q 695 676 726 696 Q 745 715 729 735 Q 711 750 656 777 Q 637 784 613 776 Q 519 739 368 711 C 339 705 346 670 375 678 Q 379 679 384 681 Q 489 702 589 724 Q 614 730 626 720 Q 639 704 607 596 C 599 567 653 573 665 601 Z" style="fill: #0070C0;"></path>
                                                                        <path d="M 477 530 Q 559 545 687 559 Q 699 560 700 570 Q 701 579 668 600 Q 667 601 665 601 L 607 596 Q 468 562 355 544 C 325 539 320 503 350 506 Q 357 506 367 508 Q 394 515 431 522 L 477 530 Z" style="fill: #0070C0;"></path>
                                                                        <path d="M 368 711 Q 365 715 360 718 Q 305 749 288 748 Q 264 745 281 718 Q 317 649 273 412 Q 257 349 222 278 Q 188 206 83 116 Q 65 103 61 95 Q 58 86 72 86 Q 114 83 204 164 Q 300 258 340 451 Q 344 478 350 506 L 355 544 Q 362 592 367 645 Q 371 667 375 678 C 381 702 381 702 368 711 Z" style="fill: #0070C0;"></path>
                                                                        <path d="M 431 522 Q 491 480 596 340 Q 729 172 783 169 Q 877 165 953 172 Q 993 176 991 186 Q 990 192 800 255 Q 662 316 502 506 Q 489 521 477 530 C 454 550 407 540 431 522 Z" style="fill: #0070C0;"></path>
                                                                        <path d="M 409 347 Q 499 247 527 245 Q 542 244 549 263 Q 550 278 540 300 Q 527 327 492 342 Q 437 370 414 376 Q 404 377 403 365 Q 402 356 409 347 Z" style="fill: #0070C0;"></path>
                                                                        <path d="M 390 157 Q 453 102 528 22 Q 544 1 560 -3 Q 570 -4 577 7 Q 590 20 576 65 Q 560 131 390 188 Q 381 194 379 181 Q 379 168 390 157 Z" style="fill: #0070C0;"></path>
                                    
                                    
                                                                                                                                                                                                                                                                                                                                                                                                                                                                                                                                                    </g>
                            </svg>