<svg width='83' height='83' >
                                <g transform="translate(3, 70) scale(0.07, -0.07)">
                                    <!-- 先将完整的字以灰色字体绘制完成，层级位于下面 -->
                                                                        <path d="M 680 662 Q 710 725 741 743 Q 760 762 745 781 Q 729 796 675 825 Q 657 834 634 826 Q 537 787 368 766 C 338 762 347 728 377 733 Q 378 733 611 774 Q 636 778 645 769 Q 652 762 649 746 Q 639 704 626 670 C 616 642 667 635 680 662 Z" style="fill: #0070C0;"></path>
                                                                        <path d="M 345 593 Q 360 583 382 586 Q 479 608 691 628 Q 701 629 703 638 Q 703 645 680 662 C 662 676 656 675 626 670 Q 625 671 622 670 Q 469 633 350 620 C 320 617 318 606 345 593 Z" style="fill: #0070C0;"></path>
                                                                        <path d="M 295 401 Q 325 495 345 593 L 350 620 Q 368 725 377 733 C 385 753 385 753 368 766 Q 353 781 330 792 Q 311 805 297 801 Q 284 794 290 780 Q 308 750 300 676 Q 297 664 296 647 Q 272 464 213 329 Q 162 218 65 91 Q 59 85 57 79 Q 53 67 65 69 Q 96 75 185 185 Q 209 218 231 257 Q 262 312 286 376 L 295 401 Z" style="fill: #0070C0;"></path>
                                                                        <path d="M 577 393 Q 581 472 593 515 Q 609 543 556 565 Q 523 583 505 576 Q 489 570 504 548 Q 525 523 526 489 Q 529 467 528 106 Q 527 90 519 85 Q 509 76 483 82 Q 453 86 424 90 Q 391 99 395 89 Q 398 82 418 70 Q 491 27 512 0 Q 537 -31 553 -31 Q 566 -31 579 2 Q 594 45 588 115 Q 578 235 576 355 L 577 393 Z" style="fill: #0070C0;"></path>
                                                                        <path d="M 286 376 Q 320 360 342 366 Q 405 385 410 384 Q 423 381 412 357 Q 373 263 337 218 Q 300 169 234 116 Q 221 106 229 103 Q 239 102 256 111 Q 317 139 366 189 Q 414 235 474 353 Q 484 372 494 382 Q 507 392 500 401 Q 491 411 459 424 Q 440 434 387 414 Q 332 405 295 401 C 265 398 258 387 286 376 Z" style="fill: #0070C0;"></path>
                                                                        <path d="M 606 365 Q 658 392 692 411 Q 758 456 795 468 Q 819 477 809 497 Q 796 516 769 535 Q 744 553 731 550 Q 716 550 720 535 Q 721 501 656 441 Q 625 411 592 379 C 570 358 579 351 606 365 Z" style="fill: #0070C0;"></path>
                                                                        <path d="M 592 379 Q 583 388 577 393 C 555 413 557 379 576 355 Q 661 247 756 148 Q 778 123 820 119 Q 895 112 973 124 Q 992 125 995 131 Q 998 138 982 145 Q 796 221 768 240 Q 708 276 606 365 L 592 379 Z" style="fill: #0070C0;"></path>
                                    
                                    
                                                                                                                                                                                                                                                                                                                                                                                                                                                                                                                                                                                                                                </g>
                            </svg>