<svg width='83' height='83' >
                                <g transform="translate(3, 70) scale(0.07, -0.07)">
                                    <!-- 先将完整的字以灰色字体绘制完成，层级位于下面 -->
                                                                        <path d="M 692 702 Q 717 760 748 778 Q 764 794 751 813 Q 678 873 627 847 Q 535 815 374 789 C 344 784 349 752 379 757 Q 392 759 400 761 L 617 806 Q 657 815 661 792 Q 662 786 661 780 Q 650 738 641 712 C 632 684 680 675 692 702 Z" style="fill: #0070C0;"></path>
                                                                        <path d="M 353 627 Q 357 623 382 627 Q 494 648 570 658 Q 629 665 698 672 Q 709 674 710 682 Q 710 688 692 702 L 641 712 Q 635 713 596 704 Q 498 678 357 657 C 327 653 323 632 353 627 Z" style="fill: #0070C0;"></path>
                                                                        <path d="M 374 789 Q 357 808 330 820 Q 310 831 297 827 Q 284 819 290 805 Q 308 774 303 710 Q 272 484 235 378 Q 227 354 216 324 Q 164 208 61 69 Q 55 61 53 55 Q 49 43 61 45 Q 103 51 201 192 L 235 248 Q 319 417 353 627 L 357 657 Q 369 735 378 755 Q 378 756 379 757 C 386 778 386 778 374 789 Z" style="fill: #0070C0;"></path>
                                                                        <path d="M 412 514 Q 377 542 359 537 Q 353 535 350 531 Q 347 525 355 515 Q 388 423 362 286 Q 349 245 354 221 Q 363 189 374 176 Q 384 165 394 176 Q 417 200 419 299 Q 419 443 425 484 C 427 502 427 502 412 514 Z" style="fill: #0070C0;"></path>
                                                                        <path d="M 668 256 Q 660 227 681 196 Q 694 178 700 178 Q 713 179 729 208 Q 748 240 747 265 Q 737 331 738 441 Q 738 468 755 497 Q 763 514 760 521 L 759 525 Q 729 551 680 570 Q 664 577 631 564 Q 572 543 566 541 Q 496 517 412 514 C 382 512 395 479 425 484 Q 429 484 543 508 Q 637 532 657 519 Q 672 489 673 363 Q 674 282 668 256 Z" style="fill: #0070C0;"></path>
                                                                        <path d="M 513 376 Q 506 159 431 83 Q 402 54 361 31 Q 326 14 270 -9 Q 259 -13 255 -16 Q 251 -19 265 -24 Q 353 -29 461 44 L 479 63 Q 543 135 559 298 Q 562 355 580 402 Q 584 412 578 418 Q 558 439 530 451 Q 508 461 494 456 Q 474 450 489 433 Q 514 405 513 376 Z" style="fill: #0070C0;"></path>
                                                                        <path d="M 627 133 Q 679 67 735 -16 Q 757 -57 778 -46 Q 782 -45 784 -42 Q 800 -29 794 20 Q 790 84 633 167 Q 625 174 621 161 Q 617 145 627 133 Z" style="fill: #0070C0;"></path>
                                    
                                    
                                                                                                                                                                                                                                                                                                                                                                                                                                                                                                                                                                                                                                </g>
                            </svg>