<svg width='83' height='83' >
                                <g transform="translate(3, 70) scale(0.07, -0.07)">
                                    <!-- 先将完整的字以灰色字体绘制完成，层级位于下面 -->
                                                                        <path d="M 699 670 Q 727 736 754 752 Q 770 768 757 787 Q 691 841 643 825 Q 531 789 366 772 C 336 769 353 738 383 742 Q 393 742 624 782 Q 651 788 661 776 Q 668 769 667 753 Q 657 708 646 672 C 638 643 687 643 699 670 Z" style="fill: #0070C0;"></path>
                                                                        <path d="M 353 601 Q 368 586 391 591 Q 494 615 715 634 Q 725 635 727 643 Q 727 652 699 670 C 684 680 675 679 646 672 Q 486 636 359 623 Q 355 623 356 622 C 331 618 331 618 353 601 Z" style="fill: #0070C0;"></path>
                                                                        <path d="M 366 772 Q 321 806 303 800 Q 290 793 296 779 Q 315 746 307 669 Q 277 462 242 365 Q 233 343 224 319 Q 175 205 76 75 Q 72 68 69 62 Q 65 52 76 53 Q 109 57 196 172 Q 220 206 242 247 Q 324 412 353 601 L 356 622 Q 362 658 368 689 Q 372 711 378 730 Q 382 736 383 742 C 388 757 388 757 366 772 Z" style="fill: #0070C0;"></path>
                                                                        <path d="M 431 526 Q 461 475 484 461 Q 494 457 504 465 Q 511 474 511 487 Q 508 523 445 554 Q 433 560 426 558 Q 422 558 421 548 Q 421 539 431 526 Z" style="fill: #0070C0;"></path>
                                                                        <path d="M 619 457 Q 712 551 724 558 Q 740 570 729 583 Q 716 596 691 605 Q 669 614 658 610 Q 648 606 653 596 Q 659 568 585 454 Q 584 453 583 450 C 568 424 598 436 619 457 Z" style="fill: #0070C0;"></path>
                                                                        <path d="M 659 424 Q 723 431 774 437 Q 784 436 792 447 Q 793 457 772 468 Q 741 492 645 463 Q 632 462 619 457 L 583 450 Q 556 447 377 423 Q 349 420 370 403 Q 400 379 425 383 L 465 390 Q 534 405 619 418 L 659 424 Z" style="fill: #0070C0;"></path>
                                                                        <path d="M 682 251 Q 896 251 903 260 Q 909 272 892 286 Q 835 328 767 311 Q 728 305 682 296 L 634 288 Q 550 282 491 269 L 439 263 Q 364 256 285 246 Q 263 245 279 227 Q 292 214 311 207 Q 332 201 348 206 Q 388 216 435 225 L 486 233 Q 558 245 634 248 L 682 251 Z" style="fill: #0070C0;"></path>
                                                                        <path d="M 425 383 Q 443 343 439 263 L 435 225 Q 429 117 347 37 Q 311 6 307 0 Q 306 -7 316 -7 Q 347 -7 401 41 Q 464 104 486 233 L 491 269 Q 494 293 498 319 Q 502 337 504 348 Q 511 366 492 376 Q 477 385 465 390 C 438 403 414 411 425 383 Z" style="fill: #0070C0;"></path>
                                                                        <path d="M 634 248 Q 634 92 620 58 Q 613 24 645 -28 Q 655 -47 664 -50 Q 674 -51 680 -38 Q 692 -7 688 22 Q 684 146 682 251 L 682 296 Q 682 359 687 386 Q 690 401 657 422 Q 657 423 659 424 C 639 446 606 445 619 418 Q 620 417 622 415 Q 632 394 634 288 L 634 248 Z" style="fill: #0070C0;"></path>
                                    
                                    
                                                                                                                                                                                                                                                                                                                                                                                                                                                                                                                                                                                                                                                                                                                                                                                        </g>
                            </svg>