<svg width='83' height='83' >
                                <g transform="translate(3, 70) scale(0.07, -0.07)">
                                    <!-- 先将完整的字以灰色字体绘制完成，层级位于下面 -->
                                                                        <path d="M 690 679 Q 721 734 747 749 Q 766 768 752 788 Q 736 804 681 833 Q 662 843 638 835 Q 518 790 350 774 C 320 771 342 736 372 741 Q 376 741 612 783 Q 639 789 649 778 Q 658 766 630 679 C 621 650 675 653 690 679 Z" style="fill: #0070C0;"></path>
                                                                        <path d="M 339 607 Q 351 595 375 599 Q 480 623 707 642 Q 717 643 719 652 Q 720 659 690 679 C 676 689 659 685 630 679 Q 470 645 344 631 C 314 628 314 623 339 607 Z" style="fill: #0070C0;"></path>
                                                                        <path d="M 350 774 Q 310 810 288 802 Q 275 795 280 780 Q 298 753 292 693 Q 261 458 199 321 Q 148 216 46 80 Q 39 73 37 67 Q 33 55 45 57 Q 75 63 169 174 Q 193 208 217 247 Q 304 403 339 607 L 344 631 Q 348 659 355 685 Q 359 706 366 725 Q 370 732 372 741 C 376 753 373 755 350 774 Z" style="fill: #0070C0;"></path>
                                                                        <path d="M 393 537 Q 400 482 297 385 Q 290 381 299 379 Q 350 379 446 491 Q 450 495 453 498 Q 459 502 458 510 Q 457 517 448 527 Q 423 552 399 548 Q 392 547 393 537 Z" style="fill: #0070C0;"></path>
                                                                        <path d="M 369 252 Q 438 330 462 347 Q 471 354 468 365 Q 467 375 448 397 Q 429 415 415 417 Q 400 418 403 400 Q 415 364 328 266 Q 241 179 209 151 Q 200 144 197 140 Q 193 131 205 132 Q 235 132 343 228 L 369 252 Z" style="fill: #0070C0;"></path>
                                                                        <path d="M 343 228 Q 358 192 342 75 Q 329 48 355 0 Q 358 -6 362 -10 Q 375 -23 385 -2 Q 397 31 396 68 Q 392 173 395 196 Q 401 218 393 226 Q 380 242 369 252 C 347 273 333 256 343 228 Z" style="fill: #0070C0;"></path>
                                                                        <path d="M 658 461 Q 808 495 810 496 Q 817 503 814 510 Q 808 520 784 527 Q 759 533 732 523 Q 698 513 661 502 L 611 491 Q 565 484 516 480 Q 485 476 507 460 Q 546 439 610 453 L 612 453 L 658 461 Z" style="fill: #0070C0;"></path>
                                                                        <path d="M 647 357 Q 651 411 658 461 L 661 502 Q 662 509 663 516 Q 667 537 670 550 Q 674 560 676 570 Q 679 579 662 592 Q 634 608 612 612 Q 599 615 592 608 Q 585 601 592 589 Q 607 568 611 491 L 612 453 Q 612 404 611 348 C 610 318 645 327 647 357 Z" style="fill: #0070C0;"></path>
                                                                        <path d="M 688 159 Q 719 208 748 279 Q 761 307 781 325 Q 800 341 787 354 Q 774 367 744 378 Q 720 385 693 373 Q 672 366 647 357 L 611 348 Q 509 332 509 330 Q 505 323 523 315 Q 557 300 607 313 Q 662 332 674 332 Q 698 328 691 303 Q 676 239 650 191 L 629 159 Q 569 89 456 56 Q 443 52 454 43 Q 458 39 497 41 Q 585 50 660 123 L 688 159 Z" style="fill: #0070C0;"></path>
                                                                        <path d="M 660 123 Q 768 8 805 9 Q 883 10 945 21 Q 978 25 975 35 Q 972 41 819 86 Q 759 107 688 159 L 650 191 Q 625 213 598 239 Q 564 273 533 272 Q 517 272 514 267 Q 513 261 527 252 Q 554 237 629 159 L 660 123 Z" style="fill: #0070C0;"></path>
                                    
                                    
                                                                                                                                                                                                                                                                                                                                                                                                                                                                                                                                                                                                                                                                                                                                                                                                                                                                    </g>
                            </svg>