<svg width='83' height='83' >
                                <g transform="translate(3, 70) scale(0.07, -0.07)">
                                    <!-- 先将完整的字以灰色字体绘制完成，层级位于下面 -->
                                                                        <path d="M 266 308 Q 287 638 292 655 Q 302 701 300 707 Q 294 713 286 720 Q 250 739 226 743 Q 210 747 202 738 Q 195 731 203 716 Q 227 679 227 654 Q 234 488 223 294 C 221 264 264 278 266 308 Z" style="fill: #0070C0;"></path>
                                                                        <path d="M 359 334 Q 308 322 266 308 L 223 294 Q 180 281 145 264 Q 132 260 134 277 Q 140 335 145 394 Q 149 416 138 431 Q 105 467 79 463 Q 69 459 77 440 Q 104 382 95 322 Q 89 265 66 240 Q 50 221 58 209 Q 71 196 88 186 Q 101 179 110 189 Q 140 229 288 278 Q 336 296 354 294 C 384 296 388 341 359 334 Z" style="fill: #0070C0;"></path>
                                                                        <path d="M 354 294 Q 358 275 365 260 Q 372 245 384 255 Q 405 273 413 351 Q 429 438 437 448 Q 444 461 436 474 Q 420 487 391 506 Q 381 513 369 508 Q 362 504 364 493 Q 383 463 364 349 Q 361 342 359 334 L 354 294 Z" style="fill: #0070C0;"></path>
                                                                        <path d="M 732 524 Q 762 635 801 666 Q 817 687 801 705 Q 717 765 664 729 Q 592 698 517 681 Q 501 678 503 668 Q 506 661 526 655 Q 553 646 588 661 Q 694 688 700 683 Q 712 673 708 649 Q 695 582 679 528 C 671 499 724 495 732 524 Z" style="fill: #0070C0;"></path>
                                                                        <path d="M 544 449 Q 649 476 746 491 Q 756 492 757 502 Q 757 509 732 524 L 679 528 Q 675 528 673 526 Q 601 501 541 486 C 512 479 515 442 544 449 Z" style="fill: #0070C0;"></path>
                                                                        <path d="M 965 184 Q 947 215 923 316 Q 922 334 913 338 Q 906 342 903 322 Q 881 213 863 178 Q 817 129 680 131 Q 628 132 586 147 Q 549 163 540 185 Q 510 246 544 449 C 549 479 549 480 541 486 Q 540 487 539 488 Q 526 501 502 511 Q 489 515 480 510 Q 473 506 478 488 Q 491 448 488 409 Q 475 219 491 165 Q 495 138 522 116 Q 612 49 826 82 Q 841 86 858 90 Q 910 105 960 137 Q 981 156 965 184 Z" style="fill: #0070C0;"></path>
                                    
                                    
                                                                                                                                                                                                                                                                                                                                                                                                                                                                                                                                                    </g>
                            </svg>