<svg width='83' height='83' >
                                <g transform="translate(3, 70) scale(0.07, -0.07)">
                                    <!-- 先将完整的字以灰色字体绘制完成，层级位于下面 -->
                                                                        <path d="M 532 621 Q 548 744 563 796 Q 567 806 548 821 Q 515 840 493 844 Q 477 848 470 840 Q 463 833 470 818 Q 491 793 492 615 C 492 585 528 591 532 621 Z" style="fill: #0070C0;"></path>
                                                                        <path d="M 683 639 Q 602 633 532 621 L 492 615 Q 423 605 365 589 Q 343 585 349 611 Q 361 686 351 701 Q 315 740 290 737 Q 280 733 287 713 Q 305 671 298 631 Q 294 591 277 574 Q 258 556 265 542 Q 275 526 293 515 Q 306 506 317 515 Q 350 554 573 591 Q 664 607 690 599 C 720 595 713 641 683 639 Z" style="fill: #0070C0;"></path>
                                                                        <path d="M 690 599 Q 696 584 703 571 Q 712 556 723 568 Q 747 593 746 676 Q 755 715 762 725 Q 769 741 758 753 Q 739 768 706 784 Q 693 791 682 784 Q 675 780 678 767 Q 684 761 697 709 Q 696 679 683 639 L 690 599 Z" style="fill: #0070C0;"></path>
                                                                        <path d="M 668 470 Q 741 476 833 476 Q 912 473 920 486 Q 927 499 907 516 Q 841 561 774 542 Q 504 493 154 445 Q 130 442 148 423 Q 184 392 228 401 Q 411 455 614 466 L 668 470 Z" style="fill: #0070C0;"></path>
                                                                        <path d="M 345 357 Q 333 361 314 365 Q 302 368 299 363 Q 292 357 300 342 Q 325 288 339 200 Q 342 173 357 155 Q 373 134 379 149 Q 383 165 381 192 L 377 224 Q 365 309 365 330 C 364 351 364 351 345 357 Z" style="fill: #0070C0;"></path>
                                                                        <path d="M 518 242 Q 537 309 559 330 Q 581 355 559 370 Q 496 404 495 404 Q 485 404 477 399 Q 438 375 345 357 C 316 351 336 321 365 330 Q 371 333 453 350 Q 478 354 484 345 Q 487 342 468 246 C 462 217 510 213 518 242 Z" style="fill: #0070C0;"></path>
                                                                        <path d="M 381 192 Q 385 192 392 193 Q 435 203 529 211 Q 539 212 540 221 Q 540 228 518 242 C 500 254 497 253 468 246 Q 417 233 377 224 C 348 217 351 190 381 192 Z" style="fill: #0070C0;"></path>
                                                                        <path d="M 584 46 Q 562 53 533 60 Q 520 64 521 56 Q 521 47 532 38 Q 596 -17 637 -61 Q 650 -70 664 -53 Q 706 1 702 85 Q 690 277 697 408 Q 704 436 697 447 Q 690 457 668 470 C 643 487 605 495 614 466 Q 630 415 632 396 Q 632 392 632 385 Q 647 73 625 45 Q 613 38 584 46 Z" style="fill: #0070C0;"></path>
                                    
                                    
                                                                                                                                                                                                                                                                                                                                                                                                                                                                                                                                                                                                                                                                                                            </g>
                            </svg>