<svg width='83' height='83' >
                                <g transform="translate(3, 70) scale(0.07, -0.07)">
                                    <!-- 先将完整的字以灰色字体绘制完成，层级位于下面 -->
                                                                        <path d="M 541 619 Q 565 766 576 786 Q 580 796 560 812 Q 527 831 504 837 Q 488 841 480 833 Q 473 826 480 811 Q 492 795 493 782 Q 500 706 500 614 C 500 584 536 589 541 619 Z" style="fill: #0070C0;"></path>
                                                                        <path d="M 704 635 Q 617 631 541 619 L 500 614 Q 418 604 346 585 Q 324 581 331 606 Q 344 676 335 693 Q 301 733 274 730 Q 264 726 270 707 Q 286 665 279 626 Q 273 587 257 571 Q 238 555 245 539 Q 255 523 272 512 Q 285 503 296 511 Q 338 556 617 596 Q 669 603 694 598 C 724 595 734 637 704 635 Z" style="fill: #0070C0;"></path>
                                                                        <path d="M 694 598 Q 694 570 700 548 Q 707 529 722 539 Q 752 558 773 647 Q 795 704 808 716 Q 820 729 811 746 Q 795 767 764 792 Q 752 802 738 798 Q 729 797 730 781 Q 739 763 730 695 Q 720 659 704 635 C 694 618 694 618 694 598 Z" style="fill: #0070C0;"></path>
                                                                        <path d="M 208 399 Q 233 338 213 198 Q 207 168 232 138 Q 241 128 250 138 Q 271 168 268 205 Q 264 287 275 371 Q 281 392 263 402 Q 247 412 232 420 Q 220 424 212 419 Q 205 413 208 399 Z" style="fill: #0070C0;"></path>
                                                                        <path d="M 370 472 Q 406 409 373 212 Q 363 164 339 109 Q 314 46 232 -28 Q 217 -41 214 -47 Q 213 -54 224 -54 Q 264 -54 330 14 Q 412 101 439 305 Q 448 416 453 443 Q 460 465 439 475 Q 390 500 375 498 Q 354 494 370 472 Z" style="fill: #0070C0;"></path>
                                                                        <path d="M 794 165 Q 821 324 871 372 Q 890 394 873 414 Q 854 429 795 456 Q 774 465 750 455 Q 665 421 536 410 Q 520 409 521 399 Q 522 390 542 384 Q 567 371 605 382 Q 752 406 761 398 Q 777 383 773 352 Q 760 252 738 173 C 730 144 789 135 794 165 Z" style="fill: #0070C0;"></path>
                                                                        <path d="M 492 275 Q 465 272 486 255 Q 516 230 544 237 Q 649 256 714 260 Q 724 259 733 271 Q 734 281 712 292 Q 685 313 615 293 Q 608 293 600 290 Q 585 287 492 275 Z" style="fill: #0070C0;"></path>
                                                                        <path d="M 738 173 Q 735 174 732 173 Q 606 145 506 135 Q 482 134 497 112 Q 504 102 516 97 Q 529 93 545 96 Q 627 112 808 124 Q 821 125 823 135 Q 823 144 794 165 C 778 177 768 176 738 173 Z" style="fill: #0070C0;"></path>
                                    
                                    
                                                                                                                                                                                                                                                                                                                                                                                                                                                                                                                                                                                                                                                                                                            </g>
                            </svg>