<svg width='83' height='83' >
                                <g transform="translate(3, 70) scale(0.07, -0.07)">
                                    <!-- 先将完整的字以灰色字体绘制完成，层级位于下面 -->
                                                                        <path d="M 265 336 Q 283 678 298 728 Q 301 738 281 753 Q 247 771 224 775 Q 208 779 200 770 Q 193 763 201 748 Q 226 711 226 686 Q 233 518 224 321 C 223 291 263 306 265 336 Z" style="fill: #0070C0;"></path>
                                                                        <path d="M 338 358 Q 298 348 265 336 L 224 321 Q 184 308 151 291 Q 136 287 138 304 Q 139 352 142 402 Q 143 424 134 436 Q 119 451 96 462 Q 86 466 76 464 Q 67 460 75 442 Q 102 391 97 339 Q 94 290 76 265 Q 61 247 69 236 Q 81 223 98 215 Q 108 211 124 224 Q 166 267 277 304 Q 322 322 335 319 C 365 321 367 366 338 358 Z" style="fill: #0070C0;"></path>
                                                                        <path d="M 335 319 Q 335 318 336 317 Q 340 298 349 287 Q 356 277 366 286 Q 378 302 387 357 Q 390 423 402 464 Q 409 483 392 494 Q 379 504 364 513 Q 354 517 345 514 Q 338 510 340 495 Q 352 455 338 358 L 335 319 Z" style="fill: #0070C0;"></path>
                                                                        <path d="M 632 618 Q 683 631 739 642 Q 778 651 783 657 Q 792 664 787 673 Q 780 683 752 691 Q 721 695 634 664 L 588 652 Q 540 642 488 636 Q 454 629 479 614 Q 521 590 576 606 Q 580 607 589 608 L 632 618 Z" style="fill: #0070C0;"></path>
                                                                        <path d="M 459 483 Q 480 459 501 430 Q 510 417 523 416 Q 532 415 537 425 Q 543 435 540 461 Q 539 479 514 496 Q 457 532 444 527 Q 440 524 439 513 Q 440 504 459 483 Z" style="fill: #0070C0;"></path>
                                                                        <path d="M 722 551 Q 703 517 663 465 Q 657 458 663 451 Q 670 450 678 454 Q 757 511 795 533 Q 811 537 808 549 Q 784 597 740 600 Q 727 599 727 580 Q 730 567 722 551 Z" style="fill: #0070C0;"></path>
                                                                        <path d="M 635 349 Q 720 365 858 366 Q 912 366 920 376 Q 926 389 908 402 Q 853 439 818 429 Q 751 413 634 391 Q 627 390 621 388 L 576 381 Q 495 369 408 355 Q 387 352 403 335 Q 433 308 473 317 Q 518 330 572 340 L 635 349 Z" style="fill: #0070C0;"></path>
                                                                        <path d="M 572 340 Q 554 184 433 103 Q 391 76 334 49 Q 321 43 321 39 Q 322 35 333 34 Q 352 30 396 45 Q 472 66 526 118 Q 598 187 616 325 L 621 388 Q 621 389 622 392 Q 628 509 632 618 L 634 664 Q 634 677 659 758 Q 666 771 656 783 Q 634 799 597 811 Q 573 818 565 811 Q 556 804 563 792 Q 587 755 588 652 L 589 608 Q 588 493 576 381 L 572 340 Z" style="fill: #0070C0;"></path>
                                                                        <path d="M 616 325 Q 764 39 823 29 Q 824 30 826 29 Q 890 30 947 31 Q 972 31 972 37 Q 973 44 948 59 Q 818 122 772 174 Q 694 261 635 349 C 618 374 602 352 616 325 Z" style="fill: #0070C0;"></path>
                                    
                                    
                                                                                                                                                                                                                                                                                                                                                                                                                                                                                                                                                                                                                                                                                                                                                                                        </g>
                            </svg>