<svg width='83' height='83' >
                                <g transform="translate(3, 70) scale(0.07, -0.07)">
                                    <!-- 先将完整的字以灰色字体绘制完成，层级位于下面 -->
                                                                        <path d="M 484 779 Q 511 758 539 732 Q 555 719 572 720 Q 584 721 588 736 Q 592 752 581 785 Q 569 815 476 832 Q 458 835 452 831 Q 446 827 449 813 Q 453 800 484 779 Z" style="fill: #0070C0;"></path>
                                                                        <path d="M 591 641 Q 633 647 852 666 Q 864 665 875 678 Q 876 691 852 705 Q 816 726 784 721 Q 532 666 349 652 Q 273 648 187 640 Q 154 639 178 617 Q 214 584 247 591 Q 317 604 400 615 L 430 619 Q 487 629 552 636 L 591 641 Z" style="fill: #0070C0;"></path>
                                                                        <path d="M 400 615 Q 400 611 404 605 Q 432 530 404 429 Q 382 408 411 353 Q 414 349 418 344 Q 428 331 437 344 Q 455 363 463 487 Q 466 559 470 577 Q 471 593 458 601 Q 445 613 430 619 C 403 632 392 637 400 615 Z" style="fill: #0070C0;"></path>
                                                                        <path d="M 552 636 Q 585 603 566 436 Q 539 384 586 325 Q 596 312 606 325 Q 621 343 621 405 Q 622 576 624 587 Q 628 608 623 615 Q 619 631 591 641 C 563 652 534 660 552 636 Z" style="fill: #0070C0;"></path>
                                                                        <path d="M 302 506 Q 265 463 222 426 Q 212 419 206 403 Q 197 381 201 363 Q 202 344 227 350 Q 287 375 310 444 Q 325 474 325 499 Q 324 509 317 512 Q 308 513 302 506 Z" style="fill: #0070C0;"></path>
                                                                        <path d="M 706 494 Q 751 457 805 403 Q 821 384 837 381 Q 846 380 853 391 Q 863 404 849 447 Q 839 486 771 507 Q 728 520 706 525 Q 696 529 695 517 Q 695 504 706 494 Z" style="fill: #0070C0;"></path>
                                                                        <path d="M 533 92 Q 554 240 567 272 Q 570 282 552 297 Q 519 316 497 321 Q 481 324 474 316 Q 467 309 474 295 Q 487 277 488 264 Q 494 182 493 88 C 493 58 529 62 533 92 Z" style="fill: #0070C0;"></path>
                                                                        <path d="M 731 109 Q 625 105 533 92 L 493 88 Q 414 79 343 62 Q 318 58 326 87 Q 332 123 338 161 Q 342 188 332 203 Q 296 248 266 244 Q 254 240 262 218 Q 283 167 273 117 Q 266 68 245 48 Q 224 29 231 14 Q 243 -4 261 -17 Q 273 -24 294 -12 Q 360 36 615 65 Q 699 75 722 66 C 752 61 761 110 731 109 Z" style="fill: #0070C0;"></path>
                                                                        <path d="M 722 66 Q 718 42 745 -4 Q 755 -20 767 -7 Q 791 21 788 111 Q 797 216 804 229 Q 811 245 799 259 Q 777 274 741 291 Q 728 298 714 290 Q 707 286 711 271 Q 741 235 731 109 L 722 66 Z" style="fill: #0070C0;"></path>
                                    
                                    
                                                                                                                                                                                                                                                                                                                                                                                                                                                                                                                                                                                                                                                                                                                                                                                        </g>
                            </svg>