<svg width='83' height='83' >
                                <g transform="translate(3, 70) scale(0.07, -0.07)">
                                    <!-- 先将完整的字以灰色字体绘制完成，层级位于下面 -->
                                                                        <path d="M 259 347 Q 266 488 269 615 Q 272 651 284 704 Q 287 714 268 727 Q 237 743 214 747 Q 199 750 192 742 Q 185 735 193 721 Q 217 688 217 665 Q 227 512 221 333 C 220 303 258 317 259 347 Z" style="fill: #0070C0;"></path>
                                                                        <path d="M 334 373 Q 294 361 259 347 L 221 333 Q 184 320 152 302 Q 137 298 139 315 Q 139 424 130 434 Q 115 447 93 456 Q 83 460 74 458 Q 65 452 74 437 Q 99 392 98 344 Q 97 298 81 276 Q 68 258 76 247 Q 88 235 104 229 Q 117 225 124 232 Q 143 271 295 328 Q 317 337 329 336 C 359 339 363 382 334 373 Z" style="fill: #0070C0;"></path>
                                                                        <path d="M 329 336 Q 329 335 330 332 Q 334 314 341 303 Q 348 293 357 302 Q 375 320 377 352 Q 380 412 395 454 Q 402 472 387 483 Q 374 493 361 502 Q 351 506 343 503 Q 336 499 337 485 Q 350 449 334 373 L 329 336 Z" style="fill: #0070C0;"></path>
                                                                        <path d="M 469 716 Q 473 683 420 617 Q 419 617 418 615 Q 402 597 362 562 Q 355 558 363 555 Q 426 555 528 660 Q 532 664 536 667 Q 543 671 543 680 Q 540 704 505 721 Q 486 730 477 729 Q 468 728 469 716 Z" style="fill: #0070C0;"></path>
                                                                        <path d="M 668 700 Q 714 669 764 632 Q 777 622 792 623 Q 802 624 805 636 Q 808 649 798 676 Q 789 703 748 721 Q 706 734 660 744 Q 645 745 640 743 Q 636 739 638 727 Q 642 717 668 700 Z" style="fill: #0070C0;"></path>
                                                                        <path d="M 407 253 Q 483 331 584 483 L 598 505 Q 619 538 620 540 Q 619 550 606 561 Q 578 589 544 585 Q 535 584 537 571 Q 552 490 406 310 Q 397 301 388 291 Q 342 242 229 147 Q 222 143 231 140 Q 279 147 391 238 L 407 253 Z" style="fill: #0070C0;"></path>
                                                                        <path d="M 584 483 Q 663 384 751 293 Q 775 268 816 266 Q 891 262 969 275 Q 988 276 990 282 Q 993 289 977 296 Q 803 362 798 364 Q 722 403 650 462 Q 617 490 598 505 C 575 524 565 506 584 483 Z" style="fill: #0070C0;"></path>
                                                                        <path d="M 419 251 Q 413 251 407 253 C 385 258 385 258 391 238 Q 428 124 433 107 Q 443 40 460 20 Q 478 -2 483 13 Q 487 28 487 50 L 483 84 Q 465 184 463 214 C 460 244 449 248 419 251 Z" style="fill: #0070C0;"></path>
                                                                        <path d="M 703 111 Q 725 190 759 216 Q 775 234 761 251 Q 689 308 636 282 Q 480 237 419 251 C 389 256 433 210 463 214 Q 658 241 660 240 Q 661 239 665 236 Q 675 229 673 210 Q 666 158 655 115 C 648 86 695 82 703 111 Z" style="fill: #0070C0;"></path>
                                                                        <path d="M 487 50 Q 494 50 503 51 Q 572 64 719 74 Q 729 75 731 83 Q 731 92 703 111 C 687 122 684 122 655 115 Q 559 93 483 84 C 453 80 457 49 487 50 Z" style="fill: #0070C0;"></path>
                                    
                                    
                                                                                                                                                                                                                                                                                                                                                                                                                                                                                                                                                                                                                                                                                                                                                                                                                                                                    </g>
                            </svg>