<svg width='83' height='83' >
                                <g transform="translate(3, 70) scale(0.07, -0.07)">
                                    <!-- 先将完整的字以灰色字体绘制完成，层级位于下面 -->
                                                                        <path d="M 534 688 Q 553 790 564 819 Q 567 829 550 842 Q 520 861 499 865 Q 486 869 478 862 Q 471 855 477 842 Q 487 827 489 817 Q 493 756 494 683 C 494 653 528 659 534 688 Z" style="fill: #0070C0;"></path>
                                                                        <path d="M 680 699 Q 599 698 534 688 L 494 683 Q 424 676 365 661 Q 346 658 353 680 Q 366 746 360 758 Q 347 774 327 789 Q 317 795 307 794 Q 297 790 303 773 Q 316 736 307 699 Q 301 665 285 651 Q 267 636 273 623 Q 283 608 297 597 Q 309 590 319 596 Q 352 629 565 660 Q 649 672 672 665 C 702 661 710 700 680 699 Z" style="fill: #0070C0;"></path>
                                                                        <path d="M 672 665 Q 673 643 679 625 Q 683 610 696 618 Q 721 639 737 710 Q 762 767 766 769 Q 775 781 768 794 Q 753 810 727 832 Q 717 839 706 836 Q 699 835 699 822 Q 715 777 683 704 Q 680 703 680 699 L 672 665 Z" style="fill: #0070C0;"></path>
                                                                        <path d="M 491 590 Q 540 545 567 537 Q 580 536 588 548 Q 592 560 588 574 Q 576 610 520 620 Q 487 629 476 623 Q 472 622 474 611 Q 477 601 491 590 Z" style="fill: #0070C0;"></path>
                                                                        <path d="M 260 479 Q 248 506 236 517 Q 217 533 214 505 Q 218 475 183 432 Q 132 387 163 323 Q 178 295 201 323 Q 204 329 257 448 C 266 467 266 467 260 479 Z" style="fill: #0070C0;"></path>
                                                                        <path d="M 257 448 Q 285 433 318 443 Q 465 488 711 508 Q 757 512 773 509 Q 783 499 780 493 Q 762 448 743 402 L 745 400 Q 754 396 773 407 Q 836 441 884 448 Q 924 455 925 465 Q 924 477 847 537 Q 820 558 734 542 Q 625 530 374 493 Q 317 486 260 479 C 230 475 229 458 257 448 Z" style="fill: #0070C0;"></path>
                                                                        <path d="M 374 395 Q 338 391 363 374 Q 396 352 475 363 Q 535 372 596 382 Q 629 389 634 393 Q 643 400 639 408 Q 632 420 604 428 Q 576 435 546 424 Q 509 414 469 406 Q 426 399 374 395 Z" style="fill: #0070C0;"></path>
                                                                        <path d="M 514 256 Q 583 265 759 265 Q 778 266 783 274 Q 789 284 772 298 Q 721 335 686 327 Q 560 302 264 261 Q 243 260 259 243 Q 272 230 290 225 Q 309 219 326 224 Q 396 243 477 252 L 514 256 Z" style="fill: #0070C0;"></path>
                                                                        <path d="M 477 252 Q 477 248 480 242 Q 493 205 488 88 Q 487 60 483 53 Q 479 38 451 42 Q 430 45 409 47 Q 396 48 395 41 Q 394 34 405 24 Q 463 -27 483 -57 Q 496 -70 507 -68 Q 520 -64 532 -29 Q 551 7 549 73 Q 548 143 549 169 Q 558 212 539 234 Q 526 247 514 256 C 491 275 468 281 477 252 Z" style="fill: #0070C0;"></path>
                                                                        <path d="M 303 174 Q 275 131 239 94 Q 212 60 225 20 Q 231 -2 257 9 Q 317 42 322 106 Q 334 142 330 170 Q 326 180 319 183 Q 309 183 303 174 Z" style="fill: #0070C0;"></path>
                                                                        <path d="M 659 159 Q 711 111 773 44 Q 791 22 807 17 Q 817 16 825 27 Q 838 42 824 89 Q 818 114 800 132 Q 781 147 736 165 Q 687 184 660 193 Q 650 199 648 185 Q 647 170 659 159 Z" style="fill: #0070C0;"></path>
                                    
                                    
                                                                                                                                                                                                                                                                                                                                                                                                                                                                                                                                                                                                                                                                                                                                                                                                                                                                                                                                                </g>
                            </svg>