<svg width='83' height='83' >
                                <g transform="translate(3, 70) scale(0.07, -0.07)">
                                    <!-- 先将完整的字以灰色字体绘制完成，层级位于下面 -->
                                                                        <path d="M 542 681 Q 563 796 574 816 Q 577 825 561 839 Q 533 857 512 862 Q 499 865 492 859 Q 485 852 491 839 Q 501 824 502 814 Q 506 750 503 675 C 502 645 537 651 542 681 Z" style="fill: #0070C0;"></path>
                                                                        <path d="M 701 698 Q 616 694 542 681 L 503 675 Q 433 665 373 650 Q 357 647 362 667 Q 368 692 374 718 Q 380 740 372 753 Q 359 771 339 785 Q 329 792 320 790 Q 310 787 315 769 Q 328 729 318 691 Q 311 654 294 639 Q 276 626 282 612 Q 291 596 306 586 Q 313 580 331 588 Q 374 621 586 656 Q 662 669 694 665 C 724 663 731 700 701 698 Z" style="fill: #0070C0;"></path>
                                                                        <path d="M 694 665 Q 695 640 702 622 Q 708 606 721 615 Q 748 636 761 712 Q 780 763 788 770 Q 798 783 790 797 Q 774 813 746 836 Q 736 843 724 840 Q 717 837 717 824 Q 726 812 721 752 Q 714 719 701 698 C 693 684 693 684 694 665 Z" style="fill: #0070C0;"></path>
                                                                        <path d="M 545 514 Q 605 526 734 540 Q 744 539 753 551 Q 754 561 732 572 Q 702 594 602 565 Q 577 561 553 554 Q 499 544 338 522 C 308 518 305 475 335 480 Q 336 480 510 508 L 545 514 Z" style="fill: #0070C0;"></path>
                                                                        <path d="M 338 522 Q 323 538 299 553 Q 281 566 267 563 Q 254 557 259 543 Q 271 512 267 473 Q 231 275 181 173 Q 133 82 50 -18 Q 44 -24 41 -30 Q 37 -40 49 -40 Q 82 -40 175 75 Q 185 91 198 109 Q 273 226 312 397 Q 327 463 335 480 C 345 508 347 514 338 522 Z" style="fill: #0070C0;"></path>
                                                                        <path d="M 564 396 Q 681 420 686 424 Q 693 431 690 438 Q 684 448 660 455 Q 639 461 567 438 L 519 426 Q 467 416 412 412 Q 381 408 403 392 Q 440 371 496 384 Q 506 387 518 387 L 564 396 Z" style="fill: #0070C0;"></path>
                                                                        <path d="M 556 309 Q 560 355 564 396 L 567 438 Q 571 489 571 491 L 570 492 Q 557 505 545 514 C 521 532 502 537 510 508 Q 519 481 519 426 L 518 387 Q 518 353 518 302 C 518 272 553 279 556 309 Z" style="fill: #0070C0;"></path>
                                                                        <path d="M 538 269 Q 623 284 778 284 Q 796 285 800 293 Q 804 303 789 315 Q 734 354 683 334 Q 631 324 556 309 L 518 302 Q 430 289 327 272 Q 308 271 322 255 Q 335 243 351 238 Q 370 234 384 239 Q 438 255 501 264 L 538 269 Z" style="fill: #0070C0;"></path>
                                                                        <path d="M 564 142 Q 628 152 684 159 Q 709 162 701 176 Q 691 192 664 198 Q 627 204 567 185 L 514 174 Q 447 161 388 150 Q 370 146 391 130 Q 406 120 435 124 Q 475 131 515 135 L 564 142 Z" style="fill: #0070C0;"></path>
                                                                        <path d="M 558 58 Q 561 104 564 142 L 567 185 Q 567 203 570 218 Q 577 236 568 245 Q 553 261 538 269 C 512 284 490 292 501 264 Q 510 248 514 174 L 515 135 Q 515 102 515 54 C 515 24 556 28 558 58 Z" style="fill: #0070C0;"></path>
                                                                        <path d="M 515 54 Q 403 44 273 33 Q 252 32 267 14 Q 280 1 297 -5 Q 316 -11 333 -7 Q 556 42 841 22 Q 860 21 866 29 Q 870 41 856 55 Q 805 94 770 87 Q 691 74 558 58 L 515 54 Z" style="fill: #0070C0;"></path>
                                    
                                    
                                                                                                                                                                                                                                                                                                                                                                                                                                                                                                                                                                                                                                                                                                                                                                                                                                                                                                                                                </g>
                            </svg>