<svg width='83' height='83' >
                                <g transform="translate(3, 70) scale(0.07, -0.07)">
                                    <!-- 先将完整的字以灰色字体绘制完成，层级位于下面 -->
                                                                        <path d="M 507 654 Q 528 771 539 786 Q 542 796 526 810 Q 496 829 475 834 Q 462 838 454 831 Q 447 824 453 811 Q 463 796 464 786 Q 468 723 466 649 C 465 619 502 624 507 654 Z" style="fill: #0070C0;"></path>
                                                                        <path d="M 473 615 Q 636 651 672 635 Q 673 636 675 635 C 704 629 714 673 684 672 Q 590 668 507 654 L 466 649 Q 391 639 325 622 Q 306 618 312 641 Q 324 711 317 726 Q 287 763 262 760 Q 252 756 259 739 Q 274 700 266 662 Q 260 625 245 610 Q 227 594 234 581 Q 243 568 258 556 Q 271 549 280 556 Q 301 578 443 609 L 473 615 Z" style="fill: #0070C0;"></path>
                                                                        <path d="M 675 635 Q 676 611 682 594 Q 688 578 701 587 Q 726 608 742 683 Q 767 740 771 742 Q 781 755 773 769 Q 757 785 730 808 Q 720 815 708 812 Q 701 811 701 797 Q 717 754 690 684 L 684 672 L 675 635 Z" style="fill: #0070C0;"></path>
                                                                        <path d="M 510 544 Q 513 548 517 550 Q 524 554 524 564 Q 524 574 513 587 Q 497 608 473 615 C 445 627 442 628 443 609 Q 443 608 444 606 Q 448 516 277 360 Q 273 359 270 355 Q 221 313 103 235 Q 94 231 104 227 Q 132 227 227 277 Q 335 334 497 529 L 510 544 Z" style="fill: #0070C0;"></path>
                                                                        <path d="M 497 529 Q 501 522 510 515 Q 630 400 758 297 Q 803 257 967 299 Q 986 303 987 308 Q 988 315 973 320 Q 774 380 763 384 Q 691 414 519 537 Q 513 541 510 544 C 486 562 477 551 497 529 Z" style="fill: #0070C0;"></path>
                                                                        <path d="M 379 366 Q 346 360 370 345 Q 404 329 474 341 Q 517 350 564 361 Q 588 367 592 370 Q 599 377 595 385 Q 588 395 561 402 Q 534 406 507 395 Q 479 385 450 378 Q 417 371 379 366 Z" style="fill: #0070C0;"></path>
                                                                        <path d="M 275 242 Q 251 260 237 261 Q 233 264 227 258 Q 223 252 227 240 Q 245 209 247 183 Q 251 122 244 54 Q 241 32 250 14 Q 260 -5 276 -16 Q 289 -23 291 -14 Q 298 -10 300 10 Q 303 25 299 77 Q 293 198 297 207 C 299 225 299 225 275 242 Z" style="fill: #0070C0;"></path>
                                                                        <path d="M 535 253 Q 592 260 658 261 Q 674 260 682 249 Q 688 242 683 230 Q 674 65 662 42 Q 658 33 647 36 Q 617 43 586 50 Q 561 54 579 36 Q 640 -13 667 -51 Q 677 -64 689 -55 Q 714 -31 728 83 Q 732 200 751 227 Q 764 245 760 252 Q 753 264 710 293 Q 694 306 680 301 Q 655 292 608 286 Q 425 270 357 256 Q 311 247 275 242 C 245 238 268 198 297 207 Q 336 220 371 227 L 394 232 Q 430 247 505 250 L 535 253 Z" style="fill: #0070C0;"></path>
                                                                        <path d="M 556 130 Q 584 136 614 138 Q 636 139 629 153 Q 619 166 596 172 Q 581 176 560 172 L 514 163 Q 469 156 429 146 L 389 138 Q 358 134 328 128 Q 312 125 330 110 Q 343 100 373 104 L 391 106 L 429 112 Q 472 119 513 124 L 556 130 Z" style="fill: #0070C0;"></path>
                                                                        <path d="M 371 227 Q 371 223 374 216 Q 384 183 389 138 L 391 106 Q 398 48 404 40 Q 416 19 422 32 Q 428 44 429 112 L 429 146 Q 428 189 430 201 Q 431 213 427 217 Q 420 224 394 232 C 368 240 368 240 371 227 Z" style="fill: #0070C0;"></path>
                                                                        <path d="M 513 124 Q 513 31 521 19 Q 525 13 530 15 Q 534 16 540 27 Q 547 51 556 130 L 560 172 Q 561 200 568 217 Q 571 230 562 237 Q 546 250 535 253 C 507 264 501 266 505 250 Q 504 247 507 242 Q 516 214 514 163 L 513 124 Z" style="fill: #0070C0;"></path>
                                    
                                    
                                                                                                                                                                                                                                                                                                                                                                                                                                                                                                                                                                                                                                                                                                                                                                                                                                                                                                                                                </g>
                            </svg>