<svg width='83' height='83' >
                                <g transform="translate(3, 70) scale(0.07, -0.07)">
                                    <!-- 先将完整的字以灰色字体绘制完成，层级位于下面 -->
                                                                        <path d="M 532 662 Q 542 717 552 768 Q 558 786 564 803 Q 567 813 550 826 Q 520 845 499 849 Q 486 853 478 846 Q 471 839 477 826 Q 487 811 489 801 Q 493 734 494 656 C 494 626 527 632 532 662 Z" style="fill: #0070C0;"></path>
                                                                        <path d="M 688 680 Q 634 680 532 662 L 494 656 Q 394 643 366 630 Q 359 627 357 630 Q 357 631 363 684 Q 367 721 318 747 Q 312 750 306 751 Q 293 754 287 750 Q 283 744 294 723 Q 324 657 278 600 Q 266 590 267 582 Q 270 575 285 560 Q 300 547 308 547 Q 315 547 321 553 Q 339 587 563 629 Q 573 633 688 646 C 718 649 718 681 688 680 Z" style="fill: #0070C0;"></path>
                                                                        <path d="M 688 646 Q 695 621 706 603 Q 716 587 727 600 Q 748 624 746 708 Q 755 748 760 755 Q 767 770 756 782 Q 735 795 702 812 Q 689 816 678 810 Q 671 806 675 793 Q 684 787 696 740 Q 695 706 688 680 L 688 646 Z" style="fill: #0070C0;"></path>
                                                                        <path d="M 268 248 Q 271 270 280 338 L 283 372 Q 286 447 290 470 C 293 492 293 492 280 499 Q 279 500 277 501 Q 232 523 219 520 Q 200 517 215 497 Q 251 440 222 248 Q 213 208 195 162 Q 174 108 99 33 Q 86 21 83 15 Q 82 8 92 9 Q 125 9 188 75 Q 242 135 262 217 L 268 248 Z" style="fill: #0070C0;"></path>
                                                                        <path d="M 290 470 Q 297 470 372 492 Q 390 499 395 490 Q 404 460 405 270 Q 402 108 391 91 Q 385 87 326 102 Q 307 109 308 100 Q 354 52 379 17 Q 391 -2 406 -6 Q 413 -10 422 -1 Q 464 47 463 95 Q 442 431 467 477 Q 477 496 467 505 Q 446 523 412 537 Q 393 546 351 520 Q 330 511 280 499 C 251 492 261 463 290 470 Z" style="fill: #0070C0;"></path>
                                                                        <path d="M 280 338 Q 326 347 361 352 Q 383 358 374 369 Q 362 382 338 384 Q 317 385 283 372 C 255 361 251 332 280 338 Z" style="fill: #0070C0;"></path>
                                                                        <path d="M 262 217 Q 265 217 269 217 Q 326 226 368 231 Q 390 235 381 248 Q 371 263 345 266 Q 290 269 268 248 C 245 228 232 217 262 217 Z" style="fill: #0070C0;"></path>
                                                                        <path d="M 610 258 Q 611 262 612 264 Q 621 316 624 368 L 625 396 Q 625 480 634 497 C 638 513 638 513 613 528 Q 571 555 553 545 Q 543 538 550 525 Q 565 507 570 439 Q 569 436 570 432 Q 576 297 549 196 Q 528 123 473 10 Q 469 3 467 -3 Q 466 -13 475 -10 Q 488 -7 518 35 Q 575 107 605 231 L 610 258 Z" style="fill: #0070C0;"></path>
                                                                        <path d="M 634 497 Q 641 500 650 502 Q 696 514 741 527 Q 760 534 767 523 Q 791 454 782 138 Q 776 69 771 59 Q 767 53 747 58 Q 717 65 688 74 Q 667 81 668 71 Q 726 17 760 -23 Q 773 -42 790 -48 Q 800 -52 809 -42 Q 852 7 851 66 Q 821 459 847 511 Q 860 532 847 542 Q 825 561 786 576 Q 764 585 712 554 Q 670 539 613 528 C 584 522 605 489 634 497 Z" style="fill: #0070C0;"></path>
                                                                        <path d="M 624 368 Q 627 368 731 379 Q 753 383 745 396 Q 735 411 709 415 Q 673 419 625 396 C 598 383 594 366 624 368 Z" style="fill: #0070C0;"></path>
                                                                        <path d="M 605 231 Q 609 230 618 231 Q 682 238 730 244 Q 754 248 745 260 Q 735 275 709 279 Q 667 286 610 258 C 583 245 575 234 605 231 Z" style="fill: #0070C0;"></path>
                                    
                                    
                                                                                                                                                                                                                                                                                                                                                                                                                                                                                                                                                                                                                                                                                                                                                                                                                                                                                                                                                </g>
                            </svg>