<svg width='83' height='83' >
                                <g transform="translate(3, 70) scale(0.07, -0.07)">
                                    <!-- 先将完整的字以灰色字体绘制完成，层级位于下面 -->
                                                                        <path d="M 530 650 Q 540 722 558 790 Q 561 800 543 814 Q 512 832 490 836 Q 475 840 468 832 Q 461 825 468 812 Q 486 791 489 644 C 490 614 526 620 530 650 Z" style="fill: #0070C0;"></path>
                                                                        <path d="M 679 666 Q 598 662 530 650 L 489 644 Q 416 634 357 618 Q 338 615 344 636 Q 357 685 348 702 Q 335 718 314 732 Q 304 739 295 737 Q 285 734 291 716 Q 303 682 296 650 Q 292 619 277 606 Q 259 591 266 578 Q 275 563 290 553 Q 302 546 312 552 Q 346 588 568 624 Q 647 637 678 633 C 708 631 709 668 679 666 Z" style="fill: #0070C0;"></path>
                                                                        <path d="M 678 633 Q 679 612 685 597 Q 692 581 704 591 Q 729 612 743 689 Q 758 723 766 731 Q 775 744 767 758 Q 751 774 722 795 Q 712 802 700 799 Q 693 796 693 783 Q 702 774 702 728 Q 696 701 679 666 L 678 633 Z" style="fill: #0070C0;"></path>
                                                                        <path d="M 328 499 Q 315 503 288 509 Q 276 512 273 507 Q 266 500 275 485 Q 306 419 323 313 Q 326 282 344 260 Q 362 238 367 253 Q 368 260 370 271 L 370 300 Q 369 310 367 323 Q 348 429 344 464 C 340 494 340 496 328 499 Z" style="fill: #0070C0;"></path>
                                                                        <path d="M 604 296 Q 623 265 641 257 Q 651 248 667 271 Q 682 295 713 426 Q 722 457 746 483 Q 759 496 748 511 Q 732 529 688 555 Q 670 564 574 543 Q 565 543 427 517 Q 373 507 328 499 C 298 494 315 456 344 464 Q 396 480 471 492 L 512 499 Q 552 508 600 513 Q 637 519 648 506 Q 661 491 658 476 Q 634 332 615 320 C 602 300 602 300 604 296 Z" style="fill: #0070C0;"></path>
                                                                        <path d="M 527 396 Q 561 400 591 403 Q 612 406 604 417 Q 597 430 574 436 Q 558 440 530 434 L 478 423 Q 435 414 399 407 Q 384 404 402 390 Q 411 383 430 385 Q 455 389 479 390 L 527 396 Z" style="fill: #0070C0;"></path>
                                                                        <path d="M 521 324 Q 522 363 527 396 L 530 434 Q 530 444 533 457 Q 540 479 512 499 C 488 517 464 521 471 492 Q 474 486 478 423 L 479 390 Q 479 360 480 316 C 481 286 520 294 521 324 Z" style="fill: #0070C0;"></path>
                                                                        <path d="M 370 271 Q 379 270 389 272 Q 456 287 604 296 C 634 298 637 300 615 320 Q 611 324 602 331 Q 586 340 521 324 L 480 316 Q 420 307 370 300 C 340 296 340 272 370 271 Z" style="fill: #0070C0;"></path>
                                                                        <path d="M 233 214 Q 199 156 154 103 Q 130 70 142 35 Q 148 16 171 25 Q 196 38 215 69 Q 243 112 251 151 Q 261 185 258 211 Q 254 221 248 222 Q 239 222 233 214 Z" style="fill: #0070C0;"></path>
                                                                        <path d="M 311 188 Q 332 77 417 21 Q 537 -54 747 -27 Q 777 -20 805 -9 Q 832 3 833 19 Q 837 29 802 53 Q 748 102 709 151 Q 697 167 693 160 Q 689 154 710 78 Q 710 77 711 73 Q 726 31 663 28 Q 480 21 404 89 Q 368 119 352 172 Q 345 194 334 199 Q 321 206 314 202 Q 308 201 311 188 Z" style="fill: #0070C0;"></path>
                                                                        <path d="M 483 202 Q 511 175 542 142 Q 554 129 569 129 Q 579 128 585 141 Q 589 154 584 184 Q 578 215 481 249 Q 466 253 460 251 Q 456 247 456 235 Q 459 225 483 202 Z" style="fill: #0070C0;"></path>
                                                                        <path d="M 735 251 Q 793 214 864 158 Q 885 140 901 139 Q 911 139 917 151 Q 927 167 906 210 Q 879 267 730 283 Q 720 287 720 273 Q 721 260 735 251 Z" style="fill: #0070C0;"></path>
                                    
                                    
                                                                                                                                                                                                                                                                                                                                                                                                                                                                                                                                                                                                                                                                                                                                                                                                                                                                                                                                                                                                                            </g>
                            </svg>