<svg width='83' height='83' >
                                <g transform="translate(3, 70) scale(0.07, -0.07)">
                                    <!-- 先将完整的字以灰色字体绘制完成，层级位于下面 -->
                                                                        <path d="M 262 319 Q 283 673 286 678 Q 286 682 299 730 Q 302 740 282 756 Q 246 775 222 779 Q 206 783 198 774 Q 191 767 199 751 Q 224 714 224 686 Q 231 511 220 307 C 218 277 260 289 262 319 Z" style="fill: #0070C0;"></path>
                                                                        <path d="M 338 337 Q 298 330 262 319 L 220 307 Q 183 297 150 283 Q 137 279 140 296 Q 144 342 150 391 Q 153 412 144 424 Q 114 457 91 454 Q 82 450 89 433 Q 111 382 103 333 Q 99 284 78 263 Q 63 247 70 236 Q 80 223 96 214 Q 108 208 116 216 Q 143 247 274 289 Q 320 305 338 303 C 368 304 367 342 338 337 Z" style="fill: #0070C0;"></path>
                                                                        <path d="M 338 303 Q 342 284 349 270 Q 356 257 367 267 Q 388 288 391 359 Q 400 431 410 448 Q 417 461 408 473 Q 392 486 364 502 Q 354 508 343 502 Q 337 499 339 488 Q 354 470 350 390 Q 347 359 338 337 L 338 303 Z" style="fill: #0070C0;"></path>
                                                                        <path d="M 828 586 Q 858 671 888 693 Q 904 712 890 729 Q 824 783 767 761 Q 683 731 544 710 C 514 705 528 672 557 678 Q 638 694 644 695 L 681 703 Q 721 712 761 719 Q 785 725 794 715 Q 803 708 801 690 Q 792 635 780 592 C 772 563 818 558 828 586 Z" style="fill: #0070C0;"></path>
                                                                        <path d="M 689 570 Q 695 615 700 649 Q 701 655 701 659 Q 708 674 701 683 Q 691 695 681 703 C 658 722 639 725 644 695 Q 647 689 649 561 C 649 531 685 540 689 570 Z" style="fill: #0070C0;"></path>
                                                                        <path d="M 536 507 Q 545 506 555 508 Q 645 532 840 553 Q 850 554 852 564 Q 852 571 828 586 L 780 592 Q 777 593 775 592 Q 730 580 689 570 L 649 561 Q 589 551 539 541 C 510 535 506 508 536 507 Z" style="fill: #0070C0;"></path>
                                                                        <path d="M 544 710 Q 529 722 507 731 Q 488 741 474 736 Q 462 729 469 715 Q 493 679 489 621 Q 471 408 454 328 Q 444 288 432 250 Q 392 138 302 -5 Q 298 -12 296 -18 Q 293 -28 304 -26 Q 332 -22 414 102 Q 435 138 454 179 Q 517 329 536 507 L 539 541 Q 540 548 541 555 Q 548 670 557 678 C 563 698 563 698 544 710 Z" style="fill: #0070C0;"></path>
                                                                        <path d="M 598 419 Q 588 428 574 433 Q 565 437 554 435 Q 547 431 552 418 Q 565 343 564 263 Q 549 134 547 127 Q 523 81 562 26 Q 572 13 582 24 Q 594 40 595 58 L 599 93 Q 600 105 601 119 Q 602 149 603 175 L 605 203 Q 606 243 609 272 L 611 302 Q 614 366 616 373 Q 617 383 618 389 C 620 403 620 403 598 419 Z" style="fill: #0070C0;"></path>
                                                                        <path d="M 757 76 Q 785 40 805 7 Q 814 -9 825 -9 Q 840 -8 855 24 Q 871 61 867 105 Q 860 193 851 354 Q 850 384 865 404 Q 874 417 865 426 Q 847 444 798 466 Q 780 475 766 466 Q 715 441 598 419 C 569 413 589 383 618 389 Q 631 392 651 396 Q 708 406 756 417 Q 775 421 785 414 Q 815 384 800 117 Q 799 113 799 107 Q 798 101 794 97 C 785 68 739 100 757 76 Z" style="fill: #0070C0;"></path>
                                                                        <path d="M 609 272 Q 681 285 736 293 Q 758 297 749 309 Q 739 322 715 326 Q 685 330 611 302 C 583 291 579 267 609 272 Z" style="fill: #0070C0;"></path>
                                                                        <path d="M 603 175 Q 684 187 743 193 Q 765 197 757 209 Q 747 222 723 227 Q 692 233 605 203 C 577 193 573 171 603 175 Z" style="fill: #0070C0;"></path>
                                                                        <path d="M 595 58 Q 599 58 607 59 Q 656 69 757 76 C 787 78 813 80 794 97 Q 787 104 770 116 Q 754 125 723 118 Q 656 102 599 93 C 569 88 565 56 595 58 Z" style="fill: #0070C0;"></path>
                                    
                                    
                                                                                                                                                                                                                                                                                                                                                                                                                                                                                                                                                                                                                                                                                                                                                                                                                                                                                                                                                                                                                            </g>
                            </svg>