<svg width='83' height='83' >
                                <g transform="translate(3, 70) scale(0.07, -0.07)">
                                    <!-- 先将完整的字以灰色字体绘制完成，层级位于下面 -->
                                                                        <path d="M 246 343 Q 259 625 275 690 Q 279 702 258 716 Q 224 735 198 739 Q 182 742 174 733 Q 167 726 175 711 Q 199 677 199 655 Q 209 504 203 328 C 202 298 245 313 246 343 Z" style="fill: #0070C0;"></path>
                                                                        <path d="M 318 363 Q 281 356 246 343 L 203 328 Q 166 316 135 302 Q 120 298 122 316 Q 123 365 126 418 Q 127 440 118 452 Q 103 467 80 478 Q 70 482 60 480 Q 51 476 59 458 Q 87 406 81 353 Q 80 301 60 277 Q 44 261 53 248 Q 65 235 81 227 Q 94 221 103 230 Q 122 260 258 311 Q 295 324 314 327 C 343 333 347 369 318 363 Z" style="fill: #0070C0;"></path>
                                                                        <path d="M 314 327 Q 320 303 328 287 Q 337 272 347 283 Q 369 305 370 381 Q 383 462 389 470 Q 396 483 386 495 Q 370 508 340 525 Q 328 531 317 525 Q 311 522 313 510 Q 340 473 319 366 Q 318 365 318 363 L 314 327 Z" style="fill: #0070C0;"></path>
                                                                        <path d="M 458 664 Q 480 645 502 620 Q 514 610 527 609 Q 537 609 541 621 Q 545 634 539 659 Q 535 675 509 688 Q 451 712 436 707 Q 432 703 432 692 Q 436 682 458 664 Z" style="fill: #0070C0;"></path>
                                                                        <path d="M 714 723 Q 696 696 660 656 Q 654 650 659 643 Q 666 642 673 645 Q 746 684 781 698 Q 797 701 795 712 Q 791 727 774 746 Q 758 764 736 768 Q 723 768 722 750 Q 723 737 714 723 Z" style="fill: #0070C0;"></path>
                                                                        <path d="M 628 547 Q 670 557 805 574 Q 815 573 825 586 Q 826 598 803 608 Q 776 629 678 602 Q 639 596 614 586 L 579 579 Q 531 573 420 557 Q 392 553 414 536 Q 445 509 475 517 Q 503 524 539 530 L 628 547 Z" style="fill: #0070C0;"></path>
                                                                        <path d="M 614 586 Q 620 736 647 786 Q 653 796 641 809 Q 590 851 561 841 Q 548 837 553 822 Q 583 774 580 699 Q 580 632 579 579 L 575 491 Q 566 388 569 377 Q 575 367 581 355 Q 591 339 605 347 Q 615 356 616 425 Q 613 470 613 530 L 614 586 Z" style="fill: #0070C0;"></path>
                                                                        <path d="M 539 530 Q 509 457 397 363 Q 382 351 397 350 Q 425 347 496 399 Q 535 439 549 455 Q 564 474 575 491 C 611 545 561 580 539 530 Z" style="fill: #0070C0;"></path>
                                                                        <path d="M 613 530 Q 754 355 802 346 Q 902 346 948 355 Q 964 356 967 362 Q 968 368 955 373 Q 789 434 788 435 Q 734 462 628 547 C 605 566 594 553 613 530 Z" style="fill: #0070C0;"></path>
                                                                        <path d="M 618 68 Q 661 34 721 -22 Q 745 -44 762 -44 Q 783 -45 784 -26 Q 785 -5 760 42 Q 748 66 650 113 L 604 134 Q 562 153 533 162 Q 508 168 522 192 Q 535 220 544 237 L 560 273 Q 566 286 572 294 Q 581 301 577 311 Q 571 324 532 350 Q 522 359 510 354 Q 498 350 506 335 Q 515 313 504 267 L 494 231 Q 467 165 468 158 Q 471 148 487 145 Q 515 136 577 98 L 618 68 Z" style="fill: #0070C0;"></path>
                                                                        <path d="M 577 98 Q 520 38 380 1 Q 362 -8 383 -10 Q 528 -28 618 68 L 650 113 Q 675 153 689 199 Q 698 233 708 249 C 722 276 722 276 699 292 Q 669 317 637 310 Q 624 306 630 291 Q 631 288 633 283 L 639 246 Q 640 221 627 188 Q 618 158 604 134 L 577 98 Z" style="fill: #0070C0;"></path>
                                                                        <path d="M 708 249 Q 900 249 909 256 Q 909 257 910 258 Q 916 268 900 282 Q 843 325 794 309 Q 752 303 699 292 L 633 283 Q 594 282 560 273 L 504 267 Q 410 258 308 245 Q 289 244 303 227 Q 316 214 333 208 Q 354 202 369 206 Q 427 222 494 231 L 544 237 Q 569 243 639 246 L 708 249 Z" style="fill: #0070C0;"></path>
                                    
                                    
                                                                                                                                                                                                                                                                                                                                                                                                                                                                                                                                                                                                                                                                                                                                                                                                                                                                                                                                                                                                                            </g>
                            </svg>