<svg width='83' height='83' >
                                <g transform="translate(3, 70) scale(0.07, -0.07)">
                                    <!-- 先将完整的字以灰色字体绘制完成，层级位于下面 -->
                                                                        <path d="M 539 721 Q 551 779 567 827 Q 571 836 556 848 Q 529 864 511 870 Q 498 873 492 867 Q 485 861 491 849 Q 504 834 505 716 C 505 686 533 692 539 721 Z" style="fill: #0070C0;"></path>
                                                                        <path d="M 673 734 Q 603 731 539 721 L 505 716 Q 438 709 379 693 Q 361 689 367 710 Q 376 764 371 775 Q 359 791 339 804 Q 330 810 321 808 Q 311 805 317 788 Q 329 755 322 724 Q 316 694 303 682 Q 287 667 292 655 Q 301 642 315 631 Q 324 625 343 636 Q 380 663 567 695 Q 643 708 666 702 C 696 698 703 735 673 734 Z" style="fill: #0070C0;"></path>
                                                                        <path d="M 666 702 Q 667 678 674 661 Q 680 645 692 655 Q 717 676 730 748 Q 749 784 752 786 Q 761 798 753 811 Q 738 827 711 847 Q 701 854 689 851 Q 682 848 683 836 Q 689 824 691 785 Q 684 754 673 734 C 665 718 665 718 666 702 Z" style="fill: #0070C0;"></path>
                                                                        <path d="M 470 502 Q 470 613 469 614 Q 466 617 465 618 Q 447 633 426 640 Q 416 644 408 640 Q 402 636 407 623 Q 419 602 436 498 C 441 468 470 472 470 502 Z" style="fill: #0070C0;"></path>
                                                                        <path d="M 582 518 Q 597 576 612 612 Q 616 618 618 623 Q 622 630 609 644 Q 585 662 568 668 Q 558 672 550 667 Q 543 663 548 651 Q 558 630 545 512 C 542 482 574 489 582 518 Z" style="fill: #0070C0;"></path>
                                                                        <path d="M 305 554 Q 326 535 348 512 Q 358 502 372 502 Q 381 502 385 513 Q 389 525 383 549 Q 377 573 302 593 Q 289 597 284 595 Q 280 591 281 581 Q 284 571 305 554 Z" style="fill: #0070C0;"></path>
                                                                        <path d="M 707 630 Q 689 605 652 567 Q 648 561 651 555 Q 657 554 664 557 Q 734 594 768 606 Q 783 609 780 618 Q 777 633 762 650 Q 747 666 729 670 Q 716 671 715 655 Q 716 643 707 630 Z" style="fill: #0070C0;"></path>
                                                                        <path d="M 545 512 Q 523 512 470 502 L 436 498 Q 309 483 168 465 Q 149 464 163 447 Q 176 434 194 428 Q 213 424 229 427 Q 439 485 827 485 Q 846 486 851 494 Q 855 504 840 518 Q 785 561 725 542 Q 664 533 582 518 L 545 512 Z" style="fill: #0070C0;"></path>
                                                                        <path d="M 439 346 Q 451 358 445 384 Q 441 399 422 409 Q 395 428 383 433 Q 376 436 373 427 Q 369 417 403 364 Q 415 348 427 345 C 436 342 436 342 439 346 Z" style="fill: #0070C0;"></path>
                                                                        <path d="M 594 376 Q 594 377 595 377 Q 626 414 632 418 Q 645 428 639 437 Q 632 452 609 471 Q 597 481 582 477 Q 573 474 578 464 Q 584 442 555 367 C 544 339 574 354 594 376 Z" style="fill: #0070C0;"></path>
                                                                        <path d="M 522 322 Q 561 331 682 343 Q 692 342 700 352 Q 701 362 681 373 Q 654 392 594 376 L 555 367 Q 537 366 521 361 Q 478 352 439 346 L 427 345 Q 412 344 398 342 Q 358 339 313 334 Q 286 331 306 315 Q 333 291 375 299 Q 421 308 477 316 L 522 322 Z" style="fill: #0070C0;"></path>
                                                                        <path d="M 526 245 Q 559 251 652 258 Q 661 257 668 267 Q 669 276 652 285 Q 627 303 548 283 Q 538 282 528 278 L 479 270 Q 439 266 406 261 Q 372 260 332 255 Q 310 254 326 238 Q 351 220 394 225 Q 431 232 479 238 L 526 245 Z" style="fill: #0070C0;"></path>
                                                                        <path d="M 558 165 Q 607 168 780 169 Q 798 169 802 176 Q 808 186 793 199 Q 745 235 713 227 Q 640 214 524 196 L 476 189 Q 359 176 223 160 Q 204 159 218 143 Q 231 130 247 125 Q 266 121 280 124 Q 350 143 428 152 L 523 163 L 558 165 Z" style="fill: #0070C0;"></path>
                                                                        <path d="M 524 196 Q 524 227 526 245 L 528 278 Q 531 314 528 317 Q 525 320 522 322 C 503 345 475 346 477 316 Q 478 309 479 270 L 479 238 Q 478 217 477 191 Q 476 190 476 189 L 470 126 Q 466 75 463 66 Q 451 38 483 -13 Q 493 -31 499 -34 Q 509 -35 514 -24 Q 526 4 523 31 Q 523 101 523 163 L 524 196 Z" style="fill: #0070C0;"></path>
                                                                        <path d="M 428 152 Q 362 74 208 9 Q 190 2 204 -3 Q 214 -7 252 0 Q 291 4 330 23 Q 364 39 406 69 Q 430 87 470 126 C 502 157 470 200 428 152 Z" style="fill: #0070C0;"></path>
                                                                        <path d="M 523 163 Q 599 84 682 11 Q 704 -8 738 -6 Q 799 -5 863 12 Q 879 15 880 19 Q 881 26 868 30 Q 694 75 608 130 Q 593 140 558 165 C 534 182 502 185 523 163 Z" style="fill: #0070C0;"></path>
                                    
                                    
                                                                                                                                                                                                                                                                                                                                                                                                                                                                                                                                                                                                                                                                                                                                                                                                                                                                                                                                                                                                                                                                                                                                                                                                                                                                                                                                            </g>
                            </svg>