<svg width='83' height='83' >
                                <g transform="translate(3, 70) scale(0.07, -0.07)">
                                    <!-- 先将完整的字以灰色字体绘制完成，层级位于下面 -->
                                                                        <path d="M 243 634 Q 279 580 265 371 Q 258 316 235 251 Q 214 194 131 99 Q 115 84 112 77 Q 111 70 124 70 Q 164 73 233 149 Q 315 251 329 461 Q 332 576 336 609 Q 342 631 318 642 Q 263 667 246 663 Q 224 659 243 634 Z" style="fill: #0070C0;"></path>
                                                                        <path d="M 458 602 Q 500 502 462 251 Q 453 209 484 163 L 486 161 Q 496 149 508 162 Q 535 207 533 266 Q 524 420 536 528 Q 537 549 541 567 Q 548 592 526 605 Q 507 617 488 627 Q 475 631 464 626 Q 454 619 458 602 Z" style="fill: #0070C0;"></path>
                                                                        <path d="M 688 96 Q 678 56 706 -10 Q 713 -28 721 -31 Q 728 -38 735 -30 Q 765 -9 762 56 Q 747 584 769 693 Q 770 702 773 710 Q 782 726 779 740 Q 772 750 713 784 Q 688 802 667 785 Q 661 779 669 764 Q 702 715 703 662 Q 721 245 690 105 Q 689 102 688 96 Z" style="fill: #0070C0;"></path>
                                    
                                    
                                                                                                                                                                                                                                                                                                                </g>
                            </svg>