<svg width='83' height='83' >
                                <g transform="translate(3, 70) scale(0.07, -0.07)">
                                    <!-- 先将完整的字以灰色字体绘制完成，层级位于下面 -->
                                                                        <path d="M 458 603 Q 428 464 376 405 Q 367 392 368 379 Q 371 366 386 359 Q 432 341 519 211 Q 532 189 542 186 Q 552 185 560 194 Q 569 210 568 239 Q 567 261 541 287 Q 486 339 430 371 Q 414 381 419 402 Q 462 480 491 538 Q 510 581 528 611 Q 544 633 529 648 Q 480 700 465 697 Q 446 693 455 673 Q 468 636 458 603 Z" style="fill: #0070C0;"></path>
                                                                        <path d="M 611 622 Q 589 502 543 449 Q 534 436 535 425 Q 536 412 550 404 Q 598 377 674 219 Q 684 194 693 191 Q 703 187 712 195 Q 724 210 727 238 Q 728 260 707 290 Q 653 363 595 410 Q 577 423 587 446 Q 624 515 649 567 Q 665 606 682 631 Q 698 653 682 668 Q 630 720 616 716 Q 598 712 607 692 Q 620 656 611 622 Z" style="fill: #0070C0;"></path>
                                                                        <path d="M 775 639 Q 739 510 691 460 Q 681 445 682 432 Q 683 419 700 409 Q 748 387 838 237 Q 851 212 862 209 Q 872 206 882 216 Q 892 232 893 264 Q 893 289 867 318 Q 809 381 748 420 Q 730 432 739 454 Q 784 524 813 579 Q 834 619 851 645 Q 870 669 854 686 Q 802 744 786 741 Q 767 737 774 716 Q 787 676 775 639 Z" style="fill: #0070C0;"></path>
                                                                        <path d="M 247 720 Q 272 698 301 670 Q 317 655 335 656 Q 347 657 352 673 Q 358 689 347 723 Q 335 754 241 775 Q 223 779 216 775 Q 210 771 212 756 Q 216 743 247 720 Z" style="fill: #0070C0;"></path>
                                                                        <path d="M 319 188 Q 328 195 331 210 Q 337 249 296 321 Q 266 379 342 469 Q 346 476 353 481 Q 375 500 354 516 Q 335 532 299 545 Q 277 558 258 540 Q 227 513 183 495 Q 126 467 107 469 Q 100 469 98 464 Q 97 460 105 455 Q 145 437 253 486 Q 260 490 269 482 Q 291 457 267 427 Q 215 376 258 303 Q 297 224 293 190 C 294 160 302 163 319 188 Z" style="fill: #0070C0;"></path>
                                                                        <path d="M 293 190 Q 250 191 208 179 Q 168 164 105 162 Q 98 162 95 154 Q 91 147 99 136 Q 115 117 139 104 Q 149 97 169 111 Q 253 162 325 145 Q 388 132 515 75 Q 734 -27 816 2 Q 879 24 931 61 Q 955 77 931 77 Q 721 68 573 108 Q 495 130 397 166 Q 358 184 319 188 L 293 190 Z" style="fill: #0070C0;"></path>
                                    
                                    
                                                                                                                                                                                                                                                                                                                                                                                                                                                                                                                                                    </g>
                            </svg>