<svg width='83' height='83' >
                                <g transform="translate(3, 70) scale(0.07, -0.07)">
                                    <!-- 先将完整的字以灰色字体绘制完成，层级位于下面 -->
                                                                        <path d="M 490 526 Q 583 542 681 558 Q 754 571 765 581 Q 775 590 771 599 Q 764 612 733 621 Q 700 630 667 618 Q 591 596 508 576 L 451 565 Q 369 553 276 547 Q 236 543 264 523 Q 309 495 369 506 Q 400 512 433 516 L 490 526 Z" style="fill: #0070C0;"></path>
                                                                        <path d="M 433 516 Q 337 284 144 108 Q 66 45 65 37 Q 64 31 81 39 Q 283 127 406 351 Q 455 439 490 526 L 508 576 Q 508 577 509 578 Q 534 651 543 708 Q 547 741 567 773 Q 582 794 560 807 Q 530 828 490 837 Q 471 841 461 835 Q 454 828 461 810 Q 506 729 451 565 L 433 516 Z" style="fill: #0070C0;"></path>
                                                                        <path d="M 566 302 Q 738 335 746 339 Q 755 346 751 356 Q 744 368 714 376 Q 687 382 577 352 Q 483 334 419 329 Q 382 325 408 306 Q 447 279 509 292 Q 515 293 523 294 L 566 302 Z" style="fill: #0070C0;"></path>
                                                                        <path d="M 574 93 Q 592 276 593 276 Q 580 291 566 302 C 543 321 516 323 523 294 Q 532 266 527 88 C 526 58 571 63 574 93 Z" style="fill: #0070C0;"></path>
                                                                        <path d="M 527 88 Q 415 78 286 63 Q 264 62 280 43 Q 295 27 313 21 Q 335 15 353 19 Q 539 64 821 54 Q 842 54 863 53 Q 885 52 890 61 Q 897 74 879 89 Q 822 131 784 124 Q 705 111 574 93 L 527 88 Z" style="fill: #0070C0;"></path>
                                    
                                    
                                                                                                                                                                                                                                                                                                                                                                                                                                                                        </g>
                            </svg>