<svg width='83' height='83' >
                                <g transform="translate(3, 70) scale(0.07, -0.07)">
                                    <!-- 先将完整的字以灰色字体绘制完成，层级位于下面 -->
                                                                        <path d="M 589 542 Q 631 656 676 686 Q 698 708 680 732 Q 659 750 593 783 Q 569 795 477 759 Q 351 728 258 716 Q 236 715 239 702 Q 243 692 266 684 Q 297 671 342 685 Q 436 701 525 718 Q 547 724 557 714 Q 570 701 564 674 Q 546 602 525 544 C 515 516 578 514 589 542 Z" style="fill: #0070C0;"></path>
                                                                        <path d="M 299 457 Q 359 478 606 501 Q 618 502 620 513 Q 620 522 589 542 C 570 555 554 551 525 544 Q 396 513 295 496 C 265 491 270 448 299 457 Z" style="fill: #0070C0;"></path>
                                                                        <path d="M 906 154 Q 885 220 876 330 Q 875 349 866 354 Q 856 360 852 337 Q 834 199 815 174 Q 755 108 523 111 Q 394 115 339 137 Q 291 162 281 195 Q 254 280 284 406 Q 288 437 299 457 C 309 485 309 485 295 496 Q 292 500 289 503 Q 232 546 215 542 Q 197 535 206 516 Q 228 473 222 410 Q 215 223 234 169 Q 273 78 432 58 Q 532 46 689 58 Q 831 68 885 101 Q 919 117 906 154 Z" style="fill: #0070C0;"></path>
                                    
                                    
                                                                                                                                                                                                                                                                                                                </g>
                            </svg>