<svg width='83' height='83' >
                                <g transform="translate(3, 70) scale(0.07, -0.07)">
                                    <!-- 先将完整的字以灰色字体绘制完成，层级位于下面 -->
                                                                        <path d="M 585 528 Q 622 655 669 694 Q 688 715 671 735 Q 652 750 594 777 Q 573 786 550 776 Q 439 728 290 707 Q 272 706 274 694 Q 278 685 298 680 Q 326 668 363 682 Q 450 701 533 720 Q 555 726 564 717 Q 577 704 572 676 Q 553 597 531 532 C 522 504 576 499 585 528 Z" style="fill: #0070C0;"></path>
                                                                        <path d="M 290 432 Q 293 432 295 431 Q 308 428 325 432 Q 413 457 607 485 Q 620 486 621 498 Q 621 508 585 528 L 531 532 Q 525 532 522 530 Q 398 493 299 473 C 270 467 260 437 290 432 Z" style="fill: #0070C0;"></path>
                                                                        <path d="M 905 136 Q 883 196 869 299 Q 866 317 858 322 Q 848 328 845 305 Q 832 176 814 153 Q 759 93 527 91 Q 400 95 347 118 Q 299 143 290 175 Q 275 215 276 323 Q 280 387 290 432 L 299 473 Q 302 486 308 497 Q 323 531 301 551 Q 244 596 227 591 Q 209 584 218 565 Q 240 522 233 459 Q 220 195 249 136 Q 289 58 438 40 Q 537 28 691 39 Q 830 49 885 81 Q 921 100 905 136 Z" style="fill: #0070C0;"></path>
                                    
                                    
                                                                                                                                                                                                                                                                                                                </g>
                            </svg>