<svg width='83' height='83' >
                                <g transform="translate(3, 70) scale(0.07, -0.07)">
                                    <!-- 先将完整的字以灰色字体绘制完成，层级位于下面 -->
                                                                        <path d="M 613 523 Q 644 646 685 678 Q 703 699 686 718 Q 599 778 542 745 Q 449 711 346 689 C 317 683 315 645 344 651 Q 357 652 375 659 Q 463 678 549 699 Q 571 706 580 697 Q 592 685 589 661 Q 577 588 560 529 C 552 500 605 494 613 523 Z" style="fill: #0070C0;"></path>
                                                                        <path d="M 312 443 Q 363 422 414 437 Q 499 453 588 473 Q 628 482 635 488 Q 645 497 640 507 Q 633 517 613 523 L 560 529 Q 544 528 530 521 Q 427 485 315 474 Q 314 474 314 473 C 285 467 284 454 312 443 Z" style="fill: #0070C0;"></path>
                                                                        <path d="M 326 134 Q 411 68 662 78 Q 813 84 895 113 Q 923 119 931 134 Q 937 144 926 165 Q 904 210 888 308 Q 884 324 876 329 Q 870 332 867 317 Q 854 263 843 218 Q 833 178 809 164 Q 787 151 672 140 Q 554 130 461 141 Q 391 151 364 169 Q 328 193 318 237 Q 305 301 312 439 Q 312 442 312 443 L 314 473 Q 321 591 344 651 C 353 680 354 684 346 689 L 346 690 Q 333 703 295 720 Q 262 732 252 722 Q 243 715 257 693 Q 278 662 276 615 Q 270 482 264 330 Q 255 198 326 134 Z" style="fill: #0070C0;"></path>
                                    
                                    
                                                                                                                                                                                                                                                                                                                </g>
                            </svg>