<svg width='83' height='83' >
                                <g transform="translate(3, 70) scale(0.07, -0.07)">
                                    <!-- 先将完整的字以灰色字体绘制完成，层级位于下面 -->
                                                                        <path d="M 132 510 Q 114 528 86 525 Q 74 521 79 511 Q 112 450 80 342 Q 56 297 89 256 Q 95 244 104 249 Q 131 268 135 342 Q 139 451 143 478 C 146 499 146 499 132 510 Z" style="fill: #0070C0;"></path>
                                                                        <path d="M 271 503 Q 302 510 333 513 Q 358 520 364 502 Q 373 376 356 356 Q 350 353 313 357 Q 300 361 296 357 Q 295 353 303 343 Q 340 310 363 286 Q 376 274 387 286 Q 411 314 413 390 Q 407 459 418 508 Q 421 527 412 535 Q 387 556 370 565 Q 358 569 351 561 Q 345 555 271 535 L 225 525 Q 188 521 132 510 C 103 504 113 475 143 478 Q 150 478 161 480 Q 192 489 225 494 L 271 503 Z" style="fill: #0070C0;"></path>
                                                                        <path d="M 196 93 Q 184 51 211 -10 Q 218 -28 226 -31 Q 232 -38 240 -29 Q 247 -25 258 -4 Q 268 21 267 53 Q 266 99 271 503 L 271 535 Q 271 644 291 716 Q 306 743 280 760 Q 264 772 234 789 Q 210 805 189 790 Q 185 786 190 770 Q 223 722 223 675 Q 224 605 225 525 L 225 494 Q 221 373 220 237 Q 216 162 196 93 Z" style="fill: #0070C0;"></path>
                                                                        <path d="M 537 438 Q 540 594 542 602 C 544 632 544 632 533 637 Q 532 640 527 641 Q 478 662 464 659 Q 445 655 461 633 Q 497 579 483 355 Q 474 297 449 227 Q 424 155 359 90 Q 323 56 322 48 Q 321 41 332 41 Q 371 44 440 124 Q 524 229 535 409 L 537 438 Z" style="fill: #0070C0;"></path>
                                                                        <path d="M 542 602 Q 549 605 560 608 Q 609 624 657 642 Q 667 643 671 639 Q 678 632 674 617 Q 593 1 939 25 Q 958 26 961 35 Q 968 48 957 78 Q 944 127 942 212 Q 941 227 934 234 Q 927 243 921 222 Q 894 111 877 103 Q 867 99 857 100 Q 826 103 795 134 Q 711 204 709 374 Q 706 566 779 643 Q 792 653 780 665 Q 767 681 727 697 Q 691 710 676 701 Q 618 664 533 637 C 505 627 514 593 542 602 Z" style="fill: #0070C0;"></path>
                                                                        <path d="M 535 409 Q 539 403 550 394 Q 607 325 622 323 Q 631 322 637 333 Q 643 345 639 372 Q 636 391 609 408 Q 549 441 537 438 C 512 438 516 433 535 409 Z" style="fill: #0070C0;"></path>
                                    
                                    
                                                                                                                                                                                                                                                                                                                                                                                                                                                                                                                                                    </g>
                            </svg>