<svg width='83' height='83' >
                                <g transform="translate(3, 70) scale(0.07, -0.07)">
                                    <!-- 先将完整的字以灰色字体绘制完成，层级位于下面 -->
                                                                        <path d="M 389 681 Q 422 708 442 726 Q 493 777 521 794 Q 542 807 528 824 Q 512 839 485 850 Q 460 860 446 857 Q 433 853 440 840 Q 446 816 360 677 Q 359 677 359 675 C 344 649 366 662 389 681 Z" style="fill: #0070C0;"></path>
                                                                        <path d="M 337 671 Q 324 678 286 678 Q 273 681 269 674 Q 263 667 275 650 Q 314 589 345 485 Q 352 454 373 435 Q 395 413 399 431 Q 400 437 400 443 L 397 474 Q 396 486 378 544 L 370 572 Q 357 615 353 635 C 347 664 346 668 337 671 Z" style="fill: #0070C0;"></path>
                                                                        <path d="M 612 467 L 613 466 Q 617 448 632 448 Q 648 449 657 465 Q 672 481 702 561 Q 724 616 765 647 Q 787 663 770 681 Q 751 700 699 732 Q 681 745 604 725 Q 541 725 402 685 Q 395 684 389 681 L 359 675 Q 347 674 337 671 C 308 665 325 626 353 635 Q 432 663 617 693 Q 650 697 662 691 Q 672 684 664 651 Q 658 627 614 496 C 607 475 607 475 612 467 Z" style="fill: #0070C0;"></path>
                                                                        <path d="M 378 544 Q 379 544 383 543 Q 398 540 553 565 Q 581 571 586 575 Q 593 581 590 587 Q 586 596 563 602 Q 541 608 518 599 Q 485 589 449 582 Q 412 575 370 572 C 340 570 348 549 378 544 Z" style="fill: #0070C0;"></path>
                                                                        <path d="M 400 443 Q 404 443 412 444 Q 476 457 612 467 C 642 469 637 477 614 496 Q 610 500 604 503 Q 589 512 560 505 Q 470 486 397 474 C 367 469 370 441 400 443 Z" style="fill: #0070C0;"></path>
                                                                        <path d="M 287 332 Q 259 345 242 343 Q 229 339 235 327 Q 260 273 242 184 Q 218 162 247 108 Q 251 101 258 92 Q 265 79 276 86 Q 303 104 304 176 Q 305 272 308 294 C 311 322 311 322 287 332 Z" style="fill: #0070C0;"></path>
                                                                        <path d="M 524 326 Q 602 336 681 340 Q 717 341 718 318 Q 727 180 712 163 Q 702 156 638 167 Q 620 171 617 165 Q 613 159 626 148 Q 687 105 724 71 Q 742 56 755 72 Q 783 111 785 181 Q 779 278 788 326 Q 792 348 781 359 Q 751 387 731 398 Q 716 405 706 395 Q 696 383 553 359 Q 541 358 526 355 L 464 348 Q 395 342 287 332 C 257 329 278 291 308 294 Q 317 293 327 295 Q 396 308 465 318 L 524 326 Z" style="fill: #0070C0;"></path>
                                                                        <path d="M 474 -35 Q 478 -60 486 -69 Q 492 -76 499 -74 Q 515 -64 519 -7 Q 525 48 524 104 Q 521 150 524 326 L 526 355 Q 526 359 527 362 Q 534 408 521 418 Q 490 440 474 442 Q 462 446 446 437 Q 437 430 445 419 Q 463 388 464 348 L 465 318 Q 468 228 468 99 Q 469 -1 474 -35 Z" style="fill: #0070C0;"></path>
                                    
                                    
                                                                                                                                                                                                                                                                                                                                                                                                                                                                                                                                                                                                                                                                                                            </g>
                            </svg>