<svg width='83' height='83' >
                                <g transform="translate(3, 70) scale(0.07, -0.07)">
                                    <!-- 先将完整的字以灰色字体绘制完成，层级位于下面 -->
                                                                        <path d="M 547 669 Q 680 693 690 699 Q 699 706 695 716 Q 688 728 658 737 Q 625 746 551 720 L 495 706 Q 491 706 486 705 Q 422 693 347 689 Q 310 685 336 666 Q 372 644 455 654 Q 474 657 496 660 L 547 669 Z" style="fill: #0070C0;"></path>
                                                                        <path d="M 538 573 Q 542 622 547 669 L 551 720 Q 552 750 562 793 Q 571 821 562 833 Q 558 837 553 841 Q 519 860 496 864 Q 480 867 472 859 Q 465 852 472 837 Q 490 813 490 797 Q 493 754 495 706 L 496 660 Q 496 617 496 567 C 496 537 536 543 538 573 Z" style="fill: #0070C0;"></path>
                                                                        <path d="M 647 544 Q 716 547 884 548 Q 906 548 911 557 Q 917 570 899 585 Q 833 636 789 615 Q 692 599 538 573 L 496 567 Q 328 548 134 524 Q 112 521 128 503 Q 143 488 162 482 Q 184 476 202 481 Q 319 512 450 527 Q 514 537 600 542 L 647 544 Z" style="fill: #0070C0;"></path>
                                                                        <path d="M 353 471 Q 392 389 412 382 Q 425 378 436 393 Q 442 406 438 428 Q 432 447 411 462 Q 380 489 365 496 Q 356 500 352 489 Q 348 482 353 471 Z" style="fill: #0070C0;"></path>
                                                                        <path d="M 587 390 Q 588 393 591 395 Q 612 423 635 460 Q 645 476 662 496 Q 678 506 670 518 Q 663 531 647 544 C 624 563 597 572 600 542 Q 606 509 555 398 Q 551 391 548 382 C 538 354 568 367 587 390 Z" style="fill: #0070C0;"></path>
                                                                        <path d="M 543 340 Q 579 347 707 355 Q 717 354 727 366 Q 728 378 707 389 Q 677 413 587 390 L 548 382 Q 539 382 532 380 Q 504 376 306 356 Q 278 355 298 336 Q 325 309 374 317 Q 425 326 486 332 L 543 340 Z" style="fill: #0070C0;"></path>
                                                                        <path d="M 543 196 Q 609 202 835 202 Q 857 202 863 212 Q 870 225 851 240 Q 794 283 752 275 Q 671 259 543 240 L 484 231 Q 348 215 190 196 Q 166 195 184 175 Q 200 159 219 153 Q 243 147 260 152 Q 437 197 483 189 L 543 196 Z" style="fill: #0070C0;"></path>
                                                                        <path d="M 483 189 Q 480 -54 503 -78 Q 515 -90 526 -65 Q 542 -26 543 196 L 543 240 Q 543 291 543 340 C 543 370 487 362 486 332 Q 485 283 484 231 L 483 189 Z" style="fill: #0070C0;"></path>
                                    
                                    
                                                                                                                                                                                                                                                                                                                                                                                                                                                                                                                                                                                                                                                                                                            </g>
                            </svg>