<svg width='83' height='83' >
                                <g transform="translate(3, 70) scale(0.07, -0.07)">
                                    <!-- 先将完整的字以灰色字体绘制完成，层级位于下面 -->
                                                                        <path d="M 550 371 Q 547 371 344 372 Q 307 373 328 396 Q 443 555 552 670 Q 571 689 569 699 Q 568 718 525 760 Q 507 779 484 777 Q 469 776 475 755 Q 493 700 343 484 Q 310 435 247 389 Q 222 373 223 359 Q 227 335 242 311 Q 254 296 270 304 Q 315 323 528 343 C 558 346 580 371 550 371 Z" style="fill: #0070C0;"></path>
                                                                        <path d="M 712 129 Q 561 120 379 90 Q 336 80 367 111 Q 455 214 660 418 Q 702 461 737 486 Q 753 496 747 510 Q 737 537 697 565 Q 678 580 665 577 Q 652 574 653 554 Q 650 497 550 371 L 528 343 Q 527 342 526 341 Q 307 104 263 88 Q 244 78 245 60 Q 245 42 275 13 Q 287 -3 308 9 Q 482 81 725 106 C 755 109 742 131 712 129 Z" style="fill: #0070C0;"></path>
                                                                        <path d="M 725 106 Q 743 78 761 43 Q 771 18 787 9 Q 794 6 806 14 Q 822 24 820 73 Q 821 139 656 264 Q 647 273 642 260 Q 638 247 646 233 Q 677 187 712 129 L 725 106 Z" style="fill: #0070C0;"></path>
                                    
                                    
                                                                                                                                                                                                                                                                                                                </g>
                            </svg>