<svg width='83' height='83' >
                                <g transform="translate(3, 70) scale(0.07, -0.07)">
                                    <!-- 先将完整的字以灰色字体绘制完成，层级位于下面 -->
                                                                        <path d="M 476 765 Q 516 741 562 711 Q 578 701 595 703 Q 605 704 609 720 Q 610 736 597 766 Q 581 802 462 814 Q 446 815 439 811 Q 435 807 439 793 Q 445 783 476 765 Z" style="fill: #0070C0;"></path>
                                                                        <path d="M 336 539 Q 352 557 789 606 Q 801 603 811 618 Q 812 631 788 644 Q 749 668 661 645 Q 466 608 401 600 Q 356 597 310 590 C 280 586 308 527 336 539 Z" style="fill: #0070C0;"></path>
                                                                        <path d="M 310 590 Q 271 617 251 609 Q 238 602 245 587 Q 261 568 262 511 Q 261 496 260 479 Q 254 320 216 211 Q 183 118 111 5 Q 107 -2 104 -9 Q 101 -21 112 -18 Q 151 -11 225 112 Q 234 130 244 148 Q 304 283 325 479 Q 328 513 336 539 C 344 568 336 574 310 590 Z" style="fill: #0070C0;"></path>
                                    
                                    
                                                                                                                                                                                                                                                                                                                </g>
                            </svg>