<svg width='83' height='83' >
                                <g transform="translate(3, 70) scale(0.07, -0.07)">
                                    <!-- 先将完整的字以灰色字体绘制完成，层级位于下面 -->
                                                                        <path d="M 495 797 Q 526 776 562 751 Q 578 741 594 743 Q 606 746 609 760 Q 610 776 597 806 Q 588 825 554 836 Q 473 854 459 843 Q 455 839 459 825 Q 463 815 495 797 Z" style="fill: #0070C0;"></path>
                                                                        <path d="M 345 638 Q 382 629 495 646 Q 771 689 785 699 Q 795 706 790 716 Q 783 729 755 737 Q 724 744 693 735 Q 615 713 532 695 Q 439 679 332 673 Q 328 673 324 671 C 294 666 315 643 345 638 Z" style="fill: #0070C0;"></path>
                                                                        <path d="M 324 671 Q 281 699 263 694 Q 250 687 257 673 Q 275 643 271 579 Q 270 569 269 557 Q 260 395 213 272 Q 174 170 95 55 Q 91 48 88 42 Q 85 32 96 33 Q 129 39 210 159 Q 223 183 236 207 Q 302 351 324 527 Q 333 603 345 638 C 350 655 350 656 324 671 Z" style="fill: #0070C0;"></path>
                                                                        <path d="M 570 468 Q 744 499 754 507 Q 763 514 759 524 Q 752 536 722 545 Q 691 552 660 541 Q 617 528 574 516 L 522 504 Q 459 495 387 489 Q 350 485 376 466 Q 409 442 490 455 Q 505 458 523 460 L 570 468 Z" style="fill: #0070C0;"></path>
                                                                        <path d="M 560 362 Q 564 417 570 468 L 574 516 Q 580 558 583 567 Q 587 579 589 588 Q 593 598 575 611 Q 544 627 523 632 Q 510 635 502 627 Q 495 621 502 608 Q 518 586 519 570 Q 520 539 522 504 L 523 460 Q 523 409 522 353 C 521 323 558 332 560 362 Z" style="fill: #0070C0;"></path>
                                                                        <path d="M 598 158 Q 637 207 673 278 Q 689 306 711 324 Q 733 339 721 354 Q 708 369 676 384 Q 652 394 623 382 Q 593 372 560 362 L 522 353 Q 476 344 408 338 Q 393 338 388 331 Q 384 324 403 315 Q 440 299 492 314 Q 586 341 602 339 Q 621 333 613 313 Q 592 243 556 192 L 529 159 Q 445 75 270 36 Q 254 33 266 23 Q 273 19 325 21 Q 392 25 467 59 Q 522 84 565 121 L 598 158 Z" style="fill: #0070C0;"></path>
                                                                        <path d="M 565 121 Q 710 -30 780 -26 Q 873 -22 947 -9 Q 959 -5 963 3 Q 966 12 945 14 Q 891 29 831 40 Q 726 64 598 158 L 556 192 Q 469 279 400 265 Q 399 265 397 264 Q 387 260 392 250 Q 399 243 410 242 Q 449 239 529 159 L 565 121 Z" style="fill: #0070C0;"></path>
                                    
                                    
                                                                                                                                                                                                                                                                                                                                                                                                                                                                                                                                                                                                                                </g>
                            </svg>