<svg width='83' height='83' >
                                <g transform="translate(3, 70) scale(0.07, -0.07)">
                                    <!-- 先将完整的字以灰色字体绘制完成，层级位于下面 -->
                                                                        <path d="M 512 809 Q 548 788 586 762 Q 602 752 619 755 Q 629 756 633 772 Q 634 788 620 817 Q 604 850 498 858 Q 482 859 475 855 Q 471 851 475 837 Q 481 827 512 809 Z" style="fill: #0070C0;"></path>
                                                                        <path d="M 335 642 Q 371 627 438 636 Q 753 684 773 693 Q 774 694 777 695 Q 787 702 782 712 Q 776 725 747 733 Q 719 742 623 714 Q 467 680 332 673 Q 329 673 328 672 C 298 669 307 651 335 642 Z" style="fill: #0070C0;"></path>
                                                                        <path d="M 328 672 Q 312 687 286 700 Q 267 712 253 707 Q 240 700 247 686 Q 265 652 259 580 Q 258 574 257 566 Q 242 394 194 273 Q 149 162 68 52 Q 62 45 60 39 Q 57 27 68 29 Q 102 35 189 157 Q 202 181 217 206 Q 287 348 324 600 Q 328 636 335 642 C 342 661 342 661 328 672 Z" style="fill: #0070C0;"></path>
                                                                        <path d="M 503 475 Q 731 518 738 525 Q 747 532 743 540 Q 736 552 708 560 Q 689 566 586 537 Q 526 525 524 522 L 468 512 Q 425 508 378 503 Q 342 499 367 482 Q 397 461 453 466 L 503 475 Z" style="fill: #0070C0;"></path>
                                                                        <path d="M 603 302 Q 664 309 707 311 Q 744 312 747 324 Q 748 337 721 354 Q 694 370 605 346 L 556 337 Q 508 330 455 322 Q 439 321 437 324 Q 437 325 503 475 L 524 522 Q 537 553 551 563 Q 569 576 558 587 Q 513 632 487 632 Q 477 632 483 612 Q 489 582 468 512 L 453 466 Q 417 364 375 332 Q 354 317 368 272 Q 372 257 389 263 Q 452 285 555 297 L 603 302 Z" style="fill: #0070C0;"></path>
                                                                        <path d="M 551 197 Q 416 181 262 164 Q 240 163 256 143 Q 272 127 291 121 Q 315 115 332 120 Q 473 153 547 154 L 600 159 Q 642 162 879 163 Q 901 162 907 172 Q 913 185 895 200 Q 837 245 796 236 Q 721 221 601 204 L 551 197 Z" style="fill: #0070C0;"></path>
                                                                        <path d="M 605 346 Q 606 371 610 385 Q 613 397 606 403 Q 584 422 565 432 Q 553 436 544 429 Q 538 426 545 416 Q 551 407 556 337 L 555 297 Q 554 266 553 226 Q 552 211 551 197 L 547 154 Q 532 33 538 11 Q 544 -13 557 -32 Q 567 -50 576 -54 Q 586 -55 592 -43 Q 605 -12 601 18 Q 600 91 600 159 L 601 204 Q 601 280 603 302 L 605 346 Z" style="fill: #0070C0;"></path>
                                    
                                    
                                                                                                                                                                                                                                                                                                                                                                                                                                                                                                                                                                                                                                </g>
                            </svg>