<svg width='83' height='83' >
                                <g transform="translate(3, 70) scale(0.07, -0.07)">
                                    <!-- 先将完整的字以灰色字体绘制完成，层级位于下面 -->
                                                                        <path d="M 475 803 Q 508 787 543 765 Q 559 755 573 760 Q 583 763 585 776 Q 586 791 571 817 Q 556 842 460 847 Q 444 847 439 843 Q 435 839 440 827 Q 446 817 475 803 Z" style="fill: #0070C0;"></path>
                                                                        <path d="M 325 670 Q 362 661 475 678 Q 751 721 765 731 Q 775 738 770 748 Q 763 761 735 769 Q 704 776 673 767 Q 595 745 512 727 Q 424 711 322 705 C 292 703 295 675 325 670 Z" style="fill: #0070C0;"></path>
                                                                        <path d="M 322 705 Q 306 720 279 731 Q 260 741 246 737 Q 234 730 241 716 Q 259 689 260 631 Q 242 402 212 300 Q 208 287 203 273 Q 169 177 79 31 Q 73 24 72 18 Q 69 8 80 10 Q 114 16 193 141 Q 209 171 226 205 Q 256 274 277 353 L 282 373 Q 304 467 312 561 Q 318 645 325 670 C 331 699 331 699 322 705 Z" style="fill: #0070C0;"></path>
                                                                        <path d="M 277 353 Q 281 356 289 358 Q 314 368 340 383 L 354 391 Q 355 392 357 393 Q 435 441 550 596 L 564 611 Q 564 612 566 613 Q 573 617 572 626 Q 569 650 533 664 Q 515 671 506 670 Q 499 669 499 658 Q 503 553 282 373 C 259 354 249 341 277 353 Z" style="fill: #0070C0;"></path>
                                                                        <path d="M 550 596 Q 760 410 808 404 Q 871 404 938 426 Q 953 429 954 433 Q 955 439 942 443 Q 765 492 760 495 Q 682 528 569 608 Q 566 611 564 611 C 539 628 528 616 550 596 Z" style="fill: #0070C0;"></path>
                                                                        <path d="M 484 477 Q 457 470 477 459 Q 507 446 591 468 Q 601 471 612 473 Q 627 477 629 479 Q 635 486 631 491 Q 625 500 603 504 Q 590 504 527 486 Q 506 482 484 477 Z" style="fill: #0070C0;"></path>
                                                                        <path d="M 340 383 Q 340 379 345 371 Q 369 326 385 253 Q 389 231 402 217 Q 418 199 422 213 Q 422 217 423 220 L 423 243 L 421 261 Q 406 334 403 358 C 400 380 400 380 380 386 Q 371 389 354 391 C 337 393 337 393 340 383 Z" style="fill: #0070C0;"></path>
                                                                        <path d="M 656 244 Q 656 243 657 241 Q 661 228 671 229 Q 681 230 689 241 Q 698 251 718 306 Q 733 348 763 372 Q 779 384 766 397 Q 753 412 712 434 Q 700 441 639 428 Q 603 428 484 403 Q 423 391 380 386 C 350 382 373 356 403 358 Q 410 357 420 359 Q 454 369 513 380 L 547 385 Q 664 409 687 397 Q 694 393 689 370 Q 670 292 661 271 C 653 249 653 249 656 244 Z" style="fill: #0070C0;"></path>
                                                                        <path d="M 553 263 Q 556 309 559 344 Q 565 371 547 385 C 524 405 507 409 513 380 Q 516 374 520 258 C 521 228 551 233 553 263 Z" style="fill: #0070C0;"></path>
                                                                        <path d="M 431 325 Q 458 280 475 276 Q 484 275 489 285 Q 490 292 487 307 Q 478 331 436 342 Q 430 343 429 336 Q 428 332 431 325 Z" style="fill: #0070C0;"></path>
                                                                        <path d="M 608 349 Q 601 331 583 304 Q 580 300 583 296 Q 587 295 592 298 Q 632 329 652 341 Q 662 345 659 351 Q 655 360 643 369 Q 630 379 618 379 Q 609 378 611 367 Q 612 360 608 349 Z" style="fill: #0070C0;"></path>
                                                                        <path d="M 423 220 Q 433 219 450 220 Q 567 236 656 244 C 686 247 688 259 661 271 Q 657 274 650 275 Q 632 278 553 263 L 520 258 Q 469 251 423 243 C 393 238 393 222 423 220 Z" style="fill: #0070C0;"></path>
                                                                        <path d="M 460 163 Q 453 178 419 185 Q 412 186 408 180 Q 407 176 411 168 Q 435 126 416 23 Q 410 2 413 -13 Q 420 -37 429 -46 Q 436 -56 444 -46 Q 450 -37 454 -24 L 459 4 Q 460 17 461 61 L 462 82 Q 462 121 464 138 C 466 155 466 155 460 163 Z" style="fill: #0070C0;"></path>
                                                                        <path d="M 616 -11 Q 629 -33 641 -59 Q 651 -78 660 -80 Q 670 -80 679 -59 Q 692 -20 688 92 Q 685 125 694 149 Q 701 168 691 177 Q 684 187 651 202 Q 636 209 601 198 Q 570 186 533 178 Q 502 171 460 163 C 431 157 434 137 464 138 Q 476 137 494 142 Q 542 158 604 165 Q 623 166 629 160 Q 632 157 633 62 Q 633 29 630 23 Q 626 14 614 17 C 601 15 601 15 616 -11 Z" style="fill: #0070C0;"></path>
                                                                        <path d="M 461 61 Q 464 61 573 76 Q 592 79 585 90 Q 576 102 555 105 Q 519 108 462 82 C 435 70 431 58 461 61 Z" style="fill: #0070C0;"></path>
                                                                        <path d="M 454 -24 Q 464 -24 477 -24 Q 520 -15 616 -11 C 646 -10 638 -1 614 17 L 606 23 Q 593 30 565 25 Q 507 12 459 4 C 429 -1 424 -24 454 -24 Z" style="fill: #0070C0;"></path>
                                    
                                    
                                                                                                                                                                                                                                                                                                                                                                                                                                                                                                                                                                                                                                                                                                                                                                                                                                                                                                                                                                                                                                                                                                                                                                                                                                                                                                                                            </g>
                            </svg>