<svg width='83' height='83' >
                                <g transform="translate(3, 70) scale(0.07, -0.07)">
                                    <!-- 先将完整的字以灰色字体绘制完成，层级位于下面 -->
                                                                        <path d="M 505 810 Q 527 794 550 772 Q 563 760 579 762 Q 589 763 593 776 Q 597 791 586 819 Q 574 843 497 856 Q 481 857 476 855 Q 472 851 473 839 Q 477 829 505 810 Z" style="fill: #0070C0;"></path>
                                                                        <path d="M 291 671 Q 343 655 379 660 Q 742 711 773 719 Q 788 723 793 727 Q 803 734 798 744 Q 792 757 763 766 Q 732 775 701 764 Q 511 710 293 701 Q 289 701 287 699 C 257 694 262 679 291 671 Z" style="fill: #0070C0;"></path>
                                                                        <path d="M 287 699 Q 271 715 243 727 Q 224 737 210 733 Q 198 726 205 712 Q 221 687 223 632 Q 207 436 191 367 Q 182 331 171 298 Q 135 199 55 71 Q 49 64 48 58 Q 45 48 56 49 Q 89 53 169 182 Q 182 206 195 232 Q 258 377 283 631 Q 286 649 291 671 C 296 692 296 692 287 699 Z" style="fill: #0070C0;"></path>
                                                                        <path d="M 387 568 Q 402 590 416 606 Q 423 615 413 626 Q 382 650 365 648 Q 358 647 358 636 Q 367 585 305 511 Q 292 498 285 489 Q 279 479 290 481 Q 332 487 380 558 L 387 568 Z" style="fill: #0070C0;"></path>
                                                                        <path d="M 426 443 Q 499 524 530 545 Q 543 552 536 563 Q 526 573 499 590 Q 486 594 475 588 Q 469 585 420 573 Q 405 570 387 568 C 367 566 367 566 380 558 Q 392 546 453 553 Q 454 553 456 552 Q 459 549 455 541 Q 428 480 410 452 Q 406 445 403 438 C 390 411 406 421 426 443 Z" style="fill: #0070C0;"></path>
                                                                        <path d="M 322 425 Q 312 432 295 439 Q 280 446 271 442 Q 262 436 268 426 Q 292 402 279 261 Q 270 164 204 40 Q 200 36 199 31 Q 198 22 205 24 Q 232 33 276 114 Q 280 126 287 138 Q 315 214 329 375 Q 329 385 331 396 C 334 418 334 418 322 425 Z" style="fill: #0070C0;"></path>
                                                                        <path d="M 549 193 Q 540 379 552 407 Q 561 423 553 431 Q 546 441 513 458 Q 500 465 486 461 Q 467 454 426 443 L 403 438 Q 363 432 322 425 C 292 420 303 386 331 396 Q 334 400 379 409 L 418 418 Q 478 434 491 423 Q 500 419 502 381 Q 511 257 503 114 Q 502 93 495 87 Q 488 80 440 81 Q 427 82 429 76 Q 430 70 440 67 Q 483 42 507 20 Q 523 7 531 9 Q 540 12 547 32 Q 557 65 555 112 Q 552 146 550 177 L 549 193 Z" style="fill: #0070C0;"></path>
                                                                        <path d="M 390 325 Q 372 322 350 317 Q 328 311 345 301 Q 366 292 390 295 L 428 305 Q 444 311 465 316 Q 478 320 481 322 Q 485 328 482 333 Q 478 340 458 343 Q 442 344 429 339 L 390 325 Z" style="fill: #0070C0;"></path>
                                                                        <path d="M 388 235 Q 366 231 340 228 Q 316 224 334 213 Q 361 203 388 206 L 425 214 Q 482 227 488 230 Q 492 234 490 241 Q 486 248 466 252 Q 447 256 428 247 Q 427 247 426 246 L 388 235 Z" style="fill: #0070C0;"></path>
                                                                        <path d="M 379 409 Q 388 388 390 325 L 390 295 Q 389 268 388 235 L 388 206 Q 388 89 397 74 Q 401 70 406 71 Q 424 84 425 214 L 426 246 Q 426 271 428 305 L 429 339 Q 429 351 437 392 Q 437 404 418 418 C 395 437 370 438 379 409 Z" style="fill: #0070C0;"></path>
                                                                        <path d="M 692 597 Q 735 610 775 616 Q 788 617 791 614 Q 797 607 795 587 Q 794 532 781 507 Q 768 483 746 487 Q 730 491 716 496 Q 697 503 710 483 Q 738 449 751 424 Q 761 409 774 420 Q 819 448 843 568 Q 849 599 861 613 Q 871 623 866 632 Q 859 642 816 660 Q 800 667 784 656 Q 768 646 709 632 Q 649 616 598 612 Q 585 611 582 604 Q 581 597 600 588 Q 619 576 635 582 Q 647 586 660 589 L 692 597 Z" style="fill: #0070C0;"></path>
                                                                        <path d="M 660 589 Q 669 526 588 420 Q 582 416 590 415 Q 653 440 717 566 Q 721 570 720 577 Q 713 592 692 597 C 663 606 658 607 660 589 Z" style="fill: #0070C0;"></path>
                                                                        <path d="M 633 322 Q 640 335 648 347 Q 654 357 642 365 Q 609 383 593 378 Q 586 375 589 365 Q 607 326 563 252 Q 559 242 569 246 Q 593 250 622 301 L 633 322 Z" style="fill: #0070C0;"></path>
                                                                        <path d="M 752 308 Q 780 315 816 323 Q 843 330 847 333 Q 854 340 851 347 Q 844 356 821 361 Q 787 367 756 349 L 701 334 Q 667 328 633 322 C 603 317 593 310 622 301 Q 659 288 697 297 Q 698 298 702 297 L 752 308 Z" style="fill: #0070C0;"></path>
                                                                        <path d="M 751 190 Q 812 199 928 198 Q 943 198 947 205 Q 951 214 938 225 Q 892 258 841 241 Q 802 235 751 224 L 702 215 Q 552 197 549 193 C 533 189 533 189 550 177 Q 560 168 575 164 Q 591 160 604 164 Q 649 177 702 184 L 751 190 Z" style="fill: #0070C0;"></path>
                                                                        <path d="M 708 -35 Q 712 -57 719 -66 Q 723 -72 731 -69 Q 743 -63 749 -10 Q 750 8 751 190 L 751 224 Q 751 261 752 308 L 756 349 Q 757 362 761 373 Q 764 389 751 397 Q 723 416 709 418 Q 699 422 684 414 Q 677 407 683 398 Q 701 353 701 334 L 702 297 Q 702 260 702 215 L 702 184 Q 703 142 703 93 Q 704 -3 708 -35 Z" style="fill: #0070C0;"></path>
                                    
                                    
                                                                                                                                                                                                                                                                                                                                                                                                                                                                                                                                                                                                                                                                                                                                                                                                                                                                                                                                                                                                                                                                                                                                                                                                                                                                                                                                            </g>
                            </svg>