<svg width='83' height='83' >
                                <g transform="translate(3, 70) scale(0.07, -0.07)">
                                    <!-- 先将完整的字以灰色字体绘制完成，层级位于下面 -->
                                                                        <path d="M 475 794 Q 496 776 517 756 Q 533 743 549 745 Q 559 746 565 760 Q 569 776 557 807 Q 545 831 467 844 Q 451 847 444 843 Q 438 839 441 825 Q 445 815 475 794 Z" style="fill: #0070C0;"></path>
                                                                        <path d="M 588 681 Q 792 681 801 688 Q 801 689 802 690 Q 808 700 792 714 Q 741 753 706 745 Q 612 727 232 681 Q 213 680 227 663 Q 240 650 257 644 Q 278 638 293 642 Q 336 654 384 661 L 430 667 Q 469 676 541 679 L 588 681 Z" style="fill: #0070C0;"></path>
                                                                        <path d="M 384 661 Q 384 660 386 656 Q 422 598 383 498 Q 371 473 318 419 Q 308 412 318 410 Q 358 416 397 457 Q 442 502 446 575 Q 449 621 457 637 Q 463 652 449 657 Q 439 664 430 667 C 402 679 371 688 384 661 Z" style="fill: #0070C0;"></path>
                                                                        <path d="M 541 679 Q 551 645 550 555 Q 549 524 546 515 Q 542 505 524 510 Q 506 514 487 517 Q 477 518 475 513 Q 474 507 482 498 Q 528 452 544 425 Q 554 413 564 414 Q 574 417 585 447 Q 601 477 600 532 Q 599 601 599 625 Q 606 661 590 680 Q 589 681 588 681 C 569 704 534 708 541 679 Z" style="fill: #0070C0;"></path>
                                                                        <path d="M 280 582 Q 252 539 218 502 Q 190 469 206 431 Q 210 412 236 421 Q 290 454 299 516 Q 309 550 306 579 Q 302 589 295 590 Q 286 590 280 582 Z" style="fill: #0070C0;"></path>
                                                                        <path d="M 670 577 Q 716 535 772 474 Q 788 453 804 449 Q 814 448 821 459 Q 834 472 820 517 Q 810 559 740 585 Q 695 601 670 608 Q 661 614 659 601 Q 659 588 670 577 Z" style="fill: #0070C0;"></path>
                                                                        <path d="M 657 265 Q 756 272 889 254 Q 914 251 920 260 Q 929 273 916 286 Q 886 316 842 337 Q 827 344 800 336 Q 730 323 658 315 L 594 309 Q 488 303 420 295 L 352 290 Q 316 289 291 285 Q 222 276 118 278 Q 105 279 102 267 Q 101 254 120 239 Q 162 208 209 218 Q 227 224 351 241 L 412 249 Q 421 250 596 262 L 657 265 Z" style="fill: #0070C0;"></path>
                                                                        <path d="M 420 295 Q 423 311 430 327 Q 439 346 422 355 Q 371 389 344 379 Q 331 373 338 358 Q 345 346 352 290 L 351 241 Q 336 96 233 18 Q 218 5 202 -8 Q 189 -18 202 -20 Q 293 -11 364 96 Q 367 105 385 140 Q 397 168 412 249 L 420 295 Z" style="fill: #0070C0;"></path>
                                                                        <path d="M 606 -11 Q 610 -36 618 -45 Q 624 -52 631 -50 Q 647 -40 651 17 Q 657 63 656 110 Q 655 144 657 265 L 658 315 Q 658 322 660 327 Q 661 340 664 352 Q 667 368 653 378 Q 622 400 606 402 Q 593 406 578 398 Q 569 389 577 379 Q 592 346 594 309 L 596 262 Q 600 19 606 -11 Z" style="fill: #0070C0;"></path>
                                    
                                    
                                                                                                                                                                                                                                                                                                                                                                                                                                                                                                                                                                                                                                                                                                                                                                                        </g>
                            </svg>