<svg width='83' height='83' >
                                <g transform="translate(3, 70) scale(0.07, -0.07)">
                                    <!-- 先将完整的字以灰色字体绘制完成，层级位于下面 -->
                                                                        <path d="M 413 590 Q 446 686 483 712 Q 502 734 485 753 Q 466 768 408 794 Q 387 803 328 776 Q 262 752 206 741 Q 188 740 191 729 Q 195 720 214 715 Q 241 705 276 720 Q 375 741 379 737 Q 389 727 385 706 Q 372 643 354 594 C 344 566 403 562 413 590 Z" style="fill: #0070C0;"></path>
                                                                        <path d="M 241 522 Q 344 547 423 561 Q 433 562 434 572 Q 434 579 413 590 C 387 604 382 604 354 594 Q 293 572 240 557 C 211 549 212 515 241 522 Z" style="fill: #0070C0;"></path>
                                                                        <path d="M 301 379 Q 322 380 331 371 Q 344 356 339 314 Q 333 202 306 126 Q 296 89 283 76 Q 276 67 252 74 Q 225 86 204 95 Q 188 102 189 92 Q 190 79 202 63 Q 230 23 245 -11 Q 263 -39 290 -25 Q 366 38 376 115 Q 386 190 399 306 Q 400 333 415 358 Q 425 377 415 387 Q 402 405 368 419 Q 344 429 257 401 Q 215 392 213 395 Q 207 399 212 413 Q 225 462 241 522 C 248 550 248 550 240 557 Q 233 570 198 588 Q 185 598 176 591 Q 166 584 176 570 Q 198 533 184 476 Q 168 400 135 372 Q 122 357 127 344 Q 134 331 146 322 Q 156 315 176 331 Q 198 353 227 363 Q 276 379 301 379 Z" style="fill: #0070C0;"></path>
                                                                        <path d="M 810 325 Q 705 306 595 272 Q 585 268 581 271 Q 575 278 583 299 Q 737 621 772 676 Q 785 689 775 704 Q 765 717 706 736 Q 685 743 674 736 Q 661 727 671 704 Q 684 676 671 629 Q 634 485 554 333 Q 532 288 478 243 Q 463 227 470 214 Q 477 195 511 175 Q 524 163 539 178 Q 588 220 800 290 Q 816 296 826 302 C 853 315 839 331 810 325 Z" style="fill: #0070C0;"></path>
                                                                        <path d="M 826 302 Q 886 214 895 208 Q 904 205 913 214 Q 928 226 923 272 Q 920 327 771 418 Q 762 425 758 412 Q 755 399 764 387 Q 786 359 810 325 L 826 302 Z" style="fill: #0070C0;"></path>
                                    
                                    
                                                                                                                                                                                                                                                                                                                                                                                                                                                                        </g>
                            </svg>