<svg width='83' height='83' >
                                <g transform="translate(3, 70) scale(0.07, -0.07)">
                                    <!-- 先将完整的字以灰色字体绘制完成，层级位于下面 -->
                                                                        <path d="M 380 557 Q 407 645 435 670 Q 459 695 435 711 Q 416 724 389 742 Q 370 754 325 729 Q 264 708 216 699 Q 203 699 206 692 Q 207 686 220 679 Q 236 670 312 687 Q 351 699 358 687 Q 365 680 354 643 Q 342 606 327 561 C 318 533 371 528 380 557 Z" style="fill: #0070C0;"></path>
                                                                        <path d="M 243 494 Q 292 510 392 528 Q 402 531 402 540 Q 402 547 380 557 L 327 561 Q 324 561 322 559 Q 273 540 233 528 C 204 519 214 485 243 494 Z" style="fill: #0070C0;"></path>
                                                                        <path d="M 305 360 Q 326 361 334 352 Q 344 336 340 296 Q 331 205 308 145 Q 292 105 277 89 Q 267 79 241 89 Q 205 102 177 112 Q 159 119 162 108 Q 165 95 179 81 Q 221 41 245 4 Q 261 -18 284 -5 Q 356 47 368 115 Q 408 323 411 326 Q 414 332 417 336 Q 429 355 418 365 Q 405 383 373 398 Q 348 410 331 402 Q 309 396 236 377 Q 224 376 221 379 Q 217 383 242 487 Q 243 491 243 494 C 248 516 248 516 233 528 Q 223 540 198 552 Q 185 562 176 555 Q 166 548 176 534 Q 195 501 185 449 Q 172 382 143 355 Q 130 342 135 327 Q 142 314 154 306 Q 164 299 183 314 Q 205 336 233 345 Q 279 361 305 360 Z" style="fill: #0070C0;"></path>
                                                                        <path d="M 724 694 Q 733 667 674 598 Q 647 565 611 530 Q 601 523 597 518 Q 593 508 605 508 Q 650 508 761 609 Q 777 625 789 631 Q 799 638 797 652 Q 796 664 775 689 Q 754 711 738 714 Q 720 715 724 694 Z" style="fill: #0070C0;"></path>
                                                                        <path d="M 606 406 Q 675 431 868 432 Q 889 432 893 442 Q 897 454 881 466 Q 827 505 768 483 Q 714 471 632 452 Q 604 448 579 441 L 537 433 Q 486 424 435 414 Q 416 411 431 395 Q 444 383 463 378 Q 482 374 498 380 Q 516 386 537 391 L 606 406 Z" style="fill: #0070C0;"></path>
                                                                        <path d="M 579 441 Q 585 693 593 717 Q 600 735 585 749 Q 563 767 537 773 Q 507 780 497 767 Q 490 757 503 743 Q 539 713 537 433 L 537 391 Q 537 100 496 52 Q 484 33 496 12 Q 509 -7 527 -15 Q 537 -22 550 -4 Q 568 27 665 131 Q 692 153 693 163 Q 694 170 688 172 Q 682 173 582 101 Q 569 88 566 107 Q 572 245 577 388 L 579 441 Z" style="fill: #0070C0;"></path>
                                                                        <path d="M 577 388 Q 590 376 601 360 Q 775 126 807 119 Q 876 119 938 133 Q 953 134 958 142 Q 962 148 952 152 Q 796 215 706 302 Q 660 345 606 406 C 579 437 556 409 577 388 Z" style="fill: #0070C0;"></path>
                                    
                                    
                                                                                                                                                                                                                                                                                                                                                                                                                                                                                                                                                                                                                                </g>
                            </svg>