<svg width='83' height='83' >
                                <g transform="translate(3, 70) scale(0.07, -0.07)">
                                    <!-- 先将完整的字以灰色字体绘制完成，层级位于下面 -->
                                                                        <path d="M 337 682 Q 355 754 372 772 Q 382 788 377 800 Q 367 815 328 839 Q 312 849 298 843 Q 288 837 295 823 Q 314 796 290 676 L 282 639 Q 273 606 263 589 Q 256 568 276 555 Q 313 545 345 527 L 384 507 Q 409 494 440 473 Q 455 464 463 465 Q 470 466 473 477 Q 476 487 466 510 Q 457 534 419 545 L 373 558 Q 348 565 316 572 Q 301 575 300 588 Q 313 618 324 648 L 337 682 Z" style="fill: #0070C0;"></path>
                                                                        <path d="M 345 527 Q 270 467 169 436 Q 156 432 165 427 Q 213 409 294 446 Q 324 456 384 507 L 419 545 Q 428 558 478 639 Q 490 663 508 682 Q 521 694 510 705 Q 483 747 458 747 Q 445 747 447 733 Q 450 717 445 699 L 435 671 Q 417 617 378 563 Q 375 562 373 558 L 345 527 Z" style="fill: #0070C0;"></path>
                                                                        <path d="M 445 699 Q 393 692 337 682 L 290 676 Q 226 669 157 659 Q 133 656 97 663 Q 85 663 82 655 Q 78 645 85 635 Q 101 619 127 597 Q 136 593 147 598 Q 219 631 282 639 L 324 648 Q 376 660 430 671 Q 431 672 435 671 C 465 674 475 703 445 699 Z" style="fill: #0070C0;"></path>
                                                                        <path d="M 709 600 Q 742 637 772 698 Q 785 725 806 742 Q 825 755 814 770 Q 802 783 772 796 Q 750 805 722 793 Q 695 784 661 775 Q 627 766 568 761 Q 555 761 549 754 Q 545 747 563 739 Q 597 724 647 736 Q 693 752 701 753 Q 723 749 716 726 Q 706 683 669 627 L 643 600 Q 597 560 505 535 Q 492 532 502 523 Q 506 520 541 522 Q 584 525 635 548 Q 656 558 675 571 L 709 600 Z" style="fill: #0070C0;"></path>
                                                                        <path d="M 675 571 Q 777 481 826 480 Q 890 487 944 502 Q 974 509 970 517 Q 969 521 939 528 Q 783 558 709 600 L 669 627 Q 644 646 617 666 Q 583 694 553 691 Q 537 690 535 685 Q 534 679 549 672 Q 571 662 585 648 Q 612 629 643 600 L 675 571 Z" style="fill: #0070C0;"></path>
                                                                        <path d="M 638 347 Q 668 389 690 394 Q 709 410 696 430 Q 681 445 632 474 Q 614 486 549 462 Q 444 435 341 425 Q 325 424 325 414 Q 328 407 346 399 Q 371 389 406 398 Q 491 413 573 427 Q 595 431 603 423 Q 609 411 581 350 C 569 323 620 323 638 347 Z" style="fill: #0070C0;"></path>
                                                                        <path d="M 411 283 Q 490 302 648 316 Q 658 317 660 325 Q 660 332 638 347 C 621 359 610 357 581 350 Q 481 326 399 313 C 369 308 382 276 411 283 Z" style="fill: #0070C0;"></path>
                                                                        <path d="M 338 130 Q 408 173 549 195 Q 583 205 604 200 Q 626 193 629 158 Q 619 94 583 45 Q 565 23 550 17 Q 538 14 461 43 Q 445 53 443 46 Q 442 40 452 26 Q 489 -20 511 -62 Q 520 -77 531 -77 Q 549 -80 569 -68 Q 635 -20 680 120 Q 680 153 698 180 Q 710 192 700 205 Q 684 221 645 239 Q 630 246 557 229 Q 481 214 403 202 Q 372 195 385 226 Q 403 275 411 283 C 422 304 422 304 399 313 Q 384 320 362 326 Q 343 330 333 323 Q 324 316 337 299 Q 362 266 317 199 Q 311 193 304 186 Q 289 168 293 154 Q 297 139 313 127 Q 326 117 338 130 Z" style="fill: #0070C0;"></path>
                                    
                                    
                                                                                                                                                                                                                                                                                                                                                                                                                                                                                                                                                                                                                                                                                                            </g>
                            </svg>