<svg width='83' height='83' >
                                <g transform="translate(3, 70) scale(0.07, -0.07)">
                                    <!-- 先将完整的字以灰色字体绘制完成，层级位于下面 -->
                                                                        <path d="M 465 810 Q 495 789 528 765 Q 543 755 559 756 Q 569 757 573 772 Q 576 788 563 816 Q 550 844 453 857 Q 437 858 432 855 Q 428 851 430 838 Q 436 828 465 810 Z" style="fill: #0070C0;"></path>
                                                                        <path d="M 591 689 Q 612 693 826 709 Q 839 706 850 721 Q 853 734 826 749 Q 787 771 757 766 Q 517 718 302 704 Q 251 703 199 697 Q 165 696 190 673 Q 227 640 261 646 Q 321 656 392 665 L 424 668 Q 485 678 554 685 L 591 689 Z" style="fill: #0070C0;"></path>
                                                                        <path d="M 392 665 Q 392 664 395 660 Q 413 606 392 542 Q 377 500 404 467 Q 413 457 421 467 Q 439 488 446 572 Q 450 621 454 633 Q 455 646 443 655 Q 434 664 424 668 C 397 681 378 690 392 665 Z" style="fill: #0070C0;"></path>
                                                                        <path d="M 554 685 Q 569 648 557 567 Q 545 516 571 477 Q 580 465 590 476 Q 599 488 605 534 Q 612 634 614 642 Q 618 660 614 667 Q 613 679 591 689 C 564 702 544 712 554 685 Z" style="fill: #0070C0;"></path>
                                                                        <path d="M 310 580 Q 267 531 214 490 Q 186 466 189 428 Q 190 409 215 413 Q 278 431 315 517 Q 331 545 333 572 Q 332 582 326 584 Q 317 585 310 580 Z" style="fill: #0070C0;"></path>
                                                                        <path d="M 683 579 Q 740 536 809 474 Q 825 455 842 453 Q 851 452 857 463 Q 867 476 851 519 Q 833 576 682 609 Q 672 613 671 601 Q 672 588 683 579 Z" style="fill: #0070C0;"></path>
                                                                        <path d="M 648 332 Q 670 374 697 384 Q 715 400 702 418 Q 636 476 581 453 Q 482 420 349 412 Q 333 411 335 401 Q 336 394 354 387 Q 378 377 411 386 Q 499 399 583 413 Q 605 417 613 408 Q 619 399 598 336 C 589 307 633 306 648 332 Z" style="fill: #0070C0;"></path>
                                                                        <path d="M 380 264 Q 468 283 660 300 Q 670 301 671 309 Q 671 316 648 332 C 632 343 627 342 598 336 Q 474 309 374 295 C 344 291 351 258 380 264 Z" style="fill: #0070C0;"></path>
                                                                        <path d="M 318 121 Q 363 157 596 181 Q 636 187 651 184 Q 664 181 667 168 Q 671 153 605 30 Q 595 9 571 17 Q 543 26 506 36 Q 478 46 496 18 Q 548 -39 558 -66 Q 564 -81 578 -80 Q 591 -81 608 -70 Q 647 -40 675 19 Q 711 106 747 133 Q 769 152 757 167 Q 735 197 701 226 Q 685 242 610 225 Q 513 218 391 188 Q 343 182 345 192 Q 344 195 345 198 Q 366 255 380 264 C 390 278 390 278 374 295 Q 361 313 339 328 Q 329 338 316 332 Q 306 328 313 307 Q 320 279 305 241 Q 283 199 265 185 Q 252 169 260 150 Q 267 122 281 112 Q 291 105 318 121 Z" style="fill: #0070C0;"></path>
                                    
                                    
                                                                                                                                                                                                                                                                                                                                                                                                                                                                                                                                                                                                                                                                                                                                                                                        </g>
                            </svg>