<svg width='83' height='83' >
                                <g transform="translate(3, 70) scale(0.07, -0.07)">
                                    <!-- 先将完整的字以灰色字体绘制完成，层级位于下面 -->
                                                                        <path d="M 724 181 Q 767 470 828 581 Q 841 594 836 610 Q 826 629 751 664 Q 729 674 712 669 Q 531 632 309 609 Q 278 608 292 588 Q 308 572 333 565 Q 364 555 388 565 Q 682 625 708 606 Q 724 596 724 554 Q 706 400 661 182 C 655 153 719 151 724 181 Z" style="fill: #0070C0;"></path>
                                                                        <path d="M 254 378 Q 220 374 246 353 Q 285 323 311 326 Q 336 339 635 368 Q 648 367 659 381 Q 660 394 634 408 Q 592 432 515 413 Q 487 409 459 402 Q 432 398 254 378 Z" style="fill: #0070C0;"></path>
                                                                        <path d="M 661 182 Q 442 142 268 132 Q 238 131 255 104 Q 264 91 278 85 Q 294 81 313 83 Q 454 108 755 120 Q 771 121 774 134 Q 775 146 732 177 Q 728 180 724 181 L 661 182 Z" style="fill: #0070C0;"></path>
                                    
                                    
                                                                                                                                                                                                                                                                                                                </g>
                            </svg>