<svg width='83' height='83' >
                                <g transform="translate(3, 70) scale(0.07, -0.07)">
                                    <!-- 先将完整的字以灰色字体绘制完成，层级位于下面 -->
                                                                        <path d="M 445 520 Q 456 533 482 608 Q 509 683 512 685 Q 525 694 519 706 Q 517 712 498 727 Q 460 759 443 753 Q 431 749 435 726 Q 443 665 395 544 Q 352 435 299 366 Q 274 348 245 332 Q 241 329 238 327 Q 221 311 258 270 Q 268 259 282 269 Q 315 286 467 291 Q 496 291 506 302 Q 510 306 510 308 Q 512 316 490 316 Q 421 326 345 332 Q 331 332 341 347 Q 361 370 394 437 Q 426 500 436 511 L 445 520 Z" style="fill: #0070C0;"></path>
                                                                        <path d="M 504 140 Q 528 163 595 239 Q 606 252 651 312 Q 762 457 788 473 Q 808 483 796 498 Q 784 511 746 539 Q 737 543 682 533 Q 662 531 636 529 Q 496 519 445 520 C 424 520 424 520 436 511 Q 448 491 510 488 Q 521 488 535 488 Q 678 493 684 488 Q 688 482 680 467 Q 662 434 624 372 Q 529 215 494 165 Q 480 147 477 136 C 463 109 483 119 504 140 Z" style="fill: #0070C0;"></path>
                                                                        <path d="M 843 110 Q 864 110 870 120 Q 876 133 858 149 Q 797 194 732 178 Q 638 162 504 140 L 477 136 L 138 96 Q 116 95 131 74 Q 166 41 210 52 Q 341 88 519 102 Q 637 110 843 110 Z" style="fill: #0070C0;"></path>
                                    
                                    
                                                                                                                                                                                                                                                                                                                </g>
                            </svg>