<svg width='83' height='83' >
                                <g transform="translate(3, 70) scale(0.07, -0.07)">
                                    <!-- 先将完整的字以灰色字体绘制完成，层级位于下面 -->
                                                                        <path d="M 523 458 Q 542 692 559 748 Q 563 758 542 775 Q 506 794 481 800 Q 465 804 456 795 Q 449 788 456 771 Q 475 743 476 724 Q 483 598 478 450 C 477 420 521 428 523 458 Z" style="fill: #0070C0;"></path>
                                                                        <path d="M 269 611 Q 314 548 354 524 Q 370 520 383 533 Q 390 546 389 566 Q 380 615 313 641 Q 276 662 258 657 Q 251 656 253 642 Q 253 629 269 611 Z" style="fill: #0070C0;"></path>
                                                                        <path d="M 679 693 Q 664 666 587 573 Q 575 554 596 557 Q 639 581 729 640 Q 751 659 781 671 Q 806 683 793 704 Q 777 725 746 742 Q 718 758 703 756 Q 687 755 692 738 Q 696 716 679 693 Z" style="fill: #0070C0;"></path>
                                                                        <path d="M 712 138 Q 749 339 812 401 Q 834 425 815 448 Q 794 466 727 498 Q 703 508 676 498 Q 597 473 523 458 L 478 450 Q 379 437 280 432 Q 259 431 261 419 Q 264 409 286 400 Q 316 385 359 397 Q 501 418 637 439 Q 673 446 686 431 Q 707 412 701 371 Q 679 241 649 139 C 641 110 706 109 712 138 Z" style="fill: #0070C0;"></path>
                                                                        <path d="M 250 267 Q 219 264 242 245 Q 278 214 308 222 Q 429 244 626 263 Q 638 262 648 275 Q 649 288 625 300 Q 589 322 511 303 Q 483 299 455 292 Q 419 286 250 267 Z" style="fill: #0070C0;"></path>
                                                                        <path d="M 649 139 Q 433 100 261 89 Q 234 88 250 64 Q 257 52 271 47 Q 284 43 303 45 Q 441 70 737 84 Q 752 85 754 96 Q 755 106 716 136 Q 715 137 712 138 L 649 139 Z" style="fill: #0070C0;"></path>
                                    
                                    
                                                                                                                                                                                                                                                                                                                                                                                                                                                                                                                                                    </g>
                            </svg>