<svg width='83' height='83' >
                                <g transform="translate(3, 70) scale(0.07, -0.07)">
                                    <!-- 先将完整的字以灰色字体绘制完成，层级位于下面 -->
                                                                        <path d="M 487 794 Q 490 798 495 801 Q 508 813 507 818 Q 506 830 480 857 Q 470 869 455 868 Q 446 867 449 855 Q 455 831 394 746 Q 385 739 373 730 Q 357 721 358 711 Q 359 696 369 682 Q 376 672 387 677 Q 420 690 524 700 Q 537 701 549 703 C 579 707 590 720 560 720 Q 490 720 432 720 Q 413 721 423 733 Q 447 760 471 780 L 487 794 Z" style="fill: #0070C0;"></path>
                                                                        <path d="M 556 668 Q 638 744 681 766 Q 699 775 688 788 Q 676 801 643 823 Q 628 830 613 822 Q 604 818 529 800 Q 510 796 487 794 C 457 791 454 791 471 780 Q 478 773 497 769 Q 507 768 581 779 Q 591 780 593 778 Q 596 774 590 766 Q 574 741 560 720 L 549 703 Q 522 670 519 662 C 504 636 534 648 556 668 Z" style="fill: #0070C0;"></path>
                                                                        <path d="M 624 645 Q 706 652 774 659 Q 783 658 792 668 Q 793 678 773 689 Q 749 713 649 687 Q 609 680 568 671 Q 561 670 556 668 L 519 662 Q 417 649 273 638 Q 248 635 266 619 Q 294 597 337 602 Q 448 623 596 641 L 624 645 Z" style="fill: #0070C0;"></path>
                                                                        <path d="M 253 527 Q 268 514 285 496 Q 294 487 304 488 Q 311 488 314 497 Q 317 506 311 525 Q 308 537 289 546 Q 243 561 236 558 Q 232 557 233 547 Q 236 540 253 527 Z" style="fill: #0070C0;"></path>
                                                                        <path d="M 459 575 Q 447 556 423 524 Q 420 520 423 516 Q 427 515 432 518 Q 478 552 502 564 Q 512 568 510 574 Q 506 583 495 593 Q 483 603 470 604 Q 463 604 463 593 Q 464 584 459 575 Z" style="fill: #0070C0;"></path>
                                                                        <path d="M 385 449 Q 428 458 479 462 Q 492 463 493 469 Q 494 479 480 486 Q 459 498 387 480 L 352 473 Q 229 452 179 449 Q 170 448 167 443 Q 164 434 176 426 Q 203 405 258 420 Q 286 429 314 434 L 385 449 Z" style="fill: #0070C0;"></path>
                                                                        <path d="M 351 413 Q 348 341 359 322 L 360 320 Q 367 310 377 315 Q 387 324 384 387 Q 383 418 385 449 L 387 480 Q 390 534 403 556 Q 407 563 399 572 Q 383 585 362 593 Q 349 599 339 595 Q 329 591 334 581 Q 350 556 351 515 Q 351 493 352 473 L 351 413 Z" style="fill: #0070C0;"></path>
                                                                        <path d="M 314 434 Q 263 361 165 301 Q 152 292 164 290 Q 173 289 204 299 Q 234 306 262 326 Q 286 342 314 370 Q 338 392 351 413 C 373 447 345 478 314 434 Z" style="fill: #0070C0;"></path>
                                                                        <path d="M 408 411 Q 441 362 458 359 Q 468 358 473 370 Q 474 380 470 395 Q 463 407 448 414 Q 424 427 413 430 Q 406 431 405 424 Q 404 418 408 411 Z" style="fill: #0070C0;"></path>
                                                                        <path d="M 645 546 Q 620 552 599 556 Q 577 560 591 571 Q 613 587 633 599 Q 643 609 643 614 Q 643 623 624 645 C 605 668 599 671 596 641 Q 597 625 566 585 Q 560 578 548 571 Q 535 564 534 556 Q 535 544 541 531 Q 544 527 570 529 Q 591 532 628 533 C 658 534 674 539 645 546 Z" style="fill: #0070C0;"></path>
                                                                        <path d="M 638 460 Q 680 475 737 482 C 767 486 761 496 731 494 Q 670 490 597 475 Q 593 474 596 478 Q 692 550 739 572 Q 749 576 747 584 Q 744 599 726 617 Q 717 627 710 627 Q 703 626 701 616 Q 698 588 645 546 L 628 533 Q 556 476 542 474 Q 532 470 531 460 Q 530 451 544 435 Q 550 426 561 432 Q 586 445 614 453 L 638 460 Z" style="fill: #0070C0;"></path>
                                                                        <path d="M 737 482 Q 756 463 759 461 Q 766 458 775 469 Q 778 478 775 493 Q 768 514 729 533 Q 723 534 720 528 Q 719 524 731 494 L 737 482 Z" style="fill: #0070C0;"></path>
                                                                        <path d="M 614 453 Q 621 446 614 374 Q 614 368 613 365 Q 610 343 630 309 Q 637 297 642 295 Q 649 294 653 302 Q 657 317 654 406 Q 654 428 655 438 Q 656 445 652 450 Q 645 456 638 460 C 612 476 602 481 614 453 Z" style="fill: #0070C0;"></path>
                                                                        <path d="M 537 401 Q 537 380 483 328 Q 470 319 486 321 Q 519 321 579 379 Q 579 380 581 380 Q 587 387 586 393 Q 585 400 568 406 Q 552 412 544 410 Q 540 409 537 401 Z" style="fill: #0070C0;"></path>
                                                                        <path d="M 696 403 Q 726 375 761 336 Q 771 323 782 320 Q 788 319 792 326 Q 801 335 792 363 Q 786 388 741 407 Q 713 417 697 423 Q 691 426 690 418 Q 689 409 696 403 Z" style="fill: #0070C0;"></path>
                                                                        <path d="M 661 211 Q 769 221 925 201 Q 947 197 954 206 Q 963 219 951 231 Q 923 259 879 281 Q 866 287 839 280 Q 763 265 685 257 Q 672 256 664 255 L 605 250 Q 467 243 421 235 L 355 230 Q 315 229 287 224 Q 211 214 99 216 Q 86 217 84 206 Q 83 193 101 178 Q 117 165 148 152 Q 158 148 177 156 Q 195 162 275 173 Q 311 180 353 186 L 409 193 Q 490 203 606 207 L 661 211 Z" style="fill: #0070C0;"></path>
                                                                        <path d="M 421 235 Q 422 239 424 241 Q 431 257 418 265 Q 375 296 352 289 Q 340 285 346 271 Q 355 259 355 230 L 353 186 Q 344 63 223 -18 Q 213 -27 223 -29 Q 268 -29 324 19 Q 384 73 403 163 Q 404 179 409 193 L 421 235 Z" style="fill: #0070C0;"></path>
                                                                        <path d="M 606 207 Q 610 102 599 38 Q 590 2 624 -48 Q 636 -67 644 -70 Q 654 -71 660 -58 Q 664 -40 666 26 Q 660 110 661 211 L 664 255 Q 661 270 617 292 Q 605 295 596 288 Q 590 284 598 275 Q 602 268 605 250 L 606 207 Z" style="fill: #0070C0;"></path>
                                    
                                    
                                                                                                                                                                                                                                                                                                                                                                                                                                                                                                                                                                                                                                                                                                                                                                                                                                                                                                                                                                                                                                                                                                                                                                                                                                                                                                                                                                                                                                                                                                    </g>
                            </svg>