<svg width='83' height='83' >
                                <g transform="translate(3, 70) scale(0.07, -0.07)">
                                    <!-- 先将完整的字以灰色字体绘制完成，层级位于下面 -->
                                                                        <path d="M 622 793 Q 598 812 581 815 Q 562 815 568 793 Q 589 721 386 517 Q 376 508 372 502 Q 368 492 381 493 Q 438 500 594 678 Q 609 708 643 732 Q 653 742 650 755 Q 647 768 622 793 Z" style="fill: #0070C0;"></path>
                                                                        <path d="M 634 553 Q 612 575 594 579 Q 576 580 580 558 Q 593 495 404 324 Q 392 317 389 311 Q 385 301 398 300 Q 461 309 602 448 Q 618 475 650 492 Q 660 499 659 514 Q 658 527 634 553 Z" style="fill: #0070C0;"></path>
                                                                        <path d="M 641 378 Q 631 231 449 87 Q 442 84 436 78 Q 385 38 263 -28 Q 253 -35 260 -40 Q 267 -44 282 -41 Q 363 -25 436 16 Q 565 79 678 261 Q 699 289 722 317 Q 732 326 729 339 Q 723 352 692 379 Q 670 398 658 397 Q 642 396 641 378 Z" style="fill: #0070C0;"></path>
                                    
                                    
                                                                                                                                                                                                                                                                                                                </g>
                            </svg>