<svg width='83' height='83' >
                                <g transform="translate(3, 70) scale(0.07, -0.07)">
                                    <!-- 先将完整的字以灰色字体绘制完成，层级位于下面 -->
                                                                        <path d="M 459 712 Q 504 719 543 723 Q 555 722 564 735 Q 565 748 541 759 Q 504 781 445 764 Q 255 731 197 723 Q 166 719 190 700 Q 212 681 234 676 L 266 680 Q 330 695 417 707 L 459 712 Z" style="fill: #0070C0;"></path>
                                                                        <path d="M 479 490 Q 516 496 559 499 Q 575 500 577 508 Q 578 521 560 531 Q 530 546 480 534 L 433 525 Q 360 512 310 502 L 260 494 Q 142 479 79 476 Q 66 475 62 467 Q 58 457 74 443 Q 116 413 157 425 Q 209 441 257 451 L 306 462 Q 349 474 432 484 L 479 490 Z" style="fill: #0070C0;"></path>
                                                                        <path d="M 234 676 Q 234 672 242 660 Q 264 620 260 494 L 257 451 Q 257 333 180 221 Q 146 178 111 146 Q 98 133 94 128 Q 93 121 104 121 Q 170 128 255 259 Q 261 272 268 285 Q 293 348 306 462 L 310 502 Q 316 616 320 636 Q 326 655 306 665 Q 281 677 266 680 C 237 689 226 692 234 676 Z" style="fill: #0070C0;"></path>
                                                                        <path d="M 432 484 Q 431 469 431 452 Q 424 262 409 224 Q 400 182 436 130 Q 448 111 456 105 Q 469 104 474 118 Q 487 152 483 184 Q 479 350 479 490 L 480 534 Q 481 633 489 673 Q 490 686 484 693 Q 471 705 459 712 C 434 729 406 735 417 707 L 418 706 Q 436 676 433 525 L 432 484 Z" style="fill: #0070C0;"></path>
                                                                        <path d="M 760 794 Q 772 761 697 662 Q 661 617 614 568 Q 604 561 600 554 Q 596 544 609 545 Q 669 551 798 697 Q 817 722 834 732 Q 844 741 841 755 Q 838 768 814 793 Q 792 814 773 816 Q 755 816 760 794 Z" style="fill: #0070C0;"></path>
                                                                        <path d="M 754 548 Q 761 514 677 421 Q 637 379 584 335 Q 574 328 570 322 Q 564 312 578 312 Q 629 312 774 443 Q 801 471 820 481 Q 830 488 829 503 Q 828 515 807 542 Q 786 564 769 567 Q 751 568 754 548 Z" style="fill: #0070C0;"></path>
                                                                        <path d="M 793 359 Q 778 208 604 85 Q 601 84 598 81 Q 550 44 436 -16 Q 426 -23 432 -28 Q 439 -32 454 -30 Q 530 -15 599 21 Q 719 76 831 245 Q 850 272 873 296 Q 885 305 880 318 Q 876 331 845 359 Q 823 378 811 378 Q 795 377 793 359 Z" style="fill: #0070C0;"></path>
                                    
                                    
                                                                                                                                                                                                                                                                                                                                                                                                                                                                                                                                                                                                                                </g>
                            </svg>