<svg width='83' height='83' >
                                <g transform="translate(3, 70) scale(0.07, -0.07)">
                                    <!-- 先将完整的字以灰色字体绘制完成，层级位于下面 -->
                                                                        <path d="M 278 504 Q 291 508 308 512 Q 339 522 344 526 Q 351 533 347 541 Q 340 551 313 557 Q 294 560 279 555 L 237 539 Q 126 509 90 503 Q 57 496 82 481 Q 124 460 175 478 Q 194 484 219 489 L 278 504 Z" style="fill: #0070C0;"></path>
                                                                        <path d="M 275 413 Q 276 456 278 504 L 279 555 Q 279 645 299 715 Q 311 739 285 757 Q 270 767 248 782 Q 227 798 208 783 Q 204 779 209 765 Q 237 722 237 679 Q 238 616 238 544 Q 237 543 237 539 L 232 399 Q 228 236 213 178 Q 192 124 218 63 Q 218 62 219 60 Q 225 44 232 41 Q 236 35 244 42 Q 269 57 270 116 Q 269 150 275 390 L 275 413 Z" style="fill: #0070C0;"></path>
                                                                        <path d="M 219 489 Q 174 369 46 202 Q 40 192 52 191 Q 59 190 68 198 Q 170 283 232 399 C 295 515 230 517 219 489 Z" style="fill: #0070C0;"></path>
                                                                        <path d="M 275 390 Q 327 345 352 346 Q 364 347 366 364 Q 365 376 354 391 Q 342 403 321 407 Q 288 414 275 413 C 249 412 252 410 275 390 Z" style="fill: #0070C0;"></path>
                                                                        <path d="M 524 528 Q 557 538 593 546 Q 621 553 624 558 Q 631 565 627 573 Q 620 583 593 589 Q 557 595 525 574 L 481 560 Q 477 560 475 559 Q 438 549 394 542 Q 361 535 386 521 Q 423 503 474 515 L 524 528 Z" style="fill: #0070C0;"></path>
                                                                        <path d="M 521 408 Q 522 463 524 528 L 525 574 Q 525 682 544 749 Q 553 762 550 776 Q 543 785 491 817 Q 469 833 450 819 Q 446 815 451 800 Q 481 755 481 686 Q 481 623 481 560 L 477 414 Q 473 257 457 190 Q 438 147 465 77 Q 472 61 479 57 Q 485 51 492 58 Q 499 62 509 82 Q 519 106 518 135 Q 517 168 521 383 L 521 408 Z" style="fill: #0070C0;"></path>
                                                                        <path d="M 474 515 Q 435 404 314 240 Q 310 230 320 230 Q 326 229 334 237 Q 425 319 477 414 C 547 539 484 543 474 515 Z" style="fill: #0070C0;"></path>
                                                                        <path d="M 521 383 Q 587 332 604 335 Q 616 336 619 352 Q 618 364 607 380 Q 594 393 571 399 Q 537 409 521 408 C 491 407 497 401 521 383 Z" style="fill: #0070C0;"></path>
                                                                        <path d="M 782 766 Q 797 732 723 620 Q 689 569 640 514 Q 630 504 627 498 Q 623 488 637 489 Q 689 495 815 652 Q 854 701 862 707 Q 872 717 868 731 Q 865 744 838 768 Q 813 787 794 789 Q 775 788 782 766 Z" style="fill: #0070C0;"></path>
                                                                        <path d="M 778 533 Q 790 499 716 397 Q 680 351 633 300 Q 623 291 620 286 Q 616 276 629 277 Q 683 286 810 430 Q 829 461 851 474 Q 861 483 857 496 Q 856 509 831 533 Q 807 552 790 554 Q 772 554 778 533 Z" style="fill: #0070C0;"></path>
                                                                        <path d="M 816 332 Q 819 239 671 89 Q 545 -16 490 -56 Q 481 -60 492 -64 Q 549 -64 681 37 Q 771 118 876 254 Q 888 269 896 275 Q 903 279 903 291 Q 902 301 890 315 Q 877 331 857 338 Q 835 348 824 346 Q 814 345 816 332 Z" style="fill: #0070C0;"></path>
                                    
                                    
                                                                                                                                                                                                                                                                                                                                                                                                                                                                                                                                                                                                                                                                                                                                                                                                                                                                                                                                                </g>
                            </svg>