<svg width='83' height='83' >
                                <g transform="translate(3, 70) scale(0.07, -0.07)">
                                    <!-- 先将完整的字以灰色字体绘制完成，层级位于下面 -->
                                                                        <path d="M 306 809 Q 318 776 243 676 Q 209 631 161 582 Q 151 575 148 569 Q 144 559 157 561 Q 199 561 327 703 Q 360 745 374 754 Q 383 761 380 774 Q 377 786 355 809 Q 333 827 317 829 Q 301 829 306 809 Z" style="fill: #0070C0;"></path>
                                                                        <path d="M 263 406 Q 372 538 374 539 Q 374 543 373 547 Q 372 560 346 585 Q 324 604 305 607 Q 286 607 292 586 Q 301 556 288 534 Q 216 404 62 257 Q 52 248 48 242 Q 44 232 57 233 Q 105 239 237 378 L 263 406 Z" style="fill: #0070C0;"></path>
                                                                        <path d="M 237 378 Q 238 372 243 367 Q 276 288 237 106 Q 216 76 251 13 Q 254 9 258 3 Q 274 -12 286 13 Q 299 52 299 95 Q 300 284 307 327 Q 314 352 305 362 Q 272 401 263 406 C 240 425 223 404 237 378 Z" style="fill: #0070C0;"></path>
                                                                        <path d="M 807 547 Q 837 604 858 617 Q 877 639 852 656 Q 828 675 803 690 Q 788 702 766 692 Q 741 682 702 674 Q 696 674 694 672 L 649 663 Q 606 656 565 644 L 522 634 Q 485 627 458 624 Q 445 624 443 616 Q 442 609 463 598 Q 482 585 512 594 Q 516 595 523 597 L 564 609 Q 592 619 649 626 L 694 633 Q 724 639 759 643 Q 771 644 775 639 Q 781 627 755 552 C 745 524 793 521 807 547 Z" style="fill: #0070C0;"></path>
                                                                        <path d="M 693 498 Q 751 508 820 514 Q 830 515 832 524 Q 832 531 807 547 C 788 560 784 559 755 552 Q 724 545 694 537 L 647 527 Q 604 518 564 510 L 525 503 Q 485 499 447 492 C 417 487 437 450 466 459 Q 469 462 524 471 L 563 479 Q 600 486 647 492 L 693 498 Z" style="fill: #0070C0;"></path>
                                                                        <path d="M 694 374 Q 814 395 845 387 Q 858 386 863 375 Q 869 363 829 240 Q 828 230 817 232 Q 793 242 763 254 Q 739 266 753 240 Q 792 185 798 161 Q 802 148 816 147 Q 829 146 846 156 Q 871 183 891 238 Q 909 325 938 353 Q 954 371 944 383 Q 922 407 888 428 Q 876 437 799 420 Q 708 408 693 403 L 644 396 Q 598 390 562 382 L 519 374 Q 453 361 442 361 Q 435 362 437 376 Q 450 434 461 450 Q 464 454 466 459 C 473 474 472 475 447 492 Q 437 501 424 508 Q 414 515 405 509 Q 398 505 404 487 Q 414 463 404 430 Q 386 376 370 357 Q 360 342 368 327 Q 375 302 388 295 Q 398 291 420 306 Q 445 327 516 344 L 560 353 Q 594 360 643 366 L 694 374 Z" style="fill: #0070C0;"></path>
                                                                        <path d="M 565 644 Q 565 687 583 735 Q 589 748 579 758 Q 558 774 522 782 Q 500 786 492 781 Q 485 774 492 763 Q 516 729 522 634 L 523 597 Q 524 551 525 503 L 524 471 Q 523 437 521 402 Q 520 389 519 374 L 516 344 Q 501 215 441 130 Q 417 102 385 70 Q 375 61 376 58 Q 377 54 388 56 Q 400 53 428 69 Q 521 117 551 265 Q 558 305 560 353 L 562 382 Q 562 395 563 479 L 564 510 Q 564 561 564 609 L 565 644 Z" style="fill: #0070C0;"></path>
                                                                        <path d="M 643 366 Q 634 -31 647 -62 Q 650 -68 653 -73 Q 659 -80 667 -78 Q 685 -66 689 -6 Q 701 109 697 223 Q 694 269 694 374 L 693 403 Q 693 446 693 498 L 694 537 Q 694 583 694 633 L 694 672 Q 694 723 710 820 Q 714 839 699 848 Q 665 870 648 874 Q 635 878 618 869 Q 609 860 617 850 Q 648 784 650 705 Q 649 686 649 663 L 649 626 Q 648 580 647 527 L 647 492 Q 646 446 644 396 L 643 366 Z" style="fill: #0070C0;"></path>
                                    
                                    
                                                                                                                                                                                                                                                                                                                                                                                                                                                                                                                                                                                                                                                                                                            </g>
                            </svg>