<svg width='83' height='83' >
                                <g transform="translate(3, 70) scale(0.07, -0.07)">
                                    <!-- 先将完整的字以灰色字体绘制完成，层级位于下面 -->
                                                                        <path d="M 290 793 Q 302 762 227 663 Q 193 618 145 570 Q 135 563 132 557 Q 128 548 141 549 Q 184 549 317 695 Q 335 723 357 738 Q 367 745 364 758 Q 361 770 339 793 Q 317 812 301 813 Q 285 813 290 793 Z" style="fill: #0070C0;"></path>
                                                                        <path d="M 242 388 Q 279 431 322 483 Q 350 526 375 545 Q 385 554 382 567 Q 379 580 354 605 Q 330 624 312 626 Q 294 626 300 605 Q 310 574 296 550 Q 253 471 193 398 Q 135 328 57 253 Q 47 244 44 238 Q 40 228 53 229 Q 89 233 215 359 L 242 388 Z" style="fill: #0070C0;"></path>
                                                                        <path d="M 215 359 Q 245 290 211 114 Q 195 92 220 32 Q 224 22 231 15 Q 247 0 258 25 Q 271 62 271 103 Q 272 278 278 318 Q 285 343 276 352 Q 249 385 242 388 C 219 407 204 387 215 359 Z" style="fill: #0070C0;"></path>
                                                                        <path d="M 611 718 Q 618 731 627 746 Q 636 759 641 767 Q 648 771 646 782 Q 645 791 631 802 Q 597 829 567 821 Q 558 818 562 806 Q 580 731 459 561 Q 456 558 454 555 Q 418 509 328 419 Q 321 415 331 412 Q 352 415 432 476 Q 433 479 437 480 Q 512 544 598 695 L 611 718 Z" style="fill: #0070C0;"></path>
                                                                        <path d="M 598 695 Q 683 580 794 458 Q 813 439 843 440 Q 948 444 981 450 Q 991 451 992 457 Q 992 461 978 469 Q 836 514 766 573 Q 693 634 611 718 C 590 739 580 719 598 695 Z" style="fill: #0070C0;"></path>
                                                                        <path d="M 599 436 Q 717 466 720 467 Q 729 476 724 484 Q 715 496 686 502 Q 655 508 625 494 Q 591 482 555 473 Q 515 463 469 458 Q 432 451 459 434 Q 502 415 552 424 L 599 436 Z" style="fill: #0070C0;"></path>
                                                                        <path d="M 617 300 Q 678 309 762 311 Q 811 311 816 321 Q 820 331 805 343 Q 754 379 687 358 Q 656 352 619 341 L 563 329 Q 475 316 374 296 Q 355 293 370 279 Q 383 267 399 263 Q 418 259 433 264 Q 493 283 563 292 L 617 300 Z" style="fill: #0070C0;"></path>
                                                                        <path d="M 517 66 Q 498 73 472 79 Q 462 83 461 76 Q 461 69 471 59 Q 526 10 562 -31 Q 572 -40 586 -25 Q 620 20 622 118 Q 615 221 617 300 L 619 341 Q 619 362 622 382 Q 628 407 622 417 Q 616 426 599 436 C 574 453 544 453 552 424 Q 561 400 563 329 L 563 292 Q 564 220 564 106 Q 563 75 553 65 Q 543 58 517 66 Z" style="fill: #0070C0;"></path>
                                                                        <path d="M 432 213 Q 401 167 360 129 Q 336 101 344 70 Q 348 52 369 59 Q 421 83 444 156 Q 454 184 454 208 Q 451 217 446 218 Q 439 219 432 213 Z" style="fill: #0070C0;"></path>
                                                                        <path d="M 693 201 Q 742 155 802 87 Q 818 66 833 62 Q 842 61 849 71 Q 862 84 849 127 Q 837 181 694 232 Q 685 236 683 225 Q 682 212 693 201 Z" style="fill: #0070C0;"></path>
                                    
                                    
                                                                                                                                                                                                                                                                                                                                                                                                                                                                                                                                                                                                                                                                                                                                                                                                                                                                    </g>
                            </svg>