<svg width='83' height='83' >
                                <g transform="translate(3, 70) scale(0.07, -0.07)">
                                    <!-- 先将完整的字以灰色字体绘制完成，层级位于下面 -->
                                                                        <path d="M 290 801 Q 302 765 228 667 Q 192 621 145 572 Q 135 563 132 558 Q 128 548 141 549 Q 199 558 327 706 Q 346 731 362 742 Q 372 751 369 764 Q 366 777 343 801 Q 319 820 302 822 Q 284 822 290 801 Z" style="fill: #0070C0;"></path>
                                                                        <path d="M 251 392 Q 338 512 357 527 Q 367 537 364 551 Q 360 564 334 588 Q 309 607 290 609 Q 271 609 278 586 Q 288 556 276 532 Q 236 450 179 376 Q 124 304 49 226 Q 39 216 35 211 Q 31 201 45 201 Q 78 205 223 359 L 251 392 Z" style="fill: #0070C0;"></path>
                                                                        <path d="M 223 359 Q 235 329 233 253 Q 232 174 208 91 Q 204 72 212 40 Q 222 6 234 -4 Q 250 -20 262 6 Q 277 46 276 91 Q 283 275 292 315 Q 299 342 290 352 Q 254 391 251 392 C 229 412 214 388 223 359 Z" style="fill: #0070C0;"></path>
                                                                        <path d="M 630 436 Q 642 554 650 661 Q 656 704 665 730 Q 669 743 647 758 Q 610 779 584 783 Q 566 787 558 778 Q 549 769 559 754 Q 578 726 579 707 Q 589 580 586 430 C 585 400 627 406 630 436 Z" style="fill: #0070C0;"></path>
                                                                        <path d="M 413 587 Q 455 520 482 504 Q 495 498 507 509 Q 514 521 516 537 Q 510 588 432 621 L 431 622 Q 416 629 406 627 Q 400 627 401 615 Q 400 603 413 587 Z" style="fill: #0070C0;"></path>
                                                                        <path d="M 770 639 Q 742 602 688 547 Q 681 540 687 531 Q 694 528 704 533 Q 803 588 850 609 Q 869 613 867 625 Q 861 644 842 666 Q 823 688 797 692 Q 781 693 780 672 Q 781 656 770 639 Z" style="fill: #0070C0;"></path>
                                                                        <path d="M 402 395 Q 380 405 365 403 Q 352 399 358 388 Q 401 310 370 180 Q 345 135 384 91 Q 391 79 400 85 Q 428 106 427 193 Q 426 322 426 355 C 426 385 426 385 402 395 Z" style="fill: #0070C0;"></path>
                                                                        <path d="M 426 355 Q 436 355 448 359 Q 574 404 771 419 Q 790 418 799 407 Q 808 398 803 383 Q 810 172 796 140 Q 793 130 780 133 Q 752 136 720 140 Q 692 141 712 124 Q 782 76 811 40 Q 824 24 839 38 Q 855 57 863 87 Q 873 118 865 291 Q 861 355 878 387 Q 893 409 886 417 Q 879 430 826 461 Q 807 476 764 459 Q 757 458 630 436 L 586 430 Q 516 420 480 410 Q 437 401 402 395 C 372 390 397 349 426 355 Z" style="fill: #0070C0;"></path>
                                                                        <path d="M 528 321 Q 519 325 499 328 Q 489 329 486 326 Q 482 320 489 307 Q 508 270 523 205 Q 527 186 538 173 Q 554 155 558 169 Q 561 178 560 192 L 556 222 Q 547 280 546 298 C 545 315 545 315 528 321 Z" style="fill: #0070C0;"></path>
                                                                        <path d="M 695 230 Q 714 282 733 297 Q 754 319 734 332 Q 718 342 695 360 Q 679 370 662 361 Q 623 337 528 321 C 498 316 516 293 546 298 Q 564 301 638 317 Q 662 321 667 313 Q 671 309 665 285 Q 658 266 651 241 C 643 212 684 202 695 230 Z" style="fill: #0070C0;"></path>
                                                                        <path d="M 560 192 Q 572 192 584 192 Q 621 199 701 204 Q 711 205 712 213 Q 712 220 695 230 L 651 241 Q 645 242 640 240 Q 594 228 556 222 C 526 217 530 192 560 192 Z" style="fill: #0070C0;"></path>
                                    
                                    
                                                                                                                                                                                                                                                                                                                                                                                                                                                                                                                                                                                                                                                                                                                                                                                                                                                                                                                                                </g>
                            </svg>