<svg width='83' height='83' >
                                <g transform="translate(3, 70) scale(0.07, -0.07)">
                                    <!-- 先将完整的字以灰色字体绘制完成，层级位于下面 -->
                                                                        <path d="M 294 803 Q 306 773 241 674 Q 210 629 168 580 Q 158 571 156 566 Q 152 556 165 557 Q 213 564 332 705 Q 338 726 369 747 Q 378 756 375 769 Q 371 781 347 804 Q 323 823 305 824 Q 287 824 294 803 Z" style="fill: #0070C0;"></path>
                                                                        <path d="M 246 379 Q 276 416 310 463 Q 335 503 358 521 Q 367 531 363 544 Q 360 557 334 580 Q 309 599 292 600 Q 273 599 280 578 Q 290 550 279 527 Q 221 404 72 241 Q 62 232 59 226 Q 55 216 69 217 Q 108 223 218 347 L 246 379 Z" style="fill: #0070C0;"></path>
                                                                        <path d="M 218 347 Q 252 269 210 87 Q 198 38 233 -3 L 234 -5 Q 250 -20 262 5 Q 275 44 275 87 Q 276 267 283 307 Q 290 332 281 342 Q 253 375 246 379 C 223 399 207 375 218 347 Z" style="fill: #0070C0;"></path>
                                                                        <path d="M 521 667 Q 638 691 697 714 Q 743 730 782 735 Q 798 735 803 742 Q 807 752 796 764 Q 739 812 706 809 Q 699 805 697 795 Q 691 756 512 684 C 484 673 492 661 521 667 Z" style="fill: #0070C0;"></path>
                                                                        <path d="M 512 684 Q 497 697 472 707 Q 453 717 442 711 Q 430 704 437 691 Q 455 670 456 596 Q 455 589 455 579 Q 452 414 414 299 Q 383 203 310 82 Q 306 75 303 69 Q 302 59 311 61 Q 347 68 424 208 Q 430 223 438 238 Q 496 376 507 554 Q 508 623 518 652 Q 522 661 521 667 C 523 676 523 676 512 684 Z" style="fill: #0070C0;"></path>
                                                                        <path d="M 700 537 Q 761 547 865 551 Q 905 551 912 560 Q 916 570 902 580 Q 851 613 794 594 Q 757 587 708 574 L 657 564 Q 599 555 533 543 Q 517 540 530 527 Q 557 505 595 516 Q 620 525 653 529 L 700 537 Z" style="fill: #0070C0;"></path>
                                                                        <path d="M 675 430 Q 688 485 700 537 L 708 574 Q 709 578 710 580 Q 716 599 729 632 Q 733 639 719 654 Q 692 673 674 680 Q 661 684 654 678 Q 647 674 652 660 Q 664 638 662 623 Q 661 595 657 564 L 653 529 Q 647 478 638 423 C 633 393 668 401 675 430 Z" style="fill: #0070C0;"></path>
                                                                        <path d="M 549 421 Q 539 424 527 422 Q 520 418 526 406 Q 527 399 531 391 Q 552 339 533 151 Q 509 64 543 25 Q 552 13 562 24 Q 569 34 572 46 L 576 80 Q 577 96 578 116 Q 578 144 579 168 L 580 193 Q 581 245 584 280 L 585 303 Q 586 358 589 364 Q 590 379 589 386 C 588 416 579 417 549 421 Z" style="fill: #0070C0;"></path>
                                                                        <path d="M 736 62 Q 764 25 785 -8 Q 794 -26 805 -25 Q 820 -24 835 8 Q 851 45 848 89 Q 841 179 834 346 Q 833 374 849 394 Q 858 406 849 415 Q 833 434 785 456 Q 769 465 754 457 Q 721 442 675 430 L 638 423 Q 566 411 549 421 C 520 427 559 383 589 386 Q 604 386 740 410 Q 759 414 769 406 Q 799 376 780 91 Q 776 75 760 80 C 732 69 731 69 736 62 Z" style="fill: #0070C0;"></path>
                                                                        <path d="M 584 280 Q 588 279 596 280 Q 669 292 724 298 Q 745 302 737 313 Q 727 326 705 330 Q 681 333 585 303 C 556 294 554 283 584 280 Z" style="fill: #0070C0;"></path>
                                                                        <path d="M 579 168 L 723 187 Q 745 191 737 204 Q 727 219 701 223 Q 665 227 580 193 C 552 182 549 164 579 168 Z" style="fill: #0070C0;"></path>
                                                                        <path d="M 572 46 Q 581 55 736 62 C 766 63 776 64 760 80 Q 754 87 736 100 Q 721 109 692 102 Q 628 87 576 80 C 546 76 545 34 572 46 Z" style="fill: #0070C0;"></path>
                                    
                                    
                                                                                                                                                                                                                                                                                                                                                                                                                                                                                                                                                                                                                                                                                                                                                                                                                                                                                                                                                                                                                            </g>
                            </svg>