<svg width='83' height='83' >
                                <g transform="translate(3, 70) scale(0.07, -0.07)">
                                    <!-- 先将完整的字以灰色字体绘制完成，层级位于下面 -->
                                                                        <path d="M 242 765 Q 249 747 243 732 Q 221 680 189 632 Q 158 586 115 535 Q 106 526 104 521 Q 100 511 113 513 Q 158 519 266 656 Q 299 704 313 715 Q 322 724 318 736 Q 315 746 291 768 Q 269 784 252 786 Q 236 785 242 765 Z" style="fill: #0070C0;"></path>
                                                                        <path d="M 217 375 Q 245 412 277 459 Q 299 498 319 515 Q 329 525 324 538 Q 320 550 295 572 Q 270 590 252 590 Q 236 589 242 568 Q 275 490 59 241 Q 49 231 47 225 Q 43 215 57 217 Q 97 224 195 348 L 217 375 Z" style="fill: #0070C0;"></path>
                                                                        <path d="M 257 73 Q 258 88 259 103 Q 258 262 262 298 Q 269 323 260 332 Q 244 351 232 363 Q 225 370 217 375 C 193 393 187 377 195 348 Q 225 240 196 104 Q 186 62 215 20 Q 216 17 219 15 Q 235 0 246 25 Q 253 46 256 67 L 257 73 Z" style="fill: #0070C0;"></path>
                                                                        <path d="M 417 635 Q 480 731 513 760 Q 528 776 513 787 Q 497 797 470 802 Q 445 806 436 800 Q 426 794 433 784 Q 442 769 418 690 Q 409 663 398 633 Q 397 632 397 630 C 387 602 401 610 417 635 Z" style="fill: #0070C0;"></path>
                                                                        <path d="M 362 621 Q 353 625 336 628 Q 326 631 322 627 Q 318 623 324 608 Q 349 551 361 460 Q 362 433 379 414 Q 392 395 398 408 Q 401 415 401 427 L 401 452 Q 400 459 399 468 Q 395 490 392 509 L 389 528 Q 382 574 381 592 C 379 615 379 615 362 621 Z" style="fill: #0070C0;"></path>
                                                                        <path d="M 528 449 Q 528 443 531 437 Q 537 424 547 425 Q 559 426 564 440 Q 574 456 591 533 Q 601 579 632 606 Q 647 621 632 633 Q 616 646 572 667 Q 551 677 417 635 L 397 630 Q 378 626 362 621 C 333 613 353 583 381 592 Q 516 637 546 627 Q 546 628 547 627 Q 556 623 552 593 Q 540 500 532 472 L 528 449 Z" style="fill: #0070C0;"></path>
                                                                        <path d="M 392 509 Q 399 509 407 510 Q 464 520 506 527 Q 525 531 517 542 Q 507 554 486 556 Q 465 557 389 528 C 361 517 362 508 392 509 Z" style="fill: #0070C0;"></path>
                                                                        <path d="M 401 427 Q 411 427 422 429 Q 456 439 528 449 C 556 453 555 453 532 472 Q 528 476 519 480 Q 506 486 482 478 Q 436 462 401 452 C 372 444 371 426 401 427 Z" style="fill: #0070C0;"></path>
                                                                        <path d="M 514 373 Q 514 382 511 393 Q 498 417 454 430 Q 447 431 445 423 Q 444 417 472 372 Q 476 366 481 362 C 504 342 515 343 514 373 Z" style="fill: #0070C0;"></path>
                                                                        <path d="M 453 318 Q 483 325 567 341 Q 576 340 583 351 Q 583 360 564 367 Q 560 371 546 374 Q 533 378 516 374 Q 515 374 514 373 L 481 362 Q 462 358 446 352 Q 442 352 310 323 Q 288 319 306 306 Q 334 285 356 294 Q 384 301 421 310 L 453 318 Z" style="fill: #0070C0;"></path>
                                                                        <path d="M 469 260 Q 475 257 490 252 Q 515 243 522 228 Q 529 210 489 116 Q 473 82 457 77 Q 450 77 425 95 Q 400 117 395 114 Q 388 108 399 94 Q 423 49 421 22 Q 422 7 431 1 Q 441 -6 472 7 Q 515 32 542 107 Q 554 176 583 197 Q 593 200 595 208 Q 598 215 580 240 Q 561 265 511 275 Q 504 278 494 281 Q 490 282 487 284 C 459 295 441 271 469 260 Z" style="fill: #0070C0;"></path>
                                                                        <path d="M 411 262 L 312 124 Q 308 123 309 120 Q 308 120 308 119 Q 286 101 257 73 C 249 66 249 66 256 67 Q 257 68 259 67 Q 352 92 469 260 C 486 285 487 283 487 284 Q 487 293 476 303 Q 466 313 453 318 C 426 331 422 333 421 310 Q 422 295 411 262 Z" style="fill: #0070C0;"></path>
                                                                        <path d="M 683 500 Q 771 729 772 730 Q 771 734 769 737 Q 762 747 731 762 Q 703 772 686 767 Q 670 761 682 743 Q 712 709 662 557 Q 640 488 603 410 Q 596 398 596 392 Q 595 382 607 387 Q 628 396 668 470 L 683 500 Z" style="fill: #0070C0;"></path>
                                                                        <path d="M 668 470 Q 711 460 753 474 Q 805 490 861 508 Q 886 517 890 521 Q 897 530 892 537 Q 885 547 855 551 Q 831 554 763 525 Q 727 513 683 500 C 654 491 639 476 668 470 Z" style="fill: #0070C0;"></path>
                                                                        <path d="M 691 217 Q 657 156 563 82 Q 553 73 563 71 Q 636 71 712 168 Q 715 174 718 178 L 741 221 Q 759 258 778 355 Q 781 380 792 401 Q 801 417 786 425 Q 743 456 720 448 Q 708 444 714 431 Q 742 380 708 261 Q 707 260 707 259 L 691 217 Z" style="fill: #0070C0;"></path>
                                                                        <path d="M 718 178 Q 764 115 806 64 Q 818 48 840 47 Q 957 51 966 62 Q 970 66 961 71 Q 816 140 751 210 Q 745 216 741 221 L 707 259 Q 683 287 658 319 Q 649 332 636 334 Q 611 335 603 328 Q 599 324 608 317 Q 636 301 653 272 Q 672 244 691 217 L 718 178 Z" style="fill: #0070C0;"></path>
                                    
                                    
                                                                                                                                                                                                                                                                                                                                                                                                                                                                                                                                                                                                                                                                                                                                                                                                                                                                                                                                                                                                                                                                                                                                                                                                                                                                                                                                            </g>
                            </svg>