<svg width='83' height='83' >
                                <g transform="translate(3, 70) scale(0.07, -0.07)">
                                    <!-- 先将完整的字以灰色字体绘制完成，层级位于下面 -->
                                                                        <path d="M 372 524 Q 354 451 324 382 Q 311 343 331 315 Q 341 299 360 314 Q 379 333 390 366 Q 409 423 405 470 Q 406 504 395 527 Q 389 534 383 535 Q 376 532 372 524 Z" style="fill: #0070C0;"></path>
                                                                        <path d="M 539 524 Q 552 518 620 461 Q 633 451 647 451 Q 657 452 661 464 Q 665 477 655 505 Q 648 527 614 542 Q 578 555 540 563 C 511 569 513 539 539 524 Z" style="fill: #0070C0;"></path>
                                                                        <path d="M 532 47 Q 531 96 539 524 L 540 563 Q 541 654 559 717 Q 569 733 566 747 Q 559 757 501 793 Q 476 811 455 795 Q 449 789 456 773 Q 487 724 489 649 Q 489 217 469 126 Q 465 108 459 89 Q 447 47 474 -17 Q 481 -36 489 -39 Q 496 -46 503 -37 Q 512 -33 522 -11 Q 532 14 532 47 Z" style="fill: #0070C0;"></path>
                                    
                                    
                                                                                                                                                                                                                                                                                                                </g>
                            </svg>