<svg width='83' height='83' >
                                <g transform="translate(3, 70) scale(0.07, -0.07)">
                                    <!-- 先将完整的字以灰色字体绘制完成，层级位于下面 -->
                                                                        <path d="M 173 466 Q 155 387 124 315 Q 109 273 133 240 Q 145 222 166 239 Q 188 261 198 299 Q 216 357 212 406 Q 212 443 200 470 Q 193 479 186 479 Q 176 476 173 466 Z" style="fill: #0070C0;"></path>
                                                                        <path d="M 431 175 Q 548 88 749 123 Q 752 124 756 125 Q 792 135 833 159 Q 849 166 846 173 Q 843 186 823 206 Q 792 234 710 333 Q 703 342 697 342 Q 694 341 695 333 Q 708 285 722 232 Q 726 210 713 197 Q 673 172 544 196 Q 505 206 478 219 L 430 254 Q 382 305 353 430 Q 346 460 324 472 Q 306 482 299 474 Q 295 470 301 450 Q 311 425 332 353 Q 353 263 392 214 L 431 175 Z" style="fill: #0070C0;"></path>
                                                                        <path d="M 377 656 Q 425 575 456 556 Q 472 549 486 562 Q 496 575 497 595 Q 494 643 403 696 Q 402 697 401 697 Q 383 707 371 705 Q 364 705 364 690 Q 363 677 377 656 Z" style="fill: #0070C0;"></path>
                                                                        <path d="M 392 214 Q 325 148 151 61 Q 132 51 148 46 Q 166 43 211 54 Q 302 82 376 134 Q 406 153 431 175 L 478 219 Q 595 372 630 494 Q 676 645 709 695 Q 724 716 705 730 Q 654 781 618 775 Q 600 772 605 752 Q 632 676 568 492 Q 549 440 519 381 Q 480 312 430 254 L 392 214 Z" style="fill: #0070C0;"></path>
                                                                        <path d="M 753 504 Q 817 455 895 383 Q 914 364 932 360 Q 942 359 949 371 Q 961 387 943 433 Q 936 458 915 474 Q 893 490 841 509 Q 783 530 751 538 Q 741 542 740 529 Q 740 514 753 504 Z" style="fill: #0070C0;"></path>
                                    
                                    
                                                                                                                                                                                                                                                                                                                                                                                                                                                                        </g>
                            </svg>