<svg width='83' height='83' >
                                <g transform="translate(3, 70) scale(0.07, -0.07)">
                                    <!-- 先将完整的字以灰色字体绘制完成，层级位于下面 -->
                                                                        <path d="M 156 532 Q 138 462 109 398 Q 103 386 104 370 Q 105 345 115 331 Q 125 315 144 330 Q 163 349 174 382 Q 192 434 189 478 Q 190 512 179 535 Q 173 542 167 543 Q 160 540 156 532 Z" style="fill: #0070C0;"></path>
                                                                        <path d="M 309 516 Q 316 515 378 464 Q 391 454 404 455 Q 414 456 417 468 Q 420 481 411 507 Q 398 540 311 551 L 310 551 C 280 554 282 529 309 516 Z" style="fill: #0070C0;"></path>
                                                                        <path d="M 310 551 Q 310 684 330 756 Q 346 780 319 800 Q 303 812 274 829 Q 250 847 229 831 Q 225 825 230 810 Q 263 762 263 685 Q 263 250 243 159 Q 225 84 231 65 Q 246 4 262 -3 Q 269 -10 276 -1 Q 283 3 294 24 Q 304 49 303 81 Q 302 127 309 516 L 310 551 Z" style="fill: #0070C0;"></path>
                                                                        <path d="M 618 604 Q 702 626 784 635 Q 803 636 807 627 Q 817 606 812 550 Q 794 345 754 237 Q 733 170 711 149 Q 701 139 679 147 Q 651 159 624 170 Q 602 180 615 156 Q 655 101 675 59 Q 682 37 704 40 Q 728 44 757 77 Q 838 167 866 500 Q 872 576 899 620 Q 917 644 907 654 Q 889 675 850 691 Q 822 706 793 692 Q 720 662 609 641 Q 512 623 455 624 Q 433 625 433 614 Q 432 604 456 588 Q 484 569 512 577 Q 537 584 564 590 L 618 604 Z" style="fill: #0070C0;"></path>
                                                                        <path d="M 564 590 Q 600 512 494 294 Q 448 201 383 106 Q 377 99 378 92 Q 379 86 385 88 Q 445 109 548 297 Q 587 387 626 476 Q 642 525 654 549 Q 660 562 648 577 Q 632 595 618 604 C 594 622 554 618 564 590 Z" style="fill: #0070C0;"></path>
                                    
                                    
                                                                                                                                                                                                                                                                                                                                                                                                                                                                        </g>
                            </svg>