<svg width='83' height='83' >
                                <g transform="translate(3, 70) scale(0.07, -0.07)">
                                    <!-- 先将完整的字以灰色字体绘制完成，层级位于下面 -->
                                                                        <path d="M 502 442 Q 505 539 508 630 L 509 663 Q 509 693 516 742 Q 525 782 513 794 Q 509 797 505 799 Q 466 818 440 822 Q 422 825 415 815 Q 406 806 416 791 Q 440 760 441 739 Q 454 598 457 434 C 458 404 501 412 502 442 Z" style="fill: #0070C0;"></path>
                                                                        <path d="M 508 630 Q 545 624 622 641 Q 718 666 720 667 Q 729 676 724 684 Q 717 696 686 702 Q 655 706 625 693 Q 597 683 568 675 Q 540 669 509 663 C 480 657 478 634 508 630 Z" style="fill: #0070C0;"></path>
                                                                        <path d="M 457 434 Q 324 415 169 393 Q 147 390 164 371 Q 197 341 241 350 Q 457 414 802 414 L 805 414 Q 827 414 832 424 Q 838 437 819 452 Q 759 494 719 484 Q 637 466 502 442 L 457 434 Z" style="fill: #0070C0;"></path>
                                                                        <path d="M 206 227 Q 181 169 144 115 Q 123 82 140 46 Q 147 27 170 39 Q 194 55 209 89 Q 228 129 231 167 Q 238 201 231 227 Q 225 236 219 237 Q 210 236 206 227 Z" style="fill: #0070C0;"></path>
                                                                        <path d="M 304 180 Q 328 69 417 15 Q 541 -54 744 -22 Q 778 -13 809 0 Q 836 13 837 29 Q 841 41 796 67 Q 726 119 674 173 Q 661 188 657 180 Q 654 176 692 101 Q 720 50 692 36 Q 682 35 666 32 Q 482 17 401 83 Q 364 111 345 165 Q 338 187 326 192 Q 313 198 306 194 Q 300 191 304 180 Z" style="fill: #0070C0;"></path>
                                                                        <path d="M 443 261 Q 476 236 510 205 Q 523 193 538 195 Q 548 196 553 208 Q 557 223 547 251 Q 534 287 437 307 Q 422 310 416 307 Q 412 303 413 291 Q 417 281 443 261 Z" style="fill: #0070C0;"></path>
                                                                        <path d="M 714 300 Q 778 266 859 214 Q 878 199 892 199 Q 899 200 904 211 Q 911 226 891 261 Q 864 310 708 327 Q 698 330 699 318 Q 702 306 714 300 Z" style="fill: #0070C0;"></path>
                                    
                                    
                                                                                                                                                                                                                                                                                                                                                                                                                                                                                                                                                                                                                                </g>
                            </svg>