<svg width='83' height='83' >
                                <g transform="translate(3, 70) scale(0.07, -0.07)">
                                    <!-- 先将完整的字以灰色字体绘制完成，层级位于下面 -->
                                                                        <path d="M 476 715 Q 560 730 651 744 Q 712 756 721 764 Q 731 773 727 782 Q 720 797 687 806 Q 651 815 562 786 Q 415 752 293 745 Q 251 741 280 720 Q 323 693 406 705 Q 415 706 426 707 L 476 715 Z" style="fill: #0070C0;"></path>
                                                                        <path d="M 594 544 Q 603 548 786 562 Q 799 561 810 575 Q 813 590 785 604 Q 749 634 653 608 Q 580 596 454 571 L 390 562 Q 288 559 187 547 Q 151 544 178 522 Q 212 488 267 497 Q 310 506 363 512 L 429 522 Q 489 532 559 540 L 594 544 Z" style="fill: #0070C0;"></path>
                                                                        <path d="M 454 571 Q 475 617 506 665 Q 515 675 509 686 Q 503 696 476 715 C 452 733 427 737 426 707 Q 426 650 390 562 L 363 512 Q 350 494 338 475 Q 302 424 255 383 Q 209 334 93 255 Q 84 248 91 244 Q 98 240 111 245 Q 319 321 429 522 L 454 571 Z" style="fill: #0070C0;"></path>
                                                                        <path d="M 559 540 Q 754 312 802 300 Q 871 290 969 306 Q 988 307 989 313 Q 992 320 977 326 Q 787 402 767 414 Q 683 466 594 544 C 571 564 539 563 559 540 Z" style="fill: #0070C0;"></path>
                                                                        <path d="M 418 47 Q 387 51 355 56 Q 342 57 343 50 Q 344 43 356 35 Q 428 -23 455 -61 Q 470 -79 486 -63 Q 525 -24 520 47 Q 516 99 515 304 Q 516 343 528 369 Q 537 388 520 402 Q 493 424 462 435 Q 443 442 434 435 Q 428 428 439 412 Q 461 372 461 326 Q 467 67 443 49 Q 433 42 418 47 Z" style="fill: #0070C0;"></path>
                                                                        <path d="M 313 266 Q 282 211 241 163 Q 232 153 229 137 Q 223 112 230 95 Q 236 76 259 85 Q 320 121 332 203 Q 342 237 338 263 Q 334 273 328 274 Q 319 274 313 266 Z" style="fill: #0070C0;"></path>
                                                                        <path d="M 575 191 Q 600 154 627 111 Q 636 98 649 94 Q 658 91 665 101 Q 672 113 672 139 Q 673 163 645 189 Q 582 240 564 239 Q 560 236 557 225 Q 558 215 575 191 Z" style="fill: #0070C0;"></path>
                                                                        <path d="M 699 228 Q 745 176 794 116 Q 806 100 822 98 Q 832 97 841 109 Q 848 124 844 156 Q 843 190 799 223 Q 703 287 680 283 Q 674 280 674 266 Q 675 254 699 228 Z" style="fill: #0070C0;"></path>
                                    
                                    
                                                                                                                                                                                                                                                                                                                                                                                                                                                                                                                                                                                                                                                                                                            </g>
                            </svg>