<svg width='83' height='83' >
                                <g transform="translate(3, 70) scale(0.07, -0.07)">
                                    <!-- 先将完整的字以灰色字体绘制完成，层级位于下面 -->
                                                                        <path d="M 140 523 Q 124 454 96 389 Q 78 356 103 323 Q 113 307 132 322 Q 151 341 161 375 Q 177 427 174 470 Q 174 504 163 527 Q 157 534 151 535 Q 144 532 140 523 Z" style="fill: #0070C0;"></path>
                                                                        <path d="M 306 554 Q 336 535 378 500 Q 391 490 404 491 Q 414 492 417 504 Q 420 517 411 543 Q 398 576 311 587 Q 308 588 307 587 C 277 587 281 570 306 554 Z" style="fill: #0070C0;"></path>
                                                                        <path d="M 307 587 Q 308 675 326 736 Q 336 751 332 765 Q 325 775 270 809 Q 246 827 225 811 Q 221 805 226 790 Q 259 742 259 665 Q 259 230 239 139 Q 221 64 227 45 Q 242 -16 258 -23 Q 265 -30 272 -21 Q 279 -17 290 4 Q 300 29 299 61 Q 298 110 306 554 L 307 587 Z" style="fill: #0070C0;"></path>
                                                                        <path d="M 594 640 Q 777 682 788 689 Q 797 699 792 707 Q 783 720 752 727 Q 728 731 614 695 Q 550 677 477 668 Q 438 661 467 643 Q 501 625 551 630 L 594 640 Z" style="fill: #0070C0;"></path>
                                                                        <path d="M 548 463 Q 527 462 508 459 Q 462 455 410 449 Q 376 445 402 425 Q 441 395 471 402 Q 502 409 539 414 L 594 424 Q 717 446 841 457 Q 854 456 864 470 Q 865 483 840 495 Q 800 519 731 499 Q 668 487 604 472 L 548 463 Z" style="fill: #0070C0;"></path>
                                                                        <path d="M 604 472 Q 604 509 627 579 Q 627 582 629 583 Q 638 596 632 611 Q 619 627 594 640 C 568 656 541 658 551 630 Q 564 606 560 554 Q 557 539 556 521 Q 552 493 548 463 L 539 414 Q 490 215 368 54 Q 364 47 361 42 Q 357 32 368 33 Q 383 33 422 76 Q 521 166 584 379 L 591 408 Q 592 417 594 424 L 604 472 Z" style="fill: #0070C0;"></path>
                                                                        <path d="M 584 379 Q 600 343 598 287 Q 591 98 616 65 Q 635 35 706 24 Q 757 17 838 19 Q 911 22 940 37 Q 971 53 958 85 Q 940 133 931 216 Q 930 232 922 238 Q 913 244 909 222 Q 890 122 873 103 Q 849 76 754 70 Q 702 70 678 78 Q 657 87 652 100 Q 642 128 644 203 Q 650 285 666 323 Q 679 354 659 373 Q 607 413 591 408 C 573 412 574 407 584 379 Z" style="fill: #0070C0;"></path>
                                    
                                    
                                                                                                                                                                                                                                                                                                                                                                                                                                                                                                                                                                                                                                </g>
                            </svg>