<svg width='83' height='83' >
                                <g transform="translate(3, 70) scale(0.07, -0.07)">
                                    <!-- 先将完整的字以灰色字体绘制完成，层级位于下面 -->
                                                                        <path d="M 154 525 Q 133 452 100 386 Q 93 373 93 357 Q 93 332 103 316 Q 113 298 133 313 Q 155 332 167 366 Q 188 421 186 467 Q 189 501 179 527 Q 173 534 167 536 Q 158 533 154 525 Z" style="fill: #0070C0;"></path>
                                                                        <path d="M 315 550 Q 387 486 404 484 Q 413 485 417 497 Q 421 510 413 535 Q 409 553 381 565 Q 333 583 316 583 C 286 585 293 570 315 550 Z" style="fill: #0070C0;"></path>
                                                                        <path d="M 316 583 Q 317 670 335 728 Q 344 743 341 757 Q 334 767 278 801 Q 254 817 233 802 Q 229 798 234 782 Q 265 734 267 669 Q 267 261 257 183 Q 250 146 240 109 Q 228 67 255 6 Q 262 -12 270 -15 Q 276 -22 284 -13 Q 291 -9 302 12 Q 312 37 311 69 Q 310 117 315 550 L 316 583 Z" style="fill: #0070C0;"></path>
                                                                        <path d="M 585 619 Q 667 643 747 654 Q 763 655 766 647 Q 770 637 769 611 Q 760 515 742 464 Q 732 433 721 422 Q 708 409 680 417 Q 644 427 612 437 Q 588 444 605 422 Q 651 373 677 334 Q 687 312 709 318 Q 746 322 782 399 Q 807 451 828 570 Q 835 612 854 636 Q 872 658 862 668 Q 846 687 810 705 Q 783 718 756 706 Q 615 648 459 642 Q 438 643 438 633 Q 437 623 460 608 Q 488 589 514 599 Q 530 605 549 609 L 585 619 Z" style="fill: #0070C0;"></path>
                                                                        <path d="M 549 609 Q 567 558 481 420 Q 444 363 393 307 Q 389 303 388 295 Q 388 291 393 291 Q 468 309 586 504 Q 598 534 619 561 Q 625 571 617 584 Q 601 609 585 619 C 561 637 543 638 549 609 Z" style="fill: #0070C0;"></path>
                                                                        <path d="M 496 253 Q 483 260 450 265 Q 437 269 433 264 Q 426 257 435 239 Q 466 169 484 54 Q 487 20 506 -3 Q 525 -28 532 -10 Q 536 3 537 23 L 533 62 Q 515 180 511 218 C 508 248 508 248 496 253 Z" style="fill: #0070C0;"></path>
                                                                        <path d="M 787 88 Q 814 187 857 222 Q 876 243 859 264 Q 823 294 770 312 Q 752 315 735 308 Q 648 277 496 253 C 466 248 481 213 511 218 Q 523 219 535 223 Q 626 238 715 253 Q 737 257 746 248 Q 759 235 756 210 Q 744 146 730 93 C 723 64 779 59 787 88 Z" style="fill: #0070C0;"></path>
                                                                        <path d="M 537 23 Q 544 23 553 24 Q 632 39 805 46 Q 817 47 819 57 Q 819 66 787 88 C 769 101 759 99 730 93 Q 621 71 533 62 C 503 59 507 22 537 23 Z" style="fill: #0070C0;"></path>
                                    
                                    
                                                                                                                                                                                                                                                                                                                                                                                                                                                                                                                                                                                                                                                                                                            </g>
                            </svg>