<svg width='83' height='83' >
                                <g transform="translate(3, 70) scale(0.07, -0.07)">
                                    <!-- 先将完整的字以灰色字体绘制完成，层级位于下面 -->
                                                                        <path d="M 395 682 Q 470 787 471 795 Q 470 798 470 800 Q 466 813 438 836 Q 413 854 393 854 Q 374 853 382 831 Q 392 809 384 789 Q 359 725 320 664 Q 283 606 231 542 Q 221 532 219 526 Q 215 516 229 518 Q 271 522 379 661 L 395 682 Z" style="fill: #0070C0;"></path>
                                                                        <path d="M 499 648 Q 602 669 710 688 Q 762 700 770 707 Q 780 714 775 724 Q 768 736 738 744 Q 708 751 602 717 Q 479 689 395 682 C 365 679 356 678 379 661 Q 401 639 458 642 L 499 648 Z" style="fill: #0070C0;"></path>
                                                                        <path d="M 520 448 Q 520 497 521 530 L 522 552 Q 522 577 525 589 Q 532 613 523 622 Q 510 638 499 648 C 478 669 447 670 458 642 Q 473 606 478 556 Q 478 456 461 384 Q 449 344 481 301 Q 482 300 484 298 Q 500 285 510 308 Q 520 336 521 422 L 520 448 Z" style="fill: #0070C0;"></path>
                                                                        <path d="M 521 530 Q 528 526 544 528 Q 623 541 682 550 Q 707 554 697 568 Q 685 583 659 587 Q 625 591 522 552 C 494 541 493 540 521 530 Z" style="fill: #0070C0;"></path>
                                                                        <path d="M 521 422 Q 531 421 543 421 Q 634 433 701 439 Q 726 442 717 456 Q 707 472 680 477 Q 655 481 520 448 C 491 441 491 424 521 422 Z" style="fill: #0070C0;"></path>
                                                                        <path d="M 209 262 Q 185 198 151 142 Q 130 106 151 69 Q 160 50 183 65 Q 238 113 239 200 Q 243 236 235 262 Q 229 272 223 272 Q 213 271 209 262 Z" style="fill: #0070C0;"></path>
                                                                        <path d="M 867 87 Q 860 97 839 108 Q 806 124 714 185 Q 707 192 701 190 Q 698 189 701 182 Q 720 151 739 114 Q 746 99 739 88 Q 726 75 680 70 Q 613 63 543 72 Q 432 90 401 150 Q 383 184 372 224 Q 366 249 348 260 Q 332 269 326 262 Q 322 258 328 241 Q 335 225 350 176 Q 375 71 469 31 Q 487 25 511 17 Q 704 -34 832 47 Q 842 56 856 67 Q 869 76 867 87 Z" style="fill: #0070C0;"></path>
                                                                        <path d="M 515 238 Q 558 181 592 161 Q 605 157 615 169 Q 622 181 621 196 Q 611 241 529 272 Q 514 278 506 275 Q 500 274 501 263 Q 502 253 515 238 Z" style="fill: #0070C0;"></path>
                                                                        <path d="M 754 300 Q 815 263 890 206 Q 909 188 926 187 Q 935 187 941 199 Q 951 215 929 256 Q 910 305 750 331 Q 740 335 740 322 Q 741 309 754 300 Z" style="fill: #0070C0;"></path>
                                    
                                    
                                                                                                                                                                                                                                                                                                                                                                                                                                                                                                                                                                                                                                                                                                                                                                                        </g>
                            </svg>