<svg width='83' height='83' >
                                <g transform="translate(3, 70) scale(0.07, -0.07)">
                                    <!-- 先将完整的字以灰色字体绘制完成，层级位于下面 -->
                                                                        <path d="M 142 549 Q 121 476 88 410 Q 81 397 81 381 Q 81 356 91 340 Q 101 322 121 337 Q 143 356 155 390 Q 176 445 174 491 Q 177 525 167 551 Q 161 558 155 560 Q 146 557 142 549 Z" style="fill: #0070C0;"></path>
                                                                        <path d="M 302 578 Q 329 560 378 520 Q 391 510 404 512 Q 414 513 417 524 Q 420 537 411 563 Q 399 596 307 611 Q 304 612 303 611 C 273 612 277 595 302 578 Z" style="fill: #0070C0;"></path>
                                                                        <path d="M 303 611 Q 306 693 322 752 Q 332 767 328 781 Q 321 791 266 825 Q 242 843 221 827 Q 217 821 222 806 Q 255 757 255 708 Q 256 636 258 555 Q 254 413 250 257 Q 246 181 225 109 Q 215 75 223 53 Q 238 -8 254 -15 Q 260 -22 268 -13 Q 275 -9 286 12 Q 296 37 295 69 Q 294 120 302 578 L 303 611 Z" style="fill: #0070C0;"></path>
                                                                        <path d="M 652 482 Q 736 495 864 498 Q 922 498 929 509 Q 935 522 916 536 Q 853 581 801 561 Q 743 548 658 528 L 603 518 Q 509 503 401 484 Q 379 481 395 463 Q 432 433 471 445 Q 529 463 599 474 L 652 482 Z" style="fill: #0070C0;"></path>
                                                                        <path d="M 627 310 Q 640 398 652 482 L 658 528 Q 673 666 702 742 Q 706 755 687 775 Q 648 800 621 807 Q 603 811 594 803 Q 584 796 592 777 Q 617 734 615 705 Q 611 615 603 518 L 599 474 Q 590 392 579 301 C 575 271 623 280 627 310 Z" style="fill: #0070C0;"></path>
                                                                        <path d="M 493 290 Q 481 296 452 301 Q 440 304 437 299 Q 430 292 439 277 Q 472 205 489 90 Q 492 56 512 32 Q 530 10 535 25 Q 539 40 539 60 L 535 98 Q 514 212 508 253 C 504 283 503 286 493 290 Z" style="fill: #0070C0;"></path>
                                                                        <path d="M 782 129 Q 812 223 853 254 Q 872 275 856 296 Q 837 312 778 341 Q 757 351 733 342 Q 678 321 627 310 L 579 301 Q 536 295 493 290 C 463 286 478 249 508 253 Q 517 253 714 284 Q 736 288 744 279 Q 754 269 752 244 Q 739 183 725 131 C 717 102 773 101 782 129 Z" style="fill: #0070C0;"></path>
                                                                        <path d="M 539 60 Q 549 59 561 61 Q 637 76 801 86 Q 813 87 815 97 Q 816 106 782 129 C 767 140 754 137 725 131 Q 619 109 535 98 C 505 94 509 61 539 60 Z" style="fill: #0070C0;"></path>
                                    
                                    
                                                                                                                                                                                                                                                                                                                                                                                                                                                                                                                                                                                                                                                                                                            </g>
                            </svg>