<svg width='83' height='83' >
                                <g transform="translate(3, 70) scale(0.07, -0.07)">
                                    <!-- 先将完整的字以灰色字体绘制完成，层级位于下面 -->
                                                                        <path d="M 122 537 Q 101 467 68 402 Q 50 363 71 332 Q 81 314 101 329 Q 123 348 135 382 Q 154 434 154 479 Q 157 513 147 539 Q 141 546 135 548 Q 126 545 122 537 Z" style="fill: #0070C0;"></path>
                                                                        <path d="M 294 575 Q 298 571 305 566 Q 330 544 356 516 Q 366 506 380 506 Q 389 506 393 517 Q 397 529 391 553 Q 387 571 360 585 Q 302 609 295 606 C 265 605 272 595 294 575 Z" style="fill: #0070C0;"></path>
                                                                        <path d="M 295 606 Q 299 675 314 723 Q 323 739 320 752 Q 313 762 258 797 Q 234 815 213 799 Q 209 795 214 778 Q 244 735 245 660 Q 245 249 219 147 Q 216 138 214 129 Q 202 90 227 27 Q 234 8 242 5 Q 248 -2 256 7 Q 283 23 284 89 Q 284 134 294 575 L 295 606 Z" style="fill: #0070C0;"></path>
                                                                        <path d="M 578 696 Q 603 762 610 769 Q 617 776 613 787 Q 601 812 555 820 Q 533 823 521 818 Q 512 814 517 802 Q 550 711 432 498 Q 429 495 427 490 Q 393 432 299 313 Q 292 306 303 305 Q 333 314 411 397 Q 412 400 416 402 Q 491 484 568 670 L 578 696 Z" style="fill: #0070C0;"></path>
                                                                        <path d="M 568 670 Q 569 669 571 666 Q 653 533 763 391 Q 782 369 815 368 Q 927 365 964 370 Q 974 371 976 377 Q 977 383 962 391 Q 815 455 767 497 Q 682 576 584 690 Q 581 694 578 696 C 558 718 552 695 568 670 Z" style="fill: #0070C0;"></path>
                                                                        <path d="M 517 449 Q 577 385 601 384 Q 614 383 620 402 Q 621 415 610 436 Q 600 452 575 459 Q 536 475 520 477 Q 511 478 511 466 Q 510 459 517 449 Z" style="fill: #0070C0;"></path>
                                                                        <path d="M 585 112 Q 706 248 754 273 Q 775 280 767 298 Q 763 314 691 348 Q 670 358 647 348 Q 589 323 498 294 Q 476 285 417 285 Q 392 285 402 264 Q 411 251 431 239 Q 464 223 499 245 Q 518 254 623 298 Q 638 305 651 296 Q 664 287 658 273 Q 615 203 567 121 C 552 95 565 90 585 112 Z" style="fill: #0070C0;"></path>
                                                                        <path d="M 567 121 Q 521 143 494 152 Q 485 156 483 145 Q 482 132 493 121 Q 542 75 602 7 Q 618 -14 633 -18 Q 642 -19 649 -9 Q 662 4 649 47 Q 642 86 585 112 L 567 121 Z" style="fill: #0070C0;"></path>
                                    
                                    
                                                                                                                                                                                                                                                                                                                                                                                                                                                                                                                                                                                                                                                                                                            </g>
                            </svg>