<svg width='83' height='83' >
                                <g transform="translate(3, 70) scale(0.07, -0.07)">
                                    <!-- 先将完整的字以灰色字体绘制完成，层级位于下面 -->
                                                                        <path d="M 474 716 Q 510 761 530 775 Q 540 784 537 798 Q 536 811 510 837 Q 486 858 468 860 Q 449 861 454 838 Q 467 796 375 683 Q 332 631 274 573 Q 264 564 260 559 Q 256 549 270 549 Q 322 558 447 687 L 474 716 Z" style="fill: #0070C0;"></path>
                                                                        <path d="M 522 552 Q 546 574 587 615 Q 638 667 685 694 Q 706 704 693 720 Q 678 735 637 759 Q 625 765 586 750 Q 502 726 474 716 C 446 706 417 688 447 687 Q 469 684 567 703 Q 579 706 582 702 Q 586 698 579 686 Q 525 598 494 558 Q 488 551 484 544 C 467 519 500 532 522 552 Z" style="fill: #0070C0;"></path>
                                                                        <path d="M 664 333 Q 703 465 752 506 Q 771 525 755 546 Q 736 562 679 590 Q 658 599 634 590 Q 576 566 522 552 L 484 544 Q 396 525 303 515 Q 285 514 287 503 Q 290 494 310 488 Q 338 475 375 488 Q 493 512 606 535 Q 634 542 647 531 Q 660 516 654 489 Q 633 407 610 341 C 600 313 655 304 664 333 Z" style="fill: #0070C0;"></path>
                                                                        <path d="M 305 402 Q 287 398 307 382 Q 320 372 348 375 Q 481 393 580 403 Q 605 406 597 420 Q 587 436 560 442 Q 535 446 491 438 Q 391 416 305 402 Z" style="fill: #0070C0;"></path>
                                                                        <path d="M 610 341 Q 607 342 605 341 Q 431 304 294 293 Q 270 292 284 272 Q 291 262 302 257 Q 315 254 329 256 Q 440 278 677 294 Q 689 295 691 305 Q 691 314 664 333 L 610 341 Z" style="fill: #0070C0;"></path>
                                                                        <path d="M 215 196 Q 190 144 155 98 Q 130 65 148 23 Q 155 2 180 15 Q 237 55 241 129 Q 248 166 242 194 Q 238 204 230 206 Q 220 205 215 196 Z" style="fill: #0070C0;"></path>
                                                                        <path d="M 320 190 Q 341 73 431 14 Q 546 -58 763 -39 Q 803 -33 839 -18 Q 867 -6 869 11 Q 873 23 827 47 Q 755 96 701 148 Q 685 164 680 156 Q 676 149 684 132 Q 700 99 713 64 Q 717 45 712 36 Q 703 26 666 25 Q 494 21 417 89 Q 383 117 369 170 Q 360 197 347 203 Q 331 212 323 207 Q 316 204 320 190 Z" style="fill: #0070C0;"></path>
                                                                        <path d="M 481 193 Q 523 133 556 116 Q 572 112 583 125 Q 590 138 589 156 Q 580 208 499 232 L 498 233 Q 480 240 470 236 Q 463 235 465 222 Q 466 209 481 193 Z" style="fill: #0070C0;"></path>
                                                                        <path d="M 728 234 Q 785 200 854 149 Q 876 131 893 130 Q 903 130 909 143 Q 919 159 895 204 Q 877 244 798 258 Q 749 265 722 268 Q 712 272 712 258 Q 715 243 728 234 Z" style="fill: #0070C0;"></path>
                                    
                                    
                                                                                                                                                                                                                                                                                                                                                                                                                                                                                                                                                                                                                                                                                                                                                                                        </g>
                            </svg>