<svg width='83' height='83' >
                                <g transform="translate(3, 70) scale(0.07, -0.07)">
                                    <!-- 先将完整的字以灰色字体绘制完成，层级位于下面 -->
                                                                        <path d="M 139 519 Q 124 453 98 392 Q 80 358 106 323 Q 116 307 137 323 Q 185 374 175 464 Q 175 498 164 523 Q 157 530 151 531 Q 142 528 139 519 Z" style="fill: #0070C0;"></path>
                                                                        <path d="M 294 585 Q 318 569 362 530 Q 375 520 388 520 Q 397 521 401 532 Q 405 545 396 571 Q 387 598 299 619 Q 296 620 294 619 C 264 619 269 602 294 585 Z" style="fill: #0070C0;"></path>
                                                                        <path d="M 294 619 Q 298 692 314 744 Q 323 759 320 772 Q 313 782 258 817 Q 234 835 213 819 Q 209 815 214 798 Q 245 749 247 673 Q 247 250 221 137 Q 218 124 214 109 Q 202 69 228 6 Q 234 -12 242 -15 Q 248 -22 256 -13 Q 283 3 284 69 Q 284 117 294 585 L 294 619 Z" style="fill: #0070C0;"></path>
                                                                        <path d="M 646 517 Q 691 572 737 655 Q 753 682 778 700 Q 793 707 793 716 Q 793 729 764 745 Q 730 767 716 767 Q 704 767 693 758 Q 668 748 601 727 Q 531 708 509 705 Q 472 704 470 694 Q 469 690 476 686 Q 522 653 657 708 Q 676 714 684 708 Q 690 704 672 659 Q 651 605 605 547 L 579 515 Q 491 418 359 361 Q 349 357 350 352 Q 351 348 358 347 Q 475 347 608 474 Q 611 477 614 480 L 646 517 Z" style="fill: #0070C0;"></path>
                                                                        <path d="M 614 480 Q 728 369 764 366 Q 831 366 920 384 Q 954 391 952 400 Q 952 403 782 448 Q 713 470 646 517 L 605 547 Q 568 577 531 611 Q 494 645 460 644 Q 444 644 441 638 Q 440 632 455 623 Q 497 601 579 515 L 614 480 Z" style="fill: #0070C0;"></path>
                                                                        <path d="M 618 216 Q 753 247 755 249 Q 762 256 759 265 Q 752 275 724 283 Q 696 290 622 264 L 571 251 Q 517 241 457 236 Q 423 230 447 214 Q 484 193 554 205 Q 561 206 571 207 L 618 216 Z" style="fill: #0070C0;"></path>
                                                                        <path d="M 608 88 Q 612 154 618 216 L 622 264 Q 622 300 639 359 Q 642 369 624 382 Q 593 400 570 404 Q 555 407 548 399 Q 541 392 548 378 Q 567 353 567 334 Q 568 294 571 251 L 571 207 Q 571 149 569 83 C 568 53 606 58 608 88 Z" style="fill: #0070C0;"></path>
                                                                        <path d="M 569 83 Q 469 73 356 61 Q 337 60 351 43 Q 364 30 381 23 Q 402 19 417 22 Q 549 55 846 55 Q 862 55 878 54 Q 897 54 902 62 Q 908 72 892 87 Q 838 126 806 118 Q 733 105 608 88 L 569 83 Z" style="fill: #0070C0;"></path>
                                    
                                    
                                                                                                                                                                                                                                                                                                                                                                                                                                                                                                                                                                                                                                                                                                            </g>
                            </svg>