<svg width='83' height='83' >
                                <g transform="translate(3, 70) scale(0.07, -0.07)">
                                    <!-- 先将完整的字以灰色字体绘制完成，层级位于下面 -->
                                                                        <path d="M 293 615 Q 401 756 403 758 Q 403 762 402 765 Q 399 777 375 800 Q 351 819 333 820 Q 315 820 322 799 Q 340 751 235 613 Q 186 549 120 480 Q 110 471 108 466 Q 104 456 117 457 Q 153 463 240 557 Q 253 570 268 586 L 293 615 Z" style="fill: #0070C0;"></path>
                                                                        <path d="M 268 586 Q 295 520 263 385 Q 247 340 281 293 Q 282 292 284 290 Q 300 277 310 300 Q 323 334 322 375 Q 323 514 329 545 Q 336 569 327 578 Q 311 596 300 608 Q 296 612 293 615 C 272 636 258 614 268 586 Z" style="fill: #0070C0;"></path>
                                                                        <path d="M 585 676 Q 654 706 715 717 Q 733 717 737 725 Q 741 735 729 748 Q 669 794 634 791 Q 627 787 625 776 Q 619 731 417 648 Q 411 639 418 636 Q 424 636 547 665 L 585 676 Z" style="fill: #0070C0;"></path>
                                                                        <path d="M 606 526 Q 675 539 783 549 Q 795 548 804 560 Q 805 573 782 584 Q 742 608 683 588 Q 646 581 608 571 L 558 561 Q 507 555 389 542 Q 359 538 382 520 Q 416 490 446 499 Q 497 509 558 519 L 606 526 Z" style="fill: #0070C0;"></path>
                                                                        <path d="M 602 414 Q 603 475 606 526 L 608 571 Q 614 652 609 657 Q 597 669 585 676 C 560 692 540 694 547 665 Q 554 640 558 561 L 558 519 Q 558 474 559 406 C 559 376 601 384 602 414 Z" style="fill: #0070C0;"></path>
                                                                        <path d="M 559 406 Q 498 399 426 387 Q 408 386 422 371 Q 434 359 450 354 Q 468 350 481 354 Q 566 375 736 375 Q 739 375 742 374 Q 758 375 763 382 Q 767 392 753 404 Q 705 440 645 423 Q 624 420 602 414 L 559 406 Z" style="fill: #0070C0;"></path>
                                                                        <path d="M 218 226 Q 194 171 162 119 Q 141 86 160 49 Q 167 30 190 44 Q 244 87 245 167 Q 249 201 243 227 Q 237 236 231 237 Q 222 236 218 226 Z" style="fill: #0070C0;"></path>
                                                                        <path d="M 322 224 Q 343 110 426 52 Q 511 -3 702 -8 Q 768 -8 819 14 Q 847 24 849 42 Q 853 52 814 80 Q 756 135 714 190 Q 701 208 696 200 Q 692 194 697 179 Q 710 142 721 100 Q 725 78 720 69 Q 711 57 670 56 Q 489 52 414 122 Q 380 153 365 206 Q 358 230 346 235 Q 333 242 325 239 Q 319 238 322 224 Z" style="fill: #0070C0;"></path>
                                                                        <path d="M 478 257 Q 538 200 571 192 Q 587 191 595 204 Q 599 217 596 235 Q 580 277 487 298 Q 471 301 461 296 Q 454 295 458 282 Q 461 270 478 257 Z" style="fill: #0070C0;"></path>
                                                                        <path d="M 725 297 Q 779 263 846 210 Q 864 194 879 192 Q 886 192 893 203 Q 902 216 883 256 Q 865 301 721 326 Q 711 330 711 318 Q 712 305 725 297 Z" style="fill: #0070C0;"></path>
                                    
                                    
                                                                                                                                                                                                                                                                                                                                                                                                                                                                                                                                                                                                                                                                                                                                                                                                                                                                    </g>
                            </svg>