<svg width='83' height='83' >
                                <g transform="translate(3, 70) scale(0.07, -0.07)">
                                    <!-- 先将完整的字以灰色字体绘制完成，层级位于下面 -->
                                                                        <path d="M 353 771 Q 401 711 430 700 Q 445 696 455 709 Q 462 722 460 739 Q 448 787 369 809 L 368 810 Q 352 816 342 812 Q 335 811 337 798 Q 338 786 353 771 Z" style="fill: #0070C0;"></path>
                                                                        <path d="M 591 811 Q 579 790 518 707 Q 508 689 526 693 Q 559 714 637 766 Q 656 784 681 795 Q 703 807 691 825 Q 676 841 649 856 Q 624 869 610 867 Q 597 866 601 851 Q 605 832 591 811 Z" style="fill: #0070C0;"></path>
                                                                        <path d="M 524 611 Q 582 621 643 630 Q 701 640 709 647 Q 719 654 714 664 Q 707 677 678 685 Q 648 694 617 683 Q 551 664 481 650 Q 403 637 312 633 Q 275 629 300 610 Q 342 583 430 598 Q 446 601 466 603 L 524 611 Z" style="fill: #0070C0;"></path>
                                                                        <path d="M 527 479 Q 662 501 669 506 Q 678 513 674 521 Q 668 533 642 540 Q 617 547 530 523 L 471 512 Q 416 505 354 501 Q 320 497 344 481 Q 377 457 435 466 Q 451 470 472 471 L 527 479 Z" style="fill: #0070C0;"></path>
                                                                        <path d="M 521 390 Q 524 438 527 479 L 530 523 Q 530 559 533 574 Q 539 595 524 611 C 505 635 464 633 466 603 Q 467 594 471 512 L 472 471 Q 472 434 473 383 C 474 353 519 360 521 390 Z" style="fill: #0070C0;"></path>
                                                                        <path d="M 473 383 Q 373 373 256 357 Q 237 356 251 339 Q 264 326 282 320 Q 301 314 317 319 Q 461 355 729 354 Q 733 354 739 353 Q 758 353 763 362 Q 767 372 752 386 Q 698 428 633 410 Q 585 403 521 390 L 473 383 Z" style="fill: #0070C0;"></path>
                                                                        <path d="M 183 236 Q 165 178 138 125 Q 119 88 143 56 Q 153 38 173 54 Q 218 97 216 179 Q 217 213 207 239 Q 201 246 195 247 Q 186 246 183 236 Z" style="fill: #0070C0;"></path>
                                                                        <path d="M 310 231 Q 331 114 417 57 Q 534 -16 743 1 Q 783 8 818 22 Q 846 34 848 50 Q 852 60 813 88 Q 753 140 710 194 Q 697 213 692 204 Q 691 204 713 110 Q 722 77 689 67 Q 677 66 660 64 Q 477 60 404 129 Q 370 159 354 213 Q 347 238 334 243 Q 321 250 312 247 Q 306 244 310 231 Z" style="fill: #0070C0;"></path>
                                                                        <path d="M 466 264 Q 514 207 550 191 Q 566 187 575 201 Q 582 214 579 231 Q 567 277 482 302 Q 481 303 480 303 Q 464 307 453 304 Q 447 303 449 290 Q 450 278 466 264 Z" style="fill: #0070C0;"></path>
                                                                        <path d="M 745 279 Q 794 245 854 192 Q 873 174 889 172 Q 899 171 905 183 Q 915 198 897 241 Q 882 280 811 297 Q 766 307 742 310 Q 732 314 732 301 Q 733 288 745 279 Z" style="fill: #0070C0;"></path>
                                    
                                    
                                                                                                                                                                                                                                                                                                                                                                                                                                                                                                                                                                                                                                                                                                                                                                                                                                                                    </g>
                            </svg>