<svg width='83' height='83' >
                                <g transform="translate(3, 70) scale(0.07, -0.07)">
                                    <!-- 先将完整的字以灰色字体绘制完成，层级位于下面 -->
                                                                        <path d="M 119 502 Q 106 432 80 368 Q 67 329 90 299 Q 102 283 120 299 Q 166 350 157 448 Q 156 482 144 507 Q 137 514 131 514 Q 122 511 119 502 Z" style="fill: #0070C0;"></path>
                                                                        <path d="M 286 579 Q 301 575 359 533 Q 372 523 386 526 Q 395 527 397 540 Q 398 553 387 578 Q 380 594 349 604 Q 319 610 286 612 C 256 614 258 589 286 579 Z" style="fill: #0070C0;"></path>
                                                                        <path d="M 286 612 Q 290 687 305 738 Q 314 753 311 766 Q 304 776 250 809 Q 228 825 207 811 Q 203 807 209 791 Q 240 740 242 664 Q 242 243 224 151 Q 218 123 210 93 Q 200 56 224 -6 Q 231 -24 239 -27 Q 245 -34 252 -25 Q 279 -9 279 54 Q 278 105 286 575 Q 286 578 286 579 L 286 612 Z" style="fill: #0070C0;"></path>
                                                                        <path d="M 507 481 Q 511 487 631 670 Q 644 695 667 714 Q 686 733 668 748 Q 647 761 614 766 Q 583 772 571 764 Q 558 757 568 745 Q 586 712 538 603 Q 513 545 485 480 Q 484 479 484 477 C 473 449 491 456 507 481 Z" style="fill: #0070C0;"></path>
                                                                        <path d="M 411 466 Q 398 473 383 476 Q 368 480 361 474 Q 354 467 361 453 Q 385 417 397 377 Q 407 338 431 184 C 436 154 473 158 469 188 Q 442 387 446 422 Q 446 426 445 431 C 443 451 438 453 411 466 Z" style="fill: #0070C0;"></path>
                                                                        <path d="M 804 232 Q 832 403 869 469 Q 879 481 874 493 Q 867 509 804 535 Q 788 542 773 538 Q 650 507 507 481 L 484 477 Q 447 473 411 466 C 381 461 416 422 445 431 Q 482 443 510 448 L 525 452 Q 574 465 625 475 L 667 484 Q 752 505 772 492 Q 782 486 782 460 Q 772 361 745 222 C 739 193 799 202 804 232 Z" style="fill: #0070C0;"></path>
                                                                        <path d="M 565 198 Q 578 252 543 420 Q 542 435 525 452 C 511 467 511 467 510 448 Q 507 445 517 398 Q 521 367 521 327 Q 522 284 525 249 Q 528 216 547 196 C 561 179 561 179 565 198 Z" style="fill: #0070C0;"></path>
                                                                        <path d="M 650 209 Q 662 239 684 367 Q 688 400 703 444 Q 713 459 703 466 Q 691 476 667 484 C 639 494 608 500 625 475 Q 625 472 630 468 Q 657 417 624 225 Q 623 215 623 205 C 622 175 640 181 650 209 Z" style="fill: #0070C0;"></path>
                                                                        <path d="M 431 184 Q 380 180 329 174 Q 308 173 323 155 Q 336 140 355 135 Q 376 129 392 133 Q 546 172 877 173 Q 895 173 913 172 Q 932 172 938 180 Q 944 192 928 206 Q 874 249 804 232 L 745 222 Q 702 218 650 209 L 623 205 Q 616 206 609 204 Q 587 203 565 198 L 547 196 Q 508 193 469 188 L 431 184 Z" style="fill: #0070C0;"></path>
                                    
                                    
                                                                                                                                                                                                                                                                                                                                                                                                                                                                                                                                                                                                                                                                                                                                                                                        </g>
                            </svg>