<svg width='83' height='83' >
                                <g transform="translate(3, 70) scale(0.07, -0.07)">
                                    <!-- 先将完整的字以灰色字体绘制完成，层级位于下面 -->
                                                                        <path d="M 139 550 Q 124 480 97 412 Q 84 373 106 343 Q 118 327 137 343 Q 185 397 176 496 Q 175 530 164 555 Q 157 562 151 563 Q 142 559 139 550 Z" style="fill: #0070C0;"></path>
                                                                        <path d="M 307 599 Q 391 530 406 528 L 408 528 Q 417 529 421 540 Q 425 553 416 579 Q 407 606 319 627 Q 312 628 308 627 C 278 624 284 618 307 599 Z" style="fill: #0070C0;"></path>
                                                                        <path d="M 308 627 Q 311 700 326 752 Q 336 767 332 781 Q 325 791 270 825 Q 246 843 225 827 Q 221 821 226 806 Q 259 758 260 677 Q 260 251 245 170 Q 239 136 229 101 Q 219 67 227 45 Q 242 -16 258 -23 Q 264 -30 272 -21 Q 279 -17 290 4 Q 300 29 299 61 Q 298 113 307 587 Q 307 594 307 599 L 308 627 Z" style="fill: #0070C0;"></path>
                                                                        <path d="M 645 658 Q 693 683 746 720 Q 762 733 786 742 Q 799 749 797 758 Q 794 765 776 776 Q 737 795 714 795 Q 704 795 704 783 Q 692 714 455 600 Q 446 593 460 590 Q 526 602 601 635 L 645 658 Z" style="fill: #0070C0;"></path>
                                                                        <path d="M 661 450 Q 670 451 924 471 Q 945 472 949 480 Q 953 493 937 506 Q 879 545 826 527 Q 760 512 666 491 L 613 481 Q 501 462 371 439 Q 350 435 367 419 Q 394 394 448 406 Q 523 430 611 442 L 661 450 Z" style="fill: #0070C0;"></path>
                                                                        <path d="M 639 295 Q 649 376 661 450 L 666 491 Q 666 539 694 613 Q 698 623 680 639 Q 661 651 645 658 C 618 671 587 662 601 635 Q 617 607 617 587 Q 616 536 613 481 L 611 442 Q 605 369 597 287 C 594 257 635 265 639 295 Z" style="fill: #0070C0;"></path>
                                                                        <path d="M 513 276 Q 501 283 467 289 Q 454 293 451 287 Q 444 281 453 264 Q 484 194 501 78 Q 504 44 523 20 Q 542 -2 547 13 Q 553 31 551 60 L 546 97 Q 528 205 525 241 C 522 271 522 272 513 276 Z" style="fill: #0070C0;"></path>
                                                                        <path d="M 788 124 Q 815 220 848 249 Q 866 268 850 287 Q 832 300 778 326 Q 759 335 737 325 Q 686 306 639 295 L 597 287 Q 555 281 513 276 C 483 272 496 234 525 241 Q 531 244 716 276 Q 738 280 747 271 Q 765 253 736 127 C 729 98 780 95 788 124 Z" style="fill: #0070C0;"></path>
                                                                        <path d="M 551 60 Q 555 60 562 61 Q 638 76 806 84 Q 816 85 819 94 Q 820 103 788 124 C 773 134 765 133 736 127 Q 630 106 546 97 C 516 94 521 58 551 60 Z" style="fill: #0070C0;"></path>
                                    
                                    
                                                                                                                                                                                                                                                                                                                                                                                                                                                                                                                                                                                                                                                                                                                                                                                        </g>
                            </svg>