<svg width='83' height='83' >
                                <g transform="translate(3, 70) scale(0.07, -0.07)">
                                    <!-- 先将完整的字以灰色字体绘制完成，层级位于下面 -->
                                                                        <path d="M 406 690 Q 443 726 488 774 Q 504 795 526 810 Q 545 826 531 841 Q 513 856 484 865 Q 456 874 444 868 Q 431 864 438 851 Q 445 827 400 732 Q 388 711 376 686 C 363 659 385 669 406 690 Z" style="fill: #0070C0;"></path>
                                                                        <path d="M 350 683 Q 335 693 319 698 Q 312 701 307 696 Q 300 692 308 679 Q 350 592 341 391 Q 338 331 372 302 Q 373 301 376 299 Q 392 292 396 323 L 396 324 L 396 351 Q 395 370 391 392 Q 390 417 388 445 L 386 476 Q 386 512 384 550 L 384 578 Q 383 612 385 640 Q 385 643 385 646 C 386 662 376 668 350 683 Z" style="fill: #0070C0;"></path>
                                                                        <path d="M 586 346 Q 604 328 631 276 Q 644 257 660 270 Q 694 297 702 430 Q 712 628 732 664 Q 745 686 725 700 Q 698 722 662 737 Q 647 746 603 730 Q 429 694 406 690 L 376 686 Q 363 686 350 683 C 320 679 356 637 385 646 Q 384 647 386 647 Q 608 710 640 690 Q 650 684 652 659 Q 653 523 634 380 Q 633 370 618 369 C 595 349 584 349 586 346 Z" style="fill: #0070C0;"></path>
                                                                        <path d="M 384 550 Q 402 544 469 557 Q 572 576 579 581 Q 586 588 582 595 Q 576 604 553 610 Q 529 614 505 605 Q 477 596 445 588 Q 417 584 384 578 C 354 573 355 556 384 550 Z" style="fill: #0070C0;"></path>
                                                                        <path d="M 388 445 Q 392 445 395 444 Q 410 443 539 461 Q 578 468 582 472 Q 589 479 586 486 Q 580 496 556 503 Q 538 507 457 487 Q 450 486 386 476 C 356 471 358 449 388 445 Z" style="fill: #0070C0;"></path>
                                                                        <path d="M 396 324 Q 397 324 402 324 Q 505 337 586 346 C 616 349 640 352 618 369 Q 611 376 596 380 Q 580 383 396 351 C 366 346 366 323 396 324 Z" style="fill: #0070C0;"></path>
                                                                        <path d="M 208 274 Q 181 204 144 141 Q 122 102 143 66 Q 152 47 175 61 Q 200 80 215 116 Q 237 165 239 209 Q 243 246 235 274 Q 229 284 222 285 Q 212 284 208 274 Z" style="fill: #0070C0;"></path>
                                                                        <path d="M 318 227 Q 336 113 425 51 Q 515 -6 710 -10 Q 773 -10 829 13 Q 857 25 860 42 Q 864 52 827 80 Q 770 132 730 185 Q 717 204 712 197 Q 709 194 728 105 Q 737 68 698 58 Q 688 58 673 56 Q 486 52 412 124 Q 378 154 362 208 Q 355 233 342 239 Q 329 246 320 243 Q 314 242 318 227 Z" style="fill: #0070C0;"></path>
                                                                        <path d="M 484 243 Q 526 186 561 165 Q 577 161 587 173 Q 594 186 593 203 Q 586 249 500 281 Q 484 287 474 284 Q 467 283 469 270 Q 470 258 484 243 Z" style="fill: #0070C0;"></path>
                                                                        <path d="M 779 294 Q 833 257 889 212 Q 905 199 921 201 Q 931 202 937 216 Q 941 232 929 263 Q 913 311 771 344 Q 755 347 748 343 Q 742 339 745 325 Q 749 315 779 294 Z" style="fill: #0070C0;"></path>
                                    
                                    
                                                                                                                                                                                                                                                                                                                                                                                                                                                                                                                                                                                                                                                                                                                                                                                                                                                                    </g>
                            </svg>