<svg width='83' height='83' >
                                <g transform="translate(3, 70) scale(0.07, -0.07)">
                                    <!-- 先将完整的字以灰色字体绘制完成，层级位于下面 -->
                                                                        <path d="M 139 524 Q 120 458 90 397 Q 71 360 95 328 Q 105 310 125 326 Q 174 372 172 467 Q 173 501 163 527 Q 157 534 151 535 Q 142 534 139 524 Z" style="fill: #0070C0;"></path>
                                                                        <path d="M 289 592 Q 293 588 302 582 Q 333 558 367 530 Q 377 520 390 521 Q 397 522 401 532 Q 405 544 397 567 Q 391 586 361 600 Q 330 610 297 618 Q 293 619 291 618 C 261 616 267 612 289 592 Z" style="fill: #0070C0;"></path>
                                                                        <path d="M 291 618 Q 294 684 309 730 Q 318 745 315 758 Q 308 768 254 801 Q 232 817 211 803 Q 207 799 212 783 Q 242 737 244 661 Q 244 247 221 146 Q 217 128 211 109 Q 199 66 225 10 Q 231 -8 239 -11 Q 245 -18 252 -9 Q 259 -5 270 15 Q 280 40 279 70 Q 278 119 289 573 Q 289 583 289 592 L 291 618 Z" style="fill: #0070C0;"></path>
                                                                        <path d="M 611 679 Q 629 721 638 731 Q 644 737 641 747 Q 638 757 624 766 Q 587 793 557 781 Q 548 778 552 766 Q 577 696 470 505 Q 460 492 451 477 Q 414 423 320 316 Q 313 309 323 308 Q 377 324 484 450 Q 547 544 599 654 L 611 679 Z" style="fill: #0070C0;"></path>
                                                                        <path d="M 599 654 Q 684 536 794 410 Q 812 389 843 390 Q 948 393 981 398 Q 991 399 992 405 Q 992 409 978 417 Q 830 468 756 535 Q 689 598 611 679 C 590 701 581 678 599 654 Z" style="fill: #0070C0;"></path>
                                                                        <path d="M 495 394 Q 462 388 486 373 Q 522 355 613 375 Q 649 384 689 392 Q 716 399 720 402 Q 727 409 723 417 Q 716 427 689 434 Q 661 438 635 427 Q 605 417 573 407 Q 537 400 495 394 Z" style="fill: #0070C0;"></path>
                                                                        <path d="M 475 253 Q 463 259 432 265 Q 420 268 417 263 Q 410 256 419 241 Q 450 175 467 69 Q 470 38 488 16 Q 506 -6 511 9 Q 515 24 515 46 L 510 80 Q 491 189 488 222 C 485 249 485 249 475 253 Z" style="fill: #0070C0;"></path>
                                                                        <path d="M 735 107 Q 757 203 791 232 Q 807 251 792 268 Q 776 281 723 305 Q 705 312 683 303 Q 601 270 475 253 C 445 249 458 217 488 222 Q 498 223 511 227 Q 590 240 666 255 Q 685 259 694 251 Q 704 242 703 221 Q 696 160 685 110 C 679 81 728 78 735 107 Z" style="fill: #0070C0;"></path>
                                                                        <path d="M 515 46 Q 522 45 531 46 Q 601 61 751 70 Q 761 71 763 80 Q 763 87 735 107 C 721 118 714 116 685 110 Q 586 89 510 80 C 480 76 485 48 515 46 Z" style="fill: #0070C0;"></path>
                                    
                                    
                                                                                                                                                                                                                                                                                                                                                                                                                                                                                                                                                                                                                                                                                                                                                                                        </g>
                            </svg>