<svg width='83' height='83' >
                                <g transform="translate(3, 70) scale(0.07, -0.07)">
                                    <!-- 先将完整的字以灰色字体绘制完成，层级位于下面 -->
                                                                        <path d="M 543 553 Q 561 529 577 521 Q 587 514 602 535 Q 615 559 639 684 Q 646 715 668 740 Q 681 752 669 766 Q 653 782 611 806 Q 595 813 522 794 Q 515 794 354 754 C 325 747 337 707 364 720 Q 374 732 543 761 Q 567 765 575 757 Q 588 744 586 729 Q 568 597 553 582 C 540 557 540 557 543 553 Z" style="fill: #0070C0;"></path>
                                                                        <path d="M 361 620 Q 368 619 380 621 Q 462 637 524 649 Q 546 653 537 665 Q 527 678 503 682 Q 475 683 361 643 C 333 633 331 622 361 620 Z" style="fill: #0070C0;"></path>
                                                                        <path d="M 442 534 Q 494 546 543 553 C 573 557 582 575 553 582 Q 529 592 368 545 Q 364 545 360 543 C 331 534 331 533 360 525 Q 370 521 388 524 Q 392 525 398 526 L 442 534 Z" style="fill: #0070C0;"></path>
                                                                        <path d="M 354 754 Q 332 773 312 783 Q 293 790 284 784 Q 274 777 283 762 Q 337 654 304 420 Q 294 380 263 339 Q 250 323 258 300 Q 268 272 282 261 Q 295 252 307 270 Q 322 295 451 400 Q 470 413 476 422 Q 480 432 470 432 Q 467 432 370 392 Q 354 385 354 399 Q 358 466 360 525 L 360 543 Q 361 583 361 620 L 361 643 Q 361 703 364 720 C 366 744 366 744 354 754 Z" style="fill: #0070C0;"></path>
                                                                        <path d="M 588 420 Q 624 436 646 449 Q 721 489 733 493 Q 755 500 746 519 Q 736 538 711 554 Q 689 570 677 568 Q 664 568 667 555 Q 668 528 616 477 Q 594 455 570 432 C 548 411 561 408 588 420 Z" style="fill: #0070C0;"></path>
                                                                        <path d="M 570 432 Q 521 469 468 515 Q 455 527 442 534 C 417 550 372 541 398 526 Q 447 502 543 401 Q 651 293 709 291 Q 778 295 835 309 Q 866 315 863 324 Q 863 327 707 363 Q 647 381 588 420 L 570 432 Z" style="fill: #0070C0;"></path>
                                                                        <path d="M 222 231 Q 194 168 156 111 Q 135 78 152 42 Q 159 23 182 35 Q 206 51 221 85 Q 243 130 247 171 Q 253 205 246 231 Q 242 240 235 241 Q 226 240 222 231 Z" style="fill: #0070C0;"></path>
                                                                        <path d="M 333 208 Q 351 100 431 44 Q 518 -13 719 -13 Q 765 -9 803 7 Q 830 17 832 33 Q 836 43 797 68 Q 739 117 695 166 Q 682 185 676 176 Q 685 122 695 66 Q 680 51 645 50 Q 489 49 420 113 Q 390 141 377 188 Q 370 213 358 219 Q 345 226 336 223 Q 330 222 333 208 Z" style="fill: #0070C0;"></path>
                                                                        <path d="M 483 243 Q 514 215 546 181 Q 558 168 573 168 Q 583 168 589 181 Q 593 194 587 224 Q 583 246 550 263 Q 478 296 460 291 Q 456 287 456 275 Q 459 265 483 243 Z" style="fill: #0070C0;"></path>
                                                                        <path d="M 729 229 Q 783 195 850 142 Q 868 126 883 124 Q 890 124 897 135 Q 906 148 887 188 Q 869 233 725 258 Q 715 262 715 250 Q 716 237 729 229 Z" style="fill: #0070C0;"></path>
                                    
                                    
                                                                                                                                                                                                                                                                                                                                                                                                                                                                                                                                                                                                                                                                                                                                                                                                                                                                    </g>
                            </svg>