<svg width='83' height='83' >
                                <g transform="translate(3, 70) scale(0.07, -0.07)">
                                    <!-- 先将完整的字以灰色字体绘制完成，层级位于下面 -->
                                                                        <path d="M 129 539 Q 116 476 91 418 Q 78 382 99 354 Q 109 339 127 354 Q 172 405 163 489 Q 162 520 152 543 Q 145 550 140 550 Q 133 549 129 539 Z" style="fill: #0070C0;"></path>
                                                                        <path d="M 284 608 Q 290 602 302 593 Q 329 572 358 546 Q 370 536 381 537 Q 390 538 393 548 Q 397 560 389 583 Q 380 610 297 630 Q 290 631 285 631 C 258 632 262 629 284 608 Z" style="fill: #0070C0;"></path>
                                                                        <path d="M 285 631 Q 286 710 302 767 Q 311 782 308 795 Q 301 804 247 837 Q 223 853 203 838 Q 199 832 205 818 Q 241 767 241 697 Q 241 634 245 558 Q 242 231 230 156 Q 209 59 215 42 Q 234 -18 247 -23 Q 253 -30 260 -22 Q 287 0 285 58 Q 285 92 284 608 L 285 631 Z" style="fill: #0070C0;"></path>
                                                                        <path d="M 590 744 Q 627 717 668 684 Q 681 672 698 674 Q 708 675 713 688 Q 717 704 706 733 Q 691 772 582 792 Q 566 793 560 791 Q 556 787 557 774 Q 561 764 590 744 Z" style="fill: #0070C0;"></path>
                                                                        <path d="M 428 570 Q 398 566 421 548 Q 457 521 486 529 Q 687 577 861 600 Q 871 599 881 612 Q 882 625 858 635 Q 822 656 738 630 Q 612 597 428 570 Z" style="fill: #0070C0;"></path>
                                                                        <path d="M 681 361 Q 709 403 751 469 Q 767 493 768 499 Q 759 524 724 534 Q 705 540 695 538 Q 688 535 689 524 Q 701 485 654 403 Q 648 394 643 385 L 619 348 Q 571 287 497 215 Q 490 211 499 208 Q 565 223 649 321 L 681 361 Z" style="fill: #0070C0;"></path>
                                                                        <path d="M 649 321 Q 749 228 752 227 Q 759 226 765 234 Q 774 244 763 278 Q 754 311 681 361 L 643 385 Q 564 436 519 460 Q 512 464 510 454 Q 510 444 518 436 Q 566 397 619 348 L 649 321 Z" style="fill: #0070C0;"></path>
                                                                        <path d="M 804 164 L 805 163 C 835 159 842 206 812 203 Q 622 187 477 150 Q 452 143 458 173 Q 461 243 464 317 Q 467 341 456 355 Q 440 371 414 384 Q 402 388 392 386 Q 382 382 391 362 Q 425 295 417 227 Q 413 161 388 131 Q 369 113 377 99 Q 389 83 406 73 Q 419 66 430 74 Q 464 113 688 154 Q 779 170 804 164 Z" style="fill: #0070C0;"></path>
                                                                        <path d="M 805 163 Q 812 132 822 112 Q 832 96 844 108 Q 868 132 871 220 Q 884 340 894 357 Q 901 373 891 387 Q 870 402 837 421 Q 824 428 812 421 Q 805 417 807 403 Q 835 366 814 209 Q 813 206 812 203 L 805 163 Z" style="fill: #0070C0;"></path>
                                    
                                    
                                                                                                                                                                                                                                                                                                                                                                                                                                                                                                                                                                                                                                                                                                                                                                                        </g>
                            </svg>