<svg width='83' height='83' >
                                <g transform="translate(3, 70) scale(0.07, -0.07)">
                                    <!-- 先将完整的字以灰色字体绘制完成，层级位于下面 -->
                                                                        <path d="M 519 745 Q 607 772 651 773 Q 667 772 672 779 Q 676 789 667 801 Q 616 849 583 849 Q 576 846 573 836 Q 567 797 370 735 Q 364 728 369 724 Q 384 720 469 735 L 519 745 Z" style="fill: #0070C0;"></path>
                                                                        <path d="M 326 649 Q 347 630 368 605 Q 380 593 394 593 Q 404 593 409 605 Q 413 618 407 645 Q 403 661 378 675 Q 320 699 304 695 Q 300 691 300 680 Q 303 670 326 649 Z" style="fill: #0070C0;"></path>
                                                                        <path d="M 678 710 Q 656 682 613 641 Q 606 634 611 627 Q 618 624 626 628 Q 708 667 746 679 Q 765 682 762 693 Q 758 709 742 730 Q 726 751 704 755 Q 691 756 688 738 Q 689 725 678 710 Z" style="fill: #0070C0;"></path>
                                                                        <path d="M 557 529 Q 647 538 807 537 Q 826 537 831 546 Q 837 556 820 570 Q 772 607 733 599 Q 658 584 537 564 L 496 558 Q 366 542 212 521 Q 191 520 207 503 Q 220 490 238 484 Q 257 480 274 484 Q 359 508 456 518 L 557 529 Z" style="fill: #0070C0;"></path>
                                                                        <path d="M 537 564 Q 540 655 563 698 Q 569 708 558 721 Q 539 736 519 745 C 492 758 456 762 469 735 Q 493 693 495 580 Q 495 570 496 558 L 495 489 Q 492 402 485 366 Q 484 351 490 335 Q 496 326 501 314 Q 511 299 525 307 Q 535 316 536 381 Q 532 439 534 519 L 537 564 Z" style="fill: #0070C0;"></path>
                                                                        <path d="M 456 518 Q 410 428 231 330 Q 213 320 228 318 Q 261 309 347 355 Q 405 394 435 421 Q 468 452 488 480 Q 491 484 495 489 C 524 526 483 567 456 518 Z" style="fill: #0070C0;"></path>
                                                                        <path d="M 534 519 Q 607 440 687 366 Q 708 347 742 347 Q 803 346 867 362 Q 883 363 884 369 Q 885 375 873 379 Q 720 428 710 433 Q 653 458 584 509 Q 569 522 557 529 C 530 546 514 541 534 519 Z" style="fill: #0070C0;"></path>
                                                                        <path d="M 218 245 Q 196 181 162 122 Q 143 85 164 53 Q 173 34 194 49 Q 248 92 248 187 Q 252 221 243 247 Q 237 256 231 256 Q 222 255 218 245 Z" style="fill: #0070C0;"></path>
                                                                        <path d="M 318 229 Q 333 112 418 47 Q 520 -25 736 -26 Q 782 -22 821 -8 Q 849 2 853 19 Q 859 29 819 64 Q 759 127 717 190 Q 705 208 700 201 Q 696 194 700 179 Q 715 133 727 83 Q 733 61 726 52 Q 716 39 675 40 Q 485 43 408 119 Q 374 153 360 209 Q 353 233 342 239 Q 329 246 321 243 Q 315 242 318 229 Z" style="fill: #0070C0;"></path>
                                                                        <path d="M 465 263 Q 511 202 546 184 Q 561 180 571 193 Q 578 206 577 223 Q 567 268 480 301 Q 464 308 454 304 Q 447 303 449 290 Q 450 278 465 263 Z" style="fill: #0070C0;"></path>
                                                                        <path d="M 772 269 Q 833 229 906 170 Q 924 154 939 152 Q 946 152 953 163 Q 962 176 944 216 Q 926 264 769 298 Q 759 302 759 290 Q 760 277 772 269 Z" style="fill: #0070C0;"></path>
                                    
                                    
                                                                                                                                                                                                                                                                                                                                                                                                                                                                                                                                                                                                                                                                                                                                                                                                                                                                                                                                                </g>
                            </svg>