<svg width='83' height='83' >
                                <g transform="translate(3, 70) scale(0.07, -0.07)">
                                    <!-- 先将完整的字以灰色字体绘制完成，层级位于下面 -->
                                                                        <path d="M 114 545 Q 93 472 60 406 Q 53 393 53 377 Q 53 352 63 336 Q 73 318 93 333 Q 115 352 127 386 Q 148 441 146 487 Q 149 521 139 547 Q 133 554 127 556 Q 118 553 114 545 Z" style="fill: #0070C0;"></path>
                                                                        <path d="M 266 539 Q 344 470 360 468 Q 369 469 373 481 Q 377 494 369 519 Q 365 537 337 549 Q 286 568 267 568 C 237 570 244 559 266 539 Z" style="fill: #0070C0;"></path>
                                                                        <path d="M 267 568 Q 267 667 290 743 Q 303 770 279 787 Q 263 799 234 817 Q 210 835 189 819 Q 185 815 190 799 Q 221 751 222 672 Q 222 234 189 110 Q 186 107 186 101 Q 174 62 199 -1 Q 206 -20 214 -23 Q 220 -30 228 -21 Q 235 -17 246 4 Q 256 29 256 60 Q 255 109 266 539 L 267 568 Z" style="fill: #0070C0;"></path>
                                                                        <path d="M 490 726 Q 478 732 449 736 Q 439 739 435 734 Q 429 728 437 713 Q 464 661 481 574 Q 485 547 500 531 Q 518 510 522 525 Q 525 535 525 552 L 521 586 Q 505 665 503 695 C 501 722 501 722 490 726 Z" style="fill: #0070C0;"></path>
                                                                        <path d="M 746 624 Q 768 690 799 709 Q 815 727 801 744 Q 728 804 674 773 Q 614 752 490 726 C 461 720 474 689 503 695 L 678 733 Q 697 737 706 730 Q 713 723 712 707 Q 705 665 694 630 C 685 601 736 596 746 624 Z" style="fill: #0070C0;"></path>
                                                                        <path d="M 525 552 Q 532 551 544 554 Q 611 573 757 593 Q 767 594 769 604 Q 769 611 746 624 C 721 639 721 639 694 630 Q 693 630 691 629 Q 597 601 521 586 C 492 580 495 552 525 552 Z" style="fill: #0070C0;"></path>
                                                                        <path d="M 771 353 Q 792 419 824 446 Q 840 465 826 482 Q 810 495 757 518 Q 739 525 718 516 Q 619 471 477 447 C 447 442 456 409 485 415 Q 495 416 511 422 Q 545 431 581 438 L 612 446 Q 717 476 731 465 Q 740 456 738 439 Q 729 391 719 352 C 712 323 761 325 771 353 Z" style="fill: #0070C0;"></path>
                                                                        <path d="M 620 326 Q 626 398 631 407 Q 637 423 612 446 C 590 467 576 468 581 438 Q 584 428 584 318 C 584 288 617 296 620 326 Z" style="fill: #0070C0;"></path>
                                                                        <path d="M 471 266 Q 477 260 499 265 Q 590 290 789 317 Q 799 318 800 328 Q 800 335 771 353 C 758 362 748 359 719 352 Q 667 339 620 326 L 584 318 Q 523 306 473 297 C 443 292 442 275 471 266 Z" style="fill: #0070C0;"></path>
                                                                        <path d="M 477 447 Q 464 460 442 466 Q 429 470 421 465 Q 414 461 420 444 Q 433 405 432 368 Q 425 154 443 96 Q 450 63 481 36 Q 584 -39 800 -9 Q 825 -3 853 4 Q 908 22 962 61 Q 983 80 966 107 Q 951 132 926 209 Q 925 225 917 230 Q 910 233 907 214 Q 885 129 869 101 Q 821 41 660 46 Q 597 47 548 68 Q 502 89 490 117 Q 466 163 471 266 L 473 297 Q 476 352 485 415 C 488 440 488 440 477 447 Z" style="fill: #0070C0;"></path>
                                    
                                    
                                                                                                                                                                                                                                                                                                                                                                                                                                                                                                                                                                                                                                                                                                                                                                                                                                                                    </g>
                            </svg>