<svg width='83' height='83' >
                                <g transform="translate(3, 70) scale(0.07, -0.07)">
                                    <!-- 先将完整的字以灰色字体绘制完成，层级位于下面 -->
                                                                        <path d="M 282 590 Q 318 635 358 691 Q 383 734 406 753 Q 416 763 412 776 Q 408 789 382 812 Q 357 831 339 832 Q 321 831 328 809 Q 340 781 327 756 Q 263 617 112 453 Q 102 444 99 438 Q 95 428 109 429 Q 148 435 258 562 L 282 590 Z" style="fill: #0070C0;"></path>
                                                                        <path d="M 258 562 Q 280 513 253 376 Q 234 340 271 289 Q 271 288 273 286 Q 288 273 297 295 Q 310 329 309 367 Q 310 496 316 525 Q 323 547 314 556 Q 289 586 282 590 C 259 609 247 590 258 562 Z" style="fill: #0070C0;"></path>
                                                                        <path d="M 377 603 Q 396 563 379 427 Q 372 406 394 374 Q 401 367 409 374 Q 427 404 426 432 Q 422 499 434 578 Q 440 596 424 605 Q 411 614 398 621 Q 388 625 381 621 Q 374 615 377 603 Z" style="fill: #0070C0;"></path>
                                                                        <path d="M 573 684 Q 589 709 607 740 Q 620 768 632 781 Q 639 791 635 803 Q 631 813 603 831 Q 578 844 562 843 Q 546 840 555 821 Q 573 791 522 684 Q 498 635 463 579 Q 456 570 454 564 Q 453 554 464 558 Q 486 561 545 643 Q 552 653 561 665 L 573 684 Z" style="fill: #0070C0;"></path>
                                                                        <path d="M 694 665 Q 827 701 832 705 Q 841 712 836 721 Q 829 731 799 737 Q 771 741 742 728 Q 706 715 668 703 Q 625 691 575 685 Q 572 685 573 684 C 545 678 545 678 561 665 Q 588 638 660 656 L 694 665 Z" style="fill: #0070C0;"></path>
                                                                        <path d="M 658 478 Q 674 502 686 528 Q 716 594 729 609 Q 741 622 729 633 Q 714 652 694 665 C 670 683 655 686 660 656 Q 673 608 621 510 L 601 479 Q 550 415 479 387 Q 463 380 447 373 Q 434 369 444 363 Q 492 354 562 390 Q 589 403 631 444 L 658 478 Z" style="fill: #0070C0;"></path>
                                                                        <path d="M 631 444 Q 718 344 765 342 Q 829 343 883 351 Q 913 355 910 363 Q 907 369 771 414 Q 723 432 658 478 L 621 510 Q 555 576 525 576 Q 510 576 507 572 Q 506 566 519 557 Q 549 536 601 479 L 631 444 Z" style="fill: #0070C0;"></path>
                                                                        <path d="M 234 238 Q 209 171 173 111 Q 152 77 172 41 Q 181 22 202 36 Q 257 81 262 179 Q 266 213 259 239 Q 253 248 247 248 Q 238 247 234 238 Z" style="fill: #0070C0;"></path>
                                                                        <path d="M 350 221 Q 365 110 442 53 Q 565 -32 772 -11 Q 794 -5 815 1 Q 842 11 845 27 Q 849 37 813 63 Q 758 114 717 166 Q 705 184 700 176 Q 697 175 716 94 Q 716 58 706 53 Q 693 50 667 49 Q 502 52 433 121 Q 403 151 391 201 Q 385 225 374 231 Q 361 238 353 235 Q 347 234 350 221 Z" style="fill: #0070C0;"></path>
                                                                        <path d="M 497 259 Q 539 205 570 188 Q 585 184 595 197 Q 602 210 600 227 Q 596 252 578 266 Q 553 285 512 297 Q 496 304 486 300 Q 479 299 481 286 Q 482 274 497 259 Z" style="fill: #0070C0;"></path>
                                                                        <path d="M 738 256 Q 798 219 872 162 Q 891 146 906 143 Q 915 144 921 155 Q 930 170 910 210 Q 889 262 733 287 Q 723 290 724 278 Q 725 265 738 256 Z" style="fill: #0070C0;"></path>
                                    
                                    
                                                                                                                                                                                                                                                                                                                                                                                                                                                                                                                                                                                                                                                                                                                                                                                                                                                                                                                                                </g>
                            </svg>