<svg width='83' height='83' >
                                <g transform="translate(3, 70) scale(0.07, -0.07)">
                                    <!-- 先将完整的字以灰色字体绘制完成，层级位于下面 -->
                                                                        <path d="M 487 722 Q 457 719 273 703 Q 246 702 266 684 Q 276 674 290 665 Q 303 658 323 663 Q 398 676 489 688 L 534 694 Q 589 703 725 713 Q 735 712 744 723 Q 745 733 724 745 Q 691 769 625 749 Q 582 742 538 731 L 487 722 Z" style="fill: #0070C0;"></path>
                                                                        <path d="M 538 731 Q 538 732 552 802 Q 555 812 538 824 Q 510 840 488 844 Q 475 847 468 839 Q 461 833 468 820 Q 483 802 487 722 L 489 688 Q 490 657 491 624 C 492 594 525 602 528 632 Q 531 663 534 694 L 538 731 Z" style="fill: #0070C0;"></path>
                                                                        <path d="M 491 624 Q 457 618 427 614 Q 399 611 368 607 Q 341 604 362 587 Q 396 563 420 569 Q 544 596 642 604 Q 652 603 661 615 Q 662 625 640 636 Q 613 657 532 633 Q 529 633 528 632 L 491 624 Z" style="fill: #0070C0;"></path>
                                                                        <path d="M 259 499 Q 249 520 238 527 Q 220 540 219 515 Q 225 485 188 441 Q 152 408 178 349 L 179 347 Q 194 322 212 348 Q 227 370 238 404 Q 250 444 260 467 C 267 483 267 483 259 499 Z" style="fill: #0070C0;"></path>
                                                                        <path d="M 260 467 Q 281 455 318 463 Q 462 505 687 524 Q 756 531 760 517 Q 760 514 721 457 Q 711 447 717 440 Q 723 436 742 443 Q 800 465 843 466 Q 880 469 881 476 Q 880 486 815 550 Q 791 574 709 558 Q 481 531 368 512 Q 313 505 259 499 C 229 496 231 476 260 467 Z" style="fill: #0070C0;"></path>
                                                                        <path d="M 439 423 Q 403 451 380 445 Q 370 441 374 429 Q 389 414 380 348 Q 368 294 308 248 Q 298 241 307 238 Q 346 238 382 270 Q 418 306 434 368 Q 438 387 444 398 C 451 414 451 414 439 423 Z" style="fill: #0070C0;"></path>
                                                                        <path d="M 444 398 Q 451 399 460 404 Q 523 422 529 418 Q 533 414 531 397 Q 521 271 598 252 Q 634 242 685 244 Q 731 247 768 268 Q 786 280 776 300 Q 751 346 744 398 Q 740 405 736 405 Q 733 405 728 394 Q 716 316 696 302 Q 617 278 589 305 Q 579 314 574 335 Q 570 356 579 386 Q 583 402 593 412 Q 606 421 596 432 Q 584 445 558 455 Q 539 462 526 455 Q 501 440 439 423 C 410 415 416 388 444 398 Z" style="fill: #0070C0;"></path>
                                                                        <path d="M 218 183 Q 196 131 163 83 Q 142 52 160 13 Q 167 -6 190 8 Q 244 47 244 123 Q 250 157 243 183 Q 237 192 231 193 Q 222 192 218 183 Z" style="fill: #0070C0;"></path>
                                                                        <path d="M 303 177 Q 321 72 398 21 Q 500 -45 695 -29 Q 726 -23 755 -12 Q 780 -2 782 14 Q 786 21 753 46 Q 704 92 668 138 Q 658 156 653 149 Q 650 146 662 72 Q 671 35 626 28 Q 619 28 611 27 Q 452 26 387 86 Q 356 113 344 159 Q 337 181 326 187 Q 313 194 306 191 Q 300 190 303 177 Z" style="fill: #0070C0;"></path>
                                                                        <path d="M 465 195 Q 492 173 520 146 Q 533 136 547 136 Q 557 136 561 149 Q 565 162 556 189 Q 547 217 460 238 Q 445 242 440 239 Q 436 235 437 223 Q 441 213 465 195 Z" style="fill: #0070C0;"></path>
                                                                        <path d="M 735 188 Q 778 157 830 109 Q 848 91 862 89 Q 871 88 877 99 Q 887 112 871 152 Q 859 188 794 205 Q 754 214 733 217 Q 724 221 723 210 Q 724 197 735 188 Z" style="fill: #0070C0;"></path>
                                    
                                    
                                                                                                                                                                                                                                                                                                                                                                                                                                                                                                                                                                                                                                                                                                                                                                                                                                                                                                                                                </g>
                            </svg>