<svg width='83' height='83' >
                                <g transform="translate(3, 70) scale(0.07, -0.07)">
                                    <!-- 先将完整的字以灰色字体绘制完成，层级位于下面 -->
                                                                        <path d="M 123 523 Q 107 457 79 397 Q 63 360 86 328 Q 96 310 117 326 Q 136 347 147 381 Q 162 429 158 467 Q 159 501 147 527 Q 141 534 135 535 Q 126 532 123 523 Z" style="fill: #0070C0;"></path>
                                                                        <path d="M 271 578 Q 301 548 331 512 Q 338 502 350 501 Q 357 500 362 509 Q 366 519 363 539 Q 357 572 275 608 L 273 608 C 244 615 250 599 271 578 Z" style="fill: #0070C0;"></path>
                                                                        <path d="M 273 608 Q 276 684 292 737 Q 301 750 298 764 Q 291 773 239 805 Q 217 821 198 807 Q 194 803 199 788 Q 229 742 230 665 Q 230 251 204 140 Q 201 128 197 113 Q 185 74 210 17 Q 216 1 223 -3 Q 229 -9 236 -1 Q 243 3 253 22 Q 263 46 262 75 Q 261 124 271 578 L 273 608 Z" style="fill: #0070C0;"></path>
                                                                        <path d="M 454 713 Q 511 641 533 638 Q 546 637 553 654 Q 556 666 547 686 Q 531 719 460 739 Q 451 740 450 730 Q 449 723 454 713 Z" style="fill: #0070C0;"></path>
                                                                        <path d="M 361 639 Q 400 536 377 260 Q 370 199 349 137 Q 334 89 365 48 Q 375 35 385 48 Q 418 82 418 234 Q 418 531 433 608 Q 434 626 419 635 Q 398 653 372 661 Q 363 662 357 655 Q 354 649 361 639 Z" style="fill: #0070C0;"></path>
                                                                        <path d="M 614 701 Q 598 701 603 691 Q 610 679 632 670 Q 644 661 691 676 Q 790 715 805 674 Q 817 634 825 379 Q 825 259 820 129 Q 819 92 805 81 Q 790 71 717 86 Q 701 89 702 79 Q 703 72 716 66 Q 782 23 817 -13 Q 838 -32 851 -29 Q 863 -26 874 2 Q 889 48 887 114 Q 860 624 880 668 Q 892 690 882 701 Q 872 716 826 739 Q 805 751 742 728 Q 660 709 614 701 Z" style="fill: #0070C0;"></path>
                                                                        <path d="M 569 543 Q 623 489 635 489 Q 644 489 649 501 Q 653 514 647 539 Q 640 564 567 585 Q 554 589 548 587 Q 544 583 544 572 Q 547 562 569 543 Z" style="fill: #0070C0;"></path>
                                                                        <path d="M 667 424 Q 685 431 765 441 Q 774 440 782 452 Q 783 462 762 471 Q 737 492 643 460 Q 634 459 626 456 Q 602 450 467 426 Q 442 422 462 407 Q 492 386 515 391 Q 566 404 627 416 L 667 424 Z" style="fill: #0070C0;"></path>
                                                                        <path d="M 654 262 Q 675 301 685 360 Q 686 379 692 390 Q 696 400 689 406 Q 679 418 667 424 C 642 440 621 445 627 416 Q 640 361 616 284 L 595 246 Q 550 195 451 159 Q 442 158 439 155 Q 435 151 442 148 Q 446 147 458 148 Q 521 155 567 177 Q 603 193 624 220 Q 624 221 625 221 L 654 262 Z" style="fill: #0070C0;"></path>
                                                                        <path d="M 625 221 Q 706 149 713 147 Q 719 146 725 154 Q 732 164 721 198 Q 712 228 654 262 L 616 284 Q 595 305 503 344 Q 496 348 494 338 Q 495 328 503 320 Q 546 289 595 246 L 625 221 Z" style="fill: #0070C0;"></path>
                                    
                                    
                                                                                                                                                                                                                                                                                                                                                                                                                                                                                                                                                                                                                                                                                                                                                                                                                                                                    </g>
                            </svg>