<svg width='83' height='83' >
                                <g transform="translate(3, 70) scale(0.07, -0.07)">
                                    <!-- 先将完整的字以灰色字体绘制完成，层级位于下面 -->
                                                                        <path d="M 105 527 Q 93 460 69 397 Q 56 361 79 334 Q 89 319 107 334 Q 125 353 132 386 Q 145 437 140 477 Q 139 508 128 531 Q 121 538 116 538 Q 109 535 105 527 Z" style="fill: #0070C0;"></path>
                                                                        <path d="M 267 601 Q 273 597 286 589 Q 313 573 343 552 Q 356 543 370 546 Q 379 547 381 560 Q 382 573 371 597 Q 364 613 334 622 Q 283 629 267 630 C 237 632 242 617 267 601 Z" style="fill: #0070C0;"></path>
                                                                        <path d="M 267 630 Q 270 705 286 758 Q 295 773 291 786 Q 285 796 230 829 Q 208 845 187 830 Q 183 826 189 810 Q 219 764 221 697 Q 221 289 211 211 Q 204 174 194 137 Q 184 100 208 38 Q 215 20 223 17 Q 229 10 236 19 Q 243 23 253 43 Q 263 68 262 98 Q 261 147 267 601 L 267 630 Z" style="fill: #0070C0;"></path>
                                                                        <path d="M 576 814 Q 601 795 629 771 Q 645 758 661 761 Q 673 762 677 776 Q 680 792 668 823 Q 656 851 567 864 Q 551 867 544 863 Q 540 859 542 845 Q 546 835 576 814 Z" style="fill: #0070C0;"></path>
                                                                        <path d="M 468 682 Q 434 676 459 661 Q 498 640 548 652 Q 645 674 746 696 Q 792 708 799 714 Q 806 721 803 729 Q 796 739 770 746 Q 746 752 635 714 Q 482 684 468 682 Z" style="fill: #0070C0;"></path>
                                                                        <path d="M 482 513 Q 504 547 525 573 Q 534 583 523 596 Q 487 624 468 622 Q 459 621 460 609 Q 469 531 357 419 Q 350 413 345 406 Q 338 394 350 397 Q 365 398 384 413 Q 433 447 467 491 L 482 513 Z" style="fill: #0070C0;"></path>
                                                                        <path d="M 467 491 Q 513 430 536 426 Q 546 425 553 440 Q 554 450 548 467 Q 538 488 482 513 C 455 525 449 515 467 491 Z" style="fill: #0070C0;"></path>
                                                                        <path d="M 712 537 Q 775 619 775 629 L 774 632 Q 770 642 748 660 Q 727 675 712 674 Q 697 673 703 656 Q 715 631 666 544 Q 642 504 609 460 Q 602 453 600 447 Q 597 438 608 441 Q 620 442 695 517 L 712 537 Z" style="fill: #0070C0;"></path>
                                                                        <path d="M 695 517 Q 701 511 713 501 Q 749 474 786 442 Q 796 432 809 433 Q 818 434 821 444 Q 825 456 817 479 Q 811 500 779 516 Q 746 529 712 537 C 683 544 673 538 695 517 Z" style="fill: #0070C0;"></path>
                                                                        <path d="M 643 308 Q 737 320 873 322 Q 937 322 944 332 Q 948 344 932 358 Q 878 394 842 386 Q 767 370 647 346 L 582 336 Q 468 320 336 298 Q 315 297 331 279 Q 346 266 364 261 Q 385 255 401 261 Q 485 286 583 299 L 643 308 Z" style="fill: #0070C0;"></path>
                                                                        <path d="M 590 -27 Q 596 -52 602 -61 Q 608 -68 615 -66 Q 633 -54 636 1 Q 642 53 641 104 Q 640 147 643 308 L 647 346 Q 648 361 652 371 Q 655 389 641 398 Q 610 420 594 422 Q 582 426 566 418 Q 557 411 565 400 Q 580 357 582 336 L 583 299 Q 587 -17 590 -27 Z" style="fill: #0070C0;"></path>
                                    
                                    
                                                                                                                                                                                                                                                                                                                                                                                                                                                                                                                                                                                                                                                                                                                                                                                                                                                                                                                                                </g>
                            </svg>