<svg width='83' height='83' >
                                <g transform="translate(3, 70) scale(0.07, -0.07)">
                                    <!-- 先将完整的字以灰色字体绘制完成，层级位于下面 -->
                                                                        <path d="M 125 571 Q 113 507 89 445 Q 77 412 99 382 Q 109 367 127 382 Q 169 430 160 521 Q 159 552 148 575 Q 141 582 136 582 Q 129 579 125 571 Z" style="fill: #0070C0;"></path>
                                                                        <path d="M 275 608 Q 281 604 293 596 Q 321 580 351 558 Q 363 551 375 552 Q 382 553 385 564 Q 386 576 377 598 Q 365 623 284 632 Q 278 633 275 632 C 245 629 250 625 275 608 Z" style="fill: #0070C0;"></path>
                                                                        <path d="M 275 632 Q 278 710 294 764 Q 304 779 300 793 Q 293 803 238 837 Q 214 855 193 839 Q 189 833 194 818 Q 227 770 227 693 Q 227 258 207 167 Q 189 92 195 73 Q 210 12 226 5 Q 233 -2 240 7 Q 247 11 258 32 Q 268 57 267 89 Q 266 138 275 603 Q 275 606 275 608 L 275 632 Z" style="fill: #0070C0;"></path>
                                                                        <path d="M 610 767 Q 664 791 722 799 Q 738 798 742 805 Q 746 815 736 826 Q 682 871 652 868 Q 645 865 644 855 Q 638 816 454 747 Q 448 740 453 736 Q 465 733 549 753 Q 556 754 563 755 L 610 767 Z" style="fill: #0070C0;"></path>
                                                                        <path d="M 643 635 Q 688 644 809 658 Q 819 657 829 670 Q 830 682 807 692 Q 777 713 709 693 Q 631 675 622 672 L 578 663 Q 536 657 404 641 Q 376 637 398 620 Q 426 595 473 603 Q 500 609 533 614 L 643 635 Z" style="fill: #0070C0;"></path>
                                                                        <path d="M 622 672 Q 634 726 639 732 Q 643 739 635 751 Q 623 760 610 767 C 584 782 550 782 563 755 Q 578 728 578 663 L 577 602 Q 576 526 570 497 Q 569 488 583 453 Q 590 440 603 447 Q 612 454 613 531 Q 613 582 616 627 L 622 672 Z" style="fill: #0070C0;"></path>
                                                                        <path d="M 533 614 Q 469 509 345 422 Q 330 412 344 410 Q 354 409 387 423 Q 426 438 461 465 Q 492 490 526 530 Q 536 542 577 602 C 594 627 566 668 533 614 Z" style="fill: #0070C0;"></path>
                                                                        <path d="M 616 627 Q 679 554 747 484 Q 768 465 802 464 Q 863 463 927 476 Q 943 477 945 482 Q 946 488 934 493 Q 895 506 851 518 Q 776 539 643 635 C 619 652 602 656 616 630 L 616 627 Z" style="fill: #0070C0;"></path>
                                                                        <path d="M 632 304 Q 728 373 753 379 Q 771 385 765 400 Q 762 415 703 449 Q 685 459 665 451 Q 607 430 520 405 Q 498 398 443 400 Q 421 401 429 382 Q 436 370 453 360 Q 480 345 515 364 Q 650 415 664 408 Q 674 401 670 390 Q 645 356 616 316 C 598 292 608 287 632 304 Z" style="fill: #0070C0;"></path>
                                                                        <path d="M 654 267 Q 645 291 632 304 L 616 316 Q 606 323 591 328 Q 569 335 560 328 Q 547 321 561 308 Q 586 290 600 260 L 609 225 Q 633 125 600 56 Q 587 28 551 34 Q 524 35 500 39 Q 488 40 494 30 Q 530 -4 566 -41 Q 576 -57 593 -55 Q 606 -54 632 -26 Q 698 46 665 227 Q 664 230 664 231 L 654 267 Z" style="fill: #0070C0;"></path>
                                                                        <path d="M 664 231 Q 733 237 911 237 Q 930 237 935 246 Q 939 256 924 270 Q 875 309 838 300 Q 766 285 654 267 L 600 260 Q 476 244 328 225 Q 309 224 323 207 Q 336 194 354 188 Q 373 184 390 187 Q 529 224 609 225 L 664 231 Z" style="fill: #0070C0;"></path>
                                    
                                    
                                                                                                                                                                                                                                                                                                                                                                                                                                                                                                                                                                                                                                                                                                                                                                                                                                                                                                                                                </g>
                            </svg>