<svg width='83' height='83' >
                                <g transform="translate(3, 70) scale(0.07, -0.07)">
                                    <!-- 先将完整的字以灰色字体绘制完成，层级位于下面 -->
                                                                        <path d="M 546 653 Q 672 689 675 691 Q 684 700 679 708 Q 672 720 642 727 Q 603 734 534 702 L 494 690 Q 335 654 277 646 Q 240 639 267 622 Q 312 598 367 613 Q 437 629 508 645 L 546 653 Z" style="fill: #0070C0;"></path>
                                                                        <path d="M 279 536 Q 269 540 242 543 Q 232 546 228 541 Q 224 535 232 521 Q 254 482 272 417 Q 276 398 289 385 Q 305 367 310 381 Q 311 388 312 399 L 308 428 Q 295 495 293 513 C 290 532 290 532 279 536 Z" style="fill: #0070C0;"></path>
                                                                        <path d="M 439 456 Q 451 507 466 522 Q 485 544 464 557 Q 448 566 422 581 Q 407 588 363 564 Q 330 549 279 536 C 250 528 265 502 293 513 Q 296 516 369 534 Q 391 540 397 531 Q 403 527 399 503 Q 396 482 392 456 C 387 426 432 427 439 456 Z" style="fill: #0070C0;"></path>
                                                                        <path d="M 312 399 Q 318 399 325 401 Q 365 414 452 429 Q 461 430 461 438 Q 461 445 439 456 C 421 465 421 465 392 456 Q 343 440 308 428 C 280 418 282 397 312 399 Z" style="fill: #0070C0;"></path>
                                                                        <path d="M 179 320 Q 167 319 165 309 Q 162 297 171 289 Q 192 273 223 254 Q 233 251 244 259 Q 286 286 454 353 Q 479 363 497 376 Q 510 383 510 391 Q 506 397 493 395 Q 237 319 179 320 Z" style="fill: #0070C0;"></path>
                                                                        <path d="M 645 391 Q 736 262 859 232 Q 863 232 868 231 Q 893 234 886 265 Q 876 295 868 432 Q 868 444 862 445 Q 858 445 854 433 Q 844 402 836 370 Q 824 330 810 329 Q 764 329 675 429 L 642 471 Q 570 570 546 653 L 534 702 Q 525 753 534 789 Q 538 808 500 828 Q 463 847 451 843 Q 441 837 445 821 Q 467 797 478 753 Q 485 722 494 690 L 508 645 Q 541 543 616 432 L 645 391 Z" style="fill: #0070C0;"></path>
                                                                        <path d="M 616 432 Q 559 366 485 313 Q 478 306 483 303 Q 508 294 591 348 Q 621 367 645 391 L 675 429 Q 699 460 724 509 Q 734 528 747 546 Q 754 555 750 564 Q 746 574 717 593 Q 698 606 688 604 Q 675 601 676 587 Q 677 530 642 471 L 616 432 Z" style="fill: #0070C0;"></path>
                                                                        <path d="M 678 755 Q 709 731 744 701 Q 757 691 771 691 Q 781 692 785 704 Q 789 717 780 745 Q 768 779 672 799 Q 657 802 652 799 Q 648 795 649 783 Q 653 773 678 755 Z" style="fill: #0070C0;"></path>
                                                                        <path d="M 238 204 Q 210 149 175 99 Q 153 69 169 30 Q 176 11 198 23 Q 222 39 239 71 Q 258 108 261 143 Q 268 177 262 203 Q 258 212 251 213 Q 242 212 238 204 Z" style="fill: #0070C0;"></path>
                                                                        <path d="M 322 200 Q 340 95 421 38 Q 526 -29 730 -14 Q 764 -8 793 3 Q 818 13 821 30 Q 825 40 787 66 Q 730 118 690 170 Q 677 188 672 180 Q 671 179 693 88 Q 699 54 670 47 Q 658 46 642 44 Q 477 43 409 106 Q 378 133 365 182 Q 358 206 346 211 Q 333 218 325 215 Q 319 214 322 200 Z" style="fill: #0070C0;"></path>
                                                                        <path d="M 469 219 Q 494 200 519 176 Q 534 164 550 166 Q 560 167 565 180 Q 569 196 558 225 Q 546 255 462 267 Q 446 270 440 267 Q 436 263 437 250 Q 441 240 469 219 Z" style="fill: #0070C0;"></path>
                                                                        <path d="M 730 217 Q 776 180 832 126 Q 848 108 862 105 Q 871 105 877 115 Q 887 128 873 166 Q 858 211 729 245 Q 720 249 719 238 Q 719 225 730 217 Z" style="fill: #0070C0;"></path>
                                    
                                    
                                                                                                                                                                                                                                                                                                                                                                                                                                                                                                                                                                                                                                                                                                                                                                                                                                                                                                                                                                                                                            </g>
                            </svg>