<svg width='83' height='83' >
                                <g transform="translate(3, 70) scale(0.07, -0.07)">
                                    <!-- 先将完整的字以灰色字体绘制完成，层级位于下面 -->
                                                                        <path d="M 115 523 Q 99 462 72 405 Q 66 392 67 376 Q 68 351 78 336 Q 88 318 109 334 Q 157 382 150 467 Q 150 501 139 527 Q 133 534 127 535 Q 118 532 115 523 Z" style="fill: #0070C0;"></path>
                                                                        <path d="M 275 561 Q 281 557 292 551 Q 319 535 349 513 Q 362 504 374 507 Q 383 508 385 520 Q 386 533 376 556 Q 369 572 340 580 Q 280 592 276 589 C 246 585 250 577 275 561 Z" style="fill: #0070C0;"></path>
                                                                        <path d="M 276 589 Q 277 671 295 728 Q 304 743 301 757 Q 294 767 238 801 Q 214 817 193 802 Q 189 798 194 782 Q 225 734 227 669 Q 227 261 217 183 Q 210 146 200 109 Q 188 67 215 6 Q 222 -12 230 -15 Q 236 -22 244 -13 Q 251 -9 262 12 Q 272 37 271 69 Q 270 118 275 561 L 276 589 Z" style="fill: #0070C0;"></path>
                                                                        <path d="M 581 684 Q 672 703 767 721 Q 822 733 830 741 Q 839 748 835 756 Q 828 768 800 775 Q 772 782 681 751 Q 618 736 599 729 L 537 718 Q 492 714 446 708 Q 410 702 435 686 Q 472 664 521 671 L 581 684 Z" style="fill: #0070C0;"></path>
                                                                        <path d="M 461 465 Q 524 552 581 684 L 599 729 Q 626 802 637 819 Q 644 826 640 836 Q 628 861 584 868 Q 562 871 551 866 Q 542 862 547 850 Q 562 813 537 718 L 521 671 Q 518 665 516 657 Q 468 531 311 336 Q 304 329 315 329 Q 342 338 428 425 Q 428 428 456 458 L 461 465 Z" style="fill: #0070C0;"></path>
                                                                        <path d="M 658 582 Q 763 609 768 612 Q 775 619 771 626 Q 764 636 739 641 Q 714 645 688 633 Q 664 624 637 616 Q 609 609 574 604 Q 543 597 566 584 Q 590 572 617 574 L 658 582 Z" style="fill: #0070C0;"></path>
                                                                        <path d="M 663 500 Q 666 519 670 536 Q 676 566 659 581 L 658 582 C 636 603 610 603 617 574 Q 617 573 618 570 Q 618 561 621 492 C 622 462 658 470 663 500 Z" style="fill: #0070C0;"></path>
                                                                        <path d="M 621 492 Q 548 482 466 467 Q 462 467 461 465 C 451 462 451 462 456 458 Q 474 440 490 435 Q 508 431 522 435 Q 663 477 879 478 Q 895 479 900 486 Q 904 496 889 508 Q 841 541 780 524 Q 731 514 663 500 L 621 492 Z" style="fill: #0070C0;"></path>
                                                                        <path d="M 543 166 Q 547 206 550 237 L 553 266 Q 559 327 563 346 Q 563 350 563 354 C 565 375 565 375 547 384 Q 520 399 503 399 Q 490 395 495 384 Q 532 293 487 120 Q 463 57 463 53 Q 463 22 480 -2 Q 486 -15 496 -10 Q 539 18 540 134 Q 540 137 541 138 L 543 166 Z" style="fill: #0070C0;"></path>
                                                                        <path d="M 563 354 L 684 384 Q 705 390 710 379 Q 729 325 734 90 Q 734 36 727 25 Q 723 19 705 23 Q 680 27 655 34 Q 636 41 636 31 Q 688 -18 718 -54 Q 731 -73 747 -77 Q 757 -81 765 -71 Q 804 -20 803 32 Q 763 323 788 370 Q 798 389 787 400 Q 765 418 728 432 Q 709 439 694 431 Q 631 398 547 384 C 518 379 534 347 563 354 Z" style="fill: #0070C0;"></path>
                                                                        <path d="M 550 237 Q 623 253 677 262 Q 698 266 689 277 Q 679 290 657 293 Q 633 294 553 266 C 525 256 521 231 550 237 Z" style="fill: #0070C0;"></path>
                                                                        <path d="M 541 138 Q 625 147 686 154 Q 708 157 701 169 Q 691 182 667 188 Q 634 194 543 166 C 514 157 511 135 541 138 Z" style="fill: #0070C0;"></path>
                                    
                                    
                                                                                                                                                                                                                                                                                                                                                                                                                                                                                                                                                                                                                                                                                                                                                                                                                                                                                                                                                                                                                            </g>
                            </svg>