<svg width='83' height='83' >
                                <g transform="translate(3, 70) scale(0.07, -0.07)">
                                    <!-- 先将完整的字以灰色字体绘制完成，层级位于下面 -->
                                                                        <path d="M 121 524 Q 106 457 80 394 Q 65 357 87 331 Q 97 315 115 330 Q 134 349 142 381 Q 158 430 154 473 Q 154 504 144 527 Q 137 534 132 534 Q 125 533 121 524 Z" style="fill: #0070C0;"></path>
                                                                        <path d="M 289 542 Q 323 523 359 495 Q 371 486 382 488 Q 391 489 393 500 Q 396 512 386 534 Q 379 553 347 565 Q 320 572 290 578 C 261 584 263 557 289 542 Z" style="fill: #0070C0;"></path>
                                                                        <path d="M 290 578 Q 293 659 309 714 Q 318 729 315 742 Q 308 752 254 785 Q 232 801 211 787 Q 207 783 213 767 Q 243 722 244 646 Q 244 226 224 138 Q 220 120 215 101 Q 203 65 228 2 Q 235 -16 243 -19 Q 249 -25 256 -17 Q 283 -1 283 62 Q 282 111 289 542 L 290 578 Z" style="fill: #0070C0;"></path>
                                                                        <path d="M 491 695 Q 478 702 445 709 Q 432 713 429 708 Q 422 702 430 686 Q 461 613 475 495 Q 476 461 496 436 Q 512 414 519 429 Q 520 436 523 445 L 524 471 Q 523 487 521 506 Q 517 533 513 555 L 509 579 Q 502 636 499 661 C 495 691 495 693 491 695 Z" style="fill: #0070C0;"></path>
                                                                        <path d="M 698 463 Q 699 459 701 455 Q 707 439 720 441 Q 733 444 740 459 Q 755 480 774 581 Q 789 633 824 664 Q 843 680 826 696 Q 807 712 757 737 Q 739 746 676 730 Q 655 730 552 707 Q 515 700 491 695 C 462 689 470 653 499 661 Q 500 662 506 663 Q 563 681 691 696 Q 713 697 722 694 Q 732 687 729 651 Q 711 519 699 487 C 694 471 694 471 698 463 Z" style="fill: #0070C0;"></path>
                                                                        <path d="M 513 555 Q 516 555 520 555 Q 605 568 667 575 Q 688 578 681 589 Q 671 602 649 607 Q 622 610 509 579 C 480 571 483 555 513 555 Z" style="fill: #0070C0;"></path>
                                                                        <path d="M 523 445 Q 526 445 530 445 Q 624 457 695 463 Q 696 464 698 463 C 728 464 725 472 699 487 Q 675 506 524 471 C 495 464 493 445 523 445 Z" style="fill: #0070C0;"></path>
                                                                        <path d="M 417 339 Q 407 342 394 344 Q 384 347 380 342 Q 376 336 383 322 Q 411 259 429 158 Q 430 133 444 112 C 460 86 469 84 472 114 Q 475 135 469 168 Q 450 271 444 305 C 439 333 439 333 417 339 Z" style="fill: #0070C0;"></path>
                                                                        <path d="M 797 150 Q 836 273 870 318 Q 882 328 878 340 Q 871 356 814 386 Q 798 395 784 391 Q 618 360 417 339 C 387 336 415 298 444 305 Q 453 306 461 309 Q 489 315 520 320 L 545 324 Q 588 333 634 339 L 691 346 Q 763 362 782 348 Q 789 342 787 322 Q 771 247 738 142 C 729 113 788 121 797 150 Z" style="fill: #0070C0;"></path>
                                                                        <path d="M 520 320 Q 521 307 525 291 Q 526 279 533 168 Q 536 141 554 122 C 568 106 568 106 573 123 Q 574 126 575 129 Q 581 169 552 303 Q 551 306 551 307 Q 550 317 545 324 C 530 350 517 350 520 320 Z" style="fill: #0070C0;"></path>
                                                                        <path d="M 634 339 Q 656 300 629 146 Q 628 137 628 129 C 627 99 641 104 653 132 Q 657 141 661 153 Q 673 201 684 259 Q 688 284 701 319 Q 710 332 700 339 Q 696 343 691 346 C 667 364 622 366 634 339 Z" style="fill: #0070C0;"></path>
                                                                        <path d="M 444 112 Q 384 109 321 102 Q 300 101 315 83 Q 328 68 346 62 Q 368 56 384 60 Q 601 114 928 92 Q 949 92 954 100 Q 960 112 943 126 Q 888 172 821 154 Q 809 153 797 150 L 738 142 Q 698 138 653 132 L 628 129 Q 615 132 573 123 L 554 122 Q 514 121 472 114 L 444 112 Z" style="fill: #0070C0;"></path>
                                    
                                    
                                                                                                                                                                                                                                                                                                                                                                                                                                                                                                                                                                                                                                                                                                                                                                                                                                                                                                                                                                                                                            </g>
                            </svg>