<svg width='83' height='83' >
                                <g transform="translate(3, 70) scale(0.07, -0.07)">
                                    <!-- 先将完整的字以灰色字体绘制完成，层级位于下面 -->
                                                                        <path d="M 121 528 Q 103 464 75 403 Q 57 369 80 339 Q 89 323 108 337 Q 127 355 137 387 Q 153 436 152 477 Q 153 508 143 531 Q 137 538 132 539 Q 125 538 121 528 Z" style="fill: #0070C0;"></path>
                                                                        <path d="M 274 591 Q 281 587 294 581 Q 316 569 342 554 Q 355 547 367 550 Q 376 551 377 564 Q 378 577 365 599 Q 358 612 332 617 Q 278 620 275 617 C 246 609 248 605 274 591 Z" style="fill: #0070C0;"></path>
                                                                        <path d="M 275 617 Q 279 686 294 735 Q 303 751 300 764 Q 293 774 238 809 Q 214 827 193 811 Q 189 807 194 790 Q 225 742 226 695 Q 227 625 228 545 Q 224 406 219 254 Q 215 178 193 109 Q 183 70 207 7 Q 214 -12 222 -15 Q 228 -22 236 -13 Q 263 3 264 69 Q 263 118 274 577 Q 274 584 274 591 L 275 617 Z" style="fill: #0070C0;"></path>
                                                                        <path d="M 578 788 Q 593 773 610 755 Q 623 742 638 743 Q 648 744 653 757 Q 657 770 649 799 Q 639 823 573 834 Q 558 838 552 835 Q 548 831 549 819 Q 552 809 578 788 Z" style="fill: #0070C0;"></path>
                                                                        <path d="M 696 689 Q 712 693 732 696 Q 772 705 778 710 Q 787 717 783 725 Q 776 735 750 743 Q 731 749 620 717 Q 493 699 481 698 Q 447 694 471 677 Q 505 656 574 668 Q 619 677 668 684 L 696 689 Z" style="fill: #0070C0;"></path>
                                                                        <path d="M 494 619 Q 521 559 543 553 Q 553 549 563 564 Q 567 574 563 594 Q 550 624 503 641 Q 496 644 493 634 Q 490 628 494 619 Z" style="fill: #0070C0;"></path>
                                                                        <path d="M 662 548 Q 677 563 704 607 Q 711 619 726 634 Q 739 644 732 653 Q 725 668 700 686 Q 699 687 696 689 C 672 707 659 712 668 684 Q 668 683 670 678 Q 676 659 632 547 Q 631 546 630 543 C 617 516 642 526 662 548 Z" style="fill: #0070C0;"></path>
                                                                        <path d="M 630 543 Q 621 543 616 541 Q 495 523 351 504 Q 332 503 346 487 Q 359 474 375 470 Q 394 466 408 470 Q 601 525 898 525 Q 899 525 901 525 Q 919 525 923 533 Q 927 543 913 555 Q 862 594 804 575 Q 744 565 662 548 L 630 543 Z" style="fill: #0070C0;"></path>
                                                                        <path d="M 453 429 Q 440 433 422 436 Q 412 439 408 434 Q 404 428 411 414 Q 439 357 457 264 Q 461 236 477 218 Q 493 199 498 213 Q 499 220 501 229 L 500 252 Q 499 262 497 274 Q 478 368 473 399 C 469 425 469 425 453 429 Z" style="fill: #0070C0;"></path>
                                                                        <path d="M 704 251 Q 717 229 732 221 Q 742 214 758 234 Q 771 252 801 354 Q 810 384 833 407 Q 846 417 836 432 Q 821 448 781 475 Q 765 484 697 469 Q 684 469 557 446 Q 500 436 453 429 C 423 424 443 394 473 399 Q 477 399 484 400 Q 518 410 567 418 L 615 426 Q 727 447 743 432 Q 753 420 750 408 Q 731 309 721 294 Q 717 284 705 280 C 691 270 691 270 704 251 Z" style="fill: #0070C0;"></path>
                                                                        <path d="M 629 332 Q 657 338 687 341 Q 709 345 701 357 Q 691 370 667 375 Q 652 376 631 372 L 581 359 Q 548 349 519 340 Q 503 336 522 323 Q 525 320 581 324 L 629 332 Z" style="fill: #0070C0;"></path>
                                                                        <path d="M 626 242 Q 666 249 704 251 C 734 253 734 272 705 280 Q 678 289 627 277 L 581 267 Q 538 260 500 252 C 471 246 471 231 501 229 Q 508 228 522 229 Q 552 233 581 236 L 626 242 Z" style="fill: #0070C0;"></path>
                                                                        <path d="M 621 51 Q 621 88 622 121 L 623 166 Q 624 206 626 242 L 627 277 Q 628 305 629 332 L 631 372 Q 631 381 632 387 Q 641 411 615 426 C 591 444 553 444 567 418 Q 570 412 574 405 Q 580 389 581 359 L 581 324 Q 581 303 581 267 L 581 236 Q 581 202 580 156 L 580 114 Q 580 83 580 47 C 580 17 621 21 621 51 Z" style="fill: #0070C0;"></path>
                                                                        <path d="M 622 121 Q 662 130 704 136 Q 737 142 742 146 Q 751 153 746 161 Q 740 171 714 180 Q 692 184 623 166 L 580 156 Q 535 149 485 145 Q 452 141 475 125 Q 514 101 566 112 Q 572 113 580 114 L 622 121 Z" style="fill: #0070C0;"></path>
                                                                        <path d="M 580 47 Q 474 37 353 26 Q 332 25 347 7 Q 360 -8 379 -14 Q 400 -20 416 -16 Q 581 23 846 14 Q 865 14 885 12 Q 904 12 910 20 Q 916 32 900 46 Q 848 88 811 79 Q 739 66 621 51 L 580 47 Z" style="fill: #0070C0;"></path>
                                    
                                    
                                                                                                                                                                                                                                                                                                                                                                                                                                                                                                                                                                                                                                                                                                                                                                                                                                                                                                                                                                                                                                                                                                                                                                                                                                                                </g>
                            </svg>