<svg width='83' height='83' >
                                <g transform="translate(3, 70) scale(0.07, -0.07)">
                                    <!-- 先将完整的字以灰色字体绘制完成，层级位于下面 -->
                                                                        <path d="M 129 468 Q 113 404 85 342 Q 70 309 92 279 Q 101 263 120 277 Q 166 328 161 417 Q 161 448 151 471 Q 145 478 140 479 Q 133 476 129 468 Z" style="fill: #0070C0;"></path>
                                                                        <path d="M 274 551 Q 295 538 342 500 Q 355 490 369 491 Q 378 492 381 504 Q 384 517 374 542 Q 362 572 279 584 Q 276 585 275 584 C 245 585 249 567 274 551 Z" style="fill: #0070C0;"></path>
                                                                        <path d="M 275 584 Q 278 662 294 716 Q 304 731 300 745 Q 293 755 238 789 Q 214 807 193 791 Q 189 785 194 770 Q 227 722 227 645 Q 227 210 207 119 Q 189 44 195 25 Q 210 -36 226 -43 Q 233 -50 240 -41 Q 247 -37 258 -16 Q 268 9 267 41 Q 266 90 274 551 L 275 584 Z" style="fill: #0070C0;"></path>
                                                                        <path d="M 559 715 Q 552 752 548 779 Q 548 798 529 801 Q 486 813 471 805 Q 455 795 471 779 Q 502 749 517 707 L 529 671 Q 533 643 555 626 Q 568 617 571 629 Q 572 641 565 686 L 559 715 Z" style="fill: #0070C0;"></path>
                                                                        <path d="M 565 686 Q 575 692 589 696 Q 602 699 617 708 Q 621 712 620 719 Q 617 723 606 725 Q 585 722 559 715 L 517 707 Q 487 703 457 695 Q 432 694 417 692 Q 407 692 406 688 Q 405 681 411 673 Q 424 661 449 653 Q 465 646 480 652 Q 502 662 529 671 L 565 686 Z" style="fill: #0070C0;"></path>
                                                                        <path d="M 733 747 Q 737 762 766 803 Q 781 816 771 828 Q 761 846 727 865 Q 711 875 693 868 Q 683 864 689 851 Q 704 809 650 664 Q 641 642 642 626 Q 643 613 657 620 Q 672 632 716 712 L 733 747 Z" style="fill: #0070C0;"></path>
                                                                        <path d="M 716 712 Q 717 713 720 712 Q 723 712 794 719 Q 830 722 872 717 Q 884 716 888 724 Q 892 733 881 744 Q 845 777 754 751 Q 744 750 733 747 C 704 740 686 711 716 712 Z" style="fill: #0070C0;"></path>
                                                                        <path d="M 475 567 Q 475 574 471 584 Q 459 602 449 608 Q 431 618 433 596 Q 442 566 394 484 Q 382 463 409 422 Q 427 406 436 427 Q 449 452 456 489 Q 462 520 468 542 L 475 567 Z" style="fill: #0070C0;"></path>
                                                                        <path d="M 468 542 Q 489 532 530 538 Q 632 574 784 589 Q 805 592 814 590 Q 827 586 825 578 Q 798 529 770 477 L 771 476 Q 778 472 794 482 Q 852 522 901 536 Q 940 546 939 558 Q 938 568 875 616 Q 854 637 784 621 Q 711 612 551 580 Q 514 573 475 567 C 445 562 439 550 468 542 Z" style="fill: #0070C0;"></path>
                                                                        <path d="M 505 486 Q 477 480 498 468 Q 525 453 591 466 Q 634 478 680 487 Q 705 494 708 497 Q 715 504 711 511 Q 704 520 681 525 Q 669 528 576 499 Q 545 492 505 486 Z" style="fill: #0070C0;"></path>
                                                                        <path d="M 562 375 Q 712 409 720 417 Q 727 424 723 431 Q 716 440 693 445 Q 669 449 588 419 Q 531 404 470 394 Q 440 388 462 376 Q 487 363 520 365 L 562 375 Z" style="fill: #0070C0;"></path>
                                                                        <path d="M 559 324 Q 565 330 572 334 Q 579 335 579 344 Q 580 351 573 362 Q 569 369 562 375 C 541 396 534 392 520 365 L 520 364 Q 484 304 383 244 Q 376 243 383 238 Q 413 229 488 273 Q 489 274 492 275 Q 510 285 537 306 L 559 324 Z" style="fill: #0070C0;"></path>
                                                                        <path d="M 653 243 Q 650 247 649 250 L 638 265 Q 610 298 559 324 C 533 338 511 322 537 306 Q 546 302 554 295 L 590 264 Q 603 249 615 230 L 633 171 Q 640 129 626 57 Q 619 24 608 19 Q 601 16 539 18 Q 526 22 524 16 Q 523 9 535 -3 Q 578 -43 595 -70 Q 608 -88 623 -84 Q 665 -66 681 41 Q 691 119 681 166 Q 678 176 676 186 L 653 243 Z" style="fill: #0070C0;"></path>
                                                                        <path d="M 554 295 Q 553 294 553 291 Q 546 228 381 129 Q 368 120 380 118 Q 441 111 541 204 Q 566 228 581 251 Q 585 258 590 264 C 608 288 560 324 554 295 Z" style="fill: #0070C0;"></path>
                                                                        <path d="M 615 230 Q 545 116 360 1 Q 347 -9 356 -11 Q 374 -21 449 16 Q 536 59 633 171 C 653 194 631 255 615 230 Z" style="fill: #0070C0;"></path>
                                                                        <path d="M 649 250 Q 739 305 785 326 Q 801 329 799 340 Q 795 355 778 374 Q 762 393 741 396 Q 728 397 726 379 Q 727 366 718 351 Q 690 317 638 265 C 617 244 623 234 649 250 Z" style="fill: #0070C0;"></path>
                                    
                                    
                                                                                                                                                                                                                                                                                                                                                                                                                                                                                                                                                                                                                                                                                                                                                                                                                                                                                                                                                                                                                                                                                                                                                                                                                                                                                                                                            </g>
                            </svg>