<svg width='83' height='83' >
                                <g transform="translate(3, 70) scale(0.07, -0.07)">
                                    <!-- 先将完整的字以灰色字体绘制完成，层级位于下面 -->
                                                                        <path d="M 127 490 Q 108 424 78 365 Q 66 335 81 306 Q 88 291 107 304 Q 155 353 153 442 Q 154 470 147 492 Q 143 499 137 499 Q 130 498 127 490 Z" style="fill: #0070C0;"></path>
                                                                        <path d="M 255 545 Q 327 473 329 472 Q 329 473 332 472 Q 341 471 345 481 Q 349 491 346 515 Q 343 533 318 548 Q 269 573 256 574 C 226 579 234 566 255 545 Z" style="fill: #0070C0;"></path>
                                                                        <path d="M 256 574 Q 259 664 276 725 Q 285 738 282 752 Q 275 761 223 793 Q 201 809 182 795 Q 178 791 183 775 Q 216 726 217 675 Q 218 602 219 518 Q 215 373 210 213 Q 206 134 184 61 Q 174 25 197 -35 Q 204 -51 211 -55 Q 217 -61 224 -53 Q 231 -49 241 -29 Q 251 -7 250 23 Q 249 75 255 545 L 256 574 Z" style="fill: #0070C0;"></path>
                                                                        <path d="M 594 752 Q 658 765 727 776 Q 775 786 782 792 Q 789 799 786 806 Q 780 816 756 823 Q 735 829 652 805 Q 538 780 449 771 Q 418 767 439 752 Q 469 736 544 744 Q 548 745 555 745 L 594 752 Z" style="fill: #0070C0;"></path>
                                                                        <path d="M 550 663 Q 586 702 601 714 Q 614 721 609 731 Q 605 741 594 752 C 573 774 557 775 555 745 Q 555 729 537 686 Q 527 671 525 660 Q 524 660 524 659 C 512 632 530 641 550 663 Z" style="fill: #0070C0;"></path>
                                                                        <path d="M 491 656 Q 481 665 469 669 Q 459 670 452 667 Q 445 663 448 655 Q 460 634 468 552 Q 469 509 477 432 C 480 402 515 409 514 439 Q 513 464 513 485 L 513 506 Q 512 533 512 557 L 512 580 Q 512 604 513 630 C 513 638 513 638 491 656 Z" style="fill: #0070C0;"></path>
                                                                        <path d="M 724 477 Q 736 618 750 634 Q 760 647 750 661 Q 741 671 700 697 Q 690 704 601 676 Q 577 672 550 663 L 524 659 Q 508 658 491 656 C 461 653 484 623 513 630 Q 615 655 656 660 Q 672 663 678 657 Q 681 651 678 469 C 678 439 721 447 724 477 Z" style="fill: #0070C0;"></path>
                                                                        <path d="M 512 557 Q 512 558 515 558 Q 573 570 618 577 Q 636 581 629 590 Q 620 600 600 604 Q 570 607 512 580 C 485 567 483 548 512 557 Z" style="fill: #0070C0;"></path>
                                                                        <path d="M 513 485 Q 516 485 522 486 Q 580 498 622 505 Q 640 509 633 518 Q 624 528 604 532 Q 585 533 513 506 C 485 496 483 483 513 485 Z" style="fill: #0070C0;"></path>
                                                                        <path d="M 387 414 Q 388 421 385 428 Q 376 443 368 448 Q 355 457 355 440 Q 362 412 312 337 Q 300 321 320 286 Q 333 271 342 288 Q 348 297 379 389 L 387 414 Z" style="fill: #0070C0;"></path>
                                                                        <path d="M 379 389 Q 403 377 434 387 Q 518 414 735 452 Q 804 464 822 461 Q 837 457 835 448 Q 835 444 797 372 Q 790 359 795 356 Q 802 353 817 363 Q 869 400 912 414 Q 946 424 946 434 Q 943 444 881 489 Q 865 502 842 501 Q 787 491 724 477 L 678 469 Q 608 459 514 439 L 477 432 Q 431 423 387 414 C 358 408 350 398 379 389 Z" style="fill: #0070C0;"></path>
                                                                        <path d="M 439 357 Q 426 326 406 297 Q 393 276 404 253 Q 408 241 423 249 Q 454 273 456 319 Q 460 341 455 357 Q 451 363 448 363 Q 442 362 439 357 Z" style="fill: #0070C0;"></path>
                                                                        <path d="M 502 327 Q 547 252 645 247 Q 679 243 718 251 Q 745 261 756 278 Q 766 291 742 300 Q 705 321 661 360 Q 658 363 655 361 Q 664 330 676 297 Q 672 293 641 290 Q 575 286 515 335 Q 503 347 499 341 Q 496 337 502 327 Z" style="fill: #0070C0;"></path>
                                                                        <path d="M 559 361 Q 593 330 610 325 Q 620 324 625 332 Q 628 341 625 351 Q 621 366 608 373 Q 566 394 548 385 Q 544 384 547 377 Q 548 370 559 361 Z" style="fill: #0070C0;"></path>
                                                                        <path d="M 699 386 Q 747 347 755 347 Q 762 347 766 356 Q 769 366 762 387 Q 755 406 695 418 Q 685 419 680 418 Q 676 415 678 407 Q 681 400 699 386 Z" style="fill: #0070C0;"></path>
                                                                        <path d="M 554 194 Q 555 197 558 198 Q 565 208 563 217 Q 560 229 536 234 Q 511 241 500 238 Q 493 237 492 224 Q 480 149 331 11 Q 315 -4 338 1 Q 407 16 509 138 L 523 156 Q 530 166 537 174 L 554 194 Z" style="fill: #0070C0;"></path>
                                                                        <path d="M 607 52 Q 537 -2 394 -33 Q 381 -34 387 -42 Q 393 -48 417 -49 Q 504 -42 554 -26 Q 602 -8 639 26 L 672 62 Q 693 92 710 130 Q 720 158 738 170 Q 751 180 739 194 Q 724 210 698 224 Q 682 231 663 225 Q 621 203 563 195 Q 559 195 554 194 C 524 190 508 183 537 174 L 538 174 Q 560 162 593 172 L 655 186 Q 667 190 669 177 Q 669 135 634 83 L 607 52 Z" style="fill: #0070C0;"></path>
                                                                        <path d="M 639 26 Q 745 -61 778 -68 Q 836 -75 938 -43 Q 956 -39 957 -33 Q 958 -26 943 -23 Q 750 26 725 37 Q 722 40 672 62 L 634 83 Q 550 137 523 156 C 498 173 487 158 509 138 Q 557 95 607 52 L 639 26 Z" style="fill: #0070C0;"></path>
                                    
                                    
                                                                                                                                                                                                                                                                                                                                                                                                                                                                                                                                                                                                                                                                                                                                                                                                                                                                                                                                                                                                                                                                                                                                                                                                                                                                                                                                                                                                                                                                                                    </g>
                            </svg>