<svg width='83' height='83' >
                                <g transform="translate(3, 70) scale(0.07, -0.07)">
                                    <!-- 先将完整的字以灰色字体绘制完成，层级位于下面 -->
                                                                        <path d="M 706 537 Q 727 540 842 551 Q 858 552 861 560 Q 865 570 850 580 Q 802 610 744 589 Q 725 585 703 577 L 662 566 Q 614 557 552 539 L 512 530 Q 460 520 404 507 Q 388 504 401 491 Q 428 470 460 480 Q 565 519 665 531 L 706 537 Z" style="fill: #0070C0;"></path>
                                                                        <path d="M 441 427 Q 432 430 417 431 Q 408 432 406 428 Q 402 424 409 412 Q 428 382 442 332 Q 446 317 455 308 Q 470 292 473 304 Q 474 310 474 319 L 470 344 Q 460 393 459 407 C 457 422 457 422 441 427 Z" style="fill: #0070C0;"></path>
                                                                        <path d="M 597 363 Q 610 400 624 412 Q 642 431 624 443 Q 573 470 572 470 Q 565 471 558 466 Q 522 444 441 427 C 412 421 430 400 459 407 L 538 426 Q 559 432 564 423 Q 567 420 556 368 C 550 339 587 335 597 363 Z" style="fill: #0070C0;"></path>
                                                                        <path d="M 474 319 Q 481 318 490 320 Q 526 330 604 339 Q 611 340 613 348 Q 613 352 597 363 L 556 368 Q 552 368 550 367 Q 507 354 470 344 C 441 336 444 321 474 319 Z" style="fill: #0070C0;"></path>
                                                                        <path d="M 541 250 Q 566 257 594 263 Q 616 269 620 272 Q 626 278 622 284 Q 618 291 597 296 Q 575 300 555 291 Q 530 281 502 274 Q 472 267 436 262 Q 411 258 430 246 Q 460 230 498 241 L 541 250 Z" style="fill: #0070C0;"></path>
                                                                        <path d="M 541 170 Q 547 173 605 181 Q 612 180 618 189 Q 619 198 602 204 Q 578 219 541 205 L 498 193 Q 494 193 422 181 Q 403 177 418 166 Q 427 159 437 154 L 498 162 L 541 170 Z" style="fill: #0070C0;"></path>
                                                                        <path d="M 541 120 L 541 170 L 541 205 L 541 250 C 541 280 498 271 498 241 L 498 193 L 498 162 L 498 109 C 498 79 541 90 541 120 Z" style="fill: #0070C0;"></path>
                                                                        <path d="M 498 109 Q 443 99 383 85 Q 367 81 340 84 Q 328 83 326 74 Q 325 64 332 56 Q 351 40 378 22 Q 387 19 397 26 Q 434 51 580 102 Q 601 109 617 121 Q 629 127 629 135 Q 625 139 541 120 L 498 109 Z" style="fill: #0070C0;"></path>
                                                                        <path d="M 753 145 Q 802 36 870 -32 Q 933 -84 964 -83 Q 986 -79 978 -49 Q 968 -7 957 115 Q 956 139 946 139 Q 940 139 917 67 Q 905 36 885 50 Q 875 57 861 70 Q 818 124 784 192 L 759 254 Q 725 357 706 537 L 703 577 Q 694 700 714 792 Q 730 832 676 857 Q 642 875 622 869 Q 601 865 609 844 Q 652 799 650 765 Q 654 656 662 566 L 665 531 Q 683 345 731 203 L 753 145 Z" style="fill: #0070C0;"></path>
                                                                        <path d="M 731 203 Q 674 115 555 6 Q 548 -1 554 -5 Q 561 -6 573 -1 Q 642 33 697 86 Q 728 114 753 145 L 784 192 Q 838 300 857 362 Q 867 393 883 422 Q 890 432 883 443 Q 876 453 844 468 Q 822 478 812 476 Q 799 472 801 456 Q 814 368 759 254 L 731 203 Z" style="fill: #0070C0;"></path>
                                                                        <path d="M 782 711 Q 803 690 825 665 Q 838 652 855 651 Q 867 651 873 665 Q 877 680 870 712 Q 866 730 838 743 Q 769 768 756 763 Q 750 759 752 746 Q 755 734 782 711 Z" style="fill: #0070C0;"></path>
                                    
                                    
                                                                                                                                                                                                                                                                                                                                                                                                                                                                                                                                                                                                                                                                                                                                                                                                                                                                                                                                                </g>
                            </svg>