<svg width='83' height='83' >
                                <g transform="translate(3, 70) scale(0.07, -0.07)">
                                    <!-- 先将完整的字以灰色字体绘制完成，层级位于下面 -->
                                                                        <path d="M 414 666 Q 429 670 447 672 Q 484 679 490 685 Q 499 692 495 700 Q 488 712 460 720 Q 436 726 349 702 Q 280 686 202 679 Q 166 675 191 658 Q 219 639 259 641 L 301 646 Q 338 653 379 660 L 414 666 Z" style="fill: #0070C0;"></path>
                                                                        <path d="M 259 641 Q 266 623 274 520 Q 274 484 278 430 C 280 400 315 407 315 437 Q 316 525 317 593 Q 321 629 316 635 Q 309 642 301 646 C 275 661 251 670 259 641 Z" style="fill: #0070C0;"></path>
                                                                        <path d="M 421 456 Q 433 612 437 622 Q 446 643 414 666 C 390 684 371 689 379 660 Q 388 638 385 505 Q 384 481 383 449 C 382 419 419 426 421 456 Z" style="fill: #0070C0;"></path>
                                                                        <path d="M 147 550 Q 184 481 206 476 Q 218 473 227 489 Q 230 499 225 520 Q 219 536 199 548 Q 169 569 156 573 Q 147 577 145 566 Q 142 559 147 550 Z" style="fill: #0070C0;"></path>
                                                                        <path d="M 488 592 Q 476 567 450 527 Q 446 520 451 515 Q 458 514 464 519 Q 522 562 551 580 Q 566 584 562 594 Q 555 607 538 621 Q 520 636 501 636 Q 489 635 491 618 Q 494 606 488 592 Z" style="fill: #0070C0;"></path>
                                                                        <path d="M 278 430 Q 137 412 106 410 Q 93 409 90 401 Q 87 391 101 379 Q 140 349 181 362 Q 329 405 500 424 Q 516 425 517 433 Q 518 446 501 455 Q 470 470 421 456 L 383 449 Q 346 443 315 437 L 278 430 Z" style="fill: #0070C0;"></path>
                                                                        <path d="M 268 317 Q 267 318 266 319 Q 247 334 224 340 Q 217 341 211 335 Q 208 331 215 321 Q 245 210 219 112 Q 210 103 215 72 L 216 70 Q 225 42 235 31 Q 245 19 252 31 Q 262 44 266 66 L 271 101 Q 272 114 273 173 L 274 203 Q 274 269 277 291 C 279 308 279 308 268 317 Z" style="fill: #0070C0;"></path>
                                                                        <path d="M 411 77 Q 447 17 452 16 Q 462 16 470 37 Q 483 76 479 183 Q 475 282 482 305 Q 489 324 479 333 Q 472 343 438 357 Q 423 364 389 352 Q 359 340 326 331 Q 301 324 268 317 C 239 311 248 284 277 291 Q 382 318 395 319 Q 411 322 417 315 Q 427 305 424 175 Q 425 129 420 119 Q 416 110 404 112 L 403 112 C 391 109 395 103 411 77 Z" style="fill: #0070C0;"></path>
                                                                        <path d="M 273 173 Q 339 188 389 196 Q 411 202 401 213 Q 391 226 366 229 Q 326 232 274 203 C 248 189 244 166 273 173 Z" style="fill: #0070C0;"></path>
                                                                        <path d="M 266 66 Q 272 65 283 67 Q 323 74 411 77 C 441 78 426 93 403 112 Q 402 113 398 116 Q 383 125 271 101 C 242 95 236 68 266 66 Z" style="fill: #0070C0;"></path>
                                                                        <path d="M 670 473 Q 802 525 807 529 Q 814 538 809 545 Q 800 555 771 558 Q 744 559 663 517 L 621 501 Q 584 489 543 478 Q 509 466 537 454 Q 579 439 629 457 L 670 473 Z" style="fill: #0070C0;"></path>
                                                                        <path d="M 682 249 Q 736 86 841 -8 Q 902 -54 932 -52 Q 951 -46 944 -19 Q 937 23 932 145 Q 931 166 923 166 Q 917 166 887 91 Q 871 58 849 71 Q 839 77 828 87 Q 761 162 717 274 L 703 320 Q 690 371 670 473 L 663 517 Q 645 646 660 740 Q 673 782 616 805 Q 580 821 559 814 Q 538 807 548 787 Q 594 744 595 709 Q 607 594 621 501 L 629 457 Q 638 400 668 290 L 682 249 Z" style="fill: #0070C0;"></path>
                                                                        <path d="M 668 290 Q 598 241 523 198 Q 516 195 524 191 Q 570 185 682 249 L 717 274 Q 760 305 831 371 Q 855 395 856 397 Q 856 406 847 419 Q 825 455 793 455 Q 786 455 784 443 Q 784 401 720 337 Q 711 330 703 320 L 668 290 Z" style="fill: #0070C0;"></path>
                                                                        <path d="M 745 696 Q 773 672 802 643 Q 815 631 830 631 Q 840 632 845 645 Q 849 658 841 687 Q 832 718 741 742 Q 726 746 720 743 Q 716 739 716 727 Q 720 717 745 696 Z" style="fill: #0070C0;"></path>
                                    
                                    
                                                                                                                                                                                                                                                                                                                                                                                                                                                                                                                                                                                                                                                                                                                                                                                                                                                                                                                                                                                                                                                                                                                                                                                    </g>
                            </svg>