<svg width='83' height='83' >
                                <g transform="translate(3, 70) scale(0.07, -0.07)">
                                    <!-- 先将完整的字以灰色字体绘制完成，层级位于下面 -->
                                                                        <path d="M 496 784 Q 529 760 563 730 Q 579 717 599 718 Q 612 719 616 736 Q 620 755 607 789 Q 592 825 486 840 Q 467 844 460 840 Q 454 834 457 819 Q 463 806 496 784 Z" style="fill: #0070C0;"></path>
                                                                        <path d="M 713 451 Q 750 547 786 568 Q 808 590 790 612 Q 700 682 639 652 Q 543 613 382 583 C 353 577 359 542 389 547 Q 404 548 419 554 Q 528 579 633 604 Q 661 611 672 601 Q 682 591 678 568 Q 663 505 645 455 C 635 427 702 423 713 451 Z" style="fill: #0070C0;"></path>
                                                                        <path d="M 367 364 Q 368 364 371 363 Q 383 359 398 363 Q 501 388 726 413 Q 739 414 740 425 Q 740 432 713 451 C 692 466 674 462 645 455 Q 492 418 371 399 C 341 394 338 371 367 364 Z" style="fill: #0070C0;"></path>
                                                                        <path d="M 382 583 Q 381 586 376 588 Q 324 616 306 615 Q 284 612 301 587 Q 331 529 305 323 Q 295 238 248 140 Q 215 71 110 -26 Q 94 -39 89 -46 Q 88 -53 100 -54 Q 148 -54 229 27 Q 278 76 307 133 Q 335 193 352 277 Q 359 317 367 364 L 371 399 Q 378 454 383 519 Q 387 535 389 547 C 395 575 395 575 382 583 Z" style="fill: #0070C0;"></path>
                                    
                                    
                                                                                                                                                                                                                                                                                                                                                                                            </g>
                            </svg>