<svg width='83' height='83' >
                                <g transform="translate(3, 70) scale(0.07, -0.07)">
                                    <!-- 先将完整的字以灰色字体绘制完成，层级位于下面 -->
                                                                        <path d="M 463 806 Q 514 755 548 743 Q 566 742 574 756 Q 580 771 576 790 Q 557 838 474 850 Q 455 854 445 849 Q 438 848 442 834 Q 445 821 463 806 Z" style="fill: #0070C0;"></path>
                                                                        <path d="M 690 582 Q 715 637 746 656 Q 765 675 749 695 Q 733 710 677 738 Q 658 747 634 738 Q 529 696 359 670 C 329 665 345 627 374 634 Q 389 638 609 683 Q 636 690 647 679 Q 654 672 652 657 Q 645 624 636 595 C 627 566 677 555 690 582 Z" style="fill: #0070C0;"></path>
                                                                        <path d="M 346 516 Q 362 503 386 507 Q 483 531 695 552 Q 705 553 708 562 Q 708 569 690 582 C 666 601 665 601 636 595 Q 630 595 626 593 Q 473 556 352 541 Q 351 541 350 540 C 321 534 320 532 346 516 Z" style="fill: #0070C0;"></path>
                                                                        <path d="M 359 670 Q 346 682 326 692 Q 307 705 293 701 Q 280 694 286 680 Q 302 649 295 583 Q 262 394 236 317 Q 229 296 220 276 Q 181 188 89 63 Q 83 57 81 51 Q 77 39 89 41 Q 128 47 212 163 Q 225 185 241 209 Q 313 339 346 516 L 350 540 Q 354 568 360 592 Q 366 617 374 634 C 381 653 381 653 359 670 Z" style="fill: #0070C0;"></path>
                                                                        <path d="M 550 326 Q 628 341 781 340 Q 800 341 803 349 Q 807 359 793 371 Q 739 410 677 389 Q 625 380 554 365 L 491 354 Q 421 344 343 332 Q 324 331 338 315 Q 351 303 367 298 Q 386 294 400 298 Q 440 310 486 318 L 550 326 Z" style="fill: #0070C0;"></path>
                                                                        <path d="M 554 365 Q 563 419 570 434 Q 577 441 571 452 Q 565 459 535 471 Q 501 487 486 482 Q 473 476 484 459 Q 499 420 491 354 L 486 318 Q 462 204 390 147 Q 356 116 264 70 Q 239 57 269 57 Q 287 56 323 68 Q 369 78 407 101 Q 444 120 472 158 Q 517 212 539 299 L 554 365 Z" style="fill: #0070C0;"></path>
                                                                        <path d="M 539 299 Q 615 181 714 55 Q 733 33 765 34 Q 874 35 908 42 Q 918 43 920 49 Q 921 55 907 62 Q 745 134 665 210 Q 610 262 550 326 C 529 348 518 331 539 299 Z" style="fill: #0070C0;"></path>
                                                                        <path d="M 663 475 Q 690 457 718 435 Q 731 425 745 427 Q 754 428 757 440 Q 760 453 749 478 Q 737 505 654 516 Q 641 517 636 515 Q 632 511 634 500 Q 638 490 663 475 Z" style="fill: #0070C0;"></path>
                                    
                                    
                                                                                                                                                                                                                                                                                                                                                                                                                                                                                                                                                                                                                                                                                                            </g>
                            </svg>