<svg width='83' height='83' >
                                <g transform="translate(3, 70) scale(0.07, -0.07)">
                                    <!-- 先将完整的字以灰色字体绘制完成，层级位于下面 -->
                                                                        <path d="M 268 652 Q 442 724 444 725 Q 468 731 461 752 Q 451 771 427 793 Q 405 812 392 812 Q 379 813 380 798 Q 377 768 301 710 Q 277 694 254 675 C 231 656 240 641 268 652 Z" style="fill: #0070C0;"></path>
                                                                        <path d="M 257 533 Q 257 539 258 544 Q 261 619 265 639 Q 268 646 268 652 C 271 665 271 665 254 675 Q 203 708 184 698 Q 172 691 180 677 Q 201 653 201 585 Q 201 398 174 294 Q 144 189 81 79 Q 77 72 75 66 Q 74 56 83 58 Q 99 61 131 109 Q 195 188 233 339 L 239 369 Q 248 397 256 506 L 257 533 Z" style="fill: #0070C0;"></path>
                                                                        <path d="M 424 399 Q 443 489 469 516 Q 491 541 467 555 Q 406 588 398 586 Q 391 586 384 581 Q 344 553 257 533 C 228 526 226 506 256 506 Q 271 505 292 511 Q 331 523 365 531 Q 387 537 393 527 Q 399 521 376 407 C 370 378 418 370 424 399 Z" style="fill: #0070C0;"></path>
                                                                        <path d="M 233 339 Q 246 336 264 338 Q 316 354 434 369 Q 444 370 445 380 Q 445 387 424 399 C 401 413 401 413 376 407 Q 370 406 366 404 Q 296 382 239 369 C 210 362 203 344 233 339 Z" style="fill: #0070C0;"></path>
                                                                        <path d="M 596 672 Q 615 679 644 688 Q 698 706 738 726 Q 784 747 823 756 Q 841 757 844 766 Q 848 776 835 788 Q 813 804 766 819 Q 750 826 736 824 Q 729 820 729 809 Q 729 775 583 693 C 557 678 568 662 596 672 Z" style="fill: #0070C0;"></path>
                                                                        <path d="M 585 534 Q 586 603 595 665 Q 596 669 596 672 C 598 686 598 686 583 693 Q 582 694 579 695 Q 530 719 514 716 Q 495 712 511 690 Q 542 639 525 431 Q 516 371 487 299 Q 457 224 375 148 Q 362 135 358 128 Q 357 121 368 122 Q 407 122 477 198 Q 561 294 583 505 L 585 534 Z" style="fill: #0070C0;"></path>
                                                                        <path d="M 755 522 Q 819 534 926 534 Q 945 535 949 543 Q 953 555 937 567 Q 883 603 826 584 Q 721 562 585 534 C 556 528 555 515 583 505 Q 607 493 653 505 Q 669 511 693 513 L 755 522 Z" style="fill: #0070C0;"></path>
                                                                        <path d="M 714 -31 Q 720 -56 726 -65 Q 732 -72 739 -70 Q 757 -58 760 -3 Q 767 66 767 133 Q 764 191 770 413 Q 770 453 780 487 Q 783 505 769 514 Q 762 520 755 522 C 729 537 679 540 693 513 Q 711 482 714 449 Q 715 325 711 131 Q 710 10 714 -31 Z" style="fill: #0070C0;"></path>
                                    
                                    
                                                                                                                                                                                                                                                                                                                                                                                                                                                                                                                                                                                                                                                                                                            </g>
                            </svg>