<svg width='83' height='83' >
                                <g transform="translate(3, 70) scale(0.07, -0.07)">
                                    <!-- 先将完整的字以灰色字体绘制完成，层级位于下面 -->
                                                                        <path d="M 488 778 Q 518 760 550 738 Q 566 728 583 731 Q 593 732 597 748 Q 598 764 584 793 Q 569 821 474 826 Q 458 827 451 823 Q 447 819 451 805 Q 457 795 488 778 Z" style="fill: #0070C0;"></path>
                                                                        <path d="M 673 549 Q 698 612 730 631 Q 746 650 732 669 Q 716 682 662 709 Q 643 716 621 708 Q 528 671 373 645 C 343 640 348 607 378 611 Q 393 611 600 655 Q 624 662 634 652 Q 641 645 639 630 Q 632 590 622 557 C 614 528 661 521 673 549 Z" style="fill: #0070C0;"></path>
                                                                        <path d="M 347 472 Q 362 463 383 468 Q 477 492 683 515 Q 695 516 696 526 Q 696 533 673 549 L 622 557 Q 618 558 614 556 Q 469 519 353 501 C 323 496 319 484 347 472 Z" style="fill: #0070C0;"></path>
                                                                        <path d="M 312 347 Q 313 348 314 350 Q 333 411 347 472 L 353 501 Q 354 508 356 515 Q 368 590 378 611 C 386 634 386 634 373 645 Q 358 660 335 672 Q 316 685 303 681 Q 290 675 296 660 Q 311 627 304 570 Q 273 384 248 318 Q 241 299 233 280 Q 191 186 109 78 Q 103 72 101 66 Q 97 56 108 57 Q 123 57 164 101 Q 233 161 291 292 L 312 347 Z" style="fill: #0070C0;"></path>
                                                                        <path d="M 327 336 Q 320 342 312 347 C 287 364 285 321 291 292 Q 306 228 287 76 Q 275 31 320 -3 Q 333 -13 337 -2 Q 344 2 347 24 Q 353 45 349 117 Q 346 243 350 290 C 352 317 351 318 327 336 Z" style="fill: #0070C0;"></path>
                                                                        <path d="M 350 290 Q 357 291 365 295 Q 494 346 716 366 Q 737 366 747 355 Q 756 348 752 331 Q 753 96 737 63 Q 733 53 721 56 Q 690 60 657 67 Q 627 70 648 51 Q 720 -3 749 -43 Q 764 -59 779 -46 Q 798 -25 807 7 Q 819 41 814 228 Q 811 298 831 333 Q 847 355 840 364 Q 830 377 774 412 Q 753 427 737 420 Q 706 407 648 395 Q 467 370 400 352 Q 360 342 327 336 C 298 330 322 280 350 290 Z" style="fill: #0070C0;"></path>
                                                                        <path d="M 452 242 Q 442 246 415 252 Q 403 256 401 251 Q 395 245 402 231 Q 424 185 438 109 Q 441 87 454 71 Q 469 50 474 65 Q 478 75 478 92 L 474 123 Q 465 190 463 214 C 461 239 461 239 452 242 Z" style="fill: #0070C0;"></path>
                                                                        <path d="M 622 145 Q 638 203 656 220 Q 678 245 656 259 Q 593 292 590 292 Q 580 292 572 286 Q 535 259 452 242 C 423 236 434 208 463 214 Q 470 215 480 218 Q 519 228 552 236 Q 574 240 580 232 Q 586 228 581 201 Q 577 176 570 145 C 564 116 614 116 622 145 Z" style="fill: #0070C0;"></path>
                                                                        <path d="M 478 92 Q 484 92 492 93 Q 538 103 637 112 Q 647 113 648 121 Q 648 128 622 145 C 608 154 599 152 570 145 Q 518 132 474 123 C 445 117 448 91 478 92 Z" style="fill: #0070C0;"></path>
                                    
                                    
                                                                                                                                                                                                                                                                                                                                                                                                                                                                                                                                                                                                                                                                                                                                                                                        </g>
                            </svg>