<svg width='83' height='83' >
                                <g transform="translate(3, 70) scale(0.07, -0.07)">
                                    <!-- 先将完整的字以灰色字体绘制完成，层级位于下面 -->
                                                                        <path d="M 592 544 Q 679 550 848 550 Q 870 550 876 560 Q 882 573 863 588 Q 797 636 724 613 Q 666 604 591 589 L 537 580 Q 519 579 502 575 Q 355 556 182 533 Q 158 530 176 511 Q 210 480 253 489 Q 383 525 504 535 L 592 544 Z" style="fill: #0070C0;"></path>
                                                                        <path d="M 539 471 Q 540 341 545 136 Q 545 114 533 104 Q 523 95 496 102 Q 465 108 436 113 Q 399 123 403 112 Q 404 105 428 90 Q 507 39 528 8 Q 553 -29 571 -28 Q 587 -28 601 10 Q 617 59 612 138 Q 593 340 592 544 L 591 589 Q 591 688 607 746 Q 625 779 564 802 Q 527 821 507 812 Q 488 805 506 781 Q 530 753 532 715 Q 533 699 537 580 L 539 471 Z" style="fill: #0070C0;"></path>
                                                                        <path d="M 504 535 Q 426 384 249 235 Q 203 199 136 149 Q 121 136 133 133 Q 161 121 270 191 Q 378 258 539 471 C 596 546 526 577 504 535 Z" style="fill: #0070C0;"></path>
                                    
                                    
                                                                                                                                                                                                                                                                                                                </g>
                            </svg>