<svg width='83' height='83' >
                                <g transform="translate(3, 70) scale(0.07, -0.07)">
                                    <!-- 先将完整的字以灰色字体绘制完成，层级位于下面 -->
                                                                        <path d="M 333 545 Q 411 575 414 577 Q 421 586 416 593 Q 409 603 379 607 Q 355 610 335 601 L 287 579 Q 209 549 141 533 Q 107 523 133 510 Q 170 494 236 514 Q 260 523 287 530 L 333 545 Z" style="fill: #0070C0;"></path>
                                                                        <path d="M 285 356 Q 284 256 283 123 Q 282 99 270 91 Q 264 87 188 100 Q 157 110 159 101 Q 160 94 180 80 Q 246 34 264 5 Q 283 -26 300 -28 Q 313 -28 327 5 Q 343 48 340 119 Q 331 255 331 392 L 331 425 Q 330 486 333 545 L 335 601 Q 335 602 336 603 Q 340 687 353 731 Q 369 759 316 781 Q 285 799 265 792 Q 249 786 264 764 Q 283 739 286 706 Q 287 691 287 579 L 287 530 Q 286 473 285 397 L 285 356 Z" style="fill: #0070C0;"></path>
                                                                        <path d="M 285 397 Q 197 346 120 297 Q 86 278 65 271 Q 52 265 51 258 Q 50 249 64 236 Q 83 221 105 214 Q 120 210 130 222 Q 205 297 285 356 L 331 392 Q 352 410 374 424 Q 395 437 405 452 Q 411 465 400 464 Q 397 464 331 425 L 285 397 Z" style="fill: #0070C0;"></path>
                                                                        <path d="M 651 639 Q 738 690 789 704 Q 807 707 810 715 Q 813 727 800 737 Q 733 776 700 768 Q 693 764 693 752 Q 694 707 464 576 Q 460 566 466 564 Q 485 564 587 610 Q 594 614 605 617 L 651 639 Z" style="fill: #0070C0;"></path>
                                                                        <path d="M 683 411 Q 768 424 890 428 Q 950 428 957 439 Q 961 452 944 465 Q 884 505 823 485 Q 765 473 683 454 L 631 444 Q 525 425 400 404 Q 378 400 395 383 Q 431 353 468 366 Q 544 390 631 403 L 683 411 Z" style="fill: #0070C0;"></path>
                                                                        <path d="M 637 -22 Q 643 -47 650 -57 Q 656 -64 663 -62 Q 678 -53 684 8 Q 691 90 688 170 Q 684 225 683 411 L 683 454 Q 683 523 694 594 Q 697 612 682 622 Q 663 634 651 639 C 624 653 592 644 605 617 Q 627 577 629 525 Q 629 488 631 444 L 631 403 Q 632 300 631 169 Q 631 27 637 -22 Z" style="fill: #0070C0;"></path>
                                    
                                    
                                                                                                                                                                                                                                                                                                                                                                                                                                                                                                                                                    </g>
                            </svg>