<svg width='83' height='83' >
                                <g transform="translate(3, 70) scale(0.07, -0.07)">
                                    <!-- 先将完整的字以灰色字体绘制完成，层级位于下面 -->
                                                                        <path d="M 357 566 Q 427 587 433 593 Q 440 600 436 609 Q 429 619 399 625 Q 380 628 360 622 L 311 602 Q 230 572 142 557 Q 108 548 134 534 Q 180 513 229 530 Q 268 542 310 553 L 357 566 Z" style="fill: #0070C0;"></path>
                                                                        <path d="M 305 372 Q 301 275 300 147 Q 299 125 286 115 Q 276 108 248 118 Q 217 127 188 135 Q 157 147 159 137 Q 160 130 180 116 Q 253 64 273 33 Q 297 -4 314 -4 Q 327 -5 342 28 Q 358 71 358 142 Q 351 275 352 407 L 353 437 Q 353 501 357 566 L 360 622 Q 360 697 380 762 Q 396 790 344 813 Q 313 832 293 825 Q 277 819 291 797 Q 312 772 312 738 Q 313 722 311 602 L 310 553 Q 309 493 306 411 L 305 372 Z" style="fill: #0070C0;"></path>
                                                                        <path d="M 306 411 Q 74 284 67 280 Q 49 280 46 264 Q 45 254 59 240 Q 78 224 102 216 Q 118 212 128 224 Q 197 293 305 372 L 352 407 Q 358 413 366 417 Q 387 430 396 444 Q 403 457 392 457 Q 367 451 353 437 L 306 411 Z" style="fill: #0070C0;"></path>
                                                                        <path d="M 737 91 Q 721 70 705 73 Q 678 80 640 89 Q 624 93 623 90 Q 623 86 640 70 Q 674 36 692 -4 Q 702 -20 712 -24 Q 719 -27 739 -11 Q 796 35 833 111 Q 872 192 912 415 Q 918 440 931 453 Q 944 463 931 480 Q 916 495 887 513 Q 865 526 791 507 Q 787 507 784 506 Q 675 482 596 472 Q 584 463 578 474 Q 578 490 666 617 Q 711 677 731 684 Q 744 691 744 698 Q 745 705 739 710 Q 717 731 688 741 Q 669 750 638 735 Q 527 696 454 695 Q 439 695 436 690 Q 435 686 440 677 Q 447 667 462 658 Q 474 649 529 663 Q 655 700 659 690 Q 659 666 572 532 Q 568 529 566 524 Q 547 496 520 470 Q 501 458 516 422 Q 519 412 546 422 Q 553 425 563 427 L 597 436 Q 631 448 680 457 L 728 465 Q 791 478 824 478 Q 845 477 847 467 Q 865 374 799 198 Q 765 123 737 91 Z" style="fill: #0070C0;"></path>
                                                                        <path d="M 563 427 Q 569 355 428 206 Q 418 200 417 191 Q 416 187 421 187 Q 496 203 595 354 Q 608 376 618 387 Q 624 396 618 408 Q 608 427 597 436 C 576 457 563 457 563 427 Z" style="fill: #0070C0;"></path>
                                                                        <path d="M 680 457 Q 707 325 452 55 Q 445 49 455 48 Q 512 57 624 193 Q 697 310 737 384 Q 744 405 758 421 Q 765 427 762 436 Q 755 457 728 465 C 700 477 676 487 680 457 Z" style="fill: #0070C0;"></path>
                                    
                                    
                                                                                                                                                                                                                                                                                                                                                                                                                                                                                                                                                    </g>
                            </svg>