<svg width='83' height='83' >
                                <g transform="translate(3, 70) scale(0.07, -0.07)">
                                    <!-- 先将完整的字以灰色字体绘制完成，层级位于下面 -->
                                                                        <path d="M 337 519 Q 433 547 436 549 Q 446 559 440 567 Q 431 580 400 586 Q 369 592 340 579 L 287 560 Q 172 530 129 524 Q 90 517 119 499 Q 161 478 236 495 Q 260 501 285 506 L 337 519 Z" style="fill: #0070C0;"></path>
                                                                        <path d="M 336 81 Q 337 93 338 104 Q 332 225 333 345 L 333 380 Q 333 450 337 519 L 340 579 Q 355 718 363 742 Q 381 773 324 797 Q 290 816 269 810 Q 251 804 267 780 Q 289 752 289 716 Q 290 698 287 560 L 285 506 Q 284 442 280 355 L 279 312 Q 276 222 273 111 Q 272 87 258 78 Q 251 75 190 92 Q 157 108 158 96 Q 159 89 179 72 Q 237 15 252 -15 Q 268 -51 283 -53 Q 298 -54 315 -20 Q 330 14 335 66 L 336 81 Z" style="fill: #0070C0;"></path>
                                                                        <path d="M 333 345 Q 360 364 388 379 Q 412 389 424 404 Q 431 417 420 417 Q 408 417 333 380 L 280 355 Q 39 247 38 244 Q 37 244 37 242 Q 36 233 48 218 Q 66 200 88 190 Q 103 186 118 199 Q 167 241 279 312 L 333 345 Z" style="fill: #0070C0;"></path>
                                                                        <path d="M 566 609 Q 662 639 725 674 Q 768 695 804 704 Q 820 705 824 713 Q 827 723 814 734 Q 757 770 723 766 Q 716 762 716 751 Q 717 720 554 625 C 528 610 537 600 566 609 Z" style="fill: #0070C0;"></path>
                                                                        <path d="M 553 440 Q 557 498 560 567 Q 566 592 566 609 C 567 618 567 618 554 625 Q 553 626 550 628 Q 504 650 488 648 Q 469 645 484 623 Q 523 563 494 358 Q 485 303 458 239 Q 434 179 336 81 C 320 64 320 64 335 66 Q 335 65 340 65 Q 379 68 448 140 Q 520 218 542 357 L 545 374 Q 546 393 550 414 L 553 440 Z" style="fill: #0070C0;"></path>
                                                                        <path d="M 651 209 Q 581 115 463 73 Q 450 66 462 60 Q 468 53 510 57 Q 603 67 681 162 L 713 207 Q 755 285 792 406 Q 802 437 821 459 Q 840 478 824 491 Q 809 503 774 511 Q 753 515 683 481 Q 578 447 553 440 C 524 431 520 418 550 414 Q 590 404 640 424 Q 695 451 705 451 Q 730 452 729 424 Q 711 321 675 249 L 651 209 Z" style="fill: #0070C0;"></path>
                                                                        <path d="M 542 357 Q 579 329 651 209 L 681 162 Q 718 108 778 40 Q 805 13 849 17 Q 907 20 950 22 Q 963 22 976 27 Q 985 33 974 43 Q 959 53 844 106 Q 786 134 713 207 L 675 249 Q 642 289 607 341 Q 591 366 559 374 Q 550 378 545 374 C 522 375 522 375 542 357 Z" style="fill: #0070C0;"></path>
                                    
                                    
                                                                                                                                                                                                                                                                                                                                                                                                                                                                                                                                                                                                                                </g>
                            </svg>