<svg width='83' height='83' >
                                <g transform="translate(3, 70) scale(0.07, -0.07)">
                                    <!-- 先将完整的字以灰色字体绘制完成，层级位于下面 -->
                                                                        <path d="M 346 524 Q 370 533 396 539 Q 432 549 437 555 Q 446 564 440 572 Q 433 584 402 589 Q 374 593 347 581 L 297 560 Q 188 530 151 523 Q 114 514 142 499 Q 181 481 252 498 Q 273 504 297 510 L 346 524 Z" style="fill: #0070C0;"></path>
                                                                        <path d="M 295 316 Q 294 234 293 131 Q 292 107 279 98 Q 272 92 251 99 Q 227 105 205 110 Q 172 123 175 113 Q 176 106 196 90 Q 257 38 274 9 Q 292 -25 308 -27 Q 321 -28 337 7 Q 356 52 354 126 Q 347 241 345 355 L 345 390 Q 344 457 346 524 L 347 581 Q 359 725 366 745 Q 384 775 328 797 Q 294 816 275 809 Q 257 802 273 779 Q 295 752 296 718 Q 297 702 297 560 L 297 510 Q 296 446 295 360 L 295 316 Z" style="fill: #0070C0;"></path>
                                                                        <path d="M 295 360 Q 211 312 138 265 Q 104 244 80 237 Q 67 231 65 223 Q 64 214 79 200 Q 98 184 122 177 Q 138 173 148 185 Q 214 252 295 316 L 345 355 Q 423 418 424 420 Q 431 433 420 432 Q 411 432 345 390 L 295 360 Z" style="fill: #0070C0;"></path>
                                                                        <path d="M 609 508 Q 771 565 774 567 Q 781 576 777 584 Q 768 596 738 600 Q 707 603 677 587 Q 640 571 602 554 L 561 539 Q 509 523 450 511 Q 413 501 442 487 Q 487 468 542 487 Q 554 491 569 495 L 609 508 Z" style="fill: #0070C0;"></path>
                                                                        <path d="M 646 235 Q 712 97 808 11 Q 887 -38 910 -23 Q 931 -14 926 26 Q 919 65 919 204 Q 920 226 914 230 Q 910 231 903 212 Q 870 86 842 84 Q 782 102 707 223 Q 695 245 682 269 L 660 321 Q 621 417 609 508 L 602 554 Q 590 683 611 747 Q 623 774 579 801 Q 545 825 526 821 Q 505 820 515 792 Q 539 749 541 703 Q 548 619 561 539 L 569 495 Q 588 384 626 286 L 646 235 Z" style="fill: #0070C0;"></path>
                                                                        <path d="M 626 286 Q 548 216 420 154 Q 410 148 416 143 Q 423 139 435 141 Q 499 151 559 181 Q 608 203 646 235 L 682 269 Q 739 338 797 407 Q 807 414 804 426 Q 800 438 774 462 Q 755 480 745 479 Q 730 479 729 463 Q 722 399 660 321 L 626 286 Z" style="fill: #0070C0;"></path>
                                                                        <path d="M 705 711 Q 739 687 774 659 Q 787 649 803 650 Q 813 651 817 664 Q 820 679 809 706 Q 802 727 768 740 Q 690 764 676 755 Q 672 751 674 739 Q 678 729 705 711 Z" style="fill: #0070C0;"></path>
                                    
                                    
                                                                                                                                                                                                                                                                                                                                                                                                                                                                                                                                                                                                                                </g>
                            </svg>