<svg width='83' height='83' >
                                <g transform="translate(3, 70) scale(0.07, -0.07)">
                                    <!-- 先将完整的字以灰色字体绘制完成，层级位于下面 -->
                                                                        <path d="M 352 522 Q 445 549 448 551 Q 457 560 452 568 Q 445 580 414 586 Q 383 590 353 577 L 304 559 Q 163 528 160 526 Q 123 519 150 503 Q 195 479 254 497 Q 276 504 304 510 L 352 522 Z" style="fill: #0070C0;"></path>
                                                                        <path d="M 301 315 Q 300 224 298 112 Q 298 87 284 78 Q 280 74 209 87 Q 176 99 179 89 Q 180 82 200 67 Q 263 16 279 -12 Q 298 -46 313 -47 Q 328 -48 342 -13 Q 361 33 359 106 Q 352 230 350 354 L 350 387 Q 349 454 352 522 L 353 577 Q 359 718 374 765 Q 392 795 336 817 Q 302 836 283 829 Q 265 822 281 800 Q 303 772 304 738 Q 305 719 304 559 L 304 510 Q 303 444 301 358 L 301 315 Z" style="fill: #0070C0;"></path>
                                                                        <path d="M 301 358 Q 205 303 123 249 Q 87 227 63 220 Q 50 213 47 204 Q 46 194 62 180 Q 83 164 108 156 Q 124 152 135 165 Q 193 228 301 315 L 350 354 Q 365 367 381 378 Q 403 391 412 407 Q 419 422 408 420 Q 395 420 350 387 L 301 358 Z" style="fill: #0070C0;"></path>
                                                                        <path d="M 664 560 Q 833 605 840 611 Q 849 620 844 628 Q 837 640 806 646 Q 779 649 669 610 L 616 595 Q 564 583 504 574 Q 467 567 495 551 Q 540 527 604 547 Q 608 548 615 549 L 664 560 Z" style="fill: #0070C0;"></path>
                                                                        <path d="M 650 427 Q 657 496 664 560 L 669 610 Q 679 733 698 787 Q 702 797 682 814 Q 646 836 621 841 Q 605 845 596 836 Q 587 829 596 813 Q 618 779 617 755 Q 618 679 616 595 L 615 549 Q 611 485 606 413 C 604 383 647 397 650 427 Z" style="fill: #0070C0;"></path>
                                                                        <path d="M 679 180 Q 716 219 765 344 Q 778 375 801 395 Q 822 413 807 427 Q 794 440 759 453 Q 734 462 703 446 Q 678 437 650 427 L 606 413 Q 555 401 479 392 Q 464 391 459 383 Q 455 376 475 367 Q 515 352 568 369 Q 665 400 684 400 Q 709 397 702 371 Q 680 272 638 216 L 614 185 Q 548 113 413 73 Q 397 69 410 59 Q 417 55 462 57 Q 555 64 647 145 L 679 180 Z" style="fill: #0070C0;"></path>
                                                                        <path d="M 647 145 Q 761 18 796 12 Q 911 12 957 18 Q 994 22 991 32 Q 988 41 896 67 Q 754 118 682 178 Q 679 179 679 180 L 638 216 Q 604 250 568 289 Q 534 328 501 328 Q 485 329 481 324 Q 480 318 493 308 Q 536 280 614 185 L 647 145 Z" style="fill: #0070C0;"></path>
                                    
                                    
                                                                                                                                                                                                                                                                                                                                                                                                                                                                                                                                                                                                                                </g>
                            </svg>