<svg width='83' height='83' >
                                <g transform="translate(3, 70) scale(0.07, -0.07)">
                                    <!-- 先将完整的字以灰色字体绘制完成，层级位于下面 -->
                                                                        <path d="M 341 548 Q 425 576 429 579 Q 438 588 432 596 Q 425 608 394 613 Q 369 616 343 606 L 292 585 Q 223 560 151 547 Q 114 537 142 523 Q 185 505 271 529 Q 280 532 291 533 L 341 548 Z" style="fill: #0070C0;"></path>
                                                                        <path d="M 338 421 Q 338 485 341 548 L 343 606 Q 343 607 344 607 Q 348 695 362 741 Q 380 771 324 793 Q 290 812 271 805 Q 253 799 269 776 Q 291 748 292 715 Q 293 700 292 585 L 291 533 Q 290 472 288 389 L 287 341 Q 286 259 284 153 Q 283 131 271 123 Q 262 117 209 130 Q 176 143 179 133 Q 180 126 199 110 Q 254 59 268 32 Q 284 -1 298 -3 Q 313 -4 328 31 Q 347 76 347 150 Q 340 265 339 382 L 338 421 Z" style="fill: #0070C0;"></path>
                                                                        <path d="M 339 382 Q 399 433 411 446 Q 421 456 420 465 Q 413 469 402 464 Q 371 443 338 421 L 288 389 Q 119 284 85 274 Q 72 270 74 259 Q 75 246 86 241 Q 111 231 148 222 Q 158 221 168 233 Q 210 285 287 341 L 339 382 Z" style="fill: #0070C0;"></path>
                                                                        <path d="M 611 722 Q 647 695 685 664 Q 701 651 717 653 Q 727 654 733 668 Q 737 684 725 715 Q 718 737 680 753 Q 590 778 580 771 Q 574 767 577 753 Q 581 743 611 722 Z" style="fill: #0070C0;"></path>
                                                                        <path d="M 659 531 Q 708 543 895 560 Q 914 561 918 570 Q 922 582 906 594 Q 848 630 800 611 Q 668 575 450 526 Q 431 522 446 507 Q 482 482 515 494 Q 563 512 617 522 L 659 531 Z" style="fill: #0070C0;"></path>
                                                                        <path d="M 683 394 Q 684 461 690 491 Q 693 509 659 531 C 635 549 605 550 617 522 Q 647 480 621 169 Q 618 151 617 136 Q 616 106 611 92 Q 598 32 656 -27 Q 657 -28 660 -31 Q 673 -32 678 -17 Q 687 5 687 72 Q 684 205 683 365 L 683 394 Z" style="fill: #0070C0;"></path>
                                                                        <path d="M 683 365 Q 741 334 811 286 Q 830 273 844 271 Q 851 272 856 283 Q 865 296 844 333 Q 820 378 683 394 C 653 398 657 379 683 365 Z" style="fill: #0070C0;"></path>
                                    
                                    
                                                                                                                                                                                                                                                                                                                                                                                                                                                                                                                                                                                                                                </g>
                            </svg>