<svg width='83' height='83' >
                                <g transform="translate(3, 70) scale(0.07, -0.07)">
                                    <!-- 先将完整的字以灰色字体绘制完成，层级位于下面 -->
                                                                        <path d="M 337 540 Q 425 571 430 575 Q 437 585 433 592 Q 424 604 393 608 Q 365 609 339 597 L 288 575 Q 206 545 153 535 Q 117 525 146 511 Q 188 493 262 517 Q 272 521 287 524 L 337 540 Z" style="fill: #0070C0;"></path>
                                                                        <path d="M 284 349 Q 283 252 281 126 Q 280 104 268 94 Q 262 91 185 110 Q 152 123 155 112 Q 156 105 176 90 Q 243 36 259 6 Q 278 -30 296 -31 Q 309 -32 325 3 Q 344 48 343 122 Q 336 255 334 387 L 334 420 Q 334 481 337 540 L 339 597 Q 339 598 340 599 Q 344 687 358 733 Q 376 763 320 785 Q 286 804 267 797 Q 249 791 265 768 Q 287 740 288 707 Q 289 692 288 575 L 287 524 Q 286 467 285 391 L 284 349 Z" style="fill: #0070C0;"></path>
                                                                        <path d="M 285 391 Q 194 342 115 292 Q 81 273 57 266 Q 44 259 42 252 Q 41 242 55 228 Q 74 212 98 204 Q 114 200 124 212 Q 215 299 284 349 L 334 387 Q 350 400 369 412 Q 390 425 400 440 Q 407 453 396 452 Q 390 452 334 420 L 285 391 Z" style="fill: #0070C0;"></path>
                                                                        <path d="M 643 667 Q 659 697 676 713 Q 685 723 680 737 Q 676 750 646 771 Q 619 787 600 787 Q 581 784 591 763 Q 606 733 595 706 Q 564 618 512 533 Q 463 452 393 363 Q 384 353 382 346 Q 379 334 393 338 Q 453 356 599 589 Q 612 614 629 641 L 643 667 Z" style="fill: #0070C0;"></path>
                                                                        <path d="M 629 641 Q 702 529 800 409 Q 816 390 847 389 Q 949 390 981 394 Q 991 395 992 401 Q 993 405 979 413 Q 834 473 773 534 Q 710 592 643 667 C 623 689 613 666 629 641 Z" style="fill: #0070C0;"></path>
                                                                        <path d="M 546 330 Q 549 331 551 331 Q 584 347 671 369 Q 678 370 685 367 Q 695 363 694 346 Q 693 306 676 233 Q 673 211 652 215 Q 624 221 601 227 Q 588 230 591 222 Q 592 213 615 195 Q 645 167 662 137 Q 669 128 678 131 Q 685 132 699 154 Q 712 172 728 232 Q 741 343 755 355 Q 765 364 761 374 Q 754 384 721 406 Q 709 415 656 400 Q 650 400 537 369 C 508 361 518 320 546 330 Z" style="fill: #0070C0;"></path>
                                                                        <path d="M 891 82 Q 878 110 860 193 Q 860 209 853 214 Q 847 217 843 200 Q 816 110 798 82 Q 783 66 744 56 Q 651 34 576 63 Q 546 78 539 95 Q 512 149 546 330 C 551 360 551 360 537 369 Q 525 379 506 387 Q 493 391 485 387 Q 478 383 483 365 Q 496 326 492 290 Q 479 124 492 77 Q 496 53 518 33 Q 611 -33 786 0 Q 792 1 799 3 Q 842 13 884 42 Q 903 57 891 82 Z" style="fill: #0070C0;"></path>
                                    
                                    
                                                                                                                                                                                                                                                                                                                                                                                                                                                                                                                                                                                                                                </g>
                            </svg>