<svg width='83' height='83' >
                                <g transform="translate(3, 70) scale(0.07, -0.07)">
                                    <!-- 先将完整的字以灰色字体绘制完成，层级位于下面 -->
                                                                        <path d="M 346 573 Q 365 580 386 585 Q 423 597 429 603 Q 438 612 432 620 Q 425 632 394 636 Q 369 640 349 631 L 297 610 Q 221 580 130 563 Q 93 553 122 539 Q 170 518 222 537 Q 258 547 296 558 L 346 573 Z" style="fill: #0070C0;"></path>
                                                                        <path d="M 290 387 Q 289 299 285 186 Q 284 164 272 155 Q 266 152 205 165 Q 172 178 175 169 Q 176 162 195 146 Q 253 94 267 65 Q 283 31 298 29 Q 311 28 328 62 Q 347 108 348 181 Q 341 305 342 429 L 342 460 Q 343 518 346 573 L 349 631 Q 349 706 370 776 Q 386 806 332 829 Q 298 848 279 842 Q 261 835 277 812 Q 298 785 299 751 Q 300 735 297 610 L 296 558 Q 295 503 292 428 L 290 387 Z" style="fill: #0070C0;"></path>
                                                                        <path d="M 292 428 Q 195 368 110 310 Q 77 291 56 283 Q 44 276 42 269 Q 41 260 56 247 Q 75 234 97 226 Q 113 223 122 235 Q 195 314 290 387 L 342 429 Q 393 468 401 480 Q 407 493 396 492 Q 384 492 342 460 L 292 428 Z" style="fill: #0070C0;"></path>
                                                                        <path d="M 613 747 Q 644 725 678 698 Q 693 686 710 688 Q 720 689 725 704 Q 728 720 716 750 Q 701 784 603 796 Q 587 799 580 795 Q 576 791 578 777 Q 582 767 613 747 Z" style="fill: #0070C0;"></path>
                                                                        <path d="M 804 480 Q 829 544 865 567 Q 883 586 867 605 Q 849 620 794 647 Q 775 654 752 646 Q 670 607 541 582 C 512 576 520 540 549 547 Q 756 598 767 590 Q 779 575 746 479 C 736 451 793 452 804 480 Z" style="fill: #0070C0;"></path>
                                                                        <path d="M 535 402 Q 541 396 563 401 Q 645 423 821 445 Q 831 446 832 455 Q 832 464 804 480 C 788 490 775 486 746 479 Q 628 449 538 433 C 508 428 507 412 535 402 Z" style="fill: #0070C0;"></path>
                                                                        <path d="M 541 582 Q 528 594 504 603 Q 485 613 474 607 Q 462 600 469 587 Q 517 529 460 256 Q 456 241 452 226 Q 424 142 358 26 Q 354 19 351 13 Q 350 3 359 5 Q 389 11 456 124 Q 466 145 477 168 Q 517 270 535 402 L 538 433 Q 539 446 540 458 Q 543 530 549 547 C 554 573 554 573 541 582 Z" style="fill: #0070C0;"></path>
                                    
                                    
                                                                                                                                                                                                                                                                                                                                                                                                                                                                                                                                                                                                                                </g>
                            </svg>