<svg width='83' height='83' >
                                <g transform="translate(3, 70) scale(0.07, -0.07)">
                                    <!-- 先将完整的字以灰色字体绘制完成，层级位于下面 -->
                                                                        <path d="M 338 531 Q 359 538 383 543 Q 419 553 425 559 Q 432 568 428 576 Q 421 588 390 593 Q 363 597 340 588 L 290 569 Q 200 541 136 531 Q 99 522 126 507 Q 162 488 239 505 Q 263 511 289 518 L 338 531 Z" style="fill: #0070C0;"></path>
                                                                        <path d="M 287 337 Q 286 246 286 129 Q 285 105 273 97 Q 267 93 201 100 Q 168 110 171 101 Q 172 94 193 79 Q 254 33 270 6 Q 289 -25 304 -27 Q 317 -27 332 7 Q 350 53 346 126 Q 339 250 337 373 L 337 403 Q 336 467 338 531 L 340 588 Q 340 678 358 741 Q 376 771 320 793 Q 286 812 267 805 Q 249 798 265 775 Q 287 748 288 714 Q 289 698 290 569 L 289 518 Q 288 458 287 377 L 287 337 Z" style="fill: #0070C0;"></path>
                                                                        <path d="M 337 373 Q 388 412 392 416 Q 399 429 388 429 Q 379 429 337 403 L 287 377 Q 196 329 116 283 Q 82 264 58 258 Q 45 252 42 244 Q 41 235 55 221 Q 74 205 97 196 Q 113 192 124 203 Q 205 279 287 337 L 337 373 Z" style="fill: #0070C0;"></path>
                                                                        <path d="M 817 470 Q 690 457 553 427 Q 540 423 535 427 Q 531 433 539 448 Q 681 668 712 704 Q 725 716 718 729 Q 711 742 657 767 Q 638 774 628 770 Q 615 763 621 741 Q 643 678 516 487 Q 491 450 437 411 Q 421 398 426 386 Q 432 367 460 345 Q 473 333 487 346 Q 556 391 816 440 Q 826 443 836 446 C 865 454 847 473 817 470 Z" style="fill: #0070C0;"></path>
                                                                        <path d="M 836 446 Q 881 392 890 388 Q 897 387 905 394 Q 918 406 909 446 Q 900 500 757 571 Q 750 575 746 565 Q 745 553 754 543 Q 782 512 817 470 L 836 446 Z" style="fill: #0070C0;"></path>
                                                                        <path d="M 526 265 Q 513 269 491 272 Q 478 276 475 270 Q 468 263 478 247 Q 509 186 529 86 Q 533 55 551 36 Q 570 14 575 30 Q 578 40 578 57 L 574 93 Q 556 198 550 231 C 545 260 545 260 526 265 Z" style="fill: #0070C0;"></path>
                                                                        <path d="M 809 123 Q 834 213 868 242 Q 887 263 870 282 Q 783 343 727 312 Q 639 282 526 265 C 496 260 521 225 550 231 Q 652 252 732 268 Q 753 272 761 264 Q 773 254 771 233 Q 764 173 752 125 C 745 96 801 94 809 123 Z" style="fill: #0070C0;"></path>
                                                                        <path d="M 578 57 Q 582 57 590 58 Q 665 73 826 84 Q 838 85 839 94 Q 839 103 809 123 C 793 134 781 131 752 125 Q 653 104 574 93 C 544 89 548 55 578 57 Z" style="fill: #0070C0;"></path>
                                    
                                    
                                                                                                                                                                                                                                                                                                                                                                                                                                                                                                                                                                                                                                                                                                            </g>
                            </svg>