<svg width='83' height='83' >
                                <g transform="translate(3, 70) scale(0.07, -0.07)">
                                    <!-- 先将完整的字以灰色字体绘制完成，层级位于下面 -->
                                                                        <path d="M 334 508 Q 356 517 382 523 Q 416 533 421 539 Q 430 548 424 556 Q 417 568 386 573 Q 361 576 336 566 L 286 545 Q 199 518 143 507 Q 106 497 134 483 Q 176 465 254 486 Q 267 490 285 494 L 334 508 Z" style="fill: #0070C0;"></path>
                                                                        <path d="M 281 324 Q 278 240 277 135 Q 276 111 264 103 Q 260 100 193 114 Q 160 127 163 117 Q 164 110 183 94 Q 244 42 258 13 Q 274 -21 291 -23 Q 304 -24 320 11 Q 339 56 339 130 Q 332 248 332 364 L 332 397 Q 332 454 334 508 L 336 566 Q 343 701 358 744 Q 374 775 320 797 Q 286 816 267 809 Q 249 803 265 780 Q 287 753 287 719 Q 288 700 286 545 L 285 494 Q 284 439 282 366 L 281 324 Z" style="fill: #0070C0;"></path>
                                                                        <path d="M 332 364 Q 347 377 362 387 Q 383 400 393 416 Q 399 429 388 428 Q 373 428 332 397 L 282 366 Q 191 314 113 261 Q 79 240 55 233 Q 42 227 41 219 Q 40 209 55 196 Q 74 180 98 173 Q 114 169 125 182 Q 189 252 281 324 L 332 364 Z" style="fill: #0070C0;"></path>
                                                                        <path d="M 547 588 Q 581 634 618 699 Q 636 736 652 753 Q 662 765 655 779 Q 649 792 617 815 Q 587 833 567 831 Q 548 827 558 804 Q 594 744 429 490 Q 419 477 417 471 Q 414 458 429 463 Q 460 472 532 568 L 547 588 Z" style="fill: #0070C0;"></path>
                                                                        <path d="M 532 568 Q 562 549 602 557 Q 749 602 755 587 Q 768 571 763 529 Q 756 411 731 358 Q 719 333 697 334 Q 681 340 666 347 Q 644 357 657 333 Q 690 288 703 256 Q 725 237 742 256 Q 772 280 790 322 Q 812 371 819 516 Q 820 567 837 593 Q 849 606 842 616 Q 832 626 782 646 Q 761 653 743 640 Q 727 630 664 612 Q 600 594 547 588 C 517 584 505 581 532 568 Z" style="fill: #0070C0;"></path>
                                                                        <path d="M 630 330 Q 649 400 672 420 Q 694 444 672 457 Q 654 467 629 484 Q 611 494 571 469 Q 537 454 498 442 C 469 433 485 403 512 416 Q 519 422 580 435 Q 599 439 604 433 Q 610 426 582 330 C 574 301 622 301 630 330 Z" style="fill: #0070C0;"></path>
                                                                        <path d="M 492 278 Q 498 278 505 279 Q 548 289 643 301 Q 652 302 652 310 Q 652 317 630 330 C 615 339 611 338 582 330 Q 533 317 495 308 C 466 301 462 277 492 278 Z" style="fill: #0070C0;"></path>
                                                                        <path d="M 958 106 Q 945 136 932 228 Q 932 244 925 250 Q 919 254 913 236 Q 882 139 860 109 Q 841 87 785 73 Q 664 40 553 79 Q 513 98 502 122 Q 478 171 492 278 L 495 308 Q 501 357 511 411 Q 511 414 512 416 C 515 431 515 431 498 442 Q 488 452 471 459 Q 459 463 451 458 Q 444 455 449 438 Q 461 401 457 365 Q 436 101 483 58 Q 508 33 572 13 Q 794 -36 950 65 Q 969 80 958 106 Z" style="fill: #0070C0;"></path>
                                    
                                    
                                                                                                                                                                                                                                                                                                                                                                                                                                                                                                                                                                                                                                                                                                            </g>
                            </svg>