<svg width='83' height='83' >
                                <g transform="translate(3, 70) scale(0.07, -0.07)">
                                    <!-- 先将完整的字以灰色字体绘制完成，层级位于下面 -->
                                                                        <path d="M 311 545 Q 374 566 377 569 Q 384 576 380 585 Q 373 595 343 600 Q 327 603 313 599 L 262 579 Q 145 546 122 541 Q 88 532 114 518 Q 150 503 219 519 Q 238 525 261 530 L 311 545 Z" style="fill: #0070C0;"></path>
                                                                        <path d="M 256 346 Q 255 261 253 154 Q 252 132 240 123 Q 234 120 173 133 Q 140 146 143 137 Q 144 130 163 114 Q 221 62 235 33 Q 251 -1 266 -3 Q 279 -4 296 30 Q 315 76 315 149 Q 308 272 308 394 L 308 424 Q 308 485 311 545 L 313 599 Q 314 609 315 619 Q 319 707 334 752 Q 350 783 296 805 Q 262 824 243 818 Q 225 811 241 788 Q 263 761 263 727 Q 264 711 262 579 L 261 530 Q 260 470 257 391 L 256 346 Z" style="fill: #0070C0;"></path>
                                                                        <path d="M 257 391 Q 49 256 47 249 Q 47 239 62 227 Q 84 214 107 207 Q 119 206 138 223 Q 177 274 256 346 L 308 394 Q 314 401 321 406 Q 337 418 345 432 Q 351 445 340 444 Q 328 443 308 424 L 257 391 Z" style="fill: #0070C0;"></path>
                                                                        <path d="M 446 466 Q 506 551 544 624 Q 560 663 578 682 Q 585 692 580 705 Q 576 715 547 735 Q 520 750 503 748 Q 485 744 495 725 Q 531 662 367 407 Q 363 403 360 397 Q 351 387 350 381 Q 347 371 360 374 Q 378 380 426 438 L 446 466 Z" style="fill: #0070C0;"></path>
                                                                        <path d="M 426 438 Q 427 431 433 424 Q 466 358 433 174 Q 412 102 451 63 Q 467 48 478 73 Q 491 110 491 151 Q 488 343 494 386 Q 501 411 492 420 Q 458 462 446 466 C 421 483 414 465 426 438 Z" style="fill: #0070C0;"></path>
                                                                        <path d="M 801 497 Q 843 504 898 509 Q 946 513 951 522 Q 955 534 938 546 Q 875 580 821 556 Q 811 555 801 550 L 749 534 Q 728 530 706 523 Q 625 502 530 479 Q 511 475 526 460 Q 542 448 559 445 Q 580 441 595 448 Q 670 476 750 489 L 801 497 Z" style="fill: #0070C0;"></path>
                                                                        <path d="M 750 489 Q 751 356 753 140 Q 753 118 741 108 Q 731 101 709 109 Q 684 116 658 122 Q 624 135 627 124 Q 628 117 649 101 Q 718 47 735 16 Q 756 -21 773 -21 Q 788 -22 803 14 Q 821 62 818 138 Q 803 318 801 497 L 801 550 Q 801 683 817 740 Q 833 771 776 793 Q 740 812 721 804 Q 702 797 720 774 Q 742 746 745 711 Q 746 692 749 534 L 750 489 Z" style="fill: #0070C0;"></path>
                                                                        <path d="M 584 345 Q 606 327 630 305 Q 643 293 658 295 Q 668 296 673 308 Q 677 323 667 351 Q 655 378 577 391 Q 562 394 556 391 Q 552 387 553 375 Q 557 365 584 345 Z" style="fill: #0070C0;"></path>
                                    
                                    
                                                                                                                                                                                                                                                                                                                                                                                                                                                                                                                                                                                                                                                                                                            </g>
                            </svg>