<svg width='83' height='83' >
                                <g transform="translate(3, 70) scale(0.07, -0.07)">
                                    <!-- 先将完整的字以灰色字体绘制完成，层级位于下面 -->
                                                                        <path d="M 336 535 Q 414 559 416 561 Q 425 568 420 577 Q 413 587 384 593 Q 360 597 338 589 L 286 568 Q 159 540 147 537 Q 113 530 138 514 Q 186 493 236 510 Q 258 517 285 522 L 336 535 Z" style="fill: #0070C0;"></path>
                                                                        <path d="M 280 345 Q 277 260 276 154 Q 275 132 263 123 Q 257 120 193 137 Q 160 150 163 141 Q 164 134 183 117 Q 243 63 257 34 Q 273 0 289 -3 Q 304 -4 319 30 Q 338 76 339 149 Q 332 269 333 389 L 333 419 Q 333 477 336 535 L 338 589 Q 338 670 358 736 Q 374 767 320 789 Q 286 808 267 802 Q 249 795 265 772 Q 287 745 287 711 Q 288 695 286 568 L 285 522 Q 284 464 281 387 L 280 345 Z" style="fill: #0070C0;"></path>
                                                                        <path d="M 281 387 Q 194 335 118 282 Q 85 263 64 255 Q 52 248 50 241 Q 49 232 64 219 Q 83 206 105 198 Q 121 195 130 207 Q 182 264 280 345 L 333 389 Q 348 402 363 412 Q 384 425 393 440 Q 399 453 388 452 Q 378 452 333 419 L 281 387 Z" style="fill: #0070C0;"></path>
                                                                        <path d="M 590 567 Q 848 628 855 635 Q 864 644 859 652 Q 852 664 822 671 Q 795 677 684 638 Q 639 629 603 616 L 561 607 Q 516 601 469 594 Q 432 587 459 570 Q 495 551 549 558 L 590 567 Z" style="fill: #0070C0;"></path>
                                                                        <path d="M 510 433 Q 471 355 463 344 Q 451 344 447 320 Q 443 311 459 274 Q 466 258 483 266 Q 546 297 650 317 L 704 327 Q 863 354 865 354 Q 868 357 869 360 Q 870 373 840 390 Q 813 405 701 370 L 650 359 Q 604 350 552 339 Q 530 335 527 340 Q 526 344 555 442 L 564 473 Q 574 516 590 567 L 603 616 Q 636 757 663 783 Q 679 799 666 810 Q 608 849 584 846 Q 575 843 584 823 Q 599 775 561 607 L 549 558 Q 536 509 521 463 L 510 433 Z" style="fill: #0070C0;"></path>
                                                                        <path d="M 650 317 Q 651 83 635 57 Q 631 51 611 56 Q 589 60 566 66 Q 547 73 548 64 Q 597 18 624 -16 Q 637 -35 651 -40 Q 660 -44 668 -35 Q 705 10 707 76 Q 701 175 704 327 L 701 370 Q 702 419 715 441 Q 725 459 715 469 Q 696 487 661 501 Q 643 508 629 502 Q 589 480 564 473 L 521 463 Q 490 459 450 455 Q 435 454 444 445 Q 453 435 467 430 Q 485 426 507 433 Q 508 434 510 433 L 555 442 Q 586 451 620 458 Q 638 464 643 455 Q 644 449 650 359 L 650 317 Z" style="fill: #0070C0;"></path>
                                                                        <path d="M 503 213 Q 472 170 433 132 Q 406 107 416 70 Q 419 52 442 59 Q 496 83 515 153 Q 527 183 526 207 Q 523 217 517 219 Q 510 219 503 213 Z" style="fill: #0070C0;"></path>
                                                                        <path d="M 770 211 Q 809 165 855 100 Q 868 78 884 71 Q 893 70 901 78 Q 916 91 908 136 Q 904 178 838 212 Q 798 233 775 242 Q 766 249 763 236 Q 760 223 770 211 Z" style="fill: #0070C0;"></path>
                                    
                                    
                                                                                                                                                                                                                                                                                                                                                                                                                                                                                                                                                                                                                                                                                                            </g>
                            </svg>