<svg width='83' height='83' >
                                <g transform="translate(3, 70) scale(0.07, -0.07)">
                                    <!-- 先将完整的字以灰色字体绘制完成，层级位于下面 -->
                                                                        <path d="M 332 547 Q 353 554 375 560 Q 408 570 413 575 Q 422 584 416 592 Q 409 604 378 609 Q 356 612 334 604 L 286 585 Q 174 552 139 547 Q 102 538 130 523 Q 178 502 233 520 Q 255 527 285 534 L 332 547 Z" style="fill: #0070C0;"></path>
                                                                        <path d="M 282 339 Q 281 245 279 125 Q 278 101 265 92 Q 261 89 192 103 Q 161 115 163 105 Q 164 98 183 83 Q 244 34 259 6 Q 277 -27 292 -28 Q 305 -29 320 4 Q 338 47 337 119 Q 330 249 329 378 L 329 410 Q 329 479 332 547 L 334 604 Q 334 689 353 751 Q 369 779 316 801 Q 285 819 265 813 Q 249 806 264 784 Q 283 759 285 726 Q 286 710 286 585 L 285 534 Q 284 470 283 382 L 282 339 Z" style="fill: #0070C0;"></path>
                                                                        <path d="M 283 382 Q 198 331 124 282 Q 90 260 67 253 Q 54 246 52 238 Q 52 229 67 216 Q 86 200 110 194 Q 126 190 137 203 Q 239 305 282 339 L 329 378 Q 383 427 385 428 Q 391 441 380 440 Q 365 439 329 410 L 283 382 Z" style="fill: #0070C0;"></path>
                                                                        <path d="M 616 768 Q 640 746 665 719 Q 680 706 696 706 Q 706 707 713 721 Q 717 736 709 767 Q 703 786 673 800 Q 603 827 588 819 Q 582 815 584 802 Q 588 790 616 768 Z" style="fill: #0070C0;"></path>
                                                                        <path d="M 495 609 Q 483 631 466 644 Q 462 648 456 644 Q 452 640 451 629 Q 455 596 425 532 Q 415 514 416 496 Q 420 477 429 462 Q 436 450 442 458 Q 449 459 457 475 Q 461 482 471 509 Q 487 555 495 571 Q 496 575 499 579 C 506 591 506 591 495 609 Z" style="fill: #0070C0;"></path>
                                                                        <path d="M 499 579 Q 518 570 565 581 Q 641 608 761 622 Q 774 625 781 623 Q 800 611 797 603 Q 787 561 775 518 L 777 517 Q 784 514 798 526 Q 844 563 885 579 Q 918 592 917 600 Q 916 610 846 655 Q 822 671 735 650 Q 705 649 563 620 Q 529 613 495 609 C 465 605 470 586 499 579 Z" style="fill: #0070C0;"></path>
                                                                        <path d="M 675 406 Q 735 415 819 417 Q 865 417 873 427 Q 877 439 861 451 Q 807 488 744 466 Q 644 442 439 405 Q 420 402 434 387 Q 462 362 500 372 Q 555 390 623 399 L 675 406 Z" style="fill: #0070C0;"></path>
                                                                        <path d="M 611 79 Q 574 86 538 95 Q 526 98 527 90 Q 528 83 538 76 Q 614 13 642 -26 Q 655 -42 672 -28 Q 708 5 706 76 Q 703 103 699 274 Q 698 323 711 355 Q 720 374 703 387 Q 690 399 675 406 C 649 421 605 423 623 399 Q 648 374 647 314 Q 651 179 646 109 Q 645 88 633 81 Q 624 74 611 79 Z" style="fill: #0070C0;"></path>
                                    
                                    
                                                                                                                                                                                                                                                                                                                                                                                                                                                                                                                                                                                                                                                                                                            </g>
                            </svg>