<svg width='83' height='83' >
                                <g transform="translate(3, 70) scale(0.07, -0.07)">
                                    <!-- 先将完整的字以灰色字体绘制完成，层级位于下面 -->
                                                                        <path d="M 346 539 Q 421 564 425 567 Q 434 576 428 584 Q 421 596 390 601 Q 368 602 349 597 L 298 576 Q 223 548 135 531 Q 98 521 126 507 Q 165 491 235 507 Q 263 516 297 524 L 346 539 Z" style="fill: #0070C0;"></path>
                                                                        <path d="M 293 347 Q 290 251 288 129 Q 287 105 274 96 Q 268 93 205 96 Q 172 106 175 97 Q 176 90 197 76 Q 257 30 272 5 Q 290 -26 305 -27 Q 318 -27 333 7 Q 351 53 348 125 Q 341 258 342 389 L 342 417 Q 343 478 346 539 L 349 597 Q 349 678 370 748 Q 386 778 332 801 Q 299 820 279 814 Q 261 807 277 784 Q 298 757 299 723 Q 300 707 298 576 L 297 524 Q 296 464 293 386 L 293 347 Z" style="fill: #0070C0;"></path>
                                                                        <path d="M 293 386 Q 194 325 111 267 Q 77 245 54 237 Q 41 230 40 222 Q 40 212 55 199 Q 74 184 99 178 Q 111 175 139 202 Q 196 266 293 347 L 342 389 Q 348 395 355 399 Q 376 412 385 428 Q 391 441 380 440 Q 361 436 342 417 L 293 386 Z" style="fill: #0070C0;"></path>
                                                                        <path d="M 632 577 Q 639 581 650 585 Q 699 606 755 639 Q 771 651 792 657 Q 808 664 806 675 Q 802 684 782 698 Q 736 723 708 722 Q 696 723 696 709 Q 687 651 484 553 Q 472 546 490 541 Q 499 541 591 562 L 632 577 Z" style="fill: #0070C0;"></path>
                                                                        <path d="M 656 405 Q 684 411 917 430 Q 936 431 942 440 Q 946 453 929 465 Q 869 504 809 483 Q 749 468 662 448 L 607 437 Q 516 419 411 399 Q 390 395 407 379 Q 422 366 440 362 Q 462 358 477 364 Q 537 383 605 396 L 656 405 Z" style="fill: #0070C0;"></path>
                                                                        <path d="M 635 262 Q 645 337 656 405 L 662 448 Q 665 484 685 531 Q 689 541 671 556 Q 649 571 632 577 C 604 588 577 589 591 562 Q 591 561 593 558 Q 609 530 609 512 Q 609 476 607 437 L 605 396 Q 601 329 594 255 C 591 225 631 232 635 262 Z" style="fill: #0070C0;"></path>
                                                                        <path d="M 506 243 Q 494 247 467 253 Q 454 257 451 251 Q 444 244 453 227 Q 484 163 502 57 Q 505 26 523 4 Q 542 -18 547 -2 Q 551 11 551 32 L 547 71 Q 528 177 525 210 C 522 238 522 238 506 243 Z" style="fill: #0070C0;"></path>
                                                                        <path d="M 785 96 Q 812 187 845 210 Q 864 231 848 250 Q 766 313 704 282 Q 668 273 635 262 L 594 255 Q 551 249 506 243 C 476 239 495 206 525 210 Q 729 240 735 238 Q 738 237 740 234 Q 750 224 749 203 Q 742 149 731 103 C 724 74 776 67 785 96 Z" style="fill: #0070C0;"></path>
                                                                        <path d="M 551 32 Q 561 31 573 33 Q 645 48 797 58 Q 810 59 811 69 Q 811 76 785 96 C 773 106 761 105 731 103 Q 728 104 725 103 Q 625 81 547 71 C 517 67 521 33 551 32 Z" style="fill: #0070C0;"></path>
                                    
                                    
                                                                                                                                                                                                                                                                                                                                                                                                                                                                                                                                                                                                                                                                                                                                                                                        </g>
                            </svg>