<svg width='83' height='83' >
                                <g transform="translate(3, 70) scale(0.07, -0.07)">
                                    <!-- 先将完整的字以灰色字体绘制完成，层级位于下面 -->
                                                                        <path d="M 335 542 Q 353 549 376 555 Q 413 567 417 573 Q 424 580 420 589 Q 413 599 383 604 Q 358 607 337 597 L 289 577 Q 148 537 134 533 Q 100 524 126 510 Q 160 495 230 511 Q 255 520 288 528 L 335 542 Z" style="fill: #0070C0;"></path>
                                                                        <path d="M 284 350 Q 281 253 280 127 Q 279 103 266 95 Q 259 91 176 108 Q 145 118 147 109 Q 148 102 168 88 Q 238 39 257 10 Q 279 -24 296 -24 Q 309 -25 323 9 Q 339 52 337 122 Q 330 255 331 387 L 331 415 Q 332 479 335 542 L 337 597 Q 337 676 356 738 Q 372 766 320 789 Q 289 808 269 801 Q 253 795 267 773 Q 288 746 289 714 Q 290 698 289 577 L 288 528 Q 287 468 285 387 L 284 350 Z" style="fill: #0070C0;"></path>
                                                                        <path d="M 285 387 Q 194 333 117 282 Q 86 263 65 257 Q 53 251 52 244 Q 51 235 64 223 Q 83 210 103 203 Q 118 199 127 211 Q 208 292 284 350 L 331 387 Q 343 397 356 406 Q 375 418 385 433 Q 391 445 381 444 Q 372 444 331 415 L 285 387 Z" style="fill: #0070C0;"></path>
                                                                        <path d="M 625 616 Q 781 655 783 657 Q 792 664 787 673 Q 780 683 752 691 Q 725 695 629 663 L 577 650 Q 534 643 488 636 Q 454 629 479 614 Q 521 590 573 605 Q 574 606 578 606 L 625 616 Z" style="fill: #0070C0;"></path>
                                                                        <path d="M 452 468 Q 497 411 511 408 Q 520 407 525 417 Q 531 429 527 453 Q 526 469 503 484 Q 451 515 436 511 Q 432 508 431 497 Q 432 488 452 468 Z" style="fill: #0070C0;"></path>
                                                                        <path d="M 725 541 Q 704 508 663 457 Q 657 450 663 443 Q 670 442 678 446 Q 757 500 797 520 Q 815 524 811 536 Q 805 552 786 570 Q 767 588 745 590 Q 730 589 731 570 Q 734 557 725 541 Z" style="fill: #0070C0;"></path>
                                                                        <path d="M 613 336 Q 698 349 830 354 Q 885 354 893 364 Q 897 377 881 389 Q 821 428 770 411 Q 707 398 611 376 L 565 368 Q 477 353 376 335 Q 354 331 371 315 Q 402 288 448 301 Q 499 319 561 327 L 613 336 Z" style="fill: #0070C0;"></path>
                                                                        <path d="M 561 327 Q 546 191 456 111 Q 420 86 370 58 Q 357 51 357 47 Q 358 43 369 42 Q 385 39 422 52 Q 485 70 529 117 Q 587 178 605 292 L 611 376 Q 618 500 625 616 L 629 663 Q 632 687 653 743 Q 660 756 650 768 Q 628 787 588 799 Q 563 806 553 799 Q 544 792 552 779 Q 576 739 577 650 L 578 606 Q 577 485 565 368 L 561 327 Z" style="fill: #0070C0;"></path>
                                                                        <path d="M 605 292 Q 755 28 798 18 Q 799 19 801 18 Q 867 19 923 19 Q 948 19 948 25 Q 949 32 924 47 Q 789 117 747 163 Q 666 254 613 336 C 597 361 575 345 605 292 Z" style="fill: #0070C0;"></path>
                                    
                                    
                                                                                                                                                                                                                                                                                                                                                                                                                                                                                                                                                                                                                                                                                                                                                                                        </g>
                            </svg>