<svg width='83' height='83' >
                                <g transform="translate(3, 70) scale(0.07, -0.07)">
                                    <!-- 先将完整的字以灰色字体绘制完成，层级位于下面 -->
                                                                        <path d="M 346 530 Q 446 557 452 561 Q 459 568 455 577 Q 448 587 420 594 Q 392 598 348 581 L 299 564 Q 190 540 160 536 Q 124 529 151 514 Q 190 490 248 507 Q 270 513 298 518 L 346 530 Z" style="fill: #0070C0;"></path>
                                                                        <path d="M 293 322 Q 290 237 289 133 Q 288 109 275 100 Q 274 100 224 104 Q 193 120 194 109 Q 195 102 214 85 Q 263 34 273 7 Q 286 -24 299 -27 Q 314 -28 330 6 Q 349 52 351 126 Q 345 246 344 366 L 344 401 Q 343 465 346 530 L 348 581 Q 354 719 370 768 Q 386 799 332 821 Q 298 840 279 833 Q 261 827 277 804 Q 299 777 300 743 Q 301 724 299 564 L 298 518 Q 297 454 294 370 L 293 322 Z" style="fill: #0070C0;"></path>
                                                                        <path d="M 294 370 Q 212 319 140 270 Q 106 248 83 241 Q 70 234 68 226 Q 68 217 83 204 Q 102 188 126 182 Q 142 178 153 191 Q 205 252 293 322 L 344 366 Q 366 385 390 402 Q 411 415 421 432 Q 427 445 416 444 Q 404 441 344 401 L 294 370 Z" style="fill: #0070C0;"></path>
                                                                        <path d="M 515 453 Q 534 483 549 513 Q 567 553 585 586 Q 592 599 578 610 Q 539 634 515 629 Q 505 625 509 613 Q 530 534 452 420 Q 440 408 420 375 Q 414 360 427 366 Q 452 373 500 432 L 515 453 Z" style="fill: #0070C0;"></path>
                                                                        <path d="M 500 432 Q 504 426 517 417 Q 536 401 558 379 Q 568 369 581 370 Q 590 370 593 381 Q 597 391 590 415 Q 586 430 562 440 Q 540 447 515 453 C 486 460 481 455 500 432 Z" style="fill: #0070C0;"></path>
                                                                        <path d="M 812 505 Q 824 526 834 546 Q 850 585 868 616 Q 875 629 860 641 Q 812 666 791 660 Q 781 656 785 643 Q 812 568 735 453 Q 717 431 711 416 Q 707 400 719 407 Q 752 417 798 483 L 812 505 Z" style="fill: #0070C0;"></path>
                                                                        <path d="M 798 483 Q 804 476 816 466 Q 844 441 872 413 Q 882 401 896 402 Q 905 402 909 413 Q 913 425 907 449 Q 903 468 874 483 Q 847 495 812 505 C 783 513 778 505 798 483 Z" style="fill: #0070C0;"></path>
                                                                        <path d="M 687 269 Q 826 296 830 298 Q 837 305 834 313 Q 828 323 802 332 Q 774 339 747 329 Q 719 320 688 312 L 637 302 Q 585 293 526 289 Q 492 285 515 269 Q 554 245 606 256 Q 619 260 636 260 L 687 269 Z" style="fill: #0070C0;"></path>
                                                                        <path d="M 682 138 Q 683 205 687 269 L 688 312 Q 697 675 717 733 Q 729 754 715 768 Q 678 796 648 806 Q 632 810 617 797 Q 611 790 617 778 Q 642 735 643 647 Q 639 484 637 302 L 636 260 Q 635 199 634 132 C 634 102 681 108 682 138 Z" style="fill: #0070C0;"></path>
                                                                        <path d="M 634 132 Q 534 122 417 110 Q 396 109 411 91 Q 424 76 443 71 Q 464 65 480 69 Q 612 102 903 102 Q 919 102 937 100 Q 956 100 962 108 Q 968 120 952 134 Q 895 180 843 163 Q 779 153 682 138 L 634 132 Z" style="fill: #0070C0;"></path>
                                    
                                    
                                                                                                                                                                                                                                                                                                                                                                                                                                                                                                                                                                                                                                                                                                                                                                                                                                                                    </g>
                            </svg>