<svg width='83' height='83' >
                                <g transform="translate(3, 70) scale(0.07, -0.07)">
                                    <!-- 先将完整的字以灰色字体绘制完成，层级位于下面 -->
                                                                        <path d="M 321 519 Q 402 546 405 549 Q 412 556 408 565 Q 401 575 371 580 Q 346 584 323 573 L 274 553 Q 184 526 134 517 Q 100 508 126 494 Q 171 476 224 492 Q 246 499 273 506 L 321 519 Z" style="fill: #0070C0;"></path>
                                                                        <path d="M 268 323 Q 265 241 264 137 Q 263 113 250 105 Q 244 101 185 104 Q 152 114 155 104 Q 156 97 177 83 Q 235 38 249 12 Q 265 -18 280 -19 Q 295 -20 309 15 Q 325 61 324 133 Q 318 248 318 363 L 318 394 Q 318 458 321 519 L 323 573 Q 330 702 346 752 Q 362 782 308 805 Q 275 824 255 818 Q 237 811 253 788 Q 274 761 275 727 Q 276 709 274 553 L 273 506 Q 272 445 269 365 L 268 323 Z" style="fill: #0070C0;"></path>
                                                                        <path d="M 269 365 Q 187 317 115 270 Q 82 251 60 243 Q 48 237 46 229 Q 46 220 60 207 Q 79 194 101 186 Q 116 182 126 194 Q 211 281 268 323 L 318 363 Q 333 376 348 386 Q 367 398 377 412 Q 383 425 372 424 Q 357 423 318 394 L 269 365 Z" style="fill: #0070C0;"></path>
                                                                        <path d="M 588 687 Q 604 706 622 729 Q 640 754 654 765 Q 661 772 659 783 Q 656 793 636 812 Q 617 828 603 829 Q 588 828 593 811 Q 611 762 459 591 Q 450 584 448 579 Q 445 572 456 572 Q 487 576 573 670 L 588 687 Z" style="fill: #0070C0;"></path>
                                                                        <path d="M 625 533 Q 736 653 758 667 Q 774 677 764 689 Q 751 701 717 721 Q 702 727 688 718 Q 681 714 619 695 Q 606 691 588 687 C 559 680 549 678 573 670 Q 586 661 653 672 Q 665 678 669 672 Q 673 669 667 659 Q 627 577 602 539 Q 598 532 594 526 C 578 501 605 511 625 533 Z" style="fill: #0070C0;"></path>
                                                                        <path d="M 456 505 Q 446 509 422 511 Q 412 514 408 508 Q 404 502 412 489 Q 439 443 458 364 Q 462 340 477 325 Q 493 307 498 321 Q 501 330 500 343 L 496 373 Q 480 446 474 474 C 468 501 468 501 456 505 Z" style="fill: #0070C0;"></path>
                                                                        <path d="M 777 405 Q 805 477 834 496 Q 850 512 837 530 Q 765 588 712 558 Q 667 543 625 533 L 594 526 Q 527 514 456 505 C 426 501 445 468 474 474 Q 483 475 495 479 Q 529 486 565 492 L 602 499 Q 654 509 708 520 Q 735 527 746 515 Q 753 508 751 490 Q 742 450 732 415 C 724 386 766 377 777 405 Z" style="fill: #0070C0;"></path>
                                                                        <path d="M 610 358 Q 680 368 784 376 Q 794 377 795 385 Q 795 392 777 405 L 732 415 Q 728 416 724 414 Q 669 402 619 391 L 570 383 Q 530 379 496 373 C 466 368 470 339 500 343 Q 503 343 565 352 L 610 358 Z" style="fill: #0070C0;"></path>
                                                                        <path d="M 565 352 Q 529 165 367 75 Q 354 66 340 57 Q 328 50 339 47 Q 351 46 381 56 Q 433 77 473 111 Q 513 141 560 218 Q 590 278 610 358 L 619 391 Q 619 392 620 394 Q 626 427 641 454 Q 650 469 636 477 Q 620 490 602 499 C 576 514 555 520 565 492 Q 565 491 567 486 Q 582 453 570 383 L 565 352 Z" style="fill: #0070C0;"></path>
                                                                        <path d="M 989 87 Q 976 117 960 208 Q 960 224 953 230 Q 947 234 942 215 Q 911 118 892 89 Q 879 76 844 68 Q 763 53 701 75 Q 676 87 671 101 Q 650 147 686 298 Q 692 326 647 347 Q 635 351 627 347 Q 620 344 625 327 Q 635 290 630 254 Q 612 85 641 52 Q 662 31 707 16 Q 857 -26 982 44 Q 1001 60 989 87 Z" style="fill: #0070C0;"></path>
                                    
                                    
                                                                                                                                                                                                                                                                                                                                                                                                                                                                                                                                                                                                                                                                                                                                                                                                                                                                    </g>
                            </svg>