<svg width='83' height='83' >
                                <g transform="translate(3, 70) scale(0.07, -0.07)">
                                    <!-- 先将完整的字以灰色字体绘制完成，层级位于下面 -->
                                                                        <path d="M 307 551 Q 322 557 339 561 Q 369 571 373 575 Q 382 584 376 592 Q 369 604 338 609 Q 323 610 309 607 L 260 590 Q 188 563 119 551 Q 82 541 110 527 Q 152 509 230 530 Q 243 534 260 538 L 307 551 Z" style="fill: #0070C0;"></path>
                                                                        <path d="M 255 347 Q 252 259 251 147 Q 250 125 237 116 Q 231 113 168 126 Q 137 139 139 129 Q 140 122 159 107 Q 217 58 232 30 Q 248 -1 263 -4 Q 276 -5 292 28 Q 310 71 309 142 Q 303 265 303 386 L 303 417 Q 303 484 307 551 L 309 607 Q 309 680 328 742 Q 344 770 292 793 Q 261 812 241 805 Q 225 799 239 777 Q 260 750 261 718 Q 262 703 260 590 L 260 538 Q 259 475 256 389 L 255 347 Z" style="fill: #0070C0;"></path>
                                                                        <path d="M 256 389 Q 63 275 59 272 Q 44 266 42 257 Q 42 248 56 235 Q 75 222 97 214 Q 112 210 122 223 Q 161 266 255 347 L 303 386 Q 318 399 334 410 Q 352 423 361 436 Q 367 449 356 448 Q 344 448 303 417 L 256 389 Z" style="fill: #0070C0;"></path>
                                                                        <path d="M 477 700 Q 465 725 447 735 Q 444 739 438 735 Q 434 732 432 721 Q 438 691 406 620 Q 396 604 397 586 Q 400 567 409 554 Q 416 542 422 550 Q 434 553 450 601 Q 463 646 478 672 C 485 685 485 685 477 700 Z" style="fill: #0070C0;"></path>
                                                                        <path d="M 478 672 Q 499 662 543 673 Q 616 700 736 714 Q 749 717 756 715 Q 774 705 772 696 Q 772 695 748 628 Q 744 616 749 613 Q 756 610 769 621 Q 814 658 853 671 Q 884 684 883 692 Q 882 701 817 745 Q 799 758 778 753 Q 735 746 682 735 Q 627 728 541 710 Q 508 704 477 700 C 447 696 449 680 478 672 Z" style="fill: #0070C0;"></path>
                                                                        <path d="M 511 586 Q 517 571 480 515 Q 464 491 439 464 Q 432 458 429 454 Q 426 447 436 448 Q 469 448 543 525 Q 553 537 562 542 Q 569 548 568 558 Q 567 567 549 585 Q 533 600 520 601 Q 507 602 511 586 Z" style="fill: #0070C0;"></path>
                                                                        <path d="M 672 569 Q 699 544 728 513 Q 738 503 752 502 Q 761 502 765 513 Q 769 525 764 549 Q 757 580 670 609 Q 657 613 652 611 Q 648 607 648 597 Q 651 587 672 569 Z" style="fill: #0070C0;"></path>
                                                                        <path d="M 631 360 Q 673 369 813 386 Q 823 385 833 398 Q 834 410 811 420 Q 781 441 713 421 Q 674 412 636 403 Q 633 403 633 402 L 585 392 Q 552 388 408 369 Q 380 365 402 348 Q 429 324 481 332 Q 518 341 565 348 L 631 360 Z" style="fill: #0070C0;"></path>
                                                                        <path d="M 633 402 Q 634 436 638 453 Q 641 465 634 471 Q 612 490 593 500 Q 581 504 572 497 Q 566 493 573 484 Q 583 468 585 392 L 582 285 Q 582 167 563 89 Q 554 47 585 0 Q 595 -19 604 -22 Q 614 -23 620 -11 Q 633 20 629 50 Q 628 197 629 318 L 631 360 L 633 402 Z" style="fill: #0070C0;"></path>
                                                                        <path d="M 565 348 Q 505 228 339 98 Q 327 86 336 85 Q 345 81 356 86 Q 467 132 582 285 C 638 359 579 375 565 348 Z" style="fill: #0070C0;"></path>
                                                                        <path d="M 629 318 Q 695 221 777 115 Q 795 96 824 96 Q 926 97 957 102 Q 967 103 968 109 Q 969 113 956 121 Q 800 193 744 248 Q 690 297 631 360 C 610 382 612 343 629 318 Z" style="fill: #0070C0;"></path>
                                    
                                    
                                                                                                                                                                                                                                                                                                                                                                                                                                                                                                                                                                                                                                                                                                                                                                                                                                                                                                                                                </g>
                            </svg>