<svg width='83' height='83' >
                                <g transform="translate(3, 70) scale(0.07, -0.07)">
                                    <!-- 先将完整的字以灰色字体绘制完成，层级位于下面 -->
                                                                        <path d="M 336 517 Q 348 521 363 525 Q 393 535 397 539 Q 406 548 400 556 Q 393 568 362 573 Q 349 574 338 572 L 288 555 Q 207 527 143 515 Q 106 505 134 491 Q 176 473 254 494 Q 269 498 286 502 L 336 517 Z" style="fill: #0070C0;"></path>
                                                                        <path d="M 280 315 Q 277 236 275 137 Q 274 115 262 105 Q 258 102 189 111 Q 156 123 159 113 Q 160 106 180 91 Q 241 42 257 15 Q 275 -18 290 -19 Q 305 -20 319 15 Q 338 60 336 133 Q 332 245 332 359 L 332 388 Q 332 452 336 517 L 338 572 Q 347 698 361 740 Q 379 770 324 793 Q 291 812 271 806 Q 253 800 269 777 Q 290 749 291 715 Q 292 699 288 555 L 286 502 Q 285 439 281 356 L 280 315 Z" style="fill: #0070C0;"></path>
                                                                        <path d="M 281 356 Q 197 305 125 255 Q 94 234 71 226 Q 59 220 58 212 Q 57 203 72 191 Q 91 178 113 171 Q 129 167 138 180 Q 204 252 280 315 L 332 359 Q 372 393 377 400 Q 383 413 372 412 Q 350 406 332 388 L 281 356 Z" style="fill: #0070C0;"></path>
                                                                        <path d="M 599 731 Q 627 706 659 677 Q 675 664 692 665 Q 704 666 709 680 Q 713 696 703 729 Q 691 763 592 783 Q 576 787 568 783 Q 562 779 565 765 Q 569 752 599 731 Z" style="fill: #0070C0;"></path>
                                                                        <path d="M 492 574 Q 483 596 464 612 Q 460 616 455 613 Q 449 610 448 599 Q 449 563 417 501 Q 407 485 407 467 Q 408 448 417 434 Q 424 422 430 430 Q 436 430 445 445 Q 449 452 460 479 Q 479 525 488 542 Q 488 543 489 544 C 498 561 498 561 492 574 Z" style="fill: #0070C0;"></path>
                                                                        <path d="M 489 544 Q 507 529 550 542 Q 658 570 757 589 Q 794 590 795 575 Q 796 562 771 504 Q 764 488 771 485 Q 778 481 791 494 Q 863 552 892 565 Q 914 571 913 585 Q 912 597 837 633 Q 815 643 788 635 Q 718 616 657 601 Q 588 588 492 574 C 462 570 462 557 489 544 Z" style="fill: #0070C0;"></path>
                                                                        <path d="M 523 455 Q 529 434 484 370 Q 462 342 432 310 Q 423 303 421 299 Q 417 292 428 292 Q 465 292 555 385 Q 568 400 578 406 Q 587 413 584 424 Q 583 434 564 453 Q 548 469 533 471 Q 520 471 523 455 Z" style="fill: #0070C0;"></path>
                                                                        <path d="M 710 427 Q 746 399 784 363 Q 796 353 808 353 Q 817 354 821 365 Q 825 377 818 401 Q 809 437 706 466 Q 693 469 688 467 Q 684 463 685 453 Q 688 443 710 427 Z" style="fill: #0070C0;"></path>
                                                                        <path d="M 635 246 Q 779 276 783 279 Q 792 286 787 296 Q 780 308 750 316 Q 725 320 624 292 Q 525 277 506 274 Q 469 268 495 250 Q 540 226 597 239 L 635 246 Z" style="fill: #0070C0;"></path>
                                                                        <path d="M 649 92 Q 655 141 661 181 Q 667 215 649 234 Q 642 241 635 246 C 611 264 591 268 597 239 Q 604 209 604 87 C 604 57 645 62 649 92 Z" style="fill: #0070C0;"></path>
                                                                        <path d="M 604 87 Q 507 77 393 66 Q 372 65 387 47 Q 400 32 419 27 Q 440 20 456 25 Q 663 71 893 52 Q 912 52 918 60 Q 924 72 908 86 Q 859 125 800 116 Q 740 106 649 92 L 604 87 Z" style="fill: #0070C0;"></path>
                                    
                                    
                                                                                                                                                                                                                                                                                                                                                                                                                                                                                                                                                                                                                                                                                                                                                                                                                                                                                                                                                </g>
                            </svg>