<svg width='83' height='83' >
                                <g transform="translate(3, 70) scale(0.07, -0.07)">
                                    <!-- 先将完整的字以灰色字体绘制完成，层级位于下面 -->
                                                                        <path d="M 301 558 Q 319 565 342 570 Q 373 580 377 585 Q 384 592 380 601 Q 373 611 343 616 Q 324 619 303 613 L 254 593 Q 185 568 122 557 Q 88 548 114 534 Q 148 519 218 535 Q 234 541 254 545 L 301 558 Z" style="fill: #0070C0;"></path>
                                                                        <path d="M 251 352 Q 250 259 249 141 Q 249 119 236 109 Q 229 106 167 122 Q 137 135 139 125 Q 140 118 158 103 Q 216 51 230 23 Q 246 -10 262 -12 Q 275 -13 290 20 Q 309 63 308 135 Q 301 265 299 394 L 299 423 Q 299 492 301 558 L 303 613 Q 303 700 321 759 Q 337 787 284 809 Q 253 827 233 820 Q 217 814 232 792 Q 251 767 254 734 Q 255 718 254 593 L 254 545 Q 253 481 251 393 L 251 352 Z" style="fill: #0070C0;"></path>
                                                                        <path d="M 251 393 Q 172 345 105 299 Q 72 278 51 270 Q 39 264 38 256 Q 37 247 51 235 Q 70 222 93 215 Q 103 212 123 230 Q 172 287 251 352 L 299 394 Q 341 431 345 436 Q 351 449 340 448 Q 334 448 299 423 L 251 393 Z" style="fill: #0070C0;"></path>
                                                                        <path d="M 559 611 Q 605 626 692 644 Q 696 645 703 647 C 732 654 716 671 686 668 Q 611 661 531 643 Q 524 640 520 643 Q 519 646 523 653 Q 608 762 625 780 Q 637 789 631 800 Q 625 812 582 833 Q 567 840 559 837 Q 547 831 552 813 Q 567 762 486 668 Q 467 650 440 632 Q 427 622 431 611 Q 435 596 458 578 Q 468 568 480 578 Q 496 588 538 605 L 559 611 Z" style="fill: #0070C0;"></path>
                                                                        <path d="M 703 647 Q 724 616 739 613 Q 748 612 753 621 Q 759 631 757 655 Q 754 691 665 735 Q 653 739 648 738 Q 644 737 643 726 Q 644 714 686 668 L 703 647 Z" style="fill: #0070C0;"></path>
                                                                        <path d="M 555 475 Q 588 484 630 487 L 657 490 Q 721 500 810 503 Q 864 503 868 513 Q 872 523 857 535 Q 808 569 748 552 Q 661 534 573 514 L 520 504 Q 453 494 382 480 Q 363 477 378 463 Q 391 451 407 447 Q 426 443 441 448 Q 468 457 501 464 L 555 475 Z" style="fill: #0070C0;"></path>
                                                                        <path d="M 501 464 Q 438 371 342 293 Q 327 284 312 271 Q 305 265 311 262 Q 341 256 430 320 Q 502 369 555 475 L 573 514 Q 582 533 601 564 Q 608 571 603 580 Q 599 589 574 604 Q 567 608 559 611 C 538 621 538 621 538 605 Q 537 604 538 598 Q 541 553 521 506 Q 520 506 520 504 L 501 464 Z" style="fill: #0070C0;"></path>
                                                                        <path d="M 630 487 Q 649 457 786 321 Q 805 306 838 304 Q 899 303 963 316 Q 979 317 981 323 Q 982 329 970 333 Q 793 391 732 434 Q 713 447 694 461 Q 672 479 657 490 C 633 508 612 511 630 487 Z" style="fill: #0070C0;"></path>
                                                                        <path d="M 569 414 Q 573 368 500 287 Q 497 286 497 284 Q 475 262 421 217 Q 415 213 423 211 Q 498 211 618 364 Q 624 371 628 374 Q 634 377 633 385 Q 629 406 599 420 Q 583 426 575 425 Q 568 424 569 414 Z" style="fill: #0070C0;"></path>
                                                                        <path d="M 629 335 Q 633 278 540 187 Q 515 162 450 113 Q 443 109 451 107 Q 496 107 587 185 Q 588 188 592 189 Q 625 219 676 282 Q 683 289 687 294 Q 693 297 693 305 Q 689 326 659 340 Q 644 347 635 346 Q 628 345 629 335 Z" style="fill: #0070C0;"></path>
                                                                        <path d="M 679 249 Q 689 189 578 57 Q 575 56 574 53 Q 541 19 462 -48 Q 453 -52 464 -56 Q 506 -56 602 21 Q 669 84 743 183 Q 750 193 757 199 Q 764 203 763 214 Q 760 239 718 257 Q 697 264 687 263 Q 678 262 679 249 Z" style="fill: #0070C0;"></path>
                                    
                                    
                                                                                                                                                                                                                                                                                                                                                                                                                                                                                                                                                                                                                                                                                                                                                                                                                                                                                                                                                </g>
                            </svg>