<svg width='83' height='83' >
                                <g transform="translate(3, 70) scale(0.07, -0.07)">
                                    <!-- 先将完整的字以灰色字体绘制完成，层级位于下面 -->
                                                                        <path d="M 303 533 Q 316 539 331 542 Q 361 552 365 557 Q 372 564 368 573 Q 361 583 331 588 Q 318 589 305 587 L 254 568 Q 167 538 114 529 Q 80 520 106 506 Q 142 491 211 507 Q 230 513 254 519 L 303 533 Z" style="fill: #0070C0;"></path>
                                                                        <path d="M 250 347 Q 247 256 246 141 Q 245 119 233 109 Q 229 106 161 115 Q 128 127 131 117 Q 132 110 152 95 Q 213 46 229 19 Q 247 -14 262 -15 Q 277 -16 291 19 Q 309 64 307 137 Q 300 264 300 390 L 300 419 Q 300 477 303 533 L 305 587 Q 306 597 307 607 Q 311 695 326 740 Q 342 771 288 793 Q 254 812 235 806 Q 217 799 233 776 Q 255 749 255 715 Q 256 699 254 568 L 254 519 Q 253 462 251 387 L 250 347 Z" style="fill: #0070C0;"></path>
                                                                        <path d="M 251 387 Q 49 258 47 251 Q 46 242 60 230 Q 79 217 100 212 Q 109 211 128 227 Q 176 284 250 347 L 300 390 Q 309 400 320 407 Q 338 419 345 432 Q 351 445 341 444 Q 319 438 300 419 L 251 387 Z" style="fill: #0070C0;"></path>
                                                                        <path d="M 457 484 Q 454 480 452 475 Q 413 405 343 332 Q 324 317 341 320 Q 449 342 548 566 Q 572 632 584 643 Q 594 653 588 663 Q 584 672 535 688 Q 525 692 505 680 Q 480 665 415 653 Q 403 650 413 639 Q 423 629 451 636 Q 503 649 507 641 Q 513 631 501 588 Q 495 557 474 515 L 457 484 Z" style="fill: #0070C0;"></path>
                                                                        <path d="M 474 515 Q 473 521 469 526 Q 454 547 394 553 Q 387 553 386 544 Q 386 534 435 494 Q 445 487 457 484 C 483 477 481 486 474 515 Z" style="fill: #0070C0;"></path>
                                                                        <path d="M 654 632 Q 681 650 723 682 Q 736 697 756 707 Q 774 717 763 731 Q 751 744 728 754 Q 707 764 697 760 Q 687 759 691 747 Q 695 725 640 642 C 623 617 629 615 654 632 Z" style="fill: #0070C0;"></path>
                                                                        <path d="M 736 547 Q 763 557 782 565 Q 828 590 860 597 Q 879 601 873 618 Q 866 634 846 650 Q 830 665 818 665 Q 808 666 809 654 Q 809 639 734 572 Q 727 568 721 562 C 699 542 708 537 736 547 Z" style="fill: #0070C0;"></path>
                                                                        <path d="M 721 562 Q 691 592 654 632 L 640 642 Q 636 643 632 644 Q 607 644 599 636 Q 596 630 605 625 Q 636 609 656 582 Q 825 369 856 366 Q 913 366 976 381 Q 989 382 994 390 Q 997 396 988 399 Q 843 451 774 513 Q 755 529 736 547 L 721 562 Z" style="fill: #0070C0;"></path>
                                                                        <path d="M 580 368 Q 712 402 720 409 Q 729 416 724 425 Q 717 435 688 441 Q 664 444 590 418 Q 539 402 479 393 Q 445 386 470 370 Q 495 360 535 358 L 580 368 Z" style="fill: #0070C0;"></path>
                                                                        <path d="M 590 241 Q 662 251 805 252 Q 823 253 827 261 Q 831 271 817 283 Q 769 319 714 304 Q 666 295 597 280 L 541 271 Q 471 261 391 248 Q 372 247 386 231 Q 399 219 415 214 Q 434 210 448 214 Q 490 226 536 233 L 590 241 Z" style="fill: #0070C0;"></path>
                                                                        <path d="M 536 233 Q 518 122 416 53 Q 395 40 367 24 Q 345 11 372 13 Q 411 10 481 51 Q 557 96 590 241 L 597 280 Q 600 322 609 337 Q 616 343 610 352 Q 606 359 580 368 C 552 379 530 387 535 358 Q 544 309 541 271 L 536 233 Z" style="fill: #0070C0;"></path>
                                                                        <path d="M 632 153 Q 687 101 751 27 Q 766 8 781 2 Q 788 1 797 11 Q 810 23 798 67 Q 786 119 634 184 Q 625 188 623 177 Q 622 164 632 153 Z" style="fill: #0070C0;"></path>
                                    
                                    
                                                                                                                                                                                                                                                                                                                                                                                                                                                                                                                                                                                                                                                                                                                                                                                                                                                                                                                                                                                                                            </g>
                            </svg>