<svg width='83' height='83' >
                                <g transform="translate(3, 70) scale(0.07, -0.07)">
                                    <!-- 先将完整的字以灰色字体绘制完成，层级位于下面 -->
                                                                        <path d="M 316 532 Q 398 559 401 561 Q 408 568 404 577 Q 397 587 367 593 Q 342 597 318 586 L 270 567 Q 182 540 134 533 Q 100 524 126 510 Q 171 489 224 507 Q 243 514 269 519 L 316 532 Z" style="fill: #0070C0;"></path>
                                                                        <path d="M 264 342 Q 261 245 259 122 Q 258 97 245 89 Q 239 85 175 102 Q 145 115 147 105 Q 148 98 166 83 Q 224 31 238 3 Q 254 -30 270 -32 Q 283 -33 299 0 Q 317 43 318 114 Q 311 247 312 381 L 312 409 Q 313 470 316 532 L 318 586 Q 327 709 340 750 Q 356 778 304 801 Q 273 820 253 813 Q 237 807 251 785 Q 272 758 272 726 Q 273 708 270 567 L 269 519 Q 268 459 265 381 L 264 342 Z" style="fill: #0070C0;"></path>
                                                                        <path d="M 265 381 Q 43 251 43 247 Q 42 247 42 245 Q 42 236 56 223 Q 75 210 97 202 Q 109 199 131 220 Q 191 284 264 342 L 312 381 Q 319 388 330 395 Q 348 407 357 420 Q 363 433 352 432 Q 333 431 312 409 L 265 381 Z" style="fill: #0070C0;"></path>
                                                                        <path d="M 604 634 Q 758 671 763 676 Q 770 683 767 690 Q 760 700 735 706 Q 710 710 684 700 Q 647 687 612 675 L 557 662 Q 517 655 471 648 Q 440 642 462 628 Q 498 609 546 621 Q 547 622 551 622 L 604 634 Z" style="fill: #0070C0;"></path>
                                                                        <path d="M 538 553 Q 504 547 466 542 Q 436 536 458 524 Q 486 509 527 514 L 582 528 Q 729 564 736 569 Q 743 576 739 583 Q 732 592 709 597 Q 685 601 661 591 Q 627 579 592 568 L 538 553 Z" style="fill: #0070C0;"></path>
                                                                        <path d="M 506 447 Q 454 438 401 427 Q 385 424 397 411 Q 427 390 457 399 Q 470 405 490 408 L 546 422 Q 588 435 633 438 L 660 442 Q 715 449 792 454 Q 837 454 845 464 Q 849 474 834 484 Q 788 515 725 495 Q 673 483 598 466 Q 579 463 560 458 L 506 447 Z" style="fill: #0070C0;"></path>
                                                                        <path d="M 612 675 Q 621 732 638 769 Q 644 779 636 787 Q 620 805 588 822 Q 569 832 552 829 Q 533 823 546 805 Q 570 775 567 746 Q 563 703 557 662 L 551 622 Q 545 586 538 553 L 527 514 Q 517 480 506 447 L 490 408 Q 448 308 343 213 Q 331 206 329 202 Q 325 195 341 196 Q 387 196 483 309 Q 495 325 507 344 Q 526 378 546 422 L 560 458 Q 572 492 582 528 L 592 568 Q 599 601 604 634 L 612 675 Z" style="fill: #0070C0;"></path>
                                                                        <path d="M 633 438 Q 634 437 637 434 Q 781 251 829 239 Q 937 239 968 244 Q 984 245 986 250 Q 987 256 975 261 Q 812 327 797 337 Q 757 358 694 412 Q 675 431 660 442 C 636 461 613 461 633 438 Z" style="fill: #0070C0;"></path>
                                                                        <path d="M 578 278 Q 690 303 696 308 Q 703 315 699 322 Q 692 332 667 337 Q 654 340 565 315 Q 537 308 502 304 Q 471 298 494 284 Q 512 274 546 273 L 578 278 Z" style="fill: #0070C0;"></path>
                                                                        <path d="M 548 193 Q 487 181 417 167 Q 401 164 414 151 Q 426 141 441 137 Q 459 133 471 138 Q 502 148 540 155 L 594 165 Q 666 178 761 179 Q 777 180 781 188 Q 785 198 770 208 Q 722 241 653 217 Q 632 213 607 206 L 548 193 Z" style="fill: #0070C0;"></path>
                                                                        <path d="M 546 273 Q 545 270 547 265 Q 556 241 548 193 L 540 155 Q 506 49 393 -15 Q 381 -22 391 -25 Q 437 -29 496 14 Q 563 62 590 152 Q 591 159 594 165 L 607 206 Q 611 219 619 229 Q 628 244 615 252 Q 594 273 578 278 C 551 291 542 295 546 273 Z" style="fill: #0070C0;"></path>
                                                                        <path d="M 635 107 Q 687 58 750 -14 Q 763 -33 778 -37 Q 785 -38 793 -30 Q 805 -18 794 22 Q 784 79 637 135 Q 630 141 627 129 Q 626 117 635 107 Z" style="fill: #0070C0;"></path>
                                    
                                    
                                                                                                                                                                                                                                                                                                                                                                                                                                                                                                                                                                                                                                                                                                                                                                                                                                                                                                                                                                                                                            </g>
                            </svg>