<svg width='83' height='83' >
                                <g transform="translate(3, 70) scale(0.07, -0.07)">
                                    <!-- 先将完整的字以灰色字体绘制完成，层级位于下面 -->
                                                                        <path d="M 331 564 Q 343 568 357 572 Q 388 582 393 587 Q 402 596 396 604 Q 389 616 358 621 Q 345 622 333 620 L 283 603 Q 189 570 127 559 Q 90 549 118 535 Q 163 516 226 535 Q 253 544 283 551 L 331 564 Z" style="fill: #0070C0;"></path>
                                                                        <path d="M 282 366 Q 282 266 282 135 Q 281 110 268 101 Q 259 94 236 101 Q 211 107 185 112 Q 152 122 155 112 Q 156 105 177 91 Q 244 42 262 12 Q 283 -22 299 -23 Q 312 -23 327 11 Q 345 57 342 130 Q 332 269 330 406 L 330 435 Q 329 501 331 564 L 333 620 Q 333 714 351 777 Q 367 808 312 829 Q 278 848 259 841 Q 241 834 257 811 Q 279 784 281 750 Q 282 734 283 603 L 283 551 Q 283 490 282 406 L 282 366 Z" style="fill: #0070C0;"></path>
                                                                        <path d="M 282 406 Q 68 282 67 280 Q 52 274 50 265 Q 50 256 64 243 Q 83 230 105 222 Q 120 218 130 230 Q 217 317 282 366 L 330 406 Q 340 415 352 422 Q 371 434 381 448 Q 387 461 376 460 Q 370 460 330 435 L 282 406 Z" style="fill: #0070C0;"></path>
                                                                        <path d="M 621 670 Q 696 703 753 714 Q 769 715 773 723 Q 777 733 765 745 Q 744 761 701 778 Q 685 785 672 784 Q 665 780 664 770 Q 664 731 473 644 Q 467 635 474 632 Q 492 632 573 656 Q 576 657 583 658 L 621 670 Z" style="fill: #0070C0;"></path>
                                                                        <path d="M 663 499 Q 744 512 863 517 Q 918 517 925 527 Q 929 539 913 551 Q 859 588 792 566 Q 737 554 663 537 L 612 527 Q 515 509 403 489 Q 384 486 398 471 Q 423 447 473 459 Q 536 480 612 491 L 663 499 Z" style="fill: #0070C0;"></path>
                                                                        <path d="M 661 102 Q 661 324 663 499 L 663 537 Q 663 573 665 609 Q 672 628 662 640 Q 640 659 621 670 C 596 686 571 686 583 658 Q 608 601 611 559 Q 611 540 612 527 L 612 491 Q 612 382 612 94 C 612 64 661 72 661 102 Z" style="fill: #0070C0;"></path>
                                                                        <path d="M 466 315 Q 538 357 575 372 Q 590 375 587 384 Q 584 397 570 414 Q 557 430 539 434 Q 527 435 526 419 Q 527 404 456 333 C 435 312 440 300 466 315 Z" style="fill: #0070C0;"></path>
                                                                        <path d="M 504 77 Q 503 96 499 118 Q 489 169 483 206 L 478 234 Q 468 294 467 312 Q 466 313 466 315 C 464 330 464 330 456 333 Q 443 339 413 345 Q 400 349 397 343 Q 390 337 399 321 Q 435 237 452 104 Q 453 64 476 36 Q 494 14 499 29 Q 502 39 503 52 L 504 77 Z" style="fill: #0070C0;"></path>
                                                                        <path d="M 483 206 Q 538 218 581 224 Q 603 230 594 241 Q 582 254 558 256 Q 527 259 478 234 C 451 221 454 200 483 206 Z" style="fill: #0070C0;"></path>
                                                                        <path d="M 777 76 Q 777 69 781 59 Q 787 43 800 45 Q 813 48 820 63 Q 841 99 863 261 Q 878 313 913 343 Q 931 359 914 374 Q 896 390 846 415 Q 833 424 790 411 Q 747 402 703 390 Q 690 390 687 385 Q 684 381 698 372 Q 722 360 754 367 Q 805 376 810 374 Q 826 365 820 316 Q 816 294 813 273 L 808 239 Q 793 148 784 110 L 777 76 Z" style="fill: #0070C0;"></path>
                                                                        <path d="M 813 273 Q 792 283 699 252 Q 683 249 702 234 Q 708 230 721 231 Q 769 237 808 239 C 838 241 841 263 813 273 Z" style="fill: #0070C0;"></path>
                                                                        <path d="M 612 94 Q 554 87 504 77 C 475 71 474 58 503 52 Q 516 48 539 50 Q 675 66 777 76 C 807 79 813 102 784 110 Q 763 120 661 102 L 612 94 Z" style="fill: #0070C0;"></path>
                                    
                                    
                                                                                                                                                                                                                                                                                                                                                                                                                                                                                                                                                                                                                                                                                                                                                                                                                                                                                                                                                                                                                            </g>
                            </svg>