<svg width='83' height='83' >
                                <g transform="translate(3, 70) scale(0.07, -0.07)">
                                    <!-- 先将完整的字以灰色字体绘制完成，层级位于下面 -->
                                                                        <path d="M 321 587 Q 411 615 413 617 Q 420 624 416 633 Q 409 643 380 649 Q 350 653 323 640 L 274 621 Q 190 596 123 585 Q 89 576 114 562 Q 162 541 209 557 Q 240 566 274 574 L 321 587 Z" style="fill: #0070C0;"></path>
                                                                        <path d="M 271 393 Q 270 299 268 178 Q 267 156 255 146 Q 249 143 199 156 Q 169 171 170 161 Q 171 154 189 138 Q 240 86 252 59 Q 265 28 279 24 Q 292 23 308 56 Q 327 99 328 171 Q 319 304 319 436 L 319 469 Q 318 529 321 587 L 323 640 Q 323 724 341 783 Q 357 811 304 833 Q 273 851 253 844 Q 237 838 252 816 Q 271 791 274 758 Q 275 742 274 621 L 274 574 Q 273 516 271 435 L 271 393 Z" style="fill: #0070C0;"></path>
                                                                        <path d="M 271 435 Q 184 377 110 320 Q 79 298 58 290 Q 46 283 45 275 Q 44 266 59 254 Q 78 241 102 236 Q 117 233 126 245 Q 180 308 271 393 L 319 436 Q 332 449 349 462 Q 368 477 377 492 Q 383 505 372 504 Q 366 504 319 469 L 271 435 Z" style="fill: #0070C0;"></path>
                                                                        <path d="M 517 781 Q 504 785 477 786 Q 465 787 463 783 Q 457 776 467 762 Q 495 719 519 645 Q 525 623 540 609 Q 559 590 562 606 Q 563 616 563 629 L 556 659 Q 538 729 533 753 C 528 778 528 778 517 781 Z" style="fill: #0070C0;"></path>
                                                                        <path d="M 745 690 Q 766 741 793 759 Q 809 775 795 792 Q 726 846 672 818 Q 602 797 517 781 C 488 775 504 746 533 753 Q 542 756 682 784 Q 700 788 707 781 Q 714 774 712 760 Q 705 724 696 694 C 688 665 733 662 745 690 Z" style="fill: #0070C0;"></path>
                                                                        <path d="M 563 629 Q 569 629 576 630 Q 633 645 758 659 Q 768 660 768 669 Q 768 676 745 690 C 726 702 725 702 696 694 Q 617 672 556 659 C 527 653 533 628 563 629 Z" style="fill: #0070C0;"></path>
                                                                        <path d="M 743 554 Q 789 561 831 566 Q 841 565 849 576 Q 850 586 830 596 Q 806 614 729 594 Q 564 563 457 546 Q 441 545 424 542 Q 399 539 418 523 Q 428 516 441 507 Q 454 500 473 506 L 515 514 Q 588 530 684 545 L 743 554 Z" style="fill: #0070C0;"></path>
                                                                        <path d="M 473 506 Q 482 475 485 390 Q 485 333 488 229 C 489 199 529 204 529 234 Q 529 280 530 319 L 531 344 Q 531 381 533 416 L 533 439 Q 533 457 535 474 Q 544 495 515 514 C 491 532 466 535 473 506 Z" style="fill: #0070C0;"></path>
                                                                        <path d="M 754 269 Q 754 449 767 521 Q 770 539 756 547 Q 749 551 743 554 C 717 569 670 571 684 545 Q 705 511 705 479 Q 706 388 705 260 L 704 223 Q 695 -17 718 -53 Q 724 -60 731 -58 Q 744 -49 751 7 Q 752 35 754 227 L 754 269 Z" style="fill: #0070C0;"></path>
                                                                        <path d="M 533 416 Q 537 416 545 417 Q 606 427 653 434 Q 672 438 665 449 Q 655 462 633 465 Q 606 466 533 439 C 505 429 503 415 533 416 Z" style="fill: #0070C0;"></path>
                                                                        <path d="M 530 319 Q 531 319 535 319 Q 607 329 659 335 Q 680 338 673 349 Q 663 362 641 367 Q 613 371 531 344 C 502 335 500 319 530 319 Z" style="fill: #0070C0;"></path>
                                                                        <path d="M 754 227 Q 808 230 936 231 Q 955 231 959 239 Q 963 249 949 263 Q 897 302 832 284 Q 796 278 754 269 L 705 260 Q 674 256 638 250 Q 586 243 529 234 L 488 229 Q 425 223 359 213 Q 340 210 354 195 Q 367 182 384 177 Q 403 173 419 177 Q 558 216 704 223 L 754 227 Z" style="fill: #0070C0;"></path>
                                    
                                    
                                                                                                                                                                                                                                                                                                                                                                                                                                                                                                                                                                                                                                                                                                                                                                                                                                                                                                                                                                                                                            </g>
                            </svg>