<svg width='83' height='83' >
                                <g transform="translate(3, 70) scale(0.07, -0.07)">
                                    <!-- 先将完整的字以灰色字体绘制完成，层级位于下面 -->
                                                                        <path d="M 328 538 Q 347 545 371 550 Q 404 560 409 565 Q 416 572 412 581 Q 405 591 375 597 Q 351 601 330 592 L 281 572 Q 211 548 142 537 Q 108 528 134 514 Q 179 493 232 511 Q 254 518 281 525 L 328 538 Z" style="fill: #0070C0;"></path>
                                                                        <path d="M 278 345 Q 277 254 275 138 Q 274 116 262 107 Q 256 104 192 112 Q 161 122 163 113 Q 164 106 184 92 Q 244 46 259 20 Q 275 -11 291 -12 Q 304 -13 318 21 Q 334 64 333 134 Q 326 257 325 379 L 325 410 Q 325 474 328 538 L 330 592 Q 330 673 349 735 Q 365 763 312 785 Q 281 803 261 797 Q 245 790 260 769 Q 279 742 281 710 Q 282 694 281 572 L 281 525 Q 280 465 278 385 L 278 345 Z" style="fill: #0070C0;"></path>
                                                                        <path d="M 325 379 Q 341 394 360 404 Q 379 414 388 428 Q 395 441 385 440 Q 370 440 325 410 L 278 385 Q 199 345 130 304 Q 96 285 74 280 Q 62 274 60 267 Q 59 258 72 244 Q 91 229 112 221 Q 127 217 138 228 Q 220 306 278 345 L 325 379 Z" style="fill: #0070C0;"></path>
                                                                        <path d="M 660 609 Q 675 612 836 627 Q 846 626 856 638 Q 857 650 835 661 Q 805 683 741 666 Q 663 654 650 648 L 607 641 Q 577 641 457 628 Q 429 627 450 608 Q 477 581 523 589 Q 550 595 580 596 L 660 609 Z" style="fill: #0070C0;"></path>
                                                                        <path d="M 650 648 Q 653 730 675 770 Q 681 780 670 793 Q 618 835 589 825 Q 576 821 582 806 Q 607 764 606 699 Q 606 669 607 641 L 606 552 Q 605 476 597 442 Q 596 427 602 411 Q 608 402 613 390 Q 623 375 637 383 Q 647 392 648 457 Q 644 514 646 588 L 650 648 Z" style="fill: #0070C0;"></path>
                                                                        <path d="M 580 596 Q 540 503 389 390 Q 374 380 388 378 Q 398 377 431 392 Q 470 407 506 436 Q 537 461 571 503 Q 592 528 606 552 C 641 610 596 630 580 596 Z" style="fill: #0070C0;"></path>
                                                                        <path d="M 646 588 Q 703 512 765 440 Q 784 418 818 415 Q 879 409 944 418 Q 960 419 962 423 Q 965 429 952 435 Q 799 499 786 509 Q 759 522 660 609 C 637 629 628 612 646 588 Z" style="fill: #0070C0;"></path>
                                                                        <path d="M 495 330 Q 488 334 470 337 Q 458 341 455 336 Q 448 330 456 315 Q 483 254 495 154 Q 496 124 513 103 Q 529 82 535 97 Q 538 104 539 114 L 539 136 Q 539 148 537 162 Q 533 189 530 210 L 527 232 Q 520 283 520 300 C 519 320 519 320 495 330 Z" style="fill: #0070C0;"></path>
                                                                        <path d="M 706 127 Q 719 108 733 102 Q 743 95 757 114 Q 770 136 795 256 Q 804 284 825 308 Q 838 320 827 333 Q 812 349 772 373 Q 757 379 683 364 Q 677 364 577 345 Q 532 336 495 330 C 465 325 491 292 520 300 Q 586 318 703 333 Q 728 336 736 327 Q 748 314 746 300 Q 728 188 719 170 Q 715 158 702 156 C 689 148 689 148 706 127 Z" style="fill: #0070C0;"></path>
                                                                        <path d="M 530 210 Q 537 209 546 210 Q 625 220 683 227 Q 704 230 697 241 Q 687 254 665 259 Q 641 265 527 232 C 498 224 500 212 530 210 Z" style="fill: #0070C0;"></path>
                                                                        <path d="M 539 114 Q 548 113 559 113 Q 644 123 706 127 C 736 129 731 148 702 156 Q 678 166 539 136 C 510 130 509 117 539 114 Z" style="fill: #0070C0;"></path>
                                                                        <path d="M 401 25 Q 380 24 395 6 Q 408 -7 425 -13 Q 444 -20 461 -16 Q 635 23 889 2 Q 908 1 913 9 Q 919 21 904 35 Q 852 75 818 68 Q 731 53 401 25 Z" style="fill: #0070C0;"></path>
                                    
                                    
                                                                                                                                                                                                                                                                                                                                                                                                                                                                                                                                                                                                                                                                                                                                                                                                                                                                                                                                                                                                                            </g>
                            </svg>