<svg width='83' height='83' >
                                <g transform="translate(3, 70) scale(0.07, -0.07)">
                                    <!-- 先将完整的字以灰色字体绘制完成，层级位于下面 -->
                                                                        <path d="M 308 539 Q 321 545 340 549 Q 373 559 377 565 Q 384 572 380 581 Q 373 591 343 596 Q 327 597 311 593 L 262 575 Q 193 548 114 533 Q 80 524 106 510 Q 149 491 201 508 Q 229 517 261 525 L 308 539 Z" style="fill: #0070C0;"></path>
                                                                        <path d="M 311 593 Q 324 725 332 746 Q 348 774 296 797 Q 265 816 245 809 Q 229 803 243 781 Q 264 756 264 722 Q 265 706 262 575 L 261 525 Q 260 464 258 380 L 257 334 Q 256 241 252 124 Q 251 100 238 91 Q 232 87 164 99 Q 133 111 135 101 Q 136 94 156 80 Q 217 32 233 5 Q 251 -26 266 -28 Q 279 -29 294 4 Q 310 47 310 118 Q 304 247 305 375 L 305 409 Q 305 475 308 539 L 311 593 Z" style="fill: #0070C0;"></path>
                                                                        <path d="M 258 380 Q 63 257 60 255 Q 44 255 40 238 Q 39 228 55 215 Q 74 200 99 194 Q 115 190 125 204 Q 174 258 257 334 L 305 375 Q 324 393 345 408 Q 364 421 373 436 Q 379 449 368 448 Q 350 445 305 409 L 258 380 Z" style="fill: #0070C0;"></path>
                                                                        <path d="M 763 627 Q 782 672 807 689 Q 823 705 809 723 Q 793 736 744 759 Q 728 766 707 758 Q 629 728 513 708 C 483 703 504 670 533 678 Q 534 679 539 680 Q 617 695 691 710 Q 710 714 718 706 Q 725 702 724 689 Q 720 658 714 632 C 708 603 751 600 763 627 Z" style="fill: #0070C0;"></path>
                                                                        <path d="M 517 555 Q 523 555 531 556 Q 609 575 776 593 Q 786 594 788 603 Q 788 612 763 627 L 714 632 Q 713 633 711 632 Q 605 604 520 590 C 490 585 487 553 517 555 Z" style="fill: #0070C0;"></path>
                                                                        <path d="M 513 708 Q 501 717 484 723 Q 465 733 454 728 Q 442 721 449 708 Q 467 681 467 615 Q 466 608 466 599 Q 463 440 427 328 Q 397 240 326 118 Q 322 111 319 105 Q 318 95 327 97 Q 358 103 429 222 Q 439 244 451 268 Q 506 403 517 555 L 520 590 Q 523 648 533 678 C 537 694 537 694 513 708 Z" style="fill: #0070C0;"></path>
                                                                        <path d="M 743 436 Q 821 460 824 461 Q 831 468 827 475 Q 820 484 797 489 Q 773 493 752 484 L 703 465 Q 637 447 623 442 L 578 433 Q 554 430 530 426 Q 500 420 522 408 Q 546 395 582 397 L 622 407 Q 659 417 701 426 L 743 436 Z" style="fill: #0070C0;"></path>
                                                                        <path d="M 623 442 Q 624 464 626 471 Q 630 490 618 500 Q 599 516 577 524 Q 565 528 558 524 Q 551 520 557 506 Q 572 476 578 433 L 582 397 Q 583 369 587 322 C 590 292 622 299 622 329 Q 622 375 622 407 L 623 442 Z" style="fill: #0070C0;"></path>
                                                                        <path d="M 728 351 Q 735 394 743 436 L 752 484 Q 764 532 762 537 Q 759 541 755 545 Q 730 561 712 566 Q 700 570 694 564 Q 687 558 693 547 Q 705 523 703 465 L 701 426 Q 698 389 695 344 C 693 314 723 321 728 351 Z" style="fill: #0070C0;"></path>
                                                                        <path d="M 635 297 Q 674 312 838 319 Q 883 319 888 328 Q 892 338 878 348 Q 832 381 766 360 Q 748 357 728 351 L 695 344 Q 676 341 657 336 Q 638 333 622 329 L 587 322 Q 533 315 477 303 Q 461 300 474 287 Q 492 272 515 271 L 554 279 Q 573 286 597 290 L 635 297 Z" style="fill: #0070C0;"></path>
                                                                        <path d="M 515 271 Q 548 210 526 113 Q 522 83 507 67 Q 483 34 518 -10 Q 521 -13 526 -17 Q 536 -24 548 -8 Q 573 23 659 102 Q 677 115 678 122 Q 679 135 660 125 Q 582 92 576 94 Q 569 100 569 119 Q 576 207 583 230 Q 587 249 575 260 Q 563 273 554 279 C 531 298 502 298 515 271 Z" style="fill: #0070C0;"></path>
                                                                        <path d="M 734 188 Q 800 228 834 244 Q 850 248 847 258 Q 843 271 826 290 Q 810 306 790 310 Q 777 310 777 293 Q 778 280 769 266 Q 750 241 718 204 C 698 181 708 172 734 188 Z" style="fill: #0070C0;"></path>
                                                                        <path d="M 718 204 Q 684 238 649 284 Q 643 291 635 297 C 612 317 574 309 597 290 Q 627 269 690 173 Q 781 40 835 35 Q 916 35 954 51 Q 961 55 952 64 Q 940 71 844 111 Q 787 135 734 188 L 718 204 Z" style="fill: #0070C0;"></path>
                                    
                                    
                                                                                                                                                                                                                                                                                                                                                                                                                                                                                                                                                                                                                                                                                                                                                                                                                                                                                                                                                                                                                                                                                                        </g>
                            </svg>