<svg width='83' height='83' >
                                <g transform="translate(3, 70) scale(0.07, -0.07)">
                                    <!-- 先将完整的字以灰色字体绘制完成，层级位于下面 -->
                                                                        <path d="M 315 528 Q 411 556 412 557 Q 419 564 415 573 Q 408 583 380 590 Q 334 596 317 580 L 269 564 Q 197 546 136 536 Q 100 529 127 514 Q 166 490 224 508 Q 243 514 268 517 L 315 528 Z" style="fill: #0070C0;"></path>
                                                                        <path d="M 265 350 Q 264 265 262 156 Q 261 134 249 124 Q 242 121 180 134 Q 149 147 151 137 Q 152 130 171 115 Q 229 66 244 38 Q 260 7 275 4 Q 288 3 304 36 Q 322 79 321 150 Q 314 270 313 388 L 313 415 Q 313 473 315 528 L 317 580 Q 317 691 337 755 Q 353 783 300 805 Q 269 823 249 817 Q 233 810 248 788 Q 267 763 269 730 Q 270 712 269 564 L 268 517 Q 267 462 265 388 L 265 350 Z" style="fill: #0070C0;"></path>
                                                                        <path d="M 265 388 Q 186 346 120 305 Q 87 286 65 279 Q 53 273 51 266 Q 50 257 64 244 Q 83 229 105 221 Q 120 218 132 232 Q 163 268 265 350 L 313 388 Q 322 395 331 401 Q 347 411 357 424 Q 363 437 352 436 Q 342 435 320 419 Q 316 418 313 415 L 265 388 Z" style="fill: #0070C0;"></path>
                                                                        <path d="M 484 737 Q 503 719 526 698 Q 538 688 552 688 Q 561 689 565 700 Q 569 713 561 739 Q 555 755 531 765 Q 471 783 460 779 Q 456 775 457 764 Q 461 754 484 737 Z" style="fill: #0070C0;"></path>
                                                                        <path d="M 683 810 Q 670 783 605 697 Q 598 681 613 686 Q 659 717 685 740 Q 745 791 761 799 Q 780 809 769 825 Q 756 838 731 851 Q 709 861 697 858 Q 687 857 691 844 Q 695 828 683 810 Z" style="fill: #0070C0;"></path>
                                                                        <path d="M 640 615 Q 781 649 783 650 Q 790 657 787 665 Q 780 675 754 683 Q 730 689 634 658 Q 541 634 453 626 Q 419 620 443 605 L 486 590 L 527 592 Q 528 593 610 609 L 640 615 Z" style="fill: #0070C0;"></path>
                                                                        <path d="M 754 356 Q 764 393 773 419 L 796 468 Q 809 490 823 501 Q 839 519 825 535 Q 809 548 761 571 Q 743 578 723 571 Q 690 558 661 548 L 618 537 Q 602 536 551 522 L 507 515 Q 471 511 436 507 Q 420 506 422 497 Q 425 490 442 483 Q 466 473 499 483 Q 503 484 509 484 L 549 493 Q 583 500 619 507 L 661 515 Q 721 530 734 519 Q 746 506 736 456 L 726 417 Q 719 387 709 359 C 699 331 746 327 754 356 Z" style="fill: #0070C0;"></path>
                                                                        <path d="M 773 419 Q 812 422 902 422 Q 918 423 923 430 Q 927 440 913 452 Q 865 488 807 470 Q 801 470 796 468 L 736 456 Q 700 452 662 444 L 620 437 Q 581 433 546 426 L 509 420 Q 446 413 382 403 Q 364 402 378 387 Q 390 375 406 371 Q 424 367 437 370 Q 471 380 509 387 L 545 395 Q 602 405 621 406 L 662 411 Q 690 415 726 417 L 773 419 Z" style="fill: #0070C0;"></path>
                                                                        <path d="M 668 308 Q 713 315 771 318 Q 781 319 783 328 Q 784 335 754 356 C 743 364 739 363 709 359 Q 684 356 662 348 L 621 340 Q 579 333 542 326 L 506 321 Q 460 315 419 311 Q 400 310 411 292 Q 418 282 427 279 Q 437 276 451 278 Q 470 284 498 287 L 540 293 Q 574 299 620 303 L 668 308 Z" style="fill: #0070C0;"></path>
                                                                        <path d="M 486 590 Q 486 587 496 560 Q 503 544 507 515 L 509 484 Q 509 480 509 475 Q 510 451 509 420 L 509 387 Q 508 357 506 321 L 500 218 Q 496 160 476 88 Q 460 36 494 -7 Q 504 -20 514 -8 Q 533 16 534 138 Q 537 225 540 293 L 542 326 Q 543 363 545 395 L 546 426 Q 547 466 549 493 L 551 522 Q 551 538 553 541 Q 559 572 532 589 Q 531 590 527 592 C 503 610 477 619 486 590 Z" style="fill: #0070C0;"></path>
                                                                        <path d="M 661 548 Q 662 579 664 586 Q 667 596 659 603 Q 652 609 640 615 C 614 631 600 637 610 609 Q 617 599 618 575 Q 618 557 618 537 L 619 507 Q 619 473 620 437 L 621 406 Q 621 375 621 340 L 620 303 Q 620 123 609 24 Q 606 -15 629 -42 Q 639 -55 648 -40 Q 669 2 663 79 Q 663 103 662 274 L 662 348 Q 662 379 662 411 L 662 444 Q 662 472 662 499 Q 661 508 661 515 L 661 548 Z" style="fill: #0070C0;"></path>
                                                                        <path d="M 498 287 Q 449 209 333 100 Q 327 93 337 89 Q 349 86 433 149 Q 466 176 500 218 C 562 294 514 312 498 287 Z" style="fill: #0070C0;"></path>
                                                                        <path d="M 662 274 Q 723 184 800 86 Q 816 70 842 69 Q 930 70 958 75 Q 967 76 968 81 Q 969 85 957 92 Q 828 149 769 203 Q 720 249 668 308 C 648 330 636 313 662 274 Z" style="fill: #0070C0;"></path>
                                    
                                    
                                                                                                                                                                                                                                                                                                                                                                                                                                                                                                                                                                                                                                                                                                                                                                                                                                                                                                                                                                                                                                                                                                        </g>
                            </svg>