<svg width='83' height='83' >
                                <g transform="translate(3, 70) scale(0.07, -0.07)">
                                    <!-- 先将完整的字以灰色字体绘制完成，层级位于下面 -->
                                                                        <path d="M 275 545 Q 290 551 307 555 Q 338 565 342 570 Q 349 579 344 586 Q 337 596 309 599 Q 291 600 277 596 L 230 576 Q 157 549 93 535 Q 60 526 85 513 Q 118 498 193 519 Q 209 525 230 530 L 275 545 Z" style="fill: #0070C0;"></path>
                                                                        <path d="M 227 333 Q 226 245 225 134 Q 224 110 211 101 Q 205 97 128 105 Q 97 115 99 105 Q 100 98 121 85 Q 188 42 206 15 Q 228 -16 243 -15 Q 256 -16 269 17 Q 285 60 281 130 Q 274 251 273 373 L 273 404 Q 272 476 275 545 L 277 596 Q 287 731 297 759 Q 313 787 260 809 Q 229 827 209 821 Q 193 814 208 792 Q 227 767 229 734 Q 230 718 230 576 L 230 530 Q 229 464 227 374 L 227 333 Z" style="fill: #0070C0;"></path>
                                                                        <path d="M 227 374 Q 157 331 97 287 Q 37 251 37 249 Q 36 242 49 230 Q 67 218 86 212 Q 95 211 130 243 Q 172 288 227 333 L 273 373 Q 292 392 315 407 Q 333 420 341 433 Q 345 445 337 443 Q 325 443 273 404 L 227 374 Z" style="fill: #0070C0;"></path>
                                                                        <path d="M 466 648 Q 502 633 549 643 Q 655 664 765 686 Q 814 698 823 705 Q 832 712 827 720 Q 820 732 792 739 Q 764 745 734 734 Q 676 715 615 699 Q 546 683 465 676 Q 462 676 460 674 C 431 667 438 658 466 648 Z" style="fill: #0070C0;"></path>
                                                                        <path d="M 451 438 Q 454 462 462 613 Q 462 628 466 648 C 469 668 469 668 460 674 Q 444 686 421 694 Q 405 703 393 697 Q 383 690 389 679 Q 440 624 395 363 Q 389 336 382 308 Q 354 211 292 100 Q 288 94 287 88 Q 286 78 294 81 Q 306 82 339 129 Q 414 225 446 409 Q 446 418 449 425 L 451 438 Z" style="fill: #0070C0;"></path>
                                                                        <path d="M 484 554 Q 511 497 526 490 Q 535 486 543 498 Q 547 507 545 523 Q 535 554 493 572 Q 487 576 484 567 Q 481 563 484 554 Z" style="fill: #0070C0;"></path>
                                                                        <path d="M 584 475 Q 635 550 665 583 Q 677 590 672 598 Q 665 608 646 617 Q 628 626 611 623 Q 601 619 606 605 Q 610 596 608 582 Q 592 537 558 465 C 545 438 567 450 584 475 Z" style="fill: #0070C0;"></path>
                                                                        <path d="M 543 425 Q 670 464 673 467 Q 679 474 675 480 Q 669 487 647 492 Q 616 495 584 475 L 558 465 Q 495 449 460 441 Q 454 440 451 438 C 434 432 434 432 449 425 Q 450 425 453 423 Q 480 411 516 417 L 543 425 Z" style="fill: #0070C0;"></path>
                                                                        <path d="M 562 245 Q 575 254 609 258 C 639 262 641 289 611 284 Q 587 280 567 274 L 523 262 Q 501 256 482 248 Q 473 247 476 256 Q 488 313 484 322 Q 474 334 459 345 Q 452 349 445 348 Q 438 347 442 333 Q 452 302 445 274 Q 439 246 427 235 Q 414 223 420 214 Q 427 204 439 197 Q 448 193 454 197 Q 464 210 518 230 L 562 245 Z" style="fill: #0070C0;"></path>
                                                                        <path d="M 609 258 Q 612 242 618 232 Q 624 222 633 230 Q 645 246 660 320 Q 663 335 668 350 Q 675 366 661 377 Q 651 387 638 395 Q 629 399 622 396 Q 615 392 617 380 Q 623 344 611 284 L 609 258 Z" style="fill: #0070C0;"></path>
                                                                        <path d="M 518 230 Q 497 113 403 41 Q 391 31 388 26 Q 387 20 396 20 Q 429 20 479 69 Q 533 121 562 245 L 567 274 Q 570 304 584 386 Q 590 402 574 411 Q 555 421 543 425 C 515 436 503 441 516 417 Q 537 396 523 262 L 518 230 Z" style="fill: #0070C0;"></path>
                                                                        <path d="M 742 464 Q 767 500 784 537 Q 800 576 817 608 Q 824 620 810 630 Q 770 655 749 647 Q 739 644 743 632 Q 765 553 691 443 Q 672 418 663 402 Q 659 389 671 394 Q 689 400 719 436 L 742 464 Z" style="fill: #0070C0;"></path>
                                                                        <path d="M 719 436 Q 734 427 771 442 Q 817 467 829 464 Q 841 457 838 448 Q 838 445 810 385 Q 804 378 809 373 Q 812 369 821 378 Q 894 436 927 451 Q 934 452 935 460 Q 935 466 875 502 Q 853 512 841 506 Q 802 485 742 464 C 714 454 691 446 719 436 Z" style="fill: #0070C0;"></path>
                                                                        <path d="M 749 261 Q 753 300 767 323 Q 774 339 761 346 Q 719 376 698 368 Q 686 364 692 352 Q 719 307 687 193 Q 654 94 551 25 Q 541 18 551 15 Q 596 15 657 69 Q 723 129 743 228 L 749 261 Z" style="fill: #0070C0;"></path>
                                                                        <path d="M 743 228 Q 746 224 749 217 Q 806 105 854 26 Q 863 11 881 8 Q 977 11 986 18 Q 990 22 983 26 Q 848 120 770 232 Q 761 244 753 256 Q 752 259 749 261 C 731 285 728 254 743 228 Z" style="fill: #0070C0;"></path>
                                    
                                    
                                                                                                                                                                                                                                                                                                                                                                                                                                                                                                                                                                                                                                                                                                                                                                                                                                                                                                                                                                                                                                                                                                                                                                                                                                                                </g>
                            </svg>