<svg width='83' height='83' >
                                <g transform="translate(3, 70) scale(0.07, -0.07)">
                                    <!-- 先将完整的字以灰色字体绘制完成，层级位于下面 -->
                                                                        <path d="M 307 534 Q 374 552 380 557 Q 389 564 384 573 Q 377 583 348 590 Q 326 593 309 587 L 259 569 Q 186 548 115 536 Q 81 529 106 514 Q 148 496 212 511 Q 234 517 258 522 L 307 534 Z" style="fill: #0070C0;"></path>
                                                                        <path d="M 254 340 Q 251 249 250 131 Q 249 107 236 98 Q 229 94 165 106 Q 132 119 135 109 Q 136 102 156 86 Q 217 37 232 8 Q 248 -25 264 -27 Q 279 -28 294 7 Q 312 52 311 126 Q 304 255 304 384 L 304 417 Q 304 475 307 534 L 309 587 Q 309 686 330 756 Q 346 787 292 809 Q 258 828 239 821 Q 221 815 237 792 Q 259 765 259 731 Q 260 713 259 569 L 258 522 Q 257 464 255 385 L 254 340 Z" style="fill: #0070C0;"></path>
                                                                        <path d="M 255 385 Q 177 336 108 287 Q 77 266 55 258 Q 43 252 41 244 Q 41 235 55 223 Q 74 210 97 203 Q 113 199 122 212 Q 173 273 254 340 L 304 384 Q 376 447 377 448 Q 383 461 372 460 Q 357 457 304 417 L 255 385 Z" style="fill: #0070C0;"></path>
                                                                        <path d="M 612 707 Q 705 743 736 746 Q 752 747 756 754 Q 760 764 749 774 Q 730 789 690 806 Q 675 813 663 813 Q 656 809 656 799 Q 650 760 477 687 Q 473 680 477 676 Q 501 676 569 696 L 612 707 Z" style="fill: #0070C0;"></path>
                                                                        <path d="M 445 624 Q 488 563 511 559 Q 523 556 529 572 Q 530 584 524 602 Q 517 617 496 626 Q 465 644 451 647 Q 444 648 441 639 Q 440 632 445 624 Z" style="fill: #0070C0;"></path>
                                                                        <path d="M 736 686 Q 720 659 687 619 Q 683 613 687 607 Q 693 606 699 610 Q 763 653 795 669 Q 810 673 806 682 Q 802 695 786 709 Q 771 724 753 726 Q 741 725 742 710 Q 743 700 736 686 Z" style="fill: #0070C0;"></path>
                                                                        <path d="M 644 514 Q 656 517 840 533 Q 858 534 861 542 Q 865 552 850 564 Q 796 597 733 573 Q 690 563 634 549 L 593 539 Q 502 521 397 500 Q 379 497 394 483 Q 422 461 454 470 Q 499 486 548 496 L 644 514 Z" style="fill: #0070C0;"></path>
                                                                        <path d="M 634 549 Q 637 627 656 664 Q 662 673 651 685 Q 633 698 612 707 C 585 720 556 723 569 696 Q 568 696 569 695 Q 593 659 593 539 L 593 482 Q 593 404 587 373 Q 586 364 602 326 Q 611 311 624 319 Q 633 325 633 386 Q 629 437 631 494 L 634 549 Z" style="fill: #0070C0;"></path>
                                                                        <path d="M 548 496 Q 515 409 349 298 Q 334 288 348 286 Q 358 285 391 298 Q 431 311 467 338 Q 498 363 535 402 Q 563 433 581 463 Q 587 475 593 482 C 611 507 573 555 548 496 Z" style="fill: #0070C0;"></path>
                                                                        <path d="M 631 494 Q 698 421 773 352 Q 795 333 831 334 Q 897 335 963 352 Q 979 356 981 360 Q 982 367 969 371 Q 783 419 692 480 Q 688 483 685 485 Q 660 504 644 514 C 619 530 611 516 631 494 Z" style="fill: #0070C0;"></path>
                                                                        <path d="M 453 259 Q 441 265 417 269 Q 404 273 401 268 Q 394 262 402 245 Q 433 173 447 58 Q 450 24 468 0 Q 486 -22 491 -7 Q 494 3 495 15 L 495 45 Q 495 57 493 69 Q 475 181 471 221 C 468 251 468 253 453 259 Z" style="fill: #0070C0;"></path>
                                                                        <path d="M 708 38 Q 717 13 737 -32 Q 744 -48 755 -48 Q 770 -47 780 -21 Q 801 18 823 168 Q 827 216 851 244 Q 867 263 856 277 Q 834 298 789 318 Q 771 328 739 317 Q 622 275 453 259 C 423 256 441 218 471 221 Q 478 220 487 222 Q 529 232 583 241 L 619 248 Q 665 258 724 268 Q 749 272 761 261 Q 779 228 749 74 Q 748 61 742 58 Q 739 57 733 59 C 707 43 706 43 708 38 Z" style="fill: #0070C0;"></path>
                                                                        <path d="M 636 141 Q 676 148 711 153 Q 733 157 725 169 Q 715 182 691 187 Q 672 190 640 181 L 590 167 Q 551 157 519 148 Q 503 144 522 131 Q 529 125 590 134 L 636 141 Z" style="fill: #0070C0;"></path>
                                                                        <path d="M 629 68 Q 633 108 636 141 L 640 181 Q 640 191 643 203 Q 652 224 619 248 C 595 266 574 270 583 241 Q 589 226 590 167 L 590 134 Q 590 104 590 60 C 590 30 626 38 629 68 Z" style="fill: #0070C0;"></path>
                                                                        <path d="M 495 15 Q 504 14 516 15 Q 577 28 708 38 C 738 40 752 41 733 59 Q 726 66 712 76 Q 691 85 629 68 L 590 60 Q 538 53 495 45 C 465 40 465 17 495 15 Z" style="fill: #0070C0;"></path>
                                    
                                    
                                                                                                                                                                                                                                                                                                                                                                                                                                                                                                                                                                                                                                                                                                                                                                                                                                                                                                                                                                                                                                                                                                                                                                                                                                                                </g>
                            </svg>