<svg width='83' height='83' >
                                <g transform="translate(3, 70) scale(0.07, -0.07)">
                                    <!-- 先将完整的字以灰色字体绘制完成，层级位于下面 -->
                                                                        <path d="M 519 478 Q 523 553 529 623 L 531 655 Q 532 710 549 773 Q 552 783 531 799 Q 494 818 469 823 Q 453 827 444 817 Q 437 810 445 794 Q 466 766 466 746 Q 476 617 474 466 C 474 436 517 448 519 478 Z" style="fill: #0070C0;"></path>
                                                                        <path d="M 529 623 Q 562 614 652 632 Q 740 653 744 655 Q 753 664 748 672 Q 741 684 710 690 Q 679 696 648 682 Q 621 673 592 665 Q 562 659 531 655 C 501 651 500 629 529 623 Z" style="fill: #0070C0;"></path>
                                                                        <path d="M 557 212 Q 612 284 663 392 Q 679 425 704 444 Q 728 462 714 478 Q 699 494 664 509 Q 636 519 604 506 Q 567 493 519 478 L 474 466 Q 425 457 360 450 Q 344 449 338 440 Q 334 431 355 423 Q 398 407 457 424 Q 563 457 581 456 Q 603 452 597 429 Q 567 324 513 252 L 488 222 Q 379 108 146 53 Q 130 49 143 39 Q 152 32 218 36 Q 303 42 400 89 Q 472 123 527 178 L 557 212 Z" style="fill: #0070C0;"></path>
                                                                        <path d="M 527 178 Q 545 142 686 20 Q 707 -2 739 -2 Q 839 -3 920 9 Q 962 15 959 26 Q 958 32 916 44 Q 726 92 653 138 Q 611 168 557 212 L 513 252 Q 470 294 424 343 Q 385 383 348 385 Q 329 386 326 380 Q 325 373 340 362 Q 394 326 488 222 L 527 178 Z" style="fill: #0070C0;"></path>
                                    
                                    
                                                                                                                                                                                                                                                                                                                                                                                            </g>
                            </svg>