<svg width='83' height='83' >
                                <g transform="translate(3, 70) scale(0.07, -0.07)">
                                    <!-- 先将完整的字以灰色字体绘制完成，层级位于下面 -->
                                                                        <path d="M 354 487 Q 496 526 499 527 Q 508 534 503 544 Q 496 556 466 563 Q 439 567 359 541 L 305 524 Q 179 497 102 486 Q 65 479 91 462 Q 136 438 191 452 Q 246 465 303 475 L 354 487 Z" style="fill: #0070C0;"></path>
                                                                        <path d="M 337 329 Q 346 410 354 487 L 359 541 Q 368 646 391 721 Q 395 733 374 749 Q 337 771 312 777 Q 294 781 286 773 Q 277 766 285 748 Q 309 711 308 684 Q 308 608 305 524 L 303 475 Q 299 399 291 314 C 288 284 334 299 337 329 Z" style="fill: #0070C0;"></path>
                                                                        <path d="M 213 299 Q 201 306 165 313 Q 152 317 149 311 Q 142 305 151 289 Q 179 223 196 117 Q 197 86 216 64 Q 234 42 239 57 Q 246 78 241 116 L 236 150 Q 221 241 219 271 C 217 297 217 297 213 299 Z" style="fill: #0070C0;"></path>
                                                                        <path d="M 419 181 Q 438 259 463 283 Q 485 308 463 322 Q 400 356 399 356 Q 395 356 337 329 L 291 314 Q 257 307 213 299 C 183 294 190 264 219 271 L 343 303 Q 379 312 388 297 Q 395 290 386 255 Q 379 224 370 187 C 363 158 412 152 419 181 Z" style="fill: #0070C0;"></path>
                                                                        <path d="M 241 116 Q 250 115 263 118 Q 315 131 433 147 Q 443 148 445 158 Q 445 165 419 181 L 370 187 Q 364 187 361 185 Q 294 163 236 150 C 207 143 211 117 241 116 Z" style="fill: #0070C0;"></path>
                                                                        <path d="M 583 520 Q 625 586 667 685 Q 683 730 701 753 Q 708 766 702 779 Q 695 792 662 810 Q 631 823 612 821 Q 593 817 605 794 Q 621 769 616 744 Q 598 660 562 579 Q 528 501 478 413 Q 469 400 468 394 Q 467 381 480 387 Q 507 397 566 490 L 583 520 Z" style="fill: #0070C0;"></path>
                                                                        <path d="M 704 493 Q 870 535 880 544 Q 890 554 884 563 Q 875 576 842 582 Q 809 586 703 547 Q 649 531 583 520 C 553 515 538 501 566 490 Q 603 474 656 481 L 704 493 Z" style="fill: #0070C0;"></path>
                                                                        <path d="M 665 243 Q 687 283 700 329 Q 727 417 742 439 Q 754 457 738 468 Q 723 483 704 493 C 678 509 648 510 656 481 Q 680 420 626 286 L 607 249 Q 547 153 460 109 Q 444 99 425 88 Q 412 81 424 76 Q 482 70 565 130 Q 610 158 634 196 Q 635 200 639 204 L 665 243 Z" style="fill: #0070C0;"></path>
                                                                        <path d="M 639 204 Q 688 135 783 42 Q 813 15 859 21 Q 920 27 965 31 Q 980 32 993 38 Q 1002 45 989 55 Q 973 65 847 109 Q 763 140 665 243 L 626 286 Q 601 316 575 349 Q 556 376 520 383 Q 508 386 498 379 Q 494 372 502 365 Q 509 358 517 353 Q 535 343 607 249 L 639 204 Z" style="fill: #0070C0;"></path>
                                    
                                    
                                                                                                                                                                                                                                                                                                                                                                                                                                                                                                                                                                                                                                                                                                                                                                                        </g>
                            </svg>