<svg width='83' height='83' >
                                <g transform="translate(3, 70) scale(0.07, -0.07)">
                                    <!-- 先将完整的字以灰色字体绘制完成，层级位于下面 -->
                                                                        <path d="M 353 650 Q 467 680 471 682 Q 478 689 475 697 Q 468 707 442 714 Q 421 718 359 698 L 309 683 Q 299 682 291 678 Q 236 665 172 658 Q 138 652 163 637 Q 202 616 275 634 Q 291 638 310 641 L 353 650 Z" style="fill: #0070C0;"></path>
                                                                        <path d="M 189 531 Q 179 535 149 540 Q 137 543 135 537 Q 129 531 138 516 Q 163 470 182 390 Q 186 365 200 350 Q 218 331 222 345 Q 225 355 225 369 L 221 399 Q 205 480 203 504 C 201 527 201 527 189 531 Z" style="fill: #0070C0;"></path>
                                                                        <path d="M 466 441 Q 487 513 513 535 Q 526 551 514 566 Q 447 614 396 584 Q 372 577 350 567 L 311 556 Q 250 541 189 531 C 159 526 173 499 203 504 Q 213 505 226 509 Q 268 519 311 529 L 350 538 Q 417 559 432 548 Q 444 536 425 448 C 419 419 457 412 466 441 Z" style="fill: #0070C0;"></path>
                                                                        <path d="M 349 392 Q 401 402 478 411 Q 488 412 488 421 Q 488 428 466 441 L 425 448 Q 413 448 349 427 L 310 418 Q 264 408 221 399 C 192 393 195 368 225 369 Q 232 369 240 370 Q 262 377 295 382 L 349 392 Z" style="fill: #0070C0;"></path>
                                                                        <path d="M 307 309 Q 307 186 283 96 Q 273 62 297 1 Q 304 -15 311 -19 Q 317 -25 324 -18 Q 331 -14 341 7 Q 350 29 349 59 Q 348 99 349 392 L 349 427 Q 349 479 350 538 L 350 567 Q 350 586 353 650 L 359 698 Q 362 723 369 745 Q 378 758 374 772 Q 368 781 315 813 Q 293 829 274 814 Q 270 810 275 795 Q 308 746 309 683 L 310 641 Q 310 601 311 556 L 311 529 Q 310 475 310 418 L 307 309 Z" style="fill: #0070C0;"></path>
                                                                        <path d="M 295 382 Q 238 270 80 101 Q 73 92 84 90 Q 105 87 211 188 Q 260 234 307 309 C 364 398 309 409 295 382 Z" style="fill: #0070C0;"></path>
                                                                        <path d="M 392 301 Q 417 280 442 255 Q 452 245 465 246 Q 474 246 477 257 Q 481 267 474 291 Q 470 307 444 320 Q 387 344 372 339 Q 368 335 369 325 Q 372 318 392 301 Z" style="fill: #0070C0;"></path>
                                                                        <path d="M 606 532 Q 651 646 668 705 Q 678 748 691 771 Q 698 784 689 796 Q 682 806 646 821 Q 615 831 597 825 Q 579 818 593 799 Q 627 762 582 598 Q 560 522 526 436 Q 519 423 518 416 Q 518 404 531 411 Q 553 424 593 505 L 606 532 Z" style="fill: #0070C0;"></path>
                                                                        <path d="M 706 510 Q 853 552 861 559 Q 870 568 864 576 Q 857 588 826 592 Q 802 595 712 560 Q 633 539 606 532 C 577 524 564 514 593 505 Q 626 493 668 498 L 706 510 Z" style="fill: #0070C0;"></path>
                                                                        <path d="M 685 238 Q 724 322 742 434 Q 746 459 752 469 Q 759 476 753 486 Q 741 501 706 510 C 677 519 658 525 668 498 Q 669 497 671 493 Q 683 454 683 433 Q 682 352 650 279 L 630 240 Q 629 239 627 235 Q 587 169 448 101 Q 424 88 453 89 Q 469 88 506 99 Q 551 111 590 133 Q 626 152 655 190 Q 656 193 659 196 L 685 238 Z" style="fill: #0070C0;"></path>
                                                                        <path d="M 659 196 Q 701 141 772 66 Q 797 42 839 47 Q 893 51 933 53 Q 946 54 958 59 Q 965 65 955 74 Q 942 83 830 128 Q 757 159 685 238 L 650 279 Q 625 310 600 344 Q 584 366 553 375 Q 540 378 530 371 Q 523 364 533 355 Q 539 349 546 344 Q 564 334 630 240 L 659 196 Z" style="fill: #0070C0;"></path>
                                    
                                    
                                                                                                                                                                                                                                                                                                                                                                                                                                                                                                                                                                                                                                                                                                                                                                                                                                                                                                                                                </g>
                            </svg>