<svg width='83' height='83' >
                                <g transform="translate(3, 70) scale(0.07, -0.07)">
                                    <!-- 先将完整的字以灰色字体绘制完成，层级位于下面 -->
                                                                        <path d="M 445 626 Q 490 632 530 636 Q 540 635 548 647 Q 549 657 528 668 Q 500 689 461 677 L 407 664 Q 332 648 294 639 L 250 632 Q 225 629 202 626 Q 153 622 100 615 Q 73 612 94 595 Q 104 586 119 578 Q 131 571 152 577 Q 201 587 256 597 L 296 603 Q 342 613 399 621 L 445 626 Z" style="fill: #0070C0;"></path>
                                                                        <path d="M 294 639 Q 293 682 292 713 Q 293 732 275 738 Q 233 757 216 751 Q 198 744 212 724 Q 239 688 250 632 L 256 597 Q 262 564 276 548 Q 289 536 293 548 Q 294 555 296 603 L 294 639 Z" style="fill: #0070C0;"></path>
                                                                        <path d="M 399 621 Q 384 546 386 535 Q 387 522 403 533 Q 416 548 445 626 L 461 677 Q 476 725 489 750 Q 502 766 491 775 Q 478 791 442 806 Q 426 813 408 804 Q 398 797 407 787 Q 423 756 407 664 L 399 621 Z" style="fill: #0070C0;"></path>
                                                                        <path d="M 249 405 Q 271 430 289 454 Q 308 481 317 492 Q 324 504 321 512 Q 317 522 292 526 Q 267 530 256 526 Q 249 525 249 512 Q 249 461 155 348 Q 139 332 161 338 Q 188 344 231 386 L 249 405 Z" style="fill: #0070C0;"></path>
                                                                        <path d="M 231 386 Q 261 374 289 379 Q 415 419 422 403 Q 429 390 428 353 Q 424 218 402 146 Q 390 101 376 86 Q 366 74 341 80 Q 314 84 290 90 Q 268 94 285 76 Q 325 36 347 3 Q 356 -15 374 -9 Q 390 -6 410 18 Q 467 81 481 316 Q 484 368 503 400 Q 516 419 508 428 Q 495 444 463 456 Q 436 468 396 445 Q 318 418 249 405 C 220 399 202 395 231 386 Z" style="fill: #0070C0;"></path>
                                                                        <path d="M 148 295 Q 138 299 115 305 Q 105 309 101 304 Q 95 298 102 284 Q 124 232 135 149 Q 136 124 150 107 Q 165 86 170 100 Q 177 116 174 149 L 170 181 Q 163 251 162 271 C 161 290 161 290 148 295 Z" style="fill: #0070C0;"></path>
                                                                        <path d="M 302 197 Q 315 255 334 273 Q 353 295 333 308 Q 315 318 291 334 Q 275 343 258 333 Q 231 315 148 295 C 119 288 134 261 162 271 Q 165 274 237 288 Q 259 292 264 284 Q 270 280 265 253 Q 261 229 256 202 C 251 172 295 168 302 197 Z" style="fill: #0070C0;"></path>
                                                                        <path d="M 174 149 Q 178 149 184 150 Q 224 159 313 167 Q 323 168 324 177 Q 324 184 302 197 C 291 204 286 204 256 202 Q 255 203 252 202 Q 207 189 170 181 C 141 175 144 147 174 149 Z" style="fill: #0070C0;"></path>
                                                                        <path d="M 617 519 Q 681 624 715 703 Q 728 743 745 763 Q 752 775 745 788 Q 738 800 706 818 Q 676 831 657 828 Q 638 824 651 802 Q 678 762 617 612 Q 589 542 545 464 Q 538 452 536 446 Q 535 433 548 439 Q 564 446 604 499 L 617 519 Z" style="fill: #0070C0;"></path>
                                                                        <path d="M 734 492 Q 885 528 892 533 Q 901 543 896 551 Q 887 564 856 570 Q 823 576 791 562 Q 755 549 716 537 Q 673 527 621 520 Q 618 520 617 519 C 587 514 577 512 604 499 Q 652 475 700 483 L 734 492 Z" style="fill: #0070C0;"></path>
                                                                        <path d="M 709 225 Q 733 267 766 380 Q 772 408 787 434 Q 797 450 782 461 Q 752 488 734 492 C 706 504 692 509 700 483 Q 700 480 702 474 Q 726 419 680 283 Q 677 274 674 268 L 652 226 Q 595 145 506 91 Q 497 87 489 80 Q 476 71 487 68 Q 571 62 672 169 Q 676 175 681 181 L 709 225 Z" style="fill: #0070C0;"></path>
                                                                        <path d="M 681 181 Q 775 49 819 38 Q 837 37 946 39 Q 959 39 973 43 Q 982 50 970 59 Q 957 69 841 122 Q 789 146 709 225 L 674 268 Q 640 313 603 367 Q 587 392 554 402 Q 544 405 536 401 Q 530 395 538 388 Q 544 381 551 376 Q 569 364 652 226 L 681 181 Z" style="fill: #0070C0;"></path>
                                    
                                    
                                                                                                                                                                                                                                                                                                                                                                                                                                                                                                                                                                                                                                                                                                                                                                                                                                                                                                                                                                                                                            </g>
                            </svg>