<svg width='83' height='83' >
                                <g transform="translate(3, 70) scale(0.07, -0.07)">
                                    <!-- 先将完整的字以灰色字体绘制完成，层级位于下面 -->
                                                                        <path d="M 318 775 Q 346 757 376 735 Q 392 725 407 728 Q 417 729 421 744 Q 422 760 409 788 Q 402 804 370 814 Q 295 829 283 819 Q 279 815 283 802 Q 287 792 318 775 Z" style="fill: #0070C0;"></path>
                                                                        <path d="M 161 638 Q 127 632 151 617 Q 187 593 240 606 Q 345 627 453 648 Q 502 660 511 666 Q 518 673 515 681 Q 508 691 482 699 Q 458 705 341 668 Q 193 641 161 638 Z" style="fill: #0070C0;"></path>
                                                                        <path d="M 242 544 Q 232 548 206 551 Q 196 554 192 549 Q 188 543 196 529 Q 218 489 236 422 Q 240 403 253 390 Q 269 371 274 385 Q 277 397 275 416 L 269 446 Q 259 501 257 519 C 254 540 254 540 242 544 Z" style="fill: #0070C0;"></path>
                                                                        <path d="M 421 470 Q 436 509 458 524 Q 471 537 459 552 Q 446 562 405 581 Q 393 587 332 565 Q 302 558 242 544 C 213 537 228 513 257 519 Q 378 543 384 539 Q 390 535 389 522 Q 385 495 379 471 C 372 442 410 442 421 470 Z" style="fill: #0070C0;"></path>
                                                                        <path d="M 275 416 Q 282 415 292 417 Q 338 427 437 436 Q 447 437 448 445 Q 448 452 421 470 C 413 475 409 475 379 471 Q 378 472 376 471 Q 316 455 269 446 C 240 440 245 418 275 416 Z" style="fill: #0070C0;"></path>
                                                                        <path d="M 139 319 Q 126 323 114 322 Q 104 318 109 307 Q 146 238 126 117 Q 107 60 140 26 Q 147 16 156 21 Q 181 39 179 124 Q 176 253 175 284 C 174 311 168 312 139 319 Z" style="fill: #0070C0;"></path>
                                                                        <path d="M 526 88 Q 526 94 523 273 Q 519 313 530 331 Q 540 343 533 353 Q 523 363 485 381 Q 467 388 453 381 Q 435 374 383 366 Q 310 353 253 339 Q 187 324 143 320 Q 142 320 139 319 C 109 315 146 276 175 284 Q 182 284 190 288 Q 257 310 427 338 Q 442 339 452 332 Q 470 326 472 298 Q 476 231 463 108 Q 464 89 446 89 Q 419 93 398 99 Q 383 102 387 93 Q 388 84 412 65 Q 446 35 465 4 Q 477 -6 489 1 Q 499 7 521 68 L 526 88 Z" style="fill: #0070C0;"></path>
                                                                        <path d="M 248 250 Q 239 253 225 256 Q 215 260 212 255 Q 208 251 213 238 Q 229 201 240 140 Q 241 122 252 110 Q 265 92 269 104 Q 273 114 273 134 L 271 160 Q 268 217 266 230 C 264 245 264 245 248 250 Z" style="fill: #0070C0;"></path>
                                                                        <path d="M 397 175 Q 409 215 422 229 Q 440 250 421 261 Q 406 270 384 283 Q 371 290 327 269 Q 288 260 248 250 C 219 243 237 225 266 230 Q 320 240 338 244 Q 356 247 359 240 Q 360 240 356 183 C 354 153 388 146 397 175 Z" style="fill: #0070C0;"></path>
                                                                        <path d="M 273 134 Q 282 131 293 134 Q 327 143 402 149 Q 412 150 412 158 Q 412 165 397 175 L 356 183 Q 350 183 345 181 Q 305 169 271 160 C 242 152 244 141 273 134 Z" style="fill: #0070C0;"></path>
                                                                        <path d="M 684 439 Q 688 514 694 583 L 696 615 Q 697 700 716 769 Q 720 779 701 794 Q 667 812 645 815 Q 629 819 622 810 Q 615 803 623 789 Q 644 758 644 737 Q 651 595 645 428 C 644 398 682 409 684 439 Z" style="fill: #0070C0;"></path>
                                                                        <path d="M 694 583 Q 727 579 822 604 Q 831 607 842 609 Q 858 613 862 617 Q 869 624 864 633 Q 857 643 827 648 Q 811 649 734 624 Q 713 620 696 615 C 667 607 664 585 694 583 Z" style="fill: #0070C0;"></path>
                                                                        <path d="M 738 200 Q 768 230 799 362 Q 803 393 821 411 Q 834 424 818 438 Q 799 453 767 463 Q 748 469 728 457 Q 707 447 684 439 L 645 428 Q 576 419 566 413 Q 559 407 574 398 Q 595 388 721 417 Q 743 423 743 398 Q 743 320 703 235 L 682 196 Q 637 135 526 88 C 499 76 492 62 521 68 Q 525 69 535 71 Q 613 83 658 109 Q 686 128 711 158 L 738 200 Z" style="fill: #0070C0;"></path>
                                                                        <path d="M 711 158 Q 754 101 796 54 Q 811 35 835 36 Q 970 42 978 54 Q 982 60 972 64 Q 825 124 754 185 Q 745 194 738 200 L 703 235 Q 663 278 616 334 Q 606 350 590 351 Q 566 352 560 345 Q 557 339 565 334 Q 596 316 617 284 Q 650 238 682 196 L 711 158 Z" style="fill: #0070C0;"></path>
                                    
                                    
                                                                                                                                                                                                                                                                                                                                                                                                                                                                                                                                                                                                                                                                                                                                                                                                                                                                                                                                                                                                                                                                                                                                                                                    </g>
                            </svg>