<svg width='83' height='83' >
                                <g transform="translate(3, 70) scale(0.07, -0.07)">
                                    <!-- 先将完整的字以灰色字体绘制完成，层级位于下面 -->
                                                                        <path d="M 365 734 Q 381 758 399 771 Q 409 781 404 795 Q 401 808 374 832 Q 349 851 330 852 Q 311 851 318 829 Q 330 798 310 755 Q 229 598 60 418 Q 50 408 47 403 Q 43 391 57 393 Q 117 400 304 644 Q 346 708 353 716 L 365 734 Z" style="fill: #0070C0;"></path>
                                                                        <path d="M 353 716 Q 354 715 357 712 Q 400 681 453 634 Q 468 621 480 618 Q 487 618 492 626 Q 501 638 487 672 Q 477 702 415 721 Q 384 731 365 734 C 335 739 332 737 353 716 Z" style="fill: #0070C0;"></path>
                                                                        <path d="M 355 503 Q 449 533 454 537 Q 461 546 456 553 Q 449 563 419 568 Q 389 569 362 555 Q 337 545 307 534 Q 276 524 237 517 Q 203 507 230 494 Q 266 479 321 492 L 355 503 Z" style="fill: #0070C0;"></path>
                                                                        <path d="M 383 380 Q 423 389 457 393 Q 467 392 474 404 Q 475 414 454 423 Q 433 439 400 431 Q 393 430 384 425 L 334 411 Q 327 410 321 408 Q 300 404 167 378 Q 142 374 162 359 Q 192 338 215 343 Q 269 356 335 371 L 383 380 Z" style="fill: #0070C0;"></path>
                                                                        <path d="M 335 371 Q 335 365 336 357 Q 340 215 327 181 Q 324 169 302 172 Q 274 179 243 186 Q 233 187 231 180 Q 230 176 240 166 Q 304 117 325 86 Q 341 73 351 75 Q 361 79 372 111 Q 388 142 384 200 Q 381 315 383 380 L 384 425 Q 384 428 385 430 Q 392 469 374 488 Q 364 498 355 503 C 331 520 312 521 321 492 Q 330 470 334 411 L 335 371 Z" style="fill: #0070C0;"></path>
                                                                        <path d="M 221 307 Q 193 261 156 222 Q 134 197 144 165 Q 148 149 168 156 Q 219 183 235 254 Q 245 282 242 304 Q 239 311 234 314 Q 227 314 221 307 Z" style="fill: #0070C0;"></path>
                                                                        <path d="M 416 278 Q 477 214 498 212 Q 511 212 516 230 Q 517 243 507 262 Q 497 278 473 286 Q 436 302 420 304 Q 411 305 410 294 Q 409 287 416 278 Z" style="fill: #0070C0;"></path>
                                                                        <path d="M 562 646 Q 583 630 606 609 Q 619 599 632 600 Q 642 601 645 612 Q 649 625 639 651 Q 630 675 555 687 Q 542 690 536 687 Q 532 683 534 672 Q 538 662 562 646 Z" style="fill: #0070C0;"></path>
                                                                        <path d="M 549 510 Q 573 491 598 469 Q 611 459 624 460 Q 634 461 637 472 Q 641 485 631 511 Q 625 527 599 538 Q 536 556 524 551 Q 520 547 522 536 Q 525 526 549 510 Z" style="fill: #0070C0;"></path>
                                                                        <path d="M 757 388 Q 835 397 934 398 Q 952 399 956 407 Q 960 419 945 431 Q 894 465 830 448 Q 797 441 757 431 L 704 420 Q 613 405 507 385 Q 488 382 502 367 Q 515 355 533 351 Q 552 347 567 351 Q 630 370 700 380 Q 701 381 704 380 L 757 388 Z" style="fill: #0070C0;"></path>
                                                                        <path d="M 704 380 Q 704 -7 715 -34 Q 716 -38 720 -44 Q 735 -60 744 -38 Q 756 -1 757 388 L 757 431 Q 757 624 763 714 Q 764 748 781 777 Q 788 793 768 808 Q 743 827 700 838 Q 681 844 668 829 Q 658 822 670 809 Q 700 784 703 748 Q 704 639 704 420 L 704 380 Z" style="fill: #0070C0;"></path>
                                    
                                    
                                                                                                                                                                                                                                                                                                                                                                                                                                                                                                                                                                                                                                                                                                                                                                                                                                                                                                                                                </g>
                            </svg>