<svg width='83' height='83' >
                                <g transform="translate(3, 70) scale(0.07, -0.07)">
                                    <!-- 先将完整的字以灰色字体绘制完成，层级位于下面 -->
                                                                        <path d="M 372 669 Q 510 709 546 727 Q 601 749 648 759 Q 669 760 673 770 Q 677 783 663 796 Q 638 815 583 836 Q 564 845 549 843 Q 539 839 539 825 Q 539 786 360 693 C 333 679 343 661 372 669 Z" style="fill: #0070C0;"></path>
                                                                        <path d="M 360 514 Q 364 614 371 662 Q 372 666 372 669 C 374 686 374 686 360 693 Q 297 724 281 720 Q 259 716 277 691 Q 317 621 290 389 Q 280 326 250 253 Q 217 169 124 84 Q 108 69 104 62 Q 103 53 116 54 Q 167 57 239 140 Q 321 230 349 412 Q 352 445 357 481 L 360 514 Z" style="fill: #0070C0;"></path>
                                                                        <path d="M 618 519 Q 630 522 868 541 Q 889 542 894 551 Q 898 564 881 577 Q 823 613 786 603 Q 668 573 360 514 C 331 508 328 489 357 481 Q 387 469 425 478 Q 486 497 556 508 L 618 519 Z" style="fill: #0070C0;"></path>
                                                                        <path d="M 588 -35 Q 594 -63 601 -73 Q 607 -80 615 -78 Q 631 -69 638 -4 Q 645 63 644 129 Q 637 378 656 474 Q 659 493 644 503 Q 629 513 618 519 C 592 534 542 534 556 508 Q 557 507 559 505 Q 578 465 581 439 Q 585 316 583 125 Q 583 5 588 -35 Z" style="fill: #0070C0;"></path>
                                    
                                    
                                                                                                                                                                                                                                                                                                                                                                                            </g>
                            </svg>