<svg width='83' height='83' >
                                <g transform="translate(3, 70) scale(0.07, -0.07)">
                                    <!-- 先将完整的字以灰色字体绘制完成，层级位于下面 -->
                                                                        <path d="M 354 644 Q 354 645 356 645 Q 452 666 565 724 Q 571 736 656 762 Q 689 771 691 776 Q 695 789 680 802 Q 655 818 601 835 Q 582 844 567 841 Q 558 835 558 823 Q 559 778 353 663 C 327 648 325 636 354 644 Z" style="fill: #0070C0;"></path>
                                                                        <path d="M 346 516 Q 349 604 354 644 L 353 663 Q 349 672 337 677 Q 283 702 266 700 Q 244 696 263 671 Q 299 614 280 398 Q 273 334 243 259 Q 216 189 128 99 Q 112 84 109 77 Q 106 70 120 70 Q 165 73 236 152 Q 329 260 343 474 L 346 516 Z" style="fill: #0070C0;"></path>
                                                                        <path d="M 615 521 Q 691 531 803 535 Q 864 539 869 547 Q 875 560 856 573 Q 799 610 762 600 Q 708 587 346 516 C 317 510 313 478 343 474 Q 347 474 349 473 Q 371 469 388 474 Q 461 496 545 510 L 615 521 Z" style="fill: #0070C0;"></path>
                                                                        <path d="M 621 329 Q 624 437 634 487 Q 638 506 623 516 Q 619 519 615 521 C 591 539 537 539 545 510 Q 558 465 563 427 Q 563 393 563 347 L 563 303 Q 556 -21 577 -53 Q 583 -60 591 -58 Q 606 -49 614 14 Q 615 32 620 275 L 621 329 Z" style="fill: #0070C0;"></path>
                                                                        <path d="M 620 275 Q 693 239 753 197 Q 769 182 785 179 Q 798 176 803 195 Q 807 211 794 237 Q 782 277 621 329 L 563 347 Q 445 381 436 378 Q 432 377 435 364 Q 438 357 455 350 Q 512 328 563 303 L 620 275 Z" style="fill: #0070C0;"></path>
                                    
                                    
                                                                                                                                                                                                                                                                                                                                                                                                                                                                        </g>
                            </svg>