<svg width='83' height='83' >
                                <g transform="translate(3, 70) scale(0.07, -0.07)">
                                    <!-- 先将完整的字以灰色字体绘制完成，层级位于下面 -->
                                                                        <path d="M 341 805 Q 332 745 236 675 Q 230 675 197 651 Q 184 639 200 639 Q 245 630 336 691 Q 345 701 404 742 Q 417 749 409 769 Q 373 815 355 818 Q 343 819 341 805 Z" style="fill: #0070C0;"></path>
                                                                        <path d="M 578 796 Q 636 766 711 721 Q 730 708 744 707 Q 751 708 756 719 Q 763 734 742 769 Q 715 814 571 823 Q 562 826 564 814 Q 565 802 578 796 Z" style="fill: #0070C0;"></path>
                                                                        <path d="M 552 610 Q 576 635 599 646 Q 608 649 610 660 Q 611 670 603 685 Q 581 724 547 729 Q 537 730 536 717 Q 533 690 497 644 L 471 616 Q 381 529 233 454 Q 185 432 117 403 Q 107 400 116 395 Q 174 382 330 454 Q 424 508 519 583 L 552 610 Z" style="fill: #0070C0;"></path>
                                                                        <path d="M 519 583 Q 586 537 624 507 Q 672 473 734 434 Q 762 415 805 424 Q 847 434 893 446 Q 927 456 938 464 Q 954 473 937 478 Q 925 484 788 501 Q 730 507 552 610 L 497 644 Q 422 698 360 681 Q 347 678 347 671 Q 348 664 363 660 Q 405 660 471 616 L 519 583 Z" style="fill: #0070C0;"></path>
                                                                        <path d="M 377 389 Q 393 393 418 399 Q 460 408 491 420 Q 533 436 568 442 Q 584 443 588 450 Q 592 460 581 470 Q 527 512 495 508 Q 488 504 488 495 Q 485 468 367 407 C 340 393 348 382 377 389 Z" style="fill: #0070C0;"></path>
                                                                        <path d="M 365 316 Q 366 332 369 347 Q 375 384 377 389 C 380 401 380 401 367 407 Q 310 435 299 434 Q 278 431 294 409 Q 321 355 296 219 Q 289 192 276 162 Q 255 113 205 68 Q 189 55 186 49 Q 185 42 196 42 Q 226 41 281 89 Q 341 146 363 294 L 365 316 Z" style="fill: #0070C0;"></path>
                                                                        <path d="M 559 307 Q 622 316 749 316 Q 768 317 771 325 Q 775 335 761 347 Q 710 383 658 368 Q 576 352 365 316 C 335 311 336 308 363 294 Q 385 278 434 286 Q 462 293 497 298 L 559 307 Z" style="fill: #0070C0;"></path>
                                                                        <path d="M 519 -15 Q 523 -40 530 -49 Q 536 -56 543 -54 Q 570 -36 570 107 Q 571 219 583 271 Q 587 289 573 298 Q 566 304 559 307 C 533 322 484 325 497 298 Q 509 274 510 263 Q 513 191 514 79 Q 515 9 519 -15 Z" style="fill: #0070C0;"></path>
                                    
                                    
                                                                                                                                                                                                                                                                                                                                                                                                                                                                                                                                                                                                                                                                                                            </g>
                            </svg>