<svg width='83' height='83' >
                                <g transform="translate(3, 70) scale(0.07, -0.07)">
                                    <!-- 先将完整的字以灰色字体绘制完成，层级位于下面 -->
                                                                        <path d="M 306 737 Q 340 715 375 686 Q 391 673 409 675 Q 421 676 425 692 Q 428 708 415 740 Q 406 762 370 774 Q 288 798 272 787 Q 266 783 270 769 Q 274 757 306 737 Z" style="fill: #0070C0;"></path>
                                                                        <path d="M 320 521 Q 366 534 422 545 Q 438 549 439 556 Q 439 569 420 578 Q 392 588 368 582 Q 194 533 95 517 Q 82 514 79 506 Q 78 496 93 484 Q 132 460 184 477 Q 227 495 267 506 L 320 521 Z" style="fill: #0070C0;"></path>
                                                                        <path d="M 294 399 Q 294 398 297 397 Q 304 394 330 394 Q 354 393 363 380 Q 381 358 335 225 Q 314 165 288 153 Q 278 149 237 161 Q 203 176 198 170 Q 194 161 210 150 Q 246 123 259 84 Q 265 68 276 62 Q 289 58 320 79 Q 353 107 380 181 Q 425 352 438 361 Q 448 367 449 375 Q 450 385 425 406 Q 391 436 345 427 Q 327 427 310 428 C 280 429 265 407 294 399 Z" style="fill: #0070C0;"></path>
                                                                        <path d="M 310 428 Q 323 461 341 482 Q 347 488 345 496 Q 339 514 320 521 C 294 536 266 536 267 506 Q 274 436 179 294 Q 175 290 170 283 Q 139 240 56 155 Q 49 149 59 148 Q 126 161 232 298 Q 233 302 237 306 Q 261 340 294 399 L 310 428 Z" style="fill: #0070C0;"></path>
                                                                        <path d="M 556 637 Q 574 668 595 709 Q 607 737 619 752 Q 626 762 621 775 Q 615 785 587 802 Q 562 815 544 813 Q 528 809 537 790 Q 570 745 454 536 Q 447 526 445 520 Q 444 510 456 514 Q 480 521 536 606 Q 537 609 539 611 L 556 637 Z" style="fill: #0070C0;"></path>
                                                                        <path d="M 539 611 Q 581 593 629 606 Q 695 621 764 636 Q 795 643 800 649 Q 807 656 803 665 Q 796 675 768 682 Q 738 686 666 661 Q 627 651 556 637 C 527 631 511 622 539 611 Z" style="fill: #0070C0;"></path>
                                                                        <path d="M 756 431 Q 780 485 804 497 Q 819 513 806 530 Q 736 587 694 556 Q 636 535 557 518 C 528 512 546 481 575 488 Q 582 489 592 493 Q 647 505 702 516 Q 715 520 721 514 Q 728 508 726 495 Q 719 462 710 434 C 701 405 743 404 756 431 Z" style="fill: #0070C0;"></path>
                                                                        <path d="M 550 364 Q 575 377 769 399 Q 779 400 780 409 Q 780 416 756 431 C 740 441 739 441 710 434 Q 625 413 556 399 C 527 393 522 353 550 364 Z" style="fill: #0070C0;"></path>
                                                                        <path d="M 557 518 Q 520 545 505 539 Q 495 533 499 520 Q 514 493 508 430 Q 508 333 461 203 Q 458 202 458 197 Q 428 127 359 23 Q 355 19 352 12 Q 349 3 359 4 Q 389 10 461 112 Q 468 127 478 143 Q 523 231 550 364 L 556 399 Q 560 427 564 450 Q 565 462 575 488 C 580 502 580 502 557 518 Z" style="fill: #0070C0;"></path>
                                                                        <path d="M 616 167 Q 673 194 781 251 Q 802 263 826 269 Q 848 276 841 294 Q 831 313 808 331 Q 787 347 774 347 Q 761 348 763 334 Q 764 304 689 245 Q 655 217 617 187 C 593 168 589 154 616 167 Z" style="fill: #0070C0;"></path>
                                                                        <path d="M 925 86 Q 907 129 895 206 Q 892 222 885 226 Q 878 230 875 211 Q 862 117 849 100 Q 825 73 723 75 Q 668 78 644 88 Q 625 98 620 113 Q 614 129 616 167 L 617 187 Q 623 236 635 261 Q 647 289 629 306 Q 581 343 566 339 Q 551 333 559 317 Q 577 281 572 228 Q 568 131 574 110 Q 580 79 602 62 Q 623 44 674 34 Q 725 24 806 25 Q 879 25 908 39 Q 938 55 925 86 Z" style="fill: #0070C0;"></path>
                                    
                                    
                                                                                                                                                                                                                                                                                                                                                                                                                                                                                                                                                                                                                                                                                                                                                                                                                                                                                                                                                </g>
                            </svg>