<svg width='83' height='83' >
                                <g transform="translate(3, 70) scale(0.07, -0.07)">
                                    <!-- 先将完整的字以灰色字体绘制完成，层级位于下面 -->
                                                                        <path d="M 296 709 Q 323 684 351 653 Q 366 638 383 638 Q 395 638 400 653 Q 406 669 398 702 Q 392 723 360 739 Q 287 770 268 763 Q 262 759 264 745 Q 267 732 296 709 Z" style="fill: #0070C0;"></path>
                                                                        <path d="M 307 474 Q 353 487 407 500 Q 450 513 456 519 Q 465 528 460 536 Q 453 548 422 554 Q 389 558 294 520 Q 162 487 132 483 Q 95 474 122 459 Q 167 435 225 454 Q 238 458 257 461 L 307 474 Z" style="fill: #0070C0;"></path>
                                                                        <path d="M 296 373 Q 308 369 338 368 Q 360 367 368 354 Q 383 330 339 194 Q 318 128 290 117 Q 277 114 241 129 Q 210 142 206 138 Q 202 131 216 120 Q 250 93 264 55 Q 268 42 278 36 Q 290 32 318 50 Q 366 93 399 243 Q 414 316 435 337 Q 444 341 445 349 Q 446 356 424 377 Q 387 407 355 397 Q 325 397 309 400 C 279 404 267 379 296 373 Z" style="fill: #0070C0;"></path>
                                                                        <path d="M 309 400 Q 316 419 329 436 Q 335 442 333 450 Q 327 468 307 474 C 280 487 254 491 257 461 Q 270 389 175 241 Q 171 237 167 230 Q 136 187 56 98 Q 49 94 59 92 Q 113 104 211 226 Q 277 337 296 373 L 309 400 Z" style="fill: #0070C0;"></path>
                                                                        <path d="M 582 620 Q 607 660 634 714 Q 647 745 659 760 Q 666 770 661 783 Q 655 793 627 810 Q 602 823 584 821 Q 568 817 577 798 Q 611 752 486 528 Q 479 518 477 512 Q 476 502 488 506 Q 507 512 568 599 L 582 620 Z" style="fill: #0070C0;"></path>
                                                                        <path d="M 568 599 Q 616 575 665 590 Q 825 627 832 633 Q 839 640 835 649 Q 828 659 800 666 Q 778 669 685 640 Q 591 622 582 620 C 553 614 541 612 568 599 Z" style="fill: #0070C0;"></path>
                                                                        <path d="M 573 438 Q 604 480 623 494 Q 639 506 626 518 Q 611 528 588 535 Q 566 541 556 536 Q 546 532 552 522 Q 561 504 516 409 Q 503 387 491 360 Q 487 344 500 351 Q 537 391 558 418 L 573 438 Z" style="fill: #0070C0;"></path>
                                                                        <path d="M 661 411 Q 716 424 774 435 Q 802 442 807 446 Q 814 453 811 461 Q 804 471 778 478 Q 750 484 723 472 Q 651 448 573 438 C 543 434 531 431 558 418 Q 588 402 616 404 L 661 411 Z" style="fill: #0070C0;"></path>
                                                                        <path d="M 668 260 Q 737 272 878 272 Q 896 273 900 281 Q 904 291 889 303 Q 838 339 778 321 Q 733 312 671 299 L 619 291 Q 540 278 451 264 Q 432 263 446 247 Q 459 235 475 230 Q 494 226 508 231 Q 554 244 610 253 L 668 260 Z" style="fill: #0070C0;"></path>
                                                                        <path d="M 671 299 Q 675 339 694 368 Q 703 384 689 392 Q 673 405 661 411 C 635 426 607 433 616 404 Q 631 368 619 291 L 610 253 Q 577 112 456 45 Q 443 35 428 26 Q 416 19 427 15 Q 473 11 550 72 Q 620 129 654 234 L 671 299 Z" style="fill: #0070C0;"></path>
                                                                        <path d="M 654 234 Q 712 140 790 37 Q 805 19 832 19 Q 922 19 950 23 Q 959 24 960 29 Q 961 33 949 40 Q 817 98 731 192 Q 700 223 668 260 C 648 283 635 265 654 234 Z" style="fill: #0070C0;"></path>
                                    
                                    
                                                                                                                                                                                                                                                                                                                                                                                                                                                                                                                                                                                                                                                                                                                                                                                                                                                                                                                                                </g>
                            </svg>