<svg width='83' height='83' >
                                <g transform="translate(3, 70) scale(0.07, -0.07)">
                                    <!-- 先将完整的字以灰色字体绘制完成，层级位于下面 -->
                                                                        <path d="M 282 725 Q 310 701 341 673 Q 356 660 373 661 Q 383 662 389 676 Q 393 692 383 723 Q 371 754 275 775 Q 259 778 252 775 Q 246 771 249 757 Q 253 747 282 725 Z" style="fill: #0070C0;"></path>
                                                                        <path d="M 274 519 Q 292 526 397 548 Q 407 548 415 562 Q 415 572 392 581 Q 359 602 280 569 Q 265 566 253 560 Q 220 550 98 521 Q 70 514 93 500 Q 127 478 165 489 Q 195 498 232 508 L 274 519 Z" style="fill: #0070C0;"></path>
                                                                        <path d="M 270 408 Q 324 399 334 385 Q 346 357 301 224 Q 277 163 252 152 Q 240 146 198 159 Q 161 172 158 166 Q 154 157 171 147 Q 213 116 224 82 Q 230 66 241 60 Q 254 56 285 78 Q 334 120 369 270 Q 384 343 407 360 Q 417 364 419 374 Q 420 383 397 406 Q 369 434 319 434 Q 292 437 287 438 C 257 442 241 414 270 408 Z" style="fill: #0070C0;"></path>
                                                                        <path d="M 287 438 Q 299 462 309 472 Q 316 478 313 487 Q 312 496 299 506 Q 287 516 274 519 C 246 530 228 536 232 508 Q 247 439 151 304 Q 148 303 147 299 Q 119 260 44 183 Q 37 177 47 176 Q 110 188 206 308 Q 207 312 211 315 Q 236 349 270 408 L 287 438 Z" style="fill: #0070C0;"></path>
                                                                        <path d="M 559 681 Q 590 741 605 755 Q 612 765 607 778 Q 603 788 575 807 Q 550 820 532 819 Q 516 816 525 797 Q 541 773 498 672 Q 477 627 447 576 Q 440 566 438 561 Q 435 551 448 554 Q 472 561 543 656 L 559 681 Z" style="fill: #0070C0;"></path>
                                                                        <path d="M 543 656 Q 582 635 633 650 Q 694 663 758 677 Q 786 684 792 689 Q 799 696 795 705 Q 788 715 760 722 Q 730 728 702 715 Q 669 703 634 694 Q 597 687 559 681 C 529 676 516 669 543 656 Z" style="fill: #0070C0;"></path>
                                                                        <path d="M 661 552 Q 662 564 656 583 Q 652 599 626 609 Q 566 627 556 623 Q 552 619 554 609 Q 557 602 578 586 Q 602 568 627 545 C 649 525 660 522 661 552 Z" style="fill: #0070C0;"></path>
                                                                        <path d="M 614 507 Q 698 522 808 523 Q 824 524 828 532 Q 832 542 818 552 Q 773 583 703 563 Q 682 559 661 552 L 627 545 Q 617 544 611 542 Q 538 527 449 511 Q 433 508 446 495 Q 468 476 512 485 Q 540 494 573 499 L 614 507 Z" style="fill: #0070C0;"></path>
                                                                        <path d="M 722 398 Q 647 388 568 368 Q 559 365 556 367 Q 555 370 559 375 Q 628 448 642 461 Q 654 468 649 480 Q 645 490 614 507 C 588 522 568 529 573 499 Q 573 498 574 496 Q 581 463 546 416 Q 524 388 481 360 Q 468 350 471 341 Q 475 326 496 308 Q 505 298 516 307 Q 556 337 734 377 Q 735 378 737 377 C 767 382 752 402 722 398 Z" style="fill: #0070C0;"></path>
                                                                        <path d="M 737 377 Q 753 353 771 326 Q 780 313 793 309 Q 802 308 809 317 Q 816 329 816 355 Q 813 389 730 437 Q 718 444 712 443 Q 708 440 706 429 Q 706 420 722 398 L 737 377 Z" style="fill: #0070C0;"></path>
                                                                        <path d="M 444 253 Q 462 229 445 144 Q 426 74 348 21 Q 336 14 347 11 Q 383 8 435 49 Q 480 83 503 175 Q 506 203 518 223 Q 525 238 512 246 Q 470 276 450 269 Q 438 265 444 253 Z" style="fill: #0070C0;"></path>
                                                                        <path d="M 561 264 Q 583 210 567 79 Q 561 52 585 22 Q 592 12 602 22 Q 620 56 619 85 Q 615 163 626 237 Q 632 256 614 267 Q 599 277 585 284 Q 575 288 566 284 Q 559 278 561 264 Z" style="fill: #0070C0;"></path>
                                                                        <path d="M 965 75 Q 952 97 929 172 Q 928 185 921 190 Q 915 191 912 176 Q 896 95 882 70 Q 875 60 852 55 Q 798 46 759 64 Q 741 74 737 85 Q 718 124 742 261 Q 748 289 703 306 Q 693 310 684 306 Q 678 302 683 286 Q 693 252 691 217 Q 682 64 713 34 Q 777 -20 905 6 Q 933 15 961 35 Q 979 51 965 75 Z" style="fill: #0070C0;"></path>
                                    
                                    
                                                                                                                                                                                                                                                                                                                                                                                                                                                                                                                                                                                                                                                                                                                                                                                                                                                                                                                                                                                                                                                                                                        </g>
                            </svg>