<svg width='83' height='83' >
                                <g transform="translate(3, 70) scale(0.07, -0.07)">
                                    <!-- 先将完整的字以灰色字体绘制完成，层级位于下面 -->
                                                                        <path d="M 349 664 Q 348 665 347 666 Q 322 687 292 696 Q 282 697 274 689 Q 270 682 279 670 Q 331 531 294 261 Q 287 216 271 169 Q 262 141 267 118 Q 277 81 291 65 Q 304 50 314 66 Q 324 79 332 102 L 339 137 Q 349 186 350 238 Q 350 316 351 391 L 352 420 Q 353 576 361 626 C 364 652 364 652 349 664 Z" style="fill: #0070C0;"></path>
                                                                        <path d="M 608 120 Q 641 78 665 39 Q 675 18 688 19 Q 707 20 724 59 Q 745 104 740 157 Q 728 310 721 593 Q 720 629 738 654 Q 748 669 738 681 Q 716 703 656 730 Q 635 740 617 729 Q 512 684 349 664 C 319 660 332 620 361 626 Q 410 635 590 672 Q 624 679 640 666 Q 691 615 658 164 Q 657 163 657 159 Q 653 143 640 144 C 621 121 602 128 608 120 Z" style="fill: #0070C0;"></path>
                                                                        <path d="M 351 391 Q 390 378 433 387 Q 493 399 554 411 Q 582 417 587 421 Q 596 428 591 437 Q 584 447 556 455 Q 531 461 450 435 Q 375 423 352 420 C 322 416 322 400 351 391 Z" style="fill: #0070C0;"></path>
                                                                        <path d="M 332 102 Q 345 98 361 100 Q 440 115 608 120 C 638 121 661 122 640 144 Q 633 153 614 166 Q 596 178 561 170 Q 438 146 339 137 C 309 134 303 108 332 102 Z" style="fill: #0070C0;"></path>
                                    
                                    
                                                                                                                                                                                                                                                                                                                                                                                            </g>
                            </svg>