<svg width='83' height='83' >
                                <g transform="translate(3, 70) scale(0.07, -0.07)">
                                    <!-- 先将完整的字以灰色字体绘制完成，层级位于下面 -->
                                                                        <path d="M 173 595 Q 234 487 239 238 Q 240 166 285 132 L 287 131 Q 308 125 309 161 Q 309 179 282 374 Q 272 474 267 555 Q 268 571 252 586 Q 219 608 185 618 Q 176 621 171 615 Q 161 608 173 595 Z" style="fill: #0070C0;"></path>
                                                                        <path d="M 393 602 Q 381 609 356 615 Q 343 619 339 614 Q 332 608 339 591 Q 379 464 383 265 Q 382 205 408 162 Q 424 137 432 153 Q 436 163 438 174 L 443 205 Q 443 227 428 372 L 425 402 Q 412 523 410 565 C 408 595 408 595 393 602 Z" style="fill: #0070C0;"></path>
                                                                        <path d="M 654 189 Q 679 156 701 147 Q 714 138 731 166 Q 756 221 786 505 Q 796 542 823 573 Q 838 589 824 605 Q 805 624 753 655 Q 731 664 649 645 Q 637 645 500 620 Q 442 610 393 602 C 363 597 381 558 410 565 Q 500 587 658 605 Q 692 609 702 598 Q 730 568 726 537 Q 692 243 665 221 C 651 195 650 193 654 189 Z" style="fill: #0070C0;"></path>
                                                                        <path d="M 428 372 Q 431 372 634 391 Q 662 394 653 410 Q 640 429 610 436 Q 567 442 425 402 C 396 394 398 370 428 372 Z" style="fill: #0070C0;"></path>
                                                                        <path d="M 438 174 Q 444 173 456 174 Q 568 184 654 189 C 684 191 689 203 665 221 Q 658 228 642 232 Q 617 238 570 229 Q 503 216 443 205 C 413 200 408 176 438 174 Z" style="fill: #0070C0;"></path>
                                    
                                    
                                                                                                                                                                                                                                                                                                                                                                                                                                                                        </g>
                            </svg>