<svg width='83' height='83' >
                                <g transform="translate(3, 70) scale(0.07, -0.07)">
                                    <!-- 先将完整的字以灰色字体绘制完成，层级位于下面 -->
                                                                        <path d="M 141 696 Q 128 712 102 721 Q 93 725 82 721 Q 75 717 80 705 Q 104 639 105 507 Q 101 324 82 252 Q 69 198 102 157 Q 112 144 122 156 Q 131 168 137 214 L 138 250 Q 139 265 139 281 Q 140 386 141 462 L 142 493 Q 143 647 147 661 Q 147 665 147 669 C 149 689 149 689 141 696 Z" style="fill: #0070C0;"></path>
                                                                        <path d="M 260 225 Q 272 206 285 186 Q 301 161 309 164 Q 322 167 336 201 Q 351 240 346 288 Q 339 387 335 601 Q 335 656 350 685 Q 360 704 352 715 Q 345 725 292 740 Q 267 749 250 738 Q 190 710 141 696 C 112 687 118 663 147 669 Q 174 672 231 693 Q 261 703 272 693 Q 285 680 286 624 Q 290 398 281 273 Q 285 252 270 252 C 255 233 255 233 260 225 Z" style="fill: #0070C0;"></path>
                                                                        <path d="M 141 462 Q 142 462 145 460 Q 148 459 241 474 Q 266 481 255 495 Q 240 511 210 511 Q 183 511 142 493 C 114 481 114 475 141 462 Z" style="fill: #0070C0;"></path>
                                                                        <path d="M 137 214 Q 141 214 147 215 Q 184 222 260 225 C 290 226 292 232 270 252 Q 264 258 254 264 Q 238 273 207 266 Q 168 256 138 250 C 109 244 107 212 137 214 Z" style="fill: #0070C0;"></path>
                                                                        <path d="M 620 684 Q 689 700 761 715 Q 804 725 811 732 Q 821 741 816 751 Q 807 764 774 772 Q 747 776 639 742 Q 539 718 475 710 Q 433 703 463 684 Q 502 662 562 670 L 620 684 Z" style="fill: #0070C0;"></path>
                                                                        <path d="M 646 462 Q 760 480 922 481 Q 944 482 949 492 Q 955 505 936 520 Q 876 560 835 550 Q 765 532 647 508 L 591 498 Q 488 482 369 461 Q 347 458 364 439 Q 403 409 450 423 Q 516 444 591 454 L 646 462 Z" style="fill: #0070C0;"></path>
                                                                        <path d="M 592 -31 Q 598 -59 605 -69 Q 611 -76 619 -74 Q 635 -65 642 0 Q 651 88 648 177 Q 644 241 646 462 L 647 508 Q 647 581 660 638 Q 663 657 648 667 Q 632 677 620 684 C 594 699 551 698 562 670 Q 586 610 589 603 Q 589 552 591 498 L 591 454 Q 591 -21 592 -31 Z" style="fill: #0070C0;"></path>
                                    
                                    
                                                                                                                                                                                                                                                                                                                                                                                                                                                                                                                                                                                                                                </g>
                            </svg>