<svg width='83' height='83' >
                                <g transform="translate(3, 70) scale(0.07, -0.07)">
                                    <!-- 先将完整的字以灰色字体绘制完成，层级位于下面 -->
                                                                        <path d="M 353 763 Q 338 770 311 772 Q 298 776 295 770 Q 288 763 298 747 Q 332 677 354 561 Q 358 527 379 504 Q 398 482 403 498 Q 406 508 406 521 L 405 551 Q 405 557 391 623 L 386 649 Q 376 703 371 726 C 365 755 364 759 353 763 Z" style="fill: #0070C0;"></path>
                                                                        <path d="M 591 545 Q 607 517 624 509 Q 634 499 653 522 Q 669 546 706 676 Q 716 709 743 735 Q 756 748 745 764 Q 729 783 684 812 Q 665 822 598 807 Q 565 804 448 780 Q 397 770 353 763 C 323 758 342 717 371 726 Q 428 745 601 769 Q 632 773 642 763 Q 654 747 651 732 Q 624 608 613 589 Q 607 579 596 574 C 580 561 580 561 591 545 Z" style="fill: #0070C0;"></path>
                                                                        <path d="M 391 623 Q 397 622 409 624 Q 503 643 574 654 Q 599 658 589 672 Q 577 687 551 691 Q 530 694 386 649 C 357 640 361 624 391 623 Z" style="fill: #0070C0;"></path>
                                                                        <path d="M 406 521 Q 416 518 428 521 Q 480 534 591 545 C 621 548 619 555 596 574 Q 592 578 584 582 Q 568 589 540 582 Q 464 563 405 551 C 376 545 377 527 406 521 Z" style="fill: #0070C0;"></path>
                                                                        <path d="M 330 390 Q 363 377 433 385 Q 556 403 688 423 Q 752 435 761 443 Q 771 450 766 460 Q 759 473 731 481 Q 698 488 609 462 Q 459 428 328 421 Q 327 421 327 420 C 297 416 301 399 330 390 Z" style="fill: #0070C0;"></path>
                                                                        <path d="M 327 420 Q 324 424 320 426 Q 275 454 260 453 Q 241 452 254 429 Q 278 371 241 215 Q 229 172 203 123 Q 176 72 103 14 Q 87 4 83 -3 Q 82 -10 93 -11 Q 129 -14 192 40 Q 271 109 308 280 Q 327 383 330 390 C 336 414 336 414 327 420 Z" style="fill: #0070C0;"></path>
                                                                        <path d="M 534 225 Q 543 256 552 297 Q 556 316 562 326 Q 569 333 563 344 Q 557 351 527 363 Q 493 379 478 374 Q 465 368 476 351 Q 498 293 472 211 Q 433 108 296 45 Q 275 36 250 26 Q 223 16 254 12 Q 347 8 446 80 Q 453 89 462 96 Q 495 129 525 196 L 534 225 Z" style="fill: #0070C0;"></path>
                                                                        <path d="M 525 196 Q 600 103 683 17 Q 707 -8 748 -10 Q 823 -14 901 -1 Q 920 0 922 6 Q 925 13 909 20 Q 735 86 730 88 Q 654 127 536 223 Q 535 224 534 225 C 511 244 506 219 525 196 Z" style="fill: #0070C0;"></path>
                                    
                                    
                                                                                                                                                                                                                                                                                                                                                                                                                                                                                                                                                                                                                                                                                                            </g>
                            </svg>