<svg width='83' height='83' >
                                <g transform="translate(3, 70) scale(0.07, -0.07)">
                                    <!-- 先将完整的字以灰色字体绘制完成，层级位于下面 -->
                                                                        <path d="M 387 796 Q 363 814 338 821 Q 332 822 327 818 Q 320 814 328 803 Q 362 740 364 595 Q 367 526 399 510 Q 415 506 417 533 Q 417 536 417 538 L 417 564 Q 416 580 411 598 Q 408 620 406 648 L 404 674 Q 401 723 401 764 C 401 786 401 786 387 796 Z" style="fill: #0070C0;"></path>
                                                                        <path d="M 545 556 Q 587 514 589 513 Q 599 506 614 528 Q 629 559 650 724 Q 657 755 678 780 Q 690 793 678 806 Q 662 822 620 844 Q 599 850 433 809 Q 408 803 387 796 C 358 787 372 755 401 764 Q 458 782 555 800 Q 577 804 584 797 Q 600 779 598 761 Q 582 613 571 585 C 563 556 531 570 545 556 Z" style="fill: #0070C0;"></path>
                                                                        <path d="M 406 648 Q 481 660 536 670 Q 557 674 549 685 Q 539 698 517 701 Q 492 704 404 674 C 376 664 376 643 406 648 Z" style="fill: #0070C0;"></path>
                                                                        <path d="M 417 538 Q 489 550 545 556 C 575 559 598 572 571 585 Q 564 589 553 591 Q 523 595 417 564 C 388 556 387 533 417 538 Z" style="fill: #0070C0;"></path>
                                                                        <path d="M 368 415 Q 387 437 397 447 Q 407 459 404 468 Q 401 480 376 486 Q 349 495 338 491 Q 331 490 329 477 Q 317 407 164 272 Q 145 257 170 261 Q 239 268 349 393 L 368 415 Z" style="fill: #0070C0;"></path>
                                                                        <path d="M 603 416 Q 642 428 708 429 Q 726 429 732 421 Q 744 393 721 243 Q 703 129 665 69 Q 650 41 633 42 Q 618 38 538 70 Q 528 74 527 68 Q 526 64 538 52 Q 583 0 601 -36 Q 611 -60 626 -59 Q 644 -63 663 -46 Q 730 -4 763 124 Q 787 209 808 342 Q 812 373 834 393 Q 849 408 848 417 Q 847 426 827 442 Q 799 466 760 479 Q 733 491 682 472 Q 460 424 368 415 C 338 411 320 399 349 393 Q 370 387 396 386 L 427 389 L 564 410 L 603 416 Z" style="fill: #0070C0;"></path>
                                                                        <path d="M 396 386 L 397 384 Q 397 312 242 184 Q 232 180 229 171 Q 229 167 233 167 Q 269 163 356 237 Q 395 271 421 302 Q 437 321 448 331 Q 455 338 451 351 Q 441 375 427 389 C 407 411 394 416 396 386 Z" style="fill: #0070C0;"></path>
                                                                        <path d="M 564 410 Q 564 344 420 165 Q 413 159 406 151 Q 346 94 254 37 Q 247 33 242 29 Q 235 20 245 17 Q 288 10 400 85 Q 403 88 407 90 Q 498 163 574 278 Q 601 320 619 340 Q 634 349 633 365 Q 627 386 603 416 C 585 440 568 440 564 410 Z" style="fill: #0070C0;"></path>
                                    
                                    
                                                                                                                                                                                                                                                                                                                                                                                                                                                                                                                                                                                                                                                                                                            </g>
                            </svg>