<svg width='83' height='83' >
                                <g transform="translate(3, 70) scale(0.07, -0.07)">
                                    <!-- 先将完整的字以灰色字体绘制完成，层级位于下面 -->
                                                                        <path d="M 361 749 Q 348 753 326 757 Q 313 761 309 755 Q 302 748 311 731 Q 342 664 360 552 Q 364 519 382 497 Q 401 472 408 490 Q 411 499 412 509 L 412 534 Q 411 547 409 562 Q 405 589 401 611 L 397 637 Q 387 701 387 719 C 386 742 386 742 361 749 Z" style="fill: #0070C0;"></path>
                                                                        <path d="M 601 534 Q 622 501 640 493 Q 652 484 668 507 Q 684 532 714 665 Q 724 698 749 723 Q 762 736 751 751 Q 735 770 691 797 Q 673 806 594 790 Q 519 780 361 749 C 332 743 358 712 387 719 Q 468 740 604 757 Q 637 761 647 750 Q 660 735 658 720 Q 631 572 613 559 C 599 537 599 537 601 534 Z" style="fill: #0070C0;"></path>
                                                                        <path d="M 401 611 L 591 645 Q 613 649 605 661 Q 595 674 571 678 Q 550 681 397 637 C 368 629 371 606 401 611 Z" style="fill: #0070C0;"></path>
                                                                        <path d="M 412 509 Q 454 519 601 534 C 631 537 637 541 613 559 Q 607 565 595 567 Q 574 570 412 534 C 383 528 383 502 412 509 Z" style="fill: #0070C0;"></path>
                                                                        <path d="M 329 415 Q 289 411 316 391 Q 364 361 420 373 Q 526 386 638 403 Q 689 410 697 417 Q 707 426 702 435 Q 695 448 665 458 Q 637 467 520 436 Q 379 417 329 415 Z" style="fill: #0070C0;"></path>
                                                                        <path d="M 464 264 Q 609 282 842 277 Q 876 276 906 275 Q 928 274 934 284 Q 941 297 923 312 Q 866 357 824 349 Q 626 313 111 264 Q 87 263 104 243 Q 119 227 139 221 Q 161 214 180 219 Q 286 246 407 258 L 464 264 Z" style="fill: #0070C0;"></path>
                                                                        <path d="M 676 117 Q 528 102 372 85 Q 359 84 357 87 Q 356 90 362 96 Q 450 198 482 224 Q 498 237 490 247 Q 483 257 464 264 C 437 278 410 288 407 258 Q 407 198 331 121 Q 309 99 266 79 Q 238 69 236 59 Q 233 41 242 19 Q 251 -2 264 -9 Q 271 -13 283 -8 Q 382 43 689 96 C 719 101 706 120 676 117 Z" style="fill: #0070C0;"></path>
                                                                        <path d="M 689 96 Q 746 0 756 -7 Q 763 -10 773 -2 Q 789 8 786 53 Q 786 105 630 229 Q 623 236 618 224 Q 614 211 622 199 Q 647 162 676 117 L 689 96 Z" style="fill: #0070C0;"></path>
                                    
                                    
                                                                                                                                                                                                                                                                                                                                                                                                                                                                                                                                                                                                                                                                                                            </g>
                            </svg>