<svg width='83' height='83' >
                                <g transform="translate(3, 70) scale(0.07, -0.07)">
                                    <!-- 先将完整的字以灰色字体绘制完成，层级位于下面 -->
                                                                        <path d="M 177 663 Q 141 687 124 680 Q 117 676 123 663 Q 141 608 145 490 Q 139 345 133 314 Q 109 266 153 209 Q 163 196 174 209 Q 184 222 186 239 L 188 271 Q 188 283 189 441 L 190 471 Q 191 607 192 619 Q 193 632 193 640 C 193 653 193 653 177 663 Z" style="fill: #0070C0;"></path>
                                                                        <path d="M 297 249 Q 307 233 319 216 Q 334 194 341 196 Q 351 197 365 229 Q 371 250 373 318 Q 354 609 378 656 Q 388 672 380 683 Q 373 693 326 706 Q 304 713 288 704 Q 227 674 177 663 C 148 656 164 632 193 640 Q 194 641 197 641 Q 228 650 264 662 Q 295 672 308 663 Q 321 651 320 603 Q 324 404 316 295 Q 319 279 308 275 C 296 251 296 251 297 249 Z" style="fill: #0070C0;"></path>
                                                                        <path d="M 189 441 Q 247 454 293 462 Q 314 466 305 477 Q 295 490 272 492 Q 238 495 190 471 C 163 458 160 434 189 441 Z" style="fill: #0070C0;"></path>
                                                                        <path d="M 186 239 Q 222 246 297 249 C 327 250 330 255 308 275 Q 304 279 298 283 Q 285 290 257 285 Q 220 276 188 271 C 158 266 157 234 186 239 Z" style="fill: #0070C0;"></path>
                                                                        <path d="M 535 612 Q 565 663 598 726 Q 617 771 637 793 Q 644 805 639 818 Q 633 831 602 851 Q 574 867 554 864 Q 535 860 546 839 Q 591 767 392 460 Q 382 448 381 442 Q 378 430 393 434 Q 439 455 514 579 L 535 612 Z" style="fill: #0070C0;"></path>
                                                                        <path d="M 629 581 Q 726 602 829 623 Q 883 636 891 643 Q 900 650 895 660 Q 888 672 858 679 Q 834 685 730 652 Q 643 627 535 612 C 505 608 485 588 514 579 Q 544 567 591 573 L 629 581 Z" style="fill: #0070C0;"></path>
                                                                        <path d="M 647 278 Q 647 377 650 419 L 651 449 Q 654 510 660 541 Q 663 554 655 560 Q 642 573 629 581 C 605 599 583 602 591 573 Q 612 534 593 199 Q 583 88 575 68 Q 563 32 613 -45 Q 616 -48 620 -51 Q 632 -52 638 -38 Q 651 -4 648 28 Q 647 143 646 247 L 647 278 Z" style="fill: #0070C0;"></path>
                                                                        <path d="M 650 419 Q 689 409 729 420 Q 777 432 826 443 Q 848 449 852 453 Q 861 460 856 469 Q 849 479 820 485 Q 790 489 762 477 Q 737 467 709 460 Q 681 454 651 449 C 621 444 621 426 650 419 Z" style="fill: #0070C0;"></path>
                                                                        <path d="M 646 247 Q 674 237 746 247 Q 867 271 875 275 Q 884 282 879 292 Q 872 304 842 311 Q 811 318 780 305 Q 752 295 719 288 Q 685 282 647 278 C 617 275 617 255 646 247 Z" style="fill: #0070C0;"></path>
                                    
                                    
                                                                                                                                                                                                                                                                                                                                                                                                                                                                                                                                                                                                                                                                                                                                                                                        </g>
                            </svg>