<svg width='83' height='83' >
                                <g transform="translate(3, 70) scale(0.07, -0.07)">
                                    <!-- 先将完整的字以灰色字体绘制完成，层级位于下面 -->
                                                                        <path d="M 325 782 Q 313 788 284 793 Q 272 796 269 791 Q 262 785 271 769 Q 302 700 318 588 Q 321 554 340 532 Q 358 510 363 525 Q 367 535 367 552 L 366 575 Q 365 587 363 599 Q 359 626 355 647 L 351 669 Q 342 727 340 749 C 337 777 337 777 325 782 Z" style="fill: #0070C0;"></path>
                                                                        <path d="M 579 571 Q 594 549 608 541 Q 618 532 635 554 Q 648 573 681 685 Q 691 716 717 740 Q 730 752 720 767 Q 705 785 663 814 Q 644 824 627 819 Q 596 813 552 809 Q 497 803 425 795 Q 370 788 325 782 C 295 778 311 744 340 749 Q 341 750 345 750 Q 430 766 578 777 Q 611 780 620 768 Q 630 755 628 742 Q 606 634 597 618 Q 593 605 579 603 C 562 593 562 593 579 571 Z" style="fill: #0070C0;"></path>
                                                                        <path d="M 355 647 Q 365 644 379 646 Q 470 659 538 668 Q 562 672 553 684 Q 543 699 517 704 Q 490 710 351 669 C 322 661 326 653 355 647 Z" style="fill: #0070C0;"></path>
                                                                        <path d="M 478 561 Q 530 568 579 571 C 609 573 609 601 579 603 Q 560 607 366 575 C 336 570 337 554 367 552 Q 376 551 392 552 Q 414 556 438 557 L 478 561 Z" style="fill: #0070C0;"></path>
                                                                        <path d="M 499 349 Q 506 451 519 508 Q 529 524 518 535 Q 496 553 478 561 C 451 574 435 582 438 557 Q 437 553 441 544 Q 447 535 453 467 Q 453 410 458 344 C 460 314 497 319 499 349 Z" style="fill: #0070C0;"></path>
                                                                        <path d="M 272 436 Q 312 381 339 369 Q 352 365 363 377 Q 370 389 369 405 Q 365 429 348 443 Q 336 452 285 474 Q 270 480 262 476 Q 255 475 257 463 Q 258 451 272 436 Z" style="fill: #0070C0;"></path>
                                                                        <path d="M 684 453 Q 703 466 725 473 Q 746 480 737 498 Q 727 514 704 529 Q 685 544 672 542 Q 660 542 663 529 Q 663 502 563 405 Q 553 390 569 392 Q 581 398 684 453 Z" style="fill: #0070C0;"></path>
                                                                        <path d="M 533 315 Q 593 319 798 320 Q 817 320 823 328 Q 827 340 812 354 Q 760 393 722 385 Q 638 369 499 349 L 458 344 Q 322 328 165 310 Q 143 309 159 291 Q 172 278 191 271 Q 212 265 228 270 Q 289 286 357 295 L 384 299 Q 435 308 483 311 L 533 315 Z" style="fill: #0070C0;"></path>
                                                                        <path d="M 357 295 Q 356 292 356 288 Q 352 195 237 98 Q 234 98 233 95 Q 202 68 126 25 Q 119 19 124 15 Q 148 2 240 50 Q 321 89 394 204 Q 407 223 422 240 Q 431 247 427 258 Q 417 282 384 299 C 359 313 359 313 357 295 Z" style="fill: #0070C0;"></path>
                                                                        <path d="M 886 74 L 876 74 Q 837 40 698 32 Q 619 33 585 45 Q 555 58 548 79 Q 530 133 556 227 Q 568 281 567 284 Q 564 293 533 315 C 509 333 472 339 483 311 Q 502 272 499 216 Q 492 75 514 43 Q 541 -2 637 -13 Q 704 -22 808 -14 Q 902 -7 939 15 Q 969 31 956 61 Q 937 113 927 201 Q 926 217 918 222 Q 909 226 906 207 Q 891 98 875 77 L 886 74 Z" style="fill: #0070C0;"></path>
                                    
                                    
                                                                                                                                                                                                                                                                                                                                                                                                                                                                                                                                                                                                                                                                                                                                                                                                                                                                    </g>
                            </svg>