<svg width='83' height='83' >
                                <g transform="translate(3, 70) scale(0.07, -0.07)">
                                    <!-- 先将完整的字以灰色字体绘制完成，层级位于下面 -->
                                                                        <path d="M 189 687 Q 179 700 154 709 Q 145 713 134 709 Q 127 705 132 693 Q 151 611 153 608 Q 153 350 135 270 Q 111 207 150 157 Q 160 144 170 156 Q 182 171 183 194 L 186 223 Q 186 229 191 429 L 192 459 Q 196 634 198 649 Q 199 656 199 661 C 200 677 200 677 189 687 Z" style="fill: #0070C0;"></path>
                                                                        <path d="M 273 201 Q 283 185 295 167 Q 310 145 317 148 Q 330 151 343 185 Q 358 224 352 272 Q 345 371 337 584 Q 336 639 351 668 Q 361 684 353 695 Q 346 705 299 718 Q 277 725 261 716 Q 222 697 189 687 C 161 677 170 655 199 661 Q 277 676 279 676 L 280 675 Q 295 660 295 605 Q 301 373 291 246 Q 292 237 290 232 C 288 202 260 222 273 201 Z" style="fill: #0070C0;"></path>
                                                                        <path d="M 191 429 Q 237 436 272 438 Q 293 442 285 453 Q 275 466 253 469 Q 232 472 195 461 Q 194 460 192 459 C 167 443 161 425 191 429 Z" style="fill: #0070C0;"></path>
                                                                        <path d="M 183 194 Q 232 200 273 201 C 303 202 317 220 290 232 Q 284 235 278 236 Q 254 242 186 223 C 157 215 153 190 183 194 Z" style="fill: #0070C0;"></path>
                                                                        <path d="M 488 626 Q 510 653 536 686 Q 552 711 566 723 Q 575 732 571 744 Q 567 754 543 776 Q 521 792 504 793 Q 488 792 494 773 Q 513 719 375 547 Q 365 538 363 533 Q 360 523 373 525 Q 391 528 466 602 L 488 626 Z" style="fill: #0070C0;"></path>
                                                                        <path d="M 466 602 Q 465 602 466 601 Q 488 556 465 444 Q 455 405 484 369 Q 484 368 486 366 Q 499 353 509 374 Q 521 407 520 444 Q 520 538 523 560 Q 529 584 496 618 Q 492 622 488 626 C 467 647 455 630 466 602 Z" style="fill: #0070C0;"></path>
                                                                        <path d="M 663 541 Q 675 551 691 561 Q 734 592 785 642 Q 807 666 824 675 Q 834 682 833 696 Q 832 708 811 733 Q 792 755 774 758 Q 758 759 760 739 Q 767 697 662 590 L 622 552 Q 579 516 574 510 Q 568 500 581 500 Q 591 500 618 514 Q 619 515 624 517 L 663 541 Z" style="fill: #0070C0;"></path>
                                                                        <path d="M 907 461 Q 891 503 878 575 Q 877 590 869 594 Q 862 598 859 580 Q 847 490 834 474 Q 819 458 748 453 Q 709 453 693 459 Q 668 471 663 541 L 662 590 Q 666 678 682 720 Q 692 748 676 763 Q 630 797 616 793 Q 603 789 609 772 Q 627 738 623 688 Q 622 606 622 552 L 624 517 Q 627 457 653 435 Q 687 407 812 406 Q 869 407 892 418 Q 920 433 907 461 Z" style="fill: #0070C0;"></path>
                                                                        <path d="M 640 254 Q 676 257 885 258 Q 906 258 911 267 Q 917 279 900 293 Q 842 338 798 324 Q 735 314 642 298 L 583 290 Q 489 280 381 267 Q 359 266 375 247 Q 390 232 408 227 Q 430 220 447 225 Q 511 241 583 248 L 640 254 Z" style="fill: #0070C0;"></path>
                                                                        <path d="M 587 0 Q 591 -24 598 -33 Q 604 -40 611 -38 Q 623 -31 632 26 Q 638 71 637 116 Q 636 147 640 254 L 642 298 Q 642 299 643 300 Q 643 316 645 325 Q 654 365 640 375 Q 609 396 595 398 Q 583 402 568 395 Q 559 388 566 377 Q 578 350 583 293 Q 582 293 583 290 L 583 248 Q 584 190 584 112 Q 584 28 587 0 Z" style="fill: #0070C0;"></path>
                                    
                                    
                                                                                                                                                                                                                                                                                                                                                                                                                                                                                                                                                                                                                                                                                                                                                                                                                                                                    </g>
                            </svg>