<svg width='83' height='83' >
                                <g transform="translate(3, 70) scale(0.07, -0.07)">
                                    <!-- 先将完整的字以灰色字体绘制完成，层级位于下面 -->
                                                                        <path d="M 334 770 Q 315 782 293 785 Q 286 786 282 782 Q 275 776 284 766 Q 317 723 331 611 Q 335 551 374 528 L 375 527 Q 391 523 392 552 Q 391 553 391 554 L 389 579 Q 376 636 375 643 L 371 667 Q 365 706 363 740 C 362 754 360 755 334 770 Z" style="fill: #0070C0;"></path>
                                                                        <path d="M 582 579 Q 598 554 612 545 Q 622 538 638 557 Q 653 578 687 693 Q 697 724 721 747 Q 734 759 723 773 Q 710 789 668 817 Q 649 827 633 821 Q 602 814 560 808 Q 505 799 436 788 Q 379 778 334 770 C 304 765 334 733 363 740 Q 444 761 588 779 Q 619 783 630 772 Q 640 759 638 745 Q 608 621 592 607 C 578 584 578 584 582 579 Z" style="fill: #0070C0;"></path>
                                                                        <path d="M 375 643 Q 384 642 396 643 Q 490 661 559 671 Q 581 675 573 688 Q 563 703 537 707 Q 513 710 472 698 Q 418 682 371 667 C 342 658 345 645 375 643 Z" style="fill: #0070C0;"></path>
                                                                        <path d="M 391 554 Q 397 553 410 554 Q 507 570 582 579 C 612 583 617 591 592 607 Q 585 613 571 615 Q 553 618 389 579 C 360 572 361 556 391 554 Z" style="fill: #0070C0;"></path>
                                                                        <path d="M 568 409 Q 662 425 675 437 Q 684 444 679 452 Q 672 464 644 471 Q 607 478 566 459 L 506 441 Q 437 423 333 412 Q 330 412 328 410 C 299 403 309 388 338 382 Q 369 373 450 386 Q 481 393 517 399 L 568 409 Z" style="fill: #0070C0;"></path>
                                                                        <path d="M 328 410 Q 286 437 271 437 Q 252 436 265 414 Q 290 359 249 203 Q 239 175 222 142 Q 201 102 159 65 Q 120 37 116 28 Q 113 21 124 21 Q 160 18 214 67 Q 271 116 308 240 L 314 269 Q 330 357 338 382 C 343 401 343 401 328 410 Z" style="fill: #0070C0;"></path>
                                                                        <path d="M 308 240 Q 321 233 335 237 Q 407 261 415 253 Q 419 246 418 224 Q 414 166 401 141 Q 385 113 359 118 Q 335 127 314 136 Q 292 145 306 122 Q 346 80 363 49 Q 375 33 388 43 Q 431 67 461 166 Q 471 226 492 249 Q 502 259 498 269 Q 491 279 446 299 Q 437 305 395 289 Q 319 271 314 269 C 285 261 279 249 308 240 Z" style="fill: #0070C0;"></path>
                                                                        <path d="M 624 155 Q 744 -25 874 -51 Q 875 -51 879 -52 Q 907 -49 901 -12 Q 891 21 885 174 Q 884 187 878 189 Q 871 189 868 175 Q 856 141 845 107 Q 830 62 815 63 Q 776 63 698 150 Q 692 157 663 196 L 634 241 Q 580 325 569 407 Q 568 408 568 409 L 566 459 Q 567 472 570 484 Q 574 506 532 528 Q 489 550 477 546 Q 464 539 470 521 Q 494 494 506 441 L 517 399 Q 544 293 600 194 L 624 155 Z" style="fill: #0070C0;"></path>
                                                                        <path d="M 600 194 Q 548 136 470 71 Q 461 67 471 64 Q 517 64 620 151 Q 621 154 624 155 L 663 196 Q 694 232 739 290 Q 757 317 758 319 Q 755 343 715 361 Q 696 368 684 367 Q 677 366 677 353 Q 684 316 634 241 L 600 194 Z" style="fill: #0070C0;"></path>
                                                                        <path d="M 699 504 Q 727 480 758 451 Q 770 441 783 441 Q 793 441 797 453 Q 801 466 794 491 Q 785 521 695 546 Q 682 549 676 547 Q 672 543 673 532 Q 676 522 699 504 Z" style="fill: #0070C0;"></path>
                                    
                                    
                                                                                                                                                                                                                                                                                                                                                                                                                                                                                                                                                                                                                                                                                                                                                                                                                                                                    </g>
                            </svg>