<svg width='83' height='83' >
                                <g transform="translate(3, 70) scale(0.07, -0.07)">
                                    <!-- 先将完整的字以灰色字体绘制完成，层级位于下面 -->
                                                                        <path d="M 170 683 Q 155 698 134 705 Q 125 709 114 705 Q 107 701 112 689 Q 133 625 135 586 Q 147 360 114 228 Q 101 174 134 133 Q 144 120 154 132 Q 166 148 166 167 L 169 198 Q 170 223 171 258 Q 172 351 173 421 L 173 457 Q 176 646 180 657 C 182 673 182 673 170 683 Z" style="fill: #0070C0;"></path>
                                                                        <path d="M 266 179 Q 278 160 291 140 Q 306 118 313 120 Q 326 123 341 159 Q 356 199 351 250 Q 326 607 354 664 Q 364 680 357 690 Q 350 700 304 715 Q 282 724 265 714 Q 213 693 170 683 C 141 676 151 650 180 657 L 245 673 Q 273 680 284 671 Q 299 656 298 597 Q 301 353 289 219 Q 290 209 286 203 C 281 173 253 199 266 179 Z" style="fill: #0070C0;"></path>
                                                                        <path d="M 173 421 Q 219 427 256 433 Q 280 440 270 452 Q 257 467 230 469 Q 208 470 173 457 C 145 447 143 417 173 421 Z" style="fill: #0070C0;"></path>
                                                                        <path d="M 166 167 Q 221 176 266 179 C 296 181 309 183 286 203 Q 277 212 259 215 Q 229 221 169 198 C 141 187 136 162 166 167 Z" style="fill: #0070C0;"></path>
                                                                        <path d="M 625 720 Q 689 735 757 746 Q 803 756 810 762 Q 819 769 815 777 Q 808 787 782 795 Q 761 801 633 765 Q 534 747 481 742 Q 447 738 471 721 Q 508 697 560 709 Q 564 710 571 710 L 625 720 Z" style="fill: #0070C0;"></path>
                                                                        <path d="M 610 576 Q 622 630 652 680 Q 656 689 642 706 Q 633 713 625 720 C 602 739 562 739 571 710 Q 581 682 577 664 Q 570 616 558 565 L 551 533 Q 535 460 513 381 C 505 352 545 357 554 386 Q 578 465 600 541 L 610 576 Z" style="fill: #0070C0;"></path>
                                                                        <path d="M 728 409 Q 756 502 794 532 Q 810 548 797 566 Q 781 579 733 603 Q 717 610 696 603 Q 651 587 610 576 L 558 565 Q 504 558 453 551 Q 437 550 438 541 Q 441 534 458 527 Q 482 517 515 527 Q 531 530 551 533 L 600 541 Q 637 550 677 556 Q 698 560 706 551 Q 716 541 712 520 Q 696 453 678 401 C 668 373 719 380 728 409 Z" style="fill: #0070C0;"></path>
                                                                        <path d="M 513 381 Q 443 375 368 365 Q 349 364 363 347 Q 376 334 393 328 Q 414 322 429 327 Q 595 369 938 370 Q 957 369 962 378 Q 968 388 952 402 Q 897 444 834 427 Q 788 420 728 409 L 678 401 Q 660 400 642 397 Q 599 393 554 386 L 513 381 Z" style="fill: #0070C0;"></path>
                                                                        <path d="M 471 237 Q 461 241 439 245 Q 426 249 423 243 Q 416 237 425 220 Q 453 162 468 65 Q 471 37 487 16 Q 506 -6 511 9 Q 515 19 516 33 L 514 67 Q 514 70 514 72 Q 498 184 496 209 C 494 229 494 229 471 237 Z" style="fill: #0070C0;"></path>
                                                                        <path d="M 755 92 Q 783 191 817 214 Q 835 233 819 252 Q 741 315 684 283 Q 594 256 471 237 C 441 232 467 202 496 209 Q 499 210 503 211 Q 597 227 685 244 Q 709 248 718 239 Q 728 229 726 208 Q 716 145 701 94 C 693 65 747 63 755 92 Z" style="fill: #0070C0;"></path>
                                                                        <path d="M 516 33 Q 523 32 531 33 Q 607 46 770 54 Q 780 55 783 64 Q 783 71 755 92 C 743 101 731 99 701 94 Q 596 75 514 67 C 484 64 486 35 516 33 Z" style="fill: #0070C0;"></path>
                                    
                                    
                                                                                                                                                                                                                                                                                                                                                                                                                                                                                                                                                                                                                                                                                                                                                                                                                                                                                                                                                </g>
                            </svg>