<svg width='83' height='83' >
                                <g transform="translate(3, 70) scale(0.07, -0.07)">
                                    <!-- 先将完整的字以灰色字体绘制完成，层级位于下面 -->
                                                                        <path d="M 349 788 Q 340 792 329 792 Q 317 795 315 789 Q 309 783 317 769 Q 348 709 367 611 Q 371 581 388 562 Q 406 543 410 557 Q 411 566 413 576 L 412 602 Q 411 609 398 670 L 393 693 Q 383 742 382 759 C 380 778 377 778 349 788 Z" style="fill: #0070C0;"></path>
                                                                        <path d="M 598 594 Q 614 572 629 565 Q 639 558 654 579 Q 667 598 693 711 Q 700 742 724 766 Q 737 778 726 792 Q 710 808 669 834 Q 653 843 583 827 Q 573 827 562 824 Q 364 791 349 788 C 319 783 353 752 382 759 Q 460 778 590 793 Q 621 797 630 786 Q 642 774 639 761 Q 623 656 611 632 C 601 604 597 595 598 594 Z" style="fill: #0070C0;"></path>
                                                                        <path d="M 398 670 Q 405 669 415 670 Q 509 686 579 695 Q 600 698 593 709 Q 583 722 561 727 Q 533 731 393 693 C 364 685 368 672 398 670 Z" style="fill: #0070C0;"></path>
                                                                        <path d="M 479 581 Q 542 590 598 594 C 628 596 640 626 611 632 Q 610 633 608 633 Q 590 636 412 602 C 383 596 383 578 413 576 Q 420 575 432 576 Q 441 577 451 578 L 479 581 Z" style="fill: #0070C0;"></path>
                                                                        <path d="M 540 495 Q 558 537 520 562 Q 501 572 479 581 C 451 592 441 597 451 578 Q 451 575 507 498 Q 510 495 515 491 C 533 477 533 477 540 495 Z" style="fill: #0070C0;"></path>
                                                                        <path d="M 515 491 Q 511 492 507 491 Q 329 470 118 448 Q 96 447 112 427 Q 128 411 147 405 Q 171 399 188 404 Q 440 468 857 468 Q 882 468 907 467 Q 929 466 935 476 Q 941 489 923 504 Q 859 553 794 534 Q 692 516 540 495 L 515 491 Z" style="fill: #0070C0;"></path>
                                                                        <path d="M 337 383 Q 325 384 323 380 Q 317 373 326 359 Q 353 316 373 245 Q 377 223 392 210 Q 411 191 414 206 Q 415 215 415 227 L 411 257 Q 395 327 392 350 C 388 380 367 382 337 383 Z" style="fill: #0070C0;"></path>
                                                                        <path d="M 645 284 Q 675 341 700 350 Q 718 366 705 385 Q 632 445 589 424 Q 466 385 337 383 C 307 382 362 345 392 350 Q 443 359 583 381 Q 605 385 613 376 Q 619 369 616 356 Q 606 319 593 289 C 582 261 631 258 645 284 Z" style="fill: #0070C0;"></path>
                                                                        <path d="M 520 239 Q 575 246 656 252 Q 666 253 667 261 Q 667 268 645 284 C 628 297 622 295 593 289 Q 491 267 411 257 C 381 253 385 229 415 227 Q 424 226 436 227 Q 455 231 482 235 L 520 239 Z" style="fill: #0070C0;"></path>
                                                                        <path d="M 482 235 Q 482 234 484 229 Q 497 195 494 87 Q 493 50 488 40 Q 485 27 459 29 Q 432 33 403 39 Q 393 39 391 32 Q 390 26 400 18 Q 464 -31 487 -61 Q 502 -74 513 -71 Q 523 -67 535 -34 Q 551 -1 548 59 Q 547 135 548 163 Q 555 203 539 223 Q 529 233 520 239 C 496 257 472 263 482 235 Z" style="fill: #0070C0;"></path>
                                                                        <path d="M 314 180 Q 283 134 246 96 Q 222 69 231 31 Q 235 12 258 20 Q 312 47 329 118 Q 339 149 338 175 Q 334 185 329 187 Q 320 187 314 180 Z" style="fill: #0070C0;"></path>
                                                                        <path d="M 628 155 Q 688 112 761 45 Q 777 27 794 24 Q 803 24 809 35 Q 819 48 803 91 Q 785 145 626 186 Q 616 190 615 177 Q 616 164 628 155 Z" style="fill: #0070C0;"></path>
                                    
                                    
                                                                                                                                                                                                                                                                                                                                                                                                                                                                                                                                                                                                                                                                                                                                                                                                                                                                                                                                                                                                                            </g>
                            </svg>