<svg width='83' height='83' >
                                <g transform="translate(3, 70) scale(0.07, -0.07)">
                                    <!-- 先将完整的字以灰色字体绘制完成，层级位于下面 -->
                                                                        <path d="M 161 679 Q 124 703 110 697 Q 103 693 108 681 Q 132 615 133 485 Q 129 302 110 232 Q 97 178 130 137 Q 140 124 150 136 Q 160 151 162 176 L 166 209 Q 167 231 167 260 Q 168 356 169 427 L 170 457 Q 171 623 175 637 Q 176 647 176 654 C 177 669 177 669 161 679 Z" style="fill: #0070C0;"></path>
                                                                        <path d="M 244 187 Q 254 169 267 152 Q 282 130 289 132 Q 302 135 317 170 Q 332 210 327 260 Q 300 612 330 668 Q 340 684 332 694 Q 325 704 278 717 Q 256 724 240 714 Q 197 690 161 679 C 133 669 148 645 176 654 Q 188 657 231 674 Q 252 681 260 675 Q 275 660 274 602 Q 277 362 265 231 Q 266 219 262 214 C 257 184 233 205 244 187 Z" style="fill: #0070C0;"></path>
                                                                        <path d="M 169 427 Q 214 436 246 441 Q 267 447 258 457 Q 248 469 224 471 Q 203 471 170 457 C 142 445 140 421 169 427 Z" style="fill: #0070C0;"></path>
                                                                        <path d="M 162 176 Q 208 183 244 187 C 274 190 287 197 262 214 Q 253 221 239 222 Q 202 226 166 209 C 139 197 132 172 162 176 Z" style="fill: #0070C0;"></path>
                                                                        <path d="M 562 580 Q 581 668 606 694 Q 627 718 605 731 Q 586 741 561 756 Q 545 765 492 734 Q 459 722 428 711 C 400 701 407 673 435 684 Q 442 688 511 706 Q 530 712 536 704 Q 543 697 516 587 C 509 558 555 551 562 580 Z" style="fill: #0070C0;"></path>
                                                                        <path d="M 425 527 Q 432 526 441 529 Q 481 542 568 557 Q 577 558 577 566 Q 577 572 562 580 L 516 587 Q 512 587 509 585 Q 463 569 426 557 C 397 548 395 528 425 527 Z" style="fill: #0070C0;"></path>
                                                                        <path d="M 422 294 Q 422 343 423 393 L 424 420 Q 424 481 425 527 L 426 557 Q 427 648 435 684 C 438 703 438 703 428 711 Q 404 735 370 744 Q 360 747 354 738 Q 350 731 358 720 Q 406 603 384 308 Q 383 302 383 294 Q 377 198 346 105 Q 339 78 343 58 Q 352 22 364 9 Q 376 -6 386 9 Q 420 51 422 268 L 422 294 Z" style="fill: #0070C0;"></path>
                                                                        <path d="M 423 393 Q 426 393 430 393 Q 494 405 540 412 Q 562 416 553 429 Q 543 442 519 445 Q 485 448 424 420 C 397 408 393 393 423 393 Z" style="fill: #0070C0;"></path>
                                                                        <path d="M 422 268 Q 423 268 428 268 Q 498 278 551 285 Q 573 289 565 301 Q 555 314 531 319 Q 507 322 422 294 C 393 285 392 268 422 268 Z" style="fill: #0070C0;"></path>
                                                                        <path d="M 810 599 Q 834 662 856 680 Q 878 702 858 718 Q 800 754 797 754 Q 788 754 779 750 Q 743 725 645 709 Q 635 709 636 703 Q 637 697 649 691 Q 661 684 737 698 Q 779 710 786 699 Q 792 692 759 602 C 749 574 799 571 810 599 Z" style="fill: #0070C0;"></path>
                                                                        <path d="M 759 602 Q 692 586 641 578 Q 622 575 634 560 Q 641 551 650 548 Q 660 547 672 549 Q 718 559 821 568 Q 831 569 832 577 Q 832 584 810 599 C 794 610 788 609 759 602 Z" style="fill: #0070C0;"></path>
                                                                        <path d="M 747 259 Q 783 326 815 427 Q 825 454 842 472 Q 858 487 845 499 Q 833 509 803 518 Q 781 522 758 509 Q 733 499 700 487 Q 666 477 610 468 Q 597 467 593 460 Q 590 454 607 447 Q 641 435 687 450 Q 733 469 741 469 Q 765 469 762 444 Q 744 356 715 295 L 694 259 Q 633 169 503 123 Q 491 117 502 112 Q 508 106 547 109 Q 646 121 721 218 L 747 259 Z" style="fill: #0070C0;"></path>
                                                                        <path d="M 721 218 Q 764 157 805 104 Q 818 86 841 85 Q 968 88 978 98 Q 982 104 973 108 Q 834 168 747 259 L 715 295 Q 681 334 644 381 Q 635 396 620 398 Q 598 399 592 394 Q 589 390 596 384 Q 627 365 644 334 Q 669 295 694 259 L 721 218 Z" style="fill: #0070C0;"></path>
                                    
                                    
                                                                                                                                                                                                                                                                                                                                                                                                                                                                                                                                                                                                                                                                                                                                                                                                                                                                                                                                                                                                                                                                                                        </g>
                            </svg>