<svg width='83' height='83' >
                                <g transform="translate(3, 70) scale(0.07, -0.07)">
                                    <!-- 先将完整的字以灰色字体绘制完成，层级位于下面 -->
                                                                        <path d="M 173 686 Q 163 696 141 704 Q 131 710 120 705 Q 113 701 119 688 Q 138 607 140 596 Q 139 593 140 589 Q 152 376 117 244 Q 104 189 138 145 Q 148 132 159 144 Q 171 159 171 183 L 174 212 Q 174 218 179 434 L 180 468 Q 184 628 187 643 Q 188 653 188 661 C 189 675 189 675 173 686 Z" style="fill: #0070C0;"></path>
                                                                        <path d="M 271 195 Q 281 180 290 165 Q 306 141 313 144 Q 326 145 340 181 Q 355 220 350 268 Q 329 614 356 666 Q 366 684 358 694 Q 351 704 302 720 Q 280 729 262 719 Q 213 697 173 686 C 144 677 159 655 188 661 Q 275 679 281 675 L 282 674 Q 295 661 296 604 Q 297 375 287 248 Q 288 235 283 230 C 277 201 267 201 271 195 Z" style="fill: #0070C0;"></path>
                                                                        <path d="M 179 434 Q 182 434 264 445 Q 289 452 278 464 Q 265 479 238 481 Q 216 482 180 468 C 152 457 149 431 179 434 Z" style="fill: #0070C0;"></path>
                                                                        <path d="M 171 183 Q 226 192 271 195 C 301 197 311 220 283 230 Q 283 231 281 231 Q 251 237 174 212 C 145 203 141 178 171 183 Z" style="fill: #0070C0;"></path>
                                                                        <path d="M 646 797 Q 592 754 465 703 Q 461 696 465 692 Q 522 692 651 741 Q 675 759 740 766 Q 756 767 759 774 Q 763 784 752 794 Q 697 836 668 833 Q 661 830 660 820 Q 659 807 646 797 Z" style="fill: #0070C0;"></path>
                                                                        <path d="M 451 615 Q 470 593 489 566 Q 498 553 511 552 Q 518 551 525 561 Q 531 571 528 597 Q 525 621 454 655 Q 441 659 436 659 Q 432 656 431 645 Q 432 636 451 615 Z" style="fill: #0070C0;"></path>
                                                                        <path d="M 558 664 Q 591 598 612 593 Q 622 589 631 603 Q 634 613 630 632 Q 626 647 607 659 Q 579 680 567 685 Q 560 688 557 679 Q 554 672 558 664 Z" style="fill: #0070C0;"></path>
                                                                        <path d="M 760 694 Q 748 676 687 609 Q 677 594 693 596 Q 741 618 797 650 Q 816 663 839 672 Q 860 679 850 697 Q 840 713 815 729 Q 794 744 782 742 Q 769 741 773 728 Q 774 712 760 694 Z" style="fill: #0070C0;"></path>
                                                                        <path d="M 568 481 Q 761 527 767 532 Q 774 539 771 546 Q 764 556 739 562 Q 715 566 610 531 Q 547 515 467 504 Q 436 498 458 484 Q 485 469 528 472 L 568 481 Z" style="fill: #0070C0;"></path>
                                                                        <path d="M 565 380 Q 620 398 815 405 Q 866 405 872 414 Q 876 424 862 436 Q 813 469 756 452 Q 602 422 581 416 L 518 405 Q 454 395 390 383 Q 372 382 386 367 Q 399 355 414 351 Q 423 350 505 368 L 565 380 Z" style="fill: #0070C0;"></path>
                                                                        <path d="M 532 300 Q 563 378 565 380 L 581 416 Q 594 446 595 450 Q 585 466 568 481 C 547 502 525 502 528 472 Q 534 453 518 405 L 505 368 Q 439 170 280 29 Q 274 25 271 20 Q 267 11 276 11 Q 310 8 410 106 Q 414 113 422 119 Q 459 165 492 221 L 502 240 Q 511 259 521 275 L 532 300 Z" style="fill: #0070C0;"></path>
                                                                        <path d="M 673 124 Q 706 169 728 235 Q 737 268 755 283 Q 771 296 755 311 Q 736 327 706 340 Q 687 347 665 339 Q 613 312 541 302 Q 537 302 532 300 C 502 295 491 277 521 275 Q 545 268 658 296 Q 674 302 676 282 Q 676 219 633 152 L 611 122 Q 601 112 591 101 Q 542 59 413 25 Q 398 22 407 14 Q 414 8 441 10 Q 579 25 644 89 L 673 124 Z" style="fill: #0070C0;"></path>
                                                                        <path d="M 644 89 Q 758 -22 796 -22 Q 877 -19 940 -4 Q 974 3 970 12 Q 967 18 880 37 Q 754 70 673 124 L 633 152 Q 602 179 567 209 Q 533 242 502 240 C 472 242 466 236 492 221 Q 531 202 611 122 L 644 89 Z" style="fill: #0070C0;"></path>
                                    
                                    
                                                                                                                                                                                                                                                                                                                                                                                                                                                                                                                                                                                                                                                                                                                                                                                                                                                                                                                                                                                                                                                                                                        </g>
                            </svg>