<svg width='83' height='83' >
                                <g transform="translate(3, 70) scale(0.07, -0.07)">
                                    <!-- 先将完整的字以灰色字体绘制完成，层级位于下面 -->
                                                                        <path d="M 176 656 Q 161 671 136 680 Q 126 684 114 681 Q 107 677 113 663 Q 131 587 133 576 Q 133 312 118 243 Q 97 159 133 114 Q 143 101 155 113 Q 165 126 167 142 L 170 170 Q 170 182 176 399 L 177 435 Q 181 601 184 616 Q 185 623 185 627 C 187 647 187 647 176 656 Z" style="fill: #0070C0;"></path>
                                                                        <path d="M 265 151 Q 277 132 289 114 Q 305 89 313 92 Q 326 95 342 131 Q 357 171 352 223 Q 345 326 342 552 Q 342 610 357 641 Q 367 660 359 670 Q 352 680 300 695 Q 275 704 257 692 Q 214 668 176 656 C 148 646 157 617 185 627 Q 242 646 247 648 Q 271 657 279 649 Q 295 634 294 576 Q 298 335 286 201 Q 287 191 284 185 C 281 155 252 171 265 151 Z" style="fill: #0070C0;"></path>
                                                                        <path d="M 176 399 Q 227 411 266 418 Q 288 425 278 437 Q 265 450 240 451 Q 216 451 177 435 C 149 424 147 392 176 399 Z" style="fill: #0070C0;"></path>
                                                                        <path d="M 167 142 Q 221 149 265 151 C 295 152 311 172 284 185 Q 283 186 277 188 Q 244 194 170 170 C 141 161 137 138 167 142 Z" style="fill: #0070C0;"></path>
                                                                        <path d="M 585 793 Q 607 772 631 747 Q 646 734 663 734 Q 675 734 680 749 Q 686 765 676 797 Q 667 825 580 846 Q 564 850 556 847 Q 550 843 552 829 Q 556 816 585 793 Z" style="fill: #0070C0;"></path>
                                                                        <path d="M 721 650 Q 809 674 811 675 Q 820 682 815 692 Q 808 704 778 712 Q 756 716 644 684 Q 551 662 470 654 Q 433 648 459 630 Q 505 606 559 619 Q 617 631 677 642 L 721 650 Z" style="fill: #0070C0;"></path>
                                                                        <path d="M 477 558 Q 511 485 530 478 Q 542 474 552 488 Q 556 500 553 520 Q 549 536 529 550 Q 501 574 488 580 Q 481 584 476 574 Q 473 567 477 558 Z" style="fill: #0070C0;"></path>
                                                                        <path d="M 671 463 Q 675 470 681 478 Q 702 511 724 550 Q 734 568 751 591 Q 767 604 758 615 Q 748 633 721 650 C 696 666 671 671 677 642 Q 689 602 641 480 Q 635 467 633 455 C 627 426 655 437 671 463 Z" style="fill: #0070C0;"></path>
                                                                        <path d="M 633 455 Q 629 456 627 455 Q 509 436 368 415 Q 347 412 363 395 Q 393 368 433 377 Q 629 435 913 435 Q 914 435 916 435 Q 935 436 940 444 Q 946 457 928 470 Q 868 510 820 494 Q 760 481 671 463 L 633 455 Z" style="fill: #0070C0;"></path>
                                                                        <path d="M 527 302 Q 506 318 483 324 Q 474 325 469 318 Q 466 312 473 303 Q 503 246 486 92 Q 473 47 478 28 Q 488 -2 498 -13 Q 508 -25 517 -12 Q 527 1 531 25 L 536 63 Q 536 70 537 151 L 536 181 Q 536 245 538 269 C 540 293 540 293 527 302 Z" style="fill: #0070C0;"></path>
                                                                        <path d="M 677 38 Q 704 2 724 -31 Q 734 -50 744 -49 Q 760 -48 777 -14 Q 795 23 792 70 Q 785 128 779 237 Q 778 268 793 290 Q 803 303 793 312 Q 774 331 723 354 Q 705 363 651 336 Q 549 306 527 302 C 498 295 508 264 538 269 Q 556 270 683 303 Q 701 307 711 301 Q 735 271 720 76 L 720 74 Q 714 58 700 61 C 672 50 669 49 677 38 Z" style="fill: #0070C0;"></path>
                                                                        <path d="M 537 151 Q 538 151 542 151 Q 615 163 670 170 Q 695 174 685 188 Q 673 203 647 207 Q 614 210 536 181 C 508 171 507 151 537 151 Z" style="fill: #0070C0;"></path>
                                                                        <path d="M 531 25 Q 537 25 546 26 Q 588 35 677 38 C 707 39 722 41 700 61 Q 693 68 676 80 Q 658 90 626 82 Q 575 70 536 63 C 506 58 501 24 531 25 Z" style="fill: #0070C0;"></path>
                                    
                                    
                                                                                                                                                                                                                                                                                                                                                                                                                                                                                                                                                                                                                                                                                                                                                                                                                                                                                                                                                                                                                                                                                                        </g>
                            </svg>