<svg width='83' height='83' >
                                <g transform="translate(3, 70) scale(0.07, -0.07)">
                                    <!-- 先将完整的字以灰色字体绘制完成，层级位于下面 -->
                                                                        <path d="M 168 703 Q 131 727 116 721 Q 109 717 115 704 Q 136 619 137 611 Q 136 608 137 604 Q 149 385 116 256 Q 104 201 138 157 Q 148 144 159 157 Q 171 172 172 194 L 174 229 Q 175 251 176 282 Q 177 370 178 438 L 178 473 Q 181 644 184 659 Q 185 669 185 676 C 186 692 186 692 168 703 Z" style="fill: #0070C0;"></path>
                                                                        <path d="M 345 312 Q 327 630 353 681 Q 365 700 356 710 Q 349 722 297 737 Q 272 747 255 736 Q 207 714 168 703 C 139 694 156 670 185 676 Q 269 692 272 692 Q 273 692 275 689 Q 291 676 290 619 Q 293 385 282 257 Q 286 232 265 236 C 248 227 248 227 262 205 Q 274 187 285 170 Q 301 145 309 148 Q 322 151 337 186 Q 353 231 345 297 L 345 312 Z" style="fill: #0070C0;"></path>
                                                                        <path d="M 178 438 Q 223 444 256 449 Q 281 456 270 468 Q 257 481 230 484 Q 209 485 178 473 C 150 462 148 434 178 438 Z" style="fill: #0070C0;"></path>
                                                                        <path d="M 172 194 Q 200 201 262 205 C 292 207 290 219 265 236 Q 261 239 255 242 Q 243 248 174 229 C 145 221 143 187 172 194 Z" style="fill: #0070C0;"></path>
                                                                        <path d="M 403 762 Q 388 762 387 757 Q 384 753 398 744 Q 419 735 455 740 Q 515 759 536 753 Q 546 749 545 717 Q 539 599 533 574 Q 529 559 535 547 Q 541 535 551 537 Q 561 540 566 553 Q 576 574 585 670 Q 594 713 620 742 Q 635 757 619 768 Q 603 781 559 797 Q 547 803 446 773 Q 419 766 403 762 Z" style="fill: #0070C0;"></path>
                                                                        <path d="M 420 680 Q 456 647 477 643 Q 487 642 493 652 Q 496 662 492 672 Q 483 696 425 707 Q 415 708 408 706 Q 404 705 407 696 Q 408 689 420 680 Z" style="fill: #0070C0;"></path>
                                                                        <path d="M 383 569 Q 373 568 373 556 Q 374 543 393 531 Q 412 516 423 516 Q 430 516 438 531 Q 460 556 513 608 Q 519 612 517 617 Q 514 620 508 618 Q 412 570 383 569 Z" style="fill: #0070C0;"></path>
                                                                        <path d="M 671 800 Q 656 799 654 794 Q 650 790 666 780 Q 690 768 723 775 Q 780 791 792 786 Q 804 780 799 745 Q 777 615 767 589 Q 761 573 767 558 Q 771 543 783 545 Q 796 546 802 560 Q 817 582 837 686 Q 850 734 883 762 Q 899 778 884 791 Q 868 806 821 829 Q 809 836 766 824 Q 736 818 711 810 Q 686 803 671 800 Z" style="fill: #0070C0;"></path>
                                                                        <path d="M 667 710 Q 715 671 723 671 Q 730 671 734 680 Q 737 690 730 711 Q 723 730 663 742 Q 653 743 648 742 Q 644 739 646 731 Q 649 724 667 710 Z" style="fill: #0070C0;"></path>
                                                                        <path d="M 631 615 Q 622 614 622 603 Q 623 590 641 579 Q 657 564 668 564 Q 675 564 683 579 Q 707 604 765 656 Q 771 660 769 665 Q 768 668 761 666 Q 659 615 631 615 Z" style="fill: #0070C0;"></path>
                                                                        <path d="M 483 392 Q 523 438 565 486 Q 574 496 571 505 Q 568 517 544 522 Q 519 529 508 526 Q 501 525 500 513 Q 490 446 345 312 C 323 292 323 292 345 297 Q 384 304 453 362 L 483 392 Z" style="fill: #0070C0;"></path>
                                                                        <path d="M 507 106 Q 507 281 514 326 Q 520 353 494 380 Q 488 386 483 392 C 463 414 443 390 453 362 Q 481 296 463 137 Q 456 89 444 40 Q 434 -2 463 -44 Q 464 -47 467 -49 Q 483 -64 494 -39 Q 506 -3 507 90 L 507 106 Z" style="fill: #0070C0;"></path>
                                                                        <path d="M 643 518 Q 682 479 694 479 Q 701 479 705 489 Q 709 499 703 521 Q 696 542 640 553 Q 628 556 624 554 Q 620 551 621 542 Q 624 535 643 518 Z" style="fill: #0070C0;"></path>
                                                                        <path d="M 693 416 Q 819 446 823 448 Q 830 455 827 462 Q 820 472 795 478 Q 770 484 744 473 Q 707 460 667 451 Q 624 441 571 436 Q 540 430 563 416 Q 602 395 646 407 Q 647 408 649 407 L 693 416 Z" style="fill: #0070C0;"></path>
                                                                        <path d="M 707 313 Q 747 320 782 326 Q 807 330 797 344 Q 785 359 759 363 Q 740 366 709 357 L 659 341 Q 620 329 587 318 Q 569 314 592 299 Q 601 292 621 296 Q 640 300 660 303 L 707 313 Z" style="fill: #0070C0;"></path>
                                                                        <path d="M 703 208 Q 751 218 793 222 Q 818 226 809 240 Q 799 256 771 260 Q 746 264 705 252 L 660 239 Q 615 229 576 218 Q 558 214 580 198 Q 590 191 612 194 Q 636 198 660 201 L 703 208 Z" style="fill: #0070C0;"></path>
                                                                        <path d="M 701 132 Q 702 172 703 208 L 705 252 Q 705 285 707 313 L 709 357 Q 713 396 708 403 Q 701 410 693 416 C 670 435 639 435 649 407 Q 658 388 659 341 L 660 303 Q 660 278 660 239 L 660 201 Q 660 168 660 126 C 660 96 700 102 701 132 Z" style="fill: #0070C0;"></path>
                                                                        <path d="M 660 126 Q 510 111 507 106 C 492 102 492 102 507 90 Q 538 63 571 71 Q 722 110 887 91 Q 906 91 910 99 Q 916 109 900 123 Q 845 165 798 149 Q 758 143 701 132 L 660 126 Z" style="fill: #0070C0;"></path>
                                    
                                    
                                                                                                                                                                                                                                                                                                                                                                                                                                                                                                                                                                                                                                                                                                                                                                                                                                                                                                                                                                                                                                                                                                                                                                                                                                                                                                                                                                                                                                                                                                    </g>
                            </svg>