<svg width='83' height='83' >
                                <g transform="translate(3, 70) scale(0.07, -0.07)">
                                    <!-- 先将完整的字以灰色字体绘制完成，层级位于下面 -->
                                                                        <path d="M 267 629 Q 236 650 205 658 Q 196 661 191 655 Q 181 648 193 635 Q 254 524 259 270 Q 260 198 305 164 L 307 163 Q 326 159 328 187 L 328 223 Q 327 238 302 404 L 300 426 Q 290 510 287 580 C 286 610 285 618 267 629 Z" style="fill: #0070C0;"></path>
                                                                        <path d="M 646 211 Q 658 183 686 126 Q 696 107 707 108 Q 725 112 735 140 Q 780 233 784 355 Q 791 431 798 520 Q 802 578 830 614 Q 849 639 835 654 Q 808 679 752 703 Q 730 715 690 700 Q 522 645 267 629 C 237 627 257 576 287 580 Q 294 580 301 581 Q 443 608 665 638 Q 705 645 720 626 Q 732 605 733 583 Q 733 421 702 262 Q 699 234 687 231 Q 683 230 670 235 C 641 228 639 227 646 211 Z" style="fill: #0070C0;"></path>
                                                                        <path d="M 302 404 Q 315 397 343 399 Q 484 418 587 430 Q 614 433 605 447 Q 595 463 566 471 Q 541 475 493 466 Q 390 444 300 426 C 271 420 274 414 302 404 Z" style="fill: #0070C0;"></path>
                                                                        <path d="M 328 187 Q 337 187 346 188 Q 442 204 646 211 C 676 212 691 213 670 235 Q 663 244 648 254 Q 632 264 598 259 Q 448 232 328 223 C 298 221 298 186 328 187 Z" style="fill: #0070C0;"></path>
                                    
                                    
                                                                                                                                                                                                                                                                                                                                                                                            </g>
                            </svg>