<svg width='83' height='83' >
                                <g transform="translate(3, 70) scale(0.07, -0.07)">
                                    <!-- 先将完整的字以灰色字体绘制完成，层级位于下面 -->
                                                                        <path d="M 260 727 Q 233 741 206 746 Q 199 749 192 741 Q 182 735 196 721 Q 248 649 269 456 Q 274 392 318 357 Q 320 355 324 353 Q 343 349 343 374 L 341 412 Q 337 438 328 466 Q 298 631 293 690 C 291 712 287 714 260 727 Z" style="fill: #0070C0;"></path>
                                                                        <path d="M 662 412 Q 683 378 703 368 Q 715 359 735 384 Q 759 423 806 636 Q 813 660 827 678 L 852 710 Q 860 722 851 737 Q 832 757 780 792 Q 757 804 737 798 Q 682 784 619 776 Q 511 764 427 751 Q 306 731 260 727 C 230 724 264 684 293 690 Q 357 704 482 721 Q 699 750 731 735 Q 753 718 746 688 Q 733 630 725 598 Q 700 480 686 459 Q 678 446 662 443 C 647 433 647 433 662 412 Z" style="fill: #0070C0;"></path>
                                                                        <path d="M 531 606 Q 465 596 384 579 Q 360 574 379 561 Q 400 547 426 548 L 474 554 L 529 564 L 645 586 Q 645 590 649 591 Q 649 596 640 604 Q 609 630 531 606 Z" style="fill: #0070C0;"></path>
                                                                        <path d="M 525 400 Q 590 408 662 412 C 692 414 687 427 662 443 Q 629 469 540 445 Q 533 445 527 441 L 472 431 Q 408 420 341 412 C 311 408 314 366 343 374 Q 372 384 470 394 L 525 400 Z" style="fill: #0070C0;"></path>
                                                                        <path d="M 470 394 Q 465 -4 469 -24 L 470 -27 Q 478 -54 493 -50 Q 521 -35 525 165 L 525 400 L 527 441 Q 528 497 529 564 C 529 594 475 584 474 554 Q 472 463 472 431 L 470 394 Z" style="fill: #0070C0;"></path>
                                    
                                    
                                                                                                                                                                                                                                                                                                                                                                                                                                                                        </g>
                            </svg>