<svg width='83' height='83' >
                                <g transform="translate(3, 70) scale(0.07, -0.07)">
                                    <!-- 先将完整的字以灰色字体绘制完成，层级位于下面 -->
                                                                        <path d="M 240 523 Q 210 542 180 549 Q 171 552 165 546 Q 155 539 167 525 Q 225 432 236 204 Q 237 132 282 98 Q 283 97 287 95 Q 306 91 308 122 L 307 163 Q 304 185 297 211 Q 273 364 266 488 C 265 508 265 508 240 523 Z" style="fill: #0070C0;"></path>
                                                                        <path d="M 673 154 Q 719 88 729 56 Q 739 38 750 40 Q 766 41 782 69 Q 810 109 823 160 Q 844 226 870 464 Q 874 507 889 530 Q 910 552 895 559 Q 879 577 838 596 Q 813 614 785 604 Q 751 594 663 585 Q 644 584 626 581 L 577 576 Q 504 569 445 559 L 397 550 Q 391 551 387 549 Q 311 534 240 523 C 210 518 237 481 266 488 Q 299 498 353 506 Q 377 510 401 513 L 445 520 Q 515 532 576 537 L 624 541 Q 684 548 775 552 Q 791 553 798 544 Q 808 537 804 491 Q 794 299 759 192 Q 750 162 725 167 Q 721 170 713 171 C 683 170 662 170 673 154 Z" style="fill: #0070C0;"></path>
                                                                        <path d="M 612 359 Q 655 365 697 369 Q 719 370 712 384 Q 703 400 678 406 Q 654 410 615 402 L 570 394 Q 509 384 452 373 L 409 367 Q 373 363 340 357 Q 324 354 343 338 Q 359 325 396 330 Q 403 331 411 331 L 454 338 Q 512 347 567 353 L 612 359 Z" style="fill: #0070C0;"></path>
                                                                        <path d="M 445 559 Q 444 638 448 661 Q 452 688 435 702 Q 408 723 376 733 Q 360 739 350 732 Q 340 725 348 707 Q 382 635 396 561 Q 396 557 397 550 L 401 513 Q 405 461 409 367 L 411 331 Q 412 264 418 175 C 420 145 466 151 464 181 Q 458 266 454 338 L 452 373 Q 445 487 445 520 L 445 559 Z" style="fill: #0070C0;"></path>
                                                                        <path d="M 626 581 Q 629 671 659 782 Q 663 795 640 812 Q 601 834 573 840 Q 555 844 546 835 Q 537 826 546 809 Q 580 754 579 718 Q 579 649 577 576 L 576 537 Q 573 468 570 394 L 567 353 Q 561 277 554 195 C 551 165 599 173 601 203 Q 605 282 612 359 L 615 402 Q 619 472 624 541 L 626 581 Z" style="fill: #0070C0;"></path>
                                                                        <path d="M 308 122 Q 309 122 312 122 Q 427 144 673 154 C 703 155 724 156 713 171 Q 709 181 680 203 Q 655 218 601 203 L 554 195 Q 508 188 464 181 L 418 175 Q 360 169 307 163 C 277 160 278 118 308 122 Z" style="fill: #0070C0;"></path>
                                    
                                    
                                                                                                                                                                                                                                                                                                                                                                                                                                                                                                                                                    </g>
                            </svg>