<svg width='83' height='83' >
                                <g transform="translate(3, 70) scale(0.07, -0.07)">
                                    <!-- 先将完整的字以灰色字体绘制完成，层级位于下面 -->
                                                                        <path d="M 472 626 Q 601 647 868 646 Q 890 646 896 656 Q 902 669 883 684 Q 817 730 754 712 Q 714 705 486 666 L 435 659 Q 306 644 162 625 Q 138 622 156 603 Q 190 572 233 581 Q 321 606 421 619 L 472 626 Z" style="fill: #0070C0;"></path>
                                                                        <path d="M 411 492 Q 442 549 472 626 L 486 666 Q 513 750 539 800 Q 546 810 540 821 Q 533 831 500 849 Q 476 861 466 857 Q 453 853 455 837 Q 465 753 437 664 Q 436 663 435 659 L 421 619 Q 354 462 198 305 Q 149 259 79 199 Q 72 190 78 188 Q 87 185 98 191 Q 291 290 388 451 L 411 492 Z" style="fill: #0070C0;"></path>
                                                                        <path d="M 426 226 Q 430 283 435 324 L 438 351 Q 442 421 448 444 Q 449 451 449 456 C 451 474 451 474 427 485 Q 418 491 411 492 C 383 504 381 480 388 451 Q 418 337 366 150 Q 356 120 344 99 Q 323 63 353 17 L 355 15 Q 362 0 372 6 Q 408 27 424 197 L 426 226 Z" style="fill: #0070C0;"></path>
                                                                        <path d="M 449 456 Q 525 472 604 489 Q 625 495 630 484 Q 651 429 649 119 Q 643 50 639 43 Q 635 37 615 41 Q 587 48 559 55 Q 540 61 540 51 Q 598 2 631 -35 Q 644 -54 660 -58 Q 670 -62 678 -52 Q 717 -1 716 52 Q 680 424 707 473 Q 719 492 707 503 Q 685 522 648 536 Q 629 543 614 536 Q 542 497 427 485 C 397 481 420 450 449 456 Z" style="fill: #0070C0;"></path>
                                                                        <path d="M 435 324 Q 441 323 452 324 Q 531 337 590 346 Q 615 350 605 364 Q 593 379 567 383 Q 536 386 438 351 C 410 341 405 326 435 324 Z" style="fill: #0070C0;"></path>
                                                                        <path d="M 424 197 Q 428 197 435 197 Q 526 209 593 215 Q 618 218 609 232 Q 599 248 572 253 Q 539 259 426 226 C 397 218 394 197 424 197 Z" style="fill: #0070C0;"></path>
                                    
                                    
                                                                                                                                                                                                                                                                                                                                                                                                                                                                                                                                                    </g>
                            </svg>