<svg width='83' height='83' >
                                <g transform="translate(3, 70) scale(0.07, -0.07)">
                                    <!-- 先将完整的字以灰色字体绘制完成，层级位于下面 -->
                                                                        <path d="M 521 610 Q 680 652 683 653 Q 693 662 688 671 Q 679 684 648 691 Q 618 697 523 663 L 475 648 Q 409 633 334 624 Q 294 617 323 599 Q 371 575 431 591 Q 450 597 476 600 L 521 610 Z" style="fill: #0070C0;"></path>
                                                                        <path d="M 521 440 Q 530 441 775 459 Q 797 460 801 470 Q 807 483 788 496 Q 727 538 662 517 Q 602 504 520 484 L 476 475 Q 472 476 467 474 Q 341 450 192 424 Q 170 421 187 403 Q 223 373 263 386 Q 347 414 443 428 L 521 440 Z" style="fill: #0070C0;"></path>
                                                                        <path d="M 520 484 Q 520 547 521 610 L 523 663 Q 527 724 540 770 Q 550 786 546 799 Q 539 809 481 845 Q 456 863 435 846 Q 429 840 436 825 Q 473 771 474 718 Q 474 684 475 648 L 476 600 Q 479 552 476 475 L 473 370 Q 469 178 464 145 Q 440 16 441 15 Q 447 -12 462 -45 Q 469 -64 477 -67 Q 484 -74 492 -65 Q 499 -61 510 -39 Q 520 -12 519 20 Q 518 66 518 402 L 520 484 Z" style="fill: #0070C0;"></path>
                                                                        <path d="M 443 428 Q 356 263 120 91 Q 107 79 116 77 Q 143 67 238 128 Q 334 188 440 327 Q 461 355 473 370 C 527 439 465 468 443 428 Z" style="fill: #0070C0;"></path>
                                                                        <path d="M 518 402 Q 614 258 739 105 Q 761 80 798 80 Q 925 79 966 85 Q 978 86 981 93 Q 981 100 964 108 Q 795 174 738 223 Q 638 313 521 440 L 519 440 C 496 460 501 427 518 402 Z" style="fill: #0070C0;"></path>
                                    
                                    
                                                                                                                                                                                                                                                                                                                                                                                                                                                                        </g>
                            </svg>