<svg width='83' height='83' >
                                <g transform="translate(3, 70) scale(0.07, -0.07)">
                                    <!-- 先将完整的字以灰色字体绘制完成，层级位于下面 -->
                                                                        <path d="M 525 577 Q 589 589 780 608 Q 792 605 803 621 Q 804 634 778 648 Q 736 672 653 650 Q 541 629 526 623 L 477 614 Q 468 614 218 586 Q 184 582 210 561 Q 249 531 275 534 Q 293 543 452 566 L 525 577 Z" style="fill: #0070C0;"></path>
                                                                        <path d="M 524 548 Q 524 563 525 577 L 526 623 Q 529 699 545 755 Q 555 771 551 786 Q 544 796 484 833 Q 459 851 437 834 Q 431 828 438 812 Q 474 760 475 708 Q 476 663 477 614 L 478 496 Q 474 280 473 209 L 468 165 Q 462 114 448 64 Q 438 22 465 -45 Q 472 -64 481 -67 Q 488 -74 495 -65 Q 504 -61 515 -38 Q 525 -11 524 22 Q 523 47 523 172 L 523 218 Q 523 330 524 502 L 524 548 Z" style="fill: #0070C0;"></path>
                                                                        <path d="M 452 566 Q 359 353 75 124 Q 62 111 72 109 Q 82 105 94 111 Q 256 181 402 383 Q 421 413 446 447 Q 465 477 478 496 C 536 582 467 599 452 566 Z" style="fill: #0070C0;"></path>
                                                                        <path d="M 524 502 Q 624 358 753 207 Q 775 182 814 181 Q 944 182 986 188 Q 998 191 1001 197 Q 1001 204 983 212 Q 803 279 749 326 Q 646 417 524 548 C 504 570 507 527 524 502 Z" style="fill: #0070C0;"></path>
                                                                        <path d="M 473 209 Q 427 202 386 198 Q 352 197 313 192 Q 285 191 306 172 Q 327 151 372 151 Q 415 160 468 165 L 523 172 Q 538 175 640 183 Q 650 182 660 194 Q 661 206 639 217 Q 609 239 531 220 Q 527 220 523 218 L 473 209 Z" style="fill: #0070C0;"></path>
                                    
                                    
                                                                                                                                                                                                                                                                                                                                                                                                                                                                        </g>
                            </svg>