<svg width='83' height='83' >
                                <g transform="translate(3, 70) scale(0.07, -0.07)">
                                    <!-- 先将完整的字以灰色字体绘制完成，层级位于下面 -->
                                                                        <path d="M 341 573 Q 365 580 393 586 Q 433 596 440 603 Q 449 612 444 620 Q 437 632 406 638 Q 375 642 345 630 Q 342 629 342 628 L 295 612 Q 201 585 124 574 Q 87 567 115 551 Q 154 530 236 549 Q 257 555 281 559 L 341 573 Z" style="fill: #0070C0;"></path>
                                                                        <path d="M 338 454 Q 339 509 341 573 L 342 628 Q 345 706 362 760 Q 371 775 368 788 Q 361 798 306 833 Q 282 851 261 835 Q 257 831 262 814 Q 293 766 295 718 Q 295 669 295 612 L 292 461 Q 285 235 276 182 Q 255 86 257 79 Q 257 67 276 22 Q 282 4 290 1 Q 296 -6 304 3 Q 331 19 332 85 Q 331 125 337 420 L 338 454 Z" style="fill: #0070C0;"></path>
                                                                        <path d="M 281 559 Q 230 424 54 203 Q 48 193 60 191 Q 67 190 77 199 Q 213 311 292 461 C 359 586 292 587 281 559 Z" style="fill: #0070C0;"></path>
                                                                        <path d="M 337 420 Q 395 357 418 357 Q 431 356 436 374 Q 437 387 428 406 Q 407 439 338 454 C 309 461 317 442 337 420 Z" style="fill: #0070C0;"></path>
                                                                        <path d="M 677 230 Q 759 354 794 482 Q 804 528 835 559 Q 854 578 835 592 Q 810 608 779 613 Q 751 622 723 605 Q 689 592 628 571 Q 561 555 489 546 Q 470 546 466 540 Q 462 527 488 511 Q 519 492 587 518 Q 707 561 721 559 Q 737 559 737 539 Q 710 374 638 267 L 612 232 Q 605 225 599 217 Q 538 150 418 78 Q 403 69 412 64 Q 419 61 443 71 Q 543 108 605 154 Q 624 169 645 190 L 677 230 Z" style="fill: #0070C0;"></path>
                                                                        <path d="M 645 190 Q 685 141 736 90 Q 752 69 781 67 Q 869 60 941 65 Q 978 66 976 77 Q 973 84 801 148 Q 741 176 677 230 L 638 267 Q 589 319 538 382 Q 507 422 473 424 Q 457 427 453 422 Q 450 415 464 404 Q 516 368 612 232 L 645 190 Z" style="fill: #0070C0;"></path>
                                                                        <path d="M 557 440 Q 585 419 617 393 Q 627 386 639 386 Q 646 387 650 396 Q 651 408 645 429 Q 636 456 552 475 Q 540 476 536 474 Q 532 471 534 462 Q 537 455 557 440 Z" style="fill: #0070C0;"></path>
                                    
                                    
                                                                                                                                                                                                                                                                                                                                                                                                                                                                                                                                                                                                                                </g>
                            </svg>