<svg width='83' height='83' >
                                <g transform="translate(3, 70) scale(0.07, -0.07)">
                                    <!-- 先将完整的字以灰色字体绘制完成，层级位于下面 -->
                                                                        <path d="M 532 656 Q 698 693 702 695 Q 712 702 707 712 Q 700 724 670 732 Q 646 738 537 705 L 484 692 Q 418 680 343 674 Q 306 668 331 650 Q 377 626 455 642 Q 468 645 485 647 L 532 656 Z" style="fill: #0070C0;"></path>
                                                                        <path d="M 297 535 Q 285 541 255 544 Q 242 547 239 541 Q 232 534 242 518 Q 272 464 293 375 Q 297 348 314 331 Q 335 309 339 326 Q 340 335 342 345 C 345 363 345 363 339 378 Q 330 394 316 498 C 312 528 312 529 297 535 Z" style="fill: #0070C0;"></path>
                                                                        <path d="M 707 417 Q 743 501 771 523 Q 793 545 764 564 Q 739 585 713 601 Q 697 614 673 604 Q 639 592 588 583 Q 560 580 529 574 L 486 567 Q 441 561 394 551 Q 339 541 297 535 C 267 531 289 486 316 498 Q 323 507 420 524 Q 448 530 486 533 L 529 539 Q 586 546 659 554 Q 675 555 680 548 Q 689 530 653 423 C 644 395 695 390 707 417 Z" style="fill: #0070C0;"></path>
                                                                        <path d="M 527 367 Q 609 377 718 382 Q 728 383 731 392 Q 731 399 707 417 C 692 429 683 427 653 423 Q 586 413 527 401 L 483 394 Q 407 384 339 378 C 309 375 312 346 342 345 Q 348 344 359 345 Q 395 352 445 357 L 527 367 Z" style="fill: #0070C0;"></path>
                                                                        <path d="M 526 357 Q 526 363 527 367 L 527 401 Q 527 465 529 539 L 529 574 Q 529 595 532 656 L 537 705 Q 541 741 551 769 Q 561 785 558 799 Q 551 809 493 845 Q 468 863 447 847 Q 441 841 448 825 Q 484 774 484 692 L 485 647 Q 485 610 486 567 L 486 533 Q 485 466 483 394 L 480 314 Q 476 173 469 135 Q 445 20 446 16 Q 446 1 466 -45 Q 473 -64 481 -67 Q 488 -74 496 -65 Q 503 -61 514 -39 Q 524 -14 524 20 Q 523 60 526 321 L 526 357 Z" style="fill: #0070C0;"></path>
                                                                        <path d="M 445 357 Q 438 335 415 306 Q 354 230 288 180 Q 233 134 119 71 Q 101 61 117 57 Q 127 54 167 68 Q 228 84 285 121 Q 391 197 476 309 Q 477 312 480 314 C 521 366 465 405 445 357 Z" style="fill: #0070C0;"></path>
                                                                        <path d="M 526 321 Q 733 87 783 75 Q 850 65 957 84 Q 976 87 978 92 Q 981 99 965 105 Q 766 180 736 198 Q 658 244 591 301 Q 548 341 526 357 C 502 375 506 343 526 321 Z" style="fill: #0070C0;"></path>
                                    
                                    
                                                                                                                                                                                                                                                                                                                                                                                                                                                                                                                                                                                                                                </g>
                            </svg>