<svg width='83' height='83' >
                                <g transform="translate(3, 70) scale(0.07, -0.07)">
                                    <!-- 先将完整的字以灰色字体绘制完成，层级位于下面 -->
                                                                        <path d="M 337 520 Q 445 548 452 553 Q 461 563 456 571 Q 447 584 416 591 Q 370 597 339 577 L 289 560 Q 198 536 137 528 Q 98 521 127 503 Q 172 479 234 497 Q 250 501 271 505 L 337 520 Z" style="fill: #0070C0;"></path>
                                                                        <path d="M 334 437 Q 335 477 337 520 L 339 577 Q 340 665 358 724 Q 367 739 364 752 Q 357 762 302 797 Q 278 815 257 799 Q 253 795 258 779 Q 288 734 288 689 Q 288 628 289 560 L 285 422 Q 282 236 267 176 Q 246 103 264 57 Q 267 50 271 39 Q 278 20 286 17 Q 292 10 300 19 Q 307 23 318 44 Q 328 69 328 101 Q 327 137 333 406 L 334 437 Z" style="fill: #0070C0;"></path>
                                                                        <path d="M 271 505 Q 211 364 42 158 Q 36 148 48 147 Q 69 144 188 276 Q 240 336 285 422 C 342 529 283 532 271 505 Z" style="fill: #0070C0;"></path>
                                                                        <path d="M 333 406 Q 340 403 386 351 Q 396 339 408 339 Q 417 339 421 349 Q 425 359 421 383 Q 418 399 394 415 Q 340 440 334 437 C 304 436 308 423 333 406 Z" style="fill: #0070C0;"></path>
                                                                        <path d="M 592 794 Q 634 728 619 471 Q 616 422 610 397 Q 609 381 628 340 Q 638 322 655 332 Q 665 342 667 402 Q 654 667 694 750 Q 695 753 697 755 Q 704 765 691 781 Q 631 827 600 816 Q 585 810 592 794 Z" style="fill: #0070C0;"></path>
                                                                        <path d="M 509 546 Q 493 491 466 440 Q 448 410 469 379 Q 476 363 495 376 Q 540 415 538 495 Q 539 526 531 547 Q 527 554 520 555 Q 513 554 509 546 Z" style="fill: #0070C0;"></path>
                                                                        <path d="M 765 557 Q 820 523 889 469 Q 908 453 923 452 Q 930 452 937 463 Q 946 476 927 516 Q 909 559 761 586 Q 751 590 751 578 Q 752 565 765 557 Z" style="fill: #0070C0;"></path>
                                                                        <path d="M 748 448 Q 749 294 574 128 Q 571 127 568 123 Q 519 77 401 -1 Q 392 -8 399 -12 Q 406 -16 420 -12 Q 594 46 687 169 Q 739 230 791 337 Q 807 368 829 398 Q 839 408 834 420 Q 828 432 796 454 Q 774 469 763 468 Q 748 465 748 448 Z" style="fill: #0070C0;"></path>
                                    
                                    
                                                                                                                                                                                                                                                                                                                                                                                                                                                                                                                                                                                                                                                                                                            </g>
                            </svg>