<svg width='83' height='83' >
                                <g transform="translate(3, 70) scale(0.07, -0.07)">
                                    <!-- 先将完整的字以灰色字体绘制完成，层级位于下面 -->
                                                                        <path d="M 329 540 Q 425 568 428 571 Q 437 580 432 588 Q 425 600 394 606 Q 363 610 333 596 Q 332 596 331 595 L 286 578 Q 184 548 120 539 Q 83 530 110 515 Q 155 491 214 510 Q 236 517 263 522 L 329 540 Z" style="fill: #0070C0;"></path>
                                                                        <path d="M 326 455 Q 327 495 329 540 L 331 595 Q 331 698 354 775 Q 367 802 343 819 Q 327 831 298 849 Q 274 867 253 851 Q 249 847 254 831 Q 287 782 286 733 Q 287 661 286 578 L 281 446 Q 274 238 264 191 Q 243 92 252 62 Q 256 47 263 31 Q 270 12 278 9 Q 284 2 292 11 Q 299 15 310 36 Q 320 61 320 92 Q 319 132 326 428 L 326 455 Z" style="fill: #0070C0;"></path>
                                                                        <path d="M 263 522 Q 211 395 46 190 Q 40 180 52 178 Q 76 178 184 298 Q 235 356 281 446 C 334 548 275 550 263 522 Z" style="fill: #0070C0;"></path>
                                                                        <path d="M 326 428 Q 362 401 404 363 Q 416 353 428 353 Q 437 354 441 364 Q 445 377 437 401 Q 431 420 402 435 Q 333 457 326 455 C 296 456 302 446 326 428 Z" style="fill: #0070C0;"></path>
                                                                        <path d="M 568 625 Q 676 664 726 693 Q 771 717 810 728 Q 828 731 830 739 Q 833 751 820 761 Q 754 798 720 791 Q 713 787 713 775 Q 714 739 558 641 C 533 625 540 615 568 625 Z" style="fill: #0070C0;"></path>
                                                                        <path d="M 564 490 Q 564 589 568 616 Q 569 620 568 625 C 569 636 569 636 558 641 Q 555 644 551 645 Q 502 666 488 662 Q 469 658 486 637 Q 522 583 509 404 Q 503 355 484 296 Q 465 239 394 159 Q 381 146 378 139 Q 377 132 388 133 Q 424 136 483 206 Q 552 290 562 460 L 564 490 Z" style="fill: #0070C0;"></path>
                                                                        <path d="M 740 485 Q 801 495 902 499 Q 945 499 953 509 Q 957 519 942 531 Q 882 567 830 546 Q 760 533 564 490 C 535 484 533 466 562 460 Q 586 453 621 460 Q 645 467 675 473 L 740 485 Z" style="fill: #0070C0;"></path>
                                                                        <path d="M 701 -28 Q 705 -55 713 -65 Q 719 -72 727 -70 Q 742 -61 749 2 Q 756 63 755 125 Q 748 357 766 448 Q 770 467 755 476 Q 748 480 740 485 C 714 500 663 500 675 473 Q 690 451 695 368 Q 699 -25 701 -28 Z" style="fill: #0070C0;"></path>
                                    
                                    
                                                                                                                                                                                                                                                                                                                                                                                                                                                                                                                                                                                                                                                                                                            </g>
                            </svg>