<svg width='83' height='83' >
                                <g transform="translate(3, 70) scale(0.07, -0.07)">
                                    <!-- 先将完整的字以灰色字体绘制完成，层级位于下面 -->
                                                                        <path d="M 325 518 Q 418 545 420 547 Q 429 556 424 564 Q 417 576 386 582 Q 355 586 326 573 L 281 557 Q 170 529 128 522 Q 91 515 119 499 Q 164 475 222 493 Q 240 499 262 502 L 325 518 Z" style="fill: #0070C0;"></path>
                                                                        <path d="M 323 416 Q 323 465 325 518 L 326 573 Q 326 574 327 575 Q 328 674 346 740 Q 356 755 352 769 Q 345 779 290 813 Q 266 831 245 815 Q 241 809 246 794 Q 280 745 280 695 Q 280 631 281 557 L 278 414 Q 269 188 269 178 Q 262 133 249 89 Q 237 49 263 -14 Q 270 -32 278 -35 Q 284 -42 292 -33 Q 299 -29 310 -8 Q 320 17 319 49 Q 318 91 322 393 L 323 416 Z" style="fill: #0070C0;"></path>
                                                                        <path d="M 262 502 Q 214 366 58 158 Q 52 148 64 147 Q 70 146 80 155 Q 204 266 278 414 C 337 529 272 530 262 502 Z" style="fill: #0070C0;"></path>
                                                                        <path d="M 322 393 Q 386 329 406 328 Q 419 328 424 346 Q 425 359 414 377 Q 404 393 380 400 Q 343 415 328 417 Q 324 418 323 416 C 305 410 305 410 322 393 Z" style="fill: #0070C0;"></path>
                                                                        <path d="M 709 637 Q 752 650 797 659 Q 831 669 836 673 Q 846 683 840 691 Q 831 704 800 710 Q 772 716 678 681 Q 606 663 557 656 Q 517 649 547 631 Q 595 607 661 627 Q 665 628 672 629 L 709 637 Z" style="fill: #0070C0;"></path>
                                                                        <path d="M 743 405 Q 779 414 908 412 Q 932 412 941 425 Q 947 435 925 448 Q 864 490 801 466 Q 756 457 745 452 L 691 442 Q 621 429 555 410 Q 528 400 536 424 Q 555 488 571 513 Q 583 523 577 535 Q 571 545 535 566 Q 517 578 506 571 Q 494 562 503 547 Q 522 495 481 417 Q 451 381 452 371 Q 453 358 472 344 Q 485 334 500 347 Q 566 383 667 395 L 743 405 Z" style="fill: #0070C0;"></path>
                                                                        <path d="M 690 322 Q 690 222 690 87 Q 689 56 679 44 Q 669 37 642 45 Q 617 54 585 63 Q 572 67 573 60 Q 573 53 583 42 Q 649 -13 689 -58 Q 701 -67 715 -51 Q 755 6 752 80 Q 740 285 743 405 L 745 452 Q 746 513 752 571 Q 758 598 752 608 Q 742 621 709 637 C 683 651 665 658 672 629 Q 688 560 690 554 Q 689 554 691 442 L 690 322 Z" style="fill: #0070C0;"></path>
                                                                        <path d="M 667 395 Q 598 257 398 98 Q 391 94 384 88 Q 371 75 381 73 Q 390 69 404 74 Q 521 114 649 268 Q 667 295 690 322 C 758 404 682 425 667 395 Z" style="fill: #0070C0;"></path>
                                    
                                    
                                                                                                                                                                                                                                                                                                                                                                                                                                                                                                                                                                                                                                                                                                            </g>
                            </svg>