<svg width='83' height='83' >
                                <g transform="translate(3, 70) scale(0.07, -0.07)">
                                    <!-- 先将完整的字以灰色字体绘制完成，层级位于下面 -->
                                                                        <path d="M 327 509 Q 414 534 416 535 Q 425 544 420 552 Q 413 564 382 571 Q 354 575 329 566 L 287 551 Q 196 521 105 510 Q 68 503 95 486 Q 141 467 218 484 Q 240 490 265 493 L 327 509 Z" style="fill: #0070C0;"></path>
                                                                        <path d="M 324 415 Q 325 460 327 509 L 329 566 Q 329 680 352 758 Q 362 773 359 786 Q 352 795 298 830 Q 276 846 255 832 Q 251 828 256 812 Q 289 763 288 712 Q 289 639 288 557 Q 287 556 287 551 L 281 410 Q 277 335 276 255 Q 270 177 248 105 Q 235 63 261 6 Q 267 -12 275 -15 Q 281 -21 288 -13 Q 315 3 316 66 Q 315 106 323 391 L 324 415 Z" style="fill: #0070C0;"></path>
                                                                        <path d="M 265 493 Q 240 421 204 356 Q 161 278 58 137 Q 52 127 64 126 Q 88 126 195 264 Q 241 324 281 410 C 334 522 275 521 265 493 Z" style="fill: #0070C0;"></path>
                                                                        <path d="M 323 391 Q 395 328 406 325 Q 409 325 413 325 Q 420 326 425 336 Q 429 349 421 373 Q 417 389 391 400 Q 331 418 324 415 C 298 413 300 411 323 391 Z" style="fill: #0070C0;"></path>
                                                                        <path d="M 529 633 Q 572 618 619 627 Q 709 645 802 663 Q 845 673 851 679 Q 860 686 855 696 Q 848 708 818 716 Q 787 722 756 710 Q 708 694 656 681 Q 598 668 530 662 Q 520 661 517 658 C 489 648 500 642 529 633 Z" style="fill: #0070C0;"></path>
                                                                        <path d="M 739 379 Q 766 425 791 500 Q 800 524 811 547 Q 818 556 812 565 Q 805 574 777 588 Q 756 598 748 595 Q 736 591 739 577 Q 751 502 702 408 L 679 368 Q 631 301 551 224 Q 544 217 550 215 Q 583 209 665 286 Q 690 308 710 334 L 739 379 Z" style="fill: #0070C0;"></path>
                                                                        <path d="M 710 334 Q 753 288 799 233 Q 811 217 823 212 Q 830 211 837 218 Q 847 228 839 264 Q 833 301 739 379 L 702 408 Q 627 466 583 495 Q 576 499 574 489 Q 573 479 581 470 Q 627 424 679 368 L 710 334 Z" style="fill: #0070C0;"></path>
                                                                        <path d="M 517 658 Q 507 668 483 680 Q 464 690 455 683 Q 448 676 455 662 Q 473 628 473 566 Q 480 160 430 84 Q 420 69 428 48 Q 435 27 446 18 Q 456 11 473 22 Q 584 95 900 88 Q 925 87 926 99 Q 926 115 897 136 Q 881 149 769 131 Q 574 112 533 103 Q 508 99 507 123 Q 517 310 521 549 Q 522 627 529 633 C 532 648 532 648 517 658 Z" style="fill: #0070C0;"></path>
                                    
                                    
                                                                                                                                                                                                                                                                                                                                                                                                                                                                                                                                                                                                                                                                                                            </g>
                            </svg>