<svg width='83' height='83' >
                                <g transform="translate(3, 70) scale(0.07, -0.07)">
                                    <!-- 先将完整的字以灰色字体绘制完成，层级位于下面 -->
                                                                        <path d="M 337 504 Q 439 532 444 537 Q 454 547 448 555 Q 439 568 408 574 Q 375 578 343 565 Q 340 564 339 563 L 294 546 Q 176 515 117 504 Q 77 497 107 479 Q 152 455 212 473 Q 243 482 277 489 L 337 504 Z" style="fill: #0070C0;"></path>
                                                                        <path d="M 335 438 Q 335 471 337 504 L 339 563 Q 339 678 362 755 Q 375 782 351 799 Q 335 811 306 829 Q 282 847 261 831 Q 257 827 262 811 Q 295 763 295 663 Q 295 606 294 546 L 289 404 Q 285 334 285 258 Q 279 180 258 109 Q 246 70 271 7 Q 278 -12 286 -15 Q 292 -22 300 -13 Q 307 -9 318 12 Q 328 37 328 68 Q 327 108 334 408 L 335 438 Z" style="fill: #0070C0;"></path>
                                                                        <path d="M 277 489 Q 222 348 58 141 Q 54 131 64 130 Q 70 129 79 138 Q 211 249 289 404 C 346 515 288 517 277 489 Z" style="fill: #0070C0;"></path>
                                                                        <path d="M 334 408 Q 349 399 402 345 Q 412 335 425 334 Q 432 334 437 345 Q 441 355 435 379 Q 429 407 341 437 Q 340 438 335 438 C 305 441 309 425 334 408 Z" style="fill: #0070C0;"></path>
                                                                        <path d="M 672 477 Q 733 493 884 514 Q 896 513 905 527 Q 906 540 881 551 Q 844 572 758 545 Q 680 526 677 523 L 623 511 Q 508 495 444 483 Q 413 479 437 460 Q 473 433 505 441 Q 557 454 620 466 L 672 477 Z" style="fill: #0070C0;"></path>
                                                                        <path d="M 653 302 Q 663 393 672 477 L 677 523 Q 693 700 716 759 Q 720 774 700 792 Q 660 814 633 821 Q 615 825 606 817 Q 596 808 605 791 Q 632 748 630 718 Q 630 619 623 511 L 620 466 Q 614 382 605 292 C 602 262 650 272 653 302 Z" style="fill: #0070C0;"></path>
                                                                        <path d="M 511 280 Q 499 284 476 289 Q 463 293 459 287 Q 452 281 461 264 Q 491 198 507 90 Q 508 59 527 36 Q 546 14 551 29 Q 558 45 556 76 L 550 114 Q 535 216 532 246 C 529 275 529 275 511 280 Z" style="fill: #0070C0;"></path>
                                                                        <path d="M 797 140 Q 827 221 862 248 Q 881 267 866 287 Q 788 353 730 324 Q 691 312 653 302 L 605 292 Q 557 285 511 280 C 481 277 502 242 532 246 Q 542 247 557 250 Q 645 263 730 278 Q 752 282 761 274 Q 776 256 743 148 C 734 119 786 112 797 140 Z" style="fill: #0070C0;"></path>
                                                                        <path d="M 556 76 Q 565 75 577 77 Q 650 92 809 102 Q 822 103 823 113 Q 823 120 797 140 C 783 151 773 150 743 148 Q 740 149 737 148 Q 634 124 550 114 C 520 110 526 77 556 76 Z" style="fill: #0070C0;"></path>
                                    
                                    
                                                                                                                                                                                                                                                                                                                                                                                                                                                                                                                                                                                                                                                                                                                                                                                        </g>
                            </svg>