<svg width='83' height='83' >
                                <g transform="translate(3, 70) scale(0.07, -0.07)">
                                    <!-- 先将完整的字以灰色字体绘制完成，层级位于下面 -->
                                                                        <path d="M 333 521 Q 429 549 432 551 Q 441 560 436 568 Q 429 580 398 586 Q 350 592 333 575 L 290 560 Q 269 556 248 548 Q 196 535 136 526 Q 99 519 127 503 Q 166 482 237 499 Q 256 505 279 508 L 333 521 Z" style="fill: #0070C0;"></path>
                                                                        <path d="M 331 434 Q 331 476 333 521 L 333 575 Q 333 576 334 577 Q 335 677 354 744 Q 364 759 360 773 Q 353 783 298 817 Q 274 835 253 819 Q 249 813 254 798 Q 288 749 288 698 Q 288 634 290 560 L 285 389 Q 281 194 269 134 Q 245 41 265 -2 Q 266 -9 271 -18 Q 278 -36 286 -39 Q 292 -46 300 -37 Q 307 -33 318 -12 Q 328 13 327 45 Q 326 87 331 398 L 331 434 Z" style="fill: #0070C0;"></path>
                                                                        <path d="M 279 508 Q 252 427 212 355 Q 172 282 73 150 Q 67 140 80 139 Q 87 138 96 148 Q 210 242 285 389 C 363 540 289 536 279 508 Z" style="fill: #0070C0;"></path>
                                                                        <path d="M 331 398 Q 400 334 418 332 Q 431 332 436 350 Q 437 363 427 382 Q 405 418 331 434 C 302 441 309 418 331 398 Z" style="fill: #0070C0;"></path>
                                                                        <path d="M 530 571 Q 517 578 474 584 Q 461 587 457 581 Q 450 574 461 556 Q 500 486 526 366 Q 532 330 553 308 Q 575 284 579 302 Q 580 309 582 317 L 580 357 Q 568 408 539 535 C 532 564 531 571 530 571 Z" style="fill: #0070C0;"></path>
                                                                        <path d="M 804 388 Q 834 511 875 544 Q 894 566 877 587 Q 790 650 734 622 Q 641 588 530 571 C 500 566 510 527 539 535 Q 743 589 762 572 Q 774 560 771 536 Q 759 454 741 392 C 733 363 797 359 804 388 Z" style="fill: #0070C0;"></path>
                                                                        <path d="M 582 317 Q 594 329 818 349 Q 831 350 832 361 Q 832 370 804 388 C 783 402 770 399 741 392 Q 653 370 580 357 C 550 352 555 304 582 317 Z" style="fill: #0070C0;"></path>
                                                                        <path d="M 542 237 Q 532 170 377 33 Q 355 17 384 21 Q 448 27 572 150 Q 575 156 620 201 Q 630 214 628 224 Q 625 239 597 246 Q 566 256 553 253 Q 546 252 542 237 Z" style="fill: #0070C0;"></path>
                                                                        <path d="M 748 208 Q 809 141 881 46 Q 897 21 914 15 Q 924 12 933 23 Q 949 36 939 87 Q 930 153 752 243 Q 743 250 739 236 Q 738 221 748 208 Z" style="fill: #0070C0;"></path>
                                    
                                    
                                                                                                                                                                                                                                                                                                                                                                                                                                                                                                                                                                                                                                                                                                                                                                                        </g>
                            </svg>