<svg width='83' height='83' >
                                <g transform="translate(3, 70) scale(0.07, -0.07)">
                                    <!-- 先将完整的字以灰色字体绘制完成，层级位于下面 -->
                                                                        <path d="M 533 597 Q 564 604 600 609 L 635 616 Q 668 623 706 628 L 747 634 Q 805 643 858 648 Q 868 647 877 659 Q 878 669 856 680 Q 829 701 756 680 Q 755 680 753 679 L 708 668 Q 672 664 634 652 L 597 645 Q 563 641 535 636 L 490 631 Q 456 628 420 623 Q 393 620 414 603 Q 435 587 477 586 Q 483 589 492 589 L 533 597 Z" style="fill: #0070C0;"></path>
                                                                        <path d="M 600 609 Q 600 608 601 604 Q 607 508 615 493 Q 619 484 627 490 Q 631 494 633 508 Q 633 514 634 518 L 636 548 Q 636 599 635 616 L 634 652 Q 634 754 633 756 L 632 757 Q 593 784 565 771 Q 556 764 568 753 Q 586 729 597 645 L 600 609 Z" style="fill: #0070C0;"></path>
                                                                        <path d="M 736 565 Q 740 601 747 634 L 753 679 Q 762 745 776 782 Q 780 791 764 804 Q 737 820 718 826 Q 705 829 698 823 Q 691 817 697 804 Q 710 782 710 767 Q 710 721 708 668 L 706 628 Q 705 598 701 565 C 698 535 733 535 736 565 Z" style="fill: #0070C0;"></path>
                                                                        <path d="M 634 518 Q 640 517 649 519 Q 682 526 755 533 Q 764 534 764 542 Q 765 549 738 565 L 736 565 L 701 565 Q 700 566 697 565 Q 663 555 636 548 C 607 540 604 520 634 518 Z" style="fill: #0070C0;"></path>
                                                                        <path d="M 628 429 Q 710 450 824 444 Q 846 443 846 454 Q 847 466 814 483 Q 790 498 734 481 Q 731 481 583 457 Q 555 450 542 455 Q 529 461 533 475 Q 532 535 533 597 L 535 636 Q 535 645 536 653 Q 540 675 521 691 Q 490 716 471 714 Q 453 713 463 695 Q 485 664 490 631 L 492 589 Q 496 474 485 453 Q 475 437 484 423 Q 497 401 510 401 Q 517 401 537 411 Q 562 418 593 424 L 628 429 Z" style="fill: #0070C0;"></path>
                                                                        <path d="M 668 304 Q 743 313 893 313 Q 911 313 915 321 Q 919 331 905 343 Q 854 382 807 366 Q 744 354 648 338 L 605 331 Q 521 321 427 308 Q 408 307 422 291 Q 435 278 451 274 Q 470 270 484 273 Q 527 286 575 292 L 668 304 Z" style="fill: #0070C0;"></path>
                                                                        <path d="M 648 338 Q 649 378 653 398 Q 654 408 649 414 Q 639 423 628 429 C 603 445 582 452 593 424 Q 605 406 605 331 L 604 254 Q 604 92 588 49 Q 579 16 610 -30 Q 620 -46 627 -50 Q 637 -51 642 -39 Q 652 -11 650 16 Q 647 109 647 289 L 648 338 Z" style="fill: #0070C0;"></path>
                                                                        <path d="M 575 292 Q 535 189 361 63 Q 346 51 360 50 Q 370 49 403 64 Q 446 82 486 115 Q 520 143 560 191 Q 587 225 604 254 C 634 304 591 330 575 292 Z" style="fill: #0070C0;"></path>
                                                                        <path d="M 647 289 Q 710 192 793 89 Q 820 59 954 79 Q 963 80 964 85 Q 965 89 953 96 Q 815 159 748 223 Q 709 260 668 304 C 647 326 631 314 647 289 Z" style="fill: #0070C0;"></path>
                                    
                                    
                                                                                                                                                                                                                                                                                                                                                                                                                                                                                                                                                                                                                                                                                                                                                                                        </g>
                            </svg>