<svg width='83' height='83' >
                                <g transform="translate(3, 70) scale(0.07, -0.07)">
                                    <!-- 先将完整的字以灰色字体绘制完成，层级位于下面 -->
                                                                        <path d="M 305 527 Q 393 554 396 555 Q 405 564 400 572 Q 393 584 362 590 Q 334 594 307 584 L 260 566 Q 164 542 116 534 Q 79 527 107 511 Q 152 487 209 505 Q 225 511 247 513 L 305 527 Z" style="fill: #0070C0;"></path>
                                                                        <path d="M 303 440 Q 303 482 305 527 L 307 584 Q 308 677 326 740 Q 336 755 332 769 Q 325 779 270 813 Q 246 831 225 815 Q 221 809 226 794 Q 259 746 259 698 Q 259 637 260 566 L 257 405 Q 248 198 248 192 Q 241 149 229 105 Q 217 65 243 2 Q 250 -16 258 -19 Q 265 -26 272 -17 Q 279 -13 290 8 Q 300 33 299 65 Q 298 105 303 410 L 303 440 Z" style="fill: #0070C0;"></path>
                                                                        <path d="M 247 513 Q 204 383 53 174 Q 47 164 60 163 Q 67 162 76 172 Q 193 275 257 405 C 327 544 257 541 247 513 Z" style="fill: #0070C0;"></path>
                                                                        <path d="M 303 410 Q 357 349 378 345 Q 391 344 397 361 Q 398 373 390 392 Q 380 408 356 418 Q 319 437 303 440 C 274 447 283 432 303 410 Z" style="fill: #0070C0;"></path>
                                                                        <path d="M 591 729 Q 616 707 644 680 Q 662 665 681 667 Q 694 668 700 684 Q 704 703 693 739 Q 686 760 652 772 Q 571 797 556 788 Q 550 782 552 767 Q 558 754 591 729 Z" style="fill: #0070C0;"></path>
                                                                        <path d="M 480 570 Q 468 591 454 599 Q 450 603 445 600 Q 439 596 439 585 Q 443 551 409 476 Q 399 458 400 440 Q 404 421 413 406 Q 420 394 426 402 Q 433 403 441 419 Q 447 426 456 457 Q 474 509 483 527 Q 486 531 488 536 C 494 547 494 547 480 570 Z" style="fill: #0070C0;"></path>
                                                                        <path d="M 488 536 Q 506 530 552 544 Q 622 571 734 590 Q 758 594 767 593 Q 783 589 784 581 Q 784 577 734 493 Q 727 481 733 477 Q 740 473 755 483 Q 813 525 863 539 Q 903 554 902 563 Q 901 573 833 624 Q 811 643 745 626 Q 717 623 543 583 Q 512 576 480 570 C 451 564 458 539 488 536 Z" style="fill: #0070C0;"></path>
                                                                        <path d="M 540 229 Q 604 254 726 312 Q 748 324 776 329 Q 800 335 793 355 Q 783 376 759 397 Q 738 416 724 416 Q 711 417 712 403 Q 709 370 624 309 Q 584 282 542 251 C 518 233 512 218 540 229 Z" style="fill: #0070C0;"></path>
                                                                        <path d="M 899 110 Q 884 135 862 217 Q 861 233 853 238 Q 846 241 843 223 Q 819 133 802 105 Q 789 90 750 79 Q 659 57 588 82 Q 560 94 553 111 Q 534 150 540 229 L 542 251 Q 546 308 559 374 Q 565 393 552 403 Q 539 418 513 427 Q 500 431 490 427 Q 483 423 488 403 Q 501 361 499 321 Q 486 140 502 90 Q 506 68 528 48 Q 612 -12 782 20 Q 794 23 809 26 Q 852 39 895 66 Q 914 82 899 110 Z" style="fill: #0070C0;"></path>
                                    
                                    
                                                                                                                                                                                                                                                                                                                                                                                                                                                                                                                                                                                                                                                                                                                                                                                        </g>
                            </svg>