<svg width='83' height='83' >
                                <g transform="translate(3, 70) scale(0.07, -0.07)">
                                    <!-- 先将完整的字以灰色字体绘制完成，层级位于下面 -->
                                                                        <path d="M 313 532 Q 415 556 423 563 Q 433 572 427 580 Q 420 592 390 599 Q 351 605 314 586 L 268 571 Q 184 550 117 542 Q 80 535 107 518 Q 152 494 210 511 Q 232 517 257 520 L 313 532 Z" style="fill: #0070C0;"></path>
                                                                        <path d="M 311 470 Q 312 500 313 532 L 314 586 Q 314 589 315 591 Q 316 687 334 752 Q 344 767 340 781 Q 333 791 278 825 Q 254 843 233 827 Q 229 821 234 806 Q 267 758 267 710 Q 267 644 268 571 L 265 405 Q 256 207 256 204 Q 249 161 237 117 Q 225 77 251 14 Q 258 -4 266 -7 Q 273 -14 280 -5 Q 287 -1 298 20 Q 308 45 307 77 Q 306 117 311 432 L 311 470 Z" style="fill: #0070C0;"></path>
                                                                        <path d="M 257 520 Q 230 442 192 371 Q 152 298 53 166 Q 47 156 60 155 Q 67 154 76 164 Q 190 258 265 405 C 341 551 267 548 257 520 Z" style="fill: #0070C0;"></path>
                                                                        <path d="M 311 432 Q 354 381 377 377 Q 390 376 397 394 Q 398 407 389 426 Q 371 453 311 470 C 282 478 292 455 311 432 Z" style="fill: #0070C0;"></path>
                                                                        <path d="M 638 677 Q 662 746 674 766 Q 681 773 677 783 Q 665 808 619 816 Q 597 817 585 814 Q 576 810 581 797 Q 617 719 509 512 Q 502 502 496 489 Q 462 431 371 313 Q 364 306 375 305 Q 429 321 527 454 Q 578 533 624 643 L 638 677 Z" style="fill: #0070C0;"></path>
                                                                        <path d="M 624 643 Q 696 526 789 400 Q 807 378 839 376 Q 948 372 984 374 Q 994 375 996 381 Q 997 387 983 395 Q 829 464 755 544 Q 700 604 638 677 C 619 700 608 669 624 643 Z" style="fill: #0070C0;"></path>
                                                                        <path d="M 598 420 Q 617 404 640 384 Q 653 371 670 373 Q 680 374 685 388 Q 689 404 677 433 Q 668 455 590 468 Q 574 469 568 467 Q 564 463 565 450 Q 569 440 598 420 Z" style="fill: #0070C0;"></path>
                                                                        <path d="M 642 104 Q 751 233 795 254 Q 816 263 808 279 Q 804 295 732 330 Q 713 340 689 330 Q 634 308 550 283 Q 528 276 474 277 Q 449 278 459 256 Q 466 243 487 231 Q 518 213 554 234 Q 572 241 663 281 Q 679 287 693 277 Q 706 267 699 251 Q 665 187 624 112 C 610 86 623 81 642 104 Z" style="fill: #0070C0;"></path>
                                                                        <path d="M 624 112 Q 593 127 538 145 Q 529 149 527 137 Q 527 124 538 113 Q 593 67 660 -3 Q 676 -22 693 -27 Q 702 -28 709 -17 Q 721 -4 707 41 Q 698 78 642 104 L 624 112 Z" style="fill: #0070C0;"></path>
                                    
                                    
                                                                                                                                                                                                                                                                                                                                                                                                                                                                                                                                                                                                                                                                                                                                                                                        </g>
                            </svg>