<svg width='83' height='83' >
                                <g transform="translate(3, 70) scale(0.07, -0.07)">
                                    <!-- 先将完整的字以灰色字体绘制完成，层级位于下面 -->
                                                                        <path d="M 295 537 Q 388 564 392 567 Q 401 576 396 584 Q 389 596 358 602 Q 327 606 296 593 L 252 577 Q 153 550 100 542 Q 63 535 91 519 Q 136 495 194 513 Q 213 519 241 523 L 295 537 Z" style="fill: #0070C0;"></path>
                                                                        <path d="M 293 451 Q 293 493 295 537 L 296 593 Q 296 594 297 594 Q 298 693 318 760 Q 327 775 324 788 Q 317 798 262 833 Q 238 851 217 835 Q 213 831 218 814 Q 251 765 251 715 Q 251 651 252 577 L 247 406 Q 238 199 238 194 Q 231 149 217 105 Q 207 68 231 2 Q 238 -16 246 -19 Q 252 -26 260 -17 Q 287 -1 288 65 Q 287 107 292 417 L 293 451 Z" style="fill: #0070C0;"></path>
                                                                        <path d="M 241 523 Q 214 445 176 375 Q 136 302 37 170 Q 31 160 44 159 Q 51 158 60 168 Q 175 264 247 406 C 324 555 251 551 241 523 Z" style="fill: #0070C0;"></path>
                                                                        <path d="M 292 417 Q 355 351 378 349 Q 391 348 396 366 Q 397 379 388 398 Q 367 432 293 451 C 264 459 271 439 292 417 Z" style="fill: #0070C0;"></path>
                                                                        <path d="M 573 661 Q 601 715 630 757 Q 640 770 625 786 Q 576 820 552 815 Q 539 812 543 797 Q 559 686 434 535 Q 421 529 381 477 Q 372 461 388 466 Q 428 475 506 562 L 520 579 Q 536 601 553 625 L 573 661 Z" style="fill: #0070C0;"></path>
                                                                        <path d="M 668 463 Q 720 532 782 630 Q 792 651 804 661 Q 817 671 810 681 Q 801 694 766 707 Q 741 720 708 699 Q 654 677 573 661 C 544 655 524 631 553 625 Q 589 615 609 624 Q 709 661 719 661 Q 726 657 715 642 Q 669 557 624 495 L 601 465 Q 499 345 340 249 Q 324 239 334 235 Q 344 232 364 239 Q 479 285 575 366 Q 605 391 639 428 L 668 463 Z" style="fill: #0070C0;"></path>
                                                                        <path d="M 639 428 Q 783 290 819 281 Q 888 272 996 296 Q 1015 299 1017 304 Q 1020 311 1003 317 Q 945 338 875 359 Q 779 390 668 463 L 624 495 Q 609 507 595 518 Q 543 561 520 579 C 497 598 487 585 506 562 Q 507 556 601 465 L 639 428 Z" style="fill: #0070C0;"></path>
                                                                        <path d="M 568 242 Q 598 223 630 201 Q 648 189 666 193 Q 678 196 680 212 Q 683 230 666 261 Q 650 291 552 295 Q 534 296 527 292 Q 523 286 527 272 Q 534 260 568 242 Z" style="fill: #0070C0;"></path>
                                                                        <path d="M 549 69 Q 603 29 661 -19 Q 677 -34 695 -32 Q 707 -31 712 -16 Q 716 2 706 35 Q 696 68 647 91 Q 596 110 541 123 Q 523 127 516 123 Q 510 119 513 104 Q 517 91 549 69 Z" style="fill: #0070C0;"></path>
                                    
                                    
                                                                                                                                                                                                                                                                                                                                                                                                                                                                                                                                                                                                                                                                                                                                                                                        </g>
                            </svg>