<svg width='83' height='83' >
                                <g transform="translate(3, 70) scale(0.07, -0.07)">
                                    <!-- 先将完整的字以灰色字体绘制完成，层级位于下面 -->
                                                                        <path d="M 646 699 Q 727 706 795 712 Q 805 709 815 722 Q 816 734 795 745 Q 762 772 660 743 Q 657 743 655 742 L 599 731 Q 578 728 560 724 Q 485 711 416 702 L 361 698 Q 292 695 218 688 Q 190 687 210 668 Q 235 643 289 649 Q 325 655 367 661 L 417 669 Q 499 682 596 693 L 646 699 Z" style="fill: #0070C0;"></path>
                                                                        <path d="M 416 702 Q 415 736 418 754 Q 424 773 411 784 Q 395 796 367 805 Q 345 811 325 800 Q 315 791 329 778 Q 354 744 361 698 L 367 661 Q 382 555 386 463 Q 390 435 399 417 Q 406 407 414 414 Q 420 420 422 440 L 425 472 Q 425 508 422 552 L 421 581 Q 420 627 417 669 L 416 702 Z" style="fill: #0070C0;"></path>
                                                                        <path d="M 570 458 Q 576 446 581 432 Q 590 416 606 422 Q 622 432 622 463 Q 635 643 646 699 L 655 742 Q 655 743 656 744 Q 657 774 681 809 Q 688 819 677 834 Q 655 856 626 870 Q 608 880 593 876 Q 578 872 584 856 Q 606 813 600 746 Q 599 739 599 731 L 596 693 Q 586 545 570 493 C 564 471 564 471 570 458 Z" style="fill: #0070C0;"></path>
                                                                        <path d="M 422 552 Q 422 553 423 553 Q 487 565 536 572 Q 558 576 549 589 Q 539 602 515 605 Q 475 608 421 581 C 394 568 394 541 422 552 Z" style="fill: #0070C0;"></path>
                                                                        <path d="M 422 440 Q 429 439 440 441 Q 482 451 570 458 C 600 460 595 476 570 493 Q 569 494 568 495 Q 552 502 524 495 Q 469 480 425 472 C 396 467 392 442 422 440 Z" style="fill: #0070C0;"></path>
                                                                        <path d="M 520 311 Q 616 320 856 320 Q 878 320 883 329 Q 889 342 871 357 Q 814 402 750 385 Q 659 369 522 348 L 471 341 Q 320 325 146 304 Q 124 301 140 283 Q 155 268 174 262 Q 196 256 214 261 Q 317 289 434 301 L 520 311 Z" style="fill: #0070C0;"></path>
                                                                        <path d="M 519 305 Q 519 309 520 311 L 522 348 Q 525 388 522 391 Q 500 410 481 420 Q 469 424 460 417 Q 454 414 461 404 Q 470 389 471 341 L 470 263 Q 455 64 450 51 Q 441 14 473 -36 Q 483 -54 492 -58 Q 502 -59 508 -47 Q 521 -16 517 14 Q 516 144 518 255 Q 518 262 518 268 L 519 305 Z" style="fill: #0070C0;"></path>
                                                                        <path d="M 434 301 Q 428 283 410 262 Q 353 189 292 142 Q 240 99 135 39 Q 117 29 133 25 Q 172 21 271 73 Q 355 133 392 170 Q 435 212 462 251 Q 466 258 470 263 C 503 312 455 348 434 301 Z" style="fill: #0070C0;"></path>
                                                                        <path d="M 518 268 Q 722 43 770 31 Q 836 21 936 40 Q 955 41 957 47 Q 960 54 944 60 Q 742 138 717 154 Q 648 196 519 305 C 496 324 498 290 518 268 Z" style="fill: #0070C0;"></path>
                                    
                                    
                                                                                                                                                                                                                                                                                                                                                                                                                                                                                                                                                                                                                                                                                                                                                                                        </g>
                            </svg>