<svg width='83' height='83' >
                                <g transform="translate(3, 70) scale(0.07, -0.07)">
                                    <!-- 先将完整的字以灰色字体绘制完成，层级位于下面 -->
                                                                        <path d="M 542 673 Q 648 757 686 765 Q 705 771 700 787 Q 697 802 635 840 Q 619 850 596 843 Q 524 821 415 796 Q 387 789 320 794 Q 298 795 305 776 Q 312 763 329 752 Q 359 734 391 752 Q 578 809 594 798 Q 604 791 599 778 Q 565 736 528 687 C 510 663 518 654 542 673 Z" style="fill: #0070C0;"></path>
                                                                        <path d="M 547 631 Q 548 634 550 636 Q 553 661 542 673 L 528 687 Q 519 694 464 707 Q 452 708 448 706 Q 444 703 446 694 Q 446 691 517 633 Q 521 629 525 627 C 540 618 540 618 547 631 Z" style="fill: #0070C0;"></path>
                                                                        <path d="M 539 602 Q 612 615 689 623 Q 723 627 724 613 Q 723 597 689 540 Q 680 525 687 521 Q 694 517 708 528 Q 787 582 819 591 Q 844 595 843 610 Q 842 623 770 663 Q 748 673 721 668 Q 628 647 547 631 L 525 627 Q 509 626 494 622 Q 374 606 209 590 Q 181 587 202 564 Q 217 543 265 556 Q 356 574 449 588 L 539 602 Z" style="fill: #0070C0;"></path>
                                                                        <path d="M 509 581 Q 539 551 533 485 Q 530 458 521 443 Q 511 425 487 430 Q 466 434 446 438 Q 437 439 441 431 Q 444 425 457 415 Q 485 390 494 370 Q 501 355 515 358 Q 525 359 546 380 Q 585 423 578 508 Q 571 584 539 602 C 515 620 489 604 509 581 Z" style="fill: #0070C0;"></path>
                                                                        <path d="M 449 588 Q 407 497 215 390 Q 197 380 212 378 Q 239 372 317 407 Q 371 437 424 486 Q 458 517 480 547 Q 499 572 509 581 C 545 618 507 702 449 588 Z" style="fill: #0070C0;"></path>
                                                                        <path d="M 538 268 Q 590 274 868 273 Q 889 272 895 281 Q 901 294 883 309 Q 828 351 787 343 Q 694 327 542 305 L 485 298 Q 331 282 154 263 Q 132 262 148 243 Q 163 228 182 222 Q 204 215 221 220 Q 326 247 444 258 L 538 268 Z" style="fill: #0070C0;"></path>
                                                                        <path d="M 537 267 Q 537 268 538 268 L 542 305 Q 542 323 497 349 Q 485 352 476 345 Q 470 342 477 332 Q 483 323 485 298 L 483 225 Q 483 93 467 43 Q 457 0 497 -56 Q 501 -63 508 -66 Q 518 -67 524 -55 Q 537 -24 534 5 Q 531 194 536 235 L 537 267 Z" style="fill: #0070C0;"></path>
                                                                        <path d="M 444 258 Q 392 155 152 39 Q 133 29 148 25 Q 158 21 199 32 Q 253 42 304 71 Q 409 131 472 211 Q 476 218 483 225 C 517 265 471 307 444 258 Z" style="fill: #0070C0;"></path>
                                                                        <path d="M 536 235 Q 621 144 712 61 Q 736 39 773 39 Q 840 38 912 54 Q 930 57 931 62 Q 932 69 918 74 Q 870 90 814 105 Q 696 141 545 262 Q 541 265 537 267 C 512 284 515 257 536 235 Z" style="fill: #0070C0;"></path>
                                    
                                    
                                                                                                                                                                                                                                                                                                                                                                                                                                                                                                                                                                                                                                                                                                                                                                                        </g>
                            </svg>