<svg width='83' height='83' >
                                <g transform="translate(3, 70) scale(0.07, -0.07)">
                                    <!-- 先将完整的字以灰色字体绘制完成，层级位于下面 -->
                                                                        <path d="M 332 548 Q 354 555 378 559 Q 418 569 423 575 Q 433 584 427 592 Q 420 604 390 611 Q 362 615 334 605 L 286 589 Q 202 565 117 554 Q 80 547 107 530 Q 149 509 218 525 Q 239 531 263 534 L 332 548 Z" style="fill: #0070C0;"></path>
                                                                        <path d="M 329 443 Q 330 492 332 548 L 334 605 Q 335 698 354 759 Q 363 775 360 788 Q 353 798 298 833 Q 274 851 253 835 Q 249 831 254 814 Q 285 768 286 720 Q 286 659 286 589 L 283 458 Q 276 241 271 216 Q 247 102 249 95 Q 249 86 267 39 Q 274 20 282 17 Q 288 10 296 19 Q 323 35 324 101 Q 323 140 329 423 L 329 443 Z" style="fill: #0070C0;"></path>
                                                                        <path d="M 263 534 Q 212 401 62 206 Q 56 196 68 195 Q 75 194 84 203 Q 207 306 283 458 C 334 558 274 563 263 534 Z" style="fill: #0070C0;"></path>
                                                                        <path d="M 329 423 Q 392 360 414 360 Q 427 359 432 378 Q 432 391 421 409 Q 411 424 387 430 Q 351 443 336 445 Q 332 446 329 443 C 316 436 316 436 329 423 Z" style="fill: #0070C0;"></path>
                                                                        <path d="M 532 639 Q 571 624 619 635 Q 709 653 802 671 Q 845 681 851 687 Q 860 694 855 704 Q 848 716 818 724 Q 787 730 756 718 Q 708 702 656 689 Q 598 676 530 670 Q 527 670 527 669 C 497 664 504 649 532 639 Z" style="fill: #0070C0;"></path>
                                                                        <path d="M 659 488 Q 675 518 709 570 Q 718 580 705 593 Q 666 618 646 616 Q 636 613 638 601 Q 651 520 573 430 Q 554 408 544 394 Q 538 381 551 386 Q 581 389 642 464 L 659 488 Z" style="fill: #0070C0;"></path>
                                                                        <path d="M 723 358 Q 805 466 819 478 Q 832 488 827 495 Q 826 502 773 521 Q 757 530 741 517 Q 728 510 706 501 Q 682 494 659 488 C 630 480 613 471 642 464 Q 669 454 708 472 Q 724 476 731 470 Q 735 463 724 445 Q 673 337 544 225 Q 534 215 545 214 Q 609 227 708 340 L 723 358 Z" style="fill: #0070C0;"></path>
                                                                        <path d="M 708 340 Q 709 337 714 333 Q 771 291 840 229 Q 856 211 871 209 Q 878 209 885 219 Q 895 232 879 270 Q 863 318 723 358 C 694 366 690 364 708 340 Z" style="fill: #0070C0;"></path>
                                                                        <path d="M 527 669 L 527 670 Q 517 680 487 696 Q 465 708 457 701 Q 450 694 457 678 Q 475 642 475 577 Q 478 376 457 190 Q 453 150 428 114 Q 418 99 427 77 Q 434 55 444 46 Q 454 39 473 50 Q 531 87 620 103 Q 720 119 915 112 Q 940 111 942 123 Q 942 139 913 160 Q 898 173 771 155 Q 600 143 536 131 Q 509 127 509 151 Q 519 334 526 565 Q 526 610 532 639 C 535 663 535 663 527 669 Z" style="fill: #0070C0;"></path>
                                    
                                    
                                                                                                                                                                                                                                                                                                                                                                                                                                                                                                                                                                                                                                                                                                                                                                                        </g>
                            </svg>