<svg width='83' height='83' >
                                <g transform="translate(3, 70) scale(0.07, -0.07)">
                                    <!-- 先将完整的字以灰色字体绘制完成，层级位于下面 -->
                                                                        <path d="M 407 502 Q 408 566 409 626 L 410 659 Q 410 695 421 773 Q 424 783 405 796 Q 372 811 350 814 Q 335 815 329 808 Q 322 801 330 787 Q 349 762 351 744 Q 366 627 369 490 C 370 460 407 472 407 502 Z" style="fill: #0070C0;"></path>
                                                                        <path d="M 409 626 Q 461 638 505 644 Q 527 650 517 661 Q 507 674 482 677 Q 442 680 410 659 C 385 643 380 619 409 626 Z" style="fill: #0070C0;"></path>
                                                                        <path d="M 301 470 Q 286 585 290 607 Q 291 629 276 639 Q 254 654 227 660 Q 212 664 205 657 Q 198 651 205 637 Q 232 598 262 458 C 268 429 305 440 301 470 Z" style="fill: #0070C0;"></path>
                                                                        <path d="M 262 458 Q 207 443 182 444 Q 169 443 167 433 Q 166 420 174 413 Q 196 397 227 380 Q 237 377 249 385 Q 279 409 455 488 Q 480 498 497 512 Q 510 519 510 528 Q 501 534 407 502 L 369 490 Q 335 481 301 470 L 262 458 Z" style="fill: #0070C0;"></path>
                                                                        <path d="M 584 614 Q 642 636 679 653 Q 751 689 783 695 Q 805 699 798 718 Q 791 737 769 756 Q 750 774 738 773 Q 725 774 727 761 Q 724 731 650 681 Q 617 659 584 635 C 560 617 556 603 584 614 Z" style="fill: #0070C0;"></path>
                                                                        <path d="M 584 635 Q 584 719 607 777 Q 619 805 601 822 Q 552 859 538 855 Q 523 849 531 833 Q 550 797 545 744 Q 538 519 570 491 Q 589 472 640 461 Q 686 451 759 451 Q 826 451 852 463 Q 882 478 870 508 Q 855 538 842 590 Q 841 605 833 610 Q 826 614 822 595 Q 804 534 793 525 Q 771 501 685 502 Q 637 503 617 512 Q 599 521 596 533 Q 586 558 584 614 L 584 635 Z" style="fill: #0070C0;"></path>
                                                                        <path d="M 541 300 Q 692 327 851 312 Q 873 311 879 318 Q 886 331 875 342 Q 845 367 803 386 Q 790 392 765 383 Q 701 368 635 357 Q 572 350 530 343 L 478 336 Q 454 336 297 312 Q 233 302 137 298 Q 124 298 123 287 Q 123 275 141 262 Q 157 250 187 239 Q 197 235 215 244 Q 281 268 428 287 L 541 300 Z" style="fill: #0070C0;"></path>
                                                                        <path d="M 530 343 Q 531 368 535 383 Q 538 396 530 402 Q 508 423 488 432 Q 475 436 466 429 Q 460 425 467 415 Q 473 406 478 336 L 477 263 Q 462 56 457 40 Q 445 7 479 -48 L 481 -51 Q 491 -70 500 -74 Q 512 -75 517 -63 Q 530 -30 527 1 Q 524 140 527 257 Q 527 266 527 274 L 530 343 Z" style="fill: #0070C0;"></path>
                                                                        <path d="M 428 287 Q 362 170 124 44 Q 105 32 121 29 Q 155 22 250 65 Q 319 102 388 164 Q 434 204 461 242 Q 468 255 477 263 C 505 294 464 347 428 287 Z" style="fill: #0070C0;"></path>
                                                                        <path d="M 527 274 Q 734 61 783 48 Q 855 39 968 66 Q 989 70 990 75 Q 993 82 975 89 Q 786 146 762 158 Q 671 200 541 300 C 517 318 503 299 527 274 Z" style="fill: #0070C0;"></path>
                                    
                                    
                                                                                                                                                                                                                                                                                                                                                                                                                                                                                                                                                                                                                                                                                                                                                                                                                                                                    </g>
                            </svg>