<svg width='83' height='83' >
                                <g transform="translate(3, 70) scale(0.07, -0.07)">
                                    <!-- 先将完整的字以灰色字体绘制完成，层级位于下面 -->
                                                                        <path d="M 331 543 Q 352 550 374 555 Q 414 567 420 573 Q 429 580 424 589 Q 417 599 388 605 Q 358 609 332 596 L 288 579 Q 186 549 115 537 Q 81 530 106 514 Q 152 495 210 512 Q 240 521 273 528 L 331 543 Z" style="fill: #0070C0;"></path>
                                                                        <path d="M 328 450 Q 329 495 331 543 L 332 596 Q 332 689 353 762 Q 368 787 338 807 Q 323 819 298 833 Q 276 849 255 835 Q 251 831 256 815 Q 287 769 288 721 Q 288 655 288 579 L 284 443 Q 281 245 262 168 Q 244 96 269 42 Q 275 24 283 21 Q 289 14 296 23 Q 303 27 314 47 Q 324 72 323 102 Q 322 141 328 418 L 328 450 Z" style="fill: #0070C0;"></path>
                                                                        <path d="M 273 528 Q 221 399 70 205 Q 66 195 76 194 Q 82 193 91 202 Q 211 301 284 443 C 342 553 285 556 273 528 Z" style="fill: #0070C0;"></path>
                                                                        <path d="M 328 418 Q 335 415 390 360 Q 400 350 413 350 Q 420 350 425 361 Q 429 371 423 395 Q 419 414 391 428 Q 364 440 333 449 Q 332 450 328 450 C 298 455 303 435 328 418 Z" style="fill: #0070C0;"></path>
                                                                        <path d="M 611 786 Q 639 761 671 731 Q 684 718 701 719 Q 711 719 717 733 Q 721 748 713 777 Q 701 810 606 834 Q 590 838 584 835 Q 580 831 580 818 Q 584 808 611 786 Z" style="fill: #0070C0;"></path>
                                                                        <path d="M 665 595 Q 664 596 668 596 Q 741 609 863 616 Q 912 620 917 627 Q 921 639 905 650 Q 850 686 796 666 Q 610 624 478 597 Q 459 594 474 579 Q 489 567 505 563 Q 524 559 540 565 Q 574 577 614 585 L 665 595 Z" style="fill: #0070C0;"></path>
                                                                        <path d="M 516 434 Q 494 444 478 443 Q 466 439 472 429 Q 502 378 480 276 Q 458 236 489 195 Q 490 194 493 191 Q 500 179 508 185 Q 533 203 534 274 Q 535 379 538 401 C 540 424 540 424 516 434 Z" style="fill: #0070C0;"></path>
                                                                        <path d="M 693 429 Q 736 438 781 441 Q 812 445 815 425 Q 827 281 809 260 Q 799 253 739 263 Q 723 266 721 261 Q 718 255 729 247 Q 787 210 822 181 Q 837 169 849 183 Q 871 217 873 285 Q 867 388 875 433 Q 878 452 868 462 Q 841 484 822 495 Q 810 501 801 491 Q 794 482 695 461 Q 692 461 693 460 L 641 451 Q 593 445 516 434 C 486 430 508 397 538 401 Q 544 401 551 402 Q 596 412 641 420 L 693 429 Z" style="fill: #0070C0;"></path>
                                                                        <path d="M 642 -23 Q 646 -48 654 -57 Q 660 -64 667 -62 Q 685 -50 688 5 Q 695 81 693 157 Q 690 215 693 429 L 693 460 Q 693 487 704 552 Q 707 568 693 578 Q 677 588 665 595 C 639 610 602 613 614 585 Q 614 584 617 579 Q 639 528 641 459 Q 641 456 641 451 L 641 420 Q 641 -12 642 -23 Z" style="fill: #0070C0;"></path>
                                    
                                    
                                                                                                                                                                                                                                                                                                                                                                                                                                                                                                                                                                                                                                                                                                                                                                                        </g>
                            </svg>