<svg width='83' height='83' >
                                <g transform="translate(3, 70) scale(0.07, -0.07)">
                                    <!-- 先将完整的字以灰色字体绘制完成，层级位于下面 -->
                                                                        <path d="M 318 518 Q 418 546 420 547 Q 429 556 424 564 Q 417 576 386 583 Q 337 590 320 573 L 274 557 Q 169 530 109 522 Q 72 515 99 498 Q 144 479 220 496 Q 235 500 253 502 L 318 518 Z" style="fill: #0070C0;"></path>
                                                                        <path d="M 315 439 Q 316 476 318 518 L 320 573 Q 320 675 342 747 Q 355 774 331 791 Q 315 803 286 821 Q 262 839 241 823 Q 237 819 242 803 Q 273 754 274 706 Q 274 637 274 557 L 270 418 Q 263 214 248 151 Q 230 76 244 29 Q 247 22 251 11 Q 258 -8 266 -11 Q 272 -18 280 -9 Q 287 -5 298 16 Q 308 41 308 72 Q 307 114 314 411 L 315 439 Z" style="fill: #0070C0;"></path>
                                                                        <path d="M 253 502 Q 211 382 66 182 Q 60 172 72 171 Q 78 170 88 179 Q 203 284 270 418 C 326 529 263 530 253 502 Z" style="fill: #0070C0;"></path>
                                                                        <path d="M 314 411 Q 318 407 329 398 Q 354 376 380 348 Q 390 338 404 338 Q 413 338 417 349 Q 421 361 415 385 Q 411 403 384 417 Q 332 438 315 439 C 285 443 292 431 314 411 Z" style="fill: #0070C0;"></path>
                                                                        <path d="M 543 595 Q 631 625 694 659 Q 740 683 781 694 Q 799 697 802 705 Q 806 717 792 728 Q 768 743 719 757 Q 703 764 689 761 Q 682 757 681 745 Q 682 709 534 617 C 509 601 515 585 543 595 Z" style="fill: #0070C0;"></path>
                                                                        <path d="M 528 498 Q 534 573 543 595 C 546 607 546 607 534 617 Q 518 632 491 643 Q 472 653 458 648 Q 446 641 453 627 Q 471 606 471 548 Q 470 535 470 520 Q 467 364 432 256 Q 404 169 334 51 Q 330 44 327 38 Q 326 28 336 30 Q 366 36 438 151 Q 448 172 460 196 Q 506 305 526 471 L 528 498 Z" style="fill: #0070C0;"></path>
                                                                        <path d="M 526 471 Q 577 455 619 468 Q 719 493 825 519 Q 873 532 880 539 Q 889 548 884 556 Q 875 568 846 574 Q 812 578 732 546 Q 609 510 528 498 C 498 493 497 479 526 471 Z" style="fill: #0070C0;"></path>
                                                                        <path d="M 610 343 Q 683 368 736 377 Q 749 378 751 376 Q 758 367 755 346 Q 752 285 740 257 Q 724 227 697 232 Q 675 238 654 245 Q 632 252 647 230 Q 686 193 704 164 Q 717 148 730 160 Q 769 184 798 278 Q 813 357 829 374 Q 839 386 834 395 Q 827 405 780 425 Q 770 429 717 409 Q 666 393 597 377 C 568 370 582 333 610 343 Z" style="fill: #0070C0;"></path>
                                                                        <path d="M 943 94 Q 930 125 912 217 Q 912 233 905 238 Q 899 241 895 224 Q 868 125 850 94 Q 837 79 799 69 Q 714 48 640 78 Q 612 91 604 109 Q 577 163 610 343 C 614 366 614 366 597 377 Q 584 387 566 395 Q 553 399 544 394 Q 537 390 542 372 Q 555 332 552 293 Q 542 133 555 89 Q 559 65 581 45 Q 671 -24 842 11 Q 848 12 855 14 Q 895 26 936 54 Q 955 69 943 94 Z" style="fill: #0070C0;"></path>
                                    
                                    
                                                                                                                                                                                                                                                                                                                                                                                                                                                                                                                                                                                                                                                                                                                                                                                        </g>
                            </svg>