<svg width='83' height='83' >
                                <g transform="translate(3, 70) scale(0.07, -0.07)">
                                    <!-- 先将完整的字以灰色字体绘制完成，层级位于下面 -->
                                                                        <path d="M 342 521 Q 361 528 382 533 Q 422 545 429 551 Q 436 560 432 568 Q 425 580 394 585 Q 369 589 345 581 L 298 561 Q 202 530 115 515 Q 78 506 106 491 Q 148 467 216 489 Q 244 498 276 504 L 342 521 Z" style="fill: #0070C0;"></path>
                                                                        <path d="M 337 415 Q 338 464 342 521 L 345 581 Q 349 669 368 727 Q 378 742 375 756 Q 368 766 314 802 Q 290 820 269 805 Q 263 799 270 784 Q 300 736 299 689 Q 299 629 298 561 L 291 414 Q 279 225 276 198 Q 269 156 256 114 Q 244 75 268 11 Q 274 -7 282 -10 Q 288 -17 296 -9 Q 303 -5 315 16 Q 325 41 325 72 Q 325 111 336 384 L 337 415 Z" style="fill: #0070C0;"></path>
                                                                        <path d="M 276 504 Q 219 354 58 138 Q 52 128 64 127 Q 70 126 80 135 Q 210 249 291 414 C 351 533 287 532 276 504 Z" style="fill: #0070C0;"></path>
                                                                        <path d="M 336 384 Q 354 372 394 328 Q 406 318 419 317 Q 429 317 433 329 Q 437 342 431 367 Q 427 383 401 396 Q 355 415 337 415 C 307 417 312 401 336 384 Z" style="fill: #0070C0;"></path>
                                                                        <path d="M 679 701 Q 682 746 688 768 Q 692 780 694 789 Q 697 799 679 811 Q 648 827 627 831 Q 614 835 606 827 Q 599 820 607 807 Q 623 786 623 771 Q 630 671 630 553 C 630 523 665 531 667 561 Q 671 619 677 672 L 679 701 Z" style="fill: #0070C0;"></path>
                                                                        <path d="M 677 672 Q 719 668 824 694 Q 839 698 841 701 Q 848 708 844 717 Q 837 727 807 732 Q 777 735 750 721 Q 740 717 679 701 C 650 693 647 674 677 672 Z" style="fill: #0070C0;"></path>
                                                                        <path d="M 630 553 Q 584 543 538 534 C 509 528 528 499 557 505 Q 558 505 729 541 Q 750 547 758 538 Q 767 531 765 514 Q 758 474 748 438 C 740 409 789 405 800 433 Q 825 502 852 517 Q 868 536 854 553 Q 838 566 786 591 Q 768 598 747 590 Q 705 574 667 561 L 630 553 Z" style="fill: #0070C0;"></path>
                                                                        <path d="M 538 370 Q 553 364 570 366 Q 648 382 814 396 Q 826 397 827 406 Q 827 415 800 433 C 782 446 777 445 748 438 Q 633 411 541 400 C 511 396 509 379 538 370 Z" style="fill: #0070C0;"></path>
                                                                        <path d="M 538 534 Q 525 544 508 551 Q 489 561 476 556 Q 464 549 471 536 Q 486 518 487 453 Q 486 446 486 438 Q 483 294 450 195 Q 417 99 358 6 Q 354 0 352 -6 Q 349 -16 360 -15 Q 385 -12 451 90 Q 464 112 477 138 Q 517 231 538 370 L 541 400 Q 541 404 542 409 Q 548 481 554 494 Q 557 500 557 505 C 561 519 561 519 538 534 Z" style="fill: #0070C0;"></path>
                                    
                                    
                                                                                                                                                                                                                                                                                                                                                                                                                                                                                                                                                                                                                                                                                                                                                                                        </g>
                            </svg>