<svg width='83' height='83' >
                                <g transform="translate(3, 70) scale(0.07, -0.07)">
                                    <!-- 先将完整的字以灰色字体绘制完成，层级位于下面 -->
                                                                        <path d="M 332 540 Q 422 567 429 571 Q 436 580 432 588 Q 425 600 394 605 Q 363 609 333 596 L 289 579 Q 190 549 127 539 Q 90 530 118 515 Q 161 491 219 510 Q 246 519 276 525 L 332 540 Z" style="fill: #0070C0;"></path>
                                                                        <path d="M 329 427 Q 330 481 332 540 L 333 596 Q 336 689 354 752 Q 363 767 360 780 Q 353 790 298 825 Q 274 843 253 827 Q 249 823 254 806 Q 288 757 288 705 Q 288 647 289 579 L 285 420 Q 281 333 280 239 Q 276 158 253 85 Q 243 48 267 -18 Q 274 -36 282 -39 Q 288 -46 296 -37 Q 323 -21 324 45 Q 323 87 329 394 L 329 427 Z" style="fill: #0070C0;"></path>
                                                                        <path d="M 276 525 Q 225 369 57 133 Q 53 123 64 122 Q 86 122 201 272 Q 246 333 285 420 C 348 558 286 553 276 525 Z" style="fill: #0070C0;"></path>
                                                                        <path d="M 329 394 Q 398 325 410 322 L 412 322 Q 421 322 425 333 Q 429 345 424 369 Q 418 397 338 425 Q 334 426 329 427 C 300 433 308 415 329 394 Z" style="fill: #0070C0;"></path>
                                                                        <path d="M 513 645 Q 534 623 556 598 Q 568 585 582 585 Q 592 585 597 597 Q 601 610 596 638 Q 589 665 512 689 Q 499 693 492 691 Q 488 687 488 676 Q 489 666 513 645 Z" style="fill: #0070C0;"></path>
                                                                        <path d="M 723 724 Q 711 697 645 591 Q 636 572 654 578 Q 688 606 773 683 Q 791 702 814 717 Q 835 730 821 747 Q 805 763 776 774 Q 749 786 736 781 Q 723 777 729 764 Q 736 745 723 724 Z" style="fill: #0070C0;"></path>
                                                                        <path d="M 479 516 Q 440 510 468 491 Q 510 464 573 477 Q 669 495 769 514 Q 815 524 822 529 Q 832 538 827 547 Q 820 560 788 568 Q 761 574 652 543 Q 556 522 479 516 Z" style="fill: #0070C0;"></path>
                                                                        <path d="M 495 348 Q 456 342 484 323 Q 526 296 589 309 Q 659 322 732 334 Q 765 341 770 345 Q 780 354 775 363 Q 768 376 736 384 Q 705 391 671 379 Q 634 369 593 359 Q 548 352 495 348 Z" style="fill: #0070C0;"></path>
                                                                        <path d="M 406 148 Q 384 145 400 127 Q 433 94 474 104 Q 682 150 892 132 Q 914 132 919 141 Q 925 154 907 169 Q 852 211 811 203 Q 703 182 406 148 Z" style="fill: #0070C0;"></path>
                                    
                                    
                                                                                                                                                                                                                                                                                                                                                                                                                                                                                                                                                                                                                                                                                                                                                                                        </g>
                            </svg>