<svg width='83' height='83' >
                                <g transform="translate(3, 70) scale(0.07, -0.07)">
                                    <!-- 先将完整的字以灰色字体绘制完成，层级位于下面 -->
                                                                        <path d="M 311 513 Q 416 540 419 543 Q 429 550 423 560 Q 416 572 386 579 Q 343 588 312 567 L 268 553 Q 141 526 109 522 Q 72 515 99 498 Q 144 474 202 490 Q 221 496 248 499 L 311 513 Z" style="fill: #0070C0;"></path>
                                                                        <path d="M 309 448 Q 310 479 311 513 L 312 567 Q 312 679 334 756 Q 349 781 323 799 Q 307 811 278 829 Q 254 847 233 831 Q 229 827 234 810 Q 267 761 267 711 Q 268 638 269 555 Q 268 555 268 553 L 264 426 Q 260 342 260 252 Q 256 173 233 101 Q 223 64 247 -2 Q 254 -20 262 -23 Q 268 -30 276 -21 Q 303 -5 304 61 Q 303 104 309 420 L 309 448 Z" style="fill: #0070C0;"></path>
                                                                        <path d="M 248 499 Q 197 379 51 201 Q 45 191 56 190 Q 62 189 71 197 Q 191 296 264 426 C 318 520 260 526 248 499 Z" style="fill: #0070C0;"></path>
                                                                        <path d="M 309 420 Q 310 419 315 414 Q 351 372 380 357 Q 392 354 400 365 Q 404 375 403 389 Q 396 422 326 445 Q 316 449 309 448 C 282 447 288 441 309 420 Z" style="fill: #0070C0;"></path>
                                                                        <path d="M 661 662 Q 778 713 809 718 Q 828 719 831 728 Q 835 740 822 751 Q 800 767 752 786 Q 736 793 722 792 Q 715 788 713 776 Q 713 727 453 609 Q 447 599 454 596 Q 472 596 613 643 L 661 662 Z" style="fill: #0070C0;"></path>
                                                                        <path d="M 673 452 Q 758 465 894 466 Q 954 463 961 476 Q 967 489 948 504 Q 881 549 820 529 Q 763 517 681 501 L 624 491 Q 531 478 425 461 Q 403 458 420 439 Q 436 424 456 419 Q 480 413 497 419 Q 555 435 621 445 L 673 452 Z" style="fill: #0070C0;"></path>
                                                                        <path d="M 648 297 Q 661 378 673 452 L 681 501 Q 681 537 710 615 Q 714 625 696 642 Q 677 655 661 662 C 634 675 600 670 613 643 Q 629 612 629 592 Q 628 543 624 491 L 621 445 Q 614 372 604 289 C 600 259 643 267 648 297 Z" style="fill: #0070C0;"></path>
                                                                        <path d="M 529 280 Q 516 287 483 294 Q 470 298 465 292 Q 458 285 467 268 Q 498 195 513 77 Q 516 41 535 17 Q 554 -8 560 10 Q 564 25 565 47 L 563 86 Q 545 209 542 246 C 539 275 539 275 529 280 Z" style="fill: #0070C0;"></path>
                                                                        <path d="M 807 106 Q 846 220 885 243 Q 904 262 890 284 Q 806 356 754 325 Q 705 309 656 299 Q 650 298 648 297 L 604 289 Q 567 285 529 280 C 499 276 512 244 542 246 Q 555 246 573 250 Q 663 265 749 279 Q 771 283 781 274 Q 791 262 787 241 Q 768 169 748 113 C 738 85 797 78 807 106 Z" style="fill: #0070C0;"></path>
                                                                        <path d="M 565 47 Q 575 47 585 48 Q 660 61 820 66 Q 833 67 834 77 Q 835 86 807 106 C 788 120 778 118 748 113 Q 645 94 563 86 C 533 83 535 46 565 47 Z" style="fill: #0070C0;"></path>
                                    
                                    
                                                                                                                                                                                                                                                                                                                                                                                                                                                                                                                                                                                                                                                                                                                                                                                                                                                                    </g>
                            </svg>