<svg width='83' height='83' >
                                <g transform="translate(3, 70) scale(0.07, -0.07)">
                                    <!-- 先将完整的字以灰色字体绘制完成，层级位于下面 -->
                                                                        <path d="M 300 530 Q 381 555 384 557 Q 393 564 388 573 Q 381 583 352 590 Q 325 594 302 584 L 255 566 Q 161 539 91 528 Q 57 521 82 506 Q 130 485 177 500 Q 208 509 242 516 L 300 530 Z" style="fill: #0070C0;"></path>
                                                                        <path d="M 297 428 Q 298 476 300 530 L 302 584 Q 303 672 322 732 Q 331 747 328 760 Q 321 770 266 805 Q 242 823 221 807 Q 217 803 222 786 Q 253 738 255 690 Q 255 632 255 566 L 251 400 Q 244 208 241 184 Q 234 141 222 97 Q 210 57 236 -6 Q 242 -24 250 -27 Q 256 -34 264 -25 Q 291 -9 292 57 Q 291 97 297 395 L 297 428 Z" style="fill: #0070C0;"></path>
                                                                        <path d="M 242 516 Q 203 375 49 149 Q 45 139 56 139 Q 62 138 71 147 Q 182 256 251 400 C 324 550 250 545 242 516 Z" style="fill: #0070C0;"></path>
                                                                        <path d="M 297 395 Q 369 326 374 324 Q 375 325 377 324 Q 384 323 389 333 Q 393 343 389 365 Q 386 384 359 402 Q 331 415 300 428 Q 299 429 297 428 C 267 432 275 416 297 395 Z" style="fill: #0070C0;"></path>
                                                                        <path d="M 499 659 Q 544 650 575 657 Q 828 702 842 711 Q 852 718 847 728 Q 840 740 810 748 Q 783 754 679 724 Q 532 697 488 693 C 458 690 469 664 499 659 Z" style="fill: #0070C0;"></path>
                                                                        <path d="M 700 521 Q 817 545 823 550 Q 830 557 827 565 Q 820 575 794 582 Q 772 586 701 565 Q 628 547 576 542 Q 542 536 567 521 Q 603 502 654 511 L 700 521 Z" style="fill: #0070C0;"></path>
                                                                        <path d="M 710 379 Q 759 388 802 392 Q 824 395 817 408 Q 807 423 781 429 Q 759 433 716 422 Q 713 422 712 420 C 711 420 690 415 661 409 Q 615 399 572 389 Q 556 385 575 370 Q 585 363 609 365 Q 636 369 662 373 L 710 379 Z" style="fill: #0070C0;"></path>
                                                                        <path d="M 705 272 Q 706 330 710 379 L 712 420 Q 712 451 715 483 Q 724 502 700 521 C 678 541 646 540 654 511 L 655 510 Q 658 501 661 409 L 662 373 Q 662 330 663 264 C 663 234 704 242 705 272 Z" style="fill: #0070C0;"></path>
                                                                        <path d="M 663 264 Q 602 254 530 243 Q 512 240 526 227 Q 538 215 552 212 Q 570 208 583 212 Q 676 239 859 240 Q 875 241 879 248 Q 883 258 870 268 Q 822 302 770 285 Q 742 281 705 272 L 663 264 Z" style="fill: #0070C0;"></path>
                                                                        <path d="M 488 693 Q 476 703 450 716 Q 428 729 418 720 Q 411 713 419 696 Q 438 659 441 591 Q 448 362 430 150 Q 426 108 401 70 Q 391 54 400 32 Q 407 8 419 -1 Q 429 -10 448 4 Q 509 43 602 58 Q 708 74 911 67 Q 936 66 938 78 Q 939 94 908 117 Q 892 130 771 113 Q 591 103 514 89 Q 481 85 487 138 Q 493 333 494 574 Q 493 626 499 659 C 502 684 502 684 488 693 Z" style="fill: #0070C0;"></path>
                                    
                                    
                                                                                                                                                                                                                                                                                                                                                                                                                                                                                                                                                                                                                                                                                                                                                                                                                                                                    </g>
                            </svg>