<svg width='83' height='83' >
                                <g transform="translate(3, 70) scale(0.07, -0.07)">
                                    <!-- 先将完整的字以灰色字体绘制完成，层级位于下面 -->
                                                                        <path d="M 321 523 Q 348 533 377 541 Q 413 554 418 559 Q 425 568 420 576 Q 413 588 382 592 Q 351 595 322 580 L 282 563 Q 207 533 130 519 Q 93 509 122 495 Q 167 474 222 494 Q 244 501 269 508 L 321 523 Z" style="fill: #0070C0;"></path>
                                                                        <path d="M 318 424 Q 319 472 321 523 L 322 580 Q 322 682 345 762 Q 360 787 330 807 Q 315 819 290 833 Q 268 851 247 835 Q 243 831 248 815 Q 282 764 282 713 Q 282 643 282 563 L 277 405 Q 273 326 272 240 Q 266 159 243 85 Q 233 46 256 -14 Q 263 -32 270 -35 Q 277 -41 284 -33 Q 291 -29 302 -9 Q 312 16 311 46 Q 310 89 317 390 L 318 424 Z" style="fill: #0070C0;"></path>
                                                                        <path d="M 269 508 Q 223 366 58 141 Q 52 131 64 130 Q 88 130 195 268 Q 238 325 277 405 C 343 538 279 536 269 508 Z" style="fill: #0070C0;"></path>
                                                                        <path d="M 317 390 Q 393 314 397 312 L 400 312 Q 409 311 413 321 Q 417 331 414 355 Q 410 388 321 424 Q 320 425 318 424 C 288 428 296 411 317 390 Z" style="fill: #0070C0;"></path>
                                                                        <path d="M 481 607 Q 468 616 451 620 Q 442 623 435 614 Q 432 608 440 597 Q 479 497 452 228 Q 445 188 431 145 Q 424 120 428 100 Q 437 66 448 53 Q 460 38 470 53 Q 500 86 502 265 Q 502 496 514 569 C 517 588 507 593 481 607 Z" style="fill: #0070C0;"></path>
                                                                        <path d="M 514 569 Q 515 570 522 571 Q 633 602 768 625 Q 790 631 803 618 Q 816 611 821 550 Q 837 348 827 118 Q 827 84 814 75 Q 802 63 733 68 Q 715 69 718 59 Q 719 52 734 48 Q 798 11 832 -19 Q 854 -38 867 -35 Q 879 -31 889 -2 Q 902 44 898 110 Q 868 554 888 598 Q 900 620 889 631 Q 879 646 831 669 Q 810 678 743 658 Q 613 625 481 607 C 451 603 485 561 514 569 Z" style="fill: #0070C0;"></path>
                                                                        <path d="M 569 479 Q 536 470 562 457 Q 592 442 661 459 Q 692 468 729 478 Q 747 484 749 486 Q 756 493 752 502 Q 745 512 717 516 Q 704 517 621 490 Q 597 483 569 479 Z" style="fill: #0070C0;"></path>
                                                                        <path d="M 590 354 Q 580 361 547 369 Q 537 372 533 368 Q 527 362 534 348 Q 556 299 567 219 Q 568 195 582 179 Q 597 158 602 173 Q 606 185 606 205 L 603 236 Q 596 303 594 327 C 592 353 592 353 590 354 Z" style="fill: #0070C0;"></path>
                                                                        <path d="M 739 253 Q 758 314 777 333 Q 799 357 777 370 Q 759 380 734 397 Q 718 406 672 381 Q 636 366 590 354 C 561 346 565 318 594 327 Q 621 336 678 349 Q 700 355 707 346 Q 711 340 692 258 C 685 229 730 224 739 253 Z" style="fill: #0070C0;"></path>
                                                                        <path d="M 606 205 Q 612 205 620 206 Q 660 215 749 223 Q 759 224 760 233 Q 760 240 739 253 C 727 261 722 260 692 258 Q 691 259 688 258 Q 640 245 603 236 C 574 229 576 204 606 205 Z" style="fill: #0070C0;"></path>
                                    
                                    
                                                                                                                                                                                                                                                                                                                                                                                                                                                                                                                                                                                                                                                                                                                                                                                                                                                                    </g>
                            </svg>