<svg width='83' height='83' >
                                <g transform="translate(3, 70) scale(0.07, -0.07)">
                                    <!-- 先将完整的字以灰色字体绘制完成，层级位于下面 -->
                                                                        <path d="M 320 517 Q 395 542 401 547 Q 410 556 404 564 Q 397 576 366 580 Q 341 584 321 575 L 275 556 Q 175 520 106 507 Q 69 497 98 483 Q 134 468 209 485 Q 230 492 257 498 L 320 517 Z" style="fill: #0070C0;"></path>
                                                                        <path d="M 317 423 Q 318 468 320 517 L 321 575 Q 321 684 342 756 Q 357 781 331 799 Q 315 811 286 829 Q 262 847 241 831 Q 237 827 242 810 Q 275 761 275 713 Q 276 640 276 559 Q 275 558 275 556 L 270 399 Q 267 333 267 262 Q 263 184 241 113 Q 231 76 255 10 Q 262 -8 270 -11 Q 276 -18 284 -9 Q 311 7 312 73 Q 311 113 317 394 L 317 423 Z" style="fill: #0070C0;"></path>
                                                                        <path d="M 257 498 Q 233 429 197 366 Q 157 297 62 171 Q 55 159 68 159 Q 75 158 85 167 Q 199 264 270 399 C 339 527 267 526 257 498 Z" style="fill: #0070C0;"></path>
                                                                        <path d="M 317 394 Q 323 388 333 379 Q 357 357 382 329 Q 392 317 407 317 Q 416 317 421 329 Q 425 342 420 367 Q 416 386 388 400 Q 328 427 317 423 C 290 420 296 415 317 394 Z" style="fill: #0070C0;"></path>
                                                                        <path d="M 657 626 Q 672 725 688 783 Q 691 793 674 806 Q 644 824 623 829 Q 610 832 602 825 Q 595 818 602 805 Q 620 781 618 617 C 618 587 652 596 657 626 Z" style="fill: #0070C0;"></path>
                                                                        <path d="M 778 645 Q 714 638 657 626 L 618 617 Q 572 608 533 595 Q 515 591 520 612 Q 529 672 520 684 Q 490 718 468 714 Q 458 710 465 693 Q 480 660 475 626 Q 471 595 458 579 Q 442 564 449 552 Q 459 539 474 530 Q 486 523 494 530 Q 531 575 726 608 Q 760 614 770 610 C 800 607 808 648 778 645 Z" style="fill: #0070C0;"></path>
                                                                        <path d="M 770 610 Q 771 586 778 569 Q 784 553 796 563 Q 820 582 833 656 Q 851 698 856 702 Q 865 714 857 727 Q 842 743 815 763 Q 805 770 793 767 Q 786 764 787 752 Q 797 742 794 693 Q 788 665 778 645 L 770 610 Z" style="fill: #0070C0;"></path>
                                                                        <path d="M 740 385 Q 761 440 787 456 Q 802 475 788 491 Q 713 545 665 513 Q 584 482 503 467 Q 487 466 489 456 Q 492 449 510 443 Q 535 434 567 447 Q 625 460 679 474 Q 694 478 700 472 Q 709 463 690 385 C 683 356 729 357 740 385 Z" style="fill: #0070C0;"></path>
                                                                        <path d="M 531 304 Q 708 340 761 347 Q 771 348 773 358 Q 773 367 740 385 C 722 395 719 394 690 385 Q 605 358 532 342 C 503 335 502 298 531 304 Z" style="fill: #0070C0;"></path>
                                                                        <path d="M 928 116 Q 913 149 893 249 Q 892 265 885 270 Q 878 273 874 255 Q 849 149 831 115 Q 792 70 659 73 Q 610 74 571 89 Q 537 105 528 125 Q 507 170 531 304 L 532 342 Q 528 357 490 371 Q 477 375 468 370 Q 461 366 466 348 Q 479 308 476 269 Q 469 142 479 105 Q 483 78 509 56 Q 600 -13 797 20 Q 812 24 827 28 Q 875 41 922 73 Q 943 89 928 116 Z" style="fill: #0070C0;"></path>
                                    
                                    
                                                                                                                                                                                                                                                                                                                                                                                                                                                                                                                                                                                                                                                                                                                                                                                                                                                                    </g>
                            </svg>