<svg width='83' height='83' >
                                <g transform="translate(3, 70) scale(0.07, -0.07)">
                                    <!-- 先将完整的字以灰色字体绘制完成，层级位于下面 -->
                                                                        <path d="M 312 530 Q 397 557 400 559 Q 409 568 404 576 Q 395 588 366 594 Q 338 598 314 588 L 267 570 Q 189 542 88 527 Q 51 518 78 503 Q 123 479 179 497 Q 210 506 243 512 L 312 530 Z" style="fill: #0070C0;"></path>
                                                                        <path d="M 310 439 Q 310 482 312 530 L 314 588 Q 317 676 334 735 Q 343 751 340 764 Q 333 774 278 809 Q 254 827 233 811 Q 229 807 234 790 Q 265 742 266 695 Q 266 637 267 570 L 263 427 Q 259 345 259 254 Q 255 178 233 109 Q 223 70 247 7 Q 254 -12 262 -15 Q 268 -22 276 -13 Q 303 3 304 69 Q 303 109 309 406 L 310 439 Z" style="fill: #0070C0;"></path>
                                                                        <path d="M 243 512 Q 198 383 45 170 Q 39 160 52 159 Q 59 158 68 168 Q 191 279 263 427 C 320 541 254 543 243 512 Z" style="fill: #0070C0;"></path>
                                                                        <path d="M 309 406 Q 313 402 321 395 Q 349 370 378 338 Q 388 326 403 326 Q 412 325 417 337 Q 421 350 416 375 Q 412 396 382 412 Q 322 439 310 439 C 280 443 287 427 309 406 Z" style="fill: #0070C0;"></path>
                                                                        <path d="M 503 602 Q 525 629 548 663 Q 561 688 575 699 Q 582 708 579 719 Q 575 729 552 748 Q 530 763 514 762 Q 499 761 506 743 Q 519 713 464 618 Q 439 575 401 525 Q 394 518 391 512 Q 388 502 400 505 Q 424 508 482 578 L 503 602 Z" style="fill: #0070C0;"></path>
                                                                        <path d="M 482 578 Q 500 536 478 428 Q 468 395 498 354 L 499 353 Q 512 341 521 361 Q 531 392 532 428 Q 531 522 534 544 Q 540 563 532 572 Q 528 578 503 602 C 481 623 472 606 482 578 Z" style="fill: #0070C0;"></path>
                                                                        <path d="M 636 563 Q 608 541 577 513 Q 570 506 575 499 Q 581 496 637 532 L 678 559 Q 790 637 856 669 Q 875 672 872 684 Q 868 700 850 722 Q 832 743 810 747 Q 794 748 793 729 Q 794 714 783 699 Q 741 656 678 599 L 636 563 Z" style="fill: #0070C0;"></path>
                                                                        <path d="M 637 532 Q 638 445 669 420 Q 708 389 845 387 Q 908 388 933 400 Q 963 416 949 447 Q 931 481 915 543 Q 912 558 905 562 Q 898 566 895 547 Q 883 472 872 459 Q 857 438 773 437 Q 730 438 711 446 Q 695 455 691 465 Q 681 493 678 559 L 678 599 Q 682 681 699 721 Q 711 749 693 766 Q 644 803 630 798 Q 615 792 623 776 Q 642 740 638 688 Q 637 615 636 563 L 637 532 Z" style="fill: #0070C0;"></path>
                                                                        <path d="M 664 241 Q 739 251 899 251 Q 918 252 924 260 Q 928 272 912 286 Q 852 328 796 309 Q 741 299 665 284 L 607 274 Q 507 261 392 242 Q 371 241 387 223 Q 420 193 466 207 Q 532 225 608 234 L 664 241 Z" style="fill: #0070C0;"></path>
                                                                        <path d="M 611 -28 Q 615 -52 622 -61 Q 628 -68 635 -66 Q 659 -51 661 143 Q 661 180 664 241 L 665 284 Q 665 287 666 289 Q 667 305 669 316 Q 672 329 674 341 Q 677 357 664 367 Q 633 388 619 390 Q 607 394 592 387 Q 583 380 590 369 Q 605 348 607 274 L 608 234 Q 608 2 611 -28 Z" style="fill: #0070C0;"></path>
                                    
                                    
                                                                                                                                                                                                                                                                                                                                                                                                                                                                                                                                                                                                                                                                                                                                                                                                                                                                    </g>
                            </svg>