<svg width='83' height='83' >
                                <g transform="translate(3, 70) scale(0.07, -0.07)">
                                    <!-- 先将完整的字以灰色字体绘制完成，层级位于下面 -->
                                                                        <path d="M 321 509 Q 340 516 363 521 Q 403 533 409 539 Q 418 548 412 556 Q 405 568 374 573 Q 349 577 324 568 L 277 548 Q 184 518 99 503 Q 62 494 90 479 Q 132 457 199 477 Q 224 486 257 491 L 321 509 Z" style="fill: #0070C0;"></path>
                                                                        <path d="M 316 365 Q 317 431 321 509 L 324 568 Q 325 661 345 723 Q 355 739 352 752 Q 345 762 290 798 Q 266 814 245 800 Q 241 796 246 779 Q 277 731 277 684 Q 277 620 277 548 L 271 399 Q 267 326 266 245 Q 260 170 239 101 Q 227 59 252 -1 Q 258 -19 266 -23 Q 272 -30 280 -21 Q 307 -3 309 60 Q 308 96 315 329 L 316 365 Z" style="fill: #0070C0;"></path>
                                                                        <path d="M 257 491 Q 199 347 38 143 Q 31 131 44 131 Q 51 130 61 139 Q 193 250 271 399 C 335 519 268 519 257 491 Z" style="fill: #0070C0;"></path>
                                                                        <path d="M 315 329 L 316 329 Q 343 307 370 280 Q 380 270 393 270 Q 402 270 405 281 Q 409 291 402 315 Q 398 333 371 347 Q 344 357 316 365 C 287 373 289 344 315 329 Z" style="fill: #0070C0;"></path>
                                                                        <path d="M 635 671 Q 647 696 657 709 Q 664 715 661 725 Q 658 735 644 746 Q 608 773 575 763 Q 566 759 570 747 Q 595 675 487 512 Q 484 509 483 506 Q 452 461 372 372 Q 365 366 375 364 Q 435 374 538 505 Q 601 607 622 645 L 635 671 Z" style="fill: #0070C0;"></path>
                                                                        <path d="M 622 645 Q 698 533 798 414 Q 816 395 846 395 Q 949 396 981 402 Q 991 403 992 409 Q 993 413 979 421 Q 840 472 758 548 Q 700 603 635 671 C 614 693 605 670 622 645 Z" style="fill: #0070C0;"></path>
                                                                        <path d="M 500 399 Q 463 390 490 375 Q 535 351 591 369 Q 646 382 703 396 Q 728 403 732 407 Q 741 416 736 424 Q 729 436 698 442 Q 667 446 637 432 Q 607 422 576 413 Q 542 404 500 399 Z" style="fill: #0070C0;"></path>
                                                                        <path d="M 589 249 Q 646 264 795 269 Q 841 269 849 279 Q 853 291 837 303 Q 783 340 720 318 Q 620 294 415 257 Q 396 254 410 239 Q 437 215 495 230 Q 514 236 536 239 L 589 249 Z" style="fill: #0070C0;"></path>
                                                                        <path d="M 749 108 Q 641 95 526 70 Q 513 66 510 70 Q 509 73 514 80 Q 601 180 619 198 Q 632 208 626 221 Q 622 231 589 249 C 563 264 531 269 536 239 L 537 237 Q 549 191 496 127 Q 471 93 420 60 Q 405 48 408 37 Q 412 19 438 -2 Q 448 -14 463 -3 Q 515 36 759 82 Q 760 83 765 83 C 795 88 779 112 749 108 Z" style="fill: #0070C0;"></path>
                                                                        <path d="M 765 83 Q 817 1 824 -3 Q 831 -6 841 2 Q 856 12 853 57 Q 853 115 706 213 Q 699 220 694 208 Q 691 195 699 183 Q 723 150 749 108 L 765 83 Z" style="fill: #0070C0;"></path>
                                    
                                    
                                                                                                                                                                                                                                                                                                                                                                                                                                                                                                                                                                                                                                                                                                                                                                                                                                                                    </g>
                            </svg>