<svg width='83' height='83' >
                                <g transform="translate(3, 70) scale(0.07, -0.07)">
                                    <!-- 先将完整的字以灰色字体绘制完成，层级位于下面 -->
                                                                        <path d="M 319 519 Q 409 543 416 549 Q 423 556 419 565 Q 412 575 384 582 Q 338 588 320 571 L 276 555 Q 180 528 100 516 Q 64 509 90 494 Q 129 475 208 493 Q 230 499 255 504 L 319 519 Z" style="fill: #0070C0;"></path>
                                                                        <path d="M 317 442 Q 317 479 319 519 L 320 571 Q 320 670 342 744 Q 357 769 331 787 Q 315 799 286 817 Q 262 835 241 819 Q 237 815 242 798 Q 275 749 275 699 Q 275 632 276 555 L 272 420 Q 268 335 268 243 Q 262 165 241 93 Q 231 56 255 -10 Q 262 -28 270 -31 Q 276 -38 284 -29 Q 311 -13 312 53 Q 311 95 316 413 L 317 442 Z" style="fill: #0070C0;"></path>
                                                                        <path d="M 255 504 Q 209 375 62 174 Q 56 164 68 163 Q 74 162 84 171 Q 201 276 272 420 C 328 531 265 532 255 504 Z" style="fill: #0070C0;"></path>
                                                                        <path d="M 316 413 Q 322 410 385 346 Q 394 336 405 336 Q 412 335 418 345 Q 422 355 417 377 Q 410 411 324 440 Q 320 441 317 442 C 288 451 292 431 316 413 Z" style="fill: #0070C0;"></path>
                                                                        <path d="M 639 756 Q 588 714 461 659 Q 457 650 461 648 Q 510 648 644 701 Q 668 717 729 728 Q 744 729 748 735 Q 751 745 741 755 Q 684 794 658 791 Q 649 775 639 756 Z" style="fill: #0070C0;"></path>
                                                                        <path d="M 443 571 Q 464 547 485 518 Q 494 505 507 504 Q 516 503 521 513 Q 527 523 524 549 Q 523 567 498 584 Q 441 620 428 615 Q 424 612 423 601 Q 424 592 443 571 Z" style="fill: #0070C0;"></path>
                                                                        <path d="M 553 615 Q 595 555 615 551 Q 627 550 634 564 Q 635 576 629 594 Q 622 609 602 618 Q 572 634 559 638 Q 552 641 549 631 Q 548 624 553 615 Z" style="fill: #0070C0;"></path>
                                                                        <path d="M 744 644 Q 738 635 667 549 Q 657 534 673 537 Q 781 609 820 626 Q 839 635 831 651 Q 819 667 796 680 Q 774 693 763 691 Q 751 690 755 678 Q 756 660 744 644 Z" style="fill: #0070C0;"></path>
                                                                        <path d="M 642 341 Q 754 425 779 430 Q 798 437 792 452 Q 789 468 726 503 Q 708 513 686 505 Q 628 484 541 459 Q 519 452 463 454 Q 441 454 448 435 Q 455 423 474 412 Q 504 396 535 415 Q 556 422 662 461 Q 674 467 685 460 Q 697 453 692 440 Q 664 400 629 350 C 612 325 618 323 642 341 Z" style="fill: #0070C0;"></path>
                                                                        <path d="M 672 293 Q 662 329 642 341 L 629 350 Q 622 354 614 358 Q 593 365 584 360 Q 571 354 584 341 Q 612 319 621 285 L 629 250 Q 653 133 616 50 Q 603 34 577 42 Q 537 61 500 80 Q 490 84 492 74 Q 496 64 517 47 Q 560 2 573 -31 Q 580 -49 597 -48 Q 610 -48 637 -25 Q 697 23 690 177 Q 687 222 681 256 L 672 293 Z" style="fill: #0070C0;"></path>
                                                                        <path d="M 681 256 Q 768 265 935 265 Q 954 265 959 274 Q 965 284 948 298 Q 897 335 861 327 Q 789 312 672 293 L 621 285 Q 509 272 380 253 Q 359 252 375 235 Q 388 222 406 216 Q 425 212 442 216 Q 526 238 621 250 Q 624 251 629 250 L 681 256 Z" style="fill: #0070C0;"></path>
                                    
                                    
                                                                                                                                                                                                                                                                                                                                                                                                                                                                                                                                                                                                                                                                                                                                                                                                                                                                                                                                                </g>
                            </svg>