<svg width='83' height='83' >
                                <g transform="translate(3, 70) scale(0.07, -0.07)">
                                    <!-- 先将完整的字以灰色字体绘制完成，层级位于下面 -->
                                                                        <path d="M 332 544 Q 357 551 386 557 Q 426 567 431 573 Q 440 580 435 589 Q 428 599 400 606 Q 367 612 333 596 L 284 579 Q 152 552 128 548 Q 94 541 119 526 Q 155 505 224 521 Q 245 527 268 529 L 332 544 Z" style="fill: #0070C0;"></path>
                                                                        <path d="M 330 469 Q 331 505 332 544 L 333 596 Q 334 687 351 748 Q 360 763 357 777 Q 350 787 294 821 Q 270 837 249 822 Q 245 818 250 802 Q 281 756 282 711 Q 283 650 284 579 L 281 439 Q 278 247 267 194 Q 245 113 266 59 Q 267 53 271 46 Q 278 28 286 25 Q 292 18 300 27 Q 307 31 318 52 Q 328 77 327 109 Q 326 148 330 432 L 330 469 Z" style="fill: #0070C0;"></path>
                                                                        <path d="M 268 529 Q 244 459 209 397 Q 169 327 74 201 Q 68 191 80 190 Q 104 190 201 310 Q 244 364 281 439 C 340 556 278 557 268 529 Z" style="fill: #0070C0;"></path>
                                                                        <path d="M 330 432 Q 369 383 390 382 Q 403 381 409 397 Q 410 409 402 428 Q 387 453 330 469 C 301 477 311 455 330 432 Z" style="fill: #0070C0;"></path>
                                                                        <path d="M 596 788 Q 615 769 637 747 Q 652 734 668 734 Q 680 735 685 749 Q 689 764 680 795 Q 671 822 591 838 Q 575 842 568 839 Q 562 835 564 821 Q 568 811 596 788 Z" style="fill: #0070C0;"></path>
                                                                        <path d="M 517 678 Q 483 672 507 657 Q 543 633 596 646 Q 681 662 772 680 Q 812 689 819 694 Q 826 701 823 709 Q 816 719 790 727 Q 766 731 664 702 Q 574 683 517 678 Z" style="fill: #0070C0;"></path>
                                                                        <path d="M 518 570 Q 548 504 570 497 Q 582 493 591 508 Q 595 520 591 540 Q 587 556 568 567 Q 540 588 528 593 Q 521 596 517 586 Q 513 579 518 570 Z" style="fill: #0070C0;"></path>
                                                                        <path d="M 688 474 Q 727 522 768 572 Q 783 582 776 593 Q 769 611 742 632 Q 730 644 713 640 Q 703 636 707 625 Q 714 594 661 490 Q 654 478 651 468 C 641 440 669 451 688 474 Z" style="fill: #0070C0;"></path>
                                                                        <path d="M 648 431 Q 647 432 649 432 Q 748 447 909 448 Q 927 449 931 457 Q 935 467 921 479 Q 870 518 806 497 Q 757 488 688 474 L 651 468 Q 554 452 443 436 Q 424 435 438 419 Q 451 407 467 402 Q 486 398 500 402 Q 543 415 591 423 L 648 431 Z" style="fill: #0070C0;"></path>
                                                                        <path d="M 670 272 Q 728 281 834 280 Q 852 281 856 289 Q 860 299 845 311 Q 791 348 737 330 Q 707 324 671 315 L 612 304 Q 542 294 466 280 Q 448 279 462 263 Q 475 251 491 247 Q 510 243 524 247 Q 564 259 612 265 L 670 272 Z" style="fill: #0070C0;"></path>
                                                                        <path d="M 618 -15 Q 624 -40 630 -49 Q 636 -56 643 -54 Q 661 -42 664 13 Q 670 65 669 118 Q 668 155 670 272 L 671 315 Q 671 355 680 391 Q 683 409 669 418 Q 657 425 648 431 C 623 447 579 451 591 423 Q 610 384 611 322 Q 611 315 612 304 L 612 265 Q 613 198 613 114 Q 614 17 618 -15 Z" style="fill: #0070C0;"></path>
                                    
                                    
                                                                                                                                                                                                                                                                                                                                                                                                                                                                                                                                                                                                                                                                                                                                                                                                                                                                                                                                                </g>
                            </svg>