<svg width='83' height='83' >
                                <g transform="translate(3, 70) scale(0.07, -0.07)">
                                    <!-- 先将完整的字以灰色字体绘制完成，层级位于下面 -->
                                                                        <path d="M 319 519 Q 413 546 421 549 Q 425 554 426 559 Q 427 576 388 585 Q 339 592 321 575 L 274 559 Q 171 532 110 523 Q 73 516 100 500 Q 133 486 184 492 L 254 504 L 319 519 Z" style="fill: #0070C0;"></path>
                                                                        <path d="M 270 419 Q 264 215 249 151 Q 234 92 240 53 Q 241 41 252 12 Q 259 -8 267 -12 Q 273 -19 280 -9 Q 284 -8 288 -2 Q 310 24 310 73 Q 308 102 316 413 L 316 441 L 319 519 L 321 575 Q 321 648 332 703 L 345 755 Q 350 774 341 785 Q 333 796 287 823 Q 263 842 242 826 Q 241 825 240 822 Q 238 815 251 792 Q 274 746 274 709 L 274 559 L 270 419 Z" style="fill: #0070C0;"></path>
                                                                        <path d="M 254 504 Q 212 384 67 182 Q 61 172 73 172 Q 78 171 88 180 Q 204 284 270 419 C 326 531 264 532 254 504 Z" style="fill: #0070C0;"></path>
                                                                        <path d="M 316 413 Q 318 410 321 407 Q 357 376 381 349 Q 392 339 406 339 Q 408 339 409 339 Q 427 345 416 386 Q 412 405 385 418 Q 333 440 316 441 C 292 444 298 437 316 413 Z" style="fill: #0070C0;"></path>
                                                                        <path d="M 654 606 Q 787 638 791 642 Q 800 649 795 657 Q 788 666 761 674 Q 735 678 658 651 L 610 638 Q 557 627 514 622 Q 482 615 505 602 Q 539 582 581 591 Q 606 597 612 596 L 654 606 Z" style="fill: #0070C0;"></path>
                                                                        <path d="M 470 514 Q 472 508 480 497 Q 512 456 526 435 Q 535 425 543 422 Q 557 417 563 431 Q 570 442 566 468 Q 566 469 565 470 Q 562 490 517 514 Q 484 529 476 527 Q 472 525 470 514 Z" style="fill: #0070C0;"></path>
                                                                        <path d="M 741 564 Q 741 554 739 545 Q 731 527 682 465 Q 678 457 682 452 Q 690 451 708 463 Q 760 497 800 518 Q 827 526 790 564 Q 772 578 754 582 Q 741 580 741 564 Z" style="fill: #0070C0;"></path>
                                                                        <path d="M 656 353 Q 723 365 845 368 Q 897 368 902 377 Q 906 390 891 402 Q 831 439 789 422 L 651 392 L 610 384 Q 544 374 449 358 Q 439 356 439 351 Q 437 341 457 331 Q 484 315 511 323 Q 542 334 581 339 L 656 353 Z" style="fill: #0070C0;"></path>
                                                                        <path d="M 608 289 Q 608 204 594 135 Q 584 84 582 78 Q 578 43 599 -4 Q 606 -22 613 -24 Q 619 -31 626 -22 Q 629 -21 634 -15 Q 653 12 651 55 Q 650 88 651 312 L 651 392 L 653 564 Q 653 592 654 606 L 658 651 Q 662 699 672 729 Q 678 743 676 751 Q 669 760 617 792 Q 594 808 574 794 Q 572 792 572 790 Q 571 784 584 762 Q 609 717 610 678 Q 610 665 610 638 L 612 596 Q 612 418 610 384 L 608 289 Z" style="fill: #0070C0;"></path>
                                                                        <path d="M 581 339 Q 523 216 347 72 Q 335 59 344 59 Q 352 55 364 60 Q 480 111 586 259 L 608 289 C 654 351 599 375 581 339 Z" style="fill: #0070C0;"></path>
                                                                        <path d="M 651 312 Q 787 73 829 68 L 934 73 Q 956 74 957 77 Q 958 79 955 82 Q 949 89 899 117 Q 812 163 780 197 Q 697 290 656 353 C 639 378 623 361 651 312 Z" style="fill: #0070C0;"></path>
                                    
                                    
                                                                                                                                                                                                                                                                                                                                                                                                                                                                                                                                                                                                                                                                                                                                                                                                                                                                                                                                                </g>
                            </svg>