<svg width='83' height='83' >
                                <g transform="translate(3, 70) scale(0.07, -0.07)">
                                    <!-- 先将完整的字以灰色字体绘制完成，层级位于下面 -->
                                                                        <path d="M 525 624 Q 534 708 554 806 Q 558 816 539 830 Q 508 848 486 852 Q 471 856 464 848 Q 457 841 464 827 Q 477 809 478 797 Q 485 715 485 618 C 485 588 522 594 525 624 Z" style="fill: #0070C0;"></path>
                                                                        <path d="M 328 716 Q 385 644 412 641 Q 425 640 433 659 Q 434 672 425 694 Q 415 712 389 722 Q 350 741 333 744 Q 323 745 322 734 Q 321 725 328 716 Z" style="fill: #0070C0;"></path>
                                                                        <path d="M 642 761 Q 627 739 579 689 Q 569 674 585 676 Q 687 727 717 737 Q 736 744 729 761 Q 719 777 696 793 Q 677 808 664 806 Q 652 806 655 794 Q 656 776 642 761 Z" style="fill: #0070C0;"></path>
                                                                        <path d="M 262 585 Q 262 606 239 623 Q 221 636 219 612 Q 225 587 186 536 Q 143 494 170 437 L 171 435 Q 184 410 204 436 Q 211 448 255 555 L 262 585 Z" style="fill: #0070C0;"></path>
                                                                        <path d="M 255 555 Q 277 543 311 553 Q 452 596 691 620 Q 743 626 761 623 Q 777 613 775 605 Q 762 563 747 518 L 749 517 Q 756 513 771 525 Q 822 562 864 575 Q 898 588 898 595 Q 897 605 827 653 Q 805 671 675 647 Q 606 638 525 624 L 485 618 Q 430 611 368 600 Q 314 591 262 585 C 232 581 226 563 255 555 Z" style="fill: #0070C0;"></path>
                                                                        <path d="M 365 510 Q 358 511 349 511 Q 337 514 335 508 Q 329 502 338 487 Q 363 447 382 379 Q 386 358 400 346 Q 419 327 422 342 Q 423 349 424 359 L 420 390 Q 405 459 403 479 C 400 506 395 507 365 510 Z" style="fill: #0070C0;"></path>
                                                                        <path d="M 620 416 Q 642 470 666 483 Q 681 499 668 516 Q 599 571 554 544 Q 431 502 365 510 C 335 512 374 472 403 479 Q 404 480 556 510 Q 574 514 581 507 Q 590 498 571 420 C 564 391 608 388 620 416 Z" style="fill: #0070C0;"></path>
                                                                        <path d="M 506 371 Q 555 378 632 384 Q 642 385 643 393 Q 643 400 620 416 C 604 427 600 426 571 420 Q 484 401 420 390 C 390 385 394 360 424 359 Q 430 358 440 360 Q 450 363 467 365 L 506 371 Z" style="fill: #0070C0;"></path>
                                                                        <path d="M 536 260 Q 620 272 738 272 Q 796 272 803 281 Q 807 291 793 303 Q 748 337 712 329 Q 642 313 527 293 L 477 285 Q 366 270 239 252 Q 220 251 234 235 Q 247 222 263 218 Q 282 214 296 218 Q 365 239 442 248 L 536 260 Z" style="fill: #0070C0;"></path>
                                                                        <path d="M 527 293 Q 528 323 531 338 Q 534 350 526 355 Q 516 365 506 371 C 482 388 460 394 467 365 Q 471 358 477 285 L 477 207 Q 477 89 464 42 Q 455 2 497 -56 Q 501 -63 508 -66 Q 518 -67 524 -54 Q 536 -23 532 6 Q 526 141 527 232 L 527 293 Z" style="fill: #0070C0;"></path>
                                                                        <path d="M 442 248 Q 349 128 154 26 Q 139 16 148 13 Q 155 7 169 10 Q 293 34 431 162 Q 474 202 475 205 Q 476 206 477 207 C 520 254 473 287 442 248 Z" style="fill: #0070C0;"></path>
                                                                        <path d="M 527 232 Q 618 129 716 34 Q 738 10 778 9 Q 850 5 924 20 Q 943 21 945 27 Q 948 34 932 40 Q 739 113 735 116 Q 678 144 539 258 Q 536 259 536 260 C 512 278 502 260 527 232 Z" style="fill: #0070C0;"></path>
                                    
                                    
                                                                                                                                                                                                                                                                                                                                                                                                                                                                                                                                                                                                                                                                                                                                                                                                                                                                                                                                                                                                                            </g>
                            </svg>