<svg width='83' height='83' >
                                <g transform="translate(3, 70) scale(0.07, -0.07)">
                                    <!-- 先将完整的字以灰色字体绘制完成，层级位于下面 -->
                                                                        <path d="M 318 515 Q 337 522 360 527 Q 396 537 401 543 Q 410 552 404 560 Q 397 572 366 577 Q 341 581 319 572 L 276 554 Q 192 524 115 511 Q 78 502 106 487 Q 148 469 226 489 Q 241 493 259 498 L 318 515 Z" style="fill: #0070C0;"></path>
                                                                        <path d="M 316 453 Q 316 484 318 515 L 319 572 Q 319 575 320 577 Q 321 673 341 738 Q 350 753 347 766 Q 340 776 286 809 Q 264 827 243 811 Q 239 807 244 791 Q 275 743 276 694 Q 276 630 276 554 L 271 404 Q 264 208 256 168 Q 250 135 240 101 Q 227 59 253 2 Q 259 -16 267 -19 Q 273 -25 280 -17 Q 287 -13 298 7 Q 308 32 307 62 Q 307 104 315 423 L 316 453 Z" style="fill: #0070C0;"></path>
                                                                        <path d="M 259 498 Q 211 366 46 146 Q 40 136 52 135 Q 58 134 68 143 Q 192 251 271 404 C 335 526 270 526 259 498 Z" style="fill: #0070C0;"></path>
                                                                        <path d="M 315 423 Q 316 423 369 370 Q 378 360 389 359 Q 396 359 402 369 Q 406 379 401 401 Q 394 429 320 453 Q 317 454 316 453 C 286 453 292 443 315 423 Z" style="fill: #0070C0;"></path>
                                                                        <path d="M 630 626 Q 664 635 704 642 Q 738 649 743 654 Q 750 661 747 669 Q 740 679 714 686 Q 683 692 634 672 L 580 657 Q 534 648 480 642 Q 446 636 471 621 Q 510 600 580 616 L 581 616 L 630 626 Z" style="fill: #0070C0;"></path>
                                                                        <path d="M 621 538 Q 625 584 630 626 L 634 672 Q 637 727 652 769 Q 655 779 636 793 Q 603 812 581 816 Q 565 819 558 811 Q 551 804 558 790 Q 574 768 575 751 Q 578 706 580 657 L 581 616 Q 581 576 581 531 C 581 501 618 508 621 538 Z" style="fill: #0070C0;"></path>
                                                                        <path d="M 581 531 Q 502 519 411 504 Q 392 503 406 487 Q 419 475 435 471 Q 454 467 468 471 Q 609 511 834 512 Q 852 513 856 521 Q 860 531 845 543 Q 796 576 741 563 Q 692 553 621 538 L 581 531 Z" style="fill: #0070C0;"></path>
                                                                        <path d="M 463 435 Q 469 399 414 344 Q 399 328 362 297 Q 355 293 363 291 Q 369 288 410 306 Q 450 327 510 388 Q 514 392 518 395 Q 524 398 524 406 Q 520 427 492 440 Q 477 447 469 446 Q 462 445 463 435 Z" style="fill: #0070C0;"></path>
                                                                        <path d="M 690 434 Q 735 400 790 348 Q 806 332 819 329 Q 826 329 833 338 Q 843 351 828 388 Q 809 436 688 461 Q 679 465 679 454 Q 679 442 690 434 Z" style="fill: #0070C0;"></path>
                                                                        <path d="M 580 318 Q 596 346 596 350 Q 592 360 568 366 Q 543 373 532 369 Q 525 368 524 355 Q 512 276 347 119 Q 331 104 354 110 Q 409 120 503 222 L 519 239 Q 528 251 556 288 L 580 318 Z" style="fill: #0070C0;"></path>
                                                                        <path d="M 658 131 Q 689 177 719 242 Q 734 267 755 284 Q 774 297 763 312 Q 753 325 723 339 Q 701 348 673 337 Q 651 330 622 324 Q 603 321 580 318 C 550 314 526 292 556 288 Q 584 282 618 288 Q 646 300 652 300 Q 674 293 664 270 Q 648 209 620 164 L 598 133 Q 534 55 381 15 Q 368 12 378 3 Q 384 -1 428 1 Q 542 10 630 97 L 658 131 Z" style="fill: #0070C0;"></path>
                                                                        <path d="M 630 97 Q 631 96 634 92 Q 733 -25 787 -26 Q 856 -26 916 -17 Q 949 -13 946 -4 Q 945 2 799 48 Q 795 51 792 51 Q 725 75 658 131 L 620 164 Q 599 183 578 205 Q 547 236 519 239 C 490 246 478 238 503 222 Q 536 204 598 133 L 630 97 Z" style="fill: #0070C0;"></path>
                                    
                                    
                                                                                                                                                                                                                                                                                                                                                                                                                                                                                                                                                                                                                                                                                                                                                                                                                                                                                                                                                                                                                            </g>
                            </svg>