<svg width='83' height='83' >
                                <g transform="translate(3, 70) scale(0.07, -0.07)">
                                    <!-- 先将完整的字以灰色字体绘制完成，层级位于下面 -->
                                                                        <path d="M 311 513 Q 381 532 389 539 Q 398 548 392 556 Q 385 568 354 573 Q 332 577 312 570 L 269 554 Q 173 521 103 511 Q 66 502 94 487 Q 130 468 204 485 Q 222 491 246 495 L 311 513 Z" style="fill: #0070C0;"></path>
                                                                        <path d="M 308 382 Q 309 443 311 513 L 312 570 Q 312 669 333 738 Q 348 763 318 783 Q 303 795 278 809 Q 256 825 235 811 Q 231 807 236 791 Q 269 743 269 694 Q 269 630 269 554 L 265 414 Q 261 335 261 248 Q 257 172 235 101 Q 223 58 249 2 Q 255 -16 263 -19 Q 269 -25 276 -17 Q 283 -13 294 7 Q 304 32 303 62 Q 302 99 307 357 L 308 382 Z" style="fill: #0070C0;"></path>
                                                                        <path d="M 246 495 Q 201 366 49 153 Q 45 143 56 143 Q 62 142 71 151 Q 195 265 265 414 C 318 524 257 524 246 495 Z" style="fill: #0070C0;"></path>
                                                                        <path d="M 307 357 Q 311 353 319 347 Q 344 325 373 299 Q 383 290 394 291 Q 401 291 406 301 Q 409 311 403 333 Q 399 349 372 363 Q 315 385 308 382 C 282 380 285 377 307 357 Z" style="fill: #0070C0;"></path>
                                                                        <path d="M 466 691 Q 456 697 431 700 Q 419 703 417 699 Q 411 693 418 679 Q 449 610 465 499 Q 466 465 486 442 Q 502 423 506 437 Q 507 444 509 453 L 510 477 Q 509 492 506 510 Q 485 619 480 657 C 476 687 476 687 466 691 Z" style="fill: #0070C0;"></path>
                                                                        <path d="M 715 478 Q 722 460 736 461 Q 749 464 757 479 Q 769 495 789 580 Q 804 634 840 665 Q 859 681 842 697 Q 823 713 771 739 Q 758 748 696 733 Q 663 730 466 691 C 437 685 452 647 480 657 Q 499 667 581 679 L 616 685 Q 722 703 737 693 Q 747 687 743 655 Q 728 535 716 508 C 709 486 709 486 715 478 Z" style="fill: #0070C0;"></path>
                                                                        <path d="M 635 573 Q 662 579 688 582 Q 709 586 701 597 Q 691 610 669 613 Q 654 614 635 609 L 589 596 Q 552 586 522 575 Q 507 572 526 559 Q 533 553 550 557 Q 569 561 589 564 L 635 573 Z" style="fill: #0070C0;"></path>
                                                                        <path d="M 634 469 Q 676 476 715 478 C 745 480 745 500 716 508 Q 680 520 634 502 L 589 493 Q 549 486 510 477 C 481 470 479 455 509 453 Q 518 452 531 453 Q 561 459 590 462 L 634 469 Z" style="fill: #0070C0;"></path>
                                                                        <path d="M 638 353 Q 710 365 893 365 Q 911 365 915 373 Q 919 383 905 395 Q 859 431 825 422 Q 758 407 641 390 Q 637 390 633 388 L 589 382 Q 505 372 415 360 Q 396 359 410 343 Q 423 330 439 326 Q 458 322 472 325 Q 514 337 561 343 L 638 353 Z" style="fill: #0070C0;"></path>
                                                                        <path d="M 633 388 Q 634 428 634 469 L 634 502 Q 635 530 635 560 Q 635 567 635 573 L 635 609 Q 635 649 638 656 Q 641 666 632 674 Q 625 680 616 685 C 592 703 573 708 581 679 Q 588 667 588 644 Q 588 622 589 596 L 589 564 Q 589 530 589 493 L 590 462 Q 590 423 589 382 L 587 289 Q 587 118 575 37 Q 572 -2 596 -34 Q 606 -47 617 -31 Q 635 2 635 67 Q 634 98 633 317 L 633 388 Z" style="fill: #0070C0;"></path>
                                                                        <path d="M 561 343 Q 501 217 339 86 Q 327 74 336 73 Q 345 69 356 74 Q 462 116 587 289 C 634 354 578 377 561 343 Z" style="fill: #0070C0;"></path>
                                                                        <path d="M 633 317 Q 700 218 788 114 Q 804 95 833 96 Q 930 97 962 102 Q 971 105 972 109 Q 973 113 960 121 Q 825 170 741 250 Q 692 296 638 353 C 617 375 605 358 633 317 Z" style="fill: #0070C0;"></path>
                                    
                                    
                                                                                                                                                                                                                                                                                                                                                                                                                                                                                                                                                                                                                                                                                                                                                                                                                                                                                                                                                                                                                            </g>
                            </svg>