<svg width='83' height='83' >
                                <g transform="translate(3, 70) scale(0.07, -0.07)">
                                    <!-- 先将完整的字以灰色字体绘制完成，层级位于下面 -->
                                                                        <path d="M 320 549 Q 402 571 408 577 Q 417 584 412 593 Q 405 603 376 610 Q 346 614 320 601 L 271 584 Q 162 556 115 548 Q 81 541 106 526 Q 148 508 211 523 Q 232 529 256 532 L 320 549 Z" style="fill: #0070C0;"></path>
                                                                        <path d="M 318 463 Q 319 505 320 549 L 320 601 Q 320 602 321 603 Q 322 691 339 752 Q 348 767 345 781 Q 338 791 282 825 Q 258 841 237 826 Q 233 822 238 806 Q 269 761 269 716 Q 270 655 271 584 L 269 452 Q 266 260 253 200 Q 232 127 256 68 Q 257 67 259 62 Q 266 44 274 41 Q 280 34 288 43 Q 295 47 306 68 Q 316 93 315 125 Q 314 162 318 434 L 318 463 Z" style="fill: #0070C0;"></path>
                                                                        <path d="M 256 532 Q 211 418 59 229 Q 53 219 64 218 Q 70 217 79 225 Q 193 315 269 452 C 327 554 267 560 256 532 Z" style="fill: #0070C0;"></path>
                                                                        <path d="M 318 434 Q 390 379 392 377 Q 396 377 401 377 Q 410 377 413 388 Q 417 401 408 425 Q 398 452 326 463 Q 322 464 318 463 C 288 459 294 452 318 434 Z" style="fill: #0070C0;"></path>
                                                                        <path d="M 641 629 Q 645 674 652 716 L 655 742 Q 656 751 658 759 Q 662 775 664 786 Q 668 795 670 802 Q 674 812 655 826 Q 624 844 602 848 Q 587 852 580 844 Q 573 837 580 823 Q 601 799 601 622 C 601 592 638 599 641 629 Z" style="fill: #0070C0;"></path>
                                                                        <path d="M 652 716 Q 689 703 732 715 Q 763 721 798 728 Q 814 732 816 734 Q 823 741 819 749 Q 812 759 785 766 Q 761 769 698 749 Q 677 746 655 742 C 625 737 623 725 652 716 Z" style="fill: #0070C0;"></path>
                                                                        <path d="M 481 598 Q 472 602 454 604 Q 444 605 440 602 Q 436 596 443 582 Q 474 521 492 420 Q 496 390 513 370 Q 529 351 534 365 Q 537 374 537 386 L 536 409 Q 533 425 522 476 L 517 498 Q 507 550 504 570 C 501 591 501 591 481 598 Z" style="fill: #0070C0;"></path>
                                                                        <path d="M 708 405 Q 709 404 710 400 Q 714 384 728 385 Q 741 386 750 401 Q 763 416 787 491 Q 806 540 842 569 Q 861 584 846 599 Q 830 617 781 644 Q 769 653 696 639 Q 681 639 641 629 L 601 622 Q 585 619 569 615 Q 517 605 481 598 C 452 592 475 564 504 570 Q 510 570 516 572 Q 576 591 712 611 Q 737 612 746 609 Q 755 602 749 572 Q 724 457 713 435 C 704 413 704 413 708 405 Z" style="fill: #0070C0;"></path>
                                                                        <path d="M 522 476 Q 526 475 535 476 Q 617 492 676 502 Q 697 506 689 517 Q 679 530 657 533 Q 636 536 517 498 C 488 489 492 479 522 476 Z" style="fill: #0070C0;"></path>
                                                                        <path d="M 631 396 Q 671 402 708 405 C 738 408 740 422 713 435 Q 709 438 701 439 Q 680 443 536 409 C 507 402 507 388 537 386 Q 541 385 554 386 Q 564 387 576 388 L 631 396 Z" style="fill: #0070C0;"></path>
                                                                        <path d="M 655 264 Q 740 276 874 277 Q 932 274 940 286 Q 944 296 929 310 Q 877 346 841 338 Q 771 322 655 301 L 597 292 Q 500 279 388 262 Q 367 259 383 243 Q 396 230 414 225 Q 435 221 450 225 Q 517 246 598 256 L 655 264 Z" style="fill: #0070C0;"></path>
                                                                        <path d="M 607 -12 Q 611 -36 618 -45 Q 624 -52 631 -50 Q 646 -41 650 15 Q 651 31 655 264 L 655 301 Q 655 304 656 306 Q 656 315 663 358 Q 666 374 653 383 Q 641 390 631 396 C 605 411 562 415 576 388 Q 577 387 579 384 Q 592 357 597 298 Q 596 297 597 292 L 598 256 Q 602 10 607 -12 Z" style="fill: #0070C0;"></path>
                                    
                                    
                                                                                                                                                                                                                                                                                                                                                                                                                                                                                                                                                                                                                                                                                                                                                                                                                                                                                                                                                                                                                            </g>
                            </svg>