<svg width='83' height='83' >
                                <g transform="translate(3, 70) scale(0.07, -0.07)">
                                    <!-- 先将完整的字以灰色字体绘制完成，层级位于下面 -->
                                                                        <path d="M 324 540 Q 400 564 404 566 Q 411 573 407 581 Q 400 591 373 597 Q 348 601 326 592 L 279 574 Q 180 544 99 530 Q 65 523 90 509 Q 126 491 190 506 Q 224 515 262 524 L 324 540 Z" style="fill: #0070C0;"></path>
                                                                        <path d="M 321 431 Q 322 483 324 540 L 326 592 Q 327 688 346 752 Q 355 767 352 780 Q 345 790 290 825 Q 266 843 245 827 Q 241 823 246 806 Q 279 757 279 709 Q 279 645 279 574 L 276 441 Q 264 189 263 187 Q 239 67 240 66 Q 240 57 259 6 Q 266 -12 274 -15 Q 280 -22 288 -13 Q 315 3 316 69 Q 315 109 321 404 L 321 431 Z" style="fill: #0070C0;"></path>
                                                                        <path d="M 262 524 Q 214 386 58 180 Q 54 170 64 170 Q 70 169 78 177 Q 201 286 276 441 C 330 550 272 552 262 524 Z" style="fill: #0070C0;"></path>
                                                                        <path d="M 321 404 Q 388 341 400 338 Q 401 338 404 338 Q 413 338 417 349 Q 421 361 415 385 Q 409 409 334 429 Q 325 432 321 431 C 293 430 299 425 321 404 Z" style="fill: #0070C0;"></path>
                                                                        <path d="M 587 766 Q 638 712 676 699 Q 692 698 702 712 Q 709 727 704 746 Q 688 797 601 809 Q 600 810 598 810 Q 579 814 569 809 Q 562 808 566 794 Q 569 781 587 766 Z" style="fill: #0070C0;"></path>
                                                                        <path d="M 494 602 Q 481 629 464 638 Q 461 642 456 638 Q 452 635 450 624 Q 456 593 424 521 Q 415 505 417 488 Q 420 470 429 457 Q 436 447 441 455 Q 447 456 455 470 Q 459 477 468 506 Q 481 552 490 570 C 500 591 500 591 494 602 Z" style="fill: #0070C0;"></path>
                                                                        <path d="M 490 570 Q 506 564 544 572 Q 574 585 730 621 Q 773 630 785 629 Q 800 619 797 612 Q 797 609 777 546 Q 770 533 777 529 Q 784 525 800 537 Q 849 573 891 584 Q 925 596 925 603 Q 924 613 851 661 Q 830 674 807 670 Q 761 660 704 647 Q 646 635 553 615 Q 523 608 494 602 C 465 596 460 575 490 570 Z" style="fill: #0070C0;"></path>
                                                                        <path d="M 559 222 Q 559 265 559 310 L 559 339 Q 559 402 564 424 C 566 438 566 438 547 451 Q 528 466 505 472 Q 498 473 491 466 Q 488 460 495 451 Q 525 385 517 212 Q 516 212 517 211 Q 516 201 516 189 Q 515 131 496 73 Q 481 22 513 -12 Q 523 -25 533 -12 Q 539 -3 554 56 L 558 93 Q 558 102 559 190 L 559 222 Z" style="fill: #0070C0;"></path>
                                                                        <path d="M 748 364 Q 772 418 798 436 Q 813 452 800 468 Q 734 520 683 491 Q 617 467 547 451 C 518 444 535 418 564 424 Q 573 425 696 456 Q 709 460 716 455 Q 723 448 720 434 Q 713 401 703 373 C 693 345 735 337 748 364 Z" style="fill: #0070C0;"></path>
                                                                        <path d="M 559 310 Q 565 304 587 309 Q 641 322 757 333 Q 767 334 768 343 Q 768 350 748 364 L 703 373 Q 697 373 691 371 Q 618 350 559 339 C 530 333 532 322 559 310 Z" style="fill: #0070C0;"></path>
                                                                        <path d="M 792 120 Q 816 171 843 188 Q 861 207 846 225 Q 830 240 776 266 Q 758 275 682 248 Q 616 233 559 222 C 530 216 529 190 559 190 Q 575 189 595 195 Q 739 222 746 215 Q 753 208 751 192 Q 744 155 734 122 C 726 93 779 93 792 120 Z" style="fill: #0070C0;"></path>
                                                                        <path d="M 554 56 Q 561 56 570 57 Q 646 72 810 80 Q 820 81 823 90 Q 824 99 792 120 C 777 130 763 128 734 122 Q 637 103 558 93 C 528 89 524 55 554 56 Z" style="fill: #0070C0;"></path>
                                    
                                    
                                                                                                                                                                                                                                                                                                                                                                                                                                                                                                                                                                                                                                                                                                                                                                                                                                                                                                                                                                                                                            </g>
                            </svg>