<svg width='83' height='83' >
                                <g transform="translate(3, 70) scale(0.07, -0.07)">
                                    <!-- 先将完整的字以灰色字体绘制完成，层级位于下面 -->
                                                                        <path d="M 379 640 Q 449 656 456 662 Q 463 669 459 677 Q 452 687 425 694 Q 404 698 385 692 L 337 674 Q 256 653 203 646 Q 170 640 194 625 Q 224 610 299 622 Q 308 625 319 626 L 379 640 Z" style="fill: #0070C0;"></path>
                                                                        <path d="M 375 578 Q 376 611 379 640 L 385 692 Q 385 693 386 695 Q 386 720 403 751 Q 409 760 398 772 Q 349 811 324 802 Q 311 798 317 784 Q 335 754 337 674 L 336 558 Q 335 503 328 477 Q 327 467 342 430 Q 351 415 364 423 Q 373 432 374 554 L 375 578 Z" style="fill: #0070C0;"></path>
                                                                        <path d="M 319 626 Q 271 518 142 410 Q 132 398 140 397 Q 149 393 160 398 Q 242 429 329 548 Q 332 554 336 558 C 396 639 332 653 319 626 Z" style="fill: #0070C0;"></path>
                                                                        <path d="M 374 554 Q 380 551 437 506 Q 446 499 456 499 Q 463 500 466 508 Q 467 518 461 537 Q 457 553 431 564 Q 406 571 378 578 Q 377 579 375 578 C 345 580 349 570 374 554 Z" style="fill: #0070C0;"></path>
                                                                        <path d="M 650 667 Q 687 677 729 685 Q 763 694 767 698 Q 776 705 771 713 Q 764 723 738 730 Q 714 733 655 714 L 610 701 Q 579 692 504 682 Q 470 676 495 661 Q 531 640 587 654 Q 591 655 596 655 L 650 667 Z" style="fill: #0070C0;"></path>
                                                                        <path d="M 646 618 Q 647 643 650 667 L 655 714 Q 655 750 675 787 Q 681 796 670 808 Q 621 847 596 838 Q 583 834 589 820 Q 608 787 610 701 L 609 590 Q 608 523 600 493 Q 599 483 614 446 Q 623 431 636 439 Q 645 446 645 588 Q 645 589 645 591 L 646 618 Z" style="fill: #0070C0;"></path>
                                                                        <path d="M 596 655 Q 554 576 464 472 Q 458 463 468 462 Q 480 459 552 521 Q 580 549 609 590 C 664 667 610 681 596 655 Z" style="fill: #0070C0;"></path>
                                                                        <path d="M 645 591 Q 700 549 768 488 Q 783 472 796 470 Q 803 469 809 478 Q 818 491 804 526 Q 789 572 646 618 C 617 627 621 609 645 591 Z" style="fill: #0070C0;"></path>
                                                                        <path d="M 357 400 Q 327 313 102 171 Q 80 159 106 160 Q 196 160 354 301 Q 360 310 420 361 Q 430 371 430 380 Q 429 392 405 402 Q 380 414 368 412 Q 361 412 357 400 Z" style="fill: #0070C0;"></path>
                                                                        <path d="M 537 440 Q 577 418 662 329 Q 786 193 856 206 Q 857 207 861 207 Q 910 220 945 229 Q 957 232 967 238 Q 973 245 962 251 Q 949 257 840 282 Q 737 309 599 441 Q 580 459 552 461 Q 540 462 531 454 Q 527 447 537 440 Z" style="fill: #0070C0;"></path>
                                                                        <path d="M 446 233 Q 522 252 583 260 Q 602 261 606 256 Q 613 241 606 206 Q 588 107 561 66 Q 542 35 513 42 Q 488 51 467 60 Q 443 70 459 44 Q 499 -1 516 -35 Q 532 -57 551 -41 Q 617 -5 658 165 Q 667 222 692 249 Q 705 262 699 273 Q 690 285 639 310 Q 618 320 598 308 Q 576 295 490 277 Q 403 258 331 254 Q 312 253 310 244 Q 309 237 332 224 Q 357 208 377 215 Q 396 221 416 225 L 446 233 Z" style="fill: #0070C0;"></path>
                                                                        <path d="M 416 225 Q 416 102 218 -15 Q 211 -21 216 -25 Q 237 -37 321 6 Q 396 45 458 144 Q 470 160 483 176 Q 492 183 488 194 Q 482 209 446 233 C 421 250 417 253 416 225 Z" style="fill: #0070C0;"></path>
                                    
                                    
                                                                                                                                                                                                                                                                                                                                                                                                                                                                                                                                                                                                                                                                                                                                                                                                                                                                                                                                                                                                                            </g>
                            </svg>