<svg width='83' height='83' >
                                <g transform="translate(3, 70) scale(0.07, -0.07)">
                                    <!-- 先将完整的字以灰色字体绘制完成，层级位于下面 -->
                                                                        <path d="M 290 529 Q 308 536 330 543 Q 361 555 366 560 Q 373 567 368 574 Q 361 584 335 587 Q 311 588 290 578 L 256 562 Q 172 529 116 517 Q 85 508 109 496 Q 148 481 193 498 Q 218 507 248 515 L 290 529 Z" style="fill: #0070C0;"></path>
                                                                        <path d="M 288 442 Q 289 484 290 529 L 290 578 Q 290 677 311 755 Q 326 779 301 794 Q 286 804 260 821 Q 239 837 220 823 Q 216 819 221 804 Q 255 755 255 704 Q 255 638 256 562 L 251 387 Q 242 182 242 178 Q 235 133 221 89 Q 212 50 234 -4 Q 240 -20 248 -23 Q 252 -29 260 -22 Q 267 -18 277 2 Q 286 24 285 52 Q 284 95 288 411 L 288 442 Z" style="fill: #0070C0;"></path>
                                                                        <path d="M 248 515 Q 223 433 184 357 Q 144 278 41 129 Q 37 119 48 119 Q 54 118 63 127 Q 183 241 251 387 C 329 552 257 544 248 515 Z" style="fill: #0070C0;"></path>
                                                                        <path d="M 288 411 Q 333 362 352 361 Q 364 360 368 376 Q 369 386 361 403 Q 346 424 288 442 C 259 451 268 433 288 411 Z" style="fill: #0070C0;"></path>
                                                                        <path d="M 428 626 Q 479 644 490 650 Q 500 657 508 651 Q 512 647 505 632 Q 492 602 481 573 Q 469 552 498 512 Q 522 476 514 462 Q 510 455 492 455 Q 470 456 447 455 Q 425 455 450 443 Q 493 421 533 394 Q 545 384 554 394 Q 564 401 570 421 Q 580 466 526 528 Q 484 570 566 646 Q 585 673 586 673 Q 585 676 583 678 Q 570 694 534 709 Q 516 715 480 683 Q 444 664 425 655 C 398 642 400 616 428 626 Z" style="fill: #0070C0;"></path>
                                                                        <path d="M 425 655 Q 412 676 368 688 Q 359 689 353 682 Q 350 676 358 666 Q 422 497 375 192 Q 368 153 355 113 Q 348 88 353 69 Q 362 36 373 24 Q 383 11 393 24 Q 423 55 423 260 Q 423 575 428 626 C 430 650 430 650 425 655 Z" style="fill: #0070C0;"></path>
                                                                        <path d="M 699 536 Q 763 555 889 579 Q 899 578 907 591 Q 907 601 885 610 Q 855 628 771 598 Q 722 583 712 580 L 665 569 Q 650 568 574 551 Q 547 547 569 531 Q 599 513 643 521 Q 646 522 651 523 L 699 536 Z" style="fill: #0070C0;"></path>
                                                                        <path d="M 645 409 Q 687 499 699 536 L 712 580 Q 745 701 760 726 Q 769 739 763 748 Q 754 770 705 781 Q 692 785 678 777 Q 668 768 677 759 Q 701 738 687 654 Q 677 612 665 569 L 651 523 Q 632 472 610 429 Q 579 368 500 271 Q 493 258 501 256 Q 505 255 517 263 Q 571 302 621 370 L 645 409 Z" style="fill: #0070C0;"></path>
                                                                        <path d="M 660 207 Q 661 246 663 274 L 665 302 Q 666 356 670 373 Q 670 377 670 379 C 671 395 671 395 661 401 Q 658 404 645 409 C 617 421 614 399 621 370 Q 645 285 608 153 Q 578 96 610 60 Q 616 48 625 53 Q 658 78 659 177 L 660 207 Z" style="fill: #0070C0;"></path>
                                                                        <path d="M 670 379 Q 677 380 685 384 Q 776 412 792 407 Q 801 401 799 380 Q 812 226 803 103 Q 802 79 788 74 Q 776 73 721 92 Q 711 96 710 89 Q 711 82 723 73 Q 757 42 784 10 Q 799 -6 815 -5 Q 830 -1 848 41 Q 870 84 866 129 Q 859 235 850 331 Q 846 370 862 401 Q 872 414 859 426 Q 844 438 811 449 Q 792 456 778 446 Q 765 439 740 429 Q 688 410 661 401 C 633 391 641 370 670 379 Z" style="fill: #0070C0;"></path>
                                                                        <path d="M 663 274 Q 715 283 754 290 Q 773 294 765 305 Q 755 318 732 320 Q 696 323 665 302 C 640 286 633 269 663 274 Z" style="fill: #0070C0;"></path>
                                                                        <path d="M 659 177 Q 713 189 753 194 Q 774 198 765 209 Q 755 222 732 225 Q 695 228 660 207 C 634 192 630 171 659 177 Z" style="fill: #0070C0;"></path>
                                    
                                    
                                                                                                                                                                                                                                                                                                                                                                                                                                                                                                                                                                                                                                                                                                                                                                                                                                                                                                                                                                                                                            </g>
                            </svg>