<svg width='83' height='83' >
                                <g transform="translate(3, 70) scale(0.07, -0.07)">
                                    <!-- 先将完整的字以灰色字体绘制完成，层级位于下面 -->
                                                                        <path d="M 399 611 Q 424 618 452 624 Q 486 633 492 638 Q 499 645 495 653 Q 488 663 461 669 Q 419 675 403 660 L 364 646 Q 282 624 219 614 Q 185 607 210 593 Q 252 572 302 588 Q 317 592 337 596 L 399 611 Z" style="fill: #0070C0;"></path>
                                                                        <path d="M 396 562 Q 397 587 399 611 L 403 660 Q 406 732 427 767 Q 433 776 422 788 Q 373 827 348 818 Q 335 814 341 800 Q 363 764 364 646 L 362 550 Q 358 480 352 449 Q 351 439 366 402 Q 375 387 388 395 Q 395 401 396 534 L 396 562 Z" style="fill: #0070C0;"></path>
                                                                        <path d="M 337 596 Q 327 520 168 386 Q 155 376 168 375 Q 177 374 207 390 Q 243 406 274 436 Q 328 488 362 550 C 398 614 344 633 337 596 Z" style="fill: #0070C0;"></path>
                                                                        <path d="M 396 534 Q 450 497 451 495 Q 452 495 456 495 Q 463 496 466 504 Q 467 514 461 532 Q 457 545 436 553 Q 417 559 396 562 C 366 566 371 551 396 534 Z" style="fill: #0070C0;"></path>
                                                                        <path d="M 681 649 Q 822 685 823 686 Q 832 693 827 701 Q 820 711 794 718 Q 766 722 739 712 Q 712 702 685 693 L 645 681 Q 591 669 532 662 Q 498 656 523 641 Q 557 623 610 632 L 681 649 Z" style="fill: #0070C0;"></path>
                                                                        <path d="M 679 615 Q 679 633 681 649 L 685 693 Q 694 769 710 798 Q 716 807 706 820 Q 657 859 631 850 Q 619 846 625 833 Q 647 796 645 736 Q 645 708 645 681 L 643 613 Q 639 538 632 506 Q 631 494 646 458 Q 655 443 668 451 Q 678 460 679 530 Q 679 560 678 591 L 679 615 Z" style="fill: #0070C0;"></path>
                                                                        <path d="M 610 632 Q 577 553 472 465 Q 460 455 472 455 Q 479 454 507 469 Q 538 482 564 506 Q 621 563 643 613 C 659 647 630 677 610 632 Z" style="fill: #0070C0;"></path>
                                                                        <path d="M 678 591 Q 729 555 791 502 Q 804 489 817 486 Q 824 486 828 494 Q 837 506 823 538 Q 810 577 679 615 C 650 623 654 608 678 591 Z" style="fill: #0070C0;"></path>
                                                                        <path d="M 512 365 Q 617 393 653 390 Q 669 386 670 379 Q 670 373 635 313 Q 628 301 633 296 Q 640 292 656 302 Q 711 330 755 338 Q 791 345 790 354 Q 789 364 720 420 Q 696 441 616 421 Q 579 417 384 374 Q 344 365 302 359 Q 271 355 291 338 Q 324 313 358 323 Q 437 353 474 357 L 512 365 Z" style="fill: #0070C0;"></path>
                                                                        <path d="M 536 101 Q 539 158 542 206 L 544 238 Q 547 335 547 337 L 546 338 Q 530 356 512 365 C 486 380 463 385 474 357 Q 486 333 489 250 Q 489 205 490 122 C 490 92 534 71 536 101 Z" style="fill: #0070C0;"></path>
                                                                        <path d="M 542 206 Q 543 206 550 206 Q 623 216 677 221 Q 702 225 693 239 Q 681 255 653 261 Q 611 268 544 238 C 517 226 512 206 542 206 Z" style="fill: #0070C0;"></path>
                                                                        <path d="M 383 181 Q 396 197 410 212 Q 422 224 409 240 Q 370 279 345 277 Q 335 276 335 261 Q 336 161 215 58 Q 185 34 170 20 Q 160 5 176 9 Q 227 9 321 105 Q 355 147 366 161 L 383 181 Z" style="fill: #0070C0;"></path>
                                                                        <path d="M 366 161 Q 427 118 491 75 Q 490 75 491 74 Q 687 -50 719 -53 Q 783 -53 892 -7 Q 911 -1 911 5 Q 912 12 895 15 Q 832 25 759 34 Q 654 49 536 101 L 490 122 Q 471 132 450 143 Q 410 168 383 181 C 356 195 341 178 366 161 Z" style="fill: #0070C0;"></path>
                                    
                                    
                                                                                                                                                                                                                                                                                                                                                                                                                                                                                                                                                                                                                                                                                                                                                                                                                                                                                                                                                                                                                                                                                                        </g>
                            </svg>