<svg width='83' height='83' >
                                <g transform="translate(3, 70) scale(0.07, -0.07)">
                                    <!-- 先将完整的字以灰色字体绘制完成，层级位于下面 -->
                                                                        <path d="M 281 526 Q 300 533 323 538 Q 356 548 360 553 Q 369 560 364 569 Q 357 579 328 585 Q 303 589 282 580 L 238 563 Q 159 539 95 529 Q 61 520 86 506 Q 134 485 184 502 Q 200 508 227 512 L 281 526 Z" style="fill: #0070C0;"></path>
                                                                        <path d="M 279 422 Q 279 471 281 526 L 282 580 Q 283 673 301 734 Q 310 749 307 762 Q 300 772 246 805 Q 224 821 203 807 Q 199 803 205 787 Q 236 741 237 692 Q 237 632 238 563 L 234 403 Q 225 202 225 197 Q 218 155 206 113 Q 196 76 220 14 Q 227 -4 235 -7 Q 241 -14 248 -5 Q 275 11 275 74 Q 274 114 278 395 L 279 422 Z" style="fill: #0070C0;"></path>
                                                                        <path d="M 227 512 Q 205 440 171 375 Q 134 305 45 177 Q 41 167 52 166 Q 74 166 167 289 Q 203 337 234 403 C 301 544 236 541 227 512 Z" style="fill: #0070C0;"></path>
                                                                        <path d="M 278 395 Q 329 337 345 334 Q 355 333 361 347 Q 362 357 356 373 Q 338 406 279 422 C 250 430 258 417 278 395 Z" style="fill: #0070C0;"></path>
                                                                        <path d="M 479 617 Q 504 630 526 645 Q 560 666 593 678 Q 606 681 609 688 Q 610 697 599 705 Q 580 715 540 724 Q 527 728 516 725 Q 510 721 511 711 Q 512 680 379 586 Q 376 579 381 576 Q 396 582 445 601 L 479 617 Z" style="fill: #0070C0;"></path>
                                                                        <path d="M 511 459 Q 512 462 575 472 Q 585 472 591 484 Q 591 494 570 502 Q 542 517 516 507 Q 515 507 514 506 L 469 490 Q 462 489 458 487 Q 437 481 345 458 Q 320 452 341 439 Q 371 420 406 430 Q 430 439 465 445 L 511 459 Z" style="fill: #0070C0;"></path>
                                                                        <path d="M 509 356 Q 509 407 511 459 L 514 506 Q 517 536 525 559 Q 532 571 529 582 Q 525 589 479 617 C 453 633 430 627 445 601 Q 467 567 468 532 Q 468 513 469 490 L 469 349 Q 465 168 453 114 Q 441 69 461 21 Q 461 20 462 18 Q 466 5 473 1 Q 479 -3 484 2 Q 491 6 499 23 Q 506 42 506 68 Q 505 98 508 324 L 509 356 Z" style="fill: #0070C0;"></path>
                                                                        <path d="M 465 445 Q 423 319 298 142 Q 294 133 304 133 Q 323 133 408 245 Q 441 288 469 349 C 527 472 475 473 465 445 Z" style="fill: #0070C0;"></path>
                                                                        <path d="M 508 324 Q 571 261 581 260 Q 588 259 594 269 Q 598 279 593 301 Q 590 319 565 334 Q 540 346 512 356 Q 511 357 509 356 C 479 359 487 345 508 324 Z" style="fill: #0070C0;"></path>
                                                                        <path d="M 594 411 Q 630 359 642 356 Q 651 355 657 365 Q 664 375 661 401 Q 660 416 640 429 Q 592 459 580 455 Q 576 452 575 441 Q 576 432 594 411 Z" style="fill: #0070C0;"></path>
                                                                        <path d="M 838 510 Q 819 477 779 426 Q 773 419 779 411 Q 786 410 795 414 Q 876 469 914 490 Q 933 496 928 507 Q 922 523 902 542 Q 883 560 859 562 Q 843 561 845 541 Q 848 528 838 510 Z" style="fill: #0070C0;"></path>
                                                                        <path d="M 737 331 Q 744 388 755 627 Q 755 657 778 723 Q 785 738 774 749 Q 752 768 712 779 Q 687 786 677 778 Q 668 771 676 759 Q 733 660 687 311 Q 659 182 601 115 Q 574 88 539 60 Q 527 51 528 47 Q 529 43 541 44 Q 554 40 584 55 Q 693 100 732 287 L 737 331 Z" style="fill: #0070C0;"></path>
                                                                        <path d="M 732 287 Q 807 128 849 68 Q 864 44 883 42 Q 935 42 980 41 Q 999 41 1000 45 Q 1003 51 982 65 Q 874 137 841 179 Q 774 266 737 331 C 722 357 719 314 732 287 Z" style="fill: #0070C0;"></path>
                                    
                                    
                                                                                                                                                                                                                                                                                                                                                                                                                                                                                                                                                                                                                                                                                                                                                                                                                                                                                                                                                                                                                                                                                                        </g>
                            </svg>