<svg width='83' height='83' >
                                <g transform="translate(3, 70) scale(0.07, -0.07)">
                                    <!-- 先将完整的字以灰色字体绘制完成，层级位于下面 -->
                                                                        <path d="M 332 529 Q 351 536 373 540 Q 410 550 416 555 Q 425 564 420 572 Q 413 584 382 590 Q 357 594 334 587 L 287 570 Q 185 543 125 534 Q 88 527 115 511 Q 157 490 226 506 Q 247 512 274 516 L 332 529 Z" style="fill: #0070C0;"></path>
                                                                        <path d="M 329 425 Q 330 474 332 529 L 334 587 Q 335 681 354 744 Q 363 759 360 772 Q 353 782 298 817 Q 274 835 253 819 Q 249 815 254 798 Q 285 750 286 702 Q 286 641 287 570 L 282 415 Q 273 205 273 199 Q 266 156 254 113 Q 242 73 268 10 Q 274 -8 282 -11 Q 288 -18 296 -9 Q 323 7 324 73 Q 323 112 329 394 L 329 425 Z" style="fill: #0070C0;"></path>
                                                                        <path d="M 274 516 Q 222 377 66 170 Q 60 160 72 159 Q 78 158 88 167 Q 212 278 282 415 C 349 544 285 544 274 516 Z" style="fill: #0070C0;"></path>
                                                                        <path d="M 329 394 Q 330 393 335 388 Q 360 364 386 337 Q 396 327 409 327 Q 416 327 421 337 Q 425 347 420 371 Q 413 401 333 425 Q 330 426 329 425 C 299 426 308 415 329 394 Z" style="fill: #0070C0;"></path>
                                                                        <path d="M 622 777 Q 647 758 673 733 Q 689 720 705 721 Q 715 722 721 736 Q 725 752 714 783 Q 701 816 615 827 Q 599 831 592 827 Q 586 823 589 809 Q 593 799 622 777 Z" style="fill: #0070C0;"></path>
                                                                        <path d="M 517 642 Q 480 635 507 618 Q 549 597 618 612 Q 697 630 781 647 Q 821 657 827 663 Q 837 670 831 680 Q 824 692 794 699 Q 769 703 657 668 Q 600 653 517 642 Z" style="fill: #0070C0;"></path>
                                                                        <path d="M 506 534 Q 537 465 562 457 Q 574 453 583 468 Q 587 480 583 500 Q 577 516 558 529 Q 530 551 516 557 Q 509 560 505 550 Q 501 543 506 534 Z" style="fill: #0070C0;"></path>
                                                                        <path d="M 700 449 Q 703 453 708 460 Q 729 487 751 521 Q 761 537 777 556 Q 790 566 784 576 Q 777 592 752 611 Q 740 621 724 617 Q 715 613 720 603 Q 727 573 675 463 Q 668 451 666 441 C 658 412 682 425 700 449 Z" style="fill: #0070C0;"></path>
                                                                        <path d="M 659 400 Q 722 413 869 430 Q 879 429 889 442 Q 890 454 867 464 Q 839 485 750 461 Q 725 457 700 449 L 666 441 Q 615 432 460 413 Q 432 409 454 392 Q 481 368 533 376 Q 570 385 613 391 L 659 400 Z" style="fill: #0070C0;"></path>
                                                                        <path d="M 687 273 Q 753 282 850 282 Q 868 283 872 291 Q 876 303 861 315 Q 807 351 740 331 Q 716 327 689 318 L 637 307 Q 558 294 467 277 Q 448 274 462 259 Q 475 247 493 242 Q 512 238 527 243 Q 579 259 638 266 L 687 273 Z" style="fill: #0070C0;"></path>
                                                                        <path d="M 608 67 Q 580 74 550 82 Q 538 86 539 78 Q 539 72 549 64 Q 610 3 631 -34 Q 644 -50 660 -37 Q 696 -4 695 63 Q 692 91 687 273 L 689 318 Q 692 336 698 349 Q 705 367 690 380 Q 675 392 659 400 C 633 415 595 415 613 391 Q 637 367 637 307 L 638 266 Q 644 83 627 69 Q 620 63 608 67 Z" style="fill: #0070C0;"></path>
                                                                        <path d="M 489 190 Q 465 150 435 113 Q 413 86 427 53 Q 431 35 452 45 Q 497 73 507 135 Q 514 165 510 188 Q 506 195 501 197 Q 494 197 489 190 Z" style="fill: #0070C0;"></path>
                                                                        <path d="M 771 182 Q 814 140 864 79 Q 879 60 893 55 Q 902 54 909 62 Q 921 75 911 116 Q 902 156 838 185 Q 796 204 774 211 Q 765 217 763 205 Q 762 192 771 182 Z" style="fill: #0070C0;"></path>
                                    
                                    
                                                                                                                                                                                                                                                                                                                                                                                                                                                                                                                                                                                                                                                                                                                                                                                                                                                                                                                                                                                                                                                                                                        </g>
                            </svg>