<svg width='83' height='83' >
                                <g transform="translate(3, 70) scale(0.07, -0.07)">
                                    <!-- 先将完整的字以灰色字体绘制完成，层级位于下面 -->
                                                                        <path d="M 323 538 Q 402 562 404 563 Q 413 572 408 580 Q 401 592 370 598 Q 346 601 325 594 L 281 578 Q 184 551 132 542 Q 95 535 122 519 Q 167 495 226 514 Q 245 521 270 524 L 323 538 Z" style="fill: #0070C0;"></path>
                                                                        <path d="M 321 490 Q 322 514 323 538 L 325 594 Q 326 685 345 746 Q 354 761 351 774 Q 344 784 290 817 Q 268 833 247 819 Q 243 815 248 799 Q 281 751 281 702 Q 281 644 281 578 L 277 421 Q 270 211 265 186 Q 241 68 242 66 Q 242 51 261 10 Q 267 -8 275 -11 Q 281 -17 288 -9 Q 295 -5 306 15 Q 316 40 315 70 Q 314 115 321 459 L 321 490 Z" style="fill: #0070C0;"></path>
                                                                        <path d="M 270 524 Q 225 389 62 169 Q 56 159 68 158 Q 92 158 196 289 Q 239 343 277 421 C 343 553 280 552 270 524 Z" style="fill: #0070C0;"></path>
                                                                        <path d="M 321 459 Q 351 420 369 418 Q 379 417 385 431 Q 386 441 380 457 Q 367 478 321 490 C 292 498 303 483 321 459 Z" style="fill: #0070C0;"></path>
                                                                        <path d="M 642 626 Q 771 657 775 661 Q 784 668 779 677 Q 772 687 744 695 Q 714 699 644 673 L 590 658 Q 539 648 480 640 Q 446 633 471 618 Q 513 594 568 610 Q 578 613 591 614 L 642 626 Z" style="fill: #0070C0;"></path>
                                                                        <path d="M 630 429 Q 636 532 642 626 L 644 673 Q 645 683 646 693 Q 649 723 663 782 Q 667 792 646 808 Q 610 827 586 831 Q 570 835 562 826 Q 555 819 563 803 Q 587 769 587 746 Q 588 703 590 658 L 591 614 Q 591 523 587 423 C 586 393 628 399 630 429 Z" style="fill: #0070C0;"></path>
                                                                        <path d="M 468 517 Q 513 472 528 472 Q 537 473 541 485 Q 545 498 537 523 Q 533 536 510 546 Q 458 564 444 559 Q 440 555 441 544 Q 444 534 468 517 Z" style="fill: #0070C0;"></path>
                                                                        <path d="M 728 577 Q 710 547 675 500 Q 671 493 675 487 Q 682 486 689 490 Q 759 542 794 561 Q 810 565 805 576 Q 799 589 782 605 Q 764 621 744 622 Q 731 621 732 604 Q 735 592 728 577 Z" style="fill: #0070C0;"></path>
                                                                        <path d="M 587 423 Q 496 413 392 397 Q 371 396 387 379 Q 400 366 418 361 Q 437 355 454 360 Q 619 405 911 405 Q 930 405 935 414 Q 941 424 924 438 Q 873 475 838 467 Q 765 451 637 431 Q 633 431 630 429 L 587 423 Z" style="fill: #0070C0;"></path>
                                                                        <path d="M 439 309 Q 423 319 405 324 Q 398 327 393 322 Q 386 316 395 305 Q 429 242 434 98 Q 437 29 471 12 L 472 11 Q 487 7 489 33 L 489 67 Q 471 160 471 273 C 471 291 465 294 439 309 Z" style="fill: #0070C0;"></path>
                                                                        <path d="M 722 56 Q 732 31 757 -20 Q 764 -36 775 -36 Q 790 -33 799 -9 Q 826 46 842 221 Q 846 269 869 298 Q 885 317 873 330 Q 851 352 806 371 Q 790 380 690 348 Q 573 321 439 309 C 409 306 441 269 471 273 Q 477 273 483 274 Q 582 293 738 319 Q 765 325 777 312 Q 784 299 785 286 Q 786 186 767 89 Q 766 73 759 70 Q 758 69 754 70 C 736 46 714 74 722 56 Z" style="fill: #0070C0;"></path>
                                                                        <path d="M 545 237 Q 535 241 517 243 Q 508 246 506 242 Q 502 238 508 226 Q 524 195 536 142 Q 537 126 548 116 Q 561 100 565 112 Q 566 118 567 125 L 565 149 Q 559 198 558 214 C 557 233 557 233 545 237 Z" style="fill: #0070C0;"></path>
                                                                        <path d="M 687 159 Q 703 198 717 209 Q 736 230 718 242 Q 702 252 680 268 Q 664 277 649 268 Q 630 256 603 249 Q 578 242 545 237 C 515 232 528 209 558 214 Q 582 218 631 227 Q 649 230 653 223 Q 656 220 645 166 C 639 137 675 131 687 159 Z" style="fill: #0070C0;"></path>
                                                                        <path d="M 567 125 Q 574 125 582 126 Q 616 133 691 138 Q 698 139 700 145 Q 700 149 687 159 C 671 171 671 171 645 166 Q 602 157 565 149 C 536 143 537 124 567 125 Z" style="fill: #0070C0;"></path>
                                                                        <path d="M 489 33 Q 493 33 503 34 Q 573 49 722 56 C 752 57 760 58 754 70 Q 753 79 726 97 Q 710 106 679 99 Q 574 77 489 67 C 459 63 459 31 489 33 Z" style="fill: #0070C0;"></path>
                                    
                                    
                                                                                                                                                                                                                                                                                                                                                                                                                                                                                                                                                                                                                                                                                                                                                                                                                                                                                                                                                                                                                                                                                                                                                                                                                                                                </g>
                            </svg>