<svg width='83' height='83' >
                                <g transform="translate(3, 70) scale(0.07, -0.07)">
                                    <!-- 先将完整的字以灰色字体绘制完成，层级位于下面 -->
                                                                        <path d="M 268 536 Q 355 561 357 563 Q 364 572 360 580 Q 353 592 322 597 Q 294 601 270 591 L 227 574 Q 131 552 107 547 Q 70 538 98 523 Q 140 499 201 519 Q 204 520 211 521 L 268 536 Z" style="fill: #0070C0;"></path>
                                                                        <path d="M 265 461 Q 266 497 268 536 L 270 591 Q 270 682 292 754 Q 307 779 274 802 Q 259 812 238 826 Q 216 842 195 828 Q 191 824 196 808 Q 227 760 227 713 Q 227 649 227 574 L 220 417 Q 207 215 206 211 Q 182 97 183 95 Q 183 83 201 38 Q 207 22 215 17 Q 221 11 228 19 Q 255 35 256 98 Q 256 138 264 427 L 265 461 Z" style="fill: #0070C0;"></path>
                                                                        <path d="M 211 521 Q 177 406 49 216 Q 45 206 56 206 Q 74 206 163 321 Q 193 361 220 417 C 287 552 220 550 211 521 Z" style="fill: #0070C0;"></path>
                                                                        <path d="M 264 427 Q 310 370 331 366 Q 343 365 349 380 Q 350 392 344 410 Q 334 428 311 438 Q 281 456 265 461 C 237 471 245 450 264 427 Z" style="fill: #0070C0;"></path>
                                                                        <path d="M 466 653 Q 496 644 651 667 Q 711 676 773 685 Q 828 695 837 702 Q 846 709 842 717 Q 836 729 810 736 Q 789 742 694 718 Q 589 693 454 685 Q 450 685 450 684 C 420 680 436 658 466 653 Z" style="fill: #0070C0;"></path>
                                                                        <path d="M 450 684 Q 438 693 421 699 Q 405 708 393 703 Q 383 696 389 684 Q 437 609 379 334 Q 376 324 373 311 Q 340 212 277 104 Q 273 98 271 92 Q 270 83 279 85 Q 312 94 379 217 Q 386 235 396 254 Q 447 387 460 616 Q 463 650 466 653 C 470 672 470 672 450 684 Z" style="fill: #0070C0;"></path>
                                                                        <path d="M 497 547 Q 521 508 528 507 Q 535 506 542 513 Q 548 523 547 545 Q 544 563 503 581 Q 493 587 488 586 Q 484 585 482 575 Q 483 566 497 547 Z" style="fill: #0070C0;"></path>
                                                                        <path d="M 594 491 Q 646 573 655 583 Q 667 592 660 600 Q 653 613 630 629 Q 620 638 606 633 Q 599 630 602 621 Q 611 594 572 502 Q 566 490 565 481 C 559 452 578 466 594 491 Z" style="fill: #0070C0;"></path>
                                                                        <path d="M 552 441 Q 642 465 644 467 Q 651 473 647 479 Q 641 488 619 492 Q 606 493 594 491 L 565 481 Q 499 463 480 461 Q 453 454 474 443 Q 492 434 524 434 L 552 441 Z" style="fill: #0070C0;"></path>
                                                                        <path d="M 565 251 Q 565 270 605 271 Q 605 272 608 271 C 638 272 642 303 612 299 Q 590 296 572 291 L 533 282 Q 532 282 532 281 Q 507 275 486 267 Q 477 266 480 276 Q 492 333 488 342 Q 478 354 463 365 Q 456 369 449 368 Q 442 367 446 353 Q 456 322 449 294 Q 443 266 431 255 Q 418 243 423 234 Q 430 224 442 217 Q 451 211 458 217 Q 473 235 528 250 C 557 258 562 241 565 251 Z" style="fill: #0070C0;"></path>
                                                                        <path d="M 608 271 Q 609 258 615 248 Q 619 241 628 246 Q 631 249 664 347 Q 671 360 659 371 Q 650 380 640 387 Q 633 391 625 389 Q 619 386 620 376 Q 623 337 612 299 L 608 271 Z" style="fill: #0070C0;"></path>
                                                                        <path d="M 528 250 Q 504 153 430 87 Q 420 78 417 73 Q 416 69 424 68 Q 451 68 498 114 Q 550 168 565 251 L 572 291 Q 578 333 582 384 Q 586 397 587 406 Q 591 421 577 429 Q 562 436 552 441 C 525 454 514 460 524 434 Q 545 392 533 282 L 528 250 Z" style="fill: #0070C0;"></path>
                                                                        <path d="M 714 486 Q 733 517 754 559 Q 764 581 773 593 Q 779 602 773 612 Q 769 621 744 635 Q 722 645 708 643 Q 695 639 703 624 Q 727 585 645 424 Q 639 415 638 410 Q 637 401 647 405 Q 659 409 697 459 L 714 486 Z" style="fill: #0070C0;"></path>
                                                                        <path d="M 697 459 Q 712 450 747 463 Q 789 487 805 482 Q 817 473 813 466 Q 801 435 789 401 Q 792 397 801 406 Q 871 455 903 466 Q 910 467 911 473 Q 911 483 852 518 Q 830 530 819 524 Q 779 505 714 486 C 685 477 669 469 697 459 Z" style="fill: #0070C0;"></path>
                                                                        <path d="M 741 248 Q 747 320 764 352 Q 771 368 757 374 Q 720 404 694 395 Q 682 391 688 378 Q 712 341 690 235 Q 668 153 571 77 Q 561 68 571 67 Q 613 67 670 119 Q 710 155 731 215 L 741 248 Z" style="fill: #0070C0;"></path>
                                                                        <path d="M 731 215 Q 768 146 815 71 Q 828 55 849 54 Q 924 50 948 52 Q 955 53 956 57 Q 957 61 948 67 Q 842 133 784 197 Q 763 221 741 248 C 722 271 717 241 731 215 Z" style="fill: #0070C0;"></path>
                                    
                                    
                                                                                                                                                                                                                                                                                                                                                                                                                                                                                                                                                                                                                                                                                                                                                                                                                                                                                                                                                                                                                                                                                                                                                                                                                                                                                                                                            </g>
                            </svg>