<svg width='83' height='83' >
                                <g transform="translate(3, 70) scale(0.07, -0.07)">
                                    <!-- 先将完整的字以灰色字体绘制完成，层级位于下面 -->
                                                                        <path d="M 250 533 Q 269 540 293 546 Q 321 556 325 560 Q 332 567 328 574 Q 321 584 295 588 Q 273 591 251 581 L 213 565 Q 150 544 97 533 Q 66 526 89 512 Q 122 500 183 514 Q 190 517 204 519 L 250 533 Z" style="fill: #0070C0;"></path>
                                                                        <path d="M 248 434 Q 248 480 250 533 L 251 581 Q 251 677 271 747 Q 284 768 261 787 Q 246 797 220 814 Q 199 829 180 815 Q 176 811 181 796 Q 212 750 213 702 Q 213 638 213 565 L 209 416 Q 206 346 206 268 Q 202 193 182 125 Q 173 94 180 75 Q 186 54 194 32 Q 201 16 208 13 Q 212 7 220 14 Q 227 18 237 38 Q 246 60 245 89 Q 244 128 248 406 L 248 434 Z" style="fill: #0070C0;"></path>
                                                                        <path d="M 204 519 Q 170 402 46 215 Q 42 205 52 206 Q 56 205 65 213 Q 161 309 209 416 C 271 550 213 548 204 519 Z" style="fill: #0070C0;"></path>
                                                                        <path d="M 248 406 Q 290 360 305 358 Q 315 357 321 371 Q 322 381 315 397 Q 300 422 248 434 C 219 441 228 428 248 406 Z" style="fill: #0070C0;"></path>
                                                                        <path d="M 416 472 Q 388 473 366 474 Q 335 473 351 493 Q 400 586 448 656 Q 458 671 456 677 Q 455 687 421 711 Q 408 721 393 718 Q 384 715 390 703 Q 405 669 343 540 Q 330 510 299 480 Q 286 468 286 459 Q 290 444 301 430 Q 310 423 320 428 Q 336 438 395 450 Q 399 451 403 450 C 433 452 446 471 416 472 Z" style="fill: #0070C0;"></path>
                                                                        <path d="M 403 450 Q 331 336 307 321 Q 297 314 299 302 Q 300 292 322 276 Q 332 266 343 277 Q 382 310 450 338 Q 466 342 467 350 Q 468 357 453 354 Q 419 348 378 335 Q 354 325 369 346 Q 397 389 463 476 Q 485 507 504 526 Q 514 533 508 542 Q 499 557 471 571 Q 458 578 450 576 Q 443 572 445 560 Q 446 536 416 472 L 403 450 Z" style="fill: #0070C0;"></path>
                                                                        <path d="M 282 190 Q 272 189 272 181 Q 271 171 278 165 Q 296 155 321 142 Q 328 141 337 147 Q 365 172 458 220 Q 473 227 483 237 Q 492 244 492 250 Q 488 254 479 252 Q 320 192 282 190 Z" style="fill: #0070C0;"></path>
                                                                        <path d="M 638 713 Q 684 773 685 774 Q 684 786 655 813 Q 642 825 627 823 Q 618 822 623 808 Q 632 778 567 674 Q 554 652 526 631 Q 510 621 511 611 Q 514 595 524 580 Q 531 571 542 576 Q 590 594 680 594 C 710 594 719 611 689 613 Q 635 617 591 619 Q 563 620 579 637 Q 601 668 625 697 L 638 713 Z" style="fill: #0070C0;"></path>
                                                                        <path d="M 686 545 Q 773 647 806 672 Q 822 679 813 693 Q 803 705 771 726 Q 758 733 744 725 Q 693 710 638 713 C 608 714 601 714 625 697 Q 632 690 647 685 Q 654 684 708 686 Q 715 686 717 684 Q 721 680 715 669 Q 702 639 689 613 L 680 594 Q 662 560 650 537 Q 649 537 649 536 C 634 510 667 522 686 545 Z" style="fill: #0070C0;"></path>
                                                                        <path d="M 636 500 Q 729 530 862 529 Q 880 529 885 537 Q 888 547 874 557 Q 825 585 770 566 Q 734 557 686 545 L 649 536 Q 579 523 504 506 Q 488 503 501 491 Q 525 470 559 480 Q 574 486 595 490 L 636 500 Z" style="fill: #0070C0;"></path>
                                                                        <path d="M 599 424 Q 609 434 619 443 Q 653 482 653 487 Q 650 496 636 500 C 608 510 604 512 595 490 Q 577 442 491 369 Q 476 359 495 361 Q 523 365 579 406 L 599 424 Z" style="fill: #0070C0;"></path>
                                                                        <path d="M 696 281 Q 714 212 686 121 Q 676 84 663 77 Q 653 71 606 81 Q 566 90 564 84 Q 563 77 574 66 Q 626 23 648 -8 Q 660 -24 674 -21 Q 719 -3 742 110 Q 755 197 744 258 L 712 336 L 700 352 Q 657 404 599 424 C 571 435 553 420 579 406 Q 594 399 606 390 L 650 355 Q 660 346 669 334 L 696 281 Z" style="fill: #0070C0;"></path>
                                                                        <path d="M 606 390 Q 605 389 605 385 Q 584 340 488 276 Q 472 269 491 268 Q 540 264 620 330 Q 641 348 650 355 C 673 374 613 419 606 390 Z" style="fill: #0070C0;"></path>
                                                                        <path d="M 644 290 L 516 153 Q 483 129 436 94 Q 423 84 432 81 Q 439 77 452 81 Q 560 115 661 237 Q 694 276 694 278 Q 695 279 696 281 C 713 306 685 360 669 334 Q 668 334 668 333 Q 656 312 646 293 Q 645 293 645 292 Q 644 291 644 290 Z" style="fill: #0070C0;"></path>
                                                                        <path d="M 712 336 Q 742 354 806 398 Q 822 411 844 420 Q 863 427 854 444 Q 844 459 820 472 Q 801 485 789 482 Q 777 481 781 469 Q 782 450 717 371 Q 708 362 700 352 C 681 329 686 320 712 336 Z" style="fill: #0070C0;"></path>
                                                                        <path d="M 744 258 Q 790 200 845 136 Q 860 123 883 124 Q 962 133 988 139 Q 995 140 996 145 Q 996 149 986 154 Q 869 196 774 276 Q 762 286 712 336 C 691 357 725 281 744 258 Z" style="fill: #0070C0;"></path>
                                    
                                    
                                                                                                                                                                                                                                                                                                                                                                                                                                                                                                                                                                                                                                                                                                                                                                                                                                                                                                                                                                                                                                                                                                                                                                                                                                                                                                                                            </g>
                            </svg>