<svg width='83' height='83' >
                                <g transform="translate(3, 70) scale(0.07, -0.07)">
                                    <!-- 先将完整的字以灰色字体绘制完成，层级位于下面 -->
                                                                        <path d="M 278 504 Q 291 510 310 515 Q 341 525 346 530 Q 353 539 348 546 Q 341 556 313 560 Q 295 561 279 556 L 238 538 Q 169 513 93 495 Q 60 486 85 473 Q 118 458 195 479 Q 210 483 227 488 L 278 504 Z" style="fill: #0070C0;"></path>
                                                                        <path d="M 276 443 Q 276 473 278 504 L 279 556 Q 279 664 300 736 Q 313 760 286 780 Q 271 792 247 806 Q 225 822 206 807 Q 200 803 207 788 Q 237 743 238 666 Q 238 603 238 538 L 232 379 Q 228 205 210 139 Q 189 88 218 25 Q 224 9 231 5 Q 237 -1 244 6 Q 251 10 261 30 Q 271 54 270 83 Q 269 122 275 409 L 276 443 Z" style="fill: #0070C0;"></path>
                                                                        <path d="M 227 488 Q 191 364 53 156 Q 49 146 59 146 Q 80 146 172 272 Q 203 318 232 379 C 300 520 236 517 227 488 Z" style="fill: #0070C0;"></path>
                                                                        <path d="M 275 409 Q 324 355 334 353 Q 341 352 346 361 Q 350 371 347 391 Q 344 407 322 421 Q 301 434 276 443 C 248 453 255 431 275 409 Z" style="fill: #0070C0;"></path>
                                                                        <path d="M 445 612 Q 467 640 482 659 Q 528 723 543 735 Q 559 750 545 762 Q 529 772 502 779 Q 477 783 468 778 Q 458 774 464 763 Q 477 735 416 603 C 403 576 426 588 445 612 Z" style="fill: #0070C0;"></path>
                                                                        <path d="M 388 597 Q 379 601 360 604 Q 351 605 348 602 Q 344 598 350 585 Q 375 531 390 445 Q 391 418 407 401 Q 420 385 425 396 Q 428 405 428 416 L 427 437 Q 424 452 417 494 L 412 516 Q 405 556 404 572 C 402 592 402 592 388 597 Z" style="fill: #0070C0;"></path>
                                                                        <path d="M 541 434 Q 541 430 544 424 Q 548 411 559 413 Q 569 414 575 427 Q 585 443 599 516 Q 609 558 636 583 Q 651 596 637 608 Q 622 621 581 639 Q 562 648 445 612 L 416 603 Q 400 600 388 597 C 359 590 375 565 404 572 Q 548 608 556 604 Q 565 600 562 573 Q 550 479 543 454 L 541 434 Z" style="fill: #0070C0;"></path>
                                                                        <path d="M 417 494 Q 418 494 421 494 Q 472 504 510 511 Q 529 515 521 526 Q 511 536 490 539 Q 457 542 412 516 C 386 501 387 494 417 494 Z" style="fill: #0070C0;"></path>
                                                                        <path d="M 428 416 Q 494 426 541 434 C 570 439 569 439 543 454 Q 537 458 527 460 Q 506 461 427 437 C 398 428 398 411 428 416 Z" style="fill: #0070C0;"></path>
                                                                        <path d="M 499 336 Q 499 363 478 375 Q 456 393 445 397 Q 439 400 436 392 Q 433 383 468 329 L 470 327 C 491 305 500 306 499 336 Z" style="fill: #0070C0;"></path>
                                                                        <path d="M 452 289 Q 486 301 585 318 Q 592 318 599 328 Q 599 337 581 344 Q 542 356 499 336 L 470 327 Q 467 327 464 326 Q 431 317 322 294 Q 300 290 318 278 Q 327 271 338 266 Q 344 263 418 281 L 452 289 Z" style="fill: #0070C0;"></path>
                                                                        <path d="M 451 241 Q 497 235 508 219 Q 520 200 482 118 Q 469 85 453 80 Q 441 76 404 87 Q 373 99 370 94 Q 366 87 381 78 Q 417 51 428 21 Q 432 8 441 3 Q 451 -1 478 17 Q 514 44 541 140 Q 551 180 568 196 Q 577 200 578 207 Q 579 214 562 235 Q 538 262 492 261 Q 474 267 465 267 C 435 271 421 246 451 241 Z" style="fill: #0070C0;"></path>
                                                                        <path d="M 465 267 Q 464 268 464 271 Q 458 283 452 289 C 433 312 428 309 418 281 Q 393 203 287 105 Q 283 102 281 98 Q 281 94 285 94 Q 355 115 451 241 C 467 262 467 262 465 267 Z" style="fill: #0070C0;"></path>
                                                                        <path d="M 679 498 Q 682 505 687 513 Q 718 568 750 652 Q 762 691 775 710 Q 782 722 775 733 Q 768 743 739 758 Q 712 768 695 765 Q 679 761 691 742 Q 718 708 664 560 Q 639 493 600 417 Q 593 405 592 400 Q 591 390 603 394 Q 627 404 670 483 L 679 498 Z" style="fill: #0070C0;"></path>
                                                                        <path d="M 783 478 Q 903 515 905 517 Q 912 524 908 533 Q 901 543 871 548 Q 843 552 814 537 Q 787 527 757 517 Q 724 507 686 501 Q 680 500 679 498 C 657 488 657 488 670 483 Q 712 465 738 468 L 783 478 Z" style="fill: #0070C0;"></path>
                                                                        <path d="M 747 236 Q 747 237 748 237 Q 763 267 794 378 Q 794 402 814 436 Q 823 452 809 460 Q 794 472 783 478 C 758 494 729 497 738 468 Q 760 417 721 289 Q 718 286 718 281 Q 717 278 715 275 L 696 234 Q 645 159 550 95 Q 549 95 548 94 Q 536 87 547 83 Q 593 79 670 140 Q 701 165 722 193 L 747 236 Z" style="fill: #0070C0;"></path>
                                                                        <path d="M 722 193 Q 759 133 795 82 Q 807 64 829 62 Q 949 61 958 70 Q 962 74 954 80 Q 816 155 751 231 Q 748 234 747 236 L 715 275 Q 687 309 658 352 Q 651 367 636 369 Q 614 373 608 366 Q 605 362 611 356 Q 639 337 654 306 Q 675 269 696 234 L 722 193 Z" style="fill: #0070C0;"></path>
                                    
                                    
                                                                                                                                                                                                                                                                                                                                                                                                                                                                                                                                                                                                                                                                                                                                                                                                                                                                                                                                                                                                                                                                                                                                                                                                                                                                                                                                                                                                                        </g>
                            </svg>