<svg width='83' height='83' >
                                <g transform="translate(3, 70) scale(0.07, -0.07)">
                                    <!-- 先将完整的字以灰色字体绘制完成，层级位于下面 -->
                                                                        <path d="M 293 520 Q 318 529 348 536 Q 384 546 389 553 Q 396 560 392 569 Q 385 579 355 585 Q 327 588 298 574 Q 295 573 295 572 L 252 555 Q 141 525 106 517 Q 72 508 98 494 Q 143 475 193 491 Q 211 497 233 502 L 293 520 Z" style="fill: #0070C0;"></path>
                                                                        <path d="M 246 416 Q 242 346 242 268 Q 238 192 216 121 Q 203 79 229 22 Q 235 4 243 1 Q 249 -5 256 3 Q 263 7 274 27 Q 284 52 283 82 Q 283 122 290 423 L 291 450 Q 291 484 293 520 L 295 572 Q 295 686 317 758 Q 332 783 302 803 Q 287 815 262 829 Q 240 847 219 831 Q 215 827 220 811 Q 251 763 252 714 Q 253 644 253 562 Q 252 559 252 555 L 246 416 Z" style="fill: #0070C0;"></path>
                                                                        <path d="M 233 502 Q 187 367 50 176 Q 46 166 56 166 Q 74 166 173 290 Q 212 342 246 416 C 300 532 243 530 233 502 Z" style="fill: #0070C0;"></path>
                                                                        <path d="M 290 423 Q 308 411 353 371 Q 363 361 374 362 Q 381 363 385 373 Q 389 383 382 405 Q 373 429 296 450 Q 293 451 291 450 C 261 448 265 440 290 423 Z" style="fill: #0070C0;"></path>
                                                                        <path d="M 657 710 Q 694 720 737 728 Q 774 737 779 742 Q 788 749 783 757 Q 776 767 750 774 Q 716 780 662 755 L 612 741 Q 609 742 608 741 Q 559 728 500 722 Q 466 716 491 701 Q 527 682 590 696 Q 600 699 614 700 L 657 710 Z" style="fill: #0070C0;"></path>
                                                                        <path d="M 651 653 Q 654 683 657 710 L 662 755 Q 662 764 676 830 Q 679 840 662 852 Q 634 868 612 872 Q 599 875 592 867 Q 585 861 592 848 Q 607 829 612 741 L 614 700 Q 614 673 614 644 C 614 614 648 623 651 653 Z" style="fill: #0070C0;"></path>
                                                                        <path d="M 614 644 Q 568 634 527 623 Q 511 620 530 607 Q 540 600 561 603 Q 664 619 739 631 Q 760 634 753 645 Q 743 658 721 663 Q 694 666 651 653 L 614 644 Z" style="fill: #0070C0;"></path>
                                                                        <path d="M 470 503 Q 584 545 750 566 Q 783 570 794 569 Q 810 568 809 558 Q 809 555 778 495 Q 771 483 775 480 Q 782 477 797 486 Q 845 516 883 525 Q 914 532 915 541 Q 912 550 853 596 Q 829 617 725 591 Q 695 590 508 550 Q 465 541 422 534 Q 394 533 411 517 Q 441 495 470 503 Z" style="fill: #0070C0;"></path>
                                                                        <path d="M 637 471 Q 670 478 700 482 Q 721 486 713 497 Q 703 510 681 514 Q 668 515 518 475 Q 503 472 522 459 Q 531 452 549 456 Q 571 460 594 464 L 637 471 Z" style="fill: #0070C0;"></path>
                                                                        <path d="M 637 410 L 637 471 C 637 501 594 494 594 464 L 594 400 C 594 370 637 380 637 410 Z" style="fill: #0070C0;"></path>
                                                                        <path d="M 594 400 Q 584 400 479 384 Q 458 383 474 370 Q 496 352 518 356 Q 626 380 756 397 Q 763 396 770 405 Q 770 414 754 421 Q 733 434 652 414 Q 645 413 637 410 L 594 400 Z" style="fill: #0070C0;"></path>
                                                                        <path d="M 363 297 Q 344 294 358 279 Q 371 267 389 263 Q 408 259 423 263 Q 640 333 915 334 Q 916 334 918 334 Q 937 335 941 343 Q 945 355 929 367 Q 880 400 845 391 Q 712 357 363 297 Z" style="fill: #0070C0;"></path>
                                                                        <path d="M 411 209 Q 402 213 380 215 Q 370 216 368 212 Q 364 208 371 195 Q 392 161 408 104 Q 411 88 423 76 Q 438 60 441 73 Q 442 80 442 91 L 438 117 Q 426 172 425 188 C 423 205 423 205 411 209 Z" style="fill: #0070C0;"></path>
                                                                        <path d="M 546 135 Q 559 181 574 194 Q 592 213 574 224 Q 559 233 539 246 Q 526 252 481 230 Q 439 217 411 209 C 382 201 396 180 425 188 L 492 206 Q 511 210 516 203 Q 519 200 508 140 C 503 110 538 106 546 135 Z" style="fill: #0070C0;"></path>
                                                                        <path d="M 442 91 Q 443 92 445 91 Q 455 90 465 93 Q 493 100 556 109 Q 565 110 565 118 Q 565 125 546 135 C 530 144 530 144 508 140 Q 501 139 497 137 Q 463 125 438 117 C 409 108 412 92 442 91 Z" style="fill: #0070C0;"></path>
                                                                        <path d="M 789 221 Q 847 231 898 238 Q 920 241 913 253 Q 903 266 879 272 Q 867 275 800 263 L 742 249 Q 672 237 611 224 Q 595 221 614 206 Q 627 196 657 201 Q 702 208 744 215 L 789 221 Z" style="fill: #0070C0;"></path>
                                                                        <path d="M 744 215 Q 748 65 734 54 Q 727 48 661 63 Q 651 64 651 59 Q 652 53 661 46 Q 721 -6 740 -38 Q 753 -51 766 -40 Q 797 -6 793 81 Q 784 181 789 221 L 800 263 Q 803 276 791 285 Q 769 303 744 312 Q 728 318 722 311 Q 716 305 726 292 Q 738 273 742 249 L 744 215 Z" style="fill: #0070C0;"></path>
                                                                        <path d="M 622 145 Q 641 129 662 110 Q 674 100 686 101 Q 693 102 697 112 Q 701 124 693 147 Q 689 160 665 170 Q 613 188 600 183 Q 596 179 598 169 Q 601 162 622 145 Z" style="fill: #0070C0;"></path>
                                    
                                    
                                                                                                                                                                                                                                                                                                                                                                                                                                                                                                                                                                                                                                                                                                                                                                                                                                                                                                                                                                                                                                                                                                                                                                                                                                                                                                                                                                                                                                                                                                    </g>
                            </svg>