<svg width='83' height='83' >
                                <g transform="translate(3, 70) scale(0.07, -0.07)">
                                    <!-- 先将完整的字以灰色字体绘制完成，层级位于下面 -->
                                                                        <path d="M 398 575 Q 416 606 431 637 Q 464 707 496 765 Q 506 781 488 797 Q 433 833 404 826 Q 391 822 395 805 Q 419 667 274 478 Q 250 454 204 394 Q 197 375 214 382 Q 278 400 376 541 L 398 575 Z" style="fill: #0070C0;"></path>
                                                                        <path d="M 376 541 Q 395 525 443 539 Q 558 570 663 594 Q 700 598 702 582 Q 701 560 655 478 Q 648 462 655 457 Q 662 453 676 466 Q 766 545 803 563 Q 833 573 830 590 Q 829 603 747 642 Q 719 654 627 624 Q 480 591 398 575 C 369 569 349 553 376 541 Z" style="fill: #0070C0;"></path>
                                                                        <path d="M 523 312 Q 529 336 533 360 Q 537 390 543 408 Q 549 421 540 430 Q 519 452 495 461 Q 473 473 462 469 Q 452 465 455 453 Q 494 321 417 188 Q 410 178 400 166 Q 331 88 163 31 Q 151 30 147 25 Q 141 21 151 15 Q 157 14 172 15 Q 274 27 346 65 Q 460 116 513 273 L 523 312 Z" style="fill: #0070C0;"></path>
                                                                        <path d="M 513 273 Q 618 111 701 19 Q 725 -9 749 -8 Q 818 -1 878 4 Q 903 7 904 13 Q 905 20 876 34 Q 728 98 686 137 Q 604 210 523 312 C 504 335 497 298 513 273 Z" style="fill: #0070C0;"></path>
                                    
                                    
                                                                                                                                                                                                                                                                                                                                                                                            </g>
                            </svg>