<svg width='83' height='83' >
                                <g transform="translate(3, 70) scale(0.07, -0.07)">
                                    <!-- 先将完整的字以灰色字体绘制完成，层级位于下面 -->
                                                                        <path d="M 218 589 Q 245 561 273 528 Q 286 512 305 511 Q 318 510 324 525 Q 331 541 324 576 Q 320 598 287 617 Q 208 653 192 647 Q 186 643 186 629 Q 190 616 218 589 Z" style="fill: #0070C0;"></path>
                                                                        <path d="M 171 243 Q 161 228 144 231 Q 134 234 125 238 Q 107 245 107 223 Q 125 148 170 134 Q 188 130 198 154 Q 231 232 334 395 Q 347 408 346 419 Q 346 432 330 423 Q 249 333 171 243 Z" style="fill: #0070C0;"></path>
                                                                        <path d="M 530 587 Q 548 623 561 658 Q 583 719 606 771 Q 615 787 596 800 Q 542 828 515 820 Q 502 816 508 799 Q 541 685 438 514 Q 411 478 387 438 Q 381 419 397 427 Q 437 440 514 558 L 530 587 Z" style="fill: #0070C0;"></path>
                                                                        <path d="M 514 558 Q 535 539 561 547 Q 624 572 695 586 Q 731 596 743 592 Q 759 582 755 572 Q 755 566 692 473 Q 685 463 689 456 Q 693 452 705 462 Q 820 544 870 563 Q 883 566 883 576 Q 884 589 854 607 Q 832 623 807 638 Q 779 656 762 648 Q 674 612 530 587 C 500 582 489 575 514 558 Z" style="fill: #0070C0;"></path>
                                                                        <path d="M 568 334 Q 572 350 576 369 Q 580 391 586 402 Q 593 409 587 420 Q 581 427 551 439 Q 517 455 502 450 Q 489 444 500 427 Q 527 355 495 268 Q 455 151 304 80 Q 280 70 253 58 Q 228 46 258 44 Q 349 41 453 114 Q 466 126 479 140 Q 530 195 559 297 L 568 334 Z" style="fill: #0070C0;"></path>
                                                                        <path d="M 559 297 Q 667 132 750 46 Q 774 19 797 20 Q 863 29 920 36 Q 944 39 944 45 Q 945 52 917 65 Q 767 134 739 157 Q 657 227 568 334 C 549 357 543 322 559 297 Z" style="fill: #0070C0;"></path>
                                    
                                    
                                                                                                                                                                                                                                                                                                                                                                                                                                                                                                                                                    </g>
                            </svg>