<svg width='83' height='83' >
                                <g transform="translate(3, 70) scale(0.07, -0.07)">
                                    <!-- 先将完整的字以灰色字体绘制完成，层级位于下面 -->
                                                                        <path d="M 269 623 Q 324 605 376 620 Q 490 650 493 653 Q 502 663 496 672 Q 487 684 456 689 Q 423 693 392 678 Q 368 668 342 661 Q 314 654 279 649 Q 275 649 274 647 C 246 638 240 632 269 623 Z" style="fill: #0070C0;"></path>
                                                                        <path d="M 225 414 Q 264 439 379 454 Q 392 455 397 451 Q 418 430 412 389 Q 405 299 374 178 Q 365 153 346 138 Q 337 132 254 148 Q 235 155 235 146 Q 234 136 256 121 Q 298 81 315 45 Q 337 14 361 35 Q 416 77 436 141 Q 439 154 466 362 Q 470 408 489 429 Q 504 445 497 454 Q 487 467 439 491 Q 405 509 258 464 Q 237 468 246 480 Q 256 562 269 623 L 274 647 Q 286 705 300 740 Q 307 756 297 768 Q 281 784 264 791 Q 240 801 231 796 Q 222 790 228 776 Q 255 725 201 503 Q 194 490 171 464 Q 159 451 168 438 Q 177 426 198 411 Q 208 402 225 414 Z" style="fill: #0070C0;"></path>
                                                                        <path d="M 84 279 Q 71 275 68 267 Q 67 254 85 245 Q 133 221 173 242 Q 249 281 352 311 Q 368 315 369 323 Q 368 338 347 344 Q 316 353 293 344 Q 140 290 84 279 Z" style="fill: #0070C0;"></path>
                                                                        <path d="M 601 541 Q 619 560 659 694 Q 669 734 682 756 Q 688 769 679 780 Q 672 790 639 805 Q 608 815 590 810 Q 574 803 587 784 Q 638 729 518 439 Q 511 427 511 420 Q 511 408 523 415 Q 545 424 587 510 L 601 541 Z" style="fill: #0070C0;"></path>
                                                                        <path d="M 587 510 Q 597 501 637 510 Q 734 550 757 543 Q 772 531 766 521 Q 766 518 731 444 Q 724 434 729 429 Q 733 423 744 435 Q 837 505 879 522 Q 889 525 889 533 Q 890 546 861 561 Q 789 606 765 590 Q 701 563 601 541 C 572 534 559 520 587 510 Z" style="fill: #0070C0;"></path>
                                                                        <path d="M 649 275 Q 649 282 651 288 Q 664 369 675 390 Q 684 408 668 416 Q 623 449 596 440 Q 583 436 590 421 Q 620 361 587 238 Q 551 124 464 66 Q 449 54 435 43 Q 422 34 435 32 Q 486 32 555 96 Q 609 147 640 240 L 649 275 Z" style="fill: #0070C0;"></path>
                                                                        <path d="M 640 240 Q 692 146 762 44 Q 778 25 804 25 Q 897 24 926 27 Q 935 28 936 33 Q 937 37 926 45 Q 805 106 728 188 Q 689 227 649 275 C 630 298 625 266 640 240 Z" style="fill: #0070C0;"></path>
                                    
                                    
                                                                                                                                                                                                                                                                                                                                                                                                                                                                                                                                                                                                                                </g>
                            </svg>