<svg width='83' height='83' >
                                <g transform="translate(3, 70) scale(0.07, -0.07)">
                                    <!-- 先将完整的字以灰色字体绘制完成，层级位于下面 -->
                                                                        <path d="M 249 733 Q 259 694 191 594 Q 188 594 188 591 Q 169 566 117 514 Q 110 510 119 507 Q 209 540 307 684 Q 313 693 317 696 Q 323 700 321 709 Q 320 716 309 727 Q 279 751 254 746 Q 247 745 249 733 Z" style="fill: #0070C0;"></path>
                                                                        <path d="M 413 698 Q 447 674 482 645 Q 495 635 508 636 Q 518 637 521 648 Q 525 661 515 687 Q 503 720 407 739 Q 394 742 388 739 Q 384 735 385 724 Q 389 714 413 698 Z" style="fill: #0070C0;"></path>
                                                                        <path d="M 210 311 Q 214 317 220 323 Q 256 363 352 499 L 364 519 Q 379 541 389 553 Q 396 566 394 574 Q 390 586 364 590 Q 337 597 326 592 Q 319 591 318 577 Q 300 451 60 216 Q 51 209 43 200 Q 25 184 50 190 Q 108 205 192 291 L 210 311 Z" style="fill: #0070C0;"></path>
                                                                        <path d="M 352 499 Q 410 459 483 398 Q 496 385 509 382 Q 516 382 520 390 Q 529 402 515 433 Q 500 478 364 519 C 335 528 327 516 352 499 Z" style="fill: #0070C0;"></path>
                                                                        <path d="M 247 302 Q 237 308 210 311 C 181 315 181 315 192 291 Q 220 230 237 132 Q 240 102 257 83 Q 273 62 278 77 Q 285 95 281 129 L 275 160 Q 260 245 257 274 C 254 299 254 299 247 302 Z" style="fill: #0070C0;"></path>
                                                                        <path d="M 440 188 Q 456 261 478 285 Q 500 310 476 324 Q 457 334 430 352 Q 411 362 393 350 Q 342 319 247 302 C 218 297 228 267 257 274 Q 272 277 365 301 Q 393 308 400 297 Q 407 291 402 258 Q 396 228 391 193 C 387 163 433 159 440 188 Z" style="fill: #0070C0;"></path>
                                                                        <path d="M 281 129 Q 287 128 296 131 Q 345 144 450 159 Q 460 160 461 169 Q 461 176 440 188 C 417 202 417 202 391 193 L 388 192 Q 324 171 275 160 C 246 153 251 129 281 129 Z" style="fill: #0070C0;"></path>
                                                                        <path d="M 637 570 Q 665 618 693 685 Q 706 719 719 738 Q 726 750 720 762 Q 713 774 683 790 Q 655 803 636 799 Q 620 795 630 775 Q 655 742 603 604 Q 578 541 541 470 Q 534 460 532 453 Q 531 441 544 446 Q 566 456 625 550 L 637 570 Z" style="fill: #0070C0;"></path>
                                                                        <path d="M 625 550 L 626 549 Q 648 527 673 537 Q 716 556 764 569 Q 789 576 797 575 Q 810 562 804 553 Q 804 549 771 481 Q 764 471 769 465 Q 773 459 785 471 Q 879 538 921 553 Q 931 554 932 563 Q 932 575 857 619 Q 829 634 814 626 Q 748 596 637 570 C 609 563 609 563 625 550 Z" style="fill: #0070C0;"></path>
                                                                        <path d="M 671 289 Q 678 325 687 371 Q 690 393 694 403 Q 701 409 695 419 Q 691 426 663 436 Q 633 451 619 446 Q 609 440 617 425 Q 651 248 542 145 Q 514 117 439 77 Q 417 64 444 65 Q 486 62 559 105 Q 629 144 663 258 L 671 289 Z" style="fill: #0070C0;"></path>
                                                                        <path d="M 663 258 Q 793 41 834 33 Q 931 33 970 39 Q 979 40 980 45 Q 981 49 969 57 Q 834 123 781 176 Q 732 224 678 282 Q 674 286 671 289 C 650 310 648 284 663 258 Z" style="fill: #0070C0;"></path>
                                    
                                    
                                                                                                                                                                                                                                                                                                                                                                                                                                                                                                                                                                                                                                                                                                                                                                                                                                                                                                                                                </g>
                            </svg>