<svg width='83' height='83' >
                                <g transform="translate(3, 70) scale(0.07, -0.07)">
                                    <!-- 先将完整的字以灰色字体绘制完成，层级位于下面 -->
                                                                        <path d="M 149 604 Q 171 573 195 537 Q 204 524 217 521 Q 226 520 233 529 Q 240 541 239 567 Q 236 600 155 645 Q 142 652 136 651 Q 132 648 130 637 Q 131 627 149 604 Z" style="fill: #0070C0;"></path>
                                                                        <path d="M 440 698 Q 421 667 379 616 Q 375 609 379 603 Q 386 602 393 606 Q 471 658 509 678 Q 525 682 521 693 Q 517 708 498 726 Q 480 742 459 745 Q 446 744 446 726 Q 447 713 440 698 Z" style="fill: #0070C0;"></path>
                                                                        <path d="M 278 792 Q 314 744 291 603 Q 267 494 153 390 Q 143 380 154 379 Q 208 385 268 456 Q 296 487 327 560 Q 327 563 329 564 Q 345 610 348 663 Q 351 744 362 771 Q 369 789 353 795 Q 307 822 282 811 Q 270 805 278 792 Z" style="fill: #0070C0;"></path>
                                                                        <path d="M 371 524 Q 399 497 430 465 Q 440 455 453 455 Q 460 455 465 465 Q 469 475 464 499 Q 457 533 369 561 Q 357 564 352 563 Q 348 560 348 550 Q 351 541 371 524 Z" style="fill: #0070C0;"></path>
                                                                        <path d="M 115 291 Q 134 264 154 233 Q 164 218 179 216 Q 189 215 197 225 Q 204 238 203 268 Q 202 287 176 306 Q 115 345 100 343 Q 96 340 94 328 Q 95 316 115 291 Z" style="fill: #0070C0;"></path>
                                                                        <path d="M 403 361 Q 390 333 358 287 Q 354 280 359 275 Q 366 274 372 279 Q 436 328 467 348 Q 482 352 477 362 Q 471 375 454 389 Q 436 404 418 404 Q 405 403 407 386 Q 410 374 403 361 Z" style="fill: #0070C0;"></path>
                                                                        <path d="M 254 408 Q 287 356 252 210 Q 215 96 91 -1 Q 78 -11 90 -12 Q 141 -12 216 58 Q 294 131 315 260 Q 315 300 331 354 Q 332 366 340 378 Q 347 397 332 404 Q 287 438 260 427 Q 247 423 254 408 Z" style="fill: #0070C0;"></path>
                                                                        <path d="M 359 188 Q 384 160 412 128 Q 422 115 437 114 Q 447 113 453 125 Q 459 138 454 166 Q 447 196 360 232 Q 347 236 340 235 Q 336 232 335 220 Q 336 210 359 188 Z" style="fill: #0070C0;"></path>
                                                                        <path d="M 583 502 Q 664 652 676 678 Q 689 717 705 737 Q 712 750 706 763 Q 699 776 666 794 Q 635 807 616 804 Q 597 800 609 778 Q 636 742 576 588 Q 548 519 506 441 Q 497 428 496 422 Q 495 409 508 415 Q 526 422 563 473 L 583 502 Z" style="fill: #0070C0;"></path>
                                                                        <path d="M 563 473 Q 582 458 605 466 Q 657 490 716 506 Q 747 516 757 513 Q 770 507 770 498 Q 770 492 736 435 Q 729 426 733 421 Q 736 415 747 426 Q 835 480 873 492 Q 882 493 883 501 Q 884 514 856 529 Q 787 571 774 566 Q 701 532 583 502 C 554 495 537 488 563 473 Z" style="fill: #0070C0;"></path>
                                                                        <path d="M 600 243 Q 625 334 633 346 Q 643 364 627 374 Q 581 411 555 403 Q 540 399 546 384 Q 573 336 533 199 Q 530 192 527 182 Q 484 67 376 1 Q 360 -9 344 -20 Q 331 -29 343 -32 Q 397 -36 478 30 Q 520 61 542 99 Q 584 186 593 212 L 600 243 Z" style="fill: #0070C0;"></path>
                                                                        <path d="M 593 212 Q 663 107 757 -4 Q 775 -23 804 -21 Q 903 -17 934 -10 Q 943 -7 944 -3 Q 945 1 932 9 Q 791 64 721 129 Q 664 178 600 243 C 579 264 576 237 593 212 Z" style="fill: #0070C0;"></path>
                                    
                                    
                                                                                                                                                                                                                                                                                                                                                                                                                                                                                                                                                                                                                                                                                                                                                                                                                                                                                                                                                                                                                            </g>
                            </svg>