<svg width='83' height='83' >
                                <g transform="translate(3, 70) scale(0.07, -0.07)">
                                    <!-- 先将完整的字以灰色字体绘制完成，层级位于下面 -->
                                                                        <path d="M 291 635 Q 348 731 359 741 Q 368 751 363 764 Q 359 776 331 795 Q 306 811 287 810 Q 271 807 279 787 Q 309 730 153 505 Q 144 495 142 489 Q 139 479 152 482 Q 185 488 278 617 L 291 635 Z" style="fill: #0070C0;"></path>
                                                                        <path d="M 278 617 Q 299 608 374 620 Q 401 629 407 623 Q 411 619 405 608 Q 359 520 331 477 Q 321 461 319 453 Q 316 443 329 447 Q 345 454 414 537 Q 457 589 501 619 Q 519 629 507 642 Q 494 655 457 675 Q 441 681 426 671 Q 416 667 336 644 Q 315 640 291 635 C 262 629 249 624 278 617 Z" style="fill: #0070C0;"></path>
                                                                        <path d="M 169 338 Q 272 422 280 425 Q 296 434 286 447 Q 274 460 253 470 Q 234 479 223 476 Q 213 475 217 464 Q 220 449 171 373 Q 164 364 157 353 C 141 328 146 319 169 338 Z" style="fill: #0070C0;"></path>
                                                                        <path d="M 195 137 Q 194 146 182 224 L 178 256 Q 171 314 170 331 Q 170 335 169 338 C 168 348 168 348 157 353 Q 147 360 117 365 Q 104 369 101 364 Q 94 358 102 342 Q 133 266 147 142 Q 148 105 168 80 Q 184 58 191 73 Q 195 86 197 107 L 195 137 Z" style="fill: #0070C0;"></path>
                                                                        <path d="M 182 224 Q 225 234 258 240 Q 280 246 270 257 Q 258 270 234 271 Q 212 271 178 256 C 150 244 153 217 182 224 Z" style="fill: #0070C0;"></path>
                                                                        <path d="M 471 400 Q 434 430 397 413 Q 388 412 376 407 Q 342 397 301 389 Q 292 388 292 379 Q 293 370 308 364 Q 329 357 374 370 Q 413 388 425 383 Q 432 379 432 359 Q 428 320 423 279 L 419 251 Q 410 202 399 150 Q 398 143 390 142 C 371 119 352 133 358 122 Q 371 103 387 63 Q 397 47 411 57 Q 439 70 457 175 Q 481 328 496 353 Q 508 372 493 383 Q 486 389 479 394 L 471 400 Z" style="fill: #0070C0;"></path>
                                                                        <path d="M 423 279 Q 410 292 352 281 Q 342 275 331 271 Q 316 268 333 254 Q 337 250 347 250 Q 387 251 419 251 C 449 251 447 260 423 279 Z" style="fill: #0070C0;"></path>
                                                                        <path d="M 390 142 Q 359 173 287 154 Q 236 145 195 137 C 166 131 167 109 197 107 Q 206 106 216 107 Q 262 117 358 122 C 388 124 409 125 390 142 Z" style="fill: #0070C0;"></path>
                                                                        <path d="M 580 510 Q 583 516 588 522 Q 628 583 670 673 Q 686 715 704 736 Q 711 749 705 762 Q 698 775 666 794 Q 635 809 616 806 Q 597 802 608 780 Q 624 756 618 732 Q 600 653 565 577 Q 531 504 483 421 Q 473 409 472 402 Q 471 401 471 400 C 463 384 463 384 479 394 Q 518 416 569 492 L 580 510 Z" style="fill: #0070C0;"></path>
                                                                        <path d="M 569 492 L 570 490 Q 592 468 617 476 Q 716 516 741 512 Q 757 503 754 493 Q 754 492 711 419 Q 704 410 709 405 Q 712 399 723 410 Q 816 473 857 488 Q 866 489 867 498 Q 868 511 841 526 Q 820 539 799 554 Q 774 570 759 563 Q 692 535 580 510 C 556 505 556 505 569 492 Z" style="fill: #0070C0;"></path>
                                                                        <path d="M 643 293 Q 659 344 663 350 Q 673 366 658 376 Q 616 409 591 403 Q 578 399 583 385 Q 610 331 568 207 Q 529 99 437 47 Q 424 37 408 26 Q 396 19 407 15 Q 491 15 572 115 Q 585 139 601 162 Q 623 202 633 252 Q 634 258 635 262 L 643 293 Z" style="fill: #0070C0;"></path>
                                                                        <path d="M 635 262 Q 698 153 782 35 Q 798 14 827 14 Q 926 11 957 15 Q 967 16 968 21 Q 969 25 957 34 Q 831 94 765 160 Q 707 218 644 293 Q 643 294 643 293 C 622 315 620 288 635 262 Z" style="fill: #0070C0;"></path>
                                    
                                    
                                                                                                                                                                                                                                                                                                                                                                                                                                                                                                                                                                                                                                                                                                                                                                                                                                                                                                                                                                                                                            </g>
                            </svg>