<svg width='83' height='83' >
                                <g transform="translate(3, 70) scale(0.07, -0.07)">
                                    <!-- 先将完整的字以灰色字体绘制完成，层级位于下面 -->
                                                                        <path d="M 505 667 Q 590 683 683 699 Q 744 712 754 720 Q 764 729 759 738 Q 752 751 719 761 Q 686 768 574 734 Q 421 701 321 693 Q 279 689 308 668 Q 354 641 431 655 Q 444 658 460 659 L 505 667 Z" style="fill: #0070C0;"></path>
                                                                        <path d="M 534 154 Q 537 298 539 420 L 540 457 Q 543 634 544 635 Q 543 638 542 638 Q 523 657 505 667 C 480 683 449 687 460 659 Q 484 596 485 591 Q 485 231 484 149 C 484 119 533 124 534 154 Z" style="fill: #0070C0;"></path>
                                                                        <path d="M 539 420 Q 578 411 616 422 Q 757 452 767 457 Q 777 466 772 475 Q 763 488 732 495 Q 699 501 667 487 Q 636 477 603 468 Q 573 462 540 457 C 510 452 510 426 539 420 Z" style="fill: #0070C0;"></path>
                                                                        <path d="M 346 135 Q 322 345 327 402 Q 328 427 312 441 Q 285 459 254 468 Q 238 472 228 465 Q 221 458 228 441 Q 253 399 266 354 Q 276 309 300 131 C 304 101 349 105 346 135 Z" style="fill: #0070C0;"></path>
                                                                        <path d="M 300 131 Q 203 124 100 114 Q 75 113 93 91 Q 109 73 131 66 Q 156 59 176 64 Q 467 131 884 110 Q 885 111 888 110 Q 912 109 918 119 Q 925 134 906 151 Q 839 203 784 190 Q 687 174 534 154 L 484 149 Q 417 143 346 135 L 300 131 Z" style="fill: #0070C0;"></path>
                                    
                                    
                                                                                                                                                                                                                                                                                                                                                                                                                                                                        </g>
                            </svg>