<svg width='83' height='83' >
                                <g transform="translate(3, 70) scale(0.07, -0.07)">
                                    <!-- 先将完整的字以灰色字体绘制完成，层级位于下面 -->
                                                                        <path d="M 317 257 Q 320 372 323 478 L 323 508 Q 326 647 342 705 Q 345 717 324 732 Q 287 751 261 754 Q 245 757 236 748 Q 229 739 238 724 Q 266 684 267 655 Q 280 465 274 244 C 273 214 316 227 317 257 Z" style="fill: #0070C0;"></path>
                                                                        <path d="M 323 478 Q 327 478 333 479 Q 400 497 449 509 Q 473 516 462 528 Q 449 541 422 543 Q 376 543 323 508 C 298 492 293 476 323 478 Z" style="fill: #0070C0;"></path>
                                                                        <path d="M 209 224 Q 190 404 193 442 Q 194 464 180 474 Q 158 490 130 497 Q 117 501 109 494 Q 102 488 109 474 Q 131 440 141 401 Q 151 362 171 213 C 175 183 212 194 209 224 Z" style="fill: #0070C0;"></path>
                                                                        <path d="M 274 244 Q 241 235 209 224 L 171 213 Q 93 192 62 193 Q 49 192 47 181 Q 46 168 54 158 Q 78 142 112 122 Q 122 119 135 128 Q 177 159 376 244 Q 404 256 424 271 Q 437 278 438 288 Q 432 294 420 291 Q 369 275 317 257 L 274 244 Z" style="fill: #0070C0;"></path>
                                                                        <path d="M 644 551 Q 830 600 836 607 Q 845 616 840 624 Q 833 636 802 642 Q 771 646 741 633 Q 695 615 647 599 L 596 585 Q 547 575 492 566 Q 455 559 483 543 Q 528 519 586 537 Q 589 538 596 539 L 644 551 Z" style="fill: #0070C0;"></path>
                                                                        <path d="M 635 404 Q 639 480 644 551 L 647 599 Q 653 723 672 784 Q 676 796 655 811 Q 618 830 593 835 Q 577 839 568 830 Q 561 823 569 807 Q 593 770 593 746 Q 597 670 596 585 L 596 539 Q 595 469 590 390 C 588 360 633 374 635 404 Z" style="fill: #0070C0;"></path>
                                                                        <path d="M 661 168 Q 706 232 746 327 Q 759 357 780 376 Q 799 392 786 406 Q 773 419 740 431 Q 715 440 687 425 Q 663 415 635 404 L 590 390 Q 551 381 499 372 Q 483 371 479 362 Q 475 355 495 347 Q 535 334 588 351 Q 655 379 668 378 Q 690 378 686 355 Q 664 267 622 204 L 597 170 Q 516 80 349 36 Q 334 32 346 23 Q 353 17 404 21 Q 528 30 631 131 L 661 168 Z" style="fill: #0070C0;"></path>
                                                                        <path d="M 631 131 Q 685 68 780 -12 Q 813 -37 860 -27 Q 923 -17 969 -8 Q 984 -5 997 1 Q 1004 10 992 18 Q 974 27 841 63 Q 762 85 661 168 L 622 204 Q 582 243 539 289 Q 517 314 479 320 Q 469 321 460 315 Q 456 308 464 302 Q 471 295 481 291 Q 508 279 597 170 L 631 131 Z" style="fill: #0070C0;"></path>
                                    
                                    
                                                                                                                                                                                                                                                                                                                                                                                                                                                                                                                                                                                                                                                                                                            </g>
                            </svg>