<svg width='83' height='83' >
                                <g transform="translate(3, 70) scale(0.07, -0.07)">
                                    <!-- 先将完整的字以灰色字体绘制完成，层级位于下面 -->
                                                                        <path d="M 637 481 Q 641 560 647 632 L 649 663 Q 649 700 666 768 Q 669 778 650 793 Q 616 811 592 815 Q 576 818 568 810 Q 561 803 569 788 Q 590 760 590 740 Q 599 616 596 472 C 595 442 635 451 637 481 Z" style="fill: #0070C0;"></path>
                                                                        <path d="M 647 632 Q 695 628 797 660 Q 797 661 798 661 Q 805 670 800 677 Q 793 687 763 691 Q 745 692 677 670 Q 664 667 649 663 C 620 655 617 634 647 632 Z" style="fill: #0070C0;"></path>
                                                                        <path d="M 518 457 Q 509 550 514 584 Q 515 605 502 615 Q 480 631 455 638 Q 442 642 435 636 Q 428 630 434 616 Q 449 594 457 569 Q 464 545 480 451 C 485 421 521 427 518 457 Z" style="fill: #0070C0;"></path>
                                                                        <path d="M 627 442 Q 645 445 890 466 Q 909 467 913 475 Q 917 487 901 499 Q 847 533 787 515 Q 726 502 637 481 L 596 472 Q 559 466 518 457 L 480 451 Q 432 444 382 433 Q 363 430 378 415 Q 406 390 461 406 Q 516 424 581 434 L 627 442 Z" style="fill: #0070C0;"></path>
                                                                        <path d="M 639 140 Q 643 219 646 286 L 648 321 Q 651 384 653 393 Q 662 417 627 442 C 603 460 569 461 581 434 Q 593 410 593 384 Q 594 360 595 160 C 595 130 637 110 639 140 Z" style="fill: #0070C0;"></path>
                                                                        <path d="M 646 286 Q 647 286 651 286 Q 736 299 800 307 Q 828 311 817 327 Q 804 343 775 349 Q 739 355 648 321 C 620 311 616 285 646 286 Z" style="fill: #0070C0;"></path>
                                                                        <path d="M 479 224 Q 491 257 509 289 Q 513 299 505 313 Q 469 355 439 351 Q 423 348 432 330 Q 453 281 392 151 Q 367 96 327 39 Q 323 33 323 27 Q 323 23 329 24 Q 374 33 468 200 L 479 224 Z" style="fill: #0070C0;"></path>
                                                                        <path d="M 468 200 Q 735 1 796 -4 Q 901 14 964 39 Q 983 46 984 51 Q 985 58 968 61 Q 907 71 838 81 Q 759 93 696 118 Q 668 128 639 140 L 595 160 Q 570 173 542 188 Q 503 212 479 224 C 452 238 444 218 468 200 Z" style="fill: #0070C0;"></path>
                                    
                                    
                                                                                                                                                                                                                                                                                                                                                                                                                                                                                                                                                                                                                                                                                                            </g>
                            </svg>