<svg width='83' height='83' >
                                <g transform="translate(3, 70) scale(0.07, -0.07)">
                                    <!-- 先将完整的字以灰色字体绘制完成，层级位于下面 -->
                                                                        <path d="M 583 717 Q 623 726 773 736 Q 785 735 795 747 Q 796 760 773 772 Q 730 797 669 779 Q 468 743 270 727 Q 239 724 262 705 Q 298 674 328 681 Q 416 697 525 710 L 583 717 Z" style="fill: #0070C0;"></path>
                                                                        <path d="M 534 632 Q 561 666 586 681 Q 593 684 594 692 Q 594 707 583 717 C 566 742 539 736 525 710 Q 513 686 493 658 L 471 631 Q 387 541 246 462 Q 215 446 175 425 Q 168 424 175 418 Q 238 412 377 499 Q 425 535 481 582 L 534 632 Z" style="fill: #0070C0;"></path>
                                                                        <path d="M 481 582 Q 484 539 477 469 Q 474 441 496 414 Q 506 404 514 414 Q 529 438 530 515 Q 530 576 536 611 Q 539 624 534 632 C 532 638 520 644 493 658 Q 493 659 492 660 Q 480 664 472 659 Q 465 652 468 639 Q 469 636 471 631 L 481 582 Z" style="fill: #0070C0;"></path>
                                                                        <path d="M 631 569 Q 704 529 795 467 Q 814 451 831 451 Q 840 451 845 463 Q 854 479 831 518 Q 804 575 625 599 Q 615 603 616 590 Q 617 577 631 569 Z" style="fill: #0070C0;"></path>
                                                                        <path d="M 520 355 Q 571 364 703 372 Q 713 369 723 382 Q 724 394 703 405 Q 673 429 584 407 Q 508 398 342 380 Q 314 379 334 360 Q 361 333 409 340 Q 439 346 474 349 L 520 355 Z" style="fill: #0070C0;"></path>
                                                                        <path d="M 531 81 Q 534 151 538 210 L 539 238 Q 542 298 544 308 Q 553 332 520 355 C 496 373 463 377 474 349 Q 486 319 486 301 Q 487 279 487 76 C 487 46 530 51 531 81 Z" style="fill: #0070C0;"></path>
                                                                        <path d="M 538 210 Q 547 209 559 209 Q 647 219 711 224 Q 739 228 729 243 Q 717 261 688 267 Q 646 273 539 238 C 510 229 508 213 538 210 Z" style="fill: #0070C0;"></path>
                                                                        <path d="M 369 67 Q 360 197 364 226 Q 367 248 352 260 Q 328 276 301 285 Q 288 289 278 283 Q 271 277 278 262 Q 294 237 303 208 Q 310 180 328 63 C 333 33 371 37 369 67 Z" style="fill: #0070C0;"></path>
                                                                        <path d="M 522 35 Q 577 38 629 42 Q 776 54 914 34 Q 938 31 945 40 Q 952 53 941 66 Q 910 96 866 117 Q 851 124 824 116 Q 752 103 680 94 Q 586 87 531 81 L 487 76 Q 418 72 369 67 L 328 63 Q 316 64 306 62 Q 236 52 130 54 Q 117 55 114 43 Q 113 30 132 15 Q 174 -16 221 -6 Q 275 9 407 24 Q 461 31 522 35 Z" style="fill: #0070C0;"></path>
                                    
                                    
                                                                                                                                                                                                                                                                                                                                                                                                                                                                                                                                                                                                                                                                                                                                                                                        </g>
                            </svg>