<svg width='83' height='83' >
                                <g transform="translate(3, 70) scale(0.07, -0.07)">
                                    <!-- 先将完整的字以灰色字体绘制完成，层级位于下面 -->
                                                                        <path d="M 287 656 Q 336 669 386 679 Q 419 688 424 693 Q 431 700 427 709 Q 420 719 392 726 Q 370 729 268 697 Q 205 682 160 676 Q 124 669 151 654 Q 190 630 245 647 Q 246 648 249 648 L 287 656 Z" style="fill: #0070C0;"></path>
                                                                        <path d="M 188 424 Q 198 437 212 452 Q 222 465 235 481 L 248 499 Q 267 527 288 558 Q 304 589 319 603 Q 326 612 323 623 Q 313 647 287 656 C 260 668 241 676 249 648 Q 258 629 244 586 Q 223 541 198 496 Q 167 444 121 385 Q 114 378 111 372 Q 108 362 120 365 Q 130 366 174 409 L 188 424 Z" style="fill: #0070C0;"></path>
                                                                        <path d="M 235 481 Q 245 472 275 478 Q 330 491 335 484 Q 342 471 325 416 Q 313 356 258 272 Q 206 182 112 93 Q 90 77 110 80 Q 185 92 282 223 Q 343 308 385 417 Q 404 469 420 485 Q 432 495 425 507 Q 419 517 367 535 Q 354 539 333 527 Q 306 514 248 499 C 219 491 209 488 235 481 Z" style="fill: #0070C0;"></path>
                                                                        <path d="M 174 409 Q 183 390 238 335 Q 244 331 253 328 Q 260 328 265 337 Q 269 347 267 369 Q 263 396 192 424 Q 191 425 188 424 C 166 424 166 424 174 409 Z" style="fill: #0070C0;"></path>
                                                                        <path d="M 638 781 Q 589 742 469 692 Q 465 683 470 680 Q 494 673 633 717 Q 681 738 739 747 Q 755 747 760 754 Q 764 764 753 777 Q 693 823 661 820 Q 654 816 653 805 Q 652 792 638 781 Z" style="fill: #0070C0;"></path>
                                                                        <path d="M 462 584 Q 481 565 500 539 Q 510 529 523 527 Q 532 526 537 537 Q 543 549 538 573 Q 531 600 462 624 Q 449 628 444 627 Q 440 624 440 613 Q 441 604 462 584 Z" style="fill: #0070C0;"></path>
                                                                        <path d="M 562 635 Q 595 571 615 565 Q 625 561 635 576 Q 639 586 634 606 Q 630 621 611 632 Q 583 651 571 657 Q 564 660 561 650 Q 558 644 562 635 Z" style="fill: #0070C0;"></path>
                                                                        <path d="M 752 663 Q 731 630 682 573 Q 673 558 689 561 Q 731 583 754 599 Q 802 635 829 646 Q 848 655 839 671 Q 827 687 804 700 Q 782 713 771 710 Q 759 709 763 697 Q 766 681 752 663 Z" style="fill: #0070C0;"></path>
                                                                        <path d="M 643 368 Q 742 455 774 466 Q 793 472 786 487 Q 783 502 722 533 Q 703 542 628 513 Q 529 480 478 480 Q 456 480 464 462 Q 471 450 489 441 Q 517 425 548 445 Q 567 452 662 491 Q 674 497 685 490 Q 695 483 691 471 Q 663 428 629 377 C 612 352 620 348 643 368 Z" style="fill: #0070C0;"></path>
                                                                        <path d="M 635 261 Q 653 150 620 74 Q 607 58 582 67 Q 542 88 504 108 Q 494 112 496 102 Q 500 92 521 74 Q 564 28 577 -5 Q 584 -24 600 -23 Q 613 -23 641 -1 Q 717 65 687 267 L 679 307 Q 667 349 643 368 L 629 377 Q 623 380 618 382 Q 597 389 588 384 Q 575 378 588 365 Q 619 340 628 298 L 635 261 Z" style="fill: #0070C0;"></path>
                                                                        <path d="M 687 267 Q 769 276 915 275 Q 934 276 940 284 Q 944 296 928 310 Q 868 352 812 333 Q 757 323 679 307 L 628 298 Q 510 282 372 262 Q 351 261 367 243 Q 397 216 459 230 Q 537 251 635 261 L 687 267 Z" style="fill: #0070C0;"></path>
                                    
                                    
                                                                                                                                                                                                                                                                                                                                                                                                                                                                                                                                                                                                                                                                                                                                                                                                                                                                                                                                                </g>
                            </svg>