<svg width='83' height='83' >
                                <g transform="translate(3, 70) scale(0.07, -0.07)">
                                    <!-- 先将完整的字以灰色字体绘制完成，层级位于下面 -->
                                                                        <path d="M 293 663 Q 429 696 436 701 Q 443 708 439 717 Q 432 727 404 734 Q 374 738 345 727 Q 308 714 267 702 Q 221 690 168 684 Q 132 677 159 662 Q 199 638 253 654 L 293 663 Z" style="fill: #0070C0;"></path>
                                                                        <path d="M 184 405 Q 191 417 203 430 Q 222 455 245 487 L 263 515 Q 308 596 324 611 Q 331 620 327 631 Q 318 650 293 663 C 267 678 243 682 253 654 L 254 653 Q 273 611 194 479 Q 157 418 105 349 Q 96 342 95 336 Q 92 326 104 329 Q 120 332 170 388 L 184 405 Z" style="fill: #0070C0;"></path>
                                                                        <path d="M 245 487 Q 258 486 277 489 Q 326 496 329 490 Q 336 477 323 420 Q 314 359 264 272 Q 218 178 128 82 Q 106 63 127 68 Q 235 92 345 317 Q 367 368 387 424 Q 405 478 419 495 Q 431 505 424 517 Q 418 527 363 546 Q 350 550 328 537 Q 307 527 263 515 C 234 507 215 486 245 487 Z" style="fill: #0070C0;"></path>
                                                                        <path d="M 170 388 Q 174 381 189 367 Q 238 313 248 311 Q 257 311 261 321 Q 265 331 262 355 Q 259 371 237 384 Q 192 405 184 405 C 155 410 155 410 170 388 Z" style="fill: #0070C0;"></path>
                                                                        <path d="M 523 756 Q 513 760 490 765 Q 478 768 475 763 Q 469 757 477 742 Q 501 690 516 605 Q 517 580 533 563 Q 549 542 554 557 Q 558 570 558 594 L 554 623 Q 542 702 541 727 C 540 750 540 750 523 756 Z" style="fill: #0070C0;"></path>
                                                                        <path d="M 766 649 Q 797 721 826 736 Q 842 754 829 771 Q 813 784 765 809 Q 747 816 727 810 Q 652 777 523 756 C 493 751 511 725 541 727 Q 554 727 571 732 Q 644 747 713 761 Q 731 765 738 758 Q 745 751 742 734 Q 732 691 718 657 C 707 629 754 622 766 649 Z" style="fill: #0070C0;"></path>
                                                                        <path d="M 558 594 Q 570 588 587 592 Q 647 605 776 617 Q 786 618 788 627 Q 788 634 766 649 L 718 657 Q 714 657 711 656 Q 624 634 554 623 C 524 618 530 604 558 594 Z" style="fill: #0070C0;"></path>
                                                                        <path d="M 526 511 Q 507 526 485 533 Q 478 534 471 527 Q 468 521 475 511 Q 508 441 482 281 Q 466 229 471 207 Q 478 176 490 164 Q 500 151 509 164 Q 534 195 535 304 Q 535 431 544 483 C 546 497 546 497 526 511 Z" style="fill: #0070C0;"></path>
                                                                        <path d="M 743 243 Q 736 221 750 198 Q 765 170 774 170 Q 789 171 804 205 Q 819 232 817 252 Q 790 442 823 496 Q 836 518 799 540 Q 777 555 749 565 Q 733 571 710 562 Q 629 523 526 511 C 496 507 515 477 544 483 Q 548 483 553 484 Q 709 524 729 513 Q 739 494 744 439 Q 751 276 743 243 Z" style="fill: #0070C0;"></path>
                                                                        <path d="M 612 381 Q 619 206 572 130 Q 553 99 516 71 Q 480 43 402 8 Q 389 4 386 1 Q 382 -3 396 -7 Q 468 -13 570 54 Q 588 69 602 86 Q 656 153 663 312 Q 667 384 677 410 Q 681 420 674 428 Q 623 470 588 458 Q 570 451 585 435 Q 612 408 612 381 Z" style="fill: #0070C0;"></path>
                                                                        <path d="M 699 137 Q 747 88 803 17 Q 818 -4 833 -9 Q 840 -10 849 -2 Q 862 11 852 55 Q 843 97 779 129 Q 769 139 702 167 Q 693 173 691 161 Q 690 148 699 137 Z" style="fill: #0070C0;"></path>
                                    
                                    
                                                                                                                                                                                                                                                                                                                                                                                                                                                                                                                                                                                                                                                                                                                                                                                                                                                                                                                                                </g>
                            </svg>