<svg width='83' height='83' >
                                <g transform="translate(3, 70) scale(0.07, -0.07)">
                                    <!-- 先将完整的字以灰色字体绘制完成，层级位于下面 -->
                                                                        <path d="M 417 711 Q 445 751 472 784 Q 484 796 470 812 Q 431 851 403 848 Q 391 847 393 831 Q 394 728 271 608 Q 262 604 218 560 Q 208 545 224 549 Q 243 550 272 569 Q 350 621 400 687 L 417 711 Z" style="fill: #0070C0;"></path>
                                                                        <path d="M 400 687 Q 445 660 505 671 Q 601 687 701 703 Q 747 712 753 717 Q 763 726 759 735 Q 752 748 721 757 Q 688 764 584 734 Q 446 713 417 711 C 387 708 374 701 400 687 Z" style="fill: #0070C0;"></path>
                                                                        <path d="M 405 563 Q 389 579 366 592 Q 344 604 339 593 Q 332 583 341 571 Q 360 534 353 492 Q 343 432 327 376 L 313 331 Q 304 306 295 279 Q 274 230 224 184 Q 202 168 204 149 Q 208 131 229 111 Q 248 92 274 113 Q 323 146 479 147 Q 584 150 594 141 L 665 132 Q 728 123 793 105 Q 812 98 829 103 Q 842 107 837 125 Q 828 147 806 163 Q 790 182 758 182 Q 733 182 677 186 Q 674 187 671 186 L 604 189 Q 492 193 325 180 Q 306 179 313 202 Q 340 266 364 338 L 378 380 Q 417 515 418 530 C 422 549 422 549 405 563 Z" style="fill: #0070C0;"></path>
                                                                        <path d="M 686 405 Q 693 507 711 527 Q 730 552 717 565 Q 692 589 653 602 Q 634 611 610 603 Q 514 576 405 563 C 375 559 388 525 418 530 Q 461 537 575 561 Q 602 567 620 554 Q 636 542 633 493 Q 630 445 628 400 L 625 358 Q 618 256 604 189 L 594 141 Q 579 69 566 41 Q 554 22 530 30 Q 461 42 465 46 Q 431 53 458 27 Q 495 -10 524 -50 Q 548 -81 568 -68 Q 647 -20 665 132 L 671 186 Q 674 213 684 361 L 686 405 Z" style="fill: #0070C0;"></path>
                                                                        <path d="M 463 485 Q 496 419 521 412 Q 534 409 543 425 Q 547 438 541 458 Q 535 474 515 485 Q 487 504 472 509 Q 465 513 461 502 Q 458 495 463 485 Z" style="fill: #0070C0;"></path>
                                                                        <path d="M 684 361 Q 796 365 928 349 Q 952 345 958 354 Q 967 367 955 379 Q 927 407 883 429 Q 870 435 843 428 Q 764 413 686 405 L 628 400 Q 534 393 482 389 Q 424 385 378 380 L 327 376 Q 296 375 273 372 Q 195 362 79 364 Q 66 365 64 354 Q 63 341 81 326 Q 97 313 128 300 Q 138 296 157 303 Q 170 309 313 331 L 364 338 Q 365 338 615 358 Q 619 359 625 358 L 684 361 Z" style="fill: #0070C0;"></path>
                                                                        <path d="M 443 290 Q 479 218 503 213 Q 516 209 528 226 Q 532 239 526 263 Q 519 279 499 291 Q 468 313 454 317 Q 444 321 441 309 Q 438 302 443 290 Z" style="fill: #0070C0;"></path>
                                    
                                    
                                                                                                                                                                                                                                                                                                                                                                                                                                                                                                                                                                                                                                </g>
                            </svg>