<svg width='83' height='83' >
                                <g transform="translate(3, 70) scale(0.07, -0.07)">
                                    <!-- 先将完整的字以灰色字体绘制完成，层级位于下面 -->
                                                                        <path d="M 473 815 Q 497 799 522 777 Q 538 765 554 768 Q 564 769 569 784 Q 572 800 559 830 Q 552 846 523 856 Q 451 871 440 863 Q 436 859 438 845 Q 442 835 473 815 Z" style="fill: #0070C0;"></path>
                                                                        <path d="M 243 708 Q 224 707 238 691 Q 251 678 267 674 Q 286 670 300 674 Q 487 725 774 725 Q 775 725 777 725 Q 795 725 799 733 Q 803 743 789 755 Q 744 791 708 782 Q 576 752 243 708 Z" style="fill: #0070C0;"></path>
                                                                        <path d="M 388 644 Q 378 648 349 651 Q 337 652 335 648 Q 329 641 338 627 Q 360 593 379 534 Q 383 516 396 506 Q 415 487 418 502 Q 419 508 420 515 L 416 547 Q 406 599 403 617 C 399 640 399 640 388 644 Z" style="fill: #0070C0;"></path>
                                                                        <path d="M 635 571 Q 657 616 681 627 Q 697 643 684 659 Q 669 672 624 695 Q 608 702 589 696 Q 508 663 388 644 C 358 639 374 609 403 617 Q 406 618 414 620 Q 493 636 571 652 Q 590 656 599 649 Q 606 639 589 581 C 581 552 621 544 635 571 Z" style="fill: #0070C0;"></path>
                                                                        <path d="M 420 515 Q 426 514 436 516 Q 500 531 641 544 Q 651 545 652 553 Q 652 560 635 571 L 589 581 Q 585 582 580 580 Q 489 558 416 547 C 386 542 390 516 420 515 Z" style="fill: #0070C0;"></path>
                                                                        <path d="M 239 431 Q 229 456 217 464 Q 198 480 195 453 Q 201 411 141 357 Q 120 335 147 275 Q 162 247 183 275 L 237 398 C 245 417 245 417 239 431 Z" style="fill: #0070C0;"></path>
                                                                        <path d="M 237 398 Q 261 389 305 400 Q 396 430 672 470 Q 733 477 753 475 Q 766 465 764 458 Q 749 415 735 370 L 737 369 Q 744 365 763 377 Q 820 411 865 422 Q 902 432 902 441 Q 901 451 825 506 Q 800 525 723 509 Q 474 470 350 448 Q 295 438 239 431 C 209 427 207 403 237 398 Z" style="fill: #0070C0;"></path>
                                                                        <path d="M 486 333 Q 553 355 593 359 Q 609 358 613 365 Q 617 375 607 386 Q 555 434 525 430 Q 518 427 516 417 Q 510 387 320 314 Q 314 314 310 311 Q 304 304 309 300 Q 321 297 412 316 Q 422 317 433 320 L 486 333 Z" style="fill: #0070C0;"></path>
                                                                        <path d="M 497 232 Q 635 265 639 268 Q 646 275 643 282 Q 636 292 611 298 Q 587 304 509 276 L 445 259 Q 385 247 316 240 Q 285 236 307 220 Q 346 199 393 212 Q 415 218 444 221 L 497 232 Z" style="fill: #0070C0;"></path>
                                                                        <path d="M 490 135 Q 581 156 700 171 Q 716 174 717 181 Q 718 194 701 203 Q 674 215 652 209 Q 555 187 490 172 L 444 162 Q 224 126 223 124 Q 222 124 221 121 Q 218 111 233 99 Q 273 72 313 85 Q 386 109 445 124 L 490 135 Z" style="fill: #0070C0;"></path>
                                                                        <path d="M 895 55 Q 874 103 860 186 Q 857 202 849 206 Q 842 210 839 190 Q 829 87 815 68 Q 779 29 643 25 Q 567 26 535 38 Q 507 51 500 71 Q 493 90 490 135 L 490 172 Q 491 206 497 232 L 509 276 Q 521 306 502 322 Q 493 329 486 333 C 462 351 424 349 433 320 Q 443 295 445 259 L 444 221 Q 444 190 444 162 L 445 124 Q 448 39 491 8 Q 554 -34 751 -21 Q 842 -14 879 7 Q 909 23 895 55 Z" style="fill: #0070C0;"></path>
                                    
                                    
                                                                                                                                                                                                                                                                                                                                                                                                                                                                                                                                                                                                                                                                                                                                                                                                                                                                                                                                                </g>
                            </svg>