<svg width='83' height='83' >
                                <g transform="translate(3, 70) scale(0.07, -0.07)">
                                    <!-- 先将完整的字以灰色字体绘制完成，层级位于下面 -->
                                                                        <path d="M 253 680 Q 281 655 313 626 Q 328 613 344 614 Q 356 614 361 628 Q 365 644 356 675 Q 344 706 247 731 Q 231 734 224 731 Q 218 727 220 713 Q 224 703 253 680 Z" style="fill: #0070C0;"></path>
                                                                        <path d="M 202 446 Q 415 506 421 511 Q 428 520 424 528 Q 417 540 386 545 Q 358 549 257 510 Q 115 476 92 471 Q 55 462 82 447 Q 113 431 164 436 L 202 446 Z" style="fill: #0070C0;"></path>
                                                                        <path d="M 164 436 Q 165 435 167 430 Q 195 375 189 318 Q 185 264 164 239 Q 148 220 156 206 Q 169 193 187 183 Q 199 177 218 194 Q 243 221 335 253 Q 374 266 383 264 Q 411 276 419 292 Q 428 307 423 313 Q 416 319 401 311 Q 313 292 248 265 Q 232 261 234 281 Q 237 332 240 384 Q 243 409 232 423 Q 219 436 202 446 C 177 462 151 463 164 436 Z" style="fill: #0070C0;"></path>
                                                                        <path d="M 740 610 Q 768 682 796 697 Q 812 716 796 735 Q 717 795 655 756 Q 577 723 476 697 C 447 689 476 655 503 667 Q 507 670 517 673 Q 596 695 670 718 Q 689 724 699 717 Q 706 710 704 693 Q 694 645 682 607 C 673 578 729 582 740 610 Z" style="fill: #0070C0;"></path>
                                                                        <path d="M 637 552 Q 688 565 759 577 Q 769 578 770 588 Q 770 595 740 610 C 720 620 710 617 682 607 Q 579 571 495 551 C 466 544 465 518 495 518 Q 504 517 516 520 Q 546 530 593 542 L 637 552 Z" style="fill: #0070C0;"></path>
                                                                        <path d="M 476 697 Q 463 709 448 715 Q 429 722 420 716 Q 410 710 419 694 Q 476 580 435 192 Q 434 141 394 89 Q 382 73 391 50 Q 401 22 416 11 Q 429 4 441 21 Q 457 52 606 186 Q 624 201 628 210 Q 632 220 622 220 Q 613 220 493 148 Q 484 142 482 151 Q 497 356 495 518 L 495 551 Q 495 555 495 558 Q 494 613 502 657 Q 503 663 503 667 C 504 677 501 680 476 697 Z" style="fill: #0070C0;"></path>
                                                                        <path d="M 697 366 Q 758 385 823 402 Q 866 417 873 423 Q 882 432 876 440 Q 869 452 838 457 Q 807 461 777 446 Q 731 427 685 409 L 641 396 Q 595 384 543 375 Q 506 366 534 351 Q 573 335 643 351 Q 646 352 653 353 L 697 366 Z" style="fill: #0070C0;"></path>
                                                                        <path d="M 653 353 Q 720 149 854 51 Q 857 50 861 46 Q 915 9 950 1 Q 975 2 973 36 Q 964 67 971 210 Q 972 223 966 225 Q 960 226 956 212 Q 941 181 928 151 Q 909 111 895 112 Q 877 113 841 144 Q 802 175 769 226 Q 720 299 697 366 L 685 409 Q 678 472 686 502 Q 690 521 652 544 Q 645 548 637 552 C 611 567 578 568 593 542 Q 614 518 634 424 Q 637 411 641 396 L 653 353 Z" style="fill: #0070C0;"></path>
                                    
                                    
                                                                                                                                                                                                                                                                                                                                                                                                                                                                                                                                                                                                                                                                                                            </g>
                            </svg>