<svg width='83' height='83' >
                                <g transform="translate(3, 70) scale(0.07, -0.07)">
                                    <!-- 先将完整的字以灰色字体绘制完成，层级位于下面 -->
                                                                        <path d="M 359 685 Q 431 787 431 794 Q 428 810 383 837 Q 368 844 353 843 Q 341 842 343 826 Q 349 717 220 586 Q 202 577 158 529 Q 148 513 165 517 Q 186 518 215 540 Q 294 595 346 666 L 359 685 Z" style="fill: #0070C0;"></path>
                                                                        <path d="M 346 666 Q 355 657 390 649 Q 412 645 550 672 Q 692 703 703 711 Q 712 718 707 728 Q 700 740 670 747 Q 643 753 544 720 Q 451 696 362 686 Q 359 686 359 685 C 329 680 326 679 346 666 Z" style="fill: #0070C0;"></path>
                                                                        <path d="M 319 558 Q 286 552 310 537 Q 349 519 411 533 Q 487 551 567 570 Q 606 580 612 586 Q 619 593 615 601 Q 608 611 581 618 Q 553 622 527 610 Q 484 594 435 580 Q 381 567 319 558 Z" style="fill: #0070C0;"></path>
                                                                        <path d="M 191 406 Q 176 405 182 390 Q 186 377 211 368 Q 235 358 259 365 Q 407 405 551 444 Q 593 454 601 449 Q 611 442 603 421 Q 573 205 633 105 Q 685 -4 840 -20 Q 909 -26 936 -13 Q 955 -4 946 21 Q 930 97 926 183 Q 925 216 917 224 Q 910 231 904 214 Q 876 84 849 55 Q 828 42 802 50 Q 757 57 717 90 Q 656 141 645 265 Q 636 380 692 450 Q 708 463 701 473 Q 692 486 635 508 Q 619 514 604 503 Q 540 466 381 432 Q 278 407 191 406 Z" style="fill: #0070C0;"></path>
                                    
                                    
                                                                                                                                                                                                                                                                                                                                                                                            </g>
                            </svg>