<svg width='83' height='83' >
                                <g transform="translate(3, 70) scale(0.07, -0.07)">
                                    <!-- 先将完整的字以灰色字体绘制完成，层级位于下面 -->
                                                                        <path d="M 390 710 Q 409 735 427 757 Q 439 769 425 784 Q 386 823 361 820 Q 349 819 350 804 Q 353 705 233 589 Q 215 580 182 544 Q 172 529 188 533 Q 207 534 234 552 Q 318 606 367 678 Q 368 682 372 685 L 390 710 Z" style="fill: #0070C0;"></path>
                                                                        <path d="M 372 685 Q 420 664 471 675 Q 555 691 641 709 Q 681 718 687 723 Q 696 730 691 740 Q 684 752 654 760 Q 629 764 524 733 Q 446 717 390 710 C 360 706 344 696 372 685 Z" style="fill: #0070C0;"></path>
                                                                        <path d="M 366 584 Q 335 578 358 564 Q 394 545 442 558 Q 508 574 576 591 Q 607 598 612 604 Q 619 611 615 618 Q 608 628 583 633 Q 562 636 468 605 Q 411 592 366 584 Z" style="fill: #0070C0;"></path>
                                                                        <path d="M 228 456 Q 203 455 217 437 Q 230 421 257 410 Q 284 400 315 413 Q 390 441 601 490 Q 626 497 623 470 Q 584 203 669 72 Q 679 54 695 38 Q 779 -58 896 -56 Q 938 -53 960 -38 Q 972 -34 967 -17 Q 951 53 944 146 Q 941 174 930 150 Q 891 38 878 25 Q 866 15 847 21 Q 804 31 759 65 Q 714 99 691 152 Q 643 276 683 428 Q 695 462 728 487 Q 744 497 741 511 Q 737 524 672 554 Q 650 564 628 550 Q 472 469 228 456 Z" style="fill: #0070C0;"></path>
                                                                        <path d="M 370 360 Q 395 321 364 207 Q 363 204 362 200 Q 329 104 216 32 Q 203 23 215 20 Q 228 19 264 31 Q 303 46 332 71 Q 401 125 435 258 Q 448 307 457 322 Q 467 340 451 350 Q 405 387 379 379 Q 364 375 370 360 Z" style="fill: #0070C0;"></path>
                                    
                                    
                                                                                                                                                                                                                                                                                                                                                                                                                                                                        </g>
                            </svg>