<svg width='83' height='83' >
                                <g transform="translate(3, 70) scale(0.07, -0.07)">
                                    <!-- 先将完整的字以灰色字体绘制完成，层级位于下面 -->
                                                                        <path d="M 368 702 Q 396 742 423 773 Q 435 785 421 800 Q 382 839 357 836 Q 345 835 346 820 Q 349 721 229 605 Q 211 596 178 560 Q 168 545 184 549 Q 203 550 230 568 Q 303 616 351 678 L 368 702 Z" style="fill: #0070C0;"></path>
                                                                        <path d="M 351 678 Q 396 654 451 668 Q 535 686 621 704 Q 661 714 667 719 Q 676 726 671 736 Q 664 748 634 755 Q 609 759 504 728 Q 413 709 368 702 C 338 697 324 691 351 678 Z" style="fill: #0070C0;"></path>
                                                                        <path d="M 359 588 Q 328 582 350 568 Q 386 549 434 561 Q 501 576 571 591 Q 602 598 607 604 Q 614 611 611 618 Q 604 628 579 634 Q 554 638 528 628 Q 492 615 453 604 Q 410 594 359 588 Z" style="fill: #0070C0;"></path>
                                                                        <path d="M 228 460 Q 203 459 217 441 Q 230 425 257 414 Q 284 404 315 418 Q 391 446 609 498 Q 633 504 629 480 Q 578 180 685 41 Q 686 38 690 35 Q 729 -13 794 -44 Q 843 -68 894 -67 Q 937 -66 960 -52 Q 973 -48 967 -27 Q 948 33 937 114 Q 933 142 923 118 Q 889 24 878 13 Q 865 1 846 10 Q 735 35 689 149 Q 641 278 687 434 Q 700 468 735 494 Q 751 504 749 518 Q 745 531 680 561 Q 658 573 636 558 Q 491 477 228 460 Z" style="fill: #0070C0;"></path>
                                                                        <path d="M 256 352 Q 274 316 254 185 Q 247 160 233 129 Q 215 87 165 45 Q 152 35 147 28 Q 146 21 156 21 Q 186 20 236 62 Q 296 119 324 283 Q 324 287 325 292 Q 329 311 332 321 Q 339 340 320 351 Q 277 378 261 376 Q 242 375 256 352 Z" style="fill: #0070C0;"></path>
                                                                        <path d="M 461 21 Q 465 -1 471 -9 Q 475 -16 482 -13 Q 489 -10 494 3 Q 507 48 506 131 Q 505 167 510 307 Q 510 311 516 353 Q 519 369 507 377 Q 479 396 465 398 Q 455 402 440 395 Q 433 388 438 379 Q 453 349 453 335 Q 457 254 456 127 Q 457 48 461 21 Z" style="fill: #0070C0;"></path>
                                    
                                    
                                                                                                                                                                                                                                                                                                                                                                                                                                                                                                                                                    </g>
                            </svg>