<svg width='83' height='83' >
                                <g transform="translate(3, 70) scale(0.07, -0.07)">
                                    <!-- 先将完整的字以灰色字体绘制完成，层级位于下面 -->
                                                                        <path d="M 355 718 Q 379 755 402 785 Q 412 798 399 813 Q 357 849 330 846 Q 318 843 320 829 Q 329 732 219 615 Q 207 609 173 568 Q 164 553 180 557 Q 199 560 224 578 Q 297 630 340 696 L 355 718 Z" style="fill: #0070C0;"></path>
                                                                        <path d="M 340 696 Q 382 672 454 688 Q 658 734 663 739 Q 673 746 667 756 Q 660 768 630 775 Q 605 779 493 744 Q 436 729 355 718 C 325 714 313 709 340 696 Z" style="fill: #0070C0;"></path>
                                                                        <path d="M 354 606 Q 321 599 346 585 Q 385 566 436 580 Q 493 595 553 610 Q 581 617 584 622 Q 591 629 587 637 Q 580 647 553 653 Q 525 657 499 644 Q 468 632 435 623 Q 398 613 354 606 Z" style="fill: #0070C0;"></path>
                                                                        <path d="M 229 496 Q 202 495 217 477 Q 230 461 257 450 Q 282 438 315 453 Q 390 478 600 527 Q 627 533 622 507 Q 580 272 650 121 Q 665 90 687 65 Q 726 17 790 -13 Q 839 -37 890 -36 Q 933 -35 956 -19 Q 968 -15 963 3 Q 947 70 940 162 Q 937 190 926 166 Q 887 57 875 46 Q 862 34 843 42 Q 731 69 685 178 Q 634 304 681 462 Q 693 498 727 522 Q 745 532 741 546 Q 737 559 672 590 Q 650 600 628 587 Q 480 509 229 496 Z" style="fill: #0070C0;"></path>
                                                                        <path d="M 245 389 Q 266 353 246 228 Q 239 203 227 173 Q 211 131 163 91 Q 151 81 148 75 Q 147 69 156 69 Q 180 68 229 109 Q 280 158 300 271 Q 303 290 315 363 Q 321 381 303 390 Q 263 412 250 410 Q 232 409 245 389 Z" style="fill: #0070C0;"></path>
                                                                        <path d="M 358 395 Q 382 331 361 171 Q 352 138 380 106 Q 389 96 398 106 Q 419 139 418 179 Q 412 290 428 364 Q 435 386 415 397 Q 399 407 383 416 Q 371 420 362 415 Q 355 409 358 395 Z" style="fill: #0070C0;"></path>
                                                                        <path d="M 492 87 Q 485 60 505 5 Q 511 -8 517 -11 Q 523 -17 528 -10 Q 535 -6 543 11 Q 547 24 548 207 Q 548 364 558 399 Q 565 412 562 423 Q 556 430 511 457 Q 492 470 475 458 Q 471 454 476 441 Q 494 417 501 215 Q 501 125 492 87 Z" style="fill: #0070C0;"></path>
                                    
                                    
                                                                                                                                                                                                                                                                                                                                                                                                                                                                                                                                                                                                                                </g>
                            </svg>