<svg width='83' height='83' >
                                <g transform="translate(3, 70) scale(0.07, -0.07)">
                                    <!-- 先将完整的字以灰色字体绘制完成，层级位于下面 -->
                                                                        <path d="M 388 740 Q 407 765 425 786 Q 437 799 423 815 Q 380 854 353 852 Q 341 851 343 835 Q 349 745 242 636 Q 241 636 198 593 Q 188 577 205 581 Q 221 582 247 598 Q 323 647 370 714 Q 371 717 373 719 L 388 740 Z" style="fill: #0070C0;"></path>
                                                                        <path d="M 373 719 Q 418 695 469 707 Q 697 750 711 761 Q 720 768 715 776 Q 708 788 680 795 Q 656 801 531 764 Q 438 746 388 740 C 358 736 346 732 373 719 Z" style="fill: #0070C0;"></path>
                                                                        <path d="M 387 636 Q 356 630 378 616 Q 405 601 479 612 Q 534 624 593 636 Q 623 643 627 648 Q 634 655 631 662 Q 624 672 599 678 Q 583 681 506 659 Q 395 638 387 636 Z" style="fill: #0070C0;"></path>
                                                                        <path d="M 962 -19 Q 950 48 943 163 Q 944 176 936 181 Q 930 185 927 171 Q 900 77 890 66 Q 886 59 864 67 Q 773 104 744 286 Q 731 365 744 469 Q 745 505 770 535 Q 786 548 775 560 Q 763 578 730 603 Q 709 616 653 593 Q 485 553 255 515 Q 242 515 239 507 Q 236 501 247 496 Q 280 477 314 489 Q 464 528 655 551 Q 673 552 682 546 Q 688 540 683 432 Q 683 159 787 44 Q 853 -28 932 -47 Q 950 -54 958 -43 Q 965 -36 962 -19 Z" style="fill: #0070C0;"></path>
                                                                        <path d="M 305 434 Q 309 383 213 296 Q 186 274 122 230 Q 115 226 123 223 Q 162 217 261 288 Q 262 291 266 292 Q 300 319 353 375 Q 371 393 372 398 Q 372 405 363 417 Q 341 447 313 446 Q 306 445 305 434 Z" style="fill: #0070C0;"></path>
                                                                        <path d="M 436 463 Q 451 457 495 394 Q 555 310 592 314 Q 593 315 598 315 Q 661 330 664 331 Q 668 335 662 340 Q 655 346 590 375 Q 527 406 472 468 Q 465 478 450 480 Q 440 481 432 476 Q 428 470 436 463 Z" style="fill: #0070C0;"></path>
                                                                        <path d="M 372 249 Q 427 265 474 273 Q 489 274 492 271 Q 499 259 496 230 Q 489 146 470 110 Q 455 82 431 86 Q 413 90 398 96 Q 376 105 391 82 Q 422 45 437 16 Q 453 -2 468 12 Q 522 48 545 182 Q 551 245 569 271 Q 579 283 574 292 Q 567 302 520 321 Q 501 328 485 317 Q 469 307 403 289 Q 337 271 282 265 Q 266 264 264 256 Q 263 249 284 240 Q 305 227 322 234 Q 331 238 343 240 L 372 249 Z" style="fill: #0070C0;"></path>
                                                                        <path d="M 343 240 Q 342 240 343 239 Q 349 182 214 50 Q 199 41 197 31 Q 197 27 201 27 Q 256 27 362 154 Q 386 185 395 195 Q 402 202 396 215 Q 387 236 372 249 C 351 270 342 270 343 240 Z" style="fill: #0070C0;"></path>
                                    
                                    
                                                                                                                                                                                                                                                                                                                                                                                                                                                                                                                                                                                                                                                                                                            </g>
                            </svg>