<svg width='83' height='83' >
                                <g transform="translate(3, 70) scale(0.07, -0.07)">
                                    <!-- 先将完整的字以灰色字体绘制完成，层级位于下面 -->
                                                                        <path d="M 383 724 Q 408 760 431 788 Q 441 800 428 814 Q 391 847 368 845 Q 358 844 358 830 Q 364 745 258 637 Q 255 636 214 595 Q 205 582 219 585 Q 237 586 260 602 Q 326 647 368 704 L 383 724 Z" style="fill: #0070C0;"></path>
                                                                        <path d="M 368 704 Q 413 679 465 690 Q 699 738 710 744 Q 710 745 711 745 Q 718 752 715 761 Q 708 771 680 779 Q 658 785 530 748 Q 389 726 383 724 C 354 718 344 716 368 704 Z" style="fill: #0070C0;"></path>
                                                                        <path d="M 360 628 Q 329 624 351 608 Q 388 587 434 597 Q 506 610 580 624 Q 614 631 618 636 Q 625 643 622 650 Q 616 660 592 667 Q 571 673 476 645 Q 380 630 360 628 Z" style="fill: #0070C0;"></path>
                                                                        <path d="M 234 530 Q 209 530 222 513 Q 235 497 260 486 Q 284 474 315 487 Q 397 514 631 558 Q 653 562 649 542 Q 579 289 645 132 Q 655 108 671 86 Q 705 34 768 -4 Q 817 -32 868 -36 Q 911 -39 936 -26 Q 951 -22 944 2 Q 925 68 913 155 Q 909 180 900 159 Q 872 51 861 39 Q 848 29 827 38 Q 713 80 675 194 Q 638 330 697 490 Q 712 524 750 548 Q 766 557 765 570 Q 762 582 701 615 Q 682 627 660 614 Q 506 539 234 530 Z" style="fill: #0070C0;"></path>
                                                                        <path d="M 423 421 Q 424 422 425 424 Q 426 434 420 451 Q 407 475 358 487 Q 351 488 349 479 Q 348 475 381 426 Q 388 419 394 415 C 411 403 411 403 423 421 Z" style="fill: #0070C0;"></path>
                                                                        <path d="M 394 415 Q 223 387 161 383 Q 149 382 147 375 Q 143 365 157 355 Q 193 330 229 339 Q 278 355 321 364 L 358 373 Q 406 389 569 406 Q 584 407 585 415 Q 586 427 570 435 Q 546 445 526 442 Q 468 432 423 421 L 394 415 Z" style="fill: #0070C0;"></path>
                                                                        <path d="M 321 364 Q 327 336 291 289 Q 270 265 231 245 Q 221 238 222 229 Q 223 216 241 199 Q 248 190 259 197 Q 298 213 385 216 C 415 217 434 233 404 237 Q 358 244 306 246 Q 300 245 299 247 Q 298 250 302 254 Q 366 323 379 334 Q 389 341 385 351 Q 381 358 358 373 C 333 390 319 394 321 364 Z" style="fill: #0070C0;"></path>
                                                                        <path d="M 385 216 Q 327 153 190 69 Q 183 66 191 63 Q 240 57 371 149 Q 377 155 384 159 Q 429 196 501 275 Q 511 285 517 289 Q 524 293 524 301 Q 520 328 490 342 Q 474 351 465 350 Q 458 350 458 339 Q 458 306 404 237 L 385 216 Z" style="fill: #0070C0;"></path>
                                                                        <path d="M 481 113 Q 508 140 568 195 Q 578 205 577 213 Q 576 225 553 234 Q 528 244 517 243 Q 510 242 507 231 Q 477 141 257 -1 Q 238 -13 262 -12 Q 323 -8 460 96 L 481 113 Z" style="fill: #0070C0;"></path>
                                                                        <path d="M 460 96 Q 508 57 568 1 Q 583 -15 596 -18 Q 603 -19 609 -10 Q 618 2 605 38 Q 593 78 481 113 C 452 122 437 115 460 96 Z" style="fill: #0070C0;"></path>
                                    
                                    
                                                                                                                                                                                                                                                                                                                                                                                                                                                                                                                                                                                                                                                                                                                                                                                                                                                                    </g>
                            </svg>