<svg width='83' height='83' >
                                <g transform="translate(3, 70) scale(0.07, -0.07)">
                                    <!-- 先将完整的字以灰色字体绘制完成，层级位于下面 -->
                                                                        <path d="M 373 718 Q 397 752 421 780 Q 431 792 418 808 Q 379 847 351 844 Q 339 843 341 827 Q 347 731 234 621 Q 216 612 186 576 Q 176 561 192 565 Q 211 566 236 583 Q 309 632 356 694 L 373 718 Z" style="fill: #0070C0;"></path>
                                                                        <path d="M 356 694 Q 398 669 455 686 Q 539 704 626 723 Q 666 733 671 739 Q 681 748 675 756 Q 668 768 638 775 Q 608 779 515 747 Q 440 728 373 718 C 343 713 330 708 356 694 Z" style="fill: #0070C0;"></path>
                                                                        <path d="M 351 610 Q 317 603 342 589 Q 384 568 432 583 Q 493 598 558 614 Q 588 621 592 626 Q 599 633 595 641 Q 588 651 561 657 Q 533 661 466 636 Q 400 618 351 610 Z" style="fill: #0070C0;"></path>
                                                                        <path d="M 253 498 Q 228 497 242 480 Q 255 465 280 455 Q 305 445 336 458 Q 409 483 616 532 Q 640 538 636 514 Q 594 304 649 154 Q 664 114 690 84 Q 771 -18 885 -18 Q 927 -17 949 -3 Q 961 1 957 18 Q 942 82 936 167 Q 933 192 923 171 Q 886 71 873 60 Q 860 50 842 57 Q 731 87 690 192 Q 645 321 690 469 Q 703 503 736 527 Q 752 536 750 549 Q 746 562 684 592 Q 663 602 642 589 Q 573 552 467 529 Q 346 504 253 498 Z" style="fill: #0070C0;"></path>
                                                                        <path d="M 428 386 Q 456 393 488 397 Q 528 404 534 410 Q 543 417 538 425 Q 532 435 506 444 Q 481 450 376 420 Q 249 402 237 401 Q 204 397 227 381 Q 240 372 273 365 C 290 361 290 361 314 367 Q 313 368 316 368 Q 350 374 385 379 L 428 386 Z" style="fill: #0070C0;"></path>
                                                                        <path d="M 273 365 Q 288 328 291 244 Q 291 190 293 91 C 294 61 331 66 332 96 Q 335 211 337 301 Q 340 347 325 358 Q 319 364 314 367 C 290 385 263 393 273 365 Z" style="fill: #0070C0;"></path>
                                                                        <path d="M 430 111 Q 439 324 444 348 Q 451 366 428 386 C 406 407 375 407 385 379 Q 394 364 394 263 Q 393 208 390 105 C 389 75 429 81 430 111 Z" style="fill: #0070C0;"></path>
                                                                        <path d="M 181 239 Q 199 215 217 188 Q 226 175 238 173 Q 247 172 253 181 Q 260 191 258 217 Q 255 245 186 278 Q 174 284 168 283 Q 164 280 162 270 Q 163 260 181 239 Z" style="fill: #0070C0;"></path>
                                                                        <path d="M 506 303 Q 493 270 465 216 Q 461 209 467 203 Q 474 203 481 209 Q 545 272 577 297 Q 593 304 587 314 Q 578 327 558 341 Q 537 354 516 353 Q 503 350 507 332 Q 511 319 506 303 Z" style="fill: #0070C0;"></path>
                                                                        <path d="M 293 91 Q 214 82 129 70 Q 107 69 123 51 Q 136 38 155 32 Q 176 26 192 31 Q 328 64 594 64 Q 613 64 619 72 Q 625 84 608 98 Q 548 143 480 121 Q 456 118 430 111 L 390 105 Q 368 104 343 98 Q 337 98 332 96 L 293 91 Z" style="fill: #0070C0;"></path>
                                    
                                    
                                                                                                                                                                                                                                                                                                                                                                                                                                                                                                                                                                                                                                                                                                                                                                                                                                                                    </g>
                            </svg>