<svg width='83' height='83' >
                                <g transform="translate(3, 70) scale(0.07, -0.07)">
                                    <!-- 先将完整的字以灰色字体绘制完成，层级位于下面 -->
                                                                        <path d="M 438 711 Q 478 680 523 641 Q 539 626 558 627 Q 571 628 576 644 Q 580 663 569 697 Q 562 724 519 743 Q 420 774 404 768 Q 398 762 400 747 Q 404 734 438 711 Z" style="fill: #0070C0;"></path>
                                                                        <path d="M 326 514 Q 402 442 444 427 Q 460 426 470 440 Q 477 455 472 474 Q 453 525 338 557 Q 319 561 309 557 Q 302 556 306 542 Q 307 529 326 514 Z" style="fill: #0070C0;"></path>
                                                                        <path d="M 362 145 Q 349 144 347 124 Q 350 39 384 13 Q 391 4 402 6 Q 411 6 416 33 Q 440 100 592 354 Q 602 370 602 377 Q 603 387 592 382 Q 579 376 424 197 Q 385 158 362 145 Z" style="fill: #0070C0;"></path>
                                    
                                    
                                                                                                                                                                                                                                                                                                                </g>
                            </svg>