<svg width='83' height='83' >
                                <g transform="translate(3, 70) scale(0.07, -0.07)">
                                    <!-- 先将完整的字以灰色字体绘制完成，层级位于下面 -->
                                                                        <path d="M 523 713 Q 536 729 544 735 Q 551 739 551 751 Q 550 761 538 775 Q 525 791 505 798 Q 483 808 472 806 Q 462 805 464 792 Q 467 690 294 519 Q 290 518 287 513 Q 235 465 110 376 Q 101 372 112 368 Q 181 368 331 492 Q 431 594 510 695 L 523 713 Z" style="fill: #0070C0;"></path>
                                                                        <path d="M 510 695 Q 756 446 814 436 Q 902 436 959 450 Q 977 453 978 457 Q 979 464 966 468 Q 911 489 844 510 Q 684 565 526 711 Q 523 712 523 713 C 500 733 489 716 510 695 Z" style="fill: #0070C0;"></path>
                                                                        <path d="M 537 318 Q 537 418 555 481 Q 571 509 520 529 Q 489 547 471 540 Q 455 534 470 513 Q 489 488 491 457 Q 492 435 489 87 Q 488 72 481 67 Q 471 58 445 65 Q 415 69 387 74 Q 356 81 359 73 Q 360 66 381 55 Q 451 12 472 -14 Q 496 -45 512 -44 Q 525 -45 537 -13 Q 550 29 547 95 Q 538 198 537 299 L 537 318 Z" style="fill: #0070C0;"></path>
                                                                        <path d="M 207 309 Q 195 310 194 302 Q 193 296 206 289 Q 246 265 270 274 Q 355 296 362 296 Q 372 292 362 271 Q 316 175 273 129 Q 230 77 151 24 Q 136 14 145 11 Q 155 10 173 17 Q 242 45 299 97 Q 354 143 423 264 Q 433 283 444 292 Q 457 301 450 310 Q 443 322 410 335 Q 391 347 341 326 Q 281 314 207 309 Z" style="fill: #0070C0;"></path>
                                                                        <path d="M 597 282 Q 694 349 743 376 Q 761 380 757 391 Q 753 407 734 426 Q 716 445 694 447 Q 679 447 679 428 Q 680 415 672 399 Q 641 359 583 297 C 563 275 572 265 597 282 Z" style="fill: #0070C0;"></path>
                                                                        <path d="M 583 297 Q 556 324 537 318 C 511 318 513 317 537 299 Q 562 283 579 257 Q 741 32 774 25 Q 826 25 895 41 Q 908 42 914 50 Q 917 56 908 59 Q 757 125 672 206 Q 638 239 597 282 L 583 297 Z" style="fill: #0070C0;"></path>
                                    
                                    
                                                                                                                                                                                                                                                                                                                                                                                                                                                                                                                                                    </g>
                            </svg>