<svg width='83' height='83' >
                                <g transform="translate(3, 70) scale(0.07, -0.07)">
                                    <!-- 先将完整的字以灰色字体绘制完成，层级位于下面 -->
                                                                        <path d="M 271 732 Q 296 710 325 682 Q 341 667 359 668 Q 371 669 376 685 Q 382 701 371 735 Q 359 766 265 787 Q 247 791 240 787 Q 234 783 236 768 Q 240 755 271 732 Z" style="fill: #0070C0;"></path>
                                                                        <path d="M 143 562 Q 203 496 237 482 Q 253 478 263 493 Q 270 506 267 524 Q 254 570 157 603 Q 139 609 130 605 Q 123 604 125 590 Q 126 577 143 562 Z" style="fill: #0070C0;"></path>
                                                                        <path d="M 158 202 Q 145 198 149 179 Q 171 100 205 86 Q 212 79 223 82 Q 232 85 231 111 Q 234 156 323 435 Q 329 451 328 458 Q 327 468 317 461 Q 301 448 198 249 Q 185 227 158 202 Z" style="fill: #0070C0;"></path>
                                                                        <path d="M 657 505 Q 739 517 859 520 Q 919 520 925 531 Q 929 544 912 557 Q 849 600 801 581 Q 743 568 658 549 L 599 538 Q 493 519 372 499 Q 350 496 367 479 Q 400 452 460 467 Q 523 485 599 496 L 657 505 Z" style="fill: #0070C0;"></path>
                                                                        <path d="M 599 496 Q 599 25 607 6 Q 608 2 612 -4 Q 627 -20 636 2 Q 654 39 655 365 Q 655 443 657 505 L 658 549 Q 659 726 683 762 Q 690 778 669 795 Q 644 814 599 827 Q 578 831 565 817 Q 555 810 568 796 Q 596 772 598 739 Q 599 666 599 538 L 599 496 Z" style="fill: #0070C0;"></path>
                                    
                                    
                                                                                                                                                                                                                                                                                                                                                                                                                                                                        </g>
                            </svg>