<svg width='83' height='83' >
                                <g transform="translate(3, 70) scale(0.07, -0.07)">
                                    <!-- 先将完整的字以灰色字体绘制完成，层级位于下面 -->
                                                                        <path d="M 249 704 Q 277 679 309 650 Q 324 637 340 638 Q 352 638 357 652 Q 361 668 352 699 Q 340 730 243 755 Q 227 758 220 755 Q 214 751 216 737 Q 220 727 249 704 Z" style="fill: #0070C0;"></path>
                                                                        <path d="M 128 520 Q 174 468 214 450 Q 230 447 239 461 Q 245 474 242 491 Q 227 534 142 559 Q 141 560 140 560 Q 122 564 113 560 Q 107 559 110 546 Q 111 534 128 520 Z" style="fill: #0070C0;"></path>
                                                                        <path d="M 127 126 Q 115 123 118 105 Q 130 35 168 12 Q 175 5 185 8 Q 192 9 193 35 Q 197 74 297 344 Q 304 360 303 366 Q 302 376 293 369 Q 280 360 168 171 Q 155 149 127 126 Z" style="fill: #0070C0;"></path>
                                                                        <path d="M 617 267 Q 698 396 736 551 Q 743 588 763 609 Q 779 625 759 641 Q 737 657 699 670 Q 675 677 653 664 Q 572 622 459 606 Q 431 602 419 595 Q 410 588 430 577 Q 458 564 500 579 Q 573 597 646 615 Q 670 622 670 597 Q 670 443 578 304 L 555 273 Q 465 183 288 124 Q 272 118 283 110 Q 292 104 322 110 Q 443 128 515 168 Q 552 192 587 229 L 617 267 Z" style="fill: #0070C0;"></path>
                                                                        <path d="M 587 229 Q 644 159 718 86 Q 736 64 768 62 Q 864 55 942 62 Q 984 65 980 76 Q 977 86 872 117 Q 725 169 633 252 Q 624 261 617 267 L 578 304 Q 529 356 478 420 Q 444 462 409 465 Q 391 466 387 462 Q 386 455 400 443 Q 449 410 555 273 L 587 229 Z" style="fill: #0070C0;"></path>
                                                                        <path d="M 473 519 Q 530 462 551 460 Q 563 460 568 477 Q 569 489 559 507 Q 538 537 475 544 Q 466 545 466 535 Q 465 528 473 519 Z" style="fill: #0070C0;"></path>
                                    
                                    
                                                                                                                                                                                                                                                                                                                                                                                                                                                                                                                                                    </g>
                            </svg>