<svg width='83' height='83' >
                                <g transform="translate(3, 70) scale(0.07, -0.07)">
                                    <!-- 先将完整的字以灰色字体绘制完成，层级位于下面 -->
                                                                        <path d="M 225 723 Q 258 692 293 657 Q 308 641 326 641 Q 338 642 344 657 Q 351 673 341 708 Q 332 745 221 778 Q 203 782 196 779 Q 190 775 191 760 Q 195 747 225 723 Z" style="fill: #0070C0;"></path>
                                                                        <path d="M 128 502 Q 188 439 221 425 Q 237 422 247 437 Q 253 450 250 468 Q 238 511 141 544 Q 123 548 113 545 Q 106 544 109 530 Q 110 517 128 502 Z" style="fill: #0070C0;"></path>
                                                                        <path d="M 116 126 Q 104 122 107 104 Q 125 26 161 9 Q 168 2 179 5 Q 186 6 187 33 Q 191 87 286 355 Q 293 371 291 378 Q 290 388 281 381 Q 269 375 157 172 Q 144 150 116 126 Z" style="fill: #0070C0;"></path>
                                                                        <path d="M 416 673 Q 400 669 398 662 Q 395 655 411 648 Q 438 638 472 648 Q 578 670 676 698 Q 686 698 690 694 Q 693 691 676 581 Q 643 412 667 257 Q 700 -4 949 0 Q 968 0 971 9 Q 980 22 969 53 Q 957 105 961 196 Q 961 209 954 218 Q 947 227 940 206 Q 909 88 890 80 Q 878 76 868 77 Q 834 81 799 118 Q 708 203 710 392 Q 713 611 798 693 Q 811 702 800 714 Q 787 732 749 749 Q 715 765 698 755 Q 586 698 416 673 Z" style="fill: #0070C0;"></path>
                                                                        <path d="M 496 389 Q 529 398 605 409 Q 615 408 622 420 Q 623 430 602 439 Q 578 457 503 433 L 459 421 Q 390 408 339 398 Q 314 394 334 379 Q 359 361 402 368 Q 424 374 453 379 L 496 389 Z" style="fill: #0070C0;"></path>
                                                                        <path d="M 453 379 Q 420 204 379 149 Q 358 115 379 66 Q 380 60 386 54 Q 392 38 404 43 Q 444 64 469 198 Q 475 258 496 389 L 503 433 Q 516 518 523 548 Q 530 576 508 593 Q 477 612 458 614 Q 442 611 447 597 Q 468 533 459 421 L 453 379 Z" style="fill: #0070C0;"></path>
                                    
                                    
                                                                                                                                                                                                                                                                                                                                                                                                                                                                                                                                                    </g>
                            </svg>