<svg width='83' height='83' >
                                <g transform="translate(3, 70) scale(0.07, -0.07)">
                                    <!-- 先将完整的字以灰色字体绘制完成，层级位于下面 -->
                                                                        <path d="M 254 710 Q 279 680 307 646 Q 320 630 337 628 Q 349 627 357 641 Q 364 657 359 690 Q 352 727 256 763 Q 240 769 232 767 Q 226 763 226 749 Q 229 736 254 710 Z" style="fill: #0070C0;"></path>
                                                                        <path d="M 134 501 Q 182 441 220 419 Q 236 415 247 429 Q 254 442 252 460 Q 248 485 229 501 Q 202 525 149 542 Q 133 548 122 544 Q 115 543 117 530 Q 118 517 134 501 Z" style="fill: #0070C0;"></path>
                                                                        <path d="M 122 126 Q 109 123 110 105 Q 123 26 156 6 Q 163 -1 173 1 Q 182 2 184 28 Q 191 68 327 367 Q 336 383 335 390 Q 334 400 325 394 Q 313 388 171 175 Q 155 150 122 126 Z" style="fill: #0070C0;"></path>
                                                                        <path d="M 740 486 Q 776 589 814 616 Q 832 635 817 654 Q 799 669 744 696 Q 725 703 702 695 Q 627 662 497 631 C 468 624 477 592 506 600 Q 507 601 684 646 Q 706 653 716 644 Q 726 632 721 609 Q 702 542 681 488 C 670 460 730 458 740 486 Z" style="fill: #0070C0;"></path>
                                                                        <path d="M 481 413 Q 494 407 514 411 Q 590 429 758 445 Q 771 446 772 457 Q 772 466 740 486 C 721 498 710 495 681 488 Q 572 460 485 446 C 455 441 452 422 481 413 Z" style="fill: #0070C0;"></path>
                                                                        <path d="M 945 127 Q 932 161 916 264 Q 916 280 909 286 Q 903 290 898 271 Q 868 162 848 129 Q 799 74 653 82 Q 595 85 551 104 Q 511 123 499 149 Q 463 221 481 413 L 485 446 Q 492 519 506 598 Q 506 599 506 600 C 510 622 510 622 497 631 Q 481 647 456 656 Q 441 660 431 655 Q 424 651 429 630 Q 430 623 433 616 Q 432 615 433 612 Q 433 611 434 610 Q 441 576 440 541 Q 418 217 443 127 Q 449 96 477 71 Q 573 -5 781 24 Q 805 28 832 35 Q 884 50 938 85 Q 959 100 945 127 Z" style="fill: #0070C0;"></path>
                                    
                                    
                                                                                                                                                                                                                                                                                                                                                                                                                                                                                                                                                    </g>
                            </svg>