<svg width='83' height='83' >
                                <g transform="translate(3, 70) scale(0.07, -0.07)">
                                    <!-- 先将完整的字以灰色字体绘制完成，层级位于下面 -->
                                                                        <path d="M 513 736 Q 687 766 693 771 Q 703 778 699 788 Q 692 800 662 809 Q 632 816 532 787 Q 418 766 340 761 Q 303 757 328 738 Q 370 711 430 723 Q 446 727 466 729 L 513 736 Z" style="fill: #0070C0;"></path>
                                                                        <path d="M 525 601 Q 529 644 533 678 Q 539 708 533 717 Q 523 727 513 736 C 491 756 462 759 466 729 Q 467 725 478 594 C 481 564 522 571 525 601 Z" style="fill: #0070C0;"></path>
                                                                        <path d="M 478 594 Q 363 579 228 561 Q 207 560 223 543 Q 236 530 254 524 Q 273 520 290 524 Q 479 572 787 573 Q 806 573 811 582 Q 817 592 800 606 Q 752 643 713 635 Q 641 620 525 601 L 478 594 Z" style="fill: #0070C0;"></path>
                                                                        <path d="M 529 410 Q 532 443 542 467 Q 552 486 533 501 Q 505 525 473 536 Q 452 543 444 535 Q 437 528 449 511 Q 473 469 472 422 Q 478 221 468 117 Q 467 95 455 87 Q 445 80 431 85 Q 392 94 355 103 Q 342 106 343 98 Q 344 91 355 82 Q 434 12 462 -30 Q 478 -49 495 -34 Q 532 5 533 95 Q 529 155 529 371 L 529 410 Z" style="fill: #0070C0;"></path>
                                                                        <path d="M 162 397 Q 149 397 147 388 Q 146 381 161 373 Q 207 348 235 357 Q 320 382 327 381 Q 340 377 328 352 Q 249 181 111 82 Q 95 70 106 67 Q 116 66 137 74 Q 210 107 269 162 Q 327 213 399 345 Q 411 367 423 378 Q 438 388 429 400 Q 420 413 382 428 Q 360 440 314 420 Q 251 404 162 397 Z" style="fill: #0070C0;"></path>
                                                                        <path d="M 603 343 Q 602 344 604 344 Q 734 417 795 445 Q 816 446 813 460 Q 809 479 790 502 Q 771 524 747 531 Q 731 532 728 511 Q 729 490 659 420 Q 629 393 587 357 C 564 337 578 327 603 343 Z" style="fill: #0070C0;"></path>
                                                                        <path d="M 587 357 Q 547 394 529 410 C 507 430 510 394 529 371 Q 626 253 734 143 Q 759 118 802 114 Q 880 108 961 122 Q 982 123 984 129 Q 987 136 970 144 Q 763 228 733 247 Q 654 299 603 343 L 587 357 Z" style="fill: #0070C0;"></path>
                                    
                                    
                                                                                                                                                                                                                                                                                                                                                                                                                                                                                                                                                                                                                                </g>
                            </svg>