<svg width='83' height='83' >
                                <g transform="translate(3, 70) scale(0.07, -0.07)">
                                    <!-- 先将完整的字以灰色字体绘制完成，层级位于下面 -->
                                                                        <path d="M 260 716 Q 282 691 305 661 Q 318 645 337 643 Q 349 643 356 657 Q 363 673 358 708 Q 354 729 324 746 Q 249 779 236 775 Q 230 771 230 757 Q 233 744 260 716 Z" style="fill: #0070C0;"></path>
                                                                        <path d="M 165 519 Q 204 461 234 445 Q 250 439 262 453 Q 271 466 270 486 Q 263 531 204 553 Q 168 568 154 565 Q 147 564 149 550 Q 149 537 165 519 Z" style="fill: #0070C0;"></path>
                                                                        <path d="M 150 174 Q 137 173 138 154 Q 145 75 179 53 Q 186 46 197 47 Q 204 48 208 73 Q 220 121 358 396 Q 367 411 366 418 Q 367 428 357 422 Q 336 410 199 218 Q 183 196 150 174 Z" style="fill: #0070C0;"></path>
                                                                        <path d="M 630 567 Q 705 585 784 600 Q 836 613 843 620 Q 853 629 848 639 Q 839 652 806 660 Q 778 666 666 629 Q 564 601 463 590 Q 421 583 451 564 Q 505 534 578 557 L 580 557 L 630 567 Z" style="fill: #0070C0;"></path>
                                                                        <path d="M 634 233 Q 661 470 675 501 Q 688 520 675 535 Q 651 556 630 567 C 604 582 570 585 580 557 Q 580 554 582 550 Q 592 532 594 462 Q 590 354 587 228 C 586 198 631 203 634 233 Z" style="fill: #0070C0;"></path>
                                                                        <path d="M 587 228 Q 466 215 326 200 Q 304 199 320 179 Q 353 146 396 155 Q 567 195 908 196 Q 927 196 947 195 Q 969 194 974 204 Q 981 217 963 232 Q 905 277 864 268 Q 779 252 634 233 L 587 228 Z" style="fill: #0070C0;"></path>
                                    
                                    
                                                                                                                                                                                                                                                                                                                                                                                                                                                                                                                                                    </g>
                            </svg>