<svg width='83' height='83' >
                                <g transform="translate(3, 70) scale(0.07, -0.07)">
                                    <!-- 先将完整的字以灰色字体绘制完成，层级位于下面 -->
                                                                        <path d="M 236 689 Q 266 662 298 631 Q 314 615 333 616 Q 346 617 352 633 Q 358 651 347 686 Q 335 722 230 746 Q 211 750 204 748 Q 198 744 200 727 Q 204 714 236 689 Z" style="fill: #0070C0;"></path>
                                                                        <path d="M 142 481 Q 200 421 236 408 Q 252 405 262 420 Q 269 435 265 454 Q 247 505 154 525 Q 135 529 125 525 Q 118 524 122 510 Q 123 497 142 481 Z" style="fill: #0070C0;"></path>
                                                                        <path d="M 144 133 Q 131 129 135 111 Q 151 33 190 12 Q 197 5 209 8 Q 216 9 217 37 Q 221 77 242 139 Q 312 352 312 358 Q 311 368 301 361 Q 291 355 182 174 Q 170 155 144 133 Z" style="fill: #0070C0;"></path>
                                                                        <path d="M 416 548 Q 388 567 359 575 Q 352 578 345 572 Q 335 565 346 551 Q 400 458 404 226 Q 404 160 443 121 Q 446 118 451 115 Q 470 109 474 140 L 474 178 Q 473 203 465 231 Q 461 276 454 331 L 451 362 Q 444 443 443 508 C 443 531 441 532 416 548 Z" style="fill: #0070C0;"></path>
                                                                        <path d="M 714 166 Q 727 138 754 86 Q 764 67 775 68 Q 793 72 803 101 Q 843 186 845 297 Q 851 367 856 449 Q 862 501 886 535 Q 905 557 891 571 Q 867 595 816 617 Q 795 629 759 615 Q 632 567 416 548 C 386 545 413 503 443 508 Q 449 508 458 510 Q 567 532 736 562 Q 766 568 779 553 Q 789 534 791 515 Q 792 365 766 220 Q 765 195 753 191 L 751 191 C 735 166 705 185 714 166 Z" style="fill: #0070C0;"></path>
                                                                        <path d="M 454 331 Q 466 330 481 331 Q 611 350 707 360 Q 735 364 725 379 Q 713 397 684 403 Q 656 407 608 397 Q 524 378 451 362 C 422 356 424 333 454 331 Z" style="fill: #0070C0;"></path>
                                                                        <path d="M 474 140 Q 517 155 714 166 C 744 168 773 171 751 191 Q 744 198 728 209 Q 712 219 678 212 Q 566 190 474 178 C 444 174 445 131 474 140 Z" style="fill: #0070C0;"></path>
                                    
                                    
                                                                                                                                                                                                                                                                                                                                                                                                                                                                                                                                                                                                                                </g>
                            </svg>