<svg width='83' height='83' >
                                <g transform="translate(3, 70) scale(0.07, -0.07)">
                                    <!-- 先将完整的字以灰色字体绘制完成，层级位于下面 -->
                                                                        <path d="M 215 721 Q 242 696 270 667 Q 286 651 305 652 Q 318 653 324 669 Q 330 687 320 722 Q 307 758 210 778 Q 191 782 184 780 Q 178 776 180 760 Q 184 747 215 721 Z" style="fill: #0070C0;"></path>
                                                                        <path d="M 116 537 Q 164 482 203 461 Q 219 458 230 473 Q 237 486 235 506 Q 223 554 133 579 Q 132 580 131 580 Q 112 584 102 581 Q 95 580 97 566 Q 98 553 116 537 Z" style="fill: #0070C0;"></path>
                                                                        <path d="M 145 194 Q 132 190 135 172 Q 147 97 184 75 Q 191 68 202 71 Q 211 72 211 99 Q 220 153 321 407 Q 328 423 327 430 Q 326 440 317 433 Q 307 426 294 409 Q 237 318 186 237 Q 173 215 145 194 Z" style="fill: #0070C0;"></path>
                                                                        <path d="M 535 758 Q 566 727 601 690 Q 616 674 633 674 Q 646 674 652 689 Q 659 705 651 740 Q 642 776 533 813 Q 515 817 508 815 Q 502 811 503 796 Q 506 783 535 758 Z" style="fill: #0070C0;"></path>
                                                                        <path d="M 619 555 Q 709 568 845 572 Q 906 572 913 583 Q 917 596 900 609 Q 845 648 806 637 Q 689 609 344 551 Q 322 548 339 531 Q 372 504 422 516 Q 492 537 571 547 L 619 555 Z" style="fill: #0070C0;"></path>
                                                                        <path d="M 571 547 Q 593 480 570 188 Q 558 62 563 48 Q 572 3 603 -22 L 604 -23 Q 617 -24 622 -10 Q 635 24 631 56 Q 622 434 637 525 Q 637 540 619 555 C 599 577 564 576 571 547 Z" style="fill: #0070C0;"></path>
                                                                        <path d="M 668 413 Q 732 364 809 291 Q 828 272 844 268 Q 854 267 861 279 Q 873 294 856 339 Q 844 379 762 412 Q 753 421 667 446 Q 657 450 656 437 Q 656 424 668 413 Z" style="fill: #0070C0;"></path>
                                    
                                    
                                                                                                                                                                                                                                                                                                                                                                                                                                                                                                                                                                                                                                </g>
                            </svg>