<svg width='83' height='83' >
                                <g transform="translate(3, 70) scale(0.07, -0.07)">
                                    <!-- 先将完整的字以灰色字体绘制完成，层级位于下面 -->
                                                                        <path d="M 223 699 Q 248 678 275 653 Q 291 640 308 641 Q 320 642 325 656 Q 329 672 318 705 Q 306 735 216 751 Q 198 755 192 751 Q 186 747 189 733 Q 193 720 223 699 Z" style="fill: #0070C0;"></path>
                                                                        <path d="M 133 497 Q 185 446 223 432 Q 239 431 247 444 Q 251 457 248 475 Q 241 499 221 510 Q 173 538 129 539 Q 122 539 117 536 Q 110 535 114 522 Q 117 510 133 497 Z" style="fill: #0070C0;"></path>
                                                                        <path d="M 142 130 Q 129 126 133 107 Q 155 28 189 14 Q 196 7 207 10 Q 216 13 215 39 Q 218 84 307 363 Q 313 379 312 386 Q 311 396 301 389 Q 285 376 182 177 Q 169 155 142 130 Z" style="fill: #0070C0;"></path>
                                                                        <path d="M 488 706 Q 516 752 541 790 Q 551 803 536 818 Q 488 851 465 847 Q 455 844 457 830 Q 470 731 367 608 Q 355 602 317 552 Q 310 536 324 542 Q 343 545 368 565 Q 435 620 476 685 L 488 706 Z" style="fill: #0070C0;"></path>
                                                                        <path d="M 476 685 Q 521 660 579 675 Q 768 720 776 727 Q 785 736 780 744 Q 773 756 742 762 Q 711 766 681 754 Q 641 738 596 726 Q 547 713 488 706 C 458 702 449 699 476 685 Z" style="fill: #0070C0;"></path>
                                                                        <path d="M 450 561 Q 416 552 442 538 Q 487 519 537 535 Q 598 553 664 571 Q 692 580 697 585 Q 704 592 700 601 Q 693 611 663 616 Q 635 620 606 606 Q 573 593 537 580 Q 497 568 450 561 Z" style="fill: #0070C0;"></path>
                                                                        <path d="M 370 410 Q 355 409 362 393 Q 366 381 391 373 Q 416 364 439 372 Q 658 447 665 444 Q 674 438 669 419 Q 584 -20 937 -22 Q 958 -21 971 -15 Q 990 -8 982 19 Q 966 77 961 143 Q 960 176 953 184 Q 946 191 939 175 Q 909 76 887 56 Q 866 44 842 54 Q 799 64 762 97 Q 707 146 703 269 Q 700 378 759 444 Q 775 456 767 466 Q 758 481 702 502 Q 686 509 671 497 Q 625 469 509 437 Q 433 415 370 410 Z" style="fill: #0070C0;"></path>
                                    
                                    
                                                                                                                                                                                                                                                                                                                                                                                                                                                                                                                                                                                                                                </g>
                            </svg>