<svg width='83' height='83' >
                                <g transform="translate(3, 70) scale(0.07, -0.07)">
                                    <!-- 先将完整的字以灰色字体绘制完成，层级位于下面 -->
                                                                        <path d="M 232 693 Q 254 671 279 644 Q 294 629 311 630 Q 323 630 328 645 Q 334 661 325 694 Q 321 713 290 727 Q 220 754 204 747 Q 198 743 200 729 Q 204 716 232 693 Z" style="fill: #0070C0;"></path>
                                                                        <path d="M 141 509 Q 193 458 231 444 Q 247 443 255 456 Q 259 469 256 487 Q 249 511 229 522 Q 181 550 137 551 Q 130 551 125 548 Q 118 547 122 534 Q 125 522 141 509 Z" style="fill: #0070C0;"></path>
                                                                        <path d="M 141 173 Q 128 169 132 151 Q 154 72 189 58 Q 196 51 208 55 Q 215 56 214 83 Q 217 131 287 367 Q 293 383 292 390 Q 291 400 281 393 Q 275 390 175 213 Q 165 194 141 173 Z" style="fill: #0070C0;"></path>
                                                                        <path d="M 452 576 Q 489 625 531 697 Q 549 733 565 750 Q 574 760 568 774 Q 564 787 534 807 Q 506 823 488 822 Q 469 819 479 798 Q 491 776 484 756 Q 463 687 428 623 Q 394 560 345 491 Q 335 481 334 474 Q 331 462 345 466 Q 370 473 441 561 L 452 576 Z" style="fill: #0070C0;"></path>
                                                                        <path d="M 669 88 Q 654 84 574 111 Q 564 114 563 107 Q 562 103 575 93 Q 623 44 643 9 Q 655 -13 669 -13 Q 691 -14 713 8 Q 794 75 814 228 Q 830 336 841 500 Q 842 537 866 566 Q 879 581 879 590 Q 878 599 856 613 Q 828 635 788 646 Q 766 655 702 632 Q 513 587 452 576 C 423 570 416 569 441 561 Q 471 542 529 557 Q 752 596 761 589 Q 768 574 770 525 Q 771 242 708 127 Q 692 90 669 88 Z" style="fill: #0070C0;"></path>
                                                                        <path d="M 586 327 Q 520 314 450 292 Q 443 288 439 291 Q 438 294 442 303 Q 524 427 541 448 Q 551 458 546 470 Q 539 480 492 500 Q 476 506 468 502 Q 456 495 463 476 Q 487 419 393 305 Q 377 290 357 273 Q 345 261 349 251 Q 355 235 380 218 Q 390 208 403 220 Q 434 253 599 303 C 628 312 615 333 586 327 Z" style="fill: #0070C0;"></path>
                                                                        <path d="M 599 303 Q 626 252 637 247 Q 646 246 653 253 Q 662 263 663 289 Q 666 310 643 335 Q 582 389 573 386 Q 567 385 565 374 Q 564 365 586 327 L 599 303 Z" style="fill: #0070C0;"></path>
                                    
                                    
                                                                                                                                                                                                                                                                                                                                                                                                                                                                                                                                                                                                                                </g>
                            </svg>