<svg width='83' height='83' >
                                <g transform="translate(3, 70) scale(0.07, -0.07)">
                                    <!-- 先将完整的字以灰色字体绘制完成，层级位于下面 -->
                                                                        <path d="M 233 695 Q 261 668 293 636 Q 308 621 326 621 Q 338 622 344 637 Q 350 653 341 688 Q 332 721 229 750 Q 211 754 204 751 Q 198 747 200 732 Q 204 719 233 695 Z" style="fill: #0070C0;"></path>
                                                                        <path d="M 128 514 Q 183 454 217 441 Q 233 438 243 453 Q 249 466 246 484 Q 234 529 143 555 Q 142 556 141 556 Q 123 560 113 557 Q 106 556 110 542 Q 111 529 128 514 Z" style="fill: #0070C0;"></path>
                                                                        <path d="M 131 150 Q 118 146 120 128 Q 132 47 169 26 Q 176 19 188 21 Q 195 22 198 50 Q 204 95 320 370 Q 327 386 327 393 Q 326 403 316 397 Q 303 388 176 194 Q 161 172 131 150 Z" style="fill: #0070C0;"></path>
                                                                        <path d="M 631 574 Q 790 610 794 613 Q 804 622 799 631 Q 792 644 760 652 Q 730 658 632 626 L 573 611 Q 507 598 435 592 Q 395 585 424 567 Q 466 540 531 556 Q 550 560 573 563 L 631 574 Z" style="fill: #0070C0;"></path>
                                                                        <path d="M 629 425 Q 788 458 790 459 Q 799 466 795 476 Q 788 488 758 497 Q 730 503 629 473 L 573 461 Q 509 451 435 445 Q 398 441 424 422 Q 466 395 526 409 Q 548 413 573 416 L 629 425 Z" style="fill: #0070C0;"></path>
                                                                        <path d="M 629 275 Q 686 281 888 282 Q 910 282 916 292 Q 922 305 903 320 Q 837 368 784 350 Q 721 338 629 322 L 573 314 Q 468 301 350 285 Q 326 282 344 263 Q 381 230 430 244 Q 496 262 573 268 L 629 275 Z" style="fill: #0070C0;"></path>
                                                                        <path d="M 629 322 Q 629 373 629 425 L 629 473 Q 629 528 631 574 L 632 626 Q 635 740 655 774 Q 662 790 641 807 Q 616 826 571 838 Q 550 844 537 829 Q 527 820 540 808 Q 570 783 572 747 Q 572 693 573 611 L 573 563 Q 573 517 573 461 L 573 416 Q 576 404 573 314 L 573 268 Q 567 -8 588 -44 Q 603 -60 612 -38 Q 630 4 629 275 L 629 322 Z" style="fill: #0070C0;"></path>
                                    
                                    
                                                                                                                                                                                                                                                                                                                                                                                                                                                                                                                                                                                                                                </g>
                            </svg>