<svg width='83' height='83' >
                                <g transform="translate(3, 70) scale(0.07, -0.07)">
                                    <!-- 先将完整的字以灰色字体绘制完成，层级位于下面 -->
                                                                        <path d="M 260 707 Q 294 683 330 654 Q 345 642 361 644 Q 373 645 377 660 Q 380 676 368 706 Q 355 739 251 756 Q 235 759 228 755 Q 224 751 226 737 Q 230 727 260 707 Z" style="fill: #0070C0;"></path>
                                                                        <path d="M 158 531 Q 213 476 253 460 Q 269 457 279 472 Q 285 487 281 504 Q 263 552 169 573 Q 150 577 141 573 Q 134 572 138 558 Q 139 545 158 531 Z" style="fill: #0070C0;"></path>
                                                                        <path d="M 132 178 Q 120 175 122 157 Q 138 82 171 64 Q 178 57 189 60 Q 196 61 197 87 Q 201 121 293 372 Q 300 388 299 394 Q 298 404 289 397 Q 274 387 170 217 Q 158 198 132 178 Z" style="fill: #0070C0;"></path>
                                                                        <path d="M 584 762 Q 618 737 653 707 Q 669 695 685 697 Q 697 698 701 712 Q 705 728 693 759 Q 686 781 649 795 Q 565 820 552 811 Q 546 807 549 793 Q 553 783 584 762 Z" style="fill: #0070C0;"></path>
                                                                        <path d="M 781 446 Q 812 536 850 559 Q 868 580 852 598 Q 834 613 778 639 Q 759 646 736 638 Q 655 599 506 568 C 477 562 489 526 518 533 L 718 584 Q 740 591 751 581 Q 760 571 756 551 Q 743 493 725 446 C 715 418 771 418 781 446 Z" style="fill: #0070C0;"></path>
                                                                        <path d="M 501 363 Q 513 360 527 364 Q 612 386 800 407 Q 810 408 812 418 Q 812 427 781 446 C 765 456 754 453 725 446 Q 602 415 505 399 C 475 394 471 367 501 363 Z" style="fill: #0070C0;"></path>
                                                                        <path d="M 506 568 Q 505 569 503 570 Q 454 595 437 593 Q 416 590 433 566 Q 467 508 440 306 Q 430 252 403 189 Q 375 120 292 45 Q 277 32 274 25 Q 271 18 284 18 Q 324 18 394 90 Q 466 165 497 334 Q 498 349 501 363 L 505 399 Q 509 448 512 505 Q 516 521 518 533 C 523 559 523 559 506 568 Z" style="fill: #0070C0;"></path>
                                    
                                    
                                                                                                                                                                                                                                                                                                                                                                                                                                                                                                                                                                                                                                </g>
                            </svg>