<svg width='83' height='83' >
                                <g transform="translate(3, 70) scale(0.07, -0.07)">
                                    <!-- 先将完整的字以灰色字体绘制完成，层级位于下面 -->
                                                                        <path d="M 242 700 Q 266 678 290 649 Q 306 633 325 633 Q 338 633 344 649 Q 351 665 341 702 Q 335 721 304 737 Q 228 767 212 760 Q 206 756 207 740 Q 211 727 242 700 Z" style="fill: #0070C0;"></path>
                                                                        <path d="M 133 503 Q 175 449 210 433 Q 226 429 238 445 Q 245 460 243 479 Q 236 507 215 523 Q 173 551 132 551 Q 123 552 118 549 Q 111 548 113 533 Q 114 520 133 503 Z" style="fill: #0070C0;"></path>
                                                                        <path d="M 125 138 Q 112 134 114 114 Q 126 33 167 10 Q 174 3 186 5 Q 195 6 196 35 Q 200 69 320 377 Q 327 395 327 401 Q 326 413 316 405 Q 301 396 172 186 Q 157 162 125 138 Z" style="fill: #0070C0;"></path>
                                                                        <path d="M 482 660 Q 463 676 446 683 Q 433 687 423 682 Q 413 678 417 665 Q 426 646 435 630 Q 444 605 444 562 Q 447 513 444 103 C 444 73 494 77 494 107 Q 495 201 496 284 L 496 312 Q 497 379 498 441 L 498 470 Q 499 521 500 566 Q 501 620 504 622 C 507 641 506 642 482 660 Z" style="fill: #0070C0;"></path>
                                                                        <path d="M 742 133 Q 741 389 752 560 Q 755 603 774 632 Q 787 648 773 668 Q 761 681 704 713 Q 686 725 616 694 Q 544 672 482 660 C 453 654 475 614 504 622 Q 514 623 527 628 Q 620 655 658 660 Q 673 664 678 658 Q 687 645 686 610 Q 686 334 683 126 C 683 96 742 103 742 133 Z" style="fill: #0070C0;"></path>
                                                                        <path d="M 498 441 Q 502 441 509 442 Q 576 455 628 465 Q 652 471 642 484 Q 629 499 602 501 Q 577 502 498 470 C 470 459 468 439 498 441 Z" style="fill: #0070C0;"></path>
                                                                        <path d="M 496 284 Q 503 284 511 285 Q 584 300 639 309 Q 664 315 654 328 Q 641 343 615 346 Q 575 349 496 312 C 469 299 466 283 496 284 Z" style="fill: #0070C0;"></path>
                                                                        <path d="M 444 103 Q 363 97 278 90 Q 256 89 271 71 Q 286 55 304 49 Q 326 42 342 47 Q 585 101 931 79 Q 952 78 957 87 Q 964 99 947 114 Q 890 159 828 145 Q 789 141 742 133 L 683 126 Q 643 122 596 117 Q 547 113 494 107 L 444 103 Z" style="fill: #0070C0;"></path>
                                    
                                    
                                                                                                                                                                                                                                                                                                                                                                                                                                                                                                                                                                                                                                                                                                            </g>
                            </svg>