<svg width='83' height='83' >
                                <g transform="translate(3, 70) scale(0.07, -0.07)">
                                    <!-- 先将完整的字以灰色字体绘制完成，层级位于下面 -->
                                                                        <path d="M 233 712 Q 264 687 297 654 Q 312 641 328 642 Q 340 643 345 657 Q 349 672 340 703 Q 333 725 299 741 Q 221 771 204 763 Q 198 759 200 745 Q 204 735 233 712 Z" style="fill: #0070C0;"></path>
                                                                        <path d="M 133 501 Q 187 447 227 432 Q 243 431 251 444 Q 255 457 252 475 Q 239 517 170 534 Q 131 546 117 540 Q 110 539 114 526 Q 117 514 133 501 Z" style="fill: #0070C0;"></path>
                                                                        <path d="M 133 110 Q 121 106 123 88 Q 135 13 172 -9 Q 179 -16 190 -13 Q 197 -12 199 14 Q 205 57 321 343 Q 328 359 327 366 Q 326 376 317 369 Q 299 357 178 157 Q 165 135 133 110 Z" style="fill: #0070C0;"></path>
                                                                        <path d="M 467 553 Q 468 556 469 557 Q 484 591 498 621 Q 505 633 490 643 Q 448 665 428 658 Q 419 654 423 642 Q 447 579 390 479 Q 386 476 363 434 Q 359 421 370 427 Q 412 442 459 534 L 467 553 Z" style="fill: #0070C0;"></path>
                                                                        <path d="M 618 537 Q 763 576 768 579 Q 777 588 772 596 Q 765 608 734 614 Q 703 618 673 605 Q 648 596 621 587 L 574 573 Q 525 563 472 554 Q 469 554 467 553 C 438 548 438 548 459 534 Q 468 525 502 518 Q 532 515 572 526 L 618 537 Z" style="fill: #0070C0;"></path>
                                                                        <path d="M 605 340 Q 642 349 857 368 Q 878 369 882 379 Q 886 392 869 405 Q 806 444 757 424 Q 699 409 607 385 L 559 375 Q 480 359 391 340 Q 369 336 387 320 Q 423 292 460 304 Q 502 319 551 329 L 605 340 Z" style="fill: #0070C0;"></path>
                                                                        <path d="M 607 385 Q 613 491 618 537 L 621 587 Q 622 689 650 747 Q 657 760 646 772 Q 624 791 584 803 Q 559 810 549 803 Q 540 796 548 783 Q 570 746 573 698 Q 574 635 574 573 L 572 526 Q 572 508 559 375 L 551 329 Q 520 188 442 116 Q 391 71 309 27 Q 297 20 297 15 Q 298 11 309 10 Q 328 6 373 23 Q 529 71 581 242 Q 588 270 595 303 L 607 385 Z" style="fill: #0070C0;"></path>
                                                                        <path d="M 595 303 Q 668 176 764 38 Q 782 16 814 14 Q 925 7 960 10 Q 970 11 972 17 Q 973 23 959 31 Q 824 98 774 144 Q 696 223 608 336 Q 607 339 605 340 C 587 364 569 347 595 303 Z" style="fill: #0070C0;"></path>
                                    
                                    
                                                                                                                                                                                                                                                                                                                                                                                                                                                                                                                                                                                                                                                                                                            </g>
                            </svg>