<svg width='83' height='83' >
                                <g transform="translate(3, 70) scale(0.07, -0.07)">
                                    <!-- 先将完整的字以灰色字体绘制完成，层级位于下面 -->
                                                                        <path d="M 233 686 Q 260 662 287 635 Q 302 620 319 621 Q 331 622 337 637 Q 341 653 332 685 Q 320 718 228 738 Q 212 742 204 739 Q 198 735 200 721 Q 204 708 233 686 Z" style="fill: #0070C0;"></path>
                                                                        <path d="M 132 470 Q 181 413 217 398 Q 233 394 243 409 Q 249 422 246 440 Q 233 489 145 511 Q 127 517 117 513 Q 110 512 113 498 Q 114 485 132 470 Z" style="fill: #0070C0;"></path>
                                                                        <path d="M 131 122 Q 118 118 121 100 Q 139 21 173 4 Q 180 -3 191 0 Q 198 1 199 28 Q 205 73 305 343 Q 312 359 311 366 Q 310 376 301 369 Q 288 360 172 167 Q 159 145 131 122 Z" style="fill: #0070C0;"></path>
                                                                        <path d="M 486 604 Q 520 650 558 714 Q 577 750 593 768 Q 603 778 597 793 Q 593 806 562 827 Q 534 843 514 843 Q 495 840 505 818 Q 518 796 510 775 Q 473 658 365 504 Q 355 492 354 486 Q 350 476 365 478 Q 395 485 468 581 L 486 604 Z" style="fill: #0070C0;"></path>
                                                                        <path d="M 468 581 Q 502 565 521 569 Q 738 629 749 605 Q 753 595 753 568 Q 750 471 733 418 Q 726 385 715 375 Q 705 365 682 373 Q 663 377 644 383 Q 622 393 635 369 Q 668 323 684 287 Q 690 268 708 270 Q 721 271 739 290 Q 788 333 814 530 Q 820 573 837 598 Q 853 619 844 628 Q 829 647 796 662 Q 771 675 745 663 Q 634 615 486 604 C 456 601 440 592 468 581 Z" style="fill: #0070C0;"></path>
                                                                        <path d="M 585 339 Q 604 405 625 425 Q 646 449 625 462 Q 606 472 582 489 Q 564 499 547 488 Q 528 475 500 465 Q 476 458 446 449 C 417 440 423 418 453 423 Q 462 424 473 427 Q 504 434 532 441 Q 551 445 555 437 Q 558 434 538 346 C 531 317 576 310 585 339 Z" style="fill: #0070C0;"></path>
                                                                        <path d="M 434 286 Q 444 283 456 287 Q 499 299 594 311 Q 604 312 605 321 Q 605 328 585 339 L 538 346 Q 535 346 532 344 Q 480 328 437 317 C 408 310 405 292 434 286 Z" style="fill: #0070C0;"></path>
                                                                        <path d="M 945 111 Q 929 142 906 240 Q 905 258 897 262 Q 890 266 886 246 Q 862 141 843 108 Q 822 83 762 67 Q 698 51 621 54 Q 555 57 505 78 Q 459 100 447 128 Q 425 174 434 286 L 437 317 Q 443 366 453 421 Q 453 422 453 423 C 456 442 456 442 446 449 Q 433 462 410 471 Q 397 475 389 470 Q 382 466 388 449 Q 400 410 397 373 Q 382 166 400 109 Q 406 75 437 48 Q 537 -33 768 -3 Q 795 1 823 9 Q 881 25 940 64 Q 962 82 945 111 Z" style="fill: #0070C0;"></path>
                                    
                                    
                                                                                                                                                                                                                                                                                                                                                                                                                                                                                                                                                                                                                                                                                                            </g>
                            </svg>