<svg width='83' height='83' >
                                <g transform="translate(3, 70) scale(0.07, -0.07)">
                                    <!-- 先将完整的字以灰色字体绘制完成，层级位于下面 -->
                                                                        <path d="M 235 707 Q 260 686 287 661 Q 303 648 320 649 Q 332 650 337 664 Q 341 680 330 713 Q 318 743 228 759 Q 210 763 204 759 Q 198 755 201 741 Q 205 728 235 707 Z" style="fill: #0070C0;"></path>
                                                                        <path d="M 142 519 Q 191 461 222 447 Q 237 443 247 457 Q 254 470 251 487 Q 239 533 157 557 L 156 558 Q 140 564 130 560 Q 123 559 125 546 Q 126 534 142 519 Z" style="fill: #0070C0;"></path>
                                                                        <path d="M 141 202 Q 128 199 130 181 Q 143 102 176 82 Q 183 75 194 77 Q 201 78 204 104 Q 211 150 320 399 Q 327 415 327 422 Q 327 432 317 426 Q 305 420 183 242 Q 170 223 141 202 Z" style="fill: #0070C0;"></path>
                                                                        <path d="M 732 616 Q 760 686 789 702 Q 805 721 791 738 Q 775 751 722 777 Q 704 784 682 776 Q 622 749 496 722 C 467 716 472 688 502 691 Q 517 691 535 698 Q 688 731 695 725 Q 702 718 700 700 Q 690 654 677 616 C 668 588 721 588 732 616 Z" style="fill: #0070C0;"></path>
                                                                        <path d="M 482 548 Q 497 536 519 541 Q 592 560 749 581 Q 759 582 760 592 Q 760 599 732 616 C 715 627 706 624 677 616 Q 571 586 486 572 Q 483 572 484 571 C 456 564 457 564 482 548 Z" style="fill: #0070C0;"></path>
                                                                        <path d="M 496 722 Q 481 735 456 747 Q 437 757 424 753 Q 412 746 419 732 Q 443 699 435 609 Q 434 605 434 599 Q 425 419 373 270 Q 337 174 239 18 Q 233 12 232 6 Q 229 -4 240 -3 Q 267 3 345 114 Q 370 153 393 200 Q 457 347 482 548 L 484 571 Q 484 572 485 573 Q 494 663 501 689 Q 501 690 502 691 C 507 714 507 714 496 722 Z" style="fill: #0070C0;"></path>
                                                                        <path d="M 578 252 Q 612 270 771 366 Q 792 379 817 388 Q 839 395 831 414 Q 819 433 795 451 Q 773 467 759 466 Q 746 466 749 452 Q 750 419 666 347 Q 624 313 580 273 C 558 253 552 238 578 252 Z" style="fill: #0070C0;"></path>
                                                                        <path d="M 963 100 Q 941 148 924 230 Q 921 246 913 250 Q 906 254 903 234 Q 896 131 883 112 Q 853 76 721 76 Q 651 79 620 91 Q 593 104 588 123 Q 576 154 577 235 Q 577 244 578 252 L 580 273 Q 586 334 600 366 Q 613 397 594 413 Q 543 452 528 448 Q 513 442 520 425 Q 539 388 535 332 Q 528 125 557 81 Q 587 45 665 33 Q 726 23 823 28 Q 911 32 946 50 Q 977 68 963 100 Z" style="fill: #0070C0;"></path>
                                    
                                    
                                                                                                                                                                                                                                                                                                                                                                                                                                                                                                                                                                                                                                                                                                            </g>
                            </svg>