<svg width='83' height='83' >
                                <g transform="translate(3, 70) scale(0.07, -0.07)">
                                    <!-- 先将完整的字以灰色字体绘制完成，层级位于下面 -->
                                                                        <path d="M 235 709 Q 265 681 295 649 Q 310 634 327 634 Q 339 634 345 649 Q 351 665 342 698 Q 333 732 232 761 Q 216 765 208 763 Q 202 759 203 745 Q 207 732 235 709 Z" style="fill: #0070C0;"></path>
                                                                        <path d="M 129 499 Q 192 436 233 420 Q 249 419 259 433 Q 265 446 261 464 Q 248 513 143 540 Q 142 541 141 541 Q 123 545 113 541 Q 106 540 110 526 Q 111 513 129 499 Z" style="fill: #0070C0;"></path>
                                                                        <path d="M 125 138 Q 112 135 114 117 Q 127 38 160 18 Q 167 11 178 13 Q 185 14 188 40 Q 197 92 312 351 Q 319 367 319 374 Q 318 384 309 378 Q 294 369 169 181 Q 156 159 125 138 Z" style="fill: #0070C0;"></path>
                                                                        <path d="M 539 723 Q 566 701 595 673 Q 611 660 628 661 Q 640 662 645 676 Q 649 692 638 725 Q 626 755 532 775 Q 514 779 508 775 Q 502 771 505 757 Q 509 744 539 723 Z" style="fill: #0070C0;"></path>
                                                                        <path d="M 532 516 Q 677 549 865 549 Q 889 549 893 559 Q 897 572 880 585 Q 823 622 786 612 Q 660 579 336 524 Q 314 520 331 503 Q 367 473 404 486 Q 446 499 492 508 L 532 516 Z" style="fill: #0070C0;"></path>
                                                                        <path d="M 590 296 Q 587 297 462 298 Q 431 298 448 316 Q 503 389 556 444 Q 572 460 569 468 Q 568 483 532 516 C 510 537 490 538 492 508 Q 501 469 429 357 Q 413 332 382 309 Q 363 296 364 283 Q 367 264 381 246 Q 391 234 403 241 Q 433 256 531 270 Q 556 273 576 278 C 605 285 620 295 590 296 Z" style="fill: #0070C0;"></path>
                                                                        <path d="M 714 145 Q 612 135 497 110 Q 464 101 487 125 Q 541 185 665 303 Q 702 343 735 363 Q 751 373 744 386 Q 735 408 699 435 Q 683 448 671 446 Q 659 445 659 425 Q 659 386 590 296 L 576 278 Q 575 277 574 275 Q 430 119 395 104 Q 377 95 379 79 Q 379 63 407 38 Q 417 22 436 35 Q 565 98 726 122 C 756 127 744 148 714 145 Z" style="fill: #0070C0;"></path>
                                                                        <path d="M 726 122 Q 774 26 784 19 Q 791 15 801 22 Q 817 31 818 76 Q 819 133 686 244 Q 679 251 674 240 Q 670 227 676 215 Q 695 184 714 145 L 726 122 Z" style="fill: #0070C0;"></path>
                                    
                                    
                                                                                                                                                                                                                                                                                                                                                                                                                                                                                                                                                                                                                                                                                                            </g>
                            </svg>