<svg width='83' height='83' >
                                <g transform="translate(3, 70) scale(0.07, -0.07)">
                                    <!-- 先将完整的字以灰色字体绘制完成，层级位于下面 -->
                                                                        <path d="M 470 735 Q 545 745 784 761 Q 796 758 806 771 Q 809 784 785 797 Q 748 819 689 808 Q 475 775 312 767 Q 282 766 251 763 Q 220 762 242 741 Q 275 708 308 715 Q 359 722 417 729 L 470 735 Z" style="fill: #0070C0;"></path>
                                                                        <path d="M 395 613 Q 419 643 481 699 Q 491 709 489 718 Q 488 728 470 735 C 444 750 428 757 417 729 Q 380 624 121 451 Q 102 438 126 440 Q 198 443 356 576 L 395 613 Z" style="fill: #0070C0;"></path>
                                                                        <path d="M 356 576 Q 374 531 385 464 Q 386 439 401 423 Q 417 402 423 417 Q 426 426 427 439 L 424 472 Q 414 560 413 582 C 410 632 329 646 356 576 Z" style="fill: #0070C0;"></path>
                                                                        <path d="M 413 582 Q 423 583 435 587 Q 511 600 584 615 Q 603 619 610 611 Q 617 604 616 586 Q 607 543 596 507 C 587 478 639 475 649 503 Q 673 572 703 588 Q 719 606 705 624 Q 633 682 579 655 Q 513 631 395 613 C 365 608 383 577 413 582 Z" style="fill: #0070C0;"></path>
                                                                        <path d="M 487 449 Q 551 462 661 472 Q 671 473 672 481 Q 672 488 649 503 C 630 516 625 514 596 507 Q 502 483 424 472 C 394 468 397 436 427 439 Q 430 439 436 440 Q 442 441 452 443 L 487 449 Z" style="fill: #0070C0;"></path>
                                                                        <path d="M 536 332 Q 539 363 548 385 Q 557 404 540 418 Q 515 440 487 449 C 459 460 440 468 452 443 Q 452 437 459 428 Q 481 388 481 342 Q 487 99 465 81 Q 459 77 383 91 Q 370 94 371 86 Q 372 79 382 70 Q 448 7 470 -31 Q 486 -50 502 -35 Q 541 5 540 75 Q 537 105 535 298 L 536 332 Z" style="fill: #0070C0;"></path>
                                                                        <path d="M 204 339 Q 191 340 190 332 Q 189 325 202 317 Q 242 292 268 299 Q 356 318 363 317 Q 373 313 360 294 Q 311 206 264 164 Q 218 116 132 68 Q 116 58 125 55 Q 135 52 154 58 Q 229 85 291 130 Q 349 172 424 280 Q 436 299 447 308 Q 462 317 455 327 Q 448 340 415 356 Q 397 368 352 353 Q 276 340 204 339 Z" style="fill: #0070C0;"></path>
                                                                        <path d="M 609 271 Q 655 295 749 352 Q 768 365 793 373 Q 815 380 806 399 Q 796 418 771 434 Q 749 450 737 448 Q 724 448 727 435 Q 728 405 661 344 Q 628 316 594 283 C 572 262 582 257 609 271 Z" style="fill: #0070C0;"></path>
                                                                        <path d="M 594 283 Q 566 307 536 332 C 513 351 515 321 535 298 Q 632 187 756 72 Q 778 53 810 56 Q 922 71 957 80 Q 967 84 968 89 Q 968 95 952 101 Q 790 140 699 205 Q 656 236 609 271 L 594 283 Z" style="fill: #0070C0;"></path>
                                    
                                    
                                                                                                                                                                                                                                                                                                                                                                                                                                                                                                                                                                                                                                                                                                                                                                                        </g>
                            </svg>