<svg width='83' height='83' >
                                <g transform="translate(3, 70) scale(0.07, -0.07)">
                                    <!-- 先将完整的字以灰色字体绘制完成，层级位于下面 -->
                                                                        <path d="M 315 695 Q 342 670 370 638 Q 382 625 397 624 Q 407 624 413 637 Q 417 650 412 680 Q 408 699 377 717 Q 310 747 292 743 Q 288 739 288 727 Q 291 717 315 695 Z" style="fill: #0070C0;"></path>
                                                                        <path d="M 453 748 Q 474 720 495 689 Q 504 676 517 672 Q 527 671 533 681 Q 540 693 538 719 Q 535 749 459 790 Q 446 796 440 795 Q 436 792 434 781 Q 435 771 453 748 Z" style="fill: #0070C0;"></path>
                                                                        <path d="M 647 774 Q 623 728 574 654 Q 568 645 575 639 Q 584 638 591 644 Q 682 729 728 761 Q 747 768 741 780 Q 732 796 710 814 Q 688 830 663 830 Q 647 829 650 807 Q 654 792 647 774 Z" style="fill: #0070C0;"></path>
                                                                        <path d="M 249 542 Q 239 561 230 567 Q 211 582 209 556 Q 213 529 199 505 Q 184 489 163 470 Q 153 458 157 437 Q 161 407 171 391 Q 186 364 206 392 Q 219 414 230 445 Q 251 511 254 512 C 260 523 260 523 249 542 Z" style="fill: #0070C0;"></path>
                                                                        <path d="M 254 512 Q 278 500 314 508 Q 432 547 671 573 Q 720 579 737 576 Q 753 564 752 557 Q 752 553 721 479 Q 714 466 721 461 Q 728 457 745 469 Q 800 509 846 523 Q 883 536 883 545 Q 882 555 807 608 Q 782 629 668 604 Q 584 594 363 558 Q 308 548 251 543 Q 250 543 249 542 C 219 538 225 521 254 512 Z" style="fill: #0070C0;"></path>
                                                                        <path d="M 533 355 Q 533 416 543 447 Q 552 466 535 479 Q 510 501 479 510 Q 460 516 453 508 Q 447 502 458 487 Q 480 448 480 406 Q 493 108 467 88 Q 457 79 441 84 Q 399 90 358 96 Q 345 97 348 90 Q 349 83 360 77 Q 450 22 484 -16 Q 499 -32 514 -17 Q 547 22 541 89 Q 537 123 533 320 L 533 355 Z" style="fill: #0070C0;"></path>
                                                                        <path d="M 178 327 Q 166 327 165 319 Q 164 312 177 305 Q 220 281 245 290 Q 342 315 352 314 Q 362 311 352 289 Q 289 156 175 77 Q 160 67 169 63 Q 179 62 198 69 Q 259 94 308 138 Q 356 178 416 281 Q 426 302 438 311 Q 451 321 444 331 Q 437 343 402 357 Q 381 369 337 349 Q 264 331 178 327 Z" style="fill: #0070C0;"></path>
                                                                        <path d="M 583 315 Q 677 360 724 375 Q 742 376 740 388 Q 737 404 722 426 Q 707 447 686 453 Q 671 454 669 436 Q 666 412 568 330 C 545 311 556 302 583 315 Z" style="fill: #0070C0;"></path>
                                                                        <path d="M 568 330 Q 547 351 533 355 C 506 369 512 341 533 320 Q 578 275 629 213 Q 680 153 773 77 Q 803 56 845 68 Q 900 81 940 91 Q 953 94 965 100 Q 972 107 960 116 Q 945 123 824 157 Q 719 188 583 315 L 568 330 Z" style="fill: #0070C0;"></path>
                                    
                                    
                                                                                                                                                                                                                                                                                                                                                                                                                                                                                                                                                                                                                                                                                                                                                                                        </g>
                            </svg>