<svg width='83' height='83' >
                                <g transform="translate(3, 70) scale(0.07, -0.07)">
                                    <!-- 先将完整的字以灰色字体绘制完成，层级位于下面 -->
                                                                        <path d="M 234 699 Q 265 672 297 640 Q 312 624 330 625 Q 343 626 348 641 Q 354 657 344 692 Q 338 714 303 731 Q 219 764 204 755 Q 198 751 200 736 Q 204 723 234 699 Z" style="fill: #0070C0;"></path>
                                                                        <path d="M 127 512 Q 181 445 215 431 Q 231 427 242 441 Q 249 454 248 474 Q 233 528 145 553 Q 144 554 143 554 Q 124 561 114 557 Q 107 556 109 542 Q 110 529 127 512 Z" style="fill: #0070C0;"></path>
                                                                        <path d="M 134 137 Q 121 133 125 113 Q 146 32 183 12 Q 192 5 203 9 Q 210 10 211 39 Q 214 72 306 365 Q 313 383 312 390 Q 311 400 300 393 Q 287 383 175 183 Q 163 161 134 137 Z" style="fill: #0070C0;"></path>
                                                                        <path d="M 544 520 Q 619 538 763 560 Q 776 559 785 574 Q 786 587 760 598 Q 721 622 640 594 Q 568 576 554 570 L 494 557 Q 437 551 360 537 Q 327 531 353 513 Q 386 488 436 496 Q 457 502 484 507 L 544 520 Z" style="fill: #0070C0;"></path>
                                                                        <path d="M 484 507 Q 433 303 342 166 Q 335 157 328 146 Q 300 101 269 60 Q 263 53 261 47 Q 257 35 269 37 Q 302 43 395 162 Q 419 198 443 239 Q 509 365 544 520 L 554 570 Q 578 717 588 742 Q 598 757 591 771 Q 575 790 542 808 Q 523 821 508 817 Q 495 810 500 794 Q 521 761 515 705 Q 502 603 494 557 L 484 507 Z" style="fill: #0070C0;"></path>
                                                                        <path d="M 569 144 Q 573 90 608 63 Q 657 24 840 28 Q 922 32 955 49 Q 986 65 974 97 Q 956 149 947 240 Q 946 256 938 262 Q 929 268 925 246 Q 906 135 890 115 Q 859 85 745 81 Q 681 82 654 92 Q 620 110 614 180 L 612 229 Q 612 328 638 391 Q 651 422 631 440 Q 579 480 562 477 Q 546 470 554 453 Q 575 413 569 355 Q 565 249 566 187 L 569 144 Z" style="fill: #0070C0;"></path>
                                                                        <path d="M 566 187 Q 520 148 468 106 Q 458 99 454 94 Q 448 84 461 84 Q 485 84 569 144 L 614 180 Q 672 226 743 298 Q 774 335 800 351 Q 810 358 809 372 Q 808 384 787 410 Q 768 431 750 434 Q 734 435 736 415 Q 743 385 727 364 Q 678 292 612 229 L 566 187 Z" style="fill: #0070C0;"></path>
                                                                        <path d="M 709 703 Q 740 678 775 649 Q 790 636 806 638 Q 816 639 821 652 Q 825 668 814 697 Q 802 731 702 751 Q 686 754 680 751 Q 676 747 677 734 Q 681 724 709 703 Z" style="fill: #0070C0;"></path>
                                    
                                    
                                                                                                                                                                                                                                                                                                                                                                                                                                                                                                                                                                                                                                                                                                            </g>
                            </svg>