<svg width='83' height='83' >
                                <g transform="translate(3, 70) scale(0.07, -0.07)">
                                    <!-- 先将完整的字以灰色字体绘制完成，层级位于下面 -->
                                                                        <path d="M 246 689 Q 274 664 302 632 Q 318 616 337 617 Q 350 617 356 633 Q 363 649 353 686 Q 343 717 242 746 Q 223 750 216 748 Q 210 744 211 728 Q 215 715 246 689 Z" style="fill: #0070C0;"></path>
                                                                        <path d="M 132 516 Q 181 456 215 442 Q 231 438 242 453 Q 249 466 247 486 Q 234 534 147 559 Q 128 565 118 561 Q 111 560 113 546 Q 114 533 132 516 Z" style="fill: #0070C0;"></path>
                                                                        <path d="M 129 126 Q 117 122 120 104 Q 138 28 173 8 Q 180 1 191 5 Q 198 6 199 33 Q 205 82 310 371 Q 317 387 315 394 Q 314 404 305 397 Q 290 388 173 176 Q 160 151 129 126 Z" style="fill: #0070C0;"></path>
                                                                        <path d="M 640 523 Q 676 569 713 635 Q 731 663 758 682 Q 774 689 774 699 Q 774 712 744 731 Q 707 755 693 755 Q 681 755 669 746 Q 539 706 472 700 Q 432 700 430 691 Q 429 687 436 682 Q 481 645 628 695 Q 650 702 658 695 Q 665 691 644 639 Q 574 459 359 369 Q 349 365 350 360 Q 351 356 358 355 Q 383 354 441 372 Q 480 384 521 411 Q 570 441 617 495 Q 621 501 626 506 L 640 523 Z" style="fill: #0070C0;"></path>
                                                                        <path d="M 626 506 Q 629 502 635 497 Q 717 442 820 359 Q 836 343 851 341 Q 858 340 865 351 Q 874 364 857 402 Q 839 451 640 523 C 612 533 605 528 626 506 Z" style="fill: #0070C0;"></path>
                                                                        <path d="M 609 292 Q 753 320 763 327 Q 772 334 767 344 Q 760 356 730 364 Q 699 370 669 358 Q 627 345 582 333 Q 533 323 474 318 Q 437 311 463 294 Q 506 270 563 283 Q 566 284 571 283 L 609 292 Z" style="fill: #0070C0;"></path>
                                                                        <path d="M 615 93 Q 625 169 632 226 Q 638 262 634 268 Q 621 283 609 292 C 586 311 565 312 571 283 Q 577 268 572 89 C 571 59 611 63 615 93 Z" style="fill: #0070C0;"></path>
                                                                        <path d="M 572 89 Q 467 79 350 67 Q 328 66 344 47 Q 359 31 377 25 Q 399 18 417 23 Q 582 59 841 51 Q 860 51 879 49 Q 901 48 906 57 Q 912 70 895 85 Q 841 128 800 121 Q 730 108 615 93 L 572 89 Z" style="fill: #0070C0;"></path>
                                    
                                    
                                                                                                                                                                                                                                                                                                                                                                                                                                                                                                                                                                                                                                                                                                            </g>
                            </svg>