<svg width='83' height='83' >
                                <g transform="translate(3, 70) scale(0.07, -0.07)">
                                    <!-- 先将完整的字以灰色字体绘制完成，层级位于下面 -->
                                                                        <path d="M 259 733 Q 281 715 305 692 Q 321 679 337 681 Q 347 682 353 696 Q 357 712 346 743 Q 334 771 251 783 Q 235 787 228 783 Q 222 779 225 765 Q 229 755 259 733 Z" style="fill: #0070C0;"></path>
                                                                        <path d="M 154 557 Q 200 512 235 499 Q 251 498 259 512 Q 263 525 260 543 Q 245 582 185 593 Q 151 602 137 596 Q 130 595 134 582 Q 137 570 154 557 Z" style="fill: #0070C0;"></path>
                                                                        <path d="M 141 218 Q 128 215 131 197 Q 143 125 179 104 Q 186 97 197 100 Q 204 101 205 126 Q 212 174 317 440 Q 324 456 323 462 Q 322 472 313 465 Q 298 455 183 263 Q 170 241 141 218 Z" style="fill: #0070C0;"></path>
                                                                        <path d="M 460 755 Q 496 695 525 676 Q 538 672 548 681 Q 555 691 555 706 Q 552 742 476 786 Q 463 793 454 791 Q 448 791 449 780 Q 449 770 460 755 Z" style="fill: #0070C0;"></path>
                                                                        <path d="M 707 808 Q 692 781 614 687 Q 604 669 622 673 Q 676 706 706 728 Q 763 777 796 791 Q 818 801 807 820 Q 792 838 765 853 Q 740 866 726 863 Q 713 862 717 848 Q 721 829 707 808 Z" style="fill: #0070C0;"></path>
                                                                        <path d="M 599 575 Q 665 588 734 599 Q 786 609 794 617 Q 803 624 799 632 Q 792 644 764 652 Q 742 658 632 627 Q 527 603 426 595 Q 390 591 415 574 Q 448 552 523 563 L 599 575 Z" style="fill: #0070C0;"></path>
                                                                        <path d="M 621 431 Q 660 440 759 450 Q 769 449 777 460 Q 778 470 758 480 Q 725 501 645 476 Q 633 473 623 470 L 566 459 Q 494 450 428 442 Q 403 439 422 423 Q 450 404 493 409 Q 526 416 566 422 L 621 431 Z" style="fill: #0070C0;"></path>
                                                                        <path d="M 618 285 Q 715 297 864 296 Q 927 293 935 304 Q 941 316 924 330 Q 872 369 834 360 Q 755 344 619 323 L 565 315 Q 454 302 329 286 Q 307 285 323 267 Q 336 254 355 248 Q 376 242 392 247 Q 473 269 565 278 L 618 285 Z" style="fill: #0070C0;"></path>
                                                                        <path d="M 565 -38 Q 571 -63 578 -73 Q 584 -80 591 -78 Q 606 -68 613 -9 Q 617 33 618 285 L 619 323 Q 619 372 621 431 L 623 470 Q 624 491 633 533 Q 636 552 622 561 Q 609 570 599 575 C 573 590 494 571 523 563 Q 538 563 547 554 Q 565 500 566 494 Q 565 493 566 490 Q 566 475 566 459 L 566 422 Q 566 373 565 315 L 565 278 Q 559 23 565 -38 Z" style="fill: #0070C0;"></path>
                                    
                                    
                                                                                                                                                                                                                                                                                                                                                                                                                                                                                                                                                                                                                                                                                                                                                                                        </g>
                            </svg>