<svg width='83' height='83' >
                                <g transform="translate(3, 70) scale(0.07, -0.07)">
                                    <!-- 先将完整的字以灰色字体绘制完成，层级位于下面 -->
                                                                        <path d="M 226 663 Q 253 639 281 611 Q 297 596 314 597 Q 327 597 332 613 Q 338 629 328 663 Q 316 699 221 718 Q 203 722 196 719 Q 190 715 192 700 Q 196 687 226 663 Z" style="fill: #0070C0;"></path>
                                                                        <path d="M 135 462 Q 186 408 224 395 Q 240 394 250 408 Q 257 423 252 442 Q 236 493 149 505 Q 148 506 146 506 Q 127 510 117 505 Q 110 504 114 490 Q 117 477 135 462 Z" style="fill: #0070C0;"></path>
                                                                        <path d="M 135 150 Q 122 146 125 129 Q 141 54 176 37 Q 183 30 193 33 Q 200 34 201 60 Q 207 105 298 356 Q 304 372 303 378 Q 302 388 293 381 Q 284 375 173 192 Q 161 171 135 150 Z" style="fill: #0070C0;"></path>
                                                                        <path d="M 475 586 Q 490 614 506 637 Q 515 650 500 663 Q 455 693 430 688 Q 420 685 423 670 Q 439 601 373 504 Q 364 501 344 464 Q 337 448 352 454 Q 365 457 383 472 Q 432 514 462 563 L 475 586 Z" style="fill: #0070C0;"></path>
                                                                        <path d="M 632 567 Q 785 606 787 607 Q 796 616 791 624 Q 784 636 754 643 Q 723 649 692 636 Q 664 626 635 617 L 581 602 Q 532 593 475 586 C 445 582 435 576 462 563 Q 478 554 502 549 Q 512 549 582 557 L 632 567 Z" style="fill: #0070C0;"></path>
                                                                        <path d="M 623 420 Q 627 496 632 567 L 635 617 Q 636 698 656 780 Q 660 792 639 807 Q 602 826 577 831 Q 561 835 552 826 Q 545 817 553 802 Q 577 768 577 744 Q 581 677 581 602 L 582 557 Q 581 488 578 412 C 577 382 621 390 623 420 Z" style="fill: #0070C0;"></path>
                                                                        <path d="M 644 386 Q 743 398 861 398 Q 880 399 884 407 Q 888 419 873 431 Q 816 467 762 449 Q 704 437 623 420 L 578 412 Q 466 393 339 373 Q 320 370 334 355 Q 347 342 365 338 Q 384 334 399 339 Q 508 372 601 380 L 644 386 Z" style="fill: #0070C0;"></path>
                                                                        <path d="M 480 325 Q 490 186 280 21 Q 273 14 279 11 Q 306 1 392 64 Q 470 116 529 246 Q 539 267 552 287 Q 559 296 555 305 Q 549 315 521 333 Q 502 345 492 343 Q 479 340 480 325 Z" style="fill: #0070C0;"></path>
                                                                        <path d="M 983 77 Q 971 104 956 185 Q 956 201 949 206 Q 943 209 938 192 Q 910 105 890 79 Q 877 64 842 55 Q 760 37 692 60 Q 665 72 659 88 Q 632 146 668 345 Q 674 372 644 386 C 620 404 593 409 601 380 Q 601 377 603 373 Q 616 334 612 297 Q 597 119 612 69 Q 615 47 636 29 Q 700 -26 866 -5 Q 881 -2 897 2 Q 937 12 977 38 Q 996 53 983 77 Z" style="fill: #0070C0;"></path>
                                    
                                    
                                                                                                                                                                                                                                                                                                                                                                                                                                                                                                                                                                                                                                                                                                                                                                                        </g>
                            </svg>