<svg width='83' height='83' >
                                <g transform="translate(3, 70) scale(0.07, -0.07)">
                                    <!-- 先将完整的字以灰色字体绘制完成，层级位于下面 -->
                                                                        <path d="M 216 700 Q 235 678 257 649 Q 270 633 289 631 Q 301 630 308 645 Q 315 661 310 696 Q 303 726 217 755 Q 201 762 192 759 Q 186 755 186 741 Q 189 728 216 700 Z" style="fill: #0070C0;"></path>
                                                                        <path d="M 133 521 Q 179 467 212 456 Q 228 453 238 469 Q 245 482 242 502 Q 233 527 213 542 Q 173 567 130 567 Q 121 568 117 565 Q 110 564 114 550 Q 115 537 133 521 Z" style="fill: #0070C0;"></path>
                                                                        <path d="M 133 186 Q 121 182 123 164 Q 135 89 172 67 Q 179 60 190 63 Q 197 64 199 90 Q 208 141 305 387 Q 312 403 311 410 Q 310 420 301 413 Q 291 406 278 389 Q 223 302 173 227 Q 161 206 133 186 Z" style="fill: #0070C0;"></path>
                                                                        <path d="M 404 688 Q 388 698 370 705 Q 360 706 354 698 Q 350 692 358 681 Q 412 534 363 249 Q 336 146 339 130 Q 348 94 360 81 Q 372 66 382 81 Q 416 118 418 271 Q 418 440 427 558 Q 428 618 434 643 C 438 669 430 673 404 688 Z" style="fill: #0070C0;"></path>
                                                                        <path d="M 434 643 Q 441 644 446 645 Q 741 729 770 701 Q 783 694 788 629 Q 803 412 789 165 Q 788 128 775 119 Q 759 109 683 126 Q 665 130 666 119 Q 667 110 682 104 Q 749 55 785 16 Q 807 -6 822 -2 Q 835 1 848 32 Q 864 81 864 154 Q 848 487 851 610 Q 850 653 863 679 Q 876 704 864 716 Q 852 732 799 758 Q 775 770 710 748 Q 529 706 404 688 C 374 683 405 636 434 643 Z" style="fill: #0070C0;"></path>
                                                                        <path d="M 504 566 Q 467 559 494 543 Q 534 522 607 539 Q 647 548 691 558 Q 713 564 716 567 Q 725 576 720 584 Q 713 596 682 602 Q 651 606 620 593 Q 596 584 569 577 Q 539 570 504 566 Z" style="fill: #0070C0;"></path>
                                                                        <path d="M 494 425 Q 482 429 467 432 Q 455 436 453 431 Q 447 425 454 411 Q 476 363 490 286 Q 491 262 506 247 Q 521 226 526 241 Q 530 251 530 267 L 526 299 Q 516 375 515 397 C 514 419 514 419 494 425 Z" style="fill: #0070C0;"></path>
                                                                        <path d="M 687 317 Q 706 378 725 396 Q 750 423 726 438 Q 663 474 662 474 Q 650 475 639 469 Q 591 441 494 425 C 464 420 486 390 515 397 Q 524 400 613 418 Q 638 422 645 412 Q 651 408 645 380 Q 639 355 633 324 C 627 295 678 288 687 317 Z" style="fill: #0070C0;"></path>
                                                                        <path d="M 530 267 Q 537 266 547 268 Q 593 278 696 285 Q 706 286 708 295 Q 708 302 687 317 C 669 330 663 329 633 324 Q 632 324 631 324 Q 573 309 526 299 C 497 293 500 269 530 267 Z" style="fill: #0070C0;"></path>
                                    
                                    
                                                                                                                                                                                                                                                                                                                                                                                                                                                                                                                                                                                                                                                                                                                                                                                        </g>
                            </svg>