<svg width='83' height='83' >
                                <g transform="translate(3, 70) scale(0.07, -0.07)">
                                    <!-- 先将完整的字以灰色字体绘制完成，层级位于下面 -->
                                                                        <path d="M 206 717 Q 237 693 269 665 Q 285 652 301 653 Q 311 654 317 668 Q 321 684 310 715 Q 298 748 199 767 Q 183 771 176 767 Q 170 763 173 749 Q 177 739 206 717 Z" style="fill: #0070C0;"></path>
                                                                        <path d="M 113 517 Q 156 459 192 440 Q 208 436 219 449 Q 226 462 225 480 Q 213 532 131 556 L 130 557 Q 112 564 102 560 Q 95 559 97 546 Q 98 533 113 517 Z" style="fill: #0070C0;"></path>
                                                                        <path d="M 115 134 Q 102 131 103 113 Q 116 32 148 14 Q 154 7 165 8 Q 174 9 176 35 Q 188 95 323 375 Q 332 391 331 398 Q 330 408 321 402 Q 306 393 165 183 Q 149 158 115 134 Z" style="fill: #0070C0;"></path>
                                                                        <path d="M 516 759 Q 549 735 585 706 Q 601 693 620 695 Q 632 696 636 712 Q 640 730 627 762 Q 612 798 505 813 Q 486 814 480 811 Q 474 807 477 792 Q 483 779 516 759 Z" style="fill: #0070C0;"></path>
                                                                        <path d="M 363 580 Q 341 576 359 560 Q 375 547 394 543 Q 416 540 432 546 Q 561 595 834 620 Q 855 621 859 631 Q 863 644 845 657 Q 779 696 722 670 Q 596 636 363 580 Z" style="fill: #0070C0;"></path>
                                                                        <path d="M 470 500 Q 474 487 468 476 Q 435 419 360 349 Q 350 342 346 337 Q 340 328 353 328 Q 389 324 499 413 Q 502 420 531 437 Q 541 444 540 457 Q 539 469 519 494 Q 500 515 484 518 Q 468 519 470 500 Z" style="fill: #0070C0;"></path>
                                                                        <path d="M 673 483 Q 724 450 778 410 Q 793 398 810 400 Q 820 401 825 416 Q 828 432 816 462 Q 800 507 663 532 Q 647 535 640 531 Q 636 527 638 513 Q 642 503 673 483 Z" style="fill: #0070C0;"></path>
                                                                        <path d="M 642 191 Q 667 237 680 288 Q 693 337 705 351 Q 715 364 705 375 Q 692 391 664 399 Q 642 409 621 405 Q 608 401 615 384 Q 639 345 614 274 Q 607 252 599 230 L 573 182 Q 572 181 572 180 Q 502 81 312 22 Q 293 12 316 10 Q 451 3 555 78 Q 586 103 610 137 L 642 191 Z" style="fill: #0070C0;"></path>
                                                                        <path d="M 610 137 Q 725 8 779 0 Q 929 0 974 5 Q 987 8 992 17 Q 996 26 974 29 Q 920 48 859 65 Q 753 98 642 191 L 599 230 Q 508 321 484 326 Q 451 330 425 324 Q 415 320 421 310 Q 427 301 439 301 Q 476 298 569 186 Q 570 185 573 182 L 610 137 Z" style="fill: #0070C0;"></path>
                                    
                                    
                                                                                                                                                                                                                                                                                                                                                                                                                                                                                                                                                                                                                                                                                                                                                                                        </g>
                            </svg>