<svg width='83' height='83' >
                                <g transform="translate(3, 70) scale(0.07, -0.07)">
                                    <!-- 先将完整的字以灰色字体绘制完成，层级位于下面 -->
                                                                        <path d="M 227 710 Q 251 685 277 655 Q 292 639 309 638 Q 322 638 328 653 Q 335 669 327 704 Q 323 725 291 741 Q 216 774 200 767 Q 194 763 195 748 Q 198 735 227 710 Z" style="fill: #0070C0;"></path>
                                                                        <path d="M 114 521 Q 166 464 200 452 Q 216 449 226 465 Q 233 478 229 498 Q 217 543 126 565 Q 107 569 97 565 Q 90 564 94 550 Q 95 537 114 521 Z" style="fill: #0070C0;"></path>
                                                                        <path d="M 118 162 Q 105 159 108 141 Q 120 63 156 43 Q 163 36 174 38 Q 181 39 183 66 Q 189 109 300 379 Q 307 395 307 402 Q 306 412 297 405 Q 282 396 161 206 Q 148 184 118 162 Z" style="fill: #0070C0;"></path>
                                                                        <path d="M 600 620 Q 765 659 771 663 Q 780 670 775 680 Q 768 692 738 699 Q 707 705 676 693 Q 639 680 602 668 L 549 655 Q 494 645 434 638 Q 397 631 423 614 Q 462 593 535 607 Q 541 608 549 609 L 600 620 Z" style="fill: #0070C0;"></path>
                                                                        <path d="M 402 491 Q 424 464 448 434 Q 458 421 473 419 Q 483 418 489 429 Q 496 442 491 470 Q 490 489 462 507 Q 399 543 384 539 Q 380 536 379 524 Q 380 514 402 491 Z" style="fill: #0070C0;"></path>
                                                                        <path d="M 702 548 Q 684 517 647 470 Q 641 463 647 455 Q 654 454 663 458 Q 739 507 778 526 Q 796 530 792 542 Q 785 558 766 578 Q 747 597 723 599 Q 708 598 709 578 Q 710 565 702 548 Z" style="fill: #0070C0;"></path>
                                                                        <path d="M 596 346 Q 687 358 828 358 Q 888 355 896 367 Q 900 379 884 393 Q 832 432 790 424 Q 715 408 587 386 L 538 379 Q 441 366 329 351 Q 307 350 323 331 Q 356 301 395 311 Q 459 329 534 338 L 596 346 Z" style="fill: #0070C0;"></path>
                                                                        <path d="M 534 338 Q 518 194 412 117 Q 369 89 307 59 Q 294 52 293 48 Q 294 44 306 42 Q 324 38 368 52 Q 441 71 494 123 Q 563 189 581 314 L 587 386 Q 587 387 588 387 Q 594 508 600 620 L 602 668 Q 602 669 628 764 Q 635 779 624 791 Q 600 810 558 823 Q 531 830 522 823 Q 512 816 520 802 Q 547 757 549 655 L 549 609 Q 549 491 538 379 L 534 338 Z" style="fill: #0070C0;"></path>
                                                                        <path d="M 581 314 Q 750 19 805 14 Q 872 18 931 22 Q 956 23 956 29 Q 957 36 930 51 Q 788 121 744 168 Q 660 256 596 346 C 578 370 560 351 581 314 Z" style="fill: #0070C0;"></path>
                                    
                                    
                                                                                                                                                                                                                                                                                                                                                                                                                                                                                                                                                                                                                                                                                                                                                                                        </g>
                            </svg>