<svg width='83' height='83' >
                                <g transform="translate(3, 70) scale(0.07, -0.07)">
                                    <!-- 先将完整的字以灰色字体绘制完成，层级位于下面 -->
                                                                        <path d="M 233 688 Q 261 661 290 629 Q 306 613 325 613 Q 338 613 344 629 Q 351 645 342 682 Q 330 716 230 745 Q 211 751 204 748 Q 198 744 199 728 Q 203 715 233 688 Z" style="fill: #0070C0;"></path>
                                                                        <path d="M 123 510 Q 175 449 213 434 Q 229 430 239 445 Q 246 458 243 476 Q 231 519 137 551 Q 119 557 109 553 Q 103 552 105 538 Q 106 525 123 510 Z" style="fill: #0070C0;"></path>
                                                                        <path d="M 120 134 Q 108 131 109 113 Q 122 35 156 14 Q 163 7 174 9 Q 181 10 184 37 Q 191 82 296 327 Q 303 343 303 350 Q 302 360 293 354 Q 281 348 161 173 Q 148 154 120 134 Z" style="fill: #0070C0;"></path>
                                                                        <path d="M 593 722 Q 602 740 612 750 Q 619 756 617 767 Q 614 777 600 789 Q 584 802 564 807 Q 542 813 530 809 Q 520 806 524 793 Q 542 705 426 546 Q 420 542 416 534 Q 380 486 288 393 Q 281 386 291 384 Q 354 394 467 525 Q 518 591 578 695 L 593 722 Z" style="fill: #0070C0;"></path>
                                                                        <path d="M 578 695 Q 593 682 605 663 Q 789 411 823 401 Q 899 401 964 412 Q 980 415 986 422 Q 990 429 979 432 Q 844 483 793 524 Q 715 581 598 716 Q 595 719 593 722 C 574 745 557 716 578 695 Z" style="fill: #0070C0;"></path>
                                                                        <path d="M 448 442 Q 411 435 438 419 Q 483 395 539 412 Q 594 425 654 440 Q 679 447 684 451 Q 693 460 688 468 Q 681 480 650 486 Q 619 490 589 477 Q 559 467 526 457 Q 490 447 448 442 Z" style="fill: #0070C0;"></path>
                                                                        <path d="M 548 289 Q 547 290 549 290 Q 628 303 758 304 Q 810 304 816 314 Q 820 324 805 338 Q 756 374 691 359 Q 532 326 347 298 Q 328 295 343 279 Q 356 266 374 261 Q 395 257 410 261 Q 452 274 499 282 L 548 289 Z" style="fill: #0070C0;"></path>
                                                                        <path d="M 695 146 Q 584 127 470 107 Q 460 106 458 108 Q 457 111 462 117 Q 541 223 572 251 Q 587 264 578 274 Q 571 283 548 289 C 520 299 497 306 499 282 Q 498 278 500 270 Q 507 207 410 119 Q 344 79 347 65 Q 348 53 356 38 Q 366 19 378 14 Q 385 11 396 17 Q 477 69 708 127 C 737 134 725 151 695 146 Z" style="fill: #0070C0;"></path>
                                                                        <path d="M 708 127 Q 763 28 775 21 Q 784 18 793 26 Q 809 36 807 83 Q 807 138 659 245 Q 652 252 646 240 Q 642 227 651 214 Q 672 183 695 146 L 708 127 Z" style="fill: #0070C0;"></path>
                                    
                                    
                                                                                                                                                                                                                                                                                                                                                                                                                                                                                                                                                                                                                                                                                                                                                                                        </g>
                            </svg>