<svg width='83' height='83' >
                                <g transform="translate(3, 70) scale(0.07, -0.07)">
                                    <!-- 先将完整的字以灰色字体绘制完成，层级位于下面 -->
                                                                        <path d="M 230 750 Q 266 722 303 686 Q 318 673 335 673 Q 347 674 352 689 Q 358 705 347 737 Q 340 762 303 779 Q 266 792 224 803 Q 208 807 200 803 Q 194 799 196 785 Q 200 772 230 750 Z" style="fill: #0070C0;"></path>
                                                                        <path d="M 142 555 Q 197 500 237 484 Q 253 481 263 496 Q 269 511 265 528 Q 247 576 153 597 Q 134 601 125 597 Q 118 596 122 582 Q 123 569 142 555 Z" style="fill: #0070C0;"></path>
                                                                        <path d="M 130 190 Q 117 186 120 167 Q 138 86 174 68 Q 181 61 193 64 Q 200 65 201 93 Q 208 151 306 414 Q 313 432 311 438 Q 310 448 301 441 Q 288 434 171 235 Q 158 213 130 190 Z" style="fill: #0070C0;"></path>
                                                                        <path d="M 461 744 Q 449 769 430 784 Q 427 788 421 785 Q 415 781 414 770 Q 417 737 383 664 Q 373 648 373 628 Q 376 609 385 594 Q 392 582 398 590 Q 410 593 429 643 Q 453 709 461 716 C 469 727 469 727 461 744 Z" style="fill: #0070C0;"></path>
                                                                        <path d="M 461 716 Q 485 704 535 719 Q 622 749 750 762 Q 765 765 772 763 Q 788 751 785 744 Q 773 702 759 658 L 761 657 Q 768 653 782 665 Q 831 702 872 717 Q 906 730 904 738 Q 903 747 835 792 Q 811 808 695 783 Q 680 783 532 755 Q 496 748 461 744 C 431 740 432 724 461 716 Z" style="fill: #0070C0;"></path>
                                                                        <path d="M 566 544 Q 755 583 763 589 Q 772 596 767 604 Q 760 616 732 623 Q 704 629 674 618 Q 631 605 589 593 L 536 582 Q 496 576 453 572 Q 419 566 443 550 Q 473 532 519 535 L 566 544 Z" style="fill: #0070C0;"></path>
                                                                        <path d="M 652 371 Q 722 378 768 381 Q 805 382 806 393 Q 807 406 782 422 Q 761 434 704 421 Q 680 417 654 411 L 607 402 Q 562 398 511 389 Q 496 388 496 391 Q 495 394 501 405 Q 525 454 566 544 L 589 593 Q 604 623 618 632 Q 634 645 625 655 Q 580 700 558 700 Q 549 699 554 680 Q 560 652 536 582 L 519 535 Q 486 439 438 398 Q 417 385 430 342 Q 434 329 449 334 Q 509 355 607 365 L 652 371 Z" style="fill: #0070C0;"></path>
                                                                        <path d="M 651 226 Q 691 229 929 230 Q 950 230 954 239 Q 961 251 943 265 Q 889 307 851 299 Q 775 286 651 267 L 605 261 Q 478 248 329 231 Q 307 230 323 211 Q 338 196 356 190 Q 378 184 395 189 Q 528 222 604 222 L 651 226 Z" style="fill: #0070C0;"></path>
                                                                        <path d="M 604 222 Q 595 93 588 70 Q 579 37 613 -16 Q 623 -35 632 -38 Q 642 -39 648 -27 Q 660 4 656 34 Q 652 136 651 226 L 651 267 Q 651 318 652 371 L 654 411 Q 655 444 659 461 Q 660 474 654 479 Q 632 498 612 508 Q 602 512 592 504 Q 586 501 594 491 Q 601 479 607 402 L 607 365 Q 607 314 605 261 L 604 222 Z" style="fill: #0070C0;"></path>
                                    
                                    
                                                                                                                                                                                                                                                                                                                                                                                                                                                                                                                                                                                                                                                                                                                                                                                        </g>
                            </svg>