<svg width='83' height='83' >
                                <g transform="translate(3, 70) scale(0.07, -0.07)">
                                    <!-- 先将完整的字以灰色字体绘制完成，层级位于下面 -->
                                                                        <path d="M 221 725 Q 252 700 285 670 Q 300 657 316 658 Q 328 658 333 672 Q 337 688 327 719 Q 320 741 286 755 Q 207 782 192 775 Q 186 771 189 757 Q 193 747 221 725 Z" style="fill: #0070C0;"></path>
                                                                        <path d="M 130 509 Q 176 449 212 431 Q 228 427 239 441 Q 246 454 244 472 Q 234 517 145 550 Q 129 556 118 553 Q 111 552 113 538 Q 114 525 130 509 Z" style="fill: #0070C0;"></path>
                                                                        <path d="M 127 130 Q 114 126 117 108 Q 135 29 169 12 Q 176 5 187 8 Q 194 9 195 36 Q 201 81 301 351 Q 308 367 307 374 Q 306 384 297 377 Q 284 368 168 175 Q 155 153 127 130 Z" style="fill: #0070C0;"></path>
                                                                        <path d="M 546 779 Q 571 755 597 728 Q 612 712 630 713 Q 643 714 648 729 Q 654 745 644 780 Q 638 799 607 814 Q 529 844 516 835 Q 510 831 512 816 Q 516 803 546 779 Z" style="fill: #0070C0;"></path>
                                                                        <path d="M 418 613 Q 402 643 384 651 Q 380 655 375 651 Q 369 647 369 635 Q 375 605 346 535 Q 336 516 338 497 Q 342 476 353 462 Q 362 449 367 458 Q 374 459 382 477 Q 386 484 395 512 Q 414 575 420 581 C 428 595 428 595 418 613 Z" style="fill: #0070C0;"></path>
                                                                        <path d="M 420 581 Q 438 575 490 589 Q 545 613 691 637 Q 722 643 733 641 Q 749 631 747 624 Q 748 620 742 606 Q 708 534 717 529 Q 724 525 739 537 Q 791 579 836 594 Q 872 607 870 616 Q 869 626 798 673 Q 774 689 700 670 Q 637 661 486 627 Q 452 620 418 613 C 389 607 390 584 420 581 Z" style="fill: #0070C0;"></path>
                                                                        <path d="M 465 475 Q 428 465 457 451 Q 505 432 558 453 Q 601 466 647 481 Q 668 488 671 491 Q 678 501 673 508 Q 664 520 633 523 Q 612 524 529 491 Q 499 482 465 475 Z" style="fill: #0070C0;"></path>
                                                                        <path d="M 625 338 Q 674 347 744 350 Q 792 354 798 362 Q 802 374 785 386 Q 728 422 665 399 Q 518 363 366 330 Q 347 326 363 311 Q 376 299 395 295 Q 416 291 431 297 Q 527 330 589 334 L 625 338 Z" style="fill: #0070C0;"></path>
                                                                        <path d="M 464 270 Q 470 167 342 56 Q 300 23 307 19 Q 328 10 402 58 Q 466 98 516 199 Q 525 215 536 231 Q 543 238 539 249 Q 533 259 505 277 Q 486 289 476 287 Q 463 284 464 270 Z" style="fill: #0070C0;"></path>
                                                                        <path d="M 941 77 Q 928 104 912 186 Q 912 202 905 206 Q 899 209 895 192 Q 870 104 853 77 Q 826 47 739 49 Q 705 50 680 60 Q 656 70 651 84 Q 627 130 657 293 Q 663 318 625 338 C 600 355 582 363 589 334 Q 589 330 592 321 Q 604 282 601 245 Q 592 104 604 65 Q 607 44 626 28 Q 707 -32 864 5 Q 900 15 935 39 Q 953 52 941 77 Z" style="fill: #0070C0;"></path>
                                    
                                    
                                                                                                                                                                                                                                                                                                                                                                                                                                                                                                                                                                                                                                                                                                                                                                                                                                                                    </g>
                            </svg>