<svg width='83' height='83' >
                                <g transform="translate(3, 70) scale(0.07, -0.07)">
                                    <!-- 先将完整的字以灰色字体绘制完成，层级位于下面 -->
                                                                        <path d="M 224 721 Q 246 699 271 672 Q 286 657 303 658 Q 315 658 320 673 Q 326 689 317 722 Q 313 741 282 755 Q 212 782 196 775 Q 190 771 192 757 Q 196 744 224 721 Z" style="fill: #0070C0;"></path>
                                                                        <path d="M 138 517 Q 198 460 231 452 Q 247 451 255 464 Q 259 477 256 495 Q 240 537 147 558 Q 131 561 121 556 Q 114 555 118 542 Q 121 530 138 517 Z" style="fill: #0070C0;"></path>
                                                                        <path d="M 128 182 Q 115 178 119 160 Q 137 82 173 65 Q 180 58 191 61 Q 198 62 199 89 Q 202 132 282 375 Q 289 391 287 398 Q 286 408 277 401 Q 270 397 164 221 Q 154 202 128 182 Z" style="fill: #0070C0;"></path>
                                                                        <path d="M 583 807 Q 544 770 421 708 Q 415 699 422 696 Q 467 696 587 745 Q 620 766 686 778 Q 702 779 706 787 Q 710 797 698 809 Q 638 849 604 846 Q 597 842 596 832 Q 596 817 583 807 Z" style="fill: #0070C0;"></path>
                                                                        <path d="M 403 607 Q 422 585 441 558 Q 450 545 463 544 Q 470 543 477 553 Q 483 563 480 589 Q 477 613 406 647 Q 393 651 388 651 Q 384 648 383 637 Q 384 628 403 607 Z" style="fill: #0070C0;"></path>
                                                                        <path d="M 519 663 Q 558 597 579 592 Q 591 589 598 604 Q 602 614 596 634 Q 590 650 570 661 Q 540 680 527 686 Q 520 689 517 679 Q 514 672 519 663 Z" style="fill: #0070C0;"></path>
                                                                        <path d="M 737 701 Q 721 677 651 602 Q 641 586 658 588 Q 679 609 798 669 Q 807 675 819 678 Q 841 687 831 704 Q 819 722 795 737 Q 773 753 760 750 Q 747 749 750 736 Q 753 718 737 701 Z" style="fill: #0070C0;"></path>
                                                                        <path d="M 606 390 Q 705 475 744 488 Q 763 494 757 510 Q 754 525 690 560 Q 672 570 650 562 Q 589 540 497 515 Q 473 508 415 510 Q 393 511 400 491 Q 407 479 426 468 Q 454 452 487 470 Q 509 479 626 518 Q 639 522 650 516 Q 662 509 657 495 Q 627 452 593 400 C 577 375 583 371 606 390 Z" style="fill: #0070C0;"></path>
                                                                        <path d="M 635 346 Q 622 380 606 390 L 593 400 Q 583 406 572 410 Q 550 419 540 412 Q 527 405 540 391 Q 567 370 579 338 L 588 301 Q 618 154 578 63 Q 563 36 527 43 Q 500 47 476 50 Q 464 53 470 41 Q 474 34 490 22 Q 527 -11 538 -35 Q 548 -54 565 -52 Q 580 -51 607 -23 Q 685 58 648 296 Q 647 302 646 307 L 635 346 Z" style="fill: #0070C0;"></path>
                                                                        <path d="M 646 307 Q 727 313 909 314 Q 930 314 935 323 Q 941 335 924 349 Q 870 389 831 381 Q 755 365 635 346 L 579 338 Q 449 322 297 303 Q 275 302 291 283 Q 306 268 324 263 Q 346 257 363 262 Q 450 286 588 301 L 646 307 Z" style="fill: #0070C0;"></path>
                                    
                                    
                                                                                                                                                                                                                                                                                                                                                                                                                                                                                                                                                                                                                                                                                                                                                                                                                                                                    </g>
                            </svg>