<svg width='83' height='83' >
                                <g transform="translate(3, 70) scale(0.07, -0.07)">
                                    <!-- 先将完整的字以灰色字体绘制完成，层级位于下面 -->
                                                                        <path d="M 241 703 Q 269 678 297 648 Q 312 633 330 633 Q 342 634 348 649 Q 354 665 345 700 Q 333 734 237 758 Q 219 762 212 759 Q 206 755 208 740 Q 212 727 241 703 Z" style="fill: #0070C0;"></path>
                                                                        <path d="M 136 506 Q 191 446 225 433 Q 241 430 251 445 Q 257 458 254 476 Q 242 521 151 547 Q 150 548 149 548 Q 131 552 121 549 Q 114 548 118 534 Q 119 521 136 506 Z" style="fill: #0070C0;"></path>
                                                                        <path d="M 130 129 Q 118 125 122 106 Q 143 31 182 15 Q 189 8 200 12 Q 207 15 206 41 Q 206 83 284 359 Q 288 375 288 382 Q 287 392 277 385 Q 265 376 167 176 Q 157 154 130 129 Z" style="fill: #0070C0;"></path>
                                                                        <path d="M 722 589 Q 749 701 789 734 Q 805 753 790 770 Q 721 827 658 795 Q 559 762 468 751 Q 452 750 454 740 Q 457 733 474 727 Q 498 717 531 729 Q 601 742 670 757 Q 686 761 695 754 Q 705 744 703 720 Q 690 651 674 596 C 666 567 715 560 722 589 Z" style="fill: #0070C0;"></path>
                                                                        <path d="M 477 654 Q 449 648 470 636 Q 497 621 573 637 Q 604 644 640 653 Q 661 657 664 661 Q 671 668 667 675 Q 660 684 637 689 Q 625 692 539 666 Q 511 659 477 654 Z" style="fill: #0070C0;"></path>
                                                                        <path d="M 674 596 Q 670 596 667 594 Q 553 561 462 548 Q 443 545 455 528 Q 462 519 472 516 Q 482 515 495 517 Q 570 536 733 557 Q 743 558 744 567 Q 744 574 722 589 L 674 596 Z" style="fill: #0070C0;"></path>
                                                                        <path d="M 422 441 Q 410 463 399 470 Q 383 483 381 459 Q 387 432 343 371 Q 310 341 339 283 Q 352 259 371 285 Q 387 309 398 345 Q 411 388 421 413 C 428 431 428 431 422 441 Z" style="fill: #0070C0;"></path>
                                                                        <path d="M 421 413 Q 442 403 482 411 Q 549 436 726 466 Q 760 472 773 470 Q 789 461 787 454 Q 769 409 750 364 Q 750 363 753 361 Q 760 357 776 368 Q 828 407 874 420 Q 911 433 909 441 Q 908 451 839 500 Q 815 518 735 498 Q 656 486 501 455 Q 461 448 422 441 C 392 436 392 421 421 413 Z" style="fill: #0070C0;"></path>
                                                                        <path d="M 631 144 Q 671 192 697 263 Q 707 296 727 312 Q 743 325 727 341 Q 708 357 676 372 Q 657 381 635 372 Q 577 341 494 331 Q 469 328 457 322 Q 448 315 466 306 Q 491 293 530 305 Q 579 315 627 327 Q 643 333 644 314 Q 644 245 592 174 L 568 146 Q 499 89 354 53 Q 338 52 347 42 Q 354 35 382 37 Q 475 46 529 66 Q 568 82 601 112 L 631 144 Z" style="fill: #0070C0;"></path>
                                                                        <path d="M 601 112 Q 739 -26 780 -26 Q 852 -26 938 -7 Q 974 0 970 9 Q 855 42 739 77 Q 688 101 631 144 L 592 174 Q 558 202 523 235 Q 486 269 452 268 Q 436 268 433 263 Q 432 256 447 247 Q 477 229 568 146 L 601 112 Z" style="fill: #0070C0;"></path>
                                    
                                    
                                                                                                                                                                                                                                                                                                                                                                                                                                                                                                                                                                                                                                                                                                                                                                                                                                                                    </g>
                            </svg>