<svg width='83' height='83' >
                                <g transform="translate(3, 70) scale(0.07, -0.07)">
                                    <!-- 先将完整的字以灰色字体绘制完成，层级位于下面 -->
                                                                        <path d="M 245 690 Q 273 665 303 635 Q 318 622 335 621 Q 347 622 352 637 Q 358 653 348 685 Q 342 707 309 722 Q 233 749 216 743 Q 210 739 212 725 Q 216 712 245 690 Z" style="fill: #0070C0;"></path>
                                                                        <path d="M 136 508 Q 184 457 218 441 Q 234 440 243 453 Q 249 466 246 483 Q 234 523 148 548 Q 130 552 121 548 Q 115 547 118 534 Q 119 522 136 508 Z" style="fill: #0070C0;"></path>
                                                                        <path d="M 115 138 Q 103 134 105 117 Q 121 45 156 24 Q 163 17 173 21 Q 180 22 181 47 Q 184 86 269 324 Q 276 340 275 346 Q 274 356 265 349 Q 256 343 151 176 Q 139 157 115 138 Z" style="fill: #0070C0;"></path>
                                                                        <path d="M 561 689 Q 565 701 591 742 Q 598 748 596 758 Q 587 785 545 794 Q 524 798 513 796 Q 504 793 508 781 Q 526 697 416 539 Q 368 476 284 388 Q 277 382 287 380 Q 341 386 456 520 Q 510 599 549 666 L 561 689 Z" style="fill: #0070C0;"></path>
                                                                        <path d="M 549 666 Q 646 554 753 450 Q 775 428 813 426 Q 880 422 952 434 Q 971 435 972 441 Q 975 447 960 453 Q 909 474 850 494 Q 727 540 575 677 Q 568 684 561 689 C 538 708 529 689 549 666 Z" style="fill: #0070C0;"></path>
                                                                        <path d="M 544 419 Q 670 453 677 459 Q 686 468 680 476 Q 673 488 642 493 Q 611 497 581 483 Q 547 470 511 458 Q 471 446 423 439 Q 386 430 414 415 Q 453 394 513 410 L 544 419 Z" style="fill: #0070C0;"></path>
                                                                        <path d="M 582 297 Q 642 304 729 307 Q 777 307 784 317 Q 788 327 773 339 Q 724 375 653 354 Q 622 348 583 337 L 529 325 Q 438 312 330 292 Q 311 289 326 275 Q 339 263 355 259 Q 374 255 389 260 Q 452 279 524 289 Q 525 290 530 289 L 582 297 Z" style="fill: #0070C0;"></path>
                                                                        <path d="M 487 60 Q 466 66 440 72 Q 428 75 429 68 Q 430 61 439 53 Q 497 8 534 -30 Q 544 -37 556 -23 Q 586 19 587 106 Q 580 208 582 297 L 583 337 Q 583 347 585 357 Q 589 381 585 390 Q 576 403 544 419 C 518 433 500 437 513 410 Q 514 404 520 395 Q 529 377 529 325 L 530 289 Q 533 75 522 59 Q 512 52 487 60 Z" style="fill: #0070C0;"></path>
                                                                        <path d="M 379 209 Q 354 163 322 124 Q 298 91 314 58 Q 320 39 342 50 Q 394 86 399 149 Q 406 182 402 207 Q 398 216 392 217 Q 383 217 379 209 Z" style="fill: #0070C0;"></path>
                                                                        <path d="M 672 204 Q 721 153 781 81 Q 797 59 812 54 Q 821 53 829 63 Q 842 76 832 121 Q 820 175 675 235 Q 665 242 663 229 Q 662 216 672 204 Z" style="fill: #0070C0;"></path>
                                    
                                    
                                                                                                                                                                                                                                                                                                                                                                                                                                                                                                                                                                                                                                                                                                                                                                                                                                                                    </g>
                            </svg>