<svg width='83' height='83' >
                                <g transform="translate(3, 70) scale(0.07, -0.07)">
                                    <!-- 先将完整的字以灰色字体绘制完成，层级位于下面 -->
                                                                        <path d="M 238 742 Q 275 715 313 683 Q 329 670 347 671 Q 360 672 364 688 Q 368 706 356 739 Q 343 775 229 796 Q 211 799 204 795 Q 198 791 201 776 Q 205 763 238 742 Z" style="fill: #0070C0;"></path>
                                                                        <path d="M 139 556 Q 191 498 226 482 Q 242 479 251 493 Q 257 506 254 523 Q 242 568 154 594 Q 153 595 152 595 Q 136 599 125 596 Q 119 595 122 582 Q 123 570 139 556 Z" style="fill: #0070C0;"></path>
                                                                        <path d="M 144 146 Q 131 143 133 125 Q 146 47 180 26 Q 187 19 198 21 Q 205 22 208 49 Q 217 98 348 395 Q 355 411 355 418 Q 354 428 345 422 Q 333 416 193 197 Q 177 172 144 146 Z" style="fill: #0070C0;"></path>
                                                                        <path d="M 505 766 Q 493 772 460 776 Q 448 779 445 773 Q 438 767 448 751 Q 476 700 495 616 Q 499 591 515 575 Q 534 553 539 570 Q 540 579 541 590 L 538 624 Q 523 703 517 734 C 511 763 511 764 505 766 Z" style="fill: #0070C0;"></path>
                                                                        <path d="M 774 656 Q 802 722 832 738 Q 850 756 836 774 Q 766 832 709 808 Q 628 783 505 766 C 475 762 488 728 517 734 Q 724 776 741 765 L 742 764 Q 749 755 746 739 Q 736 696 722 660 C 712 632 762 629 774 656 Z" style="fill: #0070C0;"></path>
                                                                        <path d="M 541 590 Q 548 590 559 591 Q 632 607 788 622 Q 798 623 800 632 Q 800 639 774 656 C 756 668 751 667 722 660 Q 617 635 538 624 C 508 620 511 589 541 590 Z" style="fill: #0070C0;"></path>
                                                                        <path d="M 515 250 Q 519 308 525 351 L 528 379 Q 534 457 539 467 C 543 484 543 484 525 499 Q 503 521 471 519 Q 456 515 461 502 Q 504 397 447 160 Q 419 91 419 83 Q 419 47 438 24 Q 445 8 456 14 Q 499 44 512 222 L 515 250 Z" style="fill: #0070C0;"></path>
                                                                        <path d="M 539 467 Q 548 470 717 501 Q 739 505 745 494 Q 757 463 765 260 Q 769 89 759 71 Q 755 65 737 69 Q 713 76 688 84 Q 667 94 667 83 Q 718 25 744 -16 Q 757 -38 774 -43 Q 784 -47 794 -38 Q 840 19 841 74 Q 802 425 831 482 Q 844 504 831 516 Q 807 535 767 552 Q 746 561 729 552 Q 645 510 525 499 C 495 496 510 461 539 467 Z" style="fill: #0070C0;"></path>
                                                                        <path d="M 525 351 Q 555 347 637 355 Q 656 359 678 361 Q 699 365 702 368 Q 709 375 706 382 Q 700 392 676 399 Q 651 405 624 396 Q 602 389 576 385 Q 554 381 528 379 C 498 377 495 354 525 351 Z" style="fill: #0070C0;"></path>
                                                                        <path d="M 512 222 Q 548 212 633 226 Q 705 238 711 242 Q 718 249 715 257 Q 708 267 682 275 Q 654 281 627 270 Q 602 263 574 257 Q 546 253 515 250 C 485 247 483 229 512 222 Z" style="fill: #0070C0;"></path>
                                    
                                    
                                                                                                                                                                                                                                                                                                                                                                                                                                                                                                                                                                                                                                                                                                                                                                                                                                                                    </g>
                            </svg>