<svg width='83' height='83' >
                                <g transform="translate(3, 70) scale(0.07, -0.07)">
                                    <!-- 先将完整的字以灰色字体绘制完成，层级位于下面 -->
                                                                        <path d="M 249 709 Q 277 685 309 657 Q 325 642 343 644 Q 355 645 360 660 Q 364 678 353 711 Q 341 742 241 763 Q 223 767 216 763 Q 210 759 213 744 Q 217 731 249 709 Z" style="fill: #0070C0;"></path>
                                                                        <path d="M 149 529 Q 207 466 244 453 Q 260 449 271 465 Q 277 478 274 498 Q 262 543 189 564 Q 146 579 133 573 Q 126 572 129 558 Q 132 545 149 529 Z" style="fill: #0070C0;"></path>
                                                                        <path d="M 144 158 Q 131 154 134 136 Q 146 58 185 40 Q 192 33 203 35 Q 210 36 211 63 Q 220 117 317 371 Q 324 387 323 394 Q 322 404 313 397 Q 303 391 185 201 Q 172 179 144 158 Z" style="fill: #0070C0;"></path>
                                                                        <path d="M 464 743 Q 454 747 441 749 Q 428 753 425 747 Q 418 741 427 725 Q 452 671 466 584 Q 469 557 484 540 Q 502 518 507 533 Q 510 542 511 555 L 509 586 Q 503 649 495 714 C 493 733 492 733 464 743 Z" style="fill: #0070C0;"></path>
                                                                        <path d="M 740 618 Q 767 696 801 722 Q 817 740 803 757 Q 787 770 738 795 Q 720 802 700 795 Q 610 759 464 743 C 434 740 465 710 495 714 Q 508 715 523 719 Q 605 732 682 747 Q 701 751 710 743 Q 719 734 716 716 Q 706 664 692 620 C 683 591 730 590 740 618 Z" style="fill: #0070C0;"></path>
                                                                        <path d="M 606 568 Q 666 578 756 584 Q 766 585 767 593 Q 768 600 740 618 C 726 627 721 626 692 620 Q 589 598 509 586 C 479 581 481 556 511 555 Q 518 554 528 556 Q 544 560 566 563 L 606 568 Z" style="fill: #0070C0;"></path>
                                                                        <path d="M 406 438 Q 391 447 375 452 Q 366 453 360 445 Q 356 439 364 428 Q 400 343 376 177 Q 363 119 366 103 Q 376 69 388 56 Q 400 43 409 57 Q 433 84 434 232 Q 434 361 440 399 C 442 418 432 424 406 438 Z" style="fill: #0070C0;"></path>
                                                                        <path d="M 619 432 Q 686 444 760 452 Q 782 456 794 444 Q 801 440 804 404 Q 811 284 802 149 Q 801 128 793 123 Q 780 116 714 136 Q 698 140 698 131 Q 698 124 711 116 Q 768 67 797 30 Q 816 9 830 12 Q 842 13 855 42 Q 871 87 874 152 Q 865 303 865 358 Q 866 398 879 420 Q 891 442 881 453 Q 871 469 825 493 Q 806 503 787 499 Q 736 483 627 464 Q 626 464 625 463 L 574 456 Q 492 446 406 438 C 376 435 411 391 440 399 Q 446 405 571 425 L 619 432 Z" style="fill: #0070C0;"></path>
                                                                        <path d="M 602 362 Q 617 425 619 432 L 625 463 Q 626 482 631 504 Q 635 520 637 530 Q 644 548 626 557 Q 616 564 606 568 C 579 581 552 589 566 563 Q 582 547 574 456 L 571 425 Q 565 326 472 246 Q 459 236 456 231 Q 455 225 464 225 Q 492 222 541 265 Q 572 293 594 340 L 602 362 Z" style="fill: #0070C0;"></path>
                                                                        <path d="M 594 340 Q 646 295 707 234 Q 720 218 735 214 Q 742 213 749 222 Q 759 235 746 272 Q 734 320 602 362 C 573 371 571 360 594 340 Z" style="fill: #0070C0;"></path>
                                    
                                    
                                                                                                                                                                                                                                                                                                                                                                                                                                                                                                                                                                                                                                                                                                                                                                                                                                                                    </g>
                            </svg>