<svg width='83' height='83' >
                                <g transform="translate(3, 70) scale(0.07, -0.07)">
                                    <!-- 先将完整的字以灰色字体绘制完成，层级位于下面 -->
                                                                        <path d="M 227 703 Q 255 678 287 649 Q 303 636 320 637 Q 332 638 337 652 Q 341 668 331 701 Q 319 735 220 755 Q 204 759 196 755 Q 190 751 193 737 Q 197 724 227 703 Z" style="fill: #0070C0;"></path>
                                                                        <path d="M 130 501 Q 178 446 212 431 Q 225 428 235 441 Q 241 453 239 469 Q 229 511 166 530 Q 127 545 117 540 Q 111 539 114 527 Q 115 515 130 501 Z" style="fill: #0070C0;"></path>
                                                                        <path d="M 128 150 Q 116 146 118 128 Q 136 50 169 31 Q 176 24 186 27 Q 195 28 195 55 Q 204 113 313 383 Q 320 399 319 406 Q 318 416 309 409 Q 291 397 173 197 Q 160 175 128 150 Z" style="fill: #0070C0;"></path>
                                                                        <path d="M 527 687 Q 566 750 581 764 Q 590 774 585 787 Q 581 799 555 820 Q 530 836 512 836 Q 494 835 502 813 Q 520 780 453 664 Q 422 612 378 553 Q 368 543 367 537 Q 363 527 377 529 Q 399 535 457 599 L 476 621 Q 489 640 507 660 L 527 687 Z" style="fill: #0070C0;"></path>
                                                                        <path d="M 555 527 Q 471 425 339 373 Q 329 369 330 364 Q 331 360 338 359 Q 461 355 586 485 Q 590 489 594 494 L 619 525 Q 647 564 679 615 Q 697 642 723 658 Q 738 665 739 674 Q 739 687 711 705 Q 677 729 663 729 Q 653 729 640 722 Q 577 695 527 687 C 498 681 477 665 507 660 Q 541 650 590 669 Q 614 685 629 674 Q 636 670 614 621 Q 601 588 576 555 L 555 527 Z" style="fill: #0070C0;"></path>
                                                                        <path d="M 457 599 Q 487 586 555 527 L 594 494 Q 747 371 771 369 Q 825 369 928 398 Q 961 407 957 416 Q 956 420 921 426 Q 734 456 656 502 Q 637 514 619 525 L 576 555 Q 548 574 521 597 Q 497 616 476 621 C 448 631 430 613 457 599 Z" style="fill: #0070C0;"></path>
                                                                        <path d="M 610 261 Q 634 267 782 278 Q 792 275 803 289 Q 804 301 782 313 Q 743 337 662 315 Q 637 312 612 305 L 560 296 Q 553 296 354 278 Q 324 275 346 256 Q 379 226 409 233 Q 478 245 561 255 L 610 261 Z" style="fill: #0070C0;"></path>
                                                                        <path d="M 529 60 Q 498 69 466 78 Q 454 82 455 74 Q 455 68 465 60 Q 529 -3 551 -41 Q 564 -57 579 -45 Q 615 -12 616 54 Q 613 82 610 261 L 612 305 Q 615 324 621 341 Q 630 359 614 371 Q 589 392 561 401 Q 543 408 536 400 Q 530 394 540 380 Q 558 347 560 296 L 561 255 Q 565 75 548 62 Q 541 56 529 60 Z" style="fill: #0070C0;"></path>
                                                                        <path d="M 411 180 Q 384 141 350 108 Q 326 80 335 46 Q 339 28 362 36 Q 411 60 425 121 Q 435 151 434 175 Q 430 185 425 186 Q 418 187 411 180 Z" style="fill: #0070C0;"></path>
                                                                        <path d="M 685 164 Q 727 124 777 64 Q 793 43 808 38 Q 817 37 825 47 Q 838 60 826 105 Q 819 147 751 173 Q 709 189 687 196 Q 677 202 675 189 Q 674 176 685 164 Z" style="fill: #0070C0;"></path>
                                    
                                    
                                                                                                                                                                                                                                                                                                                                                                                                                                                                                                                                                                                                                                                                                                                                                                                                                                                                    </g>
                            </svg>