<svg width='83' height='83' >
                                <g transform="translate(3, 70) scale(0.07, -0.07)">
                                    <!-- 先将完整的字以灰色字体绘制完成，层级位于下面 -->
                                                                        <path d="M 202 693 Q 226 671 251 644 Q 264 631 281 631 Q 291 631 297 645 Q 301 660 294 689 Q 285 717 198 742 Q 182 746 176 743 Q 172 739 172 726 Q 176 716 202 693 Z" style="fill: #0070C0;"></path>
                                                                        <path d="M 123 506 Q 168 457 200 442 Q 215 439 223 453 Q 229 465 226 481 Q 214 520 134 543 Q 118 547 109 544 Q 103 543 106 531 Q 107 519 123 506 Z" style="fill: #0070C0;"></path>
                                                                        <path d="M 120 146 Q 108 142 111 126 Q 133 51 163 38 Q 170 31 180 35 Q 187 36 187 61 Q 190 107 279 369 Q 285 385 283 390 Q 282 400 273 393 Q 264 387 158 192 Q 148 170 120 146 Z" style="fill: #0070C0;"></path>
                                                                        <path d="M 435 719 Q 486 646 511 642 Q 526 641 534 659 Q 537 672 528 694 Q 510 728 441 747 Q 431 750 430 737 Q 429 730 435 719 Z" style="fill: #0070C0;"></path>
                                                                        <path d="M 327 654 Q 351 593 350 532 Q 354 280 313 158 Q 295 104 329 65 Q 339 50 350 65 Q 384 101 385 251 Q 385 531 402 622 Q 403 640 388 649 Q 366 668 339 677 Q 329 678 323 670 Q 320 666 327 654 Z" style="fill: #0070C0;"></path>
                                                                        <path d="M 767 73 Q 730 77 692 84 Q 670 88 673 79 Q 749 31 793 -5 Q 809 -24 825 -28 Q 835 -32 843 -21 Q 885 37 878 91 Q 841 634 869 692 Q 882 713 869 723 Q 847 742 807 758 Q 788 765 771 757 Q 699 718 586 709 Q 570 708 580 698 Q 589 688 604 681 Q 625 678 761 709 Q 782 713 788 703 Q 795 681 799 647 Q 818 319 806 121 Q 806 90 796 74 Q 790 67 767 73 Z" style="fill: #0070C0;"></path>
                                                                        <path d="M 599 491 Q 704 521 708 524 Q 715 531 711 538 Q 704 548 679 553 Q 655 557 588 531 Q 525 513 474 504 Q 443 497 466 484 Q 502 466 552 481 L 557 481 L 599 491 Z" style="fill: #0070C0;"></path>
                                                                        <path d="M 603 362 Q 634 371 670 378 Q 698 385 704 389 Q 711 396 707 403 Q 700 412 677 417 Q 653 421 605 403 L 561 389 Q 521 380 474 374 Q 444 368 466 356 Q 494 341 562 352 L 603 362 Z" style="fill: #0070C0;"></path>
                                                                        <path d="M 599 267 Q 600 318 603 362 L 605 403 Q 605 433 608 463 Q 614 478 606 486 Q 602 490 599 491 C 574 508 553 511 557 481 Q 560 468 561 389 L 562 352 Q 562 315 562 259 C 562 229 598 237 599 267 Z" style="fill: #0070C0;"></path>
                                                                        <path d="M 562 259 Q 498 249 425 234 Q 409 231 421 219 Q 433 209 447 205 Q 463 201 476 206 Q 596 240 749 241 Q 765 242 768 249 Q 772 259 758 269 Q 713 299 662 283 Q 635 277 599 267 L 562 259 Z" style="fill: #0070C0;"></path>
                                    
                                    
                                                                                                                                                                                                                                                                                                                                                                                                                                                                                                                                                                                                                                                                                                                                                                                                                                                                    </g>
                            </svg>