<svg width='83' height='83' >
                                <g transform="translate(3, 70) scale(0.07, -0.07)">
                                    <!-- 先将完整的字以灰色字体绘制完成，层级位于下面 -->
                                                                        <path d="M 232 708 Q 256 681 281 649 Q 294 633 313 631 Q 325 631 332 645 Q 339 661 334 696 Q 328 730 233 763 Q 217 770 208 767 Q 202 763 202 749 Q 205 736 232 708 Z" style="fill: #0070C0;"></path>
                                                                        <path d="M 126 539 Q 175 481 206 467 Q 221 463 231 477 Q 238 490 235 507 Q 223 553 141 577 L 140 578 Q 124 584 114 580 Q 107 579 109 566 Q 110 554 126 539 Z" style="fill: #0070C0;"></path>
                                                                        <path d="M 101 158 Q 89 154 92 137 Q 108 64 144 45 Q 151 38 161 41 Q 168 42 169 68 Q 172 110 266 376 Q 273 392 271 398 Q 270 408 261 401 Q 248 392 141 202 Q 128 180 101 158 Z" style="fill: #0070C0;"></path>
                                                                        <path d="M 541 776 Q 568 754 597 726 Q 612 713 628 714 Q 640 714 645 729 Q 649 744 639 775 Q 633 794 601 809 Q 526 834 512 827 Q 506 823 509 809 Q 513 799 541 776 Z" style="fill: #0070C0;"></path>
                                                                        <path d="M 394 626 Q 357 620 383 602 Q 426 578 483 591 Q 598 613 719 639 Q 774 652 783 659 Q 792 666 787 676 Q 780 688 750 696 Q 720 702 629 670 Q 493 636 394 626 Z" style="fill: #0070C0;"></path>
                                                                        <path d="M 428 506 Q 452 457 481 427 Q 493 421 504 430 Q 511 439 514 454 Q 514 491 448 535 Q 435 544 427 542 Q 421 543 420 532 Q 419 522 428 506 Z" style="fill: #0070C0;"></path>
                                                                        <path d="M 627 407 Q 649 428 695 501 Q 704 517 720 536 Q 736 549 728 560 Q 718 578 688 599 Q 673 611 656 605 Q 646 601 651 589 Q 660 553 614 442 Q 605 421 604 408 Q 603 407 604 403 C 603 383 606 386 627 407 Z" style="fill: #0070C0;"></path>
                                                                        <path d="M 604 403 Q 597 403 590 401 Q 455 382 296 358 Q 275 357 291 339 Q 322 311 361 320 Q 574 383 907 383 Q 926 384 932 392 Q 936 404 920 418 Q 866 455 830 447 Q 752 429 627 407 L 604 403 Z" style="fill: #0070C0;"></path>
                                                                        <path d="M 424 246 Q 414 250 395 253 Q 382 257 379 251 Q 372 245 381 228 Q 409 165 427 63 Q 430 33 447 12 Q 466 -10 471 5 Q 477 21 475 48 L 471 84 Q 455 186 453 214 C 451 237 451 237 424 246 Z" style="fill: #0070C0;"></path>
                                                                        <path d="M 726 111 Q 753 193 785 218 Q 803 237 787 257 Q 769 272 713 299 Q 694 308 670 299 Q 574 263 424 246 C 394 242 423 210 453 214 Q 463 215 477 218 Q 565 231 650 246 Q 672 250 681 242 Q 696 227 671 116 C 665 87 716 83 726 111 Z" style="fill: #0070C0;"></path>
                                                                        <path d="M 475 48 Q 481 48 490 49 Q 569 64 742 72 Q 752 73 755 82 Q 755 91 726 111 C 709 123 700 122 671 116 Q 559 94 471 84 C 441 81 445 47 475 48 Z" style="fill: #0070C0;"></path>
                                    
                                    
                                                                                                                                                                                                                                                                                                                                                                                                                                                                                                                                                                                                                                                                                                                                                                                                                                                                                                                                                </g>
                            </svg>