<svg width='83' height='83' >
                                <g transform="translate(3, 70) scale(0.07, -0.07)">
                                    <!-- 先将完整的字以灰色字体绘制完成，层级位于下面 -->
                                                                        <path d="M 237 707 Q 259 685 285 657 Q 300 641 318 641 Q 330 642 336 657 Q 343 673 333 708 Q 324 738 233 762 Q 215 766 208 763 Q 202 759 203 744 Q 207 731 237 707 Z" style="fill: #0070C0;"></path>
                                                                        <path d="M 147 502 Q 190 448 221 435 Q 237 431 247 445 Q 254 458 251 476 Q 245 501 226 516 Q 187 543 157 544 Q 144 548 134 545 Q 127 544 129 530 Q 130 517 147 502 Z" style="fill: #0070C0;"></path>
                                                                        <path d="M 132 166 Q 119 162 123 144 Q 141 66 177 49 Q 184 42 195 45 Q 202 46 203 73 Q 207 116 230 181 Q 302 406 303 410 Q 302 420 293 413 Q 281 406 172 211 Q 159 189 132 166 Z" style="fill: #0070C0;"></path>
                                                                        <path d="M 553 766 Q 590 739 629 706 Q 647 691 666 694 Q 679 695 684 712 Q 688 731 675 767 Q 659 806 543 825 Q 524 828 516 824 Q 510 818 513 803 Q 519 790 553 766 Z" style="fill: #0070C0;"></path>
                                                                        <path d="M 351 582 Q 330 579 347 563 Q 360 551 379 547 Q 400 543 414 548 Q 552 599 890 624 Q 909 625 913 634 Q 917 646 901 658 Q 850 691 813 682 Q 686 646 351 582 Z" style="fill: #0070C0;"></path>
                                                                        <path d="M 461 474 Q 443 478 424 479 Q 411 480 409 476 Q 403 469 413 454 Q 438 414 460 344 Q 464 323 479 310 Q 498 291 502 306 Q 503 309 503 312 L 502 343 Q 501 347 501 352 Q 485 422 482 445 C 478 470 478 470 461 474 Z" style="fill: #0070C0;"></path>
                                                                        <path d="M 722 375 Q 752 438 780 454 Q 796 472 783 489 Q 708 550 657 521 Q 573 494 461 474 C 431 469 453 437 482 445 Q 485 448 660 482 Q 682 486 690 478 Q 697 471 694 454 Q 684 414 670 378 C 659 350 709 348 722 375 Z" style="fill: #0070C0;"></path>
                                                                        <path d="M 503 312 L 567 322 L 611 329 Q 659 336 733 344 Q 743 345 744 353 Q 744 360 722 375 C 706 386 699 385 670 378 Q 577 356 502 343 C 472 338 473 307 503 312 Z" style="fill: #0070C0;"></path>
                                                                        <path d="M 567 322 Q 580 285 579 167 Q 578 97 570 81 Q 566 68 542 74 Q 517 80 489 86 Q 476 87 475 81 Q 472 74 484 64 Q 545 6 566 -27 Q 581 -42 592 -40 Q 604 -36 618 0 Q 637 34 636 101 Q 635 210 638 249 Q 647 292 628 314 Q 618 323 611 329 C 588 349 559 351 567 322 Z" style="fill: #0070C0;"></path>
                                                                        <path d="M 407 240 Q 382 189 347 144 Q 325 114 341 77 Q 348 59 370 70 Q 424 110 429 181 Q 436 214 430 239 Q 426 248 420 249 Q 411 248 407 240 Z" style="fill: #0070C0;"></path>
                                                                        <path d="M 708 225 Q 766 179 837 112 Q 856 91 872 88 Q 882 88 889 99 Q 901 114 884 159 Q 866 216 707 258 Q 697 262 696 249 Q 696 234 708 225 Z" style="fill: #0070C0;"></path>
                                    
                                    
                                                                                                                                                                                                                                                                                                                                                                                                                                                                                                                                                                                                                                                                                                                                                                                                                                                                                                                                                </g>
                            </svg>