<svg width='83' height='83' >
                                <g transform="translate(3, 70) scale(0.07, -0.07)">
                                    <!-- 先将完整的字以灰色字体绘制完成，层级位于下面 -->
                                                                        <path d="M 207 689 Q 235 667 265 640 Q 281 627 297 629 Q 307 630 313 644 Q 317 660 306 691 Q 294 722 199 739 Q 183 743 176 739 Q 170 735 173 721 Q 177 711 207 689 Z" style="fill: #0070C0;"></path>
                                                                        <path d="M 124 496 Q 170 444 210 426 Q 226 423 235 437 Q 241 450 238 467 Q 223 510 138 535 Q 137 536 136 536 Q 118 540 109 536 Q 103 535 106 522 Q 107 510 124 496 Z" style="fill: #0070C0;"></path>
                                                                        <path d="M 115 146 Q 102 142 105 125 Q 121 50 156 33 Q 163 26 173 29 Q 180 30 181 56 Q 187 107 282 360 Q 288 376 287 382 Q 286 392 277 385 Q 268 379 154 190 Q 142 168 115 146 Z" style="fill: #0070C0;"></path>
                                                                        <path d="M 431 712 Q 419 645 359 558 Q 350 546 348 538 Q 348 528 370 510 Q 409 482 461 425 Q 474 406 485 410 Q 498 411 505 428 Q 512 450 504 466 Q 495 485 400 524 Q 379 533 389 558 Q 396 573 436 627 Q 476 679 491 692 Q 501 696 503 703 Q 507 719 485 741 Q 466 760 449 765 Q 431 766 425 761 Q 424 757 428 748 Q 437 735 431 712 Z" style="fill: #0070C0;"></path>
                                                                        <path d="M 594 734 Q 575 661 520 590 Q 510 578 509 570 Q 508 560 531 542 Q 571 514 625 457 Q 638 438 650 441 Q 663 442 669 460 Q 675 482 668 498 Q 659 519 561 555 Q 539 565 550 588 Q 557 603 598 652 Q 638 698 653 712 Q 663 716 666 723 Q 670 738 649 761 Q 631 782 613 786 Q 597 789 590 783 Q 587 779 592 770 Q 601 757 594 734 Z" style="fill: #0070C0;"></path>
                                                                        <path d="M 759 746 Q 740 677 684 611 Q 674 599 672 590 Q 672 580 696 560 Q 741 530 803 468 Q 818 449 829 452 Q 844 453 849 472 Q 855 497 847 511 Q 838 533 728 572 Q 701 584 715 606 Q 722 619 764 666 Q 804 709 820 721 Q 830 725 833 732 Q 839 748 817 772 Q 799 794 781 800 Q 762 804 756 798 Q 753 794 758 784 Q 765 771 759 746 Z" style="fill: #0070C0;"></path>
                                                                        <path d="M 403 367 Q 378 383 352 391 Q 345 394 340 388 Q 333 384 341 372 Q 383 305 391 125 Q 392 58 430 36 L 431 35 Q 449 29 450 60 Q 450 64 450 67 L 447 97 Q 425 220 421 328 C 420 357 420 357 403 367 Z" style="fill: #0070C0;"></path>
                                                                        <path d="M 701 90 Q 711 65 733 16 Q 740 0 751 0 Q 766 1 776 27 Q 807 85 813 165 Q 820 214 827 273 Q 833 319 856 349 Q 872 368 861 381 Q 840 403 794 423 Q 776 433 744 422 Q 608 377 403 367 C 373 365 391 324 421 328 Q 428 328 435 329 Q 484 339 547 348 L 587 354 Q 647 364 721 374 Q 752 380 765 365 Q 789 323 747 126 Q 746 108 737 106 Q 734 105 728 107 C 703 91 701 90 701 90 Z" style="fill: #0070C0;"></path>
                                                                        <path d="M 604 222 Q 704 244 707 245 Q 714 252 710 259 Q 704 268 681 274 Q 660 280 606 261 L 559 251 Q 525 245 487 242 Q 457 238 479 223 Q 512 202 557 214 Q 558 215 560 214 L 604 222 Z" style="fill: #0070C0;"></path>
                                                                        <path d="M 600 118 Q 601 173 604 222 L 606 261 Q 612 336 600 343 Q 593 350 587 354 C 563 372 537 376 547 348 Q 556 330 559 251 L 560 214 Q 560 174 561 111 C 561 81 599 88 600 118 Z" style="fill: #0070C0;"></path>
                                                                        <path d="M 450 67 Q 460 64 472 67 Q 545 82 701 90 C 731 92 741 92 728 107 Q 724 114 704 128 Q 683 140 600 118 L 561 111 Q 500 104 447 97 C 417 93 420 72 450 67 Z" style="fill: #0070C0;"></path>
                                    
                                    
                                                                                                                                                                                                                                                                                                                                                                                                                                                                                                                                                                                                                                                                                                                                                                                                                                                                                                                                                </g>
                            </svg>