<svg width='83' height='83' >
                                <g transform="translate(3, 70) scale(0.07, -0.07)">
                                    <!-- 先将完整的字以灰色字体绘制完成，层级位于下面 -->
                                                                        <path d="M 242 717 Q 273 693 305 665 Q 321 652 337 653 Q 347 654 353 668 Q 357 684 346 715 Q 334 748 235 767 Q 219 771 212 767 Q 206 763 209 749 Q 213 739 242 717 Z" style="fill: #0070C0;"></path>
                                                                        <path d="M 129 521 Q 183 467 219 453 Q 235 450 243 464 Q 249 477 245 495 Q 233 534 143 560 Q 140 561 139 561 Q 123 565 113 560 Q 106 559 110 546 Q 111 534 129 521 Z" style="fill: #0070C0;"></path>
                                                                        <path d="M 137 146 Q 125 142 128 125 Q 144 52 180 33 Q 187 26 197 29 Q 204 30 205 56 Q 208 98 302 364 Q 309 380 307 386 Q 306 396 297 389 Q 284 380 177 190 Q 164 168 137 146 Z" style="fill: #0070C0;"></path>
                                                                        <path d="M 655 721 Q 736 802 737 806 Q 737 815 728 828 Q 701 861 672 861 Q 665 860 664 849 Q 664 801 600 736 L 571 705 Q 502 648 411 590 Q 402 587 412 583 Q 467 576 593 666 Q 594 669 599 671 Q 606 677 615 684 L 655 721 Z" style="fill: #0070C0;"></path>
                                                                        <path d="M 615 684 Q 762 612 766 612 Q 773 613 776 622 Q 782 635 762 664 Q 744 692 655 721 L 600 736 Q 521 758 477 767 Q 470 768 471 759 Q 474 749 484 744 Q 526 728 571 705 L 615 684 Z" style="fill: #0070C0;"></path>
                                                                        <path d="M 555 484 Q 619 505 846 508 Q 906 508 912 518 Q 916 528 901 542 Q 849 578 813 570 Q 737 551 604 529 Q 591 528 577 524 L 515 514 Q 436 504 348 490 Q 327 487 343 471 Q 356 458 374 453 Q 395 449 410 453 Q 452 466 498 474 L 555 484 Z" style="fill: #0070C0;"></path>
                                                                        <path d="M 508 405 Q 529 439 555 484 L 577 524 Q 592 557 604 570 Q 611 574 608 584 Q 607 593 594 603 Q 561 627 534 620 Q 527 617 530 606 Q 536 581 515 514 L 498 474 Q 411 336 360 280 Q 327 247 284 203 Q 277 197 287 196 Q 347 205 462 340 Q 469 350 479 361 L 508 405 Z" style="fill: #0070C0;"></path>
                                                                        <path d="M 518 188 Q 521 230 525 261 L 527 287 Q 530 344 536 363 C 540 381 540 381 531 390 Q 522 402 508 405 C 480 416 474 391 479 361 Q 500 259 456 116 Q 435 71 439 57 Q 440 29 456 10 Q 462 -3 472 2 Q 505 23 515 134 Q 516 150 517 164 L 518 188 Z" style="fill: #0070C0;"></path>
                                                                        <path d="M 536 363 Q 549 364 567 371 Q 661 396 678 390 Q 690 384 690 358 Q 708 202 703 80 Q 702 56 688 51 Q 676 47 614 62 Q 601 65 602 56 Q 603 49 619 39 Q 658 8 688 -26 Q 704 -42 722 -41 Q 738 -37 756 8 Q 778 54 773 100 Q 763 209 751 311 Q 747 351 763 383 Q 773 399 759 413 Q 741 428 702 440 Q 684 447 625 420 Q 562 401 531 390 C 503 380 507 357 536 363 Z" style="fill: #0070C0;"></path>
                                                                        <path d="M 525 261 L 644 280 Q 666 284 657 297 Q 647 310 623 313 Q 584 316 527 287 C 500 274 495 256 525 261 Z" style="fill: #0070C0;"></path>
                                                                        <path d="M 517 164 Q 521 163 530 164 Q 596 174 644 181 Q 666 185 657 197 Q 647 210 623 214 Q 596 217 518 188 C 490 178 487 167 517 164 Z" style="fill: #0070C0;"></path>
                                    
                                    
                                                                                                                                                                                                                                                                                                                                                                                                                                                                                                                                                                                                                                                                                                                                                                                                                                                                                                                                                </g>
                            </svg>