<svg width='83' height='83' >
                                <g transform="translate(3, 70) scale(0.07, -0.07)">
                                    <!-- 先将完整的字以灰色字体绘制完成，层级位于下面 -->
                                                                        <path d="M 235 703 Q 260 682 287 657 Q 303 644 320 645 Q 332 646 337 660 Q 341 676 330 709 Q 318 739 228 755 Q 210 759 204 755 Q 198 751 201 737 Q 205 724 235 703 Z" style="fill: #0070C0;"></path>
                                                                        <path d="M 136 517 Q 193 460 231 445 Q 246 442 255 456 Q 261 469 257 487 Q 244 532 174 548 Q 132 561 121 556 Q 114 555 118 542 Q 119 530 136 517 Z" style="fill: #0070C0;"></path>
                                                                        <path d="M 121 125 Q 108 119 113 102 Q 134 27 174 11 Q 181 5 192 9 Q 199 12 198 37 Q 201 94 284 395 Q 290 411 288 418 Q 287 428 277 421 Q 264 411 161 180 Q 151 153 121 125 Z" style="fill: #0070C0;"></path>
                                                                        <path d="M 505 663 Q 444 653 378 646 Q 341 640 367 622 Q 412 598 469 612 Q 476 615 486 615 L 542 626 Q 567 632 596 636 L 621 641 Q 660 651 706 659 Q 761 672 771 679 Q 780 686 775 696 Q 768 708 738 716 Q 707 722 677 710 Q 619 691 559 674 L 505 663 Z" style="fill: #0070C0;"></path>
                                                                        <path d="M 559 674 Q 578 750 599 797 Q 606 807 599 817 Q 592 827 560 840 Q 538 849 529 846 Q 516 842 519 826 Q 534 760 505 663 L 486 615 Q 434 498 286 349 Q 279 342 286 339 Q 298 338 354 377 L 377 394 Q 497 502 542 626 L 559 674 Z" style="fill: #0070C0;"></path>
                                                                        <path d="M 596 636 Q 597 633 601 629 Q 686 518 796 402 Q 815 383 845 386 Q 945 393 978 401 Q 987 404 988 409 Q 988 413 974 420 Q 823 471 759 522 Q 695 574 621 641 C 599 661 578 660 596 636 Z" style="fill: #0070C0;"></path>
                                                                        <path d="M 354 377 Q 375 356 402 221 Q 402 181 425 155 Q 441 134 446 149 Q 447 153 448 156 L 450 184 Q 449 199 446 217 Q 427 323 421 357 C 416 385 416 385 406 388 Q 396 392 377 394 C 347 398 337 399 354 377 Z" style="fill: #0070C0;"></path>
                                                                        <path d="M 642 177 Q 655 159 669 153 Q 679 146 694 167 Q 707 189 733 311 Q 742 341 764 365 Q 777 377 766 391 Q 751 407 710 432 Q 695 441 625 425 Q 604 425 569 416 L 523 408 Q 520 408 406 388 C 376 383 392 350 421 357 Q 460 367 521 377 L 565 383 Q 652 405 671 387 Q 683 374 681 359 Q 660 221 640 211 C 627 194 627 194 642 177 Z" style="fill: #0070C0;"></path>
                                                                        <path d="M 518 305 Q 488 298 463 288 Q 447 284 466 271 Q 473 265 491 268 Q 504 271 517 271 L 556 278 Q 593 285 627 289 Q 649 293 641 305 Q 631 318 607 323 Q 588 324 559 317 L 518 305 Z" style="fill: #0070C0;"></path>
                                                                        <path d="M 448 156 Q 451 156 518 163 L 554 167 Q 599 174 642 177 C 672 179 667 198 640 211 Q 631 220 574 209 Q 564 208 553 204 L 517 197 Q 481 191 450 184 C 421 177 418 154 448 156 Z" style="fill: #0070C0;"></path>
                                                                        <path d="M 518 163 Q 521 45 560 11 Q 647 -56 818 -21 Q 824 -20 831 -18 Q 871 -6 911 22 Q 929 37 917 61 Q 904 92 888 186 Q 888 202 881 206 Q 875 209 871 192 Q 846 92 829 61 Q 798 24 690 26 Q 648 27 615 42 Q 587 55 577 75 Q 558 112 554 167 L 553 204 Q 553 240 556 278 L 559 317 Q 560 350 565 383 L 569 416 Q 572 438 576 460 Q 580 476 569 486 Q 556 499 535 506 Q 522 510 515 505 Q 508 502 513 485 Q 526 448 524 413 Q 523 412 523 408 L 521 377 Q 518 340 518 305 L 517 271 Q 516 231 517 197 L 518 163 Z" style="fill: #0070C0;"></path>
                                    
                                    
                                                                                                                                                                                                                                                                                                                                                                                                                                                                                                                                                                                                                                                                                                                                                                                                                                                                                                                                                </g>
                            </svg>