<svg width='83' height='83' >
                                <g transform="translate(3, 70) scale(0.07, -0.07)">
                                    <!-- 先将完整的字以灰色字体绘制完成，层级位于下面 -->
                                                                        <path d="M 231 738 Q 256 716 283 690 Q 296 677 313 678 Q 323 679 329 693 Q 333 708 324 737 Q 318 756 288 769 Q 219 794 204 787 Q 200 783 201 770 Q 204 760 231 738 Z" style="fill: #0070C0;"></path>
                                                                        <path d="M 139 532 Q 181 489 218 475 Q 234 474 243 488 Q 247 503 243 520 Q 234 545 214 557 Q 178 576 133 576 Q 126 576 121 573 Q 114 572 118 558 Q 121 545 139 532 Z" style="fill: #0070C0;"></path>
                                                                        <path d="M 107 219 Q 95 216 97 199 Q 109 126 142 108 Q 149 101 159 103 Q 166 104 167 129 Q 176 180 269 405 Q 276 421 275 426 Q 274 436 265 430 Q 256 424 145 256 Q 132 237 107 219 Z" style="fill: #0070C0;"></path>
                                                                        <path d="M 532 717 Q 713 765 716 767 Q 725 776 720 784 Q 713 796 682 802 Q 651 808 620 794 Q 577 778 528 764 Q 476 751 413 742 Q 376 735 403 719 Q 436 701 486 704 L 532 717 Z" style="fill: #0070C0;"></path>
                                                                        <path d="M 602 565 Q 644 575 819 595 Q 829 594 840 607 Q 841 620 817 632 Q 780 656 703 632 Q 610 614 534 595 L 473 585 Q 454 585 313 567 Q 282 563 306 545 Q 342 515 373 523 Q 410 530 454 539 L 514 550 Q 542 556 574 561 L 602 565 Z" style="fill: #0070C0;"></path>
                                                                        <path d="M 534 595 Q 556 640 571 657 Q 581 667 577 677 Q 574 701 532 717 C 505 729 470 730 486 704 Q 499 688 499 671 Q 499 652 473 585 L 454 539 Q 418 457 375 396 Q 335 341 246 260 Q 236 247 246 244 Q 264 238 346 302 Q 439 384 514 550 L 534 595 Z" style="fill: #0070C0;"></path>
                                                                        <path d="M 574 561 Q 751 326 794 310 Q 851 295 957 304 Q 975 305 977 310 Q 980 316 965 323 Q 919 345 862 369 Q 745 423 607 561 Q 604 564 602 565 C 580 585 556 585 574 561 Z" style="fill: #0070C0;"></path>
                                                                        <path d="M 492 84 Q 455 93 418 103 Q 406 106 407 98 Q 408 91 418 83 Q 493 19 520 -21 Q 535 -37 550 -24 Q 586 9 585 81 Q 582 106 576 278 Q 575 327 587 359 Q 596 378 579 391 Q 554 413 523 422 Q 505 429 497 421 Q 491 414 502 399 Q 524 362 524 318 Q 534 104 513 86 Q 506 79 492 84 Z" style="fill: #0070C0;"></path>
                                                                        <path d="M 388 267 Q 360 224 324 185 Q 302 160 312 125 Q 316 109 337 116 Q 386 143 403 211 Q 413 239 410 264 Q 406 271 401 274 Q 394 274 388 267 Z" style="fill: #0070C0;"></path>
                                                                        <path d="M 623 204 Q 647 147 674 120 Q 684 114 696 122 Q 703 129 706 144 Q 706 190 645 228 Q 644 229 643 230 Q 631 239 623 238 Q 617 239 616 228 Q 615 218 623 204 Z" style="fill: #0070C0;"></path>
                                                                        <path d="M 719 253 Q 768 208 827 144 Q 840 126 855 123 Q 862 122 869 130 Q 879 142 869 180 Q 857 231 720 280 Q 713 284 711 273 Q 710 261 719 253 Z" style="fill: #0070C0;"></path>
                                    
                                    
                                                                                                                                                                                                                                                                                                                                                                                                                                                                                                                                                                                                                                                                                                                                                                                                                                                                                                                                                </g>
                            </svg>