<svg width='83' height='83' >
                                <g transform="translate(3, 70) scale(0.07, -0.07)">
                                    <!-- 先将完整的字以灰色字体绘制完成，层级位于下面 -->
                                                                        <path d="M 187 715 Q 206 697 225 676 Q 240 663 256 662 Q 266 663 273 677 Q 277 692 269 723 Q 260 750 183 766 Q 167 770 160 767 Q 154 763 156 750 Q 160 738 187 715 Z" style="fill: #0070C0;"></path>
                                                                        <path d="M 108 533 Q 153 475 183 461 Q 198 457 207 469 Q 214 481 212 497 Q 203 545 124 568 L 123 569 Q 107 575 98 572 Q 91 571 93 559 Q 94 547 108 533 Z" style="fill: #0070C0;"></path>
                                                                        <path d="M 119 194 Q 109 190 111 174 Q 129 101 163 86 Q 170 80 180 83 Q 187 84 187 109 Q 191 157 271 401 Q 277 417 275 423 Q 274 432 265 425 Q 256 418 156 236 Q 144 217 119 194 Z" style="fill: #0070C0;"></path>
                                                                        <path d="M 358 716 Q 343 731 323 737 Q 314 741 304 737 Q 297 733 302 721 Q 320 652 323 637 Q 323 631 324 624 Q 339 417 307 283 Q 294 232 327 193 Q 336 181 346 192 Q 358 207 357 227 Q 357 231 358 236 L 360 269 Q 360 281 361 398 L 361 428 Q 362 495 363 543 L 363 573 Q 363 684 367 690 C 369 707 369 707 358 716 Z" style="fill: #0070C0;"></path>
                                                                        <path d="M 445 251 Q 457 232 470 213 Q 486 189 493 192 Q 505 195 520 229 Q 532 263 526 358 Q 508 661 532 706 Q 542 725 533 735 Q 526 745 476 757 Q 452 764 436 754 Q 393 729 358 716 C 330 705 338 682 367 690 Q 385 693 431 712 Q 450 719 458 714 Q 471 701 472 646 Q 476 420 467 296 Q 471 272 450 275 L 449 275 C 434 268 434 268 445 251 Z" style="fill: #0070C0;"></path>
                                                                        <path d="M 363 543 Q 411 552 447 561 Q 466 567 458 577 Q 446 589 424 590 Q 381 590 363 573 C 340 553 334 537 363 543 Z" style="fill: #0070C0;"></path>
                                                                        <path d="M 361 398 Q 409 408 446 414 Q 465 418 457 429 Q 447 442 424 444 Q 381 447 361 428 C 338 408 332 392 361 398 Z" style="fill: #0070C0;"></path>
                                                                        <path d="M 358 236 Q 388 243 445 251 C 475 255 475 260 449 275 Q 442 279 433 284 Q 412 293 360 269 C 333 257 329 229 358 236 Z" style="fill: #0070C0;"></path>
                                                                        <path d="M 660 760 Q 685 720 685 657 Q 692 462 680 408 Q 679 393 685 376 Q 691 367 696 355 Q 706 339 722 348 Q 731 357 732 412 Q 719 646 757 724 Q 764 734 752 748 Q 728 767 699 778 Q 683 785 667 780 Q 654 776 660 760 Z" style="fill: #0070C0;"></path>
                                                                        <path d="M 584 549 Q 574 506 554 464 Q 541 434 561 409 Q 570 396 585 409 Q 621 445 613 505 Q 613 533 604 552 Q 598 558 593 558 Q 586 557 584 549 Z" style="fill: #0070C0;"></path>
                                                                        <path d="M 810 610 Q 859 577 917 527 Q 933 511 947 509 Q 954 509 961 518 Q 970 531 954 568 Q 938 611 808 637 Q 799 641 799 630 Q 800 618 810 610 Z" style="fill: #0070C0;"></path>
                                                                        <path d="M 785 471 Q 797 305 638 131 Q 634 128 632 125 Q 587 73 476 -16 Q 467 -25 474 -28 Q 483 -31 495 -26 Q 574 8 640 65 Q 754 152 837 363 Q 852 397 870 429 Q 879 439 872 451 Q 865 461 832 481 Q 808 494 798 492 Q 782 488 785 471 Z" style="fill: #0070C0;"></path>
                                    
                                    
                                                                                                                                                                                                                                                                                                                                                                                                                                                                                                                                                                                                                                                                                                                                                                                                                                                                                                                                                                                                                            </g>
                            </svg>