<svg width='83' height='83' >
                                <g transform="translate(3, 70) scale(0.07, -0.07)">
                                    <!-- 先将完整的字以灰色字体绘制完成，层级位于下面 -->
                                                                        <path d="M 241 689 Q 265 667 291 640 Q 306 625 323 626 Q 335 626 340 641 Q 346 657 337 689 Q 324 722 236 742 Q 220 746 212 743 Q 206 739 208 725 Q 212 712 241 689 Z" style="fill: #0070C0;"></path>
                                                                        <path d="M 143 504 Q 188 450 222 435 Q 238 431 247 445 Q 254 458 251 475 Q 239 518 157 542 L 156 543 Q 140 547 129 544 Q 123 543 125 530 Q 126 518 143 504 Z" style="fill: #0070C0;"></path>
                                                                        <path d="M 144 150 Q 134 146 136 130 Q 154 57 187 42 Q 194 35 204 39 Q 211 40 211 65 Q 215 111 298 357 Q 305 373 303 378 Q 302 388 293 381 Q 286 377 181 192 Q 171 173 144 150 Z" style="fill: #0070C0;"></path>
                                                                        <path d="M 455 695 Q 480 670 506 642 Q 518 629 533 628 Q 543 628 549 641 Q 553 654 547 684 Q 541 711 453 741 Q 438 745 432 743 Q 428 739 428 727 Q 431 717 455 695 Z" style="fill: #0070C0;"></path>
                                                                        <path d="M 672 755 Q 660 728 605 635 Q 596 616 614 623 Q 653 653 722 715 Q 740 734 763 749 Q 784 762 770 779 Q 754 795 724 806 Q 697 816 684 812 Q 671 809 678 795 Q 684 776 672 755 Z" style="fill: #0070C0;"></path>
                                                                        <path d="M 343 538 Q 324 535 339 519 Q 352 506 370 502 Q 391 498 406 502 Q 595 562 862 561 Q 863 561 865 561 Q 884 561 888 570 Q 892 582 877 594 Q 823 630 789 620 Q 654 587 343 538 Z" style="fill: #0070C0;"></path>
                                                                        <path d="M 400 207 Q 403 250 407 283 L 410 311 Q 416 377 420 403 C 423 422 423 422 412 429 Q 411 432 407 433 Q 383 446 368 447 Q 356 443 361 433 Q 403 330 350 152 Q 328 92 328 90 Q 328 65 342 44 Q 348 32 357 37 Q 396 67 398 178 L 400 207 Z" style="fill: #0070C0;"></path>
                                                                        <path d="M 420 403 Q 429 403 487 422 Q 503 428 508 419 Q 512 409 515 390 Q 527 219 523 115 Q 522 93 515 82 Q 512 79 453 87 Q 435 91 437 84 Q 483 45 509 16 Q 521 0 534 -3 Q 541 -6 549 2 Q 582 47 581 90 Q 551 367 573 410 Q 583 426 572 435 Q 553 450 522 462 Q 507 468 459 442 Q 441 436 412 429 C 383 422 391 397 420 403 Z" style="fill: #0070C0;"></path>
                                                                        <path d="M 407 283 Q 408 283 411 283 Q 454 293 487 299 Q 506 303 498 314 Q 488 324 466 326 Q 448 326 410 311 C 382 300 377 283 407 283 Z" style="fill: #0070C0;"></path>
                                                                        <path d="M 398 178 Q 453 191 494 199 Q 513 203 505 214 Q 495 224 474 227 Q 444 230 400 207 C 373 193 369 171 398 178 Z" style="fill: #0070C0;"></path>
                                                                        <path d="M 624 393 Q 645 347 632 226 Q 628 205 649 174 Q 658 165 665 175 Q 680 194 680 261 Q 680 339 685 368 Q 691 387 673 397 Q 660 404 645 412 Q 635 416 627 411 Q 620 407 624 393 Z" style="fill: #0070C0;"></path>
                                                                        <path d="M 760 417 Q 763 398 768 92 Q 768 79 761 73 Q 755 70 692 73 Q 661 83 663 73 Q 664 66 685 53 Q 746 11 762 -14 Q 780 -42 795 -43 Q 808 -44 821 -10 Q 836 33 830 104 Q 800 336 826 444 Q 842 474 788 493 Q 755 509 737 503 Q 721 496 736 475 Q 758 450 760 417 Z" style="fill: #0070C0;"></path>
                                    
                                    
                                                                                                                                                                                                                                                                                                                                                                                                                                                                                                                                                                                                                                                                                                                                                                                                                                                                                                                                                                                                                            </g>
                            </svg>