<svg width='83' height='83' >
                                <g transform="translate(3, 70) scale(0.07, -0.07)">
                                    <!-- 先将完整的字以灰色字体绘制完成，层级位于下面 -->
                                                                        <path d="M 238 671 Q 266 646 297 615 Q 312 600 330 601 Q 343 601 348 617 Q 354 633 344 668 Q 332 702 233 726 Q 215 730 208 727 Q 202 723 204 708 Q 208 695 238 671 Z" style="fill: #0070C0;"></path>
                                                                        <path d="M 133 465 Q 181 414 219 400 Q 235 399 243 412 Q 249 425 245 443 Q 230 483 143 505 Q 127 509 117 504 Q 110 503 114 490 Q 115 478 133 465 Z" style="fill: #0070C0;"></path>
                                                                        <path d="M 132 130 Q 119 127 121 109 Q 134 31 168 10 Q 175 3 186 6 Q 193 7 196 33 Q 203 82 320 351 Q 327 367 327 374 Q 326 384 317 378 Q 305 371 293 353 Q 232 259 176 175 Q 163 153 132 130 Z" style="fill: #0070C0;"></path>
                                                                        <path d="M 540 656 Q 567 681 584 698 Q 629 753 655 771 Q 674 786 659 802 Q 641 815 612 825 Q 584 832 571 827 Q 558 823 566 810 Q 575 786 520 669 Q 516 662 511 651 Q 510 651 510 650 C 496 624 518 636 540 656 Z" style="fill: #0070C0;"></path>
                                                                        <path d="M 462 641 Q 450 648 416 652 Q 404 656 401 650 Q 394 644 403 628 Q 434 564 454 457 Q 457 424 476 403 Q 494 381 499 397 Q 500 406 502 417 L 501 445 Q 498 469 488 517 L 484 537 Q 475 586 473 607 C 470 637 470 638 462 641 Z" style="fill: #0070C0;"></path>
                                                                        <path d="M 689 435 Q 708 407 724 397 Q 734 388 751 410 Q 767 434 799 565 Q 809 596 833 621 Q 846 634 835 648 Q 819 666 777 693 Q 762 700 681 683 Q 672 683 548 658 Q 542 658 540 656 L 510 650 Q 482 646 462 641 C 433 635 444 598 473 607 Q 530 626 697 652 Q 727 656 737 647 Q 749 631 746 617 Q 719 473 701 462 C 686 439 686 439 689 435 Z" style="fill: #0070C0;"></path>
                                                                        <path d="M 488 517 Q 495 513 513 515 Q 598 528 662 536 Q 686 540 677 552 Q 667 567 641 572 Q 617 575 484 537 C 455 529 460 527 488 517 Z" style="fill: #0070C0;"></path>
                                                                        <path d="M 502 417 Q 503 417 506 416 Q 516 413 528 416 Q 580 428 689 435 C 719 437 726 445 701 462 Q 695 466 688 471 Q 672 480 644 473 Q 565 454 501 445 C 471 441 473 424 502 417 Z" style="fill: #0070C0;"></path>
                                                                        <path d="M 603 301 Q 772 331 782 337 Q 791 344 786 352 Q 780 364 752 372 Q 725 379 618 349 Q 531 333 458 327 Q 424 323 448 306 Q 484 279 544 292 Q 547 293 555 293 L 603 301 Z" style="fill: #0070C0;"></path>
                                                                        <path d="M 621 161 Q 631 164 753 177 Q 763 176 772 187 Q 773 197 752 209 Q 719 233 629 205 Q 626 205 624 204 L 566 193 Q 532 189 502 186 Q 468 183 429 179 Q 401 176 422 159 Q 452 134 480 140 Q 519 147 566 154 L 621 161 Z" style="fill: #0070C0;"></path>
                                                                        <path d="M 613 47 Q 617 108 621 161 L 624 204 Q 624 229 628 250 Q 637 277 605 300 Q 604 301 603 301 C 578 318 548 322 555 293 Q 562 268 566 193 L 566 154 Q 566 111 566 44 C 566 14 611 17 613 47 Z" style="fill: #0070C0;"></path>
                                                                        <path d="M 566 44 Q 445 34 310 22 Q 288 21 303 3 Q 318 -13 336 -19 Q 358 -25 374 -21 Q 605 28 904 7 Q 905 8 907 7 Q 928 6 933 15 Q 940 27 923 42 Q 869 84 831 77 Q 749 64 613 47 L 566 44 Z" style="fill: #0070C0;"></path>
                                    
                                    
                                                                                                                                                                                                                                                                                                                                                                                                                                                                                                                                                                                                                                                                                                                                                                                                                                                                                                                                                                                                                            </g>
                            </svg>