<svg width='83' height='83' >
                                <g transform="translate(3, 70) scale(0.07, -0.07)">
                                    <!-- 先将完整的字以灰色字体绘制完成，层级位于下面 -->
                                                                        <path d="M 185 684 Q 210 662 238 635 Q 251 623 266 623 Q 276 624 281 637 Q 285 650 277 679 Q 268 709 181 730 Q 166 734 160 731 Q 156 727 156 715 Q 160 705 185 684 Z" style="fill: #0070C0;"></path>
                                                                        <path d="M 125 509 Q 174 451 207 436 Q 222 432 231 445 Q 238 457 235 473 Q 226 521 140 545 L 139 546 Q 123 550 113 548 Q 107 547 109 535 Q 110 523 125 509 Z" style="fill: #0070C0;"></path>
                                                                        <path d="M 122 149 Q 112 145 115 128 Q 137 59 171 44 Q 178 38 188 42 Q 195 43 194 68 Q 194 102 260 361 Q 264 377 264 383 Q 263 392 254 385 Q 242 376 155 193 Q 145 172 122 149 Z" style="fill: #0070C0;"></path>
                                                                        <path d="M 348 646 Q 332 659 312 665 Q 305 666 299 659 Q 296 655 302 645 Q 341 540 311 372 Q 299 312 301 302 Q 308 274 319 263 Q 329 251 337 263 Q 359 291 360 473 Q 360 624 375 624 C 376 626 372 629 348 646 Z" style="fill: #0070C0;"></path>
                                                                        <path d="M 479 334 Q 473 315 484 297 Q 494 275 502 275 Q 514 276 527 302 Q 539 323 538 340 Q 526 425 528 558 Q 528 597 549 630 Q 556 643 551 651 Q 527 670 488 686 Q 476 689 422 667 Q 386 655 348 646 C 319 639 347 614 375 624 Q 397 633 418 636 Q 464 649 474 644 Q 484 622 488 558 Q 489 371 479 334 Z" style="fill: #0070C0;"></path>
                                                                        <path d="M 411 514 Q 424 229 347 138 Q 302 102 257 65 Q 254 61 265 59 Q 316 59 392 134 Q 399 143 406 153 Q 451 228 451 460 Q 451 497 462 539 Q 466 548 459 553 Q 417 586 391 575 Q 376 569 389 557 Q 410 536 411 514 Z" style="fill: #0070C0;"></path>
                                                                        <path d="M 477 215 Q 499 187 521 155 Q 530 143 542 141 Q 551 140 557 149 Q 564 159 562 185 Q 561 204 536 223 Q 476 262 464 259 Q 460 256 459 246 Q 460 236 477 215 Z" style="fill: #0070C0;"></path>
                                                                        <path d="M 691 526 Q 797 568 799 570 Q 806 579 801 586 Q 792 596 765 598 Q 738 599 686 570 L 647 553 Q 613 543 575 531 Q 542 521 569 509 Q 602 497 652 511 L 691 526 Z" style="fill: #0070C0;"></path>
                                                                        <path d="M 714 396 Q 751 412 845 437 Q 855 437 861 451 Q 860 461 838 468 Q 802 483 722 444 Q 713 441 707 438 Q 706 438 706 437 L 666 422 Q 635 413 564 392 Q 537 385 561 371 Q 573 364 588 358 Q 601 354 621 363 Q 645 373 674 382 L 714 396 Z" style="fill: #0070C0;"></path>
                                                                        <path d="M 747 172 Q 846 4 924 -9 Q 925 -9 928 -9 Q 947 -5 941 21 Q 938 70 950 208 Q 950 230 943 230 Q 937 230 930 211 Q 914 171 901 139 Q 888 105 875 104 Q 841 104 780 209 L 755 258 Q 730 319 714 396 L 706 437 Q 696 483 691 526 L 686 570 Q 679 663 690 722 Q 703 759 652 781 Q 621 797 601 790 Q 582 784 591 766 Q 633 726 632 695 Q 638 619 647 553 L 652 511 Q 658 463 666 422 L 674 382 Q 687 310 725 220 L 747 172 Z" style="fill: #0070C0;"></path>
                                                                        <path d="M 725 220 Q 724 220 724 218 Q 672 155 538 77 Q 531 71 536 67 Q 543 63 553 66 Q 674 94 747 172 L 780 209 Q 807 243 836 291 Q 849 312 867 332 Q 876 339 872 350 Q 868 360 842 381 Q 823 396 814 395 Q 801 394 800 379 Q 799 327 755 258 L 725 220 Z" style="fill: #0070C0;"></path>
                                                                        <path d="M 756 710 Q 784 685 816 656 Q 828 643 842 644 Q 852 645 857 657 Q 861 670 854 697 Q 845 730 752 754 Q 737 757 732 755 Q 728 751 729 740 Q 732 730 756 710 Z" style="fill: #0070C0;"></path>
                                    
                                    
                                                                                                                                                                                                                                                                                                                                                                                                                                                                                                                                                                                                                                                                                                                                                                                                                                                                                                                                                                                                                            </g>
                            </svg>