<svg width='83' height='83' >
                                <g transform="translate(3, 70) scale(0.07, -0.07)">
                                    <!-- 先将完整的字以灰色字体绘制完成，层级位于下面 -->
                                                                        <path d="M 201 709 Q 226 687 253 662 Q 268 649 284 650 Q 296 650 301 665 Q 305 681 295 711 Q 285 738 195 759 Q 179 762 172 759 Q 166 755 169 741 Q 173 731 201 709 Z" style="fill: #0070C0;"></path>
                                                                        <path d="M 123 524 Q 162 473 198 458 Q 214 455 223 469 Q 229 482 227 499 Q 215 541 136 563 Q 120 567 109 564 Q 103 563 105 550 Q 106 538 123 524 Z" style="fill: #0070C0;"></path>
                                                                        <path d="M 116 146 Q 104 142 107 125 Q 123 52 160 33 Q 167 27 177 30 Q 184 31 185 57 Q 188 103 282 376 Q 289 392 287 398 Q 286 408 277 401 Q 265 392 156 193 Q 144 171 116 146 Z" style="fill: #0070C0;"></path>
                                                                        <path d="M 528 785 Q 556 763 586 737 Q 599 725 614 727 Q 624 728 629 740 Q 633 755 623 783 Q 611 816 521 831 Q 506 834 500 831 Q 496 827 497 815 Q 501 805 528 785 Z" style="fill: #0070C0;"></path>
                                                                        <path d="M 411 644 Q 398 671 382 680 Q 379 684 373 681 Q 367 678 366 666 Q 370 635 340 576 Q 330 560 329 540 Q 332 521 341 506 Q 348 494 354 502 Q 367 505 384 550 Q 400 593 409 607 Q 412 611 414 616 C 419 627 419 627 411 644 Z" style="fill: #0070C0;"></path>
                                                                        <path d="M 414 616 Q 432 606 473 614 Q 590 651 718 663 Q 727 664 733 663 Q 751 653 748 646 Q 748 642 725 581 Q 719 568 725 565 Q 732 561 747 572 Q 795 606 835 617 Q 868 627 867 635 Q 866 645 798 693 Q 776 711 663 687 Q 654 687 487 656 Q 450 649 411 645 Q 410 645 411 644 C 381 639 385 625 414 616 Z" style="fill: #0070C0;"></path>
                                                                        <path d="M 435 501 Q 428 486 361 392 Q 354 377 368 382 Q 410 413 472 469 Q 485 482 504 493 Q 520 502 510 515 Q 498 528 477 538 Q 458 547 447 544 Q 437 543 441 531 Q 445 518 435 501 Z" style="fill: #0070C0;"></path>
                                                                        <path d="M 639 507 Q 676 482 718 451 Q 731 441 745 443 Q 754 444 757 456 Q 760 469 750 494 Q 737 528 630 548 Q 617 549 612 547 Q 608 543 610 532 Q 614 522 639 507 Z" style="fill: #0070C0;"></path>
                                                                        <path d="M 410 199 Q 510 301 531 325 Q 556 359 575 379 L 591 397 Q 592 398 593 399 Q 603 411 600 419 Q 597 432 573 438 Q 546 447 535 444 Q 528 443 525 430 Q 501 324 265 129 Q 256 123 248 116 Q 229 101 254 105 Q 302 114 392 182 L 410 199 Z" style="fill: #0070C0;"></path>
                                                                        <path d="M 575 379 Q 774 192 817 182 Q 902 182 971 202 Q 987 205 989 210 Q 990 216 976 220 Q 793 275 782 280 Q 691 325 593 396 Q 592 397 591 397 C 566 414 553 400 575 379 Z" style="fill: #0070C0;"></path>
                                                                        <path d="M 451 190 Q 439 196 410 199 C 380 202 375 203 392 182 Q 416 158 440 32 Q 444 5 460 -13 Q 478 -35 483 -19 Q 486 -9 486 5 L 482 41 Q 467 129 464 159 C 461 186 461 186 451 190 Z" style="fill: #0070C0;"></path>
                                                                        <path d="M 700 72 Q 722 144 753 166 Q 769 185 755 202 Q 739 215 687 240 Q 668 247 647 239 Q 572 209 451 190 C 421 185 435 153 464 159 Q 647 196 657 188 L 658 187 Q 667 180 665 163 Q 658 111 647 68 C 640 39 691 43 700 72 Z" style="fill: #0070C0;"></path>
                                                                        <path d="M 486 5 Q 493 4 506 6 Q 576 19 726 28 Q 738 29 739 38 Q 740 47 708 69 Q 704 70 700 72 C 689 76 676 74 647 68 Q 554 50 482 41 C 452 37 456 6 486 5 Z" style="fill: #0070C0;"></path>
                                    
                                    
                                                                                                                                                                                                                                                                                                                                                                                                                                                                                                                                                                                                                                                                                                                                                                                                                                                                                                                                                                                                                                                                                                        </g>
                            </svg>