<svg width='83' height='83' >
                                <g transform="translate(3, 70) scale(0.07, -0.07)">
                                    <!-- 先将完整的字以灰色字体绘制完成，层级位于下面 -->
                                                                        <path d="M 197 704 Q 219 683 245 658 Q 260 645 276 646 Q 288 646 293 660 Q 297 676 288 707 Q 278 734 191 755 Q 175 758 168 755 Q 162 751 164 737 Q 168 727 197 704 Z" style="fill: #0070C0;"></path>
                                                                        <path d="M 115 508 Q 160 454 194 439 Q 210 435 219 449 Q 226 462 223 479 Q 211 522 129 546 L 128 547 Q 112 551 101 548 Q 95 547 97 534 Q 98 522 115 508 Z" style="fill: #0070C0;"></path>
                                                                        <path d="M 110 155 Q 98 151 100 135 Q 112 63 146 44 Q 153 37 163 40 Q 170 41 171 65 Q 180 114 297 393 Q 304 409 303 414 Q 302 424 293 418 Q 283 411 272 395 Q 211 292 156 203 Q 141 179 110 155 Z" style="fill: #0070C0;"></path>
                                                                        <path d="M 388 715 Q 379 724 358 732 Q 348 738 335 733 Q 326 729 333 714 Q 336 699 342 684 Q 369 632 344 266 Q 337 211 319 145 Q 301 85 340 34 Q 352 19 363 33 Q 373 46 377 62 L 382 95 Q 386 131 387 185 Q 403 654 410 677 C 413 699 413 699 388 715 Z" style="fill: #0070C0;"></path>
                                                                        <path d="M 754 80 Q 788 38 813 -1 Q 823 -22 836 -21 Q 855 -20 872 19 Q 893 64 888 117 Q 875 298 865 633 Q 864 670 883 696 Q 895 711 884 723 Q 862 747 800 775 Q 778 785 760 775 Q 616 721 412 714 Q 400 714 388 715 C 358 715 380 675 410 677 Q 429 674 720 717 Q 763 723 784 705 Q 826 659 808 162 Q 805 137 805 119 Q 801 104 790 104 C 776 78 740 98 754 80 Z" style="fill: #0070C0;"></path>
                                                                        <path d="M 578 576 Q 639 592 714 603 Q 723 602 730 613 Q 731 623 711 631 Q 684 650 594 618 Q 591 618 589 617 Q 532 602 450 589 Q 426 585 446 571 Q 476 550 502 558 Q 518 564 545 568 L 578 576 Z" style="fill: #0070C0;"></path>
                                                                        <path d="M 552 500 Q 576 525 590 531 Q 597 537 596 546 Q 596 558 578 576 C 557 598 551 597 545 568 Q 545 541 441 446 Q 432 442 430 438 Q 426 431 436 431 Q 463 431 533 485 L 552 500 Z" style="fill: #0070C0;"></path>
                                                                        <path d="M 633 439 Q 614 463 552 500 C 526 516 507 500 533 485 Q 540 481 548 476 L 588 444 Q 598 435 607 423 L 632 368 Q 638 311 619 252 Q 609 222 599 217 Q 590 214 535 225 Q 517 231 516 224 Q 515 218 524 209 Q 567 170 585 145 Q 595 130 606 133 Q 645 148 665 241 Q 678 308 671 348 Q 670 349 670 350 L 665 378 Q 655 414 643 426 L 633 439 Z" style="fill: #0070C0;"></path>
                                                                        <path d="M 548 476 Q 542 431 431 340 Q 418 330 435 333 Q 483 333 564 419 Q 577 435 588 444 C 611 464 554 505 548 476 Z" style="fill: #0070C0;"></path>
                                                                        <path d="M 607 423 Q 606 422 604 418 Q 556 328 432 241 Q 419 231 428 229 Q 443 220 498 248 Q 546 272 603 334 Q 628 361 628 363 Q 629 366 632 368 C 650 392 622 449 607 423 Z" style="fill: #0070C0;"></path>
                                                                        <path d="M 643 426 Q 707 478 741 498 Q 756 502 752 511 Q 746 524 730 537 Q 714 550 696 552 Q 684 551 686 535 Q 687 517 633 439 C 616 414 620 407 643 426 Z" style="fill: #0070C0;"></path>
                                                                        <path d="M 670 350 Q 685 341 757 276 Q 767 266 778 267 Q 785 267 790 277 Q 793 287 787 309 Q 777 348 676 377 Q 669 378 665 378 C 635 380 645 367 670 350 Z" style="fill: #0070C0;"></path>
                                                                        <path d="M 377 62 Q 389 58 405 58 Q 517 76 754 80 C 784 81 812 84 790 104 Q 760 134 719 129 Q 532 101 382 95 C 352 94 348 69 377 62 Z" style="fill: #0070C0;"></path>
                                    
                                    
                                                                                                                                                                                                                                                                                                                                                                                                                                                                                                                                                                                                                                                                                                                                                                                                                                                                                                                                                                                                                                                                                                        </g>
                            </svg>