<svg width='83' height='83' >
                                <g transform="translate(3, 70) scale(0.07, -0.07)">
                                    <!-- 先将完整的字以灰色字体绘制完成，层级位于下面 -->
                                                                        <path d="M 148 691 Q 167 673 186 652 Q 198 639 213 640 Q 223 640 229 653 Q 233 666 226 695 Q 220 717 145 738 Q 130 742 124 739 Q 120 735 120 723 Q 124 713 148 691 Z" style="fill: #0070C0;"></path>
                                                                        <path d="M 98 511 Q 137 466 169 451 Q 182 448 191 461 Q 197 473 194 488 Q 185 525 109 547 Q 93 551 85 547 Q 79 546 82 535 Q 83 525 98 511 Z" style="fill: #0070C0;"></path>
                                                                        <path d="M 98 188 Q 88 184 89 169 Q 101 103 132 85 Q 138 79 147 81 Q 154 82 155 105 Q 158 135 241 351 Q 248 366 247 371 Q 246 380 238 374 Q 228 368 131 220 Q 121 204 98 188 Z" style="fill: #0070C0;"></path>
                                                                        <path d="M 331 671 Q 361 678 391 694 Q 404 701 412 694 Q 413 691 390 629 Q 366 577 389 548 Q 407 520 413 501 Q 417 488 412 481 Q 408 474 392 474 Q 373 474 351 471 Q 330 471 354 460 Q 393 441 429 416 Q 439 406 450 416 Q 462 423 466 444 Q 478 498 422 554 Q 388 588 427 634 Q 457 682 477 695 Q 493 707 484 717 Q 472 733 440 749 Q 422 755 411 745 Q 377 714 318 697 C 289 688 302 663 331 671 Z" style="fill: #0070C0;"></path>
                                                                        <path d="M 318 697 Q 296 715 267 724 Q 258 725 252 718 Q 248 712 256 701 Q 311 566 274 266 Q 267 218 251 169 Q 244 142 247 123 Q 257 89 268 76 Q 280 63 290 77 Q 320 110 321 329 Q 321 602 331 671 C 333 687 333 687 318 697 Z" style="fill: #0070C0;"></path>
                                                                        <path d="M 664 688 Q 673 724 686 739 Q 692 746 689 755 Q 674 779 638 783 Q 619 786 608 782 Q 601 778 605 767 Q 635 701 545 532 Q 461 406 431 367 Q 424 361 434 360 Q 491 381 576 505 Q 627 601 652 657 L 664 688 Z" style="fill: #0070C0;"></path>
                                                                        <path d="M 652 657 Q 713 557 796 449 Q 811 430 838 430 Q 929 429 958 431 Q 967 432 968 437 Q 969 441 957 448 Q 833 505 776 562 Q 722 617 664 688 C 645 711 636 683 652 657 Z" style="fill: #0070C0;"></path>
                                                                        <path d="M 648 412 Q 687 425 730 437 Q 754 444 758 449 Q 765 456 760 465 Q 753 475 723 480 Q 693 483 666 468 Q 639 456 609 446 Q 576 436 537 429 Q 503 419 530 406 Q 563 391 611 400 L 648 412 Z" style="fill: #0070C0;"></path>
                                                                        <path d="M 672 298 Q 721 305 789 308 Q 832 312 837 318 Q 841 328 826 340 Q 772 376 711 351 Q 693 348 673 341 L 623 329 Q 619 329 617 328 Q 544 313 457 296 Q 439 293 454 279 Q 482 257 514 266 Q 565 282 624 291 L 672 298 Z" style="fill: #0070C0;"></path>
                                                                        <path d="M 590 90 Q 575 96 555 102 Q 545 106 545 101 Q 545 94 552 85 Q 594 37 621 0 Q 631 -7 642 5 Q 681 51 675 154 Q 671 244 672 298 L 673 341 Q 673 351 675 360 Q 679 382 675 391 Q 668 401 648 412 C 622 428 599 427 611 400 Q 621 390 623 329 L 624 291 Q 627 101 617 88 Q 610 84 590 90 Z" style="fill: #0070C0;"></path>
                                                                        <path d="M 506 222 Q 479 176 445 134 Q 424 110 435 76 Q 439 60 460 69 Q 511 99 522 170 Q 529 198 526 220 Q 523 227 518 229 Q 511 229 506 222 Z" style="fill: #0070C0;"></path>
                                                                        <path d="M 740 221 Q 782 175 831 107 Q 841 89 855 84 Q 862 83 869 90 Q 881 100 874 138 Q 865 189 744 246 Q 737 252 734 241 Q 733 231 740 221 Z" style="fill: #0070C0;"></path>
                                    
                                    
                                                                                                                                                                                                                                                                                                                                                                                                                                                                                                                                                                                                                                                                                                                                                                                                                                                                                                                                                                                                                            </g>
                            </svg>