<svg width='83' height='83' >
                                <g transform="translate(3, 70) scale(0.07, -0.07)">
                                    <!-- 先将完整的字以灰色字体绘制完成，层级位于下面 -->
                                                                        <path d="M 228 673 Q 256 648 287 616 Q 302 601 319 602 Q 331 602 337 617 Q 341 633 333 666 Q 324 699 224 726 Q 208 730 200 727 Q 194 723 196 709 Q 200 696 228 673 Z" style="fill: #0070C0;"></path>
                                                                        <path d="M 126 532 Q 178 471 214 455 Q 229 451 239 465 Q 246 478 243 495 Q 233 535 140 570 Q 124 576 113 572 Q 107 571 109 558 Q 110 546 126 532 Z" style="fill: #0070C0;"></path>
                                                                        <path d="M 123 158 Q 110 154 114 135 Q 132 60 169 41 Q 176 34 187 38 Q 194 39 195 66 Q 198 114 287 383 Q 293 399 291 406 Q 290 416 281 409 Q 272 405 162 203 Q 150 181 123 158 Z" style="fill: #0070C0;"></path>
                                                                        <path d="M 590 659 Q 660 672 733 684 Q 785 694 794 701 Q 804 710 799 719 Q 792 732 761 741 Q 728 748 695 737 Q 649 722 602 710 L 548 698 Q 484 689 412 683 Q 372 679 400 659 Q 442 634 517 647 Q 529 650 542 650 L 590 659 Z" style="fill: #0070C0;"></path>
                                                                        <path d="M 570 576 Q 580 619 590 659 L 602 710 Q 608 740 627 784 Q 631 793 616 809 Q 588 830 567 836 Q 554 840 546 835 Q 539 829 544 815 Q 556 793 554 778 Q 551 741 548 698 L 542 650 Q 538 613 532 570 C 528 540 563 547 570 576 Z" style="fill: #0070C0;"></path>
                                                                        <path d="M 482 566 Q 466 579 451 585 Q 441 588 433 583 Q 426 579 428 570 Q 443 543 449 473 Q 450 410 456 226 C 457 196 496 201 496 231 Q 496 258 496 283 L 496 306 Q 496 337 496 364 L 496 387 Q 496 415 496 440 L 496 463 Q 496 532 498 534 C 500 552 500 552 482 566 Z" style="fill: #0070C0;"></path>
                                                                        <path d="M 732 259 Q 738 511 762 542 Q 774 555 762 571 Q 753 581 709 607 Q 696 617 675 607 Q 635 594 577 578 Q 573 578 570 576 L 532 570 Q 507 569 482 566 C 452 563 468 530 498 534 Q 507 534 518 537 Q 675 576 687 562 Q 696 544 686 253 C 685 223 731 229 732 259 Z" style="fill: #0070C0;"></path>
                                                                        <path d="M 496 440 Q 500 439 509 440 Q 585 453 640 462 Q 661 466 653 477 Q 643 490 621 494 Q 594 495 496 463 C 467 454 466 443 496 440 Z" style="fill: #0070C0;"></path>
                                                                        <path d="M 496 364 Q 500 363 509 364 Q 584 376 640 382 Q 661 386 653 397 Q 643 410 621 414 Q 591 418 496 387 C 467 378 466 367 496 364 Z" style="fill: #0070C0;"></path>
                                                                        <path d="M 496 283 Q 500 282 510 283 Q 592 296 651 303 Q 672 306 665 317 Q 655 330 633 335 Q 608 338 496 306 C 467 298 466 286 496 283 Z" style="fill: #0070C0;"></path>
                                                                        <path d="M 456 226 Q 377 220 294 211 Q 272 210 287 191 Q 302 176 320 170 Q 342 164 359 168 Q 594 226 901 206 Q 901 207 904 206 Q 925 206 930 215 Q 936 227 919 242 Q 864 287 792 269 Q 764 265 732 259 L 686 253 Q 638 249 587 241 Q 542 237 496 231 L 456 226 Z" style="fill: #0070C0;"></path>
                                                                        <path d="M 476 154 Q 458 91 314 -16 Q 292 -29 319 -28 Q 376 -28 499 71 Q 502 78 547 113 Q 559 125 557 134 Q 556 147 529 158 Q 501 171 488 168 Q 481 167 476 154 Z" style="fill: #0070C0;"></path>
                                                                        <path d="M 664 135 Q 716 80 776 3 Q 792 -19 807 -25 Q 817 -28 825 -17 Q 840 -4 829 43 Q 819 103 667 167 Q 658 174 655 160 Q 654 147 664 135 Z" style="fill: #0070C0;"></path>
                                    
                                    
                                                                                                                                                                                                                                                                                                                                                                                                                                                                                                                                                                                                                                                                                                                                                                                                                                                                                                                                                                                                                                                                                                        </g>
                            </svg>