<svg width='83' height='83' >
                                <g transform="translate(3, 70) scale(0.07, -0.07)">
                                    <!-- 先将完整的字以灰色字体绘制完成，层级位于下面 -->
                                                                        <path d="M 210 729 Q 234 707 259 680 Q 272 667 289 667 Q 299 667 305 681 Q 309 696 302 725 Q 293 753 206 778 Q 190 782 184 779 Q 180 775 180 762 Q 184 752 210 729 Z" style="fill: #0070C0;"></path>
                                                                        <path d="M 130 530 Q 170 490 207 475 Q 223 474 231 488 Q 235 501 231 519 Q 216 556 159 567 Q 120 573 113 568 Q 106 567 110 554 Q 113 542 130 530 Z" style="fill: #0070C0;"></path>
                                                                        <path d="M 119 211 Q 107 208 109 191 Q 121 118 154 100 Q 161 93 171 95 Q 178 96 179 121 Q 188 172 285 405 Q 292 421 291 426 Q 290 436 281 430 Q 265 420 158 250 Q 145 231 119 211 Z" style="fill: #0070C0;"></path>
                                                                        <path d="M 546 799 Q 571 781 598 759 Q 611 747 627 750 Q 637 751 641 764 Q 644 779 633 806 Q 623 831 537 844 Q 521 845 516 843 Q 512 839 514 827 Q 518 817 546 799 Z" style="fill: #0070C0;"></path>
                                                                        <path d="M 403 682 Q 384 710 371 718 Q 367 722 362 718 Q 358 715 357 704 Q 361 674 336 612 Q 326 596 328 578 Q 332 559 341 546 Q 348 534 354 543 Q 364 546 379 591 Q 398 651 404 655 C 413 668 413 668 403 682 Z" style="fill: #0070C0;"></path>
                                                                        <path d="M 404 655 Q 422 646 471 660 Q 609 702 728 712 Q 746 715 754 713 Q 767 706 766 699 Q 766 696 741 637 Q 735 624 741 621 Q 748 617 762 628 Q 810 659 849 669 Q 880 679 880 686 Q 879 696 814 741 Q 792 757 714 739 Q 660 733 403 682 C 374 676 375 661 404 655 Z" style="fill: #0070C0;"></path>
                                                                        <path d="M 538 636 Q 595 582 615 583 Q 628 583 631 601 Q 631 613 620 631 Q 602 653 539 661 Q 530 662 531 651 Q 530 644 538 636 Z" style="fill: #0070C0;"></path>
                                                                        <path d="M 687 537 Q 697 541 708 542 Q 756 554 763 560 Q 770 567 766 574 Q 760 584 735 591 Q 708 595 632 569 Q 500 539 428 532 Q 397 528 419 512 Q 458 491 502 502 Q 574 517 649 530 L 687 537 Z" style="fill: #0070C0;"></path>
                                                                        <path d="M 448 455 Q 484 398 503 395 Q 515 394 522 408 Q 525 420 518 438 Q 512 451 494 459 Q 467 475 455 478 Q 448 481 445 471 Q 444 464 448 455 Z" style="fill: #0070C0;"></path>
                                                                        <path d="M 628 385 Q 646 403 682 458 Q 691 471 706 488 Q 719 498 712 508 Q 706 521 687 537 C 664 557 648 560 649 530 Q 652 499 611 407 Q 604 394 601 381 C 593 352 607 363 628 385 Z" style="fill: #0070C0;"></path>
                                                                        <path d="M 594 345 Q 687 360 872 359 Q 891 359 895 367 Q 899 377 885 391 Q 831 431 773 412 Q 712 402 628 385 L 601 381 Q 595 381 592 380 Q 474 364 335 345 Q 316 342 330 327 Q 343 314 360 309 Q 379 305 395 309 Q 462 328 539 337 L 594 345 Z" style="fill: #0070C0;"></path>
                                                                        <path d="M 605 204 Q 677 214 781 214 Q 833 214 840 223 Q 844 233 829 247 Q 778 283 714 266 Q 668 257 607 244 L 554 235 Q 463 222 359 205 Q 340 202 354 187 Q 367 174 385 170 Q 404 166 419 170 Q 482 188 554 197 L 605 204 Z" style="fill: #0070C0;"></path>
                                                                        <path d="M 557 -39 Q 561 -61 567 -69 Q 571 -76 578 -73 Q 585 -70 590 -57 Q 602 -17 603 137 Q 603 165 605 204 L 607 244 Q 607 250 616 313 Q 619 329 607 337 Q 600 341 594 345 C 569 361 523 362 539 337 Q 540 333 545 328 Q 554 310 554 235 L 554 197 Q 554 -19 557 -39 Z" style="fill: #0070C0;"></path>
                                    
                                    
                                                                                                                                                                                                                                                                                                                                                                                                                                                                                                                                                                                                                                                                                                                                                                                                                                                                                                                                                                                                                                                                                                        </g>
                            </svg>