<svg width='83' height='83' >
                                <g transform="translate(3, 70) scale(0.07, -0.07)">
                                    <!-- 先将完整的字以灰色字体绘制完成，层级位于下面 -->
                                                                        <path d="M 189 386 Q 199 467 203 511 L 205 546 Q 206 564 206 580 Q 209 667 213 683 C 216 703 216 703 203 711 Q 187 723 165 730 Q 146 739 135 733 Q 125 726 132 713 Q 166 671 153 458 Q 152 455 152 449 Q 145 377 130 317 Q 100 212 36 93 Q 32 86 31 81 Q 30 71 39 74 Q 54 77 85 125 Q 151 210 182 353 L 189 386 Z" style="fill: #0070C0;"></path>
                                                                        <path d="M 213 683 Q 220 686 275 702 Q 291 708 297 699 Q 312 660 309 379 Q 303 151 291 132 Q 287 126 268 131 Q 246 135 222 139 Q 203 145 205 136 Q 254 94 284 63 Q 296 47 310 42 Q 317 38 325 47 Q 358 92 359 165 Q 343 648 366 687 Q 376 705 366 714 Q 347 730 314 744 Q 298 751 283 744 Q 258 728 242 722 Q 227 718 203 711 C 174 703 184 674 213 683 Z" style="fill: #0070C0;"></path>
                                                                        <path d="M 203 511 Q 243 520 277 524 Q 299 530 290 541 Q 278 554 254 556 Q 235 557 205 546 C 177 536 174 504 203 511 Z" style="fill: #0070C0;"></path>
                                                                        <path d="M 182 353 Q 183 353 272 364 Q 294 368 285 381 Q 275 394 251 397 Q 229 398 190 387 Q 189 387 189 386 C 162 372 152 350 182 353 Z" style="fill: #0070C0;"></path>
                                                                        <path d="M 444 693 Q 462 675 480 654 Q 490 642 504 642 Q 513 642 517 653 Q 521 665 516 689 Q 509 713 442 733 Q 429 737 424 735 Q 420 732 420 721 Q 423 711 444 693 Z" style="fill: #0070C0;"></path>
                                                                        <path d="M 701 752 Q 691 737 647 684 Q 637 671 652 672 Q 686 687 705 698 Q 762 731 770 733 Q 789 740 780 756 Q 770 771 749 784 Q 730 797 719 795 Q 709 794 711 783 Q 712 767 701 752 Z" style="fill: #0070C0;"></path>
                                                                        <path d="M 579 562 Q 730 590 738 597 Q 747 604 743 612 Q 736 624 708 632 Q 680 638 650 627 Q 622 618 591 610 L 539 598 Q 496 592 450 588 Q 414 582 439 566 Q 470 545 527 552 L 579 562 Z" style="fill: #0070C0;"></path>
                                                                        <path d="M 692 464 Q 728 467 818 468 Q 836 469 840 477 Q 844 487 829 499 Q 775 536 714 516 Q 594 497 552 485 L 500 477 Q 448 470 391 460 Q 372 459 386 443 Q 399 431 415 426 Q 418 426 481 435 L 535 446 Q 584 459 661 462 L 692 464 Z" style="fill: #0070C0;"></path>
                                                                        <path d="M 552 485 Q 565 519 579 562 L 591 610 Q 627 746 636 760 Q 645 773 639 782 Q 627 806 574 816 Q 559 820 544 811 Q 534 801 545 792 Q 561 777 564 760 Q 570 735 548 635 Q 544 617 539 598 L 527 552 Q 515 513 500 477 L 481 435 Q 448 374 379 280 Q 372 265 382 264 Q 386 263 398 272 Q 485 341 535 446 L 552 485 Z" style="fill: #0070C0;"></path>
                                                                        <path d="M 661 462 Q 724 383 792 311 Q 811 290 846 289 Q 907 285 972 297 Q 988 298 990 304 Q 991 310 979 315 Q 820 369 752 418 Q 733 431 715 445 Q 702 455 692 464 C 669 484 642 485 661 462 Z" style="fill: #0070C0;"></path>
                                                                        <path d="M 543 73 Q 516 77 489 83 Q 479 84 479 79 Q 480 72 489 65 Q 550 13 572 -20 Q 585 -36 599 -23 Q 632 8 628 111 Q 622 285 635 319 Q 644 335 628 348 Q 606 367 579 377 Q 563 383 555 376 Q 549 370 559 356 Q 592 293 576 99 Q 573 84 564 76 Q 557 69 543 73 Z" style="fill: #0070C0;"></path>
                                                                        <path d="M 470 264 Q 489 251 509 233 Q 519 224 531 225 Q 538 226 541 236 Q 544 248 536 268 Q 532 281 509 290 Q 452 302 448 298 Q 444 295 446 286 Q 449 279 470 264 Z" style="fill: #0070C0;"></path>
                                                                        <path d="M 398 139 Q 388 138 387 125 Q 388 109 411 96 Q 432 78 445 78 Q 452 78 462 97 Q 487 125 549 186 Q 555 190 553 198 Q 550 201 543 198 Q 432 140 398 139 Z" style="fill: #0070C0;"></path>
                                                                        <path d="M 692 303 Q 679 281 652 247 Q 648 241 651 235 Q 657 234 663 237 Q 721 273 750 285 Q 765 289 762 297 Q 758 310 742 325 Q 727 341 709 343 Q 697 342 698 327 Q 699 317 692 303 Z" style="fill: #0070C0;"></path>
                                                                        <path d="M 666 172 Q 712 135 767 82 Q 783 64 798 61 Q 805 60 813 71 Q 823 84 809 124 Q 797 161 730 183 Q 688 196 665 201 Q 656 205 655 193 Q 655 180 666 172 Z" style="fill: #0070C0;"></path>
                                    
                                    
                                                                                                                                                                                                                                                                                                                                                                                                                                                                                                                                                                                                                                                                                                                                                                                                                                                                                                                                                                                                                                                                                                                                                                                                                                                                </g>
                            </svg>