<svg width='83' height='83' >
                                <g transform="translate(3, 70) scale(0.07, -0.07)">
                                    <!-- 先将完整的字以灰色字体绘制完成，层级位于下面 -->
                                                                        <path d="M 232 698 Q 257 673 285 642 Q 300 626 318 626 Q 330 626 336 641 Q 343 657 334 692 Q 330 713 297 730 Q 222 763 204 755 Q 198 751 199 736 Q 203 723 232 698 Z" style="fill: #0070C0;"></path>
                                                                        <path d="M 126 539 Q 175 481 206 467 Q 221 463 231 477 Q 238 490 235 507 Q 223 553 141 577 L 140 578 Q 124 584 114 580 Q 107 579 109 566 Q 110 554 126 539 Z" style="fill: #0070C0;"></path>
                                                                        <path d="M 101 158 Q 89 154 92 137 Q 108 64 144 45 Q 151 38 161 41 Q 168 42 169 68 Q 172 110 266 376 Q 273 392 271 398 Q 270 408 261 401 Q 248 392 141 202 Q 128 180 101 158 Z" style="fill: #0070C0;"></path>
                                                                        <path d="M 516 803 Q 586 733 615 734 Q 631 734 635 756 Q 635 772 622 793 Q 609 811 580 818 Q 537 833 518 834 Q 508 835 507 821 Q 507 812 516 803 Z" style="fill: #0070C0;"></path>
                                                                        <path d="M 465 631 Q 603 664 763 688 Q 773 687 781 699 Q 782 709 761 719 Q 730 738 646 712 Q 619 706 594 698 Q 546 686 379 659 Q 352 655 374 639 Q 407 615 434 623 L 465 631 Z" style="fill: #0070C0;"></path>
                                                                        <path d="M 434 623 Q 438 605 393 539 Q 371 509 339 477 Q 332 471 329 467 Q 326 460 336 460 Q 372 460 463 558 Q 476 574 487 580 Q 494 587 492 597 Q 491 606 473 625 Q 469 629 465 631 C 440 648 434 652 434 623 Z" style="fill: #0070C0;"></path>
                                                                        <path d="M 674 605 Q 714 581 757 551 Q 769 541 782 544 Q 791 545 793 556 Q 796 569 785 592 Q 778 614 741 628 Q 660 652 648 643 Q 644 639 646 629 Q 650 620 674 605 Z" style="fill: #0070C0;"></path>
                                                                        <path d="M 508 392 Q 554 410 651 435 Q 658 438 667 441 C 695 451 684 465 654 460 Q 581 447 502 425 Q 495 422 492 424 Q 491 427 495 432 Q 568 516 583 529 Q 593 536 589 548 Q 585 558 544 581 Q 529 588 521 585 Q 511 581 514 563 Q 529 512 438 430 Q 428 424 417 415 Q 404 405 407 396 Q 411 381 433 363 Q 442 354 454 363 Q 464 372 489 383 L 508 392 Z" style="fill: #0070C0;"></path>
                                                                        <path d="M 667 441 Q 682 417 702 412 Q 714 409 723 425 Q 726 437 720 456 Q 713 474 692 486 Q 658 508 644 514 Q 635 517 633 506 Q 630 500 654 460 L 667 441 Z" style="fill: #0070C0;"></path>
                                                                        <path d="M 545 324 Q 548 331 546 341 Q 531 384 508 392 C 488 403 488 403 489 383 Q 489 382 490 379 Q 490 274 245 104 Q 239 101 237 96 Q 237 92 242 91 Q 294 84 446 219 L 469 242 Q 497 273 528 306 L 545 324 Z" style="fill: #0070C0;"></path>
                                                                        <path d="M 446 219 Q 461 186 460 155 Q 460 115 456 101 Q 452 71 438 55 Q 425 33 433 11 Q 443 -20 461 -33 Q 471 -40 484 -22 Q 515 18 620 119 Q 638 135 639 142 Q 640 155 619 144 Q 580 122 535 96 Q 517 84 509 88 Q 502 92 502 111 Q 508 169 513 184 Q 517 203 504 216 Q 486 235 469 242 C 442 256 435 247 446 219 Z" style="fill: #0070C0;"></path>
                                                                        <path d="M 643 252 Q 734 303 780 321 Q 799 324 796 336 Q 792 352 774 374 Q 756 395 734 400 Q 718 401 717 381 Q 718 357 627 266 C 606 245 617 237 643 252 Z" style="fill: #0070C0;"></path>
                                                                        <path d="M 627 266 Q 570 323 545 324 C 516 332 502 321 528 306 L 529 306 Q 535 302 542 298 Q 569 286 648 193 Q 765 60 826 65 Q 841 68 925 89 Q 935 92 947 97 Q 953 104 942 111 Q 929 118 822 146 Q 747 164 643 252 L 627 266 Z" style="fill: #0070C0;"></path>
                                    
                                    
                                                                                                                                                                                                                                                                                                                                                                                                                                                                                                                                                                                                                                                                                                                                                                                                                                                                                                                                                                                                                                                                                                        </g>
                            </svg>