<svg width='83' height='83' >
                                <g transform="translate(3, 70) scale(0.07, -0.07)">
                                    <!-- 先将完整的字以灰色字体绘制完成，层级位于下面 -->
                                                                        <path d="M 206 705 Q 231 686 257 661 Q 273 648 289 649 Q 299 650 305 664 Q 309 680 298 711 Q 285 744 199 755 Q 183 759 176 755 Q 170 751 173 737 Q 177 727 206 705 Z" style="fill: #0070C0;"></path>
                                                                        <path d="M 123 528 Q 168 474 202 459 Q 218 455 227 469 Q 234 482 231 499 Q 219 542 137 566 L 136 567 Q 120 571 109 568 Q 103 567 105 554 Q 106 542 123 528 Z" style="fill: #0070C0;"></path>
                                                                        <path d="M 111 174 Q 99 170 102 152 Q 126 76 156 62 Q 163 55 174 59 Q 181 60 181 86 Q 187 140 267 388 Q 273 404 271 410 Q 270 420 261 413 Q 252 407 148 217 Q 138 196 111 174 Z" style="fill: #0070C0;"></path>
                                                                        <path d="M 446 577 Q 545 605 549 609 Q 556 616 552 625 Q 545 635 515 641 Q 476 647 446 627 L 400 610 Q 390 609 382 605 Q 339 592 287 585 Q 253 576 278 562 Q 323 541 375 559 Q 385 563 400 565 L 446 577 Z" style="fill: #0070C0;"></path>
                                                                        <path d="M 444 442 Q 510 463 513 464 Q 520 471 515 478 Q 508 488 483 492 Q 462 496 445 488 L 398 470 Q 323 452 305 449 Q 274 442 298 428 Q 340 409 395 429 L 397 429 L 444 442 Z" style="fill: #0070C0;"></path>
                                                                        <path d="M 445 297 Q 449 300 522 314 Q 532 314 539 327 Q 539 337 517 346 Q 483 361 444 345 L 395 328 Q 347 315 265 296 Q 238 289 261 275 Q 289 257 330 266 Q 357 275 394 284 L 445 297 Z" style="fill: #0070C0;"></path>
                                                                        <path d="M 444 345 Q 444 388 444 442 L 445 488 Q 445 530 446 577 L 446 627 Q 446 672 460 743 Q 463 761 449 770 Q 418 792 402 794 Q 389 798 374 790 Q 365 783 373 772 Q 400 715 401 634 Q 400 624 400 610 L 400 565 Q 399 522 398 470 L 397 429 Q 396 383 395 328 L 394 284 Q 375 31 406 -17 Q 412 -24 419 -22 Q 437 -10 440 45 Q 444 91 445 297 L 444 345 Z" style="fill: #0070C0;"></path>
                                                                        <path d="M 660 621 Q 682 652 707 692 Q 722 719 734 732 Q 741 742 737 754 Q 733 764 707 783 Q 683 798 666 797 Q 650 794 658 776 Q 676 745 620 639 Q 593 590 556 535 Q 549 526 546 520 Q 545 510 556 513 Q 586 522 641 596 Q 642 599 646 602 L 660 621 Z" style="fill: #0070C0;"></path>
                                                                        <path d="M 716 477 Q 797 588 831 616 Q 847 626 835 638 Q 822 648 785 665 Q 769 669 757 660 Q 750 656 689 631 Q 676 627 660 621 C 632 611 623 608 646 602 Q 667 593 732 613 Q 739 614 741 613 Q 745 610 741 600 Q 713 521 694 482 Q 690 476 689 470 C 678 442 698 453 716 477 Z" style="fill: #0070C0;"></path>
                                                                        <path d="M 835 337 Q 859 416 889 438 Q 904 456 890 472 Q 821 523 769 496 Q 742 486 716 477 L 689 470 Q 640 458 590 449 C 560 444 573 412 602 419 Q 638 428 677 436 L 713 444 Q 791 463 801 455 Q 814 442 789 339 C 782 310 826 308 835 337 Z" style="fill: #0070C0;"></path>
                                                                        <path d="M 677 436 Q 678 430 679 311 C 679 281 713 290 716 320 Q 720 363 726 398 Q 727 404 727 408 Q 734 421 727 430 Q 720 437 713 444 C 692 465 675 466 677 436 Z" style="fill: #0070C0;"></path>
                                                                        <path d="M 588 267 Q 606 261 619 265 Q 692 284 852 301 Q 862 302 864 311 Q 864 320 835 337 L 789 339 Q 788 339 787 339 Q 748 329 716 320 L 679 311 Q 630 304 589 295 C 560 289 559 275 588 267 Z" style="fill: #0070C0;"></path>
                                                                        <path d="M 962 127 Q 949 155 929 242 Q 928 258 921 262 Q 915 265 911 248 Q 886 154 869 126 Q 856 108 817 97 Q 727 75 646 105 Q 615 121 606 141 Q 582 186 588 267 L 589 295 Q 592 353 602 418 L 602 419 C 605 440 605 440 590 449 Q 578 459 558 466 Q 545 470 537 465 Q 530 461 536 444 Q 549 405 548 368 Q 541 173 559 120 Q 565 93 589 72 Q 676 3 847 35 Q 860 38 874 41 Q 916 54 956 86 Q 975 102 962 127 Z" style="fill: #0070C0;"></path>
                                    
                                    
                                                                                                                                                                                                                                                                                                                                                                                                                                                                                                                                                                                                                                                                                                                                                                                                                                                                                                                                                                                                                                                                                                        </g>
                            </svg>