<svg width='83' height='83' >
                                <g transform="translate(3, 70) scale(0.07, -0.07)">
                                    <!-- 先将完整的字以灰色字体绘制完成，层级位于下面 -->
                                                                        <path d="M 208 687 Q 236 665 267 636 Q 283 623 300 624 Q 312 625 317 640 Q 321 656 310 689 Q 303 710 269 723 Q 188 748 176 739 Q 170 735 173 721 Q 177 708 208 687 Z" style="fill: #0070C0;"></path>
                                                                        <path d="M 121 503 Q 169 449 205 436 Q 221 435 231 449 Q 237 462 233 480 Q 221 519 133 545 Q 115 549 105 545 Q 98 544 102 530 Q 103 517 121 503 Z" style="fill: #0070C0;"></path>
                                                                        <path d="M 121 178 Q 109 174 111 156 Q 123 81 160 59 Q 167 52 178 55 Q 185 56 187 82 Q 196 133 313 419 Q 320 435 319 442 Q 318 452 309 445 Q 299 438 286 421 Q 223 318 167 227 Q 154 202 121 178 Z" style="fill: #0070C0;"></path>
                                                                        <path d="M 673 752 Q 713 758 750 761 Q 760 760 768 771 Q 769 781 748 792 Q 718 814 639 791 Q 507 767 397 755 Q 369 752 390 735 Q 418 711 446 715 L 484 722 Q 542 735 621 744 L 673 752 Z" style="fill: #0070C0;"></path>
                                                                        <path d="M 446 715 Q 455 700 458 608 Q 458 554 458 457 C 458 427 494 433 495 463 Q 496 497 497 529 L 498 552 Q 499 586 501 617 L 502 643 Q 502 662 504 683 Q 511 704 484 722 C 460 740 435 743 446 715 Z" style="fill: #0070C0;"></path>
                                                                        <path d="M 680 497 Q 680 665 690 725 Q 693 738 681 747 Q 677 750 673 752 C 648 769 609 772 621 744 Q 631 723 632 708 Q 633 657 634 488 L 635 450 Q 638 396 648 382 Q 652 378 658 379 Q 665 383 678 453 L 680 497 Z" style="fill: #0070C0;"></path>
                                                                        <path d="M 501 617 Q 561 630 606 639 Q 625 643 617 654 Q 607 664 586 667 Q 550 670 502 643 C 476 628 472 611 501 617 Z" style="fill: #0070C0;"></path>
                                                                        <path d="M 497 529 Q 498 529 506 530 Q 561 540 602 547 Q 621 551 613 562 Q 603 574 582 576 Q 546 579 498 552 C 472 537 467 526 497 529 Z" style="fill: #0070C0;"></path>
                                                                        <path d="M 678 453 Q 726 459 811 458 Q 827 459 832 466 Q 836 476 821 488 Q 772 524 716 505 Q 698 502 680 497 L 634 488 Q 604 484 574 477 Q 535 471 495 463 L 458 457 Q 413 451 366 443 Q 348 442 362 427 Q 375 415 390 411 Q 408 407 422 411 Q 525 441 635 450 L 678 453 Z" style="fill: #0070C0;"></path>
                                                                        <path d="M 466 166 Q 488 208 510 266 Q 520 293 536 311 Q 552 326 540 338 Q 528 348 499 357 Q 477 363 453 348 Q 432 338 403 328 Q 375 318 326 308 Q 313 307 309 300 Q 305 293 323 287 Q 357 275 402 291 Q 432 307 437 308 Q 459 309 457 285 Q 447 233 428 192 L 408 157 Q 365 94 271 63 Q 259 59 270 52 Q 274 48 305 50 Q 378 59 438 125 L 466 166 Z" style="fill: #0070C0;"></path>
                                                                        <path d="M 438 125 Q 498 53 512 48 Q 519 47 525 54 Q 535 64 526 98 Q 522 125 466 166 L 428 192 Q 376 226 347 243 Q 340 247 338 238 Q 337 228 345 219 Q 375 191 408 157 L 438 125 Z" style="fill: #0070C0;"></path>
                                                                        <path d="M 681 154 Q 639 100 555 68 Q 542 62 554 56 Q 558 52 590 54 Q 654 61 710 116 L 741 154 Q 771 203 798 280 Q 808 310 828 329 Q 847 345 833 359 Q 820 371 787 381 Q 763 387 737 372 Q 713 362 681 353 Q 650 344 595 337 Q 582 337 577 330 Q 573 323 591 315 Q 627 302 675 315 Q 711 331 718 331 Q 745 328 738 299 Q 726 235 703 189 L 681 154 Z" style="fill: #0070C0;"></path>
                                                                        <path d="M 710 116 Q 783 29 813 22 Q 885 19 945 22 Q 975 25 973 33 Q 970 42 897 67 Q 785 116 741 154 L 703 189 Q 681 213 656 240 Q 626 274 597 276 Q 582 277 579 273 Q 578 267 590 258 Q 624 231 681 154 L 710 116 Z" style="fill: #0070C0;"></path>
                                    
                                    
                                                                                                                                                                                                                                                                                                                                                                                                                                                                                                                                                                                                                                                                                                                                                                                                                                                                                                                                                                                                                                                                                                        </g>
                            </svg>