<svg width='83' height='83' >
                                <g transform="translate(3, 70) scale(0.07, -0.07)">
                                    <!-- 先将完整的字以灰色字体绘制完成，层级位于下面 -->
                                                                        <path d="M 241 723 Q 263 701 289 673 Q 304 657 322 657 Q 334 658 340 673 Q 347 689 337 724 Q 328 754 237 778 Q 219 782 212 779 Q 206 775 207 760 Q 211 747 241 723 Z" style="fill: #0070C0;"></path>
                                                                        <path d="M 143 532 Q 188 478 222 463 Q 238 459 247 473 Q 254 486 251 503 Q 239 546 157 570 L 156 571 Q 140 575 129 572 Q 123 571 125 558 Q 126 546 143 532 Z" style="fill: #0070C0;"></path>
                                                                        <path d="M 134 194 Q 121 190 124 172 Q 142 96 177 76 Q 184 69 195 72 Q 202 73 203 100 Q 207 151 298 399 Q 305 415 303 422 Q 302 432 293 425 Q 278 416 178 245 Q 157 214 134 194 Z" style="fill: #0070C0;"></path>
                                                                        <path d="M 571 793 Q 593 775 617 752 Q 633 739 649 741 Q 659 742 665 756 Q 669 772 658 803 Q 646 831 563 843 Q 547 847 540 843 Q 534 839 537 825 Q 541 815 571 793 Z" style="fill: #0070C0;"></path>
                                                                        <path d="M 709 673 Q 772 683 826 688 Q 836 687 845 699 Q 846 709 824 720 Q 794 742 710 716 Q 574 689 431 668 Q 413 667 396 663 Q 369 660 390 643 Q 420 619 448 625 Q 542 646 666 666 L 709 673 Z" style="fill: #0070C0;"></path>
                                                                        <path d="M 467 579 Q 497 516 519 513 Q 529 509 539 524 Q 542 534 537 554 Q 525 582 475 601 Q 468 604 465 595 Q 462 588 467 579 Z" style="fill: #0070C0;"></path>
                                                                        <path d="M 650 513 Q 656 522 665 532 Q 684 557 705 587 Q 714 600 730 618 Q 746 628 738 640 Q 731 656 709 673 C 686 692 663 696 666 666 Q 672 639 628 536 Q 618 518 617 505 C 612 475 633 488 650 513 Z" style="fill: #0070C0;"></path>
                                                                        <path d="M 409 474 Q 393 487 372 493 Q 363 494 357 487 Q 353 481 361 471 Q 403 336 357 139 Q 339 103 346 74 Q 355 41 365 28 Q 375 15 386 28 Q 410 53 418 225 Q 418 375 431 437 C 435 456 434 457 409 474 Z" style="fill: #0070C0;"></path>
                                                                        <path d="M 593 473 Q 662 488 740 498 Q 761 502 770 490 Q 780 486 784 437 Q 797 280 788 99 Q 787 72 778 65 Q 763 55 693 70 Q 677 73 678 63 Q 679 56 692 50 Q 756 5 788 -29 Q 810 -48 822 -45 Q 835 -42 845 -14 Q 861 32 859 97 Q 844 323 844 407 Q 845 446 856 468 Q 868 489 858 501 Q 848 516 802 539 Q 783 548 764 543 Q 724 531 650 513 L 617 505 Q 613 505 610 504 Q 513 486 409 474 C 379 470 403 427 431 437 Q 438 446 553 465 L 593 473 Z" style="fill: #0070C0;"></path>
                                                                        <path d="M 606 356 Q 643 366 685 374 Q 715 381 719 385 Q 726 392 723 399 Q 716 408 693 413 Q 671 417 612 396 L 567 383 Q 530 376 486 370 Q 458 364 478 351 Q 514 332 566 347 L 606 356 Z" style="fill: #0070C0;"></path>
                                                                        <path d="M 594 274 Q 600 317 606 356 L 612 396 Q 612 399 613 401 Q 617 417 619 427 Q 623 437 625 443 Q 628 450 614 462 Q 604 469 593 473 C 565 484 538 491 553 465 Q 566 447 567 390 Q 567 387 567 383 L 566 347 Q 565 310 562 266 C 560 236 590 244 594 274 Z" style="fill: #0070C0;"></path>
                                                                        <path d="M 501 256 Q 491 260 468 264 Q 458 267 454 263 Q 450 257 456 244 Q 475 204 488 139 Q 491 120 502 106 Q 517 87 522 100 Q 523 106 524 112 L 523 144 Q 514 210 513 230 C 512 252 512 252 501 256 Z" style="fill: #0070C0;"></path>
                                                                        <path d="M 681 164 Q 699 215 717 230 Q 739 252 719 266 Q 703 276 678 294 Q 662 304 644 296 Q 620 283 594 274 L 562 266 Q 534 262 501 256 C 471 251 485 220 513 230 Q 516 234 612 251 Q 642 257 648 244 Q 654 240 647 216 Q 641 195 635 171 C 628 142 671 136 681 164 Z" style="fill: #0070C0;"></path>
                                                                        <path d="M 524 112 Q 530 111 540 114 Q 586 124 689 135 Q 699 136 700 145 Q 700 152 681 164 L 635 171 Q 631 172 628 170 Q 570 154 523 144 C 494 138 494 113 524 112 Z" style="fill: #0070C0;"></path>
                                    
                                    
                                                                                                                                                                                                                                                                                                                                                                                                                                                                                                                                                                                                                                                                                                                                                                                                                                                                                                                                                                                                                                                                                                                                                                                    </g>
                            </svg>