<svg width='83' height='83' >
                                <g transform="translate(3, 70) scale(0.07, -0.07)">
                                    <!-- 先将完整的字以灰色字体绘制完成，层级位于下面 -->
                                                                        <path d="M 205 689 Q 230 667 257 642 Q 272 629 288 630 Q 300 630 305 645 Q 309 661 299 691 Q 289 718 199 739 Q 183 742 176 739 Q 170 735 173 721 Q 177 711 205 689 Z" style="fill: #0070C0;"></path>
                                                                        <path d="M 124 506 Q 170 458 208 441 Q 223 440 231 453 Q 237 465 233 481 Q 218 523 134 544 Q 118 548 109 544 Q 103 543 106 531 Q 107 519 124 506 Z" style="fill: #0070C0;"></path>
                                                                        <path d="M 98 171 Q 85 167 87 150 Q 99 75 135 56 Q 142 49 153 51 Q 160 52 161 78 Q 167 120 273 384 Q 280 400 279 406 Q 278 416 269 410 Q 254 401 139 214 Q 126 192 98 171 Z" style="fill: #0070C0;"></path>
                                                                        <path d="M 590 672 Q 651 685 716 695 Q 773 707 782 714 Q 791 721 786 729 Q 780 739 754 748 Q 726 754 699 744 Q 647 728 594 714 L 547 704 Q 474 691 389 685 Q 356 681 379 665 Q 418 641 471 653 Q 490 657 513 659 L 590 672 Z" style="fill: #0070C0;"></path>
                                                                        <path d="M 547 635 Q 541 529 552 510 Q 552 509 554 506 Q 563 491 576 499 Q 586 508 587 588 Q 587 631 590 672 L 594 714 Q 597 763 615 795 Q 619 804 610 816 Q 562 855 536 846 Q 523 842 529 828 Q 545 800 547 704 L 547 635 Z" style="fill: #0070C0;"></path>
                                                                        <path d="M 513 659 Q 477 575 321 477 Q 308 468 320 466 Q 329 465 360 476 Q 397 489 433 514 Q 464 536 498 573 Q 526 603 544 630 Q 545 633 547 635 C 569 670 533 703 513 659 Z" style="fill: #0070C0;"></path>
                                                                        <path d="M 647 592 Q 701 559 767 508 Q 783 495 796 493 Q 803 493 808 502 Q 817 515 800 549 Q 784 594 643 618 Q 636 621 635 610 Q 636 600 647 592 Z" style="fill: #0070C0;"></path>
                                                                        <path d="M 590 446 Q 597 455 597 461 Q 596 473 573 482 Q 548 492 537 491 Q 530 490 527 479 Q 491 374 229 207 Q 210 195 234 196 Q 337 200 514 371 Q 518 380 574 430 L 590 446 Z" style="fill: #0070C0;"></path>
                                                                        <path d="M 574 430 Q 677 331 789 242 Q 811 223 847 225 Q 913 226 979 246 Q 995 250 997 254 Q 998 261 984 265 Q 779 320 687 378 Q 657 396 590 446 C 566 464 552 451 574 430 Z" style="fill: #0070C0;"></path>
                                                                        <path d="M 515 36 Q 487 40 461 47 Q 451 48 451 43 Q 452 37 461 30 Q 519 -22 540 -54 Q 553 -67 566 -56 Q 593 -26 595 55 Q 589 247 602 281 Q 609 297 595 309 Q 573 328 548 336 Q 532 342 526 335 Q 520 331 530 317 Q 548 281 549 140 Q 546 47 534 38 Q 527 32 515 36 Z" style="fill: #0070C0;"></path>
                                                                        <path d="M 396 238 Q 438 187 460 189 Q 472 188 476 204 Q 476 214 467 231 Q 451 253 398 260 Q 391 261 390 251 Q 389 244 396 238 Z" style="fill: #0070C0;"></path>
                                                                        <path d="M 312 70 Q 302 66 303 57 Q 304 47 314 42 Q 336 35 367 28 Q 376 28 383 38 Q 393 57 468 131 Q 492 156 491 168 Q 485 171 476 166 Q 416 126 339 80 Q 329 74 312 70 Z" style="fill: #0070C0;"></path>
                                                                        <path d="M 664 257 Q 648 235 616 201 Q 612 197 615 192 Q 619 191 626 193 Q 687 226 715 237 Q 728 238 726 247 Q 723 259 710 273 Q 698 288 682 291 Q 672 291 671 277 Q 672 267 664 257 Z" style="fill: #0070C0;"></path>
                                                                        <path d="M 629 127 Q 684 85 752 24 Q 767 8 780 6 Q 787 5 793 14 Q 802 27 788 62 Q 773 113 627 153 Q 620 157 619 146 Q 619 134 629 127 Z" style="fill: #0070C0;"></path>
                                    
                                    
                                                                                                                                                                                                                                                                                                                                                                                                                                                                                                                                                                                                                                                                                                                                                                                                                                                                                                                                                                                                                                                                                                                                                                                    </g>
                            </svg>