<svg width='83' height='83' >
                                <g transform="translate(3, 70) scale(0.07, -0.07)">
                                    <!-- 先将完整的字以灰色字体绘制完成，层级位于下面 -->
                                                                        <path d="M 206 717 Q 234 693 265 665 Q 280 652 297 653 Q 307 654 313 668 Q 317 684 307 715 Q 295 746 199 767 Q 183 770 176 767 Q 170 763 173 749 Q 177 739 206 717 Z" style="fill: #0070C0;"></path>
                                                                        <path d="M 120 497 Q 165 455 207 441 Q 223 440 231 456 Q 235 471 230 488 Q 220 512 199 523 Q 136 550 101 538 Q 100 538 100 537 Q 94 534 98 522 Q 102 509 120 497 Z" style="fill: #0070C0;"></path>
                                                                        <path d="M 110 143 Q 97 139 99 122 Q 111 47 147 28 Q 154 21 165 23 Q 172 24 173 50 Q 179 93 281 348 Q 288 364 287 370 Q 286 380 277 374 Q 270 370 150 184 Q 137 163 110 143 Z" style="fill: #0070C0;"></path>
                                                                        <path d="M 436 793 Q 487 733 509 733 Q 522 732 529 750 Q 530 763 520 784 Q 496 814 441 820 Q 431 821 430 810 Q 429 801 436 793 Z" style="fill: #0070C0;"></path>
                                                                        <path d="M 638 820 Q 635 816 582 737 Q 573 721 589 725 Q 628 747 677 781 Q 693 797 715 806 Q 734 816 724 832 Q 711 847 687 859 Q 665 871 654 868 Q 642 867 647 854 Q 650 838 638 820 Z" style="fill: #0070C0;"></path>
                                                                        <path d="M 565 671 Q 622 683 683 692 Q 731 702 738 708 Q 745 715 742 722 Q 736 732 712 739 Q 691 745 608 721 Q 494 696 405 687 Q 374 683 395 668 Q 428 652 497 660 Q 512 663 527 664 L 565 671 Z" style="fill: #0070C0;"></path>
                                                                        <path d="M 582 565 Q 615 574 697 584 Q 706 583 713 594 Q 714 604 695 612 Q 667 633 589 606 Q 586 606 585 605 L 536 594 Q 518 591 419 577 Q 395 573 414 559 Q 444 538 479 546 Q 504 552 536 557 L 582 565 Z" style="fill: #0070C0;"></path>
                                                                        <path d="M 577 498 Q 578 534 582 565 L 585 605 Q 585 617 588 627 Q 594 648 565 671 C 542 690 517 692 527 664 Q 533 652 536 594 L 536 557 Q 536 530 537 491 C 538 461 576 468 577 498 Z" style="fill: #0070C0;"></path>
                                                                        <path d="M 537 491 Q 446 476 343 460 Q 324 459 338 443 Q 351 431 367 426 Q 386 422 400 427 Q 556 472 794 472 Q 812 473 816 481 Q 820 491 805 503 Q 751 540 700 522 Q 648 513 577 498 L 537 491 Z" style="fill: #0070C0;"></path>
                                                                        <path d="M 502 408 Q 559 354 579 355 Q 592 355 595 373 Q 595 385 584 403 Q 566 425 503 433 Q 494 434 495 423 Q 494 416 502 408 Z" style="fill: #0070C0;"></path>
                                                                        <path d="M 508 24 Q 483 28 458 35 Q 439 41 441 32 Q 493 -11 523 -45 Q 535 -61 549 -67 Q 556 -70 565 -62 Q 599 -14 601 40 Q 595 127 595 215 L 598 249 Q 601 271 610 283 Q 622 299 611 310 Q 593 328 560 343 Q 544 350 530 344 Q 508 332 493 328 Q 472 321 428 318 Q 415 318 421 309 Q 428 299 441 294 Q 454 290 518 303 Q 537 307 541 296 Q 556 248 543 61 Q 540 34 532 24 Q 526 18 508 24 Z" style="fill: #0070C0;"></path>
                                                                        <path d="M 288 232 Q 278 233 276 225 Q 275 221 286 212 Q 323 190 346 197 Q 422 215 428 214 Q 440 210 429 189 Q 375 71 270 -5 Q 257 -14 265 -17 Q 274 -18 291 -11 Q 345 11 390 52 Q 433 88 487 182 Q 497 200 507 209 Q 520 218 513 227 Q 506 237 475 250 Q 457 260 411 244 Q 372 235 288 232 Z" style="fill: #0070C0;"></path>
                                                                        <path d="M 645 209 Q 754 299 807 334 Q 838 343 794 386 Q 773 404 750 405 Q 735 404 737 384 Q 743 356 631 222 Q 630 222 630 221 C 610 198 622 190 645 209 Z" style="fill: #0070C0;"></path>
                                                                        <path d="M 595 215 Q 670 124 752 39 Q 774 15 814 13 Q 886 9 961 23 Q 980 24 981 30 Q 984 37 968 43 Q 776 112 700 167 Q 673 185 645 209 L 630 221 Q 611 239 598 249 C 575 268 576 238 595 215 Z" style="fill: #0070C0;"></path>
                                    
                                    
                                                                                                                                                                                                                                                                                                                                                                                                                                                                                                                                                                                                                                                                                                                                                                                                                                                                                                                                                                                                                                                                                                                                                                                    </g>
                            </svg>