<svg width='83' height='83' >
                                <g transform="translate(3, 70) scale(0.07, -0.07)">
                                    <!-- 先将完整的字以灰色字体绘制完成，层级位于下面 -->
                                                                        <path d="M 196 700 Q 224 676 253 647 Q 268 634 284 634 Q 296 635 301 649 Q 305 664 296 695 Q 290 716 258 730 Q 183 758 168 751 Q 162 747 164 733 Q 168 723 196 700 Z" style="fill: #0070C0;"></path>
                                                                        <path d="M 120 528 Q 163 471 195 453 Q 208 449 219 461 Q 226 473 225 489 Q 216 540 136 563 L 135 564 Q 119 571 110 568 Q 103 567 105 555 Q 106 543 120 528 Z" style="fill: #0070C0;"></path>
                                                                        <path d="M 109 122 Q 97 118 101 100 Q 122 25 156 10 Q 163 4 174 7 Q 181 10 180 35 Q 184 86 271 360 Q 277 376 275 382 Q 274 392 265 385 Q 255 379 149 170 Q 137 148 109 122 Z" style="fill: #0070C0;"></path>
                                                                        <path d="M 473 640 Q 554 661 560 665 Q 567 672 563 679 Q 556 688 533 693 Q 506 696 476 681 L 432 667 Q 401 660 365 654 Q 337 648 358 636 Q 385 621 430 629 L 473 640 Z" style="fill: #0070C0;"></path>
                                                                        <path d="M 454 517 Q 469 523 544 534 Q 553 534 559 544 Q 559 553 541 560 Q 517 575 462 554 L 419 541 Q 350 526 306 518 Q 284 514 302 502 Q 323 486 360 493 Q 381 499 408 505 L 454 517 Z" style="fill: #0070C0;"></path>
                                                                        <path d="M 408 505 Q 377 433 318 373 Q 306 363 304 358 Q 303 352 312 352 Q 372 358 434 463 Q 437 472 441 478 Q 448 496 454 517 L 462 554 Q 468 590 473 640 L 476 681 Q 479 724 483 748 Q 487 764 471 772 Q 432 791 420 789 Q 405 785 417 768 Q 435 741 432 667 L 430 629 Q 421 551 419 541 L 408 505 Z" style="fill: #0070C0;"></path>
                                                                        <path d="M 472 470 Q 514 413 529 411 Q 539 410 545 423 Q 548 433 542 449 Q 526 479 478 490 Q 471 491 469 483 Q 468 477 472 470 Z" style="fill: #0070C0;"></path>
                                                                        <path d="M 736 665 Q 764 672 795 678 Q 820 684 824 688 Q 831 695 827 702 Q 820 712 795 717 Q 770 721 744 711 Q 741 710 741 709 C 728 703 723 701 694 695 Q 654 686 611 680 Q 580 674 602 660 Q 638 641 686 654 Q 687 655 691 654 L 736 665 Z" style="fill: #0070C0;"></path>
                                                                        <path d="M 723 555 Q 769 565 846 568 Q 879 568 884 576 Q 887 585 875 594 Q 832 622 786 605 Q 759 599 723 589 L 678 579 Q 635 572 588 561 Q 573 558 585 547 Q 595 537 608 534 L 666 544 L 723 555 Z" style="fill: #0070C0;"></path>
                                                                        <path d="M 723 589 Q 730 634 736 665 L 741 709 Q 742 739 750 781 Q 756 797 739 807 Q 699 828 687 826 Q 671 823 683 805 Q 696 780 694 695 L 691 654 Q 690 647 690 638 Q 687 610 678 579 L 666 544 Q 621 466 611 453 Q 563 411 556 398 Q 555 392 564 393 Q 591 390 649 446 Q 691 488 708 539 L 723 589 Z" style="fill: #0070C0;"></path>
                                                                        <path d="M 708 539 Q 757 464 820 385 Q 844 361 948 380 Q 955 381 956 385 Q 956 389 947 394 Q 839 439 752 526 Q 737 541 723 555 C 702 576 692 564 708 539 Z" style="fill: #0070C0;"></path>
                                                                        <path d="M 467 326 Q 457 333 443 337 Q 434 338 429 331 Q 426 325 433 316 Q 466 241 438 103 Q 425 76 432 48 Q 439 18 450 7 Q 460 -5 469 8 Q 479 20 485 47 L 490 80 Q 491 95 492 168 L 493 193 Q 494 269 499 290 Q 499 294 499 297 C 500 307 493 311 467 326 Z" style="fill: #0070C0;"></path>
                                                                        <path d="M 611 58 Q 642 19 665 -17 Q 674 -33 685 -33 Q 700 -32 714 1 Q 730 37 727 81 Q 720 142 711 254 Q 710 284 726 304 Q 735 317 726 326 Q 708 345 658 367 Q 642 376 627 367 Q 581 343 472 326 Q 469 326 467 326 C 437 322 469 294 499 297 Q 521 297 623 317 Q 638 318 645 314 Q 660 296 660 94 Q 659 88 659 83 Q 655 67 642 71 C 615 58 610 59 611 58 Z" style="fill: #0070C0;"></path>
                                                                        <path d="M 492 168 Q 493 168 620 187 Q 642 191 633 204 Q 623 219 597 222 Q 557 225 493 193 C 466 180 462 164 492 168 Z" style="fill: #0070C0;"></path>
                                                                        <path d="M 485 47 Q 489 47 496 47 Q 533 54 611 58 C 641 60 647 60 642 71 Q 641 80 616 95 Q 600 104 490 80 C 461 74 455 47 485 47 Z" style="fill: #0070C0;"></path>
                                    
                                    
                                                                                                                                                                                                                                                                                                                                                                                                                                                                                                                                                                                                                                                                                                                                                                                                                                                                                                                                                                                                                                                                                                                                                                                                                                                                </g>
                            </svg>