<svg width='83' height='83' >
                                <g transform="translate(3, 70) scale(0.07, -0.07)">
                                    <!-- 先将完整的字以灰色字体绘制完成，层级位于下面 -->
                                                                        <path d="M 164 672 Q 183 653 205 631 Q 220 618 236 618 Q 248 619 253 633 Q 257 648 248 679 Q 239 706 159 722 Q 143 726 136 723 Q 130 719 132 705 Q 136 695 164 672 Z" style="fill: #0070C0;"></path>
                                                                        <path d="M 95 482 Q 140 433 172 418 Q 187 415 195 429 Q 201 441 198 457 Q 186 496 106 519 Q 90 523 81 520 Q 75 519 78 507 Q 79 495 95 482 Z" style="fill: #0070C0;"></path>
                                                                        <path d="M 86 147 Q 76 143 78 128 Q 90 62 124 46 Q 131 40 140 43 Q 147 44 147 67 Q 151 109 226 331 Q 232 346 231 351 Q 230 360 222 354 Q 209 345 119 184 Q 109 166 86 147 Z" style="fill: #0070C0;"></path>
                                                                        <path d="M 319 657 Q 310 661 291 665 Q 281 668 277 663 Q 271 657 278 643 Q 300 594 314 515 Q 315 490 330 475 Q 345 454 350 469 Q 353 478 354 491 L 352 519 Q 340 610 339 633 C 338 650 338 650 319 657 Z" style="fill: #0070C0;"></path>
                                                                        <path d="M 480 547 Q 496 620 519 642 Q 538 666 517 679 Q 499 689 473 705 Q 454 717 415 689 Q 360 668 319 657 C 290 649 310 624 339 633 Q 340 634 418 656 Q 442 662 447 653 Q 454 647 447 616 Q 440 585 432 547 C 426 518 473 518 480 547 Z" style="fill: #0070C0;"></path>
                                                                        <path d="M 410 503 Q 443 512 493 521 Q 502 522 502 530 Q 502 537 480 547 C 459 557 459 557 432 547 Q 387 531 352 519 C 324 509 324 490 354 491 Q 361 491 372 493 L 410 503 Z" style="fill: #0070C0;"></path>
                                                                        <path d="M 424 219 Q 425 295 429 358 L 430 388 Q 430 433 434 460 Q 440 481 410 503 C 387 522 358 519 372 493 Q 384 475 384 446 Q 385 421 386 206 C 386 176 424 189 424 219 Z" style="fill: #0070C0;"></path>
                                                                        <path d="M 429 358 Q 478 368 514 374 Q 533 378 525 389 Q 515 402 492 404 Q 471 405 435 391 Q 432 390 430 388 C 406 370 400 352 429 358 Z" style="fill: #0070C0;"></path>
                                                                        <path d="M 328 187 Q 322 313 326 349 Q 329 368 316 380 Q 297 395 272 403 Q 260 407 252 402 Q 245 396 251 383 Q 267 353 276 320 Q 282 290 293 175 C 296 145 329 157 328 187 Z" style="fill: #0070C0;"></path>
                                                                        <path d="M 293 175 Q 277 172 262 166 Q 246 160 220 160 Q 208 159 207 150 Q 206 138 214 131 Q 235 118 263 103 Q 273 100 283 108 Q 314 135 455 202 Q 476 212 490 224 Q 500 231 501 239 Q 497 243 485 241 Q 455 231 424 219 L 386 206 Q 358 197 328 187 L 293 175 Z" style="fill: #0070C0;"></path>
                                                                        <path d="M 635 614 Q 707 740 707 741 Q 706 744 706 746 Q 702 756 675 775 Q 651 790 634 788 Q 618 787 626 767 Q 647 731 578 603 Q 545 545 500 479 Q 493 470 490 464 Q 489 454 500 457 Q 515 461 553 504 L 569 522 Q 579 538 594 556 Q 607 575 623 596 L 635 614 Z" style="fill: #0070C0;"></path>
                                                                        <path d="M 698 433 Q 732 479 763 533 Q 787 576 802 587 Q 815 597 809 609 Q 805 619 753 642 Q 741 648 719 637 Q 694 625 635 614 C 606 608 595 606 623 596 Q 635 587 663 592 Q 715 604 718 597 Q 722 584 703 539 Q 691 505 660 462 L 640 435 Q 636 431 631 424 Q 579 354 489 287 Q 467 274 486 274 Q 549 278 659 387 Q 666 396 674 404 L 698 433 Z" style="fill: #0070C0;"></path>
                                                                        <path d="M 674 404 Q 752 328 820 271 Q 836 255 860 260 Q 986 290 994 301 Q 995 308 986 310 Q 830 343 728 411 Q 713 423 698 433 L 660 462 Q 632 484 600 511 Q 587 524 572 523 Q 571 523 569 522 C 539 523 526 517 553 504 Q 592 489 640 435 L 674 404 Z" style="fill: #0070C0;"></path>
                                                                        <path d="M 563 230 Q 553 236 526 241 Q 514 244 511 239 Q 504 235 512 218 Q 537 160 551 67 Q 552 39 569 19 Q 585 -2 591 13 Q 597 29 595 56 L 590 90 Q 578 174 576 201 C 574 225 574 225 563 230 Z" style="fill: #0070C0;"></path>
                                                                        <path d="M 765 117 Q 784 184 805 205 Q 830 230 806 246 Q 743 282 742 282 Q 730 283 719 277 Q 673 247 563 230 C 533 225 547 194 576 201 Q 622 213 687 226 Q 718 233 725 220 Q 732 214 725 182 Q 719 154 711 122 C 704 93 757 88 765 117 Z" style="fill: #0070C0;"></path>
                                                                        <path d="M 595 56 Q 601 56 608 58 Q 660 71 777 85 Q 787 86 789 95 Q 789 102 765 117 C 743 131 740 130 711 122 Q 644 103 590 90 C 561 83 565 53 595 56 Z" style="fill: #0070C0;"></path>
                                    
                                    
                                                                                                                                                                                                                                                                                                                                                                                                                                                                                                                                                                                                                                                                                                                                                                                                                                                                                                                                                                                                                                                                                                                                                                                                                                                                                                                                            </g>
                            </svg>