<svg width='83' height='83' >
                                <g transform="translate(3, 70) scale(0.07, -0.07)">
                                    <!-- 先将完整的字以灰色字体绘制完成，层级位于下面 -->
                                                                        <path d="M 163 688 Q 187 663 211 635 Q 224 622 240 620 Q 250 620 257 633 Q 263 648 256 678 Q 250 706 162 736 Q 146 740 140 739 Q 134 735 135 722 Q 138 712 163 688 Z" style="fill: #0070C0;"></path>
                                                                        <path d="M 119 506 Q 158 461 192 446 Q 207 443 215 457 Q 221 469 218 485 Q 206 524 151 538 Q 115 548 105 544 Q 99 543 102 531 Q 103 519 119 506 Z" style="fill: #0070C0;"></path>
                                                                        <path d="M 103 162 Q 91 158 95 140 Q 113 65 148 50 Q 155 43 165 46 Q 172 47 173 73 Q 177 127 263 380 Q 269 396 267 402 Q 266 412 257 405 Q 248 399 141 206 Q 131 184 103 162 Z" style="fill: #0070C0;"></path>
                                                                        <path d="M 433 586 Q 472 646 509 696 Q 519 706 506 722 Q 464 755 442 753 Q 432 752 432 737 Q 436 691 409 633 L 382 590 Q 354 545 318 511 Q 288 484 273 467 Q 266 454 280 457 Q 323 463 401 547 L 433 586 Z" style="fill: #0070C0;"></path>
                                                                        <path d="M 456 151 Q 489 448 433 586 L 409 633 Q 370 690 317 715 Q 305 722 300 713 Q 296 700 301 683 Q 308 664 323 660 Q 335 654 355 631 Q 371 615 382 590 L 401 547 Q 407 525 414 490 L 425 406 Q 424 406 425 405 Q 434 252 403 140 Q 399 127 391 126 Q 376 123 337 136 Q 309 146 305 140 Q 302 134 311 123 Q 348 89 374 58 Q 390 33 400 34 Q 406 31 419 47 Q 440 68 455 143 L 456 151 Z" style="fill: #0070C0;"></path>
                                                                        <path d="M 414 490 Q 366 376 227 205 Q 221 195 232 194 Q 238 193 248 201 Q 356 285 425 406 C 440 432 426 518 414 490 Z" style="fill: #0070C0;"></path>
                                                                        <path d="M 683 608 Q 756 635 758 636 Q 765 643 760 650 Q 753 660 727 662 Q 705 663 687 655 L 635 632 Q 602 622 567 613 Q 536 604 561 592 Q 595 582 635 591 L 683 608 Z" style="fill: #0070C0;"></path>
                                                                        <path d="M 673 496 Q 677 554 683 608 L 687 655 Q 688 713 708 777 Q 711 787 692 801 Q 659 820 637 824 Q 621 828 614 819 Q 607 812 614 798 Q 633 771 633 752 Q 634 695 635 632 L 635 591 Q 635 542 633 488 C 632 458 671 466 673 496 Z" style="fill: #0070C0;"></path>
                                                                        <path d="M 755 475 Q 810 484 890 488 Q 938 488 945 498 Q 949 508 934 520 Q 885 551 827 532 Q 805 528 780 520 L 725 507 Q 694 506 673 496 L 633 488 Q 564 475 489 460 Q 471 457 486 443 Q 511 424 555 433 Q 621 455 703 467 L 755 475 Z" style="fill: #0070C0;"></path>
                                                                        <path d="M 675 352 Q 682 365 694 379 Q 727 428 755 475 L 780 520 Q 852 661 856 664 Q 863 674 854 689 Q 836 717 819 727 Q 806 737 789 737 Q 773 737 779 717 Q 785 681 780 648 Q 747 549 730 517 Q 727 513 725 507 L 703 467 Q 658 395 617 339 L 587 299 Q 529 229 461 156 Q 458 155 456 151 C 448 142 448 142 455 143 Q 455 140 461 140 Q 470 141 478 147 Q 557 207 593 250 L 635 299 Q 639 306 646 314 L 675 352 Z" style="fill: #0070C0;"></path>
                                                                        <path d="M 617 339 Q 593 349 580 348 Q 570 344 574 334 Q 581 318 587 299 L 593 250 Q 599 156 577 104 Q 562 74 591 37 L 593 35 Q 600 23 608 29 Q 614 33 621 48 L 630 81 Q 633 102 634 185 L 634 217 Q 634 275 635 299 C 636 329 636 332 617 339 Z" style="fill: #0070C0;"></path>
                                                                        <path d="M 743 64 Q 771 28 791 -5 Q 798 -21 809 -20 Q 824 -19 838 10 Q 854 44 851 86 Q 845 155 840 281 Q 839 309 853 327 Q 862 337 853 347 Q 837 363 792 384 Q 777 391 764 384 Q 731 368 679 353 Q 678 353 675 352 C 646 344 617 305 646 314 Q 653 317 662 319 Q 711 331 754 341 Q 770 345 779 339 Q 804 309 787 89 Q 783 76 770 78 C 743 66 742 65 743 64 Z" style="fill: #0070C0;"></path>
                                                                        <path d="M 634 185 Q 694 198 740 204 Q 762 208 753 221 Q 743 234 719 237 Q 686 240 634 217 C 606 205 605 179 634 185 Z" style="fill: #0070C0;"></path>
                                                                        <path d="M 621 48 Q 622 48 629 49 Q 666 58 743 64 C 773 66 779 67 770 78 Q 766 85 746 98 Q 731 105 705 99 Q 665 89 630 81 C 601 74 591 45 621 48 Z" style="fill: #0070C0;"></path>
                                    
                                    
                                                                                                                                                                                                                                                                                                                                                                                                                                                                                                                                                                                                                                                                                                                                                                                                                                                                                                                                                                                                                                                                                                                                                                                    </g>
                            </svg>