<svg width='83' height='83' >
                                <g transform="translate(3, 70) scale(0.07, -0.07)">
                                    <!-- 先将完整的字以灰色字体绘制完成，层级位于下面 -->
                                                                        <path d="M 180 698 Q 205 671 233 639 Q 246 624 263 624 Q 273 623 281 637 Q 287 652 280 684 Q 276 705 245 722 Q 172 758 156 751 Q 150 747 151 734 Q 154 722 180 698 Z" style="fill: #0070C0;"></path>
                                                                        <path d="M 85 495 Q 130 437 162 420 Q 177 416 187 429 Q 194 442 192 459 Q 183 508 101 532 L 100 533 Q 84 540 74 536 Q 67 535 69 522 Q 70 510 85 495 Z" style="fill: #0070C0;"></path>
                                                                        <path d="M 91 126 Q 79 122 83 104 Q 101 29 136 14 Q 143 7 153 10 Q 160 11 161 37 Q 165 91 251 344 Q 257 360 255 366 Q 254 376 245 369 Q 236 363 129 170 Q 119 148 91 126 Z" style="fill: #0070C0;"></path>
                                                                        <path d="M 527 811 Q 554 793 582 771 Q 595 761 609 763 Q 618 764 621 776 Q 624 789 613 814 Q 601 841 518 852 Q 505 853 500 851 Q 496 847 498 836 Q 502 826 527 811 Z" style="fill: #0070C0;"></path>
                                                                        <path d="M 662 698 Q 672 701 685 703 Q 731 712 738 718 Q 747 725 742 733 Q 736 743 710 752 Q 682 758 655 748 Q 603 732 546 719 Q 483 706 409 701 Q 376 697 399 681 Q 438 656 488 668 Q 557 681 632 693 L 662 698 Z" style="fill: #0070C0;"></path>
                                                                        <path d="M 432 631 Q 454 570 475 562 Q 485 558 496 571 Q 500 581 498 601 Q 494 616 478 627 Q 454 646 443 652 Q 436 656 432 646 Q 429 640 432 631 Z" style="fill: #0070C0;"></path>
                                                                        <path d="M 632 561 Q 633 565 637 568 Q 653 590 670 618 Q 677 631 691 646 Q 704 656 697 666 Q 690 681 664 698 Q 663 699 662 698 C 634 709 623 713 632 693 Q 632 692 634 689 Q 641 665 605 570 Q 601 563 600 556 C 593 527 618 535 632 561 Z" style="fill: #0070C0;"></path>
                                                                        <path d="M 600 556 Q 590 555 578 553 Q 442 532 280 510 Q 259 507 275 491 Q 288 478 306 473 Q 327 469 342 473 Q 562 536 893 537 L 896 537 Q 915 537 920 546 Q 924 556 909 570 Q 857 606 821 598 Q 748 582 632 561 L 600 556 Z" style="fill: #0070C0;"></path>
                                                                        <path d="M 404 429 Q 394 433 370 435 Q 360 436 356 432 Q 352 426 360 413 Q 390 358 411 267 Q 415 239 433 221 Q 449 203 454 217 Q 455 221 456 228 L 454 254 Q 453 266 450 278 Q 428 369 422 400 C 417 425 417 425 404 429 Z" style="fill: #0070C0;"></path>
                                                                        <path d="M 662 255 Q 678 230 692 221 Q 702 214 718 233 Q 731 252 763 357 Q 773 387 796 410 Q 809 422 799 435 Q 786 451 745 479 Q 727 488 648 471 Q 639 471 404 429 C 374 424 393 392 422 400 Q 462 412 518 421 L 554 427 Q 602 437 660 444 Q 696 448 707 437 Q 717 424 714 412 Q 687 289 671 282 C 657 262 657 262 662 255 Z" style="fill: #0070C0;"></path>
                                                                        <path d="M 590 332 Q 618 338 644 340 Q 663 343 657 354 Q 648 366 627 370 Q 612 373 592 368 L 538 354 Q 504 347 474 338 Q 461 335 477 323 Q 480 320 539 324 L 590 332 Z" style="fill: #0070C0;"></path>
                                                                        <path d="M 587 245 Q 626 252 662 255 C 692 258 697 266 671 282 Q 659 294 605 283 Q 596 282 588 279 L 539 270 Q 494 263 454 254 C 425 248 426 224 456 228 L 539 239 L 587 245 Z" style="fill: #0070C0;"></path>
                                                                        <path d="M 582 54 Q 582 94 583 130 L 584 173 Q 585 210 587 245 L 588 279 Q 589 307 590 332 L 592 368 Q 592 371 593 372 Q 600 391 590 400 Q 572 418 554 427 C 528 442 506 448 518 421 Q 519 420 520 417 Q 535 381 538 354 L 539 324 Q 539 305 539 270 L 539 239 Q 539 208 539 164 L 539 124 Q 539 91 539 50 C 539 20 582 24 582 54 Z" style="fill: #0070C0;"></path>
                                                                        <path d="M 583 130 Q 638 139 688 143 Q 713 146 705 160 Q 695 176 668 182 Q 626 189 584 173 L 539 164 Q 476 152 421 142 Q 402 138 423 122 Q 436 112 463 115 Q 502 121 539 124 L 583 130 Z" style="fill: #0070C0;"></path>
                                                                        <path d="M 539 50 Q 422 40 290 26 Q 268 25 283 7 Q 298 -8 316 -14 Q 338 -21 354 -17 Q 579 35 869 15 Q 870 16 872 15 Q 893 14 898 23 Q 904 35 887 50 Q 833 92 795 84 Q 716 71 582 54 L 539 50 Z" style="fill: #0070C0;"></path>
                                    
                                    
                                                                                                                                                                                                                                                                                                                                                                                                                                                                                                                                                                                                                                                                                                                                                                                                                                                                                                                                                                                                                                                                                                                                                                                                                                                                </g>
                            </svg>