<svg width='83' height='83' >
                                <g transform="translate(3, 70) scale(0.07, -0.07)">
                                    <!-- 先将完整的字以灰色字体绘制完成，层级位于下面 -->
                                                                        <path d="M 211 691 Q 238 669 267 641 Q 283 628 300 629 Q 312 630 317 644 Q 321 660 310 693 Q 298 723 204 743 Q 186 747 180 743 Q 174 739 177 725 Q 181 712 211 691 Z" style="fill: #0070C0;"></path>
                                                                        <path d="M 127 512 Q 170 461 206 446 Q 222 443 231 457 Q 237 470 234 487 Q 222 527 140 551 Q 122 557 113 552 Q 107 551 110 538 Q 111 526 127 512 Z" style="fill: #0070C0;"></path>
                                                                        <path d="M 108 163 Q 98 159 99 142 Q 111 73 146 53 Q 153 46 163 49 Q 170 50 171 74 Q 177 122 273 369 Q 280 385 279 390 Q 278 400 269 394 Q 256 385 148 204 Q 135 183 108 163 Z" style="fill: #0070C0;"></path>
                                                                        <path d="M 572 741 Q 593 768 609 779 Q 616 786 614 798 Q 613 808 592 829 Q 573 845 558 847 Q 542 847 547 829 Q 556 802 501 726 Q 476 690 440 652 Q 431 645 429 640 Q 425 631 436 632 Q 460 635 552 720 L 572 741 Z" style="fill: #0070C0;"></path>
                                                                        <path d="M 629 615 Q 722 708 746 722 Q 762 732 752 744 Q 739 757 705 776 Q 695 779 624 756 Q 597 750 572 741 C 544 731 526 725 552 720 Q 568 713 647 728 Q 654 729 657 727 Q 660 724 656 716 Q 617 640 597 608 C 581 582 608 594 629 615 Z" style="fill: #0070C0;"></path>
                                                                        <path d="M 442 559 Q 478 550 506 556 Q 797 604 810 616 Q 817 623 814 630 Q 808 640 784 647 Q 759 654 732 644 Q 683 629 629 615 L 597 608 Q 519 593 430 586 C 400 584 413 565 442 559 Z" style="fill: #0070C0;"></path>
                                                                        <path d="M 430 586 Q 417 598 396 608 Q 378 618 366 614 Q 354 608 360 595 Q 376 564 373 515 Q 352 307 312 209 Q 275 119 195 1 Q 191 -5 188 -11 Q 185 -21 196 -19 Q 226 -16 306 101 Q 318 123 332 147 Q 398 282 421 454 Q 430 524 442 559 C 446 574 446 574 430 586 Z" style="fill: #0070C0;"></path>
                                                                        <path d="M 508 528 Q 512 521 510 514 Q 500 484 461 430 Q 455 424 453 421 Q 450 414 459 415 Q 486 421 541 478 Q 548 488 555 492 Q 562 498 559 506 Q 558 513 542 528 Q 527 541 516 541 Q 504 541 508 528 Z" style="fill: #0070C0;"></path>
                                                                        <path d="M 696 510 Q 714 491 734 467 Q 744 454 758 454 Q 768 454 773 465 Q 777 477 773 503 Q 764 533 695 552 Q 682 556 676 555 Q 672 551 672 540 Q 673 530 696 510 Z" style="fill: #0070C0;"></path>
                                                                        <path d="M 590 458 Q 638 415 646 415 Q 653 415 658 425 Q 661 435 655 457 Q 651 470 631 480 Q 583 498 572 494 Q 568 493 569 482 Q 572 475 590 458 Z" style="fill: #0070C0;"></path>
                                                                        <path d="M 434 367 Q 416 366 430 351 Q 442 339 458 335 Q 476 331 490 335 Q 638 374 858 374 Q 874 375 879 382 Q 883 392 869 404 Q 818 440 758 420 Q 589 392 434 367 Z" style="fill: #0070C0;"></path>
                                                                        <path d="M 522 298 Q 494 294 514 280 Q 550 261 593 272 Q 648 284 705 295 Q 730 302 735 305 Q 742 312 738 319 Q 732 328 709 334 Q 685 338 661 328 Q 631 318 599 310 Q 565 303 522 298 Z" style="fill: #0070C0;"></path>
                                                                        <path d="M 523 226 Q 493 222 514 207 Q 544 191 623 204 Q 663 211 708 220 Q 735 226 739 229 Q 746 236 742 243 Q 736 252 713 258 Q 701 261 602 237 Q 565 230 523 226 Z" style="fill: #0070C0;"></path>
                                                                        <path d="M 508 138 Q 498 144 465 148 Q 453 149 451 145 Q 445 139 454 124 Q 478 82 495 13 Q 499 -9 512 -22 Q 530 -41 534 -27 Q 535 -20 536 -11 L 533 22 Q 520 88 518 110 C 515 135 515 135 508 138 Z" style="fill: #0070C0;"></path>
                                                                        <path d="M 738 44 Q 765 96 787 109 Q 803 125 791 142 Q 776 155 730 180 Q 714 187 693 181 Q 630 157 508 138 C 478 133 488 106 518 110 Q 545 113 678 138 Q 696 141 702 134 Q 709 127 706 114 Q 697 77 687 46 C 678 17 724 18 738 44 Z" style="fill: #0070C0;"></path>
                                                                        <path d="M 536 -11 Q 543 -12 555 -10 Q 618 0 754 6 Q 764 7 767 16 Q 768 23 738 44 C 725 53 716 52 687 46 Q 602 30 533 22 C 503 18 506 -10 536 -11 Z" style="fill: #0070C0;"></path>
                                    
                                    
                                                                                                                                                                                                                                                                                                                                                                                                                                                                                                                                                                                                                                                                                                                                                                                                                                                                                                                                                                                                                                                                                                                                                                                                                                                                                                                                            </g>
                            </svg>