<svg width='83' height='83' >
                                <g transform="translate(3, 70) scale(0.07, -0.07)">
                                    <!-- 先将完整的字以灰色字体绘制完成，层级位于下面 -->
                                                                        <path d="M 188 698 Q 207 676 229 651 Q 242 636 259 636 Q 269 635 277 649 Q 283 664 276 696 Q 272 714 245 728 Q 178 756 164 751 Q 158 747 159 734 Q 162 722 188 698 Z" style="fill: #0070C0;"></path>
                                                                        <path d="M 98 508 Q 134 456 163 438 Q 176 434 187 445 Q 194 457 194 473 Q 187 515 116 543 L 115 544 Q 99 550 90 548 Q 84 547 85 535 Q 85 523 98 508 Z" style="fill: #0070C0;"></path>
                                                                        <path d="M 111 151 Q 99 147 102 131 Q 115 62 149 46 Q 156 39 165 42 Q 172 43 173 67 Q 179 119 246 310 Q 252 325 251 331 Q 250 340 242 333 Q 230 326 142 183 Q 132 167 111 151 Z" style="fill: #0070C0;"></path>
                                                                        <path d="M 318 496 Q 319 500 323 504 Q 359 559 395 640 Q 408 677 424 697 Q 431 707 425 719 Q 419 729 391 746 Q 364 759 348 757 Q 332 753 342 734 Q 379 668 230 413 Q 223 403 221 396 Q 220 386 232 390 Q 253 399 296 462 L 318 496 Z" style="fill: #0070C0;"></path>
                                                                        <path d="M 296 462 Q 318 398 320 345 Q 319 326 319 304 Q 318 195 288 83 Q 276 32 310 -7 Q 311 -10 314 -12 Q 330 -28 342 -2 Q 357 38 356 83 Q 359 351 368 411 Q 375 438 366 448 Q 327 490 318 496 C 295 516 287 491 296 462 Z" style="fill: #0070C0;"></path>
                                                                        <path d="M 589 569 Q 589 674 593 702 Q 596 720 585 730 Q 567 745 546 752 Q 536 756 528 752 Q 522 748 527 735 Q 545 696 557 563 C 560 533 589 539 589 569 Z" style="fill: #0070C0;"></path>
                                                                        <path d="M 683 586 Q 687 611 691 635 L 695 658 Q 702 733 715 767 Q 727 795 710 810 Q 680 829 659 834 Q 646 838 638 831 Q 631 824 637 811 Q 650 789 650 775 Q 651 684 644 578 C 642 548 678 556 683 586 Z" style="fill: #0070C0;"></path>
                                                                        <path d="M 460 630 Q 491 588 504 588 Q 511 587 517 597 Q 523 607 518 631 Q 517 643 498 653 Q 453 674 444 670 Q 440 669 440 658 Q 441 649 460 630 Z" style="fill: #0070C0;"></path>
                                                                        <path d="M 691 635 Q 728 648 753 660 Q 808 688 832 693 Q 851 697 846 714 Q 837 730 818 746 Q 802 761 790 761 Q 780 761 781 750 Q 781 729 695 658 C 672 639 663 625 691 635 Z" style="fill: #0070C0;"></path>
                                                                        <path d="M 676 555 Q 769 568 888 569 Q 904 570 908 577 Q 912 587 898 597 Q 850 630 794 610 Q 746 601 683 586 L 644 578 Q 616 575 589 569 L 557 563 Q 490 554 421 542 Q 405 539 417 527 Q 429 517 443 513 Q 459 509 472 513 Q 565 543 652 551 L 676 555 Z" style="fill: #0070C0;"></path>
                                                                        <path d="M 502 495 Q 529 446 546 440 Q 555 439 562 450 Q 565 460 561 475 Q 557 487 542 495 Q 520 510 509 513 Q 503 516 501 507 Q 498 503 502 495 Z" style="fill: #0070C0;"></path>
                                                                        <path d="M 650 438 Q 654 444 660 450 Q 673 465 687 484 Q 693 491 703 502 Q 716 511 710 519 Q 700 543 676 555 C 650 569 647 571 652 551 Q 652 550 654 544 Q 660 523 631 454 Q 624 441 622 431 C 615 402 632 414 650 438 Z" style="fill: #0070C0;"></path>
                                                                        <path d="M 600 392 Q 661 405 750 417 Q 759 416 766 427 Q 766 436 748 444 Q 744 448 730 452 Q 712 458 650 438 L 622 431 Q 586 424 475 407 Q 453 404 470 390 Q 495 372 533 379 Q 546 382 564 385 L 600 392 Z" style="fill: #0070C0;"></path>
                                                                        <path d="M 622 296 Q 661 305 702 312 Q 733 319 739 323 Q 746 329 742 335 Q 738 344 715 350 Q 696 353 628 333 L 574 321 Q 537 317 498 312 Q 471 308 490 295 Q 526 273 573 287 L 622 296 Z" style="fill: #0070C0;"></path>
                                                                        <path d="M 626 205 Q 702 215 819 215 Q 867 212 875 222 Q 879 232 865 244 Q 814 281 752 262 Q 620 241 611 237 L 565 231 Q 492 224 411 211 Q 392 210 406 195 Q 418 183 433 178 Q 452 174 465 178 Q 507 190 554 196 L 626 205 Z" style="fill: #0070C0;"></path>
                                                                        <path d="M 611 237 Q 615 264 622 296 L 628 333 Q 631 352 635 360 Q 641 366 636 374 Q 630 381 600 392 C 572 403 549 411 564 385 Q 577 372 575 326 Q 574 325 574 321 L 573 287 Q 570 257 565 231 L 554 196 Q 521 99 412 34 Q 403 30 394 23 Q 375 11 399 13 Q 438 10 507 53 Q 561 89 600 192 Q 600 195 601 197 L 611 237 Z" style="fill: #0070C0;"></path>
                                                                        <path d="M 601 197 Q 600 197 602 195 Q 665 108 734 29 Q 756 5 793 3 Q 860 -3 933 8 Q 951 9 952 14 Q 955 20 941 26 Q 764 95 698 145 Q 677 160 659 176 Q 640 194 626 205 C 600 226 584 222 601 197 Z" style="fill: #0070C0;"></path>
                                    
                                    
                                                                                                                                                                                                                                                                                                                                                                                                                                                                                                                                                                                                                                                                                                                                                                                                                                                                                                                                                                                                                                                                                                                                                                                                                                                                                                                                                                                                                        </g>
                            </svg>