<svg width='83' height='83' >
                                <g transform="translate(3, 70) scale(0.07, -0.07)">
                                    <!-- 先将完整的字以灰色字体绘制完成，层级位于下面 -->
                                                                        <path d="M 205 712 Q 233 687 265 658 Q 280 645 296 646 Q 308 646 313 660 Q 317 676 308 707 Q 296 738 199 763 Q 183 766 176 763 Q 170 759 172 745 Q 176 735 205 712 Z" style="fill: #0070C0;"></path>
                                                                        <path d="M 108 522 Q 157 465 193 450 Q 209 446 219 461 Q 225 474 222 492 Q 209 541 121 563 Q 103 569 93 565 Q 86 564 89 550 Q 90 537 108 522 Z" style="fill: #0070C0;"></path>
                                                                        <path d="M 102 147 Q 90 143 92 126 Q 104 54 139 31 Q 146 24 156 27 Q 163 28 165 53 Q 172 104 285 368 Q 292 384 291 390 Q 290 400 281 394 Q 266 385 146 191 Q 133 169 102 147 Z" style="fill: #0070C0;"></path>
                                                                        <path d="M 416 751 Q 458 702 483 700 Q 495 700 500 717 Q 501 729 491 747 Q 473 769 419 776 Q 410 777 410 767 Q 409 760 416 751 Z" style="fill: #0070C0;"></path>
                                                                        <path d="M 678 800 Q 660 778 625 743 Q 619 737 623 731 Q 629 730 635 732 Q 702 765 734 776 Q 749 779 747 788 Q 744 801 730 818 Q 717 834 699 838 Q 687 839 686 823 Q 687 813 678 800 Z" style="fill: #0070C0;"></path>
                                                                        <path d="M 584 650 Q 588 651 593 651 L 621 656 Q 669 665 775 674 Q 784 673 792 684 Q 793 694 774 705 Q 747 726 681 706 Q 602 693 586 685 L 547 678 Q 468 669 368 658 Q 343 655 362 639 Q 381 623 422 622 Q 459 631 506 637 L 584 650 Z" style="fill: #0070C0;"></path>
                                                                        <path d="M 545 615 Q 539 567 554 538 L 555 537 Q 562 524 575 531 Q 584 540 584 650 L 586 685 Q 589 764 608 800 Q 612 807 603 819 Q 584 835 561 844 Q 546 851 535 846 Q 523 842 529 830 Q 547 803 547 678 L 545 615 Z" style="fill: #0070C0;"></path>
                                                                        <path d="M 412 489 Q 490 543 544 613 Q 544 614 545 615 C 568 648 536 685 506 637 Q 455 553 302 462 Q 286 452 300 450 Q 318 446 384 474 L 412 489 Z" style="fill: #0070C0;"></path>
                                                                        <path d="M 593 651 Q 740 513 776 508 Q 830 508 902 529 Q 915 533 917 537 Q 918 541 906 545 Q 738 585 678 621 Q 645 639 621 656 C 596 673 571 672 593 651 Z" style="fill: #0070C0;"></path>
                                                                        <path d="M 465 303 Q 465 304 466 305 Q 467 312 468 319 L 468 337 Q 450 446 449 453 C 445 479 445 479 443 480 Q 434 484 412 489 C 383 496 365 497 384 474 Q 405 453 428 348 L 449 305 C 460 283 460 283 465 303 Z" style="fill: #0070C0;"></path>
                                                                        <path d="M 650 341 Q 663 319 677 311 Q 686 304 699 321 Q 709 336 733 420 Q 742 445 761 465 Q 771 475 763 486 Q 750 499 717 522 Q 704 528 635 514 Q 632 514 520 494 Q 477 487 443 480 C 414 474 421 442 449 453 Q 455 460 540 473 L 568 478 Q 602 485 648 491 Q 676 495 685 486 Q 692 476 691 466 Q 673 379 659 363 C 648 344 648 344 650 341 Z" style="fill: #0070C0;"></path>
                                                                        <path d="M 586 401 Q 617 407 645 410 Q 663 411 657 422 Q 648 434 629 438 Q 613 441 590 435 L 547 423 Q 514 416 486 409 Q 473 408 488 395 Q 491 392 548 396 L 586 401 Z" style="fill: #0070C0;"></path>
                                                                        <path d="M 581 361 Q 582 383 586 401 L 590 435 Q 597 456 568 478 C 544 497 529 501 540 473 Q 546 460 547 423 L 548 396 Q 548 380 548 353 C 548 323 579 331 581 361 Z" style="fill: #0070C0;"></path>
                                                                        <path d="M 468 319 Q 475 318 489 319 Q 580 334 650 341 C 680 344 686 349 659 363 Q 653 367 643 369 Q 625 372 581 361 L 548 353 Q 505 347 468 337 C 439 329 438 321 468 319 Z" style="fill: #0070C0;"></path>
                                                                        <path d="M 657 237 Q 676 241 697 242 Q 752 251 761 257 Q 768 263 766 270 Q 760 280 738 288 Q 710 297 672 282 L 611 268 Q 512 253 509 252 L 460 247 Q 427 247 393 245 Q 363 242 383 227 Q 417 206 461 212 Q 462 213 466 212 L 508 218 Q 559 225 611 231 L 657 237 Z" style="fill: #0070C0;"></path>
                                                                        <path d="M 509 252 Q 509 253 510 255 Q 513 273 502 282 Q 486 295 465 303 L 449 305 Q 445 305 444 303 Q 438 299 443 286 Q 453 268 460 247 L 466 212 Q 469 190 474 151 C 478 121 509 125 509 155 Q 509 177 508 218 L 509 252 Z" style="fill: #0070C0;"></path>
                                                                        <path d="M 642 172 Q 649 206 657 237 L 672 282 Q 675 289 662 302 Q 638 318 621 322 Q 611 326 604 320 Q 598 316 603 304 Q 609 294 611 268 L 611 231 Q 610 201 608 168 C 606 138 636 143 642 172 Z" style="fill: #0070C0;"></path>
                                                                        <path d="M 474 151 Q 392 144 304 132 Q 285 131 298 115 Q 311 102 328 96 Q 347 92 363 95 Q 517 137 820 136 Q 838 136 855 135 Q 874 135 878 143 Q 884 153 868 167 Q 814 207 752 190 Q 704 183 642 172 L 608 168 Q 589 167 569 163 Q 539 160 509 155 L 474 151 Z" style="fill: #0070C0;"></path>
                                                                        <path d="M 459 88 Q 447 42 325 -46 Q 306 -56 330 -56 Q 387 -60 519 51 Q 529 60 528 69 Q 527 81 505 90 Q 480 102 470 100 Q 463 99 459 88 Z" style="fill: #0070C0;"></path>
                                                                        <path d="M 631 71 Q 673 31 722 -26 Q 735 -45 750 -49 Q 757 -50 765 -42 Q 777 -30 766 10 Q 759 46 695 75 Q 655 91 633 100 Q 626 104 623 93 Q 622 81 631 71 Z" style="fill: #0070C0;"></path>
                                    
                                    
                                                                                                                                                                                                                                                                                                                                                                                                                                                                                                                                                                                                                                                                                                                                                                                                                                                                                                                                                                                                                                                                                                                                                                                                                                                                                                                                                                                                                                                                                                                                                                                                                                                            </g>
                            </svg>