<svg width='83' height='83' >
                                <g transform="translate(3, 70) scale(0.07, -0.07)">
                                    <!-- 先将完整的字以灰色字体绘制完成，层级位于下面 -->
                                                                        <path d="M 226 483 Q 254 443 285 393 Q 295 375 312 372 Q 324 369 333 381 Q 342 396 342 430 Q 342 472 235 536 Q 220 543 213 543 Q 206 540 204 526 Q 205 513 226 483 Z" style="fill: #0070C0;"></path>
                                                                        <path d="M 690 568 Q 677 547 584 441 Q 571 422 592 425 Q 638 449 738 513 Q 762 532 791 543 Q 816 553 805 575 Q 789 597 759 615 Q 731 633 715 629 Q 700 628 704 612 Q 708 590 690 568 Z" style="fill: #0070C0;"></path>
                                                                        <path d="M 511 382 Q 520 439 529 618 Q 530 669 548 728 Q 554 741 543 750 Q 521 769 479 785 Q 454 795 434 789 Q 410 779 430 759 Q 464 725 465 690 Q 469 500 448 374 Q 427 209 284 106 Q 244 81 186 49 Q 170 43 167 39 Q 160 32 179 29 Q 197 28 258 48 Q 301 61 365 101 Q 414 131 442 172 Q 484 232 504 341 L 511 382 Z" style="fill: #0070C0;"></path>
                                                                        <path d="M 504 341 Q 597 175 715 40 Q 740 9 767 9 Q 843 13 911 17 Q 939 18 940 25 Q 941 32 910 48 Q 753 117 709 157 Q 592 268 511 382 C 493 406 489 367 504 341 Z" style="fill: #0070C0;"></path>
                                    
                                    
                                                                                                                                                                                                                                                                                                                                                                                            </g>
                            </svg>