<svg width='83' height='83' >
                                <g transform="translate(3, 70) scale(0.07, -0.07)">
                                    <!-- 先将完整的字以灰色字体绘制完成，层级位于下面 -->
                                                                        <path d="M 218 443 Q 193 386 159 335 Q 138 304 156 265 Q 163 246 186 260 Q 240 299 244 383 Q 250 417 243 443 Q 237 452 231 453 Q 222 452 218 443 Z" style="fill: #0070C0;"></path>
                                                                        <path d="M 361 408 Q 382 345 407 314 Q 419 307 432 314 Q 442 323 445 338 Q 449 360 438 378 Q 396 445 365 446 L 364 446 Q 358 447 356 436 Q 353 426 361 408 Z" style="fill: #0070C0;"></path>
                                                                        <path d="M 524 412 Q 551 355 579 327 Q 592 320 604 330 Q 613 340 615 355 Q 615 400 548 441 Q 547 442 546 443 Q 533 452 523 451 Q 517 451 516 440 Q 515 430 524 412 Z" style="fill: #0070C0;"></path>
                                                                        <path d="M 712 424 Q 764 369 825 289 Q 841 264 858 258 Q 868 257 877 267 Q 893 280 882 331 Q 873 379 802 417 Q 729 453 716 459 Q 706 466 703 452 Q 702 437 712 424 Z" style="fill: #0070C0;"></path>
                                    
                                    
                                                                                                                                                                                                                                                                                                                                                                                            </g>
                            </svg>