<svg width='83' height='83' >
                                <g transform="translate(3, 70) scale(0.07, -0.07)">
                                    <!-- 先将完整的字以灰色字体绘制完成，层级位于下面 -->
                                                                        <path d="M 454 712 Q 457 721 520 784 Q 532 794 520 811 Q 484 850 458 851 Q 448 851 447 836 Q 447 752 331 653 Q 321 653 283 616 Q 273 603 288 604 Q 336 604 427 684 L 454 712 Z" style="fill: #0070C0;"></path>
                                                                        <path d="M 529 567 Q 649 687 659 694 Q 674 703 669 712 Q 668 721 613 747 Q 597 757 578 746 Q 556 736 524 727 Q 488 720 454 712 C 425 705 397 686 427 684 Q 448 678 539 696 Q 554 699 558 693 Q 561 687 550 672 Q 469 546 262 413 Q 249 403 261 401 Q 294 398 405 465 Q 408 468 412 470 Q 476 516 510 549 L 529 567 Z" style="fill: #0070C0;"></path>
                                                                        <path d="M 510 549 Q 598 506 715 433 Q 734 420 748 419 Q 755 420 760 431 Q 767 446 746 481 Q 716 535 529 567 C 499 572 483 562 510 549 Z" style="fill: #0070C0;"></path>
                                                                        <path d="M 261 275 Q 286 250 311 219 Q 324 204 342 203 Q 354 203 360 217 Q 367 233 360 266 Q 356 287 325 303 Q 249 336 236 331 Q 230 327 231 313 Q 234 300 261 275 Z" style="fill: #0070C0;"></path>
                                                                        <path d="M 681 348 Q 665 327 597 266 Q 584 250 602 251 Q 614 254 717 294 Q 739 307 766 313 Q 790 320 782 340 Q 772 361 747 380 Q 725 399 711 398 Q 698 399 699 384 Q 699 365 681 348 Z" style="fill: #0070C0;"></path>
                                                                        <path d="M 505 299 Q 527 413 531 417 Q 538 424 532 435 Q 526 442 495 455 Q 461 473 444 466 Q 431 460 442 442 Q 482 316 401 172 Q 395 165 390 156 Q 338 80 181 7 Q 154 -6 186 -7 Q 205 -8 247 5 Q 299 18 344 43 Q 386 64 419 106 Q 464 160 494 257 L 505 299 Z" style="fill: #0070C0;"></path>
                                                                        <path d="M 494 257 Q 617 98 741 -10 Q 771 -37 796 -33 Q 869 -17 933 -4 Q 960 2 959 8 Q 960 17 927 28 Q 767 73 718 110 Q 609 188 505 299 C 484 321 476 281 494 257 Z" style="fill: #0070C0;"></path>
                                    
                                    
                                                                                                                                                                                                                                                                                                                                                                                                                                                                                                                                                                                                                                </g>
                            </svg>