<svg width='83' height='83' >
                                <g transform="translate(3, 70) scale(0.07, -0.07)">
                                    <!-- 先将完整的字以灰色字体绘制完成，层级位于下面 -->
                                                                        <path d="M 144 588 Q 141 527 128 466 Q 121 435 146 408 Q 159 395 173 412 Q 186 433 189 465 Q 193 511 184 546 Q 178 577 164 595 Q 157 601 152 600 Q 145 596 144 588 Z" style="fill: #0070C0;"></path>
                                                                        <path d="M 310 505 Q 350 532 375 550 Q 420 589 449 602 Q 467 611 458 625 Q 446 638 425 651 Q 404 661 394 659 Q 384 658 387 647 Q 390 622 311 528 C 292 505 285 488 310 505 Z" style="fill: #0070C0;"></path>
                                                                        <path d="M 299 318 Q 305 387 310 505 L 311 528 Q 312 676 339 752 Q 346 765 334 777 Q 312 796 272 807 Q 247 813 237 806 Q 228 799 236 786 Q 297 690 251 322 Q 224 199 173 138 Q 140 104 92 67 Q 80 60 80 55 Q 81 51 93 51 Q 106 48 140 63 Q 261 112 294 286 L 299 318 Z" style="fill: #0070C0;"></path>
                                                                        <path d="M 294 286 Q 298 280 308 272 Q 347 233 388 188 Q 398 175 413 174 Q 423 173 429 185 Q 435 198 430 226 Q 423 268 308 316 Q 304 317 299 318 C 270 324 275 309 294 286 Z" style="fill: #0070C0;"></path>
                                                                        <path d="M 553 573 Q 589 627 627 701 Q 646 741 663 762 Q 672 774 666 787 Q 660 799 630 819 Q 602 834 584 832 Q 565 829 575 808 Q 590 783 582 760 Q 560 684 522 609 Q 485 539 432 459 Q 423 449 421 442 Q 420 430 432 434 Q 459 441 533 544 L 553 573 Z" style="fill: #0070C0;"></path>
                                                                        <path d="M 702 94 Q 689 93 621 122 Q 611 126 611 120 Q 610 116 621 106 Q 663 58 681 25 Q 691 3 704 4 Q 725 3 745 24 Q 820 93 838 264 Q 848 360 854 494 Q 854 528 876 556 Q 889 569 888 578 Q 887 585 866 599 Q 839 618 804 629 Q 777 638 760 628 Q 741 621 694 607 Q 628 588 582 580 Q 566 577 553 573 C 524 566 503 543 533 544 Q 564 541 705 570 Q 771 582 781 573 Q 803 533 785 307 Q 775 207 739 132 Q 723 96 702 94 Z" style="fill: #0070C0;"></path>
                                                                        <path d="M 500 359 Q 528 329 556 293 Q 568 278 583 277 Q 593 276 601 289 Q 608 302 603 334 Q 596 370 502 407 Q 487 413 480 411 Q 474 408 474 395 Q 477 383 500 359 Z" style="fill: #0070C0;"></path>
                                    
                                    
                                                                                                                                                                                                                                                                                                                                                                                                                                                                                                                                                                                                                                </g>
                            </svg>