<svg width='83' height='83' >
                                <g transform="translate(3, 70) scale(0.07, -0.07)">
                                    <!-- 先将完整的字以灰色字体绘制完成，层级位于下面 -->
                                                                        <path d="M 122 543 Q 132 479 134 414 Q 134 375 168 357 Q 184 347 195 368 Q 216 431 175 508 Q 162 539 142 555 Q 133 559 127 558 Q 121 552 122 543 Z" style="fill: #0070C0;"></path>
                                                                        <path d="M 336 501 Q 357 510 423 547 Q 439 559 461 565 Q 479 572 472 587 Q 462 603 441 617 Q 423 630 412 628 Q 402 628 404 617 Q 405 596 362 551 Q 349 539 337 526 C 317 504 309 489 336 501 Z" style="fill: #0070C0;"></path>
                                                                        <path d="M 326 290 Q 332 372 336 501 L 337 526 Q 338 640 364 722 Q 371 737 360 748 Q 336 767 295 778 Q 268 785 260 778 Q 250 771 258 757 Q 318 666 276 292 Q 258 183 203 112 Q 170 76 116 40 Q 104 31 104 27 Q 105 23 118 23 Q 131 20 164 34 Q 281 77 318 241 Q 319 250 322 259 L 326 290 Z" style="fill: #0070C0;"></path>
                                                                        <path d="M 322 259 Q 394 190 407 189 Q 417 189 421 201 Q 425 214 419 239 Q 415 257 388 270 Q 361 280 331 289 Q 330 290 326 290 C 296 295 300 280 322 259 Z" style="fill: #0070C0;"></path>
                                                                        <path d="M 733 75 Q 717 54 701 57 Q 674 64 636 73 Q 620 77 619 74 Q 619 70 636 54 Q 670 20 688 -20 Q 698 -36 708 -40 Q 715 -43 735 -27 Q 792 19 829 95 Q 868 176 908 399 Q 914 424 927 437 Q 940 447 927 464 Q 912 479 883 497 Q 861 510 787 491 Q 783 491 780 490 Q 671 466 592 456 Q 580 447 574 459 Q 574 475 657 596 Q 700 654 720 661 Q 733 668 732 674 Q 733 681 727 687 Q 705 708 678 719 Q 659 728 628 715 Q 523 684 452 687 Q 436 688 434 683 Q 431 679 436 669 Q 443 659 458 650 Q 471 638 502 645 Q 649 684 647 666 Q 647 645 566 516 Q 542 480 516 454 Q 495 439 512 406 Q 515 396 542 406 Q 549 409 559 411 L 590 420 Q 627 432 688 443 L 739 452 Q 791 462 820 462 Q 841 461 843 451 Q 861 358 795 182 Q 761 107 733 75 Z" style="fill: #0070C0;"></path>
                                                                        <path d="M 559 411 Q 559 309 422 161 Q 416 157 416 151 Q 416 147 421 147 Q 497 165 597 330 Q 610 354 620 366 Q 626 375 619 387 Q 607 408 590 420 C 567 439 560 441 559 411 Z" style="fill: #0070C0;"></path>
                                                                        <path d="M 688 443 Q 709 362 599 196 Q 539 118 468 39 Q 461 33 471 32 Q 523 41 626 164 Q 686 246 754 387 Q 761 403 767 409 Q 773 415 771 424 Q 765 442 739 452 C 712 465 683 473 688 443 Z" style="fill: #0070C0;"></path>
                                    
                                    
                                                                                                                                                                                                                                                                                                                                                                                                                                                                                                                                                                                                                                </g>
                            </svg>