<svg width='83' height='83' >
                                <g transform="translate(3, 70) scale(0.07, -0.07)">
                                    <!-- 先将完整的字以灰色字体绘制完成，层级位于下面 -->
                                                                        <path d="M 123 457 Q 121 449 120 439 Q 120 414 139 394 Q 151 379 167 398 Q 199 439 190 502 Q 190 512 188 519 Q 177 587 157 587 Q 155 586 154 586 Q 147 580 145 564 Q 137 506 123 457 Z" style="fill: #0070C0;"></path>
                                                                        <path d="M 306 525 L 367 561 Q 412 598 437 606 Q 466 619 416 653 Q 400 664 388 664 Q 378 663 378 654 Q 378 649 378 645 Q 374 621 348 592 Q 315 555 308 547 C 288 524 280 510 306 525 Z" style="fill: #0070C0;"></path>
                                                                        <path d="M 308 547 Q 309 663 331 721 Q 337 735 335 741 Q 330 755 298 768 Q 262 783 245 780 Q 243 780 241 779 Q 227 773 237 759 Q 296 669 245 318 Q 212 188 176 132 Q 143 86 108 53 Q 96 43 96 38 Q 97 35 104 35 Q 107 35 108 36 Q 111 35 116 35 Q 145 39 180 69 Q 263 137 289 301 L 292 323 Q 301 385 306 525 L 308 547 Z" style="fill: #0070C0;"></path>
                                                                        <path d="M 289 301 Q 293 294 306 283 L 365 217 Q 373 208 385 205 Q 388 204 391 206 Q 404 212 402 238 Q 399 256 400 248 Q 396 270 369 289 Q 303 325 292 323 C 273 325 273 325 289 301 Z" style="fill: #0070C0;"></path>
                                                                        <path d="M 533 400 Q 543 386 555 382 Q 557 382 558 382 Q 578 382 578 428 Q 575 459 500 503 Q 494 507 490 508 Q 478 512 476 495 Q 476 486 483 476 Q 512 437 533 400 Z" style="fill: #0070C0;"></path>
                                                                        <path d="M 725 427 Q 719 417 723 416 Q 726 414 731 416 Q 743 423 853 509 Q 858 514 865 519 L 894 537 Q 907 547 905 559 L 903 563 Q 892 579 860 593 Q 839 604 825 602 Q 813 600 815 590 Q 819 572 815 561 Q 813 558 811 553 Q 799 529 725 427 Z" style="fill: #0070C0;"></path>
                                                                        <path d="M 671 340 Q 679 469 692 622 Q 692 647 708 686 Q 718 714 715 721 Q 710 737 670 753 Q 633 768 617 764 Q 614 764 612 762 Q 600 754 608 741 Q 649 675 636 479 Q 627 349 612 287 Q 583 177 504 112 Q 503 110 502 110 Q 466 83 417 55 Q 406 47 406 43 Q 407 39 419 39 Q 438 35 474 49 Q 615 98 659 269 L 665 299 L 671 340 Z" style="fill: #0070C0;"></path>
                                                                        <path d="M 665 299 Q 729 159 804 57 Q 819 31 840 29 Q 933 31 943 32 Q 963 32 963 37 Q 964 41 959 45 Q 953 53 905 82 Q 823 133 792 172 Q 713 266 671 340 C 656 366 652 326 665 299 Z" style="fill: #0070C0;"></path>
                                    
                                    
                                                                                                                                                                                                                                                                                                                                                                                                                                                                                                                                                                                                                                                                                                            </g>
                            </svg>