<svg width='83' height='83' >
                                <g transform="translate(3, 70) scale(0.07, -0.07)">
                                    <!-- 先将完整的字以灰色字体绘制完成，层级位于下面 -->
                                                                        <path d="M 456 733 Q 456 734 458 735 Q 483 759 503 768 Q 513 775 513 786 Q 512 798 496 822 Q 480 843 464 847 Q 449 850 450 831 Q 460 771 240 618 Q 230 614 227 609 Q 221 600 233 599 Q 279 595 431 713 L 456 733 Z" style="fill: #0070C0;"></path>
                                                                        <path d="M 431 713 Q 452 698 570 710 Q 595 716 603 705 Q 606 698 592 683 Q 504 553 271 412 Q 256 403 269 400 Q 383 400 617 624 Q 659 672 703 700 Q 719 707 715 717 Q 714 727 660 756 Q 644 768 624 757 Q 572 738 456 733 C 426 731 402 722 431 713 Z" style="fill: #0070C0;"></path>
                                                                        <path d="M 409 633 Q 446 596 470 587 Q 482 586 488 596 Q 492 606 489 619 Q 483 638 468 647 Q 453 656 417 663 Q 404 666 396 662 Q 392 661 394 652 Q 395 643 409 633 Z" style="fill: #0070C0;"></path>
                                                                        <path d="M 305 569 Q 327 550 350 527 Q 360 517 373 518 Q 382 518 385 529 Q 389 539 382 563 Q 376 585 301 606 Q 288 609 284 607 Q 280 603 281 593 Q 284 586 305 569 Z" style="fill: #0070C0;"></path>
                                                                        <path d="M 241 317 Q 280 263 316 244 Q 332 240 343 253 Q 350 266 349 284 Q 343 309 325 325 Q 303 343 257 357 Q 241 364 230 360 Q 223 359 225 346 Q 226 333 241 317 Z" style="fill: #0070C0;"></path>
                                                                        <path d="M 662 427 Q 641 397 560 323 Q 548 307 566 308 Q 605 323 701 375 Q 723 390 749 398 Q 773 405 763 425 Q 751 444 726 463 Q 704 479 689 479 Q 676 479 678 464 Q 679 445 662 427 Z" style="fill: #0070C0;"></path>
                                                                        <path d="M 488 266 Q 498 306 509 357 Q 513 384 520 395 Q 527 402 522 414 Q 515 421 483 435 Q 447 453 430 446 Q 417 439 428 422 Q 461 356 423 241 Q 387 139 310 86 Q 265 52 150 3 Q 122 -9 154 -11 Q 176 -14 219 0 Q 274 12 322 36 Q 367 57 401 97 Q 446 145 480 237 L 488 266 Z" style="fill: #0070C0;"></path>
                                                                        <path d="M 480 237 Q 672 0 728 -18 Q 797 -30 901 -16 Q 920 -15 923 -9 Q 926 -2 910 5 Q 714 86 676 112 Q 607 157 496 259 Q 492 263 488 266 C 466 286 461 260 480 237 Z" style="fill: #0070C0;"></path>
                                    
                                    
                                                                                                                                                                                                                                                                                                                                                                                                                                                                                                                                                                                                                                                                                                            </g>
                            </svg>