<svg width='83' height='83' >
                                <g transform="translate(3, 70) scale(0.07, -0.07)">
                                    <!-- 先将完整的字以灰色字体绘制完成，层级位于下面 -->
                                                                        <path d="M 132 546 Q 136 483 128 421 Q 124 384 153 363 Q 166 350 180 370 Q 210 424 178 506 Q 169 537 153 555 Q 146 561 140 559 Q 133 555 132 546 Z" style="fill: #0070C0;"></path>
                                                                        <path d="M 312 490 Q 366 518 397 538 Q 413 550 434 557 Q 453 564 444 580 Q 434 595 413 608 Q 394 621 383 619 Q 373 618 376 607 Q 376 594 320 525 Q 316 522 313 516 C 297 490 290 479 312 490 Z" style="fill: #0070C0;"></path>
                                                                        <path d="M 313 516 Q 314 636 340 710 Q 347 725 336 736 Q 312 755 271 766 Q 244 773 236 766 Q 226 759 234 745 Q 294 655 252 291 Q 230 165 172 96 Q 144 68 104 36 Q 91 27 92 23 Q 93 19 105 19 Q 118 16 149 31 Q 263 77 295 245 L 299 268 Q 308 334 312 490 L 313 516 Z" style="fill: #0070C0;"></path>
                                                                        <path d="M 295 245 Q 301 238 317 223 Q 342 199 370 170 Q 380 157 395 158 Q 404 157 409 169 Q 413 182 408 207 Q 402 237 315 265 Q 305 269 299 268 C 274 268 275 267 295 245 Z" style="fill: #0070C0;"></path>
                                                                        <path d="M 627 686 Q 639 704 650 714 Q 659 724 654 738 Q 650 750 622 771 Q 597 789 578 788 Q 560 787 568 765 Q 581 735 571 710 Q 538 625 487 546 Q 438 470 370 386 Q 360 376 358 370 Q 355 360 369 362 Q 427 371 597 634 Q 598 638 614 664 L 627 686 Z" style="fill: #0070C0;"></path>
                                                                        <path d="M 614 664 Q 692 553 794 436 Q 812 417 841 418 Q 941 421 973 426 Q 983 427 984 433 Q 984 437 971 445 Q 830 496 761 557 Q 698 612 627 686 C 606 708 597 688 614 664 Z" style="fill: #0070C0;"></path>
                                                                        <path d="M 544 369 Q 553 379 663 405 Q 670 406 675 403 Q 684 399 684 383 Q 683 347 669 281 Q 665 256 641 261 Q 614 264 593 268 Q 580 269 583 262 Q 584 253 609 237 Q 637 212 653 185 Q 660 176 669 179 Q 676 180 689 201 Q 707 226 721 293 Q 731 375 747 390 Q 757 399 753 410 Q 746 420 712 443 Q 700 450 647 438 Q 635 438 528 409 C 499 401 517 355 544 369 Z" style="fill: #0070C0;"></path>
                                                                        <path d="M 882 104 Q 869 131 852 211 Q 851 226 845 230 Q 839 233 836 217 Q 814 130 799 103 Q 766 64 657 69 Q 614 72 581 86 Q 551 101 543 120 Q 512 180 544 369 C 549 398 549 398 528 409 Q 518 416 502 423 Q 489 427 481 422 Q 474 418 480 400 Q 493 363 490 325 Q 480 150 495 101 Q 499 76 523 56 Q 604 -7 764 19 Q 779 23 796 27 Q 838 39 877 67 Q 893 82 882 104 Z" style="fill: #0070C0;"></path>
                                    
                                    
                                                                                                                                                                                                                                                                                                                                                                                                                                                                                                                                                                                                                                                                                                            </g>
                            </svg>