<svg width='83' height='83' >
                                <g transform="translate(3, 70) scale(0.07, -0.07)">
                                    <!-- 先将完整的字以灰色字体绘制完成，层级位于下面 -->
                                                                        <path d="M 532 636 Q 547 720 564 785 Q 568 795 551 809 Q 520 828 498 833 Q 483 837 476 830 Q 469 823 475 809 Q 487 793 488 780 Q 492 710 490 628 C 489 598 527 606 532 636 Z" style="fill: #0070C0;"></path>
                                                                        <path d="M 425 573 Q 494 595 569 609 Q 651 625 681 621 C 711 620 723 661 693 658 Q 606 651 532 636 L 490 628 Q 417 615 354 597 Q 338 594 343 614 Q 349 644 356 676 Q 362 698 353 713 Q 340 731 318 746 Q 308 752 297 751 Q 287 747 293 728 Q 308 683 298 641 Q 291 601 272 584 Q 253 568 260 554 Q 270 538 286 527 Q 299 520 309 527 Q 328 548 388 562 L 425 573 Z" style="fill: #0070C0;"></path>
                                                                        <path d="M 681 621 Q 682 590 689 570 Q 696 554 709 563 Q 736 584 751 664 Q 775 725 781 731 Q 791 744 783 759 Q 767 777 738 800 Q 726 807 714 804 Q 707 801 707 788 Q 726 751 694 661 Q 693 660 693 658 L 681 621 Z" style="fill: #0070C0;"></path>
                                                                        <path d="M 423 424 Q 505 442 756 477 Q 766 476 777 488 Q 778 501 754 512 Q 718 533 627 507 Q 539 486 438 464 L 370 453 Q 304 447 209 434 Q 178 430 202 412 Q 233 385 277 395 Q 313 404 356 411 L 423 424 Z" style="fill: #0070C0;"></path>
                                                                        <path d="M 356 411 Q 275 197 110 48 Q 103 44 99 38 Q 95 28 105 27 Q 141 24 244 122 Q 257 137 271 152 Q 370 270 423 424 L 438 464 Q 441 473 457 502 Q 470 514 466 528 Q 454 549 425 573 C 403 593 386 592 388 562 Q 394 528 370 453 L 356 411 Z" style="fill: #0070C0;"></path>
                                                                        <path d="M 387 286 Q 403 258 420 229 Q 435 208 451 205 Q 464 201 476 218 Q 480 231 474 255 Q 467 273 446 285 Q 412 307 398 313 Q 388 317 385 305 Q 382 298 387 286 Z" style="fill: #0070C0;"></path>
                                                                        <path d="M 714 343 Q 698 318 647 258 Q 637 242 654 245 Q 705 269 753 298 Q 772 313 796 322 Q 818 331 808 349 Q 795 365 771 381 Q 749 396 735 393 Q 722 392 726 379 Q 729 360 714 343 Z" style="fill: #0070C0;"></path>
                                                                        <path d="M 580 216 Q 595 265 608 334 Q 612 359 618 370 Q 625 377 619 388 Q 613 395 583 407 Q 549 423 534 418 Q 521 412 532 395 Q 571 296 500 157 Q 491 145 483 132 Q 435 63 285 -6 Q 260 -19 290 -19 Q 372 -22 471 45 Q 492 61 511 85 Q 553 133 572 190 L 580 216 Z" style="fill: #0070C0;"></path>
                                                                        <path d="M 572 190 Q 644 91 725 0 Q 747 -25 787 -28 Q 857 -35 933 -25 Q 952 -24 954 -19 Q 957 -12 942 -6 Q 771 66 744 84 Q 677 129 629 171 Q 598 202 580 216 C 557 235 554 214 572 190 Z" style="fill: #0070C0;"></path>
                                    
                                    
                                                                                                                                                                                                                                                                                                                                                                                                                                                                                                                                                                                                                                                                                                                                                                                        </g>
                            </svg>