<svg width='83' height='83' >
                                <g transform="translate(3, 70) scale(0.07, -0.07)">
                                    <!-- 先将完整的字以灰色字体绘制完成，层级位于下面 -->
                                                                        <path d="M 115 534 Q 114 470 102 407 Q 98 367 125 344 Q 138 331 153 350 Q 168 372 169 408 Q 172 454 160 490 Q 153 523 137 543 Q 130 549 123 548 Q 116 544 115 534 Z" style="fill: #0070C0;"></path>
                                                                        <path d="M 304 483 Q 353 514 406 551 Q 424 567 446 576 Q 467 586 456 602 Q 443 618 419 632 Q 397 645 384 642 Q 372 641 376 628 Q 382 604 317 527 Q 311 521 306 514 C 288 490 279 467 304 483 Z" style="fill: #0070C0;"></path>
                                                                        <path d="M 294 317 Q 300 365 304 483 L 306 514 Q 307 643 333 716 Q 340 732 329 743 Q 304 762 262 774 Q 235 781 226 774 Q 216 767 225 753 Q 288 653 239 279 Q 212 156 141 80 Q 114 56 80 29 Q 67 19 68 15 Q 69 11 82 12 Q 95 8 129 24 Q 243 70 279 222 Q 286 250 290 284 L 294 317 Z" style="fill: #0070C0;"></path>
                                                                        <path d="M 290 284 Q 293 281 298 277 Q 338 240 380 195 Q 390 183 403 183 Q 412 182 417 193 Q 421 205 417 229 Q 410 272 298 316 Q 297 317 294 317 C 265 325 268 304 290 284 Z" style="fill: #0070C0;"></path>
                                                                        <path d="M 539 603 Q 527 610 492 617 Q 479 621 475 616 Q 468 609 477 593 Q 508 520 522 404 Q 525 368 543 345 Q 562 321 567 337 Q 571 349 572 365 L 571 401 Q 565 426 548 570 C 544 600 544 601 539 603 Z" style="fill: #0070C0;"></path>
                                                                        <path d="M 787 426 Q 814 540 854 575 Q 870 594 856 613 Q 837 628 782 653 Q 764 662 688 634 Q 598 613 539 603 C 509 598 518 566 548 570 Q 557 570 725 602 Q 744 606 752 598 Q 764 586 761 561 Q 749 489 734 431 C 727 402 780 397 787 426 Z" style="fill: #0070C0;"></path>
                                                                        <path d="M 572 365 Q 578 365 586 366 Q 655 379 802 388 Q 814 389 815 398 Q 815 407 787 426 C 769 438 763 437 734 431 Q 643 412 571 401 C 541 396 542 364 572 365 Z" style="fill: #0070C0;"></path>
                                                                        <path d="M 532 253 Q 526 186 380 38 Q 358 19 388 26 Q 451 30 570 166 Q 579 184 616 221 Q 626 236 623 246 Q 619 259 589 267 Q 556 276 543 271 Q 534 268 532 253 Z" style="fill: #0070C0;"></path>
                                                                        <path d="M 710 238 Q 771 165 842 62 Q 855 38 871 32 Q 880 29 889 38 Q 905 51 898 98 Q 894 164 715 270 Q 706 277 703 264 Q 700 251 710 238 Z" style="fill: #0070C0;"></path>
                                    
                                    
                                                                                                                                                                                                                                                                                                                                                                                                                                                                                                                                                                                                                                                                                                                                                                                        </g>
                            </svg>