<svg width='83' height='83' >
                                <g transform="translate(3, 70) scale(0.07, -0.07)">
                                    <!-- 先将完整的字以灰色字体绘制完成，层级位于下面 -->
                                                                        <path d="M 110 556 Q 119 495 118 433 Q 118 396 149 377 Q 164 367 175 387 Q 185 412 181 444 Q 177 490 160 521 Q 148 551 130 568 Q 121 572 116 570 Q 109 564 110 556 Z" style="fill: #0070C0;"></path>
                                                                        <path d="M 311 517 Q 393 593 436 621 Q 452 627 447 637 Q 440 650 422 665 Q 403 681 383 680 Q 370 679 373 662 Q 376 649 369 635 Q 350 601 313 551 C 295 527 289 497 311 517 Z" style="fill: #0070C0;"></path>
                                                                        <path d="M 300 337 Q 306 406 311 517 L 313 551 Q 314 669 338 737 Q 345 752 333 764 Q 308 783 266 794 Q 239 801 230 793 Q 220 786 229 772 Q 292 676 247 323 Q 223 209 175 143 Q 139 101 84 57 Q 71 47 72 43 Q 73 39 86 40 Q 99 36 133 53 Q 257 105 293 296 Q 293 302 295 305 L 300 337 Z" style="fill: #0070C0;"></path>
                                                                        <path d="M 295 305 Q 316 284 350 241 Q 360 228 374 227 Q 383 226 389 237 Q 395 249 391 276 Q 388 294 362 310 Q 311 337 300 337 C 270 342 274 326 295 305 Z" style="fill: #0070C0;"></path>
                                                                        <path d="M 504 644 Q 526 622 548 595 Q 558 582 574 582 Q 583 581 589 593 Q 595 606 589 634 Q 583 658 504 688 Q 491 692 484 691 Q 480 687 479 676 Q 482 666 504 644 Z" style="fill: #0070C0;"></path>
                                                                        <path d="M 713 718 Q 701 687 644 591 Q 637 572 654 579 Q 666 589 764 679 Q 780 698 804 713 Q 825 728 810 744 Q 794 760 764 770 Q 736 780 724 775 Q 711 771 718 758 Q 724 739 713 718 Z" style="fill: #0070C0;"></path>
                                                                        <path d="M 475 504 Q 436 498 464 479 Q 506 452 569 465 Q 665 483 765 502 Q 811 512 818 517 Q 828 526 823 535 Q 816 548 784 556 Q 757 562 648 531 Q 552 510 475 504 Z" style="fill: #0070C0;"></path>
                                                                        <path d="M 492 335 Q 452 331 480 311 Q 523 284 585 296 Q 661 309 743 322 Q 780 329 786 333 Q 796 342 791 351 Q 784 364 753 373 Q 722 380 636 355 Q 527 337 492 335 Z" style="fill: #0070C0;"></path>
                                                                        <path d="M 397 132 Q 375 129 392 111 Q 407 96 426 90 Q 448 84 466 90 Q 596 124 881 124 Q 902 124 907 133 Q 913 146 895 161 Q 832 207 771 187 Q 591 157 397 132 Z" style="fill: #0070C0;"></path>
                                    
                                    
                                                                                                                                                                                                                                                                                                                                                                                                                                                                                                                                                                                                                                                                                                                                                                                        </g>
                            </svg>