<svg width='83' height='83' >
                                <g transform="translate(3, 70) scale(0.07, -0.07)">
                                    <!-- 先将完整的字以灰色字体绘制完成，层级位于下面 -->
                                                                        <path d="M 316 533 Q 351 527 415 534 L 559 559 L 606 568 Q 772 603 780 610 Q 786 613 786 619 Q 788 635 749 647 Q 731 651 719 651 Q 698 649 598 615 L 549 604 Q 533 602 517 596 Q 419 577 306 566 C 276 563 286 537 316 533 Z" style="fill: #0070C0;"></path>
                                                                        <path d="M 314 531 L 316 533 C 320 556 320 556 306 566 Q 304 569 298 572 Q 257 602 237 595 Q 225 588 231 574 Q 261 539 245 413 Q 228 284 198 200 Q 170 120 100 6 L 96 2 Q 87 -10 94 -14 Q 96 -16 99 -16 Q 123 -14 194 87 L 194 88 L 213 120 Q 247 180 274 283 Q 278 301 288 363 Q 314 516 314 531 Z" style="fill: #0070C0;"></path>
                                                                        <path d="M 417 396 Q 417 398 527 423 Q 559 435 559 444 Q 559 457 525 463 Q 504 466 480 459 Q 430 441 419 437 Q 417 437 351 425 Q 337 422 333 417 Q 327 406 394 394 L 417 396 Z" style="fill: #0070C0;"></path>
                                                                        <path d="M 294 241 Q 323 194 349 179 Q 355 177 361 178 Q 379 182 379 212 Q 377 228 370 239 Q 357 257 312 275 Q 296 282 287 279 Q 281 279 282 268 Q 282 257 294 241 Z" style="fill: #0070C0;"></path>
                                                                        <path d="M 452 251 Q 463 255 538 292 Q 542 296 547 298 L 573 310 Q 588 318 586 327 Q 584 333 573 345 Q 548 370 527 370 Q 517 370 519 360 Q 519 344 454 270 C 434 247 429 242 452 251 Z" style="fill: #0070C0;"></path>
                                                                        <path d="M 437 191 Q 447 221 452 251 L 454 270 Q 461 318 472 355 Q 474 363 470 368 Q 463 375 451 379 Q 429 385 417 396 C 400 408 400 408 394 394 Q 386 390 389 381 Q 412 343 404 272 Q 388 122 294 55 Q 276 40 267 33 Q 257 24 267 23 Q 323 28 380 89 Q 416 125 427 155 L 437 191 Z" style="fill: #0070C0;"></path>
                                                                        <path d="M 427 155 Q 452 129 500 74 Q 527 42 541 37 Q 543 37 546 37 Q 567 43 555 92 Q 552 106 543 116 Q 533 127 499 145 Q 457 169 437 191 C 416 213 406 177 427 155 Z" style="fill: #0070C0;"></path>
                                                                        <path d="M 559 559 Q 604 351 669 212 L 690 168 Q 751 44 858 -37 Q 924 -82 956 -81 Q 974 -74 968 -54 Q 962 -20 960 24 L 958 122 Q 956 170 947 171 Q 946 171 906 75 Q 890 35 870 42 Q 798 79 725 206 Q 723 207 721 210 L 696 263 Q 645 374 606 568 L 598 615 Q 585 715 588 766 Q 590 797 590 795 Q 591 817 572 831 Q 561 840 543 847 Q 508 859 488 857 L 476 853 Q 455 845 466 823 Q 521 780 523 744 L 549 604 L 559 559 Z" style="fill: #0070C0;"></path>
                                                                        <path d="M 669 212 Q 631 155 593 112 Q 588 108 586 104 Q 577 91 590 91 Q 616 91 688 164 Q 688 167 690 168 L 721 210 Q 760 273 802 390 Q 817 429 817 431 L 817 433 Q 806 453 778 472 Q 766 482 756 483 Q 740 486 740 468 Q 740 466 741 466 Q 741 463 742 459 Q 754 404 696 263 L 669 212 Z" style="fill: #0070C0;"></path>
                                                                        <path d="M 772 698 Q 786 688 802 688 Q 804 688 806 690 Q 826 698 808 745 Q 799 772 739 788 Q 698 800 679 796 Q 670 793 672 781 Q 672 780 672 778 Q 674 770 693 757 Q 751 715 772 698 Z" style="fill: #0070C0;"></path>
                                    
                                    
                                                                                                                                                                                                                                                                                                                                                                                                                                                                                                                                                                                                                                                                                                                                                                                                                                                                    </g>
                            </svg>