<svg width='83' height='83' >
                                <g transform="translate(3, 70) scale(0.07, -0.07)">
                                    <!-- 先将完整的字以灰色字体绘制完成，层级位于下面 -->
                                                                        <path d="M 130 562 Q 121 498 101 436 Q 89 405 115 373 Q 125 358 142 375 Q 184 429 167 514 Q 164 545 152 567 Q 145 574 140 573 Q 133 570 130 562 Z" style="fill: #0070C0;"></path>
                                                                        <path d="M 288 495 Q 339 528 392 569 Q 408 582 429 592 Q 448 601 438 616 Q 428 631 404 643 Q 383 655 372 653 Q 362 652 365 640 Q 368 612 288 522 C 268 500 263 479 288 495 Z" style="fill: #0070C0;"></path>
                                                                        <path d="M 275 282 Q 279 312 288 495 L 288 522 Q 289 678 310 735 Q 317 751 304 761 Q 280 780 239 790 Q 212 796 204 788 Q 194 781 203 768 Q 261 681 232 334 Q 208 199 162 136 Q 125 88 59 40 Q 47 31 48 27 Q 49 23 61 24 Q 76 20 112 38 Q 232 89 269 250 L 269 252 L 275 282 Z" style="fill: #0070C0;"></path>
                                                                        <path d="M 269 252 Q 273 248 281 242 Q 318 212 356 176 Q 366 166 380 165 Q 389 166 393 177 Q 397 189 390 213 Q 386 235 351 255 Q 317 270 278 282 Q 277 283 275 282 C 245 286 247 272 269 252 Z" style="fill: #0070C0;"></path>
                                                                        <path d="M 498 702 Q 458 695 487 676 Q 530 652 609 670 Q 682 688 760 705 Q 797 715 804 720 Q 814 729 808 739 Q 799 752 766 759 Q 742 763 634 729 Q 555 710 498 702 Z" style="fill: #0070C0;"></path>
                                                                        <path d="M 489 518 Q 477 524 449 529 Q 436 533 433 527 Q 426 521 435 505 Q 469 426 485 297 Q 486 258 508 232 Q 526 210 531 225 Q 535 238 536 259 L 534 292 Q 533 301 531 310 Q 525 344 520 372 L 515 402 Q 506 456 504 481 C 501 511 501 513 489 518 Z" style="fill: #0070C0;"></path>
                                                                        <path d="M 707 279 Q 729 245 749 236 Q 761 227 777 252 Q 795 283 826 445 Q 835 479 860 508 Q 875 523 861 538 Q 843 557 795 584 Q 777 593 707 573 Q 695 573 569 539 Q 524 526 489 518 C 460 511 475 472 504 481 Q 579 506 714 535 Q 741 539 754 532 Q 770 519 767 495 Q 739 317 718 305 C 704 283 704 283 707 279 Z" style="fill: #0070C0;"></path>
                                                                        <path d="M 520 372 Q 610 390 675 402 Q 699 406 689 420 Q 677 435 651 438 Q 615 442 515 402 C 487 391 491 366 520 372 Z" style="fill: #0070C0;"></path>
                                                                        <path d="M 536 259 Q 545 258 555 260 Q 603 272 707 279 C 737 281 740 285 718 305 Q 711 312 698 319 Q 682 328 651 319 Q 587 303 534 292 C 505 286 506 261 536 259 Z" style="fill: #0070C0;"></path>
                                                                        <path d="M 387 93 Q 362 92 380 71 Q 396 55 417 49 Q 441 42 459 48 Q 615 87 891 86 Q 907 86 923 85 Q 945 85 951 94 Q 958 107 939 124 Q 879 167 836 159 Q 731 137 387 93 Z" style="fill: #0070C0;"></path>
                                    
                                    
                                                                                                                                                                                                                                                                                                                                                                                                                                                                                                                                                                                                                                                                                                                                                                                                                                                                    </g>
                            </svg>