<svg width='83' height='83' >
                                <g transform="translate(3, 70) scale(0.07, -0.07)">
                                    <!-- 先将完整的字以灰色字体绘制完成，层级位于下面 -->
                                                                        <path d="M 110 546 Q 116 488 111 429 Q 107 395 137 374 Q 152 364 163 382 Q 187 436 156 510 Q 146 538 129 556 Q 122 560 116 559 Q 110 555 110 546 Z" style="fill: #0070C0;"></path>
                                                                        <path d="M 297 499 Q 379 556 419 576 Q 435 580 432 590 Q 426 605 410 622 Q 394 638 373 641 Q 360 641 360 623 Q 361 611 354 597 Q 335 569 299 530 C 279 508 272 482 297 499 Z" style="fill: #0070C0;"></path>
                                                                        <path d="M 285 298 Q 291 361 297 499 L 299 530 Q 300 659 325 729 Q 332 742 321 754 Q 299 772 260 783 Q 235 789 227 782 Q 218 775 226 763 Q 286 664 237 300 Q 213 176 137 95 Q 115 74 87 51 Q 75 42 76 38 Q 77 34 89 36 Q 102 32 133 48 Q 254 100 279 265 L 285 298 Z" style="fill: #0070C0;"></path>
                                                                        <path d="M 279 265 Q 306 238 346 192 Q 356 179 370 179 Q 380 178 385 189 Q 391 201 386 228 Q 382 258 291 296 Q 287 297 285 298 C 257 308 258 286 279 265 Z" style="fill: #0070C0;"></path>
                                                                        <path d="M 626 705 Q 792 738 798 742 Q 807 749 803 757 Q 796 767 770 775 Q 746 781 647 751 Q 575 736 505 730 Q 471 726 495 709 Q 523 691 577 695 L 626 705 Z" style="fill: #0070C0;"></path>
                                                                        <path d="M 630 580 Q 630 590 661 661 Q 667 670 651 687 Q 638 697 626 705 C 601 722 566 723 577 695 Q 589 668 586 651 Q 582 611 574 568 L 569 537 Q 556 470 539 393 C 533 364 571 369 579 398 Q 601 474 620 546 L 630 580 Z" style="fill: #0070C0;"></path>
                                                                        <path d="M 758 423 Q 785 507 819 533 Q 835 551 822 568 Q 747 629 698 601 Q 661 589 630 580 L 574 568 Q 522 561 469 555 Q 453 554 454 545 Q 457 538 474 531 Q 498 521 531 531 Q 549 534 569 537 L 620 546 Q 716 565 726 556 Q 742 537 703 414 C 694 385 748 395 758 423 Z" style="fill: #0070C0;"></path>
                                                                        <path d="M 539 393 Q 469 386 392 376 Q 373 375 386 359 Q 399 346 416 341 Q 435 335 451 339 Q 601 379 919 379 Q 938 379 943 387 Q 947 397 932 411 Q 878 451 815 434 Q 788 430 758 423 L 703 414 Q 675 413 644 407 Q 613 403 579 398 L 539 393 Z" style="fill: #0070C0;"></path>
                                                                        <path d="M 518 266 Q 505 272 477 277 Q 464 281 461 275 Q 454 269 463 253 Q 491 187 508 81 Q 509 50 528 28 Q 546 6 551 21 Q 557 37 555 65 L 550 101 Q 534 201 531 234 C 528 262 528 262 518 266 Z" style="fill: #0070C0;"></path>
                                                                        <path d="M 771 131 Q 796 213 827 236 Q 843 255 829 273 Q 759 330 699 305 Q 630 284 518 266 C 488 261 501 229 531 234 Q 721 264 724 264 Q 727 264 730 260 Q 745 245 716 128 C 709 99 762 102 771 131 Z" style="fill: #0070C0;"></path>
                                                                        <path d="M 555 65 Q 562 64 574 66 Q 644 79 794 88 Q 806 89 807 98 Q 808 107 776 129 Q 775 130 771 131 L 716 128 Q 623 110 550 101 C 520 97 525 66 555 65 Z" style="fill: #0070C0;"></path>
                                    
                                    
                                                                                                                                                                                                                                                                                                                                                                                                                                                                                                                                                                                                                                                                                                                                                                                                                                                                                                                                                </g>
                            </svg>