<svg width='83' height='83' >
                                <g transform="translate(3, 70) scale(0.07, -0.07)">
                                    <!-- 先将完整的字以灰色字体绘制完成，层级位于下面 -->
                                                                        <path d="M 541 671 Q 724 699 733 706 Q 742 713 738 721 Q 732 733 706 741 Q 679 748 651 740 Q 602 727 552 715 L 492 703 Q 413 693 323 689 Q 289 686 312 669 Q 345 645 400 652 Q 440 658 483 663 L 541 671 Z" style="fill: #0070C0;"></path>
                                                                        <path d="M 505 558 Q 556 570 675 582 Q 685 581 693 592 Q 694 602 674 612 Q 643 633 558 607 Q 525 601 519 598 L 461 587 Q 451 587 344 574 Q 319 571 338 555 Q 368 534 396 538 Q 420 544 450 548 L 505 558 Z" style="fill: #0070C0;"></path>
                                                                        <path d="M 462 451 Q 534 472 799 472 Q 866 469 875 480 Q 881 492 864 506 Q 801 554 761 533 Q 670 517 520 493 Q 499 492 478 487 L 421 480 Q 318 468 209 454 Q 187 453 203 435 Q 216 422 235 416 Q 256 410 272 415 Q 333 431 399 442 L 462 451 Z" style="fill: #0070C0;"></path>
                                                                        <path d="M 417 375 Q 432 391 462 451 L 478 487 Q 487 512 505 558 L 519 598 Q 529 632 541 671 L 552 715 Q 558 742 570 766 Q 580 785 562 799 Q 519 833 504 834 Q 483 835 494 810 Q 504 777 492 703 L 483 663 Q 474 632 461 587 L 450 548 Q 438 515 421 480 L 399 442 Q 342 358 313 331 Q 286 310 206 257 Q 190 248 185 242 Q 181 235 193 233 Q 262 224 391 344 Q 392 347 395 348 L 417 375 Z" style="fill: #0070C0;"></path>
                                                                        <path d="M 664 363 Q 722 369 769 371 Q 779 370 788 380 Q 789 390 769 401 Q 745 425 678 407 Q 675 407 675 406 L 616 395 Q 612 395 607 394 Q 580 391 417 375 C 387 372 370 364 395 348 Q 419 330 441 335 Q 517 348 618 356 L 664 363 Z" style="fill: #0070C0;"></path>
                                                                        <path d="M 586 215 Q 561 219 537 223 Q 527 224 527 219 Q 528 213 537 206 Q 594 157 613 126 Q 626 113 639 124 Q 670 157 666 247 Q 662 340 664 363 L 675 406 Q 678 419 667 428 Q 645 447 620 456 Q 605 462 598 456 Q 592 450 602 437 Q 612 418 616 395 L 618 356 Q 619 283 618 242 Q 617 223 606 217 Q 599 211 586 215 Z" style="fill: #0070C0;"></path>
                                                                        <path d="M 434 273 Q 452 258 471 239 Q 480 230 491 231 Q 498 231 502 241 Q 505 251 499 271 Q 495 284 474 293 Q 428 309 416 306 Q 412 303 413 295 Q 416 288 434 273 Z" style="fill: #0070C0;"></path>
                                                                        <path d="M 247 136 Q 222 85 190 40 Q 168 10 185 -27 Q 192 -45 214 -33 Q 265 6 270 77 Q 277 110 270 135 Q 266 144 260 145 Q 251 144 247 136 Z" style="fill: #0070C0;"></path>
                                                                        <path d="M 385 94 Q 410 25 437 -2 Q 447 -9 460 -2 Q 469 7 472 21 Q 475 63 408 121 Q 396 130 387 130 Q 383 131 380 120 Q 377 110 385 94 Z" style="fill: #0070C0;"></path>
                                                                        <path d="M 540 98 Q 567 41 597 11 Q 609 5 620 14 Q 627 23 630 38 Q 630 75 560 127 Q 548 134 539 134 Q 533 135 532 124 Q 531 114 540 98 Z" style="fill: #0070C0;"></path>
                                                                        <path d="M 720 111 Q 766 65 820 -2 Q 836 -24 852 -30 Q 861 -31 869 -21 Q 882 -8 872 39 Q 868 64 850 82 Q 834 95 793 114 Q 748 135 723 144 Q 714 150 711 137 Q 710 122 720 111 Z" style="fill: #0070C0;"></path>
                                    
                                    
                                                                                                                                                                                                                                                                                                                                                                                                                                                                                                                                                                                                                                                                                                                                                                                                                                                                                                                                                </g>
                            </svg>