<svg width='83' height='83' >
                                <g transform="translate(3, 70) scale(0.07, -0.07)">
                                    <!-- 先将完整的字以灰色字体绘制完成，层级位于下面 -->
                                                                        <path d="M 142 532 Q 127 474 102 419 Q 89 389 108 358 Q 118 343 135 357 Q 153 375 162 405 Q 175 448 172 483 Q 173 514 163 535 Q 159 542 152 543 Q 145 540 142 532 Z" style="fill: #0070C0;"></path>
                                                                        <path d="M 281 512 Q 353 560 389 577 Q 404 580 401 589 Q 397 602 382 617 Q 367 633 350 636 Q 338 636 338 620 Q 339 604 282 539 C 262 516 256 495 281 512 Z" style="fill: #0070C0;"></path>
                                                                        <path d="M 271 253 Q 277 296 281 512 L 282 539 Q 282 626 306 706 Q 313 719 302 731 Q 280 747 240 758 Q 215 764 207 757 Q 198 750 206 738 Q 267 636 223 251 Q 196 145 148 92 Q 120 64 80 35 Q 68 28 68 22 Q 69 18 81 19 Q 94 16 125 31 Q 233 71 262 203 Q 263 213 266 225 L 271 253 Z" style="fill: #0070C0;"></path>
                                                                        <path d="M 266 225 Q 296 195 344 143 Q 354 131 367 131 Q 376 130 381 141 Q 385 153 381 177 Q 378 199 347 221 Q 278 255 271 253 C 241 257 245 246 266 225 Z" style="fill: #0070C0;"></path>
                                                                        <path d="M 563 744 Q 597 722 634 694 Q 649 684 663 685 Q 673 686 677 700 Q 680 715 668 742 Q 653 776 552 789 Q 537 790 532 787 Q 528 783 530 771 Q 534 761 563 744 Z" style="fill: #0070C0;"></path>
                                                                        <path d="M 467 599 Q 452 623 439 631 Q 435 635 430 631 Q 426 627 425 616 Q 429 586 401 520 Q 391 504 392 486 Q 396 467 405 453 Q 412 443 418 450 Q 430 453 445 500 Q 460 546 468 562 Q 471 566 473 572 C 477 583 477 583 467 599 Z" style="fill: #0070C0;"></path>
                                                                        <path d="M 473 572 Q 495 562 540 573 Q 627 603 754 615 Q 763 616 768 615 Q 784 608 782 598 Q 782 597 753 529 Q 746 516 751 512 Q 758 509 774 520 Q 823 556 864 568 Q 898 578 897 587 Q 894 597 831 644 Q 807 665 695 638 Q 683 638 541 612 Q 507 605 471 600 Q 468 600 467 599 C 437 594 444 580 473 572 Z" style="fill: #0070C0;"></path>
                                                                        <path d="M 508 501 Q 527 422 426 310 Q 422 303 426 302 Q 444 299 493 340 Q 535 376 561 452 Q 567 465 573 477 Q 577 484 573 493 Q 567 500 542 511 Q 523 518 516 516 Q 506 512 508 501 Z" style="fill: #0070C0;"></path>
                                                                        <path d="M 695 480 Q 705 498 691 511 Q 672 530 648 536 Q 633 540 629 534 Q 622 530 630 516 Q 637 498 633 418 Q 632 390 646 373 Q 682 328 796 342 Q 830 346 841 355 Q 853 365 845 374 Q 835 386 803 401 Q 787 408 771 396 Q 755 383 730 381 Q 706 377 688 386 Q 678 393 678 417 Q 679 457 695 480 Z" style="fill: #0070C0;"></path>
                                                                        <path d="M 613 246 Q 662 256 714 263 Q 748 270 754 274 Q 761 281 758 289 Q 752 299 726 308 Q 698 315 671 305 Q 631 293 588 285 Q 542 276 486 273 Q 452 269 475 253 Q 511 229 567 240 Q 570 240 574 240 L 613 246 Z" style="fill: #0070C0;"></path>
                                                                        <path d="M 622 80 Q 634 170 641 190 Q 653 214 613 246 C 590 265 568 269 574 240 Q 580 215 578 132 Q 577 108 575 75 C 573 45 618 50 622 80 Z" style="fill: #0070C0;"></path>
                                                                        <path d="M 575 75 Q 485 68 385 57 Q 364 56 379 39 Q 392 26 409 19 Q 430 13 445 17 Q 653 62 881 42 Q 900 42 906 50 Q 912 60 896 75 Q 845 114 810 107 Q 740 95 622 80 L 575 75 Z" style="fill: #0070C0;"></path>
                                    
                                    
                                                                                                                                                                                                                                                                                                                                                                                                                                                                                                                                                                                                                                                                                                                                                                                                                                                                                                                                                                                                                            </g>
                            </svg>