<svg width='83' height='83' >
                                <g transform="translate(3, 70) scale(0.07, -0.07)">
                                    <!-- 先将完整的字以灰色字体绘制完成，层级位于下面 -->
                                                                        <path d="M 331 575 Q 362 617 397 668 Q 424 714 448 736 Q 458 746 453 760 Q 449 773 422 796 Q 397 815 377 815 Q 359 814 366 792 Q 379 761 366 735 Q 303 594 140 406 Q 130 396 127 390 Q 123 380 137 382 Q 173 388 305 541 L 331 575 Z" style="fill: #0070C0;"></path>
                                                                        <path d="M 363 256 Q 363 440 371 499 Q 378 526 349 557 Q 340 566 331 575 C 310 596 292 568 305 541 Q 306 541 307 539 Q 338 469 303 286 Q 282 213 322 171 Q 338 156 350 181 Q 357 205 361 230 L 363 256 Z" style="fill: #0070C0;"></path>
                                                                        <path d="M 577 797 Q 605 772 635 741 Q 648 728 664 727 Q 674 728 681 741 Q 685 756 678 785 Q 672 807 641 823 Q 568 854 552 847 Q 548 843 548 830 Q 551 820 577 797 Z" style="fill: #0070C0;"></path>
                                                                        <path d="M 587 607 Q 647 620 710 630 Q 756 640 762 646 Q 771 653 767 661 Q 760 671 734 679 Q 709 685 586 649 Q 454 628 437 626 Q 403 622 427 605 Q 463 581 519 594 Q 529 597 541 597 L 587 607 Z" style="fill: #0070C0;"></path>
                                                                        <path d="M 608 483 Q 672 496 729 503 Q 754 506 745 520 Q 735 536 707 541 Q 674 547 610 525 L 554 512 Q 491 499 436 486 Q 418 482 440 466 Q 452 457 555 474 L 608 483 Z" style="fill: #0070C0;"></path>
                                                                        <path d="M 603 373 Q 675 386 737 395 Q 762 398 753 412 Q 743 428 715 433 Q 682 439 605 415 L 555 404 Q 491 391 432 378 Q 414 374 436 358 Q 451 348 481 353 Q 518 360 555 365 L 603 373 Z" style="fill: #0070C0;"></path>
                                                                        <path d="M 599 288 Q 600 333 603 373 L 605 415 Q 606 451 608 483 L 610 525 Q 610 528 611 530 Q 614 581 612 585 Q 599 598 587 607 C 564 626 531 625 541 597 Q 553 570 554 512 L 555 474 Q 555 446 555 404 L 555 365 Q 555 329 555 282 C 555 252 598 258 599 288 Z" style="fill: #0070C0;"></path>
                                                                        <path d="M 555 282 Q 464 270 363 256 C 333 252 334 243 361 230 Q 388 215 412 221 Q 544 257 809 257 Q 827 257 831 265 Q 835 275 821 287 Q 770 326 709 309 Q 663 302 599 288 L 555 282 Z" style="fill: #0070C0;"></path>
                                                                        <path d="M 269 166 Q 239 114 201 67 Q 174 37 190 -1 Q 196 -20 219 -10 Q 276 21 289 103 Q 298 137 294 163 Q 290 173 284 174 Q 274 174 269 166 Z" style="fill: #0070C0;"></path>
                                                                        <path d="M 407 130 Q 423 90 441 49 Q 451 27 468 20 Q 481 13 494 29 Q 500 42 498 66 Q 494 88 472 109 Q 438 145 422 155 Q 413 159 408 149 Q 404 142 407 130 Z" style="fill: #0070C0;"></path>
                                                                        <path d="M 570 142 Q 619 42 643 34 Q 656 30 669 46 Q 673 59 669 82 Q 663 106 638 125 Q 601 159 582 168 Q 572 172 569 161 Q 565 154 570 142 Z" style="fill: #0070C0;"></path>
                                                                        <path d="M 738 155 Q 787 101 843 24 Q 856 2 872 -5 Q 881 -6 889 2 Q 902 15 895 60 Q 889 109 743 187 Q 734 193 731 180 Q 730 167 738 155 Z" style="fill: #0070C0;"></path>
                                    
                                    
                                                                                                                                                                                                                                                                                                                                                                                                                                                                                                                                                                                                                                                                                                                                                                                                                                                                                                                                                                                                                            </g>
                            </svg>