<svg width='83' height='83' >
                                <g transform="translate(3, 70) scale(0.07, -0.07)">
                                    <!-- 先将完整的字以灰色字体绘制完成，层级位于下面 -->
                                                                        <path d="M 108 515 Q 120 466 122 418 Q 125 382 157 368 Q 173 359 181 379 Q 196 433 159 487 Q 146 514 126 528 Q 117 532 113 529 Q 107 523 108 515 Z" style="fill: #0070C0;"></path>
                                                                        <path d="M 286 478 Q 314 499 332 512 Q 384 555 399 563 Q 417 572 407 586 Q 395 599 372 610 Q 353 620 341 617 Q 331 616 335 604 Q 339 586 287 511 C 270 486 262 460 286 478 Z" style="fill: #0070C0;"></path>
                                                                        <path d="M 268 243 Q 278 306 286 478 L 287 511 Q 288 650 312 710 Q 319 725 308 737 Q 284 756 243 766 Q 216 773 208 765 Q 198 758 207 745 Q 268 646 224 282 Q 188 155 187 153 Q 154 90 98 33 Q 88 23 87 18 Q 90 14 101 16 Q 113 13 140 30 Q 230 73 262 218 L 268 243 Z" style="fill: #0070C0;"></path>
                                                                        <path d="M 262 218 Q 268 211 279 201 Q 310 173 344 138 Q 354 126 368 126 Q 377 126 381 137 Q 385 149 380 173 Q 374 207 278 241 Q 274 242 268 243 C 238 248 242 240 262 218 Z" style="fill: #0070C0;"></path>
                                                                        <path d="M 583 776 Q 635 718 670 702 Q 686 699 695 713 Q 701 726 698 743 Q 686 788 598 814 Q 597 815 596 815 Q 580 819 569 816 Q 563 815 566 802 Q 567 790 583 776 Z" style="fill: #0070C0;"></path>
                                                                        <path d="M 492 631 Q 479 650 468 655 Q 449 665 452 643 Q 458 609 417 542 Q 402 518 435 474 Q 451 455 465 480 Q 475 505 482 539 Q 488 579 495 603 C 500 620 500 620 492 631 Z" style="fill: #0070C0;"></path>
                                                                        <path d="M 495 603 Q 516 593 538 598 Q 634 628 762 643 Q 775 644 782 643 Q 792 630 788 625 Q 788 616 765 559 Q 758 546 765 541 Q 772 537 789 549 Q 841 583 884 594 Q 918 604 918 613 Q 917 622 847 670 Q 826 686 747 671 Q 659 659 560 640 Q 526 634 492 631 C 462 628 467 613 495 603 Z" style="fill: #0070C0;"></path>
                                                                        <path d="M 542 509 Q 508 505 531 489 Q 567 465 620 475 Q 719 487 738 494 Q 745 501 742 509 Q 736 521 710 528 Q 682 535 655 525 Q 630 519 604 514 Q 576 510 542 509 Z" style="fill: #0070C0;"></path>
                                                                        <path d="M 506 382 Q 487 395 468 400 Q 461 403 457 398 Q 450 394 458 383 Q 488 337 492 223 Q 493 171 526 143 L 527 142 Q 543 138 544 165 L 543 192 Q 542 208 537 226 Q 536 242 533 263 L 532 280 Q 528 319 528 350 C 528 368 528 368 506 382 Z" style="fill: #0070C0;"></path>
                                                                        <path d="M 714 182 Q 730 161 745 154 Q 755 147 769 167 Q 779 188 802 300 Q 809 330 831 353 Q 844 365 833 378 Q 818 394 777 418 Q 765 422 690 411 Q 687 411 686 410 Q 562 391 506 382 C 476 377 500 338 528 350 Q 538 362 708 377 Q 733 378 740 370 Q 752 358 750 345 Q 734 218 717 208 C 706 191 706 191 714 182 Z" style="fill: #0070C0;"></path>
                                                                        <path d="M 533 263 L 534 263 Q 541 259 556 260 Q 628 273 680 281 Q 702 285 693 297 Q 683 310 659 314 Q 634 315 532 280 C 507 272 507 272 533 263 Z" style="fill: #0070C0;"></path>
                                                                        <path d="M 544 165 Q 547 165 551 165 Q 645 175 714 182 C 744 185 743 194 717 208 Q 689 227 571 198 Q 556 197 543 192 C 515 182 514 165 544 165 Z" style="fill: #0070C0;"></path>
                                                                        <path d="M 410 66 Q 388 65 403 47 Q 418 32 436 26 Q 458 19 474 24 Q 660 66 902 47 L 904 47 Q 925 46 930 55 Q 936 67 919 82 Q 865 124 827 116 Q 728 98 410 66 Z" style="fill: #0070C0;"></path>
                                    
                                    
                                                                                                                                                                                                                                                                                                                                                                                                                                                                                                                                                                                                                                                                                                                                                                                                                                                                                                                                                                                                                                                                                                        </g>
                            </svg>