<svg width='83' height='83' >
                                <g transform="translate(3, 70) scale(0.07, -0.07)">
                                    <!-- 先将完整的字以灰色字体绘制完成，层级位于下面 -->
                                                                        <path d="M 108 552 Q 118 500 120 447 Q 123 413 153 396 Q 168 387 177 407 Q 195 467 157 522 Q 144 549 126 564 Q 117 568 113 565 Q 107 561 108 552 Z" style="fill: #0070C0;"></path>
                                                                        <path d="M 288 488 Q 289 489 292 490 Q 371 554 410 579 Q 425 583 421 593 Q 415 606 398 621 Q 382 636 362 637 Q 349 636 351 620 Q 354 608 347 594 Q 326 563 289 513 C 271 489 262 473 288 488 Z" style="fill: #0070C0;"></path>
                                                                        <path d="M 278 289 Q 281 316 288 488 L 289 513 Q 290 663 312 724 Q 319 739 307 750 Q 285 768 244 778 Q 219 784 209 777 Q 200 770 208 757 Q 265 672 232 319 Q 217 186 144 103 Q 116 75 79 44 Q 67 35 68 30 Q 69 26 81 28 Q 94 24 127 41 Q 251 98 273 263 L 278 289 Z" style="fill: #0070C0;"></path>
                                                                        <path d="M 273 263 Q 277 259 286 251 Q 319 220 354 182 Q 364 172 376 171 Q 385 171 389 181 Q 393 191 389 215 Q 382 251 285 288 Q 281 289 278 289 C 248 292 251 284 273 263 Z" style="fill: #0070C0;"></path>
                                                                        <path d="M 594 783 Q 622 764 654 738 Q 669 728 683 730 Q 693 731 697 744 Q 700 759 688 786 Q 681 805 650 816 Q 575 834 564 827 Q 560 823 562 811 Q 566 801 594 783 Z" style="fill: #0070C0;"></path>
                                                                        <path d="M 733 660 Q 767 663 858 664 Q 876 665 880 673 Q 884 683 869 695 Q 815 734 756 713 Q 591 683 451 660 Q 432 659 446 643 Q 459 631 475 626 Q 494 622 508 626 Q 605 653 690 657 L 733 660 Z" style="fill: #0070C0;"></path>
                                                                        <path d="M 514 579 Q 541 519 563 513 Q 573 509 583 524 Q 587 534 583 554 Q 570 584 523 601 Q 516 604 513 594 Q 510 588 514 579 Z" style="fill: #0070C0;"></path>
                                                                        <path d="M 685 515 Q 706 546 727 585 Q 734 600 749 619 Q 761 629 754 638 Q 747 648 733 660 C 711 680 684 686 690 657 Q 699 627 659 526 Q 655 516 653 507 C 646 478 668 490 685 515 Z" style="fill: #0070C0;"></path>
                                                                        <path d="M 455 478 Q 442 488 424 493 Q 415 494 409 487 Q 405 481 413 471 Q 455 336 409 139 Q 391 103 398 74 Q 407 41 417 28 Q 427 15 438 28 Q 462 53 470 225 Q 470 375 484 441 C 487 458 480 462 455 478 Z" style="fill: #0070C0;"></path>
                                                                        <path d="M 484 441 Q 485 442 491 443 Q 609 473 752 494 Q 774 498 785 487 Q 795 481 799 435 Q 811 281 804 107 Q 804 82 794 74 Q 781 64 708 78 Q 692 79 694 71 Q 695 64 708 59 Q 772 17 807 -15 Q 826 -34 839 -31 Q 851 -28 861 -1 Q 874 42 872 106 Q 848 427 867 468 Q 877 487 868 499 Q 858 514 813 536 Q 794 545 776 540 Q 745 530 685 515 L 653 507 Q 646 507 640 505 Q 550 489 455 478 C 425 474 455 434 484 441 Z" style="fill: #0070C0;"></path>
                                                                        <path d="M 561 425 Q 565 418 562 410 Q 552 377 512 314 Q 506 308 505 305 Q 502 298 511 300 Q 541 306 595 376 Q 602 386 610 392 Q 614 399 613 407 Q 610 414 594 428 Q 578 438 567 439 Q 557 438 561 425 Z" style="fill: #0070C0;"></path>
                                                                        <path d="M 695 401 Q 743 347 755 347 Q 764 346 769 357 Q 773 369 769 393 Q 762 420 694 440 Q 681 444 676 443 Q 672 440 672 429 Q 673 419 695 401 Z" style="fill: #0070C0;"></path>
                                                                        <path d="M 570 271 Q 560 275 537 280 Q 527 283 524 279 Q 520 275 526 261 Q 545 216 557 143 Q 558 121 571 105 Q 584 89 589 100 Q 593 113 592 135 L 589 162 Q 580 225 579 246 C 578 268 578 268 570 271 Z" style="fill: #0070C0;"></path>
                                                                        <path d="M 724 182 Q 740 231 757 245 Q 776 266 758 279 Q 742 289 719 305 Q 703 315 686 306 Q 649 282 570 271 C 540 267 550 239 579 246 Q 588 249 663 262 Q 685 266 691 257 Q 694 254 679 182 C 673 153 714 154 724 182 Z" style="fill: #0070C0;"></path>
                                                                        <path d="M 592 135 Q 604 129 620 133 Q 659 142 741 147 Q 751 148 752 157 Q 752 164 724 182 C 712 190 708 189 679 182 Q 627 169 589 162 C 560 156 564 146 592 135 Z" style="fill: #0070C0;"></path>
                                    
                                    
                                                                                                                                                                                                                                                                                                                                                                                                                                                                                                                                                                                                                                                                                                                                                                                                                                                                                                                                                                                                                                                                                                                                                                                                                                                                </g>
                            </svg>