<svg width='83' height='83' >
                                <g transform="translate(3, 70) scale(0.07, -0.07)">
                                    <!-- 先将完整的字以灰色字体绘制完成，层级位于下面 -->
                                                                        <path d="M 92 531 Q 104 479 107 426 Q 110 390 141 376 Q 156 367 165 387 Q 180 444 142 502 Q 129 530 110 544 Q 101 548 97 545 Q 91 539 92 531 Z" style="fill: #0070C0;"></path>
                                                                        <path d="M 285 495 Q 351 550 383 572 Q 398 576 394 586 Q 387 599 370 613 Q 352 628 333 627 Q 321 626 323 609 Q 326 593 285 526 C 269 500 262 476 285 495 Z" style="fill: #0070C0;"></path>
                                                                        <path d="M 267 248 Q 279 305 285 495 L 285 526 Q 286 671 310 738 Q 317 751 306 763 Q 284 779 244 790 Q 219 796 211 789 Q 202 782 210 770 Q 234 734 237 689 Q 258 281 180 152 Q 149 98 79 43 Q 67 34 68 30 Q 69 26 81 28 Q 94 24 125 40 Q 221 82 261 218 L 267 248 Z" style="fill: #0070C0;"></path>
                                                                        <path d="M 261 218 Q 267 215 318 159 Q 328 149 340 147 Q 349 147 353 157 Q 357 167 353 191 Q 350 210 324 225 Q 300 237 267 248 C 239 258 237 236 261 218 Z" style="fill: #0070C0;"></path>
                                                                        <path d="M 518 652 Q 527 661 611 752 Q 624 771 646 786 Q 664 801 649 815 Q 633 828 605 836 Q 580 843 568 839 Q 555 835 563 822 Q 572 801 522 698 Q 510 677 499 654 Q 498 653 497 650 C 484 623 497 630 518 652 Z" style="fill: #0070C0;"></path>
                                                                        <path d="M 462 649 Q 443 662 423 668 Q 414 669 409 662 Q 406 658 413 648 Q 440 594 427 439 Q 424 417 417 392 Q 410 370 415 352 Q 424 322 434 311 Q 444 299 453 312 Q 474 342 475 497 Q 475 591 478 619 C 480 638 480 638 462 649 Z" style="fill: #0070C0;"></path>
                                                                        <path d="M 744 369 Q 737 348 749 328 Q 762 301 770 302 Q 783 303 798 333 Q 811 357 810 376 Q 783 580 822 638 Q 832 654 824 664 Q 796 689 748 708 Q 732 714 708 705 Q 621 666 518 652 L 497 650 Q 478 650 462 649 C 432 648 448 617 478 619 Q 494 616 616 643 Q 713 668 736 654 Q 746 633 750 575 Q 753 403 744 369 Z" style="fill: #0070C0;"></path>
                                                                        <path d="M 502 561 Q 529 515 543 512 Q 552 511 558 521 Q 559 528 556 543 Q 547 564 508 577 Q 502 578 501 572 Q 500 568 502 561 Z" style="fill: #0070C0;"></path>
                                                                        <path d="M 672 589 Q 663 570 643 540 Q 640 536 643 532 Q 647 531 652 534 Q 695 568 716 581 Q 726 585 723 591 Q 719 600 707 609 Q 694 619 682 619 Q 673 618 675 607 Q 676 600 672 589 Z" style="fill: #0070C0;"></path>
                                                                        <path d="M 614 472 Q 641 479 705 487 Q 712 486 718 495 Q 719 502 703 509 Q 682 522 615 502 L 586 495 Q 502 485 498 483 Q 479 480 494 469 Q 512 454 545 460 Q 555 463 567 463 L 614 472 Z" style="fill: #0070C0;"></path>
                                                                        <path d="M 586 433 Q 583 369 593 351 Q 599 341 608 347 Q 617 356 614 415 Q 613 443 614 472 L 615 502 Q 618 554 631 580 Q 635 587 627 595 Q 612 607 594 614 Q 584 618 574 615 Q 565 612 570 603 Q 585 579 586 495 L 586 433 Z" style="fill: #0070C0;"></path>
                                                                        <path d="M 567 463 Q 543 415 495 376 Q 485 367 495 367 Q 516 364 555 397 Q 577 418 586 433 C 611 473 581 490 567 463 Z" style="fill: #0070C0;"></path>
                                                                        <path d="M 648 419 Q 691 371 700 370 Q 706 369 710 377 Q 714 384 711 403 Q 707 424 649 448 Q 640 451 636 450 Q 633 449 633 440 Q 634 433 648 419 Z" style="fill: #0070C0;"></path>
                                                                        <path d="M 612 225 Q 654 231 886 230 Q 905 229 910 238 Q 916 248 900 263 Q 846 302 814 294 Q 744 281 624 264 L 567 258 Q 476 248 372 237 Q 353 236 367 219 Q 380 206 397 199 Q 418 195 433 198 Q 491 213 560 220 L 612 225 Z" style="fill: #0070C0;"></path>
                                                                        <path d="M 608 213 Q 609 219 612 225 L 624 264 Q 628 274 633 279 Q 640 291 633 299 Q 621 312 597 319 Q 579 326 562 323 Q 550 319 557 305 L 567 258 L 560 220 Q 559 217 558 213 Q 531 111 415 52 Q 379 37 331 20 Q 315 11 334 10 Q 442 4 519 64 Q 564 100 599 184 L 608 213 Z" style="fill: #0070C0;"></path>
                                                                        <path d="M 599 184 Q 665 96 739 15 Q 760 -10 797 -12 Q 864 -19 937 -10 Q 955 -9 957 -4 Q 958 3 945 9 Q 902 28 850 46 Q 754 83 612 210 Q 609 211 608 213 C 585 232 581 208 599 184 Z" style="fill: #0070C0;"></path>
                                    
                                    
                                                                                                                                                                                                                                                                                                                                                                                                                                                                                                                                                                                                                                                                                                                                                                                                                                                                                                                                                                                                                                                                                                                                                                                                                                                                                                                                            </g>
                            </svg>