<svg width='83' height='83' >
                                <g transform="translate(3, 70) scale(0.07, -0.07)">
                                    <!-- 先将完整的字以灰色字体绘制完成，层级位于下面 -->
                                                                        <path d="M 143 551 Q 156 521 170 487 Q 174 474 186 469 Q 193 466 202 473 Q 209 482 213 506 Q 216 533 156 586 Q 146 593 141 594 Q 137 593 133 584 Q 132 574 143 551 Z" style="fill: #0070C0;"></path>
                                                                        <path d="M 286 556 Q 289 557 291 557 Q 354 591 384 603 Q 397 604 395 614 Q 380 654 348 660 Q 338 660 336 646 Q 337 631 287 574 C 268 552 268 552 286 556 Z" style="fill: #0070C0;"></path>
                                                                        <path d="M 275 456 Q 282 501 286 556 L 287 574 Q 294 710 307 739 Q 313 752 303 762 Q 282 778 246 786 Q 224 790 216 785 Q 209 778 216 767 Q 264 700 239 467 Q 218 380 181 332 Q 160 310 134 286 Q 124 277 124 274 Q 125 270 136 272 Q 145 269 167 281 Q 240 315 271 435 Q 271 436 271 439 L 275 456 Z" style="fill: #0070C0;"></path>
                                                                        <path d="M 271 439 Q 272 436 276 433 Q 300 409 328 374 Q 338 361 349 356 Q 355 355 361 362 Q 370 371 362 401 Q 359 417 348 429 Q 342 433 278 455 Q 274 456 275 456 C 256 462 256 462 271 439 Z" style="fill: #0070C0;"></path>
                                                                        <path d="M 462 827 Q 496 793 529 778 Q 541 777 548 788 Q 552 798 549 813 Q 536 849 470 860 Q 457 863 448 859 Q 444 858 446 847 Q 447 838 462 827 Z" style="fill: #0070C0;"></path>
                                                                        <path d="M 398 714 Q 370 710 390 695 Q 424 677 469 688 Q 529 701 591 714 Q 619 721 623 725 Q 630 732 627 739 Q 620 748 597 754 Q 573 758 549 748 Q 518 738 482 728 Q 443 719 398 714 Z" style="fill: #0070C0;"></path>
                                                                        <path d="M 424 627 Q 411 623 429 612 Q 436 608 449 612 Q 513 631 559 643 Q 578 649 570 658 Q 560 668 538 670 Q 514 670 424 627 Z" style="fill: #0070C0;"></path>
                                                                        <path d="M 425 563 Q 412 559 429 547 L 562 567 Q 581 571 573 582 Q 563 594 542 596 Q 524 597 425 563 Z" style="fill: #0070C0;"></path>
                                                                        <path d="M 429 498 Q 422 502 392 507 Q 383 510 380 506 Q 376 502 382 488 Q 401 454 414 397 Q 417 381 427 369 Q 442 353 445 364 Q 448 371 447 385 L 444 411 Q 437 457 436 475 C 435 496 435 496 429 498 Z" style="fill: #0070C0;"></path>
                                                                        <path d="M 581 423 Q 597 468 613 481 Q 632 502 613 514 Q 597 524 575 539 Q 560 548 518 524 Q 458 506 429 498 C 400 490 407 466 436 475 Q 463 484 522 497 Q 544 501 550 493 Q 551 492 539 432 C 533 403 571 395 581 423 Z" style="fill: #0070C0;"></path>
                                                                        <path d="M 447 385 Q 454 384 466 386 Q 503 393 586 400 Q 595 401 596 408 Q 596 412 581 423 L 539 432 Q 536 432 534 431 Q 485 418 444 411 C 414 406 417 387 447 385 Z" style="fill: #0070C0;"></path>
                                                                        <path d="M 610 606 Q 620 587 630 564 Q 637 551 647 548 Q 654 545 662 553 Q 669 562 670 585 Q 671 598 655 614 Q 613 648 604 646 Q 600 645 598 636 Q 597 627 610 606 Z" style="fill: #0070C0;"></path>
                                                                        <path d="M 740 575 Q 739 576 741 576 Q 829 625 871 644 Q 887 647 885 657 Q 881 672 866 690 Q 851 708 831 712 Q 818 713 817 696 Q 818 678 742 600 C 721 578 715 559 740 575 Z" style="fill: #0070C0;"></path>
                                                                        <path d="M 725 488 Q 726 497 730 506 Q 736 537 740 575 L 742 600 Q 742 730 763 783 Q 769 796 759 806 Q 738 822 702 830 Q 680 834 672 829 Q 665 822 672 811 Q 723 739 691 501 Q 672 437 618 386 Q 608 377 608 374 Q 609 370 620 372 Q 627 369 645 379 Q 690 401 719 470 L 725 488 Z" style="fill: #0070C0;"></path>
                                                                        <path d="M 719 470 Q 720 467 725 464 Q 771 430 829 379 Q 844 364 856 362 Q 863 362 868 370 Q 877 382 863 416 Q 851 456 725 488 C 698 495 700 493 719 470 Z" style="fill: #0070C0;"></path>
                                                                        <path d="M 545 124 Q 588 173 629 242 Q 645 270 668 287 Q 690 302 677 318 Q 665 331 634 347 Q 610 357 526 328 Q 394 298 339 292 Q 324 291 319 283 Q 315 276 335 267 Q 375 252 428 268 Q 540 302 560 300 Q 576 299 571 280 Q 546 207 502 154 L 475 127 Q 382 49 195 12 Q 179 9 190 -1 Q 197 -5 254 -3 Q 326 1 407 33 Q 465 55 512 92 L 545 124 Z" style="fill: #0070C0;"></path>
                                                                        <path d="M 512 92 Q 686 -62 725 -66 Q 797 -66 904 -38 Q 943 -28 938 -18 Q 937 -14 897 -4 Q 723 30 700 39 Q 634 63 545 124 L 502 154 Q 474 178 443 203 Q 400 240 364 236 Q 345 235 342 229 Q 341 222 359 212 Q 390 197 411 178 Q 441 156 475 127 L 512 92 Z" style="fill: #0070C0;"></path>
                                    
                                    
                                                                                                                                                                                                                                                                                                                                                                                                                                                                                                                                                                                                                                                                                                                                                                                                                                                                                                                                                                                                                                                                                                                                                                                                                                                                                                                                                                                                                        </g>
                            </svg>