<svg width='83' height='83' >
                                <g transform="translate(3, 70) scale(0.07, -0.07)">
                                    <!-- 先将完整的字以灰色字体绘制完成，层级位于下面 -->
                                                                        <path d="M 536 851 Q 478 802 330 743 Q 324 733 331 731 Q 363 725 534 786 Q 558 802 637 817 Q 649 817 655 821 Q 668 829 651 849 Q 594 893 559 890 Q 553 886 551 874 Q 549 858 536 851 Z" style="fill: #0070C0;"></path>
                                                                        <path d="M 295 624 Q 339 570 357 576 Q 362 577 367 587 Q 372 600 365 630 Q 361 649 318 664 Q 284 676 272 673 Q 269 668 269 657 Q 271 647 295 624 Z" style="fill: #0070C0;"></path>
                                                                        <path d="M 433 675 Q 454 641 470 623 Q 499 594 512 623 Q 515 637 509 657 Q 492 689 441 701 Q 437 702 435 700 Q 426 694 433 675 Z" style="fill: #0070C0;"></path>
                                                                        <path d="M 684 776 Q 685 763 676 749 Q 661 723 574 641 Q 563 625 580 626 Q 640 651 696 680 Q 737 704 756 709 Q 765 711 770 717 Q 784 735 733 774 Q 710 792 696 790 Q 682 790 684 776 Z" style="fill: #0070C0;"></path>
                                    
                                    
                                                                                                                                                                                                                                                                                                                                                                                            </g>
                            </svg>