<svg width="83" height="83" xmlns="http://www.w3.org/2000/svg" xmlns:xlink="http://www.w3.org/1999/xlink" xml:space="preserve" overflow="hidden"><defs><clipPath id="clip0"><rect x="584" y="331" width="84" height="85"/></clipPath></defs><g clip-path="url(#clip0)" transform="translate(-584 -331)"><path d="M231.568 143.784 315.568 143.784 315.568 228.541 231.568 228.541Z" fill="#FFFFFF" transform="matrix(1 0 0 1.00287 352.432 186.804)"/><path d="M264.9 164.065C266.639 163.238 268.341 162.304 269.831 161.297 271.924 160.039 273.982 159.104 275.826 158.494 276.677 158.278 277.174 157.99 277.351 157.559 277.351 157.056 277.103 156.553 276.464 156.085 275.329 155.366 273.555 154.791 271.25 154.216 270.469 154 269.689 154 269.051 154.072 268.696 154.288 268.554 154.719 268.554 155.294 268.625 157.056 264.688 160.758 256.635 166.33 254.649 167.696 255.429 168.378 257.699 167.408 258.834 166.977 260.501 166.186 262.843 165.143L264.9 164.065Z" fill="#0070C0" fill-rule="evenodd" transform="matrix(1 0 0 1.00287 352.432 186.804)"/><path d="M255.794 165.887C255.794 165.817 255.794 165.746 255.654 165.675 253.054 164.403 251.367 163.838 250.524 164.05 249.541 164.262 249.47 164.898 250.313 166.1 252.351 169.563 252.633 176.983 251.157 188.432 250.665 191.472 249.611 194.829 248.135 198.503 246.87 201.72 243.708 205.889 238.649 210.942 237.946 211.649 237.524 212.144 237.314 212.568 237.243 212.886 237.524 213.027 238.086 212.957 240.195 212.957 243.216 210.942 247.081 206.702 251.227 202.143 253.897 196.03 255.022 188.291 255.865 183.591 256.357 177.69 256.427 170.587 256.638 169.633 256.778 168.785 256.849 168.149 256.919 167.654 256.919 167.23 256.849 166.947 256.849 166.382 256.849 166.382 255.794 165.887" fill="#0070C0" fill-rule="evenodd" transform="matrix(1 0 0 1.00287 352.432 186.804)"/><path d="M267.113 177.108C267.113 169.274 267.032 165.323 266.95 165.176 266.868 165.105 266.786 165.105 266.786 165.04L264.738 163.839C262.486 162.535 262.185 162.934 262.404 164.898 263.305 167.081 263.305 180.981 262.404 206.667 261.913 212.068 262.404 215.527 263.674 216.935L263.92 217.148C264.657 217.786 265.189 217.71 265.762 216.864 267.277 214.398 267.809 211.997 267.359 209.635 267.195 208.222 267.113 198.309 267.113 180.065L267.113 177.108Z" fill="#0070C0" fill-rule="evenodd" transform="matrix(1 0 0 1.00287 352.432 186.804)"/><path d="M263.955 167.681C265.853 169.687 268.059 173.67 270.762 179.769 276.993 195.659 282.584 206.865 287.333 213.261 288.703 214.791 292.578 215.454 298.851 215.272L307.252 214.791C308.317 214.676 308.888 214.488 308.963 213.966 308.963 213.668 309.888 213.198 307.48 212.352 305.073 211.507 298.388 211.199 294.513 208.896 289.914 206.885 286.047 202.504 282.21 197.11 278.25 191.899 274.712 181.184 268.288 167.566 267.302 165.191 265.666 163.692 263.768 163.285 261.333 162.277 262.053 165.301 263.955 167.681" fill="#0070C0" fill-rule="evenodd" transform="matrix(1 0 0 1.00287 352.432 186.804)"/><path d="M299.049 175.082C300.113 171.358 301.496 168.804 303.058 167.491 303.838 166.605 303.838 165.753 303.129 164.866 299.758 162.028 296.353 161.568 293.054 163.413 289.188 164.796 285.215 165.895 281.171 166.747 278.865 167.279 279.964 169.442 282.341 168.875 282.696 168.804 283.264 168.662 284.009 168.378 285.001 168.13 285.924 167.918 286.953 167.634L289.472 166.995C291.103 166.605 292.699 166.179 294.366 165.753 295.218 165.505 295.785 165.576 296.14 165.967 296.602 166.321 296.743 166.888 296.672 167.775 296.282 170.329 295.785 172.6 295.218 174.693 294.58 177.034 298.304 177.459 299.049 175.082Z" fill="#0070C0" fill-rule="evenodd" transform="matrix(1 0 0 1.00287 352.432 186.804)"/><path d="M286.432 168.319C286.432 168.453 286.432 171.301 286.5 176.795 286.5 178.973 288.966 178.269 289.169 176.058 289.372 174.216 289.574 172.541 289.845 171.167 289.912 170.832 289.912 170.631 289.912 170.43 290.216 169.76 290.216 169.224 289.912 168.855 289.574 168.386 289.169 168.051 288.763 167.716 287.108 166.309 286.432 166.108 286.432 168.319" fill="#0070C0" fill-rule="evenodd" transform="matrix(1 0 0 1.00287 352.432 186.804)"/><path d="M281.299 180.255C281.514 180.255 281.728 180.255 282.014 180.188 285.63 179.295 291.392 178.368 299.303 177.407 299.804 177.407 300.054 177.176 300.054 176.778 300.054 176.514 299.589 176.083 298.587 175.521L294.792 175.189 294.721 175.189C292.896 175.586 291.177 176.017 289.531 176.48L286.703 177.176C284.699 177.474 282.945 177.805 281.299 178.037 278.937 178.5 278.865 180.486 281.299 180.255Z" fill="#0070C0" fill-rule="evenodd" transform="matrix(1 0 0 1.00287 352.432 186.804)"/><path d="M306.262 187.234C305.623 186.329 304.843 184.415 303.85 181.526 303.779 180.795 303.566 180.378 303.282 180.169 302.927 180.099 302.715 180.447 302.644 181.178 301.65 184.415 300.799 186.538 300.09 187.512 299.593 188.382 298.422 189.009 296.72 189.427 292.676 190.54 288.88 190.331 285.333 188.731 283.878 188 282.956 187.164 282.531 186.26 281.75 184.833 281.395 182.919 281.395 180.517L281.395 178.046C281.395 175.505 281.679 172.686 282.176 169.519 282.176 169.38 282.176 169.31 282.176 169.24 282.318 167.814 282.318 167.814 281.041 167.187 280.544 166.839 279.905 166.561 279.125 166.352 278.487 166.108 278.061 166.108 277.706 166.421 277.422 166.561 277.351 167.048 277.635 167.814 278.345 169.588 278.629 171.364 278.487 173.034 278.203 182.71 279.054 188.591 281.041 190.679 282.034 191.689 283.737 192.524 286.113 193.395 293.74 195.622 300.373 194.508 305.978 190.123 306.794 189.288 306.865 188.382 306.262 187.234Z" fill="#0070C0" fill-rule="evenodd" transform="matrix(1 0 0 1.00287 352.432 186.804)"/></g></svg>