<svg width="83" height="83" xmlns="http://www.w3.org/2000/svg" xmlns:xlink="http://www.w3.org/1999/xlink" xml:space="preserve" overflow="hidden"><g transform="translate(-960 -189)"><path d="M365.562 41.7909C367.525 40.8856 369.392 39.8373 371.068 38.6937 373.366 37.3119 375.664 36.2636 377.77 35.6442 378.633 35.3583 379.207 35.0247 379.398 34.5959 379.398 33.9764 379.159 33.4047 378.441 32.9282 377.196 32.0705 375.185 31.4511 372.6 30.8316 371.738 30.5457 370.876 30.5457 370.158 30.6886 369.823 30.9269 369.584 31.4034 369.584 32.0228 369.679 33.9764 365.275 38.1219 356.37 44.2685 354.119 45.7937 354.981 46.5558 357.567 45.5552 358.811 45.0311 360.631 44.1733 363.264 42.9822L365.562 41.7909Z" fill="#0070C0" fill-rule="evenodd" transform="matrix(1 0 0 1.00153 626.315 158.618)"/><path d="M354.975 43.4296C354.975 43.3816 354.975 43.2856 354.83 43.2375 351.847 41.7503 349.922 41.0787 349.007 41.3666 347.9 41.6064 347.804 42.3262 348.718 43.7174 351.077 47.6032 351.414 56.0469 349.729 69.0964 349.151 72.5989 347.949 76.4367 346.312 80.5627 344.82 84.2088 341.307 88.9583 335.532 94.7156 334.762 95.4829 334.281 96.0588 333.992 96.5863 333.896 96.9225 334.281 97.1142 334.907 97.0182 337.313 97.0182 340.73 94.7156 345.109 89.9181 349.777 84.7367 352.857 77.7803 354.108 69.0004 355.023 63.5793 355.6 56.9106 355.697 48.8508 355.985 47.6993 356.13 46.788 356.178 45.9723 356.226 45.4444 356.226 45.0125 356.178 44.6287 356.178 44.0052 356.178 44.0052 354.975 43.4296" fill="#0070C0" fill-rule="evenodd" transform="matrix(1 0 0 1.00153 626.315 158.618)"/><path d="M368.106 56.4914C368.011 53.752 368.201 44.236 367.631 43.5632 367.061 42.8423 366.16 41.7852 365.353 41.3046 362.789 39.8148 362.409 40.3434 362.694 42.5061 363.691 45.005 363.691 60.9127 362.694 90.229 362.124 96.4287 362.694 100.417 364.118 102.004L364.403 102.292C365.305 103.013 365.875 102.917 366.587 101.907 368.296 99.1197 368.865 96.3807 368.391 93.6413 368.248 92.007 368.106 80.7131 368.106 59.9037L368.106 56.4914Z" fill="#0070C0" fill-rule="evenodd" transform="matrix(1 0 0 1.00153 626.315 158.618)"/><path d="M364.567 45.9074C366.682 48.1973 369.179 52.7404 372.303 59.6698 379.368 77.7402 385.814 90.4515 391.196 97.7192 392.78 99.4833 397.204 100.154 404.32 100.058L413.883 99.4833C415.084 99.3447 415.804 99.1028 415.854 98.529 415.854 98.1966 416.911 97.6227 414.17 96.7106 411.43 95.7074 403.838 95.3754 399.414 92.7472 394.125 90.4515 390.022 85.5275 385.698 79.3653 381.129 73.4807 376.821 61.2953 369.468 45.7625 368.316 43.0863 366.488 41.4126 364.323 40.887 361.538 39.7391 362.357 43.2312 364.567 45.9074" fill="#0070C0" fill-rule="evenodd" transform="matrix(1 0 0 1.00153 626.315 158.618)"/><path d="M404.345 54.3995C405.538 50.1535 407.063 47.2283 408.828 45.7659 409.733 44.7282 409.733 43.7372 408.923 42.7463 405.156 39.4911 401.294 38.9721 397.527 41.048 393.187 42.6991 388.705 43.8788 384.128 44.8693 381.505 45.4827 382.793 47.9361 385.463 47.3226 385.892 47.2283 386.56 47.0867 387.37 46.7568 388.467 46.4737 389.516 46.2377 390.708 45.9074L393.521 45.1524C395.381 44.7282 397.193 44.2563 399.053 43.7372 400.006 43.4541 400.674 43.5485 401.055 43.9731 401.58 44.3978 401.723 45.0109 401.627 46.049 401.198 48.927 400.674 51.5687 400.006 53.9277 399.291 56.617 403.487 57.0888 404.345 54.3995Z" fill="#0070C0" fill-rule="evenodd" transform="matrix(1 0 0 1.00153 626.315 158.618)"/><path d="M389.931 46.8996C389.931 47.0408 389.931 50.2453 390.026 56.3709 390.026 58.7741 392.491 58.0204 392.681 55.5228 392.87 53.4967 393.107 51.6117 393.392 50.1038 393.439 49.6799 393.439 49.4912 393.439 49.2557 393.723 48.5015 393.723 47.9361 393.439 47.5122 393.107 46.994 392.681 46.6169 392.301 46.1927 390.643 44.6848 389.931 44.4492 389.931 46.8996" fill="#0070C0" fill-rule="evenodd" transform="matrix(1 0 0 1.00153 626.315 158.618)"/><path d="M384.313 60.2618C384.555 60.2618 384.798 60.2618 385.136 60.1632 389.155 59.077 395.788 57.9412 404.697 56.855 405.278 56.855 405.52 56.5588 405.52 56.1147 405.52 55.8181 405.036 55.2751 403.923 54.6334L399.613 54.1396 399.516 54.1396C397.483 54.6827 395.498 55.2258 393.658 55.7195L390.462 56.5588C388.187 56.9047 386.202 57.2995 384.313 57.5957 381.602 58.188 381.505 60.4594 384.313 60.2618Z" fill="#0070C0" fill-rule="evenodd" transform="matrix(1 0 0 1.00153 626.315 158.618)"/><path d="M412.482 68.0457C411.716 66.9949 410.854 64.8453 409.705 61.645 409.609 60.7851 409.322 60.4029 409.035 60.1164 408.652 60.0208 408.412 60.451 408.364 61.2628 407.215 64.8453 406.21 67.2814 405.396 68.2846 404.821 69.2877 403.481 69.9564 401.566 70.4337 396.922 71.7238 392.565 71.4369 388.543 69.6699 386.867 68.8576 385.862 67.95 385.335 66.8993 384.426 65.3231 384.043 63.1735 384.043 60.4986L384.043 57.728C384.043 54.9102 384.33 51.7575 384.904 48.2226 384.904 48.0793 384.904 48.0317 384.904 47.9361 385.048 46.3599 385.048 46.3599 383.612 45.6433 383.085 45.2135 382.367 44.9746 381.409 44.7357 380.691 44.4492 380.212 44.4492 379.829 44.8314 379.494 44.9746 379.398 45.5 379.781 46.3599 380.547 48.3662 380.835 50.3245 380.691 52.1872 380.404 62.9346 381.361 69.4786 383.612 71.867 384.761 72.9654 386.724 73.921 389.405 74.9237 398.119 77.3122 405.683 76.0701 412.146 71.198 413.056 70.3385 413.104 69.2877 412.482 68.0457Z" fill="#0070C0" fill-rule="evenodd" transform="matrix(1 0 0 1.00153 626.315 158.618)"/></g></svg>