<svg width="83" height="83" xmlns="http://www.w3.org/2000/svg" xmlns:xlink="http://www.w3.org/1999/xlink" xml:space="preserve" overflow="hidden"><defs><clipPath id="clip0"><rect x="861" y="269" width="83" height="83"/></clipPath><clipPath id="clip1"><rect x="865" y="269" width="75" height="83"/></clipPath></defs><g clip-path="url(#clip0)" transform="translate(-861 -269)"><g clip-path="url(#clip1)"><g><path d="M243.735 77.2278C245.997 76.8197 248.258 76.0035 250.519 74.7798 251.488 74.2087 252.215 74.2087 252.781 74.7798 253.184 75.1059 253.103 75.8404 252.619 76.9014 251.65 79.1046 250.842 81.3896 250.115 83.7559 249.389 85.2246 249.469 86.6119 250.358 87.7542 253.346 92.1604 254.476 94.8534 253.831 95.9961 253.427 96.5672 252.538 96.8933 251.165 96.8116 249.469 96.6486 247.693 96.6486 245.835 96.8116 244.301 96.8933 244.462 97.2201 246.239 97.9539 249.55 99.423 252.7 101.055 255.688 102.932 256.495 103.666 257.223 103.666 257.868 102.932 258.676 102.279 259.241 101.3 259.565 99.9945 260.13 96.7303 258.515 92.8949 254.8 88.4884 252.538 86.2038 252.861 83.3477 255.607 79.7571 257.303 77.0644 258.757 75.3513 259.888 74.6981 261.018 73.8819 261.26 73.0664 260.695 72.2502 259.888 71.1079 258.272 70.0469 255.849 68.9046 254.638 68.4965 253.588 68.5782 252.7 69.3124 250.035 71.679 246.481 73.3928 242.12 74.6168 239.536 75.3513 241.151 77.8806 243.735 77.2278" fill="#0070C0" fill-rule="evenodd" transform="matrix(1.00002 0 0 1 631.726 207.009)"/><path d="M242.204 74.6021C240.97 73.3056 239.16 72.3335 236.774 71.6045 236.198 71.5235 235.622 71.7666 235.128 72.3335 234.881 72.6576 235.046 73.2249 235.622 73.9539 237.432 78.4909 238.255 82.7047 238.173 86.7555 238.748 104.175 237.597 117.219 234.881 125.97 234.305 127.59 234.141 129.13 234.47 130.588 235.128 132.775 235.869 134.396 236.692 135.368 237.514 136.259 238.173 136.259 238.831 135.287 241.053 132.775 242.122 124.106 242.204 109.441 242.204 87.971 242.781 77.1946 243.85 77.1946 244.262 76.2225 244.262 76.2225 242.204 74.6021" fill="#0070C0" fill-rule="evenodd" transform="matrix(1.00002 0 0 1 631.726 207.009)"/><path d="M274.394 86.3747C288.239 83.6338 295.364 82.0219 295.85 81.6997 296.498 81.2962 296.579 80.7322 296.335 80.1679 295.931 79.4424 294.797 78.7977 292.935 78.3138 291.073 77.9112 289.211 78.0723 287.349 78.7977 284.029 79.926 280.547 80.8933 276.984 81.7798 276.579 81.8605 276.175 81.9412 275.932 82.0219L271.803 82.7473C269.212 82.9891 266.62 83.3116 263.948 83.5531 261.681 83.9566 261.358 84.6817 262.977 85.7297 265.001 86.858 267.511 87.3416 270.345 87.1802L274.394 86.3747Z" fill="#0070C0" fill-rule="evenodd" transform="matrix(1.00002 0 0 1 631.726 207.009)"/><path d="M282.048 105.865C283.106 105.544 287.013 105.223 293.606 104.982 296.048 104.901 297.351 104.5 297.432 103.857 297.514 103.054 296.7 102.09 295.071 100.965 293.606 100.001 289.374 100.323 282.211 101.849L278.222 102.491C275.699 102.732 272.931 103.054 270.001 103.456 268.698 103.616 267.966 103.616 267.884 103.295 267.884 103.054 268.047 102.411 268.536 101.287 270.082 97.511 271.954 92.4504 274.315 86.1846L275.862 81.8468C278.548 74.0541 280.664 69.5558 282.129 68.2707 283.106 67.3871 283.269 66.5836 282.699 65.9411 279.362 63.2097 276.92 62.0046 275.454 62.1657 274.966 62.2461 274.885 62.8885 275.292 64.1737 276.024 66.9855 274.803 73.1708 271.71 82.5699L270.245 86.9875C267.396 95.1011 264.547 100.323 261.779 102.732 260.477 103.857 260.314 105.785 261.291 108.677 261.616 109.641 262.349 109.882 263.326 109.48 267.396 108.035 272.28 106.99 278.222 106.267L282.048 105.865Z" fill="#0070C0" fill-rule="evenodd" transform="matrix(1.00002 0 0 1 631.726 207.009)"/><path d="M277.793 117.488C270.52 118.29 262.601 119.172 254.035 120.214 252.661 120.214 252.5 120.855 253.47 121.897 254.278 122.699 255.247 123.26 256.378 123.661 257.672 124.062 258.722 124.062 259.692 123.821 266.965 121.897 272.944 120.935 277.632 120.935L281.914 120.454C285.389 120.214 293.147 120.053 305.187 120.053 306.318 120.053 307.045 119.813 307.449 119.332 307.692 118.61 307.369 117.809 306.399 116.927 302.924 114.361 299.288 113.64 295.571 114.682 291.772 115.243 287.167 115.965 281.914 116.847L277.793 117.488Z" fill="#0070C0" fill-rule="evenodd" transform="matrix(1.00002 0 0 1 631.726 207.009)"/><path d="M277.727 92.4195C278.94 92.3628 282.292 93.5133 282.719 93.9058 284.203 94.651 284.025 95.4015 284.095 95.9443 283.221 102.851 282.975 128.5 282.429 136.651 281.812 144.723 280.388 146.189 279.637 144.536 278.887 142.884 278.486 138.905 278.536 137.09 278.82 126.149 278.559 115.204 278.565 104.256 278.471 97.4505 278.251 98.9234 278.093 97.0717 277.767 95.4168 276.945 94.212 276.732 93.6177 276.625 93.4658 276.539 92.7888 276.695 92.6906 276.695 92.6906 276.695 92.6906 276.696 92.6902 276.963 92.5177 277.322 92.4383 277.727 92.4195Z" fill="#0070C0" fill-rule="evenodd" transform="matrix(1.00002 0 0 1 631.726 207.009)"/></g></g></g></svg>