<svg width="124" height="114" xmlns="http://www.w3.org/2000/svg" xmlns:xlink="http://www.w3.org/1999/xlink" xml:space="preserve" overflow="hidden"><g transform="translate(-578 -303)"><path d="M626.513 320.988C629.618 319.51 632.599 317.909 635.208 316.185 638.935 313.968 642.537 312.367 645.767 311.259 647.258 310.889 648.127 310.397 648.5 309.658 648.5 308.796 648.003 307.934 646.885 307.072 644.898 305.84 641.792 304.855 637.693 303.87 636.326 303.5 634.96 303.5 633.842 303.623 633.221 303.993 632.972 304.732 632.972 305.717 633.096 308.796 626.14 315.2 611.978 324.929 608.5 327.269 609.867 328.5 613.842 326.776 615.829 326.037 618.811 324.682 622.91 322.835L626.513 320.988Z" fill="#0070C0" fill-rule="evenodd"/><path d="M611.5 325.104C611.5 324.98 611.5 324.856 611.25 324.731 606.625 322.494 603.625 321.5 602.125 321.873 600.375 322.246 600.25 323.364 601.75 325.477 605.375 331.567 605.875 344.741 603.25 365 602.375 370.344 600.5 376.31 597.875 382.773 595.625 388.49 590 395.823 581 404.771 579.75 406.014 579 406.884 578.625 407.63 578.5 408.251 579 408.5 580 408.376 583.75 408.376 589.125 404.771 596 397.314 603.375 389.236 608.125 378.423 610.125 364.751 611.625 356.424 612.5 345.984 612.625 333.431 613 331.691 613.25 330.2 613.375 329.081 613.5 328.211 613.5 327.466 613.375 326.969 613.375 325.974 613.375 325.974 611.5 325.104" fill="#0070C0" fill-rule="evenodd"/><path d="M630.405 344.382C630.405 330.562 630.284 323.526 630.162 323.274 630.041 323.149 629.919 323.149 629.919 323.023 629.068 322.395 627.973 321.641 626.757 320.887 623.351 318.626 622.5 318.5 623.23 322.772 624.568 326.667 624.568 351.292 623.23 396.774 622.5 406.323 623.23 412.48 625.176 414.992L625.541 415.369C626.635 416.5 627.487 416.374 628.338 414.867 630.649 410.469 631.5 406.198 630.77 402.051 630.527 399.539 630.405 381.949 630.405 349.659L630.405 344.382Z" fill="#0070C0" fill-rule="evenodd"/><path d="M625.481 328.232C628.591 331.591 632.199 338.308 636.677 348.551 646.878 375.251 656.084 394.059 663.921 404.806 666.16 407.325 672.505 408.5 682.83 408.164 686.562 407.996 691.165 407.66 696.639 407.325 698.38 407.157 699.376 406.821 699.5 405.981 699.5 405.477 698.629 404.806 697.012 403.966 691.414 401.279 685.443 398.089 679.098 394.226 671.51 390.868 664.543 384.487 658.199 375.419 651.73 366.687 643.146 350.902 632.572 328.064 630.955 324.034 628.591 321.851 625.481 321.179 621.5 319.5 622.371 324.202 625.481 328.232" fill="#0070C0" fill-rule="evenodd"/><path d="M687.004 341.262C688.906 334.711 691.316 330.216 694.105 327.904 695.5 326.362 695.5 324.821 694.232 323.28 688.272 318.271 682.313 317.5 676.48 320.711 669.633 323.151 662.659 325.078 655.558 326.619 651.5 327.518 653.402 331.372 657.586 330.344 658.221 330.216 659.235 329.959 660.503 329.445 662.278 329.06 663.927 328.674 665.702 328.161L670.14 327.005C673.056 326.362 675.846 325.592 678.762 324.821 680.284 324.436 681.298 324.564 681.932 325.206 682.693 325.849 682.947 326.876 682.82 328.417 682.186 332.913 681.298 336.895 680.284 340.619 679.143 344.729 685.736 345.5 687.004 341.262Z" fill="#0070C0" fill-rule="evenodd"/><path d="M665.5 328.583C665.5 328.83 665.5 334.15 665.623 344.418 665.623 348.5 670.167 347.139 670.535 343.057 670.904 339.593 671.272 336.5 671.763 333.902 671.886 333.284 671.886 332.912 671.886 332.541 672.5 331.304 672.5 330.314 671.886 329.572 671.272 328.706 670.535 328.088 669.798 327.469 666.728 324.871 665.5 324.5 665.5 328.583" fill="#0070C0" fill-rule="evenodd"/><path d="M656.722 350.024C657.094 350.024 657.466 350.024 657.963 349.905 664.295 348.238 674.352 346.452 688.134 344.667 689.003 344.667 689.5 344.191 689.5 343.476 689.5 343 688.631 342.167 686.893 341.095L680.312 340.5 680.188 340.5C676.96 341.214 673.98 342.048 671.124 342.881L666.158 344.191C662.681 344.786 659.577 345.381 656.722 345.857 652.624 346.691 652.5 350.5 656.722 350.024Z" fill="#0070C0" fill-rule="evenodd"/><path d="M700.38 362.412C699.261 360.763 697.892 357.34 696.151 352.141 696.026 350.873 695.653 350.112 695.156 349.732 694.534 349.605 694.16 350.239 694.036 351.507 692.294 357.34 690.802 361.144 689.557 362.919 688.687 364.44 686.572 365.581 683.586 366.342 676.495 368.371 669.778 367.99 663.557 365.074 660.945 363.806 659.328 362.285 658.581 360.636 657.213 358.101 656.591 354.677 656.591 350.366L656.591 345.928C656.591 341.364 657.089 336.292 657.959 330.586 657.959 330.333 657.959 330.206 657.959 330.079 658.208 327.543 658.208 327.543 655.969 326.402 655.098 325.768 653.979 325.261 652.61 324.88 651.49 324.5 650.744 324.5 650.122 325.007 649.624 325.261 649.5 326.148 649.998 327.543 651.242 330.713 651.739 333.883 651.49 336.926 650.993 354.297 652.486 364.821 655.969 368.624 657.711 370.4 660.696 371.921 664.926 373.443 678.361 377.5 690.055 375.471 699.883 367.61 701.376 366.089 701.5 364.44 700.38 362.412Z" fill="#0070C0" fill-rule="evenodd"/></g></svg>