<svg width="83" height="83" xmlns="http://www.w3.org/2000/svg" xmlns:xlink="http://www.w3.org/1999/xlink" xml:space="preserve" overflow="hidden"><g transform="translate(-586 -306)"><g><g><path d="M627.409 327.227C629.955 326.046 632.409 324.682 634.591 323.136 637.591 321.318 640.591 319.955 643.318 319.136 644.5 318.773 645.227 318.318 645.5 317.773 645.5 316.955 645.136 316.227 644.227 315.591 642.591 314.5 639.955 313.682 636.591 312.864 635.5 312.5 634.318 312.5 633.409 312.682 632.955 312.955 632.682 313.591 632.682 314.409 632.773 316.955 627.046 322.409 615.409 330.5 612.5 332.5 613.591 333.5 616.955 332.136 618.591 331.5 620.955 330.318 624.409 328.773L627.409 327.227Z" fill="#0070C0" fill-rule="evenodd"/><path d="M613.843 329.549C613.843 329.457 613.843 329.365 613.659 329.272 609.792 327.332 607.306 326.5 606.11 326.87 604.637 327.147 604.544 328.071 605.741 329.919 608.779 335.001 609.24 345.998 607.03 363 606.294 367.528 604.729 372.518 602.611 377.877 600.678 382.682 596.075 388.873 588.618 396.358 587.605 397.375 586.96 398.114 586.592 398.761 586.5 399.223 586.96 399.5 587.789 399.315 590.919 399.315 595.338 396.358 601.046 390.075 607.122 383.329 611.081 374.273 612.738 362.815 613.935 355.792 614.671 347.106 614.764 336.572 615.132 335.094 615.316 333.892 615.408 332.876 615.5 332.137 615.5 331.582 615.408 331.12 615.408 330.289 615.408 330.289 613.843 329.549" fill="#0070C0" fill-rule="evenodd"/><path d="M630.891 346.341C630.786 342.802 631.06 330.409 630.258 329.558 629.516 328.594 628.334 327.233 627.293 326.618 623.885 324.674 623.412 325.322 623.79 328.189 625.115 331.429 625.115 352.084 623.79 390.235 623.033 398.295 623.79 403.479 625.684 405.512L626.062 405.884C627.198 406.816 627.957 406.719 628.903 405.423 631.175 401.81 631.933 398.206 631.27 394.682 631.081 392.552 630.891 377.826 630.891 350.78L630.891 346.341Z" fill="#0070C0" fill-rule="evenodd"/><path d="M626.392 332.557C629.172 335.521 632.415 341.448 636.492 350.525 645.666 374.141 654.006 390.812 661.048 400.259 663.087 402.574 668.832 403.5 678.099 403.315L690.516 402.574C692.091 402.389 693.017 402.111 693.11 401.37 693.11 400.907 694.5 400.166 690.886 398.962 687.365 397.665 677.45 397.202 671.705 393.776 664.848 390.812 659.102 384.329 653.45 376.271 647.519 368.584 642.33 352.655 632.786 332.372 631.303 328.853 628.894 326.63 626.114 325.982 622.5 324.5 623.519 329.038 626.392 332.557" fill="#0070C0" fill-rule="evenodd"/><path d="M678.378 343.924C679.95 338.277 681.985 334.418 684.298 332.441 685.5 331.124 685.5 329.806 684.39 328.488 679.488 324.159 674.4 323.5 669.498 326.229 663.763 328.394 657.935 329.994 651.923 331.312 648.5 332.065 650.165 335.359 653.68 334.512 654.235 334.418 655.068 334.229 656.178 333.759 657.565 333.382 658.953 333.1 660.525 332.629L664.225 331.688C666.63 331.124 669.035 330.465 671.44 329.806 672.735 329.429 673.568 329.524 674.123 330.088 674.77 330.653 674.955 331.5 674.863 332.818 674.308 336.677 673.568 340.159 672.735 343.265 671.81 346.841 677.268 347.5 678.378 343.924Z" fill="#0070C0" fill-rule="evenodd"/><path d="M659.5 333.728C659.5 333.913 659.5 338.155 659.582 346.272 659.582 349.5 662.861 348.485 663.107 345.165 663.353 342.49 663.68 340 664.008 337.971 664.09 337.418 664.09 337.141 664.09 336.864 664.5 335.85 664.5 335.112 664.09 334.558 663.68 333.82 663.107 333.359 662.615 332.806 660.402 330.777 659.5 330.5 659.5 333.728" fill="#0070C0" fill-rule="evenodd"/><path d="M652.066 351.218C652.432 351.218 652.707 351.218 653.164 351.124 658.376 349.712 666.881 348.3 678.403 346.888 679.134 346.888 679.5 346.512 679.5 345.947 679.5 345.571 678.86 344.912 677.397 344.065L671.819 343.5 671.727 343.5C669.075 344.159 666.515 344.818 664.137 345.477L660.022 346.512C657.096 346.982 654.535 347.453 652.066 347.829 648.591 348.582 648.5 351.5 652.066 351.218Z" fill="#0070C0" fill-rule="evenodd"/><path d="M688.661 361.318C687.636 359.955 686.517 357.136 685.025 352.955 684.932 351.864 684.559 351.318 684.186 350.955 683.627 350.864 683.348 351.409 683.254 352.5 681.763 357.136 680.458 360.318 679.432 361.682 678.686 362.955 676.915 363.864 674.398 364.5 668.339 366.136 662.653 365.773 657.432 363.5 655.195 362.409 653.89 361.227 653.237 359.864 652.025 357.773 651.559 354.955 651.559 351.5L651.559 347.864C651.559 344.136 651.932 340.046 652.678 335.409 652.678 335.227 652.678 335.136 652.678 335.046 652.864 332.955 652.864 332.955 651 332.046 650.254 331.5 649.322 331.136 648.11 330.864 647.178 330.5 646.525 330.5 646.059 330.955 645.593 331.136 645.5 331.864 645.966 332.955 646.992 335.591 647.364 338.136 647.178 340.591 646.805 354.682 648.017 363.227 651 366.318 652.492 367.773 655.009 369.046 658.551 370.318 669.924 373.5 679.805 371.864 688.195 365.5 689.407 364.318 689.5 362.955 688.661 361.318Z" fill="#0070C0" fill-rule="evenodd"/></g></g></g></svg>