<svg width='83' height='83' >
                                <g transform="translate(3, 70) scale(0.07, -0.07)">
                                    <!-- 先将完整的字以灰色字体绘制完成，层级位于下面 -->
                                                                        <path d="M 534 848 Q 477 800 329 740 Q 323 731 330 728 Q 360 722 532 783 Q 556 799 635 815 Q 653 815 656 822 Q 660 832 649 845 Q 592 890 557 886 Q 550 883 549 872 Q 548 857 534 848 Z" style="fill: #0070C0;"></path>
                                                                        <path d="M 298 618 Q 337 570 353 569 Q 363 568 369 581 Q 375 594 368 624 Q 365 637 343 649 Q 289 670 276 667 Q 272 663 271 651 Q 274 641 298 618 Z" style="fill: #0070C0;"></path>
                                                                        <path d="M 433 681 Q 467 618 493 615 Q 506 612 514 629 Q 517 642 510 662 Q 503 677 483 686 Q 453 702 440 706 Q 431 709 429 698 Q 428 691 433 681 Z" style="fill: #0070C0;"></path>
                                                                        <path d="M 666 735 Q 647 711 572 639 Q 560 623 578 624 Q 630 645 659 660 Q 726 699 753 706 Q 777 713 767 733 Q 755 752 730 771 Q 708 789 693 787 Q 680 787 682 773 Q 683 754 666 735 Z" style="fill: #0070C0;"></path>
                                                                        <path d="M 474 505 Q 498 511 679 544 Q 689 543 698 555 Q 698 565 677 575 Q 643 594 557 566 Q 541 563 525 558 Q 518 558 339 523 Q 312 519 334 503 Q 364 482 403 490 Q 413 493 428 495 L 474 505 Z" style="fill: #0070C0;"></path>
                                                                        <path d="M 460 387 Q 560 406 848 423 Q 867 424 873 432 Q 877 445 861 458 Q 806 494 755 481 Q 653 457 489 425 Q 482 424 476 422 L 406 409 Q 280 390 144 367 Q 122 364 139 347 Q 169 320 209 330 Q 296 358 394 375 L 460 387 Z" style="fill: #0070C0;"></path>
                                                                        <path d="M 420 297 Q 432 325 460 387 L 476 422 Q 482 435 490 447 Q 503 459 500 473 Q 491 489 474 505 C 453 527 431 525 428 495 Q 428 462 406 409 L 394 375 Q 310 165 138 19 Q 131 15 128 9 Q 122 -1 133 -1 Q 167 -2 264 80 Q 280 96 298 114 Q 343 165 406 270 L 420 297 Z" style="fill: #0070C0;"></path>
                                                                        <path d="M 578 119 Q 612 170 646 243 Q 661 274 682 293 Q 703 309 689 325 Q 676 338 642 351 Q 617 360 587 346 Q 557 333 516 319 Q 479 309 420 297 C 391 291 377 276 406 270 Q 443 258 496 274 Q 557 299 568 299 Q 590 296 584 273 Q 566 203 535 153 L 514 124 Q 441 39 293 1 Q 277 -3 290 -13 Q 297 -17 342 -15 Q 400 -11 466 24 Q 515 49 553 88 L 578 119 Z" style="fill: #0070C0;"></path>
                                                                        <path d="M 553 88 Q 658 -17 747 -71 Q 763 -78 785 -77 Q 876 -70 948 -50 Q 985 -41 982 -31 Q 981 -27 941 -18 Q 749 16 689 48 Q 623 87 578 119 L 535 153 Q 511 172 488 192 Q 448 228 412 224 Q 394 223 392 217 Q 391 210 407 201 Q 438 186 460 167 Q 485 148 514 124 L 553 88 Z" style="fill: #0070C0;"></path>
                                    
                                    
                                                                                                                                                                                                                                                                                                                                                                                                                                                                                                                                                                                                                                                                                                                                                                                        </g>
                            </svg>