<svg width='83' height='83' >
                                <g transform="translate(3, 70) scale(0.07, -0.07)">
                                    <!-- 先将完整的字以灰色字体绘制完成，层级位于下面 -->
                                                                        <path d="M 502 843 Q 451 807 338 766 Q 332 759 337 756 Q 361 749 504 789 Q 519 799 590 809 Q 605 808 609 815 Q 613 824 603 835 Q 587 850 549 869 Q 536 876 524 876 Q 517 873 516 864 Q 515 851 502 843 Z" style="fill: #0070C0;"></path>
                                                                        <path d="M 303 689 Q 322 670 344 646 Q 354 634 368 634 Q 377 634 381 645 Q 385 657 380 681 Q 373 709 302 729 Q 289 733 284 731 Q 280 728 280 717 Q 283 707 303 689 Z" style="fill: #0070C0;"></path>
                                                                        <path d="M 435 716 Q 462 676 486 660 Q 496 656 504 665 Q 510 674 510 686 Q 504 720 450 742 Q 449 743 448 743 Q 436 747 429 746 Q 425 745 426 736 Q 426 729 435 716 Z" style="fill: #0070C0;"></path>
                                                                        <path d="M 659 776 Q 634 752 557 696 Q 545 683 560 683 Q 611 698 640 711 Q 694 736 727 743 Q 746 747 741 764 Q 734 782 714 799 Q 698 815 686 815 Q 674 816 675 805 Q 674 789 659 776 Z" style="fill: #0070C0;"></path>
                                                                        <path d="M 295 607 Q 285 611 250 614 Q 240 615 236 611 Q 232 604 241 591 Q 266 552 289 485 Q 295 464 308 453 Q 327 435 329 450 Q 330 454 330 460 L 327 488 Q 326 491 326 494 Q 313 548 305 573 C 296 602 296 607 295 607 Z" style="fill: #0070C0;"></path>
                                                                        <path d="M 677 500 Q 680 485 692 484 Q 705 484 714 497 Q 721 500 740 521 Q 761 569 798 593 Q 817 606 804 623 Q 789 641 744 670 Q 726 683 664 667 Q 478 642 418 629 Q 345 616 295 607 C 265 602 278 561 305 573 Q 312 582 406 598 L 431 603 Q 480 615 546 623 L 590 629 Q 689 648 714 634 Q 720 630 714 612 Q 693 546 681 530 C 670 510 670 510 677 500 Z" style="fill: #0070C0;"></path>
                                                                        <path d="M 459 504 Q 459 505 460 506 Q 460 545 432 601 Q 431 602 431 603 C 418 630 398 627 406 598 Q 409 589 412 565 Q 415 517 437 500 C 454 486 454 486 459 504 Z" style="fill: #0070C0;"></path>
                                                                        <path d="M 566 523 Q 570 530 574 539 Q 599 588 605 594 Q 615 604 608 613 Q 601 622 590 629 C 565 646 535 651 546 623 Q 555 607 539 518 C 534 488 552 497 566 523 Z" style="fill: #0070C0;"></path>
                                                                        <path d="M 330 460 Q 340 457 353 460 Q 456 484 677 500 C 707 502 706 514 681 530 Q 677 533 674 535 Q 659 545 566 523 L 539 518 Q 497 511 459 504 L 437 500 Q 377 494 327 488 C 297 484 300 464 330 460 Z" style="fill: #0070C0;"></path>
                                                                        <path d="M 366 224 Q 379 205 394 198 Q 403 192 414 210 Q 424 229 444 334 Q 450 359 468 380 Q 478 390 468 402 Q 455 415 420 435 Q 407 441 247 398 C 218 390 227 358 254 370 Q 260 377 368 398 Q 384 401 389 396 Q 399 384 398 373 Q 385 262 373 249 C 363 228 363 228 366 224 Z" style="fill: #0070C0;"></path>
                                                                        <path d="M 253 286 Q 253 287 255 287 Q 310 302 351 311 Q 370 315 362 326 Q 352 336 330 338 Q 300 341 253 313 C 227 298 225 275 253 286 Z" style="fill: #0070C0;"></path>
                                                                        <path d="M 253 203 Q 283 213 366 224 C 394 228 394 228 373 249 Q 370 253 363 256 Q 350 262 326 254 Q 286 241 253 231 C 224 222 224 194 253 203 Z" style="fill: #0070C0;"></path>
                                                                        <path d="M 372 132 Q 338 120 273 94 Q 263 91 260 95 Q 254 96 255 111 Q 254 162 253 203 L 253 231 Q 253 262 253 286 L 253 313 Q 253 355 254 370 C 255 394 255 394 247 398 Q 237 407 200 416 Q 185 417 181 414 Q 175 408 185 393 Q 209 360 215 260 Q 215 119 183 70 Q 174 61 165 49 Q 155 39 160 21 Q 166 -3 178 -14 Q 188 -23 199 -11 Q 247 34 382 116 C 408 132 400 142 372 132 Z" style="fill: #0070C0;"></path>
                                                                        <path d="M 382 116 Q 395 94 410 67 Q 417 54 430 50 Q 437 49 445 57 Q 452 67 453 93 Q 454 111 433 131 Q 376 173 368 170 Q 364 169 361 158 Q 361 151 372 132 L 382 116 Z" style="fill: #0070C0;"></path>
                                                                        <path d="M 738 345 Q 792 351 910 352 Q 928 353 932 361 Q 936 371 921 383 Q 869 419 811 402 Q 781 396 743 387 L 682 376 Q 589 361 483 344 Q 464 343 478 327 Q 491 315 507 310 Q 526 306 540 311 Q 637 339 684 339 L 738 345 Z" style="fill: #0070C0;"></path>
                                                                        <path d="M 650 62 Q 613 69 575 76 Q 562 77 563 70 Q 564 63 576 55 Q 657 -6 687 -45 Q 703 -61 719 -47 Q 749 -14 750 69 Q 738 189 738 345 L 743 387 Q 744 397 749 406 Q 758 425 740 439 Q 713 461 682 470 Q 663 477 654 469 Q 648 462 659 446 Q 678 413 682 376 L 684 339 Q 691 182 687 97 Q 686 75 674 66 Q 665 59 650 62 Z" style="fill: #0070C0;"></path>
                                                                        <path d="M 508 229 Q 545 180 579 160 Q 594 156 603 169 Q 610 181 608 197 Q 604 221 587 234 Q 535 276 503 269 Q 500 269 498 268 Q 491 267 493 255 Q 494 243 508 229 Z" style="fill: #0070C0;"></path>
                                    
                                    
                                                                                                                                                                                                                                                                                                                                                                                                                                                                                                                                                                                                                                                                                                                                                                                                                                                                                                                                                                                                                                                                                                                                                                                                                                                                                                                                                                                                                        </g>
                            </svg>