<svg width='83' height='83' >
                                <g transform="translate(3, 70) scale(0.07, -0.07)">
                                    <!-- 先将完整的字以灰色字体绘制完成，层级位于下面 -->
                                                                        <path d="M 334 794 Q 325 718 210 640 Q 186 628 164 611 Q 152 599 168 599 Q 226 595 329 677 Q 335 686 398 736 Q 411 745 401 762 Q 365 804 347 807 Q 337 808 334 794 Z" style="fill: #0070C0;"></path>
                                                                        <path d="M 609 771 Q 658 737 711 693 Q 726 680 742 682 Q 752 683 757 696 Q 761 712 750 741 Q 735 786 602 819 Q 586 822 580 819 Q 576 815 577 802 Q 581 792 609 771 Z" style="fill: #0070C0;"></path>
                                                                        <path d="M 294 407 Q 385 462 507 568 L 538 597 Q 593 648 602 653 Q 612 656 612 667 Q 613 677 604 693 Q 579 732 544 736 Q 534 736 533 723 Q 530 687 488 633 L 462 602 Q 374 509 284 454 Q 218 412 64 340 Q 54 336 64 331 Q 115 328 266 392 L 294 407 Z" style="fill: #0070C0;"></path>
                                                                        <path d="M 507 568 Q 586 508 629 470 Q 749 373 791 369 Q 809 369 916 391 Q 953 400 965 407 Q 984 417 965 423 Q 937 433 805 453 Q 748 463 649 525 Q 600 555 538 597 L 488 633 Q 410 678 388 676 Q 369 677 350 671 Q 335 667 335 659 Q 336 649 353 647 Q 398 647 462 602 L 507 568 Z" style="fill: #0070C0;"></path>
                                                                        <path d="M 623 259 Q 650 343 683 360 Q 701 379 686 397 Q 670 410 617 437 Q 599 446 577 437 Q 487 404 331 385 C 301 381 323 349 353 353 Q 366 354 382 358 Q 413 364 444 368 L 484 375 Q 520 382 556 388 Q 578 392 587 383 Q 596 376 593 358 Q 584 307 573 266 C 565 237 613 231 623 259 Z" style="fill: #0070C0;"></path>
                                                                        <path d="M 444 368 Q 447 356 442 238 C 441 208 478 216 483 246 Q 501 355 500 358 Q 493 367 484 375 C 462 395 440 398 444 368 Z" style="fill: #0070C0;"></path>
                                                                        <path d="M 325 186 Q 332 185 343 187 Q 436 208 635 226 Q 645 227 647 235 Q 647 244 623 259 L 573 266 Q 572 266 571 266 Q 525 256 483 246 L 442 238 Q 379 228 327 220 C 297 215 295 186 325 186 Z" style="fill: #0070C0;"></path>
                                                                        <path d="M 820 66 Q 807 115 802 200 Q 801 216 794 222 Q 787 228 781 207 Q 757 104 740 87 Q 698 39 520 35 Q 423 36 381 52 Q 344 71 336 95 Q 326 122 325 186 L 327 220 Q 333 293 348 330 Q 352 343 353 353 C 357 368 356 369 331 385 Q 309 401 294 407 C 268 422 253 419 266 392 Q 287 371 283 296 Q 276 98 305 53 Q 362 -32 649 -12 Q 760 -3 802 22 Q 830 35 820 66 Z" style="fill: #0070C0;"></path>
                                    
                                    
                                                                                                                                                                                                                                                                                                                                                                                                                                                                                                                                                                                                                                                                                                            </g>
                            </svg>