<svg width='83' height='83' >
                                <g transform="translate(3, 70) scale(0.07, -0.07)">
                                    <!-- 先将完整的字以灰色字体绘制完成，层级位于下面 -->
                                                                        <path d="M 211 500 Q 257 575 258 577 Q 257 580 257 581 Q 253 593 227 611 Q 203 627 187 626 Q 171 625 178 605 Q 193 577 141 478 Q 116 433 81 383 Q 72 374 71 369 Q 68 359 80 361 Q 117 373 195 477 L 211 500 Z" style="fill: #0070C0;"></path>
                                                                        <path d="M 356 487 Q 440 511 444 513 Q 453 520 447 529 Q 440 539 412 546 Q 384 550 357 538 L 313 523 Q 300 520 287 516 Q 253 507 211 500 C 181 495 167 487 195 477 Q 234 461 299 475 Q 303 476 311 477 L 356 487 Z" style="fill: #0070C0;"></path>
                                                                        <path d="M 303 280 Q 294 151 275 89 Q 262 46 288 -13 Q 294 -31 302 -35 Q 308 -42 316 -33 Q 323 -29 334 -8 Q 344 17 344 48 Q 344 84 350 313 L 351 345 Q 352 409 356 487 L 357 538 Q 369 701 381 739 Q 391 755 388 768 Q 381 778 326 813 Q 302 831 281 816 Q 277 810 282 795 Q 313 747 314 666 Q 314 596 313 523 L 311 477 Q 307 402 304 321 L 303 280 Z" style="fill: #0070C0;"></path>
                                                                        <path d="M 304 321 Q 87 212 77 207 Q 62 203 59 193 Q 58 183 71 169 Q 90 153 113 144 Q 129 138 140 151 Q 197 205 303 280 L 350 313 Q 365 325 381 334 Q 402 346 412 360 Q 419 373 408 373 Q 398 373 351 345 L 304 321 Z" style="fill: #0070C0;"></path>
                                                                        <path d="M 542 496 Q 542 506 574 567 Q 581 580 567 590 Q 525 614 503 607 Q 493 603 497 591 Q 519 527 458 417 Q 452 416 431 375 Q 427 360 439 367 Q 481 382 529 470 L 542 496 Z" style="fill: #0070C0;"></path>
                                                                        <path d="M 529 470 Q 565 455 630 466 Q 637 467 647 468 L 698 479 Q 833 512 835 513 Q 844 520 839 529 Q 832 539 804 547 Q 777 553 700 527 L 648 513 Q 599 503 542 496 C 512 492 501 480 529 470 Z" style="fill: #0070C0;"></path>
                                                                        <path d="M 645 332 Q 641 332 640 331 Q 591 321 533 316 Q 499 310 523 294 Q 562 270 620 283 Q 630 286 645 287 L 693 296 Q 813 323 815 325 Q 822 332 819 341 Q 812 351 784 359 Q 762 365 695 345 L 645 332 Z" style="fill: #0070C0;"></path>
                                                                        <path d="M 647 468 Q 646 402 645 332 L 645 287 Q 644 217 643 142 C 643 112 689 119 689 149 Q 690 225 693 296 L 695 345 Q 695 415 698 479 L 700 527 Q 706 689 719 735 Q 732 756 717 769 Q 681 797 653 806 Q 637 809 623 797 Q 617 790 623 779 Q 654 727 651 670 Q 650 594 648 513 L 647 468 Z" style="fill: #0070C0;"></path>
                                                                        <path d="M 643 142 Q 534 127 409 111 Q 387 108 403 91 Q 436 61 486 73 Q 627 113 938 114 Q 959 114 963 123 Q 969 135 952 149 Q 892 194 821 173 Q 766 164 689 149 L 643 142 Z" style="fill: #0070C0;"></path>
                                    
                                    
                                                                                                                                                                                                                                                                                                                                                                                                                                                                                                                                                                                                                                                                                                                                                                                        </g>
                            </svg>