<svg width='83' height='83' >
                                <g transform="translate(3, 70) scale(0.07, -0.07)">
                                    <!-- 先将完整的字以灰色字体绘制完成，层级位于下面 -->
                                                                        <path d="M 209 508 Q 248 571 258 580 Q 265 590 261 602 Q 257 612 231 631 Q 207 646 190 645 Q 174 644 182 624 Q 192 608 187 593 Q 160 506 89 399 Q 80 390 78 384 Q 77 374 88 377 Q 119 386 201 496 L 209 508 Z" style="fill: #0070C0;"></path>
                                                                        <path d="M 352 503 Q 382 513 415 522 Q 442 529 445 534 Q 452 541 448 550 Q 441 560 413 564 Q 371 568 353 550 L 310 534 Q 303 533 296 530 Q 260 518 217 511 Q 211 510 209 508 C 195 503 195 503 201 496 Q 207 484 245 480 Q 267 479 309 491 L 352 503 Z" style="fill: #0070C0;"></path>
                                                                        <path d="M 349 363 Q 350 427 352 503 L 353 550 Q 353 674 373 746 Q 388 771 358 791 Q 343 803 318 817 Q 296 833 275 819 Q 271 815 277 799 Q 307 750 309 673 Q 309 604 310 534 L 309 491 Q 306 419 305 343 L 304 299 Q 304 197 278 109 Q 268 72 292 10 Q 299 -8 307 -11 Q 313 -18 320 -9 Q 347 7 347 70 Q 346 104 348 325 L 349 363 Z" style="fill: #0070C0;"></path>
                                                                        <path d="M 348 325 Q 414 367 426 379 Q 438 388 437 397 Q 431 401 419 397 Q 385 381 349 363 L 305 343 Q 125 264 92 259 Q 79 256 78 246 Q 78 233 88 225 Q 113 212 148 198 Q 158 197 169 206 Q 218 254 304 299 L 348 325 Z" style="fill: #0070C0;"></path>
                                                                        <path d="M 643 670 Q 722 724 754 732 Q 778 739 768 761 Q 756 780 729 799 Q 705 817 691 815 Q 678 815 680 800 Q 681 769 601 694 Q 561 660 518 620 C 496 600 508 592 534 607 Q 577 631 611 650 L 643 670 Z" style="fill: #0070C0;"></path>
                                                                        <path d="M 518 620 Q 503 627 477 634 Q 461 637 456 632 Q 449 625 460 608 Q 502 548 484 340 Q 466 255 431 215 Q 421 203 427 183 Q 436 156 449 144 Q 461 135 473 149 Q 513 198 631 299 Q 647 309 648 318 Q 649 324 644 323 Q 635 323 541 271 Q 534 268 530 270 Q 524 274 526 289 Q 533 605 534 607 C 534 614 534 614 518 620 Z" style="fill: #0070C0;"></path>
                                                                        <path d="M 709 465 Q 764 484 823 501 Q 863 516 870 522 Q 877 531 872 538 Q 865 548 837 551 Q 809 554 783 540 Q 743 521 699 504 L 654 489 Q 611 477 565 467 Q 532 458 557 445 Q 594 430 655 448 Q 659 449 665 450 L 709 465 Z" style="fill: #0070C0;"></path>
                                                                        <path d="M 665 450 Q 725 243 862 133 Q 865 132 870 128 Q 924 89 958 81 Q 985 82 982 116 Q 975 147 987 286 Q 988 299 982 301 Q 976 302 972 289 Q 956 259 941 231 Q 922 192 907 195 Q 888 196 852 231 Q 813 265 779 319 Q 734 389 709 465 L 699 504 Q 689 570 702 611 Q 709 641 643 670 C 616 683 596 676 611 650 Q 630 623 638 576 Q 644 531 654 489 L 665 450 Z" style="fill: #0070C0;"></path>
                                                                        <path d="M 415 85 Q 396 82 410 67 Q 423 54 441 50 Q 460 46 475 50 Q 601 87 803 87 L 805 87 Q 824 87 828 95 Q 832 107 817 119 Q 760 156 710 138 Q 496 99 415 85 Z" style="fill: #0070C0;"></path>
                                    
                                    
                                                                                                                                                                                                                                                                                                                                                                                                                                                                                                                                                                                                                                                                                                                                                                                        </g>
                            </svg>