<svg width='83' height='83' >
                                <g transform="translate(3, 70) scale(0.07, -0.07)">
                                    <!-- 先将完整的字以灰色字体绘制完成，层级位于下面 -->
                                                                        <path d="M 700 685 Q 725 730 750 741 Q 768 757 755 776 Q 682 836 633 812 Q 516 775 362 756 C 332 752 343 721 373 726 Q 376 726 624 772 Q 651 779 662 767 Q 668 758 647 692 C 638 663 685 659 700 685 Z" style="fill: #0070C0;"></path>
                                                                        <path d="M 348 625 Q 366 607 388 612 Q 488 636 708 656 Q 718 657 719 665 Q 719 672 700 685 C 680 700 676 699 647 692 Q 487 655 358 641 Q 354 641 350 639 C 335 636 335 636 348 625 Z" style="fill: #0070C0;"></path>
                                                                        <path d="M 362 756 Q 349 769 327 780 Q 308 793 295 789 Q 282 782 288 768 Q 306 735 300 686 Q 266 448 213 330 Q 165 225 69 98 Q 63 92 61 86 Q 57 76 68 77 Q 83 77 128 126 Q 293 282 345 608 Q 346 617 348 625 L 350 639 Q 354 661 359 679 Q 362 695 373 726 C 379 743 379 743 362 756 Z" style="fill: #0070C0;"></path>
                                                                        <path d="M 527 608 Q 539 581 532 514 Q 529 499 546 474 Q 553 467 561 475 Q 570 487 577 554 Q 576 557 581 585 Q 587 601 572 610 Q 559 619 547 625 Q 537 629 530 625 Q 524 621 527 608 Z" style="fill: #0070C0;"></path>
                                                                        <path d="M 409 568 Q 451 529 470 531 Q 480 532 483 547 Q 482 557 472 572 Q 454 590 409 589 Q 402 589 402 580 Q 402 573 409 568 Z" style="fill: #0070C0;"></path>
                                                                        <path d="M 374 472 Q 367 469 366 463 Q 366 456 373 451 Q 389 444 411 436 Q 414 436 444 463 Q 471 485 488 502 Q 495 508 495 514 Q 435 493 374 472 Z" style="fill: #0070C0;"></path>
                                                                        <path d="M 659 603 Q 644 585 616 557 Q 612 553 615 548 Q 619 547 625 548 Q 680 575 706 583 Q 718 584 716 593 Q 713 603 703 617 Q 691 630 677 634 Q 667 635 666 622 Q 666 613 659 603 Z" style="fill: #0070C0;"></path>
                                                                        <path d="M 634 484 Q 659 468 687 447 Q 697 440 708 442 Q 715 443 718 452 Q 719 462 711 482 Q 699 504 626 516 Q 616 517 612 514 Q 608 511 611 503 Q 614 496 634 484 Z" style="fill: #0070C0;"></path>
                                                                        <path d="M 416 329 Q 426 342 440 355 Q 450 365 439 378 Q 402 412 384 410 Q 374 409 375 396 Q 375 339 292 253 Q 289 250 286 246 Q 277 234 291 237 Q 336 237 398 309 L 416 329 Z" style="fill: #0070C0;"></path>
                                                                        <path d="M 589 310 Q 721 332 730 338 Q 737 345 734 353 Q 728 363 702 372 Q 681 378 590 354 L 533 342 Q 478 335 416 329 C 386 326 371 322 398 309 L 399 309 Q 438 285 491 296 Q 510 300 534 301 L 589 310 Z" style="fill: #0070C0;"></path>
                                                                        <path d="M 585 191 Q 657 197 851 197 Q 870 197 875 206 Q 879 216 864 230 Q 815 269 778 260 Q 703 245 586 227 L 533 220 Q 401 204 248 185 Q 229 184 243 167 Q 256 154 274 148 Q 293 144 309 147 Q 394 171 533 186 L 585 191 Z" style="fill: #0070C0;"></path>
                                                                        <path d="M 535 -44 Q 539 -68 546 -77 Q 552 -84 559 -82 Q 572 -73 579 -17 Q 579 -5 585 191 L 586 227 Q 587 264 589 310 L 590 354 Q 590 364 592 370 Q 602 416 588 427 Q 557 448 543 450 Q 531 454 516 447 Q 507 440 514 429 Q 532 399 533 342 L 534 301 Q 534 264 533 220 L 533 186 Q 527 18 535 -44 Z" style="fill: #0070C0;"></path>
                                    
                                    
                                                                                                                                                                                                                                                                                                                                                                                                                                                                                                                                                                                                                                                                                                                                                                                                                                                                                                                                                                                                                            </g>
                            </svg>