<svg width='83' height='83' >
                                <g transform="translate(3, 70) scale(0.07, -0.07)">
                                    <!-- 先将完整的字以灰色字体绘制完成，层级位于下面 -->
                                                                        <path d="M 517 600 Q 524 609 531 617 Q 573 671 610 713 Q 623 725 610 742 Q 568 784 543 784 Q 530 783 531 767 Q 530 706 483 638 L 452 597 Q 448 594 445 589 Q 405 540 356 504 Q 316 476 295 456 Q 285 441 301 444 Q 364 448 481 560 L 517 600 Z" style="fill: #0070C0;"></path>
                                                                        <path d="M 537 398 Q 564 263 528 112 Q 527 109 526 105 Q 522 92 514 90 Q 490 86 426 106 Q 395 115 389 108 Q 386 102 397 90 Q 457 50 497 11 Q 516 -16 526 -15 Q 533 -16 548 -1 Q 624 119 583 416 Q 576 464 563 503 Q 547 558 522 593 Q 519 597 517 600 L 483 638 Q 435 686 374 711 Q 359 718 355 707 Q 351 692 359 672 Q 369 653 387 648 Q 411 639 452 597 L 481 560 Q 497 544 520 477 L 537 398 Z" style="fill: #0070C0;"></path>
                                                                        <path d="M 438 349 Q 389 285 272 168 Q 265 158 277 155 Q 298 152 419 257 Q 479 311 537 398 C 554 423 535 503 520 477 Q 483 410 438 349 Z" style="fill: #0070C0;"></path>
                                    
                                    
                                                                                                                                                                                                                                                                                                                </g>
                            </svg>