<svg width='83' height='83' >
                                <g transform="translate(3, 70) scale(0.07, -0.07)">
                                    <!-- 先将完整的字以灰色字体绘制完成，层级位于下面 -->
                                                                        <path d="M 309 621 Q 369 708 399 745 Q 411 757 397 772 Q 360 809 333 807 Q 321 806 323 791 Q 323 737 286 669 L 257 627 Q 253 623 250 618 Q 214 569 170 533 Q 133 502 114 484 Q 104 469 120 473 Q 169 476 273 579 L 309 621 Z" style="fill: #0070C0;"></path>
                                                                        <path d="M 300 411 Q 312 249 270 119 Q 263 100 252 97 Q 240 94 208 103 Q 178 113 174 108 Q 170 102 180 90 Q 213 56 232 24 Q 251 -4 263 -4 Q 273 -5 294 19 Q 363 104 357 349 Q 354 401 348 456 Q 336 552 309 621 L 286 669 Q 264 708 177 740 Q 176 741 174 741 Q 159 745 157 734 Q 156 719 166 702 Q 178 684 196 684 Q 233 672 257 627 L 273 579 Q 285 539 292 494 L 300 411 Z" style="fill: #0070C0;"></path>
                                                                        <path d="M 292 494 Q 231 371 60 198 Q 53 188 65 186 Q 83 183 196 282 Q 250 331 300 411 C 316 436 306 521 292 494 Z" style="fill: #0070C0;"></path>
                                                                        <path d="M 623 647 Q 782 690 793 697 Q 802 707 796 715 Q 787 728 756 734 Q 723 738 692 723 Q 649 707 604 692 Q 552 677 492 669 Q 453 660 482 643 Q 524 625 570 633 L 623 647 Z" style="fill: #0070C0;"></path>
                                                                        <path d="M 655 430 Q 709 442 925 460 Q 946 461 950 471 Q 954 484 937 497 Q 877 534 842 521 Q 772 500 655 473 L 600 461 Q 507 442 403 420 Q 381 416 399 399 Q 435 372 496 393 Q 545 409 600 419 L 655 430 Z" style="fill: #0070C0;"></path>
                                                                        <path d="M 604 -5 Q 610 -30 617 -41 Q 623 -48 631 -46 Q 646 -37 653 26 Q 660 105 658 185 Q 654 242 655 430 L 655 473 Q 655 552 667 600 Q 670 619 655 629 Q 636 641 623 647 C 597 661 555 659 570 633 Q 571 632 573 629 Q 577 619 584 610 Q 597 586 599 552 Q 600 510 600 461 L 600 419 Q 600 26 604 -5 Z" style="fill: #0070C0;"></path>
                                    
                                    
                                                                                                                                                                                                                                                                                                                                                                                                                                                                                                                                                    </g>
                            </svg>