<svg width='83' height='83' >
                                <g transform="translate(3, 70) scale(0.07, -0.07)">
                                    <!-- 先将完整的字以灰色字体绘制完成，层级位于下面 -->
                                                                        <path d="M 309 582 Q 325 601 340 622 Q 377 673 412 714 Q 424 726 410 743 Q 368 785 342 782 Q 329 781 331 765 Q 332 699 279 624 L 247 582 Q 238 573 122 464 Q 112 449 129 453 Q 174 456 271 542 L 309 582 Z" style="fill: #0070C0;"></path>
                                                                        <path d="M 312 400 Q 322 219 288 113 Q 284 100 276 100 Q 258 94 206 100 Q 173 107 169 101 Q 166 94 178 82 Q 227 48 259 16 Q 275 -6 283 -6 Q 290 -7 305 7 Q 392 110 357 426 Q 351 462 344 491 Q 329 546 309 582 L 279 624 Q 234 681 171 709 Q 158 719 152 707 Q 148 692 154 672 Q 161 651 180 646 Q 211 633 247 582 L 271 542 Q 287 509 296 480 L 312 400 Z" style="fill: #0070C0;"></path>
                                                                        <path d="M 296 480 Q 233 347 64 167 Q 57 157 69 155 Q 88 151 201 256 Q 256 308 309 395 Q 310 398 312 400 C 328 426 309 507 296 480 Z" style="fill: #0070C0;"></path>
                                                                        <path d="M 721 407 Q 742 449 757 602 Q 767 657 802 693 Q 820 712 801 726 Q 780 742 725 763 Q 713 769 656 752 Q 611 742 545 721 Q 499 706 469 700 Q 451 699 449 693 Q 446 687 464 676 Q 501 660 523 670 Q 568 688 672 710 Q 691 713 698 710 Q 714 703 710 655 Q 694 477 682 441 Q 673 416 686 402 C 697 374 710 379 721 407 Z" style="fill: #0070C0;"></path>
                                                                        <path d="M 686 402 Q 635 395 559 379 Q 538 375 535 391 Q 553 539 565 564 Q 572 579 566 590 Q 551 608 528 620 Q 512 627 502 620 Q 496 616 503 604 Q 510 582 506 534 Q 502 497 496 450 Q 492 404 479 368 Q 472 347 486 332 Q 504 314 528 328 Q 591 367 776 379 Q 807 382 820 369 Q 832 357 818 314 Q 808 244 794 169 Q 784 111 757 74 Q 750 61 724 58 Q 687 70 653 78 Q 638 82 639 75 Q 639 71 648 63 Q 709 12 732 -23 Q 741 -42 758 -33 Q 822 0 836 73 Q 858 173 875 285 Q 884 324 903 355 Q 916 371 904 384 Q 886 405 849 427 Q 827 440 799 427 Q 759 411 721 407 L 686 402 Z" style="fill: #0070C0;"></path>
                                                                        <path d="M 386 200 Q 367 197 382 183 Q 395 171 412 167 Q 431 163 445 168 Q 553 204 721 204 L 723 204 Q 741 205 745 213 Q 749 223 734 235 Q 677 268 619 249 Q 604 246 386 200 Z" style="fill: #0070C0;"></path>
                                    
                                    
                                                                                                                                                                                                                                                                                                                                                                                                                                                                                                                                                    </g>
                            </svg>