<svg width='83' height='83' >
                                <g transform="translate(3, 70) scale(0.07, -0.07)">
                                    <!-- 先将完整的字以灰色字体绘制完成，层级位于下面 -->
                                                                        <path d="M 313 607 Q 326 623 339 639 Q 379 690 414 731 Q 426 741 413 759 Q 371 801 348 798 Q 336 797 337 782 Q 334 715 284 647 L 252 607 Q 216 564 173 530 Q 134 502 115 484 Q 105 471 120 472 Q 172 475 277 569 L 313 607 Z" style="fill: #0070C0;"></path>
                                                                        <path d="M 314 407 Q 329 247 281 115 Q 274 99 263 95 Q 244 92 194 105 Q 163 115 158 108 Q 154 102 165 89 Q 213 52 244 16 Q 263 -11 272 -10 Q 282 -11 302 10 Q 368 88 369 309 Q 369 357 364 407 Q 352 536 313 607 L 284 647 Q 235 701 155 725 Q 140 731 138 719 Q 135 703 145 685 Q 157 666 176 664 Q 216 652 252 607 L 277 569 Q 289 542 302 490 L 314 407 Z" style="fill: #0070C0;"></path>
                                                                        <path d="M 302 490 Q 241 364 60 179 Q 53 169 65 167 Q 86 164 202 267 Q 259 321 314 407 C 330 432 315 517 302 490 Z" style="fill: #0070C0;"></path>
                                                                        <path d="M 765 169 Q 796 377 828 516 Q 835 552 856 573 Q 871 589 858 609 Q 848 622 796 658 Q 778 673 717 649 Q 579 613 485 610 Q 467 610 468 603 Q 469 591 492 577 Q 513 562 550 571 L 588 579 Q 691 603 740 607 Q 762 611 768 603 Q 774 590 769 562 Q 757 480 746 405 L 740 365 Q 724 256 709 162 C 704 132 761 139 765 169 Z" style="fill: #0070C0;"></path>
                                                                        <path d="M 550 571 L 551 570 Q 555 554 562 541 Q 566 522 562 488 Q 561 470 549 385 L 543 342 Q 531 264 515 141 C 511 111 559 117 564 147 Q 582 256 597 350 L 605 394 Q 611 446 625 509 Q 635 528 627 540 Q 608 565 588 579 C 564 598 540 599 550 571 Z" style="fill: #0070C0;"></path>
                                                                        <path d="M 549 385 Q 465 379 445 376 Q 417 375 438 356 Q 463 331 513 338 Q 525 341 543 342 L 597 350 Q 660 362 740 365 C 770 366 773 391 746 405 Q 742 408 733 411 Q 717 418 696 414 Q 654 404 611 396 Q 607 396 605 394 L 549 385 Z" style="fill: #0070C0;"></path>
                                                                        <path d="M 515 141 Q 451 137 382 130 Q 360 129 375 111 Q 390 96 408 90 Q 430 83 446 87 Q 654 135 937 115 Q 938 116 940 115 Q 961 114 966 123 Q 972 135 955 150 Q 895 196 827 179 Q 797 175 765 169 L 709 162 Q 679 161 647 155 Q 607 152 564 147 L 515 141 Z" style="fill: #0070C0;"></path>
                                    
                                    
                                                                                                                                                                                                                                                                                                                                                                                                                                                                                                                                                                                                                                </g>
                            </svg>