<svg width='83' height='83' >
                                <g transform="translate(3, 70) scale(0.07, -0.07)">
                                    <!-- 先将完整的字以灰色字体绘制完成，层级位于下面 -->
                                                                        <path d="M 308 575 Q 324 594 340 616 Q 380 671 416 714 Q 428 726 414 743 Q 372 785 346 782 Q 334 781 335 765 Q 335 696 280 617 L 248 576 Q 212 533 170 498 Q 130 467 110 448 Q 100 433 117 437 Q 168 440 271 536 L 308 575 Z" style="fill: #0070C0;"></path>
                                                                        <path d="M 357 391 Q 345 509 308 575 L 280 617 Q 232 677 166 702 Q 153 711 147 699 Q 143 684 151 664 Q 160 643 178 640 Q 205 628 248 576 L 271 536 Q 286 506 293 478 L 308 396 Q 323 222 281 103 Q 275 88 268 88 Q 250 87 206 102 Q 175 115 170 108 Q 166 102 176 89 Q 219 49 245 11 Q 264 -19 275 -18 Q 282 -19 299 -3 Q 372 81 360 350 Q 359 363 358 376 L 357 391 Z" style="fill: #0070C0;"></path>
                                                                        <path d="M 293 478 Q 239 358 64 167 Q 57 157 69 155 Q 88 151 199 254 Q 254 306 305 391 Q 306 394 308 396 C 323 422 306 505 293 478 Z" style="fill: #0070C0;"></path>
                                                                        <path d="M 624 691 Q 628 706 642 719 Q 649 726 646 736 Q 643 746 629 757 Q 613 770 592 774 Q 568 778 557 775 Q 548 772 552 759 Q 574 690 472 530 Q 468 524 464 518 Q 433 475 357 391 C 337 369 332 361 358 376 Q 494 451 610 664 L 624 691 Z" style="fill: #0070C0;"></path>
                                                                        <path d="M 610 664 Q 626 651 638 633 Q 813 405 846 398 Q 898 398 975 416 Q 988 419 994 426 Q 997 432 988 436 Q 841 491 762 558 Q 705 606 634 681 Q 630 688 624 691 C 603 712 588 684 610 664 Z" style="fill: #0070C0;"></path>
                                                                        <path d="M 492 438 Q 455 431 483 415 Q 528 391 583 408 Q 635 420 691 433 Q 716 440 720 443 Q 729 452 724 460 Q 717 472 686 478 Q 655 482 625 469 Q 597 459 566 451 Q 532 444 492 438 Z" style="fill: #0070C0;"></path>
                                                                        <path d="M 576 281 Q 660 297 806 298 Q 824 299 828 307 Q 832 319 817 331 Q 759 368 702 348 Q 444 300 415 293 Q 396 290 410 275 Q 423 263 441 258 Q 460 254 475 259 Q 500 268 530 272 L 576 281 Z" style="fill: #0070C0;"></path>
                                                                        <path d="M 726 143 Q 626 127 521 109 Q 514 108 511 110 Q 510 111 514 118 Q 577 220 602 246 Q 615 261 605 268 Q 598 277 576 281 C 547 289 530 294 530 272 Q 530 229 526 215 Q 525 214 524 211 Q 491 132 429 92 Q 395 77 410 41 Q 411 40 413 36 Q 423 18 436 14 Q 443 11 453 17 Q 538 71 738 126 C 767 134 756 148 726 143 Z" style="fill: #0070C0;"></path>
                                                                        <path d="M 738 126 Q 804 20 808 17 Q 815 14 825 22 Q 840 32 837 75 Q 837 130 690 237 Q 683 244 678 232 Q 675 220 682 208 Q 703 180 726 143 L 738 126 Z" style="fill: #0070C0;"></path>
                                    
                                    
                                                                                                                                                                                                                                                                                                                                                                                                                                                                                                                                                                                                                                                                                                                                                                                        </g>
                            </svg>