<svg width='83' height='83' >
                                <g transform="translate(3, 70) scale(0.07, -0.07)">
                                    <!-- 先将完整的字以灰色字体绘制完成，层级位于下面 -->
                                                                        <path d="M 312 585 Q 336 624 408 710 Q 420 722 406 739 Q 364 781 338 778 Q 326 777 327 761 Q 327 700 280 625 L 248 582 Q 245 579 242 574 Q 202 522 153 484 Q 111 453 90 432 Q 80 417 97 421 Q 160 424 274 541 L 312 585 Z" style="fill: #0070C0;"></path>
                                                                        <path d="M 319 403 Q 341 247 292 120 Q 286 107 279 106 Q 261 103 212 116 Q 179 126 174 120 Q 170 114 181 100 Q 227 60 257 23 Q 275 -5 286 -4 Q 293 -5 309 10 Q 378 83 375 333 Q 374 340 374 345 Q 371 498 312 585 L 280 625 Q 222 683 163 707 Q 148 716 143 703 Q 139 688 147 667 Q 157 646 176 642 Q 206 630 248 582 L 274 541 Q 289 516 299 492 L 319 403 Z" style="fill: #0070C0;"></path>
                                                                        <path d="M 299 492 Q 245 339 70 176 Q 58 163 68 161 Q 78 157 90 164 Q 201 213 306 381 Q 313 394 319 403 C 335 428 309 520 299 492 Z" style="fill: #0070C0;"></path>
                                                                        <path d="M 480 696 Q 468 700 465 694 Q 458 688 467 672 Q 491 629 507 555 Q 510 533 524 519 Q 542 497 547 513 Q 548 520 550 531 L 547 565 Q 535 644 535 663 C 534 683 509 689 480 696 Z" style="fill: #0070C0;"></path>
                                                                        <path d="M 751 585 Q 778 651 804 669 Q 820 688 806 705 Q 790 718 738 743 Q 720 750 650 724 Q 527 691 480 696 C 450 697 506 657 535 663 L 686 694 Q 702 698 710 690 Q 720 680 702 598 C 696 569 739 557 751 585 Z" style="fill: #0070C0;"></path>
                                                                        <path d="M 550 531 Q 557 530 567 532 Q 627 545 756 557 Q 766 558 768 567 Q 768 574 751 585 C 728 601 728 601 702 598 Q 695 598 691 596 Q 612 577 547 565 C 518 560 520 532 550 531 Z" style="fill: #0070C0;"></path>
                                                                        <path d="M 536 225 Q 537 268 541 300 L 543 325 Q 547 382 550 401 Q 550 405 550 409 C 551 428 551 428 531 439 Q 503 455 486 454 Q 473 450 478 438 Q 518 348 476 159 Q 454 99 456 89 Q 456 62 475 38 Q 482 25 492 30 Q 534 57 534 190 Q 534 194 535 198 L 536 225 Z" style="fill: #0070C0;"></path>
                                                                        <path d="M 550 409 Q 559 410 685 440 Q 706 446 711 435 Q 730 390 731 136 Q 731 82 722 66 Q 718 60 698 64 Q 677 67 656 70 Q 635 77 636 67 Q 685 19 713 -16 Q 726 -35 743 -41 Q 753 -45 762 -34 Q 807 24 799 103 Q 772 379 789 416 Q 790 420 793 424 Q 805 445 792 455 Q 770 474 730 489 Q 711 496 695 489 Q 632 455 531 439 C 501 434 521 403 550 409 Z" style="fill: #0070C0;"></path>
                                                                        <path d="M 541 300 Q 545 299 552 300 Q 622 310 675 317 Q 697 321 689 333 Q 679 346 655 351 Q 631 354 543 325 C 514 316 511 303 541 300 Z" style="fill: #0070C0;"></path>
                                                                        <path d="M 535 198 Q 539 197 547 198 Q 626 210 686 216 Q 710 220 701 232 Q 691 247 665 252 Q 638 258 536 225 C 507 216 505 201 535 198 Z" style="fill: #0070C0;"></path>
                                    
                                    
                                                                                                                                                                                                                                                                                                                                                                                                                                                                                                                                                                                                                                                                                                                                                                                                                                                                    </g>
                            </svg>