<svg width='83' height='83' >
                                <g transform="translate(3, 70) scale(0.07, -0.07)">
                                    <!-- 先将完整的字以灰色字体绘制完成，层级位于下面 -->
                                                                        <path d="M 275 599 Q 296 635 358 710 Q 368 722 357 737 Q 317 773 295 771 Q 283 770 284 756 Q 284 699 244 633 L 217 595 Q 181 547 139 513 Q 105 485 86 467 Q 77 454 92 457 Q 144 460 243 562 L 275 599 Z" style="fill: #0070C0;"></path>
                                                                        <path d="M 283 391 Q 290 250 250 142 Q 243 124 232 121 Q 219 120 180 131 Q 150 141 146 136 Q 142 130 152 118 Q 189 81 212 48 Q 231 20 242 20 Q 252 20 271 42 Q 359 153 330 418 Q 317 538 275 599 L 244 633 Q 201 669 129 689 Q 114 693 112 682 Q 112 667 123 650 Q 136 634 154 633 Q 181 627 217 595 L 243 562 Q 270 480 272 473 L 283 391 Z" style="fill: #0070C0;"></path>
                                                                        <path d="M 272 473 Q 217 356 56 186 Q 49 176 61 174 Q 77 171 184 267 Q 235 315 283 391 C 299 416 285 500 272 473 Z" style="fill: #0070C0;"></path>
                                                                        <path d="M 497 635 Q 593 680 613 686 Q 629 687 632 695 Q 635 705 623 715 Q 569 749 534 744 Q 527 740 527 729 Q 528 693 372 603 Q 368 594 373 592 Q 385 592 458 620 L 497 635 Z" style="fill: #0070C0;"></path>
                                                                        <path d="M 528 467 Q 537 471 547 473 Q 617 488 624 500 Q 624 510 602 517 Q 569 533 530 514 L 483 497 Q 450 487 421 478 Q 399 474 373 466 Q 348 460 369 447 Q 402 426 429 438 Q 448 445 475 452 L 528 467 Z" style="fill: #0070C0;"></path>
                                                                        <path d="M 483 336 Q 479 179 474 151 Q 456 70 471 36 Q 472 30 476 23 Q 482 8 489 5 Q 493 -1 500 6 Q 507 10 516 28 Q 519 40 523 134 Q 524 300 528 467 L 530 514 Q 533 548 542 576 Q 549 589 547 601 Q 541 608 497 635 C 472 651 442 646 458 620 Q 482 586 483 550 Q 483 525 483 497 L 483 336 Z" style="fill: #0070C0;"></path>
                                                                        <path d="M 475 452 Q 450 338 341 147 Q 337 137 347 138 Q 365 138 442 256 Q 464 290 483 336 C 547 489 482 481 475 452 Z" style="fill: #0070C0;"></path>
                                                                        <path d="M 541 356 Q 586 290 611 287 Q 623 284 629 300 Q 632 312 624 330 Q 612 357 547 379 Q 540 380 537 371 Q 536 364 541 356 Z" style="fill: #0070C0;"></path>
                                                                        <path d="M 654 553 Q 684 487 663 331 Q 657 295 684 266 Q 693 256 702 266 Q 720 293 720 364 Q 720 484 725 525 Q 732 547 712 558 Q 696 568 679 576 Q 667 580 658 574 Q 651 568 654 553 Z" style="fill: #0070C0;"></path>
                                                                        <path d="M 813 710 Q 817 673 816 110 Q 816 86 803 77 Q 799 74 733 83 Q 700 95 703 85 Q 704 78 724 63 Q 785 14 801 -13 Q 819 -46 834 -47 Q 849 -48 863 -13 Q 879 33 877 107 Q 861 354 867 604 Q 870 692 883 737 Q 899 768 844 789 Q 810 808 791 800 Q 773 793 790 771 Q 812 744 813 710 Z" style="fill: #0070C0;"></path>
                                    
                                    
                                                                                                                                                                                                                                                                                                                                                                                                                                                                                                                                                                                                                                                                                                                                                                                                                                                                    </g>
                            </svg>