<svg width='83' height='83' >
                                <g transform="translate(3, 70) scale(0.07, -0.07)">
                                    <!-- 先将完整的字以灰色字体绘制完成，层级位于下面 -->
                                                                        <path d="M 294 597 Q 304 610 315 625 Q 349 671 379 709 Q 391 721 377 736 Q 338 775 313 772 Q 301 771 303 756 Q 303 705 265 637 L 236 596 Q 205 556 168 524 Q 134 496 118 480 Q 108 465 124 469 Q 172 472 260 559 L 294 597 Z" style="fill: #0070C0;"></path>
                                                                        <path d="M 294 412 Q 294 411 295 409 Q 305 246 258 128 Q 251 112 242 110 Q 227 109 188 122 Q 158 134 154 128 Q 150 122 159 109 Q 196 72 219 37 Q 237 9 248 9 Q 255 8 275 26 Q 353 107 344 380 Q 343 387 343 393 Q 337 528 294 597 L 265 637 Q 226 680 156 707 Q 141 714 138 702 Q 137 689 144 669 Q 154 650 172 648 Q 205 638 236 596 L 260 559 Q 273 534 283 491 L 294 412 Z" style="fill: #0070C0;"></path>
                                                                        <path d="M 283 491 Q 220 371 64 206 Q 57 196 69 194 Q 84 191 197 290 Q 246 338 294 412 C 310 437 297 517 283 491 Z" style="fill: #0070C0;"></path>
                                                                        <path d="M 524 541 Q 558 551 594 559 Q 624 568 628 572 Q 635 579 631 586 Q 624 596 599 601 Q 566 607 530 586 L 480 570 Q 438 561 390 552 Q 359 546 382 532 Q 409 517 478 530 L 524 541 Z" style="fill: #0070C0;"></path>
                                                                        <path d="M 506 403 Q 515 473 524 541 L 530 586 Q 539 682 562 749 Q 566 759 548 775 Q 515 796 492 802 Q 476 806 468 798 Q 461 791 467 776 Q 486 742 486 720 Q 485 648 480 570 L 478 530 Q 472 464 464 391 C 461 361 502 373 506 403 Z" style="fill: #0070C0;"></path>
                                                                        <path d="M 412 383 Q 402 387 380 392 Q 370 395 366 391 Q 362 387 368 372 Q 390 321 403 239 Q 404 215 419 198 Q 432 179 438 192 Q 442 205 441 228 L 438 258 Q 426 334 425 358 C 424 379 424 379 412 383 Z" style="fill: #0070C0;"></path>
                                                                        <path d="M 583 277 Q 599 341 620 359 Q 641 381 620 395 Q 604 405 580 421 Q 564 431 546 422 Q 527 412 506 403 L 464 391 Q 439 387 412 383 C 382 379 396 350 425 358 Q 437 362 519 378 Q 544 384 551 373 Q 557 369 551 340 Q 545 313 538 283 C 531 254 575 248 583 277 Z" style="fill: #0070C0;"></path>
                                                                        <path d="M 441 228 Q 450 227 460 229 Q 502 239 593 247 Q 603 248 604 257 Q 604 264 583 277 L 538 283 Q 532 283 532 282 Q 480 267 438 258 C 409 252 411 230 441 228 Z" style="fill: #0070C0;"></path>
                                                                        <path d="M 704 362 Q 710 411 713 486 L 714 518 Q 714 633 716 648 C 717 671 717 671 698 679 Q 655 698 643 695 Q 625 691 640 671 Q 661 640 664 595 Q 671 537 666 416 Q 665 334 626 233 Q 601 166 505 61 Q 493 49 490 43 Q 489 36 500 37 Q 543 41 611 126 Q 681 213 700 332 L 704 362 Z" style="fill: #0070C0;"></path>
                                                                        <path d="M 716 648 Q 731 654 784 667 Q 805 671 810 660 Q 823 624 828 335 Q 829 107 815 80 Q 811 77 727 91 Q 708 97 709 87 Q 773 38 809 3 Q 822 -16 838 -20 Q 848 -23 856 -13 Q 895 44 892 91 Q 859 598 888 649 Q 900 668 887 679 Q 865 698 829 713 Q 810 720 757 694 Q 730 687 698 679 C 669 672 687 639 716 648 Z" style="fill: #0070C0;"></path>
                                                                        <path d="M 713 486 Q 761 495 794 500 Q 815 506 806 517 Q 794 530 770 531 Q 748 532 714 518 C 686 507 684 480 713 486 Z" style="fill: #0070C0;"></path>
                                                                        <path d="M 700 332 Q 760 339 803 345 Q 825 349 817 361 Q 807 374 783 378 Q 741 384 704 362 C 678 347 670 329 700 332 Z" style="fill: #0070C0;"></path>
                                    
                                    
                                                                                                                                                                                                                                                                                                                                                                                                                                                                                                                                                                                                                                                                                                                                                                                                                                                                                                                                                                                                                            </g>
                            </svg>