<svg width='83' height='83' >
                                <g transform="translate(3, 70) scale(0.07, -0.07)">
                                    <!-- 先将完整的字以灰色字体绘制完成，层级位于下面 -->
                                                                        <path d="M 299 594 Q 348 660 393 712 Q 405 724 393 740 Q 354 779 330 778 Q 318 777 319 762 Q 318 704 274 638 L 246 600 Q 158 513 153 508 Q 132 499 87 456 Q 77 443 92 444 Q 158 448 267 559 L 299 594 Z" style="fill: #0070C0;"></path>
                                                                        <path d="M 335 145 Q 372 356 316 550 Q 301 592 299 594 L 274 638 Q 249 686 151 719 Q 144 722 137 723 Q 124 729 121 717 Q 120 704 130 687 Q 140 669 158 669 Q 203 657 246 600 L 267 559 Q 276 532 282 503 L 296 424 Q 314 252 264 117 Q 257 98 246 95 Q 224 96 174 124 Q 147 137 142 132 Q 138 126 146 114 Q 194 69 224 29 Q 243 -2 255 -1 Q 265 -2 284 20 Q 311 53 331 128 L 335 145 Z" style="fill: #0070C0;"></path>
                                                                        <path d="M 282 503 Q 222 370 51 182 Q 45 172 56 170 Q 75 167 188 277 Q 243 332 295 422 Q 295 423 296 424 C 311 450 295 530 282 503 Z" style="fill: #0070C0;"></path>
                                                                        <path d="M 622 672 Q 760 708 763 710 Q 772 717 767 725 Q 760 735 733 742 Q 709 746 626 717 L 573 702 Q 527 692 475 686 Q 442 680 466 665 Q 499 650 573 661 L 622 672 Z" style="fill: #0070C0;"></path>
                                                                        <path d="M 614 593 Q 618 633 622 672 L 626 717 Q 626 732 642 806 Q 646 816 628 830 Q 597 848 574 852 Q 559 855 552 847 Q 545 840 552 827 Q 568 805 568 790 Q 571 748 573 702 L 573 661 Q 573 624 573 583 C 573 553 611 563 614 593 Z" style="fill: #0070C0;"></path>
                                                                        <path d="M 573 583 Q 486 565 385 544 Q 367 540 382 527 Q 409 506 442 515 Q 565 560 845 585 Q 861 586 865 594 Q 869 604 854 615 Q 803 648 758 630 Q 700 617 614 593 L 573 583 Z" style="fill: #0070C0;"></path>
                                                                        <path d="M 481 470 Q 469 474 450 475 Q 440 476 436 471 Q 432 465 440 452 Q 464 416 483 355 Q 487 337 499 326 C 529 295 530 322 520 362 Q 505 423 502 444 C 499 465 499 465 481 470 Z" style="fill: #0070C0;"></path>
                                                                        <path d="M 708 393 Q 729 447 750 459 Q 763 475 751 491 Q 687 542 634 512 Q 556 487 481 470 C 452 463 472 439 502 444 Q 512 445 522 449 Q 660 482 668 475 Q 675 469 673 456 Q 669 425 662 397 C 655 368 697 365 708 393 Z" style="fill: #0070C0;"></path>
                                                                        <path d="M 529 334 Q 533 333 541 335 Q 596 350 718 365 Q 728 366 728 374 Q 728 381 708 393 L 662 397 L 661 397 Q 582 375 520 362 C 491 356 499 334 529 334 Z" style="fill: #0070C0;"></path>
                                                                        <path d="M 499 326 Q 487 254 359 162 Q 347 155 335 145 C 312 126 303 119 331 128 Q 334 129 340 131 Q 406 150 472 203 L 501 229 Q 552 280 559 284 C 569 292 569 292 559 308 Q 553 321 531 333 Q 530 334 529 334 C 504 348 504 348 499 326 Z" style="fill: #0070C0;"></path>
                                                                        <path d="M 472 203 Q 494 155 479 94 Q 475 67 464 52 Q 452 33 460 13 Q 470 -15 485 -27 Q 495 -34 506 -17 Q 534 19 629 106 Q 645 119 646 126 Q 647 139 629 128 Q 595 109 555 89 Q 536 77 528 81 Q 521 85 521 104 Q 524 170 528 186 Q 532 204 519 214 Q 509 224 501 229 C 477 247 461 231 472 203 Z" style="fill: #0070C0;"></path>
                                                                        <path d="M 670 230 Q 694 242 785 297 Q 803 310 826 317 Q 845 324 837 342 Q 827 358 804 373 Q 783 388 772 386 Q 760 385 763 373 Q 763 349 686 270 Q 671 257 656 242 C 635 221 643 216 670 230 Z" style="fill: #0070C0;"></path>
                                                                        <path d="M 656 242 Q 629 264 602 289 Q 584 307 559 308 C 529 313 533 299 559 284 Q 580 278 672 179 Q 801 41 868 52 Q 872 53 878 55 Q 971 80 987 89 Q 993 96 981 103 Q 968 109 855 132 Q 771 153 670 230 L 656 242 Z" style="fill: #0070C0;"></path>
                                    
                                    
                                                                                                                                                                                                                                                                                                                                                                                                                                                                                                                                                                                                                                                                                                                                                                                                                                                                                                                                                                                                                                                                                                        </g>
                            </svg>