<svg width='83' height='83' >
                                <g transform="translate(3, 70) scale(0.07, -0.07)">
                                    <!-- 先将完整的字以灰色字体绘制完成，层级位于下面 -->
                                                                        <path d="M 290 605 Q 302 620 313 635 Q 350 684 383 725 Q 393 735 381 752 Q 342 791 317 788 Q 307 787 307 773 Q 307 715 263 645 L 234 606 Q 200 560 157 526 Q 120 498 102 480 Q 92 465 108 469 Q 160 472 257 568 L 290 605 Z" style="fill: #0070C0;"></path>
                                                                        <path d="M 293 401 Q 299 241 253 119 Q 246 103 235 100 Q 220 100 183 117 Q 155 129 150 124 Q 146 118 154 106 Q 191 67 213 33 Q 229 5 240 4 Q 249 3 268 21 Q 344 108 340 355 L 339 363 Q 327 505 317 539 Q 301 587 290 605 L 263 645 Q 218 699 143 726 Q 130 733 127 721 Q 124 708 132 690 Q 141 672 158 670 Q 195 655 234 606 L 257 568 Q 272 540 284 482 L 293 401 Z" style="fill: #0070C0;"></path>
                                                                        <path d="M 284 482 Q 248 416 205 360 Q 159 302 53 198 Q 46 189 57 186 Q 75 183 187 276 Q 239 324 293 401 C 310 425 299 508 284 482 Z" style="fill: #0070C0;"></path>
                                                                        <path d="M 581 613 Q 588 616 597 617 L 620 622 Q 743 655 748 658 Q 755 665 751 673 Q 744 683 717 690 Q 690 694 663 683 Q 627 670 591 658 L 540 644 Q 498 637 451 630 Q 418 624 442 609 Q 481 591 529 600 L 581 613 Z" style="fill: #0070C0;"></path>
                                                                        <path d="M 340 355 Q 383 355 446 390 L 483 416 Q 549 482 581 613 L 591 658 Q 597 728 623 787 Q 629 797 622 805 Q 607 821 577 837 Q 559 847 544 844 Q 525 840 538 822 Q 560 794 557 767 Q 551 698 540 644 L 529 600 Q 528 597 528 593 Q 515 541 493 501 L 476 473 Q 437 419 352 369 Q 343 366 339 363 C 319 353 319 353 340 355 Z" style="fill: #0070C0;"></path>
                                                                        <path d="M 597 617 Q 780 419 824 413 Q 909 413 955 423 Q 971 426 972 430 Q 973 436 961 440 Q 918 456 866 472 Q 817 488 744 530 L 728 540 Q 692 564 658 591 Q 636 610 620 622 C 596 640 577 639 597 617 Z" style="fill: #0070C0;"></path>
                                                                        <path d="M 493 501 Q 487 532 460 545 Q 403 563 392 559 Q 388 555 389 545 Q 393 538 414 521 Q 468 476 476 473 C 502 459 499 472 493 501 Z" style="fill: #0070C0;"></path>
                                                                        <path d="M 744 530 Q 802 567 834 581 Q 847 584 845 593 Q 841 606 826 621 Q 811 637 793 639 Q 781 639 782 624 Q 783 606 728 540 C 709 517 719 514 744 530 Z" style="fill: #0070C0;"></path>
                                                                        <path d="M 446 390 Q 468 341 484 264 Q 487 239 501 222 Q 517 203 522 217 Q 523 224 525 232 L 523 260 Q 523 263 515 312 L 511 336 Q 504 375 504 388 C 502 437 421 448 446 390 Z" style="fill: #0070C0;"></path>
                                                                        <path d="M 662 248 Q 674 232 685 227 Q 694 220 706 237 Q 718 255 743 353 Q 750 378 769 398 Q 781 408 771 420 Q 758 433 723 456 Q 702 465 647 448 Q 640 448 555 430 Q 515 421 483 416 C 453 411 477 376 504 388 Q 513 398 663 421 Q 685 425 692 417 Q 702 407 700 395 Q 679 290 668 278 C 656 255 656 255 662 248 Z" style="fill: #0070C0;"></path>
                                                                        <path d="M 515 312 Q 524 318 637 334 Q 658 338 649 349 Q 639 362 617 365 Q 584 368 511 336 C 483 324 487 301 515 312 Z" style="fill: #0070C0;"></path>
                                                                        <path d="M 525 232 L 566 237 L 604 243 Q 628 247 662 248 C 692 249 694 263 668 278 Q 665 279 662 282 Q 647 289 621 283 Q 567 270 523 260 C 494 253 495 228 525 232 Z" style="fill: #0070C0;"></path>
                                                                        <path d="M 566 237 Q 579 206 581 107 Q 581 64 577 55 Q 573 45 554 48 Q 527 55 499 62 Q 489 62 487 57 Q 486 51 495 43 Q 555 -6 574 -35 Q 587 -48 598 -46 Q 608 -42 618 -12 Q 634 18 631 73 Q 627 149 628 177 Q 634 214 618 232 Q 611 239 604 243 C 580 260 556 265 566 237 Z" style="fill: #0070C0;"></path>
                                                                        <path d="M 453 163 Q 428 124 396 90 Q 374 65 384 33 Q 388 17 408 24 Q 454 48 467 110 Q 477 138 474 160 Q 471 167 466 170 Q 459 170 453 163 Z" style="fill: #0070C0;"></path>
                                                                        <path d="M 698 155 Q 737 112 783 52 Q 796 33 809 27 Q 816 26 825 34 Q 837 46 829 86 Q 823 125 762 154 Q 723 173 701 183 Q 694 187 690 177 Q 689 165 698 155 Z" style="fill: #0070C0;"></path>
                                    
                                    
                                                                                                                                                                                                                                                                                                                                                                                                                                                                                                                                                                                                                                                                                                                                                                                                                                                                                                                                                                                                                                                                                                                                                                                                                                                                </g>
                            </svg>