<svg width='83' height='83' >
                                <g transform="translate(3, 70) scale(0.07, -0.07)">
                                    <!-- 先将完整的字以灰色字体绘制完成，层级位于下面 -->
                                                                        <path d="M 273 617 Q 397 654 401 657 Q 408 664 404 673 Q 397 683 367 689 Q 343 692 256 659 Q 190 641 143 633 Q 107 624 134 610 Q 174 592 227 605 L 273 617 Z" style="fill: #0070C0;"></path>
                                                                        <path d="M 290 420 Q 378 448 381 450 Q 388 457 384 466 Q 377 476 349 480 Q 321 484 295 470 Q 294 470 292 469 L 241 450 Q 234 449 229 446 Q 192 434 145 427 Q 112 418 138 405 Q 178 386 227 403 Q 233 404 241 406 L 290 420 Z" style="fill: #0070C0;"></path>
                                                                        <path d="M 283 249 Q 287 340 290 420 L 292 469 Q 295 596 296 597 Q 286 607 273 617 C 250 636 218 633 227 605 Q 240 577 241 450 L 241 406 Q 240 336 239 231 C 239 201 282 219 283 249 Z" style="fill: #0070C0;"></path>
                                                                        <path d="M 239 231 Q 184 212 129 191 Q 111 184 82 183 Q 69 180 67 169 Q 66 154 77 147 Q 102 131 140 115 Q 150 112 163 123 Q 188 147 348 239 Q 370 252 385 266 Q 398 275 398 285 Q 391 291 378 287 Q 333 269 283 249 L 239 231 Z" style="fill: #0070C0;"></path>
                                                                        <path d="M 526 694 Q 475 718 460 716 Q 441 712 456 691 Q 489 636 473 425 Q 467 340 423 237 Q 389 153 291 63 Q 278 50 274 44 Q 273 37 284 37 Q 329 41 404 125 Q 507 239 527 498 Q 531 561 532 635 Q 535 651 536 661 C 540 688 540 688 526 694 Z" style="fill: #0070C0;"></path>
                                                                        <path d="M 865 100 Q 849 90 813 89 Q 767 89 741 99 Q 716 108 705 123 Q 672 165 686 413 Q 692 530 708 611 Q 715 657 754 696 Q 767 714 751 726 Q 729 742 680 758 Q 659 762 641 750 Q 595 714 526 694 C 498 684 507 652 536 661 Q 555 664 625 692 Q 638 698 645 694 Q 651 690 652 674 Q 631 166 655 110 Q 685 26 846 30 Q 852 31 860 31 Q 909 35 958 57 Q 979 66 971 88 Q 958 134 951 199 Q 947 233 941 240 Q 934 244 929 233 Q 899 127 865 100 Z" style="fill: #0070C0;"></path>
                                    
                                    
                                                                                                                                                                                                                                                                                                                                                                                                                                                                                                                                                    </g>
                            </svg>