<svg width='83' height='83' >
                                <g transform="translate(3, 70) scale(0.07, -0.07)">
                                    <!-- 先将完整的字以灰色字体绘制完成，层级位于下面 -->
                                                                        <path d="M 284 597 Q 413 630 416 633 Q 426 643 420 651 Q 411 664 380 670 Q 347 674 315 661 Q 281 648 243 637 Q 203 627 153 620 Q 113 613 143 595 Q 182 574 244 587 L 284 597 Z" style="fill: #0070C0;"></path>
                                                                        <path d="M 317 400 Q 395 424 397 426 Q 404 433 400 441 Q 393 451 365 457 Q 340 461 319 451 L 265 430 Q 205 412 146 403 Q 113 396 138 381 Q 177 363 230 378 Q 245 382 265 386 L 317 400 Z" style="fill: #0070C0;"></path>
                                                                        <path d="M 311 193 L 312 193 L 312 194 C 312 194 313 210 313 240 Q 314 327 317 400 L 319 451 Q 319 503 323 539 Q 332 567 286 596 Q 285 597 284 597 C 259 613 231 614 244 587 Q 263 553 264 464 Q 264 451 265 430 L 265 386 Q 265 320 265 218 C 265 188 308 163 311 193 Z" style="fill: #0070C0;"></path>
                                                                        <path d="M 265 218 Q 198 190 126 158 Q 107 149 71 145 Q 58 142 57 130 Q 56 115 68 107 Q 96 94 135 77 Q 147 76 159 86 Q 202 131 311 193 L 312 194 Q 408 257 417 265 Q 430 275 430 286 Q 423 290 409 286 Q 363 264 313 240 L 265 218 Z" style="fill: #0070C0;"></path>
                                                                        <path d="M 549 536 Q 579 587 611 652 Q 629 695 646 716 Q 655 728 648 742 Q 642 755 610 774 Q 579 790 560 787 Q 541 783 552 761 Q 567 737 555 691 Q 510 547 415 397 Q 406 385 404 378 Q 403 366 417 371 Q 460 392 535 514 L 549 536 Z" style="fill: #0070C0;"></path>
                                                                        <path d="M 636 275 Q 685 356 735 476 Q 750 507 775 528 Q 791 537 790 547 Q 789 560 757 576 Q 717 597 702 596 Q 690 595 678 583 Q 605 550 549 536 C 520 528 507 524 535 514 Q 550 505 577 503 Q 601 507 641 531 Q 663 541 675 535 Q 682 531 666 471 Q 597 201 318 38 Q 308 32 310 28 Q 311 24 319 24 Q 457 39 597 220 Q 607 235 619 250 L 636 275 Z" style="fill: #0070C0;"></path>
                                                                        <path d="M 619 250 Q 712 109 808 14 Q 830 -10 853 -9 Q 911 4 962 15 Q 984 19 984 25 Q 985 31 958 44 Q 828 95 746 168 Q 700 208 636 275 C 615 297 602 275 619 250 Z" style="fill: #0070C0;"></path>
                                    
                                    
                                                                                                                                                                                                                                                                                                                                                                                                                                                                                                                                                                                                                                </g>
                            </svg>