<svg width='83' height='83' >
                                <g transform="translate(3, 70) scale(0.07, -0.07)">
                                    <!-- 先将完整的字以灰色字体绘制完成，层级位于下面 -->
                                                                        <path d="M 299 664 Q 342 676 392 686 Q 423 695 428 699 Q 437 708 432 716 Q 425 728 394 734 Q 364 738 290 712 Q 227 694 168 686 Q 131 679 159 663 Q 202 639 259 655 L 299 664 Z" style="fill: #0070C0;"></path>
                                                                        <path d="M 326 461 Q 351 470 377 475 Q 408 484 412 489 Q 421 496 416 505 Q 409 515 379 521 Q 352 525 328 514 L 276 494 Q 168 472 159 469 Q 125 460 150 446 Q 198 425 247 442 Q 260 446 276 448 L 326 461 Z" style="fill: #0070C0;"></path>
                                                                        <path d="M 320 298 Q 323 386 326 461 L 328 514 Q 331 637 332 637 L 331 638 Q 315 654 299 664 C 274 681 249 683 259 655 Q 274 616 276 539 Q 276 521 276 494 L 276 448 Q 275 381 275 280 C 275 250 319 268 320 298 Z" style="fill: #0070C0;"></path>
                                                                        <path d="M 275 280 Q 217 261 158 237 Q 140 230 110 229 Q 97 226 96 216 Q 95 203 105 194 Q 130 179 165 163 Q 177 160 188 170 Q 224 204 379 287 Q 401 300 417 314 Q 430 323 430 333 Q 421 339 320 298 L 275 280 Z" style="fill: #0070C0;"></path>
                                                                        <path d="M 711 419 Q 730 465 746 625 Q 759 680 794 715 Q 812 734 793 749 Q 774 765 718 787 Q 703 796 644 777 Q 596 767 553 753 Q 513 741 486 736 Q 468 735 466 729 Q 462 723 481 713 Q 517 697 539 704 Q 578 719 668 735 Q 684 736 689 734 Q 707 727 701 674 Q 680 481 667 441 Q 663 426 665 412 C 665 382 701 391 711 419 Z" style="fill: #0070C0;"></path>
                                                                        <path d="M 665 412 Q 619 405 559 392 Q 540 388 538 405 Q 554 555 573 593 Q 580 609 575 621 Q 560 640 535 653 Q 519 662 508 654 Q 501 650 509 637 Q 521 598 489 420 Q 485 401 478 381 Q 471 360 485 344 Q 506 326 528 340 Q 582 379 776 394 Q 807 395 819 382 Q 829 370 788 188 Q 778 133 750 97 Q 743 85 719 85 Q 674 104 634 121 Q 619 125 619 119 Q 618 113 627 105 Q 694 42 719 -1 Q 726 -23 746 -13 Q 813 15 830 90 Q 855 187 874 297 Q 883 336 903 367 Q 916 383 905 397 Q 887 419 849 442 Q 828 455 798 443 Q 758 425 721 421 Q 717 421 711 419 L 665 412 Z" style="fill: #0070C0;"></path>
                                                                        <path d="M 573 211 Q 594 212 615 216 Q 663 222 725 218 Q 746 217 750 225 Q 756 238 745 247 Q 717 269 677 283 Q 664 287 643 278 Q 640 278 447 242 Q 420 236 380 233 Q 368 232 368 222 Q 368 212 386 200 Q 401 191 429 183 Q 439 180 454 189 Q 554 210 573 211 Z" style="fill: #0070C0;"></path>
                                    
                                    
                                                                                                                                                                                                                                                                                                                                                                                                                                                                                                                                                                                                                                </g>
                            </svg>