<svg width='83' height='83' >
                                <g transform="translate(3, 70) scale(0.07, -0.07)">
                                    <!-- 先将完整的字以灰色字体绘制完成，层级位于下面 -->
                                                                        <path d="M 255 624 Q 366 654 373 659 Q 380 668 376 676 Q 369 688 338 693 Q 310 697 237 669 Q 171 651 123 643 Q 86 634 114 619 Q 153 598 208 611 L 255 624 Z" style="fill: #0070C0;"></path>
                                                                        <path d="M 269 439 Q 287 446 309 451 Q 334 458 337 462 Q 344 471 340 478 Q 333 488 305 492 Q 287 493 271 489 L 219 468 Q 164 450 121 443 Q 88 434 114 421 Q 150 403 216 424 Q 217 424 219 424 L 269 439 Z" style="fill: #0070C0;"></path>
                                                                        <path d="M 260 253 Q 264 353 269 439 L 271 489 Q 274 553 277 577 Q 284 598 255 624 C 234 645 198 639 208 611 Q 220 590 219 468 L 219 424 Q 218 351 215 235 C 214 205 259 223 260 253 Z" style="fill: #0070C0;"></path>
                                                                        <path d="M 215 235 Q 163 217 111 197 Q 95 190 66 189 Q 53 186 51 176 Q 50 161 61 154 Q 86 141 121 123 Q 133 122 144 131 Q 178 164 322 244 Q 343 257 357 270 Q 370 280 370 289 Q 361 295 260 253 L 215 235 Z" style="fill: #0070C0;"></path>
                                                                        <path d="M 418 482 Q 425 494 436 507 Q 473 558 513 634 Q 529 670 545 687 Q 552 697 547 709 Q 543 721 515 739 Q 490 752 472 752 Q 456 748 465 729 Q 480 707 450 626 Q 407 527 340 424 Q 331 414 330 409 Q 327 399 340 402 Q 356 408 397 455 L 418 482 Z" style="fill: #0070C0;"></path>
                                                                        <path d="M 397 455 Q 418 401 420 334 Q 420 226 396 131 Q 384 80 418 41 Q 419 38 422 36 Q 438 20 450 46 Q 465 86 464 131 Q 465 347 472 395 Q 479 422 470 432 Q 427 478 418 482 C 394 500 387 483 397 455 Z" style="fill: #0070C0;"></path>
                                                                        <path d="M 700 436 Q 835 481 838 485 Q 847 495 841 504 Q 831 516 800 520 Q 767 523 690 487 L 642 468 Q 587 450 522 437 Q 485 427 514 411 Q 562 393 645 419 Q 648 420 652 421 L 700 436 Z" style="fill: #0070C0;"></path>
                                                                        <path d="M 652 421 Q 721 130 864 -9 Q 895 -34 912 -36 Q 928 -39 937 -25 Q 946 -15 938 34 Q 932 83 937 181 Q 941 212 931 215 Q 922 216 912 188 Q 884 91 865 99 Q 826 124 775 221 Q 730 308 700 436 L 690 487 Q 651 685 661 771 Q 674 810 651 828 Q 644 832 636 838 Q 612 854 598 856 Q 583 856 583 855 Q 558 849 578 823 Q 582 822 596 777 Q 603 746 610 703 Q 619 588 642 468 L 652 421 Z" style="fill: #0070C0;"></path>
                                                                        <path d="M 750 678 Q 786 647 823 612 Q 836 599 853 599 Q 863 599 869 613 Q 873 628 865 657 Q 859 682 823 700 Q 739 733 724 727 Q 720 723 720 710 Q 724 700 750 678 Z" style="fill: #0070C0;"></path>
                                    
                                    
                                                                                                                                                                                                                                                                                                                                                                                                                                                                                                                                                                                                                                                                                                                                                                                        </g>
                            </svg>