<svg width='83' height='83' >
                                <g transform="translate(3, 70) scale(0.07, -0.07)">
                                    <!-- 先将完整的字以灰色字体绘制完成，层级位于下面 -->
                                                                        <path d="M 268 596 Q 374 630 378 633 Q 385 640 380 649 Q 373 659 343 664 Q 313 667 286 653 Q 255 640 222 628 Q 185 618 142 609 Q 108 600 134 586 Q 176 568 229 585 L 268 596 Z" style="fill: #0070C0;"></path>
                                                                        <path d="M 285 392 Q 366 419 370 424 Q 377 431 372 438 Q 365 448 339 451 Q 312 452 288 439 Q 287 439 286 438 L 242 418 Q 235 417 228 414 Q 194 402 151 393 Q 121 384 145 372 Q 190 354 240 378 L 242 378 L 285 392 Z" style="fill: #0070C0;"></path>
                                                                        <path d="M 281 243 Q 282 322 285 392 L 286 438 Q 289 577 290 578 Q 280 588 268 596 C 244 614 220 614 229 585 Q 244 546 242 418 L 242 378 Q 241 317 241 226 C 241 196 281 213 281 243 Z" style="fill: #0070C0;"></path>
                                                                        <path d="M 241 226 Q 193 207 142 185 Q 126 178 96 175 Q 83 172 83 162 Q 82 149 92 141 Q 117 128 151 114 Q 161 113 173 122 Q 215 165 347 238 Q 368 254 390 271 Q 402 280 401 289 Q 395 293 383 289 Q 334 267 281 243 L 241 226 Z" style="fill: #0070C0;"></path>
                                                                        <path d="M 499 587 Q 512 617 528 633 Q 535 642 530 653 Q 526 663 500 679 Q 476 692 461 689 Q 446 686 455 669 Q 467 648 437 568 Q 421 531 399 490 Q 392 480 390 475 Q 389 466 400 469 Q 422 478 484 564 L 499 587 Z" style="fill: #0070C0;"></path>
                                                                        <path d="M 641 578 Q 684 591 733 602 Q 770 612 776 618 Q 783 625 779 633 Q 772 643 745 649 Q 717 653 691 641 Q 666 631 642 622 L 601 609 Q 552 596 499 587 C 469 582 456 576 484 564 Q 520 545 602 568 L 641 578 Z" style="fill: #0070C0;"></path>
                                                                        <path d="M 639 422 Q 652 425 867 444 Q 885 445 889 453 Q 893 463 878 475 Q 823 508 761 488 Q 710 476 640 459 L 600 451 Q 500 432 382 408 Q 363 405 378 391 Q 391 379 408 376 Q 427 372 441 377 Q 502 398 572 410 L 639 422 Z" style="fill: #0070C0;"></path>
                                                                        <path d="M 640 459 Q 640 516 641 578 L 642 622 Q 645 710 663 772 Q 672 787 669 801 Q 662 811 606 845 Q 582 861 561 846 Q 557 842 562 826 Q 599 772 599 718 Q 600 666 601 609 L 602 568 Q 602 517 600 451 L 597 351 Q 594 197 590 164 Q 583 110 568 56 Q 556 14 583 -46 Q 590 -64 598 -67 Q 605 -74 612 -65 Q 619 -61 630 -40 Q 640 -15 639 17 Q 638 62 638 378 L 640 459 Z" style="fill: #0070C0;"></path>
                                                                        <path d="M 638 419 Q 638 420 639 422 C 653 448 584 437 572 410 Q 503 251 310 86 Q 300 74 308 73 Q 317 69 327 75 Q 453 132 576 317 Q 589 338 597 351 L 638 419 Z" style="fill: #0070C0;"></path>
                                                                        <path d="M 638 378 Q 707 272 795 157 Q 813 136 842 136 Q 945 135 977 138 Q 987 139 988 145 Q 989 149 975 158 Q 822 224 769 282 Q 706 342 638 419 C 618 441 622 403 638 378 Z" style="fill: #0070C0;"></path>
                                    
                                    
                                                                                                                                                                                                                                                                                                                                                                                                                                                                                                                                                                                                                                                                                                                                                                                                                                                                    </g>
                            </svg>