<svg width='83' height='83' >
                                <g transform="translate(3, 70) scale(0.07, -0.07)">
                                    <!-- 先将完整的字以灰色字体绘制完成，层级位于下面 -->
                                                                        <path d="M 253 662 Q 371 701 373 701 Q 380 708 376 717 Q 369 727 339 732 Q 311 736 282 722 Q 251 709 218 699 Q 181 689 138 681 Q 104 672 130 658 Q 167 642 215 652 L 253 662 Z" style="fill: #0070C0;"></path>
                                                                        <path d="M 276 467 Q 348 491 349 492 Q 356 499 352 506 Q 345 516 319 519 Q 295 522 276 512 L 233 495 Q 191 480 136 469 Q 105 460 129 448 Q 168 433 223 451 Q 227 452 233 454 L 276 467 Z" style="fill: #0070C0;"></path>
                                                                        <path d="M 273 306 Q 274 393 276 467 L 276 512 Q 277 551 278 586 Q 281 638 277 643 Q 265 655 253 662 C 228 679 204 680 215 652 Q 230 624 233 495 L 233 454 Q 233 390 233 290 C 233 260 273 276 273 306 Z" style="fill: #0070C0;"></path>
                                                                        <path d="M 233 290 Q 173 268 110 243 Q 94 236 69 235 Q 56 232 55 222 Q 54 209 65 201 Q 89 188 123 173 Q 133 172 145 181 Q 173 211 302 286 Q 321 298 334 311 Q 346 320 345 329 Q 339 333 327 330 Q 299 320 273 306 L 233 290 Z" style="fill: #0070C0;"></path>
                                                                        <path d="M 556 704 Q 757 753 768 761 Q 775 768 771 777 Q 764 787 736 794 Q 706 798 677 787 Q 628 768 574 753 Q 514 737 444 728 Q 410 721 435 706 Q 468 687 520 695 L 556 704 Z" style="fill: #0070C0;"></path>
                                                                        <path d="M 479 554 Q 509 582 543 621 Q 561 643 575 655 Q 582 661 581 672 Q 580 681 556 704 C 535 725 519 725 520 695 Q 529 649 380 498 Q 371 491 369 487 Q 365 480 376 480 Q 394 480 458 536 L 479 554 Z" style="fill: #0070C0;"></path>
                                                                        <path d="M 639 427 Q 638 431 636 434 L 626 449 Q 569 524 479 554 C 451 564 432 551 458 536 Q 459 535 465 531 Q 493 518 518 500 L 561 464 Q 579 445 594 422 L 617 361 Q 633 288 608 179 Q 595 130 580 123 Q 570 117 514 129 Q 474 138 472 132 Q 471 125 483 112 Q 541 63 564 30 Q 577 11 594 14 Q 616 23 637 57 Q 686 157 675 302 Q 668 345 667 348 L 639 427 Z" style="fill: #0070C0;"></path>
                                                                        <path d="M 518 500 Q 508 464 458 409 Q 457 409 457 408 L 425 379 Q 400 360 364 329 Q 348 319 368 321 Q 398 324 445 357 L 484 388 Q 511 410 533 434 Q 549 453 561 464 C 583 485 527 529 518 500 Z" style="fill: #0070C0;"></path>
                                                                        <path d="M 594 422 Q 519 278 312 131 Q 299 119 308 117 Q 332 105 415 159 Q 503 210 614 357 Q 615 360 617 361 C 635 385 608 448 594 422 Z" style="fill: #0070C0;"></path>
                                                                        <path d="M 457 408 Q 400 444 384 438 Q 380 437 380 427 Q 380 418 425 379 L 445 357 Q 475 327 486 324 Q 493 324 498 333 Q 502 343 498 363 Q 495 376 484 388 L 457 408 Z" style="fill: #0070C0;"></path>
                                                                        <path d="M 636 434 Q 741 525 792 561 Q 808 567 804 577 Q 797 593 778 610 Q 759 626 736 627 Q 721 626 723 607 Q 727 594 719 577 Q 688 528 626 449 C 608 425 613 414 636 434 Z" style="fill: #0070C0;"></path>
                                                                        <path d="M 667 348 Q 725 269 796 186 Q 814 167 842 167 Q 942 168 973 174 Q 983 175 984 181 Q 984 185 971 193 Q 823 248 766 305 Q 706 357 639 427 C 618 449 649 372 667 348 Z" style="fill: #0070C0;"></path>
                                    
                                    
                                                                                                                                                                                                                                                                                                                                                                                                                                                                                                                                                                                                                                                                                                                                                                                                                                                                                                                                                                                                                            </g>
                            </svg>