<svg width='83' height='83' >
                                <g transform="translate(3, 70) scale(0.07, -0.07)">
                                    <!-- 先将完整的字以灰色字体绘制完成，层级位于下面 -->
                                                                        <path d="M 255 615 Q 369 651 374 655 Q 381 664 376 672 Q 369 684 338 688 Q 307 691 277 675 Q 247 662 214 651 Q 177 639 134 631 Q 97 621 126 607 Q 162 592 217 602 L 255 615 Z" style="fill: #0070C0;"></path>
                                                                        <path d="M 278 414 Q 359 442 362 446 Q 369 455 364 462 Q 357 472 329 475 Q 302 476 279 464 L 233 443 Q 181 425 128 411 Q 95 401 121 389 Q 163 374 211 391 Q 221 395 233 398 L 278 414 Z" style="fill: #0070C0;"></path>
                                                                        <path d="M 273 245 Q 274 336 278 414 L 279 464 Q 282 593 283 593 L 282 594 Q 269 607 255 615 C 230 631 206 630 217 602 Q 229 583 233 482 Q 233 466 233 443 L 233 398 Q 232 331 232 230 C 232 200 273 215 273 245 Z" style="fill: #0070C0;"></path>
                                                                        <path d="M 232 230 Q 178 214 125 195 Q 109 189 83 189 Q 70 186 68 176 Q 67 163 77 154 Q 102 139 137 122 Q 147 119 160 129 Q 179 148 324 231 Q 343 241 357 254 Q 370 263 370 273 Q 363 279 273 245 L 232 230 Z" style="fill: #0070C0;"></path>
                                                                        <path d="M 628 615 Q 631 660 636 701 L 638 731 Q 641 750 645 772 Q 648 782 650 789 Q 653 799 635 811 Q 604 827 583 831 Q 570 834 562 826 Q 555 819 563 806 Q 576 790 578 777 Q 587 698 589 607 C 590 577 626 585 628 615 Z" style="fill: #0070C0;"></path>
                                                                        <path d="M 636 701 Q 672 698 755 720 Q 788 732 791 733 Q 798 742 793 749 Q 784 759 755 763 Q 725 764 698 749 Q 683 743 667 738 Q 654 735 638 731 C 609 724 606 703 636 701 Z" style="fill: #0070C0;"></path>
                                                                        <path d="M 483 550 Q 493 551 505 555 Q 628 586 741 608 Q 771 614 773 601 Q 773 588 748 539 Q 741 526 747 521 Q 754 517 766 528 Q 835 576 862 585 Q 884 589 883 602 Q 882 614 813 649 Q 794 658 768 651 Q 692 629 628 615 L 589 607 Q 531 597 463 585 C 433 580 454 544 483 550 Z" style="fill: #0070C0;"></path>
                                                                        <path d="M 463 585 Q 427 604 415 603 Q 396 602 410 580 Q 440 511 398 280 Q 382 219 347 149 Q 316 85 248 25 Q 211 -3 191 -24 Q 190 -31 200 -31 Q 239 -34 320 44 Q 413 134 444 286 Q 466 380 477 523 Q 481 541 483 550 C 488 573 488 573 463 585 Z" style="fill: #0070C0;"></path>
                                                                        <path d="M 614 441 Q 662 457 714 470 Q 748 480 753 485 Q 760 492 755 499 Q 748 508 725 512 Q 707 515 616 479 L 576 468 Q 539 458 497 451 Q 467 444 490 432 Q 517 417 577 431 L 614 441 Z" style="fill: #0070C0;"></path>
                                                                        <path d="M 806 395 Q 797 408 782 447 Q 782 459 776 461 Q 772 464 770 451 Q 752 406 741 392 Q 735 385 717 379 Q 672 370 639 381 Q 626 387 622 395 Q 613 410 614 441 L 616 479 Q 617 498 621 518 Q 625 533 614 540 Q 604 550 584 557 Q 574 560 567 556 Q 563 553 566 538 Q 575 513 576 468 L 577 431 Q 578 370 600 353 Q 648 317 747 340 Q 751 341 758 343 Q 780 350 803 368 Q 815 378 806 395 Z" style="fill: #0070C0;"></path>
                                                                        <path d="M 573 262 Q 543 289 518 282 Q 506 279 512 266 Q 530 229 506 142 Q 482 70 392 9 Q 382 2 391 -1 Q 433 -5 486 39 Q 544 85 563 165 Q 575 217 585 234 Q 585 235 586 236 C 591 247 591 247 573 262 Z" style="fill: #0070C0;"></path>
                                                                        <path d="M 586 236 Q 631 254 661 263 Q 674 267 680 263 Q 674 92 679 76 Q 709 -20 859 -14 Q 917 -11 963 13 Q 984 25 973 47 Q 948 102 944 165 Q 941 172 935 173 Q 932 173 927 160 Q 906 70 886 55 Q 841 30 756 50 Q 746 54 740 61 Q 721 77 715 116 Q 706 164 730 225 Q 737 244 752 256 Q 782 280 712 304 Q 690 314 677 304 Q 649 285 573 262 C 544 253 558 225 586 236 Z" style="fill: #0070C0;"></path>
                                    
                                    
                                                                                                                                                                                                                                                                                                                                                                                                                                                                                                                                                                                                                                                                                                                                                                                                                                                                                                                                                                                                                            </g>
                            </svg>