<svg width='83' height='83' >
                                <g transform="translate(3, 70) scale(0.07, -0.07)">
                                    <!-- 先将完整的字以灰色字体绘制完成，层级位于下面 -->
                                                                        <path d="M 277 644 Q 319 657 364 668 Q 389 675 393 679 Q 402 688 396 696 Q 389 708 358 713 Q 327 717 297 703 Q 269 691 238 682 Q 204 672 163 667 Q 126 658 154 643 Q 181 630 232 632 L 277 644 Z" style="fill: #0070C0;"></path>
                                                                        <path d="M 294 458 Q 316 465 341 472 Q 363 479 366 482 Q 373 491 368 498 Q 361 508 333 512 Q 314 515 296 508 L 244 486 Q 235 485 229 482 Q 199 473 165 467 Q 132 458 157 445 Q 193 430 244 442 L 294 458 Z" style="fill: #0070C0;"></path>
                                                                        <path d="M 288 304 Q 291 386 294 458 L 296 508 Q 299 625 300 625 Q 290 635 277 644 C 253 662 221 660 232 632 Q 244 614 244 486 L 244 442 Q 243 379 243 286 C 243 256 287 274 288 304 Z" style="fill: #0070C0;"></path>
                                                                        <path d="M 243 286 Q 182 264 117 238 Q 99 231 69 229 Q 56 226 55 216 Q 54 201 65 194 Q 90 181 126 164 Q 136 161 148 172 Q 172 196 336 291 Q 358 304 373 318 Q 386 328 385 337 Q 379 341 367 338 Q 328 322 288 304 L 243 286 Z" style="fill: #0070C0;"></path>
                                                                        <path d="M 621 672 Q 678 685 738 697 Q 778 707 783 713 Q 792 720 787 729 Q 780 739 752 747 Q 728 750 635 721 L 581 707 Q 535 698 485 692 Q 449 686 475 670 Q 514 648 568 660 L 621 672 Z" style="fill: #0070C0;"></path>
                                                                        <path d="M 568 660 Q 537 579 479 520 Q 464 514 461 506 Q 457 499 472 500 Q 485 497 538 538 Q 580 577 621 672 L 635 721 Q 644 772 659 801 Q 666 811 658 819 Q 643 837 613 854 Q 594 864 578 862 Q 559 858 572 839 Q 602 797 581 707 L 568 660 Z" style="fill: #0070C0;"></path>
                                                                        <path d="M 670 603 Q 695 584 720 559 Q 732 549 744 549 Q 753 550 757 561 Q 761 573 753 597 Q 749 613 722 626 Q 659 647 648 643 Q 644 639 645 629 Q 648 619 670 603 Z" style="fill: #0070C0;"></path>
                                                                        <path d="M 752 481 Q 818 488 901 488 Q 962 488 968 498 Q 972 508 957 522 Q 905 558 869 550 Q 743 520 400 470 Q 379 467 395 451 Q 408 438 426 433 Q 447 429 462 433 Q 544 457 637 469 Q 662 473 695 476 L 752 481 Z" style="fill: #0070C0;"></path>
                                                                        <path d="M 469 365 Q 459 371 432 377 Q 422 380 418 376 Q 414 372 419 357 Q 438 312 449 239 Q 450 217 463 202 Q 476 183 482 196 Q 485 205 486 218 L 484 245 Q 477 314 476 338 C 475 362 475 362 469 365 Z" style="fill: #0070C0;"></path>
                                                                        <path d="M 614 266 Q 629 321 647 338 Q 668 362 646 375 Q 586 408 584 407 Q 575 407 567 401 Q 543 386 469 365 C 440 357 447 332 476 338 Q 483 339 493 342 Q 524 349 552 354 Q 570 358 574 350 Q 580 346 575 319 Q 569 294 564 266 C 559 236 606 237 614 266 Z" style="fill: #0070C0;"></path>
                                                                        <path d="M 486 218 Q 493 217 505 219 Q 542 229 627 237 Q 636 238 636 246 Q 636 253 614 266 C 599 275 593 274 564 266 Q 519 254 484 245 C 455 238 456 220 486 218 Z" style="fill: #0070C0;"></path>
                                                                        <path d="M 655 31 Q 636 35 612 37 Q 600 38 601 32 Q 602 25 613 16 Q 676 -29 715 -64 Q 727 -73 740 -57 Q 779 -3 772 76 Q 765 343 771 427 Q 778 454 772 464 Q 766 471 752 481 C 729 500 681 503 695 476 Q 710 461 709 405 Q 712 308 710 83 Q 710 46 699 31 Q 686 24 655 31 Z" style="fill: #0070C0;"></path>
                                    
                                    
                                                                                                                                                                                                                                                                                                                                                                                                                                                                                                                                                                                                                                                                                                                                                                                                                                                                                                                                                                                                                            </g>
                            </svg>