<svg width='83' height='83' >
                                <g transform="translate(3, 70) scale(0.07, -0.07)">
                                    <!-- 先将完整的字以灰色字体绘制完成，层级位于下面 -->
                                                                        <path d="M 258 589 Q 384 629 386 631 Q 393 640 388 648 Q 381 660 350 664 Q 319 667 289 652 Q 258 639 224 627 Q 187 615 142 607 Q 105 597 134 583 Q 171 567 220 577 L 258 589 Z" style="fill: #0070C0;"></path>
                                                                        <path d="M 288 370 Q 384 406 387 407 Q 394 417 389 424 Q 380 436 349 439 Q 318 440 289 425 L 239 403 Q 233 402 229 400 Q 195 388 153 379 Q 116 369 145 355 Q 185 339 239 354 L 288 370 Z" style="fill: #0070C0;"></path>
                                                                        <path d="M 283 212 Q 284 297 288 370 L 289 425 Q 292 558 293 559 Q 292 562 291 562 Q 273 580 258 589 C 233 606 210 605 220 577 Q 235 538 239 454 Q 239 433 239 403 L 239 354 Q 239 290 239 194 C 239 164 283 182 283 212 Z" style="fill: #0070C0;"></path>
                                                                        <path d="M 239 194 Q 92 140 73 139 Q 60 136 58 125 Q 57 110 68 103 Q 95 88 132 72 Q 144 69 155 80 Q 200 122 355 207 Q 379 225 405 242 Q 418 252 418 261 Q 411 267 398 262 Q 343 238 283 212 L 239 194 Z" style="fill: #0070C0;"></path>
                                                                        <path d="M 605 775 Q 636 750 671 721 Q 686 708 702 710 Q 712 711 717 724 Q 721 740 710 769 Q 698 803 598 823 Q 582 826 576 823 Q 572 819 573 806 Q 577 796 605 775 Z" style="fill: #0070C0;"></path>
                                                                        <path d="M 492 612 Q 493 622 490 634 Q 478 655 468 661 Q 452 673 451 650 Q 457 611 401 528 Q 385 506 413 462 Q 431 443 441 466 Q 445 475 483 585 L 492 612 Z" style="fill: #0070C0;"></path>
                                                                        <path d="M 483 585 Q 505 572 530 579 Q 638 619 791 636 Q 816 640 826 638 Q 839 634 837 625 Q 837 622 794 545 Q 785 532 791 528 Q 798 525 814 535 Q 869 574 915 587 Q 952 597 952 608 Q 949 617 887 665 Q 863 684 787 666 Q 742 660 562 625 Q 525 618 492 612 C 462 607 455 597 483 585 Z" style="fill: #0070C0;"></path>
                                                                        <path d="M 539 490 Q 505 483 530 469 Q 569 450 620 464 Q 669 476 721 488 Q 745 495 748 498 Q 755 505 751 513 Q 744 523 717 529 Q 689 533 663 521 Q 636 511 608 503 Q 577 496 539 490 Z" style="fill: #0070C0;"></path>
                                                                        <path d="M 514 362 Q 502 368 473 372 Q 463 376 459 370 Q 452 364 461 349 Q 491 286 508 183 Q 511 152 529 131 Q 545 110 550 125 Q 554 135 554 151 L 551 184 Q 550 188 550 193 Q 546 218 541 240 L 536 263 Q 529 306 526 327 C 522 357 521 359 514 362 Z" style="fill: #0070C0;"></path>
                                                                        <path d="M 721 169 Q 737 144 753 137 Q 763 130 778 150 Q 791 172 819 291 Q 828 321 851 346 Q 864 358 852 371 Q 837 387 795 413 Q 779 422 725 407 Q 712 404 697 401 Q 631 389 514 362 C 485 355 498 315 526 327 Q 538 339 723 371 Q 748 375 759 367 Q 772 357 768 339 Q 749 227 739 210 Q 735 198 723 195 C 709 185 709 185 721 169 Z" style="fill: #0070C0;"></path>
                                                                        <path d="M 541 240 Q 547 239 555 240 Q 633 253 691 261 Q 713 265 705 277 Q 695 290 671 295 Q 647 296 536 263 C 507 254 511 243 541 240 Z" style="fill: #0070C0;"></path>
                                                                        <path d="M 554 151 Q 560 150 571 152 Q 619 162 721 169 C 751 171 746 176 723 195 Q 716 201 706 207 Q 690 216 659 208 Q 599 193 551 184 C 522 178 524 153 554 151 Z" style="fill: #0070C0;"></path>
                                                                        <path d="M 381 35 Q 359 34 375 15 Q 390 0 408 -6 Q 430 -12 447 -7 Q 630 38 903 31 Q 924 31 945 30 Q 966 30 970 39 Q 977 51 959 65 Q 905 107 867 99 Q 734 72 381 35 Z" style="fill: #0070C0;"></path>
                                    
                                    
                                                                                                                                                                                                                                                                                                                                                                                                                                                                                                                                                                                                                                                                                                                                                                                                                                                                                                                                                                                                                                                                                                        </g>
                            </svg>