<svg width='83' height='83' >
                                <g transform="translate(3, 70) scale(0.07, -0.07)">
                                    <!-- 先将完整的字以灰色字体绘制完成，层级位于下面 -->
                                                                        <path d="M 238 653 Q 278 666 324 678 Q 349 687 353 690 Q 360 697 356 706 Q 349 716 321 720 Q 300 723 220 692 Q 141 674 133 671 Q 100 662 126 649 Q 157 634 198 642 L 238 653 Z" style="fill: #0070C0;"></path>
                                                                        <path d="M 260 459 Q 285 469 315 478 Q 339 487 342 490 Q 349 499 344 506 Q 337 516 309 519 Q 284 520 261 509 L 215 488 Q 205 487 199 483 Q 166 471 128 463 Q 95 453 121 441 Q 163 426 211 443 Q 212 444 215 444 L 260 459 Z" style="fill: #0070C0;"></path>
                                                                        <path d="M 257 295 Q 258 383 260 459 L 261 509 Q 262 543 263 575 Q 266 633 252 643 Q 245 649 238 653 C 213 670 189 671 198 642 Q 211 609 215 498 Q 214 494 215 488 L 215 444 Q 215 377 215 276 C 215 246 257 265 257 295 Z" style="fill: #0070C0;"></path>
                                                                        <path d="M 215 276 Q 98 233 84 231 Q 71 228 70 218 Q 70 205 80 197 Q 105 184 140 170 Q 150 169 161 178 Q 179 199 318 289 Q 337 301 350 315 Q 362 324 361 333 Q 355 337 343 333 Q 303 315 257 295 L 215 276 Z" style="fill: #0070C0;"></path>
                                                                        <path d="M 569 573 Q 588 657 614 681 Q 635 705 613 718 Q 595 728 570 745 Q 551 757 510 731 Q 474 719 436 707 C 407 698 415 669 443 679 Q 450 683 517 697 Q 538 701 542 694 Q 549 688 541 656 Q 532 619 521 575 C 514 546 562 544 569 573 Z" style="fill: #0070C0;"></path>
                                                                        <path d="M 434 518 Q 441 517 452 520 Q 494 530 583 543 Q 593 544 593 553 Q 593 560 569 573 L 521 575 L 520 575 Q 474 559 435 550 C 406 543 404 519 434 518 Z" style="fill: #0070C0;"></path>
                                                                        <path d="M 432 297 Q 432 345 433 391 L 434 418 Q 434 473 434 518 L 435 550 Q 436 644 443 679 C 446 699 446 699 436 707 Q 412 731 378 740 Q 368 741 362 733 Q 358 727 366 716 Q 426 562 381 245 Q 372 199 358 153 Q 349 126 354 106 Q 364 70 376 57 Q 388 42 398 57 Q 431 96 432 272 L 432 297 Z" style="fill: #0070C0;"></path>
                                                                        <path d="M 433 391 Q 437 391 442 391 Q 505 398 550 404 Q 574 408 565 420 Q 555 435 529 439 Q 483 445 434 418 C 408 404 403 391 433 391 Z" style="fill: #0070C0;"></path>
                                                                        <path d="M 432 272 Q 435 271 443 272 Q 510 282 559 287 Q 581 291 573 304 Q 563 319 537 323 Q 504 327 432 297 C 404 286 402 275 432 272 Z" style="fill: #0070C0;"></path>
                                                                        <path d="M 811 610 Q 832 680 855 702 Q 876 727 854 740 Q 793 773 791 773 Q 782 773 774 767 Q 738 740 648 720 Q 638 720 639 714 Q 640 708 653 703 Q 671 694 701 704 Q 777 726 784 717 Q 788 711 761 609 C 753 580 802 581 811 610 Z" style="fill: #0070C0;"></path>
                                                                        <path d="M 761 609 Q 700 590 652 579 Q 633 575 646 560 Q 653 553 663 550 Q 673 549 684 552 Q 729 565 827 579 Q 837 580 837 589 Q 837 596 811 610 C 794 619 790 618 761 609 Z" style="fill: #0070C0;"></path>
                                                                        <path d="M 748 249 Q 785 313 819 415 Q 829 443 847 461 Q 865 477 852 489 Q 839 499 809 509 Q 787 515 762 501 Q 737 491 704 479 Q 670 469 614 460 Q 601 459 597 452 Q 594 446 611 439 Q 645 427 691 442 Q 737 461 745 461 Q 769 460 763 434 Q 745 347 713 286 L 692 251 Q 632 167 503 123 Q 490 119 502 111 Q 508 107 548 109 Q 641 119 721 211 L 748 249 Z" style="fill: #0070C0;"></path>
                                                                        <path d="M 721 211 Q 767 148 809 96 Q 822 78 847 78 Q 979 82 986 94 Q 990 100 980 104 Q 835 167 761 236 Q 754 243 748 249 L 713 286 Q 677 325 637 374 Q 627 389 612 391 Q 590 392 584 385 Q 581 381 589 376 Q 620 357 639 326 Q 666 287 692 251 L 721 211 Z" style="fill: #0070C0;"></path>
                                    
                                    
                                                                                                                                                                                                                                                                                                                                                                                                                                                                                                                                                                                                                                                                                                                                                                                                                                                                                                                                                                                                                                                                                                        </g>
                            </svg>