<svg width='83' height='83' >
                                <g transform="translate(3, 70) scale(0.07, -0.07)">
                                    <!-- 先将完整的字以灰色字体绘制完成，层级位于下面 -->
                                                                        <path d="M 367 724 Q 479 754 484 757 Q 493 764 487 773 Q 480 783 452 790 Q 422 794 394 781 Q 363 769 327 760 Q 290 750 243 744 Q 209 737 234 722 Q 282 701 329 716 L 367 724 Z" style="fill: #0070C0;"></path>
                                                                        <path d="M 388 587 Q 407 594 432 600 Q 460 609 465 613 Q 472 620 467 627 Q 460 636 437 640 Q 412 643 390 631 L 341 612 Q 277 594 236 587 Q 208 580 230 568 Q 258 553 341 574 L 388 587 Z" style="fill: #0070C0;"></path>
                                                                        <path d="M 381 470 Q 384 534 388 587 L 390 631 Q 391 644 392 655 Q 395 697 392 703 Q 379 716 367 724 C 343 742 318 744 329 716 Q 341 691 341 612 L 341 574 Q 341 528 341 456 C 341 426 380 440 381 470 Z" style="fill: #0070C0;"></path>
                                                                        <path d="M 341 456 Q 284 438 226 419 Q 207 413 176 413 Q 164 412 162 401 Q 161 388 170 381 Q 192 366 224 349 Q 234 348 245 355 Q 282 385 325 405 Q 391 435 455 466 Q 480 476 497 492 Q 510 499 509 508 Q 505 512 493 510 Q 439 491 381 470 L 341 456 Z" style="fill: #0070C0;"></path>
                                                                        <path d="M 660 755 Q 711 768 765 780 Q 792 787 796 791 Q 805 800 800 808 Q 793 820 762 826 Q 731 830 700 817 Q 670 807 637 797 Q 600 787 556 782 Q 519 775 547 759 Q 577 743 622 745 L 660 755 Z" style="fill: #0070C0;"></path>
                                                                        <path d="M 679 606 Q 715 616 753 624 Q 780 631 784 636 Q 791 643 787 650 Q 780 660 755 665 Q 731 669 681 648 L 633 634 Q 599 627 562 620 Q 531 613 554 600 Q 584 584 633 594 L 679 606 Z" style="fill: #0070C0;"></path>
                                                                        <path d="M 673 494 Q 676 554 679 606 L 681 648 Q 684 732 685 734 L 684 735 Q 672 747 660 755 C 636 773 611 773 622 745 Q 632 729 633 634 L 633 594 Q 633 551 633 485 C 633 455 671 464 673 494 Z" style="fill: #0070C0;"></path>
                                                                        <path d="M 633 485 Q 572 475 502 460 Q 483 457 498 443 Q 528 421 558 429 Q 669 465 830 466 L 832 466 Q 848 467 853 474 Q 857 484 842 496 Q 794 529 737 510 Q 709 504 673 494 L 633 485 Z" style="fill: #0070C0;"></path>
                                                                        <path d="M 215 270 Q 193 210 160 155 Q 142 125 160 88 Q 169 72 189 84 Q 238 124 243 213 Q 247 247 239 271 Q 233 280 228 280 Q 219 279 215 270 Z" style="fill: #0070C0;"></path>
                                                                        <path d="M 442 64 Q 578 -2 753 16 Q 777 22 799 28 Q 827 38 831 55 Q 835 65 799 90 Q 744 141 704 191 Q 694 207 689 200 Q 686 196 712 114 Q 712 84 701 77 Q 689 74 669 74 Q 537 75 489 100 L 439 122 Q 364 167 345 248 Q 341 270 329 275 Q 317 282 310 279 Q 306 278 307 266 Q 322 155 397 92 L 442 64 Z" style="fill: #0070C0;"></path>
                                                                        <path d="M 430 319 Q 473 261 498 250 Q 511 246 520 257 Q 526 267 525 283 Q 518 320 444 352 Q 431 358 422 355 Q 416 354 417 343 Q 418 333 430 319 Z" style="fill: #0070C0;"></path>
                                                                        <path d="M 397 92 Q 391 91 388 87 Q 331 47 200 -14 Q 190 -20 196 -25 Q 203 -29 215 -27 Q 300 -11 379 29 Q 412 45 442 64 L 489 100 Q 579 190 632 265 Q 638 281 689 335 Q 699 342 696 354 Q 692 366 666 390 Q 647 408 637 407 Q 622 407 621 391 Q 603 259 439 122 L 397 92 Z" style="fill: #0070C0;"></path>
                                                                        <path d="M 744 303 Q 799 263 868 204 Q 887 186 902 184 Q 911 184 917 195 Q 927 208 910 250 Q 895 299 741 334 Q 732 338 731 325 Q 732 312 744 303 Z" style="fill: #0070C0;"></path>
                                    
                                    
                                                                                                                                                                                                                                                                                                                                                                                                                                                                                                                                                                                                                                                                                                                                                                                                                                                                                                                                                                                                                                                                                                        </g>
                            </svg>