<svg width='83' height='83' >
                                <g transform="translate(3, 70) scale(0.07, -0.07)">
                                    <!-- 先将完整的字以灰色字体绘制完成，层级位于下面 -->
                                                                        <path d="M 262 659 Q 388 698 389 699 Q 398 708 392 716 Q 385 728 354 733 Q 323 737 293 722 Q 260 709 225 697 Q 185 687 139 679 Q 102 670 130 655 Q 170 637 218 647 L 262 659 Z" style="fill: #0070C0;"></path>
                                                                        <path d="M 284 448 Q 363 476 366 478 Q 373 487 368 494 Q 361 504 333 507 Q 308 508 285 498 L 235 476 Q 229 475 225 473 Q 194 463 156 455 Q 123 445 149 433 Q 188 420 235 432 L 284 448 Z" style="fill: #0070C0;"></path>
                                                                        <path d="M 279 282 Q 280 370 284 448 L 285 498 Q 288 634 289 635 Q 288 638 287 638 Q 274 651 262 659 C 238 677 207 675 218 647 Q 230 626 235 536 Q 235 514 235 476 L 235 432 Q 235 365 235 263 C 235 233 279 252 279 282 Z" style="fill: #0070C0;"></path>
                                                                        <path d="M 235 263 Q 115 212 84 209 Q 71 206 70 195 Q 69 182 80 174 Q 105 161 142 145 Q 152 144 164 154 Q 207 196 351 279 Q 373 297 398 314 Q 410 324 409 333 Q 403 337 391 334 Q 339 309 279 282 L 235 263 Z" style="fill: #0070C0;"></path>
                                                                        <path d="M 729 683 Q 784 690 856 692 Q 911 696 916 702 Q 920 712 906 724 Q 854 757 802 740 Q 774 734 741 725 L 681 713 Q 659 709 637 704 Q 603 700 570 692 L 522 683 Q 464 676 402 664 Q 384 661 398 647 Q 411 635 426 632 Q 445 628 458 632 Q 492 644 529 652 L 572 661 Q 593 667 676 678 L 729 683 Z" style="fill: #0070C0;"></path>
                                                                        <path d="M 570 692 Q 566 716 569 750 Q 573 768 561 776 Q 546 786 520 793 Q 501 797 483 786 Q 474 777 488 766 Q 507 747 522 683 L 529 652 Q 530 648 543 579 Q 547 557 557 540 Q 563 531 570 538 Q 573 542 575 553 L 577 582 Q 577 595 572 661 L 570 692 Z" style="fill: #0070C0;"></path>
                                                                        <path d="M 704 600 Q 717 643 729 683 L 741 725 Q 745 738 749 749 Q 756 765 761 778 Q 767 788 770 795 Q 776 805 760 822 Q 732 846 709 854 Q 696 860 686 854 Q 677 848 682 833 Q 692 811 691 797 Q 687 757 681 713 L 676 678 Q 669 642 663 602 C 658 572 695 571 704 600 Z" style="fill: #0070C0;"></path>
                                                                        <path d="M 630 560 Q 664 566 718 570 Q 727 571 728 578 Q 728 585 704 600 C 693 607 693 607 663 602 Q 662 602 661 602 Q 615 589 577 582 C 548 576 545 552 575 553 Q 576 553 579 553 L 630 560 Z" style="fill: #0070C0;"></path>
                                                                        <path d="M 469 468 Q 456 472 425 474 Q 413 475 411 471 Q 405 464 415 450 Q 439 417 459 361 Q 463 343 476 333 Q 495 314 498 330 Q 499 336 499 343 L 494 373 Q 484 419 481 439 C 477 466 477 466 469 468 Z" style="fill: #0070C0;"></path>
                                                                        <path d="M 818 413 Q 851 453 863 459 Q 882 480 858 498 Q 797 549 762 531 Q 737 524 703 516 Q 679 512 655 506 L 599 495 Q 476 471 469 468 C 440 461 452 431 481 439 Q 563 463 600 469 L 654 478 Q 702 487 764 495 Q 777 496 782 490 Q 786 483 759 418 C 748 390 799 390 818 413 Z" style="fill: #0070C0;"></path>
                                                                        <path d="M 652 367 Q 725 377 825 386 Q 834 387 835 394 Q 835 400 818 413 C 803 426 789 423 759 418 Q 702 408 652 397 L 602 388 Q 544 379 494 373 C 464 369 471 332 499 343 Q 503 349 603 361 L 652 367 Z" style="fill: #0070C0;"></path>
                                                                        <path d="M 650 262 Q 711 272 765 279 Q 790 282 781 296 Q 771 312 744 317 Q 713 323 651 305 L 602 293 Q 542 281 492 270 Q 474 266 495 250 Q 508 240 536 245 Q 569 251 602 255 L 650 262 Z" style="fill: #0070C0;"></path>
                                                                        <path d="M 649 157 Q 715 169 773 175 Q 798 178 789 192 Q 779 208 752 213 Q 721 219 649 199 L 602 188 Q 544 178 492 166 Q 474 162 495 146 Q 508 136 537 140 Q 568 146 602 150 L 649 157 Z" style="fill: #0070C0;"></path>
                                                                        <path d="M 648 75 Q 648 118 649 157 L 649 199 Q 649 232 650 262 L 651 305 Q 651 336 652 367 L 652 397 Q 653 434 654 468 Q 654 474 654 478 L 655 506 Q 655 539 654 540 Q 642 550 630 560 C 607 579 565 580 579 553 Q 597 522 599 495 L 600 469 Q 601 469 601 467 Q 602 451 602 388 L 603 361 Q 603 333 602 293 L 602 255 Q 602 224 602 188 L 602 150 Q 602 113 602 71 C 602 41 648 45 648 75 Z" style="fill: #0070C0;"></path>
                                                                        <path d="M 602 71 Q 497 61 382 50 Q 360 49 375 31 Q 390 16 408 10 Q 430 3 446 7 Q 614 46 888 37 Q 907 37 928 35 Q 949 34 954 43 Q 960 55 943 70 Q 891 112 851 104 Q 775 91 648 75 L 602 71 Z" style="fill: #0070C0;"></path>
                                    
                                    
                                                                                                                                                                                                                                                                                                                                                                                                                                                                                                                                                                                                                                                                                                                                                                                                                                                                                                                                                                                                                                                                                                                                                                                                                                                                </g>
                            </svg>