<svg width='83' height='83' >
                                <g transform="translate(3, 70) scale(0.07, -0.07)">
                                    <!-- 先将完整的字以灰色字体绘制完成，层级位于下面 -->
                                                                        <path d="M 218 617 Q 249 627 284 636 Q 306 643 309 646 Q 316 653 312 662 Q 305 672 277 676 Q 255 679 176 649 Q 146 642 109 635 Q 76 626 102 613 Q 133 598 176 606 L 218 617 Z" style="fill: #0070C0;"></path>
                                                                        <path d="M 234 427 Q 253 434 278 442 Q 299 449 302 452 Q 309 459 304 466 Q 297 476 271 479 Q 252 480 235 474 L 189 454 Q 144 441 112 433 Q 81 424 105 412 Q 144 397 189 414 L 234 427 Z" style="fill: #0070C0;"></path>
                                                                        <path d="M 229 259 Q 230 350 234 427 L 235 474 Q 238 600 239 601 L 238 602 Q 228 612 218 617 C 193 633 169 635 176 606 Q 185 576 189 474 Q 189 465 189 454 L 189 414 Q 188 347 188 244 C 188 214 229 229 229 259 Z" style="fill: #0070C0;"></path>
                                                                        <path d="M 188 244 Q 89 213 73 211 Q 61 208 61 199 Q 60 186 69 180 Q 91 167 122 153 Q 132 152 142 160 Q 215 211 290 264 Q 300 271 301 280 Q 294 286 229 259 L 188 244 Z" style="fill: #0070C0;"></path>
                                                                        <path d="M 369 681 Q 359 687 332 693 Q 322 696 318 692 Q 314 688 319 673 Q 340 625 349 549 Q 350 527 363 510 Q 376 491 382 504 Q 383 511 385 520 L 385 546 Q 385 550 385 554 Q 378 630 376 655 C 374 678 374 678 369 681 Z" style="fill: #0070C0;"></path>
                                                                        <path d="M 507 572 Q 523 639 544 660 Q 563 682 543 695 Q 527 705 502 720 Q 486 729 469 719 Q 448 706 420 696 Q 398 689 369 681 C 340 673 348 645 376 655 Q 401 664 451 674 Q 472 678 477 671 Q 483 667 476 637 Q 469 607 460 571 C 453 542 500 543 507 572 Z" style="fill: #0070C0;"></path>
                                                                        <path d="M 440 528 Q 471 537 520 545 Q 529 546 530 554 Q 529 561 507 572 C 489 581 488 581 460 571 Q 417 556 385 546 C 356 537 356 526 385 520 Q 386 520 389 519 Q 395 519 403 519 L 440 528 Z" style="fill: #0070C0;"></path>
                                                                        <path d="M 456 223 Q 457 308 461 379 L 462 411 Q 462 456 466 484 Q 472 505 440 528 C 416 546 389 546 403 519 Q 416 497 417 466 Q 418 439 418 210 C 418 180 456 193 456 223 Z" style="fill: #0070C0;"></path>
                                                                        <path d="M 461 379 Q 507 391 542 397 Q 563 403 554 413 Q 544 425 520 427 Q 499 427 464 413 Q 463 412 462 411 C 439 392 432 371 461 379 Z" style="fill: #0070C0;"></path>
                                                                        <path d="M 369 195 Q 366 315 370 349 Q 371 368 360 379 Q 341 395 316 403 Q 304 407 296 402 Q 289 398 295 384 Q 311 356 318 325 Q 322 295 333 183 C 336 153 370 165 369 195 Z" style="fill: #0070C0;"></path>
                                                                        <path d="M 333 183 Q 260 167 255 166 Q 243 165 242 155 Q 241 143 250 136 Q 271 123 302 107 Q 312 104 322 113 Q 415 168 510 224 Q 520 231 521 240 Q 517 244 505 241 Q 480 234 456 223 L 418 210 Q 393 203 369 195 L 333 183 Z" style="fill: #0070C0;"></path>
                                                                        <path d="M 639 627 Q 702 744 704 746 Q 703 750 702 752 Q 698 762 672 779 Q 647 792 631 790 Q 616 787 625 769 Q 643 741 593 632 Q 569 583 535 527 Q 528 517 526 512 Q 525 502 536 505 Q 545 508 564 529 Q 568 535 575 540 L 589 556 Q 620 599 627 609 L 639 627 Z" style="fill: #0070C0;"></path>
                                                                        <path d="M 711 463 Q 748 512 786 573 Q 802 598 831 626 Q 844 636 838 645 Q 837 652 780 671 Q 765 677 716 650 Q 665 634 639 627 C 610 619 600 616 627 609 Q 648 596 713 616 Q 729 622 737 614 Q 741 608 730 588 Q 708 540 678 492 L 659 464 Q 599 380 493 281 Q 481 271 494 270 Q 566 285 687 432 L 711 463 Z" style="fill: #0070C0;"></path>
                                                                        <path d="M 687 432 Q 757 357 817 300 Q 832 284 855 287 Q 975 305 986 317 Q 989 324 979 326 Q 835 365 752 430 Q 733 445 711 463 L 678 492 Q 651 516 622 544 Q 612 557 596 557 Q 592 557 589 556 C 559 556 549 554 575 540 Q 606 525 628 498 Q 643 482 659 464 L 687 432 Z" style="fill: #0070C0;"></path>
                                                                        <path d="M 594 250 Q 584 256 558 261 Q 546 265 543 260 Q 536 256 544 239 Q 569 178 580 81 Q 581 53 597 32 Q 613 10 619 25 Q 625 40 624 66 L 620 100 Q 608 197 608 223 C 607 244 607 244 594 250 Z" style="fill: #0070C0;"></path>
                                                                        <path d="M 788 126 Q 807 201 836 221 Q 851 239 838 254 Q 771 305 720 279 Q 669 263 594 250 C 564 245 578 218 608 223 Q 617 224 627 227 Q 744 248 749 243 Q 764 228 738 123 C 731 94 780 97 788 126 Z" style="fill: #0070C0;"></path>
                                                                        <path d="M 624 66 Q 630 66 639 67 Q 694 77 811 86 Q 821 87 823 96 Q 824 103 794 124 Q 791 125 788 126 L 738 123 Q 672 108 620 100 C 590 95 594 65 624 66 Z" style="fill: #0070C0;"></path>
                                    
                                    
                                                                                                                                                                                                                                                                                                                                                                                                                                                                                                                                                                                                                                                                                                                                                                                                                                                                                                                                                                                                                                                                                                                                                                                                                                                                                                                                                                                                                        </g>
                            </svg>