<svg width='83' height='83' >
                                <g transform="translate(3, 70) scale(0.07, -0.07)">
                                    <!-- 先将完整的字以灰色字体绘制完成，层级位于下面 -->
                                                                        <path d="M 226 604 Q 265 617 307 629 Q 331 636 334 641 Q 341 650 336 657 Q 329 667 299 672 Q 269 673 242 659 Q 217 649 187 638 Q 156 628 117 621 Q 83 611 110 598 Q 141 585 189 593 L 226 604 Z" style="fill: #0070C0;"></path>
                                                                        <path d="M 253 407 Q 319 431 323 434 Q 330 443 324 450 Q 317 460 289 462 Q 270 463 253 457 L 207 436 Q 176 424 123 411 Q 92 401 117 389 Q 156 374 208 392 L 253 407 Z" style="fill: #0070C0;"></path>
                                                                        <path d="M 249 236 Q 250 327 253 407 L 253 457 Q 254 491 255 522 Q 258 576 254 582 Q 239 595 226 604 C 202 622 179 621 189 593 Q 204 557 207 446 Q 207 442 207 436 L 208 392 Q 208 323 208 216 C 208 186 249 206 249 236 Z" style="fill: #0070C0;"></path>
                                                                        <path d="M 208 216 Q 165 198 122 178 Q 107 171 82 169 Q 70 165 70 156 Q 70 143 80 137 Q 104 125 137 112 Q 147 111 158 120 Q 174 138 305 230 Q 323 242 334 255 Q 346 264 345 272 Q 336 278 249 236 L 208 216 Z" style="fill: #0070C0;"></path>
                                                                        <path d="M 572 689 Q 617 770 643 804 Q 653 813 648 820 Q 638 830 618 837 Q 599 844 581 838 Q 571 834 577 819 Q 589 801 552 686 C 543 657 557 663 572 689 Z" style="fill: #0070C0;"></path>
                                                                        <path d="M 552 686 Q 545 693 528 698 Q 521 701 514 698 Q 510 694 513 686 Q 540 601 525 487 Q 507 471 533 427 Q 536 421 542 415 Q 549 406 556 415 Q 562 424 563 434 L 565 460 Q 564 470 564 482 Q 563 519 562 549 L 562 577 Q 561 650 562 657 L 562 665 C 562 679 562 679 552 686 Z" style="fill: #0070C0;"></path>
                                                                        <path d="M 626 440 Q 659 397 663 395 Q 673 396 688 426 Q 704 457 701 553 Q 698 653 710 674 Q 717 684 708 695 Q 695 705 668 715 Q 658 721 572 689 C 544 679 530 657 562 665 Q 641 686 652 681 Q 659 677 657 659 Q 661 559 654 480 Q 654 465 641 460 C 623 445 623 445 626 440 Z" style="fill: #0070C0;"></path>
                                                                        <path d="M 562 549 Q 605 556 638 559 Q 657 563 649 574 Q 639 586 619 588 Q 600 589 565 579 Q 564 578 562 577 C 537 561 532 544 562 549 Z" style="fill: #0070C0;"></path>
                                                                        <path d="M 563 434 Q 566 434 570 435 Q 589 439 626 440 C 656 441 661 441 641 460 Q 637 464 630 469 Q 615 476 565 460 C 536 451 533 432 563 434 Z" style="fill: #0070C0;"></path>
                                                                        <path d="M 433 544 Q 408 545 389 545 Q 358 544 374 563 Q 405 627 437 677 Q 446 690 444 696 Q 441 706 410 725 Q 397 734 384 730 Q 377 726 382 716 Q 401 685 348 575 Q 341 563 328 549 Q 315 539 317 529 Q 321 516 332 504 Q 339 497 348 502 Q 384 523 422 524 C 452 526 463 543 433 544 Z" style="fill: #0070C0;"></path>
                                                                        <path d="M 466 439 Q 441 436 412 428 Q 384 416 402 441 Q 477 558 516 596 Q 525 603 519 612 Q 510 625 484 638 Q 471 645 464 642 Q 457 639 459 627 Q 462 600 433 544 L 422 524 Q 362 428 343 416 Q 333 409 335 398 Q 336 388 357 373 Q 366 364 377 374 Q 419 407 473 423 C 502 432 496 443 466 439 Z" style="fill: #0070C0;"></path>
                                                                        <path d="M 473 423 Q 480 399 498 391 Q 507 387 516 398 Q 520 405 518 423 Q 512 451 469 476 Q 463 479 460 471 Q 456 465 466 439 L 473 423 Z" style="fill: #0070C0;"></path>
                                                                        <path d="M 828 602 Q 803 605 782 606 Q 751 606 768 626 Q 802 687 835 733 Q 845 746 843 751 Q 840 761 811 782 Q 798 792 785 788 Q 778 785 782 774 Q 797 740 740 636 Q 731 626 721 614 Q 708 604 709 595 Q 712 582 722 569 Q 729 562 738 567 Q 754 574 806 583 Q 810 584 817 583 C 847 582 858 599 828 602 Z" style="fill: #0070C0;"></path>
                                                                        <path d="M 855 489 Q 830 488 801 482 Q 770 472 791 496 Q 863 595 907 629 Q 917 636 911 645 Q 904 661 876 676 Q 863 683 855 681 Q 848 678 849 666 Q 849 648 828 602 L 817 583 Q 775 510 729 475 Q 716 468 717 455 Q 718 445 739 428 Q 748 418 760 428 Q 803 456 863 474 C 892 483 885 491 855 489 Z" style="fill: #0070C0;"></path>
                                                                        <path d="M 863 474 Q 885 429 895 424 Q 902 423 910 429 Q 917 438 919 460 Q 920 485 863 528 Q 853 534 848 534 Q 844 533 841 524 Q 841 518 855 489 L 863 474 Z" style="fill: #0070C0;"></path>
                                                                        <path d="M 635 293 Q 719 305 844 305 Q 898 302 907 313 Q 911 323 897 335 Q 852 371 816 362 Q 747 347 633 328 L 578 320 Q 481 307 371 292 Q 352 291 366 275 Q 379 262 395 258 Q 414 254 428 257 Q 477 272 534 280 L 635 293 Z" style="fill: #0070C0;"></path>
                                                                        <path d="M 633 328 Q 633 358 630 359 Q 608 378 589 388 Q 577 392 568 384 Q 562 381 569 371 Q 578 359 578 320 L 578 258 Q 578 108 565 62 Q 556 28 589 -24 Q 599 -43 608 -46 Q 618 -47 624 -35 Q 636 -4 632 26 Q 631 102 630 262 L 633 328 Z" style="fill: #0070C0;"></path>
                                                                        <path d="M 534 280 Q 504 184 302 43 Q 286 31 300 30 Q 328 27 407 72 Q 459 108 514 167 Q 541 197 578 258 C 598 291 555 338 534 280 Z" style="fill: #0070C0;"></path>
                                                                        <path d="M 630 262 Q 774 79 809 67 Q 881 55 964 66 Q 982 67 983 72 Q 986 78 972 84 Q 792 165 790 166 Q 694 238 677 254 Q 652 279 635 293 C 612 313 603 296 630 262 Z" style="fill: #0070C0;"></path>
                                    
                                    
                                                                                                                                                                                                                                                                                                                                                                                                                                                                                                                                                                                                                                                                                                                                                                                                                                                                                                                                                                                                                                                                                                                                                                                                                                                                                                                                                                                                                                                                                                                                                                                </g>
                            </svg>