<svg width='83' height='83' >
                                <g transform="translate(3, 70) scale(0.07, -0.07)">
                                    <!-- 先将完整的字以灰色字体绘制完成，层级位于下面 -->
                                                                        <path d="M 492 665 Q 550 684 597 707 Q 648 726 691 733 Q 710 734 714 742 Q 718 754 706 766 Q 643 817 603 813 Q 596 809 594 796 Q 588 750 343 644 C 315 632 327 617 356 625 Q 390 634 445 651 L 492 665 Z" style="fill: #0070C0;"></path>
                                                                        <path d="M 343 644 Q 342 645 340 646 Q 289 671 273 668 Q 252 664 269 642 Q 302 585 285 380 Q 281 296 237 196 Q 207 126 108 25 Q 93 12 89 5 Q 88 -2 100 -2 Q 142 -2 221 84 Q 308 183 331 339 Q 347 436 350 582 Q 356 609 356 625 C 357 637 357 637 343 644 Z" style="fill: #0070C0;"></path>
                                                                        <path d="M 626 185 Q 620 184 530 133 Q 520 126 517 136 Q 535 352 530 517 Q 529 551 531 580 L 535 606 Q 544 634 492 665 C 467 682 434 679 445 651 Q 502 534 466 181 Q 465 126 421 70 Q 408 52 417 27 Q 429 -3 444 -15 Q 459 -24 471 -5 Q 487 26 635 160 Q 636 163 640 164 C 663 184 653 198 626 185 Z" style="fill: #0070C0;"></path>
                                                                        <path d="M 640 164 Q 659 134 681 100 Q 690 85 704 81 Q 713 80 721 89 Q 728 101 729 129 Q 730 157 698 190 Q 620 254 605 251 Q 599 248 597 237 Q 597 230 626 185 L 640 164 Z" style="fill: #0070C0;"></path>
                                                                        <path d="M 531 580 Q 562 555 580 517 Q 683 330 768 199 Q 784 174 815 170 Q 927 157 970 156 Q 989 155 998 162 Q 1002 169 992 175 Q 827 262 784 304 Q 783 307 781 308 Q 697 395 584 576 Q 571 606 535 606 C 505 610 509 600 531 580 Z" style="fill: #0070C0;"></path>
                                    
                                    
                                                                                                                                                                                                                                                                                                                                                                                                                                                                        </g>
                            </svg>