<svg width='83' height='83' >
                                <g transform="translate(3, 70) scale(0.07, -0.07)">
                                    <!-- 先将完整的字以灰色字体绘制完成，层级位于下面 -->
                                                                        <path d="M 187 683 Q 209 658 232 629 Q 242 616 257 614 Q 267 613 273 625 Q 279 638 275 666 Q 268 699 188 727 Q 175 733 168 731 Q 164 728 163 716 Q 164 706 187 683 Z" style="fill: #0070C0;"></path>
                                                                        <path d="M 420 771 Q 396 719 332 626 Q 325 610 341 614 Q 398 665 465 736 Q 481 754 501 766 Q 520 779 507 794 Q 492 807 466 817 Q 441 827 430 822 Q 418 819 424 807 Q 430 791 420 771 Z" style="fill: #0070C0;"></path>
                                                                        <path d="M 376 544 Q 416 551 453 557 Q 463 556 470 568 Q 471 578 450 587 Q 423 608 334 576 Q 322 575 312 570 Q 276 561 147 538 Q 122 534 142 519 Q 169 500 188 501 L 225 510 Q 276 525 342 538 L 376 544 Z" style="fill: #0070C0;"></path>
                                                                        <path d="M 399 388 Q 429 394 462 398 Q 477 399 477 407 Q 478 419 462 426 Q 434 438 399 427 L 356 418 Q 298 406 258 396 L 209 385 Q 175 381 160 378 Q 114 371 76 367 Q 64 366 62 358 Q 59 349 73 339 Q 107 315 153 329 Q 180 338 207 345 L 255 359 Q 306 374 356 381 L 399 388 Z" style="fill: #0070C0;"></path>
                                                                        <path d="M 188 501 Q 209 459 209 385 L 207 345 Q 192 168 104 76 Q 79 60 63 35 Q 62 28 72 29 Q 105 29 164 91 Q 228 160 248 292 Q 251 323 255 359 L 258 396 Q 259 432 266 471 Q 270 489 252 498 Q 236 505 225 510 C 198 522 176 529 188 501 Z" style="fill: #0070C0;"></path>
                                                                        <path d="M 356 381 Q 355 359 355 333 Q 351 183 338 150 Q 329 116 362 67 Q 372 49 379 46 Q 389 45 395 57 Q 401 75 402 153 Q 399 276 399 388 L 399 427 Q 400 482 406 507 Q 406 522 376 544 C 353 563 331 566 342 538 L 343 536 Q 355 518 356 418 L 356 381 Z" style="fill: #0070C0;"></path>
                                                                        <path d="M 580 616 Q 820 673 828 679 Q 837 688 832 696 Q 825 708 794 715 Q 761 719 657 682 Q 588 664 517 654 Q 480 647 507 630 Q 517 626 532 620 C 556 610 556 610 580 616 Z" style="fill: #0070C0;"></path>
                                                                        <path d="M 576 363 Q 583 417 589 464 L 591 489 Q 591 490 592 492 Q 595 535 606 569 Q 612 587 580 616 C 559 638 523 649 532 620 Q 532 617 535 612 Q 574 492 504 204 Q 494 165 457 128 Q 432 104 466 57 L 467 55 Q 479 46 492 61 Q 505 83 631 168 Q 650 178 655 186 Q 659 195 651 196 Q 645 196 557 167 Q 545 163 546 173 Q 562 264 574 344 L 576 363 Z" style="fill: #0070C0;"></path>
                                                                        <path d="M 589 464 Q 590 465 593 464 Q 614 464 688 484 Q 701 487 706 481 Q 715 469 700 345 Q 670 57 866 13 Q 870 13 877 12 Q 917 8 958 19 Q 991 28 980 61 Q 964 110 963 186 Q 963 207 957 211 Q 950 217 945 203 Q 912 95 893 83 Q 880 77 853 81 Q 784 93 763 148 Q 714 229 752 407 Q 768 464 801 492 Q 826 513 797 525 Q 781 532 747 543 Q 725 550 703 535 Q 663 507 591 489 C 562 481 559 461 589 464 Z" style="fill: #0070C0;"></path>
                                                                        <path d="M 574 344 Q 578 337 595 326 Q 614 311 635 293 Q 645 283 658 285 Q 665 286 669 296 Q 672 308 664 331 Q 655 350 589 363 Q 580 364 576 363 C 561 361 561 361 574 344 Z" style="fill: #0070C0;"></path>
                                    
                                    
                                                                                                                                                                                                                                                                                                                                                                                                                                                                                                                                                                                                                                                                                                                                                                                                                                                                    </g>
                            </svg>