<svg width='83' height='83' >
                                <g transform="translate(3, 70) scale(0.07, -0.07)">
                                    <!-- 先将完整的字以灰色字体绘制完成，层级位于下面 -->
                                                                        <path d="M 609 731 Q 679 738 783 731 Q 798 730 802 738 Q 806 748 795 763 Q 749 805 641 780 Q 638 780 636 779 L 578 770 Q 505 761 424 751 L 377 746 Q 301 740 218 732 Q 191 729 210 715 Q 250 688 331 703 Q 358 709 387 714 L 427 720 Q 433 727 566 730 L 609 731 Z" style="fill: #0070C0;"></path>
                                                                        <path d="M 424 751 Q 423 773 421 792 Q 422 811 403 815 Q 367 833 346 825 Q 330 816 344 799 Q 366 775 377 746 L 387 714 Q 397 677 412 663 Q 424 653 428 664 Q 434 685 427 720 L 424 751 Z" style="fill: #0070C0;"></path>
                                                                        <path d="M 636 779 Q 640 789 651 801 Q 664 813 657 823 Q 647 839 617 857 Q 604 867 587 860 Q 577 856 584 845 Q 588 830 578 770 L 566 730 Q 551 699 552 675 Q 552 662 567 671 Q 573 677 609 731 L 636 779 Z" style="fill: #0070C0;"></path>
                                                                        <path d="M 328 626 Q 319 630 286 635 Q 276 638 272 633 Q 268 627 275 613 Q 299 571 316 501 Q 320 479 333 466 Q 349 447 354 461 Q 355 467 356 475 L 354 499 Q 353 503 353 507 Q 343 567 338 593 C 332 622 332 625 328 626 Z" style="fill: #0070C0;"></path>
                                                                        <path d="M 632 508 Q 632 507 633 506 Q 637 493 647 492 Q 659 493 666 505 Q 673 509 689 535 Q 705 580 738 604 Q 754 617 741 631 Q 726 647 684 672 Q 671 681 617 668 Q 605 668 328 626 C 298 622 310 583 338 593 Q 344 599 418 611 L 441 614 Q 481 621 537 628 L 576 633 Q 639 645 657 633 Q 663 629 658 612 Q 642 548 636 535 C 628 514 628 514 632 508 Z" style="fill: #0070C0;"></path>
                                                                        <path d="M 457 515 Q 460 536 445 602 Q 445 609 441 614 C 425 639 415 641 418 611 Q 418 608 419 604 Q 419 529 436 511 C 454 488 454 488 457 515 Z" style="fill: #0070C0;"></path>
                                                                        <path d="M 554 532 Q 555 535 557 538 Q 584 598 588 604 Q 597 614 590 621 Q 586 628 576 633 C 550 647 525 656 537 628 Q 546 613 531 535 Q 530 532 529 528 C 521 499 542 505 554 532 Z" style="fill: #0070C0;"></path>
                                                                        <path d="M 356 475 Q 369 474 385 476 Q 526 498 632 508 C 662 511 663 523 636 535 Q 632 538 626 539 Q 614 542 554 532 L 529 528 Q 492 522 457 515 L 436 511 Q 393 507 354 499 C 325 493 326 476 356 475 Z" style="fill: #0070C0;"></path>
                                                                        <path d="M 231 422 Q 221 444 210 451 Q 191 466 189 440 Q 195 403 139 346 Q 118 322 147 267 Q 162 240 182 268 Q 197 290 208 325 Q 221 365 231 389 C 238 407 238 407 231 422 Z" style="fill: #0070C0;"></path>
                                                                        <path d="M 231 389 Q 252 380 285 387 Q 423 426 681 445 Q 727 449 743 445 Q 759 435 757 426 Q 758 423 753 411 Q 726 351 733 345 Q 740 341 756 352 Q 808 385 850 394 Q 884 404 884 412 Q 883 422 812 474 Q 790 493 681 475 Q 594 466 343 434 Q 286 427 231 422 C 201 419 202 396 231 389 Z" style="fill: #0070C0;"></path>
                                                                        <path d="M 401 306 Q 473 321 652 339 Q 662 338 672 350 Q 673 362 651 372 Q 621 396 546 375 Q 519 371 493 364 Q 465 360 301 340 Q 273 337 294 320 Q 322 292 355 299 Q 356 300 358 299 L 401 306 Z" style="fill: #0070C0;"></path>
                                                                        <path d="M 413 253 Q 419 280 410 294 Q 404 301 401 306 C 383 330 357 329 358 299 Q 364 227 320 122 Q 305 80 258 49 Q 228 28 254 -21 Q 263 -31 278 -20 Q 300 1 460 63 Q 479 67 486 75 Q 492 82 484 85 Q 477 86 359 67 Q 346 64 349 75 Q 383 157 402 224 Q 402 228 403 230 L 413 253 Z" style="fill: #0070C0;"></path>
                                                                        <path d="M 403 230 Q 443 221 471 234 Q 555 258 562 248 Q 562 167 561 83 Q 561 32 622 -11 Q 680 -51 805 -43 Q 881 -39 943 -4 Q 965 11 952 36 Q 921 96 910 164 Q 906 173 900 172 Q 896 172 891 158 Q 881 73 870 53 Q 857 34 822 24 Q 779 14 699 21 Q 656 25 635 47 Q 616 62 608 100 Q 596 166 625 218 Q 631 231 641 240 Q 674 262 598 294 Q 574 304 559 294 Q 522 273 413 253 C 384 247 373 234 403 230 Z" style="fill: #0070C0;"></path>
                                                                        <path d="M 424 173 Q 469 119 491 121 Q 503 120 508 136 Q 509 148 499 165 Q 484 189 427 196 Q 418 197 418 187 Q 417 180 424 173 Z" style="fill: #0070C0;"></path>
                                    
                                    
                                                                                                                                                                                                                                                                                                                                                                                                                                                                                                                                                                                                                                                                                                                                                                                                                                                                                                                                                                                                                                                                                                                                                                                    </g>
                            </svg>