<svg width='83' height='83' >
                                <g transform="translate(3, 70) scale(0.07, -0.07)">
                                    <!-- 先将完整的字以灰色字体绘制完成，层级位于下面 -->
                                                                        <path d="M 307 656 Q 344 681 385 713 Q 398 726 419 736 Q 431 743 428 753 Q 424 760 405 769 Q 365 785 342 782 Q 332 781 333 769 Q 333 712 134 588 Q 127 581 141 579 Q 187 591 272 634 L 307 656 Z" style="fill: #0070C0;"></path>
                                                                        <path d="M 329 469 Q 372 481 430 491 Q 446 494 446 501 Q 447 514 429 522 Q 393 535 334 513 L 285 500 Q 149 469 87 459 Q 74 458 72 449 Q 69 439 85 428 Q 121 404 174 421 Q 237 445 284 457 L 329 469 Z" style="fill: #0070C0;"></path>
                                                                        <path d="M 312 329 Q 319 402 329 469 L 334 513 Q 335 552 355 615 Q 359 625 342 638 Q 323 650 307 656 C 279 668 259 661 272 634 Q 285 609 286 591 Q 286 548 285 500 L 284 457 Q 280 393 274 319 C 272 289 309 299 312 329 Z" style="fill: #0070C0;"></path>
                                                                        <path d="M 215 309 Q 203 315 172 321 Q 160 324 157 319 Q 150 312 159 297 Q 187 237 204 140 Q 207 112 224 92 Q 242 70 247 85 Q 251 100 250 124 L 246 158 Q 230 255 227 282 C 224 305 224 305 215 309 Z" style="fill: #0070C0;"></path>
                                                                        <path d="M 408 181 Q 426 260 449 284 Q 471 309 449 323 Q 430 335 403 352 Q 384 362 366 352 Q 342 339 312 329 L 274 319 Q 246 315 215 309 C 186 303 199 272 227 282 Q 237 288 333 304 Q 364 311 371 298 Q 378 292 372 258 Q 366 225 359 186 C 354 156 401 152 408 181 Z" style="fill: #0070C0;"></path>
                                                                        <path d="M 250 124 Q 256 124 263 125 Q 312 138 421 149 Q 431 150 432 160 Q 432 167 408 181 C 394 189 389 189 359 186 Q 358 187 355 186 Q 294 168 246 158 C 217 152 220 123 250 124 Z" style="fill: #0070C0;"></path>
                                                                        <path d="M 799 500 Q 848 506 912 507 Q 966 507 972 517 Q 976 527 961 539 Q 912 575 850 556 Q 826 550 799 544 L 747 533 Q 677 523 582 504 L 538 497 Q 498 491 458 484 Q 439 483 454 467 Q 467 455 483 451 Q 484 451 538 457 L 581 468 Q 638 484 747 496 L 799 500 Z" style="fill: #0070C0;"></path>
                                                                        <path d="M 582 504 Q 582 571 594 617 Q 601 630 599 641 Q 593 648 546 677 Q 527 692 509 678 Q 505 674 510 661 Q 534 627 535 592 Q 536 547 538 497 L 538 457 Q 538 234 526 181 Q 514 138 536 82 Q 542 67 549 65 Q 553 59 560 66 Q 573 75 580 106 L 581 142 Q 581 176 581 307 L 581 337 Q 581 395 581 468 L 582 504 Z" style="fill: #0070C0;"></path>
                                                                        <path d="M 702 117 Q 733 71 738 47 Q 744 19 755 15 Q 770 12 787 47 Q 809 92 813 167 Q 800 333 799 500 L 799 544 Q 799 656 815 717 Q 831 748 776 769 Q 742 788 723 780 Q 705 773 722 751 Q 744 724 745 690 Q 746 674 747 533 L 747 496 Q 746 375 746 172 Q 746 151 735 144 Q 734 141 726 142 Q 722 142 717 141 C 692 133 692 133 702 117 Z" style="fill: #0070C0;"></path>
                                                                        <path d="M 581 307 Q 651 320 703 325 Q 725 329 717 341 Q 707 354 683 359 Q 650 363 581 337 C 553 327 551 302 581 307 Z" style="fill: #0070C0;"></path>
                                                                        <path d="M 580 106 Q 601 113 702 117 C 732 118 739 120 717 141 Q 710 148 698 156 Q 680 165 581 142 C 552 135 551 98 580 106 Z" style="fill: #0070C0;"></path>
                                    
                                    
                                                                                                                                                                                                                                                                                                                                                                                                                                                                                                                                                                                                                                                                                                                                                                                                                                                                                                                                                </g>
                            </svg>