<svg width='83' height='83' >
                                <g transform="translate(3, 70) scale(0.07, -0.07)">
                                    <!-- 先将完整的字以灰色字体绘制完成，层级位于下面 -->
                                                                        <path d="M 558 740 Q 600 746 819 763 Q 831 760 842 774 Q 845 787 819 801 Q 782 823 753 818 Q 495 769 361 761 Q 291 757 215 752 Q 182 751 206 729 Q 242 696 275 703 Q 377 719 503 734 L 558 740 Z" style="fill: #0070C0;"></path>
                                                                        <path d="M 513 647 Q 520 657 526 667 Q 551 709 564 721 Q 577 731 560 740 Q 559 741 558 740 C 535 760 509 763 503 734 Q 497 671 366 540 Q 246 441 174 392 Q 158 379 173 378 Q 201 375 282 420 L 307 434 Q 388 497 478 596 L 513 647 Z" style="fill: #0070C0;"></path>
                                                                        <path d="M 478 596 Q 481 569 476 513 Q 473 495 493 466 Q 502 457 509 467 Q 524 485 524 516 Q 521 558 529 616 Q 535 635 517 645 Q 516 646 513 647 C 486 661 475 626 478 596 Z" style="fill: #0070C0;"></path>
                                                                        <path d="M 580 634 Q 670 579 779 497 Q 797 481 811 480 Q 818 480 824 491 Q 834 504 815 542 Q 794 597 576 662 Q 567 666 567 654 Q 568 641 580 634 Z" style="fill: #0070C0;"></path>
                                                                        <path d="M 282 420 Q 310 363 300 244 Q 294 145 228 12 Q 224 6 223 0 Q 222 -10 231 -7 Q 253 -4 302 83 Q 308 98 316 114 Q 352 211 356 318 Q 357 340 358 359 Q 358 369 360 379 Q 360 380 361 380 C 366 406 366 406 341 419 Q 326 428 307 434 C 279 444 270 447 282 420 Z" style="fill: #0070C0;"></path>
                                                                        <path d="M 361 380 Q 404 390 455 398 L 499 405 Q 556 415 623 421 Q 647 425 658 411 Q 667 407 669 367 Q 678 234 669 83 Q 668 61 660 54 Q 647 45 585 61 Q 569 65 570 55 Q 571 48 583 41 Q 638 -5 666 -39 Q 687 -58 700 -57 Q 712 -54 724 -26 Q 740 19 741 85 Q 731 262 731 327 Q 732 366 744 389 Q 757 410 746 422 Q 736 438 690 462 Q 672 472 599 455 Q 427 428 341 419 C 311 416 332 374 361 380 Z" style="fill: #0070C0;"></path>
                                                                        <path d="M 473 304 Q 436 297 395 292 Q 364 286 386 272 Q 423 251 470 264 Q 471 265 473 264 L 525 275 Q 556 284 588 289 Q 615 296 619 300 Q 626 307 623 314 Q 616 324 591 330 Q 554 336 527 319 L 473 304 Z" style="fill: #0070C0;"></path>
                                                                        <path d="M 472 189 Q 432 183 388 180 Q 357 176 379 160 Q 419 139 463 149 Q 464 150 471 150 L 520 158 Q 557 167 598 173 Q 629 180 634 184 Q 641 191 638 198 Q 632 208 608 215 Q 583 221 556 211 Q 538 207 522 201 L 472 189 Z" style="fill: #0070C0;"></path>
                                                                        <path d="M 455 398 Q 473 347 473 318 Q 473 312 473 304 L 473 264 Q 473 230 472 189 L 471 150 Q 471 -4 483 -21 Q 487 -28 494 -26 Q 518 -8 520 158 L 522 201 Q 522 232 525 275 L 527 319 Q 528 332 530 340 Q 533 353 535 365 Q 539 380 526 389 Q 510 399 499 405 C 473 420 445 426 455 398 Z" style="fill: #0070C0;"></path>
                                    
                                    
                                                                                                                                                                                                                                                                                                                                                                                                                                                                                                                                                                                                                                                                                                                                                                                        </g>
                            </svg>