<svg width='83' height='83' >
                                <g transform="translate(3, 70) scale(0.07, -0.07)">
                                    <!-- 先将完整的字以灰色字体绘制完成，层级位于下面 -->
                                                                        <path d="M 225 620 Q 201 636 175 642 Q 168 646 161 639 Q 151 632 163 619 Q 163 616 169 607 Q 230 487 231 222 Q 234 140 277 112 L 279 111 Q 300 104 302 142 Q 302 152 301 164 L 297 200 Q 296 213 292 227 Q 264 473 260 573 Q 260 574 261 574 C 261 598 251 605 225 620 Z" style="fill: #0070C0;"></path>
                                                                        <path d="M 669 194 Q 679 166 703 111 Q 712 92 723 92 Q 741 93 753 123 Q 805 217 816 348 Q 829 430 840 523 Q 847 581 873 615 Q 894 639 879 655 Q 854 680 798 705 Q 776 717 738 703 Q 626 666 496 644 Q 385 629 225 620 C 195 618 232 568 261 574 Q 348 592 461 609 L 513 617 Q 600 632 701 646 Q 750 655 768 632 Q 778 610 779 586 Q 769 414 727 248 Q 723 218 710 216 C 695 190 658 222 669 194 Z" style="fill: #0070C0;"></path>
                                                                        <path d="M 529 394 Q 598 404 660 411 Q 685 414 677 428 Q 667 444 640 450 Q 613 454 530 436 L 478 426 Q 408 413 345 402 Q 326 398 347 382 Q 363 370 394 375 Q 436 382 478 387 L 529 394 Z" style="fill: #0070C0;"></path>
                                                                        <path d="M 530 436 Q 533 598 534 598 Q 522 610 513 617 C 490 636 446 635 461 609 Q 465 602 470 594 Q 477 575 478 426 L 478 387 Q 478 320 478 219 C 478 189 524 196 524 226 Q 525 316 529 394 L 530 436 Z" style="fill: #0070C0;"></path>
                                                                        <path d="M 301 164 Q 419 185 669 194 C 699 195 737 203 710 216 Q 707 216 675 236 Q 653 251 524 226 L 478 219 Q 381 207 297 200 C 267 197 271 159 301 164 Z" style="fill: #0070C0;"></path>
                                    
                                    
                                                                                                                                                                                                                                                                                                                                                                                                                                                                        </g>
                            </svg>