<svg width='83' height='83' >
                                <g transform="translate(3, 70) scale(0.07, -0.07)">
                                    <!-- 先将完整的字以灰色字体绘制完成，层级位于下面 -->
                                                                        <path d="M 236 507 Q 211 523 183 530 Q 176 533 169 526 Q 159 519 171 506 Q 232 404 237 161 Q 238 92 282 54 Q 283 53 287 51 Q 309 45 310 82 Q 310 86 310 89 L 307 126 Q 274 345 269 462 C 268 489 262 492 236 507 Z" style="fill: #0070C0;"></path>
                                                                        <path d="M 479 527 Q 379 515 236 507 C 206 505 240 455 269 462 Q 275 469 480 498 L 528 505 Q 598 517 679 528 Q 724 535 741 515 Q 751 496 752 474 Q 748 321 716 173 Q 713 146 702 144 Q 699 143 693 144 C 671 123 656 136 660 126 Q 670 98 698 39 Q 708 18 719 20 Q 737 23 748 52 Q 791 137 798 252 Q 808 325 816 408 Q 822 465 848 499 Q 867 523 853 538 Q 828 563 773 586 Q 751 599 713 584 Q 626 556 529 536 L 479 527 Z" style="fill: #0070C0;"></path>
                                                                        <path d="M 524 313 Q 537 317 636 330 Q 646 329 653 340 Q 654 350 634 360 Q 595 375 529 355 Q 526 355 525 354 L 479 342 Q 443 336 347 322 Q 322 318 342 303 Q 375 279 397 287 Q 433 296 478 304 L 524 313 Z" style="fill: #0070C0;"></path>
                                                                        <path d="M 529 536 Q 532 665 553 767 Q 557 782 534 800 Q 492 822 464 826 Q 445 830 436 820 Q 427 810 437 793 Q 474 738 475 700 Q 478 616 479 527 L 480 498 Q 480 422 479 342 L 478 304 Q 475 228 471 147 C 470 117 520 125 520 155 Q 521 236 524 313 L 525 354 Q 526 432 528 505 L 529 536 Z" style="fill: #0070C0;"></path>
                                                                        <path d="M 310 89 Q 422 111 660 126 C 690 128 707 129 693 144 Q 686 154 664 169 Q 646 181 520 155 L 471 147 Q 383 134 307 126 C 277 123 281 83 310 89 Z" style="fill: #0070C0;"></path>
                                    
                                    
                                                                                                                                                                                                                                                                                                                                                                                                                                                                        </g>
                            </svg>