<svg width='83' height='83' >
                                <g transform="translate(3, 70) scale(0.07, -0.07)">
                                    <!-- 先将完整的字以灰色字体绘制完成，层级位于下面 -->
                                                                        <path d="M 365 612 Q 407 660 453 727 Q 475 764 495 781 Q 505 793 500 808 Q 496 821 465 848 Q 435 869 415 868 Q 394 867 403 842 Q 415 817 405 795 Q 377 722 333 655 Q 290 589 232 518 Q 220 506 218 500 Q 214 487 230 490 Q 260 493 349 593 L 365 612 Z" style="fill: #0070C0;"></path>
                                                                        <path d="M 349 593 Q 350 592 353 591 Q 399 566 435 576 Q 478 588 676 612 Q 709 616 721 600 Q 740 578 741 523 Q 744 354 729 244 Q 701 72 666 53 Q 660 50 568 73 Q 558 77 553 73 Q 550 66 567 50 Q 610 4 631 -37 Q 652 -70 671 -64 Q 687 -60 711 -29 Q 744 11 767 86 Q 792 177 810 476 Q 813 554 834 579 Q 855 603 829 623 Q 745 677 710 665 Q 542 626 365 612 C 335 609 322 605 349 593 Z" style="fill: #0070C0;"></path>
                                                                        <path d="M 200 421 Q 179 434 157 438 Q 150 439 146 434 Q 139 428 148 418 Q 185 367 200 227 Q 204 170 242 143 L 243 142 Q 258 139 259 163 L 257 194 Q 254 213 248 234 Q 232 339 226 388 C 224 408 224 408 200 421 Z" style="fill: #0070C0;"></path>
                                                                        <path d="M 456 186 Q 478 155 497 145 Q 507 138 523 160 Q 538 188 565 339 Q 572 372 597 398 Q 610 411 598 425 Q 582 443 537 469 Q 522 476 456 463 Q 444 463 200 421 C 170 416 197 380 226 388 Q 268 400 330 408 L 372 414 Q 480 432 496 417 Q 512 401 509 384 Q 488 225 473 210 C 460 183 452 191 456 186 Z" style="fill: #0070C0;"></path>
                                                                        <path d="M 382 296 Q 416 303 448 306 Q 469 310 461 321 Q 451 334 429 338 Q 411 341 385 334 L 337 320 Q 306 311 278 303 Q 263 300 282 287 Q 285 284 337 289 L 382 296 Z" style="fill: #0070C0;"></path>
                                                                        <path d="M 385 334 Q 385 361 388 376 Q 395 394 372 414 C 350 435 319 436 330 408 Q 331 407 332 404 Q 336 394 337 320 L 337 289 Q 337 256 337 208 C 337 178 376 187 377 217 Q 378 260 382 296 L 385 334 Z" style="fill: #0070C0;"></path>
                                                                        <path d="M 259 163 Q 265 163 272 164 Q 330 177 456 186 C 486 188 495 190 473 210 Q 449 234 412 225 Q 393 221 377 217 L 337 208 Q 294 201 257 194 C 228 188 229 162 259 163 Z" style="fill: #0070C0;"></path>
                                    
                                    
                                                                                                                                                                                                                                                                                                                                                                                                                                                                                                                                                                                                                                </g>
                            </svg>