<svg width='83' height='83' >
                                <g transform="translate(3, 70) scale(0.07, -0.07)">
                                    <!-- 先将完整的字以灰色字体绘制完成，层级位于下面 -->
                                                                        <path d="M 129 428 Q 127 404 135 386 L 142 374 Q 155 361 165 365 Q 172 368 178 382 Q 200 421 193 476 Q 180 559 157 559 Q 155 559 155 558 Q 148 553 147 536 Q 143 482 129 428 Z" style="fill: #0070C0;"></path>
                                                                        <path d="M 394 660 Q 381 660 382 643 L 382 639 Q 378 618 318 544 C 299 521 292 498 316 515 Q 398 574 441 594 Q 454 598 453 605 Q 453 612 447 622 Q 427 654 394 660 Z" style="fill: #0070C0;"></path>
                                                                        <path d="M 318 544 Q 318 679 337 739 Q 341 751 338 758 Q 329 772 296 784 Q 260 798 243 795 Q 243 794 241 794 Q 223 787 233 770 Q 281 703 270 461 Q 265 354 251 296 Q 227 191 149 119 Q 80 61 80 59 Q 81 55 93 55 Q 109 52 143 69 Q 270 122 301 292 L 308 329 Q 316 390 316 515 L 318 544 Z" style="fill: #0070C0;"></path>
                                                                        <path d="M 301 292 Q 315 278 327 265 L 378 205 Q 389 194 400 192 L 404 192 Q 419 196 417 227 Q 415 250 412 257 Q 396 290 308 329 C 281 341 280 313 301 292 Z" style="fill: #0070C0;"></path>
                                                                        <path d="M 500 460 Q 478 472 460 478 Q 459 478 451 476 Q 441 474 444 465 Q 449 457 453 449 Q 492 372 496 202 Q 496 135 536 108 L 542 108 Q 556 108 557 133 L 557 139 L 554 172 Q 553 188 548 206 Q 547 229 543 255 Q 533 351 531 423 C 530 444 527 446 500 460 Z" style="fill: #0070C0;"></path>
                                                                        <path d="M 780 164 Q 792 133 817 82 Q 826 63 838 65 Q 855 67 864 96 Q 900 163 915 371 L 917 383 Q 923 419 946 455 Q 956 472 955 479 Q 951 489 925 507 Q 878 539 847 535 L 826 529 L 825 529 Q 698 481 500 460 C 470 457 502 415 531 423 Q 538 427 634 445 L 684 456 Q 755 472 803 480 Q 821 482 831 479 Q 855 474 855 441 Q 853 319 831 205 Q 830 197 828 192 Q 824 180 811 182 C 787 164 778 168 780 164 Z" style="fill: #0070C0;"></path>
                                                                        <path d="M 698 297 Q 782 321 784 323 Q 790 329 788 335 Q 788 341 776 347 Q 750 360 717 351 L 701 344 L 645 324 Q 623 318 587 312 L 584 312 Q 563 305 570 297 Q 584 281 641 282 L 647 282 L 698 297 Z" style="fill: #0070C0;"></path>
                                                                        <path d="M 694 196 Q 695 259 698 297 L 701 344 Q 701 362 702 380 Q 704 421 704 425 Q 702 440 684 456 C 662 477 623 473 634 445 Q 641 442 645 324 L 647 282 Q 647 231 649 188 C 650 158 693 166 694 196 Z" style="fill: #0070C0;"></path>
                                                                        <path d="M 557 139 Q 570 139 590 142 Q 670 157 780 164 C 810 166 823 167 811 182 Q 805 192 785 205 Q 770 214 694 196 L 649 188 Q 588 178 554 172 C 524 167 527 138 557 139 Z" style="fill: #0070C0;"></path>
                                    
                                    
                                                                                                                                                                                                                                                                                                                                                                                                                                                                                                                                                                                                                                                                                                                                                                                        </g>
                            </svg>