<svg width='83' height='83' >
                                <g transform="translate(3, 70) scale(0.07, -0.07)">
                                    <!-- 先将完整的字以灰色字体绘制完成，层级位于下面 -->
                                                                        <path d="M 310 519 Q 410 636 449 653 Q 465 660 459 675 Q 455 690 392 718 Q 374 725 354 716 Q 305 694 229 666 Q 210 659 161 656 Q 139 655 148 637 Q 155 627 174 617 Q 196 608 241 628 Q 340 683 358 671 Q 370 664 365 651 Q 334 596 297 530 C 282 504 290 496 310 519 Z" style="fill: #0070C0;"></path>
                                                                        <path d="M 313 231 Q 314 312 318 379 L 319 409 Q 319 458 323 486 Q 329 505 310 519 L 297 530 Q 288 537 279 541 Q 269 545 260 541 Q 253 537 256 527 Q 271 493 271 469 Q 272 442 273 216 C 273 186 313 201 313 231 Z" style="fill: #0070C0;"></path>
                                                                        <path d="M 318 379 Q 325 382 424 411 Q 445 418 434 429 Q 422 441 398 441 Q 353 440 319 409 C 297 389 290 369 318 379 Z" style="fill: #0070C0;"></path>
                                                                        <path d="M 213 195 Q 198 336 202 376 Q 203 397 190 407 Q 168 423 143 429 Q 130 433 122 427 Q 116 421 122 408 Q 141 377 151 343 Q 158 310 177 182 C 181 152 216 165 213 195 Z" style="fill: #0070C0;"></path>
                                                                        <path d="M 177 182 Q 155 176 136 168 Q 118 162 87 161 Q 74 160 73 148 Q 72 135 81 126 Q 106 111 141 94 Q 151 91 164 101 Q 281 171 401 243 Q 414 250 414 261 Q 405 267 313 231 L 273 216 Q 242 206 213 195 L 177 182 Z" style="fill: #0070C0;"></path>
                                                                        <path d="M 598 765 Q 625 743 653 717 Q 668 704 685 705 Q 695 706 701 720 Q 705 736 694 767 Q 682 800 591 815 Q 575 818 568 815 Q 562 811 565 797 Q 569 787 598 765 Z" style="fill: #0070C0;"></path>
                                                                        <path d="M 609 597 Q 694 615 786 633 Q 838 646 847 653 Q 856 660 851 668 Q 844 680 816 687 Q 789 693 674 656 Q 529 626 473 620 Q 439 614 463 598 Q 499 577 572 590 L 609 597 Z" style="fill: #0070C0;"></path>
                                                                        <path d="M 739 455 Q 654 445 563 423 Q 553 419 550 422 Q 549 425 553 432 Q 629 534 645 550 Q 655 559 650 570 Q 644 580 609 597 C 582 611 567 618 572 590 Q 585 545 536 470 Q 517 439 474 411 Q 461 401 465 391 Q 469 376 492 359 Q 501 349 513 359 Q 549 389 746 433 Q 750 434 754 435 C 783 442 769 459 739 455 Z" style="fill: #0070C0;"></path>
                                                                        <path d="M 754 435 Q 788 390 797 389 Q 806 388 813 397 Q 820 409 819 435 Q 816 472 727 521 Q 714 528 708 527 Q 704 524 702 513 Q 702 510 739 455 L 754 435 Z" style="fill: #0070C0;"></path>
                                                                        <path d="M 453 287 Q 471 248 444 155 Q 417 77 320 18 Q 308 11 319 7 Q 361 4 420 47 Q 481 95 504 179 Q 516 231 529 252 Q 539 267 524 276 Q 485 310 461 304 Q 448 300 453 287 Z" style="fill: #0070C0;"></path>
                                                                        <path d="M 567 302 Q 591 248 569 83 Q 562 56 585 22 Q 592 13 601 22 Q 619 44 620 88 Q 620 227 628 276 Q 634 295 617 304 Q 604 313 589 321 Q 579 325 571 320 Q 564 316 567 302 Z" style="fill: #0070C0;"></path>
                                                                        <path d="M 967 92 Q 954 119 936 201 Q 935 214 929 218 Q 923 219 920 205 Q 904 117 889 89 Q 882 79 860 74 Q 815 64 766 81 Q 750 90 744 101 Q 722 149 747 298 Q 753 325 707 342 Q 695 346 688 341 Q 682 338 687 322 Q 699 286 697 253 Q 688 88 719 53 Q 735 38 766 28 Q 884 -2 963 56 Q 979 69 967 92 Z" style="fill: #0070C0;"></path>
                                    
                                    
                                                                                                                                                                                                                                                                                                                                                                                                                                                                                                                                                                                                                                                                                                                                                                                                                                                                                                                                                                                                                            </g>
                            </svg>