<svg width='83' height='83' >
                                <g transform="translate(3, 70) scale(0.07, -0.07)">
                                    <!-- 先将完整的字以灰色字体绘制完成，层级位于下面 -->
                                                                        <path d="M 268 639 Q 280 643 401 693 Q 420 703 443 707 Q 462 711 457 728 Q 450 746 430 763 Q 414 779 401 779 Q 391 780 391 768 Q 388 741 269 659 C 244 642 240 629 268 639 Z" style="fill: #0070C0;"></path>
                                                                        <path d="M 493 583 Q 480 613 469 666 Q 468 678 461 682 Q 454 686 452 670 Q 440 606 431 594 Q 424 585 405 578 Q 341 560 292 572 Q 279 579 274 588 Q 268 604 268 639 L 269 659 Q 273 714 285 741 Q 295 763 280 777 Q 241 807 229 803 Q 217 799 223 785 Q 239 757 235 714 Q 229 581 253 556 Q 268 541 313 534 Q 430 521 481 547 Q 503 560 493 583 Z" style="fill: #0070C0;"></path>
                                                                        <path d="M 250 436 Q 266 464 284 487 Q 291 497 280 509 Q 244 534 223 532 Q 214 531 216 518 Q 228 451 161 372 Q 145 353 137 342 Q 130 329 142 333 Q 155 334 170 348 Q 212 379 238 418 L 250 436 Z" style="fill: #0070C0;"></path>
                                                                        <path d="M 323 410 Q 322 411 326 412 Q 437 437 444 444 Q 451 451 447 458 Q 440 468 415 473 Q 390 477 364 465 Q 340 456 313 448 Q 285 441 250 436 C 220 432 213 431 238 418 Q 239 418 242 416 Q 260 407 286 406 C 311 404 311 404 323 410 Z" style="fill: #0070C0;"></path>
                                                                        <path d="M 332 272 Q 389 285 459 298 Q 474 299 474 307 Q 475 319 458 326 Q 431 338 342 312 L 290 299 Q 170 272 107 263 Q 95 262 93 254 Q 90 245 104 235 Q 141 211 192 230 Q 240 248 280 258 L 332 272 Z" style="fill: #0070C0;"></path>
                                                                        <path d="M 280 258 Q 238 137 147 79 Q 134 70 120 61 Q 108 54 119 51 Q 161 47 232 102 Q 305 165 332 272 L 342 312 Q 357 361 361 366 Q 370 381 356 389 Q 341 401 323 410 C 297 424 277 435 286 406 Q 285 403 288 398 Q 301 368 290 299 L 280 258 Z" style="fill: #0070C0;"></path>
                                                                        <path d="M 357 197 Q 376 178 397 154 Q 406 144 417 144 Q 424 143 430 153 Q 434 163 429 185 Q 426 201 404 213 Q 352 237 340 234 Q 336 233 336 222 Q 339 215 357 197 Z" style="fill: #0070C0;"></path>
                                                                        <path d="M 697 579 Q 805 688 840 701 Q 859 708 852 725 Q 848 741 779 774 Q 760 783 738 773 Q 686 751 608 724 Q 587 717 537 715 Q 513 715 523 695 Q 530 682 551 672 Q 581 657 617 678 Q 714 738 741 725 Q 754 716 748 702 Q 718 651 683 590 C 668 564 676 558 697 579 Z" style="fill: #0070C0;"></path>
                                                                        <path d="M 683 590 Q 680 597 621 613 Q 609 617 604 615 Q 600 611 601 602 L 674 528 Q 684 518 697 518 Q 704 518 709 529 Q 713 539 707 563 Q 704 572 697 579 L 683 590 Z" style="fill: #0070C0;"></path>
                                                                        <path d="M 680 462 Q 795 495 827 492 Q 845 486 845 479 Q 845 476 817 412 Q 811 400 817 397 Q 823 393 836 404 Q 882 438 921 450 Q 952 462 952 469 Q 951 478 887 522 Q 863 540 767 513 Q 722 506 568 468 Q 529 458 490 452 Q 462 448 480 433 Q 511 411 540 421 Q 606 446 640 453 L 680 462 Z" style="fill: #0070C0;"></path>
                                                                        <path d="M 693 160 Q 697 233 700 296 L 702 328 Q 702 380 707 415 Q 716 439 680 462 C 655 479 629 481 640 453 Q 652 432 653 334 Q 653 280 652 183 C 652 153 691 130 693 160 Z" style="fill: #0070C0;"></path>
                                                                        <path d="M 700 296 Q 763 305 810 310 Q 835 314 825 328 Q 813 343 787 347 Q 742 353 702 328 C 676 312 670 292 700 296 Z" style="fill: #0070C0;"></path>
                                                                        <path d="M 554 246 Q 561 273 577 304 Q 583 314 577 322 Q 570 331 541 344 Q 520 351 512 349 Q 500 345 503 331 Q 528 205 370 40 Q 364 33 370 31 Q 397 27 464 91 Q 510 134 546 222 L 554 246 Z" style="fill: #0070C0;"></path>
                                                                        <path d="M 546 222 Q 651 128 763 44 Q 788 25 825 27 Q 894 31 962 53 Q 980 57 981 63 Q 982 70 967 73 Q 915 86 856 99 Q 787 115 735 140 Q 714 150 693 160 L 652 183 Q 628 196 606 212 Q 575 234 554 246 C 528 261 524 242 546 222 Z" style="fill: #0070C0;"></path>
                                    
                                    
                                                                                                                                                                                                                                                                                                                                                                                                                                                                                                                                                                                                                                                                                                                                                                                                                                                                                                                                                                                                                                                                                                                                                                                    </g>
                            </svg>