<svg width='83' height='83' >
                                <g transform="translate(3, 70) scale(0.07, -0.07)">
                                    <!-- 先将完整的字以灰色字体绘制完成，层级位于下面 -->
                                                                        <path d="M 523 803 Q 553 784 586 758 Q 601 748 615 749 Q 625 750 629 764 Q 632 779 620 806 Q 613 825 580 836 Q 504 854 492 847 Q 488 843 490 831 Q 494 821 523 803 Z" style="fill: #0070C0;"></path>
                                                                        <path d="M 370 646 Q 409 631 455 640 Q 576 661 703 684 Q 761 696 770 703 Q 779 710 775 720 Q 768 732 738 741 Q 711 747 595 713 Q 460 686 367 677 Q 366 677 365 676 C 335 671 342 655 370 646 Z" style="fill: #0070C0;"></path>
                                                                        <path d="M 278 407 Q 242 223 115 35 Q 111 28 108 22 Q 105 12 116 13 Q 152 20 229 138 Q 245 166 262 198 Q 334 352 352 537 Q 358 609 370 646 C 376 668 376 668 365 676 Q 349 691 323 703 Q 304 715 291 710 Q 278 703 285 689 Q 306 652 299 575 Q 298 572 298 566 Q 294 502 284 442 L 278 407 Z" style="fill: #0070C0;"></path>
                                                                        <path d="M 133 555 Q 173 507 205 492 Q 218 488 227 501 Q 233 513 231 528 Q 219 568 145 590 Q 130 594 121 591 Q 115 590 118 579 Q 119 569 133 555 Z" style="fill: #0070C0;"></path>
                                                                        <path d="M 284 442 Q 92 319 52 308 Q 42 304 42 294 Q 43 281 54 276 Q 79 267 114 259 Q 124 258 133 270 Q 151 300 274 404 Q 275 407 278 407 C 302 426 309 458 284 442 Z" style="fill: #0070C0;"></path>
                                                                        <path d="M 719 80 Q 704 59 690 63 Q 660 70 619 82 Q 604 86 603 82 Q 603 78 620 63 Q 657 30 679 -11 Q 689 -27 698 -30 Q 705 -31 723 -17 Q 775 29 810 101 Q 838 164 861 336 Q 867 361 880 372 Q 892 382 880 398 Q 865 413 837 430 Q 815 445 746 425 Q 742 425 739 424 Q 553 387 547 403 Q 547 415 605 501 Q 636 541 649 547 Q 659 553 658 556 Q 659 563 653 568 Q 631 587 605 596 Q 587 603 558 590 Q 459 554 394 554 Q 379 554 377 549 Q 374 545 380 536 Q 387 527 402 519 Q 414 510 463 523 Q 577 559 578 545 Q 578 511 510 416 Q 474 383 488 350 Q 489 344 505 347 L 529 355 Q 563 365 626 377 L 673 385 Q 742 397 774 396 Q 796 396 799 386 Q 815 298 759 149 Q 758 148 757 144 Q 745 110 719 80 Z" style="fill: #0070C0;"></path>
                                                                        <path d="M 505 347 Q 505 265 371 139 Q 365 135 365 130 Q 365 126 369 127 Q 424 127 530 269 Q 536 282 556 302 Q 562 309 557 321 Q 551 333 529 355 C 508 376 506 377 505 347 Z" style="fill: #0070C0;"></path>
                                                                        <path d="M 626 377 Q 638 299 530 150 Q 527 149 525 145 Q 492 102 408 19 Q 401 13 411 12 Q 475 25 576 146 Q 642 239 687 322 Q 694 335 700 342 Q 707 346 704 356 Q 703 365 690 375 Q 683 382 673 385 C 646 399 624 407 626 377 Z" style="fill: #0070C0;"></path>
                                    
                                    
                                                                                                                                                                                                                                                                                                                                                                                                                                                                                                                                                                                                                                                                                                            </g>
                            </svg>