<svg width='83' height='83' >
                                <g transform="translate(3, 70) scale(0.07, -0.07)">
                                    <!-- 先将完整的字以灰色字体绘制完成，层级位于下面 -->
                                                                        <path d="M 496 781 Q 515 762 537 741 Q 553 726 571 728 Q 583 729 588 744 Q 592 762 582 795 Q 570 822 489 835 Q 471 839 464 836 Q 458 832 460 816 Q 464 803 496 781 Z" style="fill: #0070C0;"></path>
                                                                        <path d="M 370 599 Q 418 590 447 596 Q 741 650 757 658 Q 757 659 758 659 Q 767 666 763 676 Q 756 688 726 696 Q 699 702 594 671 Q 465 643 359 633 Q 355 633 355 632 C 325 628 340 604 370 599 Z" style="fill: #0070C0;"></path>
                                                                        <path d="M 272 359 Q 230 190 112 18 Q 106 11 104 6 Q 101 -4 112 -3 Q 145 3 222 113 Q 238 140 255 170 Q 321 303 358 557 Q 367 593 370 599 C 376 617 376 617 355 632 Q 312 665 292 659 Q 280 652 286 638 Q 304 604 298 530 Q 297 527 297 521 Q 290 451 278 388 L 272 359 Z" style="fill: #0070C0;"></path>
                                                                        <path d="M 138 536 Q 174 482 207 462 Q 220 458 231 469 Q 238 481 238 497 Q 229 540 155 572 Q 139 578 130 576 Q 124 575 125 563 Q 125 551 138 536 Z" style="fill: #0070C0;"></path>
                                                                        <path d="M 278 388 Q 277 389 275 388 Q 107 304 73 301 Q 61 297 61 287 Q 61 274 71 268 Q 96 258 130 246 Q 140 245 150 255 Q 171 285 272 359 C 296 377 307 397 278 388 Z" style="fill: #0070C0;"></path>
                                                                        <path d="M 549 394 Q 561 397 719 424 Q 729 423 738 435 Q 738 445 717 455 Q 681 474 583 443 Q 573 442 564 438 Q 563 438 560 437 L 501 423 Q 476 419 453 415 Q 416 411 375 403 Q 348 399 370 383 Q 400 362 440 370 Q 464 376 495 382 L 549 394 Z" style="fill: #0070C0;"></path>
                                                                        <path d="M 495 382 Q 455 172 287 74 Q 271 64 256 52 Q 243 42 255 40 Q 268 39 304 52 Q 362 77 406 117 Q 508 204 541 352 Q 544 373 549 394 L 560 437 Q 560 438 561 440 Q 565 476 582 507 Q 592 525 575 534 Q 530 570 502 562 Q 489 558 495 543 Q 513 504 501 423 L 495 382 Z" style="fill: #0070C0;"></path>
                                                                        <path d="M 926 95 Q 913 120 893 198 Q 892 214 885 218 Q 879 221 875 204 Q 850 119 833 94 Q 809 64 718 67 Q 684 68 657 81 Q 633 93 627 108 Q 606 153 633 297 Q 639 327 590 347 Q 577 351 569 346 Q 562 342 568 325 Q 580 286 577 249 Q 570 123 580 89 Q 584 67 604 48 Q 671 -10 819 11 Q 832 14 848 18 Q 885 28 920 54 Q 939 70 926 95 Z" style="fill: #0070C0;"></path>
                                                                        <path d="M 709 561 Q 755 519 790 508 Q 805 507 811 520 Q 815 533 811 548 Q 795 587 716 598 Q 700 599 692 596 Q 686 595 690 583 Q 693 573 709 561 Z" style="fill: #0070C0;"></path>
                                    
                                    
                                                                                                                                                                                                                                                                                                                                                                                                                                                                                                                                                                                                                                                                                                                                                                                        </g>
                            </svg>