<svg width='83' height='83' >
                                <g transform="translate(3, 70) scale(0.07, -0.07)">
                                    <!-- 先将完整的字以灰色字体绘制完成，层级位于下面 -->
                                                                        <path d="M 503 816 Q 533 797 566 772 Q 582 760 598 764 Q 608 765 613 780 Q 616 796 602 826 Q 593 845 560 855 Q 481 873 468 863 Q 464 859 466 845 Q 472 835 503 816 Z" style="fill: #0070C0;"></path>
                                                                        <path d="M 362 660 Q 404 650 460 658 Q 575 676 697 696 Q 757 708 765 715 Q 775 722 771 732 Q 764 744 734 753 Q 707 759 599 729 Q 464 699 356 693 Q 355 693 354 692 C 324 688 333 666 362 660 Z" style="fill: #0070C0;"></path>
                                                                        <path d="M 272 399 Q 238 233 119 46 Q 113 40 112 34 Q 109 24 120 25 Q 148 28 224 141 Q 243 174 262 211 Q 322 350 349 580 Q 352 625 362 660 C 367 682 367 682 354 692 Q 339 705 316 715 Q 297 725 284 721 Q 272 714 279 700 Q 295 678 296 615 Q 281 453 279 438 L 272 399 Z" style="fill: #0070C0;"></path>
                                                                        <path d="M 134 581 Q 173 509 200 494 Q 213 487 223 498 Q 232 508 233 523 Q 230 568 154 612 Q 141 621 131 619 Q 125 619 124 608 Q 123 596 134 581 Z" style="fill: #0070C0;"></path>
                                                                        <path d="M 279 438 Q 87 336 48 327 Q 35 323 36 312 Q 36 299 47 293 Q 72 283 108 271 Q 118 270 129 281 Q 141 297 271 399 L 272 399 C 297 416 306 452 279 438 Z" style="fill: #0070C0;"></path>
                                                                        <path d="M 596 586 Q 614 611 614 614 Q 613 623 601 634 Q 571 661 543 656 Q 536 655 537 643 Q 550 574 435 445 Q 432 444 431 440 Q 398 404 317 335 Q 310 331 319 327 Q 392 342 490 446 Q 520 477 583 567 L 596 586 Z" style="fill: #0070C0;"></path>
                                                                        <path d="M 583 567 Q 665 471 754 384 Q 776 362 811 361 Q 875 357 944 371 Q 960 372 963 377 Q 964 384 951 389 Q 794 446 770 459 Q 710 492 596 586 C 573 605 563 590 583 567 Z" style="fill: #0070C0;"></path>
                                                                        <path d="M 424 348 Q 448 317 432 213 Q 431 212 431 207 Q 409 117 318 46 Q 308 37 318 35 Q 400 44 456 136 Q 456 137 471 168 Q 483 198 497 281 Q 498 302 507 321 Q 514 337 500 345 Q 452 376 430 366 Q 418 362 424 348 Z" style="fill: #0070C0;"></path>
                                                                        <path d="M 616 389 Q 617 382 622 373 Q 646 325 635 122 Q 620 28 636 -2 Q 642 -15 652 -27 Q 664 -40 675 -27 Q 691 -3 690 76 Q 690 326 691 342 Q 695 364 689 372 Q 680 394 640 407 Q 630 411 617 407 Q 610 403 616 389 Z" style="fill: #0070C0;"></path>
                                    
                                    
                                                                                                                                                                                                                                                                                                                                                                                                                                                                                                                                                                                                                                                                                                                                                                                        </g>
                            </svg>