<svg width='83' height='83' >
                                <g transform="translate(3, 70) scale(0.07, -0.07)">
                                    <!-- 先将完整的字以灰色字体绘制完成，层级位于下面 -->
                                                                        <path d="M 516 785 Q 547 760 581 729 Q 597 714 615 716 Q 627 717 632 732 Q 636 750 626 783 Q 619 805 583 820 Q 501 848 484 839 Q 478 835 481 820 Q 485 807 516 785 Z" style="fill: #0070C0;"></path>
                                                                        <path d="M 371 593 Q 405 586 443 593 Q 779 654 800 666 Q 800 667 802 667 Q 812 674 807 684 Q 800 696 770 704 Q 743 710 637 678 Q 475 641 365 629 C 335 626 341 598 371 593 Z" style="fill: #0070C0;"></path>
                                                                        <path d="M 273 329 Q 237 179 135 20 Q 131 13 128 7 Q 125 -5 136 -2 Q 170 4 249 126 Q 261 150 274 174 Q 331 298 359 521 Q 362 560 371 593 C 377 620 377 620 365 629 Q 349 644 322 655 Q 303 667 289 661 Q 276 654 283 640 Q 299 618 300 559 Q 282 372 280 364 L 273 329 Z" style="fill: #0070C0;"></path>
                                                                        <path d="M 161 535 Q 194 477 222 460 Q 235 454 247 465 Q 254 477 256 493 Q 250 539 179 570 Q 164 577 154 575 Q 148 575 149 563 Q 148 551 161 535 Z" style="fill: #0070C0;"></path>
                                                                        <path d="M 280 364 Q 100 280 66 277 Q 54 273 54 264 Q 54 251 64 245 Q 88 233 121 220 Q 131 219 142 228 Q 160 250 272 328 Q 272 329 273 329 C 297 347 307 377 280 364 Z" style="fill: #0070C0;"></path>
                                                                        <path d="M 531 465 Q 553 496 572 521 Q 582 533 569 546 Q 530 579 507 576 Q 497 575 498 560 Q 507 488 433 406 Q 427 406 401 371 Q 394 358 407 361 Q 446 365 511 439 L 531 465 Z" style="fill: #0070C0;"></path>
                                                                        <path d="M 601 433 Q 763 466 771 473 Q 780 480 775 489 Q 768 499 740 507 Q 716 510 633 485 Q 567 472 531 465 C 502 459 483 450 511 439 Q 524 433 544 429 Q 547 429 551 428 L 601 433 Z" style="fill: #0070C0;"></path>
                                                                        <path d="M 608 263 Q 690 278 831 283 Q 885 283 892 293 Q 896 303 881 315 Q 835 348 800 339 Q 731 323 614 298 L 560 289 Q 469 274 366 256 Q 347 253 362 239 Q 375 227 391 223 Q 410 219 425 224 Q 485 243 553 254 L 608 263 Z" style="fill: #0070C0;"></path>
                                                                        <path d="M 614 298 Q 632 391 636 397 Q 643 404 637 414 Q 631 420 601 433 C 574 445 540 456 551 428 Q 552 425 555 421 Q 570 370 561 293 Q 560 292 560 289 L 553 254 Q 552 251 551 247 Q 518 136 420 68 Q 384 46 328 17 Q 304 4 333 5 Q 415 2 509 77 Q 522 92 537 110 Q 568 149 598 235 L 614 298 Z" style="fill: #0070C0;"></path>
                                                                        <path d="M 598 235 Q 673 126 769 11 Q 788 -8 818 -7 Q 921 -1 953 6 Q 963 7 964 13 Q 965 17 951 25 Q 807 79 742 139 Q 679 193 608 263 L 605 263 C 580 279 581 260 598 235 Z" style="fill: #0070C0;"></path>
                                    
                                    
                                                                                                                                                                                                                                                                                                                                                                                                                                                                                                                                                                                                                                                                                                                                                                                                                                                                    </g>
                            </svg>