<svg width='83' height='83' >
                                <g transform="translate(3, 70) scale(0.07, -0.07)">
                                    <!-- 先将完整的字以灰色字体绘制完成，层级位于下面 -->
                                                                        <path d="M 525 782 Q 558 761 592 736 Q 608 726 623 728 Q 633 729 637 744 Q 640 760 626 788 Q 617 807 584 818 Q 502 836 492 827 Q 488 823 490 810 Q 496 800 525 782 Z" style="fill: #0070C0;"></path>
                                                                        <path d="M 378 634 Q 411 622 481 630 Q 604 651 733 671 Q 796 683 805 691 Q 815 698 811 708 Q 804 720 774 729 Q 744 736 644 706 Q 491 673 376 665 Q 372 665 371 664 C 341 660 349 642 378 634 Z" style="fill: #0070C0;"></path>
                                                                        <path d="M 284 359 Q 259 212 139 12 Q 133 5 132 -1 Q 129 -13 140 -10 Q 177 -3 261 138 Q 271 159 282 180 Q 342 324 369 592 Q 370 628 378 634 C 385 654 385 654 371 664 Q 355 679 326 691 Q 307 701 293 697 Q 280 690 287 675 Q 306 648 307 592 Q 306 574 305 552 Q 302 470 291 398 L 284 359 Z" style="fill: #0070C0;"></path>
                                                                        <path d="M 146 547 Q 210 475 235 476 Q 250 475 256 495 Q 257 510 246 532 Q 234 550 208 558 Q 168 574 150 577 Q 140 578 139 565 Q 138 556 146 547 Z" style="fill: #0070C0;"></path>
                                                                        <path d="M 291 398 Q 93 292 62 285 Q 49 281 50 270 Q 51 255 62 250 Q 90 240 127 227 Q 137 227 148 238 Q 167 265 284 359 C 307 378 317 412 291 398 Z" style="fill: #0070C0;"></path>
                                                                        <path d="M 534 588 Q 591 522 616 524 Q 631 523 636 543 Q 637 556 626 578 Q 614 594 591 601 Q 554 614 537 617 Q 527 618 527 606 Q 526 597 534 588 Z" style="fill: #0070C0;"></path>
                                                                        <path d="M 562 445 Q 652 464 819 483 Q 831 482 840 495 Q 841 508 817 519 Q 778 543 713 522 Q 584 494 405 471 Q 374 467 398 449 Q 434 419 468 428 Q 492 434 521 438 L 562 445 Z" style="fill: #0070C0;"></path>
                                                                        <path d="M 613 272 Q 552 273 501 272 Q 476 273 489 288 Q 535 343 578 384 Q 593 399 591 406 Q 590 419 562 445 C 540 466 523 468 521 438 Q 524 405 467 320 Q 454 301 429 283 Q 410 270 412 259 Q 413 243 426 224 Q 436 214 447 220 Q 478 235 583 248 Q 587 249 592 248 C 622 249 643 272 613 272 Z" style="fill: #0070C0;"></path>
                                                                        <path d="M 592 248 Q 448 106 421 96 Q 405 89 405 72 Q 405 57 430 32 Q 440 16 458 28 Q 588 85 757 106 C 787 110 774 131 744 128 Q 639 119 519 98 Q 489 92 511 113 Q 560 162 671 258 Q 708 294 740 313 Q 756 322 750 334 Q 743 356 709 383 Q 693 396 682 395 Q 670 394 670 376 Q 667 343 613 272 L 592 248 Z" style="fill: #0070C0;"></path>
                                                                        <path d="M 757 106 Q 806 19 816 14 Q 823 10 833 18 Q 849 28 847 73 Q 847 128 710 225 Q 703 232 698 220 Q 694 207 702 195 Q 721 165 744 128 L 757 106 Z" style="fill: #0070C0;"></path>
                                    
                                    
                                                                                                                                                                                                                                                                                                                                                                                                                                                                                                                                                                                                                                                                                                                                                                                                                                                                    </g>
                            </svg>