<svg width='83' height='83' >
                                <g transform="translate(3, 70) scale(0.07, -0.07)">
                                    <!-- 先将完整的字以灰色字体绘制完成，层级位于下面 -->
                                                                        <path d="M 527 786 Q 558 764 589 736 Q 605 723 621 725 Q 631 726 637 740 Q 641 756 629 787 Q 617 820 519 836 Q 503 839 496 835 Q 490 831 493 817 Q 497 807 527 786 Z" style="fill: #0070C0;"></path>
                                                                        <path d="M 373 599 Q 412 583 459 593 Q 592 618 730 645 Q 793 658 802 667 Q 812 674 807 684 Q 800 696 770 704 Q 745 710 630 675 Q 483 639 371 630 Q 367 630 365 628 C 336 622 345 609 373 599 Z" style="fill: #0070C0;"></path>
                                                                        <path d="M 273 329 Q 237 179 135 20 Q 131 13 128 7 Q 125 -5 136 -2 Q 170 4 249 126 Q 261 150 274 174 Q 331 298 359 521 Q 363 590 373 599 C 380 616 380 616 365 628 Q 349 644 322 655 Q 303 667 289 661 Q 276 654 283 640 Q 299 618 300 559 Q 282 372 280 364 L 273 329 Z" style="fill: #0070C0;"></path>
                                                                        <path d="M 161 535 Q 194 477 222 460 Q 235 454 247 465 Q 254 477 256 493 Q 250 539 179 570 Q 164 577 154 575 Q 148 575 149 563 Q 148 551 161 535 Z" style="fill: #0070C0;"></path>
                                                                        <path d="M 280 364 Q 100 280 66 277 Q 54 273 54 264 Q 54 251 64 245 Q 88 233 121 220 Q 131 219 142 228 Q 160 250 272 328 Q 272 329 273 329 C 297 347 307 377 280 364 Z" style="fill: #0070C0;"></path>
                                                                        <path d="M 607 456 Q 773 492 779 497 Q 788 504 783 513 Q 776 523 748 531 Q 718 537 690 525 Q 641 509 588 496 Q 530 483 461 476 Q 425 470 451 454 Q 490 430 547 443 Q 553 444 563 446 L 607 456 Z" style="fill: #0070C0;"></path>
                                                                        <path d="M 622 108 Q 625 201 627 278 L 628 307 Q 631 433 632 433 Q 619 448 607 456 C 583 474 552 474 563 446 Q 575 427 579 327 Q 579 257 580 103 C 580 73 621 78 622 108 Z" style="fill: #0070C0;"></path>
                                                                        <path d="M 627 278 Q 661 274 760 296 Q 770 300 783 302 Q 802 308 805 310 Q 812 317 807 325 Q 800 335 773 341 Q 745 344 719 332 Q 697 323 674 317 Q 652 313 628 307 C 599 300 597 280 627 278 Z" style="fill: #0070C0;"></path>
                                                                        <path d="M 487 92 Q 478 239 482 276 Q 485 298 470 309 Q 448 325 422 334 Q 409 338 400 332 Q 393 326 400 312 Q 418 281 426 248 Q 433 217 448 87 C 451 57 489 62 487 92 Z" style="fill: #0070C0;"></path>
                                                                        <path d="M 448 87 Q 375 80 297 71 Q 275 70 291 51 Q 306 36 324 30 Q 346 24 363 29 Q 528 71 852 71 Q 870 71 889 70 Q 910 70 915 79 Q 921 91 903 105 Q 849 147 811 139 Q 738 126 622 108 L 580 103 Q 535 99 487 92 L 448 87 Z" style="fill: #0070C0;"></path>
                                    
                                    
                                                                                                                                                                                                                                                                                                                                                                                                                                                                                                                                                                                                                                                                                                                                                                                                                                                                    </g>
                            </svg>