<svg width='83' height='83' >
                                <g transform="translate(3, 70) scale(0.07, -0.07)">
                                    <!-- 先将完整的字以灰色字体绘制完成，层级位于下面 -->
                                                                        <path d="M 502 805 Q 550 751 584 740 Q 600 737 610 752 Q 617 767 613 786 Q 598 829 537 844 Q 497 854 485 849 Q 478 848 482 834 Q 483 821 502 805 Z" style="fill: #0070C0;"></path>
                                                                        <path d="M 350 624 Q 387 609 450 618 Q 568 637 692 657 Q 753 669 762 677 Q 771 684 766 692 Q 760 704 732 712 Q 708 718 608 691 Q 467 661 348 650 C 318 647 322 633 350 624 Z" style="fill: #0070C0;"></path>
                                                                        <path d="M 261 351 Q 218 176 83 59 Q 53 38 47 25 Q 44 18 56 18 Q 95 15 183 97 Q 279 194 310 349 Q 310 358 350 624 C 353 646 353 646 348 650 Q 344 654 338 658 Q 290 685 275 683 Q 254 680 269 657 Q 299 600 269 392 Q 268 391 268 386 L 261 351 Z" style="fill: #0070C0;"></path>
                                                                        <path d="M 143 516 Q 158 489 173 458 Q 182 442 197 437 Q 207 434 217 445 Q 226 458 227 489 Q 227 520 153 563 Q 140 572 133 571 Q 126 570 124 556 Q 124 544 143 516 Z" style="fill: #0070C0;"></path>
                                                                        <path d="M 268 386 Q 82 296 53 293 Q 41 289 41 279 Q 41 266 52 261 Q 76 249 110 237 Q 120 236 130 246 Q 149 268 261 351 C 285 369 295 399 268 386 Z" style="fill: #0070C0;"></path>
                                                                        <path d="M 585 546 Q 597 564 598 567 Q 597 576 585 586 Q 557 611 529 607 Q 522 606 523 594 Q 535 522 423 392 Q 420 391 419 387 Q 386 350 305 278 Q 298 274 307 271 Q 421 296 572 526 L 585 546 Z" style="fill: #0070C0;"></path>
                                                                        <path d="M 572 526 Q 756 321 801 311 Q 855 301 952 319 Q 968 320 971 326 Q 972 332 959 337 Q 911 356 855 374 Q 750 410 587 544 Q 586 545 585 546 C 562 565 552 548 572 526 Z" style="fill: #0070C0;"></path>
                                                                        <path d="M 562 306 Q 602 316 644 324 Q 671 331 675 334 Q 682 341 679 349 Q 672 359 646 366 Q 618 372 591 360 Q 560 350 527 342 Q 491 335 448 330 Q 414 324 439 309 Q 475 290 520 297 L 562 306 Z" style="fill: #0070C0;"></path>
                                                                        <path d="M 575 171 Q 588 175 680 184 Q 689 183 697 194 Q 698 204 679 213 Q 645 231 584 213 Q 580 213 577 211 L 529 201 Q 501 197 474 194 Q 446 193 416 188 Q 391 187 410 171 Q 431 156 466 155 Q 494 161 529 164 L 575 171 Z" style="fill: #0070C0;"></path>
                                                                        <path d="M 569 71 Q 572 125 575 171 L 577 211 Q 580 289 581 290 L 580 291 Q 570 301 562 306 C 538 323 510 325 520 297 Q 526 291 529 201 L 529 164 Q 529 124 529 66 C 529 36 567 41 569 71 Z" style="fill: #0070C0;"></path>
                                                                        <path d="M 529 66 Q 426 54 308 41 Q 289 40 303 23 Q 316 10 333 4 Q 354 -2 369 2 Q 534 41 770 35 Q 788 35 806 34 Q 825 33 830 42 Q 836 52 820 67 Q 766 106 707 92 Q 649 83 569 71 L 529 66 Z" style="fill: #0070C0;"></path>
                                    
                                    
                                                                                                                                                                                                                                                                                                                                                                                                                                                                                                                                                                                                                                                                                                                                                                                                                                                                                                                                                </g>
                            </svg>