<svg width='83' height='83' >
                                <g transform="translate(3, 70) scale(0.07, -0.07)">
                                    <!-- 先将完整的字以灰色字体绘制完成，层级位于下面 -->
                                                                        <path d="M 508 814 Q 554 768 593 754 Q 609 753 618 768 Q 624 783 619 802 Q 600 847 518 859 Q 499 863 489 857 Q 482 856 486 842 Q 489 829 508 814 Z" style="fill: #0070C0;"></path>
                                                                        <path d="M 360 657 Q 388 648 424 656 Q 755 716 784 727 Q 787 728 790 730 Q 799 737 794 745 Q 788 755 762 764 Q 732 770 654 744 Q 504 704 354 689 C 324 686 331 664 360 657 Z" style="fill: #0070C0;"></path>
                                                                        <path d="M 275 371 Q 233 175 77 41 Q 61 28 58 21 Q 55 14 68 14 Q 84 13 107 28 Q 164 64 199 100 Q 275 182 311 301 Q 345 458 355 629 Q 358 647 360 657 C 365 683 365 683 354 689 Q 351 692 347 694 Q 298 721 281 718 Q 260 715 276 692 Q 309 629 282 412 Q 281 411 281 406 L 275 371 Z" style="fill: #0070C0;"></path>
                                                                        <path d="M 130 571 Q 184 487 211 483 Q 226 480 234 499 Q 238 512 230 535 Q 209 572 138 599 Q 128 602 126 589 Q 123 582 130 571 Z" style="fill: #0070C0;"></path>
                                                                        <path d="M 281 406 Q 83 319 52 317 Q 39 314 39 304 Q 38 291 48 285 Q 72 272 105 259 Q 115 258 125 267 Q 155 298 275 371 C 301 387 308 418 281 406 Z" style="fill: #0070C0;"></path>
                                                                        <path d="M 603 540 Q 648 550 695 558 Q 735 565 742 572 Q 749 579 746 586 Q 740 596 716 603 Q 691 609 664 599 Q 636 590 608 582 L 552 569 Q 501 560 444 556 Q 413 552 435 536 Q 466 518 534 529 Q 543 530 554 531 L 603 540 Z" style="fill: #0070C0;"></path>
                                                                        <path d="M 591 453 Q 595 498 603 540 L 608 582 Q 612 612 620 625 Q 623 635 606 648 Q 576 664 556 668 Q 543 671 536 664 Q 529 658 536 645 Q 548 630 552 569 L 554 531 Q 554 492 554 448 C 554 418 588 423 591 453 Z" style="fill: #0070C0;"></path>
                                                                        <path d="M 646 426 Q 724 436 836 436 Q 893 436 899 445 Q 903 455 889 467 Q 844 501 808 493 Q 735 477 605 456 Q 598 455 591 453 L 554 448 Q 461 435 355 420 Q 336 419 350 403 Q 363 390 379 386 Q 398 382 412 386 Q 538 422 606 422 L 646 426 Z" style="fill: #0070C0;"></path>
                                                                        <path d="M 687 290 Q 735 293 833 293 Q 851 293 855 301 Q 859 311 845 323 Q 794 362 738 344 Q 716 340 690 334 L 636 324 Q 611 323 586 318 Q 486 303 367 288 Q 348 287 362 271 Q 375 258 391 254 Q 410 250 424 253 Q 529 283 637 287 L 687 290 Z" style="fill: #0070C0;"></path>
                                                                        <path d="M 600 44 Q 561 51 522 60 Q 509 61 511 54 Q 512 47 523 40 Q 605 -20 636 -58 Q 651 -74 666 -60 Q 702 -27 697 45 Q 694 76 688 287 Q 687 288 687 290 L 690 334 Q 693 353 699 367 Q 708 386 691 399 Q 670 417 646 426 C 619 438 592 448 606 422 Q 607 416 614 407 Q 635 371 636 324 L 637 287 Q 643 61 624 47 Q 615 40 600 44 Z" style="fill: #0070C0;"></path>
                                                                        <path d="M 443 186 Q 464 165 486 139 Q 496 126 510 126 Q 520 126 525 137 Q 531 149 525 175 Q 518 205 443 228 Q 430 232 424 231 Q 420 228 420 216 Q 421 206 443 186 Z" style="fill: #0070C0;"></path>
                                    
                                    
                                                                                                                                                                                                                                                                                                                                                                                                                                                                                                                                                                                                                                                                                                                                                                                                                                                                                                                                                </g>
                            </svg>