<svg width='83' height='83' >
                                <g transform="translate(3, 70) scale(0.07, -0.07)">
                                    <!-- 先将完整的字以灰色字体绘制完成，层级位于下面 -->
                                                                        <path d="M 512 810 Q 537 791 565 767 Q 581 754 597 757 Q 609 758 613 772 Q 616 788 604 819 Q 592 847 503 860 Q 487 863 480 859 Q 476 855 478 841 Q 482 831 512 810 Z" style="fill: #0070C0;"></path>
                                                                        <path d="M 360 633 Q 402 620 444 628 Q 786 691 802 701 Q 812 710 807 719 Q 800 732 769 741 Q 742 747 653 721 Q 478 676 354 667 C 324 665 331 641 360 633 Z" style="fill: #0070C0;"></path>
                                                                        <path d="M 261 353 Q 224 194 99 10 Q 95 4 92 -2 Q 89 -12 100 -11 Q 134 -5 221 125 Q 234 150 249 177 Q 318 324 342 524 Q 351 609 360 633 C 366 658 366 658 354 667 Q 306 706 284 698 Q 272 691 278 678 Q 297 651 293 580 Q 275 421 269 388 L 261 353 Z" style="fill: #0070C0;"></path>
                                                                        <path d="M 142 550 Q 173 499 209 474 Q 224 470 235 481 Q 242 494 243 511 Q 236 554 160 587 Q 144 594 134 592 Q 128 591 129 579 Q 129 566 142 550 Z" style="fill: #0070C0;"></path>
                                                                        <path d="M 269 388 Q 89 307 67 305 Q 55 302 55 293 Q 55 281 64 275 Q 86 265 117 253 Q 126 252 135 260 Q 172 299 261 353 C 287 369 296 400 269 388 Z" style="fill: #0070C0;"></path>
                                                                        <path d="M 418 486 Q 445 493 473 506 Q 485 513 492 507 Q 496 503 489 487 Q 474 456 462 424 Q 450 403 462 387 Q 493 341 485 330 Q 481 323 465 326 Q 447 330 427 330 Q 406 333 428 319 Q 465 294 499 264 Q 509 255 517 263 Q 527 269 533 286 Q 545 328 498 385 Q 470 427 547 499 Q 551 505 557 507 Q 573 517 564 529 Q 554 545 520 561 Q 502 568 491 558 Q 452 522 402 512 C 373 505 389 478 418 486 Z" style="fill: #0070C0;"></path>
                                                                        <path d="M 402 512 Q 383 527 362 533 Q 355 534 349 528 Q 345 522 352 513 Q 388 420 361 159 Q 354 120 340 81 Q 333 59 337 41 Q 344 11 354 0 Q 364 -13 373 0 Q 401 31 403 162 Q 403 405 418 486 C 420 499 420 499 402 512 Z" style="fill: #0070C0;"></path>
                                                                        <path d="M 813 498 Q 855 505 913 509 Q 958 513 962 521 Q 966 531 950 543 Q 895 576 839 553 Q 737 526 569 485 Q 550 481 566 467 Q 579 457 596 453 Q 615 450 629 456 Q 714 486 768 491 L 813 498 Z" style="fill: #0070C0;"></path>
                                                                        <path d="M 590 368 Q 580 372 555 375 Q 545 378 542 373 Q 538 369 545 355 Q 567 315 582 247 Q 586 226 598 213 Q 614 195 618 209 Q 619 216 620 227 L 617 257 Q 604 327 602 347 C 600 365 600 365 590 368 Z" style="fill: #0070C0;"></path>
                                                                        <path d="M 718 268 Q 731 334 750 354 Q 766 373 748 385 Q 733 392 711 406 Q 696 413 659 391 Q 638 384 590 368 C 562 359 573 339 602 347 Q 636 357 664 364 Q 683 370 689 362 Q 695 358 690 329 Q 686 305 680 277 C 674 248 712 239 718 268 Z" style="fill: #0070C0;"></path>
                                                                        <path d="M 620 227 Q 626 227 633 229 Q 661 236 724 245 Q 733 246 733 254 Q 733 260 718 268 L 680 277 Q 673 276 665 273 Q 640 264 617 257 C 588 248 590 225 620 227 Z" style="fill: #0070C0;"></path>
                                                                        <path d="M 768 491 Q 769 485 775 477 Q 785 453 786 413 Q 789 316 790 95 Q 789 64 779 51 Q 770 47 697 64 Q 684 68 685 60 Q 685 53 695 43 Q 753 -9 790 -50 Q 800 -59 815 -43 Q 849 8 851 103 Q 839 298 848 435 Q 854 462 848 472 Q 839 484 813 498 C 787 513 755 518 768 491 Z" style="fill: #0070C0;"></path>
                                    
                                    
                                                                                                                                                                                                                                                                                                                                                                                                                                                                                                                                                                                                                                                                                                                                                                                                                                                                                                                                                                                                                            </g>
                            </svg>