<svg width='83' height='83' >
                                <g transform="translate(3, 70) scale(0.07, -0.07)">
                                    <!-- 先将完整的字以灰色字体绘制完成，层级位于下面 -->
                                                                        <path d="M 525 822 Q 552 801 582 776 Q 595 764 611 766 Q 621 767 625 780 Q 629 795 618 823 Q 606 851 517 868 Q 501 869 496 867 Q 492 863 493 851 Q 497 841 525 822 Z" style="fill: #0070C0;"></path>
                                                                        <path d="M 372 670 Q 411 663 459 668 Q 790 713 809 726 Q 818 733 814 741 Q 808 753 782 761 Q 763 767 641 737 Q 487 707 363 701 Q 362 701 362 700 C 332 696 342 674 372 670 Z" style="fill: #0070C0;"></path>
                                                                        <path d="M 287 352 Q 239 154 84 20 Q 69 7 66 1 Q 65 -6 76 -6 Q 118 -9 209 84 Q 288 168 324 296 Q 358 458 366 640 Q 370 659 372 670 C 376 692 376 692 362 700 Q 361 701 358 703 Q 310 728 295 726 Q 274 722 290 700 Q 330 622 294 394 L 294 392 L 287 352 Z" style="fill: #0070C0;"></path>
                                                                        <path d="M 164 537 Q 186 512 210 481 Q 220 468 236 466 Q 246 465 253 477 Q 259 490 255 520 Q 248 551 165 583 Q 150 589 144 587 Q 140 584 139 571 Q 140 561 164 537 Z" style="fill: #0070C0;"></path>
                                                                        <path d="M 294 392 Q 107 295 72 289 Q 59 285 59 274 Q 59 261 71 254 Q 98 242 135 230 Q 145 229 156 240 Q 183 276 287 352 C 311 370 321 406 294 392 Z" style="fill: #0070C0;"></path>
                                                                        <path d="M 523 553 Q 553 577 577 599 Q 590 615 607 626 Q 623 636 612 649 Q 599 661 577 669 Q 556 676 546 672 Q 536 669 542 659 Q 546 643 500 552 Q 499 551 499 550 C 486 523 500 534 523 553 Z" style="fill: #0070C0;"></path>
                                                                        <path d="M 471 547 Q 453 560 435 566 Q 429 569 425 564 Q 418 560 425 549 Q 461 474 453 317 Q 450 257 484 234 Q 499 230 502 256 Q 502 257 502 260 L 502 286 Q 499 319 496 346 L 495 371 Q 494 390 493 436 L 492 459 Q 492 489 493 519 C 493 532 493 532 471 547 Z" style="fill: #0070C0;"></path>
                                                                        <path d="M 687 278 Q 688 274 692 268 Q 702 243 710 243 Q 723 243 738 270 Q 753 291 752 309 Q 748 375 757 476 Q 758 506 777 529 Q 787 544 780 553 Q 755 575 713 595 Q 698 601 677 593 Q 629 572 523 553 L 499 550 Q 484 549 471 547 C 441 543 465 508 493 519 Q 502 529 665 557 Q 690 563 698 550 Q 710 534 706 482 Q 699 337 689 308 L 687 278 Z" style="fill: #0070C0;"></path>
                                                                        <path d="M 493 436 Q 497 435 505 436 Q 581 449 636 458 Q 657 462 649 473 Q 639 486 617 490 Q 590 491 492 459 C 463 450 463 439 493 436 Z" style="fill: #0070C0;"></path>
                                                                        <path d="M 496 346 Q 497 346 502 346 Q 584 356 643 363 Q 664 366 657 377 Q 647 390 625 395 Q 604 399 495 371 C 466 364 466 346 496 346 Z" style="fill: #0070C0;"></path>
                                                                        <path d="M 502 260 Q 506 260 513 260 Q 613 273 687 278 C 717 280 716 295 689 308 Q 685 311 678 312 Q 660 315 502 286 C 472 281 472 260 502 260 Z" style="fill: #0070C0;"></path>
                                                                        <path d="M 349 179 Q 328 125 298 77 Q 280 47 297 16 Q 304 0 324 11 Q 369 50 374 127 Q 378 157 371 179 Q 367 186 361 188 Q 354 187 349 179 Z" style="fill: #0070C0;"></path>
                                                                        <path d="M 441 170 Q 448 155 461 114 Q 485 21 575 -14 Q 585 -17 599 -22 Q 767 -73 884 3 Q 897 10 896 18 Q 892 28 873 44 Q 845 66 768 147 Q 762 154 757 154 Q 754 153 756 146 Q 769 106 782 63 Q 786 44 775 34 Q 745 10 625 31 Q 526 52 498 117 Q 468 181 466 183 Q 462 187 459 188 Q 446 197 439 190 Q 435 186 441 170 Z" style="fill: #0070C0;"></path>
                                                                        <path d="M 600 181 Q 625 162 650 138 Q 662 128 676 128 Q 685 129 689 140 Q 693 153 684 179 Q 675 203 595 223 Q 582 224 576 223 Q 572 219 573 208 Q 577 198 600 181 Z" style="fill: #0070C0;"></path>
                                                                        <path d="M 795 219 Q 844 185 905 134 Q 921 119 936 117 Q 943 117 949 126 Q 958 139 941 176 Q 923 219 792 246 Q 783 249 783 238 Q 784 226 795 219 Z" style="fill: #0070C0;"></path>
                                    
                                    
                                                                                                                                                                                                                                                                                                                                                                                                                                                                                                                                                                                                                                                                                                                                                                                                                                                                                                                                                                                                                                                                                                                                                                                                                                                                </g>
                            </svg>