<svg width='83' height='83' >
                                <g transform="translate(3, 70) scale(0.07, -0.07)">
                                    <!-- 先将完整的字以灰色字体绘制完成，层级位于下面 -->
                                                                        <path d="M 502 814 Q 527 795 553 771 Q 569 758 588 759 Q 600 760 604 776 Q 608 794 596 827 Q 584 855 493 868 Q 475 871 468 867 Q 462 863 465 848 Q 471 835 502 814 Z" style="fill: #0070C0;"></path>
                                                                        <path d="M 342 641 Q 369 637 399 642 Q 549 667 704 692 Q 774 705 785 715 Q 795 722 791 732 Q 784 744 754 753 Q 721 762 638 734 Q 491 697 333 681 C 303 678 312 644 342 641 Z" style="fill: #0070C0;"></path>
                                                                        <path d="M 253 365 Q 219 194 99 -1 Q 93 -8 92 -14 Q 89 -24 100 -22 Q 125 -18 207 101 Q 226 135 245 174 Q 312 330 329 532 Q 335 617 342 641 C 348 670 348 671 333 681 Q 284 717 262 708 Q 250 701 257 687 Q 276 657 277 597 Q 276 581 275 559 Q 271 474 259 396 L 253 365 Z" style="fill: #0070C0;"></path>
                                                                        <path d="M 139 570 Q 155 545 171 513 Q 180 497 195 493 Q 205 492 213 501 Q 222 514 222 543 Q 222 573 148 616 Q 135 623 129 623 Q 123 620 121 608 Q 121 598 139 570 Z" style="fill: #0070C0;"></path>
                                                                        <path d="M 259 396 Q 82 312 53 309 Q 41 305 41 295 Q 41 282 52 277 Q 76 265 110 253 Q 120 252 130 262 Q 145 280 244 357 Q 248 361 253 365 C 276 385 286 409 259 396 Z" style="fill: #0070C0;"></path>
                                                                        <path d="M 416 507 Q 440 519 503 555 Q 519 567 541 573 Q 560 580 552 595 Q 542 611 521 625 Q 503 638 492 636 Q 482 636 484 625 Q 484 604 405 522 C 384 500 389 493 416 507 Z" style="fill: #0070C0;"></path>
                                                                        <path d="M 523 444 Q 517 443 446 402 Q 434 396 428 399 Q 424 400 424 409 Q 421 451 419 472 Q 416 488 417 501 Q 417 505 416 507 C 415 517 415 517 405 522 Q 387 532 371 536 Q 356 539 350 534 Q 343 527 355 514 Q 392 471 382 391 Q 378 375 367 352 Q 360 336 367 327 Q 376 317 396 311 Q 409 307 418 322 Q 431 353 509 410 Q 524 420 533 431 C 554 453 550 456 523 444 Z" style="fill: #0070C0;"></path>
                                                                        <path d="M 533 431 Q 561 403 565 401 Q 572 401 578 409 Q 582 418 580 439 Q 577 461 515 491 Q 505 495 500 494 Q 496 493 496 483 Q 496 477 523 444 L 533 431 Z" style="fill: #0070C0;"></path>
                                                                        <path d="M 663 551 Q 721 572 768 582 Q 780 583 783 580 Q 789 571 786 547 Q 780 480 765 449 Q 749 422 725 427 Q 710 431 698 436 Q 676 445 690 422 Q 717 385 728 356 Q 741 340 755 351 Q 801 378 831 487 Q 841 556 860 578 Q 870 588 866 598 Q 857 608 813 626 Q 804 630 751 610 Q 664 583 597 571 Q 584 570 581 563 Q 580 556 600 548 Q 619 536 636 543 L 663 551 Z" style="fill: #0070C0;"></path>
                                                                        <path d="M 636 543 L 637 542 Q 637 539 639 536 Q 658 473 525 315 Q 521 311 520 306 Q 520 302 525 303 Q 585 318 666 457 Q 672 475 693 503 Q 697 512 691 522 Q 679 540 663 551 C 639 569 625 571 636 543 Z" style="fill: #0070C0;"></path>
                                                                        <path d="M 392 266 Q 382 270 364 273 Q 352 276 349 271 Q 342 265 351 249 Q 384 176 401 59 Q 404 23 424 0 Q 442 -22 447 -7 Q 450 2 451 13 L 450 47 Q 449 59 447 71 Q 425 189 420 228 C 416 258 416 258 392 266 Z" style="fill: #0070C0;"></path>
                                                                        <path d="M 694 33 Q 704 8 728 -43 Q 737 -61 747 -60 Q 763 -57 773 -31 Q 798 17 814 167 Q 820 216 843 246 Q 861 265 849 279 Q 827 301 780 323 Q 761 333 728 322 Q 602 279 392 266 C 362 264 391 221 420 228 Q 442 235 540 247 L 583 254 Q 730 281 747 264 Q 768 228 739 68 Q 738 53 731 52 Q 730 51 723 52 C 700 33 692 37 694 33 Z" style="fill: #0070C0;"></path>
                                                                        <path d="M 598 148 Q 638 155 674 160 Q 698 164 689 176 Q 679 191 653 195 Q 632 199 600 190 L 549 175 Q 513 166 483 157 Q 467 153 487 138 Q 490 137 550 140 L 598 148 Z" style="fill: #0070C0;"></path>
                                                                        <path d="M 593 66 Q 594 111 598 148 L 600 190 Q 600 194 601 197 Q 601 207 602 213 Q 609 231 583 254 C 561 275 528 275 540 247 Q 546 241 549 175 L 550 140 Q 550 107 552 59 C 553 29 592 36 593 66 Z" style="fill: #0070C0;"></path>
                                                                        <path d="M 451 13 Q 458 12 467 13 Q 540 28 694 33 C 724 34 739 35 723 52 Q 716 61 698 73 Q 682 83 651 77 Q 620 71 593 66 L 552 59 Q 497 53 450 47 C 420 43 421 15 451 13 Z" style="fill: #0070C0;"></path>
                                    
                                    
                                                                                                                                                                                                                                                                                                                                                                                                                                                                                                                                                                                                                                                                                                                                                                                                                                                                                                                                                                                                                                                                                                                                                                                                                                                                </g>
                            </svg>