<svg width='83' height='83' >
                                <g transform="translate(3, 70) scale(0.07, -0.07)">
                                    <!-- 先将完整的字以灰色字体绘制完成，层级位于下面 -->
                                                                        <path d="M 519 802 Q 540 784 561 764 Q 577 751 593 753 Q 603 754 609 768 Q 613 784 601 815 Q 589 839 511 852 Q 495 855 488 851 Q 482 847 485 833 Q 489 823 519 802 Z" style="fill: #0070C0;"></path>
                                                                        <path d="M 348 646 Q 396 639 442 644 Q 767 689 789 703 Q 799 710 794 720 Q 788 733 759 742 Q 728 749 623 720 Q 470 690 350 681 C 320 679 318 650 348 646 Z" style="fill: #0070C0;"></path>
                                                                        <path d="M 253 358 Q 210 178 99 15 Q 93 8 92 2 Q 89 -8 100 -7 Q 136 -1 214 124 Q 230 154 247 187 Q 317 340 342 613 Q 343 631 348 646 C 354 675 355 677 350 681 Q 334 697 303 711 Q 284 721 270 717 Q 258 710 265 696 Q 287 665 283 607 Q 270 442 262 400 Q 261 397 260 394 L 253 358 Z" style="fill: #0070C0;"></path>
                                                                        <path d="M 139 541 Q 154 516 169 488 Q 178 473 192 469 Q 201 468 209 477 Q 216 489 217 517 Q 217 535 196 553 Q 141 593 129 591 Q 123 588 121 577 Q 121 567 139 541 Z" style="fill: #0070C0;"></path>
                                                                        <path d="M 260 394 Q 86 321 55 317 Q 43 314 43 304 Q 42 291 52 285 Q 76 272 109 259 Q 119 258 130 267 Q 157 297 253 358 C 278 374 288 406 260 394 Z" style="fill: #0070C0;"></path>
                                                                        <path d="M 673 521 Q 745 528 814 526 Q 827 525 832 533 Q 836 543 824 555 Q 781 592 691 566 Q 690 566 688 565 L 633 554 Q 566 544 495 532 L 447 525 Q 408 521 368 515 Q 343 511 361 498 Q 397 477 458 489 L 496 498 Q 562 514 629 517 L 673 521 Z" style="fill: #0070C0;"></path>
                                                                        <path d="M 495 532 Q 494 548 494 561 Q 495 577 478 583 Q 441 601 424 595 Q 408 588 421 570 Q 437 551 447 525 L 458 489 Q 467 447 480 430 Q 492 421 496 431 Q 500 447 496 498 L 495 532 Z" style="fill: #0070C0;"></path>
                                                                        <path d="M 688 565 Q 692 578 700 592 Q 712 605 701 615 Q 689 628 657 641 Q 641 648 627 639 Q 618 633 626 624 Q 635 606 633 554 L 629 517 Q 620 466 622 446 Q 623 433 638 444 Q 642 448 673 521 L 688 565 Z" style="fill: #0070C0;"></path>
                                                                        <path d="M 594 412 Q 594 413 595 413 Q 605 423 602 431 Q 599 443 577 450 Q 552 459 541 456 Q 534 455 531 443 Q 507 343 276 167 Q 257 154 282 157 Q 382 172 531 340 Q 537 350 578 394 L 594 412 Z" style="fill: #0070C0;"></path>
                                                                        <path d="M 578 394 Q 746 220 790 210 Q 800 209 813 209 Q 882 210 951 230 Q 969 233 970 238 Q 971 245 957 249 Q 912 262 860 274 Q 743 304 594 412 C 570 429 557 416 578 394 Z" style="fill: #0070C0;"></path>
                                                                        <path d="M 471 254 Q 438 248 462 233 Q 493 218 568 229 Q 655 250 656 250 Q 663 257 659 265 Q 652 275 625 282 Q 610 285 526 262 Q 501 258 471 254 Z" style="fill: #0070C0;"></path>
                                                                        <path d="M 470 140 Q 458 147 425 153 Q 412 157 409 151 Q 402 145 411 129 Q 433 80 448 0 Q 449 -24 464 -40 Q 482 -62 487 -47 Q 491 -34 491 -14 L 488 18 Q 481 85 478 110 C 475 138 475 138 470 140 Z" style="fill: #0070C0;"></path>
                                                                        <path d="M 698 38 Q 717 87 746 107 Q 762 125 748 143 Q 679 198 619 173 Q 570 158 470 140 C 440 135 448 107 478 110 Q 488 110 505 115 Q 646 139 652 133 Q 659 126 658 111 Q 651 74 642 42 C 634 13 687 10 698 38 Z" style="fill: #0070C0;"></path>
                                                                        <path d="M 491 -14 Q 501 -17 515 -14 Q 576 -4 710 2 Q 720 3 723 11 Q 723 20 698 38 C 682 50 671 48 642 42 Q 557 26 488 18 C 458 14 461 -9 491 -14 Z" style="fill: #0070C0;"></path>
                                    
                                    
                                                                                                                                                                                                                                                                                                                                                                                                                                                                                                                                                                                                                                                                                                                                                                                                                                                                                                                                                                                                                                                                                                                                                                                    </g>
                            </svg>