<svg width='83' height='83' >
                                <g transform="translate(3, 70) scale(0.07, -0.07)">
                                    <!-- 先将完整的字以灰色字体绘制完成，层级位于下面 -->
                                                                        <path d="M 504 789 Q 526 773 552 751 Q 565 741 580 742 Q 590 743 593 756 Q 596 769 585 796 Q 575 820 496 832 Q 481 833 476 831 Q 472 827 474 815 Q 478 805 504 789 Z" style="fill: #0070C0;"></path>
                                                                        <path d="M 345 626 Q 373 617 469 631 Q 766 682 778 690 Q 785 697 782 705 Q 776 717 750 724 Q 726 730 632 704 Q 479 668 345 657 C 315 654 316 632 345 626 Z" style="fill: #0070C0;"></path>
                                                                        <path d="M 328 513 Q 329 519 330 524 Q 340 614 345 626 C 351 652 351 652 345 657 Q 329 673 299 687 Q 280 699 266 693 Q 254 686 261 672 Q 282 644 277 588 Q 276 572 275 552 Q 271 488 263 429 L 258 398 Q 258 301 160 125 Q 154 118 149 107 Q 127 67 103 31 Q 99 24 96 18 Q 93 8 104 9 Q 134 15 213 132 Q 229 160 245 191 Q 305 329 326 492 L 328 513 Z" style="fill: #0070C0;"></path>
                                                                        <path d="M 141 569 Q 169 523 196 507 Q 209 503 219 513 Q 226 523 226 540 Q 223 562 209 576 Q 196 588 158 603 Q 143 610 134 607 Q 128 607 129 595 Q 129 585 141 569 Z" style="fill: #0070C0;"></path>
                                                                        <path d="M 263 429 Q 260 429 258 427 Q 95 322 56 312 Q 44 308 46 298 Q 47 285 58 280 Q 83 271 118 263 Q 128 263 137 274 Q 152 298 246 386 Q 253 392 258 398 C 278 420 290 442 263 429 Z" style="fill: #0070C0;"></path>
                                                                        <path d="M 412 492 Q 412 493 415 494 Q 505 521 506 522 Q 513 531 508 538 Q 501 548 473 551 Q 448 554 384 527 Q 360 520 332 515 Q 328 515 328 513 C 300 501 297 499 326 492 Q 350 486 377 485 C 396 484 396 484 412 492 Z" style="fill: #0070C0;"></path>
                                                                        <path d="M 427 307 Q 491 328 494 332 Q 501 339 496 346 Q 489 356 463 359 Q 444 360 429 354 L 389 337 Q 338 321 319 317 Q 289 308 313 296 Q 341 286 387 294 L 427 307 Z" style="fill: #0070C0;"></path>
                                                                        <path d="M 420 162 Q 423 240 427 307 L 429 354 Q 430 415 436 450 Q 442 469 412 492 C 389 511 368 514 377 485 Q 390 455 389 337 L 387 294 Q 386 236 383 147 C 382 117 419 132 420 162 Z" style="fill: #0070C0;"></path>
                                                                        <path d="M 383 147 Q 281 114 265 112 Q 255 111 253 101 Q 252 89 261 83 Q 282 71 312 57 Q 321 56 331 64 Q 412 118 494 172 Q 504 179 505 187 Q 499 191 489 189 Q 456 176 420 162 L 383 147 Z" style="fill: #0070C0;"></path>
                                                                        <path d="M 535 533 Q 577 481 600 477 Q 612 476 616 492 Q 617 502 610 519 Q 601 532 582 540 Q 551 553 538 555 Q 531 556 530 547 Q 529 540 535 533 Z" style="fill: #0070C0;"></path>
                                                                        <path d="M 619 415 Q 625 418 690 435 Q 699 435 704 447 Q 704 456 685 462 Q 648 472 587 444 Q 554 431 523 423 Q 502 419 480 411 Q 458 405 477 394 Q 504 379 535 389 Q 559 398 586 406 L 619 415 Z" style="fill: #0070C0;"></path>
                                                                        <path d="M 616 230 Q 619 239 641 338 Q 642 360 653 381 Q 659 394 647 401 Q 634 410 623 414 Q 622 415 619 415 C 591 425 576 431 586 406 Q 611 355 584 256 L 569 214 Q 538 147 455 87 Q 445 80 455 78 Q 494 78 553 132 Q 578 157 593 182 L 616 230 Z" style="fill: #0070C0;"></path>
                                                                        <path d="M 593 182 Q 641 116 648 113 Q 654 112 661 118 Q 671 125 666 159 Q 663 189 616 230 L 584 256 Q 544 290 518 306 Q 512 310 510 302 Q 509 292 514 283 Q 539 252 569 214 L 593 182 Z" style="fill: #0070C0;"></path>
                                                                        <path d="M 757 535 Q 799 548 842 559 Q 866 566 869 570 Q 876 577 872 586 Q 865 596 837 600 Q 809 603 783 590 Q 756 580 727 570 Q 696 561 657 555 Q 624 546 650 533 Q 672 523 720 525 L 757 535 Z" style="fill: #0070C0;"></path>
                                                                        <path d="M 776 305 Q 807 315 844 324 Q 866 331 869 334 Q 876 341 872 350 Q 865 360 837 364 Q 795 368 777 351 L 737 337 Q 734 337 733 336 Q 705 329 669 323 Q 636 314 662 301 Q 692 286 737 294 L 776 305 Z" style="fill: #0070C0;"></path>
                                                                        <path d="M 772 106 Q 773 212 776 305 L 777 351 Q 780 475 782 492 Q 788 511 757 535 C 734 555 710 553 720 525 Q 738 483 738 383 Q 737 364 737 337 L 737 294 Q 736 216 734 98 C 733 68 772 76 772 106 Z" style="fill: #0070C0;"></path>
                                                                        <path d="M 734 98 Q 692 92 646 83 Q 628 82 642 67 Q 655 55 670 51 Q 688 47 702 52 Q 771 70 911 70 Q 927 71 932 78 Q 936 88 921 100 Q 867 133 819 117 Q 798 113 772 106 L 734 98 Z" style="fill: #0070C0;"></path>
                                    
                                    
                                                                                                                                                                                                                                                                                                                                                                                                                                                                                                                                                                                                                                                                                                                                                                                                                                                                                                                                                                                                                                                                                                                                                                                                                                                                                                                                                                                                                        </g>
                            </svg>