<svg width='83' height='83' >
                                <g transform="translate(3, 70) scale(0.07, -0.07)">
                                    <!-- 先将完整的字以灰色字体绘制完成，层级位于下面 -->
                                                                        <path d="M 514 806 Q 541 790 568 769 Q 583 759 597 762 Q 606 763 609 776 Q 610 789 599 816 Q 592 832 563 841 Q 494 853 483 847 Q 479 843 483 831 Q 487 821 514 806 Z" style="fill: #0070C0;"></path>
                                                                        <path d="M 358 671 Q 376 662 439 671 Q 569 689 707 707 Q 774 717 785 726 Q 794 733 790 741 Q 784 753 758 761 Q 731 768 640 743 Q 496 713 348 705 C 318 703 329 679 358 671 Z" style="fill: #0070C0;"></path>
                                                                        <path d="M 263 404 Q 227 242 107 51 Q 103 44 100 38 Q 97 28 108 29 Q 142 36 221 156 Q 237 184 253 217 Q 317 352 345 589 Q 346 629 357 667 Q 358 670 358 671 C 364 694 364 694 348 705 Q 333 718 311 727 Q 292 739 278 733 Q 266 726 273 712 Q 294 684 289 625 Q 274 463 270 437 L 263 404 Z" style="fill: #0070C0;"></path>
                                                                        <path d="M 157 569 Q 185 523 212 507 Q 225 503 235 513 Q 242 523 242 540 Q 239 562 225 576 Q 212 588 174 603 Q 159 610 150 607 Q 144 607 145 595 Q 145 585 157 569 Z" style="fill: #0070C0;"></path>
                                                                        <path d="M 270 437 Q 95 352 69 349 Q 56 345 57 335 Q 57 322 67 316 Q 92 306 126 294 Q 136 293 146 303 Q 155 315 260 401 Q 261 402 263 404 C 285 424 297 450 270 437 Z" style="fill: #0070C0;"></path>
                                                                        <path d="M 619 621 Q 618 631 609 646 Q 590 668 542 669 Q 535 669 534 659 Q 534 653 577 612 C 599 591 624 591 619 621 Z" style="fill: #0070C0;"></path>
                                                                        <path d="M 671 593 Q 726 605 734 609 Q 741 616 738 622 Q 732 632 709 639 Q 679 645 619 621 L 577 612 Q 511 600 444 594 Q 414 590 435 575 Q 468 554 513 564 Q 574 576 637 587 L 671 593 Z" style="fill: #0070C0;"></path>
                                                                        <path d="M 477 526 Q 501 487 521 483 Q 531 482 537 495 Q 538 505 532 521 Q 520 540 482 547 Q 475 548 473 539 Q 472 533 477 526 Z" style="fill: #0070C0;"></path>
                                                                        <path d="M 642 486 Q 657 504 672 527 Q 697 563 697 566 Q 691 578 671 593 C 647 611 635 617 637 587 Q 640 565 614 492 Q 610 486 608 480 C 597 452 623 463 642 486 Z" style="fill: #0070C0;"></path>
                                                                        <path d="M 608 480 Q 596 479 585 477 Q 476 461 346 443 Q 328 442 342 427 Q 354 415 370 411 Q 388 407 401 410 Q 563 458 846 458 Q 862 459 867 466 Q 871 476 857 488 Q 809 522 757 508 Q 708 499 642 486 L 608 480 Z" style="fill: #0070C0;"></path>
                                                                        <path d="M 456 380 Q 441 389 425 391 Q 421 392 417 388 Q 411 384 419 376 Q 443 343 453 270 Q 456 222 486 206 Q 486 207 487 206 Q 499 205 499 225 L 497 247 Q 496 256 487 288 L 484 308 Q 481 332 479 353 C 478 368 478 368 456 380 Z" style="fill: #0070C0;"></path>
                                                                        <path d="M 659 241 Q 672 222 685 214 Q 694 208 706 225 Q 716 238 738 317 Q 745 342 766 362 Q 776 372 767 384 Q 755 397 720 420 Q 705 427 640 413 Q 634 413 533 394 Q 490 385 456 380 C 426 375 450 345 479 353 Q 543 372 655 386 Q 680 390 688 381 Q 695 372 694 363 Q 679 275 667 266 C 655 246 655 246 659 241 Z" style="fill: #0070C0;"></path>
                                                                        <path d="M 487 288 Q 491 288 497 288 Q 575 301 633 309 Q 651 312 645 322 Q 636 334 617 337 Q 599 340 484 308 C 455 300 457 288 487 288 Z" style="fill: #0070C0;"></path>
                                                                        <path d="M 499 225 Q 503 225 512 225 Q 594 235 659 241 C 689 244 693 252 667 266 Q 661 270 654 271 Q 642 274 497 247 C 468 242 469 225 499 225 Z" style="fill: #0070C0;"></path>
                                                                        <path d="M 365 187 Q 343 133 312 85 Q 291 57 309 24 Q 316 8 336 19 Q 384 58 389 135 Q 393 165 387 187 Q 383 194 377 196 Q 370 195 365 187 Z" style="fill: #0070C0;"></path>
                                                                        <path d="M 439 157 Q 454 67 520 21 Q 604 -36 784 -23 Q 808 -17 830 -10 Q 852 -1 854 12 Q 858 22 823 48 Q 771 99 733 150 Q 721 168 717 161 Q 714 158 733 71 Q 743 32 689 29 Q 686 29 684 29 Q 558 32 511 81 Q 489 102 479 139 Q 473 161 462 167 Q 449 174 442 171 Q 436 170 439 157 Z" style="fill: #0070C0;"></path>
                                                                        <path d="M 565 168 Q 596 137 630 119 Q 642 118 648 128 Q 652 138 649 152 Q 639 183 591 194 Q 561 203 552 198 Q 548 197 550 188 Q 551 179 565 168 Z" style="fill: #0070C0;"></path>
                                                                        <path d="M 784 185 Q 823 160 864 130 Q 879 118 895 121 Q 905 122 909 136 Q 912 152 899 180 Q 890 202 853 217 Q 816 227 773 233 Q 757 234 752 231 Q 748 227 750 214 Q 754 204 784 185 Z" style="fill: #0070C0;"></path>
                                    
                                    
                                                                                                                                                                                                                                                                                                                                                                                                                                                                                                                                                                                                                                                                                                                                                                                                                                                                                                                                                                                                                                                                                                                                                                                                                                                                                                                                                                                                                                                                                                    </g>
                            </svg>