<svg width='83' height='83' >
                                <g transform="translate(3, 70) scale(0.07, -0.07)">
                                    <!-- 先将完整的字以灰色字体绘制完成，层级位于下面 -->
                                                                        <path d="M 521 826 Q 545 810 570 787 Q 583 777 599 778 Q 609 779 613 792 Q 616 807 605 835 Q 593 859 513 872 Q 497 873 492 871 Q 488 867 490 855 Q 494 845 521 826 Z" style="fill: #0070C0;"></path>
                                                                        <path d="M 334 661 Q 362 652 486 670 Q 765 713 781 726 Q 791 733 787 743 Q 780 756 749 766 Q 719 773 620 745 Q 454 706 317 699 Q 316 699 316 698 C 286 694 304 666 334 661 Z" style="fill: #0070C0;"></path>
                                                                        <path d="M 234 383 Q 194 229 83 62 Q 79 55 76 50 Q 73 40 84 41 Q 117 48 200 171 Q 213 195 227 221 Q 296 374 315 553 Q 325 653 334 661 C 340 680 340 680 316 698 Q 280 729 256 722 Q 244 715 250 701 Q 271 671 264 590 Q 263 587 263 581 Q 257 464 240 412 L 234 383 Z" style="fill: #0070C0;"></path>
                                                                        <path d="M 112 569 Q 142 524 167 507 Q 179 503 188 513 Q 194 523 194 537 Q 191 556 178 570 Q 165 583 144 591 Q 116 606 106 603 Q 100 602 101 592 Q 101 582 112 569 Z" style="fill: #0070C0;"></path>
                                                                        <path d="M 240 412 Q 87 346 55 343 Q 43 340 43 330 Q 43 318 52 312 Q 74 300 107 288 Q 117 287 126 296 Q 150 329 234 383 C 259 399 268 424 240 412 Z" style="fill: #0070C0;"></path>
                                                                        <path d="M 532 450 Q 551 514 572 532 Q 591 553 573 565 Q 557 575 535 590 Q 522 597 476 575 Q 439 563 413 555 C 384 546 396 521 424 531 Q 430 534 489 548 Q 507 552 511 545 Q 514 541 491 458 C 483 429 523 421 532 450 Z" style="fill: #0070C0;"></path>
                                                                        <path d="M 398 407 Q 399 407 401 406 Q 410 405 421 407 Q 458 417 539 425 Q 548 426 549 434 Q 549 441 532 450 L 491 458 Q 484 458 481 456 Q 438 443 404 435 C 375 428 369 414 398 407 Z" style="fill: #0070C0;"></path>
                                                                        <path d="M 373 309 Q 374 318 379 327 Q 391 367 398 407 L 404 435 Q 405 444 407 452 Q 416 518 424 531 C 428 543 428 543 413 555 Q 380 583 362 578 Q 352 574 357 562 Q 387 505 330 301 Q 324 288 319 272 Q 295 214 230 117 Q 226 113 224 107 Q 223 98 230 100 Q 264 109 320 196 Q 344 239 358 271 L 373 309 Z" style="fill: #0070C0;"></path>
                                                                        <path d="M 391 303 Q 385 307 373 309 C 344 315 349 300 358 271 Q 373 226 381 163 Q 382 138 396 122 Q 409 104 413 116 Q 419 131 417 158 L 413 188 Q 403 257 403 279 C 403 297 403 297 391 303 Z" style="fill: #0070C0;"></path>
                                                                        <path d="M 516 204 Q 534 264 553 281 Q 572 302 553 314 Q 537 324 515 338 Q 503 347 456 323 Q 422 313 391 303 C 362 294 374 271 403 279 Q 418 283 469 296 Q 487 300 491 293 Q 495 289 489 263 Q 482 238 473 207 C 465 178 507 175 516 204 Z" style="fill: #0070C0;"></path>
                                                                        <path d="M 417 158 Q 465 170 528 177 Q 537 178 537 186 Q 537 193 516 204 L 473 207 Q 470 207 469 206 Q 438 196 413 188 C 384 179 388 151 417 158 Z" style="fill: #0070C0;"></path>
                                                                        <path d="M 657 647 Q 690 604 713 591 Q 723 587 732 597 Q 738 607 737 620 Q 730 651 669 676 Q 657 680 649 678 Q 645 678 646 668 Q 646 659 657 647 Z" style="fill: #0070C0;"></path>
                                                                        <path d="M 778 536 Q 850 558 852 560 Q 859 567 855 574 Q 848 584 823 589 Q 799 593 732 567 Q 669 549 618 540 Q 587 533 610 520 Q 640 505 704 519 Q 723 525 748 529 L 778 536 Z" style="fill: #0070C0;"></path>
                                                                        <path d="M 611 461 Q 638 409 657 404 Q 667 401 674 415 Q 677 425 673 441 Q 661 468 618 481 Q 611 484 609 475 Q 606 469 611 461 Z" style="fill: #0070C0;"></path>
                                                                        <path d="M 741 390 Q 757 412 783 458 Q 790 471 804 489 Q 816 499 809 507 Q 802 520 778 536 C 753 553 744 559 748 529 Q 747 529 748 528 Q 755 500 720 404 Q 716 394 713 384 C 704 355 724 366 741 390 Z" style="fill: #0070C0;"></path>
                                                                        <path d="M 711 348 Q 738 366 912 367 Q 928 368 932 376 Q 936 386 922 396 Q 874 429 824 410 Q 788 403 741 390 L 713 384 Q 643 371 561 355 Q 545 352 558 339 Q 582 318 635 332 Q 648 336 666 339 L 711 348 Z" style="fill: #0070C0;"></path>
                                                                        <path d="M 733 215 Q 799 225 856 233 Q 883 237 873 251 Q 861 267 833 274 Q 793 281 734 259 L 683 246 Q 626 236 576 223 Q 558 219 580 202 Q 593 192 622 197 Q 652 203 683 207 L 733 215 Z" style="fill: #0070C0;"></path>
                                                                        <path d="M 686 -40 Q 690 -61 695 -70 Q 699 -76 706 -73 Q 713 -70 717 -58 Q 729 -18 730 121 Q 730 158 733 215 L 734 259 Q 734 260 735 261 Q 736 294 743 311 Q 746 326 734 334 Q 721 343 711 348 C 685 363 655 367 666 339 Q 681 306 683 246 L 683 207 Q 683 -19 686 -40 Z" style="fill: #0070C0;"></path>
                                    
                                    
                                                                                                                                                                                                                                                                                                                                                                                                                                                                                                                                                                                                                                                                                                                                                                                                                                                                                                                                                                                                                                                                                                                                                                                                                                                                                                                                                                                                                                                                                                    </g>
                            </svg>