<svg width='83' height='83' >
                                <g transform="translate(3, 70) scale(0.07, -0.07)">
                                    <!-- 先将完整的字以灰色字体绘制完成，层级位于下面 -->
                                                                        <path d="M 520 820 Q 548 802 578 780 Q 593 770 608 773 Q 618 774 621 788 Q 622 803 611 830 Q 596 857 508 865 Q 493 866 488 863 Q 484 859 487 847 Q 491 837 520 820 Z" style="fill: #0070C0;"></path>
                                                                        <path d="M 326 676 Q 356 661 400 667 Q 542 685 690 704 Q 757 714 769 722 Q 778 729 774 737 Q 768 749 742 757 Q 715 764 687 757 Q 516 709 323 705 Q 317 705 314 703 C 284 699 298 687 326 676 Z" style="fill: #0070C0;"></path>
                                                                        <path d="M 243 417 Q 210 251 94 65 Q 90 58 88 53 Q 85 43 95 45 Q 125 51 200 169 Q 216 197 231 229 Q 291 364 313 602 Q 317 668 326 676 C 331 691 331 691 314 703 Q 301 715 281 723 Q 263 733 251 728 Q 241 721 246 709 Q 264 685 264 625 Q 263 609 262 589 Q 258 516 249 450 L 243 417 Z" style="fill: #0070C0;"></path>
                                                                        <path d="M 123 558 Q 156 513 187 497 Q 200 494 208 505 Q 214 515 212 529 Q 202 571 139 587 Q 136 588 135 589 Q 122 593 113 591 Q 109 590 110 580 Q 111 570 123 558 Z" style="fill: #0070C0;"></path>
                                                                        <path d="M 249 450 Q 78 351 54 344 Q 44 340 44 331 Q 45 319 55 315 Q 77 306 109 298 Q 119 298 127 308 Q 145 335 236 411 Q 236 414 243 417 C 268 434 275 465 249 450 Z" style="fill: #0070C0;"></path>
                                                                        <path d="M 459 508 Q 486 515 515 521 Q 540 527 544 531 Q 550 537 546 543 Q 542 552 519 557 Q 504 560 464 547 L 421 534 Q 417 534 415 533 Q 381 526 341 520 Q 314 516 334 503 Q 358 488 421 500 L 459 508 Z" style="fill: #0070C0;"></path>
                                                                        <path d="M 334 419 Q 325 422 313 423 Q 304 426 302 422 Q 298 418 304 406 Q 323 367 335 304 Q 336 285 348 273 Q 361 257 365 268 Q 366 277 367 289 L 364 316 Q 354 377 354 395 C 353 413 353 413 334 419 Z" style="fill: #0070C0;"></path>
                                                                        <path d="M 536 335 Q 555 390 577 403 Q 590 416 579 430 Q 567 440 528 458 Q 513 464 456 442 L 422 433 Q 377 426 334 419 C 304 414 324 390 354 395 Q 363 396 372 399 Q 396 403 422 407 L 456 413 Q 469 417 487 419 Q 502 422 507 416 Q 513 412 512 400 Q 508 370 502 344 C 496 315 526 307 536 335 Z" style="fill: #0070C0;"></path>
                                                                        <path d="M 454 302 Q 488 308 542 312 Q 551 313 552 320 Q 552 324 536 335 C 521 346 521 346 502 344 Q 492 344 455 333 L 421 326 Q 390 320 364 316 C 334 311 337 290 367 289 Q 373 288 382 290 Q 395 294 417 296 L 454 302 Z" style="fill: #0070C0;"></path>
                                                                        <path d="M 453 243 Q 453 271 454 302 L 455 333 Q 455 370 456 413 L 456 442 Q 456 457 459 508 L 464 547 Q 465 566 472 581 Q 479 593 476 604 Q 472 611 428 638 Q 409 651 393 639 Q 389 635 394 623 Q 421 584 421 534 L 421 500 Q 421 469 422 433 L 422 407 Q 421 368 421 326 L 419 228 Q 419 138 399 68 Q 390 38 411 -11 Q 415 -24 422 -27 Q 426 -31 432 -26 Q 439 -22 447 -6 Q 454 13 453 38 Q 452 63 453 222 L 453 243 Z" style="fill: #0070C0;"></path>
                                                                        <path d="M 417 296 Q 366 205 221 71 Q 215 64 225 61 Q 238 58 334 134 Q 377 170 419 228 C 476 305 432 322 417 296 Z" style="fill: #0070C0;"></path>
                                                                        <path d="M 453 222 Q 457 218 467 212 Q 533 167 536 167 Q 543 168 546 176 Q 547 186 541 204 Q 537 220 512 230 Q 470 243 453 243 C 428 244 430 242 453 222 Z" style="fill: #0070C0;"></path>
                                                                        <path d="M 686 579 Q 701 606 716 618 Q 723 625 720 635 Q 717 644 697 660 Q 678 673 665 673 Q 652 672 657 656 Q 667 635 629 565 Q 610 534 585 498 Q 578 491 576 486 Q 573 479 583 480 Q 602 483 671 560 L 686 579 Z" style="fill: #0070C0;"></path>
                                                                        <path d="M 705 438 Q 720 451 763 496 Q 797 535 831 555 Q 847 564 837 576 Q 827 586 794 606 Q 781 612 767 604 Q 760 601 708 585 Q 698 582 686 579 C 657 571 642 567 671 560 Q 683 554 735 561 Q 741 567 747 562 Q 751 559 746 551 Q 715 485 695 454 Q 688 442 687 436 Q 686 435 686 433 C 681 416 683 418 705 438 Z" style="fill: #0070C0;"></path>
                                                                        <path d="M 628 426 Q 616 433 603 437 Q 596 438 592 432 Q 591 428 595 420 Q 629 339 600 208 Q 591 199 596 173 L 597 171 Q 604 147 613 138 Q 620 128 628 138 Q 646 159 646 294 Q 646 378 650 399 Q 650 403 649 405 C 649 415 649 415 628 426 Z" style="fill: #0070C0;"></path>
                                                                        <path d="M 783 202 Q 777 183 788 165 Q 798 143 806 143 Q 818 144 831 170 Q 843 191 842 207 Q 823 363 853 409 Q 865 433 810 457 Q 803 461 796 464 Q 784 468 766 461 Q 738 448 705 438 L 686 433 Q 653 427 628 426 C 598 424 619 403 649 405 Q 656 405 664 406 Q 769 431 779 425 Q 786 409 789 363 Q 790 228 783 202 Z" style="fill: #0070C0;"></path>
                                                                        <path d="M 694 300 Q 703 117 639 51 Q 633 47 629 42 Q 604 20 550 -9 Q 540 -13 538 -16 Q 534 -20 546 -22 Q 573 -25 651 15 Q 738 69 738 273 Q 739 297 747 325 Q 751 334 744 340 Q 701 374 673 364 Q 658 357 671 345 Q 693 323 694 300 Z" style="fill: #0070C0;"></path>
                                                                        <path d="M 777 64 Q 816 25 856 -20 Q 866 -32 879 -33 Q 888 -34 893 -23 Q 899 -11 894 13 Q 890 55 778 104 Q 765 108 760 107 Q 756 104 756 93 Q 757 84 777 64 Z" style="fill: #0070C0;"></path>
                                    
                                    
                                                                                                                                                                                                                                                                                                                                                                                                                                                                                                                                                                                                                                                                                                                                                                                                                                                                                                                                                                                                                                                                                                                                                                                                                                                                                                                                                                                                                                                                                                    </g>
                            </svg>