<svg width='83' height='83' >
                                <g transform="translate(3, 70) scale(0.07, -0.07)">
                                    <!-- 先将完整的字以灰色字体绘制完成，层级位于下面 -->
                                                                        <path d="M 330 536 Q 397 597 434 638 Q 518 732 544 746 Q 569 764 552 783 Q 531 802 496 815 Q 463 828 448 821 Q 432 817 440 801 Q 452 762 384 658 Q 306 538 305 535 C 289 509 308 516 330 536 Z" style="fill: #0070C0;"></path>
                                                                        <path d="M 227 531 Q 209 541 190 547 Q 183 550 176 543 Q 167 537 178 524 Q 236 419 241 179 Q 242 113 281 79 Q 282 78 287 75 Q 306 69 309 104 Q 309 111 309 117 L 304 156 Q 303 169 298 184 Q 292 239 283 310 Q 282 311 282 312 L 279 342 Q 272 421 270 485 C 269 510 254 517 227 531 Z" style="fill: #0070C0;"></path>
                                                                        <path d="M 640 134 Q 650 106 675 51 Q 684 32 695 32 Q 713 35 724 63 Q 772 150 780 268 Q 792 341 801 428 Q 808 483 834 518 Q 855 540 840 556 Q 815 581 761 606 Q 740 618 702 605 Q 555 557 330 536 L 305 535 Q 268 535 227 531 C 197 529 241 478 270 485 Q 303 497 669 549 Q 712 556 729 536 Q 739 515 739 494 Q 732 337 696 185 Q 692 158 681 156 Q 677 155 664 160 C 635 153 633 152 640 134 Z" style="fill: #0070C0;"></path>
                                                                        <path d="M 282 312 Q 297 305 324 308 Q 490 330 613 342 Q 643 345 633 362 Q 620 381 588 389 Q 558 396 505 384 Q 382 360 279 342 C 249 337 253 321 282 312 Z" style="fill: #0070C0;"></path>
                                                                        <path d="M 309 117 Q 315 116 324 117 Q 426 133 640 134 C 670 134 685 139 664 160 Q 655 170 643 179 Q 625 192 590 186 Q 431 162 304 156 C 274 154 279 118 309 117 Z" style="fill: #0070C0;"></path>
                                    
                                    
                                                                                                                                                                                                                                                                                                                                                                                                                                                                        </g>
                            </svg>