<svg width='83' height='83' >
                                <g transform="translate(3, 70) scale(0.07, -0.07)">
                                    <!-- 先将完整的字以灰色字体绘制完成，层级位于下面 -->
                                                                        <path d="M 381 673 Q 507 799 520 807 Q 539 822 525 837 Q 509 852 480 861 Q 455 871 442 865 Q 429 861 436 849 Q 445 822 395 735 Q 377 708 360 675 Q 359 671 358 668 C 350 642 360 652 381 673 Z" style="fill: #0070C0;"></path>
                                                                        <path d="M 328 663 Q 315 670 275 676 Q 262 679 259 673 Q 252 666 262 650 Q 302 574 327 446 Q 331 409 354 383 Q 375 361 379 378 Q 382 390 382 405 L 380 430 Q 380 436 360 518 L 355 542 Q 342 600 336 628 C 330 657 328 663 328 663 Z" style="fill: #0070C0;"></path>
                                                                        <path d="M 579 433 Q 598 402 616 393 Q 628 384 644 407 Q 662 434 697 585 Q 707 618 732 644 Q 745 657 734 672 Q 718 691 673 719 Q 655 728 561 707 Q 533 707 388 675 Q 384 675 381 673 L 358 668 Q 342 667 328 663 C 299 657 307 620 336 628 Q 426 653 585 677 Q 619 681 631 670 Q 644 652 642 636 Q 611 480 595 463 C 581 436 579 433 579 433 Z" style="fill: #0070C0;"></path>
                                                                        <path d="M 360 518 Q 367 517 382 519 Q 481 537 554 548 Q 578 552 569 564 Q 559 579 533 583 Q 499 587 355 542 C 326 533 330 519 360 518 Z" style="fill: #0070C0;"></path>
                                                                        <path d="M 382 405 Q 388 405 397 406 Q 497 422 579 433 C 609 437 623 452 595 463 Q 589 466 583 467 Q 564 470 529 462 Q 450 444 380 430 C 351 424 352 404 382 405 Z" style="fill: #0070C0;"></path>
                                                                        <path d="M 471 233 Q 567 252 720 270 Q 819 280 833 293 Q 839 300 831 309 Q 821 319 776 332 Q 748 344 725 338 Q 587 298 490 278 Q 483 277 478 275 L 416 262 Q 220 231 140 235 Q 119 239 107 232 Q 103 228 105 216 Q 109 204 163 171 Q 179 162 200 169 Q 324 203 415 222 L 471 233 Z" style="fill: #0070C0;"></path>
                                                                        <path d="M 912 77 Q 894 125 884 207 Q 883 225 874 230 Q 865 236 861 214 Q 840 114 825 97 Q 789 55 634 55 Q 549 58 514 72 Q 483 88 476 110 Q 463 144 471 233 L 478 275 Q 479 288 485 296 L 485 298 Q 500 331 477 349 Q 420 389 404 384 Q 388 377 396 359 Q 418 320 416 262 L 415 222 Q 416 128 423 105 Q 433 62 465 39 Q 531 -7 751 0 Q 851 4 892 27 Q 925 43 912 77 Z" style="fill: #0070C0;"></path>
                                    
                                    
                                                                                                                                                                                                                                                                                                                                                                                                                                                                                                                                                                                                                                </g>
                            </svg>