<svg width='83' height='83' >
                                <g transform="translate(3, 70) scale(0.07, -0.07)">
                                    <!-- 先将完整的字以灰色字体绘制完成，层级位于下面 -->
                                                                        <path d="M 164 508 Q 308 689 314 693 Q 330 706 317 721 Q 301 733 273 739 Q 248 746 238 740 Q 226 736 233 725 Q 245 698 201 610 Q 177 565 151 515 C 137 488 145 485 164 508 Z" style="fill: #0070C0;"></path>
                                                                        <path d="M 151 515 Q 127 531 112 525 Q 105 521 110 509 Q 143 422 123 226 Q 99 136 135 97 Q 144 85 154 96 Q 164 111 165 130 L 168 158 Q 169 174 169 195 Q 169 256 170 302 L 170 334 Q 171 458 174 468 Q 175 475 175 481 C 179 522 177 500 151 515 Z" style="fill: #0070C0;"></path>
                                                                        <path d="M 175 481 Q 179 482 188 484 Q 215 491 247 500 Q 275 509 285 499 Q 295 489 295 449 Q 295 283 286 192 Q 287 179 282 174 C 275 145 264 147 268 140 Q 277 125 286 109 Q 302 85 309 88 Q 319 89 331 116 Q 344 144 342 183 Q 336 454 359 489 Q 369 507 362 518 Q 355 528 306 544 Q 284 553 266 543 Q 211 518 164 508 C 135 501 146 474 175 481 Z" style="fill: #0070C0;"></path>
                                                                        <path d="M 170 302 Q 221 312 258 320 Q 279 326 270 337 Q 258 350 234 351 Q 212 352 174 337 Q 171 336 170 334 C 148 314 141 296 170 302 Z" style="fill: #0070C0;"></path>
                                                                        <path d="M 165 130 Q 222 137 268 140 C 298 142 309 162 282 174 Q 281 175 277 176 Q 247 182 168 158 C 139 149 135 126 165 130 Z" style="fill: #0070C0;"></path>
                                                                        <path d="M 525 594 Q 556 615 589 626 Q 602 629 605 636 Q 606 645 595 653 Q 576 663 536 672 Q 523 676 512 673 Q 506 669 507 659 Q 508 628 387 542 Q 384 535 389 532 Q 434 547 498 579 L 525 594 Z" style="fill: #0070C0;"></path>
                                                                        <path d="M 713 476 Q 780 489 874 497 Q 890 498 894 507 Q 898 517 883 527 Q 826 558 775 536 Q 744 527 708 515 L 668 503 Q 614 491 559 475 L 511 463 Q 447 450 380 432 Q 364 428 378 415 Q 391 405 407 402 Q 426 399 439 405 Q 473 418 511 430 L 557 443 Q 588 455 672 469 L 713 476 Z" style="fill: #0070C0;"></path>
                                                                        <path d="M 559 475 Q 562 566 563 567 Q 556 579 525 594 C 499 608 489 608 498 579 Q 510 552 511 463 L 511 430 Q 511 384 510 322 L 510 287 Q 510 118 501 107 Q 491 103 435 122 Q 425 126 425 120 Q 425 114 433 105 Q 478 56 506 20 Q 515 11 527 24 Q 560 69 561 151 Q 555 290 554 319 L 554 344 Q 554 395 557 443 L 559 475 Z" style="fill: #0070C0;"></path>
                                                                        <path d="M 510 322 Q 369 256 366 249 Q 365 242 375 231 Q 390 218 407 212 Q 419 208 427 217 Q 463 254 510 287 L 554 319 Q 569 331 585 341 Q 598 348 605 358 Q 609 368 602 368 Q 593 368 554 344 L 510 322 Z" style="fill: #0070C0;"></path>
                                                                        <path d="M 732 218 Q 766 119 842 45 Q 897 -6 925 -6 Q 944 -3 939 25 Q 935 71 942 203 Q 943 225 935 226 Q 928 226 922 206 Q 909 172 896 142 Q 884 111 873 111 Q 828 117 766 250 L 748 301 Q 741 325 713 476 L 708 515 Q 696 635 712 725 Q 727 762 676 785 Q 645 801 625 795 Q 606 791 614 772 Q 654 730 653 700 Q 659 589 668 503 L 672 469 Q 682 376 717 260 L 732 218 Z" style="fill: #0070C0;"></path>
                                                                        <path d="M 717 260 Q 641 185 597 147 Q 590 143 599 140 Q 647 140 732 218 L 766 250 Q 802 290 859 367 Q 877 394 878 397 Q 877 406 866 417 Q 836 447 806 442 Q 797 441 799 428 Q 805 398 748 301 L 717 260 Z" style="fill: #0070C0;"></path>
                                                                        <path d="M 773 659 Q 797 637 822 609 Q 832 597 847 597 Q 856 597 861 609 Q 865 622 860 647 Q 856 666 828 680 Q 765 707 752 703 Q 748 699 748 688 Q 751 678 773 659 Z" style="fill: #0070C0;"></path>
                                    
                                    
                                                                                                                                                                                                                                                                                                                                                                                                                                                                                                                                                                                                                                                                                                                                                                                                                                                                                                                                                                                                                            </g>
                            </svg>