<svg width='83' height='83' >
                                <g transform="translate(3, 70) scale(0.07, -0.07)">
                                    <!-- 先将完整的字以灰色字体绘制完成，层级位于下面 -->
                                                                        <path d="M 167 507 Q 249 673 276 703 Q 279 709 286 715 Q 301 733 284 744 Q 265 754 237 757 Q 209 758 200 752 Q 188 745 198 735 Q 213 710 170 574 Q 157 540 145 500 C 136 471 154 480 167 507 Z" style="fill: #0070C0;"></path>
                                                                        <path d="M 141 499 Q 135 508 104 520 Q 95 524 86 520 Q 79 516 85 505 Q 86 498 91 489 Q 118 449 107 239 Q 92 160 116 124 Q 119 121 123 116 Q 133 106 142 116 Q 151 131 151 152 L 152 185 Q 152 225 149 325 L 148 354 Q 148 423 147 475 L 141 499 Z" style="fill: #0070C0;"></path>
                                                                        <path d="M 237 163 Q 247 145 260 127 Q 273 105 281 108 Q 290 109 301 135 Q 313 163 310 198 Q 300 448 320 489 Q 330 505 322 514 Q 315 523 272 536 Q 250 543 235 534 Q 199 518 167 507 L 145 500 Q 141 500 141 499 C 112 490 118 466 147 475 Q 180 485 214 496 Q 242 506 254 496 Q 264 486 264 448 Q 265 289 259 202 Q 260 186 251 183 C 238 161 236 165 237 163 Z" style="fill: #0070C0;"></path>
                                                                        <path d="M 149 325 Q 189 332 221 335 Q 240 339 233 350 Q 223 362 203 364 Q 184 365 149 355 Q 148 355 148 354 C 122 339 119 320 149 325 Z" style="fill: #0070C0;"></path>
                                                                        <path d="M 151 152 Q 178 159 237 163 C 267 165 270 165 251 183 Q 244 190 229 197 Q 219 203 152 185 C 123 177 122 145 151 152 Z" style="fill: #0070C0;"></path>
                                                                        <path d="M 385 612 Q 416 648 433 672 Q 476 735 495 751 Q 511 766 497 778 Q 481 788 454 795 Q 429 799 420 794 Q 410 790 416 779 Q 428 752 365 613 C 353 586 365 589 385 612 Z" style="fill: #0070C0;"></path>
                                                                        <path d="M 365 613 Q 356 617 336 619 Q 327 622 324 617 Q 320 613 326 600 Q 354 543 371 451 Q 375 423 391 405 Q 406 389 409 400 Q 410 407 411 416 L 411 439 Q 408 466 398 500 L 394 520 Q 384 563 382 582 C 379 608 379 608 365 613 Z" style="fill: #0070C0;"></path>
                                                                        <path d="M 505 434 Q 517 416 529 410 Q 538 404 550 422 Q 563 443 588 557 Q 595 582 613 602 Q 623 612 614 623 Q 601 636 566 657 Q 560 660 385 612 C 356 604 337 561 382 582 Q 409 597 516 623 Q 529 626 537 621 Q 550 612 546 595 Q 527 487 518 471 Q 514 464 506 459 C 494 448 494 448 505 434 Z" style="fill: #0070C0;"></path>
                                                                        <path d="M 398 500 Q 404 503 489 528 Q 505 534 498 543 Q 488 552 468 552 Q 435 551 394 520 C 370 502 370 489 398 500 Z" style="fill: #0070C0;"></path>
                                                                        <path d="M 411 416 Q 412 417 414 416 Q 421 415 431 418 Q 453 425 505 434 C 531 438 529 440 506 459 Q 505 460 501 463 Q 488 467 467 460 Q 436 447 411 439 C 382 430 381 417 411 416 Z" style="fill: #0070C0;"></path>
                                                                        <path d="M 503 328 Q 506 337 505 353 Q 504 371 450 399 Q 440 403 436 402 Q 432 401 432 392 Q 432 389 473 330 Q 477 326 481 321 C 496 303 496 303 503 328 Z" style="fill: #0070C0;"></path>
                                                                        <path d="M 447 277 Q 498 295 573 306 Q 580 306 587 316 Q 587 325 569 331 Q 550 343 524 336 Q 512 332 503 328 L 481 321 Q 469 320 461 315 Q 446 312 337 286 Q 316 282 334 270 Q 355 257 393 263 Q 399 266 409 267 L 447 277 Z" style="fill: #0070C0;"></path>
                                                                        <path d="M 451 225 Q 461 221 494 219 Q 512 216 519 207 Q 532 189 493 89 Q 474 44 454 36 Q 441 35 417 44 Q 390 57 386 54 Q 382 47 395 38 Q 419 14 429 -17 Q 432 -30 440 -35 Q 450 -39 476 -24 Q 518 10 547 121 Q 562 176 577 191 Q 584 195 586 202 Q 587 209 569 226 Q 545 250 493 244 Q 484 245 468 246 C 438 248 422 232 451 225 Z" style="fill: #0070C0;"></path>
                                                                        <path d="M 468 246 Q 469 250 469 253 Q 466 268 447 277 C 421 292 411 297 409 267 Q 409 186 253 44 Q 247 41 254 39 Q 290 39 380 127 Q 381 130 384 132 Q 409 163 451 225 L 468 246 Z" style="fill: #0070C0;"></path>
                                                                        <path d="M 675 479 Q 741 611 756 651 Q 769 691 784 712 Q 791 724 783 735 Q 777 747 747 762 Q 719 774 702 770 Q 686 764 697 746 Q 713 724 708 702 Q 695 626 666 553 Q 638 483 596 401 Q 589 391 588 384 Q 587 374 600 378 Q 621 387 662 457 L 675 479 Z" style="fill: #0070C0;"></path>
                                                                        <path d="M 781 463 Q 898 499 901 502 Q 908 509 904 518 Q 897 528 869 532 Q 841 535 815 522 Q 784 509 751 498 Q 715 488 675 479 C 646 472 634 469 662 457 Q 695 441 742 452 L 781 463 Z" style="fill: #0070C0;"></path>
                                                                        <path d="M 751 206 Q 781 269 790 314 Q 806 396 819 421 Q 828 437 813 445 Q 798 457 785 462 Q 784 463 781 463 C 753 475 731 480 742 452 Q 770 400 720 243 L 700 202 Q 651 127 560 66 Q 548 57 559 55 Q 634 55 723 158 Q 723 159 725 161 L 751 206 Z" style="fill: #0070C0;"></path>
                                                                        <path d="M 725 161 Q 762 100 799 47 Q 811 28 834 26 Q 958 25 970 34 Q 974 40 966 44 Q 828 116 755 201 Q 752 204 751 206 L 720 243 Q 689 283 655 331 Q 646 347 632 349 Q 610 353 604 346 Q 600 342 607 336 Q 635 315 652 284 Q 676 241 700 202 L 725 161 Z" style="fill: #0070C0;"></path>
                                    
                                    
                                                                                                                                                                                                                                                                                                                                                                                                                                                                                                                                                                                                                                                                                                                                                                                                                                                                                                                                                                                                                                                                                                                                                                                                                                                                                                                                                                                                                                                                                                    </g>
                            </svg>