<svg width='83' height='83' >
                                <g transform="translate(3, 70) scale(0.07, -0.07)">
                                    <!-- 先将完整的字以灰色字体绘制完成，层级位于下面 -->
                                                                        <path d="M 553 581 Q 616 597 679 608 Q 722 611 723 592 Q 724 576 701 510 Q 694 492 703 489 Q 712 485 724 501 Q 800 571 832 588 Q 857 597 854 612 Q 851 625 766 662 Q 741 671 712 661 Q 625 636 555 616 L 501 604 Q 425 591 329 573 C 300 567 310 522 339 528 Q 351 529 369 535 Q 436 554 501 568 L 553 581 Z" style="fill: #0070C0;"></path>
                                                                        <path d="M 329 573 Q 328 574 327 574 Q 278 599 261 597 Q 240 594 256 571 Q 289 511 261 291 Q 249 234 221 166 Q 190 96 100 13 Q 85 0 82 -7 Q 79 -14 92 -14 Q 134 -14 208 62 Q 301 165 327 389 Q 336 521 339 528 C 343 558 344 566 329 573 Z" style="fill: #0070C0;"></path>
                                                                        <path d="M 543 405 Q 547 496 553 581 L 555 616 Q 558 718 578 783 Q 581 795 560 811 Q 523 830 496 835 Q 478 839 470 829 Q 463 822 471 805 Q 496 769 496 745 Q 500 678 501 604 L 501 568 Q 501 486 498 393 C 497 363 542 375 543 405 Z" style="fill: #0070C0;"></path>
                                                                        <path d="M 600 165 Q 640 226 669 320 Q 676 354 696 372 Q 712 385 694 401 Q 675 417 641 431 Q 620 438 599 428 Q 571 415 543 405 L 498 393 Q 408 381 397 374 Q 388 367 406 358 Q 431 345 470 357 Q 531 370 591 383 Q 612 389 612 366 Q 612 287 562 198 L 535 159 Q 477 86 305 34 Q 289 30 299 22 Q 306 16 335 20 Q 432 32 490 59 Q 533 81 568 122 L 600 165 Z" style="fill: #0070C0;"></path>
                                                                        <path d="M 568 122 Q 704 -20 761 -27 Q 875 -27 945 -19 Q 958 -15 962 -7 Q 966 2 944 5 Q 886 24 822 41 Q 716 72 600 165 L 562 198 Q 544 214 527 231 Q 443 321 390 316 Q 377 316 365 312 Q 355 308 361 298 Q 367 289 378 289 Q 417 286 535 159 L 568 122 Z" style="fill: #0070C0;"></path>
                                    
                                    
                                                                                                                                                                                                                                                                                                                                                                                                                                                                        </g>
                            </svg>