<svg width='83' height='83' >
                                <g transform="translate(3, 70) scale(0.07, -0.07)">
                                    <!-- 先将完整的字以灰色字体绘制完成，层级位于下面 -->
                                                                        <path d="M 440 651 Q 509 666 713 691 Q 723 690 732 702 Q 733 714 711 724 Q 678 748 590 721 Q 554 714 518 705 Q 488 699 460 693 L 405 685 Q 357 682 257 668 Q 229 665 250 648 Q 260 638 276 630 Q 289 621 311 628 Q 345 635 387 642 L 440 651 Z" style="fill: #0070C0;"></path>
                                                                        <path d="M 383 534 Q 410 582 440 651 L 460 693 Q 488 750 506 769 Q 518 782 513 793 Q 504 818 457 839 Q 442 846 426 840 Q 414 833 422 821 Q 437 802 437 781 Q 437 759 405 685 L 387 642 Q 339 536 282 461 Q 233 397 127 304 Q 115 291 126 288 Q 130 287 143 293 Q 195 317 240 355 Q 303 407 372 515 L 383 534 Z" style="fill: #0070C0;"></path>
                                                                        <path d="M 372 515 Q 372 511 405 468 Q 420 452 434 450 Q 447 449 453 465 Q 456 477 448 496 Q 433 521 383 534 C 361 540 361 540 372 515 Z" style="fill: #0070C0;"></path>
                                                                        <path d="M 664 583 Q 642 556 601 516 Q 595 510 599 503 Q 605 502 613 504 Q 689 543 727 556 Q 743 557 740 568 Q 737 583 722 602 Q 707 620 688 624 Q 675 625 673 608 Q 674 596 664 583 Z" style="fill: #0070C0;"></path>
                                                                        <path d="M 551 479 Q 561 513 569 558 Q 573 577 577 585 Q 584 591 578 600 Q 574 607 547 617 Q 519 630 505 625 Q 495 621 503 606 Q 528 492 468 410 Q 432 359 324 308 Q 302 298 328 296 Q 386 293 469 346 Q 482 358 496 373 Q 526 406 543 454 L 551 479 Z" style="fill: #0070C0;"></path>
                                                                        <path d="M 543 454 Q 601 382 668 314 Q 687 295 722 293 Q 783 290 848 302 Q 864 303 865 308 Q 868 315 854 319 Q 685 379 625 422 Q 619 426 551 479 C 527 497 524 477 543 454 Z" style="fill: #0070C0;"></path>
                                                                        <path d="M 302 222 Q 286 232 265 236 Q 252 240 245 233 Q 239 227 246 215 Q 264 191 273 165 Q 282 140 304 37 C 310 8 344 10 340 40 Q 324 172 323 185 C 320 211 320 211 302 222 Z" style="fill: #0070C0;"></path>
                                                                        <path d="M 712 77 Q 737 173 763 210 Q 773 220 770 233 Q 763 249 704 276 Q 688 285 674 280 Q 505 246 302 222 C 272 218 294 176 323 185 Q 348 194 412 205 L 435 209 Q 481 219 534 226 L 584 234 Q 650 247 672 234 Q 678 230 678 214 Q 671 154 654 69 C 648 40 704 48 712 77 Z" style="fill: #0070C0;"></path>
                                                                        <path d="M 453 49 Q 454 50 455 53 Q 459 77 442 187 Q 442 202 435 209 C 417 233 411 235 412 205 Q 412 195 414 184 Q 414 72 433 47 C 444 29 444 29 453 49 Z" style="fill: #0070C0;"></path>
                                                                        <path d="M 547 57 Q 563 84 584 161 Q 588 179 599 202 Q 609 215 599 222 Q 593 229 584 234 C 559 250 522 254 534 226 Q 549 199 531 82 Q 528 66 529 56 C 530 26 533 31 547 57 Z" style="fill: #0070C0;"></path>
                                                                        <path d="M 304 37 Q 228 33 150 26 Q 128 25 143 7 Q 158 -9 176 -15 Q 198 -22 214 -17 Q 467 41 871 19 Q 892 18 897 27 Q 904 39 887 54 Q 832 99 764 85 Q 739 82 712 77 L 654 69 Q 605 65 547 57 L 529 56 Q 517 56 505 54 Q 480 53 453 49 L 433 47 Q 387 44 340 40 L 304 37 Z" style="fill: #0070C0;"></path>
                                    
                                    
                                                                                                                                                                                                                                                                                                                                                                                                                                                                                                                                                                                                                                                                                                                                                                                                                                                                                                                                                </g>
                            </svg>