<svg width='83' height='83' >
                                <g transform="translate(3, 70) scale(0.07, -0.07)">
                                    <!-- 先将完整的字以灰色字体绘制完成，层级位于下面 -->
                                                                        <path d="M 420 703 Q 474 757 530 793 Q 534 796 539 798 Q 558 808 546 825 Q 533 840 506 850 Q 482 860 471 857 Q 459 854 464 842 Q 470 820 397 709 C 381 684 399 682 420 703 Z" style="fill: #0070C0;"></path>
                                                                        <path d="M 397 709 Q 390 715 377 719 Q 361 726 349 722 Q 339 715 345 704 Q 361 677 358 561 L 355 530 Q 340 440 293 344 Q 289 338 287 332 Q 286 322 295 325 Q 322 332 367 415 Q 370 424 375 432 Q 396 483 405 536 L 410 566 Q 410 662 423 675 C 430 689 423 694 397 709 Z" style="fill: #0070C0;"></path>
                                                                        <path d="M 607 549 Q 608 419 595 397 Q 591 391 571 396 Q 549 400 526 406 Q 507 413 508 404 Q 557 358 584 324 Q 597 305 611 300 Q 620 296 628 305 Q 665 350 667 410 Q 661 470 658 550 L 657 592 Q 657 655 672 681 Q 684 700 673 710 Q 654 728 618 743 Q 602 750 586 744 Q 517 711 420 703 C 387 700 364 665 423 675 Q 430 676 439 678 Q 508 688 575 701 Q 594 705 599 695 Q 605 680 606 586 L 607 549 Z" style="fill: #0070C0;"></path>
                                                                        <path d="M 453 634 Q 504 586 525 588 Q 535 588 539 604 Q 539 614 529 630 Q 514 651 454 657 Q 447 657 446 648 Q 446 641 453 634 Z" style="fill: #0070C0;"></path>
                                                                        <path d="M 405 536 Q 495 548 607 549 L 658 550 Q 748 553 853 546 Q 872 545 878 553 Q 882 565 868 579 Q 811 621 760 607 Q 715 601 657 592 L 606 586 Q 555 582 501 575 Q 456 571 410 566 L 358 561 Q 261 554 157 545 Q 136 544 151 526 Q 164 513 181 507 Q 200 501 217 505 Q 281 521 355 530 L 405 536 Z" style="fill: #0070C0;"></path>
                                                                        <path d="M 461 484 Q 483 466 509 445 Q 519 436 531 438 Q 538 439 542 448 Q 543 460 537 481 Q 528 502 456 519 Q 444 520 440 518 Q 436 515 438 506 Q 441 499 461 484 Z" style="fill: #0070C0;"></path>
                                                                        <path d="M 301 258 Q 291 265 256 267 Q 244 270 241 265 Q 235 258 244 243 Q 272 197 292 120 Q 295 101 307 87 C 325 63 336 59 337 89 Q 338 105 333 128 Q 320 192 315 221 C 310 251 309 254 301 258 Z" style="fill: #0070C0;"></path>
                                                                        <path d="M 735 126 Q 763 204 787 235 Q 799 245 794 257 Q 788 273 729 304 Q 713 314 699 309 Q 519 278 301 258 C 271 255 286 214 315 221 Q 333 227 411 238 L 438 243 Q 492 252 549 256 L 592 264 Q 673 276 695 264 Q 702 260 700 244 Q 691 192 673 118 C 666 89 725 98 735 126 Z" style="fill: #0070C0;"></path>
                                                                        <path d="M 456 98 Q 463 125 445 221 Q 444 222 444 225 Q 443 235 438 243 C 424 269 408 268 411 238 Q 414 213 415 148 Q 418 118 439 96 C 453 81 453 81 456 98 Z" style="fill: #0070C0;"></path>
                                                                        <path d="M 560 107 Q 576 131 600 191 Q 604 204 616 223 Q 626 235 618 243 Q 609 253 592 264 C 567 281 538 284 549 256 Q 562 232 542 132 Q 538 117 538 105 C 537 75 544 82 560 107 Z" style="fill: #0070C0;"></path>
                                                                        <path d="M 307 87 Q 243 84 174 78 Q 152 77 167 59 Q 182 43 200 37 Q 221 30 238 34 Q 484 85 863 63 Q 884 62 889 71 Q 896 83 879 98 Q 821 144 764 130 Q 749 129 735 126 L 673 118 Q 621 114 560 107 L 538 105 Q 525 105 512 103 Q 484 102 456 98 L 439 96 Q 390 93 337 89 L 307 87 Z" style="fill: #0070C0;"></path>
                                    
                                    
                                                                                                                                                                                                                                                                                                                                                                                                                                                                                                                                                                                                                                                                                                                                                                                                                                                                                                                                                </g>
                            </svg>