<svg width='83' height='83' >
                                <g transform="translate(3, 70) scale(0.07, -0.07)">
                                    <!-- 先将完整的字以灰色字体绘制完成，层级位于下面 -->
                                                                        <path d="M 539 642 Q 636 657 789 668 Q 801 667 811 679 Q 812 692 789 705 Q 747 730 684 711 Q 549 687 547 685 L 490 677 Q 372 667 278 659 Q 247 656 270 637 Q 306 606 336 612 Q 405 625 487 635 L 539 642 Z" style="fill: #0070C0;"></path>
                                                                        <path d="M 516 529 Q 528 587 539 642 L 547 685 Q 551 730 576 784 Q 580 794 562 810 Q 531 832 508 839 Q 492 845 484 837 Q 475 830 482 815 Q 497 788 496 771 Q 495 726 490 677 L 487 635 Q 480 580 473 520 C 470 490 510 500 516 529 Z" style="fill: #0070C0;"></path>
                                                                        <path d="M 386 513 Q 371 525 356 531 Q 343 535 334 530 Q 325 526 329 514 Q 350 471 353 433 Q 356 396 361 74 C 361 44 408 48 408 78 Q 408 121 408 162 L 408 191 Q 408 228 408 263 L 408 292 Q 408 334 408 371 L 408 396 Q 408 468 411 477 C 413 494 410 496 386 513 Z" style="fill: #0070C0;"></path>
                                                                        <path d="M 687 100 Q 693 451 720 484 Q 735 502 722 519 Q 712 531 661 561 Q 645 571 622 561 Q 577 546 516 529 L 473 520 Q 431 516 386 513 C 356 511 382 471 411 477 Q 603 516 608 516 Q 629 519 635 512 Q 645 496 635 95 C 634 65 686 70 687 100 Z" style="fill: #0070C0;"></path>
                                                                        <path d="M 408 371 Q 414 370 422 371 Q 510 387 575 397 Q 597 401 589 413 Q 579 426 555 431 Q 528 432 408 396 C 379 387 378 373 408 371 Z" style="fill: #0070C0;"></path>
                                                                        <path d="M 408 263 Q 501 278 567 289 Q 589 293 581 305 Q 571 318 547 323 Q 525 326 408 292 C 379 284 378 258 408 263 Z" style="fill: #0070C0;"></path>
                                                                        <path d="M 408 162 Q 505 177 578 185 Q 600 189 593 201 Q 583 214 559 220 Q 534 223 408 191 C 379 184 378 157 408 162 Z" style="fill: #0070C0;"></path>
                                                                        <path d="M 517 44 Q 569 45 621 50 Q 757 60 897 41 Q 919 37 926 46 Q 935 59 923 71 Q 895 99 851 121 Q 845 124 687 100 L 635 95 Q 544 91 493 85 Q 447 82 408 78 L 361 74 Q 331 74 310 71 Q 241 62 139 64 Q 126 65 124 54 Q 123 41 141 26 Q 157 13 188 0 Q 198 -4 217 4 Q 233 8 306 19 Q 400 37 517 44 Z" style="fill: #0070C0;"></path>
                                    
                                    
                                                                                                                                                                                                                                                                                                                                                                                                                                                                                                                                                                                                                                                                                                            </g>
                            </svg>