<svg width='83' height='83' >
                                <g transform="translate(3, 70) scale(0.07, -0.07)">
                                    <!-- 先将完整的字以灰色字体绘制完成，层级位于下面 -->
                                                                        <path d="M 362 508 Q 387 515 418 521 Q 467 533 475 540 Q 485 549 480 559 Q 471 572 438 580 Q 398 586 364 570 L 317 553 Q 164 517 107 510 Q 65 503 95 484 Q 143 457 206 474 Q 249 484 297 493 L 362 508 Z" style="fill: #0070C0;"></path>
                                                                        <path d="M 359 419 Q 360 462 362 508 L 364 570 Q 364 681 387 761 Q 400 788 375 806 Q 359 818 329 837 Q 304 856 283 839 Q 277 835 284 818 Q 317 767 317 717 Q 318 644 318 559 Q 317 558 317 553 L 312 407 Q 305 214 299 181 Q 292 141 280 101 Q 268 59 294 -5 Q 301 -23 309 -27 Q 316 -34 324 -25 Q 351 -7 353 59 Q 352 101 358 387 L 359 419 Z" style="fill: #0070C0;"></path>
                                                                        <path d="M 297 493 Q 234 358 59 160 Q 52 150 64 147 Q 88 143 209 267 Q 263 322 312 407 C 376 516 310 520 297 493 Z" style="fill: #0070C0;"></path>
                                                                        <path d="M 358 387 Q 362 383 371 376 Q 402 351 434 320 Q 446 308 459 309 Q 469 309 473 321 Q 477 334 470 359 Q 461 389 367 418 Q 364 419 359 419 C 329 421 336 407 358 387 Z" style="fill: #0070C0;"></path>
                                                                        <path d="M 580 609 Q 559 625 535 632 Q 526 633 520 625 Q 516 619 524 609 Q 575 498 542 241 Q 536 207 525 169 Q 518 142 523 123 Q 533 89 544 76 Q 556 63 566 77 Q 578 89 583 124 L 589 160 Q 592 190 593 282 L 593 314 Q 593 368 593 423 L 593 453 Q 593 544 598 576 C 600 595 600 595 580 609 Z" style="fill: #0070C0;"></path>
                                                                        <path d="M 742 138 Q 773 101 795 65 Q 805 46 816 47 Q 834 48 849 84 Q 868 124 863 173 Q 851 300 842 534 Q 841 567 858 589 Q 868 602 858 614 Q 839 633 783 658 Q 764 668 748 658 Q 715 642 580 609 C 551 602 568 571 598 576 Q 604 576 741 603 Q 760 607 769 599 Q 805 571 788 184 Q 787 180 787 175 Q 784 163 775 161 C 760 135 731 152 742 138 Z" style="fill: #0070C0;"></path>
                                                                        <path d="M 593 423 Q 594 423 598 423 Q 671 435 726 442 Q 751 446 741 460 Q 729 475 703 479 Q 670 482 593 453 C 565 443 563 423 593 423 Z" style="fill: #0070C0;"></path>
                                                                        <path d="M 593 282 Q 597 282 603 282 Q 675 291 728 295 Q 756 299 745 315 Q 733 331 703 337 Q 655 344 593 314 C 566 301 563 282 593 282 Z" style="fill: #0070C0;"></path>
                                                                        <path d="M 583 124 Q 673 134 742 138 C 772 140 792 141 775 161 Q 763 177 736 183 Q 700 190 589 160 C 560 152 553 121 583 124 Z" style="fill: #0070C0;"></path>
                                    
                                    
                                                                                                                                                                                                                                                                                                                                                                                                                                                                                                                                                                                                                                                                                                                                                                                        </g>
                            </svg>