<svg width='83' height='83' >
                                <g transform="translate(3, 70) scale(0.07, -0.07)">
                                    <!-- 先将完整的字以灰色字体绘制完成，层级位于下面 -->
                                                                        <path d="M 153 650 Q 138 665 116 672 Q 106 676 94 673 Q 87 669 93 655 Q 114 571 115 560 Q 114 557 115 553 Q 125 334 92 196 Q 77 139 113 94 Q 123 81 135 93 Q 147 109 147 130 L 151 166 Q 152 190 153 221 Q 153 261 154 297 L 154 331 Q 155 395 158 442 L 159 476 Q 162 594 164 608 Q 165 615 165 620 C 167 639 167 639 153 650 Z" style="fill: #0070C0;"></path>
                                                                        <path d="M 252 140 Q 267 118 280 95 Q 296 70 305 72 Q 318 73 335 111 Q 351 151 347 204 Q 326 567 359 627 Q 371 646 362 658 Q 355 670 300 687 Q 275 697 256 686 Q 199 661 153 650 C 124 642 136 614 165 620 Q 172 621 181 623 Q 266 647 277 637 Q 293 622 291 563 Q 292 320 278 187 Q 279 174 274 167 C 268 138 239 160 252 140 Z" style="fill: #0070C0;"></path>
                                                                        <path d="M 158 442 Q 159 442 163 442 Q 212 452 249 458 Q 271 465 262 477 Q 249 490 224 492 Q 200 492 160 477 Q 159 477 159 476 C 133 461 128 442 158 442 Z" style="fill: #0070C0;"></path>
                                                                        <path d="M 154 297 Q 206 307 248 311 Q 270 315 261 328 Q 251 343 225 346 Q 173 349 154 331 C 131 312 125 291 154 297 Z" style="fill: #0070C0;"></path>
                                                                        <path d="M 147 130 Q 163 136 252 140 C 282 141 296 146 274 167 Q 268 173 258 180 Q 239 190 151 166 C 122 158 118 122 147 130 Z" style="fill: #0070C0;"></path>
                                                                        <path d="M 614 585 Q 654 598 698 608 Q 735 618 741 625 Q 748 632 744 641 Q 737 651 708 657 Q 678 661 621 636 L 556 614 Q 507 602 451 593 Q 417 584 442 570 Q 490 549 551 569 Q 552 569 554 569 L 614 585 Z" style="fill: #0070C0;"></path>
                                                                        <path d="M 599 334 Q 680 370 715 361 C 745 358 753 407 724 401 Q 657 388 600 370 L 548 355 Q 502 342 465 325 Q 453 322 457 336 Q 475 438 468 450 Q 455 466 434 481 Q 424 487 415 485 Q 405 482 411 464 Q 427 415 417 369 Q 410 326 389 306 Q 373 290 380 277 Q 390 264 406 254 Q 419 247 428 255 Q 443 276 548 315 L 599 334 Z" style="fill: #0070C0;"></path>
                                                                        <path d="M 715 361 Q 715 342 735 303 Q 744 288 755 300 Q 779 324 777 408 Q 786 486 794 497 Q 801 513 790 525 Q 771 540 738 556 Q 725 563 714 556 Q 707 552 710 539 Q 740 503 724 401 L 715 361 Z" style="fill: #0070C0;"></path>
                                                                        <path d="M 944 35 Q 963 51 941 85 Q 919 143 908 220 Q 907 230 899 240 Q 887 246 885 220 Q 858 97 852 85 Q 846 72 821 66 Q 781 56 727 59 Q 687 60 661 72 Q 622 87 611 131 Q 596 185 599 334 L 600 370 Q 603 491 614 585 L 621 636 Q 633 711 644 726 Q 653 748 633 764 Q 603 791 564 801 Q 543 805 535 796 Q 526 786 534 776 Q 549 763 556 739 Q 559 720 556 614 L 554 569 Q 551 463 548 355 L 548 315 Q 551 98 592 56 Q 601 47 615 36 Q 690 -18 862 0 Q 871 3 880 4 Q 925 17 944 35 Z" style="fill: #0070C0;"></path>
                                    
                                    
                                                                                                                                                                                                                                                                                                                                                                                                                                                                                                                                                                                                                                                                                                                                                                                        </g>
                            </svg>