<svg width='83' height='83' >
                                <g transform="translate(3, 70) scale(0.07, -0.07)">
                                    <!-- 先将完整的字以灰色字体绘制完成，层级位于下面 -->
                                                                        <path d="M 353 675 Q 494 702 597 746 Q 646 762 689 767 Q 707 767 712 775 Q 716 785 704 799 Q 683 817 638 839 Q 622 848 608 848 Q 599 844 598 833 Q 592 788 344 694 C 316 683 324 669 353 675 Z" style="fill: #0070C0;"></path>
                                                                        <path d="M 344 694 Q 328 710 298 723 Q 277 735 263 729 Q 250 722 258 706 Q 280 675 276 618 Q 258 417 246 352 Q 236 309 222 269 Q 183 160 99 29 Q 93 22 92 15 Q 89 3 100 6 Q 136 12 221 146 Q 234 171 248 199 Q 317 353 333 550 Q 339 607 353 675 C 355 685 355 685 344 694 Z" style="fill: #0070C0;"></path>
                                                                        <path d="M 584 534 Q 666 547 799 552 Q 853 552 860 562 Q 864 574 849 586 Q 798 620 734 606 Q 677 594 594 576 L 534 565 Q 447 550 351 534 Q 332 531 347 515 Q 360 502 378 498 Q 399 494 414 498 Q 468 514 529 525 L 584 534 Z" style="fill: #0070C0;"></path>
                                                                        <path d="M 553 413 Q 569 476 584 534 L 594 576 Q 595 579 596 581 Q 606 614 620 640 Q 624 650 608 666 Q 580 690 557 697 Q 542 703 534 696 Q 525 690 531 675 Q 544 648 542 632 Q 538 601 534 565 L 529 525 Q 519 467 508 403 C 503 373 546 384 553 413 Z" style="fill: #0070C0;"></path>
                                                                        <path d="M 458 394 Q 439 410 416 417 Q 407 418 401 411 Q 397 407 405 395 Q 438 314 407 126 Q 386 54 390 38 Q 399 5 409 -8 Q 419 -21 430 -8 Q 437 2 443 17 L 452 51 Q 458 81 460 112 Q 460 127 461 142 L 462 171 Q 462 214 465 244 L 466 269 Q 469 336 475 360 C 479 379 479 379 458 394 Z" style="fill: #0070C0;"></path>
                                                                        <path d="M 645 32 Q 673 -5 695 -42 Q 705 -61 716 -61 Q 734 -60 750 -25 Q 769 15 767 64 Q 760 155 756 325 Q 755 356 772 380 Q 782 393 772 404 Q 753 425 698 449 Q 679 459 664 449 Q 619 430 553 413 L 508 403 Q 478 399 458 394 C 429 388 446 354 475 360 Q 668 399 672 398 Q 678 397 684 392 Q 708 373 692 75 Q 691 72 691 68 Q 687 52 677 54 C 657 31 639 40 645 32 Z" style="fill: #0070C0;"></path>
                                                                        <path d="M 465 244 Q 472 243 484 244 Q 563 257 622 266 Q 647 270 637 284 Q 625 299 599 303 Q 569 306 466 269 C 438 259 435 246 465 244 Z" style="fill: #0070C0;"></path>
                                                                        <path d="M 461 142 Q 465 142 471 142 Q 562 155 629 163 Q 654 166 645 180 Q 635 196 607 201 Q 580 205 462 171 C 433 163 431 142 461 142 Z" style="fill: #0070C0;"></path>
                                                                        <path d="M 443 17 Q 452 16 463 17 Q 523 27 645 32 C 675 33 698 34 677 54 Q 670 61 654 73 Q 638 83 607 76 Q 522 60 452 51 C 422 47 413 19 443 17 Z" style="fill: #0070C0;"></path>
                                    
                                    
                                                                                                                                                                                                                                                                                                                                                                                                                                                                                                                                                                                                                                                                                                                                                                                        </g>
                            </svg>