<svg width='83' height='83' >
                                <g transform="translate(3, 70) scale(0.07, -0.07)">
                                    <!-- 先将完整的字以灰色字体绘制完成，层级位于下面 -->
                                                                        <path d="M 187 663 Q 172 678 152 684 Q 142 690 130 685 Q 123 681 129 667 Q 147 589 150 570 Q 149 567 150 563 Q 160 341 124 200 Q 109 143 145 98 Q 155 85 167 97 Q 180 113 180 135 Q 180 139 181 144 L 184 179 Q 185 201 186 227 Q 187 278 188 322 L 189 355 Q 190 416 193 462 L 194 497 Q 198 608 200 620 Q 201 630 201 636 C 202 651 202 651 187 663 Z" style="fill: #0070C0;"></path>
                                                                        <path d="M 297 156 Q 307 141 317 126 Q 333 101 341 104 Q 354 107 369 142 Q 384 182 380 232 Q 373 334 370 554 Q 370 612 385 641 Q 397 659 388 670 Q 381 682 330 698 Q 305 708 287 697 Q 233 673 187 663 C 158 656 172 630 201 636 Q 243 645 272 652 Q 299 658 307 649 Q 323 636 322 578 Q 325 343 314 213 Q 318 188 296 192 Q 292 193 289 191 C 275 189 280 181 297 156 Z" style="fill: #0070C0;"></path>
                                                                        <path d="M 193 462 L 284 477 Q 309 484 298 496 Q 285 509 258 512 Q 233 513 194 497 C 166 486 163 457 193 462 Z" style="fill: #0070C0;"></path>
                                                                        <path d="M 188 322 Q 189 322 289 341 Q 313 348 302 360 Q 289 373 262 376 Q 232 376 189 355 C 162 342 158 317 188 322 Z" style="fill: #0070C0;"></path>
                                                                        <path d="M 181 144 Q 187 144 195 145 Q 228 152 297 156 C 322 158 310 170 289 191 Q 288 192 285 195 Q 269 202 239 195 Q 208 185 184 179 C 155 172 151 143 181 144 Z" style="fill: #0070C0;"></path>
                                                                        <path d="M 513 672 Q 556 657 604 668 Q 802 707 815 717 Q 825 726 819 735 Q 812 748 780 756 Q 753 762 662 731 Q 571 710 510 704 Q 507 704 506 703 C 476 698 484 681 513 672 Z" style="fill: #0070C0;"></path>
                                                                        <path d="M 735 398 Q 763 455 783 544 Q 790 572 801 599 Q 807 609 800 618 Q 793 628 760 639 Q 738 648 728 644 Q 715 638 720 624 Q 741 545 695 431 L 675 386 Q 626 305 545 213 Q 538 206 546 203 Q 553 202 563 208 Q 620 242 665 293 Q 690 318 708 347 L 735 398 Z" style="fill: #0070C0;"></path>
                                                                        <path d="M 708 347 Q 754 295 802 235 Q 814 216 827 212 Q 834 211 841 218 Q 851 228 845 266 Q 839 308 735 398 L 695 431 Q 613 501 564 535 Q 557 539 554 529 Q 553 519 561 509 Q 615 454 675 386 L 708 347 Z" style="fill: #0070C0;"></path>
                                                                        <path d="M 506 703 Q 494 713 466 728 Q 445 740 437 732 Q 430 725 437 709 Q 456 673 457 609 Q 464 383 443 174 Q 440 134 415 96 Q 405 80 414 59 Q 421 37 433 27 Q 443 20 461 32 Q 576 108 907 103 Q 934 102 935 114 Q 935 130 904 152 Q 888 167 782 148 Q 506 118 505 118 L 504 119 Q 497 120 496 138 Q 505 337 507 590 Q 507 641 513 672 C 516 696 516 696 506 703 Z" style="fill: #0070C0;"></path>
                                    
                                    
                                                                                                                                                                                                                                                                                                                                                                                                                                                                                                                                                                                                                                                                                                                                                                                        </g>
                            </svg>