<svg width='83' height='83' >
                                <g transform="translate(3, 70) scale(0.07, -0.07)">
                                    <!-- 先将完整的字以灰色字体绘制完成，层级位于下面 -->
                                                                        <path d="M 363 690 Q 382 718 400 739 Q 410 751 397 766 Q 357 799 334 797 Q 324 796 324 781 Q 333 700 238 597 Q 232 594 197 555 Q 190 542 204 545 Q 220 546 242 562 Q 311 610 351 672 L 351 673 L 363 690 Z" style="fill: #0070C0;"></path>
                                                                        <path d="M 552 671 Q 604 681 661 689 Q 710 699 718 705 Q 727 712 722 720 Q 716 733 688 740 Q 660 747 630 737 Q 593 727 555 716 L 495 704 Q 434 695 367 691 Q 363 691 363 690 C 335 686 335 686 351 673 Q 384 640 452 656 Q 471 660 496 662 L 552 671 Z" style="fill: #0070C0;"></path>
                                                                        <path d="M 546 557 Q 612 564 679 573 Q 683 576 689 582 Q 690 592 671 601 Q 641 625 553 595 Q 550 595 548 594 L 497 584 Q 463 580 431 575 Q 397 574 360 568 Q 335 567 354 551 Q 376 536 417 535 Q 454 544 498 548 L 546 557 Z" style="fill: #0070C0;"></path>
                                                                        <path d="M 542 474 Q 543 517 546 557 L 548 594 Q 551 669 552 671 L 555 716 Q 556 752 563 771 Q 573 790 561 801 Q 530 826 503 833 Q 490 836 477 826 Q 473 819 477 809 Q 493 785 494 717 Q 494 711 495 704 L 496 662 Q 496 625 497 584 L 498 548 Q 498 511 500 469 C 501 439 541 444 542 474 Z" style="fill: #0070C0;"></path>
                                                                        <path d="M 500 469 Q 325 453 122 432 Q 100 431 116 411 Q 131 395 151 389 Q 173 382 192 387 Q 412 444 857 444 Q 882 444 907 443 Q 929 442 934 452 Q 941 465 923 480 Q 857 532 809 514 Q 706 498 542 474 L 500 469 Z" style="fill: #0070C0;"></path>
                                                                        <path d="M 390 356 Q 378 368 357 377 Q 347 381 336 378 Q 329 374 334 361 Q 335 354 339 347 Q 360 301 339 121 Q 314 36 350 -10 Q 360 -23 371 -12 Q 378 0 382 13 L 387 48 Q 388 61 389 80 Q 390 105 391 126 L 392 152 Q 393 192 396 222 L 397 249 Q 400 307 402 314 Q 403 320 403 324 C 405 343 405 343 390 356 Z" style="fill: #0070C0;"></path>
                                                                        <path d="M 600 32 Q 627 -4 647 -39 Q 657 -58 668 -57 Q 686 -56 702 -21 Q 721 19 718 68 Q 711 144 704 285 Q 704 316 721 339 Q 731 352 721 362 Q 702 383 650 408 Q 631 418 616 409 Q 544 378 390 356 C 360 352 373 320 403 324 Q 436 327 592 358 Q 620 362 633 353 Q 660 332 642 72 Q 638 56 625 58 C 601 40 597 36 600 32 Z" style="fill: #0070C0;"></path>
                                                                        <path d="M 396 222 Q 400 221 410 222 Q 500 235 566 244 Q 590 248 581 260 Q 571 275 545 280 Q 524 284 397 249 C 368 241 366 224 396 222 Z" style="fill: #0070C0;"></path>
                                                                        <path d="M 391 126 Q 398 123 412 125 Q 506 137 576 143 Q 601 146 593 160 Q 583 176 556 182 Q 534 186 392 152 C 363 145 362 133 391 126 Z" style="fill: #0070C0;"></path>
                                                                        <path d="M 382 13 Q 383 13 387 13 Q 456 26 600 32 C 630 33 647 38 625 58 Q 618 65 606 73 Q 597 79 580 78 Q 581 79 583 78 Q 573 79 559 76 Q 465 57 387 48 C 357 44 352 11 382 13 Z" style="fill: #0070C0;"></path>
                                    
                                    
                                                                                                                                                                                                                                                                                                                                                                                                                                                                                                                                                                                                                                                                                                                                                                                                                                                                    </g>
                            </svg>