<svg width='83' height='83' >
                                <g transform="translate(3, 70) scale(0.07, -0.07)">
                                    <!-- 先将完整的字以灰色字体绘制完成，层级位于下面 -->
                                                                        <path d="M 185 660 Q 169 676 144 684 Q 134 688 123 684 Q 116 680 121 666 Q 142 593 143 582 Q 143 576 144 569 Q 156 355 126 227 Q 113 170 149 125 Q 159 112 171 125 Q 178 134 186 183 L 187 212 Q 187 275 187 339 L 187 366 Q 188 424 189 469 L 190 498 Q 191 609 193 620 Q 194 627 194 633 C 196 651 196 651 185 660 Z" style="fill: #0070C0;"></path>
                                                                        <path d="M 303 196 Q 313 178 326 160 Q 342 138 349 140 Q 361 143 375 176 Q 388 213 384 261 Q 377 357 371 565 Q 370 619 384 647 Q 394 665 386 675 Q 379 685 330 700 Q 306 707 289 698 Q 234 673 185 660 C 156 652 165 626 194 633 Q 299 660 305 657 Q 306 657 310 654 Q 323 641 324 587 Q 331 365 322 244 Q 325 225 310 223 C 296 207 296 207 303 196 Z" style="fill: #0070C0;"></path>
                                                                        <path d="M 189 469 Q 244 479 285 486 Q 306 490 297 501 Q 287 514 264 517 Q 227 520 190 498 C 164 483 159 464 189 469 Z" style="fill: #0070C0;"></path>
                                                                        <path d="M 187 339 Q 242 343 283 347 Q 304 350 297 361 Q 287 374 265 379 Q 229 386 187 366 C 160 353 157 337 187 339 Z" style="fill: #0070C0;"></path>
                                                                        <path d="M 186 183 Q 252 192 303 196 C 333 198 336 209 310 223 Q 300 229 287 231 Q 257 237 187 212 C 159 202 156 179 186 183 Z" style="fill: #0070C0;"></path>
                                                                        <path d="M 653 604 Q 788 631 790 633 Q 800 642 795 651 Q 788 664 756 673 Q 723 682 656 657 L 603 644 Q 554 635 495 631 Q 456 627 484 607 Q 526 580 590 593 Q 596 594 604 595 L 653 604 Z" style="fill: #0070C0;"></path>
                                                                        <path d="M 644 481 Q 648 545 653 604 L 656 657 Q 659 726 674 784 Q 677 794 658 809 Q 624 827 600 831 Q 584 834 576 826 Q 569 819 577 804 Q 596 776 598 756 Q 601 702 603 644 L 604 595 Q 604 538 604 476 C 604 446 642 451 644 481 Z" style="fill: #0070C0;"></path>
                                                                        <path d="M 604 476 Q 511 463 407 449 Q 388 446 402 431 Q 415 418 432 413 Q 451 409 467 413 Q 617 455 884 455 Q 903 455 907 463 Q 911 473 897 487 Q 843 527 786 508 Q 728 498 644 481 L 604 476 Z" style="fill: #0070C0;"></path>
                                                                        <path d="M 656 239 Q 792 261 801 267 Q 811 274 807 284 Q 800 296 770 305 Q 737 314 658 288 L 604 276 Q 549 269 488 265 Q 451 261 476 242 Q 519 215 602 231 L 604 231 L 656 239 Z" style="fill: #0070C0;"></path>
                                                                        <path d="M 651 109 Q 652 179 656 239 L 658 288 Q 659 310 660 329 Q 661 344 662 354 Q 669 373 659 382 Q 635 406 613 416 Q 600 420 591 416 Q 582 412 586 401 Q 601 364 604 276 L 604 231 Q 604 180 606 104 C 607 74 651 79 651 109 Z" style="fill: #0070C0;"></path>
                                                                        <path d="M 606 104 Q 498 94 374 82 Q 352 81 367 63 Q 382 48 400 42 Q 422 35 438 40 Q 648 86 905 67 Q 906 67 908 67 Q 929 66 934 75 Q 940 87 923 102 Q 859 153 822 134 Q 755 124 651 109 L 606 104 Z" style="fill: #0070C0;"></path>
                                    
                                    
                                                                                                                                                                                                                                                                                                                                                                                                                                                                                                                                                                                                                                                                                                                                                                                                                                                                                                                                                </g>
                            </svg>