<svg width='83' height='83' >
                                <g transform="translate(3, 70) scale(0.07, -0.07)">
                                    <!-- 先将完整的字以灰色字体绘制完成，层级位于下面 -->
                                                                        <path d="M 193 683 Q 181 698 152 708 Q 142 712 130 709 Q 123 705 129 691 Q 147 627 149 607 Q 149 349 134 283 Q 113 199 149 154 Q 159 141 171 153 Q 184 171 185 203 L 188 230 Q 189 257 190 364 L 191 392 Q 192 453 194 497 L 195 525 Q 198 631 200 644 Q 201 651 201 656 C 203 674 203 674 193 683 Z" style="fill: #0070C0;"></path>
                                                                        <path d="M 299 214 Q 312 193 326 173 Q 342 149 349 152 Q 361 155 375 188 Q 385 216 381 334 Q 366 625 388 662 Q 398 680 391 691 Q 384 701 335 717 Q 311 726 294 716 Q 239 692 193 683 C 164 676 172 650 201 656 Q 304 677 311 672 Q 312 672 314 670 Q 327 657 328 602 Q 334 293 322 242 C 318 212 284 238 299 214 Z" style="fill: #0070C0;"></path>
                                                                        <path d="M 194 497 Q 195 497 199 497 Q 253 507 293 512 Q 315 516 305 529 Q 295 542 270 545 Q 233 548 195 525 C 169 510 164 497 194 497 Z" style="fill: #0070C0;"></path>
                                                                        <path d="M 190 364 Q 191 364 195 364 Q 250 371 292 377 Q 314 381 305 393 Q 295 406 271 410 Q 232 413 191 392 C 164 379 160 364 190 364 Z" style="fill: #0070C0;"></path>
                                                                        <path d="M 185 203 L 299 214 C 329 217 347 226 322 242 Q 312 249 297 252 Q 263 258 188 230 C 160 220 155 200 185 203 Z" style="fill: #0070C0;"></path>
                                                                        <path d="M 519 631 Q 549 656 574 685 L 588 702 Q 613 736 640 763 Q 650 773 639 789 Q 608 823 581 824 Q 571 823 571 810 Q 571 722 460 625 Q 453 625 414 587 Q 405 574 419 576 Q 443 579 502 618 L 519 631 Z" style="fill: #0070C0;"></path>
                                                                        <path d="M 574 685 Q 584 675 615 680 Q 694 699 699 688 Q 700 675 677 634 Q 655 588 592 530 Q 531 467 435 414 Q 410 404 430 401 Q 496 394 605 483 Q 675 540 734 621 Q 762 661 779 670 Q 792 679 787 691 Q 783 701 733 728 Q 723 735 699 725 Q 665 712 588 702 C 558 698 546 695 574 685 Z" style="fill: #0070C0;"></path>
                                                                        <path d="M 502 618 Q 503 617 505 614 Q 550 554 569 551 Q 579 550 585 563 Q 586 573 581 589 Q 569 614 519 631 C 491 641 484 642 502 618 Z" style="fill: #0070C0;"></path>
                                                                        <path d="M 550 300 Q 587 328 618 362 L 635 383 Q 660 414 685 438 Q 695 447 686 461 Q 655 495 633 496 Q 623 496 623 483 Q 619 398 494 295 Q 485 295 443 258 Q 433 246 447 248 Q 474 248 532 288 L 550 300 Z" style="fill: #0070C0;"></path>
                                                                        <path d="M 618 362 Q 651 340 728 363 Q 750 367 760 360 Q 766 354 740 303 Q 715 245 668 191 Q 601 106 514 48 Q 436 -3 343 -36 Q 333 -39 334 -44 Q 334 -48 342 -49 Q 483 -53 639 88 Q 652 101 666 114 Q 733 181 805 295 Q 824 320 852 336 Q 868 342 869 351 Q 870 364 843 384 Q 810 409 796 412 Q 784 412 773 405 Q 671 384 643 383 Q 639 384 635 383 C 605 381 590 373 618 362 Z" style="fill: #0070C0;"></path>
                                                                        <path d="M 532 288 L 599 208 Q 608 198 620 196 Q 627 195 633 205 Q 639 215 635 239 Q 631 267 553 300 Q 552 301 550 300 C 520 304 518 304 532 288 Z" style="fill: #0070C0;"></path>
                                    
                                    
                                                                                                                                                                                                                                                                                                                                                                                                                                                                                                                                                                                                                                                                                                                                                                                                                                                                                                                                                </g>
                            </svg>