<svg width='83' height='83' >
                                <g transform="translate(3, 70) scale(0.07, -0.07)">
                                    <!-- 先将完整的字以灰色字体绘制完成，层级位于下面 -->
                                                                        <path d="M 376 766 Q 397 747 420 724 Q 432 711 446 712 Q 456 713 461 725 Q 465 738 458 765 Q 449 789 372 810 Q 357 813 352 811 Q 348 807 349 796 Q 352 786 376 766 Z" style="fill: #0070C0;"></path>
                                                                        <path d="M 595 818 Q 567 784 512 729 Q 506 722 511 715 Q 518 714 526 717 Q 620 772 665 792 Q 683 795 680 806 Q 676 822 658 842 Q 642 861 619 865 Q 604 866 604 847 Q 605 834 595 818 Z" style="fill: #0070C0;"></path>
                                                                        <path d="M 494 635 Q 708 671 713 674 Q 722 681 718 689 Q 712 701 686 709 Q 665 715 548 686 Q 428 662 314 657 Q 281 653 304 637 Q 334 613 409 624 Q 425 627 444 628 L 494 635 Z" style="fill: #0070C0;"></path>
                                                                        <path d="M 484 524 Q 530 533 654 543 Q 664 542 672 552 Q 673 562 653 573 Q 629 597 545 573 Q 526 570 508 566 Q 504 566 502 564 L 442 555 Q 438 555 329 546 Q 304 543 322 527 Q 343 509 384 509 Q 405 513 434 517 L 484 524 Z" style="fill: #0070C0;"></path>
                                                                        <path d="M 441 416 Q 510 434 857 434 Q 878 434 883 443 Q 889 455 872 469 Q 806 520 765 499 Q 663 480 499 458 Q 477 457 456 452 L 411 447 Q 290 435 157 419 Q 135 418 151 399 Q 166 384 184 379 Q 206 373 223 377 Q 304 399 393 410 L 441 416 Z" style="fill: #0070C0;"></path>
                                                                        <path d="M 398 333 Q 420 370 441 416 L 456 452 Q 469 483 482 518 Q 483 522 484 524 L 502 564 Q 509 580 518 596 Q 525 605 520 615 Q 516 624 494 635 C 469 651 443 658 444 628 Q 447 594 442 555 L 434 517 Q 430 498 422 475 Q 416 462 411 447 L 393 410 Q 305 242 79 65 Q 72 58 79 55 Q 86 52 96 57 Q 277 141 373 291 L 398 333 Z" style="fill: #0070C0;"></path>
                                                                        <path d="M 408 326 Q 404 330 398 333 C 373 350 366 320 373 291 Q 392 215 369 90 Q 350 21 379 -9 Q 389 -21 397 -9 Q 404 1 409 17 L 415 50 Q 418 69 419 119 L 419 143 Q 419 173 420 204 L 420 228 Q 421 280 424 298 C 426 313 426 313 408 326 Z" style="fill: #0070C0;"></path>
                                                                        <path d="M 588 27 Q 615 -6 634 -37 Q 643 -53 653 -53 Q 668 -52 681 -21 Q 697 13 693 55 Q 686 128 678 266 Q 677 294 691 314 Q 700 324 691 334 Q 675 352 627 373 Q 611 380 598 372 Q 529 342 408 326 C 378 322 394 294 424 298 Q 433 298 581 327 Q 603 331 615 323 Q 645 293 628 60 Q 628 59 628 57 Q 624 39 608 47 Q 605 48 602 50 C 573 56 569 50 588 27 Z" style="fill: #0070C0;"></path>
                                                                        <path d="M 428 204 Q 501 217 556 226 Q 577 230 569 241 Q 559 254 537 257 Q 503 261 420 228 C 392 217 390 204 420 204 Q 423 204 428 204 Z" style="fill: #0070C0;"></path>
                                                                        <path d="M 419 119 Q 423 119 430 119 Q 509 132 568 139 Q 589 142 581 153 Q 571 166 549 171 Q 521 175 419 143 C 390 134 389 119 419 119 Z" style="fill: #0070C0;"></path>
                                                                        <path d="M 409 17 Q 413 16 423 17 Q 475 26 588 27 C 618 27 623 29 602 50 Q 578 78 496 61 Q 451 55 415 50 C 385 46 379 19 409 17 Z" style="fill: #0070C0;"></path>
                                    
                                    
                                                                                                                                                                                                                                                                                                                                                                                                                                                                                                                                                                                                                                                                                                                                                                                                                                                                                                                                                </g>
                            </svg>