<svg width='83' height='83' >
                                <g transform="translate(3, 70) scale(0.07, -0.07)">
                                    <!-- 先将完整的字以灰色字体绘制完成，层级位于下面 -->
                                                                        <path d="M 180 672 Q 168 687 140 696 Q 130 700 119 696 Q 112 692 117 679 Q 120 667 125 656 Q 155 601 137 328 Q 133 291 122 243 Q 109 186 145 141 Q 155 128 167 141 Q 180 157 180 180 Q 180 187 181 196 L 182 225 Q 182 237 183 352 L 183 380 Q 184 441 185 485 L 186 514 Q 187 620 189 632 Q 190 639 190 645 C 191 662 191 662 180 672 Z" style="fill: #0070C0;"></path>
                                                                        <path d="M 287 211 Q 297 193 310 176 Q 326 154 333 156 Q 345 159 359 192 Q 369 223 364 317 Q 346 609 368 655 Q 378 673 370 683 Q 363 693 314 708 Q 290 717 274 706 Q 222 682 180 672 C 151 664 161 638 190 645 Q 283 669 294 662 Q 307 649 308 596 Q 314 379 306 259 Q 307 243 300 239 C 291 210 284 216 287 211 Z" style="fill: #0070C0;"></path>
                                                                        <path d="M 185 485 Q 237 494 277 498 Q 296 502 289 513 Q 279 526 257 529 Q 221 532 186 514 C 159 501 155 480 185 485 Z" style="fill: #0070C0;"></path>
                                                                        <path d="M 183 352 Q 235 359 276 362 Q 297 366 289 377 Q 279 390 257 394 Q 217 400 183 380 C 157 365 153 348 183 352 Z" style="fill: #0070C0;"></path>
                                                                        <path d="M 181 196 Q 239 206 287 211 C 317 214 324 222 300 239 Q 293 245 279 247 Q 242 253 182 225 C 155 212 151 191 181 196 Z" style="fill: #0070C0;"></path>
                                                                        <path d="M 732 642 Q 641 633 540 614 Q 530 611 527 614 Q 526 618 530 627 Q 627 759 648 781 Q 660 791 654 803 Q 647 815 600 838 Q 584 845 574 841 Q 562 835 568 815 Q 586 760 497 650 Q 475 626 440 602 Q 425 590 429 579 Q 435 563 459 542 Q 469 532 483 543 Q 523 574 729 615 Q 741 618 750 622 C 778 632 762 645 732 642 Z" style="fill: #0070C0;"></path>
                                                                        <path d="M 750 622 Q 805 562 810 559 Q 817 558 825 566 Q 837 578 827 616 Q 818 667 684 723 Q 677 727 674 717 Q 673 705 682 696 Q 706 672 732 642 L 750 622 Z" style="fill: #0070C0;"></path>
                                                                        <path d="M 486 515 Q 487 442 411 373 Q 392 357 382 345 Q 375 335 386 337 Q 425 337 496 416 Q 512 440 547 478 Q 556 487 546 500 Q 512 530 495 528 Q 485 527 486 515 Z" style="fill: #0070C0;"></path>
                                                                        <path d="M 705 506 Q 745 472 788 432 Q 798 422 812 422 Q 821 422 825 433 Q 829 445 823 469 Q 814 508 702 545 Q 689 549 684 547 Q 680 543 681 533 Q 684 523 705 506 Z" style="fill: #0070C0;"></path>
                                                                        <path d="M 583 353 Q 610 396 610 399 Q 609 408 598 418 Q 570 443 539 439 Q 532 438 533 426 Q 543 387 491 299 Q 440 218 317 107 Q 310 103 319 100 Q 365 100 479 212 Q 494 233 507 246 L 524 269 Q 540 293 563 323 L 583 353 Z" style="fill: #0070C0;"></path>
                                                                        <path d="M 608 150 Q 539 74 396 36 Q 383 32 394 23 Q 400 19 445 21 Q 554 30 640 114 L 672 152 Q 711 207 745 290 Q 758 318 779 335 Q 798 350 786 364 Q 773 376 743 388 Q 719 397 693 384 Q 669 374 639 365 Q 615 359 583 353 C 554 347 533 327 563 323 Q 594 316 635 327 Q 668 342 674 343 Q 696 339 689 317 Q 670 238 634 183 L 608 150 Z" style="fill: #0070C0;"></path>
                                                                        <path d="M 507 246 Q 537 225 608 150 L 640 114 Q 748 -1 789 0 Q 871 1 936 14 Q 970 18 967 28 Q 967 31 803 82 Q 752 98 672 152 L 634 183 Q 604 208 574 237 Q 549 262 524 269 C 496 280 483 264 507 246 Z" style="fill: #0070C0;"></path>
                                    
                                    
                                                                                                                                                                                                                                                                                                                                                                                                                                                                                                                                                                                                                                                                                                                                                                                                                                                                                                                                                                                                                            </g>
                            </svg>