<svg width='83' height='83' >
                                <g transform="translate(3, 70) scale(0.07, -0.07)">
                                    <!-- 先将完整的字以灰色字体绘制完成，层级位于下面 -->
                                                                        <path d="M 171 705 Q 164 715 133 729 Q 123 733 112 729 Q 105 725 110 712 Q 131 655 132 606 Q 142 381 106 236 Q 91 182 126 138 Q 136 125 147 136 Q 157 151 159 169 L 163 201 Q 164 229 165 267 Q 166 316 167 359 L 168 385 Q 169 458 172 511 L 173 542 Q 177 654 179 666 Q 180 673 180 678 C 182 696 182 696 171 705 Z" style="fill: #0070C0;"></path>
                                                                        <path d="M 265 184 Q 275 168 286 153 Q 302 129 309 132 Q 322 135 337 172 Q 353 212 347 265 Q 320 634 348 687 Q 358 703 350 715 Q 343 725 294 740 Q 270 747 253 738 Q 207 716 171 705 C 143 695 151 671 180 678 Q 184 679 192 681 Q 214 685 241 694 Q 265 701 274 694 Q 290 679 289 619 Q 293 372 283 236 Q 286 215 270 215 C 255 199 255 199 265 184 Z" style="fill: #0070C0;"></path>
                                                                        <path d="M 172 511 Q 220 523 258 529 Q 279 535 270 545 Q 260 558 236 559 Q 215 560 179 546 Q 175 545 173 542 C 152 521 143 504 172 511 Z" style="fill: #0070C0;"></path>
                                                                        <path d="M 167 359 Q 170 359 258 377 Q 279 383 270 393 Q 260 405 236 407 Q 191 407 168 385 C 146 365 137 354 167 359 Z" style="fill: #0070C0;"></path>
                                                                        <path d="M 159 169 Q 177 178 265 184 C 295 186 294 197 270 215 Q 269 216 266 218 Q 251 225 163 201 C 134 193 131 157 159 169 Z" style="fill: #0070C0;"></path>
                                                                        <path d="M 477 743 Q 498 724 520 702 Q 533 692 547 692 Q 557 692 561 704 Q 565 717 557 745 Q 551 761 526 772 Q 469 793 452 787 Q 448 783 449 771 Q 452 761 477 743 Z" style="fill: #0070C0;"></path>
                                                                        <path d="M 678 805 Q 663 769 609 690 Q 602 674 617 678 Q 663 714 723 768 Q 739 786 760 798 Q 779 810 767 825 Q 752 840 726 850 Q 702 860 691 856 Q 679 853 684 841 Q 690 825 678 805 Z" style="fill: #0070C0;"></path>
                                                                        <path d="M 765 524 Q 792 593 819 608 Q 835 626 821 642 Q 805 655 756 679 Q 740 686 719 678 Q 602 630 444 615 Q 428 614 430 605 Q 433 598 450 591 Q 474 581 507 592 Q 541 599 580 606 L 611 612 Q 651 621 696 630 Q 721 637 730 626 Q 737 619 736 605 Q 729 565 720 533 C 712 504 754 496 765 524 Z" style="fill: #0070C0;"></path>
                                                                        <path d="M 637 477 Q 695 487 773 496 Q 783 497 784 505 Q 784 512 765 524 C 743 539 743 539 720 533 Q 716 533 712 531 Q 672 521 636 512 L 591 502 Q 527 489 473 480 C 443 475 456 441 485 449 Q 525 461 591 470 L 637 477 Z" style="fill: #0070C0;"></path>
                                                                        <path d="M 637 357 Q 781 385 810 378 Q 822 378 827 367 Q 831 355 794 244 Q 790 231 776 234 Q 751 241 719 252 Q 694 261 711 236 Q 756 187 763 162 Q 769 149 782 149 Q 795 148 810 159 Q 837 187 856 244 Q 871 313 901 344 Q 917 362 907 374 Q 885 398 851 419 Q 838 429 771 412 Q 671 396 637 387 L 593 379 Q 539 370 504 359 Q 477 355 465 354 Q 458 355 460 369 Q 473 438 485 449 C 493 466 493 466 473 480 Q 461 490 444 500 Q 434 507 424 500 Q 417 496 425 478 Q 435 454 425 421 Q 409 367 393 348 Q 383 333 392 318 Q 401 294 413 287 Q 423 283 444 298 Q 481 329 560 342 L 637 357 Z" style="fill: #0070C0;"></path>
                                                                        <path d="M 591 292 Q 591 157 583 21 Q 580 -18 604 -50 Q 616 -63 625 -47 Q 649 -4 643 44 Q 642 59 637 357 L 637 387 Q 637 433 637 477 L 636 512 Q 635 570 638 580 Q 641 590 633 598 Q 624 605 611 612 C 585 628 574 635 580 606 Q 586 594 591 502 L 591 470 Q 592 425 593 379 L 591 292 Z" style="fill: #0070C0;"></path>
                                                                        <path d="M 560 342 Q 493 204 295 51 Q 283 39 292 37 Q 301 33 313 38 Q 442 86 562 252 Q 581 279 591 292 C 638 355 581 383 560 342 Z" style="fill: #0070C0;"></path>
                                    
                                    
                                                                                                                                                                                                                                                                                                                                                                                                                                                                                                                                                                                                                                                                                                                                                                                                                                                                                                                                                                                                                            </g>
                            </svg>