<svg width='83' height='83' >
                                <g transform="translate(3, 70) scale(0.07, -0.07)">
                                    <!-- 先将完整的字以灰色字体绘制完成，层级位于下面 -->
                                                                        <path d="M 165 673 Q 158 686 124 701 Q 114 705 102 702 Q 95 698 100 684 Q 118 611 119 599 Q 119 347 90 245 Q 72 188 109 142 Q 119 129 131 140 Q 144 156 145 179 L 149 215 Q 150 248 155 358 L 156 385 Q 157 443 161 487 L 163 517 Q 166 634 172 646 C 175 663 175 663 165 673 Z" style="fill: #0070C0;"></path>
                                                                        <path d="M 251 188 Q 266 161 281 138 Q 297 113 305 116 Q 318 117 334 154 Q 350 194 346 245 Q 340 348 340 573 Q 341 631 357 660 Q 367 679 359 690 Q 352 700 300 715 Q 275 724 257 712 Q 208 685 165 673 C 136 664 142 641 172 646 Q 202 649 247 668 Q 269 677 279 670 Q 294 655 293 597 Q 293 357 280 225 Q 281 207 273 204 C 263 176 241 206 251 188 Z" style="fill: #0070C0;"></path>
                                                                        <path d="M 161 487 Q 170 487 250 504 Q 272 510 262 521 Q 250 534 226 535 Q 205 535 163 517 C 135 505 131 484 161 487 Z" style="fill: #0070C0;"></path>
                                                                        <path d="M 155 358 Q 158 358 162 358 Q 211 367 249 372 Q 271 378 262 389 Q 250 402 226 404 Q 178 407 156 385 C 134 365 127 358 155 358 Z" style="fill: #0070C0;"></path>
                                                                        <path d="M 145 179 Q 151 179 159 180 Q 189 186 251 188 C 281 189 282 189 273 204 Q 269 213 246 227 Q 230 236 199 228 Q 172 221 149 215 C 120 207 115 178 145 179 Z" style="fill: #0070C0;"></path>
                                                                        <path d="M 529 683 Q 557 674 596 683 Q 812 723 827 734 Q 834 741 831 749 Q 824 759 798 767 Q 770 773 743 762 Q 694 746 642 733 Q 587 721 523 714 C 493 711 500 691 529 683 Z" style="fill: #0070C0;"></path>
                                                                        <path d="M 523 714 Q 507 727 479 739 Q 460 749 446 743 Q 434 736 442 722 Q 463 695 463 618 Q 462 609 462 599 Q 459 427 419 293 Q 382 182 306 55 Q 302 48 299 42 Q 298 32 308 34 Q 338 37 414 165 Q 429 193 444 227 Q 510 392 522 643 Q 523 662 528 681 Q 528 682 529 683 C 534 706 534 706 523 714 Z" style="fill: #0070C0;"></path>
                                                                        <path d="M 693 510 Q 799 535 803 538 Q 812 545 807 553 Q 800 563 774 570 Q 738 576 698 556 L 646 542 Q 609 535 568 530 Q 534 524 559 509 Q 593 491 647 500 L 693 510 Z" style="fill: #0070C0;"></path>
                                                                        <path d="M 684 415 Q 688 464 693 510 L 698 556 Q 698 557 713 632 Q 716 642 699 655 Q 668 671 647 676 Q 634 679 626 672 Q 619 665 626 652 Q 642 630 642 616 Q 643 582 646 542 L 647 500 Q 647 457 646 407 C 645 377 682 385 684 415 Z" style="fill: #0070C0;"></path>
                                                                        <path d="M 654 373 Q 687 386 834 391 Q 876 391 880 400 Q 884 410 870 420 Q 825 450 764 434 Q 730 427 684 415 L 646 407 Q 582 397 513 383 Q 497 380 510 367 Q 534 346 576 356 Q 594 362 618 366 L 654 373 Z" style="fill: #0070C0;"></path>
                                                                        <path d="M 690 204 Q 811 235 815 238 Q 824 245 819 253 Q 812 263 785 270 Q 755 276 694 250 L 642 236 Q 594 226 540 218 Q 506 212 530 197 Q 570 179 630 192 Q 636 193 643 194 L 690 204 Z" style="fill: #0070C0;"></path>
                                                                        <path d="M 680 95 Q 684 152 690 204 L 694 250 Q 700 301 703 310 Q 707 323 709 332 Q 713 342 695 355 Q 673 368 654 373 C 625 382 614 385 618 366 Q 617 362 622 352 Q 638 328 639 312 Q 640 276 642 236 L 643 194 Q 643 145 642 90 C 641 60 678 65 680 95 Z" style="fill: #0070C0;"></path>
                                                                        <path d="M 642 90 Q 546 80 437 67 Q 415 66 431 47 Q 446 32 464 26 Q 486 20 503 25 Q 704 71 920 54 Q 921 54 925 54 Q 946 54 951 63 Q 957 75 939 89 Q 884 132 820 118 Q 762 108 680 95 L 642 90 Z" style="fill: #0070C0;"></path>
                                    
                                    
                                                                                                                                                                                                                                                                                                                                                                                                                                                                                                                                                                                                                                                                                                                                                                                                                                                                                                                                                                                                                                                                                                        </g>
                            </svg>