<svg width='83' height='83' >
                                <g transform="translate(3, 70) scale(0.07, -0.07)">
                                    <!-- 先将完整的字以灰色字体绘制完成，层级位于下面 -->
                                                                        <path d="M 186 647 Q 165 662 149 668 Q 139 672 128 669 Q 121 663 127 651 Q 146 579 149 562 Q 148 561 149 556 Q 161 345 132 223 Q 119 168 153 125 Q 163 112 174 125 Q 184 138 186 155 L 189 187 Q 190 220 191 329 L 192 365 Q 192 419 193 459 L 193 495 Q 194 595 196 607 Q 197 614 197 618 C 199 638 199 638 186 647 Z" style="fill: #0070C0;"></path>
                                                                        <path d="M 287 166 Q 299 145 313 126 Q 329 101 337 104 Q 350 107 364 142 Q 379 181 374 230 Q 367 330 363 548 Q 362 605 378 633 Q 388 652 379 663 Q 372 673 320 688 Q 295 695 278 685 Q 229 660 186 647 C 158 638 168 610 197 618 Q 290 645 293 644 Q 296 644 300 641 Q 315 628 314 571 Q 318 340 309 213 Q 310 204 308 198 C 306 168 271 192 287 166 Z" style="fill: #0070C0;"></path>
                                                                        <path d="M 193 459 Q 239 474 276 483 Q 297 490 286 501 Q 274 513 250 513 Q 228 513 193 495 C 166 481 164 450 193 459 Z" style="fill: #0070C0;"></path>
                                                                        <path d="M 191 329 Q 240 342 279 352 Q 300 359 290 369 Q 278 381 254 382 Q 233 382 192 365 C 164 354 162 321 191 329 Z" style="fill: #0070C0;"></path>
                                                                        <path d="M 186 155 Q 241 162 287 166 C 317 169 335 184 308 198 Q 301 202 291 204 Q 263 210 189 187 C 160 178 156 151 186 155 Z" style="fill: #0070C0;"></path>
                                                                        <path d="M 646 677 Q 799 716 803 721 Q 812 728 807 737 Q 800 747 772 754 Q 750 758 649 725 L 592 709 Q 535 696 472 688 Q 438 681 463 666 Q 499 645 568 661 Q 578 664 593 666 L 646 677 Z" style="fill: #0070C0;"></path>
                                                                        <path d="M 638 574 Q 749 604 752 605 Q 759 612 755 619 Q 748 628 725 633 Q 700 637 641 613 L 593 600 Q 547 590 494 582 Q 464 576 486 564 Q 514 549 577 561 Q 583 562 593 563 L 638 574 Z" style="fill: #0070C0;"></path>
                                                                        <path d="M 633 513 Q 634 544 638 574 L 641 613 Q 642 646 646 677 L 649 725 Q 649 755 665 811 Q 669 823 649 837 Q 615 856 592 859 Q 576 863 568 854 Q 561 847 569 832 Q 588 804 589 784 Q 590 748 592 709 L 593 666 Q 593 635 593 600 L 593 563 Q 592 536 592 506 C 592 476 632 483 633 513 Z" style="fill: #0070C0;"></path>
                                                                        <path d="M 592 506 Q 493 490 383 470 Q 364 467 379 451 Q 392 438 410 434 Q 431 430 446 435 Q 662 504 928 504 Q 929 504 933 504 Q 952 505 957 514 Q 961 526 945 538 Q 893 574 857 563 Q 779 544 644 516 Q 638 515 633 513 L 592 506 Z" style="fill: #0070C0;"></path>
                                                                        <path d="M 526 191 Q 529 233 533 264 L 536 292 Q 539 334 543 350 Q 544 357 543 363 C 543 380 543 380 527 388 Q 500 403 483 403 Q 470 399 475 388 Q 517 280 462 97 Q 441 52 444 38 Q 445 8 460 -10 Q 466 -23 476 -18 Q 512 6 524 163 L 526 191 Z" style="fill: #0070C0;"></path>
                                                                        <path d="M 543 363 Q 555 364 571 369 Q 676 394 693 387 Q 705 381 705 354 Q 723 185 717 51 Q 716 24 701 19 Q 691 16 638 33 Q 626 37 626 29 Q 627 20 642 10 Q 676 -23 703 -56 Q 718 -74 734 -73 Q 750 -69 769 -21 Q 794 28 788 77 Q 778 194 766 302 Q 762 345 778 379 Q 790 395 775 408 Q 757 424 718 436 Q 696 446 679 434 Q 664 427 635 416 Q 562 397 527 388 C 498 381 514 357 543 363 Z" style="fill: #0070C0;"></path>
                                                                        <path d="M 533 264 Q 534 264 538 264 Q 601 274 648 281 Q 670 285 661 297 Q 651 310 627 314 Q 591 317 536 292 C 509 280 503 264 533 264 Z" style="fill: #0070C0;"></path>
                                                                        <path d="M 524 163 Q 606 175 667 181 Q 689 185 681 197 Q 671 210 647 215 Q 611 222 526 191 C 498 181 494 159 524 163 Z" style="fill: #0070C0;"></path>
                                    
                                    
                                                                                                                                                                                                                                                                                                                                                                                                                                                                                                                                                                                                                                                                                                                                                                                                                                                                                                                                                                                                                                                                                                        </g>
                            </svg>