<svg width='83' height='83' >
                                <g transform="translate(3, 70) scale(0.07, -0.07)">
                                    <!-- 先将完整的字以灰色字体绘制完成，层级位于下面 -->
                                                                        <path d="M 176 679 Q 167 697 132 708 Q 122 712 111 708 Q 104 704 109 690 Q 136 614 136 485 Q 136 310 114 219 Q 101 162 137 117 Q 147 104 159 117 Q 168 129 170 143 L 174 177 Q 175 205 176 248 Q 176 306 176 354 L 177 386 Q 177 446 178 491 L 178 524 Q 179 632 181 644 Q 181 647 181 648 L 176 679 Z" style="fill: #0070C0;"></path>
                                                                        <path d="M 268 158 Q 280 140 293 122 Q 309 97 317 100 Q 330 103 346 140 Q 362 182 356 235 Q 329 613 358 665 Q 368 684 359 695 Q 352 705 299 719 Q 274 726 257 716 Q 214 692 176 679 C 148 668 153 638 181 648 Q 269 679 279 674 L 280 673 Q 296 657 295 597 Q 299 347 289 209 Q 290 193 283 187 C 275 158 263 165 268 158 Z" style="fill: #0070C0;"></path>
                                                                        <path d="M 178 491 Q 223 500 255 507 Q 276 514 266 525 Q 254 537 230 538 Q 209 538 178 524 C 151 512 149 485 178 491 Z" style="fill: #0070C0;"></path>
                                                                        <path d="M 176 354 Q 222 363 257 368 Q 279 374 270 385 Q 258 398 234 400 Q 212 401 177 386 C 149 374 147 348 176 354 Z" style="fill: #0070C0;"></path>
                                                                        <path d="M 170 143 Q 222 153 268 158 C 298 161 307 170 283 187 Q 261 205 196 186 Q 184 182 174 177 C 147 164 141 137 170 143 Z" style="fill: #0070C0;"></path>
                                                                        <path d="M 513 675 Q 622 798 633 806 Q 652 821 637 835 Q 621 848 593 856 Q 568 863 556 859 Q 543 855 551 842 Q 561 818 487 679 Q 484 675 482 669 C 470 642 493 653 513 675 Z" style="fill: #0070C0;"></path>
                                                                        <path d="M 440 663 Q 424 670 408 674 Q 402 675 398 670 Q 391 666 400 656 Q 433 611 450 488 Q 456 428 491 410 Q 504 409 505 426 L 504 449 Q 503 471 494 495 Q 476 600 473 629 C 470 650 468 652 440 663 Z" style="fill: #0070C0;"></path>
                                                                        <path d="M 723 459 Q 723 452 726 445 Q 730 429 744 429 Q 759 430 768 445 Q 784 464 813 556 Q 832 610 872 640 Q 893 656 876 673 Q 858 692 806 722 Q 788 732 707 713 Q 653 713 513 675 L 482 669 Q 458 666 440 663 C 410 658 444 620 473 629 Q 522 645 586 656 L 624 663 Q 750 691 772 679 Q 782 672 774 637 Q 743 507 729 482 Q 728 482 728 481 C 721 466 721 466 723 459 Z" style="fill: #0070C0;"></path>
                                                                        <path d="M 586 572 Q 552 563 522 555 Q 507 552 526 539 Q 530 535 580 539 L 628 547 Q 665 554 700 559 Q 721 562 713 573 Q 703 586 681 590 Q 663 593 637 586 L 586 572 Z" style="fill: #0070C0;"></path>
                                                                        <path d="M 593 439 Q 663 452 723 459 C 753 463 752 463 728 481 Q 710 499 653 484 Q 628 480 606 472 L 560 461 Q 532 457 504 449 C 475 441 475 427 505 426 Q 512 425 524 427 Q 534 430 548 431 L 593 439 Z" style="fill: #0070C0;"></path>
                                                                        <path d="M 548 431 Q 524 382 479 316 Q 475 312 473 307 Q 470 298 478 300 Q 503 300 567 388 Q 567 391 570 393 Q 582 415 593 439 L 606 472 Q 619 509 628 547 L 637 586 Q 640 607 647 619 Q 654 629 650 641 Q 640 653 624 663 C 599 680 575 684 586 656 Q 587 652 590 646 Q 594 637 586 572 L 580 539 Q 571 494 560 461 L 548 431 Z" style="fill: #0070C0;"></path>
                                                                        <path d="M 699 270 Q 784 280 944 281 Q 963 281 967 290 Q 973 300 956 314 Q 899 356 851 339 Q 791 327 700 310 L 644 301 Q 526 285 392 266 Q 371 263 387 247 Q 400 234 418 229 Q 439 225 454 228 Q 536 252 632 263 Q 636 264 643 263 L 699 270 Z" style="fill: #0070C0;"></path>
                                                                        <path d="M 688 -14 Q 688 1 699 270 L 700 310 Q 700 335 710 381 Q 713 397 700 407 Q 669 428 655 430 Q 643 436 628 427 Q 619 420 626 409 Q 644 378 644 301 L 643 263 Q 643 190 641 93 Q 638 -49 654 -73 Q 660 -80 667 -78 Q 679 -71 688 -14 Z" style="fill: #0070C0;"></path>
                                    
                                    
                                                                                                                                                                                                                                                                                                                                                                                                                                                                                                                                                                                                                                                                                                                                                                                                                                                                                                                                                                                                                                                                                                        </g>
                            </svg>