<svg width='83' height='83' >
                                <g transform="translate(3, 70) scale(0.07, -0.07)">
                                    <!-- 先将完整的字以灰色字体绘制完成，层级位于下面 -->
                                                                        <path d="M 169 632 Q 157 647 129 656 Q 119 660 108 657 Q 101 651 107 639 Q 125 573 127 558 Q 127 552 128 545 Q 143 344 112 215 Q 99 160 133 117 Q 143 104 154 117 Q 161 127 164 138 L 169 170 Q 170 206 171 303 L 171 338 Q 172 396 172 440 L 173 474 Q 174 583 176 595 Q 177 601 177 605 C 179 623 179 623 169 632 Z" style="fill: #0070C0;"></path>
                                                                        <path d="M 274 151 Q 284 135 294 120 Q 310 98 317 100 Q 330 103 343 137 Q 355 168 349 268 Q 330 572 352 619 Q 362 637 354 647 Q 347 657 297 671 Q 273 678 257 668 Q 209 644 169 632 C 141 623 148 597 177 605 Q 207 612 239 625 Q 267 635 278 626 Q 293 613 293 557 Q 299 329 290 204 Q 291 192 287 186 C 282 156 268 161 274 151 Z" style="fill: #0070C0;"></path>
                                                                        <path d="M 172 440 Q 218 453 254 460 Q 276 466 266 477 Q 254 490 230 490 Q 208 490 173 474 C 146 462 143 432 172 440 Z" style="fill: #0070C0;"></path>
                                                                        <path d="M 171 303 Q 217 316 254 324 Q 276 330 266 341 Q 254 354 230 354 Q 208 354 171 338 C 143 326 142 295 171 303 Z" style="fill: #0070C0;"></path>
                                                                        <path d="M 164 138 Q 225 148 274 151 C 304 153 316 179 287 186 Q 283 187 279 188 Q 243 195 169 170 C 141 160 134 133 164 138 Z" style="fill: #0070C0;"></path>
                                                                        <path d="M 619 795 Q 583 761 457 695 Q 451 688 457 684 Q 496 684 617 732 Q 659 756 718 768 Q 734 769 738 777 Q 742 787 730 798 Q 670 837 639 833 Q 632 829 632 819 Q 632 806 619 795 Z" style="fill: #0070C0;"></path>
                                                                        <path d="M 439 575 Q 452 559 468 537 Q 478 524 493 522 Q 503 521 509 533 Q 515 546 510 574 Q 507 589 486 601 Q 432 626 420 623 Q 416 620 415 608 Q 416 598 439 575 Z" style="fill: #0070C0;"></path>
                                                                        <path d="M 556 654 Q 586 596 610 592 Q 622 589 630 605 Q 634 617 627 636 Q 621 649 603 658 Q 576 674 564 678 Q 555 681 553 670 Q 552 663 556 654 Z" style="fill: #0070C0;"></path>
                                                                        <path d="M 756 672 Q 737 648 663 573 Q 653 558 669 560 Q 720 584 748 601 Q 815 643 834 648 Q 855 655 846 673 Q 836 689 812 705 Q 790 721 778 719 Q 766 718 769 705 Q 770 689 756 672 Z" style="fill: #0070C0;"></path>
                                                                        <path d="M 625 404 Q 638 407 811 424 Q 830 425 834 434 Q 838 446 822 458 Q 762 492 709 472 Q 673 462 627 449 L 580 437 Q 493 419 390 394 Q 371 390 386 375 Q 422 350 455 362 Q 498 378 552 389 L 625 404 Z" style="fill: #0070C0;"></path>
                                                                        <path d="M 625 393 Q 625 399 625 404 L 627 449 Q 628 477 631 494 Q 634 506 626 512 Q 604 531 585 540 Q 573 543 564 536 Q 558 532 566 523 Q 579 502 580 437 L 581 341 Q 581 122 564 70 Q 555 30 597 -28 Q 601 -35 608 -38 Q 618 -39 624 -26 Q 636 5 632 34 Q 626 193 625 359 L 625 393 Z" style="fill: #0070C0;"></path>
                                                                        <path d="M 552 389 Q 504 271 354 134 Q 344 122 352 121 Q 371 115 439 166 Q 505 218 568 321 Q 575 333 581 341 C 624 403 568 426 552 389 Z" style="fill: #0070C0;"></path>
                                                                        <path d="M 625 359 Q 695 262 783 160 Q 802 141 830 144 Q 927 151 958 158 Q 967 161 968 165 Q 969 169 956 176 Q 815 230 734 297 Q 683 339 625 393 C 603 413 607 383 625 359 Z" style="fill: #0070C0;"></path>
                                    
                                    
                                                                                                                                                                                                                                                                                                                                                                                                                                                                                                                                                                                                                                                                                                                                                                                                                                                                                                                                                                                                                                                                                                        </g>
                            </svg>