<svg width='83' height='83' >
                                <g transform="translate(3, 70) scale(0.07, -0.07)">
                                    <!-- 先将完整的字以灰色字体绘制完成，层级位于下面 -->
                                                                        <path d="M 143 657 Q 141 661 133 666 Q 108 686 89 680 Q 82 676 88 665 Q 108 580 110 572 L 110 566 Q 118 394 98 286 L 83 216 Q 77 184 88 159 Q 89 155 92 151 Q 106 123 118 127 Q 119 128 121 130 Q 132 142 132 164 L 135 188 Q 139 211 139 252 Q 139 302 139 336 L 141 365 Q 141 427 143 472 L 143 501 Q 147 627 149 632 C 151 650 151 650 143 657 Z" style="fill: #0070C0;"></path>
                                                                        <path d="M 223 171 Q 228 163 235 151 Q 265 104 274 108 Q 286 112 297 136 Q 314 176 311 225 L 311 226 L 310 235 Q 279 579 308 643 Q 317 659 310 669 Q 304 676 282 684 Q 245 697 227 694 L 217 690 Q 176 666 143 657 C 115 648 119 628 149 632 Q 165 632 193 642 Q 223 653 232 651 Q 253 644 252 580 L 252 577 Q 258 327 248 207 L 247 194 L 246 190 C 243 160 208 197 223 171 Z" style="fill: #0070C0;"></path>
                                                                        <path d="M 143 472 L 149 472 L 151 472 Q 182 480 220 486 Q 235 492 233 501 Q 227 513 196 515 Q 176 515 143 501 C 115 489 113 472 143 472 Z" style="fill: #0070C0;"></path>
                                                                        <path d="M 139 336 Q 143 335 151 336 L 223 349 Q 231 352 235 355 Q 240 359 235 367 Q 222 380 199 380 Q 176 380 141 365 C 113 353 109 340 139 336 Z" style="fill: #0070C0;"></path>
                                                                        <path d="M 132 164 Q 190 171 223 171 C 253 171 262 171 246 190 Q 243 194 241 195 Q 214 216 135 188 C 107 178 102 160 132 164 Z" style="fill: #0070C0;"></path>
                                                                        <path d="M 437 772 Q 484 723 507 723 Q 510 723 512 723 Q 535 733 517 790 Q 510 808 457 821 Q 414 831 404 826 Q 398 821 400 808 Q 404 794 437 772 Z" style="fill: #0070C0;"></path>
                                                                        <path d="M 486 641 L 476 639 Q 449 630 381 619 Q 345 613 343 606 Q 339 596 355 584 Q 372 574 387 570 Q 410 566 447 578 Q 508 600 533 606 Q 550 610 550 615 Q 550 626 539 633 Q 521 645 494 643 L 486 641 Z" style="fill: #0070C0;"></path>
                                                                        <path d="M 377 495 L 371 493 Q 349 484 368.5 474.5 Q 388 465 416 465 Q 424 466 441 469 Q 502 482 514 492 Q 518 498 517 503 Q 515 517 480 521 Q 471 521 455 517 Q 419 511 412 504 L 377 495 Z" style="fill: #0070C0;"></path>
                                                                        <path d="M 380 386 Q 349 376 374 365 Q 404 355 427 359 L 486 376 L 490 377 Q 514 384 504 400 Q 496 410 468 412 Q 439 412 415 398 L 380 386 Z" style="fill: #0070C0;"></path>
                                                                        <path d="M 390 287 Q 388 288 382 289 Q 335 300 332 291 L 330 288 Q 328 282 339 263 Q 372 205 388 134 Q 396 102 416 88 Q 426 78 431 82 Q 441 104 433 136 L 425 167 Q 410 237 406 260 C 402 284 402 284 390 287 Z" style="fill: #0070C0;"></path>
                                                                        <path d="M 516 173 Q 535 237 556 257 Q 578 282 555 296 Q 490 329 488 329 Q 474 325 459 314 Q 437 296 390 287 C 361 281 381 243 406 260 Q 406 265 443 272 Q 468 278 477 272 Q 487 265 480 235 L 467 180 C 460 151 507 144 516 173 Z" style="fill: #0070C0;"></path>
                                                                        <path d="M 433 136 Q 434 145 523 151 Q 533 151 533 159 Q 533 166 516 173 C 489 185 483 188 467 180 Q 466 180 463 178 Q 447 170 425 167 C 395 163 413 114 433 136 Z" style="fill: #0070C0;"></path>
                                                                        <path d="M 606 587 Q 643 528 630 342 Q 623 284 607 239 Q 580 166 510 87 Q 493 71 492 65 Q 492 63 497 61 Q 510 57 533 73 Q 564 94 602 137 Q 678 234 685 428 Q 685 542 688 566 Q 692 586 672 595 Q 647 606 633 610 Q 624 612 608 612 Q 594 610 599 598 L 606 588 L 606 587 Z" style="fill: #0070C0;"></path>
                                                                        <path d="M 733 662 Q 729 659 727 654 Q 726 649 733 625 Q 770 509 735 267 Q 722 220 758 174 Q 768 167 778 176 Q 806 220 802 274 Q 800 306 798 339 Q 791 494 806 608 Q 809 621 805 631 L 797 641 Q 796 641 770 656 Q 747 669 733 662 Z" style="fill: #0070C0;"></path>
                                                                        <path d="M 828 834 Q 821 829 821 823 Q 820 817 833 798 Q 862 753 864 697 Q 880 224 858 112 Q 839 27 862 -24 Q 866 -45 878 -57 Q 888 -65 894 -63 Q 900 -59 905 -53 Q 928 -25 925 25 L 925 30 Q 907 653 935 755 Q 943 768 941 780 L 941 781 L 940 786 Q 933 795 871 831 Q 853 843 838 839 L 828 834 Z" style="fill: #0070C0;"></path>
                                    
                                    
                                                                                                                                                                                                                                                                                                                                                                                                                                                                                                                                                                                                                                                                                                                                                                                                                                                                                                                                                                                                                                                                                                                                                                                                                                                                </g>
                            </svg>