<svg width='83' height='83' >
                                <g transform="translate(3, 70) scale(0.07, -0.07)">
                                    <!-- 先将完整的字以灰色字体绘制完成，层级位于下面 -->
                                                                        <path d="M 167 645 Q 152 663 124 672 Q 114 676 103 672 Q 96 668 101 654 Q 104 642 109 631 Q 140 568 122 295 Q 118 255 106 207 Q 93 150 129 105 Q 139 92 151 105 Q 163 120 164 147 L 167 182 Q 167 254 167 326 L 168 358 Q 168 416 169 459 L 170 492 Q 170 610 174 617 C 176 636 176 636 167 645 Z" style="fill: #0070C0;"></path>
                                                                        <path d="M 355 224 Q 355 227 355 229 Q 334 578 361 629 Q 373 648 364 658 Q 357 670 304 684 Q 279 693 262 682 Q 210 657 167 645 C 138 636 145 611 174 617 Q 199 620 249 637 Q 274 644 283 637 Q 298 624 298 568 Q 301 339 290 213 Q 294 188 272 192 L 270 192 C 253 187 256 181 273 156 Q 283 141 293 126 Q 309 101 317 104 Q 330 105 344 141 Q 357 175 355 215 L 355 224 Z" style="fill: #0070C0;"></path>
                                                                        <path d="M 169 459 Q 218 472 258 480 Q 280 486 270 497 Q 258 510 234 511 Q 189 511 170 492 C 148 472 140 451 169 459 Z" style="fill: #0070C0;"></path>
                                                                        <path d="M 167 326 Q 216 335 253 340 Q 275 346 266 357 Q 254 370 230 372 Q 208 373 170 360 Q 169 359 168 358 C 145 339 137 321 167 326 Z" style="fill: #0070C0;"></path>
                                                                        <path d="M 164 147 Q 171 147 179 148 Q 210 154 273 156 C 303 157 294 174 270 192 Q 269 193 266 195 Q 251 204 167 182 C 138 174 134 146 164 147 Z" style="fill: #0070C0;"></path>
                                                                        <path d="M 468 693 Q 501 630 525 624 Q 538 621 547 637 Q 550 650 544 670 Q 529 700 476 718 Q 469 721 465 710 Q 462 703 468 693 Z" style="fill: #0070C0;"></path>
                                                                        <path d="M 724 741 Q 708 711 671 664 Q 667 657 671 651 Q 678 650 685 654 Q 758 703 793 723 Q 809 727 806 738 Q 800 753 782 770 Q 763 786 743 788 Q 728 787 730 769 Q 731 756 724 741 Z" style="fill: #0070C0;"></path>
                                                                        <path d="M 655 570 Q 682 576 833 593 Q 843 592 852 603 Q 853 613 832 624 Q 805 645 729 625 Q 678 618 632 605 L 594 597 Q 555 593 520 588 Q 475 585 425 579 Q 397 576 418 559 Q 445 535 489 543 Q 516 549 549 553 L 655 570 Z" style="fill: #0070C0;"></path>
                                                                        <path d="M 632 605 Q 638 722 661 760 Q 667 770 656 782 Q 634 800 608 811 Q 592 818 578 813 Q 565 809 571 795 Q 596 756 594 694 Q 594 640 594 597 L 592 538 Q 589 480 583 452 Q 582 440 597 402 Q 607 387 621 395 Q 630 402 630 549 Q 630 556 630 561 L 632 605 Z" style="fill: #0070C0;"></path>
                                                                        <path d="M 549 553 Q 503 490 459 448 Q 447 441 437 431 Q 422 419 436 418 Q 487 414 568 503 Q 581 522 592 538 C 609 563 586 603 549 553 Z" style="fill: #0070C0;"></path>
                                                                        <path d="M 630 561 Q 685 495 754 425 Q 767 413 789 417 Q 882 430 888 441 Q 888 445 878 449 Q 769 485 695 539 Q 674 554 655 570 C 628 592 611 584 630 561 Z" style="fill: #0070C0;"></path>
                                                                        <path d="M 416 253 Q 434 271 459 301 L 470 317 Q 482 333 496 355 Q 505 373 506 375 Q 505 382 495 389 Q 471 407 451 403 Q 445 402 447 393 Q 456 336 355 224 C 344 211 344 211 355 215 Q 362 215 401 241 L 416 253 Z" style="fill: #0070C0;"></path>
                                                                        <path d="M 459 301 Q 468 294 493 298 Q 530 305 532 301 Q 536 291 522 252 Q 510 210 468 152 Q 426 91 355 30 Q 336 18 353 19 Q 440 25 554 209 Q 596 290 605 296 Q 615 305 610 315 Q 606 324 561 342 Q 551 346 533 337 Q 514 327 470 317 C 441 310 434 308 459 301 Z" style="fill: #0070C0;"></path>
                                                                        <path d="M 401 241 Q 417 211 436 186 Q 446 171 458 169 Q 467 166 474 178 Q 477 188 473 203 Q 466 231 416 253 C 389 265 388 266 401 241 Z" style="fill: #0070C0;"></path>
                                                                        <path d="M 768 300 Q 864 321 871 325 Q 878 332 874 339 Q 868 348 845 354 Q 818 360 771 339 L 715 325 Q 688 321 658 318 Q 630 314 650 300 Q 674 287 716 289 L 768 300 Z" style="fill: #0070C0;"></path>
                                                                        <path d="M 765 158 Q 813 167 901 159 Q 919 158 926 168 Q 930 175 915 186 Q 869 220 802 200 Q 784 200 766 194 L 716 185 Q 688 181 660 174 Q 635 167 642 189 Q 652 223 661 236 Q 668 243 664 253 Q 660 262 631 275 Q 616 282 608 278 Q 599 271 607 259 Q 629 214 588 167 Q 576 161 578 145 Q 579 136 594 125 Q 604 118 615 128 Q 658 147 716 153 L 765 158 Z" style="fill: #0070C0;"></path>
                                                                        <path d="M 721 -15 Q 725 -37 731 -45 Q 735 -52 742 -49 Q 749 -46 754 -33 Q 764 0 765 158 L 766 194 Q 766 237 768 300 L 771 339 Q 774 354 776 365 Q 779 381 767 389 Q 739 408 725 410 Q 715 414 700 407 Q 693 400 698 390 Q 713 369 715 325 L 716 289 Q 716 243 716 185 L 716 153 Q 717 131 717 105 Q 717 15 721 -15 Z" style="fill: #0070C0;"></path>
                                    
                                    
                                                                                                                                                                                                                                                                                                                                                                                                                                                                                                                                                                                                                                                                                                                                                                                                                                                                                                                                                                                                                                                                                                                                                                                                                                                                                                                                                                                                                        </g>
                            </svg>