<svg width='83' height='83' >
                                <g transform="translate(3, 70) scale(0.07, -0.07)">
                                    <!-- 先将完整的字以灰色字体绘制完成，层级位于下面 -->
                                                                        <path d="M 270 760 Q 260 764 249 767 Q 242 768 237 761 Q 236 757 241 748 Q 277 700 257 547 Q 247 538 256 506 Q 265 479 275 470 Q 285 460 292 471 Q 298 480 301 493 L 305 524 Q 308 560 305 581 L 304 608 Q 304 639 302 657 L 301 680 Q 300 717 303 728 Q 303 732 302 737 C 301 749 298 750 270 760 Z" style="fill: #0070C0;"></path>
                                                                        <path d="M 414 506 L 415 504 Q 425 479 434 479 Q 447 479 461 506 Q 474 528 475 546 Q 463 702 494 742 Q 503 755 496 764 Q 474 783 433 802 Q 420 806 400 799 Q 346 772 270 760 C 240 755 273 728 302 737 Q 301 738 304 738 Q 404 768 416 761 Q 423 745 424 700 Q 420 567 412 542 Q 409 538 408 531 L 414 506 Z" style="fill: #0070C0;"></path>
                                                                        <path d="M 302 657 Q 356 663 393 668 Q 412 671 405 682 Q 396 694 375 697 Q 339 703 301 680 C 275 665 272 654 302 657 Z" style="fill: #0070C0;"></path>
                                                                        <path d="M 305 581 Q 354 590 390 595 Q 409 599 401 610 Q 391 622 370 624 Q 340 627 304 608 C 277 594 275 576 305 581 Z" style="fill: #0070C0;"></path>
                                                                        <path d="M 301 493 Q 305 493 313 494 Q 344 501 414 506 C 435 508 431 511 408 531 Q 404 535 398 538 Q 383 545 305 524 C 276 516 271 492 301 493 Z" style="fill: #0070C0;"></path>
                                                                        <path d="M 573 793 Q 552 805 539 800 Q 533 796 539 786 Q 564 704 554 598 Q 536 582 559 536 Q 565 523 576 512 Q 585 502 593 512 Q 596 518 599 524 L 602 554 Q 603 566 602 583 Q 601 596 601 609 L 600 636 Q 599 667 599 689 L 599 713 Q 598 747 599 751 Q 600 761 599 768 C 598 780 598 780 573 793 Z" style="fill: #0070C0;"></path>
                                                                        <path d="M 714 534 Q 715 531 718 528 Q 730 501 738 502 Q 751 503 766 533 Q 781 555 779 575 Q 764 728 793 769 Q 803 784 796 792 Q 771 814 729 832 Q 716 836 694 830 Q 667 817 632 805 Q 599 798 573 793 C 544 787 570 760 599 768 Q 599 769 602 769 Q 699 794 710 788 Q 728 749 716 584 Q 710 566 710 558 L 714 534 Z" style="fill: #0070C0;"></path>
                                                                        <path d="M 599 689 Q 651 695 689 700 Q 708 703 701 714 Q 692 726 671 729 Q 635 735 599 713 C 573 698 569 686 599 689 Z" style="fill: #0070C0;"></path>
                                                                        <path d="M 601 609 Q 650 619 689 623 Q 708 627 701 638 Q 691 650 671 652 Q 632 655 600 636 C 574 621 572 603 601 609 Z" style="fill: #0070C0;"></path>
                                                                        <path d="M 599 524 Q 603 524 609 525 Q 642 531 714 534 C 736 535 732 538 710 558 Q 706 562 698 567 Q 683 574 657 568 Q 627 561 602 554 C 573 546 569 522 599 524 Z" style="fill: #0070C0;"></path>
                                                                        <path d="M 329 342 Q 374 399 389 409 Q 396 413 396 423 Q 392 450 356 466 Q 337 473 327 473 Q 318 472 319 461 Q 322 389 195 265 Q 192 264 190 261 Q 153 227 62 163 Q 55 159 64 155 Q 121 155 239 250 Q 269 280 300 309 L 329 342 Z" style="fill: #0070C0;"></path>
                                                                        <path d="M 356 82 Q 360 232 368 267 Q 375 294 366 304 Q 348 323 335 337 Q 332 341 329 342 C 307 362 291 338 300 309 Q 309 287 311 213 Q 311 140 288 51 Q 276 0 310 -39 Q 311 -42 314 -44 Q 330 -60 342 -34 Q 355 3 356 46 L 356 82 Z" style="fill: #0070C0;"></path>
                                                                        <path d="M 514 468 Q 548 429 563 429 Q 573 429 577 441 Q 581 454 574 479 Q 568 497 511 509 Q 498 513 492 511 Q 488 507 489 496 Q 492 486 514 468 Z" style="fill: #0070C0;"></path>
                                                                        <path d="M 584 372 Q 747 408 750 409 Q 759 416 755 424 Q 748 436 720 444 Q 698 450 588 419 Q 485 400 434 395 Q 398 391 423 374 Q 459 350 520 362 Q 526 363 537 364 L 584 372 Z" style="fill: #0070C0;"></path>
                                                                        <path d="M 601 278 Q 658 287 708 291 Q 733 294 725 308 Q 715 324 688 330 Q 660 336 603 321 L 547 310 Q 489 300 437 290 Q 418 286 439 270 Q 452 260 480 263 Q 514 267 548 271 L 601 278 Z" style="fill: #0070C0;"></path>
                                                                        <path d="M 597 179 Q 663 188 720 191 Q 745 194 736 208 Q 726 224 700 231 Q 663 237 598 220 L 549 211 Q 491 202 437 193 Q 419 192 439 173 Q 452 163 481 166 Q 515 170 549 173 L 597 179 Z" style="fill: #0070C0;"></path>
                                                                        <path d="M 594 107 Q 595 144 597 179 L 598 220 Q 599 251 601 278 L 603 321 Q 610 345 602 356 Q 593 365 584 372 C 561 391 529 393 537 364 Q 546 331 547 310 L 548 271 Q 548 247 549 211 L 549 173 Q 549 142 551 103 C 552 73 593 77 594 107 Z" style="fill: #0070C0;"></path>
                                                                        <path d="M 551 103 Q 458 94 356 82 C 326 79 327 54 356 46 Q 384 37 401 41 Q 566 80 806 71 Q 824 71 842 70 Q 861 70 866 78 Q 872 88 856 103 Q 801 145 761 132 Q 697 122 594 107 L 551 103 Z" style="fill: #0070C0;"></path>
                                    
                                    
                                                                                                                                                                                                                                                                                                                                                                                                                                                                                                                                                                                                                                                                                                                                                                                                                                                                                                                                                                                                                                                                                                                                                                                                                                                                                                                                                                                                                                                                                                    </g>
                            </svg>