<svg width='83' height='83' >
                                <g transform="translate(3, 70) scale(0.07, -0.07)">
                                    <!-- 先将完整的字以灰色字体绘制完成，层级位于下面 -->
                                                                        <path d="M 526 736 Q 574 745 707 753 Q 716 752 724 762 Q 725 772 707 782 Q 680 803 575 779 Q 559 776 545 773 Q 538 772 535 771 L 483 764 Q 449 761 418 758 Q 376 757 329 752 Q 304 751 322 735 Q 343 717 380 716 Q 425 725 480 730 L 526 736 Z" style="fill: #0070C0;"></path>
                                                                        <path d="M 510 683 Q 517 711 526 736 L 535 771 Q 536 777 545 797 Q 549 804 551 809 Q 555 816 542 831 Q 517 850 499 856 Q 487 860 480 855 Q 473 851 478 838 Q 485 820 483 764 L 480 730 Q 477 705 474 676 C 471 646 503 654 510 683 Z" style="fill: #0070C0;"></path>
                                                                        <path d="M 412 672 Q 388 690 373 685 Q 367 681 370 673 Q 380 652 386 572 Q 386 524 390 436 C 391 406 426 409 426 439 Q 426 455 426 471 L 426 490 Q 426 511 426 528 L 426 546 Q 426 567 427 585 L 427 601 Q 427 638 430 642 C 434 657 434 657 412 672 Z" style="fill: #0070C0;"></path>
                                                                        <path d="M 632 466 Q 644 628 657 643 Q 667 655 657 669 Q 650 678 610 702 Q 598 711 580 702 Q 550 693 510 683 L 474 676 Q 443 673 412 672 C 382 671 401 636 430 642 Q 437 643 445 645 Q 577 672 589 662 Q 592 659 592 460 C 592 430 630 436 632 466 Z" style="fill: #0070C0;"></path>
                                                                        <path d="M 427 585 Q 431 584 441 585 Q 499 595 543 600 Q 558 603 552 611 Q 545 621 529 624 Q 511 625 427 601 C 398 593 397 588 427 585 Z" style="fill: #0070C0;"></path>
                                                                        <path d="M 426 528 Q 429 528 434 528 Q 497 538 543 544 Q 558 547 552 555 Q 545 565 529 568 Q 511 569 426 546 C 397 538 396 528 426 528 Z" style="fill: #0070C0;"></path>
                                                                        <path d="M 426 471 Q 427 471 432 471 Q 499 480 550 485 Q 566 486 560 495 Q 554 505 537 509 Q 516 512 426 490 C 397 483 396 471 426 471 Z" style="fill: #0070C0;"></path>
                                                                        <path d="M 390 436 Q 327 430 258 422 Q 242 421 254 406 Q 264 396 280 390 Q 296 386 310 389 Q 311 390 316 390 L 357 399 Q 487 427 636 425 L 686 426 Q 704 427 725 426 Q 779 423 786 431 Q 790 441 777 453 Q 726 490 663 472 Q 648 471 632 466 L 592 460 Q 496 451 426 439 L 390 436 Z" style="fill: #0070C0;"></path>
                                                                        <path d="M 315 342 Q 264 333 208 331 Q 180 328 199 315 Q 223 297 289 305 Q 299 306 311 307 L 346 312 Q 383 319 424 324 Q 460 331 466 335 Q 473 341 470 347 Q 466 357 443 363 Q 422 369 356 350 L 315 342 Z" style="fill: #0070C0;"></path>
                                                                        <path d="M 316 390 Q 317 383 315 342 L 311 307 Q 307 282 302 251 C 297 221 323 230 330 259 Q 337 287 346 312 L 356 350 Q 363 369 370 378 Q 373 384 362 395 Q 359 398 357 399 C 333 417 314 420 316 390 Z" style="fill: #0070C0;"></path>
                                                                        <path d="M 243 243 Q 231 253 219 258 Q 210 259 203 257 Q 197 253 200 246 Q 212 222 217 139 Q 218 90 223 1 C 225 -29 256 -24 256 6 Q 256 25 256 44 L 256 62 Q 256 81 256 100 L 256 116 Q 256 138 256 157 L 256 174 Q 256 207 257 216 C 258 231 258 231 243 243 Z" style="fill: #0070C0;"></path>
                                                                        <path d="M 302 251 Q 274 247 243 243 C 213 239 228 207 257 216 Q 309 234 375 240 Q 388 241 392 238 Q 393 235 398 25 C 399 -5 434 0 435 30 Q 441 204 455 222 Q 465 234 455 246 Q 448 255 410 276 Q 401 282 330 259 L 302 251 Z" style="fill: #0070C0;"></path>
                                                                        <path d="M 256 157 Q 259 156 267 157 Q 319 167 359 172 Q 375 175 369 183 Q 362 193 345 195 Q 321 198 256 174 C 228 164 226 161 256 157 Z" style="fill: #0070C0;"></path>
                                                                        <path d="M 256 100 Q 260 100 268 100 Q 322 107 362 112 Q 378 115 372 123 Q 365 133 349 136 Q 328 139 256 116 C 227 107 226 100 256 100 Z" style="fill: #0070C0;"></path>
                                                                        <path d="M 261 44 Q 322 51 366 56 Q 382 59 376 67 Q 369 77 353 81 Q 329 84 256 62 C 227 53 226 44 256 44 Q 257 44 261 44 Z" style="fill: #0070C0;"></path>
                                                                        <path d="M 223 1 Q 207 1 190 -3 Q 160 -7 143 -4 Q 133 -5 128 -9 Q 125 -16 130 -29 Q 139 -45 153 -58 Q 159 -62 181 -58 Q 289 -19 443 12 Q 465 15 479 23 Q 486 30 480 33 Q 464 36 435 30 L 398 25 Q 323 18 256 6 L 223 1 Z" style="fill: #0070C0;"></path>
                                                                        <path d="M 643 346 Q 589 339 529 335 Q 498 332 519 316 Q 552 295 619 305 Q 628 306 640 307 L 685 314 Q 734 323 788 330 Q 831 339 838 344 Q 845 350 842 358 Q 836 368 812 376 Q 787 383 760 374 Q 729 365 696 357 L 643 346 Z" style="fill: #0070C0;"></path>
                                                                        <path d="M 636 425 Q 645 416 645 373 Q 644 361 643 346 L 640 307 Q 637 279 633 245 C 630 215 660 224 668 253 Q 677 284 685 314 L 696 357 Q 696 358 697 359 Q 703 381 712 393 Q 716 402 702 415 Q 693 422 686 426 C 661 442 620 450 636 425 Z" style="fill: #0070C0;"></path>
                                                                        <path d="M 577 240 Q 562 252 550 258 Q 540 259 533 257 Q 527 253 529 245 Q 541 218 544 199 Q 545 178 550 -12 C 551 -42 586 -40 586 -10 Q 586 9 586 27 L 586 44 Q 586 66 586 87 L 586 105 Q 586 130 587 151 L 587 165 Q 587 186 589 211 C 590 230 590 230 577 240 Z" style="fill: #0070C0;"></path>
                                                                        <path d="M 633 245 Q 606 242 577 240 C 547 238 559 208 589 211 Q 596 211 605 213 Q 741 243 750 233 Q 753 230 753 4 C 753 -26 792 -22 793 8 Q 799 197 817 215 Q 827 227 817 241 Q 810 250 770 273 Q 757 283 739 274 Q 709 264 668 253 L 633 245 Z" style="fill: #0070C0;"></path>
                                                                        <path d="M 587 151 L 588 151 Q 592 148 714 167 Q 730 170 725 179 Q 718 189 699 192 Q 678 193 587 165 C 558 156 557 154 587 151 Z" style="fill: #0070C0;"></path>
                                                                        <path d="M 586 87 Q 593 86 600 87 Q 667 94 717 99 Q 733 100 728 111 Q 721 121 703 126 Q 676 130 586 105 C 557 97 556 90 586 87 Z" style="fill: #0070C0;"></path>
                                                                        <path d="M 586 27 Q 590 26 600 26 Q 667 33 717 35 Q 733 36 728 47 Q 721 57 703 62 Q 684 68 586 44 C 557 37 556 31 586 27 Z" style="fill: #0070C0;"></path>
                                                                        <path d="M 550 -12 Q 504 -13 457 -16 Q 432 -17 449 -31 Q 480 -53 550 -46 Q 694 -21 882 -35 Q 900 -36 916 -39 Q 929 -40 933 -33 Q 937 -24 928 -12 Q 891 25 801 9 Q 797 9 793 8 L 753 4 Q 675 -3 586 -10 L 550 -12 Z" style="fill: #0070C0;"></path>
                                    
                                    
                                                                                                                                                                                                                                                                                                                                                                                                                                                                                                                                                                                                                                                                                                                                                                                                                                                                                                                                                                                                                                                                                                                                                                                                                                                                                                                                                                                                                                                                                                                                                                                                                                                                                                                                                                                                                                                                                                                                                                            </g>
                            </svg>