<svg width='83' height='83' >
                                <g transform="translate(3, 70) scale(0.07, -0.07)">
                                    <!-- 先将完整的字以灰色字体绘制完成，层级位于下面 -->
                                                                        <path d="M 251 555 Q 279 594 301 634 Q 328 685 353 727 Q 363 742 347 757 Q 293 793 268 786 Q 255 782 259 766 Q 281 661 170 519 Q 161 515 124 462 Q 117 444 133 450 Q 166 457 234 533 L 251 555 Z" style="fill: #0070C0;"></path>
                                                                        <path d="M 330 526 Q 333 527 338 529 Q 468 566 474 571 Q 481 580 476 588 Q 469 600 438 604 Q 407 608 377 593 Q 349 581 319 571 Q 288 562 251 555 C 222 549 207 545 234 533 Q 235 533 238 531 Q 253 525 281 520 L 330 526 Z" style="fill: #0070C0;"></path>
                                                                        <path d="M 345 362 Q 415 378 504 390 Q 520 391 522 400 Q 523 413 504 423 Q 471 438 353 405 L 296 393 Q 164 366 73 356 Q 60 355 57 346 Q 54 336 69 324 Q 109 296 153 309 Q 232 336 291 350 L 345 362 Z" style="fill: #0070C0;"></path>
                                                                        <path d="M 291 350 Q 264 158 117 64 Q 102 51 87 40 Q 74 30 87 28 Q 100 28 135 43 Q 187 68 227 108 Q 320 195 343 342 Q 343 355 345 362 L 353 405 Q 363 462 373 480 Q 382 499 365 507 Q 346 520 332 525 Q 331 526 330 526 C 303 539 274 549 281 520 Q 296 454 298 435 Q 297 428 297 417 Q 297 407 296 393 L 291 350 Z" style="fill: #0070C0;"></path>
                                                                        <path d="M 373 212 Q 395 184 418 152 Q 428 137 444 135 Q 454 134 461 145 Q 468 158 465 188 Q 464 207 436 227 Q 370 266 356 263 Q 352 260 350 248 Q 351 236 373 212 Z" style="fill: #0070C0;"></path>
                                                                        <path d="M 601 638 Q 631 629 671 639 Q 864 675 875 683 Q 884 690 879 700 Q 872 712 842 720 Q 811 726 780 714 Q 738 701 692 689 Q 643 679 585 674 C 555 671 572 645 601 638 Z" style="fill: #0070C0;"></path>
                                                                        <path d="M 803 344 Q 836 425 868 442 Q 886 460 872 478 Q 857 491 807 519 Q 789 528 768 520 Q 705 496 596 481 C 566 477 565 447 595 450 Q 602 450 755 472 Q 771 475 777 468 Q 784 459 782 443 Q 769 392 753 351 C 742 323 791 316 803 344 Z" style="fill: #0070C0;"></path>
                                                                        <path d="M 592 290 Q 599 289 611 290 Q 675 303 815 310 Q 825 311 827 319 Q 827 328 803 344 L 753 351 Q 752 351 751 351 Q 663 332 593 324 C 563 320 562 292 592 290 Z" style="fill: #0070C0;"></path>
                                                                        <path d="M 596 481 Q 596 607 601 638 C 603 663 603 663 585 674 Q 575 681 554 692 Q 533 702 525 696 Q 518 689 525 673 Q 568 592 537 207 Q 528 137 507 106 Q 497 90 506 69 Q 513 47 524 38 Q 534 31 552 42 Q 643 100 919 93 Q 944 92 946 103 Q 946 119 917 140 Q 902 153 868 148 Q 796 139 739 135 Q 681 134 611 124 Q 601 121 596 126 Q 589 127 589 143 Q 590 213 592 290 L 593 324 Q 594 385 595 450 L 596 481 Z" style="fill: #0070C0;"></path>
                                    
                                    
                                                                                                                                                                                                                                                                                                                                                                                                                                                                                                                                                                                                                                                                                                                                                                                        </g>
                            </svg>