<svg width='83' height='83' >
                                <g transform="translate(3, 70) scale(0.07, -0.07)">
                                    <!-- 先将完整的字以灰色字体绘制完成，层级位于下面 -->
                                                                        <path d="M 323 625 Q 449 661 452 663 Q 461 672 456 680 Q 449 692 418 698 Q 390 702 300 669 Q 225 648 160 638 Q 123 631 151 615 Q 194 593 267 612 Q 268 612 270 612 L 323 625 Z" style="fill: #0070C0;"></path>
                                                                        <path d="M 248 387 Q 285 450 335 563 Q 350 599 351 601 Q 345 619 323 625 C 296 637 266 642 270 612 Q 286 540 205 397 L 182 359 Q 178 355 174 347 Q 140 296 52 195 Q 45 189 55 188 Q 104 206 197 312 L 248 387 Z" style="fill: #0070C0;"></path>
                                                                        <path d="M 205 397 Q 199 400 189 401 Q 176 405 173 399 Q 166 393 175 377 Q 178 370 182 359 L 197 312 Q 210 264 219 199 Q 222 166 240 144 Q 258 122 263 137 Q 272 159 265 201 L 260 234 Q 247 325 243 357 L 205 397 Z" style="fill: #0070C0;"></path>
                                                                        <path d="M 404 255 Q 423 336 446 361 Q 468 388 446 402 Q 427 412 399 431 Q 380 441 361 430 Q 328 409 248 387 C 214 378 214 348 243 357 Q 249 360 334 380 Q 362 387 368 376 Q 377 367 350 256 C 343 227 397 226 404 255 Z" style="fill: #0070C0;"></path>
                                                                        <path d="M 265 201 Q 313 211 417 223 Q 427 224 428 233 Q 428 240 404 255 C 387 266 379 264 350 256 Q 301 243 260 234 C 231 228 236 195 265 201 Z" style="fill: #0070C0;"></path>
                                                                        <path d="M 568 653 Q 523 675 509 671 Q 490 667 506 647 Q 548 578 520 367 Q 510 322 491 270 Q 464 201 386 122 Q 373 109 370 103 Q 369 96 380 97 Q 417 100 483 173 Q 565 275 579 482 Q 582 611 584 619 C 586 645 586 645 568 653 Z" style="fill: #0070C0;"></path>
                                                                        <path d="M 962 124 Q 981 134 973 155 Q 955 206 946 278 Q 942 318 933 324 Q 924 328 921 316 Q 899 190 860 156 Q 850 149 824 146 Q 790 143 772 148 Q 753 152 744 163 Q 711 203 740 476 Q 746 531 756 575 Q 763 615 798 647 Q 811 665 795 679 Q 771 697 720 713 Q 699 717 680 705 Q 634 669 568 653 C 539 645 555 612 584 619 Q 602 619 662 645 Q 675 649 683 645 Q 689 642 689 628 Q 671 196 693 152 Q 694 149 697 144 Q 719 102 796 91 Q 883 82 962 124 Z" style="fill: #0070C0;"></path>
                                    
                                    
                                                                                                                                                                                                                                                                                                                                                                                                                                                                                                                                                                                                                                </g>
                            </svg>