<svg width='83' height='83' >
                                <g transform="translate(3, 70) scale(0.07, -0.07)">
                                    <!-- 先将完整的字以灰色字体绘制完成，层级位于下面 -->
                                                                        <path d="M 259 618 Q 415 666 417 667 Q 426 676 420 684 Q 413 696 382 701 Q 357 704 268 670 Q 195 649 155 643 Q 118 634 146 619 Q 179 604 217 607 L 259 618 Z" style="fill: #0070C0;"></path>
                                                                        <path d="M 234 416 Q 259 471 292 550 Q 305 589 306 590 Q 294 614 259 618 C 230 624 208 628 217 607 Q 226 598 225 559 Q 216 496 195 444 Q 191 432 185 419 L 169 384 Q 126 303 31 179 Q 24 173 35 172 Q 95 193 183 322 Q 183 325 186 327 L 234 416 Z" style="fill: #0070C0;"></path>
                                                                        <path d="M 185 419 Q 182 420 178 421 Q 166 425 163 420 Q 156 414 164 399 Q 165 392 169 384 L 186 327 Q 196 284 203 229 Q 204 198 221 176 Q 237 154 243 169 Q 250 187 247 218 L 243 254 Q 230 357 228 384 L 185 419 Z" style="fill: #0070C0;"></path>
                                                                        <path d="M 377 286 Q 392 367 414 393 Q 436 420 412 433 Q 393 443 365 459 Q 344 471 305 442 Q 298 439 234 416 C 196 402 200 374 228 384 Q 252 393 310 406 Q 332 412 337 403 Q 346 397 339 360 Q 333 326 326 283 C 321 253 371 257 377 286 Z" style="fill: #0070C0;"></path>
                                                                        <path d="M 247 218 Q 296 234 396 252 Q 406 255 406 264 Q 406 271 377 286 C 360 295 354 293 326 283 Q 280 267 243 254 C 215 244 218 209 247 218 Z" style="fill: #0070C0;"></path>
                                                                        <path d="M 711 408 Q 735 444 754 613 Q 766 668 801 703 Q 819 722 801 736 Q 780 752 726 775 Q 708 784 654 764 Q 636 764 556 738 Q 513 725 486 720 Q 468 719 466 713 Q 462 707 481 697 Q 517 681 539 689 Q 579 705 674 723 Q 690 726 698 723 Q 714 714 709 666 Q 688 482 675 445 Q 666 418 680 403 C 693 376 698 381 711 408 Z" style="fill: #0070C0;"></path>
                                                                        <path d="M 680 403 Q 640 399 581 384 Q 556 380 555 401 Q 564 566 575 593 Q 582 609 574 622 Q 556 641 529 652 Q 510 659 501 650 Q 494 646 503 633 Q 515 606 508 470 Q 508 416 495 371 Q 489 349 505 334 Q 526 316 547 332 Q 598 368 756 379 Q 789 380 802 367 Q 815 354 799 310 Q 792 243 781 173 Q 774 119 750 84 Q 741 71 715 71 Q 678 80 646 86 Q 630 90 631 83 Q 631 77 640 69 Q 701 17 725 -19 Q 735 -40 753 -29 Q 817 5 829 79 Q 848 176 860 282 Q 867 321 887 354 Q 900 370 888 384 Q 870 406 831 428 Q 809 441 779 427 Q 746 414 714 409 Q 713 409 711 408 L 680 403 Z" style="fill: #0070C0;"></path>
                                                                        <path d="M 567 196 Q 673 217 745 213 Q 764 213 769 221 Q 775 233 763 241 Q 736 260 698 273 Q 686 277 666 268 Q 431 211 356 203 Q 344 202 345 192 Q 345 182 362 172 Q 377 163 404 156 Q 413 155 427 162 Q 451 177 567 196 Z" style="fill: #0070C0;"></path>
                                    
                                    
                                                                                                                                                                                                                                                                                                                                                                                                                                                                                                                                                                                                                                                                                                            </g>
                            </svg>