<svg width='83' height='83' >
                                <g transform="translate(3, 70) scale(0.07, -0.07)">
                                    <!-- 先将完整的字以灰色字体绘制完成，层级位于下面 -->
                                                                        <path d="M 314 638 Q 378 656 450 673 Q 490 685 496 691 Q 505 700 500 708 Q 491 720 462 726 Q 435 729 338 693 Q 245 669 184 659 Q 147 650 174 635 Q 210 617 261 624 L 314 638 Z" style="fill: #0070C0;"></path>
                                                                        <path d="M 259 427 Q 289 487 327 574 Q 343 613 344 613 Q 341 622 328 631 Q 321 635 314 638 C 287 652 257 654 261 624 Q 276 561 213 430 L 194 394 Q 146 313 35 183 Q 28 177 39 176 Q 93 191 206 336 L 259 427 Z" style="fill: #0070C0;"></path>
                                                                        <path d="M 213 430 Q 209 431 202 433 Q 190 437 187 432 Q 180 426 188 411 Q 191 404 194 394 L 210 342 Q 220 299 227 244 Q 228 213 245 192 Q 261 170 267 185 Q 274 204 270 242 L 265 276 Q 253 370 252 396 L 213 430 Z" style="fill: #0070C0;"></path>
                                                                        <path d="M 252 396 Q 258 396 342 421 Q 364 427 370 418 Q 377 412 372 377 Q 366 346 360 309 C 355 279 403 279 409 308 Q 424 384 446 409 Q 467 436 444 448 Q 425 458 397 474 Q 379 483 337 457 Q 310 442 259 427 C 221 415 223 390 252 396 Z" style="fill: #0070C0;"></path>
                                                                        <path d="M 270 242 Q 277 242 288 245 Q 330 260 424 276 Q 434 279 434 288 Q 434 295 409 308 L 360 309 Q 356 309 354 307 Q 305 288 265 276 C 236 267 240 240 270 242 Z" style="fill: #0070C0;"></path>
                                                                        <path d="M 626 755 Q 651 716 652 653 Q 659 460 647 406 Q 646 390 664 351 Q 674 335 690 344 Q 700 353 701 423 Q 689 561 710 670 Q 713 692 727 718 Q 734 728 721 743 Q 663 788 634 776 Q 619 770 626 755 Z" style="fill: #0070C0;"></path>
                                                                        <path d="M 540 554 Q 522 502 495 456 Q 479 425 496 392 Q 505 376 524 388 Q 570 428 568 500 Q 571 531 563 555 Q 559 562 552 564 Q 545 563 540 554 Z" style="fill: #0070C0;"></path>
                                                                        <path d="M 805 589 Q 859 556 925 505 Q 944 489 959 488 Q 966 488 973 499 Q 982 514 962 552 Q 947 588 873 604 Q 827 614 801 618 Q 791 622 791 610 Q 792 597 805 589 Z" style="fill: #0070C0;"></path>
                                                                        <path d="M 780 471 Q 771 291 578 129 Q 446 32 358 -21 Q 349 -28 356 -32 Q 363 -36 376 -33 Q 572 24 687 162 Q 748 229 813 349 Q 834 383 859 417 Q 869 427 864 439 Q 860 451 829 474 Q 807 490 796 490 Q 780 487 780 471 Z" style="fill: #0070C0;"></path>
                                    
                                    
                                                                                                                                                                                                                                                                                                                                                                                                                                                                                                                                                                                                                                                                                                                                                                                        </g>
                            </svg>