<svg width='83' height='83' >
                                <g transform="translate(3, 70) scale(0.07, -0.07)">
                                    <!-- 先将完整的字以灰色字体绘制完成，层级位于下面 -->
                                                                        <path d="M 282 607 Q 483 658 488 663 Q 497 672 492 680 Q 483 692 454 698 Q 424 702 336 670 Q 255 646 176 634 Q 139 627 167 611 Q 195 596 243 598 L 282 607 Z" style="fill: #0070C0;"></path>
                                                                        <path d="M 252 405 Q 279 460 312 538 Q 327 575 328 578 Q 325 587 312 595 Q 299 604 282 607 C 253 615 237 620 243 598 Q 243 597 245 593 Q 260 545 207 411 L 192 379 Q 135 280 31 155 Q 24 149 35 148 Q 90 164 191 298 Q 198 313 209 326 L 252 405 Z" style="fill: #0070C0;"></path>
                                                                        <path d="M 207 411 Q 204 412 202 413 Q 190 417 187 412 Q 180 406 188 390 Q 189 386 192 379 L 209 326 Q 222 280 230 220 Q 231 189 249 167 Q 265 146 271 161 Q 278 180 273 218 L 268 252 Q 255 346 252 374 L 207 411 Z" style="fill: #0070C0;"></path>
                                                                        <path d="M 415 281 Q 430 356 452 379 Q 474 406 450 420 Q 384 453 383 453 Q 373 453 362 447 Q 331 425 252 405 C 219 396 222 369 252 374 Q 261 375 274 378 Q 311 388 344 394 Q 366 398 370 390 Q 377 386 372 352 Q 368 319 360 281 C 354 252 409 252 415 281 Z" style="fill: #0070C0;"></path>
                                                                        <path d="M 273 218 Q 348 236 430 249 Q 440 250 441 260 Q 441 267 415 281 C 394 293 388 291 360 281 Q 308 263 268 252 C 239 244 244 211 273 218 Z" style="fill: #0070C0;"></path>
                                                                        <path d="M 565 560 Q 566 563 568 565 Q 602 617 636 696 Q 649 732 664 751 Q 671 763 665 776 Q 658 788 626 806 Q 596 819 577 816 Q 558 812 571 791 Q 595 754 540 614 Q 513 550 474 476 Q 465 464 464 458 Q 463 446 476 451 Q 498 460 552 540 L 565 560 Z" style="fill: #0070C0;"></path>
                                                                        <path d="M 552 540 Q 574 518 610 528 Q 721 574 750 567 Q 769 554 763 543 Q 763 537 722 453 Q 716 443 721 437 Q 725 433 736 444 Q 830 526 875 548 Q 885 551 885 560 Q 886 573 856 588 Q 834 601 810 614 Q 782 629 768 621 Q 692 587 565 560 C 536 554 535 553 552 540 Z" style="fill: #0070C0;"></path>
                                                                        <path d="M 618 302 Q 637 368 654 393 Q 664 409 650 421 Q 605 461 579 455 Q 566 451 570 436 Q 594 373 540 239 Q 486 125 382 71 Q 366 61 349 52 Q 336 45 348 40 Q 405 34 484 93 Q 574 156 609 271 L 618 302 Z" style="fill: #0070C0;"></path>
                                                                        <path d="M 609 271 Q 682 159 776 37 Q 794 16 825 16 Q 931 17 965 22 Q 975 23 976 29 Q 977 33 963 42 Q 807 111 730 188 Q 676 239 618 302 C 598 324 593 296 609 271 Z" style="fill: #0070C0;"></path>
                                    
                                    
                                                                                                                                                                                                                                                                                                                                                                                                                                                                                                                                                                                                                                                                                                                                                                                        </g>
                            </svg>