<svg width='83' height='83' >
                                <g transform="translate(3, 70) scale(0.07, -0.07)">
                                    <!-- 先将完整的字以灰色字体绘制完成，层级位于下面 -->
                                                                        <path d="M 287 625 Q 434 665 441 671 Q 448 680 444 688 Q 437 700 406 705 Q 376 709 277 671 Q 219 653 152 643 Q 115 634 142 619 Q 184 595 244 614 L 287 625 Z" style="fill: #0070C0;"></path>
                                                                        <path d="M 248 415 Q 276 473 313 559 Q 328 595 328 598 Q 325 607 312 615 Q 300 622 287 625 C 259 635 236 642 244 614 Q 251 596 250 567 Q 244 527 205 423 L 180 373 Q 125 285 35 175 Q 28 169 39 168 Q 102 190 193 318 L 248 415 Z" style="fill: #0070C0;"></path>
                                                                        <path d="M 205 423 Q 196 426 183 429 Q 173 433 169 428 Q 163 424 169 408 Q 175 392 180 373 L 193 318 Q 202 273 207 216 Q 208 180 226 155 Q 241 134 246 148 Q 256 173 250 221 L 246 256 Q 234 343 231 382 C 228 412 228 416 205 423 Z" style="fill: #0070C0;"></path>
                                                                        <path d="M 391 279 Q 409 361 433 388 Q 455 413 432 427 Q 413 437 386 455 Q 365 465 324 440 Q 276 424 248 415 C 219 406 200 383 230 383 L 231 382 Q 238 383 248 386 Q 290 396 326 405 Q 351 409 356 401 Q 365 394 356 355 Q 350 324 342 286 C 336 257 384 250 391 279 Z" style="fill: #0070C0;"></path>
                                                                        <path d="M 250 221 Q 257 230 402 249 Q 412 250 413 260 Q 413 267 391 279 L 342 286 Q 338 286 334 284 Q 286 268 246 256 C 217 247 224 206 250 221 Z" style="fill: #0070C0;"></path>
                                                                        <path d="M 662 681 Q 716 715 773 732 Q 789 733 793 742 Q 794 752 783 762 Q 726 796 690 792 Q 683 788 684 777 Q 685 744 523 644 C 498 628 510 621 538 631 Q 563 640 600 655 Q 610 659 622 663 L 662 681 Z" style="fill: #0070C0;"></path>
                                                                        <path d="M 523 644 Q 510 654 475 662 Q 459 665 453 659 Q 446 652 458 635 Q 489 593 493 449 Q 493 257 438 186 Q 435 183 434 180 Q 424 168 432 147 Q 442 119 456 106 Q 469 97 482 113 Q 518 167 632 281 Q 648 293 648 302 Q 649 308 643 307 Q 636 306 545 245 Q 538 241 534 244 Q 527 247 528 265 Q 535 580 540 613 Q 541 623 538 631 C 538 637 538 637 523 644 Z" style="fill: #0070C0;"></path>
                                                                        <path d="M 715 453 Q 877 511 882 517 Q 889 526 884 533 Q 877 543 847 547 Q 817 548 790 534 Q 748 513 703 495 L 662 480 Q 620 468 576 457 Q 542 447 569 434 Q 606 419 673 439 L 715 453 Z" style="fill: #0070C0;"></path>
                                                                        <path d="M 673 439 Q 790 120 958 77 Q 959 77 963 76 Q 991 77 987 112 Q 977 143 972 286 Q 972 299 966 301 Q 960 301 957 288 Q 947 257 936 226 Q 923 186 909 186 Q 890 187 852 225 Q 812 262 777 321 Q 750 366 715 453 L 703 495 Q 682 579 703 632 Q 712 656 666 680 Q 663 681 662 681 C 636 695 609 690 622 663 Q 637 638 641 600 Q 648 536 662 480 L 673 439 Z" style="fill: #0070C0;"></path>
                                                                        <path d="M 622 165 Q 653 143 693 109 Q 708 96 721 93 Q 728 93 732 102 Q 741 115 725 147 Q 713 177 664 185 Q 634 189 619 189 Q 612 192 611 182 Q 612 172 622 165 Z" style="fill: #0070C0;"></path>
                                    
                                    
                                                                                                                                                                                                                                                                                                                                                                                                                                                                                                                                                                                                                                                                                                                                                                                                                                                                    </g>
                            </svg>