<svg width='83' height='83' >
                                <g transform="translate(3, 70) scale(0.07, -0.07)">
                                    <!-- 先将完整的字以灰色字体绘制完成，层级位于下面 -->
                                                                        <path d="M 257 657 Q 419 700 424 705 Q 433 712 428 721 Q 421 731 392 738 Q 362 742 334 729 Q 294 713 251 701 Q 203 688 147 680 Q 113 673 138 658 Q 174 643 216 647 L 257 657 Z" style="fill: #0070C0;"></path>
                                                                        <path d="M 231 480 Q 253 529 282 597 Q 294 630 295 632 Q 283 653 257 657 C 228 665 211 670 216 647 Q 234 593 187 481 Q 186 480 185 476 L 164 432 Q 100 332 43 258 Q 37 252 46 252 Q 103 273 178 383 L 214 444 Q 215 445 215 448 L 231 480 Z" style="fill: #0070C0;"></path>
                                                                        <path d="M 185 476 Q 178 479 167 481 Q 157 484 153 479 Q 147 475 154 460 Q 158 448 164 432 L 178 383 Q 185 346 192 300 Q 193 272 210 251 Q 225 230 230 245 Q 237 263 234 294 L 229 327 Q 216 415 214 444 C 212 467 212 467 185 476 Z" style="fill: #0070C0;"></path>
                                                                        <path d="M 363 353 Q 378 434 400 459 Q 419 484 398 496 Q 379 506 353 521 Q 338 530 289 501 Q 250 486 231 480 C 203 471 187 438 215 448 Q 248 460 300 471 Q 322 478 327 469 Q 334 462 316 354 C 311 324 357 324 363 353 Z" style="fill: #0070C0;"></path>
                                                                        <path d="M 234 294 Q 241 294 252 296 Q 292 308 379 321 Q 389 322 390 332 Q 390 339 363 353 L 316 354 Q 313 355 310 353 Q 265 337 229 327 C 200 319 204 293 234 294 Z" style="fill: #0070C0;"></path>
                                                                        <path d="M 466 599 Q 448 609 428 614 Q 421 617 416 611 Q 409 605 418 594 Q 457 534 468 380 Q 474 308 511 291 Q 527 287 528 315 L 527 342 Q 526 363 518 385 Q 502 503 498 563 Q 498 566 497 568 C 495 584 493 585 466 599 Z" style="fill: #0070C0;"></path>
                                                                        <path d="M 767 340 Q 788 312 805 305 Q 817 298 831 320 Q 847 354 874 531 Q 881 564 905 591 Q 918 604 906 618 Q 890 634 844 661 Q 825 670 736 648 Q 721 648 674 637 L 623 628 Q 604 627 583 621 Q 519 608 466 599 C 436 594 468 560 497 568 Q 548 583 623 594 L 673 603 Q 787 627 805 608 Q 821 589 820 570 Q 796 387 780 370 C 768 343 767 340 767 340 Z" style="fill: #0070C0;"></path>
                                                                        <path d="M 672 465 Q 711 472 746 476 Q 770 480 761 492 Q 751 507 725 512 Q 704 515 672 507 L 623 493 Q 583 483 547 473 Q 531 469 551 454 Q 557 450 623 458 L 672 465 Z" style="fill: #0070C0;"></path>
                                                                        <path d="M 672 330 Q 721 337 767 340 C 797 342 806 355 780 370 Q 759 386 685 372 Q 678 371 672 368 L 622 359 Q 571 350 527 342 C 497 337 498 312 528 315 L 621 323 L 672 330 Z" style="fill: #0070C0;"></path>
                                                                        <path d="M 621 323 Q 615 -5 629 -36 Q 630 -37 632 -41 Q 647 -56 655 -35 Q 673 7 672 330 L 672 368 Q 672 420 672 465 L 672 507 Q 672 559 673 603 L 674 637 Q 677 758 699 795 Q 706 810 686 825 Q 662 844 620 855 Q 602 859 590 846 Q 580 839 592 827 Q 622 800 624 764 Q 624 710 623 628 L 623 594 Q 623 548 623 493 L 623 458 Q 623 410 622 359 L 621 323 Z" style="fill: #0070C0;"></path>
                                    
                                    
                                                                                                                                                                                                                                                                                                                                                                                                                                                                                                                                                                                                                                                                                                                                                                                                                                                                    </g>
                            </svg>