<svg width='83' height='83' >
                                <g transform="translate(3, 70) scale(0.07, -0.07)">
                                    <!-- 先将完整的字以灰色字体绘制完成，层级位于下面 -->
                                                                        <path d="M 287 618 Q 434 663 437 665 Q 444 672 440 681 Q 433 691 403 697 Q 375 701 346 687 Q 309 671 267 659 Q 221 646 167 637 Q 131 628 158 614 Q 198 596 249 608 L 287 618 Z" style="fill: #0070C0;"></path>
                                                                        <path d="M 255 423 Q 331 588 331 590 Q 328 599 315 608 Q 302 615 287 618 C 258 626 243 631 249 608 Q 270 554 219 445 Q 213 433 208 421 L 188 381 Q 146 309 39 183 Q 33 177 43 176 Q 110 200 202 330 L 255 423 Z" style="fill: #0070C0;"></path>
                                                                        <path d="M 208 421 Q 201 424 194 425 Q 182 429 179 424 Q 172 420 180 403 Q 184 393 188 381 L 202 330 Q 212 284 219 224 Q 220 190 237 168 Q 253 146 259 161 Q 269 183 262 233 Q 261 234 262 234 L 257 267 Q 244 370 244 392 L 208 421 Z" style="fill: #0070C0;"></path>
                                                                        <path d="M 394 294 Q 407 378 429 404 Q 448 429 427 442 Q 408 451 382 466 Q 361 475 324 449 Q 270 428 255 423 C 213 408 215 383 244 392 Q 280 404 328 415 Q 350 422 355 413 Q 364 407 358 371 Q 354 337 347 295 C 342 265 389 264 394 294 Z" style="fill: #0070C0;"></path>
                                                                        <path d="M 262 234 Q 269 234 280 236 Q 320 248 410 261 Q 420 262 421 272 Q 421 279 394 294 L 347 295 Q 344 295 343 294 Q 295 278 257 267 C 228 259 232 233 262 234 Z" style="fill: #0070C0;"></path>
                                                                        <path d="M 665 525 Q 677 679 692 769 Q 696 779 677 794 Q 643 812 621 815 Q 605 819 598 810 Q 591 803 599 789 Q 615 765 617 749 Q 626 640 625 514 C 625 484 663 495 665 525 Z" style="fill: #0070C0;"></path>
                                                                        <path d="M 484 648 Q 523 588 547 576 Q 559 572 568 581 Q 575 591 574 605 Q 571 641 519 667 Q 486 685 478 682 Q 472 682 473 672 Q 473 662 484 648 Z" style="fill: #0070C0;"></path>
                                                                        <path d="M 800 731 Q 785 704 718 622 Q 708 606 726 609 Q 738 616 842 688 Q 860 704 883 715 Q 904 725 893 742 Q 880 758 854 772 Q 830 785 818 782 Q 805 781 810 767 Q 814 749 800 731 Z" style="fill: #0070C0;"></path>
                                                                        <path d="M 545 248 Q 548 297 552 336 L 554 362 Q 560 443 565 468 Q 565 471 565 472 L 553 503 Q 552 506 548 507 Q 520 523 502 523 Q 489 519 493 507 Q 539 398 484 156 Q 457 90 457 86 Q 453 68 468 37 Q 469 33 475 26 Q 482 13 492 18 Q 525 36 540 168 Q 540 180 543 222 L 545 248 Z" style="fill: #0070C0;"></path>
                                                                        <path d="M 565 472 Q 587 475 713 505 Q 734 509 740 498 Q 749 477 761 266 Q 764 86 752 67 Q 749 64 664 72 Q 642 76 645 67 Q 712 21 749 -12 Q 764 -31 781 -36 Q 791 -39 799 -28 Q 841 30 834 83 Q 795 435 821 488 Q 834 509 821 520 Q 797 539 759 554 Q 740 561 723 553 Q 689 535 665 525 L 625 514 Q 595 510 553 503 C 523 498 536 466 565 472 Z" style="fill: #0070C0;"></path>
                                                                        <path d="M 552 336 Q 556 335 563 336 Q 642 352 700 361 Q 722 365 713 377 Q 703 390 679 394 Q 646 397 554 362 C 526 351 522 339 552 336 Z" style="fill: #0070C0;"></path>
                                                                        <path d="M 543 222 Q 549 221 557 222 Q 645 235 710 241 Q 732 245 725 257 Q 715 270 691 276 Q 667 280 545 248 C 516 240 513 224 543 222 Z" style="fill: #0070C0;"></path>
                                    
                                    
                                                                                                                                                                                                                                                                                                                                                                                                                                                                                                                                                                                                                                                                                                                                                                                                                                                                                                                                                                                                                            </g>
                            </svg>