<svg width='83' height='83' >
                                <g transform="translate(3, 70) scale(0.07, -0.07)">
                                    <!-- 先将完整的字以灰色字体绘制完成，层级位于下面 -->
                                                                        <path d="M 261 636 Q 313 654 369 670 Q 397 680 402 684 Q 412 694 405 703 Q 395 716 362 720 Q 328 723 295 706 Q 264 693 228 680 Q 189 668 143 659 Q 103 649 134 632 Q 176 617 220 624 L 261 636 Z" style="fill: #0070C0;"></path>
                                                                        <path d="M 223 410 Q 251 468 268 514 Q 284 562 297 585 Q 303 597 293 609 Q 277 628 261 636 C 236 653 213 653 220 624 Q 229 594 227 569 Q 226 568 226 564 Q 214 494 180 414 L 153 358 Q 146 349 142 337 Q 94 249 27 159 Q 23 153 23 147 Q 23 143 29 144 Q 68 151 165 300 L 223 410 Z" style="fill: #0070C0;"></path>
                                                                        <path d="M 180 414 Q 170 418 155 422 Q 145 425 141 421 Q 134 417 141 401 Q 148 382 153 358 L 165 300 Q 169 266 174 223 Q 174 190 190 167 Q 205 146 210 160 Q 217 179 216 214 L 213 248 Q 201 359 206 375 C 210 403 208 404 180 414 Z" style="fill: #0070C0;"></path>
                                                                        <path d="M 360 284 Q 375 359 396 383 Q 418 411 394 424 Q 328 457 321 455 Q 312 455 305 449 Q 283 431 223 410 C 195 400 175 375 205 376 L 206 375 Q 225 378 293 396 Q 312 400 316 393 Q 323 386 305 277 C 300 247 354 255 360 284 Z" style="fill: #0070C0;"></path>
                                                                        <path d="M 216 214 Q 225 213 236 217 Q 282 230 383 249 Q 393 250 394 260 Q 394 267 361 284 L 360 284 L 305 277 Q 253 259 213 248 C 184 240 186 215 216 214 Z" style="fill: #0070C0;"></path>
                                                                        <path d="M 586 794 Q 631 751 671 735 Q 687 734 695 748 Q 699 761 695 779 Q 679 819 618 830 Q 575 836 568 832 Q 562 831 566 818 Q 569 806 586 794 Z" style="fill: #0070C0;"></path>
                                                                        <path d="M 501 627 Q 501 646 475 665 Q 457 677 457 653 Q 463 623 426 562 Q 392 516 423 467 Q 439 445 455 470 Q 455 473 495 596 L 501 627 Z" style="fill: #0070C0;"></path>
                                                                        <path d="M 495 596 Q 516 587 558 600 Q 642 639 786 665 Q 795 666 801 666 Q 817 665 817 658 Q 817 652 758 564 Q 751 554 757 549 Q 763 545 778 554 Q 839 599 890 614 Q 932 629 931 638 Q 930 648 863 697 Q 838 716 768 694 Q 735 690 501 627 C 472 619 466 602 495 596 Z" style="fill: #0070C0;"></path>
                                                                        <path d="M 644 449 Q 780 483 784 486 Q 791 493 787 501 Q 780 511 753 518 Q 726 522 699 511 Q 618 481 515 466 Q 482 460 506 445 Q 548 424 596 438 Q 597 439 600 439 L 644 449 Z" style="fill: #0070C0;"></path>
                                                                        <path d="M 663 162 Q 666 240 669 305 L 670 338 Q 670 368 673 398 Q 682 422 644 449 C 620 467 587 466 600 439 Q 612 424 615 331 Q 615 280 618 189 C 619 159 662 132 663 162 Z" style="fill: #0070C0;"></path>
                                                                        <path d="M 669 305 Q 669 306 670 306 Q 743 322 796 333 Q 820 340 810 352 Q 797 367 770 369 Q 731 372 670 338 C 644 324 641 294 669 305 Z" style="fill: #0070C0;"></path>
                                                                        <path d="M 518 263 Q 555 324 556 326 Q 555 336 542 346 Q 515 370 481 366 Q 474 363 475 352 Q 491 304 402 176 Q 356 127 309 75 Q 302 71 311 68 Q 369 80 454 174 Q 455 178 459 180 Q 477 202 501 237 L 518 263 Z" style="fill: #0070C0;"></path>
                                                                        <path d="M 501 237 Q 588 150 800 22 Q 825 13 948 42 Q 979 51 988 62 Q 994 74 974 74 Q 910 84 869 86 Q 770 92 667 159 Q 664 160 663 162 L 618 189 Q 569 223 518 263 C 494 281 479 258 501 237 Z" style="fill: #0070C0;"></path>
                                    
                                    
                                                                                                                                                                                                                                                                                                                                                                                                                                                                                                                                                                                                                                                                                                                                                                                                                                                                                                                                                                                                                                                                                                        </g>
                            </svg>