<svg width='83' height='83' >
                                <g transform="translate(3, 70) scale(0.07, -0.07)">
                                    <!-- 先将完整的字以灰色字体绘制完成，层级位于下面 -->
                                                                        <path d="M 312 638 Q 439 674 444 677 Q 453 684 448 693 Q 441 703 412 710 Q 382 714 354 701 Q 314 685 271 673 Q 223 660 167 652 Q 133 645 158 630 Q 200 612 252 623 L 312 638 Z" style="fill: #0070C0;"></path>
                                                                        <path d="M 255 448 Q 280 505 313 586 Q 319 602 324 610 Q 330 616 327 624 Q 323 633 312 638 C 288 656 248 653 252 623 Q 264 569 223 473 Q 217 460 212 447 L 188 397 Q 176 379 166 360 Q 135 308 51 202 Q 45 196 54 196 Q 99 209 197 340 Q 197 343 200 345 L 238 411 Q 239 414 240 416 L 255 448 Z" style="fill: #0070C0;"></path>
                                                                        <path d="M 212 447 Q 205 450 191 453 Q 181 457 177 452 Q 171 448 177 433 Q 183 417 188 397 L 200 345 Q 207 305 213 255 Q 213 222 230 199 Q 245 178 250 192 Q 259 213 255 254 L 251 285 Q 239 379 238 411 C 237 438 237 438 212 447 Z" style="fill: #0070C0;"></path>
                                                                        <path d="M 382 307 Q 400 389 423 414 Q 445 439 423 454 Q 360 487 357 487 Q 347 487 339 482 Q 317 467 255 448 C 226 439 211 408 240 416 Q 282 428 317 435 Q 339 439 346 431 Q 352 425 329 308 C 323 279 375 278 382 307 Z" style="fill: #0070C0;"></path>
                                                                        <path d="M 255 254 Q 261 261 391 281 Q 401 282 401 290 Q 401 297 382 307 C 362 318 358 317 329 308 Q 286 295 251 285 C 222 277 228 240 255 254 Z" style="fill: #0070C0;"></path>
                                                                        <path d="M 679 713 Q 815 743 818 744 Q 825 751 822 758 Q 816 768 792 775 Q 767 781 740 772 Q 712 763 682 755 L 627 741 Q 572 732 508 728 Q 477 724 499 708 Q 532 690 603 700 Q 615 703 629 704 L 679 713 Z" style="fill: #0070C0;"></path>
                                                                        <path d="M 671 607 Q 783 629 791 636 Q 798 643 795 650 Q 788 660 763 666 Q 741 672 674 649 L 630 638 Q 582 628 532 624 Q 501 620 523 604 Q 560 583 628 599 L 630 599 L 671 607 Z" style="fill: #0070C0;"></path>
                                                                        <path d="M 667 538 Q 668 574 671 607 L 674 649 Q 675 682 679 713 L 682 755 Q 682 771 694 809 Q 697 819 679 831 Q 648 847 627 851 Q 614 854 606 847 Q 599 840 607 827 Q 625 802 625 785 Q 626 764 627 741 L 629 704 Q 630 673 630 638 L 630 599 Q 630 568 630 532 C 630 502 666 508 667 538 Z" style="fill: #0070C0;"></path>
                                                                        <path d="M 630 532 Q 539 522 435 507 Q 416 506 430 491 Q 442 479 457 474 Q 476 470 489 474 Q 651 519 931 519 L 933 519 Q 951 519 955 526 Q 959 536 945 548 Q 900 581 868 574 Q 798 558 673 539 Q 669 539 667 538 L 630 532 Z" style="fill: #0070C0;"></path>
                                                                        <path d="M 536 429 Q 530 435 514 442 Q 507 446 497 442 Q 491 438 496 428 Q 523 335 503 227 Q 494 218 502 175 Q 508 157 520 144 Q 529 134 537 144 Q 547 159 549 215 Q 550 381 552 392 Q 552 399 552 404 C 552 417 552 417 536 429 Z" style="fill: #0070C0;"></path>
                                                                        <path d="M 745 204 Q 738 182 752 161 Q 765 133 774 134 Q 787 135 803 167 Q 816 192 815 212 Q 794 369 824 413 Q 834 428 827 436 Q 802 458 758 477 Q 743 481 722 474 Q 635 434 536 429 C 506 427 522 399 552 404 Q 636 419 723 435 Q 730 435 736 431 Q 743 415 748 368 Q 752 232 745 204 Z" style="fill: #0070C0;"></path>
                                                                        <path d="M 619 302 Q 634 145 549 65 Q 546 64 544 61 Q 513 31 437 -10 Q 425 -14 422 -18 Q 418 -24 432 -26 Q 474 -30 563 25 Q 668 91 675 264 Q 678 312 687 333 Q 691 343 683 351 Q 665 367 631 380 Q 610 389 595 382 Q 576 375 591 358 Q 619 331 619 302 Z" style="fill: #0070C0;"></path>
                                                                        <path d="M 694 80 Q 746 38 811 -22 Q 827 -40 842 -43 Q 851 -44 857 -33 Q 867 -20 852 20 Q 840 63 704 106 Q 698 107 693 109 Q 684 113 683 101 Q 683 88 694 80 Z" style="fill: #0070C0;"></path>
                                    
                                    
                                                                                                                                                                                                                                                                                                                                                                                                                                                                                                                                                                                                                                                                                                                                                                                                                                                                                                                                                                                                                                                                                                        </g>
                            </svg>