<svg width='83' height='83' >
                                <g transform="translate(3, 70) scale(0.07, -0.07)">
                                    <!-- 先将完整的字以灰色字体绘制完成，层级位于下面 -->
                                                                        <path d="M 309 602 Q 450 638 456 643 Q 465 652 460 660 Q 453 672 422 678 Q 391 682 361 670 Q 321 654 277 642 Q 229 629 172 622 Q 135 615 163 599 Q 199 581 252 588 L 309 602 Z" style="fill: #0070C0;"></path>
                                                                        <path d="M 247 405 Q 275 462 315 545 Q 330 579 330 582 Q 327 591 315 599 Q 312 602 309 602 C 284 618 249 618 252 588 Q 262 533 204 412 L 188 381 Q 134 294 40 187 Q 33 181 43 180 Q 101 198 198 325 Q 199 328 202 330 L 247 405 Z" style="fill: #0070C0;"></path>
                                                                        <path d="M 204 412 Q 201 413 198 414 Q 186 418 183 413 Q 176 407 184 392 Q 185 388 188 381 L 202 330 Q 211 290 217 236 Q 218 208 233 188 Q 249 166 255 181 Q 261 196 260 222 L 257 253 Q 247 353 247 377 L 204 412 Z" style="fill: #0070C0;"></path>
                                                                        <path d="M 396 279 Q 412 358 435 382 Q 456 407 434 420 Q 416 430 390 446 Q 372 456 330 431 Q 279 413 247 405 C 217 397 218 368 247 377 Q 247 378 249 378 Q 292 390 330 398 Q 355 404 362 394 Q 369 388 363 353 Q 357 320 349 282 C 343 253 390 250 396 279 Z" style="fill: #0070C0;"></path>
                                                                        <path d="M 260 222 Q 269 221 281 225 Q 320 237 407 251 Q 417 252 418 261 Q 417 268 396 279 L 349 282 Q 345 282 344 281 Q 295 263 257 253 C 228 245 230 223 260 222 Z" style="fill: #0070C0;"></path>
                                                                        <path d="M 532 726 Q 550 707 570 683 Q 580 670 594 670 Q 604 670 609 681 Q 613 693 609 719 Q 600 749 531 768 Q 518 772 512 771 Q 508 767 508 756 Q 509 746 532 726 Z" style="fill: #0070C0;"></path>
                                                                        <path d="M 727 788 Q 712 754 657 667 Q 648 648 666 654 Q 673 660 777 747 Q 795 766 818 781 Q 839 794 825 811 Q 809 827 780 839 Q 753 849 740 845 Q 727 842 733 828 Q 740 809 727 788 Z" style="fill: #0070C0;"></path>
                                                                        <path d="M 638 565 Q 804 601 811 606 Q 818 613 815 621 Q 808 631 782 639 Q 754 645 727 634 Q 679 618 628 605 Q 571 592 504 586 Q 471 580 495 565 Q 523 547 598 558 L 600 558 L 638 565 Z" style="fill: #0070C0;"></path>
                                                                        <path d="M 640 450 Q 716 466 781 474 Q 806 478 797 492 Q 787 508 759 512 Q 740 515 653 494 L 595 479 Q 547 469 504 458 Q 486 454 508 438 Q 521 428 549 434 Q 567 438 585 440 L 640 450 Z" style="fill: #0070C0;"></path>
                                                                        <path d="M 600 337 Q 687 355 872 375 Q 882 374 892 386 Q 893 398 871 408 Q 840 432 771 411 Q 647 386 616 379 L 562 370 Q 553 371 449 360 Q 421 357 442 340 Q 469 313 517 322 Q 530 325 547 327 L 600 337 Z" style="fill: #0070C0;"></path>
                                                                        <path d="M 547 327 Q 489 173 322 82 Q 306 75 302 69 Q 298 63 309 61 Q 345 51 431 105 Q 531 168 600 337 L 616 379 Q 626 413 640 450 L 653 494 Q 660 510 665 519 Q 675 535 659 549 Q 647 559 638 565 C 614 583 598 588 600 558 Q 604 536 595 479 L 585 440 Q 576 412 562 370 L 547 327 Z" style="fill: #0070C0;"></path>
                                                                        <path d="M 678 214 Q 819 250 824 254 Q 831 261 827 269 Q 820 279 793 285 Q 765 289 698 264 Q 632 246 583 238 Q 549 231 574 217 Q 604 202 642 205 L 678 214 Z" style="fill: #0070C0;"></path>
                                                                        <path d="M 692 85 Q 705 185 706 187 L 705 188 Q 692 204 678 214 C 654 232 636 234 642 205 Q 646 196 647 78 C 647 48 688 55 692 85 Z" style="fill: #0070C0;"></path>
                                                                        <path d="M 647 78 Q 560 66 463 53 Q 444 50 458 35 Q 471 22 488 17 Q 507 13 523 16 Q 646 50 900 51 Q 919 51 923 59 Q 927 69 913 83 Q 859 122 799 104 Q 754 97 692 85 L 647 78 Z" style="fill: #0070C0;"></path>
                                    
                                    
                                                                                                                                                                                                                                                                                                                                                                                                                                                                                                                                                                                                                                                                                                                                                                                                                                                                                                                                                                                                                                                                                                                                                                                    </g>
                            </svg>