<svg width='83' height='83' >
                                <g transform="translate(3, 70) scale(0.07, -0.07)">
                                    <!-- 先将完整的字以灰色字体绘制完成，层级位于下面 -->
                                                                        <path d="M 470 762 Q 498 738 527 710 Q 542 697 559 697 Q 571 698 576 712 Q 582 728 571 761 Q 559 795 464 815 Q 448 819 440 815 Q 434 811 436 797 Q 440 784 470 762 Z" style="fill: #0070C0;"></path>
                                                                        <path d="M 499 505 Q 421 346 252 177 Q 236 165 240 161 Q 243 158 257 164 Q 347 209 451 340 L 474 371 Q 501 411 531 457 Q 565 515 613 553 Q 629 566 615 581 Q 593 596 562 605 Q 538 614 521 600 Q 440 537 284 518 Q 271 519 269 511 Q 268 501 282 491 Q 322 466 340 470 Q 352 473 483 537 Q 499 546 505 538 Q 511 529 499 505 Z" style="fill: #0070C0;"></path>
                                                                        <path d="M 451 340 Q 491 274 453 81 Q 434 12 471 -33 Q 471 -34 474 -36 Q 490 -52 502 -26 Q 517 14 516 59 Q 517 246 524 287 Q 531 314 522 324 Q 483 366 474 371 C 451 390 437 367 451 340 Z" style="fill: #0070C0;"></path>
                                                                        <path d="M 569 355 Q 600 327 634 293 Q 644 281 659 281 Q 668 281 673 293 Q 677 306 671 331 Q 667 353 635 371 Q 565 404 548 399 Q 544 395 544 384 Q 547 374 569 355 Z" style="fill: #0070C0;"></path>
                                    
                                    
                                                                                                                                                                                                                                                                                                                                                                                            </g>
                            </svg>