<svg width='83' height='83' >
                                <g transform="translate(3, 70) scale(0.07, -0.07)">
                                    <!-- 先将完整的字以灰色字体绘制完成，层级位于下面 -->
                                                                        <path d="M 323 791 Q 356 764 391 733 Q 407 720 424 721 Q 436 722 441 736 Q 445 752 434 785 Q 427 807 391 823 Q 304 851 292 843 Q 286 839 289 825 Q 293 812 323 791 Z" style="fill: #0070C0;"></path>
                                                                        <path d="M 309 395 Q 337 435 370 483 Q 407 541 457 579 Q 473 592 460 607 Q 439 623 409 634 Q 385 644 367 631 Q 274 568 110 562 Q 98 565 95 556 Q 92 546 107 536 Q 144 508 162 511 Q 180 514 320 569 Q 339 576 344 567 Q 350 557 337 533 Q 255 374 76 201 Q 60 189 64 185 Q 67 182 81 188 Q 184 239 283 361 L 309 395 Z" style="fill: #0070C0;"></path>
                                                                        <path d="M 283 361 Q 319 286 283 102 Q 264 75 294 13 Q 298 3 306 -4 Q 322 -20 334 6 Q 349 46 348 91 Q 347 274 352 315 Q 359 342 350 352 Q 326 377 309 395 C 288 417 271 389 283 361 Z" style="fill: #0070C0;"></path>
                                                                        <path d="M 402 405 Q 444 351 471 338 Q 484 334 492 345 Q 498 355 497 369 Q 488 405 415 436 Q 402 440 393 439 Q 389 438 390 428 Q 390 418 402 405 Z" style="fill: #0070C0;"></path>
                                                                        <path d="M 637 635 Q 653 647 749 677 Q 753 678 762 674 Q 771 668 763 650 Q 720 560 708 543 Q 699 528 700 520 Q 699 507 722 497 Q 768 463 803 410 Q 833 365 834 324 Q 834 303 820 290 Q 807 280 782 284 Q 743 291 710 296 Q 703 297 703 289 Q 706 282 721 271 Q 793 226 807 202 Q 814 189 828 186 Q 840 186 855 198 Q 895 249 897 310 Q 898 403 767 508 Q 727 536 806 609 Q 806 612 808 612 Q 829 640 858 652 Q 889 668 863 690 Q 824 724 801 735 Q 783 742 766 732 Q 739 710 626 668 Q 622 667 619 665 C 591 654 610 622 637 635 Z" style="fill: #0070C0;"></path>
                                                                        <path d="M 573 -14 Q 579 -39 586 -49 Q 592 -56 599 -54 Q 614 -45 620 15 Q 629 102 627 187 Q 627 203 626 548 Q 626 563 637 635 C 640 652 640 652 619 665 Q 591 684 577 686 Q 564 690 548 681 Q 539 674 547 663 Q 551 653 559 642 Q 572 617 573 580 Q 576 426 570 186 Q 567 36 573 -14 Z" style="fill: #0070C0;"></path>
                                    
                                    
                                                                                                                                                                                                                                                                                                                                                                                                                                                                                                                                                    </g>
                            </svg>