<svg width='83' height='83' >
                                <g transform="translate(3, 70) scale(0.07, -0.07)">
                                    <!-- 先将完整的字以灰色字体绘制完成，层级位于下面 -->
                                                                        <path d="M 312 773 Q 343 748 377 717 Q 393 702 411 704 Q 423 705 428 720 Q 432 738 422 771 Q 415 793 379 808 Q 297 836 280 827 Q 274 823 277 808 Q 281 795 312 773 Z" style="fill: #0070C0;"></path>
                                                                        <path d="M 298 383 Q 329 425 365 476 Q 402 534 454 571 Q 470 583 458 598 Q 439 614 409 626 Q 387 636 368 624 Q 308 587 236 573 Q 173 564 123 562 Q 111 565 108 557 Q 104 547 119 536 Q 156 508 174 510 Q 193 514 321 562 Q 339 568 343 560 Q 349 550 335 526 Q 244 361 64 196 Q 49 186 52 181 Q 55 178 68 183 Q 173 232 278 358 L 298 383 Z" style="fill: #0070C0;"></path>
                                                                        <path d="M 278 358 Q 296 301 297 273 Q 296 263 296 249 Q 296 177 278 103 Q 266 54 301 13 L 302 11 Q 318 -4 330 21 Q 343 60 343 103 Q 344 263 351 299 Q 358 324 349 334 Q 312 377 298 383 C 273 399 269 387 278 358 Z" style="fill: #0070C0;"></path>
                                                                        <path d="M 371 391 Q 419 327 442 326 Q 455 325 461 341 Q 462 353 454 372 Q 445 387 424 396 Q 390 412 376 415 Q 367 416 366 406 Q 365 399 371 391 Z" style="fill: #0070C0;"></path>
                                                                        <path d="M 599 607 Q 648 635 680 657 Q 758 711 785 720 Q 809 730 798 750 Q 785 769 757 786 Q 732 802 718 800 Q 703 799 708 785 Q 709 752 643 684 Q 615 656 586 626 C 565 604 573 592 599 607 Z" style="fill: #0070C0;"></path>
                                                                        <path d="M 591 481 Q 594 574 598 599 Q 599 603 599 607 C 601 619 601 619 586 626 Q 535 650 520 648 Q 501 644 517 622 Q 547 570 533 370 Q 526 316 501 255 Q 477 191 399 111 Q 386 98 382 92 Q 381 85 392 85 Q 431 88 495 159 Q 574 252 589 450 L 591 481 Z" style="fill: #0070C0;"></path>
                                                                        <path d="M 751 472 Q 799 485 948 505 Q 961 508 962 515 Q 963 527 940 542 Q 904 567 840 539 Q 773 517 719 506 Q 655 496 591 481 C 562 474 559 452 589 450 Q 592 450 595 449 Q 616 448 701 462 L 751 472 Z" style="fill: #0070C0;"></path>
                                                                        <path d="M 726 -31 Q 732 -56 738 -65 Q 744 -72 751 -70 Q 769 -58 772 -3 Q 776 181 782 367 Q 782 382 792 427 Q 795 445 781 454 Q 763 466 751 472 C 725 487 691 490 701 462 Q 711 432 724 400 Q 724 -14 726 -31 Z" style="fill: #0070C0;"></path>
                                    
                                    
                                                                                                                                                                                                                                                                                                                                                                                                                                                                                                                                                                                                                                                                                                            </g>
                            </svg>