<svg width='83' height='83' >
                                <g transform="translate(3, 70) scale(0.07, -0.07)">
                                    <!-- 先将完整的字以灰色字体绘制完成，层级位于下面 -->
                                                                        <path d="M 311 753 Q 342 731 375 705 Q 391 692 409 695 Q 421 696 425 712 Q 428 728 415 760 Q 400 793 300 805 Q 282 806 276 803 Q 270 799 274 785 Q 278 773 311 753 Z" style="fill: #0070C0;"></path>
                                                                        <path d="M 283 360 Q 316 403 352 457 Q 388 512 436 548 Q 452 560 439 575 Q 420 591 391 601 Q 369 610 351 599 Q 266 538 114 530 Q 101 531 99 524 Q 96 514 111 503 Q 151 476 186 485 Q 324 546 332 535 Q 338 526 324 503 Q 243 349 68 187 Q 53 177 56 173 Q 59 170 72 175 Q 166 220 257 329 L 283 360 Z" style="fill: #0070C0;"></path>
                                                                        <path d="M 257 329 Q 285 269 255 106 Q 230 34 270 -12 L 271 -13 Q 287 -28 298 -3 Q 311 34 311 75 Q 315 247 322 286 Q 329 311 320 320 Q 290 356 283 360 C 261 380 246 357 257 329 Z" style="fill: #0070C0;"></path>
                                                                        <path d="M 357 373 Q 402 303 425 299 Q 438 296 446 313 Q 449 326 442 346 Q 427 379 364 398 Q 355 401 353 390 Q 352 383 357 373 Z" style="fill: #0070C0;"></path>
                                                                        <path d="M 699 202 Q 703 332 706 455 L 707 487 Q 710 628 729 708 Q 733 721 710 737 Q 670 758 642 762 Q 623 766 614 756 Q 605 746 616 730 Q 647 684 648 652 Q 661 441 652 196 C 651 166 698 172 699 202 Z" style="fill: #0070C0;"></path>
                                                                        <path d="M 706 455 Q 748 449 883 482 Q 883 483 885 483 Q 892 492 888 500 Q 881 512 850 517 Q 829 520 753 497 Q 750 497 707 487 C 678 480 676 458 706 455 Z" style="fill: #0070C0;"></path>
                                                                        <path d="M 563 184 Q 557 391 564 430 Q 568 455 552 468 Q 527 487 498 498 Q 483 504 474 497 Q 465 490 472 474 Q 493 435 501 393 Q 508 350 520 179 C 522 149 564 154 563 184 Z" style="fill: #0070C0;"></path>
                                                                        <path d="M 520 179 Q 468 175 413 167 Q 391 166 407 147 Q 422 132 440 127 Q 462 121 479 126 Q 624 162 901 163 Q 917 163 933 162 Q 954 162 959 171 Q 965 183 948 197 Q 894 239 829 225 Q 774 215 699 202 L 652 196 Q 609 192 563 184 L 520 179 Z" style="fill: #0070C0;"></path>
                                    
                                    
                                                                                                                                                                                                                                                                                                                                                                                                                                                                                                                                                                                                                                                                                                            </g>
                            </svg>