<svg width='83' height='83' >
                                <g transform="translate(3, 70) scale(0.07, -0.07)">
                                    <!-- 先将完整的字以灰色字体绘制完成，层级位于下面 -->
                                                                        <path d="M 295 774 Q 356 717 396 703 Q 414 700 422 716 Q 428 731 424 750 Q 406 795 306 818 Q 287 822 277 817 Q 270 816 274 802 Q 277 789 295 774 Z" style="fill: #0070C0;"></path>
                                                                        <path d="M 301 373 Q 326 409 352 450 Q 388 508 436 545 Q 452 557 440 572 Q 421 588 391 598 Q 369 607 351 595 Q 258 532 98 526 Q 86 529 83 520 Q 80 510 95 500 Q 134 472 151 475 Q 154 475 306 531 Q 325 538 329 530 Q 336 520 322 496 Q 246 343 68 167 Q 53 157 56 153 Q 59 150 72 155 Q 172 204 278 341 L 301 373 Z" style="fill: #0070C0;"></path>
                                                                        <path d="M 278 341 Q 312 272 278 94 Q 262 46 296 -2 Q 297 -3 299 -5 Q 315 -20 326 5 Q 339 42 339 83 Q 338 258 342 298 Q 349 323 340 332 Q 313 365 301 373 C 278 392 266 369 278 341 Z" style="fill: #0070C0;"></path>
                                                                        <path d="M 388 369 Q 407 351 430 330 Q 442 320 456 320 Q 465 321 469 332 Q 473 345 465 371 Q 459 387 435 397 Q 375 415 364 411 Q 360 407 361 396 Q 365 386 388 369 Z" style="fill: #0070C0;"></path>
                                                                        <path d="M 553 652 Q 540 662 527 668 Q 515 671 507 667 Q 500 663 503 653 Q 527 601 529 562 Q 532 519 535 155 C 535 125 577 129 577 159 Q 576 238 575 309 L 574 341 Q 574 396 574 446 L 573 476 Q 573 548 575 619 C 575 637 575 637 553 652 Z" style="fill: #0070C0;"></path>
                                                                        <path d="M 794 189 Q 793 415 803 567 Q 804 606 823 631 Q 835 647 821 663 Q 811 675 761 702 Q 743 714 681 684 Q 591 660 553 652 C 524 645 546 610 575 619 Q 582 620 592 624 Q 727 666 739 655 Q 746 642 746 612 Q 746 366 743 181 C 743 151 794 159 794 189 Z" style="fill: #0070C0;"></path>
                                                                        <path d="M 574 446 Q 644 461 696 471 Q 718 475 710 488 Q 698 501 672 505 Q 636 508 573 476 C 546 463 545 440 574 446 Z" style="fill: #0070C0;"></path>
                                                                        <path d="M 575 309 Q 642 324 692 331 Q 714 335 705 348 Q 695 363 668 365 Q 634 368 574 341 C 547 329 546 302 575 309 Z" style="fill: #0070C0;"></path>
                                                                        <path d="M 535 155 Q 474 149 408 141 Q 389 140 403 123 Q 416 110 433 104 Q 454 98 469 102 Q 617 138 898 139 Q 914 139 930 138 Q 949 137 954 146 Q 960 156 944 170 Q 889 212 825 195 Q 809 194 794 189 L 743 181 Q 703 177 656 169 Q 617 165 577 159 L 535 155 Z" style="fill: #0070C0;"></path>
                                    
                                    
                                                                                                                                                                                                                                                                                                                                                                                                                                                                                                                                                                                                                                                                                                                                                                                        </g>
                            </svg>