<svg width='83' height='83' >
                                <g transform="translate(3, 70) scale(0.07, -0.07)">
                                    <!-- 先将完整的字以灰色字体绘制完成，层级位于下面 -->
                                                                        <path d="M 260 765 Q 291 737 323 704 Q 338 689 355 690 Q 367 690 373 705 Q 377 721 369 754 Q 360 788 256 818 Q 240 822 232 819 Q 226 815 228 801 Q 232 788 260 765 Z" style="fill: #0070C0;"></path>
                                                                        <path d="M 261 369 Q 292 412 329 468 Q 360 520 404 553 Q 420 566 407 580 Q 388 596 357 605 Q 335 612 318 601 Q 234 538 89 526 Q 76 527 74 519 Q 71 509 86 499 Q 126 474 143 477 Q 152 480 286 538 Q 302 545 307 538 Q 313 529 301 508 Q 229 367 71 215 Q 58 205 60 201 Q 63 198 76 204 Q 148 240 236 339 L 261 369 Z" style="fill: #0070C0;"></path>
                                                                        <path d="M 236 339 Q 263 312 244 160 Q 220 52 255 15 Q 271 0 282 25 Q 295 62 295 103 Q 296 259 302 294 Q 309 319 300 328 Q 273 361 261 369 C 238 388 219 364 236 339 Z" style="fill: #0070C0;"></path>
                                                                        <path d="M 337 386 Q 377 319 402 315 Q 415 314 422 329 Q 425 341 418 360 Q 405 390 344 410 Q 335 413 333 402 Q 332 395 337 386 Z" style="fill: #0070C0;"></path>
                                                                        <path d="M 641 660 Q 684 690 749 708 Q 765 709 768 718 Q 771 728 759 738 Q 702 772 666 768 Q 659 764 660 753 Q 661 720 498 621 C 472 605 476 596 504 606 Q 553 624 605 644 L 641 660 Z" style="fill: #0070C0;"></path>
                                                                        <path d="M 498 621 Q 483 636 439 646 Q 423 649 417 643 Q 410 636 422 619 Q 449 583 456 483 Q 456 252 419 186 Q 410 171 396 154 Q 384 142 392 121 Q 401 93 415 80 Q 428 70 441 85 Q 477 133 586 230 Q 602 240 604 250 Q 607 256 600 256 Q 593 255 509 214 Q 502 213 500 214 Q 493 218 494 236 Q 498 561 504 597 Q 504 601 504 606 C 505 617 505 617 498 621 Z" style="fill: #0070C0;"></path>
                                                                        <path d="M 689 440 Q 825 488 830 491 Q 839 501 833 508 Q 824 520 793 524 Q 762 525 733 510 Q 708 498 680 487 L 639 472 Q 596 459 545 447 Q 509 437 538 423 Q 584 402 638 424 Q 642 425 648 427 L 689 440 Z" style="fill: #0070C0;"></path>
                                                                        <path d="M 648 427 Q 678 273 783 140 Q 807 112 839 85 Q 894 46 928 39 Q 955 40 951 74 Q 941 108 944 267 Q 944 280 938 281 Q 932 281 929 269 Q 919 232 909 195 Q 896 147 879 147 Q 860 150 823 189 Q 784 228 752 288 Q 715 357 689 440 L 680 487 Q 674 568 689 603 Q 698 630 641 660 C 615 676 592 671 605 644 Q 623 617 626 573 Q 630 521 639 472 L 648 427 Z" style="fill: #0070C0;"></path>
                                                                        <path d="M 597 136 Q 630 105 664 67 Q 674 54 690 53 Q 700 53 705 65 Q 711 78 705 106 Q 698 143 596 180 Q 583 184 576 183 Q 572 179 572 168 Q 573 158 597 136 Z" style="fill: #0070C0;"></path>
                                    
                                    
                                                                                                                                                                                                                                                                                                                                                                                                                                                                                                                                                                                                                                                                                                                                                                                        </g>
                            </svg>