<svg width='83' height='83' >
                                <g transform="translate(3, 70) scale(0.07, -0.07)">
                                    <!-- 先将完整的字以灰色字体绘制完成，层级位于下面 -->
                                                                        <path d="M 171 700 Q 167 700 165 698 Q 140 692 149 682 Q 153 676 161 674 Q 184 662 186 661 Q 204 654 231 662 L 331 693 Q 349 698 359 702 Q 378 710 374 720 Q 370 733 348 739 Q 308 753 267 733 L 231 713 L 171 700 Z" style="fill: #0070C0;"></path>
                                                                        <path d="M 259 490 Q 294 504 423 505 Q 476 505 482 515 Q 486 523 479 533 Q 466 549 433 560 Q 385 574 349 561 Q 248 532 88 503 Q 67 498 84 482 Q 114 455 169 468 Q 172 478 212 482 L 259 490 Z" style="fill: #0070C0;"></path>
                                                                        <path d="M 212 482 Q 218 443 222 374 Q 236 202 227 141 Q 224 117 221 110 Q 216 100 194 100 L 192 100 Q 139 109 114 112 Q 102 112 102 104 Q 101 103 102 102 Q 104 95 138 74 Q 198 35 223 8 Q 237 -2 253 -2 Q 255 -2 255 -1 Q 265 2 277 38 Q 290 69 286 118 Q 282 171 280 394 Q 280 398 280 408 Q 285 452 276 468 Q 267 488 259 490 C 238 512 208 512 212 482 Z" style="fill: #0070C0;"></path>
                                                                        <path d="M 116 329 Q 108 316 98 302 L 58 247 Q 39 221 45 196 L 45 192 Q 49 171 65 173 Q 74 175 88 186 Q 125 217 133 271 Q 135 276 137 282 Q 148 331 129 337 Q 122 337 116 329 Z" style="fill: #0070C0;"></path>
                                                                        <path d="M 310 323 L 374 231 Q 389 208 404 204 Q 410 203 414 206 Q 433 214 427 249 Q 423 275 421 281 Q 412 311 368 334 Q 333 348 314 355 Q 312 357 310 357 Q 306 359 302 349 Q 301 341 304 333 L 310 323 Z" style="fill: #0070C0;"></path>
                                                                        <path d="M 586 651 Q 584 651 581 650 Q 557 643 565 633 Q 570 628 578 623 Q 604 611 633 612 Q 651 614 708 629 Q 809 657 814 662 Q 821 670 820 676 Q 816 688 794 696 Q 754 708 713 689 L 662 668 Q 597 657 586 651 Z" style="fill: #0070C0;"></path>
                                                                        <path d="M 690 466 Q 725 480 870 480 Q 921 480 927 492 Q 932 500 925 509 Q 911 525 880 535 Q 831 551 796 537 Q 692 509 506 474 Q 490 470 494 461 Q 498 453 508 447 Q 533 432 566 437 Q 580 438 587 441 Q 606 451 643 457 L 690 466 Z" style="fill: #0070C0;"></path>
                                                                        <path d="M 643 457 Q 654 382 659 281 Q 660 253 661 231 Q 664 135 653 116 Q 646 104 625 104 L 623 104 Q 570 114 545 118 Q 533 116 533 110 Q 532 108 533 106 Q 535 100 569 78 Q 629 41 655 13 Q 668 4 684 4 L 686 4 Q 696 6 709 43 Q 721 74 717 123 L 717 137 L 711 369 Q 711 373 711 382 Q 716 427 708 443 Q 698 464 690 466 C 669 487 639 487 643 457 Z" style="fill: #0070C0;"></path>
                                                                        <path d="M 532 311 Q 523 296 515 283 L 474 228 Q 457 202 461 177 Q 461 175 462 173 Q 466 151 482 155 Q 492 157 504 167 Q 543 198 551 253 Q 552 257 553 263 Q 564 312 547 318 Q 537 318 532 311 Z" style="fill: #0070C0;"></path>
                                                                        <path d="M 765 323 Q 798 288 825 257 L 870 198 Q 886 178 899 174 Q 904 174 906 174 Q 927 180 923 220 Q 921 243 913 259 Q 899 291 841 319 Q 798 345 769 355 L 766 357 Q 761 359 757 349 Q 757 341 760 333 L 765 323 Z" style="fill: #0070C0;"></path>
                                    
                                    
                                                                                                                                                                                                                                                                                                                                                                                                                                                                                                                                                                                                                                                                                                                                                                                                                                                                    </g>
                            </svg>