<svg width='83' height='83' >
                                <g transform="translate(3, 70) scale(0.07, -0.07)">
                                    <!-- 先将完整的字以灰色字体绘制完成，层级位于下面 -->
                                                                        <path d="M 295 741 Q 326 719 359 693 Q 375 680 393 683 Q 405 684 409 700 Q 412 716 399 748 Q 384 781 284 793 Q 266 794 260 791 Q 254 787 258 773 Q 262 761 295 741 Z" style="fill: #0070C0;"></path>
                                                                        <path d="M 281 366 Q 315 409 354 468 Q 388 520 432 553 Q 448 565 435 579 Q 416 595 387 605 Q 365 615 347 603 Q 263 545 118 538 Q 105 539 103 532 Q 100 522 115 511 Q 154 486 171 488 Q 183 489 313 540 Q 329 546 334 538 Q 338 531 327 508 Q 249 364 92 219 Q 77 209 80 205 Q 83 202 96 207 Q 168 243 256 336 L 281 366 Z" style="fill: #0070C0;"></path>
                                                                        <path d="M 256 336 Q 255 336 256 335 Q 284 269 254 102 Q 238 54 272 6 Q 273 5 275 3 Q 291 -12 302 13 Q 315 50 315 91 Q 314 257 318 294 Q 325 319 316 328 Q 300 347 281 366 C 260 387 246 364 256 336 Z" style="fill: #0070C0;"></path>
                                                                        <path d="M 345 382 Q 393 310 414 307 Q 427 306 434 321 Q 437 333 430 352 Q 417 385 352 406 Q 343 409 341 398 Q 340 391 345 382 Z" style="fill: #0070C0;"></path>
                                                                        <path d="M 678 458 Q 751 468 864 470 Q 918 470 925 480 Q 929 493 912 506 Q 852 548 790 525 Q 744 516 682 501 L 630 491 Q 539 478 432 459 Q 411 456 427 439 Q 442 426 460 421 Q 481 417 497 422 Q 558 441 628 450 L 678 458 Z" style="fill: #0070C0;"></path>
                                                                        <path d="M 663 298 Q 670 380 678 458 L 682 501 Q 689 646 717 744 Q 721 756 699 773 Q 662 795 635 800 Q 617 804 608 795 Q 599 788 608 771 Q 635 728 633 701 Q 634 601 630 491 L 628 450 Q 624 374 617 289 C 615 259 660 268 663 298 Z" style="fill: #0070C0;"></path>
                                                                        <path d="M 533 278 Q 523 285 484 294 Q 471 298 467 292 Q 460 286 468 269 Q 496 206 509 104 Q 510 73 528 53 Q 546 29 551 45 Q 555 58 557 77 L 554 112 Q 541 212 540 245 C 539 275 539 275 533 278 Z" style="fill: #0070C0;"></path>
                                                                        <path d="M 803 142 Q 834 220 868 241 Q 887 260 872 280 Q 854 296 800 325 Q 781 334 757 326 Q 708 308 663 298 L 617 289 Q 575 283 533 278 C 503 274 510 241 540 245 Q 550 245 737 276 Q 759 280 767 271 Q 779 256 746 146 C 738 117 792 114 803 142 Z" style="fill: #0070C0;"></path>
                                                                        <path d="M 557 77 Q 566 76 578 78 Q 654 94 818 104 Q 830 105 831 114 Q 831 123 803 142 C 786 154 775 152 746 146 Q 638 124 554 112 C 524 108 527 78 557 77 Z" style="fill: #0070C0;"></path>
                                    
                                    
                                                                                                                                                                                                                                                                                                                                                                                                                                                                                                                                                                                                                                                                                                                                                                                        </g>
                            </svg>