<svg width='83' height='83' >
                                <g transform="translate(3, 70) scale(0.07, -0.07)">
                                    <!-- 先将完整的字以灰色字体绘制完成，层级位于下面 -->
                                                                        <path d="M 376 633 Q 478 657 483 661 Q 492 668 487 677 Q 480 687 452 695 Q 428 699 382 685 L 336 671 Q 216 650 201 648 Q 165 642 191 626 Q 227 605 299 619 Q 305 620 315 621 L 376 633 Z" style="fill: #0070C0;"></path>
                                                                        <path d="M 333 570 Q 332 495 323 464 Q 322 454 338 414 Q 347 399 361 407 Q 371 416 372 511 Q 371 574 376 633 L 382 685 Q 389 742 404 768 Q 410 777 399 790 Q 348 830 322 822 Q 309 818 315 804 Q 336 771 336 671 L 333 570 Z" style="fill: #0070C0;"></path>
                                                                        <path d="M 315 621 Q 266 530 146 433 Q 136 423 144 421 Q 151 417 162 422 Q 246 453 332 568 Q 332 569 333 570 C 376 633 330 647 315 621 Z" style="fill: #0070C0;"></path>
                                                                        <path d="M 396 575 Q 442 526 465 524 Q 475 524 480 539 Q 480 549 471 564 Q 453 589 397 596 Q 390 597 390 588 Q 389 581 396 575 Z" style="fill: #0070C0;"></path>
                                                                        <path d="M 673 669 Q 722 682 778 693 Q 814 702 819 707 Q 829 716 823 724 Q 816 736 786 743 Q 755 747 725 735 Q 701 728 678 719 L 634 707 Q 585 697 533 690 Q 496 683 523 667 Q 559 648 615 655 L 673 669 Z" style="fill: #0070C0;"></path>
                                                                        <path d="M 672 663 Q 672 667 673 669 L 678 719 Q 684 782 701 812 Q 707 822 696 834 Q 674 852 648 863 Q 632 870 618 865 Q 605 861 611 847 Q 633 811 634 707 L 633 608 Q 632 529 623 496 Q 622 484 637 446 Q 647 431 661 439 Q 668 445 669 610 Q 669 622 670 633 L 672 663 Z" style="fill: #0070C0;"></path>
                                                                        <path d="M 615 655 Q 614 654 614 652 Q 563 562 456 474 Q 443 464 456 463 Q 465 462 495 478 Q 531 494 562 523 Q 596 554 633 608 C 674 667 628 682 615 655 Z" style="fill: #0070C0;"></path>
                                                                        <path d="M 670 633 Q 731 558 808 478 Q 824 463 848 467 Q 930 476 956 483 Q 963 484 964 489 Q 964 493 953 498 Q 836 532 753 596 Q 714 627 672 663 C 649 682 651 656 670 633 Z" style="fill: #0070C0;"></path>
                                                                        <path d="M 363 381 Q 326 377 352 358 Q 395 331 451 343 Q 527 355 607 368 Q 644 375 650 379 Q 659 386 655 396 Q 648 408 618 417 Q 588 424 557 413 Q 515 401 471 392 Q 422 385 363 381 Z" style="fill: #0070C0;"></path>
                                                                        <path d="M 531 243 Q 619 250 871 251 Q 893 250 899 260 Q 905 273 887 288 Q 824 336 758 317 Q 550 281 134 236 Q 112 235 128 215 Q 144 199 163 193 Q 187 187 204 192 Q 381 237 478 238 L 531 243 Z" style="fill: #0070C0;"></path>
                                                                        <path d="M 478 238 Q 488 198 489 90 Q 488 56 485 49 Q 481 36 456 40 Q 425 47 393 55 Q 380 55 379 49 Q 378 42 388 32 Q 458 -26 482 -59 Q 498 -75 510 -72 Q 522 -68 535 -32 Q 553 4 550 70 Q 546 146 547 173 Q 553 219 531 243 C 513 267 472 267 478 238 Z" style="fill: #0070C0;"></path>
                                                                        <path d="M 309 167 Q 281 127 245 91 Q 218 61 231 23 Q 235 4 259 12 Q 311 40 325 103 Q 337 136 334 163 Q 330 173 324 175 Q 315 175 309 167 Z" style="fill: #0070C0;"></path>
                                                                        <path d="M 651 148 Q 702 105 762 42 Q 780 21 796 17 Q 806 16 813 27 Q 826 40 811 87 Q 798 130 730 155 Q 717 161 651 181 Q 641 185 639 173 Q 639 158 651 148 Z" style="fill: #0070C0;"></path>
                                    
                                    
                                                                                                                                                                                                                                                                                                                                                                                                                                                                                                                                                                                                                                                                                                                                                                                                                                                                                                                                                                                                                                                                                                        </g>
                            </svg>