<svg width='83' height='83' >
                                <g transform="translate(3, 70) scale(0.07, -0.07)">
                                    <!-- 先将完整的字以灰色字体绘制完成，层级位于下面 -->
                                                                        <path d="M 305 809 Q 311 796 305 784 Q 274 721 204 643 Q 195 636 193 631 Q 189 624 200 624 Q 248 633 339 736 Q 352 752 364 761 Q 371 768 370 779 Q 369 789 348 809 Q 329 825 315 826 Q 302 826 305 809 Z" style="fill: #0070C0;"></path>
                                                                        <path d="M 293 539 Q 347 599 369 612 Q 376 619 376 630 Q 375 640 356 661 Q 340 679 325 681 Q 310 682 313 665 Q 328 610 149 454 Q 140 448 138 444 Q 134 437 144 436 Q 172 436 243 497 Q 255 507 269 518 L 293 539 Z" style="fill: #0070C0;"></path>
                                                                        <path d="M 269 518 Q 287 488 266 389 Q 254 352 283 321 L 284 320 Q 297 310 304 328 Q 314 356 314 388 Q 313 472 316 490 Q 320 509 314 516 Q 302 531 293 539 C 271 560 256 545 269 518 Z" style="fill: #0070C0;"></path>
                                                                        <path d="M 471 736 Q 487 758 506 789 Q 515 805 524 815 Q 530 822 526 832 Q 522 841 501 855 Q 482 867 468 866 Q 455 863 462 848 Q 469 838 466 827 Q 451 767 403 686 Q 396 679 395 674 Q 394 667 403 669 Q 416 672 455 717 L 471 736 Z" style="fill: #0070C0;"></path>
                                                                        <path d="M 537 714 Q 624 736 641 745 Q 648 752 643 759 Q 636 768 613 772 Q 595 775 523 748 Q 499 741 471 736 C 441 731 429 728 455 717 Q 474 708 500 707 L 537 714 Z" style="fill: #0070C0;"></path>
                                                                        <path d="M 553 605 Q 562 609 649 624 Q 656 624 663 633 Q 663 642 646 648 Q 624 663 554 637 L 512 624 Q 466 615 378 597 Q 357 593 374 582 Q 383 575 393 570 Q 403 566 418 571 Q 460 584 513 595 L 553 605 Z" style="fill: #0070C0;"></path>
                                                                        <path d="M 550 459 Q 550 490 551 519 L 552 545 Q 552 578 553 605 L 554 637 Q 554 658 556 678 Q 562 693 537 714 C 515 734 488 734 500 707 Q 510 691 512 624 L 513 595 Q 513 543 514 451 C 514 421 550 429 550 459 Z" style="fill: #0070C0;"></path>
                                                                        <path d="M 551 519 L 632 538 Q 651 545 642 554 Q 632 564 610 565 Q 568 562 552 545 C 530 524 522 512 551 519 Z" style="fill: #0070C0;"></path>
                                                                        <path d="M 467 441 Q 460 510 459 510 Q 456 513 454 515 Q 438 525 417 530 Q 407 533 401 528 Q 397 524 402 513 Q 417 494 435 433 C 444 404 470 411 467 441 Z" style="fill: #0070C0;"></path>
                                                                        <path d="M 435 433 Q 420 432 406 427 Q 390 423 363 425 Q 353 425 351 418 Q 350 408 356 401 Q 372 388 395 372 Q 402 369 412 375 Q 443 396 600 448 Q 622 455 638 466 Q 648 470 649 478 Q 645 482 636 481 Q 594 471 550 459 L 514 451 Q 490 447 467 441 L 435 433 Z" style="fill: #0070C0;"></path>
                                                                        <path d="M 732 668 Q 799 704 819 698 Q 829 694 830 677 Q 831 637 822 565 Q 822 546 804 547 Q 776 553 753 559 Q 740 562 743 554 Q 744 545 767 527 Q 800 499 819 467 Q 826 460 835 463 Q 865 481 872 548 Q 869 555 878 647 Q 877 675 886 687 Q 896 694 891 704 Q 884 714 855 732 Q 837 744 718 699 C 690 689 705 654 732 668 Z" style="fill: #0070C0;"></path>
                                                                        <path d="M 718 699 Q 700 712 681 716 Q 674 717 669 711 Q 666 707 672 698 Q 708 617 685 466 Q 673 418 677 403 Q 686 376 695 366 Q 705 356 712 367 Q 730 388 731 522 Q 731 658 732 668 C 733 689 733 689 718 699 Z" style="fill: #0070C0;"></path>
                                                                        <path d="M 380 322 Q 347 316 371 301 Q 405 279 460 291 Q 529 304 601 318 Q 634 325 639 330 Q 646 337 643 345 Q 636 355 610 363 Q 583 369 509 344 Q 395 325 380 322 Z" style="fill: #0070C0;"></path>
                                                                        <path d="M 535 214 Q 613 221 841 222 Q 862 222 867 231 Q 873 243 856 257 Q 796 303 736 284 Q 562 251 169 207 Q 147 206 163 187 Q 178 172 196 167 Q 218 161 235 166 Q 398 208 486 209 L 535 214 Z" style="fill: #0070C0;"></path>
                                                                        <path d="M 486 209 Q 496 172 496 75 Q 495 44 491 36 Q 488 23 464 27 Q 439 33 412 38 Q 400 39 399 32 Q 398 26 408 18 Q 469 -34 489 -64 Q 504 -77 515 -75 Q 525 -71 537 -38 Q 553 -5 551 55 Q 548 125 549 151 Q 555 193 535 214 C 517 238 479 238 486 209 Z" style="fill: #0070C0;"></path>
                                                                        <path d="M 330 149 Q 299 112 263 79 Q 253 70 248 55 Q 241 31 244 15 Q 247 -4 270 3 Q 324 25 341 87 Q 354 118 353 143 Q 350 153 345 155 Q 336 156 330 149 Z" style="fill: #0070C0;"></path>
                                                                        <path d="M 657 141 Q 700 101 752 43 Q 768 22 784 18 Q 793 17 801 27 Q 814 40 801 85 Q 791 127 724 151 Q 681 166 659 172 Q 649 178 647 165 Q 646 152 657 141 Z" style="fill: #0070C0;"></path>
                                    
                                    
                                                                                                                                                                                                                                                                                                                                                                                                                                                                                                                                                                                                                                                                                                                                                                                                                                                                                                                                                                                                                                                                                                                                                                                                                                                                                                                                                                                                                        </g>
                            </svg>