<svg width='83' height='83' >
                                <g transform="translate(3, 70) scale(0.07, -0.07)">
                                    <!-- 先将完整的字以灰色字体绘制完成，层级位于下面 -->
                                                                        <path d="M 270 584 Q 246 603 220 613 Q 210 616 202 606 Q 198 599 206 587 Q 251 476 214 210 Q 205 156 186 102 Q 176 74 181 51 Q 191 12 203 -2 Q 215 -18 227 -3 Q 260 36 269 247 Q 278 478 287 538 C 291 568 291 569 270 584 Z" style="fill: #0070C0;"></path>
                                                                        <path d="M 533 583 Q 611 596 695 606 Q 723 610 736 596 Q 749 589 755 530 Q 771 332 765 108 Q 765 74 753 65 Q 738 55 668 70 Q 649 74 650 63 Q 651 54 666 47 Q 730 -2 763 -41 Q 788 -63 802 -60 Q 815 -57 829 -24 Q 845 28 844 103 Q 823 394 822 502 Q 822 547 835 573 Q 848 598 837 612 Q 824 628 770 656 Q 748 666 726 661 Q 665 642 534 616 L 474 607 Q 374 594 270 584 C 240 581 258 530 287 538 Q 320 550 476 574 L 533 583 Z" style="fill: #0070C0;"></path>
                                                                        <path d="M 523 326 Q 529 459 533 583 L 534 616 Q 534 652 553 756 Q 557 769 534 785 Q 494 806 466 810 Q 447 814 438 804 Q 429 795 439 778 Q 467 738 469 710 Q 472 661 474 607 L 476 574 Q 479 453 476 316 C 475 286 522 296 523 326 Z" style="fill: #0070C0;"></path>
                                                                        <path d="M 622 347 Q 573 337 523 326 L 476 316 Q 425 309 372 298 Q 353 294 323 298 Q 310 297 307 288 Q 303 275 312 266 Q 333 247 364 226 Q 374 222 386 229 Q 426 254 469 268 Q 535 290 600 312 Q 619 319 636 327 C 663 339 651 353 622 347 Z" style="fill: #0070C0;"></path>
                                    
                                    
                                                                                                                                                                                                                                                                                                                                                                                            </g>
                            </svg>