<svg width='83' height='83' >
                                <g transform="translate(3, 70) scale(0.07, -0.07)">
                                    <!-- 先将完整的字以灰色字体绘制完成，层级位于下面 -->
                                                                        <path d="M 321 728 Q 308 735 270 740 Q 257 744 253 738 Q 246 731 256 713 Q 295 634 319 505 Q 323 466 346 440 Q 367 416 371 434 Q 372 441 374 449 L 374 477 Q 373 496 368 520 Q 340 650 333 694 C 328 724 328 725 321 728 Z" style="fill: #0070C0;"></path>
                                                                        <path d="M 591 482 Q 607 454 624 445 Q 634 436 651 458 Q 670 489 713 661 Q 723 692 747 718 Q 760 730 750 745 Q 734 763 691 790 Q 670 800 605 782 Q 587 782 321 728 C 292 722 304 685 333 694 Q 379 709 449 722 L 491 731 Q 540 741 601 750 Q 640 756 652 743 Q 668 724 663 704 Q 624 530 606 512 C 592 486 590 483 591 482 Z" style="fill: #0070C0;"></path>
                                                                        <path d="M 516 598 Q 550 607 580 611 Q 602 615 593 628 Q 583 643 557 646 Q 541 647 518 641 L 472 626 Q 432 613 398 601 Q 382 597 403 583 Q 410 579 472 590 L 516 598 Z" style="fill: #0070C0;"></path>
                                                                        <path d="M 512 470 Q 552 479 591 482 C 621 485 633 499 606 512 Q 582 527 524 513 Q 518 513 513 509 L 470 499 Q 419 489 374 477 C 345 469 344 448 374 449 Q 380 449 389 450 Q 429 457 469 463 L 512 470 Z" style="fill: #0070C0;"></path>
                                                                        <path d="M 222 341 Q 198 359 181 361 Q 175 365 170 357 Q 166 350 171 337 Q 190 301 194 269 Q 198 196 192 115 Q 188 90 198 70 Q 211 49 228 36 Q 243 27 245 39 Q 252 43 254 65 Q 258 84 252 145 Q 243 290 249 297 C 253 319 247 324 222 341 Z" style="fill: #0070C0;"></path>
                                                                        <path d="M 509 356 Q 746 392 774 365 Q 781 356 778 341 Q 765 109 748 76 Q 744 66 730 70 Q 702 76 669 82 Q 639 86 660 66 Q 727 11 754 -30 Q 767 -48 783 -35 Q 804 -16 814 16 Q 827 50 834 235 Q 835 305 857 338 Q 873 360 867 369 Q 858 384 803 419 Q 784 435 766 428 Q 735 416 677 407 Q 583 398 510 388 L 467 383 Q 382 373 335 361 Q 271 348 222 341 C 192 336 220 288 249 297 Q 256 298 265 301 Q 332 325 455 349 Q 459 350 466 350 L 509 356 Z" style="fill: #0070C0;"></path>
                                                                        <path d="M 506 226 Q 507 293 509 356 L 510 388 Q 510 431 512 470 L 513 509 Q 514 555 516 598 L 518 641 Q 521 702 520 705 Q 505 720 491 731 C 468 750 436 749 449 722 Q 456 706 464 693 Q 471 669 472 626 L 472 590 Q 471 557 470 499 L 469 463 Q 468 427 467 383 L 466 350 Q 465 290 464 216 C 464 186 506 196 506 226 Z" style="fill: #0070C0;"></path>
                                                                        <path d="M 595 249 Q 552 239 506 226 L 464 216 Q 340 191 316 192 Q 304 191 302 182 Q 299 169 307 161 Q 328 145 358 125 Q 368 121 380 129 Q 405 147 590 219 Q 600 223 610 227 C 638 238 624 256 595 249 Z" style="fill: #0070C0;"></path>
                                                                        <path d="M 610 227 Q 650 160 662 153 Q 669 152 677 158 Q 690 167 686 205 Q 683 250 580 305 Q 573 311 570 301 Q 567 294 595 249 L 610 227 Z" style="fill: #0070C0;"></path>
                                    
                                    
                                                                                                                                                                                                                                                                                                                                                                                                                                                                                                                                                                                                                                                                                                                                                                                        </g>
                            </svg>