<svg width='83' height='83' >
                                <g transform="translate(3, 70) scale(0.07, -0.07)">
                                    <!-- 先将完整的字以灰色字体绘制完成，层级位于下面 -->
                                                                        <path d="M 319 684 Q 418 732 448 738 Q 464 739 468 748 Q 471 758 459 769 Q 437 784 392 798 Q 376 805 363 803 Q 356 799 356 787 Q 359 745 156 640 Q 152 630 158 628 Q 173 628 263 662 Q 276 666 291 672 L 319 684 Z" style="fill: #0070C0;"></path>
                                                                        <path d="M 350 506 Q 383 516 426 525 Q 442 529 443 536 Q 444 549 424 557 Q 394 569 352 554 L 309 541 Q 156 499 98 489 Q 85 486 83 478 Q 80 466 97 456 Q 145 432 181 448 Q 244 476 289 489 L 350 506 Z" style="fill: #0070C0;"></path>
                                                                        <path d="M 349 415 Q 349 460 350 506 L 352 554 Q 353 609 360 639 Q 361 652 355 658 Q 336 674 319 684 C 294 701 279 700 291 672 Q 309 645 309 541 L 309 421 Q 308 400 308 376 Q 302 169 284 113 Q 275 73 308 21 Q 320 2 328 -2 Q 340 -3 345 10 Q 357 41 354 73 Q 350 244 349 390 L 349 415 Z" style="fill: #0070C0;"></path>
                                                                        <path d="M 289 489 Q 238 360 78 161 Q 74 151 84 150 Q 90 149 99 158 Q 231 266 309 421 C 356 513 300 517 289 489 Z" style="fill: #0070C0;"></path>
                                                                        <path d="M 349 390 Q 365 378 426 323 Q 436 313 449 314 Q 458 314 461 325 Q 465 335 458 359 Q 454 378 424 393 Q 360 418 349 415 C 319 414 325 408 349 390 Z" style="fill: #0070C0;"></path>
                                                                        <path d="M 674 659 Q 824 695 832 701 Q 841 711 836 719 Q 827 732 796 739 Q 763 743 731 730 Q 688 714 642 701 Q 590 688 529 680 Q 490 673 519 655 Q 561 633 617 645 L 674 659 Z" style="fill: #0070C0;"></path>
                                                                        <path d="M 700 449 Q 772 459 877 462 Q 931 462 937 472 Q 941 485 925 498 Q 867 537 804 518 Q 759 508 700 494 L 645 484 Q 552 469 448 451 Q 426 448 443 431 Q 458 418 476 413 Q 497 409 513 414 Q 574 433 645 442 L 700 449 Z" style="fill: #0070C0;"></path>
                                                                        <path d="M 652 15 Q 658 -10 665 -21 Q 671 -28 679 -26 Q 697 -14 700 46 Q 707 125 705 204 Q 701 259 700 449 L 700 494 Q 700 551 711 616 Q 714 635 699 645 Q 686 654 674 659 C 648 673 606 673 617 645 Q 639 591 642 582 Q 642 578 645 484 L 645 442 Q 649 24 652 15 Z" style="fill: #0070C0;"></path>
                                    
                                    
                                                                                                                                                                                                                                                                                                                                                                                                                                                                                                                                                                                                                                                                                                            </g>
                            </svg>