<svg width='83' height='83' >
                                <g transform="translate(3, 70) scale(0.07, -0.07)">
                                    <!-- 先将完整的字以灰色字体绘制完成，层级位于下面 -->
                                                                        <path d="M 342 673 Q 454 719 478 724 Q 496 725 499 734 Q 503 744 490 756 Q 468 772 422 788 Q 406 795 393 794 Q 386 790 385 779 Q 385 737 189 640 Q 183 631 190 628 Q 208 628 293 657 Q 299 658 309 661 L 342 673 Z" style="fill: #0070C0;"></path>
                                                                        <path d="M 361 514 Q 418 527 489 539 Q 505 542 506 549 Q 507 562 489 570 Q 461 580 439 575 Q 396 565 362 554 L 321 544 Q 158 505 80 495 Q 67 494 64 485 Q 61 475 77 464 Q 119 437 157 452 Q 238 483 296 497 L 361 514 Z" style="fill: #0070C0;"></path>
                                                                        <path d="M 360 466 Q 360 493 361 514 L 362 554 Q 363 609 370 637 Q 373 650 342 673 C 319 692 303 690 309 661 Q 315 646 321 544 L 318 429 Q 318 236 296 154 Q 275 117 325 48 Q 329 41 336 38 Q 346 37 352 49 Q 364 80 361 110 Q 357 293 359 446 L 360 466 Z" style="fill: #0070C0;"></path>
                                                                        <path d="M 296 497 Q 239 352 62 194 Q 52 182 60 181 Q 69 177 79 183 Q 191 234 300 400 Q 310 418 318 429 C 376 515 309 529 296 497 Z" style="fill: #0070C0;"></path>
                                                                        <path d="M 359 446 Q 365 440 379 430 Q 443 381 454 381 Q 461 382 465 392 Q 468 404 460 427 Q 454 443 428 454 Q 368 472 360 466 C 343 461 343 461 359 446 Z" style="fill: #0070C0;"></path>
                                                                        <path d="M 561 657 Q 606 614 638 604 Q 653 603 659 616 Q 663 629 659 644 Q 652 665 633 675 Q 597 693 558 694 Q 549 695 544 692 Q 540 691 542 679 Q 545 669 561 657 Z" style="fill: #0070C0;"></path>
                                                                        <path d="M 545 497 Q 587 458 623 448 Q 636 447 643 460 Q 647 473 643 488 Q 628 524 552 534 Q 536 537 528 532 Q 522 531 526 519 Q 530 509 545 497 Z" style="fill: #0070C0;"></path>
                                                                        <path d="M 763 370 Q 827 379 916 383 Q 970 383 977 394 Q 981 406 965 418 Q 907 457 844 434 Q 808 427 763 414 L 710 403 Q 701 402 695 400 Q 592 381 471 358 Q 450 355 467 339 Q 480 326 498 322 Q 519 318 534 324 Q 630 354 710 363 L 763 370 Z" style="fill: #0070C0;"></path>
                                                                        <path d="M 710 363 Q 707 -10 724 -40 Q 739 -56 748 -34 Q 761 9 763 370 L 763 414 Q 764 619 770 714 Q 771 748 789 777 Q 796 793 776 808 Q 751 827 708 839 Q 689 843 676 830 Q 666 821 678 809 Q 708 784 710 748 Q 710 637 710 403 L 710 363 Z" style="fill: #0070C0;"></path>
                                    
                                    
                                                                                                                                                                                                                                                                                                                                                                                                                                                                                                                                                                                                                                                                                                                                                                                        </g>
                            </svg>