<svg width='83' height='83' >
                                <g transform="translate(3, 70) scale(0.07, -0.07)">
                                    <!-- 先将完整的字以灰色字体绘制完成，层级位于下面 -->
                                                                        <path d="M 314 647 Q 401 684 441 692 Q 459 693 463 702 Q 467 712 454 724 Q 432 740 386 757 Q 370 764 357 764 Q 350 760 349 748 Q 349 706 157 616 Q 151 607 158 604 Q 176 604 258 630 Q 268 633 279 635 L 314 647 Z" style="fill: #0070C0;"></path>
                                                                        <path d="M 336 475 Q 378 485 430 492 Q 446 495 446 502 Q 447 514 430 522 Q 396 537 338 516 L 292 506 Q 148 476 92 469 Q 80 468 77 460 Q 74 450 89 439 Q 123 415 173 430 Q 225 449 266 459 L 336 475 Z" style="fill: #0070C0;"></path>
                                                                        <path d="M 334 399 Q 334 444 336 475 L 338 516 Q 341 574 348 605 Q 351 618 343 624 Q 327 639 314 647 C 290 665 271 664 279 635 Q 291 611 292 506 L 288 396 Q 287 380 287 359 Q 275 143 259 108 Q 250 66 284 14 Q 296 -5 304 -11 Q 316 -12 322 2 Q 335 36 332 68 Q 331 231 333 372 L 334 399 Z" style="fill: #0070C0;"></path>
                                                                        <path d="M 266 459 Q 221 341 74 153 Q 68 143 80 142 Q 99 142 203 260 Q 248 315 288 396 C 331 482 279 492 266 459 Z" style="fill: #0070C0;"></path>
                                                                        <path d="M 333 372 Q 394 311 415 312 Q 428 312 432 328 Q 432 340 423 357 Q 399 388 334 399 C 304 404 312 393 333 372 Z" style="fill: #0070C0;"></path>
                                                                        <path d="M 651 642 Q 723 678 774 688 Q 792 689 795 698 Q 799 708 786 720 Q 764 736 718 752 Q 702 759 689 758 Q 682 754 681 743 Q 681 701 485 604 Q 479 595 486 592 Q 504 592 616 629 L 651 642 Z" style="fill: #0070C0;"></path>
                                                                        <path d="M 675 462 Q 738 472 832 476 Q 881 480 885 487 Q 889 499 873 510 Q 818 546 756 524 Q 722 517 676 503 L 632 493 Q 548 477 450 457 Q 431 454 446 439 Q 461 427 477 423 Q 496 419 512 425 Q 554 440 602 448 L 675 462 Z" style="fill: #0070C0;"></path>
                                                                        <path d="M 675 429 Q 675 447 675 462 L 676 503 Q 677 569 685 601 Q 688 614 680 621 Q 665 634 651 642 C 626 659 607 658 616 629 Q 628 608 632 493 L 631 388 Q 612 88 605 72 Q 596 30 632 -22 Q 644 -41 652 -47 Q 665 -48 670 -34 Q 683 0 679 32 Q 673 225 674 386 L 675 429 Z" style="fill: #0070C0;"></path>
                                                                        <path d="M 602 448 Q 544 303 366 139 Q 356 126 364 125 Q 374 121 385 128 Q 502 182 631 388 C 680 466 618 487 602 448 Z" style="fill: #0070C0;"></path>
                                                                        <path d="M 674 386 Q 726 289 796 185 Q 811 166 837 165 Q 928 161 958 163 Q 967 164 968 169 Q 969 173 958 181 Q 829 250 759 329 Q 720 372 678 425 Q 677 428 675 429 C 657 453 660 412 674 386 Z" style="fill: #0070C0;"></path>
                                    
                                    
                                                                                                                                                                                                                                                                                                                                                                                                                                                                                                                                                                                                                                                                                                                                                                                                                                                                    </g>
                            </svg>