<svg width='83' height='83' >
                                <g transform="translate(3, 70) scale(0.07, -0.07)">
                                    <!-- 先将完整的字以灰色字体绘制完成，层级位于下面 -->
                                                                        <path d="M 300 645 Q 447 717 454 718 Q 470 721 474 729 Q 477 739 463 750 Q 441 763 396 776 Q 380 782 367 779 Q 360 775 361 764 Q 362 725 160 604 Q 156 594 162 592 Q 180 592 271 633 L 300 645 Z" style="fill: #0070C0;"></path>
                                                                        <path d="M 327 477 Q 328 480 420 497 Q 430 496 439 510 Q 439 520 416 530 Q 388 548 330 528 Q 329 528 328 527 L 286 513 Q 276 512 269 508 Q 227 496 98 469 Q 70 463 93 448 Q 129 424 156 433 Q 202 446 263 461 L 327 477 Z" style="fill: #0070C0;"></path>
                                                                        <path d="M 326 412 Q 326 445 327 477 L 328 527 Q 329 578 335 605 Q 336 618 330 623 Q 314 636 300 645 C 275 662 262 662 271 633 Q 284 606 286 513 L 286 396 Q 286 239 266 117 Q 248 78 297 12 Q 301 5 308 2 Q 318 1 324 14 Q 336 45 332 74 Q 326 242 326 384 L 326 412 Z" style="fill: #0070C0;"></path>
                                                                        <path d="M 263 461 Q 239 400 207 341 Q 167 271 70 141 Q 64 131 76 130 Q 97 130 200 254 Q 246 312 286 396 C 329 485 275 492 263 461 Z" style="fill: #0070C0;"></path>
                                                                        <path d="M 326 384 Q 386 324 402 325 Q 415 324 420 341 Q 421 353 412 371 Q 402 387 378 395 Q 342 410 327 412 Q 326 413 326 412 C 296 416 305 405 326 384 Z" style="fill: #0070C0;"></path>
                                                                        <path d="M 542 548 Q 573 597 605 666 Q 618 700 633 719 Q 640 729 634 742 Q 628 754 599 770 Q 571 783 554 781 Q 538 777 548 757 Q 587 700 446 453 Q 439 443 437 437 Q 436 427 448 430 Q 475 442 530 529 L 542 548 Z" style="fill: #0070C0;"></path>
                                                                        <path d="M 640 536 Q 677 555 752 570 Q 770 576 777 575 Q 793 568 793 560 Q 777 512 759 462 L 761 461 Q 768 457 782 469 Q 834 512 878 530 Q 914 546 912 554 Q 911 564 840 608 Q 818 623 745 602 Q 736 602 542 548 C 513 540 511 539 530 529 L 531 529 Q 562 507 594 517 Q 598 520 605 522 L 640 536 Z" style="fill: #0070C0;"></path>
                                                                        <path d="M 584 89 Q 556 102 520 115 Q 510 119 509 112 Q 509 105 518 95 Q 582 37 624 -10 Q 634 -19 649 -4 Q 682 47 684 135 Q 669 306 679 474 Q 683 499 678 509 Q 671 521 640 536 C 614 550 594 550 605 522 Q 618 495 621 453 Q 624 353 626 125 Q 625 98 616 88 Q 607 82 584 89 Z" style="fill: #0070C0;"></path>
                                                                        <path d="M 508 321 Q 481 270 446 225 Q 425 195 438 161 Q 444 143 465 154 Q 516 185 528 264 Q 535 295 530 319 Q 526 328 521 329 Q 512 329 508 321 Z" style="fill: #0070C0;"></path>
                                                                        <path d="M 756 292 Q 805 243 861 173 Q 877 151 892 146 Q 901 145 909 155 Q 922 168 912 213 Q 902 273 759 323 Q 749 330 747 317 Q 746 304 756 292 Z" style="fill: #0070C0;"></path>
                                    
                                    
                                                                                                                                                                                                                                                                                                                                                                                                                                                                                                                                                                                                                                                                                                                                                                                                                                                                    </g>
                            </svg>