<svg width='83' height='83' >
                                <g transform="translate(3, 70) scale(0.07, -0.07)">
                                    <!-- 先将完整的字以灰色字体绘制完成，层级位于下面 -->
                                                                        <path d="M 320 679 Q 437 722 457 726 Q 473 727 478 735 Q 482 745 469 757 Q 448 773 405 790 Q 389 797 376 796 Q 369 792 368 781 Q 368 741 181 656 Q 175 647 182 644 Q 200 644 279 668 Q 280 669 283 668 C 297 671 297 671 320 679 Z" style="fill: #0070C0;"></path>
                                                                        <path d="M 337 495 Q 386 507 450 516 Q 466 519 466 526 Q 467 538 450 546 Q 425 556 403 552 Q 369 545 338 536 L 296 525 Q 148 495 96 489 Q 84 488 81 480 Q 78 470 93 459 Q 129 434 193 456 Q 239 472 280 481 L 337 495 Z" style="fill: #0070C0;"></path>
                                                                        <path d="M 336 427 Q 336 460 337 495 L 338 536 Q 341 609 347 643 Q 350 656 343 662 Q 331 672 320 679 C 296 696 275 697 283 668 Q 295 641 296 525 L 292 388 Q 280 166 268 135 Q 256 102 292 45 Q 304 26 312 21 Q 324 20 329 34 Q 342 65 338 97 Q 334 259 335 397 L 336 427 Z" style="fill: #0070C0;"></path>
                                                                        <path d="M 280 481 Q 234 340 69 175 Q 59 162 68 161 Q 92 155 160 215 Q 221 266 292 388 C 361 505 290 509 280 481 Z" style="fill: #0070C0;"></path>
                                                                        <path d="M 335 397 Q 339 393 348 385 Q 375 360 404 329 Q 414 319 428 318 Q 437 318 441 329 Q 445 341 440 365 Q 433 396 346 425 Q 342 426 336 427 C 306 432 313 418 335 397 Z" style="fill: #0070C0;"></path>
                                                                        <path d="M 560 631 Q 596 665 634 701 L 649 717 Q 670 750 703 773 Q 712 780 710 792 Q 709 802 688 825 Q 669 843 653 845 Q 637 846 641 827 Q 648 805 638 790 Q 607 735 565 686 Q 523 640 469 588 Q 459 581 457 576 Q 453 569 465 568 Q 486 571 539 613 L 560 631 Z" style="fill: #0070C0;"></path>
                                                                        <path d="M 634 701 Q 643 691 674 694 Q 731 704 734 696 Q 737 684 715 645 Q 696 602 640 547 Q 585 487 499 434 Q 474 422 494 421 Q 605 417 760 613 Q 799 670 816 679 Q 829 688 824 700 Q 820 710 771 738 Q 759 745 737 735 Q 709 725 649 717 C 619 713 610 712 634 701 Z" style="fill: #0070C0;"></path>
                                                                        <path d="M 539 613 Q 543 607 555 599 Q 574 581 597 560 Q 607 550 618 551 Q 625 551 630 561 Q 633 571 627 593 Q 623 608 600 619 Q 581 626 560 631 C 531 638 520 636 539 613 Z" style="fill: #0070C0;"></path>
                                                                        <path d="M 608 310 Q 647 346 686 381 L 707 403 Q 740 440 755 457 Q 765 467 762 475 Q 759 487 736 494 Q 711 503 700 500 Q 694 499 691 487 Q 675 405 488 259 Q 469 246 494 249 Q 528 252 586 293 L 608 310 Z" style="fill: #0070C0;"></path>
                                                                        <path d="M 686 381 Q 699 374 718 369 Q 740 368 780 383 Q 804 389 813 381 Q 820 375 793 321 Q 690 80 387 -40 Q 377 -43 378 -48 Q 379 -52 386 -53 Q 516 -57 681 87 Q 699 105 718 123 Q 787 195 859 315 Q 878 340 905 357 Q 921 363 922 372 Q 923 385 896 405 Q 862 430 848 432 Q 838 433 825 426 Q 732 404 711 403 Q 708 404 707 403 C 677 400 658 392 686 381 Z" style="fill: #0070C0;"></path>
                                                                        <path d="M 586 293 Q 661 208 670 204 Q 671 204 675 203 Q 684 203 689 213 Q 695 225 691 249 Q 688 268 662 285 Q 637 300 608 310 C 580 320 566 315 586 293 Z" style="fill: #0070C0;"></path>
                                    
                                    
                                                                                                                                                                                                                                                                                                                                                                                                                                                                                                                                                                                                                                                                                                                                                                                                                                                                                                                                                </g>
                            </svg>