<svg width='83' height='83' >
                                <g transform="translate(3, 70) scale(0.07, -0.07)">
                                    <!-- 先将完整的字以灰色字体绘制完成，层级位于下面 -->
                                                                        <path d="M 268 687 Q 319 720 378 738 Q 394 739 396 748 Q 399 758 387 767 Q 366 780 324 791 Q 309 797 298 794 Q 291 790 292 780 Q 295 743 116 639 Q 112 630 117 628 Q 129 628 212 663 Q 225 669 239 674 L 268 687 Z" style="fill: #0070C0;"></path>
                                                                        <path d="M 295 506 Q 338 519 395 528 Q 410 531 410 538 Q 411 550 394 558 Q 361 570 297 548 L 254 537 Q 115 504 67 497 Q 55 496 52 487 Q 51 477 65 467 Q 99 446 156 463 Q 201 481 239 490 L 295 506 Z" style="fill: #0070C0;"></path>
                                                                        <path d="M 293 446 Q 293 485 295 506 L 297 548 Q 300 612 307 643 Q 310 656 302 662 Q 284 678 268 687 C 243 703 228 702 239 674 Q 254 653 254 537 L 249 411 Q 249 305 223 161 Q 205 149 233 88 Q 245 52 264 41 Q 276 40 281 53 Q 294 86 291 116 Q 290 279 292 417 L 293 446 Z" style="fill: #0070C0;"></path>
                                                                        <path d="M 239 490 Q 194 373 51 187 Q 47 178 56 178 Q 60 177 69 184 Q 178 274 249 411 C 303 514 250 518 239 490 Z" style="fill: #0070C0;"></path>
                                                                        <path d="M 292 417 Q 344 345 363 343 Q 375 342 382 356 Q 385 368 378 386 Q 371 405 347 417 Q 311 441 295 446 L 293 446 C 268 450 274 441 292 417 Z" style="fill: #0070C0;"></path>
                                                                        <path d="M 448 730 Q 439 734 421 737 Q 411 740 407 735 Q 400 729 408 714 Q 439 644 455 529 Q 458 495 477 471 Q 493 450 499 465 Q 500 471 502 477 L 503 503 Q 502 519 499 540 Q 477 669 473 701 C 470 722 470 722 448 730 Z" style="fill: #0070C0;"></path>
                                                                        <path d="M 692 505 Q 708 478 724 469 Q 734 460 751 482 Q 770 509 809 661 Q 819 691 843 715 Q 856 727 845 741 Q 832 759 789 786 Q 770 796 690 776 Q 686 776 448 730 C 419 724 444 692 473 701 Q 513 714 572 725 L 603 731 Q 732 761 749 744 Q 762 726 759 709 Q 723 553 704 534 C 689 509 689 509 692 505 Z" style="fill: #0070C0;"></path>
                                                                        <path d="M 626 605 Q 656 612 684 616 Q 706 620 697 633 Q 687 646 663 649 Q 647 650 626 645 L 581 629 Q 548 619 522 609 Q 506 605 526 591 L 582 595 L 626 605 Z" style="fill: #0070C0;"></path>
                                                                        <path d="M 626 496 Q 659 502 692 505 C 722 508 732 523 704 534 Q 677 547 626 530 L 582 520 Q 540 513 503 503 C 474 495 472 475 502 477 Q 506 477 515 478 Q 549 485 583 489 L 626 496 Z" style="fill: #0070C0;"></path>
                                                                        <path d="M 629 377 Q 701 389 858 390 Q 874 391 879 398 Q 883 408 869 420 Q 820 456 756 436 Q 702 427 625 411 L 582 404 Q 501 394 410 379 Q 392 378 406 363 Q 418 351 434 347 Q 452 343 466 347 Q 506 360 552 366 L 629 377 Z" style="fill: #0070C0;"></path>
                                                                        <path d="M 625 411 Q 625 454 626 496 L 626 530 Q 626 563 627 595 Q 626 601 626 605 L 626 645 Q 627 691 630 700 Q 633 710 624 718 Q 617 724 603 731 C 577 747 563 754 572 725 Q 579 713 580 688 Q 580 660 581 629 L 582 595 Q 582 558 582 520 L 583 489 Q 583 447 582 404 L 580 315 Q 580 120 567 29 Q 564 -10 588 -42 Q 598 -55 609 -39 Q 627 -6 627 67 Q 624 116 624 347 L 625 411 Z" style="fill: #0070C0;"></path>
                                                                        <path d="M 552 366 Q 491 240 323 106 Q 311 94 320 93 Q 329 89 340 94 Q 463 145 562 291 Q 572 307 580 315 C 630 374 571 403 552 366 Z" style="fill: #0070C0;"></path>
                                                                        <path d="M 624 347 Q 697 242 793 130 Q 812 111 841 112 Q 941 116 973 122 Q 983 123 984 129 Q 984 133 971 141 Q 818 201 762 253 Q 699 307 629 377 C 608 398 600 381 624 347 Z" style="fill: #0070C0;"></path>
                                    
                                    
                                                                                                                                                                                                                                                                                                                                                                                                                                                                                                                                                                                                                                                                                                                                                                                                                                                                                                                                                                                                                                                                                                        </g>
                            </svg>