<svg width='83' height='83' >
                                <g transform="translate(3, 70) scale(0.07, -0.07)">
                                    <!-- 先将完整的字以灰色字体绘制完成，层级位于下面 -->
                                                                        <path d="M 281 670 Q 381 712 414 718 Q 430 719 434 727 Q 438 737 426 749 Q 366 789 332 786 Q 325 782 324 771 Q 324 732 145 644 Q 139 635 146 632 Q 167 632 248 659 L 281 670 Z" style="fill: #0070C0;"></path>
                                                                        <path d="M 303 504 Q 348 517 406 527 Q 422 530 423 537 Q 423 550 405 558 Q 372 570 304 548 L 263 536 Q 128 505 67 495 Q 54 494 52 485 Q 49 475 65 464 Q 104 440 168 462 Q 211 478 249 489 L 303 504 Z" style="fill: #0070C0;"></path>
                                                                        <path d="M 302 432 Q 302 468 303 504 L 304 548 Q 305 605 311 633 Q 312 646 306 651 Q 293 663 281 670 C 257 687 239 688 248 659 Q 261 632 263 536 L 262 405 Q 262 255 243 140 Q 228 92 273 32 Q 277 25 284 22 Q 294 21 300 34 Q 312 65 308 94 Q 302 263 302 408 L 302 432 Z" style="fill: #0070C0;"></path>
                                                                        <path d="M 249 489 Q 206 372 62 181 Q 56 171 68 170 Q 89 170 187 287 Q 227 336 262 405 C 318 514 260 517 249 489 Z" style="fill: #0070C0;"></path>
                                                                        <path d="M 302 408 Q 363 347 388 348 Q 400 348 403 364 Q 404 376 394 393 Q 382 409 358 416 Q 319 431 303 433 Q 302 433 302 432 C 281 429 281 429 302 408 Z" style="fill: #0070C0;"></path>
                                                                        <path d="M 507 700 Q 470 721 453 713 Q 443 706 450 693 Q 468 671 474 608 Q 474 419 456 321 Q 452 305 448 287 Q 423 194 352 58 Q 348 51 347 45 Q 346 35 355 38 Q 371 41 402 91 Q 526 253 527 570 Q 527 655 535 664 C 540 684 534 687 507 700 Z" style="fill: #0070C0;"></path>
                                                                        <path d="M 535 664 Q 637 695 764 717 Q 783 720 792 709 Q 808 702 813 634 Q 832 411 821 155 Q 821 118 807 107 Q 791 95 710 114 Q 692 117 694 107 Q 695 100 709 93 Q 782 47 820 9 Q 842 -10 855 -8 Q 868 -4 879 26 Q 895 74 892 142 Q 870 494 871 623 Q 871 662 883 686 Q 895 708 884 719 Q 874 735 826 758 Q 805 770 741 748 Q 636 721 507 700 C 477 695 506 656 535 664 Z" style="fill: #0070C0;"></path>
                                                                        <path d="M 678 535 Q 712 545 748 553 Q 773 560 776 564 Q 783 571 779 578 Q 772 588 747 593 Q 719 599 682 580 L 634 564 Q 603 557 566 552 Q 535 545 558 532 Q 586 517 636 525 L 678 535 Z" style="fill: #0070C0;"></path>
                                                                        <path d="M 670 449 Q 674 494 678 535 L 682 580 Q 682 584 683 589 Q 686 607 688 619 Q 698 644 681 658 Q 653 673 635 676 Q 622 677 616 672 Q 610 666 616 654 Q 631 635 631 622 Q 632 594 634 564 L 636 525 Q 636 485 636 441 C 636 411 667 419 670 449 Z" style="fill: #0070C0;"></path>
                                                                        <path d="M 636 441 Q 615 438 559 430 Q 537 427 554 414 Q 575 398 614 404 Q 708 423 771 431 Q 780 430 786 440 Q 787 449 769 456 Q 745 472 673 450 Q 672 450 670 449 L 636 441 Z" style="fill: #0070C0;"></path>
                                                                        <path d="M 578 335 Q 568 339 543 344 Q 533 347 530 342 Q 526 338 532 324 Q 554 281 567 209 Q 570 188 582 174 Q 598 155 602 169 Q 605 179 605 196 L 601 226 Q 591 289 589 310 C 587 332 587 332 578 335 Z" style="fill: #0070C0;"></path>
                                                                        <path d="M 735 238 Q 753 295 771 311 Q 792 333 772 346 Q 754 356 731 373 Q 715 383 698 373 Q 665 354 578 335 C 549 328 560 303 589 310 Q 592 311 674 329 Q 698 333 703 325 Q 709 321 702 295 Q 698 273 690 248 C 681 219 726 209 735 238 Z" style="fill: #0070C0;"></path>
                                                                        <path d="M 605 196 Q 614 195 624 197 Q 661 204 741 211 Q 751 212 752 221 Q 752 228 735 238 L 690 248 Q 684 248 680 246 Q 637 234 601 226 C 572 219 575 198 605 196 Z" style="fill: #0070C0;"></path>
                                    
                                    
                                                                                                                                                                                                                                                                                                                                                                                                                                                                                                                                                                                                                                                                                                                                                                                                                                                                                                                                                                                                                                                                                                        </g>
                            </svg>