<svg width='83' height='83' >
                                <g transform="translate(3, 70) scale(0.07, -0.07)">
                                    <!-- 先将完整的字以灰色字体绘制完成，层级位于下面 -->
                                                                        <path d="M 283 670 Q 361 701 408 709 Q 424 709 428 716 Q 432 726 421 737 Q 402 753 359 771 Q 346 778 332 778 Q 325 774 324 764 Q 324 725 125 643 Q 121 636 125 632 Q 137 629 227 654 Q 240 658 253 660 L 283 670 Z" style="fill: #0070C0;"></path>
                                                                        <path d="M 311 494 Q 357 507 414 519 Q 430 522 431 529 Q 431 542 413 550 Q 380 562 312 539 L 271 528 Q 150 501 95 491 Q 82 490 80 481 Q 77 471 93 460 Q 135 433 179 453 Q 221 471 256 480 L 311 494 Z" style="fill: #0070C0;"></path>
                                                                        <path d="M 310 428 Q 310 461 311 494 L 312 539 Q 313 600 319 629 Q 320 642 314 647 Q 298 662 283 670 C 258 686 241 687 253 660 Q 271 635 271 528 L 270 402 Q 270 213 250 131 Q 235 121 260 66 Q 272 30 292 18 Q 302 17 308 30 Q 320 61 316 90 Q 310 256 310 398 L 310 428 Z" style="fill: #0070C0;"></path>
                                                                        <path d="M 256 480 Q 202 348 42 145 Q 38 135 48 134 Q 54 133 63 142 Q 192 251 270 402 C 323 503 268 508 256 480 Z" style="fill: #0070C0;"></path>
                                                                        <path d="M 310 398 Q 355 341 373 339 Q 383 338 389 351 Q 390 361 385 377 Q 376 395 355 406 Q 327 422 310 428 C 282 438 291 422 310 398 Z" style="fill: #0070C0;"></path>
                                                                        <path d="M 678 784 Q 612 735 485 684 Q 479 675 486 672 Q 517 665 677 719 Q 717 740 782 749 Q 800 749 804 757 Q 808 767 797 780 Q 733 828 702 824 Q 695 821 693 809 Q 692 794 678 784 Z" style="fill: #0070C0;"></path>
                                                                        <path d="M 461 573 Q 480 551 499 522 Q 506 510 519 509 Q 528 508 533 517 Q 539 527 537 551 Q 534 578 465 610 Q 453 616 448 614 Q 444 613 443 602 Q 444 593 461 573 Z" style="fill: #0070C0;"></path>
                                                                        <path d="M 593 614 Q 617 569 640 550 Q 650 546 660 553 Q 667 562 668 575 Q 665 606 610 640 Q 598 647 590 646 Q 586 646 585 636 Q 584 627 593 614 Z" style="fill: #0070C0;"></path>
                                                                        <path d="M 791 633 Q 769 600 687 510 Q 677 494 694 497 Q 713 509 831 589 Q 850 605 874 614 Q 895 624 884 641 Q 871 657 846 673 Q 824 686 811 684 Q 798 683 802 669 Q 805 651 791 633 Z" style="fill: #0070C0;"></path>
                                                                        <path d="M 480 361 Q 504 374 520 385 Q 571 418 589 425 Q 605 432 599 446 Q 589 459 571 471 Q 553 483 543 481 Q 533 481 536 471 Q 537 450 495 405 Q 480 390 466 374 C 446 352 454 347 480 361 Z" style="fill: #0070C0;"></path>
                                                                        <path d="M 466 374 Q 456 380 429 386 Q 417 390 413 385 Q 406 379 414 363 Q 445 278 456 145 Q 456 105 477 76 Q 493 54 499 69 Q 503 79 505 92 L 506 128 Q 500 177 493 230 L 489 262 Q 482 332 481 350 Q 481 357 480 361 C 479 368 479 368 466 374 Z" style="fill: #0070C0;"></path>
                                                                        <path d="M 493 230 Q 551 243 596 251 Q 618 257 610 268 Q 598 281 572 285 Q 532 288 489 262 C 463 247 464 223 493 230 Z" style="fill: #0070C0;"></path>
                                                                        <path d="M 760 111 Q 769 86 789 40 Q 796 24 807 24 Q 822 25 832 50 Q 866 114 874 200 Q 883 254 890 316 Q 897 359 921 384 Q 937 400 927 413 Q 909 434 870 455 Q 854 465 824 457 Q 797 447 766 439 Q 736 433 691 428 Q 684 429 682 425 Q 681 419 690 412 Q 717 396 752 401 Q 827 417 833 406 Q 837 393 839 379 Q 836 339 831 296 L 826 259 Q 819 205 806 152 Q 803 133 794 130 Q 793 130 791 130 C 770 109 757 119 760 111 Z" style="fill: #0070C0;"></path>
                                                                        <path d="M 831 296 Q 803 311 697 281 Q 679 280 699 261 Q 706 255 720 256 Q 778 259 826 259 C 856 259 859 284 831 296 Z" style="fill: #0070C0;"></path>
                                                                        <path d="M 505 92 Q 512 91 522 92 Q 598 107 760 111 C 790 112 806 112 791 130 Q 784 140 764 154 Q 748 164 714 158 Q 599 137 506 128 C 476 125 475 94 505 92 Z" style="fill: #0070C0;"></path>
                                    
                                    
                                                                                                                                                                                                                                                                                                                                                                                                                                                                                                                                                                                                                                                                                                                                                                                                                                                                                                                                                                                                                                                                                                                                                                                                                                                                </g>
                            </svg>