<svg width='83' height='83' >
                                <g transform="translate(3, 70) scale(0.07, -0.07)">
                                    <!-- 先将完整的字以灰色字体绘制完成，层级位于下面 -->
                                                                        <path d="M 455 789 Q 483 767 513 740 Q 529 727 545 729 Q 555 730 561 744 Q 565 760 554 791 Q 542 822 447 839 Q 431 843 424 839 Q 418 835 421 821 Q 425 811 455 789 Z" style="fill: #0070C0;"></path>
                                                                        <path d="M 278 654 Q 268 676 258 684 Q 240 700 237 674 Q 243 638 175 566 Q 154 542 179 487 Q 192 460 214 487 Q 233 512 247 549 Q 265 595 278 623 L 278 624 L 278 654 Z" style="fill: #0070C0;"></path>
                                                                        <path d="M 278 624 Q 302 611 327 616 Q 481 659 705 674 Q 727 675 739 673 Q 755 660 753 653 Q 753 652 725 578 Q 718 565 725 561 Q 732 557 748 569 Q 800 608 845 621 Q 882 634 880 642 Q 879 652 808 703 Q 787 721 716 708 Q 545 689 383 665 Q 329 658 278 654 C 248 651 250 635 278 624 Z" style="fill: #0070C0;"></path>
                                                                        <path d="M 359 570 Q 365 548 320 481 Q 298 451 267 418 Q 260 411 257 407 Q 253 400 264 400 Q 300 400 392 500 Q 405 516 415 523 Q 422 530 421 540 Q 420 550 400 569 Q 382 585 369 586 Q 356 586 359 570 Z" style="fill: #0070C0;"></path>
                                                                        <path d="M 594 546 Q 631 516 672 479 Q 684 469 696 469 Q 705 470 709 481 Q 713 493 706 517 Q 697 553 590 586 Q 577 589 572 587 Q 568 583 569 573 Q 572 563 594 546 Z" style="fill: #0070C0;"></path>
                                                                        <path d="M 488 321 Q 564 337 629 345 Q 660 348 667 338 Q 677 320 667 275 Q 645 148 611 95 Q 592 62 563 69 Q 533 78 507 89 Q 482 96 500 73 Q 546 27 569 -7 Q 590 -32 611 -13 Q 645 9 670 52 Q 700 101 724 254 Q 733 309 753 335 Q 766 348 761 361 Q 751 374 695 401 Q 673 411 651 397 Q 618 381 500 356 L 436 344 Q 331 326 243 322 Q 222 322 218 312 Q 217 302 244 288 Q 272 269 296 277 Q 365 296 427 308 L 488 321 Z" style="fill: #0070C0;"></path>
                                                                        <path d="M 427 308 Q 367 145 244 67 Q 240 66 236 62 Q 223 53 205 44 Q 187 34 170 24 Q 155 17 168 12 Q 231 6 323 70 Q 363 97 419 170 Q 458 224 480 297 Q 484 310 488 321 L 500 356 Q 501 359 502 361 Q 511 395 529 423 Q 542 439 526 451 Q 483 494 453 488 Q 438 485 443 469 Q 461 423 436 344 L 427 308 Z" style="fill: #0070C0;"></path>
                                    
                                    
                                                                                                                                                                                                                                                                                                                                                                                                                                                                                                                                                                                                                                </g>
                            </svg>