<svg width='83' height='83' >
                                <g transform="translate(3, 70) scale(0.07, -0.07)">
                                    <!-- 先将完整的字以灰色字体绘制完成，层级位于下面 -->
                                                                        <path d="M 467 796 Q 524 739 559 727 Q 577 724 586 740 Q 593 756 588 775 Q 579 803 558 816 Q 509 844 463 844 Q 454 844 449 841 Q 442 840 446 825 Q 447 812 467 796 Z" style="fill: #0070C0;"></path>
                                                                        <path d="M 271 628 Q 259 652 248 660 Q 229 676 226 647 Q 229 626 212 590 Q 161 536 163 518 Q 163 491 179 459 Q 195 431 217 460 Q 233 485 246 522 Q 261 568 272 594 C 279 612 279 612 271 628 Z" style="fill: #0070C0;"></path>
                                                                        <path d="M 272 594 Q 294 582 332 591 Q 455 630 678 654 Q 727 660 743 657 Q 756 644 753 636 Q 753 635 721 553 Q 714 537 721 533 Q 730 529 748 542 Q 809 585 860 598 Q 900 611 900 622 Q 899 632 818 689 Q 790 710 688 688 Q 606 679 377 642 Q 325 635 271 628 C 241 624 243 603 272 594 Z" style="fill: #0070C0;"></path>
                                                                        <path d="M 351 509 Q 358 494 351 481 Q 320 412 236 321 Q 227 314 225 309 Q 221 299 233 300 Q 278 306 388 427 Q 404 446 417 456 Q 426 463 423 475 Q 422 487 399 509 Q 378 527 363 528 Q 347 528 351 509 Z" style="fill: #0070C0;"></path>
                                                                        <path d="M 599 481 Q 641 450 686 413 Q 699 401 714 403 Q 724 404 729 416 Q 733 431 723 459 Q 716 484 676 502 Q 589 535 572 527 Q 568 523 569 511 Q 573 501 599 481 Z" style="fill: #0070C0;"></path>
                                                                        <path d="M 512 276 Q 686 306 693 311 Q 703 318 699 328 Q 692 340 662 349 Q 632 356 532 327 Q 418 306 340 301 Q 303 297 328 278 Q 370 251 430 263 Q 446 267 465 269 L 512 276 Z" style="fill: #0070C0;"></path>
                                                                        <path d="M 522 100 Q 528 203 535 226 Q 544 253 512 276 C 488 294 457 298 465 269 Q 465 268 466 267 Q 469 258 473 95 C 474 65 520 70 522 100 Z" style="fill: #0070C0;"></path>
                                                                        <path d="M 473 95 Q 334 82 175 68 Q 151 67 168 47 Q 183 31 203 24 Q 225 17 244 22 Q 491 79 846 59 Q 868 58 874 68 Q 881 81 863 97 Q 803 142 764 134 Q 673 118 522 100 L 473 95 Z" style="fill: #0070C0;"></path>
                                    
                                    
                                                                                                                                                                                                                                                                                                                                                                                                                                                                                                                                                                                                                                                                                                            </g>
                            </svg>