<svg width='83' height='83' >
                                <g transform="translate(3, 70) scale(0.07, -0.07)">
                                    <!-- 先将完整的字以灰色字体绘制完成，层级位于下面 -->
                                                                        <path d="M 462 792 Q 490 770 520 744 Q 533 732 550 734 Q 560 735 565 748 Q 569 764 558 793 Q 551 812 520 824 Q 450 848 432 839 Q 428 835 429 822 Q 433 812 462 792 Z" style="fill: #0070C0;"></path>
                                                                        <path d="M 278 667 Q 268 688 258 696 Q 240 712 237 686 Q 243 647 179 586 Q 158 565 183 507 Q 196 480 218 507 Q 236 529 249 566 Q 265 609 277 633 C 286 651 286 651 278 667 Z" style="fill: #0070C0;"></path>
                                                                        <path d="M 277 633 Q 293 626 347 636 Q 455 669 676 694 Q 725 700 741 696 Q 759 689 758 680 Q 758 677 718 602 Q 711 589 717 585 Q 724 581 740 591 Q 797 628 843 641 Q 880 653 880 662 Q 879 672 810 726 Q 786 745 707 730 Q 596 718 376 681 Q 327 674 278 667 C 248 663 247 637 277 633 Z" style="fill: #0070C0;"></path>
                                                                        <path d="M 363 608 Q 367 598 362 589 Q 344 553 281 481 Q 272 475 270 471 Q 266 464 276 464 Q 312 464 395 541 Q 408 553 417 558 Q 424 565 423 575 Q 422 585 404 605 Q 388 621 374 624 Q 361 625 363 608 Z" style="fill: #0070C0;"></path>
                                                                        <path d="M 597 591 Q 622 567 650 538 Q 660 525 675 526 Q 684 525 689 537 Q 693 550 688 575 Q 682 605 595 633 Q 582 637 576 635 Q 572 631 572 620 Q 575 610 597 591 Z" style="fill: #0070C0;"></path>
                                                                        <path d="M 464 447 Q 587 489 600 490 Q 616 491 619 498 Q 623 508 612 518 Q 557 560 528 557 Q 521 554 520 544 Q 514 502 309 419 Q 305 412 309 408 Q 328 408 438 439 L 464 447 Z" style="fill: #0070C0;"></path>
                                                                        <path d="M 438 439 Q 438 430 492 382 Q 507 369 520 369 Q 532 368 536 384 Q 537 394 528 411 Q 516 429 464 447 C 436 457 431 459 438 439 Z" style="fill: #0070C0;"></path>
                                                                        <path d="M 401 127 Q 536 182 638 264 Q 669 289 715 310 Q 740 322 729 335 Q 720 353 663 382 Q 639 394 572 366 Q 407 318 274 305 Q 250 305 257 290 Q 264 277 294 266 Q 324 254 357 268 Q 459 305 591 337 Q 610 340 602 323 Q 596 307 546 262 Q 497 214 363 133 C 337 117 373 115 401 127 Z" style="fill: #0070C0;"></path>
                                                                        <path d="M 363 133 Q 311 140 256 123 Q 222 110 167 105 Q 161 105 157 97 Q 154 90 163 80 Q 179 61 204 49 Q 214 43 234 57 Q 316 118 415 78 Q 463 62 536 25 Q 729 -74 804 -49 Q 867 -30 920 7 Q 944 22 920 23 Q 790 17 667 39 Q 576 60 445 112 Q 423 122 401 127 L 363 133 Z" style="fill: #0070C0;"></path>
                                    
                                    
                                                                                                                                                                                                                                                                                                                                                                                                                                                                                                                                                                                                                                                                                                                                                                                        </g>
                            </svg>