<svg width='83' height='83' >
                                <g transform="translate(3, 70) scale(0.07, -0.07)">
                                    <!-- 先将完整的字以灰色字体绘制完成，层级位于下面 -->
                                                                        <path d="M 472 803 Q 497 782 523 757 Q 538 745 553 746 Q 563 747 569 760 Q 573 776 563 805 Q 557 823 528 835 Q 459 859 444 851 Q 440 847 441 834 Q 445 824 472 803 Z" style="fill: #0070C0;"></path>
                                                                        <path d="M 289 677 Q 276 702 264 712 Q 245 728 242 699 Q 245 678 228 642 Q 177 588 179 570 Q 179 543 195 511 Q 211 483 233 512 Q 249 537 262 574 Q 277 620 288 646 C 296 665 296 665 289 677 Z" style="fill: #0070C0;"></path>
                                                                        <path d="M 288 646 Q 309 637 358 648 Q 458 678 676 699 Q 716 703 730 700 Q 746 688 743 681 Q 743 680 713 606 Q 706 593 713 589 Q 720 585 735 597 Q 787 636 831 650 Q 867 663 866 671 Q 865 681 796 729 Q 775 745 688 730 Q 598 721 386 689 Q 337 682 289 677 C 259 674 259 652 288 646 Z" style="fill: #0070C0;"></path>
                                                                        <path d="M 393 620 Q 397 602 354 551 Q 333 529 306 504 Q 297 500 294 495 Q 290 488 300 487 Q 336 487 420 553 Q 432 563 441 568 Q 450 572 449 583 Q 448 593 433 614 Q 418 630 405 634 Q 392 635 393 620 Z" style="fill: #0070C0;"></path>
                                                                        <path d="M 575 596 Q 608 568 642 533 Q 652 523 665 522 Q 672 523 677 533 Q 681 543 676 567 Q 670 600 573 633 Q 561 636 556 635 Q 552 631 553 622 Q 554 613 575 596 Z" style="fill: #0070C0;"></path>
                                                                        <path d="M 345 383 Q 385 393 430 402 Q 463 409 467 414 Q 474 421 471 429 Q 464 439 438 446 Q 419 450 322 421 Q 238 406 212 402 Q 178 396 203 381 Q 236 365 307 375 L 345 383 Z" style="fill: #0070C0;"></path>
                                                                        <path d="M 350 202 Q 365 361 366 362 Q 356 374 345 383 C 322 403 299 404 307 375 Q 313 369 310 208 Q 310 201 310 190 C 310 160 347 172 350 202 Z" style="fill: #0070C0;"></path>
                                                                        <path d="M 310 190 Q 258 177 203 159 Q 187 155 157 155 Q 144 154 143 143 Q 142 130 150 122 Q 172 106 206 88 Q 216 85 228 93 Q 261 120 415 192 Q 437 202 453 215 Q 466 222 466 232 Q 460 238 448 235 Q 402 220 350 202 L 310 190 Z" style="fill: #0070C0;"></path>
                                                                        <path d="M 618 434 Q 687 449 807 464 Q 817 463 825 475 Q 826 485 804 496 Q 777 517 687 491 Q 612 475 504 459 Q 476 455 498 439 Q 528 418 572 425 Q 573 425 575 425 L 618 434 Z" style="fill: #0070C0;"></path>
                                                                        <path d="M 716 269 Q 735 269 743 259 Q 753 244 745 207 Q 736 153 719 117 Q 698 77 681 63 Q 671 54 644 67 Q 613 79 588 88 Q 572 95 574 84 Q 575 71 589 56 Q 625 17 643 -18 Q 658 -40 680 -29 Q 743 7 760 58 Q 778 110 803 190 Q 807 215 824 239 Q 837 257 827 268 Q 815 287 784 304 Q 760 317 743 309 Q 719 303 622 281 Q 606 278 602 284 Q 598 288 603 298 Q 616 335 633 381 Q 642 403 635 415 Q 631 424 618 434 C 598 456 570 455 575 425 Q 585 395 572 353 Q 553 289 524 266 Q 511 253 515 238 Q 522 225 532 215 Q 542 206 563 222 Q 593 247 626 256 Q 687 272 716 269 Z" style="fill: #0070C0;"></path>
                                    
                                    
                                                                                                                                                                                                                                                                                                                                                                                                                                                                                                                                                                                                                                                                                                                                                                                                                                                                    </g>
                            </svg>