<svg width='83' height='83' >
                                <g transform="translate(3, 70) scale(0.07, -0.07)">
                                    <!-- 先将完整的字以灰色字体绘制完成，层级位于下面 -->
                                                                        <path d="M 440 735 Q 513 672 557 663 Q 576 662 586 680 Q 590 696 585 718 Q 561 772 453 785 Q 450 786 449 786 Q 427 789 416 782 Q 409 779 414 765 Q 418 750 440 735 Z" style="fill: #0070C0;"></path>
                                                                        <path d="M 284 510 Q 242 503 272 484 Q 321 456 382 470 Q 527 498 679 527 Q 748 543 758 552 Q 768 561 763 570 Q 756 583 723 593 Q 687 600 601 570 Q 442 524 284 510 Z" style="fill: #0070C0;"></path>
                                                                        <path d="M 327 337 Q 351 297 375 251 Q 385 235 400 229 Q 410 226 421 237 Q 431 250 432 283 Q 433 322 338 387 Q 325 396 317 395 Q 310 394 308 379 Q 307 367 327 337 Z" style="fill: #0070C0;"></path>
                                                                        <path d="M 567 156 Q 597 205 645 320 Q 658 354 686 398 Q 702 414 691 427 Q 678 448 638 470 Q 619 482 598 472 Q 586 465 595 452 Q 605 421 599 384 Q 581 299 534 180 Q 528 167 527 153 C 523 123 552 130 567 156 Z" style="fill: #0070C0;"></path>
                                                                        <path d="M 527 153 Q 464 150 231 113 Q 174 106 123 108 Q 113 108 104 101 Q 97 94 103 83 Q 115 65 174 35 Q 189 28 212 38 Q 368 98 536 113 Q 678 126 910 82 Q 931 79 938 89 Q 947 102 925 119 Q 840 188 796 175 Q 772 171 567 156 L 527 153 Z" style="fill: #0070C0;"></path>
                                    
                                    
                                                                                                                                                                                                                                                                                                                                                                                                                                                                        </g>
                            </svg>