<svg width='83' height='83' >
                                <g transform="translate(3, 70) scale(0.07, -0.07)">
                                    <!-- 先将完整的字以灰色字体绘制完成，层级位于下面 -->
                                                                        <path d="M 236 463 Q 285 536 336 636 Q 361 694 387 722 Q 397 734 390 748 Q 386 761 354 783 Q 324 799 305 798 Q 286 795 295 773 Q 314 737 302 706 Q 266 600 208 500 Q 151 403 73 297 Q 63 285 61 279 Q 58 266 73 270 Q 116 288 218 438 Q 217 439 218 439 L 236 463 Z" style="fill: #0070C0;"></path>
                                                                        <path d="M 218 439 Q 255 420 309 430 L 342 438 Q 498 483 500 483 Q 509 492 504 500 Q 497 512 466 518 Q 435 522 405 508 Q 368 495 326 482 Q 283 472 236 463 C 207 457 191 451 218 439 Z" style="fill: #0070C0;"></path>
                                                                        <path d="M 309 430 Q 322 397 299 205 Q 298 198 296 190 Q 295 172 291 163 Q 275 121 322 62 Q 323 61 327 58 Q 337 57 343 68 Q 356 96 354 126 Q 357 342 368 403 Q 371 413 364 420 Q 352 430 342 438 C 319 457 302 459 309 430 Z" style="fill: #0070C0;"></path>
                                                                        <path d="M 606 497 Q 646 567 689 663 Q 708 715 729 743 Q 736 756 730 769 Q 723 782 689 802 Q 658 817 638 814 Q 619 810 631 787 Q 650 757 642 728 Q 618 631 574 537 Q 532 447 470 346 Q 461 333 460 326 Q 459 314 473 319 Q 507 332 589 468 L 606 497 Z" style="fill: #0070C0;"></path>
                                                                        <path d="M 717 476 Q 802 500 929 518 Q 944 522 944 529 Q 944 542 918 558 Q 876 585 808 551 Q 784 544 606 497 C 577 489 560 475 589 468 Q 616 459 674 467 L 717 476 Z" style="fill: #0070C0;"></path>
                                                                        <path d="M 671 103 Q 626 121 583 138 Q 570 142 571 134 Q 571 127 581 118 Q 663 37 690 -9 Q 705 -28 722 -14 Q 761 25 764 95 Q 757 150 756 352 Q 757 391 768 417 Q 778 436 760 450 Q 739 468 717 476 C 690 489 661 494 674 467 Q 702 410 702 374 Q 708 214 701 129 Q 700 111 690 105 Q 683 99 671 103 Z" style="fill: #0070C0;"></path>
                                    
                                    
                                                                                                                                                                                                                                                                                                                                                                                                                                                                                                                                                    </g>
                            </svg>