<svg width='83' height='83' >
                                <g transform="translate(3, 70) scale(0.07, -0.07)">
                                    <!-- 先将完整的字以灰色字体绘制完成，层级位于下面 -->
                                                                        <path d="M 327 650 Q 349 690 371 725 Q 381 738 365 754 Q 317 787 291 782 Q 279 779 283 764 Q 301 653 186 514 Q 171 508 137 457 Q 128 441 144 446 Q 165 450 191 473 Q 270 543 313 624 L 327 650 Z" style="fill: #0070C0;"></path>
                                                                        <path d="M 313 624 Q 358 605 407 620 Q 449 629 493 639 Q 512 643 516 647 Q 525 656 520 664 Q 513 676 482 682 Q 451 686 420 673 Q 381 661 327 650 C 298 644 285 635 313 624 Z" style="fill: #0070C0;"></path>
                                                                        <path d="M 332 500 Q 372 445 399 433 Q 412 429 423 441 Q 430 453 429 469 Q 425 493 408 507 Q 396 516 345 538 Q 330 544 322 540 Q 315 539 317 527 Q 318 515 332 500 Z" style="fill: #0070C0;"></path>
                                                                        <path d="M 624 662 Q 636 698 675 776 Q 684 792 666 804 Q 617 832 590 824 Q 578 820 584 805 Q 608 715 532 582 Q 493 528 483 509 Q 477 491 492 499 Q 511 505 533 528 Q 581 579 610 634 L 624 662 Z" style="fill: #0070C0;"></path>
                                                                        <path d="M 610 634 Q 661 612 718 627 Q 770 639 827 650 Q 852 656 856 660 Q 866 669 860 679 Q 851 692 818 699 Q 784 705 750 690 Q 722 681 692 673 Q 661 667 624 662 C 594 658 582 645 610 634 Z" style="fill: #0070C0;"></path>
                                                                        <path d="M 651 513 Q 679 491 709 464 Q 725 451 741 453 Q 751 454 757 468 Q 761 484 750 515 Q 738 546 643 563 Q 627 567 620 563 Q 614 559 617 545 Q 621 535 651 513 Z" style="fill: #0070C0;"></path>
                                                                        <path d="M 329 333 Q 287 329 316 308 Q 362 278 426 290 Q 525 306 627 321 Q 673 330 681 336 Q 691 345 687 354 Q 680 369 647 378 Q 614 387 528 361 Q 404 337 329 333 Z" style="fill: #0070C0;"></path>
                                                                        <path d="M 157 119 Q 130 118 149 95 Q 165 77 188 70 Q 215 63 235 67 Q 505 130 871 108 Q 896 107 902 118 Q 909 133 890 150 Q 814 213 764 189 Q 547 155 157 119 Z" style="fill: #0070C0;"></path>
                                    
                                    
                                                                                                                                                                                                                                                                                                                                                                                                                                                                                                                                                                                                                                                                                                            </g>
                            </svg>