<svg width='83' height='83' >
                                <g transform="translate(3, 70) scale(0.07, -0.07)">
                                    <!-- 先将完整的字以灰色字体绘制完成，层级位于下面 -->
                                                                        <path d="M 337 673 Q 358 710 378 741 Q 388 754 373 770 Q 325 803 299 798 Q 287 795 291 780 Q 309 687 207 560 Q 200 557 165 509 Q 156 493 172 498 Q 191 502 214 521 Q 281 578 321 645 L 337 673 Z" style="fill: #0070C0;"></path>
                                                                        <path d="M 321 645 Q 357 636 439 645 Q 463 649 489 652 Q 510 656 514 658 Q 521 665 518 673 Q 512 685 486 692 Q 459 699 387 679 Q 381 679 337 673 C 307 669 292 651 321 645 Z" style="fill: #0070C0;"></path>
                                                                        <path d="M 331 534 Q 352 513 374 487 Q 384 474 398 474 Q 408 474 413 485 Q 419 497 413 523 Q 406 553 331 576 Q 318 580 312 579 Q 308 576 308 564 Q 309 554 331 534 Z" style="fill: #0070C0;"></path>
                                                                        <path d="M 656 706 Q 675 743 695 775 Q 705 788 689 803 Q 641 836 617 828 Q 605 825 609 810 Q 627 716 536 595 Q 524 591 496 544 Q 489 528 504 534 Q 522 538 544 558 Q 605 613 641 677 L 656 706 Z" style="fill: #0070C0;"></path>
                                                                        <path d="M 641 677 Q 686 661 731 670 Q 780 679 831 687 Q 855 691 858 695 Q 868 702 863 712 Q 856 724 826 732 Q 795 739 764 727 Q 739 720 710 713 Q 685 709 656 706 C 626 703 613 687 641 677 Z" style="fill: #0070C0;"></path>
                                                                        <path d="M 659 555 Q 686 533 713 504 Q 728 491 744 490 Q 754 491 761 505 Q 765 520 757 551 Q 751 572 720 586 Q 647 614 632 607 Q 626 603 628 590 Q 632 578 659 555 Z" style="fill: #0070C0;"></path>
                                                                        <path d="M 466 463 Q 497 424 529 411 Q 542 408 551 421 Q 557 433 554 448 Q 542 484 494 495 Q 457 501 453 500 Q 447 499 450 487 Q 451 477 466 463 Z" style="fill: #0070C0;"></path>
                                                                        <path d="M 308 353 Q 271 349 296 330 Q 339 303 395 312 Q 527 330 664 349 Q 727 359 737 367 Q 747 374 742 384 Q 736 397 707 406 Q 676 413 645 404 Q 572 385 495 370 Q 408 357 308 353 Z" style="fill: #0070C0;"></path>
                                                                        <path d="M 357 203 Q 375 176 394 146 Q 404 130 421 127 Q 433 126 441 137 Q 448 152 447 184 Q 446 203 419 222 Q 356 262 340 259 Q 334 256 333 243 Q 334 230 357 203 Z" style="fill: #0070C0;"></path>
                                                                        <path d="M 552 75 Q 576 96 633 189 Q 646 210 668 236 Q 684 249 676 261 Q 666 280 634 304 Q 619 317 600 311 Q 588 307 595 294 Q 604 249 536 109 Q 526 87 524 73 Q 523 73 523 72 C 515 43 531 54 552 75 Z" style="fill: #0070C0;"></path>
                                                                        <path d="M 529 30 Q 581 31 633 36 Q 762 46 909 29 Q 933 25 939 34 Q 946 47 935 59 Q 907 87 863 108 Q 850 115 823 107 Q 754 94 683 86 Q 604 82 552 75 L 523 72 Q 496 75 321 55 Q 254 46 151 48 Q 138 49 136 38 Q 135 25 153 10 Q 169 -3 200 -15 Q 210 -19 229 -12 Q 245 -8 318 4 Q 412 23 529 30 Z" style="fill: #0070C0;"></path>
                                    
                                    
                                                                                                                                                                                                                                                                                                                                                                                                                                                                                                                                                                                                                                                                                                                                                                                                                                                                                                                                                </g>
                            </svg>