<svg width='83' height='83' >
                                <g transform="translate(3, 70) scale(0.07, -0.07)">
                                    <!-- 先将完整的字以灰色字体绘制完成，层级位于下面 -->
                                                                        <path d="M 324 736 Q 334 751 344 763 Q 353 773 341 787 Q 304 817 281 815 Q 271 814 272 800 Q 281 727 199 632 Q 198 632 165 595 Q 158 582 171 585 Q 217 589 286 679 Q 304 709 309 713 L 324 736 Z" style="fill: #0070C0;"></path>
                                                                        <path d="M 309 713 Q 345 700 404 708 Q 440 714 478 721 Q 499 725 502 728 Q 509 735 506 742 Q 500 752 476 759 Q 458 763 377 743 Q 350 739 324 736 C 294 733 280 722 309 713 Z" style="fill: #0070C0;"></path>
                                                                        <path d="M 343 622 Q 364 606 387 585 Q 397 576 410 577 Q 417 578 421 588 Q 424 600 416 623 Q 412 636 387 647 Q 333 663 320 659 Q 316 655 318 645 Q 321 638 343 622 Z" style="fill: #0070C0;"></path>
                                                                        <path d="M 618 747 Q 634 775 650 798 Q 660 811 646 823 Q 607 854 582 849 Q 572 848 574 833 Q 587 754 504 652 Q 483 630 473 615 Q 466 602 479 606 Q 494 607 514 624 Q 569 667 603 722 L 618 747 Z" style="fill: #0070C0;"></path>
                                                                        <path d="M 603 722 Q 645 710 725 727 Q 830 754 832 754 Q 839 761 835 769 Q 828 779 801 786 Q 773 790 747 779 Q 717 769 685 759 Q 652 752 618 747 C 588 743 574 729 603 722 Z" style="fill: #0070C0;"></path>
                                                                        <path d="M 663 638 Q 694 622 727 602 Q 740 595 754 597 Q 764 600 765 612 Q 766 625 753 649 Q 740 673 650 678 Q 637 678 631 675 Q 628 671 632 660 Q 636 651 663 638 Z" style="fill: #0070C0;"></path>
                                                                        <path d="M 243 515 Q 219 515 220 501 Q 221 491 245 474 Q 272 456 316 465 Q 409 495 560 517 Q 677 535 683 504 Q 683 480 681 397 Q 677 225 680 118 Q 683 39 676 30 Q 672 23 662 22 Q 652 21 590 30 Q 577 33 575 27 Q 574 20 600 2 Q 643 -26 671 -56 Q 696 -83 707 -79 Q 717 -78 725 -60 Q 749 -6 746 28 Q 716 458 759 502 Q 765 511 764 515 Q 765 527 734 550 Q 691 580 679 580 Q 667 580 653 575 Q 592 556 461 534 Q 334 515 243 515 Z" style="fill: #0070C0;"></path>
                                                                        <path d="M 280 390 Q 246 384 271 369 Q 310 348 360 360 Q 427 375 498 390 Q 531 397 535 402 Q 542 409 539 417 Q 532 427 506 434 Q 487 438 390 409 Q 306 394 280 390 Z" style="fill: #0070C0;"></path>
                                                                        <path d="M 295 277 Q 283 283 253 289 Q 240 292 237 287 Q 230 280 239 264 Q 263 218 279 139 Q 282 115 296 100 Q 314 78 319 93 Q 323 105 322 123 L 319 154 Q 309 227 307 250 C 305 273 305 273 295 277 Z" style="fill: #0070C0;"></path>
                                                                        <path d="M 493 170 Q 512 236 532 255 Q 554 280 532 294 Q 474 330 464 329 Q 457 329 449 324 Q 403 294 295 277 C 265 272 279 240 307 250 Q 319 256 416 275 Q 447 282 455 270 Q 462 264 455 236 Q 451 211 444 181 C 437 152 484 141 493 170 Z" style="fill: #0070C0;"></path>
                                                                        <path d="M 322 123 Q 329 123 340 124 Q 389 134 497 144 Q 507 145 508 153 Q 508 159 493 170 L 444 181 Q 440 182 436 180 Q 372 164 319 154 C 290 148 292 122 322 123 Z" style="fill: #0070C0;"></path>
                                    
                                    
                                                                                                                                                                                                                                                                                                                                                                                                                                                                                                                                                                                                                                                                                                                                                                                                                                                                                                                                                </g>
                            </svg>