<svg width='83' height='83' >
                                <g transform="translate(3, 70) scale(0.07, -0.07)">
                                    <!-- 先将完整的字以灰色字体绘制完成，层级位于下面 -->
                                                                        <path d="M 321 714 Q 336 741 351 763 Q 360 775 346 788 Q 307 815 282 813 Q 272 810 275 797 Q 288 709 202 604 Q 193 600 164 559 Q 157 546 171 550 Q 187 553 208 570 Q 272 624 308 690 L 321 714 Z" style="fill: #0070C0;"></path>
                                                                        <path d="M 308 690 Q 351 675 392 684 Q 437 693 483 702 Q 504 706 507 710 Q 514 717 511 725 Q 504 735 478 742 Q 450 748 423 736 Q 389 727 321 714 C 292 708 279 699 308 690 Z" style="fill: #0070C0;"></path>
                                                                        <path d="M 352 600 Q 370 587 388 569 Q 400 559 413 560 Q 422 561 425 572 Q 428 585 419 609 Q 415 622 392 630 Q 341 643 328 639 Q 324 635 326 625 Q 329 616 352 600 Z" style="fill: #0070C0;"></path>
                                                                        <path d="M 630 732 Q 648 769 666 799 Q 675 812 659 824 Q 614 854 592 846 Q 582 843 585 829 Q 604 753 529 639 Q 514 624 492 588 Q 485 572 499 578 Q 515 582 535 601 Q 587 650 617 706 L 630 732 Z" style="fill: #0070C0;"></path>
                                                                        <path d="M 617 706 Q 660 694 719 704 Q 765 713 814 723 Q 839 729 843 733 Q 852 740 847 749 Q 840 759 812 767 Q 782 771 753 760 Q 725 750 694 743 Q 664 737 630 732 C 600 728 588 713 617 706 Z" style="fill: #0070C0;"></path>
                                                                        <path d="M 660 606 Q 685 584 712 556 Q 724 544 738 544 Q 748 545 753 557 Q 757 570 750 597 Q 746 616 717 630 Q 651 654 636 651 Q 632 647 632 636 Q 636 626 660 606 Z" style="fill: #0070C0;"></path>
                                                                        <path d="M 396 438 Q 411 462 428 478 Q 435 482 434 493 Q 433 502 422 513 Q 394 541 362 537 Q 353 536 355 524 Q 364 463 270 354 Q 267 353 266 350 Q 238 319 169 259 Q 162 255 171 252 Q 219 252 322 349 Q 323 352 327 354 Q 346 375 372 407 L 396 438 Z" style="fill: #0070C0;"></path>
                                                                        <path d="M 487 404 Q 592 423 701 440 Q 756 452 766 459 Q 775 466 771 476 Q 764 488 734 497 Q 704 504 673 493 Q 609 474 539 458 Q 472 446 396 438 C 366 435 343 416 372 407 Q 414 392 457 399 L 487 404 Z" style="fill: #0070C0;"></path>
                                                                        <path d="M 519 167 Q 519 216 520 267 L 521 296 Q 522 339 526 361 Q 529 373 522 379 Q 503 395 487 404 C 462 420 443 425 457 399 Q 457 396 461 392 Q 488 352 462 87 Q 461 77 459 67 Q 458 42 454 31 Q 439 -6 485 -68 Q 489 -75 496 -78 Q 506 -79 512 -67 Q 524 -36 521 -6 Q 520 70 519 139 L 519 167 Z" style="fill: #0070C0;"></path>
                                                                        <path d="M 520 267 Q 553 258 636 271 Q 670 278 707 284 Q 731 288 735 293 Q 744 300 739 309 Q 732 319 704 327 Q 674 333 646 321 Q 618 312 588 305 Q 557 301 521 296 C 491 292 491 273 520 267 Z" style="fill: #0070C0;"></path>
                                                                        <path d="M 519 139 Q 561 121 601 131 Q 659 140 718 148 Q 746 152 750 157 Q 759 164 754 172 Q 748 184 720 192 Q 692 199 662 189 Q 631 182 598 175 Q 561 169 519 167 C 489 165 491 150 519 139 Z" style="fill: #0070C0;"></path>
                                    
                                    
                                                                                                                                                                                                                                                                                                                                                                                                                                                                                                                                                                                                                                                                                                                                                                                                                                                                                                                                                </g>
                            </svg>