<svg width='83' height='83' >
                                <g transform="translate(3, 70) scale(0.07, -0.07)">
                                    <!-- 先将完整的字以灰色字体绘制完成，层级位于下面 -->
                                                                        <path d="M 323 694 Q 341 722 358 746 Q 367 758 354 771 Q 318 801 290 798 Q 280 795 282 782 Q 297 701 208 600 Q 187 578 177 563 Q 170 550 183 554 Q 198 555 218 571 Q 275 616 309 670 L 323 694 Z" style="fill: #0070C0;"></path>
                                                                        <path d="M 309 670 Q 342 658 404 669 Q 443 678 483 686 Q 505 690 508 694 Q 515 701 511 709 Q 504 719 477 726 Q 456 729 383 707 Q 347 698 323 694 C 293 689 280 679 309 670 Z" style="fill: #0070C0;"></path>
                                                                        <path d="M 346 610 Q 388 550 410 546 Q 423 545 429 561 Q 432 573 424 592 Q 417 607 396 615 Q 365 631 352 635 Q 343 636 342 626 Q 341 619 346 610 Z" style="fill: #0070C0;"></path>
                                                                        <path d="M 620 718 Q 641 758 661 790 Q 670 803 655 816 Q 612 846 588 840 Q 578 837 581 823 Q 599 735 509 621 Q 487 596 476 580 Q 469 564 484 570 Q 500 574 520 592 Q 575 640 608 696 L 620 718 Z" style="fill: #0070C0;"></path>
                                                                        <path d="M 608 696 Q 645 675 696 690 Q 753 702 812 716 Q 840 722 844 726 Q 851 733 847 741 Q 840 751 813 758 Q 786 762 759 751 Q 728 741 695 731 Q 661 724 620 718 C 590 714 581 710 608 696 Z" style="fill: #0070C0;"></path>
                                                                        <path d="M 654 619 Q 681 597 708 571 Q 720 561 732 561 Q 741 562 745 573 Q 749 585 741 609 Q 737 627 709 640 Q 646 664 632 659 Q 628 655 629 645 Q 632 635 654 619 Z" style="fill: #0070C0;"></path>
                                                                        <path d="M 365 450 Q 381 474 400 493 Q 410 505 398 521 Q 358 557 333 555 Q 321 554 322 539 Q 328 449 225 349 Q 222 348 182 308 Q 172 293 188 297 Q 243 303 334 407 Q 346 425 349 428 L 365 450 Z" style="fill: #0070C0;"></path>
                                                                        <path d="M 631 31 Q 615 30 541 69 Q 531 73 531 68 Q 530 64 540 54 Q 586 0 606 -37 Q 616 -61 631 -60 Q 650 -61 669 -42 Q 739 12 757 150 Q 773 243 781 386 Q 782 419 803 443 Q 816 456 816 466 Q 815 473 794 488 Q 767 507 730 519 Q 708 526 633 503 Q 615 500 594 494 Q 498 470 365 450 C 335 445 319 430 349 428 Q 350 428 352 427 Q 382 420 510 442 Q 693 478 708 461 Q 723 431 712 261 Q 700 129 664 64 Q 651 33 631 31 Z" style="fill: #0070C0;"></path>
                                                                        <path d="M 346 315 Q 336 319 309 324 Q 299 328 295 323 Q 288 317 297 302 Q 322 247 338 156 Q 341 129 357 111 Q 373 90 378 105 Q 384 120 381 148 L 376 180 Q 363 259 361 286 C 359 311 359 311 346 315 Z" style="fill: #0070C0;"></path>
                                                                        <path d="M 533 204 Q 552 268 573 288 Q 597 315 573 330 Q 554 342 526 360 Q 508 372 459 345 Q 414 327 346 315 C 316 310 332 277 361 286 Q 388 295 460 309 Q 487 315 494 304 Q 501 297 478 204 C 471 175 524 175 533 204 Z" style="fill: #0070C0;"></path>
                                                                        <path d="M 381 148 Q 409 157 549 171 Q 559 172 560 181 Q 560 188 533 204 C 518 213 507 211 478 204 Q 421 191 376 180 C 347 173 352 140 381 148 Z" style="fill: #0070C0;"></path>
                                    
                                    
                                                                                                                                                                                                                                                                                                                                                                                                                                                                                                                                                                                                                                                                                                                                                                                                                                                                                                                                                </g>
                            </svg>