<svg width='83' height='83' >
                                <g transform="translate(3, 70) scale(0.07, -0.07)">
                                    <!-- 先将完整的字以灰色字体绘制完成，层级位于下面 -->
                                                                        <path d="M 347 730 Q 363 758 381 780 Q 391 792 378 806 Q 338 839 313 836 Q 303 835 304 820 Q 313 724 212 617 Q 208 616 169 572 Q 162 557 176 561 Q 192 564 216 581 Q 289 636 331 705 Q 331 706 332 708 L 347 730 Z" style="fill: #0070C0;"></path>
                                                                        <path d="M 332 708 Q 372 686 420 697 Q 528 715 534 718 Q 543 725 539 733 Q 532 743 506 751 Q 478 758 451 747 Q 427 740 402 736 Q 377 732 347 730 C 317 728 305 722 332 708 Z" style="fill: #0070C0;"></path>
                                                                        <path d="M 351 598 Q 399 562 414 563 Q 423 564 425 576 Q 428 589 417 612 Q 405 633 341 636 Q 328 637 323 635 Q 320 631 323 621 Q 327 612 351 598 Z" style="fill: #0070C0;"></path>
                                                                        <path d="M 660 768 Q 675 790 689 810 Q 699 822 685 835 Q 646 868 623 862 Q 613 861 614 847 Q 623 766 543 674 Q 540 674 509 635 Q 502 622 515 625 Q 530 628 550 642 Q 611 688 647 746 L 660 768 Z" style="fill: #0070C0;"></path>
                                                                        <path d="M 647 746 Q 677 725 761 736 Q 800 742 840 749 Q 862 753 866 757 Q 875 764 871 772 Q 864 784 836 792 Q 808 798 778 787 Q 753 780 724 774 Q 693 770 660 768 C 630 766 621 761 647 746 Z" style="fill: #0070C0;"></path>
                                                                        <path d="M 669 649 Q 691 631 714 610 Q 727 600 740 600 Q 749 601 753 612 Q 757 625 748 651 Q 739 675 663 691 Q 650 692 644 691 Q 640 687 641 676 Q 645 666 669 649 Z" style="fill: #0070C0;"></path>
                                                                        <path d="M 336 489 Q 370 473 412 480 Q 539 496 671 513 Q 732 523 741 530 Q 750 537 746 545 Q 740 557 714 565 Q 687 572 602 550 Q 452 520 335 517 Q 334 517 332 516 C 302 513 308 500 336 489 Z" style="fill: #0070C0;"></path>
                                                                        <path d="M 572 383 Q 716 411 718 412 Q 725 418 722 426 Q 716 436 692 444 Q 667 450 640 441 Q 594 428 544 417 Q 489 407 425 403 Q 394 399 415 384 Q 454 363 512 374 Q 519 375 529 376 L 572 383 Z" style="fill: #0070C0;"></path>
                                                                        <path d="M 588 265 Q 648 274 700 279 Q 725 282 717 296 Q 707 312 680 318 Q 641 324 591 308 L 538 297 Q 481 287 433 278 Q 414 274 435 258 Q 448 248 475 251 Q 508 255 539 259 L 588 265 Z" style="fill: #0070C0;"></path>
                                                                        <path d="M 582 180 Q 585 226 588 265 L 591 308 Q 591 323 594 338 Q 603 360 572 383 C 549 402 520 405 529 376 Q 535 364 538 297 L 539 259 Q 539 225 539 174 C 539 144 580 150 582 180 Z" style="fill: #0070C0;"></path>
                                                                        <path d="M 539 174 Q 461 164 374 150 Q 358 149 370 134 Q 397 110 427 119 Q 541 152 770 152 Q 786 152 791 159 Q 795 169 781 180 Q 733 216 672 197 Q 633 191 582 180 L 539 174 Z" style="fill: #0070C0;"></path>
                                                                        <path d="M 332 516 Q 331 517 330 518 Q 287 542 269 543 Q 257 544 249 538 Q 239 531 253 515 Q 271 488 270 281 Q 267 59 227 29 Q 208 11 219 -6 Q 225 -22 240 -34 Q 255 -47 272 -33 Q 329 27 739 17 Q 796 16 826 10 Q 872 3 873 25 Q 872 40 839 61 Q 808 80 787 80 Q 747 79 439 46 Q 321 27 312 41 Q 303 50 314 157 Q 311 166 329 417 Q 332 475 336 489 C 339 512 339 512 332 516 Z" style="fill: #0070C0;"></path>
                                    
                                    
                                                                                                                                                                                                                                                                                                                                                                                                                                                                                                                                                                                                                                                                                                                                                                                                                                                                                                                                                                                                                            </g>
                            </svg>