<svg width='83' height='83' >
                                <g transform="translate(3, 70) scale(0.07, -0.07)">
                                    <!-- 先将完整的字以灰色字体绘制完成，层级位于下面 -->
                                                                        <path d="M 337 714 Q 355 742 373 765 Q 383 777 369 791 Q 332 821 307 819 Q 297 818 298 804 Q 307 711 209 610 Q 185 586 173 571 Q 166 558 179 561 Q 195 564 217 580 Q 286 631 324 694 L 337 714 Z" style="fill: #0070C0;"></path>
                                                                        <path d="M 324 694 Q 360 676 401 687 Q 447 696 494 705 Q 516 709 519 713 Q 526 720 522 727 Q 516 736 493 742 Q 469 746 397 724 Q 367 720 337 714 C 308 708 298 706 324 694 Z" style="fill: #0070C0;"></path>
                                                                        <path d="M 343 616 Q 370 580 401 565 Q 413 562 420 573 Q 424 583 423 596 Q 419 614 404 624 Q 362 654 335 647 Q 334 647 333 646 Q 329 645 330 636 Q 331 627 343 616 Z" style="fill: #0070C0;"></path>
                                                                        <path d="M 623 738 Q 641 772 659 801 Q 666 813 654 825 Q 612 852 592 847 Q 582 844 585 832 Q 601 751 511 629 Q 496 623 472 583 Q 466 570 479 574 Q 495 578 516 596 Q 577 651 611 714 L 623 738 Z" style="fill: #0070C0;"></path>
                                                                        <path d="M 611 714 Q 656 701 723 714 Q 760 721 799 729 Q 824 735 827 738 Q 834 745 831 753 Q 824 763 798 770 Q 770 776 743 764 Q 716 755 686 748 Q 656 742 623 738 C 593 734 582 722 611 714 Z" style="fill: #0070C0;"></path>
                                                                        <path d="M 643 623 Q 662 608 682 591 Q 695 581 709 583 Q 718 584 721 596 Q 724 609 714 634 Q 702 656 635 664 Q 622 665 616 663 Q 612 659 614 648 Q 618 638 643 623 Z" style="fill: #0070C0;"></path>
                                                                        <path d="M 205 456 Q 235 381 206 281 Q 194 242 220 210 Q 229 200 236 211 Q 249 226 257 346 Q 258 415 262 432 Q 263 445 252 453 Q 234 466 214 473 Q 207 474 202 468 Q 199 464 205 456 Z" style="fill: #0070C0;"></path>
                                                                        <path d="M 331 505 Q 361 450 344 259 Q 335 202 308 135 Q 284 75 203 -7 Q 190 -19 187 -25 Q 186 -32 196 -31 Q 260 -24 345 107 Q 351 120 358 132 Q 400 240 403 453 Q 406 471 407 481 Q 413 500 393 509 Q 348 531 335 528 Q 316 525 331 505 Z" style="fill: #0070C0;"></path>
                                                                        <path d="M 651 498 Q 822 537 823 538 Q 830 545 827 553 Q 820 563 794 571 Q 766 577 739 566 Q 691 550 640 537 Q 583 524 516 518 Q 483 512 507 497 Q 540 476 597 487 L 651 498 Z" style="fill: #0070C0;"></path>
                                                                        <path d="M 511 385 Q 493 403 464 399 Q 454 395 458 386 Q 494 317 462 214 Q 447 181 475 145 L 477 143 Q 484 131 492 137 Q 516 155 517 284 Q 517 335 519 353 C 521 377 521 377 511 385 Z" style="fill: #0070C0;"></path>
                                                                        <path d="M 667 380 Q 704 387 742 389 Q 770 390 773 371 Q 785 244 770 226 Q 760 217 702 224 Q 687 225 685 221 Q 682 217 694 208 Q 749 177 784 151 Q 799 141 809 154 Q 828 181 829 247 Q 823 337 829 379 Q 833 398 823 406 Q 798 428 781 437 Q 769 441 761 434 Q 755 427 668 407 L 617 399 Q 577 395 511 385 C 481 381 490 346 519 353 Q 537 359 617 372 L 667 380 Z" style="fill: #0070C0;"></path>
                                                                        <path d="M 616 -42 Q 620 -64 627 -73 Q 631 -80 639 -78 Q 651 -69 658 -16 Q 658 -12 667 380 L 668 407 Q 669 431 677 463 Q 680 479 667 488 Q 658 494 651 498 C 626 514 584 514 597 487 Q 616 454 617 399 L 617 372 Q 617 266 613 116 Q 612 -2 616 -42 Z" style="fill: #0070C0;"></path>
                                    
                                    
                                                                                                                                                                                                                                                                                                                                                                                                                                                                                                                                                                                                                                                                                                                                                                                                                                                                                                                                                                                                                            </g>
                            </svg>