<svg width='83' height='83' >
                                <g transform="translate(3, 70) scale(0.07, -0.07)">
                                    <!-- 先将完整的字以灰色字体绘制完成，层级位于下面 -->
                                                                        <path d="M 328 697 Q 346 725 364 749 Q 374 761 361 774 Q 322 807 299 804 Q 289 803 290 788 Q 299 701 199 594 Q 193 591 157 551 Q 150 538 163 541 Q 179 542 203 560 Q 267 606 307 665 L 328 697 Z" style="fill: #0070C0;"></path>
                                                                        <path d="M 307 665 Q 361 665 488 690 Q 492 691 495 693 Q 502 700 498 707 Q 492 716 469 722 Q 451 726 375 706 Q 351 702 328 697 C 299 691 277 665 307 665 Z" style="fill: #0070C0;"></path>
                                                                        <path d="M 356 588 Q 371 573 386 556 Q 396 546 409 546 Q 416 546 421 557 Q 425 567 419 591 Q 415 604 395 613 Q 349 631 336 627 Q 332 623 333 614 Q 336 605 356 588 Z" style="fill: #0070C0;"></path>
                                                                        <path d="M 618 715 Q 628 737 662 793 Q 671 806 656 819 Q 611 849 586 844 Q 576 841 579 827 Q 597 743 515 633 Q 503 623 480 588 Q 473 572 488 578 Q 539 593 601 686 L 618 715 Z" style="fill: #0070C0;"></path>
                                                                        <path d="M 601 686 Q 632 677 721 692 Q 809 708 819 714 Q 826 721 823 729 Q 816 739 790 747 Q 762 751 735 741 Q 705 732 673 724 Q 648 720 618 715 C 588 710 572 693 601 686 Z" style="fill: #0070C0;"></path>
                                                                        <path d="M 632 601 Q 657 582 682 558 Q 694 548 708 548 Q 717 549 721 560 Q 725 573 716 599 Q 707 623 627 643 Q 614 644 608 643 Q 604 639 605 628 Q 609 618 632 601 Z" style="fill: #0070C0;"></path>
                                                                        <path d="M 255 347 Q 372 485 374 493 Q 373 494 373 496 Q 370 509 347 533 Q 323 552 306 554 Q 288 554 294 533 Q 303 506 291 485 Q 254 415 200 351 Q 149 290 81 224 Q 71 215 68 210 Q 64 200 77 201 Q 116 207 231 322 L 255 347 Z" style="fill: #0070C0;"></path>
                                                                        <path d="M 231 322 Q 271 234 229 64 Q 217 24 249 -19 Q 250 -20 252 -22 Q 268 -35 278 -12 Q 291 22 290 63 Q 291 235 297 273 Q 304 297 295 306 Q 279 324 268 336 Q 262 343 255 347 C 231 365 220 350 231 322 Z" style="fill: #0070C0;"></path>
                                                                        <path d="M 355 355 Q 383 298 362 150 Q 356 120 378 94 Q 385 87 393 95 Q 406 113 407 189 Q 403 276 410 333 Q 416 349 400 359 Q 387 366 375 373 Q 365 376 358 372 Q 352 368 355 355 Z" style="fill: #0070C0;"></path>
                                                                        <path d="M 572 408 Q 587 433 598 454 Q 610 476 618 488 Q 624 498 615 512 Q 597 537 580 546 Q 567 556 551 554 Q 536 553 543 534 Q 550 527 547 502 Q 532 409 445 291 Q 439 287 439 280 Q 440 274 445 276 Q 455 279 480 298 L 501 316 Q 504 320 508 323 Q 529 347 552 378 L 572 408 Z" style="fill: #0070C0;"></path>
                                                                        <path d="M 702 389 Q 739 398 782 405 Q 818 412 823 418 Q 830 425 827 433 Q 820 443 794 451 Q 766 457 739 446 Q 699 433 654 421 Q 615 414 572 408 C 542 404 523 386 552 378 Q 591 366 649 379 L 651 379 L 702 389 Z" style="fill: #0070C0;"></path>
                                                                        <path d="M 603 158 Q 552 95 446 56 Q 422 53 411 45 Q 405 41 420 35 Q 484 19 588 76 Q 595 83 606 90 Q 619 103 634 120 L 663 164 Q 679 195 716 292 Q 722 313 737 335 Q 744 345 738 354 Q 726 370 702 389 C 679 408 640 407 651 379 Q 681 319 626 198 L 603 158 Z" style="fill: #0070C0;"></path>
                                                                        <path d="M 480 298 Q 522 268 603 158 L 634 120 Q 671 74 719 27 Q 735 8 763 6 Q 845 0 914 7 Q 948 10 947 19 Q 944 25 783 87 Q 717 115 663 164 L 626 198 Q 589 235 551 279 Q 526 309 501 316 C 473 328 457 317 480 298 Z" style="fill: #0070C0;"></path>
                                    
                                    
                                                                                                                                                                                                                                                                                                                                                                                                                                                                                                                                                                                                                                                                                                                                                                                                                                                                                                                                                                                                                                                                                                        </g>
                            </svg>