<svg width='83' height='83' >
                                <g transform="translate(3, 70) scale(0.07, -0.07)">
                                    <!-- 先将完整的字以灰色字体绘制完成，层级位于下面 -->
                                                                        <path d="M 341 734 Q 357 762 374 786 Q 384 798 370 811 Q 331 842 306 837 Q 296 836 298 822 Q 310 738 223 631 Q 211 627 185 587 Q 178 574 191 578 Q 207 581 228 597 Q 292 649 328 712 L 341 734 Z" style="fill: #0070C0;"></path>
                                                                        <path d="M 328 712 Q 364 693 416 708 Q 509 729 520 734 Q 527 741 523 749 Q 516 759 489 765 Q 477 768 390 744 Q 368 740 341 734 C 312 728 301 725 328 712 Z" style="fill: #0070C0;"></path>
                                                                        <path d="M 355 619 Q 376 603 399 584 Q 409 575 422 577 Q 429 578 433 588 Q 436 600 427 622 Q 418 643 349 655 Q 336 656 332 655 Q 328 651 330 641 Q 334 634 355 619 Z" style="fill: #0070C0;"></path>
                                                                        <path d="M 633 755 Q 648 786 663 811 Q 670 824 656 837 Q 608 862 588 858 Q 578 854 581 840 Q 602 761 524 646 Q 514 636 492 600 Q 485 584 499 590 Q 515 594 534 613 Q 595 670 625 737 L 633 755 Z" style="fill: #0070C0;"></path>
                                                                        <path d="M 625 737 Q 634 728 668 724 Q 687 723 820 759 Q 842 765 845 769 Q 852 776 848 785 Q 841 795 811 800 Q 790 803 706 772 Q 673 763 638 757 Q 634 757 633 755 C 610 747 610 747 625 737 Z" style="fill: #0070C0;"></path>
                                                                        <path d="M 650 637 Q 678 618 709 595 Q 721 586 734 588 Q 741 589 745 600 Q 748 613 738 636 Q 726 663 641 676 Q 628 677 624 675 Q 620 671 622 661 Q 626 652 650 637 Z" style="fill: #0070C0;"></path>
                                                                        <path d="M 354 402 Q 465 435 467 436 Q 474 443 471 450 Q 464 460 439 466 Q 412 470 358 449 L 311 433 Q 196 403 115 392 Q 84 386 106 372 Q 142 353 190 365 Q 239 377 291 387 L 354 402 Z" style="fill: #0070C0;"></path>
                                                                        <path d="M 352 320 Q 352 360 354 402 L 358 449 Q 361 477 368 499 Q 375 511 373 522 Q 367 529 323 558 Q 304 571 287 559 Q 283 555 288 543 Q 310 509 311 433 L 310 323 Q 307 134 293 78 Q 281 27 301 -15 Q 301 -16 302 -18 Q 306 -31 313 -35 Q 319 -41 324 -34 Q 345 -21 347 32 Q 346 62 351 292 L 352 320 Z" style="fill: #0070C0;"></path>
                                                                        <path d="M 291 387 Q 243 279 91 101 Q 85 91 96 90 Q 102 89 112 97 Q 233 190 310 323 C 359 406 304 414 291 387 Z" style="fill: #0070C0;"></path>
                                                                        <path d="M 351 292 Q 366 283 426 236 Q 439 226 453 227 Q 462 228 465 240 Q 468 253 458 278 Q 446 308 363 320 Q 356 321 352 320 C 322 317 326 308 351 292 Z" style="fill: #0070C0;"></path>
                                                                        <path d="M 564 477 Q 546 490 525 496 Q 518 497 511 490 Q 508 486 515 475 Q 554 384 530 196 Q 526 166 516 133 Q 509 108 514 91 Q 523 60 533 48 Q 543 35 553 48 Q 557 54 562 63 L 570 96 Q 577 138 578 223 L 578 250 Q 578 295 579 341 L 579 366 Q 580 424 583 445 C 585 464 585 464 564 477 Z" style="fill: #0070C0;"></path>
                                                                        <path d="M 714 78 Q 745 38 768 0 Q 778 -18 788 -17 Q 804 -16 820 18 Q 833 48 834 118 Q 807 428 834 462 Q 844 475 834 485 Q 815 504 763 527 Q 745 536 730 527 Q 676 500 564 477 C 535 471 554 439 583 445 Q 593 446 723 475 Q 742 479 751 473 Q 781 443 763 105 Q 759 93 750 93 C 732 69 702 94 714 78 Z" style="fill: #0070C0;"></path>
                                                                        <path d="M 579 341 Q 633 332 722 360 Q 723 361 724 361 Q 731 368 727 375 Q 720 384 697 389 Q 685 392 616 374 Q 598 370 579 366 C 550 360 549 345 579 341 Z" style="fill: #0070C0;"></path>
                                                                        <path d="M 578 223 Q 593 219 673 230 Q 688 234 705 236 Q 721 239 723 241 Q 730 248 726 255 Q 720 264 697 270 Q 685 273 612 255 Q 596 252 578 250 C 548 247 548 228 578 223 Z" style="fill: #0070C0;"></path>
                                                                        <path d="M 562 63 Q 563 63 568 63 Q 614 73 714 78 C 744 80 758 80 750 93 Q 746 102 724 116 Q 709 125 680 118 Q 620 105 570 96 C 540 91 532 63 562 63 Z" style="fill: #0070C0;"></path>
                                    
                                    
                                                                                                                                                                                                                                                                                                                                                                                                                                                                                                                                                                                                                                                                                                                                                                                                                                                                                                                                                                                                                                                                                                                                                                                                                                                                </g>
                            </svg>