<svg width='83' height='83' >
                                <g transform="translate(3, 70) scale(0.07, -0.07)">
                                    <!-- 先将完整的字以灰色字体绘制完成，层级位于下面 -->
                                                                        <path d="M 359 719 Q 384 749 406 772 Q 418 784 405 800 Q 366 839 341 837 Q 331 836 331 821 Q 332 746 230 641 Q 224 641 186 604 Q 176 589 192 592 Q 208 593 232 606 Q 296 643 340 694 L 359 719 Z" style="fill: #0070C0;"></path>
                                                                        <path d="M 340 694 Q 370 687 462 701 Q 531 716 535 717 Q 542 724 538 731 Q 532 740 509 746 Q 485 750 461 741 Q 436 734 407 727 Q 385 723 359 719 C 329 714 310 699 340 694 Z" style="fill: #0070C0;"></path>
                                                                        <path d="M 362 631 Q 380 619 399 604 Q 409 597 420 598 Q 427 599 430 608 Q 431 618 423 638 Q 419 650 397 657 Q 346 669 340 662 Q 336 659 339 651 Q 342 644 362 631 Z" style="fill: #0070C0;"></path>
                                                                        <path d="M 664 750 Q 682 781 701 808 Q 710 821 695 835 Q 655 865 627 862 Q 615 859 619 844 Q 632 766 554 665 Q 535 643 525 628 Q 518 612 532 618 Q 574 622 644 718 L 664 750 Z" style="fill: #0070C0;"></path>
                                                                        <path d="M 644 718 Q 686 712 783 726 Q 847 736 850 738 Q 857 745 854 753 Q 848 765 822 772 Q 794 779 767 769 Q 739 762 707 756 Q 686 753 664 750 C 634 746 614 722 644 718 Z" style="fill: #0070C0;"></path>
                                                                        <path d="M 699 640 Q 738 601 751 601 Q 761 601 765 613 Q 769 626 762 651 Q 758 664 737 672 Q 689 687 676 683 Q 672 679 673 668 Q 676 658 699 640 Z" style="fill: #0070C0;"></path>
                                                                        <path d="M 377 561 Q 365 567 329 571 Q 317 572 315 568 Q 309 561 319 547 Q 343 510 362 448 Q 366 429 380 418 Q 399 399 402 414 Q 403 418 404 425 L 400 458 Q 388 507 385 530 C 381 559 381 559 377 561 Z" style="fill: #0070C0;"></path>
                                                                        <path d="M 667 484 Q 691 517 720 528 Q 738 544 726 563 Q 713 578 666 608 Q 647 620 573 594 Q 468 570 377 561 C 347 558 355 526 385 530 Q 389 530 604 565 Q 628 569 637 560 Q 641 553 637 541 Q 622 511 607 486 C 592 460 648 460 667 484 Z" style="fill: #0070C0;"></path>
                                                                        <path d="M 404 425 Q 414 424 427 425 Q 508 440 682 446 Q 692 447 694 456 Q 695 463 667 484 C 654 494 637 491 607 486 Q 492 467 400 458 C 370 455 374 427 404 425 Z" style="fill: #0070C0;"></path>
                                                                        <path d="M 378 374 Q 366 386 339 395 Q 329 399 318 395 Q 312 389 318 378 Q 349 281 336 181 Q 324 132 362 88 Q 372 76 382 89 L 390 107 L 392 146 Q 392 174 390 188 L 389 217 Q 388 250 388 273 L 387 301 Q 386 335 387 339 C 388 366 388 366 378 374 Z" style="fill: #0070C0;"></path>
                                                                        <path d="M 652 125 Q 653 121 657 114 Q 669 86 678 86 Q 691 87 708 117 Q 721 141 723 185 Q 716 308 742 346 Q 754 362 746 373 Q 718 400 668 423 Q 652 430 627 421 Q 540 388 378 374 C 348 371 357 337 387 339 Q 396 339 406 340 Q 526 367 613 378 Q 643 384 653 368 Q 663 355 662 309 Q 661 191 653 161 L 652 125 Z" style="fill: #0070C0;"></path>
                                                                        <path d="M 388 273 Q 392 273 399 273 Q 505 289 582 298 Q 604 301 597 313 Q 587 326 563 332 Q 544 335 387 301 C 358 295 358 273 388 273 Z" style="fill: #0070C0;"></path>
                                                                        <path d="M 390 188 Q 391 188 395 188 Q 503 201 582 210 Q 604 211 596 225 Q 587 238 564 245 Q 546 248 389 217 C 360 211 360 187 390 188 Z" style="fill: #0070C0;"></path>
                                                                        <path d="M 390 107 Q 394 107 401 107 Q 480 120 652 125 C 682 126 676 141 653 161 Q 649 165 642 170 Q 624 182 589 175 Q 481 156 392 146 C 362 143 360 107 390 107 Z" style="fill: #0070C0;"></path>
                                                                        <path d="M 391 72 Q 382 30 231 -53 Q 222 -59 236 -62 Q 327 -52 440 18 Q 453 27 469 32 Q 482 38 480 47 Q 476 54 460 65 Q 423 84 400 83 Q 390 83 391 72 Z" style="fill: #0070C0;"></path>
                                                                        <path d="M 604 47 Q 668 4 744 -64 Q 763 -82 778 -84 Q 787 -84 793 -73 Q 803 -60 786 -18 Q 768 39 601 78 Q 592 82 591 69 Q 592 56 604 47 Z" style="fill: #0070C0;"></path>
                                    
                                    
                                                                                                                                                                                                                                                                                                                                                                                                                                                                                                                                                                                                                                                                                                                                                                                                                                                                                                                                                                                                                                                                                                                                                                                                                                                                                                                                            </g>
                            </svg>