<svg width='83' height='83' >
                                <g transform="translate(3, 70) scale(0.07, -0.07)">
                                    <!-- 先将完整的字以灰色字体绘制完成，层级位于下面 -->
                                                                        <path d="M 335 726 Q 350 750 366 770 Q 375 780 363 792 Q 330 820 308 818 Q 299 817 300 804 Q 309 737 227 642 Q 224 642 193 606 Q 186 593 198 597 Q 213 598 231 613 Q 289 653 323 707 L 335 726 Z" style="fill: #0070C0;"></path>
                                                                        <path d="M 323 707 Q 350 691 431 704 Q 453 708 478 711 Q 496 715 499 717 Q 506 724 502 731 Q 496 740 473 746 Q 458 749 386 733 Q 362 729 335 726 C 305 723 296 720 323 707 Z" style="fill: #0070C0;"></path>
                                                                        <path d="M 344 642 Q 390 588 412 589 Q 424 588 428 604 Q 429 614 420 631 Q 399 658 346 664 Q 339 665 338 655 Q 337 648 344 642 Z" style="fill: #0070C0;"></path>
                                                                        <path d="M 618 748 Q 634 779 651 805 Q 660 817 646 829 Q 604 856 583 851 Q 573 847 577 835 Q 595 763 522 666 Q 504 644 496 631 Q 490 618 503 622 Q 516 625 534 640 Q 579 680 606 726 L 618 748 Z" style="fill: #0070C0;"></path>
                                                                        <path d="M 606 726 Q 645 708 686 718 Q 735 727 784 736 Q 806 740 811 744 Q 818 751 815 758 Q 808 768 783 775 Q 758 779 732 770 Q 707 763 678 756 Q 650 752 618 748 C 588 744 578 738 606 726 Z" style="fill: #0070C0;"></path>
                                                                        <path d="M 653 650 Q 702 601 713 599 Q 720 599 726 609 Q 730 619 724 641 Q 721 656 699 668 Q 645 689 636 686 Q 632 685 633 674 Q 634 667 653 650 Z" style="fill: #0070C0;"></path>
                                                                        <path d="M 266 419 Q 305 376 316 375 Q 325 375 329 385 Q 333 395 329 419 Q 323 437 265 457 Q 253 460 248 458 Q 244 457 244 446 Q 247 437 266 419 Z" style="fill: #0070C0;"></path>
                                                                        <path d="M 466 475 Q 456 451 431 415 Q 427 408 431 403 Q 437 402 443 407 Q 498 447 526 462 Q 539 466 536 475 Q 530 488 514 501 Q 498 514 480 515 Q 468 514 470 499 Q 471 489 466 475 Z" style="fill: #0070C0;"></path>
                                                                        <path d="M 399 322 Q 423 328 517 340 Q 526 339 533 350 Q 534 360 515 368 Q 484 392 404 362 Q 401 362 400 361 L 365 353 Q 214 332 212 329 C 204 327 204 327 212 320 Q 218 314 240 300 Q 252 293 270 299 Q 300 306 340 312 L 399 322 Z" style="fill: #0070C0;"></path>
                                                                        <path d="M 398 289 Q 399 307 399 322 L 400 361 Q 400 451 417 494 Q 423 507 414 518 Q 366 554 347 545 Q 341 541 344 530 Q 377 476 365 353 L 356 259 Q 356 226 347 199 Q 337 180 361 134 Q 368 121 379 131 Q 397 152 398 266 L 398 289 Z" style="fill: #0070C0;"></path>
                                                                        <path d="M 205 139 Q 236 139 293 184 Q 293 187 296 187 Q 318 208 342 239 Q 349 249 356 259 C 402 324 346 342 340 312 Q 331 249 205 147 C 194 138 194 138 205 139 Z" style="fill: #0070C0;"></path>
                                                                        <path d="M 398 266 Q 435 235 483 187 Q 495 174 506 171 Q 512 171 516 178 Q 525 188 515 217 Q 505 259 398 289 C 369 297 375 285 398 266 Z" style="fill: #0070C0;"></path>
                                                                        <path d="M 212 329 Q 215 477 221 505 Q 225 515 216 528 Q 206 537 181 550 Q 163 560 156 554 Q 149 548 156 534 Q 172 504 172 449 Q 176 281 160 126 Q 157 92 138 62 Q 129 49 137 31 Q 144 13 153 6 Q 162 -1 176 10 Q 251 62 471 68 Q 490 68 492 77 Q 491 89 468 105 Q 456 114 331 93 Q 301 93 222 76 Q 200 70 205 129 Q 204 135 205 139 L 205 147 Q 208 229 212 320 L 212 329 Z" style="fill: #0070C0;"></path>
                                                                        <path d="M 650 469 Q 749 508 770 519 Q 807 538 842 548 Q 857 549 859 557 Q 862 567 850 576 Q 799 607 765 603 Q 759 599 759 589 Q 760 562 643 486 C 618 470 622 458 650 469 Z" style="fill: #0070C0;"></path>
                                                                        <path d="M 643 486 Q 642 489 637 490 Q 594 511 580 508 Q 562 505 577 486 Q 601 444 587 240 Q 577 189 553 129 Q 529 72 450 -8 Q 438 -20 435 -25 Q 434 -32 444 -31 Q 477 -31 543 38 Q 618 120 637 300 Q 638 322 641 345 L 642 366 Q 643 426 650 463 Q 650 467 650 469 C 651 481 651 481 643 486 Z" style="fill: #0070C0;"></path>
                                                                        <path d="M 641 345 Q 656 336 696 345 Q 715 352 740 356 L 792 366 Q 832 373 895 377 Q 931 383 933 387 Q 936 396 923 405 Q 877 433 833 415 Q 800 406 756 394 Q 704 382 642 366 C 613 359 613 356 641 345 Z" style="fill: #0070C0;"></path>
                                                                        <path d="M 740 356 Q 753 313 755 310 Q 758 220 757 79 Q 757 -47 771 -70 Q 775 -76 782 -74 Q 794 -65 801 -14 Q 807 35 806 82 Q 800 223 816 333 Q 819 349 807 357 Q 800 363 792 366 C 766 381 731 385 740 356 Z" style="fill: #0070C0;"></path>
                                    
                                    
                                                                                                                                                                                                                                                                                                                                                                                                                                                                                                                                                                                                                                                                                                                                                                                                                                                                                                                                                                                                                                                                                                                                                                                                                                                                                                                                                                                                                        </g>
                            </svg>