<svg width='83' height='83' >
                                <g transform="translate(3, 70) scale(0.07, -0.07)">
                                    <!-- 先将完整的字以灰色字体绘制完成，层级位于下面 -->
                                                                        <path d="M 345 724 Q 358 746 372 763 Q 382 773 369 787 Q 333 817 309 814 Q 299 813 300 799 Q 309 712 216 612 Q 192 590 181 575 Q 174 562 187 565 Q 203 568 224 583 Q 290 632 327 695 Q 328 699 331 703 L 345 724 Z" style="fill: #0070C0;"></path>
                                                                        <path d="M 331 703 Q 371 685 414 697 Q 451 704 491 713 Q 509 717 512 720 Q 519 727 515 734 Q 508 744 483 750 Q 458 754 432 743 Q 402 733 345 724 C 315 719 303 715 331 703 Z" style="fill: #0070C0;"></path>
                                                                        <path d="M 373 639 Q 422 602 432 602 Q 439 603 442 612 Q 443 622 436 642 Q 432 655 410 662 Q 362 675 352 670 Q 348 667 350 659 Q 354 652 373 639 Z" style="fill: #0070C0;"></path>
                                                                        <path d="M 641 758 Q 653 780 666 798 Q 673 808 661 821 Q 619 848 601 843 Q 592 840 595 828 Q 607 762 538 664 Q 534 664 508 626 Q 502 613 515 618 Q 528 621 545 635 Q 599 680 628 734 L 641 758 Z" style="fill: #0070C0;"></path>
                                                                        <path d="M 628 734 Q 673 718 712 727 Q 829 748 839 754 Q 846 761 843 769 Q 836 779 810 787 Q 782 791 755 781 Q 728 774 700 767 Q 672 761 641 758 C 611 755 600 744 628 734 Z" style="fill: #0070C0;"></path>
                                                                        <path d="M 688 659 Q 748 616 758 616 Q 767 617 769 628 Q 772 640 763 662 Q 751 687 680 695 Q 668 696 664 695 Q 660 691 662 681 Q 666 674 688 659 Z" style="fill: #0070C0;"></path>
                                                                        <path d="M 401 418 Q 459 509 480 522 Q 492 531 487 541 Q 483 551 437 573 Q 427 579 406 569 Q 375 554 300 544 Q 287 543 297 531 Q 307 521 335 526 Q 402 545 407 536 Q 410 523 385 475 Q 369 442 335 402 L 325 390 Q 312 377 296 359 Q 232 289 129 225 Q 107 215 125 214 Q 222 211 381 393 Q 382 396 386 399 L 401 418 Z" style="fill: #0070C0;"></path>
                                                                        <path d="M 335 402 Q 335 403 336 404 Q 337 414 328 431 Q 307 458 254 464 Q 247 465 246 455 Q 245 446 292 401 Q 307 388 320 389 Q 323 389 325 390 C 332 392 332 392 335 402 Z" style="fill: #0070C0;"></path>
                                                                        <path d="M 597 528 Q 624 546 684 561 Q 700 565 695 578 Q 688 591 673 604 Q 658 617 649 616 Q 640 617 642 608 Q 642 593 584 541 C 562 521 572 512 597 528 Z" style="fill: #0070C0;"></path>
                                                                        <path d="M 673 459 Q 781 499 793 501 Q 811 504 807 519 Q 800 534 784 550 Q 769 565 759 565 Q 750 566 750 556 Q 747 537 657 473 C 633 456 645 449 673 459 Z" style="fill: #0070C0;"></path>
                                                                        <path d="M 657 473 Q 629 498 597 528 L 584 541 Q 563 562 550 562 Q 526 561 521 552 Q 518 546 527 542 Q 561 527 586 497 Q 785 275 824 267 Q 884 267 961 287 Q 977 290 982 297 Q 985 304 975 307 Q 837 340 787 372 Q 736 405 673 459 L 657 473 Z" style="fill: #0070C0;"></path>
                                                                        <path d="M 386 399 Q 387 399 390 397 Q 424 381 494 393 Q 602 415 612 422 Q 619 429 615 437 Q 608 447 581 454 Q 554 458 527 447 Q 499 437 470 430 Q 437 423 401 418 C 371 414 359 412 386 399 Z" style="fill: #0070C0;"></path>
                                                                        <path d="M 398 318 Q 388 324 358 328 Q 348 329 344 325 Q 340 319 347 306 Q 369 267 385 202 Q 389 183 401 170 Q 417 151 422 165 Q 423 172 424 180 L 421 209 Q 411 269 409 291 C 407 314 407 314 398 318 Z" style="fill: #0070C0;"></path>
                                                                        <path d="M 624 226 Q 645 277 673 291 Q 689 306 677 322 Q 664 335 619 359 Q 603 366 584 360 Q 509 333 398 318 C 368 314 380 284 409 291 Q 413 294 567 319 Q 586 323 593 315 Q 599 309 596 296 Q 589 265 579 238 C 569 210 612 198 624 226 Z" style="fill: #0070C0;"></path>
                                                                        <path d="M 621 199 Q 637 208 639 209 Q 639 215 624 226 L 579 238 Q 573 239 568 237 Q 486 218 421 209 C 391 205 394 185 424 180 Q 436 177 448 180 Q 494 190 584 196 L 621 199 Z" style="fill: #0070C0;"></path>
                                                                        <path d="M 366 110 Q 414 50 424 48 Q 431 47 437 57 Q 443 67 440 91 Q 439 107 417 123 Q 365 154 352 150 Q 348 149 347 138 Q 348 129 366 110 Z" style="fill: #0070C0;"></path>
                                                                        <path d="M 559 52 Q 563 58 570 65 Q 591 89 612 118 Q 622 131 639 148 Q 652 157 647 167 Q 640 182 621 199 C 599 219 583 226 584 196 Q 587 163 537 71 Q 530 59 527 49 C 517 21 541 28 559 52 Z" style="fill: #0070C0;"></path>
                                                                        <path d="M 527 49 Q 515 49 503 47 Q 367 37 205 25 Q 186 24 199 6 Q 212 -7 229 -14 Q 248 -20 265 -16 Q 482 32 817 10 Q 836 10 841 17 Q 847 29 832 43 Q 780 83 746 76 Q 673 66 559 52 L 527 49 Z" style="fill: #0070C0;"></path>
                                    
                                    
                                                                                                                                                                                                                                                                                                                                                                                                                                                                                                                                                                                                                                                                                                                                                                                                                                                                                                                                                                                                                                                                                                                                                                                                                                                                                                                                                                                                                                                                                                    </g>
                            </svg>