<svg width='83' height='83' >
                                <g transform="translate(3, 70) scale(0.07, -0.07)">
                                    <!-- 先将完整的字以灰色字体绘制完成，层级位于下面 -->
                                                                        <path d="M 349 724 Q 368 752 387 776 Q 396 786 384 799 Q 350 829 326 827 Q 317 826 318 812 Q 327 737 241 643 Q 234 643 205 606 Q 198 593 211 597 Q 224 598 245 613 Q 302 653 337 705 L 349 724 Z" style="fill: #0070C0;"></path>
                                                                        <path d="M 337 705 Q 350 698 371 694 L 527 725 Q 530 726 532 728 Q 539 735 535 742 Q 528 752 503 757 Q 482 760 408 736 Q 381 730 349 724 C 320 718 312 717 337 705 Z" style="fill: #0070C0;"></path>
                                                                        <path d="M 373 649 Q 421 612 439 615 Q 449 616 450 630 Q 449 640 439 653 Q 429 663 412 664 Q 384 670 372 669 Q 365 669 367 660 Q 367 654 373 649 Z" style="fill: #0070C0;"></path>
                                                                        <path d="M 622 755 Q 637 783 653 806 Q 662 816 649 829 Q 609 854 590 852 Q 580 849 583 837 Q 593 765 529 682 Q 525 682 500 646 Q 494 633 507 638 Q 544 642 607 730 L 622 755 Z" style="fill: #0070C0;"></path>
                                                                        <path d="M 607 730 Q 647 718 732 735 Q 760 742 793 749 Q 815 755 820 758 Q 827 765 823 773 Q 816 783 789 790 Q 761 794 735 782 Q 708 773 680 766 Q 652 759 622 755 C 592 751 578 738 607 730 Z" style="fill: #0070C0;"></path>
                                                                        <path d="M 658 652 Q 701 618 711 618 Q 718 619 722 628 Q 723 640 716 661 Q 709 679 652 687 Q 640 688 636 686 Q 632 683 634 674 Q 637 667 658 652 Z" style="fill: #0070C0;"></path>
                                                                        <path d="M 619 521 Q 683 528 737 533 Q 747 532 756 543 Q 757 553 736 565 Q 703 589 637 569 Q 636 569 634 568 L 571 554 Q 561 554 552 551 Q 500 542 450 535 L 401 530 Q 353 529 301 523 Q 274 522 294 503 Q 319 479 370 486 Q 388 489 409 492 L 451 499 Q 505 509 569 515 L 619 521 Z" style="fill: #0070C0;"></path>
                                                                        <path d="M 450 535 Q 450 571 440 578 Q 421 591 398 598 Q 385 602 379 596 Q 372 592 378 579 Q 393 557 400 534 Q 400 533 401 530 L 409 492 Q 413 465 421 423 C 427 394 459 397 456 427 Q 452 470 451 499 L 450 535 Z" style="fill: #0070C0;"></path>
                                                                        <path d="M 600 445 Q 610 485 619 521 L 634 568 Q 634 569 635 570 Q 639 577 641 584 Q 645 593 631 607 Q 606 626 586 632 Q 573 636 566 630 Q 559 626 564 612 Q 573 597 571 554 L 569 515 Q 565 481 561 440 C 558 410 593 416 600 445 Z" style="fill: #0070C0;"></path>
                                                                        <path d="M 509 400 Q 594 409 896 409 Q 917 408 923 417 Q 929 430 911 445 Q 856 487 815 479 Q 730 463 600 445 L 561 440 Q 536 439 513 434 Q 485 431 456 427 L 421 423 Q 289 410 142 395 Q 120 394 136 375 Q 151 360 170 354 Q 192 347 209 352 Q 327 382 460 395 Q 463 396 469 396 L 509 400 Z" style="fill: #0070C0;"></path>
                                                                        <path d="M 352 315 Q 340 321 312 324 Q 300 328 297 322 Q 290 316 299 300 Q 327 243 344 150 Q 348 122 364 103 Q 382 81 387 97 Q 388 104 390 113 L 389 141 Q 382 189 368 280 C 363 310 363 311 352 315 Z" style="fill: #0070C0;"></path>
                                                                        <path d="M 629 127 Q 630 126 631 122 Q 635 109 647 109 Q 660 110 667 124 Q 677 139 698 213 Q 713 262 747 290 Q 763 306 749 320 Q 733 336 685 359 Q 669 369 650 361 Q 622 355 587 351 Q 562 350 538 345 L 483 336 Q 461 335 440 329 Q 391 320 352 315 C 322 311 340 269 368 280 Q 377 289 484 303 L 536 310 Q 635 326 656 315 Q 665 309 660 281 Q 641 179 632 155 C 625 133 625 133 629 127 Z" style="fill: #0070C0;"></path>
                                                                        <path d="M 532 221 Q 565 225 596 228 Q 615 231 608 242 Q 601 254 579 259 Q 563 263 533 256 L 485 245 Q 448 238 415 230 Q 400 227 417 214 Q 420 211 486 215 L 532 221 Z" style="fill: #0070C0;"></path>
                                                                        <path d="M 538 345 Q 539 349 539 351 Q 546 367 537 377 Q 524 390 509 400 C 484 417 457 423 469 396 Q 482 369 483 336 L 484 303 Q 484 281 485 245 L 486 215 Q 486 187 487 152 C 488 122 528 128 529 158 Q 530 192 532 221 L 533 256 Q 534 284 536 310 L 538 345 Z" style="fill: #0070C0;"></path>
                                                                        <path d="M 390 113 Q 394 109 415 110 Q 482 123 629 127 C 659 128 656 138 632 155 Q 626 159 620 164 Q 602 177 529 158 L 487 152 Q 433 145 389 141 C 359 138 362 123 390 113 Z" style="fill: #0070C0;"></path>
                                                                        <path d="M 394 68 Q 376 17 239 -61 Q 215 -71 243 -73 Q 294 -82 410 -9 Q 417 0 457 21 Q 470 31 469 40 Q 468 53 445 66 Q 420 81 407 80 Q 400 80 394 68 Z" style="fill: #0070C0;"></path>
                                                                        <path d="M 585 58 Q 631 15 686 -46 Q 702 -65 717 -70 Q 726 -71 733 -61 Q 745 -48 733 -5 Q 721 37 659 61 Q 637 73 586 88 Q 577 94 575 81 Q 574 68 585 58 Z" style="fill: #0070C0;"></path>
                                    
                                    
                                                                                                                                                                                                                                                                                                                                                                                                                                                                                                                                                                                                                                                                                                                                                                                                                                                                                                                                                                                                                                                                                                                                                                                                                                                                                                                                                                                                                        </g>
                            </svg>