<svg width='83' height='83' >
                                <g transform="translate(3, 70) scale(0.07, -0.07)">
                                    <!-- 先将完整的字以灰色字体绘制完成，层级位于下面 -->
                                                                        <path d="M 331 700 Q 359 678 388 653 Q 401 641 415 643 Q 425 644 429 656 Q 433 669 423 697 Q 411 727 324 743 Q 309 746 304 743 Q 300 739 301 727 Q 305 717 331 700 Z" style="fill: #0070C0;"></path>
                                                                        <path d="M 650 761 Q 626 733 581 689 Q 574 682 579 675 Q 586 672 594 676 Q 679 716 719 731 Q 737 734 734 745 Q 730 761 714 782 Q 698 801 676 807 Q 661 808 660 790 Q 661 777 650 761 Z" style="fill: #0070C0;"></path>
                                                                        <path d="M 525 584 Q 567 593 778 615 Q 790 614 800 627 Q 801 640 777 652 Q 738 676 670 656 Q 547 632 528 626 L 486 618 Q 423 609 367 603 Q 306 599 238 591 Q 207 588 230 569 Q 266 538 296 546 Q 363 559 447 572 L 525 584 Z" style="fill: #0070C0;"></path>
                                                                        <path d="M 483 540 Q 474 447 477 438 Q 483 426 489 415 Q 499 399 513 407 Q 526 417 525 446 Q 525 482 525 514 Q 524 550 525 584 L 528 626 Q 534 735 558 778 Q 564 787 553 800 Q 531 819 503 830 Q 487 839 472 833 Q 459 829 465 815 Q 490 775 487 712 Q 487 660 486 618 L 483 540 Z" style="fill: #0070C0;"></path>
                                                                        <path d="M 447 572 Q 393 479 227 386 Q 209 376 224 374 Q 234 371 271 382 Q 314 392 353 418 Q 387 440 428 478 Q 461 508 483 540 C 514 583 475 617 447 572 Z" style="fill: #0070C0;"></path>
                                                                        <path d="M 587 516 Q 645 473 714 409 Q 730 391 746 389 Q 755 388 761 399 Q 771 412 755 452 Q 739 504 585 545 Q 576 549 575 537 Q 576 524 587 516 Z" style="fill: #0070C0;"></path>
                                                                        <path d="M 536 247 Q 680 259 886 249 Q 908 249 914 258 Q 921 271 902 288 Q 844 336 772 321 Q 675 306 527 286 L 462 279 Q 314 266 143 249 Q 119 248 136 227 Q 170 193 215 202 Q 327 230 455 240 L 536 247 Z" style="fill: #0070C0;"></path>
                                                                        <path d="M 527 286 Q 536 331 544 343 Q 551 350 546 362 Q 539 369 507 383 Q 471 401 454 394 Q 441 387 452 370 Q 465 334 462 281 L 462 279 L 455 240 Q 416 125 322 70 Q 277 45 191 11 Q 163 -1 195 -4 Q 214 -5 257 6 Q 309 16 355 37 Q 398 53 431 89 Q 479 134 513 232 L 527 286 Z" style="fill: #0070C0;"></path>
                                                                        <path d="M 513 232 Q 600 118 696 13 Q 718 -12 760 -16 Q 835 -23 913 -13 Q 932 -12 935 -7 Q 938 0 922 7 Q 736 88 731 92 Q 653 140 536 247 C 514 267 495 256 513 232 Z" style="fill: #0070C0;"></path>
                                    
                                    
                                                                                                                                                                                                                                                                                                                                                                                                                                                                                                                                                                                                                                                                                                                                                                                        </g>
                            </svg>