<svg width='83' height='83' >
                                <g transform="translate(3, 70) scale(0.07, -0.07)">
                                    <!-- 先将完整的字以灰色字体绘制完成，层级位于下面 -->
                                                                        <path d="M 157 592 Q 178 564 199 533 Q 208 520 221 516 Q 231 515 237 525 Q 244 537 242 563 Q 239 593 163 634 Q 150 640 144 639 Q 140 636 138 625 Q 139 615 157 592 Z" style="fill: #0070C0;"></path>
                                                                        <path d="M 428 651 Q 415 620 382 571 Q 378 564 383 559 Q 390 558 396 563 Q 460 618 492 640 Q 507 646 502 655 Q 496 668 478 681 Q 460 694 441 695 Q 428 694 431 677 Q 435 665 428 651 Z" style="fill: #0070C0;"></path>
                                                                        <path d="M 339 438 Q 394 451 462 464 Q 478 467 478 474 Q 479 486 461 494 Q 430 506 340 477 L 298 466 Q 142 429 87 421 Q 75 420 72 412 Q 71 402 85 391 Q 121 367 185 390 Q 230 406 268 418 L 339 438 Z" style="fill: #0070C0;"></path>
                                                                        <path d="M 293 362 Q 289 212 276 150 Q 254 63 267 27 Q 271 15 277 2 Q 283 -16 291 -19 Q 297 -25 304 -17 Q 311 -13 322 7 Q 332 32 331 62 Q 331 105 339 438 L 340 477 Q 340 669 365 754 Q 380 779 350 799 Q 335 811 310 825 Q 288 843 267 827 Q 263 823 268 807 Q 301 759 301 678 Q 301 558 298 466 L 293 362 Z" style="fill: #0070C0;"></path>
                                                                        <path d="M 268 418 Q 217 300 59 113 Q 53 103 64 102 Q 70 101 80 109 Q 213 212 293 362 C 336 441 285 455 268 418 Z" style="fill: #0070C0;"></path>
                                                                        <path d="M 359 359 Q 398 293 419 288 Q 431 285 438 300 Q 442 310 436 330 Q 430 346 410 357 Q 380 376 367 382 Q 360 385 357 375 Q 354 368 359 359 Z" style="fill: #0070C0;"></path>
                                                                        <path d="M 658 327 Q 662 430 668 527 L 669 554 Q 670 632 690 735 Q 694 747 672 763 Q 635 782 608 787 Q 590 790 582 781 Q 575 772 583 757 Q 610 718 610 692 Q 620 520 614 319 C 613 289 657 297 658 327 Z" style="fill: #0070C0;"></path>
                                                                        <path d="M 668 527 Q 696 518 769 533 Q 802 540 839 549 Q 861 555 864 558 Q 871 565 867 573 Q 860 583 833 589 Q 805 593 779 582 Q 754 573 727 566 Q 700 559 669 554 C 639 549 639 534 668 527 Z" style="fill: #0070C0;"></path>
                                                                        <path d="M 514 308 Q 504 312 481 317 Q 468 321 465 316 Q 458 310 466 294 Q 493 230 506 125 Q 507 94 524 72 Q 540 50 547 65 Q 551 77 552 94 L 550 128 Q 550 131 550 133 Q 535 245 534 277 C 533 302 533 302 514 308 Z" style="fill: #0070C0;"></path>
                                                                        <path d="M 795 154 Q 825 250 860 273 Q 878 292 863 311 Q 788 374 740 350 Q 695 338 658 327 L 614 319 Q 565 313 514 308 C 484 305 505 270 534 277 Q 541 278 551 281 Q 642 294 729 307 Q 751 311 761 301 Q 771 291 768 270 Q 756 209 741 159 C 733 130 786 125 795 154 Z" style="fill: #0070C0;"></path>
                                                                        <path d="M 552 94 Q 562 91 578 93 Q 651 108 810 116 Q 820 117 823 126 Q 823 135 795 154 C 777 166 770 165 741 159 Q 635 137 550 128 C 520 125 522 99 552 94 Z" style="fill: #0070C0;"></path>
                                    
                                    
                                                                                                                                                                                                                                                                                                                                                                                                                                                                                                                                                                                                                                                                                                                                                                                                                                                                                                                                                </g>
                            </svg>