<svg width='83' height='83' >
                                <g transform="translate(3, 70) scale(0.07, -0.07)">
                                    <!-- 先将完整的字以灰色字体绘制完成，层级位于下面 -->
                                                                        <path d="M 173 594 Q 195 572 218 543 Q 230 530 245 529 Q 255 529 261 541 Q 267 554 261 584 Q 255 611 173 640 Q 158 644 152 643 Q 148 639 147 627 Q 150 617 173 594 Z" style="fill: #0070C0;"></path>
                                                                        <path d="M 414 644 Q 404 616 378 571 Q 374 564 379 559 Q 386 559 392 564 Q 450 616 478 637 Q 493 643 488 652 Q 481 665 462 677 Q 443 690 424 689 Q 412 686 415 670 Q 419 660 414 644 Z" style="fill: #0070C0;"></path>
                                                                        <path d="M 346 457 Q 380 466 422 472 Q 438 475 438 482 Q 439 494 422 502 Q 392 514 347 499 L 300 487 Q 174 457 91 445 Q 79 444 77 436 Q 74 426 89 415 Q 128 391 180 410 Q 228 428 269 438 L 346 457 Z" style="fill: #0070C0;"></path>
                                                                        <path d="M 344 401 Q 344 429 346 457 L 347 499 Q 353 686 370 743 Q 379 759 376 772 Q 369 782 314 817 Q 290 835 269 819 Q 265 815 270 798 Q 300 752 302 667 Q 302 537 300 487 L 297 392 Q 294 236 279 166 Q 258 97 277 42 Q 278 36 283 27 Q 290 8 298 5 Q 304 -2 312 7 Q 339 23 340 89 Q 339 125 344 368 L 344 401 Z" style="fill: #0070C0;"></path>
                                                                        <path d="M 269 438 Q 211 321 52 149 Q 45 140 56 138 Q 77 135 188 244 Q 243 299 296 390 Q 296 391 297 392 C 334 457 288 476 269 438 Z" style="fill: #0070C0;"></path>
                                                                        <path d="M 344 368 Q 353 359 385 320 Q 394 310 405 308 Q 412 308 417 317 Q 421 327 419 349 Q 416 370 348 400 Q 347 401 344 401 C 315 407 323 390 344 368 Z" style="fill: #0070C0;"></path>
                                                                        <path d="M 579 637 Q 621 631 671 640 Q 872 685 882 690 Q 882 691 883 691 Q 892 700 887 708 Q 880 720 850 727 Q 826 731 704 694 Q 604 675 569 670 Q 566 670 564 669 C 534 664 549 641 579 637 Z" style="fill: #0070C0;"></path>
                                                                        <path d="M 562 520 Q 562 583 578 634 Q 578 637 579 637 C 584 655 584 655 564 669 Q 524 700 502 692 Q 490 685 497 672 Q 512 653 513 589 Q 512 580 512 569 Q 509 434 472 314 Q 439 221 374 117 Q 370 111 368 105 Q 365 95 375 97 Q 405 103 474 213 Q 484 234 496 256 Q 539 355 560 498 L 562 520 Z" style="fill: #0070C0;"></path>
                                                                        <path d="M 707 498 Q 803 519 909 530 Q 919 529 929 542 Q 930 554 907 564 Q 879 585 797 560 Q 773 556 752 550 Q 685 535 564 521 Q 563 521 562 520 C 533 515 534 513 560 498 Q 590 477 635 484 Q 650 487 670 491 L 707 498 Z" style="fill: #0070C0;"></path>
                                                                        <path d="M 705 381 Q 712 374 774 369 Q 813 366 814 331 Q 813 322 811 305 Q 793 178 753 119 Q 735 100 712 102 Q 702 106 679 117 Q 642 136 638 130 Q 632 121 649 109 Q 691 67 699 31 Q 705 15 716 8 Q 729 2 762 24 Q 811 63 844 195 Q 859 303 889 332 Q 899 338 900 347 Q 901 356 876 380 Q 840 410 789 402 Q 750 405 716 412 C 687 417 677 390 705 381 Z" style="fill: #0070C0;"></path>
                                                                        <path d="M 716 412 Q 725 439 737 466 Q 736 467 736 468 Q 726 483 707 498 C 684 517 665 521 670 491 Q 686 427 604 258 Q 601 255 599 249 Q 571 203 538 166 Q 520 144 502 125 Q 498 121 494 116 Q 490 107 499 107 Q 532 107 604 189 Q 608 195 613 200 Q 668 275 705 381 L 716 412 Z" style="fill: #0070C0;"></path>
                                    
                                    
                                                                                                                                                                                                                                                                                                                                                                                                                                                                                                                                                                                                                                                                                                                                                                                                                                                                                                                                                </g>
                            </svg>