<svg width='83' height='83' >
                                <g transform="translate(3, 70) scale(0.07, -0.07)">
                                    <!-- 先将完整的字以灰色字体绘制完成，层级位于下面 -->
                                                                        <path d="M 316 541 Q 332 629 357 656 Q 376 680 355 691 Q 337 701 313 715 Q 298 724 257 698 Q 203 677 180 671 Q 170 670 171 665 Q 172 661 185 654 Q 195 650 274 667 Q 287 671 290 665 Q 297 659 290 625 Q 283 588 272 545 C 265 516 310 512 316 541 Z" style="fill: #0070C0;"></path>
                                                                        <path d="M 202 488 Q 206 488 213 490 Q 247 502 325 517 Q 334 518 334 527 Q 334 533 316 541 L 272 545 Q 268 545 265 543 Q 219 524 183 514 C 154 506 172 485 202 488 Z" style="fill: #0070C0;"></path>
                                                                        <path d="M 226 345 Q 244 348 252 339 Q 262 326 261 291 Q 260 224 246 176 Q 234 139 223 126 Q 216 116 192 123 Q 170 127 151 130 Q 136 134 139 125 Q 142 113 155 102 Q 183 75 200 50 Q 216 31 235 44 Q 289 95 295 141 Q 295 144 296 146 Q 318 320 325 330 Q 334 346 324 356 Q 311 371 283 382 Q 261 391 247 383 Q 234 379 188 360 Q 181 357 178 359 Q 174 363 199 470 Q 202 480 202 488 C 205 502 205 502 183 514 Q 174 520 161 526 Q 149 535 141 528 Q 132 522 142 510 Q 161 479 151 429 Q 138 363 111 337 Q 101 324 105 313 Q 112 301 122 295 Q 132 288 148 303 Q 178 340 226 345 Z" style="fill: #0070C0;"></path>
                                                                        <path d="M 368 539 Q 395 485 418 471 Q 428 467 436 474 Q 443 481 444 494 Q 444 527 384 564 Q 374 571 366 570 Q 362 570 361 561 Q 360 552 368 539 Z" style="fill: #0070C0;"></path>
                                                                        <path d="M 584 606 Q 571 575 542 527 Q 538 520 543 515 Q 550 515 555 520 Q 615 577 645 599 Q 658 605 654 613 Q 647 625 630 637 Q 612 650 594 648 Q 584 647 586 631 Q 590 621 584 606 Z" style="fill: #0070C0;"></path>
                                                                        <path d="M 510 421 Q 517 424 601 444 Q 610 444 616 455 Q 616 464 596 470 Q 572 485 510 459 L 474 446 Q 437 436 341 411 Q 319 407 337 394 Q 368 376 388 384 Q 418 396 457 406 L 510 421 Z" style="fill: #0070C0;"></path>
                                                                        <path d="M 509 315 Q 509 364 510 421 L 510 459 Q 510 678 527 742 Q 534 755 532 767 Q 526 776 477 805 Q 456 820 438 806 Q 434 802 440 788 Q 471 742 472 697 Q 473 630 476 552 Q 475 500 474 446 L 472 334 Q 472 213 449 132 Q 440 95 463 43 Q 469 28 476 25 Q 482 19 488 26 Q 495 30 504 49 Q 511 71 511 98 Q 510 126 509 290 L 509 315 Z" style="fill: #0070C0;"></path>
                                                                        <path d="M 457 406 Q 424 310 322 163 Q 318 154 328 154 Q 332 153 341 161 Q 426 240 472 334 C 520 430 467 434 457 406 Z" style="fill: #0070C0;"></path>
                                                                        <path d="M 509 290 Q 584 223 595 222 L 597 222 Q 606 222 609 233 Q 613 243 606 267 Q 602 283 576 296 Q 521 318 509 315 C 483 313 487 310 509 290 Z" style="fill: #0070C0;"></path>
                                                                        <path d="M 808 558 Q 833 657 872 690 Q 888 708 873 725 Q 857 737 806 758 Q 788 765 730 736 Q 700 726 670 717 Q 655 714 658 706 Q 661 699 678 695 Q 702 688 732 701 Q 780 710 783 707 Q 793 697 790 675 Q 775 608 757 555 C 748 527 800 529 808 558 Z" style="fill: #0070C0;"></path>
                                                                        <path d="M 706 507 Q 709 507 713 508 Q 747 518 824 529 Q 833 530 833 538 Q 833 545 808 558 C 792 566 786 564 757 555 Q 717 542 686 533 C 657 525 676 504 706 507 Z" style="fill: #0070C0;"></path>
                                                                        <path d="M 788 386 Q 807 387 815 379 Q 827 366 823 326 Q 805 143 758 94 Q 751 85 727 93 Q 696 106 672 116 Q 656 123 658 112 Q 659 99 672 85 Q 706 48 724 12 Q 740 -13 765 1 Q 796 26 822 59 Q 844 80 851 133 Q 864 205 879 316 Q 880 341 895 366 Q 905 384 895 393 Q 882 411 851 425 Q 827 435 812 427 Q 787 420 701 395 Q 688 392 683 397 Q 679 400 682 410 Q 706 495 706 507 C 708 518 708 518 686 533 Q 679 540 663 548 Q 651 558 642 551 Q 632 545 642 531 Q 658 503 647 457 Q 634 399 609 376 Q 596 361 601 349 Q 608 336 619 328 Q 629 321 648 336 Q 675 361 705 370 Q 760 388 788 386 Z" style="fill: #0070C0;"></path>
                                    
                                    
                                                                                                                                                                                                                                                                                                                                                                                                                                                                                                                                                                                                                                                                                                                                                                                                                                                                                                                                                                                                                            </g>
                            </svg>