<svg width='83' height='83' >
                                <g transform="translate(3, 70) scale(0.07, -0.07)">
                                    <!-- 先将完整的字以灰色字体绘制完成，层级位于下面 -->
                                                                        <path d="M 348 705 Q 367 687 390 666 Q 402 656 416 656 Q 425 657 429 668 Q 433 681 425 707 Q 419 723 395 733 Q 335 751 324 747 Q 320 743 321 732 Q 325 722 348 705 Z" style="fill: #0070C0;"></path>
                                                                        <path d="M 641 760 Q 623 735 588 696 Q 582 689 587 683 Q 594 682 601 685 Q 671 722 705 736 Q 721 739 718 749 Q 714 764 698 782 Q 682 798 662 803 Q 649 803 649 786 Q 650 773 641 760 Z" style="fill: #0070C0;"></path>
                                                                        <path d="M 548 600 Q 581 606 756 623 Q 766 622 776 634 Q 777 646 755 657 Q 722 682 658 661 Q 540 639 534 635 L 493 628 Q 436 622 269 604 Q 241 603 262 584 Q 290 556 323 563 Q 377 573 442 583 L 548 600 Z" style="fill: #0070C0;"></path>
                                                                        <path d="M 534 635 Q 537 737 563 786 Q 569 796 557 809 Q 506 851 477 841 Q 464 837 469 822 Q 494 782 493 715 Q 493 669 493 628 L 492 569 Q 489 491 482 458 Q 481 446 497 407 Q 507 391 521 399 Q 534 411 533 438 Q 533 475 531 510 Q 530 546 531 581 L 534 635 Z" style="fill: #0070C0;"></path>
                                                                        <path d="M 442 583 Q 379 492 227 410 Q 209 401 224 398 Q 234 394 271 405 Q 311 415 351 438 Q 430 486 477 550 Q 484 562 492 569 C 513 591 484 641 442 583 Z" style="fill: #0070C0;"></path>
                                                                        <path d="M 531 581 Q 604 502 685 430 Q 707 409 743 410 Q 809 410 875 427 Q 893 431 894 435 Q 895 442 881 446 Q 838 459 788 471 Q 674 501 548 600 C 524 618 511 603 531 581 Z" style="fill: #0070C0;"></path>
                                                                        <path d="M 617 309 Q 725 328 728 330 Q 737 337 734 345 Q 728 357 702 366 Q 666 375 629 361 L 572 348 Q 499 336 447 328 L 391 323 Q 346 322 299 320 Q 265 319 288 301 Q 321 274 379 282 Q 386 283 397 284 L 446 289 Q 506 298 569 304 L 617 309 Z" style="fill: #0070C0;"></path>
                                                                        <path d="M 447 328 Q 447 341 449 347 Q 452 369 438 381 Q 416 397 390 406 Q 377 412 368 406 Q 361 399 367 385 Q 383 358 390 330 Q 390 327 391 323 L 397 284 Q 401 251 408 194 C 412 164 448 168 447 198 Q 446 252 446 289 L 447 328 Z" style="fill: #0070C0;"></path>
                                                                        <path d="M 595 213 Q 605 262 617 309 L 629 361 Q 630 368 634 375 Q 638 385 642 392 Q 646 401 631 415 Q 606 434 586 439 Q 573 443 566 438 Q 559 432 564 419 Q 574 398 572 348 L 569 304 Q 565 259 558 209 C 554 179 589 184 595 213 Z" style="fill: #0070C0;"></path>
                                                                        <path d="M 408 194 Q 269 184 114 170 Q 92 169 107 151 Q 122 136 140 130 Q 162 123 178 127 Q 466 197 899 175 Q 900 176 903 175 Q 924 174 930 183 Q 936 195 919 210 Q 865 252 827 245 Q 736 230 595 213 L 558 209 Q 533 208 506 204 Q 476 203 447 198 L 408 194 Z" style="fill: #0070C0;"></path>
                                                                        <path d="M 382 115 Q 364 64 227 -21 Q 203 -31 231 -33 Q 294 -36 400 37 Q 406 43 446 70 Q 459 79 458 89 Q 457 102 433 114 Q 408 129 395 127 Q 388 127 382 115 Z" style="fill: #0070C0;"></path>
                                                                        <path d="M 586 109 Q 641 60 708 -10 Q 724 -31 741 -35 Q 750 -36 757 -25 Q 770 -12 756 33 Q 744 82 586 141 Q 577 145 575 133 Q 575 120 586 109 Z" style="fill: #0070C0;"></path>
                                    
                                    
                                                                                                                                                                                                                                                                                                                                                                                                                                                                                                                                                                                                                                                                                                                                                                                                                                                                                                                                                                                                                            </g>
                            </svg>