<svg width='83' height='83' >
                                <g transform="translate(3, 70) scale(0.07, -0.07)">
                                    <!-- 先将完整的字以灰色字体绘制完成，层级位于下面 -->
                                                                        <path d="M 147 569 Q 184 515 197 512 Q 207 511 213 521 Q 220 533 217 560 Q 214 581 151 610 Q 138 616 132 615 Q 128 612 126 601 Q 127 591 147 569 Z" style="fill: #0070C0;"></path>
                                                                        <path d="M 365 637 Q 355 610 330 567 Q 326 560 331 555 Q 338 555 344 560 Q 401 609 430 628 Q 443 635 439 643 Q 432 656 414 669 Q 395 682 377 681 Q 364 680 367 663 Q 371 653 365 637 Z" style="fill: #0070C0;"></path>
                                                                        <path d="M 305 447 Q 348 456 385 463 Q 395 462 403 475 Q 403 485 381 494 Q 354 510 324 501 Q 314 498 306 494 L 264 481 Q 252 478 242 475 Q 227 472 82 439 Q 55 435 77 419 Q 113 398 137 405 Q 180 418 238 431 L 305 447 Z" style="fill: #0070C0;"></path>
                                                                        <path d="M 303 399 Q 304 423 305 447 L 306 494 Q 306 638 328 713 Q 337 726 334 740 Q 327 749 275 781 Q 253 797 234 783 Q 230 779 235 764 Q 265 719 265 645 Q 265 498 264 481 L 260 372 Q 251 188 250 181 Q 226 70 228 62 Q 228 53 246 13 Q 252 -3 259 -7 Q 265 -13 272 -5 Q 279 -1 289 18 Q 299 42 298 71 Q 297 108 303 375 L 303 399 Z" style="fill: #0070C0;"></path>
                                                                        <path d="M 238 431 Q 190 313 47 132 Q 41 123 52 122 Q 58 121 66 129 Q 186 228 260 372 C 302 452 252 463 238 431 Z" style="fill: #0070C0;"></path>
                                                                        <path d="M 303 375 Q 345 321 364 318 Q 374 317 381 332 Q 382 342 376 359 Q 361 386 306 399 Q 303 400 303 399 C 284 400 285 399 303 375 Z" style="fill: #0070C0;"></path>
                                                                        <path d="M 513 671 Q 534 646 556 614 Q 566 601 581 599 Q 591 598 597 609 Q 604 622 600 650 Q 599 669 572 687 Q 512 723 496 719 Q 492 716 490 704 Q 491 694 513 671 Z" style="fill: #0070C0;"></path>
                                                                        <path d="M 657 550 Q 688 589 759 685 Q 772 707 794 724 Q 813 740 796 756 Q 778 769 747 775 Q 719 782 707 775 Q 694 769 703 757 Q 713 736 666 621 Q 648 585 631 545 C 619 517 638 526 657 550 Z" style="fill: #0070C0;"></path>
                                                                        <path d="M 511 482 Q 649 521 874 521 Q 895 521 900 530 Q 904 542 889 554 Q 831 596 777 575 Q 728 565 657 550 L 631 545 Q 534 530 419 510 Q 400 507 415 491 Q 439 467 480 473 L 511 482 Z" style="fill: #0070C0;"></path>
                                                                        <path d="M 534 276 Q 495 276 464 276 Q 436 275 450 293 Q 496 366 539 422 Q 551 435 548 443 Q 547 455 513 481 Q 512 482 511 482 C 487 500 475 503 480 473 Q 492 440 434 330 Q 422 306 395 282 Q 380 270 381 260 Q 385 244 397 229 Q 403 223 430 232 Q 470 250 522 256 C 552 260 564 276 534 276 Z" style="fill: #0070C0;"></path>
                                                                        <path d="M 575 145 Q 532 138 484 122 Q 459 112 474 133 Q 582 290 633 333 Q 643 343 638 352 Q 628 368 598 385 Q 583 392 575 390 Q 566 387 568 373 Q 569 343 534 276 L 522 256 Q 521 255 520 252 Q 433 122 405 107 Q 393 98 396 86 Q 397 74 421 57 Q 431 47 444 58 Q 495 97 582 130 L 584 130 C 612 140 605 150 575 145 Z" style="fill: #0070C0;"></path>
                                                                        <path d="M 584 130 Q 603 96 613 92 Q 620 91 626 97 Q 632 106 633 127 Q 633 149 578 185 Q 569 191 564 190 Q 560 189 558 180 Q 558 173 571 153 Q 572 150 575 145 L 584 130 Z" style="fill: #0070C0;"></path>
                                                                        <path d="M 785 296 Q 742 296 707 296 Q 676 296 692 314 Q 737 381 779 431 Q 791 447 789 453 Q 788 466 753 493 Q 738 506 722 502 Q 712 499 718 486 Q 730 453 672 349 Q 660 327 635 304 Q 619 291 620 281 Q 624 265 636 248 Q 645 238 656 245 Q 680 258 758 272 Q 764 273 771 273 C 801 275 815 296 785 296 Z" style="fill: #0070C0;"></path>
                                                                        <path d="M 838 161 Q 792 154 735 137 Q 707 127 725 151 Q 756 194 831 283 Q 858 319 881 339 Q 893 349 887 358 Q 877 376 845 394 Q 830 401 821 399 Q 812 396 814 382 Q 815 355 785 296 L 771 273 Q 680 138 652 124 Q 639 117 642 103 Q 643 90 668 72 Q 678 60 692 72 Q 758 117 846 143 C 875 152 868 166 838 161 Z" style="fill: #0070C0;"></path>
                                                                        <path d="M 846 143 Q 889 61 891 59 Q 897 56 905 62 Q 918 69 919 105 Q 919 150 820 236 Q 814 242 809 233 Q 805 223 811 212 Q 824 190 838 161 L 846 143 Z" style="fill: #0070C0;"></path>
                                    
                                    
                                                                                                                                                                                                                                                                                                                                                                                                                                                                                                                                                                                                                                                                                                                                                                                                                                                                                                                                                                                                                                                                                                                                                                                                                                                                </g>
                            </svg>