<svg width='83' height='83' >
                                <g transform="translate(3, 70) scale(0.07, -0.07)">
                                    <!-- 先将完整的字以灰色字体绘制完成，层级位于下面 -->
                                                                        <path d="M 502 821 Q 529 805 559 784 Q 572 775 586 778 Q 595 779 597 792 Q 598 805 587 829 Q 580 845 550 854 Q 481 866 471 859 Q 468 855 471 844 Q 475 835 502 821 Z" style="fill: #0070C0;"></path>
                                                                        <path d="M 331 695 Q 332 695 335 694 Q 359 687 386 692 Q 774 744 789 756 Q 796 762 794 770 Q 788 780 764 789 Q 739 796 712 788 Q 523 737 317 727 C 287 725 302 702 331 695 Z" style="fill: #0070C0;"></path>
                                                                        <path d="M 317 727 Q 304 739 283 748 Q 264 758 251 754 Q 238 747 245 733 Q 264 706 260 640 Q 242 415 189 279 Q 152 189 52 35 Q 46 28 44 22 Q 41 12 52 13 Q 82 19 166 134 Q 188 168 209 209 Q 287 365 309 573 Q 315 651 331 695 C 337 713 337 713 317 727 Z" style="fill: #0070C0;"></path>
                                                                        <path d="M 467 560 Q 486 566 511 570 Q 536 577 540 580 Q 546 586 542 592 Q 538 599 517 604 Q 484 610 471 597 L 428 583 Q 347 568 340 566 Q 315 562 334 550 Q 361 535 412 547 L 467 560 Z" style="fill: #0070C0;"></path>
                                                                        <path d="M 464 537 Q 465 549 467 560 L 471 597 Q 472 613 484 633 Q 488 640 480 650 Q 462 663 441 673 Q 428 679 418 675 Q 408 671 412 660 Q 427 636 428 583 L 428 500 Q 428 449 424 428 Q 424 424 435 388 Q 442 376 454 383 Q 461 389 462 501 Q 462 510 463 516 L 464 537 Z" style="fill: #0070C0;"></path>
                                                                        <path d="M 412 547 Q 382 484 308 389 Q 304 382 312 381 Q 316 380 324 387 Q 384 429 428 500 C 466 560 425 574 412 547 Z" style="fill: #0070C0;"></path>
                                                                        <path d="M 463 516 Q 500 467 512 464 Q 519 463 525 472 Q 526 479 523 493 Q 511 521 464 537 C 441 545 445 540 463 516 Z" style="fill: #0070C0;"></path>
                                                                        <path d="M 685 593 Q 722 603 764 612 Q 792 619 796 623 Q 802 629 798 635 Q 794 644 771 649 Q 755 652 690 631 L 643 618 Q 613 612 581 608 Q 554 604 574 591 Q 595 579 630 581 L 685 593 Z" style="fill: #0070C0;"></path>
                                                                        <path d="M 681 556 Q 682 575 685 593 L 690 631 Q 691 646 702 662 Q 706 669 697 681 Q 679 694 657 704 Q 644 711 632 706 Q 622 702 626 691 Q 641 666 643 618 L 643 529 Q 640 435 648 423 Q 648 422 651 417 Q 658 404 670 411 Q 679 418 679 529 L 681 556 Z" style="fill: #0070C0;"></path>
                                                                        <path d="M 630 581 Q 600 518 524 426 Q 520 419 528 417 Q 532 416 540 422 Q 600 465 643 529 C 686 592 643 608 630 581 Z" style="fill: #0070C0;"></path>
                                                                        <path d="M 679 529 Q 719 496 769 448 Q 782 433 793 431 Q 800 430 805 438 Q 812 448 802 479 Q 792 513 681 556 C 653 567 656 548 679 529 Z" style="fill: #0070C0;"></path>
                                                                        <path d="M 374 326 Q 416 266 438 262 Q 451 261 457 277 Q 460 289 452 308 Q 445 323 424 331 Q 393 347 380 351 Q 371 352 370 342 Q 369 335 374 326 Z" style="fill: #0070C0;"></path>
                                                                        <path d="M 662 362 Q 638 335 593 295 Q 587 289 591 283 Q 597 282 603 284 Q 681 323 717 336 Q 732 337 730 347 Q 727 360 714 378 Q 701 394 684 399 Q 672 400 670 385 Q 671 373 662 362 Z" style="fill: #0070C0;"></path>
                                                                        <path d="M 564 214 Q 625 220 840 221 Q 858 221 862 228 Q 866 238 853 252 Q 805 288 773 280 Q 694 265 558 246 L 511 240 Q 405 230 283 216 Q 264 215 278 199 Q 291 186 307 181 Q 326 177 340 180 Q 409 199 486 206 L 564 214 Z" style="fill: #0070C0;"></path>
                                                                        <path d="M 558 246 Q 559 309 565 335 Q 566 347 561 352 Q 539 371 522 381 Q 510 384 502 377 Q 496 374 503 365 Q 513 349 511 240 L 506 159 Q 497 59 492 46 Q 483 12 514 -37 Q 524 -53 531 -58 Q 541 -59 547 -47 Q 559 -19 556 10 Q 555 107 556 188 L 558 246 Z" style="fill: #0070C0;"></path>
                                                                        <path d="M 486 206 Q 428 104 234 2 Q 218 -7 232 -10 Q 241 -13 276 -3 Q 322 9 367 36 Q 449 88 506 159 C 550 213 503 234 486 206 Z" style="fill: #0070C0;"></path>
                                                                        <path d="M 556 188 Q 629 100 711 17 Q 732 -5 767 -6 Q 831 -10 900 1 Q 918 2 919 8 Q 920 14 907 20 Q 745 81 735 87 Q 723 96 712 102 Q 673 124 564 214 C 541 233 533 215 556 188 Z" style="fill: #0070C0;"></path>
                                    
                                    
                                                                                                                                                                                                                                                                                                                                                                                                                                                                                                                                                                                                                                                                                                                                                                                                                                                                                                                                                                                                                                                                                                                                                                                                                                                                                                                                                                                                                        </g>
                            </svg>