<svg width='83' height='83' >
                                <g transform="translate(3, 70) scale(0.07, -0.07)">
                                    <!-- 先将完整的字以灰色字体绘制完成，层级位于下面 -->
                                                                        <path d="M 463 819 Q 490 801 518 779 Q 531 769 545 771 Q 554 772 557 784 Q 560 797 549 822 Q 537 849 454 860 Q 441 861 436 859 Q 432 855 434 844 Q 438 834 463 819 Z" style="fill: #0070C0;"></path>
                                                                        <path d="M 607 725 Q 686 731 751 736 Q 761 735 771 746 Q 772 758 751 769 Q 718 793 643 774 Q 477 744 258 728 Q 230 727 250 708 Q 278 680 325 688 Q 433 706 573 720 L 607 725 Z" style="fill: #0070C0;"></path>
                                                                        <path d="M 463 524 Q 485 540 512 562 L 539 586 Q 584 631 626 660 Q 636 666 636 677 Q 636 683 607 725 C 590 750 585 748 573 720 Q 554 668 499 612 L 474 590 Q 371 512 236 468 Q 190 455 126 439 Q 117 436 121 431 Q 127 425 138 425 Q 322 422 441 510 Q 441 511 443 511 L 463 524 Z" style="fill: #0070C0;"></path>
                                                                        <path d="M 512 562 Q 618 478 738 417 Q 783 402 936 446 Q 946 450 949 459 Q 950 466 932 467 Q 875 476 813 480 Q 698 493 539 586 L 499 612 Q 412 679 348 663 Q 339 659 344 651 Q 350 644 360 643 Q 402 643 474 590 L 512 562 Z" style="fill: #0070C0;"></path>
                                                                        <path d="M 486 351 Q 435 358 395 364 Q 374 367 387 377 Q 439 420 484 448 Q 500 458 500 466 Q 501 478 477 512 Q 470 522 463 524 C 447 535 447 535 443 511 Q 443 481 373 410 Q 357 395 332 383 Q 313 374 313 364 Q 313 348 321 330 Q 328 320 339 323 Q 369 333 463 333 C 493 333 516 347 486 351 Z" style="fill: #0070C0;"></path>
                                                                        <path d="M 523 241 Q 575 253 630 260 Q 631 261 634 260 C 664 263 652 277 622 275 Q 526 269 412 249 Q 403 248 410 253 Q 453 287 552 353 Q 586 378 612 390 Q 625 396 623 406 Q 619 425 595 449 Q 583 462 574 461 Q 564 461 563 447 Q 553 410 486 351 L 463 333 Q 358 254 338 247 Q 325 243 324 230 Q 323 218 342 196 Q 349 184 363 192 Q 424 219 484 232 L 523 241 Z" style="fill: #0070C0;"></path>
                                                                        <path d="M 634 260 Q 674 212 684 209 Q 691 208 698 217 Q 702 227 701 249 Q 698 285 608 331 Q 598 335 592 334 Q 588 333 587 323 Q 587 316 622 275 L 634 260 Z" style="fill: #0070C0;"></path>
                                                                        <path d="M 484 232 Q 494 198 494 92 Q 493 56 488 48 Q 485 35 459 37 Q 438 40 415 43 Q 405 43 403 37 Q 402 30 412 22 Q 470 -26 489 -53 Q 502 -66 512 -63 Q 524 -59 535 -26 Q 551 7 548 67 Q 547 140 548 167 Q 555 207 539 227 Q 530 236 523 241 C 500 260 477 261 484 232 Z" style="fill: #0070C0;"></path>
                                                                        <path d="M 323 150 Q 292 111 255 80 Q 230 56 236 19 Q 239 0 262 7 Q 313 26 333 90 Q 346 118 345 144 Q 344 153 338 155 Q 329 156 323 150 Z" style="fill: #0070C0;"></path>
                                                                        <path d="M 640 137 Q 685 94 739 31 Q 754 12 769 6 Q 778 5 785 15 Q 798 28 786 71 Q 777 111 710 141 Q 667 160 642 168 Q 633 172 631 161 Q 630 148 640 137 Z" style="fill: #0070C0;"></path>
                                    
                                    
                                                                                                                                                                                                                                                                                                                                                                                                                                                                                                                                                                                                                                                                                                                                                                                                                                                                    </g>
                            </svg>