<svg width='83' height='83' >
                                <g transform="translate(3, 70) scale(0.07, -0.07)">
                                    <!-- 先将完整的字以灰色字体绘制完成，层级位于下面 -->
                                                                        <path d="M 331 485 Q 324 488 223 484 Q 189 483 206 505 Q 276 626 345 715 Q 360 733 357 740 Q 354 756 314 787 Q 298 802 278 797 Q 266 794 273 778 Q 291 738 200 568 Q 181 529 139 492 Q 120 477 122 465 Q 126 446 141 427 Q 151 417 164 423 Q 189 438 277 456 Q 299 459 315 463 C 344 469 361 483 331 485 Z" style="fill: #0070C0;"></path>
                                                                        <path d="M 315 463 Q 201 316 176 303 Q 161 293 164 279 Q 165 266 192 245 Q 202 233 218 245 Q 278 287 405 331 Q 424 335 427 345 Q 430 355 409 352 Q 345 340 265 317 Q 240 308 256 329 Q 298 384 396 496 Q 427 533 453 555 Q 466 565 460 575 Q 450 594 416 616 Q 400 626 390 623 Q 380 620 382 604 Q 383 570 331 485 L 315 463 Z" style="fill: #0070C0;"></path>
                                                                        <path d="M 132 141 Q 119 140 117 128 Q 116 115 126 106 Q 150 90 185 72 Q 195 69 208 79 Q 245 109 415 192 Q 440 204 457 219 Q 470 226 470 236 Q 464 242 451 239 Q 193 143 132 141 Z" style="fill: #0070C0;"></path>
                                                                        <path d="M 677 645 Q 845 684 847 685 Q 857 694 851 703 Q 844 716 812 724 Q 788 730 677 697 Q 580 676 531 672 Q 491 665 519 647 Q 558 623 625 635 L 677 645 Z" style="fill: #0070C0;"></path>
                                                                        <path d="M 712 426 Q 785 433 896 434 Q 953 431 960 443 Q 964 455 948 469 Q 890 511 822 493 Q 776 484 712 471 L 657 462 Q 557 447 441 431 Q 419 428 435 411 Q 469 380 516 394 Q 582 412 658 419 L 712 426 Z" style="fill: #0070C0;"></path>
                                                                        <path d="M 615 84 Q 563 96 511 108 Q 498 109 499 102 Q 500 95 512 87 Q 615 17 655 -28 Q 671 -46 687 -30 Q 726 9 721 86 Q 717 135 712 426 L 712 471 Q 712 558 723 587 Q 732 608 713 622 Q 695 635 677 645 C 651 661 608 660 625 635 Q 653 607 654 530 Q 654 497 657 462 L 658 419 Q 664 107 641 88 Q 631 79 615 84 Z" style="fill: #0070C0;"></path>
                                    
                                    
                                                                                                                                                                                                                                                                                                                                                                                                                                                                                                                                                    </g>
                            </svg>