<svg width='83' height='83' >
                                <g transform="translate(3, 70) scale(0.07, -0.07)">
                                    <!-- 先将完整的字以灰色字体绘制完成，层级位于下面 -->
                                                                        <path d="M 341 453 Q 283 454 236 453 Q 196 453 217 477 Q 290 607 363 702 Q 379 721 375 730 Q 372 746 328 780 Q 310 795 290 791 Q 277 787 285 770 Q 307 710 193 516 Q 175 491 145 463 Q 124 447 126 433 Q 130 412 147 393 Q 159 380 172 389 Q 214 411 322 425 C 352 429 371 453 341 453 Z" style="fill: #0070C0;"></path>
                                                                        <path d="M 322 425 Q 210 278 187 267 Q 172 257 175 243 Q 176 230 203 209 Q 213 196 230 209 Q 299 254 413 291 Q 432 295 435 305 Q 438 315 417 312 Q 354 302 277 280 Q 247 270 267 294 Q 406 483 466 531 Q 479 541 472 552 Q 462 571 428 591 Q 412 601 402 598 Q 392 595 394 579 Q 395 543 341 453 L 322 425 Z" style="fill: #0070C0;"></path>
                                                                        <path d="M 127 99 Q 114 96 113 85 Q 112 70 124 63 Q 151 50 188 34 Q 200 33 211 43 Q 331 128 454 214 Q 466 224 465 233 Q 459 239 446 234 Q 184 105 127 99 Z" style="fill: #0070C0;"></path>
                                                                        <path d="M 693 463 Q 862 505 867 508 Q 877 517 872 527 Q 863 540 830 548 Q 803 552 695 518 Q 595 494 531 486 Q 489 479 519 460 Q 571 430 646 454 L 648 454 L 693 463 Z" style="fill: #0070C0;"></path>
                                                                        <path d="M 648 454 Q 657 436 653 348 Q 650 297 644 204 C 642 174 693 182 697 212 Q 719 377 725 399 Q 735 418 725 431 Q 709 450 693 463 C 670 482 639 483 648 454 Z" style="fill: #0070C0;"></path>
                                                                        <path d="M 644 204 Q 559 195 461 183 Q 439 182 455 163 Q 470 148 488 143 Q 510 137 527 142 Q 654 175 945 174 Q 966 174 971 183 Q 977 195 960 209 Q 900 255 840 236 Q 782 227 697 212 L 644 204 Z" style="fill: #0070C0;"></path>
                                    
                                    
                                                                                                                                                                                                                                                                                                                                                                                                                                                                                                                                                    </g>
                            </svg>