<svg width='83' height='83' >
                                <g transform="translate(3, 70) scale(0.07, -0.07)">
                                    <!-- 先将完整的字以灰色字体绘制完成，层级位于下面 -->
                                                                        <path d="M 330 478 Q 275 479 230 479 Q 188 479 210 504 Q 280 631 347 725 Q 362 744 359 752 Q 356 768 313 799 Q 295 814 275 809 Q 263 805 271 789 Q 289 740 202 568 Q 183 528 141 489 Q 122 473 123 461 Q 127 442 143 422 Q 153 410 167 418 Q 197 433 294 449 Q 303 450 311 450 C 341 452 360 477 330 478 Z" style="fill: #0070C0;"></path>
                                                                        <path d="M 311 450 Q 215 309 189 294 Q 174 284 178 269 Q 179 256 209 235 Q 221 222 236 236 Q 297 284 409 325 Q 428 332 431 341 Q 434 351 413 347 Q 353 335 282 313 Q 252 300 271 326 Q 311 387 410 513 Q 438 555 465 578 Q 478 590 471 600 Q 458 619 422 639 Q 406 649 395 645 Q 385 641 387 625 Q 393 580 330 478 L 311 450 Z" style="fill: #0070C0;"></path>
                                                                        <path d="M 131 117 Q 118 116 117 104 Q 116 91 125 82 Q 150 67 185 49 Q 195 48 208 56 Q 239 84 402 169 Q 424 181 441 195 Q 454 202 454 213 Q 448 217 435 215 Q 323 172 180 124 Q 161 117 131 117 Z" style="fill: #0070C0;"></path>
                                                                        <path d="M 763 501 Q 818 507 888 508 Q 942 508 948 518 Q 952 530 937 542 Q 879 581 823 562 Q 796 558 763 549 L 710 538 Q 691 535 672 531 Q 573 513 455 494 Q 436 491 451 475 Q 464 462 482 458 Q 503 454 518 458 Q 626 491 710 496 L 763 501 Z" style="fill: #0070C0;"></path>
                                                                        <path d="M 710 496 Q 710 358 710 134 Q 709 112 697 102 Q 687 95 664 102 Q 637 109 611 114 Q 577 127 579 116 Q 580 109 602 93 Q 672 38 691 6 Q 712 -31 729 -32 Q 745 -33 761 4 Q 780 53 777 133 Q 764 317 763 501 L 763 549 Q 763 684 782 753 Q 800 786 740 810 Q 703 829 683 821 Q 664 814 681 789 Q 705 761 707 724 Q 708 705 710 538 L 710 496 Z" style="fill: #0070C0;"></path>
                                                                        <path d="M 511 349 Q 539 316 570 278 Q 580 263 596 262 Q 606 261 613 273 Q 620 286 615 316 Q 611 350 513 395 Q 498 401 492 399 Q 488 396 487 383 Q 488 373 511 349 Z" style="fill: #0070C0;"></path>
                                    
                                    
                                                                                                                                                                                                                                                                                                                                                                                                                                                                                                                                                    </g>
                            </svg>