<svg width='83' height='83' >
                                <g transform="translate(3, 70) scale(0.07, -0.07)">
                                    <!-- 先将完整的字以灰色字体绘制完成，层级位于下面 -->
                                                                        <path d="M 308 514 Q 256 514 213 514 Q 179 514 197 535 Q 266 650 332 737 Q 347 753 344 761 Q 341 776 303 807 Q 287 820 268 817 Q 258 814 263 799 Q 270 781 265 755 Q 252 706 191 596 Q 172 559 132 523 Q 113 510 115 497 Q 119 478 133 461 Q 143 449 156 457 Q 181 470 271 486 Q 278 487 287 487 C 317 489 338 514 308 514 Z" style="fill: #0070C0;"></path>
                                                                        <path d="M 287 487 Q 197 364 175 354 Q 162 344 164 331 Q 165 318 191 298 Q 201 286 216 298 Q 267 334 357 364 Q 376 368 379 377 Q 382 387 362 384 Q 317 378 263 366 Q 230 354 251 381 Q 291 436 382 547 Q 410 584 434 605 Q 446 615 440 625 Q 430 644 396 662 Q 380 671 371 668 Q 361 665 364 650 Q 367 608 308 515 Q 307 515 308 514 L 287 487 Z" style="fill: #0070C0;"></path>
                                                                        <path d="M 105 173 Q 92 170 91 159 Q 90 146 101 138 Q 126 125 162 108 Q 172 107 184 116 Q 223 152 382 241 Q 404 254 421 270 Q 434 280 433 289 Q 427 293 415 290 Q 300 239 155 183 Q 136 176 105 173 Z" style="fill: #0070C0;"></path>
                                                                        <path d="M 645 694 Q 697 727 768 746 Q 787 749 790 757 Q 793 769 779 780 Q 716 819 677 815 Q 670 811 669 798 Q 670 753 468 645 Q 464 635 470 632 Q 491 632 577 667 Q 589 671 602 676 L 645 694 Z" style="fill: #0070C0;"></path>
                                                                        <path d="M 682 435 Q 760 445 874 448 Q 931 448 937 459 Q 941 472 924 485 Q 861 528 797 505 Q 748 496 682 480 L 631 471 Q 535 455 424 435 Q 402 432 419 415 Q 452 388 501 400 Q 559 419 631 427 L 682 435 Z" style="fill: #0070C0;"></path>
                                                                        <path d="M 633 -6 Q 639 -31 646 -41 Q 652 -48 659 -46 Q 674 -37 680 24 Q 689 111 685 196 Q 681 253 682 435 L 682 480 Q 682 594 694 646 Q 697 664 682 674 Q 660 687 645 694 C 618 708 588 702 602 676 Q 606 664 615 653 Q 625 634 631 538 Q 631 507 631 471 L 631 427 Q 625 55 633 -6 Z" style="fill: #0070C0;"></path>
                                    
                                    
                                                                                                                                                                                                                                                                                                                                                                                                                                                                                                                                                    </g>
                            </svg>