<svg width='83' height='83' >
                                <g transform="translate(3, 70) scale(0.07, -0.07)">
                                    <!-- 先将完整的字以灰色字体绘制完成，层级位于下面 -->
                                                                        <path d="M 333 490 Q 281 491 238 492 Q 198 491 219 516 Q 286 634 351 721 Q 366 740 362 748 Q 359 763 317 796 Q 299 809 279 805 Q 267 802 275 785 Q 293 740 208 576 Q 189 539 149 501 Q 130 485 132 473 Q 136 454 151 434 Q 161 422 176 430 Q 213 451 315 463 C 345 467 363 489 333 490 Z" style="fill: #0070C0;"></path>
                                                                        <path d="M 315 463 Q 210 313 189 302 Q 176 292 178 278 Q 179 265 207 244 Q 219 232 234 245 Q 306 293 413 327 Q 432 331 435 341 Q 438 351 417 348 Q 356 338 281 317 Q 247 304 268 332 Q 310 395 407 522 Q 435 561 460 584 Q 473 594 466 605 Q 454 624 419 642 Q 403 651 393 648 Q 383 644 385 628 Q 391 589 333 490 L 315 463 Z" style="fill: #0070C0;"></path>
                                                                        <path d="M 140 125 Q 127 124 125 112 Q 124 99 134 90 Q 158 75 193 57 Q 203 54 216 64 Q 243 88 400 170 Q 422 180 437 195 Q 450 202 450 212 Q 444 218 431 215 Q 188 125 140 125 Z" style="fill: #0070C0;"></path>
                                                                        <path d="M 579 599 Q 610 642 643 704 Q 658 737 672 753 Q 681 765 675 778 Q 669 791 638 811 Q 610 827 590 824 Q 571 820 582 799 Q 603 766 544 636 Q 516 578 476 512 Q 466 500 465 494 Q 462 482 477 486 Q 504 498 566 581 L 579 599 Z" style="fill: #0070C0;"></path>
                                                                        <path d="M 566 581 Q 624 553 680 569 Q 755 587 832 607 Q 866 617 872 621 Q 882 631 876 639 Q 867 652 836 658 Q 809 661 712 628 Q 627 607 585 601 Q 581 601 579 599 C 550 591 546 590 566 581 Z" style="fill: #0070C0;"></path>
                                                                        <path d="M 494 400 Q 481 397 478 390 Q 477 383 485 379 Q 528 370 607 401 Q 629 408 631 400 Q 635 393 626 376 Q 514 189 525 116 Q 528 83 553 63 Q 614 12 764 14 Q 845 17 939 57 Q 970 72 961 94 Q 939 152 926 248 Q 922 261 914 261 Q 908 261 904 245 Q 898 211 892 174 Q 882 122 844 100 Q 808 81 726 79 Q 644 78 613 93 Q 585 106 576 135 Q 555 201 660 337 Q 691 380 726 399 Q 748 412 740 424 Q 733 437 682 461 Q 663 471 638 458 Q 562 415 494 400 Z" style="fill: #0070C0;"></path>
                                    
                                    
                                                                                                                                                                                                                                                                                                                                                                                                                                                                                                                                                    </g>
                            </svg>