<svg width='83' height='83' >
                                <g transform="translate(3, 70) scale(0.07, -0.07)">
                                    <!-- 先将完整的字以灰色字体绘制完成，层级位于下面 -->
                                                                        <path d="M 341 496 Q 287 497 243 496 Q 206 495 225 518 Q 295 642 362 735 Q 377 753 374 761 Q 371 776 330 807 Q 312 820 294 816 Q 282 813 289 797 Q 308 752 219 582 Q 200 542 158 504 Q 139 489 141 477 Q 145 458 161 439 Q 171 429 184 435 Q 226 459 324 471 C 354 475 371 496 341 496 Z" style="fill: #0070C0;"></path>
                                                                        <path d="M 324 471 Q 216 330 199 322 Q 186 312 189 298 Q 190 285 217 265 Q 229 253 244 266 Q 307 315 410 354 Q 429 360 431 369 Q 434 379 413 375 Q 356 362 287 340 Q 263 330 278 351 Q 318 408 416 523 Q 444 562 470 583 Q 483 593 477 604 Q 467 623 432 643 Q 416 653 406 650 Q 396 646 397 630 Q 400 587 341 496 L 324 471 Z" style="fill: #0070C0;"></path>
                                                                        <path d="M 147 137 Q 134 134 134 123 Q 133 110 144 102 Q 169 89 206 74 Q 216 73 228 83 Q 336 161 446 238 Q 458 248 457 257 Q 448 264 331 208 Q 178 142 147 137 Z" style="fill: #0070C0;"></path>
                                                                        <path d="M 753 480 Q 784 586 822 616 Q 840 637 823 655 Q 804 670 746 694 Q 725 703 658 671 Q 537 635 529 633 Q 513 630 515 620 Q 518 613 538 607 Q 565 598 600 613 Q 714 640 720 636 Q 736 617 697 482 C 689 453 744 451 753 480 Z" style="fill: #0070C0;"></path>
                                                                        <path d="M 697 482 Q 610 454 545 438 C 516 431 521 403 551 405 Q 558 405 568 407 Q 629 426 766 449 Q 776 450 777 460 Q 777 467 753 480 C 730 493 726 491 697 482 Z" style="fill: #0070C0;"></path>
                                                                        <path d="M 545 438 Q 532 451 511 458 Q 498 462 491 457 Q 484 453 490 437 Q 503 400 500 365 Q 493 194 508 148 Q 514 120 540 97 Q 624 34 802 58 Q 827 62 854 70 Q 900 85 946 117 Q 965 133 952 160 Q 937 188 917 277 Q 917 293 909 298 Q 902 301 898 283 Q 873 189 855 159 Q 839 140 793 126 Q 687 98 598 130 Q 562 146 553 167 Q 525 227 551 405 C 555 431 555 431 545 438 Z" style="fill: #0070C0;"></path>
                                    
                                    
                                                                                                                                                                                                                                                                                                                                                                                                                                                                                                                                                    </g>
                            </svg>