<svg width='83' height='83' >
                                <g transform="translate(3, 70) scale(0.07, -0.07)">
                                    <!-- 先将完整的字以灰色字体绘制完成，层级位于下面 -->
                                                                        <path d="M 313 502 Q 265 502 225 502 Q 189 502 208 524 Q 274 636 337 721 Q 350 739 348 746 Q 345 759 306 791 Q 290 804 272 800 Q 260 797 267 782 Q 285 740 200 582 Q 182 546 144 511 Q 125 498 127 485 Q 131 466 145 448 Q 155 438 168 445 Q 193 458 283 474 Q 287 475 294 475 C 324 478 343 502 313 502 Z" style="fill: #0070C0;"></path>
                                                                        <path d="M 294 475 Q 206 361 191 353 Q 178 344 181 330 Q 182 317 208 298 Q 218 286 234 299 Q 297 344 386 375 Q 405 381 407 389 Q 410 399 390 395 Q 339 386 277 368 Q 250 358 267 381 Q 303 430 386 531 Q 414 568 438 589 Q 450 599 444 609 Q 434 628 400 646 Q 384 655 375 652 Q 365 649 368 634 Q 371 592 315 504 Q 314 504 313 502 L 294 475 Z" style="fill: #0070C0;"></path>
                                                                        <path d="M 115 177 Q 102 176 100 164 Q 99 151 109 142 Q 134 127 169 110 Q 179 107 192 117 Q 210 133 373 226 Q 394 236 409 251 Q 422 258 422 269 Q 416 273 403 270 Q 168 177 115 177 Z" style="fill: #0070C0;"></path>
                                                                        <path d="M 600 777 Q 625 737 623 673 Q 627 478 613 424 Q 612 408 629 371 Q 639 355 654 363 Q 669 376 665 473 Q 662 677 696 740 Q 703 750 691 763 Q 637 806 607 797 Q 594 793 600 777 Z" style="fill: #0070C0;"></path>
                                                                        <path d="M 505 547 Q 484 493 454 445 Q 436 415 453 384 Q 460 368 480 379 Q 525 418 530 495 Q 534 525 527 547 Q 523 554 517 556 Q 510 555 505 547 Z" style="fill: #0070C0;"></path>
                                                                        <path d="M 778 583 Q 833 546 902 491 Q 921 473 938 471 Q 947 471 953 483 Q 963 499 943 540 Q 928 577 856 597 Q 834 604 774 615 Q 764 619 764 606 Q 765 593 778 583 Z" style="fill: #0070C0;"></path>
                                                                        <path d="M 740 477 Q 736 297 539 130 Q 535 127 532 124 Q 478 73 346 -9 Q 336 -16 343 -20 Q 352 -24 364 -20 Q 559 43 660 175 Q 718 242 777 359 Q 796 393 820 426 Q 830 436 825 447 Q 819 460 789 482 Q 767 498 755 496 Q 740 495 740 477 Z" style="fill: #0070C0;"></path>
                                    
                                    
                                                                                                                                                                                                                                                                                                                                                                                                                                                                                                                                                                                                                                </g>
                            </svg>