<svg width='83' height='83' >
                                <g transform="translate(3, 70) scale(0.07, -0.07)">
                                    <!-- 先将完整的字以灰色字体绘制完成，层级位于下面 -->
                                                                        <path d="M 326 489 Q 323 490 320 489 Q 272 489 233 490 Q 199 489 216 511 Q 286 623 353 708 Q 369 727 365 735 Q 364 751 321 784 Q 305 799 284 795 Q 272 792 279 775 Q 297 732 206 570 Q 187 533 146 498 Q 127 482 128 470 Q 132 449 148 430 Q 158 418 173 426 Q 218 453 307 463 C 337 467 356 489 326 489 Z" style="fill: #0070C0;"></path>
                                                                        <path d="M 307 463 Q 196 322 175 311 Q 162 301 164 287 Q 165 274 192 253 Q 202 240 218 253 Q 279 298 381 331 Q 400 335 403 345 Q 406 355 385 352 Q 331 343 265 325 Q 237 315 255 337 Q 297 392 393 504 Q 423 541 450 563 Q 463 573 456 583 Q 446 604 412 623 Q 396 633 386 631 Q 376 627 378 611 Q 379 577 326 489 L 307 463 Z" style="fill: #0070C0;"></path>
                                                                        <path d="M 133 123 Q 120 120 119 110 Q 118 97 129 90 Q 153 77 187 61 Q 197 58 209 68 Q 236 95 396 187 Q 418 200 434 215 Q 446 224 445 233 Q 439 237 427 234 Q 187 126 133 123 Z" style="fill: #0070C0;"></path>
                                                                        <path d="M 789 456 Q 835 460 892 460 Q 950 460 956 470 Q 960 480 945 494 Q 885 536 832 516 Q 811 512 789 506 L 738 497 Q 653 485 560 467 L 513 460 Q 465 454 416 446 Q 395 443 411 427 Q 424 414 442 409 Q 463 405 478 409 Q 496 415 515 418 L 560 429 Q 644 447 737 453 L 789 456 Z" style="fill: #0070C0;"></path>
                                                                        <path d="M 560 467 Q 559 560 560 570 Q 563 592 558 601 Q 549 622 508 635 Q 498 639 485 635 Q 478 629 484 616 Q 508 547 513 460 L 515 418 Q 518 250 504 171 Q 474 117 528 57 Q 540 44 551 57 Q 561 70 562 88 L 565 122 Q 566 161 563 267 L 562 298 Q 561 374 560 429 L 560 467 Z" style="fill: #0070C0;"></path>
                                                                        <path d="M 679 102 Q 715 48 720 21 Q 726 -12 739 -17 Q 752 -18 772 15 Q 796 58 802 134 Q 790 296 789 456 L 789 506 Q 789 668 807 729 Q 823 760 768 781 Q 734 800 715 792 Q 697 786 714 763 Q 736 736 737 702 Q 738 683 738 497 L 737 453 Q 736 330 735 144 Q 734 122 722 114 Q 718 113 710 116 Q 709 117 706 117 C 676 112 673 112 679 102 Z" style="fill: #0070C0;"></path>
                                                                        <path d="M 563 267 Q 630 276 682 282 Q 707 286 697 300 Q 687 315 659 320 Q 617 326 562 298 C 535 285 533 263 563 267 Z" style="fill: #0070C0;"></path>
                                                                        <path d="M 562 88 Q 577 95 679 102 C 709 104 716 105 706 117 Q 702 124 680 139 Q 665 145 565 122 C 536 115 534 78 562 88 Z" style="fill: #0070C0;"></path>
                                    
                                    
                                                                                                                                                                                                                                                                                                                                                                                                                                                                                                                                                                                                                                                                                                            </g>
                            </svg>