<svg width='83' height='83' >
                                <g transform="translate(3, 70) scale(0.07, -0.07)">
                                    <!-- 先将完整的字以灰色字体绘制完成，层级位于下面 -->
                                                                        <path d="M 317 494 Q 266 494 226 494 Q 189 494 209 516 Q 276 628 340 713 Q 355 729 352 738 Q 349 751 311 783 Q 295 796 276 793 Q 266 789 271 774 Q 289 735 187 550 Q 169 528 144 503 Q 125 490 127 477 Q 131 458 145 441 Q 155 429 168 437 Q 195 450 287 466 Q 291 467 298 467 C 328 470 347 494 317 494 Z" style="fill: #0070C0;"></path>
                                                                        <path d="M 298 467 Q 199 335 175 322 Q 162 312 165 299 Q 166 286 191 266 Q 201 254 217 266 Q 280 311 390 344 Q 409 348 411 357 Q 414 367 394 364 Q 336 354 262 335 Q 234 325 252 348 Q 382 528 438 573 Q 450 583 444 593 Q 434 612 401 630 Q 385 640 376 637 Q 366 634 368 618 Q 369 584 317 494 L 298 467 Z" style="fill: #0070C0;"></path>
                                                                        <path d="M 125 145 Q 112 142 111 131 Q 110 118 120 110 Q 145 97 182 81 Q 192 78 204 89 Q 222 107 388 210 Q 410 223 426 238 Q 438 248 437 257 Q 431 261 419 258 Q 175 149 125 145 Z" style="fill: #0070C0;"></path>
                                                                        <path d="M 490 526 Q 471 538 450 543 Q 443 546 438 541 Q 429 535 439 523 Q 488 439 490 233 Q 491 167 530 140 L 531 139 Q 547 135 550 163 L 550 195 Q 549 214 542 237 Q 524 444 521 489 C 520 509 516 511 490 526 Z" style="fill: #0070C0;"></path>
                                                                        <path d="M 775 189 Q 787 164 811 116 Q 821 98 831 100 Q 847 104 856 130 Q 890 203 892 303 Q 898 364 902 436 Q 906 485 929 516 Q 945 535 933 549 Q 911 571 863 591 Q 844 601 811 589 Q 685 544 490 526 C 460 523 492 481 521 489 Q 531 495 632 510 L 675 518 Q 727 528 791 538 Q 819 544 831 530 Q 862 476 822 236 Q 821 214 811 211 L 809 211 C 794 185 766 208 775 189 Z" style="fill: #0070C0;"></path>
                                                                        <path d="M 689 349 Q 729 356 766 362 Q 791 366 781 380 Q 769 395 743 399 Q 722 402 690 393 L 645 379 Q 602 366 563 354 Q 545 350 568 335 Q 577 329 645 341 L 689 349 Z" style="fill: #0070C0;"></path>
                                                                        <path d="M 690 393 Q 693 499 694 500 Q 684 512 675 518 C 652 537 616 536 632 510 Q 635 506 638 500 Q 641 485 645 379 L 645 341 Q 645 289 645 209 C 645 179 685 187 685 217 Q 686 289 689 349 L 690 393 Z" style="fill: #0070C0;"></path>
                                                                        <path d="M 550 163 Q 551 163 556 163 Q 626 179 775 189 C 805 191 829 193 809 211 Q 781 239 744 230 Q 713 224 685 217 L 645 209 Q 594 202 550 195 C 520 190 520 161 550 163 Z" style="fill: #0070C0;"></path>
                                    
                                    
                                                                                                                                                                                                                                                                                                                                                                                                                                                                                                                                                                                                                                                                                                            </g>
                            </svg>