<svg width='83' height='83' >
                                <g transform="translate(3, 70) scale(0.07, -0.07)">
                                    <!-- 先将完整的字以灰色字体绘制完成，层级位于下面 -->
                                                                        <path d="M 338 465 Q 334 466 332 465 Q 280 465 237 465 Q 203 465 221 486 Q 299 612 372 704 Q 388 723 385 731 Q 384 746 342 780 Q 324 795 305 792 Q 292 788 299 772 Q 306 753 300 726 Q 285 671 217 552 Q 195 512 151 474 Q 130 459 132 446 Q 136 425 152 406 Q 162 394 177 402 Q 205 420 320 440 C 350 445 368 465 338 465 Z" style="fill: #0070C0;"></path>
                                                                        <path d="M 320 440 Q 215 305 188 291 Q 175 281 177 267 Q 178 254 204 233 Q 214 221 230 233 Q 296 279 409 319 Q 428 323 431 333 Q 434 343 413 339 Q 352 329 276 306 Q 252 297 268 317 Q 308 369 404 476 Q 435 513 461 535 Q 474 545 468 555 Q 458 574 424 596 Q 408 606 398 603 Q 388 600 390 584 Q 391 550 338 465 L 320 440 Z" style="fill: #0070C0;"></path>
                                                                        <path d="M 132 109 Q 119 106 118 95 Q 117 82 128 74 Q 153 61 190 45 Q 200 44 212 54 Q 323 129 434 206 Q 446 216 445 225 Q 435 232 351 191 Q 165 112 132 109 Z" style="fill: #0070C0;"></path>
                                                                        <path d="M 805 492 Q 690 476 567 449 Q 554 445 550 448 Q 546 454 554 469 Q 687 688 717 725 Q 730 737 722 750 Q 715 763 661 786 Q 642 793 632 788 Q 619 781 626 759 Q 650 693 518 492 Q 494 462 452 430 Q 437 417 442 404 Q 449 385 477 365 Q 490 353 504 366 Q 570 414 823 465 C 852 471 835 496 805 492 Z" style="fill: #0070C0;"></path>
                                                                        <path d="M 823 465 Q 874 386 881 381 Q 888 378 897 386 Q 910 396 907 437 Q 907 488 761 593 Q 754 600 750 589 Q 747 577 755 566 Q 779 533 805 492 L 823 465 Z" style="fill: #0070C0;"></path>
                                                                        <path d="M 549 292 Q 537 299 504 306 Q 491 310 487 304 Q 480 298 489 281 Q 517 212 531 101 Q 534 67 551 45 Q 570 21 575 37 Q 582 53 581 81 L 576 118 Q 563 223 560 258 C 557 288 557 288 549 292 Z" style="fill: #0070C0;"></path>
                                                                        <path d="M 804 147 Q 834 241 868 265 Q 886 284 870 304 Q 854 317 798 344 Q 779 353 756 344 Q 675 311 549 292 C 519 287 531 250 560 258 Q 588 267 740 293 Q 759 297 768 290 Q 778 280 775 258 Q 765 200 750 151 C 742 122 795 119 804 147 Z" style="fill: #0070C0;"></path>
                                                                        <path d="M 581 81 Q 593 80 606 82 Q 673 95 822 106 Q 834 107 835 117 Q 835 126 804 147 C 787 159 779 157 750 151 L 749 151 Q 653 129 576 118 C 546 114 551 82 581 81 Z" style="fill: #0070C0;"></path>
                                    
                                    
                                                                                                                                                                                                                                                                                                                                                                                                                                                                                                                                                                                                                                                                                                            </g>
                            </svg>