<svg width='83' height='83' >
                                <g transform="translate(3, 70) scale(0.07, -0.07)">
                                    <!-- 先将完整的字以灰色字体绘制完成，层级位于下面 -->
                                                                        <path d="M 319 469 Q 315 470 309 469 Q 260 469 219 469 Q 186 468 203 488 Q 275 602 343 686 Q 359 704 356 712 Q 355 727 314 760 Q 298 773 279 771 Q 267 768 273 752 Q 289 710 197 548 Q 178 512 136 477 Q 117 462 118 450 Q 122 431 137 411 Q 147 401 161 407 Q 185 420 265 439 Q 287 442 303 446 C 332 452 349 469 319 469 Z" style="fill: #0070C0;"></path>
                                                                        <path d="M 303 446 Q 195 313 169 299 Q 154 290 157 276 Q 158 263 184 242 Q 194 229 210 241 Q 267 283 393 327 Q 412 331 415 341 Q 418 351 397 348 Q 334 336 256 313 Q 234 306 249 324 Q 384 490 440 530 Q 453 540 447 551 Q 437 570 405 592 Q 389 602 379 600 Q 369 597 370 581 Q 370 548 319 469 L 303 446 Z" style="fill: #0070C0;"></path>
                                                                        <path d="M 117 127 Q 104 124 104 114 Q 103 101 113 94 Q 137 79 171 64 Q 181 63 193 71 Q 229 104 387 191 Q 409 204 426 219 Q 438 228 437 236 Q 431 242 419 238 Q 173 130 117 127 Z" style="fill: #0070C0;"></path>
                                                                        <path d="M 661 492 Q 674 649 693 775 Q 697 785 677 801 Q 643 820 620 823 Q 604 827 596 819 Q 589 812 597 797 Q 616 770 616 751 Q 623 627 620 482 C 619 452 658 462 661 492 Z" style="fill: #0070C0;"></path>
                                                                        <path d="M 476 622 Q 498 595 520 563 Q 530 550 545 547 Q 554 546 561 557 Q 568 570 565 598 Q 564 617 537 636 Q 474 675 460 671 Q 456 668 454 656 Q 455 646 476 622 Z" style="fill: #0070C0;"></path>
                                                                        <path d="M 787 696 Q 768 660 706 583 Q 696 565 714 569 Q 763 599 791 619 Q 855 670 877 679 Q 899 689 887 708 Q 872 726 845 740 Q 820 753 806 751 Q 793 750 797 735 Q 801 716 787 696 Z" style="fill: #0070C0;"></path>
                                                                        <path d="M 546 228 Q 547 277 552 315 L 553 342 Q 557 415 562 438 Q 562 442 562 444 C 564 465 564 465 552 473 Q 549 477 545 479 Q 514 495 496 494 Q 483 490 488 477 Q 536 365 483 146 Q 458 76 458 73 Q 458 43 478 15 Q 485 0 496 6 Q 533 27 543 162 Q 544 183 545 202 L 546 228 Z" style="fill: #0070C0;"></path>
                                                                        <path d="M 562 444 Q 587 447 716 474 Q 737 478 742 467 Q 751 440 762 244 Q 765 75 754 54 Q 748 47 727 52 Q 699 56 671 60 Q 652 64 653 55 Q 714 12 750 -22 Q 763 -41 780 -45 Q 790 -48 797 -38 Q 836 16 832 68 Q 793 407 820 458 Q 832 477 820 488 Q 798 507 761 521 Q 742 528 726 520 Q 687 501 661 492 L 620 482 Q 592 478 552 473 C 522 469 532 439 562 444 Z" style="fill: #0070C0;"></path>
                                                                        <path d="M 552 315 Q 556 314 563 315 Q 644 328 702 336 Q 726 340 717 352 Q 707 367 681 371 Q 645 375 553 342 C 525 332 522 318 552 315 Z" style="fill: #0070C0;"></path>
                                                                        <path d="M 545 202 Q 552 201 564 201 Q 645 210 705 215 Q 730 218 721 232 Q 711 248 684 253 Q 653 259 546 228 C 517 220 515 205 545 202 Z" style="fill: #0070C0;"></path>
                                    
                                    
                                                                                                                                                                                                                                                                                                                                                                                                                                                                                                                                                                                                                                                                                                                                                                                                                                                                    </g>
                            </svg>