<svg width='83' height='83' >
                                <g transform="translate(3, 70) scale(0.07, -0.07)">
                                    <!-- 先将完整的字以灰色字体绘制完成，层级位于下面 -->
                                                                        <path d="M 315 485 Q 264 485 223 485 Q 192 484 208 504 Q 281 618 351 702 Q 366 720 364 728 Q 363 743 322 776 Q 306 791 287 787 Q 275 784 281 769 Q 288 750 281 724 Q 268 673 202 564 Q 183 528 140 493 Q 121 478 122 466 Q 126 447 141 428 Q 151 416 165 423 Q 207 447 295 458 C 325 462 345 485 315 485 Z" style="fill: #0070C0;"></path>
                                                                        <path d="M 295 458 Q 199 332 180 321 Q 167 312 169 299 Q 170 286 196 266 Q 206 254 222 267 Q 283 312 378 343 Q 397 349 399 357 Q 402 367 382 363 Q 330 354 266 336 Q 239 326 256 348 Q 386 528 442 573 Q 454 583 448 593 Q 438 612 405 630 Q 389 640 380 637 Q 370 634 372 618 Q 375 576 315 485 L 295 458 Z" style="fill: #0070C0;"></path>
                                                                        <path d="M 106 151 Q 93 148 92 138 Q 91 125 101 118 Q 125 103 159 88 Q 169 85 181 95 Q 206 120 364 209 Q 386 221 401 235 Q 414 244 413 252 Q 407 258 396 254 Q 164 155 106 151 Z" style="fill: #0070C0;"></path>
                                                                        <path d="M 671 616 Q 774 638 779 642 Q 786 649 783 657 Q 776 667 750 675 Q 713 681 675 662 L 622 648 Q 579 639 528 634 Q 495 628 519 613 Q 555 594 622 606 L 671 616 Z" style="fill: #0070C0;"></path>
                                                                        <path d="M 661 517 Q 665 569 671 616 L 675 662 Q 679 734 697 791 Q 700 801 681 816 Q 647 835 624 840 Q 608 844 600 835 Q 593 828 600 813 Q 619 788 619 769 Q 622 711 622 648 L 622 606 Q 622 560 620 510 C 619 480 659 487 661 517 Z" style="fill: #0070C0;"></path>
                                                                        <path d="M 548 464 Q 660 494 882 494 Q 898 495 903 502 Q 907 512 893 524 Q 842 560 791 542 Q 739 532 661 517 L 620 510 Q 535 498 438 483 Q 420 482 434 467 Q 446 455 462 451 L 518 457 L 548 464 Z" style="fill: #0070C0;"></path>
                                                                        <path d="M 518 457 L 519 456 Q 519 410 424 323 Q 418 320 417 315 Q 417 311 421 311 Q 463 305 550 390 Q 560 402 567 407 Q 574 414 570 427 Q 561 451 550 462 Q 549 463 548 464 C 527 486 515 487 518 457 Z" style="fill: #0070C0;"></path>
                                                                        <path d="M 715 426 Q 761 395 817 346 Q 833 331 848 329 Q 855 329 861 339 Q 870 352 853 388 Q 841 421 776 439 Q 734 449 712 453 Q 703 457 703 446 Q 704 434 715 426 Z" style="fill: #0070C0;"></path>
                                                                        <path d="M 622 335 Q 618 345 596 350 Q 571 357 560 354 Q 553 353 552 340 Q 534 244 324 55 Q 306 42 330 45 Q 417 63 546 221 L 563 245 Q 564 246 565 247 Q 589 280 605 299 C 624 322 629 328 622 335 Z" style="fill: #0070C0;"></path>
                                                                        <path d="M 629 137 Q 586 71 448 25 Q 435 21 443 14 Q 450 10 475 13 Q 551 23 596 45 Q 630 64 660 100 L 687 140 Q 715 188 734 256 Q 741 287 759 304 Q 772 317 757 331 Q 738 346 708 358 Q 689 365 669 355 Q 647 343 622 335 C 594 325 576 291 605 299 Q 612 300 620 303 Q 639 309 660 314 Q 682 320 680 296 Q 680 230 649 172 L 629 137 Z" style="fill: #0070C0;"></path>
                                                                        <path d="M 546 221 Q 570 209 629 137 L 660 100 Q 706 49 786 -18 Q 814 -37 853 -28 Q 905 -16 943 -8 Q 955 -5 966 1 Q 973 8 961 15 Q 948 22 835 56 Q 765 74 687 140 L 649 172 Q 624 197 594 226 Q 581 239 563 245 C 536 257 521 238 546 221 Z" style="fill: #0070C0;"></path>
                                    
                                    
                                                                                                                                                                                                                                                                                                                                                                                                                                                                                                                                                                                                                                                                                                                                                                                                                                                                                                                                                </g>
                            </svg>