<svg width='83' height='83' >
                                <g transform="translate(3, 70) scale(0.07, -0.07)">
                                    <!-- 先将完整的字以灰色字体绘制完成，层级位于下面 -->
                                                                        <path d="M 297 516 Q 248 516 207 514 Q 173 514 191 534 Q 252 640 312 719 Q 325 735 323 743 Q 322 756 283 786 Q 267 799 250 795 Q 240 792 245 778 Q 263 738 182 589 Q 166 555 129 522 Q 111 509 113 497 Q 117 478 130 462 Q 140 452 152 458 Q 180 473 273 490 Q 276 491 280 490 C 310 493 327 516 297 516 Z" style="fill: #0070C0;"></path>
                                                                        <path d="M 280 490 Q 195 370 171 357 Q 158 348 160 335 Q 161 322 186 303 Q 196 291 210 303 Q 259 336 350 362 Q 368 365 371 373 Q 374 383 355 380 Q 312 376 257 366 Q 220 353 245 383 Q 279 434 361 535 Q 386 571 410 592 Q 420 601 415 610 Q 405 629 373 645 Q 358 654 349 651 Q 339 648 342 633 Q 345 596 297 516 L 280 490 Z" style="fill: #0070C0;"></path>
                                                                        <path d="M 103 183 Q 90 180 90 169 Q 90 156 100 149 Q 125 136 160 123 Q 170 122 181 131 Q 208 159 338 245 Q 357 257 370 270 Q 382 280 381 289 Q 375 293 363 289 Q 266 243 145 192 Q 129 185 103 183 Z" style="fill: #0070C0;"></path>
                                                                        <path d="M 520 535 Q 521 538 525 541 Q 547 572 572 613 Q 585 637 610 662 Q 622 672 616 678 Q 615 685 564 700 Q 548 707 534 694 Q 503 673 422 655 Q 407 654 418 642 Q 436 630 484 644 Q 518 659 528 649 Q 532 643 522 625 Q 507 588 484 550 L 466 523 Q 439 486 392 436 Q 382 426 393 426 Q 423 432 480 488 Q 484 495 492 501 L 520 535 Z" style="fill: #0070C0;"></path>
                                                                        <path d="M 492 501 Q 567 444 570 443 Q 576 442 580 450 Q 587 460 576 489 Q 567 514 520 535 L 484 550 Q 447 566 425 572 Q 418 575 418 566 Q 418 560 466 523 L 492 501 Z" style="fill: #0070C0;"></path>
                                                                        <path d="M 755 559 Q 756 562 760 564 Q 785 595 810 633 Q 826 658 854 683 Q 866 693 861 701 Q 860 708 806 727 Q 790 734 774 722 Q 732 698 643 688 Q 627 687 637 674 Q 653 659 740 677 Q 759 683 766 675 Q 772 660 717 575 L 694 543 Q 666 509 620 465 Q 610 455 621 454 Q 660 463 722 523 L 755 559 Z" style="fill: #0070C0;"></path>
                                                                        <path d="M 722 523 Q 830 442 837 441 Q 844 441 848 450 Q 857 463 841 496 Q 829 530 755 559 L 717 575 Q 663 600 631 609 Q 624 612 623 602 Q 624 592 634 584 Q 662 566 694 543 L 722 523 Z" style="fill: #0070C0;"></path>
                                                                        <path d="M 516 212 Q 541 249 568 303 Q 581 325 602 342 Q 614 349 614 356 Q 613 366 589 380 Q 559 396 547 397 Q 538 396 529 389 Q 457 356 412 351 Q 382 350 380 342 Q 379 339 385 335 Q 398 325 423 323 Q 450 324 498 348 Q 516 354 523 349 Q 529 345 514 303 Q 504 270 481 237 Q 478 234 477 230 L 456 201 Q 396 132 317 92 Q 310 88 311 84 Q 311 80 317 81 Q 402 81 488 176 L 516 212 Z" style="fill: #0070C0;"></path>
                                                                        <path d="M 488 176 Q 548 125 554 123 Q 560 123 564 130 Q 571 140 560 169 Q 554 191 516 212 L 477 230 Q 431 252 405 260 Q 399 263 398 254 Q 398 248 456 201 L 488 176 Z" style="fill: #0070C0;"></path>
                                                                        <path d="M 759 176 Q 801 239 823 321 Q 827 351 845 366 Q 858 379 842 392 Q 824 405 795 416 Q 776 422 758 411 Q 721 390 666 380 Q 644 379 634 372 Q 627 366 642 358 Q 661 349 752 373 Q 771 379 771 357 Q 771 284 727 208 L 704 175 Q 703 175 703 174 Q 663 131 559 96 Q 546 92 555 86 Q 562 82 586 86 Q 676 98 729 141 L 759 176 Z" style="fill: #0070C0;"></path>
                                                                        <path d="M 729 141 Q 811 36 850 27 Q 866 26 960 37 Q 972 38 982 43 Q 989 49 979 56 Q 967 63 868 103 Q 814 127 759 176 L 727 208 Q 696 242 663 283 Q 648 302 622 307 Q 612 308 604 304 Q 600 298 607 292 Q 647 261 704 175 L 729 141 Z" style="fill: #0070C0;"></path>
                                    
                                    
                                                                                                                                                                                                                                                                                                                                                                                                                                                                                                                                                                                                                                                                                                                                                                                                                                                                                                                                                </g>
                            </svg>