<svg width='83' height='83' >
                                <g transform="translate(3, 70) scale(0.07, -0.07)">
                                    <!-- 先将完整的字以灰色字体绘制完成，层级位于下面 -->
                                                                        <path d="M 299 512 Q 247 509 204 506 Q 177 505 190 522 Q 260 628 326 708 Q 341 724 339 733 Q 338 746 299 779 Q 283 794 265 790 Q 253 789 260 772 Q 275 732 184 579 Q 165 545 125 512 Q 106 497 108 485 Q 112 466 127 448 Q 137 438 150 445 Q 202 476 280 486 C 310 490 329 514 299 512 Z" style="fill: #0070C0;"></path>
                                                                        <path d="M 280 486 Q 193 372 165 358 Q 152 349 154 335 Q 155 322 181 303 Q 191 291 206 303 Q 263 345 370 383 Q 389 389 391 397 Q 394 407 374 403 Q 319 393 249 372 Q 227 365 242 382 Q 363 538 420 581 Q 433 590 427 600 Q 417 619 385 639 Q 369 649 360 646 Q 350 643 352 628 Q 353 595 299 512 L 280 486 Z" style="fill: #0070C0;"></path>
                                                                        <path d="M 110 191 Q 98 187 98 177 Q 97 164 108 157 Q 133 145 168 131 Q 178 130 189 140 Q 219 173 346 254 Q 365 269 386 286 Q 398 296 397 305 Q 390 309 379 305 Q 279 256 154 201 Q 138 194 110 191 Z" style="fill: #0070C0;"></path>
                                                                        <path d="M 618 797 Q 588 761 488 695 Q 484 686 490 684 Q 518 684 629 739 Q 660 763 719 780 Q 735 783 738 790 Q 739 800 728 810 Q 706 823 662 834 Q 646 840 634 837 Q 627 833 628 822 Q 629 809 618 797 Z" style="fill: #0070C0;"></path>
                                                                        <path d="M 471 614 Q 489 593 507 569 Q 516 557 528 556 Q 535 555 541 565 Q 547 575 543 599 Q 542 615 520 629 Q 466 657 456 654 Q 452 653 451 642 Q 452 633 471 614 Z" style="fill: #0070C0;"></path>
                                                                        <path d="M 571 663 Q 605 602 627 596 Q 639 593 646 608 Q 650 618 644 638 Q 632 668 579 686 Q 572 689 569 679 Q 566 672 571 663 Z" style="fill: #0070C0;"></path>
                                                                        <path d="M 758 697 Q 743 672 682 593 Q 673 577 689 581 Q 734 609 759 628 Q 810 671 835 682 Q 854 692 844 708 Q 831 723 807 735 Q 785 747 774 744 Q 762 743 767 730 Q 770 714 758 697 Z" style="fill: #0070C0;"></path>
                                                                        <path d="M 552 480 Q 636 499 724 518 Q 769 530 775 536 Q 782 543 779 550 Q 772 560 747 566 Q 726 569 611 533 Q 524 512 455 504 Q 424 498 446 484 Q 480 466 527 475 L 552 480 Z" style="fill: #0070C0;"></path>
                                                                        <path d="M 572 368 Q 668 399 830 399 Q 833 400 836 400 Q 854 401 857 409 Q 861 419 846 431 Q 792 464 730 443 Q 679 431 607 413 Q 600 412 593 410 L 522 395 Q 468 385 414 373 Q 395 369 410 355 Q 423 345 440 340 Q 459 336 473 342 Q 489 348 511 353 L 572 368 Z" style="fill: #0070C0;"></path>
                                                                        <path d="M 543 301 Q 556 332 572 368 L 593 410 Q 606 440 605 445 Q 584 473 552 480 C 527 488 527 488 527 475 Q 526 471 526 464 Q 529 431 522 395 L 511 353 Q 510 352 510 349 Q 458 205 260 50 Q 253 43 259 39 Q 266 36 277 41 Q 415 101 501 227 L 514 248 Q 523 264 532 280 L 543 301 Z" style="fill: #0070C0;"></path>
                                                                        <path d="M 616 119 Q 552 53 425 20 Q 410 16 422 7 Q 428 3 469 5 Q 566 14 647 84 L 680 120 Q 716 169 749 242 Q 762 270 782 287 Q 801 300 790 315 Q 777 328 747 340 Q 725 349 697 337 Q 670 327 635 317 Q 599 308 543 301 C 513 297 503 288 532 280 Q 571 265 619 278 Q 668 296 678 296 Q 699 292 692 269 Q 674 199 642 150 L 616 119 Z" style="fill: #0070C0;"></path>
                                                                        <path d="M 501 227 Q 505 224 511 221 Q 535 212 616 119 L 647 84 Q 764 -33 814 -41 Q 829 -41 938 -16 Q 951 -13 962 -7 Q 969 0 957 8 Q 942 15 825 44 Q 758 62 680 120 L 642 150 Q 603 184 562 225 Q 543 244 514 248 C 485 255 475 242 501 227 Z" style="fill: #0070C0;"></path>
                                    
                                    
                                                                                                                                                                                                                                                                                                                                                                                                                                                                                                                                                                                                                                                                                                                                                                                                                                                                                                                                                                                                                            </g>
                            </svg>