<svg width='83' height='83' >
                                <g transform="translate(3, 70) scale(0.07, -0.07)">
                                    <!-- 先将完整的字以灰色字体绘制完成，层级位于下面 -->
                                                                        <path d="M 302 513 Q 301 514 298 513 Q 253 512 217 512 Q 183 511 200 532 Q 264 644 326 729 Q 339 747 337 754 Q 334 769 294 798 Q 278 811 260 807 Q 248 804 255 789 Q 262 773 258 746 Q 248 697 191 590 Q 173 554 135 519 Q 117 504 119 492 Q 123 473 138 456 Q 147 447 164 455 Q 200 477 284 488 C 314 492 332 513 302 513 Z" style="fill: #0070C0;"></path>
                                                                        <path d="M 284 488 Q 187 356 168 345 Q 155 336 157 322 Q 158 309 185 290 Q 195 280 210 291 Q 273 339 354 367 Q 373 373 375 381 Q 378 391 358 387 Q 312 378 253 361 Q 228 351 243 373 Q 280 427 370 535 Q 398 572 422 593 Q 434 603 428 613 Q 418 632 384 650 Q 368 659 359 656 Q 349 653 352 638 Q 355 599 302 513 L 284 488 Z" style="fill: #0070C0;"></path>
                                                                        <path d="M 98 175 Q 86 171 86 161 Q 85 148 96 141 Q 121 129 156 116 Q 166 115 177 124 Q 267 193 358 262 Q 370 272 369 281 Q 362 285 351 281 Q 141 179 98 175 Z" style="fill: #0070C0;"></path>
                                                                        <path d="M 480 681 Q 519 615 541 612 Q 554 608 562 625 Q 566 638 559 658 Q 546 686 488 706 Q 479 709 477 698 Q 476 691 480 681 Z" style="fill: #0070C0;"></path>
                                                                        <path d="M 735 727 Q 719 702 687 660 Q 683 653 687 647 Q 694 646 701 650 Q 771 690 804 706 Q 820 710 817 721 Q 811 736 794 754 Q 776 770 755 773 Q 742 773 742 755 Q 743 742 735 727 Z" style="fill: #0070C0;"></path>
                                                                        <path d="M 650 557 Q 707 569 822 580 Q 832 579 841 591 Q 842 601 820 612 Q 793 633 722 613 Q 689 606 656 598 Q 649 597 642 594 L 604 587 Q 565 581 531 577 Q 491 573 444 567 Q 417 564 438 547 Q 468 523 508 532 Q 532 538 562 541 L 650 557 Z" style="fill: #0070C0;"></path>
                                                                        <path d="M 642 594 Q 645 711 672 760 Q 678 769 667 782 Q 619 824 590 814 Q 577 810 583 796 Q 608 756 605 692 Q 605 634 604 587 L 601 527 Q 597 470 591 444 Q 590 431 595 414 Q 601 405 606 394 Q 615 379 629 387 Q 638 396 639 533 L 642 594 Z" style="fill: #0070C0;"></path>
                                                                        <path d="M 562 541 Q 511 465 431 400 Q 416 391 401 378 Q 388 368 400 366 Q 409 365 440 378 Q 474 391 504 415 Q 531 437 561 471 Q 586 499 600 525 Q 600 526 601 527 C 615 553 594 588 562 541 Z" style="fill: #0070C0;"></path>
                                                                        <path d="M 639 533 Q 685 472 737 415 Q 756 396 788 394 Q 846 390 907 400 Q 923 401 924 406 Q 927 412 914 417 Q 772 466 710 509 Q 692 521 650 557 C 627 576 620 558 639 533 Z" style="fill: #0070C0;"></path>
                                                                        <path d="M 638 77 Q 686 47 750 -4 Q 775 -23 791 -23 Q 810 -22 811 -3 Q 810 16 783 59 Q 768 83 673 118 L 625 136 Q 576 154 543 162 Q 524 166 534 184 Q 555 224 570 252 L 591 290 Q 603 315 615 330 Q 624 337 622 346 Q 618 359 583 387 Q 573 396 562 393 Q 550 390 557 375 Q 564 353 556 331 Q 549 306 540 284 L 523 244 Q 507 207 489 184 Q 479 168 482 155 Q 485 145 501 142 Q 564 126 594 103 L 638 77 Z" style="fill: #0070C0;"></path>
                                                                        <path d="M 594 103 Q 537 57 408 25 Q 390 16 411 13 Q 546 -2 638 77 L 673 118 Q 674 122 678 126 Q 709 169 727 223 Q 734 253 744 267 C 758 293 761 298 741 311 Q 707 335 679 331 Q 666 327 672 312 Q 673 308 676 302 L 679 264 Q 678 242 667 213 Q 652 164 625 136 L 594 103 Z" style="fill: #0070C0;"></path>
                                                                        <path d="M 744 267 Q 798 270 864 268 Q 918 265 926 275 Q 932 285 916 299 Q 862 339 799 322 Q 772 318 741 311 L 676 302 Q 640 301 591 290 L 540 284 Q 474 277 404 268 Q 385 267 398 251 Q 411 238 428 233 Q 447 227 463 231 Q 491 238 523 244 L 570 252 Q 621 261 679 264 L 744 267 Z" style="fill: #0070C0;"></path>
                                    
                                    
                                                                                                                                                                                                                                                                                                                                                                                                                                                                                                                                                                                                                                                                                                                                                                                                                                                                                                                                                                                                                            </g>
                            </svg>