<svg width='83' height='83' >
                                <g transform="translate(3, 70) scale(0.07, -0.07)">
                                    <!-- 先将完整的字以灰色字体绘制完成，层级位于下面 -->
                                                                        <path d="M 278 512 Q 277 512 190 509 Q 162 508 176 525 Q 243 637 307 719 Q 320 735 319 743 Q 316 756 279 786 Q 264 799 246 796 Q 236 793 242 779 Q 257 737 171 584 Q 152 548 113 514 Q 95 501 97 489 Q 101 470 116 453 Q 126 443 138 450 Q 169 471 262 489 C 291 495 308 513 278 512 Z" style="fill: #0070C0;"></path>
                                                                        <path d="M 262 489 Q 168 360 145 348 Q 132 339 135 326 Q 136 314 161 296 Q 171 286 185 297 Q 242 339 343 376 Q 361 380 363 389 Q 366 399 347 395 Q 292 385 226 363 Q 202 354 218 374 Q 338 542 393 587 Q 405 597 399 606 Q 389 624 357 642 Q 342 651 333 648 Q 324 645 326 630 Q 329 597 278 512 L 262 489 Z" style="fill: #0070C0;"></path>
                                                                        <path d="M 85 179 Q 72 175 72 165 Q 73 152 83 145 Q 108 133 144 121 Q 154 120 165 130 Q 192 160 223 183 Q 272 217 320 251 Q 338 264 350 278 Q 362 288 361 297 Q 354 301 343 297 Q 132 186 85 179 Z" style="fill: #0070C0;"></path>
                                                                        <path d="M 559 718 Q 581 749 603 773 Q 616 789 614 796 Q 611 809 576 838 Q 561 851 544 847 Q 534 844 540 830 Q 552 794 488 679 Q 475 654 446 629 Q 430 616 430 605 Q 434 589 447 571 Q 456 561 468 568 Q 496 581 587 596 Q 609 597 624 601 C 653 607 664 621 634 621 Q 630 622 627 621 Q 569 621 521 620 Q 490 620 506 640 Q 528 674 550 705 L 559 718 Z" style="fill: #0070C0;"></path>
                                                                        <path d="M 620 544 Q 639 568 677 617 Q 714 671 755 702 Q 771 712 760 724 Q 747 734 713 754 Q 706 755 614 729 Q 593 723 559 718 C 537 715 537 715 550 705 Q 557 696 578 694 Q 588 693 654 705 Q 663 706 665 704 Q 669 701 664 689 Q 648 652 634 621 L 624 601 Q 594 544 594 539 C 583 511 601 520 620 544 Z" style="fill: #0070C0;"></path>
                                                                        <path d="M 558 497 Q 672 528 845 528 Q 864 528 869 537 Q 873 547 858 559 Q 800 593 751 575 Q 697 563 620 544 L 594 539 Q 497 523 386 500 Q 367 497 382 483 Q 395 471 412 468 Q 431 464 445 469 Q 482 481 522 490 L 558 497 Z" style="fill: #0070C0;"></path>
                                                                        <path d="M 511 403 Q 551 439 568 448 Q 577 452 576 463 Q 576 478 558 497 C 538 519 530 519 522 490 Q 513 442 382 344 Q 373 340 371 335 Q 367 328 376 327 Q 398 324 490 387 L 511 403 Z" style="fill: #0070C0;"></path>
                                                                        <path d="M 626 333 Q 575 384 511 403 C 483 413 464 402 490 387 Q 494 384 501 380 Q 508 377 515 372 L 564 340 Q 577 330 589 316 L 620 263 Q 641 197 617 100 Q 607 61 595 54 Q 588 50 501 65 Q 483 74 480 64 Q 479 57 491 44 Q 555 -5 581 -39 Q 594 -58 610 -54 Q 659 -27 677 90 Q 686 168 673 242 L 639 319 L 626 333 Z" style="fill: #0070C0;"></path>
                                                                        <path d="M 515 372 Q 497 303 336 189 Q 320 179 340 180 Q 406 186 520 295 Q 520 296 564 340 C 585 361 524 401 515 372 Z" style="fill: #0070C0;"></path>
                                                                        <path d="M 589 316 Q 511 175 332 50 Q 319 40 328 37 Q 347 28 425 71 Q 494 108 581 213 Q 618 256 617 259 Q 618 260 620 263 C 636 288 604 342 589 316 Z" style="fill: #0070C0;"></path>
                                                                        <path d="M 639 319 Q 733 392 782 420 Q 798 426 795 436 Q 789 452 770 470 Q 751 488 729 489 Q 714 488 715 469 Q 719 447 626 333 C 607 310 615 301 639 319 Z" style="fill: #0070C0;"></path>
                                                                        <path d="M 673 242 Q 737 164 816 83 Q 834 67 861 70 Q 954 82 983 90 Q 990 93 992 97 Q 992 101 980 107 Q 854 149 792 190 Q 707 251 639 319 C 618 340 654 265 673 242 Z" style="fill: #0070C0;"></path>
                                    
                                    
                                                                                                                                                                                                                                                                                                                                                                                                                                                                                                                                                                                                                                                                                                                                                                                                                                                                                                                                                                                                                            </g>
                            </svg>