<svg width='83' height='83' >
                                <g transform="translate(3, 70) scale(0.07, -0.07)">
                                    <!-- 先将完整的字以灰色字体绘制完成，层级位于下面 -->
                                                                        <path d="M 301 531 Q 252 532 211 531 Q 178 530 195 550 Q 259 659 320 739 Q 333 755 331 763 Q 330 776 291 806 Q 276 819 258 815 Q 248 812 253 798 Q 269 761 188 606 Q 170 572 133 538 Q 115 525 117 513 Q 121 494 135 478 Q 145 468 157 474 Q 199 498 287 509 C 317 513 331 530 301 531 Z" style="fill: #0070C0;"></path>
                                                                        <path d="M 287 509 Q 188 373 165 360 Q 152 351 155 338 Q 156 326 181 308 Q 191 298 205 309 Q 263 352 351 384 Q 369 388 371 397 Q 374 407 355 403 Q 306 393 246 375 Q 222 366 237 387 Q 354 553 413 603 Q 425 613 419 622 Q 409 640 377 658 Q 362 667 353 664 Q 344 660 346 646 Q 347 616 301 531 L 287 509 Z" style="fill: #0070C0;"></path>
                                                                        <path d="M 109 181 Q 97 178 96 168 Q 95 155 105 149 Q 127 136 161 121 Q 171 120 181 128 Q 208 155 342 231 Q 361 243 374 255 Q 386 264 385 272 Q 379 276 368 273 Q 152 185 109 181 Z" style="fill: #0070C0;"></path>
                                                                        <path d="M 443 761 Q 430 760 428 756 Q 425 752 438 744 Q 456 735 492 741 Q 535 756 550 750 Q 559 746 558 719 Q 555 616 549 595 Q 546 582 552 570 Q 558 560 567 561 Q 576 564 580 576 Q 590 592 597 673 Q 604 713 629 741 Q 642 754 627 765 Q 612 775 571 791 Q 559 797 526 784 Q 499 778 477 770 Q 456 763 443 761 Z" style="fill: #0070C0;"></path>
                                                                        <path d="M 437 692 Q 486 650 506 651 Q 516 652 519 667 Q 518 677 508 691 Q 489 712 437 713 Q 430 713 430 704 Q 430 697 437 692 Z" style="fill: #0070C0;"></path>
                                                                        <path d="M 394 558 Q 387 554 387 547 Q 388 538 396 535 Q 412 529 437 524 Q 444 524 450 531 Q 454 540 503 592 Q 509 599 513 605 Q 520 612 518 618 Q 514 621 506 617 Q 416 562 394 558 Z" style="fill: #0070C0;"></path>
                                                                        <path d="M 675 799 Q 662 799 661 794 Q 658 791 671 783 Q 693 774 717 781 Q 762 797 774 792 Q 784 786 781 751 Q 763 622 754 596 Q 748 580 754 565 Q 760 552 771 553 Q 784 556 790 569 Q 803 591 820 690 Q 833 736 864 763 Q 880 778 865 791 Q 849 804 805 826 Q 789 835 756 822 Q 716 812 675 799 Z" style="fill: #0070C0;"></path>
                                                                        <path d="M 655 716 Q 694 677 710 677 Q 720 677 723 691 Q 724 700 715 714 Q 700 735 657 736 Q 650 737 650 728 Q 649 722 655 716 Z" style="fill: #0070C0;"></path>
                                                                        <path d="M 624 612 Q 617 609 617 603 Q 618 594 624 591 Q 640 584 663 578 Q 670 577 675 584 Q 684 597 733 641 Q 751 659 750 666 Q 749 666 643 617 Q 636 613 624 612 Z" style="fill: #0070C0;"></path>
                                                                        <path d="M 634 517 Q 638 520 641 522 Q 650 532 648 539 Q 647 551 625 558 Q 601 567 591 565 Q 584 564 582 553 Q 567 481 380 342 Q 362 330 385 332 Q 463 339 588 468 Q 589 471 617 499 L 634 517 Z" style="fill: #0070C0;"></path>
                                                                        <path d="M 617 499 Q 698 415 785 337 Q 807 318 843 318 Q 909 318 975 336 Q 991 339 993 343 Q 994 350 981 354 Q 825 400 814 406 Q 751 434 634 517 C 609 534 596 521 617 499 Z" style="fill: #0070C0;"></path>
                                                                        <path d="M 576 407 Q 572 359 452 258 Q 436 246 457 249 Q 512 255 600 346 Q 622 371 633 381 Q 642 390 640 397 Q 637 407 616 414 Q 594 421 584 419 Q 578 418 576 407 Z" style="fill: #0070C0;"></path>
                                                                        <path d="M 630 325 Q 624 271 496 151 Q 478 138 501 141 Q 559 145 657 259 Q 681 287 692 300 Q 699 310 698 318 Q 694 328 672 334 Q 648 341 638 338 Q 632 337 630 325 Z" style="fill: #0070C0;"></path>
                                                                        <path d="M 700 257 Q 703 188 566 54 Q 560 51 555 45 Q 515 9 414 -57 Q 407 -61 416 -65 Q 482 -65 605 35 Q 668 89 751 188 Q 761 200 768 205 Q 775 209 775 219 Q 771 246 736 262 Q 717 271 707 270 Q 700 269 700 257 Z" style="fill: #0070C0;"></path>
                                    
                                    
                                                                                                                                                                                                                                                                                                                                                                                                                                                                                                                                                                                                                                                                                                                                                                                                                                                                                                                                                                                                                                                                                                                                                                                    </g>
                            </svg>