<svg width='83' height='83' >
                                <g transform="translate(3, 70) scale(0.07, -0.07)">
                                    <!-- 先将完整的字以灰色字体绘制完成，层级位于下面 -->
                                                                        <path d="M 255 497 Q 215 497 181 497 Q 147 496 164 517 Q 228 634 289 722 Q 302 738 299 745 Q 296 758 260 785 Q 244 797 227 793 Q 217 790 224 776 Q 240 739 160 577 Q 144 540 105 504 Q 89 491 90 480 Q 94 464 107 447 Q 117 437 128 444 Q 149 456 220 471 Q 230 472 240 473 C 270 476 285 497 255 497 Z" style="fill: #0070C0;"></path>
                                                                        <path d="M 240 473 Q 153 344 130 331 Q 118 322 121 309 Q 122 297 147 282 Q 157 272 170 283 Q 222 326 301 360 Q 317 366 319 373 Q 320 383 303 378 Q 260 368 206 348 Q 185 339 198 358 Q 234 413 319 523 Q 344 557 365 578 Q 375 587 370 596 Q 360 612 330 629 Q 315 636 307 634 Q 298 630 300 616 Q 303 576 255 497 L 240 473 Z" style="fill: #0070C0;"></path>
                                                                        <path d="M 91 175 Q 79 172 79 162 Q 79 150 88 144 Q 110 132 143 119 Q 153 118 162 127 Q 187 154 302 228 Q 318 238 330 251 Q 340 260 340 268 Q 336 272 324 268 Q 129 178 91 175 Z" style="fill: #0070C0;"></path>
                                                                        <path d="M 579 639 Q 591 643 605 645 L 628 650 Q 757 684 759 686 Q 768 693 763 701 Q 756 711 729 718 Q 702 722 675 711 Q 636 698 596 685 L 536 669 Q 488 660 440 654 Q 406 648 430 633 Q 470 614 520 625 L 579 639 Z" style="fill: #0070C0;"></path>
                                                                        <path d="M 450 419 Q 525 498 579 639 L 596 685 Q 618 748 635 767 Q 644 777 640 787 Q 625 812 579 828 Q 566 835 549 827 Q 539 818 547 807 Q 560 794 562 776 Q 563 755 536 669 L 520 625 Q 499 573 475 527 L 463 506 Q 462 505 461 501 Q 425 446 345 360 Q 335 347 346 344 Q 350 343 363 350 Q 399 371 431 400 L 450 419 Z" style="fill: #0070C0;"></path>
                                                                        <path d="M 605 645 Q 606 644 608 642 Q 693 530 786 429 Q 804 407 838 404 Q 899 397 964 405 Q 980 405 982 410 Q 985 416 972 421 Q 804 499 779 518 Q 773 521 740 546 L 725 559 Q 697 583 669 609 Q 644 634 628 650 C 607 671 586 668 605 645 Z" style="fill: #0070C0;"></path>
                                                                        <path d="M 475 527 Q 471 555 442 566 Q 411 581 398 583 Q 391 584 390 576 Q 389 567 435 519 Q 447 507 463 506 C 479 504 479 504 475 527 Z" style="fill: #0070C0;"></path>
                                                                        <path d="M 740 546 Q 803 586 835 600 Q 851 604 848 614 Q 844 629 826 646 Q 810 662 789 664 Q 776 664 777 647 Q 778 634 770 620 Q 754 596 725 559 C 707 535 715 530 740 546 Z" style="fill: #0070C0;"></path>
                                                                        <path d="M 464 415 Q 460 418 450 419 C 421 423 421 423 431 400 Q 453 349 464 265 Q 465 240 479 222 Q 492 203 498 216 Q 501 225 502 236 L 502 259 Q 501 265 501 271 Q 498 293 495 312 L 492 337 Q 488 376 488 389 C 488 405 488 405 464 415 Z" style="fill: #0070C0;"></path>
                                                                        <path d="M 639 255 Q 658 228 673 222 Q 683 215 695 235 Q 705 254 723 354 Q 729 381 748 403 Q 758 415 748 426 Q 735 439 696 461 Q 683 467 464 415 C 435 408 461 377 488 389 Q 497 399 636 422 Q 657 426 663 419 Q 673 409 673 396 Q 663 285 649 274 C 639 256 639 256 639 255 Z" style="fill: #0070C0;"></path>
                                                                        <path d="M 495 312 Q 495 313 499 313 Q 566 326 617 334 Q 636 338 629 349 Q 619 362 597 365 Q 567 366 492 337 C 464 326 466 305 495 312 Z" style="fill: #0070C0;"></path>
                                                                        <path d="M 593 248 Q 617 254 639 255 C 669 257 669 257 649 274 Q 640 283 623 286 Q 587 289 502 259 C 474 249 472 236 502 236 Q 503 236 508 236 Q 533 240 556 243 L 593 248 Z" style="fill: #0070C0;"></path>
                                                                        <path d="M 556 243 Q 580 180 566 62 Q 565 59 564 57 Q 561 45 539 50 Q 518 54 495 58 Q 485 59 483 52 Q 482 48 491 38 Q 546 -10 563 -38 Q 576 -51 586 -49 Q 596 -45 608 -14 Q 624 17 622 76 Q 619 151 620 178 Q 627 215 610 235 Q 601 244 593 248 C 568 265 546 271 556 243 Z" style="fill: #0070C0;"></path>
                                                                        <path d="M 424 173 Q 396 136 361 105 Q 334 80 344 46 Q 348 28 369 35 Q 418 59 435 116 Q 447 144 446 168 Q 443 177 438 179 Q 431 179 424 173 Z" style="fill: #0070C0;"></path>
                                                                        <path d="M 697 163 Q 746 120 804 57 Q 819 38 834 34 Q 841 33 849 43 Q 861 55 848 97 Q 839 136 768 165 Q 722 184 697 192 Q 688 196 687 185 Q 686 172 697 163 Z" style="fill: #0070C0;"></path>
                                    
                                    
                                                                                                                                                                                                                                                                                                                                                                                                                                                                                                                                                                                                                                                                                                                                                                                                                                                                                                                                                                                                                                                                                                                                                                                                                                                                </g>
                            </svg>