<svg width='83' height='83' >
                                <g transform="translate(3, 70) scale(0.07, -0.07)">
                                    <!-- 先将完整的字以灰色字体绘制完成，层级位于下面 -->
                                                                        <path d="M 263 482 Q 262 482 261 481 Q 224 482 195 482 Q 161 481 178 503 Q 242 623 306 711 Q 319 729 316 736 Q 313 749 275 778 Q 259 791 241 786 Q 231 783 237 768 Q 255 726 173 564 Q 155 527 116 489 Q 98 476 100 464 Q 104 446 118 429 Q 128 419 140 426 Q 159 438 225 454 Q 235 455 245 456 C 275 459 293 483 263 482 Z" style="fill: #0070C0;"></path>
                                                                        <path d="M 245 456 Q 161 338 146 328 Q 133 319 135 306 Q 136 293 161 277 Q 171 267 184 278 Q 250 323 336 353 Q 352 357 355 365 Q 356 375 340 371 Q 288 361 224 341 Q 196 331 213 354 Q 249 409 332 519 Q 356 553 378 574 Q 388 584 382 592 Q 372 608 342 624 Q 327 631 319 629 Q 310 626 312 612 Q 315 567 263 482 L 245 456 Z" style="fill: #0070C0;"></path>
                                                                        <path d="M 120 165 Q 107 162 107 152 Q 107 139 116 133 Q 140 120 173 106 Q 183 105 194 114 Q 215 136 357 226 Q 376 238 390 251 Q 402 260 401 268 Q 395 272 384 269 Q 173 170 120 165 Z" style="fill: #0070C0;"></path>
                                                                        <path d="M 447 679 Q 453 697 471 728 Q 475 738 465 745 Q 435 763 419 757 Q 412 754 415 745 Q 425 706 389 630 Q 382 620 379 612 Q 376 602 385 606 Q 409 615 438 663 L 447 679 Z" style="fill: #0070C0;"></path>
                                                                        <path d="M 542 673 Q 558 679 579 685 Q 595 689 597 693 Q 603 699 599 704 Q 593 711 572 714 Q 559 715 545 711 L 506 694 Q 499 693 494 691 Q 472 684 447 679 C 418 673 409 670 438 663 Q 472 654 507 662 L 542 673 Z" style="fill: #0070C0;"></path>
                                                                        <path d="M 535 612 Q 538 643 542 673 L 545 711 Q 546 724 548 738 Q 551 753 553 763 Q 559 785 547 796 Q 523 809 506 812 Q 496 813 490 809 Q 486 803 490 793 Q 502 777 506 694 L 507 662 Q 507 634 507 602 C 507 572 532 582 535 612 Z" style="fill: #0070C0;"></path>
                                                                        <path d="M 527 574 Q 542 580 600 595 Q 607 595 612 605 Q 612 614 595 619 Q 565 629 535 612 L 507 602 Q 503 601 501 600 Q 465 588 400 569 Q 381 563 397 553 Q 424 541 434 542 L 462 552 Q 480 559 503 567 L 527 574 Z" style="fill: #0070C0;"></path>
                                                                        <path d="M 434 542 Q 443 500 364 403 Q 360 399 366 399 Q 393 399 438 458 Q 453 477 476 518 Q 483 531 484 535 Q 480 547 462 552 C 434 561 431 562 434 542 Z" style="fill: #0070C0;"></path>
                                                                        <path d="M 503 567 Q 516 539 511 504 Q 508 488 502 478 Q 495 466 499 454 Q 506 435 516 429 Q 522 425 529 435 Q 545 457 599 512 Q 609 521 609 525 Q 610 532 598 526 Q 547 496 541 497 Q 537 500 537 511 Q 538 542 541 550 Q 544 560 536 567 Q 532 571 527 574 C 502 591 491 595 503 567 Z" style="fill: #0070C0;"></path>
                                                                        <path d="M 662 713 Q 689 767 689 768 Q 688 769 688 770 Q 684 777 666 787 Q 650 794 639 793 Q 629 790 636 779 Q 651 754 599 648 Q 598 641 606 644 Q 618 647 648 690 Q 649 693 652 696 L 662 713 Z" style="fill: #0070C0;"></path>
                                                                        <path d="M 756 702 Q 826 724 829 727 Q 835 734 831 740 Q 825 747 803 751 Q 781 754 761 744 L 720 727 Q 716 727 714 726 Q 690 719 662 713 C 633 707 633 707 652 696 Q 651 696 653 695 Q 680 683 720 691 L 756 702 Z" style="fill: #0070C0;"></path>
                                                                        <path d="M 749 641 Q 752 672 756 702 L 761 744 Q 761 754 763 761 Q 772 809 767 816 Q 764 819 762 820 Q 740 833 722 836 Q 712 839 706 833 Q 700 829 706 818 Q 716 802 718 790 Q 719 760 720 727 L 720 691 Q 720 664 719 633 C 718 603 746 611 749 641 Z" style="fill: #0070C0;"></path>
                                                                        <path d="M 773 617 Q 807 624 855 628 Q 865 629 874 630 Q 886 631 888 637 Q 891 644 880 651 Q 841 673 803 657 Q 779 651 749 641 L 719 633 Q 676 623 626 610 Q 613 609 624 598 Q 633 591 644 589 Q 657 588 667 591 Q 668 592 671 592 L 688 597 Q 713 607 742 612 L 773 617 Z" style="fill: #0070C0;"></path>
                                                                        <path d="M 671 592 Q 671 529 589 464 Q 583 460 587 457 Q 600 454 642 474 Q 676 493 707 544 Q 711 551 719 559 Q 723 565 721 572 Q 715 588 688 597 C 671 603 671 603 671 592 Z" style="fill: #0070C0;"></path>
                                                                        <path d="M 950 512 Q 941 527 926 575 Q 925 587 920 589 Q 916 592 914 579 Q 896 525 885 509 Q 881 503 865 499 Q 828 490 801 499 Q 791 503 787 511 Q 778 530 789 591 Q 792 607 773 617 C 749 634 733 641 742 612 Q 752 582 751 557 Q 748 494 770 474 Q 812 438 904 460 Q 904 461 907 461 Q 928 468 947 483 Q 960 495 950 512 Z" style="fill: #0070C0;"></path>
                                                                        <path d="M 539 394 Q 538 395 537 396 Q 518 411 497 417 Q 490 418 484 412 Q 483 408 488 399 Q 518 303 489 200 Q 477 158 503 127 Q 513 117 520 127 Q 541 151 542 276 Q 543 345 547 368 C 549 386 549 386 539 394 Z" style="fill: #0070C0;"></path>
                                                                        <path d="M 720 189 Q 713 168 725 148 Q 738 121 746 122 Q 759 123 774 153 Q 787 177 786 195 Q 771 339 797 378 Q 807 393 800 401 Q 775 423 731 442 Q 718 446 636 415 Q 567 399 539 394 C 510 388 517 363 547 368 Q 556 368 633 386 Q 699 405 714 395 Q 721 380 724 338 Q 727 214 720 189 Z" style="fill: #0070C0;"></path>
                                                                        <path d="M 611 282 Q 620 150 579 95 Q 543 49 420 5 Q 410 4 406 0 Q 402 -4 414 -8 Q 493 -14 582 37 Q 592 46 603 55 Q 648 104 656 231 Q 660 288 668 307 Q 672 317 665 322 Q 650 335 622 347 Q 606 354 592 349 Q 576 343 589 329 Q 611 307 611 282 Z" style="fill: #0070C0;"></path>
                                                                        <path d="M 688 92 Q 736 49 793 -12 Q 808 -30 822 -34 Q 829 -35 837 -26 Q 847 -13 836 26 Q 827 65 758 93 Q 713 112 689 120 Q 680 124 679 113 Q 678 101 688 92 Z" style="fill: #0070C0;"></path>
                                    
                                    
                                                                                                                                                                                                                                                                                                                                                                                                                                                                                                                                                                                                                                                                                                                                                                                                                                                                                                                                                                                                                                                                                                                                                                                                                                                                                                                                                                                                                                                                                                                                                                                </g>
                            </svg>