<svg width='83' height='83' >
                                <g transform="translate(3, 70) scale(0.07, -0.07)">
                                    <!-- 先将完整的字以灰色字体绘制完成，层级位于下面 -->
                                                                        <path d="M 266 678 Q 241 699 212 708 Q 202 711 194 701 Q 190 694 199 682 Q 226 616 226 544 Q 232 259 188 121 Q 178 93 184 70 Q 194 33 207 17 Q 220 2 230 18 Q 267 57 268 275 Q 268 533 280 634 C 283 664 283 665 266 678 Z" style="fill: #0070C0;"></path>
                                                                        <path d="M 280 634 Q 287 634 295 635 Q 476 672 695 696 Q 722 700 734 685 Q 749 676 755 609 Q 773 383 762 126 Q 762 87 748 77 Q 729 64 635 83 Q 616 86 618 75 Q 619 68 635 61 Q 719 13 764 -26 Q 788 -47 801 -43 Q 814 -39 826 -8 Q 842 43 838 115 Q 805 613 829 663 Q 842 687 831 700 Q 819 716 768 742 Q 746 752 725 748 Q 563 700 266 678 C 236 676 250 629 280 634 Z" style="fill: #0070C0;"></path>
                                                                        <path d="M 425 361 Q 435 389 472 519 Q 473 529 478 539 Q 485 549 481 561 Q 471 576 447 589 Q 434 599 422 596 Q 412 592 416 580 Q 420 574 422 565 Q 422 502 396 397 L 381 355 Q 378 351 377 345 Q 352 288 299 220 Q 295 216 293 211 Q 290 204 298 204 Q 328 204 391 294 Q 391 295 404 317 L 425 361 Z" style="fill: #0070C0;"></path>
                                                                        <path d="M 404 317 Q 452 224 462 219 Q 466 218 473 222 Q 482 226 482 255 Q 483 283 425 361 L 396 397 Q 344 460 313 492 Q 309 496 305 490 Q 302 483 307 474 Q 341 422 381 355 L 404 317 Z" style="fill: #0070C0;"></path>
                                                                        <path d="M 633 370 Q 634 371 635 373 Q 647 412 675 541 Q 678 554 682 566 Q 691 578 685 590 Q 672 606 645 620 Q 629 630 617 628 Q 607 622 611 610 Q 624 586 618 532 Q 617 531 617 526 Q 608 445 597 409 L 583 361 Q 547 268 480 171 Q 474 165 473 160 Q 469 151 479 152 Q 512 156 578 252 Q 599 291 612 316 L 633 370 Z" style="fill: #0070C0;"></path>
                                                                        <path d="M 612 316 Q 684 199 691 194 Q 698 191 705 198 Q 717 205 715 240 Q 715 279 633 370 L 597 409 Q 546 464 515 493 Q 509 497 506 489 Q 503 479 509 470 Q 545 421 583 361 L 612 316 Z" style="fill: #0070C0;"></path>
                                    
                                    
                                                                                                                                                                                                                                                                                                                                                                                                                                                                                                                                                    </g>
                            </svg>