<svg width='83' height='83' >
                                <g transform="translate(3, 70) scale(0.07, -0.07)">
                                    <!-- 先将完整的字以灰色字体绘制完成，层级位于下面 -->
                                                                        <path d="M 246 686 Q 221 708 194 715 Q 183 718 176 708 Q 172 702 180 690 Q 209 621 208 553 Q 209 478 202 423 Q 198 382 182 326 Q 174 298 178 278 Q 189 241 201 227 Q 214 213 223 227 Q 257 270 259 552 L 259 641 C 259 671 259 676 246 686 Z" style="fill: #0070C0;"></path>
                                                                        <path d="M 259 641 Q 270 640 283 643 Q 468 686 694 716 Q 721 722 735 708 Q 757 698 756 632 Q 755 559 759 399 Q 759 363 745 351 Q 729 342 663 367 Q 645 372 645 361 Q 645 353 660 344 Q 715 288 747 245 Q 768 221 784 223 Q 798 227 811 260 Q 831 310 833 386 Q 819 469 819 612 Q 819 643 827 666 L 838 697 Q 844 711 835 722 Q 827 733 808 747 Q 759 778 723 771 Q 548 717 246 686 C 216 683 229 637 259 641 Z" style="fill: #0070C0;"></path>
                                                                        <path d="M 472 470 Q 416 403 329 338 Q 321 331 327 328 Q 355 318 447 384 Q 484 410 512 443 L 543 486 Q 563 514 578 549 Q 602 598 617 621 Q 625 629 621 639 Q 614 649 586 667 Q 566 680 555.5 677 Q 545 674 545 661 Q 549 598 498 506 L 472 470 Z" style="fill: #0070C0;"></path>
                                                                        <path d="M 356 548 Q 356 545 357 543 Q 359 537 376 526 Q 449 484 472 470 L 512 443 Q 552 419 592 389 Q 605 380 615 378 Q 617 378 619 380 Q 637 392 616 431 Q 604 456 543 486 L 498 506 Q 485 517 363 557 Q 356 557 356 548 Z" style="fill: #0070C0;"></path>
                                    
                                    
                                                                                                                                                                                                                                                                                                                                                                                            </g>
                            </svg>