<svg width='83' height='83' >
                                <g transform="translate(3, 70) scale(0.07, -0.07)">
                                    <!-- 先将完整的字以灰色字体绘制完成，层级位于下面 -->
                                                                        <path d="M 284 779 Q 274 785 241 787 Q 229 788 227 784 Q 221 777 230 763 Q 260 714 283 630 Q 287 605 304 590 Q 323 571 326 586 Q 329 596 327 610 L 323 635 Q 317 647 298 743 C 292 772 291 776 284 779 Z" style="fill: #0070C0;"></path>
                                                                        <path d="M 679 647 Q 678 640 680 631 Q 684 616 695 616 Q 714 619 747 680 Q 765 728 800 754 Q 819 767 805 783 Q 789 801 743 828 Q 728 837 664 825 Q 546 818 416 796 Q 338 784 284 779 C 254 776 269 737 298 743 Q 302 743 307 744 Q 347 756 409 764 L 431 767 Q 480 776 546 782 L 583 785 Q 692 800 715 784 Q 722 780 716 758 Q 698 698 690 674 L 679 647 Z" style="fill: #0070C0;"></path>
                                                                        <path d="M 453 652 Q 459 683 438 748 Q 438 760 431 767 C 412 790 405 794 409 764 Q 412 745 413 720 Q 413 674 431 649 C 448 624 448 623 453 652 Z" style="fill: #0070C0;"></path>
                                                                        <path d="M 561 668 Q 562 672 566 676 Q 596 739 603 748 Q 613 758 607 766 Q 600 776 583 785 C 557 800 539 810 546 782 Q 555 755 536 675 Q 533 669 533 663 C 530 633 548 641 561 668 Z" style="fill: #0070C0;"></path>
                                                                        <path d="M 388 611 Q 553 635 679 647 C 709 650 717 661 690 674 Q 684 678 676 680 Q 661 683 561 668 L 533 663 Q 490 659 453 652 L 431 649 Q 373 643 323 635 C 293 630 297 612 327 610 Q 339 609 354 608 L 388 611 Z" style="fill: #0070C0;"></path>
                                                                        <path d="M 387 255 Q 384 194 369 136 Q 357 94 384 37 Q 391 21 399 17 Q 405 10 412 18 Q 439 42 438 98 Q 437 141 439 537 Q 439 619 454 675 Q 463 690 460 703 Q 453 712 399 745 Q 375 761 355 746 Q 351 742 357 726 Q 385 686 386 644 Q 386 622 387 598 L 388 563 Q 388 500 389 434 L 389 398 Q 388 343 388 285 L 387 255 Z" style="fill: #0070C0;"></path>
                                                                        <path d="M 387 598 Q 368 604 351 600 Q 248 579 184 573 Q 172 572 169 564 Q 166 554 181 543 Q 217 516 257 530 Q 318 552 388 563 C 418 568 416 590 387 598 Z" style="fill: #0070C0;"></path>
                                                                        <path d="M 389 434 Q 371 440 355 436 Q 277 421 208 413 Q 196 412 193 404 Q 190 394 205 383 Q 241 358 281 371 Q 344 392 389 398 C 419 402 418 426 389 434 Z" style="fill: #0070C0;"></path>
                                                                        <path d="M 388 285 Q 178 234 133 236 Q 120 235 117 225 Q 114 212 123 202 Q 145 184 179 164 Q 189 160 202 168 Q 238 192 382 253 Q 383 254 387 255 C 415 266 417 292 388 285 Z" style="fill: #0070C0;"></path>
                                                                        <path d="M 646 281 Q 646 344 646 422 L 646 451 Q 646 523 645 595 L 646 624 Q 647 702 663 757 Q 673 773 669 789 Q 662 799 599 836 Q 574 855 550 837 Q 544 831 552 814 Q 588 763 588 705 Q 606 234 570 96 Q 558 51 588 -16 Q 595 -35 604 -39 Q 611 -46 619 -37 Q 649 -16 648 53 Q 647 83 646 248 L 646 281 Z" style="fill: #0070C0;"></path>
                                                                        <path d="M 645 595 Q 655 591 674 592 Q 777 605 853 612 Q 884 616 873 634 Q 860 653 826 660 Q 787 667 646 624 C 617 615 616 603 645 595 Z" style="fill: #0070C0;"></path>
                                                                        <path d="M 646 422 Q 649 422 842 437 Q 872 441 861 458 Q 848 477 816 484 Q 777 490 646 451 C 617 442 616 420 646 422 Z" style="fill: #0070C0;"></path>
                                                                        <path d="M 646 248 Q 658 244 678 244 Q 807 254 901 258 Q 935 261 925 280 Q 912 302 875 313 Q 833 322 646 281 C 617 275 617 255 646 248 Z" style="fill: #0070C0;"></path>
                                    
                                    
                                                                                                                                                                                                                                                                                                                                                                                                                                                                                                                                                                                                                                                                                                                                                                                                                                                                                                                                                                                                                                                                                                        </g>
                            </svg>