<svg width='83' height='83' >
                                <g transform="translate(3, 70) scale(0.07, -0.07)">
                                    <!-- 先将完整的字以灰色字体绘制完成，层级位于下面 -->
                                                                        <path d="M 294 746 Q 282 752 247 756 Q 234 759 231 753 Q 224 746 235 730 Q 263 678 285 593 Q 289 568 306 551 Q 327 529 331 546 Q 332 552 333 558 L 333 584 Q 332 593 330 602 Q 314 675 309 707 C 304 737 303 742 294 746 Z" style="fill: #0070C0;"></path>
                                                                        <path d="M 658 588 Q 658 587 659 585 Q 663 569 676 568 Q 697 571 729 631 Q 748 683 788 712 Q 809 728 793 745 Q 775 763 725 793 Q 710 802 638 790 Q 530 781 411 762 Q 344 752 294 746 C 264 742 280 699 309 707 Q 321 713 399 725 L 424 729 Q 473 738 539 744 L 581 748 Q 666 763 692 747 Q 699 743 693 720 Q 669 633 660 613 C 654 596 654 596 658 588 Z" style="fill: #0070C0;"></path>
                                                                        <path d="M 458 600 Q 461 627 437 702 Q 434 718 424 729 C 405 752 390 754 399 725 L 400 723 Q 403 702 406 675 Q 409 624 430 596 C 447 572 456 570 458 600 Z" style="fill: #0070C0;"></path>
                                                                        <path d="M 559 615 Q 602 693 609 700 Q 622 712 613 721 Q 604 734 581 748 C 556 764 522 769 539 744 Q 555 728 533 629 Q 529 619 528 610 C 523 580 545 589 559 615 Z" style="fill: #0070C0;"></path>
                                                                        <path d="M 505 572 Q 587 582 658 588 C 688 591 687 600 660 613 Q 653 617 642 621 Q 626 624 559 615 L 528 610 Q 492 606 458 600 L 430 596 Q 379 592 333 584 C 303 579 303 556 333 558 Q 334 558 457 566 L 505 572 Z" style="fill: #0070C0;"></path>
                                                                        <path d="M 507 458 Q 685 488 693 494 Q 702 501 698 509 Q 692 521 666 528 Q 639 535 611 526 Q 566 513 521 502 L 460 490 Q 393 481 322 477 Q 288 473 311 457 Q 344 436 418 445 Q 436 448 455 450 L 507 458 Z" style="fill: #0070C0;"></path>
                                                                        <path d="M 486 393 Q 496 427 507 458 L 521 502 Q 521 505 536 533 Q 540 542 526 557 Q 516 566 505 572 C 479 587 447 594 457 566 Q 466 548 460 490 L 455 450 Q 451 422 446 388 C 442 358 477 364 486 393 Z" style="fill: #0070C0;"></path>
                                                                        <path d="M 243 352 Q 222 368 201 375 Q 195 378 190 371 Q 186 364 190 351 Q 229 273 203 84 Q 197 60 207 39 Q 219 17 236 5 Q 249 -5 253 6 Q 260 10 263 32 Q 269 54 265 127 Q 261 257 266 303 Q 267 310 267 316 C 268 334 267 335 243 352 Z" style="fill: #0070C0;"></path>
                                                                        <path d="M 586 365 Q 637 371 719 374 Q 734 374 739 367 Q 748 361 748 324 Q 752 170 734 81 Q 724 41 689 45 Q 652 52 617 56 Q 601 60 601 53 Q 601 46 614 34 Q 690 -26 713 -57 Q 722 -72 731 -70 Q 744 -69 758 -44 Q 794 17 811 201 Q 820 337 832 357 Q 851 379 836 385 Q 820 403 780 420 Q 755 436 728 426 Q 697 416 621 409 Q 548 403 486 393 L 446 388 Q 409 384 379 377 Q 310 364 243 352 C 213 347 238 308 267 316 Q 266 317 268 317 Q 337 338 549 362 L 586 365 Z" style="fill: #0070C0;"></path>
                                                                        <path d="M 369 299 Q 405 245 423 243 Q 435 242 442 256 Q 443 268 437 286 Q 430 299 413 306 Q 386 319 375 322 Q 368 325 365 315 Q 364 308 369 299 Z" style="fill: #0070C0;"></path>
                                                                        <path d="M 548 251 Q 558 266 568 275 Q 601 320 614 332 Q 627 342 616 353 Q 603 360 586 365 C 557 374 547 377 549 362 Q 548 359 551 354 Q 558 339 527 258 Q 524 252 522 244 C 514 215 531 226 548 251 Z" style="fill: #0070C0;"></path>
                                                                        <path d="M 505 201 Q 535 208 625 220 Q 634 219 641 230 Q 642 240 623 248 Q 595 269 548 251 L 522 244 Q 507 243 493 237 Q 451 228 339 213 Q 315 209 334 195 Q 362 176 400 182 Q 425 188 458 193 L 505 201 Z" style="fill: #0070C0;"></path>
                                                                        <path d="M 522 110 Q 559 113 651 114 Q 667 114 671 121 Q 675 130 662 141 Q 616 174 554 155 Q 539 154 525 149 L 469 139 Q 403 129 329 118 Q 313 117 325 102 Q 337 92 351 88 Q 367 84 380 88 Q 422 100 471 104 L 522 110 Z" style="fill: #0070C0;"></path>
                                                                        <path d="M 478 -9 Q 482 -30 488 -38 Q 492 -44 498 -41 Q 510 -35 516 13 Q 517 28 522 110 L 525 149 Q 526 155 527 157 Q 528 164 529 169 Q 532 182 521 191 Q 512 197 505 201 C 479 216 448 221 458 193 Q 464 178 469 141 Q 468 141 469 139 L 471 104 Q 472 80 474 51 Q 475 6 478 -9 Z" style="fill: #0070C0;"></path>
                                    
                                    
                                                                                                                                                                                                                                                                                                                                                                                                                                                                                                                                                                                                                                                                                                                                                                                                                                                                                                                                                                                                                                                                                                                                                                                    </g>
                            </svg>