<svg width='83' height='83' >
                                <g transform="translate(3, 70) scale(0.07, -0.07)">
                                    <!-- 先将完整的字以灰色字体绘制完成，层级位于下面 -->
                                                                        <path d="M 325 745 Q 373 685 403 672 Q 418 668 427 681 Q 434 693 432 709 Q 420 758 340 781 L 339 782 Q 323 786 314 784 Q 307 783 309 771 Q 310 759 325 745 Z" style="fill: #0070C0;"></path>
                                                                        <path d="M 599 802 Q 578 769 495 676 Q 485 657 503 661 Q 561 694 594 718 Q 672 773 691 781 Q 713 791 703 811 Q 688 830 660 846 Q 635 861 621 858 Q 606 857 611 842 Q 615 821 599 802 Z" style="fill: #0070C0;"></path>
                                                                        <path d="M 480 584 Q 559 597 645 610 Q 705 620 713 629 Q 723 636 718 644 Q 712 657 684 665 Q 656 672 626 662 Q 470 616 307 607 Q 271 603 296 585 Q 332 563 404 573 Q 419 576 436 577 L 480 584 Z" style="fill: #0070C0;"></path>
                                                                        <path d="M 486 452 Q 654 482 662 488 Q 669 494 666 502 Q 660 512 636 520 Q 611 526 584 517 Q 539 504 495 493 L 437 482 Q 382 475 325 471 Q 294 467 315 452 Q 346 433 413 442 Q 420 443 430 444 L 486 452 Z" style="fill: #0070C0;"></path>
                                                                        <path d="M 565 332 Q 622 336 815 337 Q 834 337 839 346 Q 843 356 828 370 Q 777 410 716 395 Q 626 379 484 359 Q 471 358 458 355 L 405 348 Q 293 336 168 321 Q 149 320 163 303 Q 176 290 194 284 Q 213 278 229 283 Q 307 305 396 316 L 447 322 Q 475 326 508 328 L 565 332 Z" style="fill: #0070C0;"></path>
                                                                        <path d="M 458 355 Q 471 400 486 452 L 495 493 Q 496 500 499 507 Q 506 526 510 536 Q 520 555 502 568 Q 490 578 480 584 C 456 601 431 607 436 577 Q 445 549 437 482 L 430 444 Q 420 405 405 348 L 396 316 Q 341 145 184 45 Q 157 30 145 18 Q 141 11 153 9 Q 193 3 282 66 Q 393 150 447 322 L 458 355 Z" style="fill: #0070C0;"></path>
                                                                        <path d="M 935 77 Q 919 102 891 184 Q 890 202 881 206 Q 874 209 871 190 Q 850 99 834 70 Q 798 31 681 36 Q 638 39 603 53 Q 573 68 566 86 Q 545 135 578 297 Q 584 321 565 332 C 547 356 501 357 508 328 Q 520 286 516 246 Q 498 68 533 29 Q 557 5 611 -12 Q 785 -60 932 28 Q 954 47 935 77 Z" style="fill: #0070C0;"></path>
                                    
                                    
                                                                                                                                                                                                                                                                                                                                                                                                                                                                                                                                                                                                                                </g>
                            </svg>