<svg width='83' height='83' >
                                <g transform="translate(3, 70) scale(0.07, -0.07)">
                                    <!-- 先将完整的字以灰色字体绘制完成，层级位于下面 -->
                                                                        <path d="M 412 776 Q 427 761 442 744 Q 452 734 465 734 Q 472 734 477 745 Q 481 755 475 779 Q 471 792 451 801 Q 405 819 392 815 Q 388 811 389 802 Q 392 793 412 776 Z" style="fill: #0070C0;"></path>
                                                                        <path d="M 577 825 Q 568 807 526 752 Q 519 739 532 741 Q 565 759 583 771 Q 637 810 645 812 Q 661 819 653 834 Q 643 847 621 859 Q 602 869 592 867 Q 582 866 585 855 Q 588 840 577 825 Z" style="fill: #0070C0;"></path>
                                                                        <path d="M 511 685 Q 563 694 620 700 Q 669 707 677 713 Q 684 719 682 726 Q 676 736 654 744 Q 633 750 519 723 Q 429 708 341 705 Q 311 702 331 687 Q 364 668 430 675 Q 451 678 474 680 L 511 685 Z" style="fill: #0070C0;"></path>
                                                                        <path d="M 522 609 Q 583 616 635 621 Q 654 622 648 634 Q 641 647 620 652 Q 590 658 527 643 L 477 635 Q 414 626 359 618 Q 346 617 361 602 Q 374 592 402 595 Q 441 601 478 603 L 522 609 Z" style="fill: #0070C0;"></path>
                                                                        <path d="M 516 562 Q 517 589 522 609 L 527 643 Q 527 644 528 645 Q 535 660 528 669 Q 519 679 511 685 C 488 704 466 709 474 680 Q 477 674 477 635 L 478 603 Q 478 584 478 557 C 478 527 515 532 516 562 Z" style="fill: #0070C0;"></path>
                                                                        <path d="M 478 557 Q 376 547 262 533 Q 246 532 257 518 Q 281 497 322 505 Q 451 539 723 539 Q 739 539 754 538 Q 770 538 774 545 Q 778 554 765 565 Q 723 596 666 585 Q 605 575 516 562 L 478 557 Z" style="fill: #0070C0;"></path>
                                                                        <path d="M 272 479 Q 250 446 220 417 Q 198 392 208 357 Q 212 341 233 348 Q 278 372 287 423 Q 297 451 294 476 Q 290 483 285 486 Q 278 486 272 479 Z" style="fill: #0070C0;"></path>
                                                                        <path d="M 392 475 Q 420 430 438 427 Q 448 426 453 438 Q 454 448 450 463 Q 444 473 429 480 Q 407 492 397 494 Q 390 495 389 488 Q 388 482 392 475 Z" style="fill: #0070C0;"></path>
                                                                        <path d="M 487 491 Q 518 439 534 436 Q 543 433 550 446 Q 551 456 548 471 Q 539 490 493 510 Q 487 511 485 504 Q 484 498 487 491 Z" style="fill: #0070C0;"></path>
                                                                        <path d="M 646 486 Q 697 449 758 392 Q 774 376 787 373 Q 794 373 801 382 Q 810 395 796 432 Q 778 481 644 513 Q 635 517 635 506 Q 635 494 646 486 Z" style="fill: #0070C0;"></path>
                                                                        <path d="M 390 391 Q 417 352 438 350 Q 448 349 452 362 Q 453 372 446 387 Q 437 403 393 411 Q 386 412 386 404 Q 385 398 390 391 Z" style="fill: #0070C0;"></path>
                                                                        <path d="M 567 425 Q 560 410 534 377 Q 527 367 538 369 Q 553 375 593 395 Q 606 405 622 411 Q 635 417 629 429 Q 622 439 604 450 Q 589 460 581 458 Q 572 457 575 448 Q 576 436 567 425 Z" style="fill: #0070C0;"></path>
                                                                        <path d="M 505 308 Q 548 315 596 319 Q 639 326 645 331 Q 652 337 649 343 Q 645 353 623 360 Q 605 364 498 341 Q 393 329 352 327 Q 324 326 343 310 Q 370 291 432 300 Q 448 303 467 303 L 505 308 Z" style="fill: #0070C0;"></path>
                                                                        <path d="M 470 261 Q 409 254 355 246 Q 342 245 357 230 Q 369 220 397 222 Q 436 226 472 229 L 516 234 Q 576 241 627 245 Q 646 246 640 258 Q 633 271 612 276 Q 588 282 521 269 L 470 261 Z" style="fill: #0070C0;"></path>
                                                                        <path d="M 521 269 Q 521 270 522 270 Q 528 285 521 293 Q 514 302 505 308 C 481 326 461 332 467 303 Q 470 291 470 261 L 472 229 Q 472 211 474 186 C 476 156 512 161 513 191 Q 514 215 516 234 L 521 269 Z" style="fill: #0070C0;"></path>
                                                                        <path d="M 474 186 Q 363 176 235 163 Q 217 162 230 146 Q 242 134 257 129 Q 275 125 289 128 Q 368 147 458 155 L 493 158 Q 535 164 768 163 Q 786 163 790 170 Q 794 180 781 192 Q 736 228 704 220 Q 632 207 513 191 L 474 186 Z" style="fill: #0070C0;"></path>
                                                                        <path d="M 455 104 Q 388 100 314 92 Q 298 91 309 78 Q 331 56 360 61 Q 402 70 449 74 L 538 79 Q 590 83 665 78 Q 705 75 713 82 Q 717 91 705 102 Q 666 135 612 123 Q 573 119 519 110 L 455 104 Z" style="fill: #0070C0;"></path>
                                                                        <path d="M 458 155 Q 459 134 455 104 L 449 74 Q 422 4 355 -31 Q 327 -46 257 -58 Q 248 -58 244 -61 Q 240 -64 246 -69 Q 321 -93 411 -46 Q 420 -40 429 -34 Q 459 -12 480 22 Q 493 50 505 76 L 519 110 Q 520 111 521 113 Q 527 122 521 130 Q 508 149 493 158 C 469 176 458 184 458 155 Z" style="fill: #0070C0;"></path>
                                                                        <path d="M 505 76 Q 569 6 639 -59 Q 660 -78 694 -78 Q 755 -77 819 -61 Q 835 -58 836 -54 Q 837 -48 824 -44 Q 658 2 588 46 Q 572 55 557 66 Q 547 73 538 79 C 513 96 488 101 505 77 L 505 76 Z" style="fill: #0070C0;"></path>
                                    
                                    
                                                                                                                                                                                                                                                                                                                                                                                                                                                                                                                                                                                                                                                                                                                                                                                                                                                                                                                                                                                                                                                                                                                                                                                                                                                                                                                                                                                                                                                                                                                                                                                </g>
                            </svg>