<svg width='83' height='83' >
                                <g transform="translate(3, 70) scale(0.07, -0.07)">
                                    <!-- 先将完整的字以灰色字体绘制完成，层级位于下面 -->
                                                                        <path d="M 337 675 Q 362 736 374 749 Q 381 756 378 766 Q 375 776 361 786 Q 345 798 324 801 Q 302 805 291 801 Q 282 798 286 786 Q 314 710 203 523 Q 194 508 184 494 Q 147 440 52 332 Q 45 326 55 324 Q 118 342 224 475 Q 287 575 329 657 L 337 675 Z" style="fill: #0070C0;"></path>
                                                                        <path d="M 329 657 Q 333 650 351 638 Q 382 616 415 589 Q 425 580 438 581 Q 445 582 449 592 Q 452 604 444 627 Q 434 654 345 675 Q 341 676 337 675 C 317 673 317 673 329 657 Z" style="fill: #0070C0;"></path>
                                                                        <path d="M 292 465 Q 307 452 322 434 Q 334 424 348 424 Q 357 425 361 437 Q 365 450 357 475 Q 353 488 331 496 Q 280 511 268 507 Q 264 503 265 492 Q 269 482 292 465 Z" style="fill: #0070C0;"></path>
                                                                        <path d="M 309 168 Q 402 307 434 326 Q 452 335 443 350 Q 439 365 371 390 Q 352 397 331 386 Q 288 365 221 339 Q 205 332 160 330 Q 138 329 147 310 Q 156 298 174 289 Q 198 279 240 298 Q 316 352 340 337 Q 353 328 347 312 Q 322 251 293 177 C 282 149 292 143 309 168 Z" style="fill: #0070C0;"></path>
                                                                        <path d="M 293 177 Q 254 196 233 206 Q 226 212 222 201 Q 221 189 229 180 Q 266 138 309 80 Q 321 61 334 56 Q 341 55 349 62 Q 361 72 354 112 Q 348 146 309 168 L 293 177 Z" style="fill: #0070C0;"></path>
                                                                        <path d="M 557 128 Q 535 135 513 141 Q 497 148 496 140 Q 541 92 565 59 Q 575 41 590 37 Q 597 33 606 41 Q 643 92 645 132 Q 639 288 638 598 Q 638 631 648 646 Q 658 664 648 673 Q 629 689 596 702 Q 577 709 541 684 Q 478 665 473 662 Q 460 661 468 653 Q 477 643 490 640 Q 509 636 560 659 Q 575 666 581 659 Q 602 602 589 232 Q 582 138 576 129 Q 572 125 557 128 Z" style="fill: #0070C0;"></path>
                                                                        <path d="M 464 473 Q 509 428 524 428 Q 533 429 537 441 Q 541 454 533 479 Q 529 492 506 502 Q 454 520 440 515 Q 436 511 437 500 Q 440 490 464 473 Z" style="fill: #0070C0;"></path>
                                                                        <path d="M 396 245 Q 386 239 388 231 Q 391 221 401 217 Q 423 213 455 209 Q 464 210 470 221 Q 477 239 543 321 Q 552 333 557 343 Q 564 353 562 360 Q 556 363 548 357 Q 428 258 396 245 Z" style="fill: #0070C0;"></path>
                                                                        <path d="M 781 96 Q 760 100 740 105 Q 719 114 720 103 Q 766 52 791 15 Q 804 -6 820 -11 Q 830 -15 839 -5 Q 885 47 884 101 Q 874 285 874 583 Q 873 644 888 671 Q 901 692 888 702 Q 866 721 827 738 Q 808 745 792 738 Q 765 722 749 717 Q 724 708 671 701 Q 655 700 664 691 Q 673 679 688 673 Q 712 669 780 690 Q 802 694 807 684 Q 819 645 821 352 Q 818 118 804 97 Q 800 93 781 96 Z" style="fill: #0070C0;"></path>
                                                                        <path d="M 716 501 Q 761 456 776 456 Q 785 457 789 469 Q 793 482 785 507 Q 781 520 758 530 Q 706 548 692 543 Q 688 539 689 528 Q 692 518 716 501 Z" style="fill: #0070C0;"></path>
                                                                        <path d="M 657 286 Q 648 279 651 272 Q 655 262 664 260 Q 686 259 716 257 Q 723 258 729 270 Q 735 289 794 376 Q 801 388 806 400 Q 812 410 809 416 Q 802 417 723 339 Q 666 291 657 286 Z" style="fill: #0070C0;"></path>
                                    
                                    
                                                                                                                                                                                                                                                                                                                                                                                                                                                                                                                                                                                                                                                                                                                                                                                                                                                                                                                                                </g>
                            </svg>