<svg width='83' height='83' >
                                <g transform="translate(3, 70) scale(0.07, -0.07)">
                                    <!-- 先将完整的字以灰色字体绘制完成，层级位于下面 -->
                                                                        <path d="M 467 648 Q 765 699 777 709 Q 789 718 783 729 Q 776 744 739 755 Q 700 764 611 735 Q 443 693 299 685 Q 253 679 285 657 Q 333 627 420 641 L 467 648 Z" style="fill: #0070C0;"></path>
                                                                        <path d="M 380 439 Q 512 592 517 594 Q 536 610 521 626 Q 502 639 471 648 Q 470 649 467 648 C 437 653 413 657 420 641 Q 420 638 424 632 Q 436 605 386 503 Q 368 470 351 433 C 338 406 360 416 380 439 Z" style="fill: #0070C0;"></path>
                                                                        <path d="M 200 408 Q 196 412 191 413 Q 160 423 142 419 Q 129 413 137 402 Q 188 329 169 188 Q 148 149 184 103 Q 187 99 193 94 Q 202 82 211 89 Q 238 117 230 205 Q 217 322 214 363 C 212 393 211 402 200 408 Z" style="fill: #0070C0;"></path>
                                                                        <path d="M 567 423 Q 642 430 775 439 Q 793 440 799 431 Q 806 425 804 392 Q 800 253 777 176 Q 764 136 729 144 Q 702 148 678 151 Q 662 157 662 150 Q 661 143 672 128 Q 730 64 743 34 Q 750 19 760 20 Q 773 21 787 42 Q 812 75 824 115 Q 843 167 876 362 Q 882 396 895 415 Q 917 439 900 446 Q 884 465 840 487 Q 813 506 784 495 Q 748 485 656 475 Q 491 460 380 439 L 351 433 Q 272 418 200 408 C 170 404 185 355 214 363 Q 224 364 235 368 Q 269 380 327 388 L 364 394 Q 443 407 511 416 L 567 423 Z" style="fill: #0070C0;"></path>
                                                                        <path d="M 327 388 Q 346 328 347 227 Q 346 199 357 179 Q 372 152 380 168 Q 390 186 392 226 Q 396 335 399 357 Q 400 370 396 377 Q 387 384 364 394 C 337 406 319 414 327 388 Z" style="fill: #0070C0;"></path>
                                                                        <path d="M 524 138 Q 528 113 534 103 Q 538 96 547 98 Q 572 113 579 224 Q 582 317 597 382 Q 601 398 588 409 Q 576 418 567 423 C 541 439 500 444 511 416 Q 510 416 511 415 Q 520 400 522 354 Q 522 168 524 138 Z" style="fill: #0070C0;"></path>
                                    
                                    
                                                                                                                                                                                                                                                                                                                                                                                                                                                                                                                                                    </g>
                            </svg>