<svg width='83' height='83' >
                                <g transform="translate(3, 70) scale(0.07, -0.07)">
                                    <!-- 先将完整的字以灰色字体绘制完成，层级位于下面 -->
                                                                        <path d="M 426 700 Q 477 709 522 714 Q 532 713 541 726 Q 542 738 519 747 Q 486 771 425 748 Q 245 711 152 697 Q 124 693 146 676 Q 167 658 185 654 L 229 661 Q 299 679 388 693 L 426 700 Z" style="fill: #0070C0;"></path>
                                                                        <path d="M 185 654 Q 204 615 205 581 Q 206 547 207 243 C 207 213 250 226 250 256 Q 251 319 252 374 L 252 407 Q 253 456 254 502 L 255 536 Q 255 584 258 613 Q 265 637 229 661 C 205 679 173 681 185 654 Z" style="fill: #0070C0;"></path>
                                                                        <path d="M 444 164 Q 444 224 445 284 L 445 317 Q 446 441 446 575 Q 445 657 448 670 Q 451 682 442 689 Q 435 695 426 700 C 402 717 382 722 388 693 Q 403 659 395 300 L 395 263 Q 386 26 387 24 Q 393 0 407 -17 Q 420 -32 429 -14 Q 447 22 448 94 Q 445 118 445 149 L 444 164 Z" style="fill: #0070C0;"></path>
                                                                        <path d="M 254 502 Q 315 518 361 526 Q 383 533 374 545 Q 362 558 336 560 Q 299 563 255 536 C 229 521 225 494 254 502 Z" style="fill: #0070C0;"></path>
                                                                        <path d="M 252 374 Q 316 390 365 399 Q 387 405 378 416 Q 366 429 340 432 Q 301 435 252 407 C 226 392 223 367 252 374 Z" style="fill: #0070C0;"></path>
                                                                        <path d="M 445 284 Q 503 311 507 329 Q 501 335 487 332 Q 465 325 445 317 L 395 300 Q 323 279 250 256 L 207 243 Q 180 237 157 229 Q 133 222 95 223 Q 80 222 79 210 Q 76 197 86 187 Q 111 169 146 149 Q 158 146 170 155 Q 221 191 395 263 L 445 284 Z" style="fill: #0070C0;"></path>
                                                                        <path d="M 723 202 Q 727 322 731 434 L 732 467 Q 735 614 756 702 Q 759 714 737 730 Q 697 751 671 755 Q 653 758 644 748 Q 637 741 645 723 Q 676 678 677 647 Q 687 439 677 196 C 676 166 722 172 723 202 Z" style="fill: #0070C0;"></path>
                                                                        <path d="M 731 434 Q 758 431 840 450 Q 859 456 881 461 Q 899 465 901 469 Q 908 476 904 485 Q 897 495 867 500 Q 842 503 772 476 Q 751 472 732 467 C 703 460 701 436 731 434 Z" style="fill: #0070C0;"></path>
                                                                        <path d="M 604 186 Q 595 325 600 369 Q 601 391 587 404 Q 565 420 537 430 Q 524 434 514 428 Q 507 422 513 407 Q 532 376 541 341 Q 548 308 563 180 C 567 150 606 156 604 186 Z" style="fill: #0070C0;"></path>
                                                                        <path d="M 563 180 Q 448 168 444 164 C 430 161 430 161 445 149 Q 475 119 526 130 Q 658 166 897 164 Q 951 161 959 172 Q 965 184 948 198 Q 891 240 828 222 Q 783 215 723 202 L 677 196 Q 641 193 604 186 L 563 180 Z" style="fill: #0070C0;"></path>
                                    
                                    
                                                                                                                                                                                                                                                                                                                                                                                                                                                                                                                                                                                                                                                                                                                                                                                                                                                                    </g>
                            </svg>