<svg width='83' height='83' >
                                <g transform="translate(3, 70) scale(0.07, -0.07)">
                                    <!-- 先将完整的字以灰色字体绘制完成，层级位于下面 -->
                                                                        <path d="M 197 380 Q 198 395 202 410 Q 208 458 210 504 L 211 542 Q 211 692 216 702 C 218 721 218 721 196 732 Q 151 756 133 748 Q 123 739 131 727 Q 152 703 157 639 Q 157 627 158 612 Q 165 444 139 317 Q 111 203 48 82 Q 44 75 42 69 Q 41 59 51 62 Q 79 71 142 194 Q 155 224 167 256 Q 180 298 190 344 L 197 380 Z" style="fill: #0070C0;"></path>
                                                                        <path d="M 216 702 Q 222 703 292 724 Q 311 730 317 720 Q 330 684 335 392 Q 335 163 320 141 Q 316 135 298 139 Q 274 145 251 150 Q 232 157 232 147 Q 281 98 310 63 Q 323 44 339 39 Q 348 35 356 44 Q 398 92 397 147 Q 385 328 383 625 Q 380 683 394 709 Q 406 728 394 738 Q 372 757 335 771 Q 316 780 270 754 Q 240 742 196 732 C 167 725 187 694 216 702 Z" style="fill: #0070C0;"></path>
                                                                        <path d="M 210 504 Q 258 511 294 514 Q 319 518 309 532 Q 297 547 271 551 Q 247 552 211 542 C 182 534 180 500 210 504 Z" style="fill: #0070C0;"></path>
                                                                        <path d="M 190 344 Q 202 344 286 354 Q 311 358 301 372 Q 289 387 263 391 Q 238 392 197 380 C 168 372 160 343 190 344 Z" style="fill: #0070C0;"></path>
                                                                        <path d="M 631 559 Q 800 595 811 604 Q 821 613 816 623 Q 807 636 774 644 Q 747 648 629 612 Q 574 597 487 586 Q 445 579 475 560 Q 517 536 575 547 L 631 559 Z" style="fill: #0070C0;"></path>
                                                                        <path d="M 633 274 Q 657 452 676 516 Q 680 526 661 543 Q 645 553 631 559 C 604 572 564 575 575 547 Q 584 525 594 500 Q 597 392 589 268 C 587 238 629 244 633 274 Z" style="fill: #0070C0;"></path>
                                                                        <path d="M 589 268 Q 504 259 413 247 Q 391 246 407 227 Q 422 212 440 207 Q 462 201 479 206 Q 623 242 897 243 Q 913 243 929 242 Q 950 242 955 251 Q 961 263 944 277 Q 890 319 851 310 Q 778 294 654 277 Q 642 276 633 274 L 589 268 Z" style="fill: #0070C0;"></path>
                                    
                                    
                                                                                                                                                                                                                                                                                                                                                                                                                                                                                                                                                                                                                                </g>
                            </svg>