<svg width='83' height='83' >
                                <g transform="translate(3, 70) scale(0.07, -0.07)">
                                    <!-- 先将完整的字以灰色字体绘制完成，层级位于下面 -->
                                                                        <path d="M 234 437 Q 241 495 244 550 L 244 587 Q 245 600 245 612 Q 245 720 250 726 C 253 748 253 748 235 758 Q 222 768 200 774 Q 181 781 169 776 Q 159 769 166 756 Q 185 729 192 674 Q 192 451 176 364 Q 172 342 166 318 Q 136 212 64 70 Q 60 63 58 57 Q 57 47 67 50 Q 82 53 116 106 Q 194 211 228 398 L 234 437 Z" style="fill: #0070C0;"></path>
                                                                        <path d="M 250 726 Q 256 729 263 731 Q 291 741 321 751 Q 339 758 345 749 Q 358 713 356 428 Q 350 197 336 178 Q 332 172 311 177 Q 287 181 263 187 Q 244 193 244 183 Q 296 137 327 101 Q 340 82 356 77 Q 365 73 373 83 Q 415 131 414 186 Q 393 681 418 731 Q 418 734 420 735 Q 432 754 420 765 Q 398 783 362 797 Q 341 806 291 775 Q 252 763 235 758 C 206 749 222 716 250 726 Z" style="fill: #0070C0;"></path>
                                                                        <path d="M 244 550 Q 287 559 320 563 Q 344 569 334 580 Q 322 593 296 597 Q 275 598 244 587 C 216 577 215 544 244 550 Z" style="fill: #0070C0;"></path>
                                                                        <path d="M 228 398 Q 231 398 235 398 Q 281 405 316 411 Q 341 418 330 432 Q 317 447 288 448 Q 266 449 234 437 C 206 427 198 398 228 398 Z" style="fill: #0070C0;"></path>
                                                                        <path d="M 676 662 Q 737 675 802 686 Q 844 695 850 700 Q 860 709 855 718 Q 848 731 815 741 Q 788 747 695 720 Q 566 696 524 693 Q 482 687 512 668 Q 554 644 615 651 L 676 662 Z" style="fill: #0070C0;"></path>
                                                                        <path d="M 697 462 Q 785 474 943 475 Q 964 476 968 484 Q 972 496 956 510 Q 896 550 839 532 Q 781 522 698 503 L 642 494 Q 542 481 428 462 Q 407 461 423 443 Q 438 430 455 425 Q 477 419 493 425 Q 562 444 642 455 L 697 462 Z" style="fill: #0070C0;"></path>
                                                                        <path d="M 641 8 Q 645 -19 653 -29 Q 659 -36 667 -34 Q 682 -25 690 38 Q 699 119 697 199 Q 693 259 697 462 L 698 503 Q 698 567 710 620 Q 714 639 699 648 Q 686 657 676 662 C 650 677 602 678 615 651 Q 642 603 642 527 Q 642 512 642 494 L 642 455 Q 636 44 641 8 Z" style="fill: #0070C0;"></path>
                                    
                                    
                                                                                                                                                                                                                                                                                                                                                                                                                                                                                                                                                                                                                                </g>
                            </svg>