<svg width='83' height='83' >
                                <g transform="translate(3, 70) scale(0.07, -0.07)">
                                    <!-- 先将完整的字以灰色字体绘制完成，层级位于下面 -->
                                                                        <path d="M 220 389 Q 226 408 232 506 L 233 545 Q 234 563 234 580 Q 234 679 241 692 C 244 710 244 710 220 723 Q 207 732 188 738 Q 169 747 156 740 Q 146 733 153 719 Q 207 649 166 355 Q 160 330 155 303 Q 125 195 60 67 Q 56 60 54 54 Q 53 44 63 46 Q 99 58 163 189 Q 173 214 184 241 Q 202 293 214 353 L 220 389 Z" style="fill: #0070C0;"></path>
                                                                        <path d="M 241 692 Q 253 695 328 714 Q 347 718 353 709 Q 365 670 367 373 Q 364 145 351 121 Q 347 117 330 120 Q 302 132 271 144 Q 252 154 252 144 Q 307 83 336 42 Q 348 23 363 17 Q 372 13 381 22 Q 424 67 425 122 Q 416 309 417 613 Q 416 671 430 696 Q 443 715 430 726 Q 409 745 372 760 Q 354 767 304 743 Q 277 733 220 723 C 191 717 212 685 241 692 Z" style="fill: #0070C0;"></path>
                                                                        <path d="M 232 506 Q 283 519 321 525 Q 345 532 334 544 Q 321 557 294 560 Q 270 560 233 545 C 205 534 203 499 232 506 Z" style="fill: #0070C0;"></path>
                                                                        <path d="M 214 353 Q 275 363 319 369 Q 344 375 334 388 Q 321 403 295 406 Q 270 407 226 393 Q 222 392 220 389 C 198 369 184 348 214 353 Z" style="fill: #0070C0;"></path>
                                                                        <path d="M 562 686 Q 520 679 551 660 Q 596 635 662 653 Q 714 665 771 678 Q 796 684 800 688 Q 810 698 804 707 Q 795 720 762 727 Q 728 731 694 717 Q 666 707 636 699 Q 602 692 562 686 Z" style="fill: #0070C0;"></path>
                                                                        <path d="M 640 485 Q 688 501 885 508 Q 939 508 945 518 Q 949 530 933 542 Q 876 581 818 561 Q 614 521 459 494 Q 440 491 455 475 Q 468 462 486 458 Q 507 454 522 458 Q 550 467 581 473 L 640 485 Z" style="fill: #0070C0;"></path>
                                                                        <path d="M 561 290 Q 604 321 684 341 Q 721 351 744 345 Q 768 338 770 299 Q 763 199 715 119 Q 699 94 685 89 Q 669 83 597 105 Q 581 114 578 106 Q 578 99 590 87 Q 629 44 653 6 Q 663 -7 675 -7 Q 691 -8 712 5 Q 781 71 813 210 Q 832 318 840 328 Q 853 341 842 354 Q 824 370 784 388 Q 760 400 687 373 Q 686 373 628 361 Q 603 357 614 382 Q 639 437 650 449 Q 663 465 650 479 Q 646 483 640 485 C 621 508 580 503 581 473 Q 590 449 562 384 Q 555 369 530 349 Q 514 333 517 317 Q 518 302 536 288 Q 548 278 561 290 Z" style="fill: #0070C0;"></path>
                                    
                                    
                                                                                                                                                                                                                                                                                                                                                                                                                                                                                                                                                                                                                                </g>
                            </svg>