<svg width='83' height='83' >
                                <g transform="translate(3, 70) scale(0.07, -0.07)">
                                    <!-- 先将完整的字以灰色字体绘制完成，层级位于下面 -->
                                                                        <path d="M 217 376 Q 217 379 218 380 Q 225 432 229 485 L 231 521 Q 232 542 232 562 Q 232 637 238 669 C 241 691 241 691 222 702 Q 209 712 188 718 Q 169 727 157 721 Q 147 714 154 700 Q 170 679 178 627 Q 178 383 153 288 Q 126 192 56 54 Q 52 47 51 41 Q 50 31 59 34 Q 77 37 107 88 Q 179 181 211 345 L 217 376 Z" style="fill: #0070C0;"></path>
                                                                        <path d="M 238 669 Q 251 675 297 691 Q 316 698 322 688 Q 335 652 340 368 Q 341 140 326 113 Q 325 113 251 116 Q 230 120 233 111 Q 290 69 322 38 Q 335 19 352 15 Q 361 12 369 22 Q 408 73 404 127 Q 371 625 398 677 Q 410 696 397 706 Q 375 725 339 739 Q 320 746 305 738 Q 280 722 264 715 Q 248 709 222 702 C 193 694 210 658 238 669 Z" style="fill: #0070C0;"></path>
                                                                        <path d="M 229 485 Q 271 492 304 496 Q 326 500 317 513 Q 307 526 283 529 Q 262 530 231 521 C 202 513 199 480 229 485 Z" style="fill: #0070C0;"></path>
                                                                        <path d="M 211 345 Q 212 345 215 345 Q 269 355 309 360 Q 331 364 321 377 Q 311 390 286 393 Q 247 396 217 376 C 192 360 181 345 211 345 Z" style="fill: #0070C0;"></path>
                                                                        <path d="M 737 91 Q 721 70 705 73 Q 678 80 640 89 Q 624 93 623 90 Q 623 86 640 70 Q 674 36 692 -4 Q 702 -20 712 -24 Q 719 -27 739 -11 Q 796 35 834 110 Q 871 189 912 411 Q 918 438 931 450 Q 944 462 931 478 Q 915 494 884 512 Q 862 525 834 518 Q 806 509 778 504 Q 757 500 678 487 Q 596 475 581 472 Q 566 463 560 477 Q 560 490 644 613 Q 687 670 706 677 Q 719 684 719 689 Q 720 698 713 703 Q 689 725 660 735 Q 644 744 565 716 Q 483 698 463 697 Q 447 697 444 692 Q 441 686 447 678 Q 454 666 471 658 Q 484 649 530 659 Q 626 692 629 680 Q 629 656 548 533 Q 485 455 488 440 Q 488 430 494 420 Q 497 410 526 421 Q 536 425 551 428 L 583 435 Q 622 447 679 456 L 722 463 Q 786 473 820 473 Q 844 473 847 462 Q 865 372 799 196 Q 760 118 742 96 Q 739 95 737 91 Z" style="fill: #0070C0;"></path>
                                                                        <path d="M 551 428 Q 551 427 553 422 Q 562 365 439 218 Q 432 215 428 203 Q 428 199 433 199 Q 499 212 587 347 Q 593 359 611 381 Q 617 391 611 403 Q 598 425 584 435 L 583 435 C 559 452 543 457 551 428 Z" style="fill: #0070C0;"></path>
                                                                        <path d="M 679 456 Q 679 455 680 452 Q 699 373 590 208 Q 542 145 460 55 Q 453 49 463 48 Q 509 55 612 170 Q 684 273 745 395 Q 752 411 759 417 Q 765 423 762 432 Q 761 441 747 451 Q 735 460 722 463 C 694 473 674 481 679 456 Z" style="fill: #0070C0;"></path>
                                    
                                    
                                                                                                                                                                                                                                                                                                                                                                                                                                                                                                                                                                                                                                </g>
                            </svg>