<svg width='83' height='83' >
                                <g transform="translate(3, 70) scale(0.07, -0.07)">
                                    <!-- 先将完整的字以灰色字体绘制完成，层级位于下面 -->
                                                                        <path d="M 218 392 Q 225 425 231 519 L 232 556 Q 233 574 233 591 Q 233 693 239 705 C 242 723 242 723 224 733 Q 211 743 188 750 Q 169 757 157 752 Q 147 745 154 732 Q 172 711 179 656 Q 179 440 168 367 Q 162 336 155 304 Q 131 213 56 62 Q 52 55 50 49 Q 49 39 59 42 Q 75 45 107 97 Q 179 190 212 359 L 218 392 Z" style="fill: #0070C0;"></path>
                                                                        <path d="M 239 705 Q 263 709 323 726 Q 342 732 347 722 Q 362 677 360 388 Q 357 156 342 133 Q 338 127 319 132 Q 294 139 266 146 Q 247 153 248 144 Q 302 95 332 59 Q 345 41 359 36 Q 368 33 376 42 Q 416 88 415 139 Q 406 326 408 631 Q 407 686 420 710 Q 432 729 420 738 Q 399 756 365 770 Q 347 777 333 770 Q 305 754 286 747 Q 265 740 224 733 C 195 727 210 699 239 705 Z" style="fill: #0070C0;"></path>
                                                                        <path d="M 231 519 Q 279 529 316 535 Q 340 541 330 552 Q 318 565 292 569 Q 268 570 232 556 C 204 545 202 513 231 519 Z" style="fill: #0070C0;"></path>
                                                                        <path d="M 212 359 Q 270 365 314 368 Q 338 372 329 384 Q 319 399 293 404 Q 265 407 218 392 C 189 383 182 356 212 359 Z" style="fill: #0070C0;"></path>
                                                                        <path d="M 796 515 Q 827 609 863 637 Q 881 656 865 676 Q 780 736 725 704 Q 638 668 516 646 C 487 641 499 606 529 611 Q 542 612 560 619 Q 587 626 617 632 L 655 641 Q 691 651 732 660 Q 754 667 763 658 Q 773 648 769 627 Q 756 564 740 515 C 731 486 786 487 796 515 Z" style="fill: #0070C0;"></path>
                                                                        <path d="M 617 632 Q 618 620 618 480 C 618 450 653 461 657 491 Q 669 591 673 599 Q 682 618 655 641 C 633 661 616 662 617 632 Z" style="fill: #0070C0;"></path>
                                                                        <path d="M 511 432 Q 523 423 575 433 Q 656 455 813 479 Q 823 480 825 490 Q 825 499 796 515 C 777 526 769 524 740 515 Q 697 502 657 491 L 618 480 Q 563 467 514 458 Q 511 458 512 457 C 483 450 483 442 511 432 Z" style="fill: #0070C0;"></path>
                                                                        <path d="M 968 199 Q 955 229 940 319 Q 941 337 933 342 Q 927 346 921 327 Q 887 231 866 203 Q 850 181 799 166 Q 684 135 584 171 Q 545 189 534 212 Q 501 275 511 432 L 512 457 Q 516 530 529 611 C 533 636 533 636 516 646 Q 504 656 486 663 Q 473 667 465 661 Q 458 657 464 640 Q 477 601 475 565 Q 462 273 487 192 Q 494 162 522 137 Q 615 65 812 95 Q 836 99 860 106 Q 911 121 960 156 Q 981 172 968 199 Z" style="fill: #0070C0;"></path>
                                    
                                    
                                                                                                                                                                                                                                                                                                                                                                                                                                                                                                                                                                                                                                                                                                            </g>
                            </svg>