<svg width='83' height='83' >
                                <g transform="translate(3, 70) scale(0.07, -0.07)">
                                    <!-- 先将完整的字以灰色字体绘制完成，层级位于下面 -->
                                                                        <path d="M 494 804 Q 521 786 550 763 Q 566 750 585 754 Q 597 755 600 772 Q 604 790 589 822 Q 573 849 480 858 Q 462 859 456 856 Q 450 850 454 836 Q 460 824 494 804 Z" style="fill: #0070C0;"></path>
                                                                        <path d="M 694 581 Q 725 639 753 651 Q 771 670 757 689 Q 741 704 687 732 Q 668 741 645 733 Q 543 691 383 669 C 353 665 373 629 402 635 Q 642 686 652 680 Q 653 679 657 676 Q 664 669 661 656 Q 651 616 638 584 C 627 556 679 555 694 581 Z" style="fill: #0070C0;"></path>
                                                                        <path d="M 366 506 Q 372 500 395 503 Q 494 525 707 546 Q 717 547 719 556 Q 719 563 694 581 C 678 593 667 591 638 584 Q 490 550 372 535 C 342 531 338 516 366 506 Z" style="fill: #0070C0;"></path>
                                                                        <path d="M 383 669 Q 338 705 322 699 Q 309 692 314 677 Q 330 646 321 577 Q 279 366 245 277 Q 233 250 221 223 Q 172 124 62 -13 Q 56 -19 53 -25 Q 49 -37 61 -35 Q 91 -35 186 78 Q 211 111 236 149 Q 323 299 366 506 L 372 535 Q 378 560 384 583 Q 388 604 396 622 Q 400 629 402 635 C 409 650 407 651 383 669 Z" style="fill: #0070C0;"></path>
                                                                        <path d="M 449 187 Q 452 230 456 263 L 458 288 Q 464 384 470 393 C 474 408 474 408 461 419 Q 437 443 404 443 Q 391 439 395 426 Q 441 318 385 116 Q 360 50 360 49 Q 354 28 374 -8 Q 375 -9 378 -13 Q 385 -28 396 -22 Q 435 0 445 126 Q 446 145 447 163 L 449 187 Z" style="fill: #0070C0;"></path>
                                                                        <path d="M 470 393 Q 486 392 513 398 Q 643 423 663 414 Q 679 405 678 372 Q 696 203 690 72 Q 689 45 674 40 Q 661 36 595 50 Q 582 54 582 44 Q 583 35 601 24 Q 643 -10 675 -48 Q 694 -67 712 -65 Q 728 -61 749 -12 Q 774 37 769 89 Q 759 210 748 321 Q 744 364 762 400 Q 775 418 759 434 Q 740 452 695 467 Q 671 479 651 465 Q 632 458 598 448 Q 501 426 461 419 C 432 413 440 391 470 393 Z" style="fill: #0070C0;"></path>
                                                                        <path d="M 456 263 Q 463 262 474 264 Q 565 282 632 293 Q 654 297 645 309 Q 635 322 611 326 Q 584 329 458 288 C 429 279 426 264 456 263 Z" style="fill: #0070C0;"></path>
                                                                        <path d="M 447 163 Q 457 160 472 162 Q 568 175 638 184 Q 660 187 653 200 Q 643 215 617 220 Q 595 224 449 187 C 420 180 418 169 447 163 Z" style="fill: #0070C0;"></path>
                                    
                                    
                                                                                                                                                                                                                                                                                                                                                                                                                                                                                                                                                                                                                                                                                                            </g>
                            </svg>