<svg width='83' height='83' >
                                <g transform="translate(3, 70) scale(0.07, -0.07)">
                                    <!-- 先将完整的字以灰色字体绘制完成，层级位于下面 -->
                                                                        <path d="M 219 385 Q 226 440 228 493 L 229 533 Q 229 641 235 674 C 238 696 238 696 219 706 Q 206 716 184 722 Q 165 729 153 724 Q 143 717 150 704 Q 171 680 176 613 Q 176 601 177 586 Q 184 418 155 287 Q 127 179 60 50 Q 56 43 54 37 Q 53 27 63 30 Q 78 33 110 85 Q 179 176 212 345 L 219 385 Z" style="fill: #0070C0;"></path>
                                                                        <path d="M 235 674 Q 250 680 301 698 Q 319 705 325 696 Q 338 660 343 368 Q 343 140 327 113 Q 323 107 302 112 Q 275 116 247 123 Q 228 129 229 119 Q 287 73 320 36 Q 333 17 349 13 Q 359 9 367 19 Q 406 70 405 123 Q 390 349 390 630 Q 390 666 401 684 Q 413 703 400 714 Q 378 732 342 746 Q 323 753 281 728 Q 256 716 219 706 C 190 697 207 663 235 674 Z" style="fill: #0070C0;"></path>
                                                                        <path d="M 228 493 Q 268 502 300 505 Q 324 512 314 524 Q 301 539 274 541 Q 255 542 229 533 C 201 523 199 486 228 493 Z" style="fill: #0070C0;"></path>
                                                                        <path d="M 212 345 Q 261 354 299 358 Q 324 362 314 376 Q 301 391 275 394 Q 253 395 219 385 C 190 377 182 340 212 345 Z" style="fill: #0070C0;"></path>
                                                                        <path d="M 582 748 Q 613 726 646 701 Q 662 689 678 692 Q 688 693 693 708 Q 696 724 683 754 Q 668 785 570 797 Q 554 798 548 795 Q 544 791 546 777 Q 550 767 582 748 Z" style="fill: #0070C0;"></path>
                                                                        <path d="M 450 576 Q 411 569 439 551 Q 481 524 544 540 Q 670 567 799 595 Q 857 610 867 617 Q 877 626 871 635 Q 864 648 832 656 Q 796 662 722 633 Q 572 591 450 576 Z" style="fill: #0070C0;"></path>
                                                                        <path d="M 561 435 Q 528 451 518 449 Q 500 448 514 428 Q 539 380 516 247 Q 509 223 498 193 Q 485 157 431 103 Q 418 93 416 87 Q 415 80 424 81 Q 454 81 500 126 Q 566 192 578 377 Q 581 392 584 406 C 588 423 588 423 561 435 Z" style="fill: #0070C0;"></path>
                                                                        <path d="M 584 406 Q 606 406 646 424 Q 670 431 677 423 Q 684 416 679 392 Q 658 185 709 109 Q 748 49 815 38 Q 837 35 866 35 Q 915 36 957 55 Q 984 73 968 102 Q 934 168 923 243 Q 919 252 912 252 Q 908 252 902 236 Q 892 143 880 121 Q 864 102 803 106 Q 784 107 774 118 Q 741 140 727 197 Q 705 276 732 359 Q 741 395 762 416 Q 795 443 714 474 Q 687 484 671 473 Q 643 455 561 435 C 532 428 554 401 584 406 Z" style="fill: #0070C0;"></path>
                                    
                                    
                                                                                                                                                                                                                                                                                                                                                                                                                                                                                                                                                                                                                                                                                                            </g>
                            </svg>