<svg width='83' height='83' >
                                <g transform="translate(3, 70) scale(0.07, -0.07)">
                                    <!-- 先将完整的字以灰色字体绘制完成，层级位于下面 -->
                                                                        <path d="M 553 731 Q 628 798 630 800 Q 631 810 623 823 Q 599 860 570 860 Q 561 861 561 849 Q 558 810 495 747 L 463 718 Q 412 676 288 610 Q 279 607 288 603 Q 348 594 475 671 Q 479 675 510 697 L 553 731 Z" style="fill: #0070C0;"></path>
                                                                        <path d="M 510 697 Q 580 666 658 626 Q 674 616 687 616 Q 693 617 696 626 Q 702 639 681 667 Q 663 700 553 731 L 495 747 Q 413 771 365 779 Q 358 780 359 771 Q 362 761 372 756 Q 415 740 463 718 L 510 697 Z" style="fill: #0070C0;"></path>
                                                                        <path d="M 455 505 Q 608 532 859 531 Q 881 531 888 540 Q 892 552 876 566 Q 822 603 786 595 Q 677 570 491 541 Q 470 538 449 534 L 382 524 Q 261 508 128 490 Q 107 489 123 471 Q 154 443 193 452 Q 275 477 366 491 L 455 505 Z" style="fill: #0070C0;"></path>
                                                                        <path d="M 379 416 Q 398 446 415 474 L 449 534 Q 465 565 479 581 Q 488 594 484 603 Q 478 615 452 618 Q 424 624 412 619 Q 405 616 404 603 Q 401 570 382 524 L 366 491 Q 338 436 292 370 Q 247 306 99 153 Q 81 135 107 143 Q 209 179 362 391 L 379 416 Z" style="fill: #0070C0;"></path>
                                                                        <path d="M 412 178 Q 415 224 419 257 L 421 285 Q 425 343 429 364 C 432 387 432 387 422 395 Q 407 410 379 416 C 351 424 353 419 362 391 Q 402 282 348 91 Q 314 22 347 -22 Q 354 -35 364 -30 Q 400 -9 409 114 Q 410 135 411 153 L 412 178 Z" style="fill: #0070C0;"></path>
                                                                        <path d="M 429 364 Q 444 364 605 400 Q 624 407 631 396 Q 635 384 637 365 Q 647 187 641 78 Q 640 50 631 37 Q 627 31 606 36 Q 581 40 556 46 Q 535 53 536 43 Q 591 -6 621 -44 Q 634 -63 651 -69 Q 661 -73 670 -63 Q 713 -14 712 45 Q 685 336 711 382 Q 724 403 711 413 Q 689 432 650 449 Q 631 456 615 449 Q 537 407 422 395 C 392 391 399 360 429 364 Z" style="fill: #0070C0;"></path>
                                                                        <path d="M 419 257 Q 438 251 560 268 Q 579 271 582 273 Q 589 280 586 286 Q 580 296 557 303 Q 545 306 464 290 Q 443 287 421 285 C 391 282 390 263 419 257 Z" style="fill: #0070C0;"></path>
                                                                        <path d="M 411 153 Q 432 144 518 156 Q 540 160 566 163 Q 587 167 590 169 Q 597 176 594 182 Q 588 192 565 199 Q 553 202 471 185 Q 441 181 412 178 C 382 175 382 162 411 153 Z" style="fill: #0070C0;"></path>
                                    
                                    
                                                                                                                                                                                                                                                                                                                                                                                                                                                                                                                                                                                                                                                                                                            </g>
                            </svg>