<svg width='83' height='83' >
                                <g transform="translate(3, 70) scale(0.07, -0.07)">
                                    <!-- 先将完整的字以灰色字体绘制完成，层级位于下面 -->
                                                                        <path d="M 224 377 Q 231 437 235 494 L 236 529 Q 237 547 237 563 Q 237 665 243 677 C 246 695 246 695 227 706 Q 214 716 192 722 Q 173 729 161 724 Q 151 717 158 704 Q 176 683 183 628 Q 183 412 172 339 Q 166 308 159 276 Q 135 185 60 34 Q 56 27 54 21 Q 53 11 63 14 Q 79 17 111 69 Q 183 165 217 338 L 224 377 Z" style="fill: #0070C0;"></path>
                                                                        <path d="M 243 677 Q 247 678 255 680 Q 283 687 311 695 Q 330 699 336 689 Q 348 656 353 362 Q 350 130 337 110 Q 333 107 259 119 Q 240 125 241 115 Q 298 72 330 37 Q 343 19 358 15 Q 367 11 375 21 Q 411 69 410 120 Q 388 519 398 639 Q 401 664 409 679 Q 421 697 409 707 Q 388 725 354 739 Q 336 746 321 739 Q 284 718 227 706 C 198 699 214 670 243 677 Z" style="fill: #0070C0;"></path>
                                                                        <path d="M 235 494 Q 278 504 314 512 Q 336 518 326 529 Q 314 542 290 543 Q 268 543 236 529 C 208 517 206 487 235 494 Z" style="fill: #0070C0;"></path>
                                                                        <path d="M 217 338 Q 269 348 312 355 Q 334 359 326 372 Q 314 387 288 389 Q 264 390 224 377 C 195 368 188 332 217 338 Z" style="fill: #0070C0;"></path>
                                                                        <path d="M 482 571 Q 463 581 444 586 Q 437 589 432 583 Q 425 577 434 567 Q 474 503 485 348 Q 486 285 524 260 Q 525 260 527 259 Q 545 255 545 284 L 543 311 Q 542 330 534 353 Q 519 479 514 538 C 512 556 509 558 482 571 Z" style="fill: #0070C0;"></path>
                                                                        <path d="M 757 308 Q 776 281 793 273 Q 803 264 820 287 Q 839 320 872 493 Q 881 527 906 555 Q 919 568 908 583 Q 890 602 844 630 Q 826 639 730 617 Q 717 617 679 607 L 627 598 Q 608 595 588 591 Q 527 578 482 571 C 452 566 485 530 514 538 Q 560 551 626 562 L 678 571 Q 784 595 803 577 Q 819 558 816 538 Q 785 351 765 338 C 751 315 751 315 757 308 Z" style="fill: #0070C0;"></path>
                                                                        <path d="M 676 433 Q 709 440 739 443 Q 761 447 753 460 Q 743 475 717 479 Q 701 482 677 475 L 626 461 Q 589 451 559 441 Q 543 437 563 423 Q 572 416 589 419 Q 608 423 626 425 L 676 433 Z" style="fill: #0070C0;"></path>
                                                                        <path d="M 676 299 Q 718 306 757 308 C 787 310 791 324 765 338 Q 735 357 676 338 L 625 327 Q 582 320 543 311 C 514 304 515 282 545 284 Q 557 284 624 293 L 676 299 Z" style="fill: #0070C0;"></path>
                                                                        <path d="M 624 293 Q 618 -23 636 -53 Q 651 -68 659 -47 Q 677 -5 676 299 L 676 338 Q 676 339 676 340 Q 676 389 676 433 L 677 475 Q 677 527 678 571 L 679 607 Q 682 730 703 763 Q 710 778 690 793 Q 666 812 624 823 Q 606 827 594 814 Q 584 807 596 795 Q 626 770 628 734 Q 628 680 627 598 L 626 562 Q 626 516 626 461 L 626 425 Q 626 377 625 327 L 624 293 Z" style="fill: #0070C0;"></path>
                                    
                                    
                                                                                                                                                                                                                                                                                                                                                                                                                                                                                                                                                                                                                                                                                                                                                                                        </g>
                            </svg>