<svg width='83' height='83' >
                                <g transform="translate(3, 70) scale(0.07, -0.07)">
                                    <!-- 先将完整的字以灰色字体绘制完成，层级位于下面 -->
                                                                        <path d="M 274 789 Q 253 801 231 805 Q 224 806 219 801 Q 212 794 221 784 Q 261 727 279 581 Q 283 547 302 517 Q 315 495 327 491 Q 345 487 345 516 L 342 544 Q 338 566 331 589 Q 327 619 318 658 Q 311 710 306 752 C 303 774 301 775 274 789 Z" style="fill: #0070C0;"></path>
                                                                        <path d="M 729 526 Q 745 551 782 688 Q 794 722 821 747 Q 836 760 824 776 Q 808 795 763 826 Q 748 835 664 823 Q 646 823 435 803 Q 345 793 274 789 C 244 787 277 746 306 752 Q 378 767 482 776 L 517 779 Q 578 786 655 789 Q 704 793 718 775 Q 731 759 727 743 Q 697 601 680 582 C 666 555 665 552 671 544 Q 684 522 700 513 Q 712 503 729 526 Z" style="fill: #0070C0;"></path>
                                                                        <path d="M 537 653 Q 651 671 653 673 Q 660 679 658 686 Q 652 696 630 704 Q 605 711 540 692 L 494 683 Q 451 679 401 677 Q 371 674 391 659 Q 410 647 482 646 Q 486 647 494 647 L 537 653 Z" style="fill: #0070C0;"></path>
                                                                        <path d="M 532 569 Q 533 615 537 653 L 540 692 Q 540 719 543 734 Q 550 758 517 779 C 492 796 472 804 482 776 L 483 774 Q 492 747 494 688 Q 494 687 494 683 L 494 647 Q 494 613 494 563 C 494 533 531 539 532 569 Z" style="fill: #0070C0;"></path>
                                                                        <path d="M 345 516 Q 360 513 381 515 Q 544 534 671 544 C 701 546 710 578 680 582 Q 661 588 532 569 L 494 563 Q 415 554 342 544 C 312 540 315 520 345 516 Z" style="fill: #0070C0;"></path>
                                                                        <path d="M 371 199 Q 375 253 380 291 L 382 315 Q 388 381 393 408 C 396 427 396 427 387 436 Q 366 463 328 463 Q 315 459 319 447 Q 367 330 304 126 Q 277 71 281 55 Q 282 25 298 3 Q 305 -12 316 -6 Q 353 15 366 143 Q 367 159 368 173 L 371 199 Z" style="fill: #0070C0;"></path>
                                                                        <path d="M 393 408 Q 405 409 417 412 Q 600 446 628 433 Q 641 427 644 398 Q 660 211 652 63 Q 651 33 633 27 Q 620 26 554 56 Q 542 60 542 53 Q 542 44 556 33 Q 598 -6 628 -46 Q 646 -65 665 -65 Q 683 -61 704 -9 Q 731 43 725 96 Q 715 223 704 339 Q 700 385 718 422 Q 730 438 716 453 Q 697 469 658 484 Q 640 493 582 471 Q 458 447 387 436 C 357 431 363 403 393 408 Z" style="fill: #0070C0;"></path>
                                                                        <path d="M 380 291 Q 389 288 403 290 Q 494 303 562 312 Q 586 316 577 328 Q 567 343 541 348 Q 514 352 382 315 C 353 307 351 297 380 291 Z" style="fill: #0070C0;"></path>
                                                                        <path d="M 368 173 Q 378 172 390 173 Q 490 186 565 192 Q 589 195 581 208 Q 571 224 546 229 Q 519 233 371 199 C 342 192 338 175 368 173 Z" style="fill: #0070C0;"></path>
                                    
                                    
                                                                                                                                                                                                                                                                                                                                                                                                                                                                                                                                                                                                                                                                                                                                                                                        </g>
                            </svg>