<svg width='83' height='83' >
                                <g transform="translate(3, 70) scale(0.07, -0.07)">
                                    <!-- 先将完整的字以灰色字体绘制完成，层级位于下面 -->
                                                                        <path d="M 220 339 Q 227 381 233 459 L 235 493 Q 236 515 236 538 Q 236 634 243 649 C 246 667 246 667 228 677 Q 215 687 192 694 Q 173 703 161 697 Q 151 690 158 676 Q 179 648 181 615 Q 181 408 174 351 Q 167 305 157 261 Q 130 162 60 26 Q 56 19 55 13 Q 54 3 63 6 Q 81 9 111 60 Q 180 150 213 307 L 220 339 Z" style="fill: #0070C0;"></path>
                                                                        <path d="M 243 649 Q 277 659 312 669 Q 331 675 336 665 Q 358 605 352 220 Q 349 120 340 106 Q 336 100 316 105 Q 285 112 255 119 Q 236 125 237 115 Q 298 69 334 33 Q 347 15 362 11 Q 371 8 379 17 Q 415 65 414 116 Q 402 291 398 575 Q 397 630 409 654 Q 419 673 408 683 Q 387 699 353 714 Q 335 721 288 696 Q 261 686 228 677 C 199 669 214 641 243 649 Z" style="fill: #0070C0;"></path>
                                                                        <path d="M 233 459 Q 276 469 310 476 Q 332 482 322 493 Q 310 506 286 506 Q 265 506 235 493 C 207 481 204 452 233 459 Z" style="fill: #0070C0;"></path>
                                                                        <path d="M 213 307 Q 214 307 306 322 Q 328 329 318 341 Q 305 354 280 355 Q 256 355 220 339 C 193 327 183 303 213 307 Z" style="fill: #0070C0;"></path>
                                                                        <path d="M 541 599 Q 583 647 628 718 Q 647 751 664 767 Q 673 777 668 792 Q 664 805 634 827 Q 606 846 587 845 Q 568 842 577 820 Q 587 798 581 779 Q 559 715 522 652 Q 488 594 438 527 Q 428 517 426 511 Q 423 499 437 502 Q 462 508 525 580 L 541 599 Z" style="fill: #0070C0;"></path>
                                                                        <path d="M 525 580 Q 555 561 592 569 Q 752 614 759 599 Q 772 583 767 541 Q 760 423 735 370 Q 723 345 701 346 Q 688 350 674 355 Q 652 365 665 341 Q 695 298 707 268 Q 729 249 746 268 Q 776 292 794 334 Q 816 383 823 528 Q 824 579 841 605 Q 851 618 846 628 Q 837 638 787 657 Q 768 664 750 651 Q 734 641 665 623 Q 598 605 541 599 C 511 595 498 593 525 580 Z" style="fill: #0070C0;"></path>
                                                                        <path d="M 625 319 Q 646 401 670 425 Q 689 449 668 462 Q 650 472 625 487 Q 607 497 590 486 Q 572 473 548 463 Q 527 454 502 446 C 473 437 488 407 515 420 Q 530 429 580 438 Q 596 442 600 436 Q 607 430 598 399 Q 591 365 579 326 C 570 297 617 290 625 319 Z" style="fill: #0070C0;"></path>
                                                                        <path d="M 496 279 Q 499 279 501 278 Q 510 275 521 278 Q 555 287 630 293 Q 640 294 640 302 Q 640 309 625 319 L 579 326 Q 575 326 573 325 Q 531 313 498 304 C 469 296 467 285 496 279 Z" style="fill: #0070C0;"></path>
                                                                        <path d="M 947 109 Q 932 136 910 217 Q 909 233 901 238 Q 894 241 891 223 Q 867 135 850 106 Q 832 84 780 71 Q 725 56 659 59 Q 602 60 558 79 Q 519 97 509 121 Q 487 169 496 279 L 498 304 Q 502 358 514 417 Q 514 418 515 420 C 518 436 518 436 502 446 Q 492 456 475 462 Q 465 466 456 462 Q 450 458 455 442 Q 465 408 463 373 Q 448 162 466 104 Q 470 74 498 50 Q 598 -28 815 10 Q 825 13 839 16 Q 891 31 942 65 Q 961 81 947 109 Z" style="fill: #0070C0;"></path>
                                    
                                    
                                                                                                                                                                                                                                                                                                                                                                                                                                                                                                                                                                                                                                                                                                                                                                                        </g>
                            </svg>