<svg width='83' height='83' >
                                <g transform="translate(3, 70) scale(0.07, -0.07)">
                                    <!-- 先将完整的字以灰色字体绘制完成，层级位于下面 -->
                                                                        <path d="M 227 390 Q 227 391 228 393 Q 234 448 235 504 L 236 542 Q 236 662 238 688 C 239 713 239 713 226 720 Q 211 730 188 737 Q 169 746 157 739 Q 147 732 155 719 Q 173 695 181 644 Q 181 625 184 600 Q 193 423 164 296 Q 137 187 71 54 Q 67 47 66 41 Q 65 31 75 34 Q 105 43 164 160 Q 179 194 193 234 Q 209 289 221 350 L 227 390 Z" style="fill: #0070C0;"></path>
                                                                        <path d="M 238 688 Q 253 691 304 706 Q 323 710 329 700 Q 344 660 345 370 Q 342 133 327 112 Q 323 105 301 111 Q 270 117 239 123 Q 220 129 221 119 Q 285 70 321 35 Q 334 16 350 12 Q 359 8 367 18 Q 406 69 405 123 Q 395 307 394 605 Q 393 663 407 689 Q 419 708 407 719 Q 385 738 348 752 Q 327 761 281 735 Q 245 723 226 720 C 197 713 209 681 238 688 Z" style="fill: #0070C0;"></path>
                                                                        <path d="M 235 504 Q 275 511 305 517 Q 329 524 318 536 Q 305 549 278 551 Q 259 551 236 542 C 208 531 205 499 235 504 Z" style="fill: #0070C0;"></path>
                                                                        <path d="M 221 350 Q 267 359 304 365 Q 329 372 318 384 Q 305 397 278 400 Q 257 401 227 390 C 199 380 192 344 221 350 Z" style="fill: #0070C0;"></path>
                                                                        <path d="M 675 547 Q 708 581 741 621 Q 763 649 800 678 Q 816 688 811 699 Q 810 709 746 736 Q 728 745 681 724 Q 587 699 500 691 Q 479 690 493 673 Q 514 655 597 667 Q 681 682 688 674 Q 692 667 678 647 Q 615 535 455 414 Q 439 402 454 401 Q 464 401 513 423 Q 549 439 589 469 Q 623 496 658 530 L 675 547 Z" style="fill: #0070C0;"></path>
                                                                        <path d="M 658 530 Q 661 526 667 520 Q 731 475 810 408 Q 828 392 842 389 Q 851 388 857 399 Q 867 412 850 452 Q 832 506 675 547 C 646 555 638 553 658 530 Z" style="fill: #0070C0;"></path>
                                                                        <path d="M 660 297 Q 801 327 807 331 Q 816 338 811 348 Q 804 360 774 368 Q 743 374 713 362 Q 671 349 626 337 Q 577 327 518 322 Q 481 315 507 298 Q 549 274 610 288 Q 611 288 616 288 L 660 297 Z" style="fill: #0070C0;"></path>
                                                                        <path d="M 662 106 Q 674 232 679 251 Q 689 272 660 297 C 638 317 609 317 616 288 L 617 287 Q 620 275 615 101 C 614 71 659 76 662 106 Z" style="fill: #0070C0;"></path>
                                                                        <path d="M 615 101 Q 534 95 442 86 Q 420 85 435 67 Q 450 51 468 45 Q 490 39 506 43 Q 686 79 903 59 Q 924 58 929 67 Q 936 79 919 94 Q 862 139 801 125 Q 744 118 662 106 L 615 101 Z" style="fill: #0070C0;"></path>
                                    
                                    
                                                                                                                                                                                                                                                                                                                                                                                                                                                                                                                                                                                                                                                                                                                                                                                        </g>
                            </svg>