<svg width='83' height='83' >
                                <g transform="translate(3, 70) scale(0.07, -0.07)">
                                    <!-- 先将完整的字以灰色字体绘制完成，层级位于下面 -->
                                                                        <path d="M 211 364 Q 220 422 226 490 L 227 521 Q 227 620 231 668 C 233 691 233 691 220 698 Q 207 708 185 714 Q 167 721 157 716 Q 147 709 154 697 Q 172 679 178 604 Q 178 399 157 306 Q 133 213 68 84 Q 64 78 63 72 Q 62 62 70 66 Q 82 67 114 117 Q 174 198 206 338 L 211 364 Z" style="fill: #0070C0;"></path>
                                                                        <path d="M 231 668 Q 240 671 299 687 Q 318 691 323 681 Q 330 662 333 632 Q 346 341 334 165 Q 333 137 324 124 Q 320 118 299 123 Q 271 127 243 132 Q 224 136 225 127 Q 285 84 319 52 Q 332 34 347 30 Q 356 27 364 36 Q 401 90 398 136 Q 376 512 386 630 Q 389 657 397 670 Q 409 689 397 699 Q 376 717 342 731 Q 324 738 309 731 Q 276 710 220 698 C 191 691 202 660 231 668 Z" style="fill: #0070C0;"></path>
                                                                        <path d="M 226 490 Q 272 499 306 505 Q 327 511 318 521 Q 308 533 284 535 Q 263 536 228 522 Q 227 522 227 521 C 201 505 197 484 226 490 Z" style="fill: #0070C0;"></path>
                                                                        <path d="M 206 338 Q 209 338 214 338 Q 266 348 305 354 Q 326 358 317 369 Q 307 382 284 384 Q 248 387 211 364 C 185 348 176 338 206 338 Z" style="fill: #0070C0;"></path>
                                                                        <path d="M 596 762 Q 626 740 658 712 Q 671 700 687 702 Q 697 703 701 716 Q 705 731 694 759 Q 682 790 589 807 Q 573 810 568 807 Q 564 803 565 791 Q 569 781 596 762 Z" style="fill: #0070C0;"></path>
                                                                        <path d="M 464 610 Q 434 606 457 588 Q 493 561 522 569 Q 690 606 829 624 Q 839 623 849 636 Q 850 649 826 659 Q 789 681 697 652 Q 679 649 662 643 Q 608 631 464 610 Z" style="fill: #0070C0;"></path>
                                                                        <path d="M 503 360 Q 531 391 553 420 Q 572 448 581 460 Q 588 473 585 480 Q 581 490 556 494 Q 531 498 520 494 Q 513 493 513 480 Q 513 426 414 308 Q 398 292 421 298 Q 448 307 487 342 L 503 360 Z" style="fill: #0070C0;"></path>
                                                                        <path d="M 731 496 Q 776 465 824 428 Q 837 418 852 419 Q 861 420 865 432 Q 868 445 858 473 Q 851 498 810 516 Q 717 547 704 539 Q 700 535 702 523 Q 706 513 731 496 Z" style="fill: #0070C0;"></path>
                                                                        <path d="M 672 206 Q 711 258 732 359 Q 736 378 742 386 Q 749 393 743 404 Q 737 411 707 423 Q 673 439 658 434 Q 645 428 656 411 Q 686 348 635 244 Q 634 244 634 242 L 610 209 Q 562 155 430 106 Q 403 96 434 92 Q 521 88 621 152 Q 630 161 641 169 L 672 206 Z" style="fill: #0070C0;"></path>
                                                                        <path d="M 641 169 Q 687 117 759 51 Q 787 27 830 34 Q 887 41 928 47 Q 941 48 954 54 Q 961 61 950 70 Q 934 77 816 115 Q 755 134 672 206 L 634 242 Q 597 282 555 330 Q 536 354 503 360 C 474 368 463 360 487 342 Q 494 336 502 331 Q 524 322 610 209 L 641 169 Z" style="fill: #0070C0;"></path>
                                    
                                    
                                                                                                                                                                                                                                                                                                                                                                                                                                                                                                                                                                                                                                                                                                                                                                                                                                                                    </g>
                            </svg>