<svg width='83' height='83' >
                                <g transform="translate(3, 70) scale(0.07, -0.07)">
                                    <!-- 先将完整的字以灰色字体绘制完成，层级位于下面 -->
                                                                        <path d="M 200 391 Q 209 445 213 515 L 215 544 Q 216 563 216 583 Q 216 661 221 687 C 224 708 224 708 208 717 Q 195 727 173 734 Q 154 741 143 736 Q 133 729 140 717 Q 156 698 164 642 Q 164 428 143 324 Q 142 321 141 316 Q 113 214 48 89 Q 44 82 43 77 Q 42 67 51 70 Q 64 73 97 122 Q 166 215 195 361 L 200 391 Z" style="fill: #0070C0;"></path>
                                                                        <path d="M 221 687 Q 225 690 232 691 Q 262 701 292 711 Q 310 718 316 709 Q 328 676 333 382 Q 330 151 317 131 Q 313 125 293 129 Q 265 136 235 143 Q 216 149 217 139 Q 275 93 310 58 Q 323 39 337 35 Q 346 32 354 41 Q 391 90 390 140 Q 368 536 378 664 Q 381 686 387 698 Q 399 717 387 726 Q 366 742 331 756 Q 315 763 257 732 Q 238 725 208 717 C 179 709 193 677 221 687 Z" style="fill: #0070C0;"></path>
                                                                        <path d="M 213 515 Q 216 514 224 514 Q 266 523 298 528 Q 320 534 310 545 Q 298 558 274 559 Q 252 559 215 544 C 187 533 184 521 213 515 Z" style="fill: #0070C0;"></path>
                                                                        <path d="M 195 361 Q 196 361 200 361 Q 255 371 296 376 Q 318 380 309 393 Q 299 406 274 409 Q 229 412 200 391 C 175 374 165 361 195 361 Z" style="fill: #0070C0;"></path>
                                                                        <path d="M 560 806 Q 593 784 628 757 Q 643 747 659 749 Q 669 750 673 764 Q 676 780 663 808 Q 648 841 549 853 Q 533 854 528 851 Q 524 847 526 834 Q 530 824 560 806 Z" style="fill: #0070C0;"></path>
                                                                        <path d="M 679 663 Q 683 666 799 685 Q 809 684 818 698 Q 819 710 795 719 Q 756 738 704 717 Q 584 687 451 661 Q 423 657 445 640 Q 481 616 507 624 Q 565 639 638 655 L 679 663 Z" style="fill: #0070C0;"></path>
                                                                        <path d="M 651 458 Q 687 519 698 570 Q 708 610 717 623 Q 724 635 717 643 Q 707 656 681 662 Q 680 663 679 663 C 650 672 624 680 638 655 Q 647 646 651 613 Q 657 556 615 486 L 595 458 Q 544 400 411 352 Q 395 343 414 342 Q 549 339 628 425 L 651 458 Z" style="fill: #0070C0;"></path>
                                                                        <path d="M 628 425 Q 646 398 759 312 Q 792 282 948 318 Q 982 325 978 334 Q 977 338 943 346 Q 777 373 659 452 Q 655 456 651 458 L 615 486 Q 587 510 556 537 Q 520 570 489 568 Q 473 567 470 562 Q 469 556 483 548 Q 511 533 528 516 Q 559 492 595 458 L 628 425 Z" style="fill: #0070C0;"></path>
                                                                        <path d="M 477 289 Q 499 250 482 158 Q 461 83 400 30 Q 387 20 375 9 Q 365 0 375 -1 Q 417 -1 468 49 Q 519 98 539 210 Q 545 246 553 264 Q 560 280 546 287 Q 501 315 482 306 Q 470 302 477 289 Z" style="fill: #0070C0;"></path>
                                                                        <path d="M 656 311 Q 677 280 661 88 Q 660 87 660 83 Q 656 14 679 -22 Q 691 -43 699 -46 Q 711 -47 715 -35 Q 719 -17 721 48 Q 712 229 718 284 Q 721 296 714 301 Q 692 320 674 328 Q 662 331 654 324 Q 648 320 656 311 Z" style="fill: #0070C0;"></path>
                                    
                                    
                                                                                                                                                                                                                                                                                                                                                                                                                                                                                                                                                                                                                                                                                                                                                                                                                                                                    </g>
                            </svg>