<svg width='83' height='83' >
                                <g transform="translate(3, 70) scale(0.07, -0.07)">
                                    <!-- 先将完整的字以灰色字体绘制完成，层级位于下面 -->
                                                                        <path d="M 217 365 Q 229 456 232 490 L 234 523 Q 235 545 235 568 Q 235 643 241 675 C 244 696 244 696 226 706 Q 213 716 193 722 Q 174 729 163 725 Q 153 718 160 705 Q 178 683 184 619 Q 184 426 166 325 Q 162 309 158 291 Q 133 198 60 57 Q 56 50 55 45 Q 54 35 63 38 Q 79 41 110 91 Q 179 184 213 341 L 217 365 Z" style="fill: #0070C0;"></path>
                                                                        <path d="M 241 675 Q 295 688 307 692 Q 326 696 332 685 Q 344 652 349 356 Q 346 122 333 103 Q 329 97 309 101 Q 284 105 259 111 Q 240 117 241 107 Q 295 64 326 30 Q 339 11 353 7 Q 362 4 370 13 Q 407 62 406 112 Q 378 616 404 672 Q 404 673 406 675 Q 418 694 406 703 Q 385 722 350 736 Q 332 745 285 719 Q 243 710 226 706 C 197 699 212 668 241 675 Z" style="fill: #0070C0;"></path>
                                                                        <path d="M 232 490 Q 281 499 317 504 Q 339 510 330 521 Q 318 534 294 536 Q 272 537 234 523 C 206 513 202 485 232 490 Z" style="fill: #0070C0;"></path>
                                                                        <path d="M 213 341 L 320 353 Q 342 357 333 369 Q 323 382 299 386 Q 254 389 217 365 C 192 349 183 338 213 341 Z" style="fill: #0070C0;"></path>
                                                                        <path d="M 514 428 Q 542 492 564 532 Q 571 544 558 554 Q 519 578 497 572 Q 487 569 491 557 Q 513 482 439 371 Q 427 367 408 326 Q 402 313 415 318 Q 451 330 501 406 L 514 428 Z" style="fill: #0070C0;"></path>
                                                                        <path d="M 501 406 Q 505 402 513 396 Q 540 375 569 350 Q 579 341 590 342 Q 597 343 602 352 Q 605 364 597 385 Q 593 401 565 414 Q 540 423 514 428 C 485 434 479 426 501 406 Z" style="fill: #0070C0;"></path>
                                                                        <path d="M 774 453 Q 774 454 839 565 Q 848 577 834 589 Q 794 614 771 610 Q 761 607 765 595 Q 783 522 710 424 Q 707 423 680 383 Q 674 370 687 374 Q 706 378 758 433 L 774 453 Z" style="fill: #0070C0;"></path>
                                                                        <path d="M 758 433 Q 764 427 777 417 Q 811 390 846 359 Q 856 349 869 350 Q 878 350 881 361 Q 885 371 878 395 Q 869 428 774 453 C 745 461 736 454 758 433 Z" style="fill: #0070C0;"></path>
                                                                        <path d="M 670 251 Q 791 279 795 281 Q 804 288 799 296 Q 792 308 764 315 Q 734 321 671 298 L 627 286 Q 620 286 615 284 Q 563 274 501 268 Q 467 262 491 246 Q 528 224 626 243 L 670 251 Z" style="fill: #0070C0;"></path>
                                                                        <path d="M 667 115 Q 668 185 670 251 L 671 298 Q 672 434 674 562 Q 678 616 684 652 Q 691 683 696 706 Q 700 719 677 734 Q 637 753 611 758 Q 592 762 584 752 Q 577 743 585 727 Q 622 673 622 637 Q 631 471 627 286 L 626 243 Q 625 179 621 108 C 619 78 667 85 667 115 Z" style="fill: #0070C0;"></path>
                                                                        <path d="M 621 108 Q 539 98 445 86 Q 423 85 439 67 Q 452 54 471 47 Q 492 43 508 46 Q 626 76 890 76 Q 909 76 915 84 Q 921 96 904 110 Q 847 152 782 135 Q 734 128 667 115 L 621 108 Z" style="fill: #0070C0;"></path>
                                    
                                    
                                                                                                                                                                                                                                                                                                                                                                                                                                                                                                                                                                                                                                                                                                                                                                                                                                                                                                                                                </g>
                            </svg>