<svg width='83' height='83' >
                                <g transform="translate(3, 70) scale(0.07, -0.07)">
                                    <!-- 先将完整的字以灰色字体绘制完成，层级位于下面 -->
                                                                        <path d="M 223 540 Q 260 595 302 666 Q 327 714 349 738 Q 359 748 353 763 Q 349 776 318 799 Q 290 818 269 816 Q 250 813 259 791 Q 274 760 263 733 Q 230 642 178 557 Q 129 475 58 384 Q 48 374 46 367 Q 42 355 57 358 Q 106 371 194 501 L 223 540 Z" style="fill: #0070C0;"></path>
                                                                        <path d="M 194 501 Q 213 462 214 379 Q 213 363 213 346 Q 212 232 181 115 Q 166 66 203 18 Q 204 15 208 12 Q 227 -4 239 24 Q 254 66 254 114 Q 255 394 266 457 Q 273 485 263 496 Q 245 518 231 532 L 223 540 C 202 561 183 529 194 501 Z" style="fill: #0070C0;"></path>
                                                                        <path d="M 322 526 Q 349 462 328 289 Q 321 259 347 223 L 348 222 Q 357 212 366 222 Q 384 252 385 332 Q 385 452 392 497 Q 399 519 379 529 Q 340 553 326 547 Q 319 540 322 526 Z" style="fill: #0070C0;"></path>
                                                                        <path d="M 572 746 Q 576 761 608 792 Q 617 801 613 814 Q 609 826 583 848 Q 558 864 540 865 Q 522 864 530 843 Q 546 810 482 706 Q 452 658 411 605 Q 401 595 399 589 Q 395 579 409 581 Q 439 584 519 679 L 533 695 Q 545 711 559 728 L 572 746 Z" style="fill: #0070C0;"></path>
                                                                        <path d="M 721 728 Q 760 738 803 745 Q 837 754 843 758 Q 850 765 847 773 Q 840 783 814 791 Q 786 795 759 785 Q 719 772 676 761 Q 628 751 572 746 C 542 743 541 743 559 728 Q 586 701 655 716 Q 665 719 678 720 L 721 728 Z" style="fill: #0070C0;"></path>
                                                                        <path d="M 670 600 Q 703 651 738 674 Q 748 680 747 688 Q 744 706 721 728 C 700 750 682 750 678 720 Q 681 699 631 624 L 611 599 Q 574 553 537 520 Q 497 486 417 441 Q 404 432 413 428 Q 428 419 501 452 Q 567 485 646 570 L 670 600 Z" style="fill: #0070C0;"></path>
                                                                        <path d="M 646 570 Q 787 456 821 448 Q 893 448 970 471 Q 988 475 988 480 Q 989 486 975 490 Q 921 506 859 520 Q 784 541 670 600 L 631 624 Q 616 634 600 646 Q 554 680 533 695 C 509 713 496 699 519 679 Q 522 678 525 674 Q 567 637 611 599 L 646 570 Z" style="fill: #0070C0;"></path>
                                                                        <path d="M 522 181 Q 526 232 531 268 L 534 296 Q 538 351 543 370 Q 543 373 543 374 L 536 400 Q 533 404 528 407 Q 500 423 483 423 Q 470 419 475 408 Q 511 315 463 140 Q 441 92 444 78 Q 445 48 460 30 Q 466 17 476 22 Q 509 43 520 152 L 520 154 L 522 181 Z" style="fill: #0070C0;"></path>
                                                                        <path d="M 543 374 Q 558 374 579 380 Q 676 399 692 392 Q 704 385 703 359 Q 715 202 705 81 Q 704 56 690 52 Q 680 48 626 58 Q 613 61 614 52 Q 615 45 631 35 Q 665 4 690 -26 Q 705 -42 720 -41 Q 736 -38 755 6 Q 780 52 776 97 Q 769 208 763 309 Q 760 349 777 381 Q 789 397 775 411 Q 757 427 718 441 Q 697 451 679 439 Q 664 432 637 424 Q 570 408 536 400 C 507 393 513 371 543 374 Z" style="fill: #0070C0;"></path>
                                                                        <path d="M 531 268 Q 532 268 536 268 Q 593 275 636 281 Q 658 285 649 297 Q 639 310 615 314 Q 579 318 534 296 C 507 283 501 268 531 268 Z" style="fill: #0070C0;"></path>
                                    
                                    
                                                                                                                                                                                                                                                                                                                                                                                                                                                                                                                                                                                                                                                                                                                                                                                                                                                                    </g>
                            </svg>