<svg width='83' height='83' >
                                <g transform="translate(3, 70) scale(0.07, -0.07)">
                                    <!-- 先将完整的字以灰色字体绘制完成，层级位于下面 -->
                                                                        <path d="M 220 398 Q 226 457 229 515 L 229 551 Q 229 677 231 682 C 232 704 232 704 223 709 Q 216 713 203 719 Q 170 735 157 732 Q 137 728 147 710 Q 169 686 173 621 Q 173 612 175 594 Q 183 459 168 357 Q 147 219 67 67 Q 63 59 63 53 Q 62 43 71 46 Q 102 55 166 188 Q 194 252 215 363 L 220 398 Z" style="fill: #0070C0;"></path>
                                                                        <path d="M 231 682 Q 245 682 297 702 Q 302 704 306 704 Q 331 707 330 652 L 330 649 Q 331 602 333 533 Q 339 148 319 112 Q 317 109 286 114 Q 233 122 231 122 Q 229 120 229 117 Q 279 76 314 43 Q 317 37 321 33 Q 339 16 351 23 Q 357 26 365 39 Q 390 78 390 122 Q 376 355 376 641 Q 376 674 386 690 Q 392 701 391 708 Q 388 725 333 745 Q 329 747 325 747 Q 318 749 304 745 Q 297 739 290 735 Q 266 719 223 709 C 194 701 202 675 231 682 Z" style="fill: #0070C0;"></path>
                                                                        <path d="M 229 515 Q 273 523 298 525 L 300 526 Q 316 531 313 539 Q 311 543 306 547 Q 279 570 229 551 C 201 541 199 510 229 515 Z" style="fill: #0070C0;"></path>
                                                                        <path d="M 215 363 L 219 363 L 302 376 L 304 376 Q 320 382 318 390 Q 316 392 316 394 Q 312 398 306 402 Q 280 417 220 398 C 191 389 185 363 215 363 Z" style="fill: #0070C0;"></path>
                                                                        <path d="M 603 622 Q 647 655 704 674 Q 708 675 710 676 Q 733 685 710 703 Q 659 729 634 727 Q 617 725 617 710 Q 618 708 617 705 Q 611 668 458 568 Q 454 561 460 559 Q 465 560 470 562 Q 496 570 563 602 L 603 622 Z" style="fill: #0070C0;"></path>
                                                                        <path d="M 578 469 L 460 439 Q 435 433 455 420 Q 464 415 470 412 Q 489 404 514 412 Q 553 423 563 425 L 621 443 Q 628 446 651 451 Q 712 466 719 474 Q 719 484 698 492 Q 671 506 623 486 L 578 469 Z" style="fill: #0070C0;"></path>
                                                                        <path d="M 563 602 Q 576 573 578 544 Q 578 541 578 469 L 578 345 Q 574 180 570 155 Q 558 86 557 71 Q 557 46 572 20 Q 575 4 584 1 Q 586 -3 590 -2 Q 594 0 598 4 Q 617 24 617 71 L 619 306 Q 619 318 619 339 L 619 371 Q 621 425 621 443 L 623 486 Q 627 538 637 567 Q 643 585 643 592 Q 643 594 641 595 Q 639 600 603 622 C 578 638 552 630 563 602 Z" style="fill: #0070C0;"></path>
                                                                        <path d="M 563 425 Q 527 314 400 121 Q 395 110 406 110 Q 426 110 514 231 Q 550 280 578 345 C 626 453 573 453 563 425 Z" style="fill: #0070C0;"></path>
                                                                        <path d="M 619 339 Q 637 322 670 272 Q 677 261 690 258 Q 694 257 697 259 Q 711 265 710 294 Q 710 312 684 335 Q 655 363 619 371 C 590 378 598 360 619 339 Z" style="fill: #0070C0;"></path>
                                                                        <path d="M 737 514 Q 756 470 751 378 L 751 372 L 745 318 Q 743 299 751 282 Q 763 261 772 259 Q 797 253 797 383 Q 797 443 802 492 Q 804 503 800 510 Q 796 514 786 521 Q 757 541 741 533 Q 735 527 737 514 Z" style="fill: #0070C0;"></path>
                                                                        <path d="M 939 116 Q 939 122 937 154 Q 917 416 925 555 Q 927 612 937 655 Q 945 688 945 689 Q 945 699 932 709 L 917 717 L 904 723 Q 874 739 857 736 Q 841 733 845 718 L 850 708 Q 853 706 855 702 Q 872 680 874 647 Q 878 613 879 127 Q 879 107 868 98 Q 866 96 832 100 Q 803 102 776 108 Q 765 111 761 108 L 761 106 Q 762 98 784 85 Q 847 41 864 12 Q 883 -20 900 -20 Q 906 -20 913 -11 Q 943 24 939 116 Z" style="fill: #0070C0;"></path>
                                    
                                    
                                                                                                                                                                                                                                                                                                                                                                                                                                                                                                                                                                                                                                                                                                                                                                                                                                                                                                                                                </g>
                            </svg>