<svg width='83' height='83' >
                                <g transform="translate(3, 70) scale(0.07, -0.07)">
                                    <!-- 先将完整的字以灰色字体绘制完成，层级位于下面 -->
                                                                        <path d="M 213 382 Q 213 385 214 386 Q 223 450 226 515 L 227 551 Q 227 650 231 672 C 234 700 234 700 228 704 Q 212 717 185 726 Q 166 733 155 729 Q 145 722 152 709 Q 168 688 176 634 Q 176 418 160 334 Q 156 312 150 290 Q 125 193 52 53 Q 48 46 47 41 Q 46 31 55 34 Q 73 37 102 88 Q 175 185 207 349 L 213 382 Z" style="fill: #0070C0;"></path>
                                                                        <path d="M 231 672 Q 247 675 295 691 Q 314 695 319 685 Q 334 646 334 356 Q 331 125 317 102 Q 314 99 243 111 Q 224 117 225 107 Q 279 64 310 30 Q 323 11 337 7 Q 346 4 354 13 Q 391 62 390 112 Q 366 625 393 674 Q 403 693 393 703 Q 372 721 337 735 Q 321 742 305 734 Q 269 713 228 704 C 199 696 202 664 231 672 Z" style="fill: #0070C0;"></path>
                                                                        <path d="M 226 515 Q 266 524 297 528 Q 319 534 310 545 Q 298 558 274 560 Q 256 561 227 551 C 199 541 197 508 226 515 Z" style="fill: #0070C0;"></path>
                                                                        <path d="M 207 349 Q 256 355 292 360 Q 314 364 305 377 Q 295 390 271 393 Q 249 394 213 382 C 184 373 177 345 207 349 Z" style="fill: #0070C0;"></path>
                                                                        <path d="M 730 593 Q 743 597 759 599 Q 808 609 815 617 Q 822 624 819 633 Q 812 643 784 651 Q 760 657 740 650 L 685 633 Q 667 629 576 605 L 527 598 Q 499 595 469 592 Q 435 586 459 570 Q 490 552 530 554 L 575 562 Q 624 572 680 583 L 730 593 Z" style="fill: #0070C0;"></path>
                                                                        <path d="M 576 605 Q 577 666 580 680 Q 584 702 570 715 Q 548 733 521 743 Q 508 749 498 742 Q 491 736 496 721 Q 518 679 527 598 L 530 554 Q 533 511 537 446 C 539 416 577 422 577 452 Q 576 515 575 562 L 576 605 Z" style="fill: #0070C0;"></path>
                                                                        <path d="M 708 476 Q 718 537 730 593 L 740 650 Q 750 720 772 768 Q 776 778 759 795 Q 726 817 704 823 Q 688 829 680 821 Q 671 814 678 799 Q 694 769 693 749 Q 690 694 685 633 L 680 583 Q 673 528 665 468 C 661 438 703 446 708 476 Z" style="fill: #0070C0;"></path>
                                                                        <path d="M 537 446 Q 474 437 407 425 Q 388 422 402 407 Q 415 394 433 390 Q 452 386 467 391 Q 641 442 885 442 Q 904 443 908 451 Q 912 463 897 475 Q 839 512 789 494 Q 753 487 708 476 L 665 468 Q 647 467 631 462 Q 604 458 577 452 L 537 446 Z" style="fill: #0070C0;"></path>
                                                                        <path d="M 533 327 Q 514 343 491 348 Q 482 349 477 342 Q 474 338 481 328 Q 514 247 488 106 Q 475 88 483 56 Q 492 26 502 15 Q 512 3 521 16 Q 528 26 534 45 L 540 80 Q 543 113 543 175 L 543 206 Q 543 273 546 297 C 548 316 548 316 533 327 Z" style="fill: #0070C0;"></path>
                                                                        <path d="M 685 56 Q 713 20 733 -12 Q 742 -30 753 -29 Q 768 -28 783 4 Q 799 41 796 85 Q 789 146 782 262 Q 781 290 797 312 Q 806 324 797 333 Q 779 352 730 374 Q 712 383 698 374 Q 640 347 533 327 C 504 321 516 293 546 297 Q 576 300 689 325 Q 707 329 717 322 Q 742 286 728 89 L 728 87 Q 725 80 722 76 C 712 48 667 80 685 56 Z" style="fill: #0070C0;"></path>
                                                                        <path d="M 543 175 Q 619 190 679 197 Q 701 201 693 213 Q 683 226 659 231 Q 638 234 543 206 C 514 198 514 169 543 175 Z" style="fill: #0070C0;"></path>
                                                                        <path d="M 534 45 Q 538 45 543 46 Q 589 53 685 56 C 715 57 737 58 722 76 Q 716 85 698 97 Q 682 107 651 100 Q 590 87 540 80 C 510 76 504 43 534 45 Z" style="fill: #0070C0;"></path>
                                    
                                    
                                                                                                                                                                                                                                                                                                                                                                                                                                                                                                                                                                                                                                                                                                                                                                                                                                                                                                                                                                                                                            </g>
                            </svg>