<svg width='83' height='83' >
                                <g transform="translate(3, 70) scale(0.07, -0.07)">
                                    <!-- 先将完整的字以灰色字体绘制完成，层级位于下面 -->
                                                                        <path d="M 210 689 Q 194 702 169 710 Q 150 717 139 712 Q 129 705 136 692 Q 154 670 161 616 Q 161 598 162 577 Q 169 414 140 285 Q 113 179 48 53 Q 44 46 42 41 Q 41 31 51 34 Q 63 37 96 87 Q 159 171 192 322 L 198 356 Q 207 425 211 475 L 212 509 Q 212 638 216 659 C 218 684 218 684 210 689 Z" style="fill: #0070C0;"></path>
                                                                        <path d="M 368 352 Q 361 637 376 666 Q 386 685 375 694 Q 354 712 320 725 Q 301 734 258 707 Q 228 695 210 689 C 182 679 187 650 216 659 Q 220 660 228 662 Q 253 671 280 680 Q 298 687 303 677 Q 330 605 317 206 Q 313 133 305 121 Q 301 117 283 120 Q 258 127 230 134 Q 211 141 212 132 Q 266 83 296 47 Q 309 29 324 25 Q 331 21 340 30 Q 379 75 378 128 Q 372 216 369 332 L 368 352 Z" style="fill: #0070C0;"></path>
                                                                        <path d="M 211 475 Q 251 484 285 488 Q 307 494 298 505 Q 286 518 262 520 Q 243 521 212 509 C 184 498 182 468 211 475 Z" style="fill: #0070C0;"></path>
                                                                        <path d="M 192 322 Q 243 331 281 336 Q 303 342 294 353 Q 282 366 258 368 Q 236 369 198 356 C 170 346 162 317 192 322 Z" style="fill: #0070C0;"></path>
                                                                        <path d="M 581 606 Q 612 613 652 620 L 678 624 Q 684 627 805 642 Q 815 641 825 654 Q 826 666 803 676 Q 776 697 678 670 Q 645 664 596 650 L 543 640 Q 527 640 420 625 Q 392 621 414 604 Q 444 577 478 586 Q 500 592 527 596 L 581 606 Z" style="fill: #0070C0;"></path>
                                                                        <path d="M 449 390 Q 530 474 581 606 L 596 650 Q 597 659 602 668 Q 629 750 647 776 Q 657 788 652 796 Q 639 823 592 835 Q 579 841 562 833 Q 552 824 561 814 Q 582 790 570 730 Q 548 655 543 640 L 527 596 Q 506 541 480 496 Q 446 439 368 352 C 348 330 342 319 369 332 Q 384 336 426 370 L 449 390 Z" style="fill: #0070C0;"></path>
                                                                        <path d="M 652 620 Q 719 520 807 411 Q 823 393 850 395 Q 941 398 970 403 Q 979 404 980 409 Q 981 413 969 420 Q 837 474 768 538 Q 725 577 678 624 C 657 645 635 645 652 620 Z" style="fill: #0070C0;"></path>
                                                                        <path d="M 482 378 Q 482 379 482 380 Q 473 384 449 390 C 420 397 414 398 426 370 Q 453 309 467 209 Q 468 179 486 159 Q 501 138 506 153 Q 507 159 509 166 L 510 190 Q 509 203 507 218 Q 492 309 488 346 L 482 378 Z" style="fill: #0070C0;"></path>
                                                                        <path d="M 674 186 Q 693 158 709 150 Q 719 143 733 162 Q 746 186 772 312 Q 779 340 801 364 Q 813 376 802 389 Q 787 405 747 428 Q 734 434 657 416 Q 647 416 625 409 L 576 399 Q 554 398 482 378 C 453 370 459 337 488 346 Q 522 358 574 367 L 621 377 Q 699 395 713 383 Q 725 370 723 354 Q 702 222 689 209 C 676 183 672 189 674 186 Z" style="fill: #0070C0;"></path>
                                                                        <path d="M 573 297 Q 543 288 518 279 Q 503 276 522 263 Q 523 263 573 266 L 614 273 Q 641 279 668 282 Q 689 286 681 297 Q 671 310 649 313 Q 636 314 616 310 L 573 297 Z" style="fill: #0070C0;"></path>
                                                                        <path d="M 509 166 Q 513 165 522 166 Q 547 170 574 173 L 614 178 Q 645 184 674 186 C 704 188 712 190 689 209 Q 671 227 613 214 Q 612 214 612 213 C 604 210 602 210 573 204 Q 537 197 510 190 C 481 183 479 168 509 166 Z" style="fill: #0070C0;"></path>
                                                                        <path d="M 574 173 Q 580 58 617 21 Q 702 -45 851 -10 Q 857 -9 863 -7 Q 899 3 933 31 Q 949 46 938 68 Q 926 92 908 163 Q 907 178 901 182 Q 895 185 892 169 Q 870 91 855 67 Q 831 33 737 38 Q 701 41 672 54 Q 621 81 614 178 L 612 213 Q 612 243 614 273 L 616 310 Q 617 343 621 377 L 625 409 Q 626 428 630 446 Q 634 464 622 474 Q 609 487 586 494 Q 573 498 565 493 Q 558 489 564 472 Q 577 435 576 399 L 574 367 Q 573 331 573 297 L 573 266 Q 572 233 573 204 L 574 173 Z" style="fill: #0070C0;"></path>
                                    
                                    
                                                                                                                                                                                                                                                                                                                                                                                                                                                                                                                                                                                                                                                                                                                                                                                                                                                                                                                                                                                                                            </g>
                            </svg>