<svg width='83' height='83' >
                                <g transform="translate(3, 70) scale(0.07, -0.07)">
                                    <!-- 先将完整的字以灰色字体绘制完成，层级位于下面 -->
                                                                        <path d="M 197 371 Q 201 393 208 487 L 209 522 Q 209 645 213 671 C 215 693 215 693 201 701 Q 186 711 165 718 Q 146 725 135 720 Q 125 713 132 700 Q 153 676 158 615 Q 158 600 159 584 Q 166 416 137 288 Q 106 174 44 53 Q 40 46 38 41 Q 37 31 47 34 Q 62 37 93 88 Q 162 182 191 336 L 197 371 Z" style="fill: #0070C0;"></path>
                                                                        <path d="M 213 671 Q 217 672 224 674 Q 249 683 276 692 Q 294 699 299 690 Q 314 645 312 363 Q 309 135 293 109 L 215 118 Q 191 130 193 115 Q 251 72 286 37 Q 299 19 314 15 Q 323 11 331 21 Q 368 70 367 119 Q 358 302 360 599 Q 359 654 371 677 Q 381 696 371 706 Q 350 722 316 737 Q 297 746 254 719 Q 221 707 201 701 C 172 692 184 662 213 671 Z" style="fill: #0070C0;"></path>
                                                                        <path d="M 208 487 Q 244 493 273 496 Q 295 502 285 513 Q 275 526 250 529 Q 234 530 209 522 C 180 513 178 482 208 487 Z" style="fill: #0070C0;"></path>
                                                                        <path d="M 191 336 Q 237 342 272 345 Q 294 349 285 361 Q 275 374 251 378 Q 230 381 197 371 C 168 363 161 332 191 336 Z" style="fill: #0070C0;"></path>
                                                                        <path d="M 622 714 Q 632 733 644 743 Q 653 753 647 767 Q 643 779 614 799 Q 589 815 570 814 Q 552 813 561 791 Q 574 766 565 743 Q 540 667 498 595 Q 458 526 401 450 Q 392 440 390 434 Q 387 422 401 426 Q 440 432 561 609 Q 582 643 605 683 Q 606 689 610 693 L 622 714 Z" style="fill: #0070C0;"></path>
                                                                        <path d="M 610 693 Q 686 588 785 476 Q 803 457 831 459 Q 928 463 958 470 Q 967 473 968 477 Q 968 481 955 488 Q 820 536 743 602 Q 685 651 622 714 C 601 735 592 717 610 693 Z" style="fill: #0070C0;"></path>
                                                                        <path d="M 513 499 Q 480 490 506 477 Q 546 458 595 475 Q 635 485 679 497 Q 698 503 701 506 Q 708 513 704 522 Q 697 532 669 536 Q 648 539 573 511 Q 546 504 513 499 Z" style="fill: #0070C0;"></path>
                                                                        <path d="M 458 200 Q 459 237 463 266 L 465 294 Q 469 343 473 361 Q 473 365 473 367 C 474 381 474 381 463 390 Q 445 408 420 406 Q 408 403 413 393 Q 449 309 407 133 Q 379 61 402 28 Q 408 16 417 21 Q 454 48 455 166 Q 455 170 456 173 L 458 200 Z" style="fill: #0070C0;"></path>
                                                                        <path d="M 473 367 Q 477 368 483 369 Q 505 375 525 381 Q 540 385 544 377 Q 563 329 554 95 Q 553 77 548 69 Q 545 66 495 78 Q 480 84 481 77 Q 518 38 539 10 Q 549 -3 560 -8 Q 567 -11 573 -4 Q 606 35 604 72 Q 582 331 602 369 Q 611 382 602 391 Q 586 404 558 416 Q 545 422 532 416 Q 513 404 499 399 Q 486 395 463 390 C 434 383 444 360 473 367 Z" style="fill: #0070C0;"></path>
                                                                        <path d="M 463 266 Q 464 266 468 266 Q 504 272 530 275 Q 549 279 541 290 Q 531 300 510 303 Q 492 304 465 294 C 437 284 433 266 463 266 Z" style="fill: #0070C0;"></path>
                                                                        <path d="M 456 173 Q 489 176 525 179 Q 544 183 537 194 Q 527 206 507 208 Q 488 209 458 200 C 429 192 426 170 456 173 Z" style="fill: #0070C0;"></path>
                                                                        <path d="M 653 365 Q 677 313 656 188 Q 650 164 671 138 Q 678 131 685 139 Q 700 166 699 195 Q 693 273 705 343 Q 709 359 695 367 Q 667 385 656 381 Q 650 377 653 365 Z" style="fill: #0070C0;"></path>
                                                                        <path d="M 728 59 Q 712 62 691 64 Q 681 65 681 60 Q 682 53 692 45 Q 744 8 780 -27 Q 790 -34 803 -20 Q 836 29 830 99 Q 817 301 822 397 Q 826 422 821 431 Q 812 443 778 460 Q 762 467 754 461 Q 744 454 756 434 Q 765 415 772 219 Q 775 84 768 64 Q 747 55 728 59 Z" style="fill: #0070C0;"></path>
                                    
                                    
                                                                                                                                                                                                                                                                                                                                                                                                                                                                                                                                                                                                                                                                                                                                                                                                                                                                                                                                                                                                                                                                                                        </g>
                            </svg>