<svg width='83' height='83' >
                                <g transform="translate(3, 70) scale(0.07, -0.07)">
                                    <!-- 先将完整的字以灰色字体绘制完成，层级位于下面 -->
                                                                        <path d="M 315 798 Q 364 753 391 745 Q 404 744 412 756 Q 416 768 412 782 Q 400 818 344 828 Q 311 837 300 831 Q 296 830 298 819 Q 301 809 315 798 Z" style="fill: #0070C0;"></path>
                                                                        <path d="M 338 649 Q 386 661 447 670 Q 462 671 462 679 Q 463 691 446 698 Q 422 708 401 703 Q 203 655 131 647 Q 121 646 117 638 Q 114 629 128 619 Q 162 598 208 611 Q 257 629 297 639 L 338 649 Z" style="fill: #0070C0;"></path>
                                                                        <path d="M 338 579 Q 345 575 371 570 Q 401 564 397 530 Q 394 526 394 519 Q 375 447 350 437 Q 341 434 313 440 Q 285 450 282 446 Q 278 439 292 431 Q 319 410 326 384 Q 329 371 339 366 Q 349 362 374 378 Q 410 409 430 486 Q 437 519 454 534 Q 461 538 464 544 Q 465 551 448 570 Q 424 594 383 594 Q 374 597 365 598 Q 358 599 352 601 C 323 608 310 589 338 579 Z" style="fill: #0070C0;"></path>
                                                                        <path d="M 352 601 Q 355 605 359 610 Q 366 617 362 627 Q 358 636 338 649 C 313 666 299 669 297 639 Q 291 510 93 379 Q 86 373 91 370 Q 118 361 198 413 Q 273 458 335 574 Q 336 577 338 579 L 352 601 Z" style="fill: #0070C0;"></path>
                                                                        <path d="M 574 756 Q 587 784 603 806 Q 610 818 597 829 Q 557 854 537 850 Q 527 847 531 835 Q 549 768 475 663 Q 469 662 444 622 Q 438 609 451 614 Q 464 617 482 633 Q 531 678 560 729 L 574 756 Z" style="fill: #0070C0;"></path>
                                                                        <path d="M 560 729 Q 597 719 675 737 Q 709 746 748 756 Q 773 763 776 766 Q 783 773 779 781 Q 772 791 745 797 Q 717 801 691 788 Q 640 770 574 756 C 545 750 531 736 560 729 Z" style="fill: #0070C0;"></path>
                                                                        <path d="M 585 618 Q 589 621 595 622 Q 620 629 641 639 Q 671 654 698 661 Q 710 662 712 668 Q 713 675 705 683 Q 663 710 638 705 Q 634 702 633 695 Q 633 674 556 624 C 531 608 559 604 585 618 Z" style="fill: #0070C0;"></path>
                                                                        <path d="M 556 624 Q 538 640 525 641 Q 515 642 510 639 Q 503 633 512 623 Q 534 584 529 494 Q 525 467 514 455 Q 504 439 509 420 Q 518 395 531 384 Q 540 378 550 393 Q 569 415 633 474 Q 648 484 649 491 Q 652 501 634 494 Q 571 478 571 477 Q 564 481 565 502 Q 565 577 570 596 C 573 610 573 610 556 624 Z" style="fill: #0070C0;"></path>
                                                                        <path d="M 675 548 Q 744 594 786 607 Q 790 610 796 611 Q 814 618 807 632 Q 797 647 778 660 Q 760 673 750 672 Q 740 671 742 661 Q 742 640 663 559 C 642 537 650 531 675 548 Z" style="fill: #0070C0;"></path>
                                                                        <path d="M 663 559 Q 591 616 585 618 C 550 641 535 623 570 596 Q 601 574 667 504 Q 757 410 792 411 Q 859 414 912 425 Q 940 431 937 438 Q 934 444 862 462 Q 748 493 675 548 L 663 559 Z" style="fill: #0070C0;"></path>
                                                                        <path d="M 393 143 Q 397 183 401 212 L 404 241 Q 408 284 412 300 Q 412 304 412 309 C 413 325 413 325 400 336 Q 382 354 350 355 Q 337 351 341 339 Q 377 246 330 91 Q 294 24 327 -21 Q 334 -36 344 -30 Q 380 -9 389 94 Q 390 104 390 114 L 393 143 Z" style="fill: #0070C0;"></path>
                                                                        <path d="M 412 309 Q 422 312 434 315 Q 575 345 597 335 Q 610 328 612 298 Q 627 157 621 47 Q 620 25 608 21 Q 598 17 546 26 Q 533 29 534 20 Q 535 13 552 2 Q 586 -29 612 -61 Q 627 -77 642 -76 Q 657 -72 675 -30 Q 697 13 693 56 Q 684 161 677 256 Q 673 293 689 325 Q 702 341 686 356 Q 667 372 626 386 Q 604 396 585 384 Q 566 377 529 365 Q 442 346 400 336 C 371 329 383 301 412 309 Z" style="fill: #0070C0;"></path>
                                                                        <path d="M 401 212 Q 402 212 407 212 Q 486 227 543 235 Q 567 239 557 252 Q 547 267 521 270 Q 491 273 404 241 C 376 231 371 212 401 212 Z" style="fill: #0070C0;"></path>
                                                                        <path d="M 390 114 Q 394 114 402 114 Q 490 127 554 136 Q 578 140 569 152 Q 559 167 533 172 Q 502 175 393 143 C 364 135 360 114 390 114 Z" style="fill: #0070C0;"></path>
                                    
                                    
                                                                                                                                                                                                                                                                                                                                                                                                                                                                                                                                                                                                                                                                                                                                                                                                                                                                                                                                                                                                                                                                                                                                                                                    </g>
                            </svg>