<svg width='83' height='83' >
                                <g transform="translate(3, 70) scale(0.07, -0.07)">
                                    <!-- 先将完整的字以灰色字体绘制完成，层级位于下面 -->
                                                                        <path d="M 194 358 Q 201 401 205 485 L 206 519 Q 207 592 210 666 C 211 682 211 682 183 693 Q 146 709 133 704 Q 123 697 130 685 Q 151 661 156 597 Q 156 585 157 570 Q 166 402 137 280 Q 112 172 47 48 Q 43 42 42 36 Q 41 26 50 30 Q 65 33 95 83 Q 155 167 188 323 L 194 358 Z" style="fill: #0070C0;"></path>
                                                                        <path d="M 210 666 L 267 683 Q 286 687 291 677 Q 306 638 306 346 Q 303 115 290 95 Q 286 91 269 94 Q 244 101 218 110 Q 199 117 200 108 Q 251 57 279 21 Q 292 2 306 -2 Q 315 -6 323 3 Q 363 49 362 100 Q 352 286 353 587 Q 352 642 365 666 Q 375 685 365 695 Q 344 713 309 727 Q 293 734 277 727 Q 247 709 183 693 C 154 685 181 657 210 666 Z" style="fill: #0070C0;"></path>
                                                                        <path d="M 205 485 Q 239 492 266 497 Q 287 503 278 513 Q 268 525 244 527 Q 228 527 206 519 C 178 509 176 479 205 485 Z" style="fill: #0070C0;"></path>
                                                                        <path d="M 188 323 Q 233 335 267 341 Q 286 347 278 357 Q 266 369 244 370 Q 225 370 194 358 C 166 347 159 315 188 323 Z" style="fill: #0070C0;"></path>
                                                                        <path d="M 637 564 Q 647 655 654 739 Q 660 778 668 797 Q 671 807 652 821 Q 619 840 597 844 Q 581 847 574 839 Q 567 832 574 818 Q 590 796 591 779 Q 598 677 597 558 C 597 528 634 534 637 564 Z" style="fill: #0070C0;"></path>
                                                                        <path d="M 456 653 Q 489 605 515 587 Q 527 583 536 593 Q 542 603 542 617 Q 536 650 471 683 Q 458 689 450 687 Q 444 686 445 676 Q 445 666 456 653 Z" style="fill: #0070C0;"></path>
                                                                        <path d="M 745 712 Q 736 696 687 633 Q 677 618 693 621 Q 730 637 751 650 Q 802 683 825 692 Q 844 701 835 718 Q 823 734 799 749 Q 777 762 765 760 Q 753 759 757 746 Q 758 728 745 712 Z" style="fill: #0070C0;"></path>
                                                                        <path d="M 436 532 Q 421 553 411 558 Q 407 562 402 559 Q 398 555 397 544 Q 401 516 376 456 Q 366 440 368 422 Q 372 403 381 389 Q 388 379 394 387 Q 404 390 419 434 Q 432 476 440 490 Q 443 494 445 500 C 450 513 450 513 436 532 Z" style="fill: #0070C0;"></path>
                                                                        <path d="M 445 500 Q 463 494 530 513 Q 662 549 789 559 Q 801 560 808 559 Q 823 549 820 542 Q 820 539 793 473 Q 787 460 793 457 Q 800 453 815 464 Q 864 500 906 511 Q 940 523 939 531 Q 938 540 871 587 Q 849 605 766 586 Q 691 576 637 564 L 597 558 Q 560 554 521 545 Q 478 538 436 532 C 406 528 415 502 445 500 Z" style="fill: #0070C0;"></path>
                                                                        <path d="M 510 420 Q 500 424 474 427 Q 464 430 460 425 Q 456 419 463 405 Q 485 369 501 308 Q 505 289 517 278 Q 533 259 538 273 Q 539 277 540 284 L 537 315 Q 527 372 525 392 C 522 416 522 416 510 420 Z" style="fill: #0070C0;"></path>
                                                                        <path d="M 724 341 Q 746 389 768 397 Q 783 413 770 429 Q 757 441 711 464 Q 696 471 626 445 Q 562 430 510 420 C 481 414 496 384 525 392 Q 531 395 664 420 Q 680 424 687 417 Q 693 411 691 399 Q 685 372 678 348 C 670 319 711 314 724 341 Z" style="fill: #0070C0;"></path>
                                                                        <path d="M 621 297 Q 667 306 733 312 Q 743 313 744 321 Q 744 328 724 341 L 678 348 Q 674 348 672 347 Q 597 326 537 315 C 508 309 510 282 540 284 Q 544 284 552 285 Q 564 288 579 290 L 621 297 Z" style="fill: #0070C0;"></path>
                                                                        <path d="M 640 160 Q 770 184 774 186 Q 781 193 778 201 Q 772 211 746 220 Q 716 229 643 204 L 591 193 Q 534 184 474 181 Q 440 177 463 161 Q 502 137 555 147 Q 571 151 591 152 L 640 160 Z" style="fill: #0070C0;"></path>
                                                                        <path d="M 634 61 Q 637 115 640 160 L 643 204 Q 643 226 646 250 Q 655 274 621 297 C 597 315 567 317 579 290 Q 588 278 591 199 Q 590 198 591 193 L 591 152 Q 591 113 591 56 C 591 26 632 31 634 61 Z" style="fill: #0070C0;"></path>
                                                                        <path d="M 591 56 Q 494 46 384 33 Q 365 32 379 15 Q 392 2 409 -4 Q 430 -10 445 -6 Q 610 33 846 27 Q 864 27 882 26 Q 901 25 906 34 Q 912 44 896 59 Q 838 101 791 85 Q 728 75 634 61 L 591 56 Z" style="fill: #0070C0;"></path>
                                    
                                    
                                                                                                                                                                                                                                                                                                                                                                                                                                                                                                                                                                                                                                                                                                                                                                                                                                                                                                                                                                                                                                                                                                                                                                                                                                                                </g>
                            </svg>