<svg width='83' height='83' >
                                <g transform="translate(3, 70) scale(0.07, -0.07)">
                                    <!-- 先将完整的字以灰色字体绘制完成，层级位于下面 -->
                                                                        <path d="M 199 349 Q 209 469 211 470 L 212 501 Q 212 628 214 651 C 215 676 215 676 205 682 Q 189 694 164 701 Q 145 710 133 703 Q 123 696 131 683 Q 188 626 149 329 Q 145 310 141 288 Q 117 194 55 62 Q 51 55 50 49 Q 49 39 59 42 Q 89 51 147 170 Q 159 198 170 229 Q 185 275 194 324 L 199 349 Z" style="fill: #0070C0;"></path>
                                                                        <path d="M 214 651 Q 235 651 288 668 Q 304 671 313 661 Q 323 651 323 613 Q 327 318 311 141 Q 310 119 303 109 Q 299 105 283 108 Q 264 114 243 120 Q 224 130 224 120 Q 266 68 288 31 Q 300 12 314 5 Q 324 1 332 10 Q 377 55 377 133 Q 361 598 390 648 Q 403 667 391 678 Q 369 697 333 713 Q 315 720 300 715 Q 275 699 258 694 Q 239 688 205 682 C 176 676 184 647 214 651 Z" style="fill: #0070C0;"></path>
                                                                        <path d="M 211 470 Q 212 470 216 470 Q 261 479 294 484 Q 315 490 306 501 Q 294 514 270 515 Q 248 516 212 501 C 184 490 181 470 211 470 Z" style="fill: #0070C0;"></path>
                                                                        <path d="M 194 324 L 289 336 Q 311 342 302 353 Q 290 366 266 368 Q 244 369 206 354 Q 202 353 199 349 C 178 327 173 321 194 324 Z" style="fill: #0070C0;"></path>
                                                                        <path d="M 505 554 Q 533 591 564 641 Q 580 672 597 688 Q 604 697 600 709 Q 596 719 571 740 Q 547 755 531 755 Q 515 752 522 733 Q 540 697 467 573 Q 466 573 466 572 Q 432 520 389 459 Q 380 450 379 445 Q 376 435 388 437 Q 409 440 477 519 L 505 554 Z" style="fill: #0070C0;"></path>
                                                                        <path d="M 521 255 Q 522 261 522 267 Q 526 451 533 493 Q 540 517 531 526 Q 516 542 505 554 C 485 576 468 547 477 519 Q 501 458 469 300 Q 445 222 484 182 Q 500 169 510 192 Q 517 216 521 241 L 521 255 Z" style="fill: #0070C0;"></path>
                                                                        <path d="M 673 716 Q 724 665 742 663 Q 752 664 757 677 Q 761 690 753 719 Q 749 735 723 747 Q 660 769 648 763 Q 644 759 644 747 Q 648 737 673 716 Z" style="fill: #0070C0;"></path>
                                                                        <path d="M 674 549 Q 728 565 788 579 Q 822 589 828 594 Q 835 601 831 609 Q 824 619 797 625 Q 770 629 688 597 Q 609 575 555 566 Q 521 559 546 545 Q 585 526 636 540 Q 637 541 639 540 L 674 549 Z" style="fill: #0070C0;"></path>
                                                                        <path d="M 702 463 Q 745 475 785 484 Q 807 490 798 501 Q 786 514 762 516 Q 741 517 708 506 L 650 484 Q 607 471 569 457 Q 554 453 574 439 Q 586 433 607 438 Q 626 444 650 449 L 702 463 Z" style="fill: #0070C0;"></path>
                                                                        <path d="M 695 363 Q 750 379 797 388 Q 819 394 809 405 Q 799 418 774 421 Q 747 422 697 403 L 649 386 Q 606 373 570 361 Q 554 357 574 343 Q 581 339 649 352 L 695 363 Z" style="fill: #0070C0;"></path>
                                                                        <path d="M 690 291 Q 691 328 695 363 L 697 403 Q 698 434 702 463 L 708 506 Q 709 519 704 525 Q 689 541 674 549 C 648 564 630 569 639 540 Q 648 513 650 484 L 650 449 Q 650 425 649 386 L 649 352 Q 648 321 648 281 C 648 251 689 261 690 291 Z" style="fill: #0070C0;"></path>
                                                                        <path d="M 648 281 Q 525 260 521 255 C 510 251 510 251 521 241 Q 520 241 522 239 Q 552 215 585 225 Q 678 255 835 263 Q 848 263 859 264 Q 877 265 881 273 Q 885 283 870 295 Q 815 328 754 308 Q 726 302 690 291 L 648 281 Z" style="fill: #0070C0;"></path>
                                                                        <path d="M 460 138 Q 436 98 407 65 Q 385 35 398 1 Q 404 -17 425 -7 Q 473 23 478 80 Q 487 111 482 135 Q 478 144 473 145 Q 464 145 460 138 Z" style="fill: #0070C0;"></path>
                                                                        <path d="M 559 90 Q 569 66 578 38 Q 582 22 596 17 Q 605 13 613 22 Q 623 31 627 58 Q 628 88 573 129 Q 563 138 557 138 Q 551 137 548 127 Q 547 117 559 90 Z" style="fill: #0070C0;"></path>
                                                                        <path d="M 681 112 Q 696 90 711 65 Q 720 52 733 49 Q 742 48 749 57 Q 756 69 755 95 Q 752 120 687 153 Q 674 160 668 159 Q 664 156 662 145 Q 663 135 681 112 Z" style="fill: #0070C0;"></path>
                                                                        <path d="M 820 120 Q 854 81 890 35 Q 902 19 918 17 Q 928 16 937 29 Q 944 44 940 76 Q 936 118 823 170 Q 807 177 800 175 Q 794 172 794 158 Q 795 146 820 120 Z" style="fill: #0070C0;"></path>
                                    
                                    
                                                                                                                                                                                                                                                                                                                                                                                                                                                                                                                                                                                                                                                                                                                                                                                                                                                                                                                                                                                                                                                                                                                                                                                                                                                                                                                                            </g>
                            </svg>