<svg width='83' height='83' >
                                <g transform="translate(3, 70) scale(0.07, -0.07)">
                                    <!-- 先将完整的字以灰色字体绘制完成，层级位于下面 -->
                                                                        <path d="M 193 372 Q 202 463 204 488 L 205 524 Q 205 678 208 681 C 210 700 210 700 189 710 Q 177 717 162 722 Q 146 729 134 723 Q 125 716 132 705 Q 183 648 151 364 Q 147 334 140 304 Q 115 198 51 75 Q 47 69 46 64 Q 45 54 54 57 Q 79 64 141 186 Q 168 252 188 343 L 193 372 Z" style="fill: #0070C0;"></path>
                                                                        <path d="M 208 681 Q 212 682 219 684 Q 246 691 271 699 Q 290 703 296 693 Q 311 650 312 360 Q 312 128 298 107 Q 294 101 277 105 Q 249 114 222 122 Q 203 129 204 120 Q 258 69 288 32 Q 300 14 315 9 Q 322 6 331 15 Q 371 61 370 112 Q 348 523 358 643 Q 361 668 369 683 Q 381 701 369 711 Q 348 729 314 743 Q 296 750 281 743 Q 248 722 189 710 C 160 703 179 673 208 681 Z" style="fill: #0070C0;"></path>
                                                                        <path d="M 204 488 Q 244 501 276 507 Q 297 514 286 525 Q 274 537 250 537 Q 231 537 205 524 C 178 511 175 479 204 488 Z" style="fill: #0070C0;"></path>
                                                                        <path d="M 188 343 Q 192 342 200 342 Q 242 351 274 356 Q 296 362 286 373 Q 274 386 250 387 Q 228 387 193 372 C 165 360 158 348 188 343 Z" style="fill: #0070C0;"></path>
                                                                        <path d="M 564 795 Q 591 773 619 746 Q 634 733 649 734 Q 659 735 665 748 Q 669 764 659 793 Q 653 812 622 826 Q 552 850 536 843 Q 532 839 533 826 Q 537 816 564 795 Z" style="fill: #0070C0;"></path>
                                                                        <path d="M 406 676 Q 388 675 402 659 Q 415 647 431 643 Q 450 639 464 643 Q 600 683 822 684 Q 840 685 844 693 Q 848 703 833 715 Q 778 754 719 732 Q 668 723 597 708 Q 510 693 406 676 Z" style="fill: #0070C0;"></path>
                                                                        <path d="M 432 590 Q 423 594 407 597 Q 395 600 393 595 Q 387 591 394 575 Q 424 506 438 395 Q 439 361 458 339 Q 473 318 478 333 Q 481 342 482 352 L 482 376 Q 481 389 479 406 Q 458 524 455 559 C 453 582 453 582 432 590 Z" style="fill: #0070C0;"></path>
                                                                        <path d="M 703 378 Q 716 360 729 354 Q 739 347 753 366 Q 768 391 795 532 Q 802 560 825 585 Q 837 597 826 610 Q 811 626 770 650 Q 755 657 668 637 Q 667 637 539 612 Q 481 599 432 590 C 403 584 426 552 455 559 Q 713 623 736 602 Q 749 587 747 571 Q 723 420 702 408 C 691 392 691 392 703 378 Z" style="fill: #0070C0;"></path>
                                                                        <path d="M 533 526 Q 526 529 512 531 Q 505 532 502 530 Q 498 526 503 516 Q 518 488 527 442 Q 528 429 538 419 Q 548 406 552 416 Q 553 422 554 431 L 552 452 Q 546 495 546 507 C 546 521 546 521 533 526 Z" style="fill: #0070C0;"></path>
                                                                        <path d="M 657 468 Q 666 499 678 510 Q 693 528 677 537 Q 632 561 624 558 Q 621 558 619 556 Q 598 541 533 526 C 504 519 518 496 546 507 Q 549 510 604 521 Q 620 525 624 518 Q 628 517 625 500 Q 622 487 620 470 C 616 440 648 439 657 468 Z" style="fill: #0070C0;"></path>
                                                                        <path d="M 554 431 Q 563 431 571 432 Q 601 439 665 448 Q 672 449 672 455 Q 672 459 657 468 C 644 476 644 476 620 470 Q 581 460 552 452 C 523 444 524 431 554 431 Z" style="fill: #0070C0;"></path>
                                                                        <path d="M 482 352 Q 491 351 505 353 Q 617 371 703 378 C 733 381 730 396 702 408 Q 701 409 695 411 Q 686 414 482 376 C 453 371 452 353 482 352 Z" style="fill: #0070C0;"></path>
                                                                        <path d="M 485 295 Q 475 299 451 305 Q 441 308 437 303 Q 431 299 438 283 Q 460 232 474 149 Q 475 124 490 107 Q 505 86 510 101 Q 514 111 514 129 L 512 153 Q 509 180 506 200 L 503 221 Q 499 255 499 270 C 498 290 498 290 485 295 Z" style="fill: #0070C0;"></path>
                                                                        <path d="M 673 138 Q 685 122 697 114 Q 706 107 720 125 Q 730 140 755 224 Q 764 249 784 270 Q 794 280 786 292 Q 773 307 739 330 Q 723 339 708 333 Q 683 329 652 323 Q 609 316 555 307 Q 518 301 485 295 C 455 290 470 263 499 270 Q 560 286 671 299 Q 695 302 703 294 Q 710 284 709 274 Q 693 192 686 179 Q 682 170 673 167 C 658 156 658 156 673 138 Z" style="fill: #0070C0;"></path>
                                                                        <path d="M 506 200 Q 509 200 514 200 Q 584 210 636 216 Q 655 219 649 230 Q 640 242 619 246 Q 591 250 503 221 C 474 212 476 200 506 200 Z" style="fill: #0070C0;"></path>
                                                                        <path d="M 514 129 Q 518 129 527 129 Q 611 136 673 138 C 703 139 700 153 673 167 Q 666 171 658 173 Q 640 176 512 153 C 482 148 484 129 514 129 Z" style="fill: #0070C0;"></path>
                                                                        <path d="M 393 53 Q 374 52 387 34 Q 400 21 417 14 Q 436 8 453 12 Q 633 46 857 26 Q 876 26 881 33 Q 887 45 872 59 Q 814 104 768 89 Q 609 71 393 53 Z" style="fill: #0070C0;"></path>
                                    
                                    
                                                                                                                                                                                                                                                                                                                                                                                                                                                                                                                                                                                                                                                                                                                                                                                                                                                                                                                                                                                                                                                                                                                                                                                                                                                                                                                                                                                                                        </g>
                            </svg>