<svg width='83' height='83' >
                                <g transform="translate(3, 70) scale(0.07, -0.07)">
                                    <!-- 先将完整的字以灰色字体绘制完成，层级位于下面 -->
                                                                        <path d="M 198 687 Q 185 696 165 702 Q 147 709 137 704 Q 127 697 134 685 Q 153 663 159 594 Q 159 372 138 287 Q 111 185 47 60 Q 43 54 42 48 Q 41 38 50 42 Q 65 45 95 94 Q 158 182 189 329 L 195 365 Q 201 401 207 480 L 208 516 Q 208 621 212 657 C 214 679 214 679 198 687 Z" style="fill: #0070C0;"></path>
                                                                        <path d="M 359 170 Q 343 620 364 658 Q 376 677 364 687 Q 343 703 309 718 Q 291 725 277 718 Q 255 705 241 699 Q 225 693 198 687 C 169 680 183 650 212 657 Q 236 660 267 674 Q 286 678 291 669 Q 306 630 306 342 Q 303 113 289 92 Q 285 86 266 91 Q 241 97 214 103 Q 195 109 197 100 Q 251 54 281 19 Q 294 0 308 -4 Q 317 -8 325 2 Q 359 44 361 113 Q 360 123 360 131 L 359 170 Z" style="fill: #0070C0;"></path>
                                                                        <path d="M 207 480 Q 244 487 273 492 Q 295 498 286 509 Q 274 522 250 524 Q 234 525 208 516 C 180 506 178 474 207 480 Z" style="fill: #0070C0;"></path>
                                                                        <path d="M 189 329 Q 240 339 277 344 Q 299 350 289 361 Q 279 374 254 377 Q 232 378 195 365 C 167 355 160 323 189 329 Z" style="fill: #0070C0;"></path>
                                                                        <path d="M 588 802 Q 645 738 666 737 Q 679 736 685 754 Q 686 767 676 786 Q 666 802 643 810 Q 607 826 592 828 Q 583 829 582 818 Q 581 811 588 802 Z" style="fill: #0070C0;"></path>
                                                                        <path d="M 712 662 Q 734 668 757 671 Q 803 681 810 688 Q 817 695 814 702 Q 808 712 784 719 Q 760 725 667 695 Q 580 673 484 664 C 454 661 466 638 496 634 Q 520 628 607 643 Q 644 650 683 656 L 712 662 Z" style="fill: #0070C0;"></path>
                                                                        <path d="M 484 664 Q 442 688 428 681 Q 418 674 425 664 Q 440 646 445 575 Q 444 572 445 568 Q 448 421 423 328 Q 410 282 359 170 C 347 143 341 108 360 131 Q 361 134 365 137 Q 491 281 491 560 Q 491 608 496 634 C 499 656 499 656 484 664 Z" style="fill: #0070C0;"></path>
                                                                        <path d="M 552 599 Q 580 554 598 551 Q 608 550 613 562 Q 614 572 610 587 Q 604 597 589 604 Q 567 616 557 618 Q 550 619 549 612 Q 548 606 552 599 Z" style="fill: #0070C0;"></path>
                                                                        <path d="M 674 556 Q 678 562 684 568 Q 697 583 711 603 Q 717 612 727 622 Q 739 629 733 638 Q 729 648 712 662 C 689 681 681 686 683 656 Q 686 638 658 571 Q 651 559 650 550 C 645 520 657 532 674 556 Z" style="fill: #0070C0;"></path>
                                                                        <path d="M 695 525 Q 726 534 810 545 Q 819 544 826 555 Q 827 564 808 572 Q 784 588 711 566 Q 695 562 678 557 Q 677 557 674 556 L 650 550 Q 646 550 519 527 Q 495 524 514 510 Q 539 492 562 495 L 598 504 Q 626 511 660 518 L 695 525 Z" style="fill: #0070C0;"></path>
                                                                        <path d="M 784 304 Q 791 338 799 360 L 819 405 Q 828 418 837 427 Q 850 443 838 458 Q 769 506 720 477 Q 711 474 704 471 L 664 459 Q 657 459 618 447 L 579 440 Q 552 437 528 433 Q 515 432 516 423 Q 519 416 534 411 Q 553 404 580 410 L 617 418 Q 641 425 665 428 L 704 438 Q 746 448 755 440 Q 765 433 763 413 Q 762 404 760 395 L 754 359 Q 750 334 743 310 C 735 281 778 275 784 304 Z" style="fill: #0070C0;"></path>
                                                                        <path d="M 799 360 Q 823 361 911 362 Q 927 362 930 369 Q 934 378 922 389 Q 879 422 819 405 L 760 395 Q 732 391 704 386 L 666 380 Q 641 377 615 373 L 582 368 Q 539 364 494 358 Q 478 357 489 342 Q 516 318 546 328 Q 562 332 582 336 L 614 342 Q 638 348 666 350 L 704 355 Q 726 358 754 359 L 799 360 Z" style="fill: #0070C0;"></path>
                                                                        <path d="M 612 250 Q 634 254 665 258 L 720 264 Q 753 268 796 272 Q 806 273 807 281 Q 807 288 784 304 L 743 310 Q 739 310 736 309 Q 718 305 704 301 L 666 292 Q 638 288 613 281 L 581 275 Q 541 271 506 265 Q 487 264 498 247 Q 507 238 540 237 Q 546 240 555 239 L 612 250 Z" style="fill: #0070C0;"></path>
                                                                        <path d="M 578 197 Q 578 142 559 76 Q 546 28 576 -7 Q 585 -19 593 -8 Q 608 10 609 128 Q 609 197 612 250 L 613 281 Q 613 315 614 342 L 615 373 Q 615 400 617 418 L 618 447 Q 617 459 619 461 Q 623 479 618 485 Q 617 495 600 503 Q 599 504 598 504 C 572 520 552 523 562 495 Q 563 488 568 478 Q 575 465 579 440 L 580 410 Q 581 409 582 368 L 582 336 Q 582 308 581 275 L 578 197 Z" style="fill: #0070C0;"></path>
                                                                        <path d="M 665 258 Q 665 90 655 15 Q 652 -16 674 -46 Q 683 -59 691 -44 Q 706 -14 707 46 Q 704 82 704 242 L 704 301 Q 704 328 704 355 L 704 386 Q 705 408 705 429 Q 704 433 704 438 L 704 471 Q 704 519 702 520 Q 699 523 695 525 C 680 551 654 547 660 518 Q 663 509 664 494 Q 664 478 664 459 L 665 428 Q 665 406 666 380 L 666 350 Q 666 322 666 292 L 665 258 Z" style="fill: #0070C0;"></path>
                                                                        <path d="M 555 239 Q 507 152 403 72 Q 393 62 400 61 Q 407 57 417 61 Q 490 89 566 182 Q 572 191 578 197 C 622 246 572 270 555 239 Z" style="fill: #0070C0;"></path>
                                                                        <path d="M 704 242 Q 756 163 823 77 Q 848 52 967 71 Q 974 72 976 77 Q 977 81 966 87 Q 852 136 781 204 Q 751 232 720 264 C 699 285 687 267 704 242 Z" style="fill: #0070C0;"></path>
                                    
                                    
                                                                                                                                                                                                                                                                                                                                                                                                                                                                                                                                                                                                                                                                                                                                                                                                                                                                                                                                                                                                                                                                                                                                                                                                                                                                                                                                                                                                                        </g>
                            </svg>