<svg width='83' height='83' >
                                <g transform="translate(3, 70) scale(0.07, -0.07)">
                                    <!-- 先将完整的字以灰色字体绘制完成，层级位于下面 -->
                                                                        <path d="M 505 691 Q 604 730 656 735 Q 675 735 681 744 Q 685 756 673 769 Q 651 788 601 812 Q 585 822 569 821 Q 560 817 559 805 Q 556 772 373 689 Q 327 670 270 649 Q 263 639 270 636 Q 274 636 451 675 L 505 691 Z" style="fill: #0070C0;"></path>
                                                                        <path d="M 547 509 Q 668 522 836 522 Q 869 522 899 523 Q 923 523 928 533 Q 935 546 915 563 Q 848 614 766 590 Q 676 574 549 551 L 480 541 Q 311 519 115 494 Q 90 491 108 471 Q 124 455 146 449 Q 171 442 190 448 Q 332 488 480 502 L 547 509 Z" style="fill: #0070C0;"></path>
                                                                        <path d="M 532 87 Q 539 420 547 509 L 549 551 Q 552 600 561 620 Q 574 642 558 657 Q 530 679 505 691 C 479 705 438 702 451 675 Q 451 672 454 668 Q 479 626 480 541 L 480 502 Q 480 303 480 79 C 480 49 531 57 532 87 Z" style="fill: #0070C0;"></path>
                                                                        <path d="M 262 301 Q 296 317 319 331 Q 376 365 405 375 Q 426 382 418 400 Q 408 418 384 434 Q 362 449 350 447 Q 338 447 341 434 Q 341 413 268 337 Q 259 330 250 319 C 230 296 235 288 262 301 Z" style="fill: #0070C0;"></path>
                                                                        <path d="M 292 60 L 290 68 Q 281 147 274 176 L 269 212 Q 265 255 263 292 Q 263 296 262 301 L 250 319 L 248 321 Q 217 342 184 349 Q 177 352 171 346 Q 162 339 173 327 Q 224 249 235 62 Q 236 2 275 -32 Q 278 -35 283 -37 Q 302 -41 303 -8 Q 303 5 301 19 L 292 60 Z" style="fill: #0070C0;"></path>
                                                                        <path d="M 274 176 Q 284 182 409 199 Q 439 206 426 222 Q 411 240 378 243 Q 330 246 269 212 C 243 198 246 166 274 176 Z" style="fill: #0070C0;"></path>
                                                                        <path d="M 673 48 Q 688 33 714 -33 Q 726 -55 746 -42 Q 782 -21 808 121 Q 844 335 860 365 Q 875 389 854 404 Q 782 464 738 443 Q 663 413 581 397 Q 571 396 571 383 Q 572 371 593 364 Q 626 355 673 374 Q 749 410 768 403 Q 778 396 778 370 Q 772 315 763 256 L 757 219 Q 733 80 722 72 C 710 44 656 73 673 48 Z" style="fill: #0070C0;"></path>
                                                                        <path d="M 763 256 Q 724 277 616 240 Q 615 240 613 239 Q 594 236 617 217 Q 624 211 639 213 Q 706 217 757 219 C 787 220 790 243 763 256 Z" style="fill: #0070C0;"></path>
                                                                        <path d="M 480 79 Q 378 66 292 60 C 262 58 271 24 301 19 Q 314 15 331 18 Q 443 39 673 48 C 703 49 743 51 722 72 Q 713 82 690 100 Q 671 112 631 105 Q 580 96 532 87 L 480 79 Z" style="fill: #0070C0;"></path>
                                    
                                    
                                                                                                                                                                                                                                                                                                                                                                                                                                                                                                                                                                                                                                                                                                                                                                                        </g>
                            </svg>