<svg width='83' height='83' >
                                <g transform="translate(3, 70) scale(0.07, -0.07)">
                                    <!-- 先将完整的字以灰色字体绘制完成，层级位于下面 -->
                                                                        <path d="M 309 681 Q 334 696 432 759 Q 451 775 476 784 Q 498 793 488 812 Q 476 830 450 846 Q 426 861 414 858 Q 401 857 404 844 Q 407 814 345 750 Q 323 728 298 702 C 277 680 283 665 309 681 Z" style="fill: #0070C0;"></path>
                                                                        <path d="M 345 498 Q 344 510 341 522 Q 334 552 329 575 L 324 603 Q 311 664 310 680 L 309 681 C 305 699 305 699 298 702 Q 285 708 251 712 Q 238 715 235 709 Q 228 703 238 686 Q 272 619 294 510 Q 298 477 319 456 Q 338 434 343 450 Q 344 457 346 467 L 345 498 Z" style="fill: #0070C0;"></path>
                                                                        <path d="M 329 575 Q 392 591 441 600 Q 463 606 454 617 Q 442 630 418 632 Q 381 635 324 603 C 298 588 300 568 329 575 Z" style="fill: #0070C0;"></path>
                                                                        <path d="M 640 493 Q 639 486 642 477 Q 646 461 660 460 Q 675 461 684 476 Q 703 498 738 612 Q 760 664 801 691 Q 822 706 807 724 Q 791 743 741 775 Q 725 787 671 778 Q 629 775 592 769 Q 556 765 534 764 Q 519 765 516 760 Q 512 756 526 745 Q 550 729 589 734 Q 682 747 699 737 Q 711 728 701 689 Q 694 662 687 639 L 677 607 Q 658 543 648 519 L 640 493 Z" style="fill: #0070C0;"></path>
                                                                        <path d="M 687 639 Q 663 654 557 636 Q 554 636 553 635 Q 537 634 554 617 Q 560 611 574 611 Q 632 611 677 607 C 707 604 714 626 687 639 Z" style="fill: #0070C0;"></path>
                                                                        <path d="M 648 519 Q 621 546 583 536 Q 450 508 345 498 C 315 495 316 472 346 467 Q 356 464 371 466 Q 456 482 640 493 C 670 495 670 499 648 519 Z" style="fill: #0070C0;"></path>
                                                                        <path d="M 650 318 Q 747 327 903 315 Q 928 312 934 321 Q 941 334 929 347 Q 898 375 853 396 Q 838 403 811 394 Q 739 378 666 368 Q 659 368 651 366 L 600 360 Q 486 353 416 340 L 354 333 Q 314 330 288 326 Q 216 316 109 314 Q 94 314 93 302 Q 93 289 112 274 Q 130 261 162 249 Q 174 245 192 253 Q 225 265 355 286 L 410 294 Q 417 295 600 313 L 650 318 Z" style="fill: #0070C0;"></path>
                                                                        <path d="M 416 340 Q 419 356 426 372 Q 433 390 417 397 Q 368 427 344 417 Q 331 411 339 398 Q 348 386 354 333 L 355 286 Q 351 133 213 17 Q 207 13 202 7 Q 190 -3 202 -4 Q 251 -4 320 67 Q 392 146 410 294 L 416 340 Z" style="fill: #0070C0;"></path>
                                                                        <path d="M 600 313 Q 600 99 583 47 Q 568 10 618 -57 Q 622 -63 628 -66 Q 640 -67 645 -54 Q 651 -35 652 47 Q 651 129 650 318 L 651 366 Q 652 391 656 407 Q 657 420 651 426 Q 627 447 607 456 Q 595 460 586 452 Q 580 448 588 438 Q 600 420 600 360 L 600 313 Z" style="fill: #0070C0;"></path>
                                    
                                    
                                                                                                                                                                                                                                                                                                                                                                                                                                                                                                                                                                                                                                                                                                                                                                                        </g>
                            </svg>