<svg width='83' height='83' >
                                <g transform="translate(3, 70) scale(0.07, -0.07)">
                                    <!-- 先将完整的字以灰色字体绘制完成，层级位于下面 -->
                                                                        <path d="M 330 716 Q 453 774 455 775 Q 474 781 468 798 Q 458 814 437 829 Q 418 844 407 843 Q 397 843 398 831 Q 398 816 337 752 Q 327 745 317 733 C 297 710 303 703 330 716 Z" style="fill: #0070C0;"></path>
                                                                        <path d="M 368 575 Q 365 590 350 640 L 343 664 Q 333 703 331 714 Q 330 715 330 716 C 326 731 326 731 317 733 Q 305 737 272 738 Q 259 739 257 734 Q 251 727 262 712 Q 295 664 323 581 Q 329 556 347 541 Q 366 522 370 538 Q 371 542 371 549 L 368 575 Z" style="fill: #0070C0;"></path>
                                                                        <path d="M 350 640 Q 417 652 468 658 Q 489 662 481 673 Q 471 686 449 690 Q 422 691 343 664 C 315 654 320 635 350 640 Z" style="fill: #0070C0;"></path>
                                                                        <path d="M 662 581 L 663 580 Q 667 564 680 564 Q 693 565 701 579 Q 713 592 738 658 Q 757 706 795 730 Q 814 743 801 760 Q 785 778 740 807 Q 728 816 630 805 Q 606 802 591 802 Q 576 803 574 800 Q 570 796 583 785 Q 601 773 639 771 Q 684 778 702 770 Q 709 764 703 737 Q 699 721 694 705 L 687 675 Q 672 626 664 607 C 657 590 657 590 662 581 Z" style="fill: #0070C0;"></path>
                                                                        <path d="M 694 705 Q 693 708 686 709 Q 665 713 628 708 Q 594 701 564 694 Q 548 693 565 678 Q 571 672 585 673 Q 642 674 687 675 C 717 676 717 686 694 705 Z" style="fill: #0070C0;"></path>
                                                                        <path d="M 664 607 Q 646 619 481 590 Q 423 583 368 575 C 338 571 341 548 371 549 Q 381 549 396 550 Q 547 571 662 581 C 692 584 693 598 664 607 Z" style="fill: #0070C0;"></path>
                                                                        <path d="M 336 490 Q 326 496 288 499 Q 275 500 273 496 Q 267 489 277 474 Q 308 422 332 333 Q 338 306 355 290 Q 374 271 378 286 Q 379 290 380 295 L 379 320 Q 378 329 347 458 C 340 487 340 489 336 490 Z" style="fill: #0070C0;"></path>
                                                                        <path d="M 631 328 Q 647 298 664 289 Q 674 280 691 301 Q 704 317 736 412 Q 746 443 771 468 Q 784 480 774 494 Q 759 512 717 541 Q 699 550 618 533 Q 594 532 336 490 C 306 485 318 451 347 458 Q 399 471 476 484 L 515 490 Q 656 515 677 496 Q 686 484 683 473 Q 659 365 644 354 C 629 331 629 331 631 328 Z" style="fill: #0070C0;"></path>
                                                                        <path d="M 532 403 Q 575 410 615 415 Q 636 418 629 429 Q 619 442 597 447 Q 576 451 539 442 Q 536 442 535 440 C 532 439 513 435 484 428 Q 444 419 407 411 Q 392 408 410 394 Q 417 388 486 397 L 532 403 Z" style="fill: #0070C0;"></path>
                                                                        <path d="M 528 345 Q 529 376 532 403 L 535 440 Q 536 444 536 448 Q 543 464 535 472 Q 525 482 515 490 C 492 509 465 512 476 484 Q 480 480 484 428 L 486 397 Q 486 373 489 338 C 491 308 527 315 528 345 Z" style="fill: #0070C0;"></path>
                                                                        <path d="M 497 310 Q 569 322 631 328 C 661 331 670 339 644 354 Q 640 358 633 359 Q 620 362 528 345 L 489 338 Q 431 331 379 320 C 350 314 350 294 380 295 Q 390 295 403 296 Q 431 300 459 304 L 497 310 Z" style="fill: #0070C0;"></path>
                                                                        <path d="M 500 194 Q 585 210 658 216 Q 692 217 697 208 Q 704 196 697 166 Q 681 82 658 47 Q 633 8 598 18 Q 571 22 549 30 Q 521 37 542 12 Q 584 -30 604 -61 Q 617 -83 637 -70 Q 667 -55 692 -24 Q 720 12 758 134 Q 771 177 790 196 Q 806 209 800 223 Q 791 236 734 268 Q 712 281 688 267 Q 651 249 517 227 L 448 216 Q 345 203 256 202 Q 235 203 231 192 Q 228 183 256 168 Q 284 147 308 155 Q 372 171 435 182 L 500 194 Z" style="fill: #0070C0;"></path>
                                                                        <path d="M 435 182 Q 366 32 226 -20 Q 210 -27 192 -34 Q 177 -38 189 -44 Q 202 -48 237 -44 Q 286 -37 326 -14 Q 428 34 479 152 Q 489 174 500 194 L 517 227 Q 524 239 533 248 Q 546 263 533 275 Q 514 299 497 310 C 473 328 456 334 459 304 Q 459 303 460 301 Q 464 283 450 222 Q 449 221 448 216 L 435 182 Z" style="fill: #0070C0;"></path>
                                    
                                    
                                                                                                                                                                                                                                                                                                                                                                                                                                                                                                                                                                                                                                                                                                                                                                                                                                                                                                                                                                                                                                                                                                        </g>
                            </svg>