<svg width='83' height='83' >
                                <g transform="translate(3, 70) scale(0.07, -0.07)">
                                    <!-- 先将完整的字以灰色字体绘制完成，层级位于下面 -->
                                                                        <path d="M 516 650 Q 595 687 652 697 Q 671 698 675 706 Q 679 718 666 731 Q 597 779 563 775 Q 554 771 554 758 Q 554 718 325 610 Q 319 609 313 605 Q 307 595 314 592 Q 338 592 437 624 Q 452 628 470 633 L 516 650 Z" style="fill: #0070C0;"></path>
                                                                        <path d="M 537 436 Q 642 445 903 446 Q 925 446 931 456 Q 938 469 919 484 Q 856 532 790 513 Q 690 495 541 473 L 489 466 Q 321 447 130 424 Q 108 423 124 403 Q 157 370 201 380 Q 378 428 473 429 Q 479 430 488 430 L 537 436 Z" style="fill: #0070C0;"></path>
                                                                        <path d="M 519 284 Q 529 362 537 436 L 541 473 Q 547 549 567 606 Q 571 616 552 632 Q 533 644 516 650 C 488 661 455 659 470 633 Q 491 600 491 549 Q 490 510 489 466 L 488 430 Q 484 357 477 276 C 474 246 515 254 519 284 Z" style="fill: #0070C0;"></path>
                                                                        <path d="M 353 262 Q 341 268 311 273 Q 298 276 295 271 Q 288 264 297 247 Q 334 168 354 40 Q 357 3 379 -24 Q 398 -46 403 -30 Q 410 -6 405 35 L 398 74 Q 376 186 370 225 C 365 255 365 257 353 262 Z" style="fill: #0070C0;"></path>
                                                                        <path d="M 683 104 Q 713 198 751 229 Q 770 248 755 270 Q 683 330 636 316 Q 573 297 519 284 L 477 276 Q 416 269 353 262 C 323 259 340 221 370 225 Q 377 225 606 259 Q 633 263 643 253 Q 655 243 652 219 Q 642 159 629 110 C 622 81 674 76 683 104 Z" style="fill: #0070C0;"></path>
                                                                        <path d="M 405 35 Q 450 50 700 62 Q 713 63 715 73 Q 715 82 683 104 C 665 117 658 116 629 110 Q 500 85 398 74 C 368 71 376 27 405 35 Z" style="fill: #0070C0;"></path>
                                    
                                    
                                                                                                                                                                                                                                                                                                                                                                                                                                                                                                                                                    </g>
                            </svg>