<svg width='83' height='83' >
                                <g transform="translate(3, 70) scale(0.07, -0.07)">
                                    <!-- 先将完整的字以灰色字体绘制完成，层级位于下面 -->
                                                                        <path d="M 281 639 Q 318 679 341 705 Q 386 765 414 786 Q 432 801 418 815 Q 402 828 373 836 Q 348 843 336 838 Q 323 834 331 822 Q 341 797 278 675 Q 269 660 261 643 C 248 616 261 617 281 639 Z" style="fill: #0070C0;"></path>
                                                                        <path d="M 261 643 Q 251 650 236 654 Q 217 661 205 656 Q 195 649 202 636 Q 238 594 226 385 L 222 340 Q 204 195 120 34 Q 116 27 114 21 Q 113 11 123 14 Q 135 15 168 66 Q 241 162 270 337 Q 271 344 271 352 L 276 394 Q 282 469 282 569 Q 285 606 287 608 C 294 652 288 630 261 643 Z" style="fill: #0070C0;"></path>
                                                                        <path d="M 287 608 Q 287 609 291 610 Q 336 623 381 635 Q 399 642 405 633 Q 414 608 419 421 L 419 393 Q 420 108 402 82 Q 398 78 303 89 Q 282 92 285 83 Q 358 40 400 8 Q 415 -11 430 -14 Q 440 -18 447 -7 Q 487 45 481 99 Q 471 265 470 537 Q 467 595 481 620 Q 493 639 481 650 Q 459 668 423 682 Q 399 691 356 663 Q 326 651 281 639 C 252 631 258 599 287 608 Z" style="fill: #0070C0;"></path>
                                                                        <path d="M 301 527 Q 334 470 359 467 Q 371 466 378 480 Q 379 492 373 510 Q 366 523 348 532 Q 320 548 307 550 Q 300 553 297 543 Q 296 536 301 527 Z" style="fill: #0070C0;"></path>
                                                                        <path d="M 271 352 Q 385 385 419 393 C 448 400 449 426 419 421 Q 350 409 276 394 L 226 385 Q 174 378 117 368 Q 93 364 57 369 Q 44 369 40 360 Q 36 347 45 338 Q 64 319 95 296 Q 105 292 118 299 Q 167 326 222 340 L 271 352 Z" style="fill: #0070C0;"></path>
                                                                        <path d="M 305 276 Q 326 252 348 224 Q 358 212 371 211 Q 380 211 385 221 Q 391 233 387 257 Q 384 275 359 291 Q 299 322 288 319 Q 284 316 283 305 Q 284 296 305 276 Z" style="fill: #0070C0;"></path>
                                                                        <path d="M 701 544 Q 870 586 875 589 Q 885 598 880 607 Q 871 620 840 627 Q 813 631 692 593 Q 580 572 558 568 Q 518 561 547 543 Q 589 521 650 533 L 701 544 Z" style="fill: #0070C0;"></path>
                                                                        <path d="M 712 222 Q 727 468 731 486 Q 743 516 703 543 Q 702 544 701 544 C 676 561 639 561 650 533 Q 662 515 662 372 Q 661 311 660 214 C 660 184 710 192 712 222 Z" style="fill: #0070C0;"></path>
                                                                        <path d="M 660 214 Q 584 204 501 191 Q 479 188 495 171 Q 528 141 567 151 Q 700 185 946 186 Q 967 186 972 195 Q 976 207 960 221 Q 897 267 841 246 Q 789 237 712 222 L 660 214 Z" style="fill: #0070C0;"></path>
                                    
                                    
                                                                                                                                                                                                                                                                                                                                                                                                                                                                                                                                                                                                                                                                                                                                                                                        </g>
                            </svg>