<svg width='83' height='83' >
                                <g transform="translate(3, 70) scale(0.07, -0.07)">
                                    <!-- 先将完整的字以灰色字体绘制完成，层级位于下面 -->
                                                                        <path d="M 233 630 Q 276 669 300 695 Q 354 758 378 774 Q 397 789 383 805 Q 365 820 336 829 Q 308 838 296 833 Q 283 829 290 815 Q 300 788 218 639 C 204 613 211 610 233 630 Z" style="fill: #0070C0;"></path>
                                                                        <path d="M 234 629 Q 234 630 233 630 C 232 632 232 632 218 639 Q 188 657 171 649 Q 161 642 168 629 Q 183 614 190 547 Q 189 460 187 372 L 181 325 Q 168 211 80 41 Q 76 34 75 29 Q 74 19 83 22 Q 95 25 127 72 Q 199 162 230 339 Q 230 340 230 341 L 236 382 Q 243 443 243 502 Q 243 568 249 599 C 252 618 252 618 234 629 Z" style="fill: #0070C0;"></path>
                                                                        <path d="M 363 386 Q 363 116 345 90 Q 341 84 320 89 Q 293 93 267 99 Q 248 105 249 95 Q 306 52 338 17 Q 351 -1 366 -5 Q 375 -9 382 1 Q 421 46 419 99 Q 398 564 423 609 Q 433 628 423 637 Q 402 655 368 668 Q 350 675 336 668 Q 297 644 234 629 C 205 621 221 589 249 599 Q 258 603 328 624 Q 346 631 351 622 Q 358 601 363 410 L 363 386 Z" style="fill: #0070C0;"></path>
                                                                        <path d="M 267 511 Q 297 454 319 448 Q 331 445 339 460 Q 342 470 337 490 Q 322 517 275 534 Q 268 537 265 527 Q 262 520 267 511 Z" style="fill: #0070C0;"></path>
                                                                        <path d="M 230 341 Q 282 360 339 377 Q 352 381 363 386 C 391 398 392 416 363 410 Q 302 397 236 382 L 187 372 Q 148 366 108 358 Q 89 354 58 357 Q 46 357 43 348 Q 40 336 48 328 Q 67 312 95 292 Q 105 288 116 295 Q 147 313 181 325 L 230 341 Z" style="fill: #0070C0;"></path>
                                                                        <path d="M 252 289 Q 288 222 313 216 Q 326 213 335 229 Q 338 242 332 262 Q 317 295 260 314 Q 253 317 249 306 Q 246 299 252 289 Z" style="fill: #0070C0;"></path>
                                                                        <path d="M 536 406 Q 543 409 634 426 Q 656 433 646 445 Q 633 458 608 459 Q 584 459 545 443 Q 539 440 536 436 C 515 414 507 397 536 406 Z" style="fill: #0070C0;"></path>
                                                                        <path d="M 536 436 Q 536 517 540 539 Q 544 552 535 563 Q 511 584 489 594 Q 471 601 462 595 Q 452 589 461 574 Q 503 487 483 280 Q 480 231 440 184 Q 428 168 435 147 Q 445 120 458 109 Q 470 102 482 117 Q 560 186 640 254 Q 644 264 634 264 Q 631 264 545 232 Q 529 225 529 240 Q 535 330 536 406 L 536 436 Z" style="fill: #0070C0;"></path>
                                                                        <path d="M 712 430 Q 755 446 784 459 Q 859 495 884 499 Q 908 505 900 525 Q 890 544 868 564 Q 847 583 834 583 Q 821 584 822 570 Q 819 543 713 459 C 690 440 684 419 712 430 Z" style="fill: #0070C0;"></path>
                                                                        <path d="M 713 459 Q 720 645 743 677 Q 750 699 732 713 Q 704 738 665 747 Q 646 751 637 742 Q 630 732 637 723 Q 658 704 662 632 Q 649 307 670 203 Q 673 182 685 155 Q 715 98 838 92 Q 949 91 987 126 Q 1003 139 985 168 Q 966 217 959 280 Q 958 290 950 300 Q 940 306 937 282 Q 900 167 885 158 Q 879 157 874 155 Q 808 139 758 157 Q 731 164 722 197 Q 704 249 712 430 L 713 459 Z" style="fill: #0070C0;"></path>
                                    
                                    
                                                                                                                                                                                                                                                                                                                                                                                                                                                                                                                                                                                                                                                                                                                                                                                                                                                                    </g>
                            </svg>