<svg width='83' height='83' >
                                <g transform="translate(3, 70) scale(0.07, -0.07)">
                                    <!-- 先将完整的字以灰色字体绘制完成，层级位于下面 -->
                                                                        <path d="M 281 639 Q 395 772 414 786 Q 432 801 418 815 Q 402 828 373 836 Q 348 843 336 838 Q 323 834 331 821 Q 341 796 263 642 Q 262 638 261 635 C 252 606 261 616 281 639 Z" style="fill: #0070C0;"></path>
                                                                        <path d="M 255 633 Q 239 646 213 654 Q 195 661 185 656 Q 175 649 182 637 Q 200 619 206 546 Q 206 539 207 529 Q 211 453 207 383 L 202 335 Q 187 197 103 36 Q 99 30 98 24 Q 97 14 106 18 Q 118 19 150 69 Q 222 168 248 345 Q 248 348 249 351 L 253 394 Q 256 445 257 573 Q 257 589 259 605 C 261 629 261 629 255 633 Z" style="fill: #0070C0;"></path>
                                                                        <path d="M 385 400 Q 389 124 373 96 Q 369 90 348 95 Q 320 99 290 104 Q 271 108 273 100 Q 334 60 370 29 Q 383 13 397 8 Q 404 5 412 14 Q 448 60 443 109 Q 416 542 435 602 Q 436 608 439 612 Q 449 630 439 639 Q 420 655 386 669 Q 370 676 356 669 Q 332 654 281 639 L 261 635 Q 257 635 255 633 C 226 626 230 597 259 605 Q 268 608 347 627 Q 365 631 370 622 Q 379 598 384 427 L 385 400 Z" style="fill: #0070C0;"></path>
                                                                        <path d="M 284 535 Q 306 471 327 463 Q 337 459 348 471 Q 352 481 351 501 Q 342 528 295 556 Q 288 560 284 550 Q 280 544 284 535 Z" style="fill: #0070C0;"></path>
                                                                        <path d="M 249 351 Q 379 399 385 400 C 414 409 413 434 384 427 Q 321 412 253 394 L 207 383 Q 167 376 126 366 Q 105 362 73 364 Q 60 363 58 354 Q 55 341 64 333 Q 83 317 114 296 Q 124 293 136 300 Q 167 321 202 335 L 249 351 Z" style="fill: #0070C0;"></path>
                                                                        <path d="M 282 280 Q 297 258 312 230 Q 319 217 331 214 Q 338 213 345 221 Q 352 231 352 255 Q 352 271 332 288 Q 284 325 272 322 Q 268 321 266 311 Q 266 301 282 280 Z" style="fill: #0070C0;"></path>
                                                                        <path d="M 546 701 Q 527 714 507 721 Q 498 722 493 715 Q 490 711 496 700 Q 523 643 509 452 Q 505 421 495 389 Q 488 367 492 349 Q 499 319 510 307 Q 520 295 529 308 Q 553 336 554 444 Q 554 618 562 674 C 564 690 564 690 546 701 Z" style="fill: #0070C0;"></path>
                                                                        <path d="M 728 384 Q 721 360 735 339 Q 748 309 758 310 Q 773 311 789 344 Q 802 371 802 392 Q 790 480 792 620 Q 792 660 814 695 Q 824 711 816 720 Q 788 742 740 761 Q 722 767 650 730 Q 565 706 546 701 C 517 693 533 665 562 674 Q 706 719 720 714 L 722 713 Q 732 688 737 622 Q 740 423 728 384 Z" style="fill: #0070C0;"></path>
                                                                        <path d="M 646 364 Q 653 422 661 516 Q 662 550 677 589 Q 681 599 674 605 Q 626 644 598 635 Q 582 628 595 614 Q 617 589 617 564 Q 617 437 601 353 Q 574 211 481 112 Q 454 91 453 85 Q 449 79 463 81 Q 491 81 554 145 Q 605 199 639 330 L 646 364 Z" style="fill: #0070C0;"></path>
                                                                        <path d="M 986 73 Q 968 119 958 198 Q 957 213 949 218 Q 942 222 938 203 Q 923 106 909 88 Q 887 64 795 59 Q 746 60 723 68 Q 704 77 699 89 Q 690 114 692 180 Q 696 250 711 285 Q 723 313 705 330 Q 662 363 646 364 C 626 372 630 359 639 330 Q 652 299 649 252 Q 643 86 669 53 Q 688 28 750 17 Q 798 10 874 12 Q 941 13 969 28 Q 997 43 986 73 Z" style="fill: #0070C0;"></path>
                                    
                                    
                                                                                                                                                                                                                                                                                                                                                                                                                                                                                                                                                                                                                                                                                                                                                                                                                                                                    </g>
                            </svg>