<svg width='83' height='83' >
                                <g transform="translate(3, 70) scale(0.07, -0.07)">
                                    <!-- 先将完整的字以灰色字体绘制完成，层级位于下面 -->
                                                                        <path d="M 233 615 Q 276 655 299 682 Q 350 742 373 758 Q 391 771 377 786 Q 361 799 333 809 Q 308 816 296 812 Q 283 808 291 796 Q 298 775 258 692 Q 240 661 220 623 C 206 596 211 595 233 615 Z" style="fill: #0070C0;"></path>
                                                                        <path d="M 238 612 Q 237 613 233 615 L 220 623 Q 187 639 173 632 Q 163 625 170 614 Q 188 595 193 527 Q 193 386 192 370 L 188 324 Q 172 185 84 16 Q 80 10 79 4 Q 78 -6 86 -2 Q 98 -1 130 48 Q 199 141 233 338 L 238 379 Q 242 434 243 486 Q 243 561 248 585 C 251 604 251 604 238 612 Z" style="fill: #0070C0;"></path>
                                                                        <path d="M 370 378 Q 371 90 357 63 Q 354 62 286 65 Q 267 68 269 59 Q 324 23 354 -4 Q 367 -20 382 -24 Q 389 -27 397 -18 Q 433 30 427 77 Q 418 204 415 391 L 414 418 Q 410 575 422 599 Q 432 617 421 626 Q 402 642 368 654 Q 352 661 307 635 Q 282 623 238 612 C 209 604 219 576 248 585 Q 293 600 332 611 Q 345 617 354 610 Q 364 600 365 563 Q 368 481 369 407 L 370 378 Z" style="fill: #0070C0;"></path>
                                                                        <path d="M 273 509 Q 304 446 325 437 Q 335 434 343 447 Q 347 456 343 473 Q 334 503 282 529 Q 275 532 272 523 Q 271 517 273 509 Z" style="fill: #0070C0;"></path>
                                                                        <path d="M 233 338 Q 300 359 370 378 L 415 391 Q 463 409 466 423 Q 462 427 450 427 Q 431 423 414 418 L 369 407 Q 305 394 238 379 L 192 370 Q 159 366 126 358 Q 104 354 66 357 Q 54 357 52 348 Q 48 336 56 328 Q 75 312 103 291 Q 112 287 124 294 Q 154 312 188 324 L 233 338 Z" style="fill: #0070C0;"></path>
                                                                        <path d="M 263 281 Q 302 214 321 208 Q 331 205 338 219 Q 342 229 337 245 Q 331 261 312 274 Q 284 296 270 301 Q 263 304 261 295 Q 258 289 263 281 Z" style="fill: #0070C0;"></path>
                                                                        <path d="M 643 623 Q 671 699 680 710 Q 686 717 682 726 Q 670 751 629 755 Q 608 758 598 753 Q 591 749 595 738 Q 625 672 535 499 Q 532 498 531 493 Q 506 447 435 351 Q 428 345 439 344 Q 512 377 592 515 Q 593 519 597 523 Q 613 554 633 599 L 643 623 Z" style="fill: #0070C0;"></path>
                                                                        <path d="M 633 599 Q 705 497 800 390 Q 816 374 844 375 Q 937 379 966 386 Q 975 389 976 393 Q 976 397 964 404 Q 822 456 750 523 Q 699 568 643 623 C 622 644 616 623 633 599 Z" style="fill: #0070C0;"></path>
                                                                        <path d="M 587 430 Q 641 358 669 354 Q 682 353 689 370 Q 690 382 682 402 Q 672 421 648 431 Q 609 452 592 455 Q 583 456 582 446 Q 581 439 587 430 Z" style="fill: #0070C0;"></path>
                                                                        <path d="M 659 117 Q 759 243 803 265 Q 822 272 815 288 Q 811 303 745 334 Q 726 341 705 332 Q 650 310 563 284 Q 541 277 486 278 Q 464 278 472 259 Q 479 246 498 236 Q 528 220 559 240 Q 580 247 682 288 Q 697 292 710 285 Q 723 275 716 261 Q 682 198 642 125 C 628 99 640 94 659 117 Z" style="fill: #0070C0;"></path>
                                                                        <path d="M 642 125 Q 590 150 561 160 Q 552 164 551 153 Q 551 140 561 131 Q 619 82 687 8 Q 703 -11 718 -14 Q 725 -15 733 -6 Q 745 7 732 49 Q 722 88 659 117 L 642 125 Z" style="fill: #0070C0;"></path>
                                    
                                    
                                                                                                                                                                                                                                                                                                                                                                                                                                                                                                                                                                                                                                                                                                                                                                                                                                                                                                                                                </g>
                            </svg>