<svg width='83' height='83' >
                                <g transform="translate(3, 70) scale(0.07, -0.07)">
                                    <!-- 先将完整的字以灰色字体绘制完成，层级位于下面 -->
                                                                        <path d="M 264 651 Q 282 670 355 754 Q 368 772 388 786 Q 404 799 391 812 Q 376 825 350 832 Q 326 839 316 834 Q 306 830 311 819 Q 320 798 257 678 Q 247 663 239 646 C 226 619 244 629 264 651 Z" style="fill: #0070C0;"></path>
                                                                        <path d="M 233 644 Q 220 654 197 662 Q 178 671 167 665 Q 157 658 164 645 Q 179 630 186 562 Q 185 474 182 383 L 176 337 Q 152 193 72 49 Q 68 42 67 37 Q 66 27 75 30 Q 108 37 172 169 Q 179 187 188 207 Q 224 306 225 353 L 230 392 Q 230 516 242 601 Q 242 607 244 614 C 247 636 247 636 233 644 Z" style="fill: #0070C0;"></path>
                                                                        <path d="M 349 393 Q 350 116 333 88 Q 329 82 310 87 Q 285 93 258 99 Q 239 105 241 96 Q 295 50 325 15 Q 338 -4 352 -8 Q 361 -12 369 -2 Q 408 43 406 96 Q 382 565 406 615 Q 406 616 408 618 Q 420 637 408 646 Q 387 664 353 678 Q 335 685 321 678 Q 293 662 276 655 Q 270 654 264 651 L 239 646 Q 236 646 233 644 C 204 637 215 606 244 614 Q 248 617 251 617 Q 282 624 312 634 Q 330 638 335 630 Q 347 597 348 419 L 349 393 Z" style="fill: #0070C0;"></path>
                                                                        <path d="M 258 536 Q 288 475 308 469 Q 318 465 327 479 Q 331 489 326 508 Q 317 535 267 557 Q 260 560 257 551 Q 254 544 258 536 Z" style="fill: #0070C0;"></path>
                                                                        <path d="M 225 353 Q 337 390 349 393 C 378 401 377 425 348 419 Q 291 407 230 392 L 182 383 Q 140 376 97 366 Q 78 362 46 366 Q 33 365 31 356 Q 28 344 36 336 Q 55 320 83 300 Q 93 296 104 303 Q 138 324 176 337 L 225 353 Z" style="fill: #0070C0;"></path>
                                                                        <path d="M 253 284 Q 290 224 299 222 Q 306 221 313 229 Q 320 239 320 263 Q 320 285 260 321 Q 250 327 244 326 Q 240 325 238 315 Q 238 305 253 284 Z" style="fill: #0070C0;"></path>
                                                                        <path d="M 675 620 Q 775 696 803 702 Q 822 709 816 724 Q 813 740 750 776 Q 732 786 710 778 Q 658 759 578 735 Q 557 728 507 730 Q 485 731 492 711 Q 499 699 518 688 Q 545 673 582 691 Q 693 742 710 732 Q 720 725 716 712 Q 689 675 659 630 C 642 605 651 602 675 620 Z" style="fill: #0070C0;"></path>
                                                                        <path d="M 705 565 Q 693 610 675 620 L 659 630 Q 652 634 641 637 Q 623 641 615 636 Q 605 629 617 619 Q 648 600 660 563 Q 660 560 661 557 L 667 523 Q 671 460 659 429 Q 649 405 620 408 Q 589 411 563 415 Q 553 416 558 407 Q 562 401 581 392 Q 621 368 635 347 Q 645 332 659 336 Q 669 337 690 362 Q 729 410 715 518 Q 714 524 713 528 L 705 565 Z" style="fill: #0070C0;"></path>
                                                                        <path d="M 713 528 Q 765 534 832 535 Q 877 535 884 544 Q 888 554 874 564 Q 825 598 772 581 Q 742 575 705 565 L 661 557 Q 651 556 644 554 Q 557 539 454 523 Q 436 520 450 507 Q 477 483 507 492 Q 588 516 667 523 L 713 528 Z" style="fill: #0070C0;"></path>
                                                                        <path d="M 497 298 Q 485 304 456 309 Q 444 312 441 307 Q 434 301 443 285 Q 470 227 485 134 Q 486 115 496 98 C 510 71 530 71 531 101 Q 532 117 529 142 Q 516 230 512 262 C 508 292 508 293 497 298 Z" style="fill: #0070C0;"></path>
                                                                        <path d="M 833 141 Q 858 241 885 281 Q 895 291 892 303 Q 885 319 826 347 Q 810 354 796 350 Q 660 320 497 298 C 467 294 483 254 512 262 Q 569 277 580 278 L 601 282 Q 637 291 677 297 L 709 302 Q 775 317 794 307 Q 801 301 801 282 Q 792 219 774 131 C 768 102 826 112 833 141 Z" style="fill: #0070C0;"></path>
                                                                        <path d="M 625 111 Q 637 144 610 259 Q 609 272 601 282 C 584 307 577 308 580 278 Q 586 224 585 206 Q 585 131 606 110 C 620 94 620 94 625 111 Z" style="fill: #0070C0;"></path>
                                                                        <path d="M 698 120 Q 719 226 732 253 Q 738 269 730 280 Q 720 293 709 302 C 686 322 670 326 677 297 Q 684 269 684 242 Q 683 215 666 116 C 661 86 692 91 698 120 Z" style="fill: #0070C0;"></path>
                                                                        <path d="M 496 98 Q 462 97 428 92 Q 409 91 422 74 Q 452 47 484 55 Q 697 106 912 85 Q 915 86 919 85 Q 938 85 942 92 Q 946 102 932 116 Q 881 155 833 141 L 774 131 Q 737 127 698 120 L 666 116 Q 665 117 662 116 Q 643 115 625 111 L 606 110 Q 569 107 531 101 L 496 98 Z" style="fill: #0070C0;"></path>
                                    
                                    
                                                                                                                                                                                                                                                                                                                                                                                                                                                                                                                                                                                                                                                                                                                                                                                                                                                                                                                                                                                                                                                                                                                                                                                    </g>
                            </svg>