<svg width='83' height='83' >
                                <g transform="translate(3, 70) scale(0.07, -0.07)">
                                    <!-- 先将完整的字以灰色字体绘制完成，层级位于下面 -->
                                                                        <path d="M 430 700 Q 521 793 524 803 Q 523 804 523 806 Q 522 819 498 845 Q 476 867 458 870 Q 440 871 444 849 Q 451 825 439 808 Q 405 747 356 694 Q 310 643 247 588 Q 237 581 233 574 Q 229 564 242 565 Q 278 565 416 687 L 430 700 Z" style="fill: #0070C0;"></path>
                                                                        <path d="M 503 532 Q 632 662 663 680 Q 682 690 670 705 Q 657 718 618 741 Q 600 748 585 738 Q 575 734 486 709 Q 461 702 430 700 C 402 698 402 698 416 687 Q 425 675 450 673 Q 463 672 550 688 Q 560 691 564 687 Q 568 683 562 672 Q 516 588 488 549 Q 478 533 475 525 C 462 498 482 511 503 532 Z" style="fill: #0070C0;"></path>
                                                                        <path d="M 683 364 Q 716 461 753 491 Q 772 512 756 532 Q 737 548 677 576 Q 656 585 631 575 Q 564 550 503 532 L 475 525 Q 471 525 469 524 Q 381 505 287 491 C 257 486 280 448 309 456 Q 316 457 326 461 Q 387 474 450 487 L 486 494 Q 541 507 596 518 Q 630 528 645 513 Q 655 503 653 482 Q 641 421 628 372 C 621 343 673 336 683 364 Z" style="fill: #0070C0;"></path>
                                                                        <path d="M 450 487 Q 450 484 452 481 Q 455 472 445 329 C 443 299 486 309 491 339 Q 506 429 511 440 Q 518 456 512 467 Q 499 483 486 494 C 463 514 441 516 450 487 Z" style="fill: #0070C0;"></path>
                                                                        <path d="M 280 271 Q 292 268 333 273 Q 450 303 691 331 Q 703 332 704 342 Q 704 349 683 364 L 628 372 Q 624 373 621 372 Q 554 354 491 339 L 445 329 Q 357 313 281 301 C 251 296 250 273 280 271 Z" style="fill: #0070C0;"></path>
                                                                        <path d="M 915 92 Q 893 150 881 252 Q 878 268 870 274 Q 860 280 857 257 Q 845 131 828 108 Q 773 47 536 49 Q 407 56 353 79 Q 305 106 296 138 Q 281 175 280 271 L 281 301 Q 287 389 304 433 Q 308 446 309 456 C 314 474 312 475 287 491 Q 239 525 224 521 Q 208 514 216 495 Q 238 455 234 394 Q 230 157 255 105 Q 288 20 447 0 Q 546 -13 701 -3 Q 840 7 895 38 Q 929 56 915 92 Z" style="fill: #0070C0;"></path>
                                    
                                    
                                                                                                                                                                                                                                                                                                                                                                                                                                                                                                                                                    </g>
                            </svg>