<svg width='83' height='83' >
                                <g transform="translate(3, 70) scale(0.07, -0.07)">
                                    <!-- 先将完整的字以灰色字体绘制完成，层级位于下面 -->
                                                                        <path d="M 638 650 Q 686 659 825 651 Q 841 650 847 659 Q 851 671 838 686 Q 790 729 701 707 Q 679 704 656 699 L 600 690 Q 509 677 411 664 L 362 658 Q 268 649 164 638 Q 133 635 155 619 Q 197 594 271 605 Q 320 618 370 625 L 413 632 Q 495 642 590 647 L 638 650 Z" style="fill: #0070C0;"></path>
                                                                        <path d="M 411 664 Q 408 706 407 738 Q 408 757 388 764 Q 349 785 325 778 Q 306 769 321 749 Q 360 698 362 658 L 370 625 Q 379 567 395 548 Q 408 538 414 549 Q 417 561 413 632 L 411 664 Z" style="fill: #0070C0;"></path>
                                                                        <path d="M 656 699 Q 659 723 688 775 Q 703 791 691 801 Q 678 819 641 835 Q 625 844 606 834 Q 596 827 605 816 Q 620 783 600 690 L 590 647 Q 572 581 574 560 Q 575 545 592 557 Q 601 566 638 650 L 656 699 Z" style="fill: #0070C0;"></path>
                                                                        <path d="M 277 454 Q 262 453 259 444 Q 256 437 265 432 Q 299 422 335 427 Q 453 458 484 462 Q 508 463 509 456 Q 513 444 494 427 Q 296 229 279 138 Q 278 134 277 128 Q 281 80 318 50 Q 411 -28 625 -23 Q 743 -20 881 38 Q 915 54 905 79 Q 880 151 867 267 Q 861 282 854 281 Q 848 281 843 264 Q 837 222 832 177 Q 823 113 777 85 Q 719 52 584 48 Q 451 42 398 67 Q 352 89 337 135 Q 328 226 503 372 Q 557 417 606 433 Q 634 442 626 456 Q 620 474 571 508 Q 553 524 522 513 Q 392 464 277 454 Z" style="fill: #0070C0;"></path>
                                    
                                    
                                                                                                                                                                                                                                                                                                                                                                                            </g>
                            </svg>