<svg width='83' height='83' >
                                <g transform="translate(3, 70) scale(0.07, -0.07)">
                                    <!-- 先将完整的字以灰色字体绘制完成，层级位于下面 -->
                                                                        <path d="M 347 610 Q 299 606 229 595 Q 202 596 188 596 Q 178 596 176 592 Q 173 583 180 575 Q 193 562 221 550 Q 239 541 255 547 Q 303 563 356 582 C 384 592 377 613 347 610 Z" style="fill: #0070C0;"></path>
                                                                        <path d="M 418 450 Q 418 457 390 680 Q 391 701 369 705 Q 330 723 305 715 Q 287 705 304 686 Q 332 650 347 610 L 356 582 Q 362 569 378 475 Q 382 460 391 448 C 407 423 421 420 418 450 Z" style="fill: #0070C0;"></path>
                                                                        <path d="M 625 486 Q 634 501 674 606 L 685 640 Q 695 670 715 705 Q 728 720 718 730 Q 705 746 670 763 Q 654 772 636 763 Q 626 756 635 745 Q 656 694 598 508 Q 594 492 593 479 C 590 449 611 459 625 486 Z" style="fill: #0070C0;"></path>
                                                                        <path d="M 674 606 Q 689 603 760 609 Q 805 609 830 606 Q 843 605 848 613 Q 852 623 840 635 Q 795 671 711 645 Q 698 644 685 640 C 656 632 644 610 674 606 Z" style="fill: #0070C0;"></path>
                                                                        <path d="M 538 423 Q 586 432 726 444 Q 736 441 747 455 Q 748 468 725 480 Q 685 504 627 487 Q 626 487 625 486 L 593 479 Q 565 475 538 468 L 489 459 Q 452 455 418 450 L 391 448 Q 342 444 290 439 Q 259 436 282 417 Q 318 387 348 393 Q 411 405 488 415 L 538 423 Z" style="fill: #0070C0;"></path>
                                                                        <path d="M 539 277 Q 680 287 853 277 Q 875 277 882 286 Q 889 299 870 316 Q 813 362 769 354 Q 681 339 538 321 L 485 315 Q 338 302 167 285 Q 143 284 160 263 Q 194 229 239 237 Q 390 273 484 274 L 539 277 Z" style="fill: #0070C0;"></path>
                                                                        <path d="M 484 -8 Q 490 -35 497 -45 Q 503 -52 511 -50 Q 526 -41 533 22 Q 537 82 539 277 L 538 321 Q 538 364 538 423 L 538 468 Q 538 690 554 776 Q 558 795 543 804 Q 509 826 492 830 Q 479 834 462 825 Q 453 816 461 806 Q 488 746 491 723 Q 491 554 489 459 L 488 415 Q 487 369 485 315 L 484 274 Q 472 115 484 -8 Z" style="fill: #0070C0;"></path>
                                    
                                    
                                                                                                                                                                                                                                                                                                                                                                                                                                                                                                                                                                                                                                </g>
                            </svg>