<svg width='83' height='83' >
                                <g transform="translate(3, 70) scale(0.07, -0.07)">
                                    <!-- 先将完整的字以灰色字体绘制完成，层级位于下面 -->
                                                                        <path d="M 629 685 Q 738 694 836 685 Q 852 684 858 694 Q 864 706 850 721 Q 796 764 704 745 Q 679 742 654 737 L 600 728 Q 524 719 439 707 L 392 702 Q 295 693 189 683 Q 158 680 179 663 Q 221 636 299 647 Q 348 660 400 667 L 441 672 Q 510 681 587 683 L 629 685 Z" style="fill: #0070C0;"></path>
                                                                        <path d="M 439 707 Q 435 744 435 772 Q 436 791 416 797 Q 379 818 355 809 Q 337 800 352 781 Q 379 748 392 702 L 400 667 Q 406 633 423 616 Q 436 606 441 617 Q 448 638 441 672 L 439 707 Z" style="fill: #0070C0;"></path>
                                                                        <path d="M 654 737 Q 672 774 683 790 Q 696 803 687 814 Q 677 830 643 848 Q 628 858 611 850 Q 601 844 608 833 Q 618 809 600 728 L 587 683 Q 577 662 579 639 Q 580 626 595 636 Q 596 637 629 685 L 654 737 Z" style="fill: #0070C0;"></path>
                                                                        <path d="M 657 468 Q 688 525 714 536 Q 732 554 718 572 Q 702 587 652 615 Q 636 624 613 617 Q 492 574 333 561 Q 317 560 318 550 Q 319 543 338 535 Q 363 525 398 534 Q 495 550 589 568 Q 614 572 623 563 Q 630 554 626 540 Q 614 501 602 469 C 592 441 642 442 657 468 Z" style="fill: #0070C0;"></path>
                                                                        <path d="M 408 399 Q 501 418 675 430 Q 685 431 687 440 Q 688 447 658 468 L 657 468 L 602 469 Q 485 444 388 430 C 358 426 379 393 408 399 Z" style="fill: #0070C0;"></path>
                                                                        <path d="M 310 216 Q 398 271 576 293 Q 615 305 638 298 Q 663 291 666 251 Q 648 163 598 97 Q 574 60 554 52 Q 529 43 493 55 Q 462 58 439 60 Q 418 67 418 58 Q 418 51 435 39 Q 486 -1 520 -39 Q 533 -51 543 -49 Q 559 -48 578 -33 Q 633 7 662 60 Q 693 112 726 218 Q 730 254 744 273 Q 759 288 747 302 Q 728 321 685 342 Q 663 352 634 344 Q 598 334 570 328 Q 488 315 385 298 Q 354 292 368 323 Q 392 375 402 388 Q 406 394 408 399 C 419 417 416 418 388 430 Q 372 439 351 445 Q 330 452 318 444 Q 308 437 321 416 Q 342 385 298 307 Q 289 297 272 283 Q 254 264 258 246 Q 262 230 280 214 Q 295 202 310 216 Z" style="fill: #0070C0;"></path>
                                    
                                    
                                                                                                                                                                                                                                                                                                                                                                                                                                                                                                                                                    </g>
                            </svg>