<svg width='83' height='83' >
                                <g transform="translate(3, 70) scale(0.07, -0.07)">
                                    <!-- 先将完整的字以灰色字体绘制完成，层级位于下面 -->
                                                                        <path d="M 653 631 Q 722 643 838 635 Q 854 634 859 643 Q 863 655 850 670 Q 799 713 704 688 Q 688 687 672 682 L 613 672 Q 526 660 429 645 L 377 638 Q 290 629 195 618 Q 165 615 186 599 Q 234 572 313 589 Q 347 598 384 604 L 431 611 Q 438 620 601 628 L 653 631 Z" style="fill: #0070C0;"></path>
                                                                        <path d="M 429 645 Q 426 688 425 722 Q 428 744 405 751 Q 360 773 337 766 Q 318 756 334 735 Q 367 692 376 643 Q 376 642 377 638 L 384 604 Q 396 538 411 521 Q 426 508 430 522 Q 436 538 431 611 L 429 645 Z" style="fill: #0070C0;"></path>
                                                                        <path d="M 672 682 Q 693 734 711 767 Q 727 783 716 794 Q 703 813 664 832 Q 645 842 626 832 Q 616 825 624 813 Q 639 774 613 672 L 601 628 Q 577 550 578 528 Q 579 512 597 525 Q 609 535 653 631 L 672 682 Z" style="fill: #0070C0;"></path>
                                                                        <path d="M 464 463 Q 513 406 549 393 Q 565 390 575 405 Q 581 418 578 436 Q 566 481 477 504 Q 459 508 449 505 Q 442 504 446 490 Q 447 477 464 463 Z" style="fill: #0070C0;"></path>
                                                                        <path d="M 368 309 Q 518 337 875 338 Q 897 338 903 348 Q 910 361 891 376 Q 828 424 761 405 Q 539 368 134 320 Q 112 319 128 299 Q 161 266 205 276 Q 250 289 299 297 L 368 309 Z" style="fill: #0070C0;"></path>
                                                                        <path d="M 299 297 Q 300 293 307 287 Q 349 220 323 84 Q 317 65 297 41 Q 273 11 317 -16 Q 336 -25 349 -8 Q 490 61 791 39 Q 819 38 830 52 Q 839 64 813 80 Q 741 134 671 110 Q 521 88 418 63 Q 366 45 380 92 Q 381 218 395 269 Q 405 284 396 295 Q 389 302 368 309 C 341 321 282 322 299 297 Z" style="fill: #0070C0;"></path>
                                    
                                    
                                                                                                                                                                                                                                                                                                                                                                                                                                                                                                                                                    </g>
                            </svg>