<svg width='83' height='83' >
                                <g transform="translate(3, 70) scale(0.07, -0.07)">
                                    <!-- 先将完整的字以灰色字体绘制完成，层级位于下面 -->
                                                                        <path d="M 628 670 Q 703 682 829 673 Q 845 672 851 682 Q 855 694 842 709 Q 790 754 692 729 Q 670 728 649 722 L 588 712 Q 506 700 420 688 L 368 681 Q 286 674 196 663 Q 165 660 187 644 Q 233 614 291 625 Q 334 637 378 644 L 423 652 Q 469 661 577 668 L 628 670 Z" style="fill: #0070C0;"></path>
                                                                        <path d="M 420 688 Q 416 722 414 750 Q 415 771 394 776 Q 354 797 328 788 Q 309 778 325 757 Q 355 724 368 681 L 378 644 Q 393 590 406 576 Q 421 566 425 578 Q 428 591 423 652 L 420 688 Z" style="fill: #0070C0;"></path>
                                                                        <path d="M 649 722 Q 649 723 650 723 Q 660 748 678 780 Q 694 796 683 807 Q 670 826 633 844 Q 615 854 596 845 Q 586 838 594 826 Q 606 799 588 712 L 577 668 Q 556 605 558 580 Q 559 565 576 577 Q 592 592 628 670 L 649 722 Z" style="fill: #0070C0;"></path>
                                                                        <path d="M 380 467 Q 396 492 413 514 Q 423 524 409 539 Q 372 569 347 567 Q 337 566 338 551 Q 350 461 246 356 Q 230 340 221 327 Q 214 314 227 317 Q 243 320 264 335 Q 324 380 360 435 L 380 467 Z" style="fill: #0070C0;"></path>
                                                                        <path d="M 360 435 Q 381 420 405 427 Q 492 457 589 475 Q 638 485 655 480 Q 665 473 663 466 Q 664 460 606 389 Q 597 379 601 372 Q 604 366 619 376 Q 734 434 782 445 Q 794 446 796 455 Q 797 470 767 489 Q 745 505 720 523 Q 692 542 674 536 Q 563 494 380 467 C 350 463 333 449 360 435 Z" style="fill: #0070C0;"></path>
                                                                        <path d="M 514 287 Q 526 353 535 363 Q 544 376 534 386 Q 521 401 492 406 Q 470 415 451 408 Q 438 404 446 388 Q 473 352 454 282 Q 439 180 352 109 Q 301 67 191 23 Q 173 11 195 11 Q 327 14 415 94 Q 472 146 505 253 L 514 287 Z" style="fill: #0070C0;"></path>
                                                                        <path d="M 505 253 Q 584 142 672 39 Q 694 11 738 6 Q 816 -4 898 4 Q 919 5 921 10 Q 924 17 908 25 Q 725 112 717 116 Q 645 161 564 237 Q 533 270 514 287 C 492 307 488 277 505 253 Z" style="fill: #0070C0;"></path>
                                    
                                    
                                                                                                                                                                                                                                                                                                                                                                                                                                                                                                                                                                                                                                </g>
                            </svg>