<svg width='83' height='83' >
                                <g transform="translate(3, 70) scale(0.07, -0.07)">
                                    <!-- 先将完整的字以灰色字体绘制完成，层级位于下面 -->
                                                                        <path d="M 629 677 Q 710 686 804 677 Q 820 676 826 686 Q 832 698 818 713 Q 763 761 670 735 Q 661 735 653 732 L 596 724 Q 505 712 402 698 L 351 692 Q 284 686 213 679 Q 182 676 203 659 Q 248 631 321 644 Q 340 648 361 651 L 405 659 Q 462 672 582 675 L 629 677 Z" style="fill: #0070C0;"></path>
                                                                        <path d="M 402 698 Q 401 729 399 754 Q 400 775 380 781 Q 337 800 317 794 Q 298 784 314 765 Q 341 732 351 692 L 361 651 Q 374 588 387 576 Q 400 566 405 577 Q 409 592 405 659 L 402 698 Z" style="fill: #0070C0;"></path>
                                                                        <path d="M 653 732 Q 653 733 654 733 Q 663 755 680 784 Q 695 799 685 809 Q 672 827 638 844 Q 622 854 605 845 Q 595 839 602 828 Q 614 801 596 724 L 582 675 Q 566 617 567 603 Q 568 590 584 600 Q 599 615 629 677 L 653 732 Z" style="fill: #0070C0;"></path>
                                                                        <path d="M 519 535 Q 523 541 529 544 Q 536 548 537 559 Q 533 590 494 607 Q 475 617 462 617 Q 453 616 454 603 Q 457 522 306 375 Q 290 360 273 346 Q 222 303 99 224 Q 89 220 100 215 Q 164 215 306 316 Q 409 407 502 516 L 519 535 Z" style="fill: #0070C0;"></path>
                                                                        <path d="M 502 516 Q 617 398 741 290 Q 766 266 808 266 Q 883 266 960 285 Q 979 288 981 293 Q 984 300 967 306 Q 910 325 845 344 Q 716 383 525 531 Q 521 534 519 535 C 495 553 481 537 502 516 Z" style="fill: #0070C0;"></path>
                                                                        <path d="M 461 366 Q 485 350 510 327 Q 523 317 539 318 Q 549 319 553 332 Q 556 347 545 375 Q 533 399 453 412 Q 437 413 432 411 Q 428 407 430 395 Q 434 385 461 366 Z" style="fill: #0070C0;"></path>
                                                                        <path d="M 337 242 Q 306 243 307 236 Q 300 220 326 206 Q 354 184 370 186 Q 388 186 414 199 Q 585 268 605 240 Q 611 228 598 210 Q 589 197 569 152 Q 535 85 520 73 Q 489 49 500 -3 Q 503 -22 512 -28 Q 521 -32 534 -22 Q 564 -3 636 165 Q 657 211 687 231 Q 696 238 696 247 Q 697 260 665 281 Q 631 303 615 305 Q 608 305 599 299 Q 503 256 337 242 Z" style="fill: #0070C0;"></path>
                                    
                                    
                                                                                                                                                                                                                                                                                                                                                                                                                                                                                                                                                                                                                                </g>
                            </svg>