<svg width='83' height='83' >
                                <g transform="translate(3, 70) scale(0.07, -0.07)">
                                    <!-- 先将完整的字以灰色字体绘制完成，层级位于下面 -->
                                                                        <path d="M 649 690 Q 697 699 817 691 Q 833 690 839 699 Q 843 711 830 726 Q 782 769 684 745 Q 678 745 672 743 L 606 733 Q 518 720 419 707 L 365 700 Q 295 694 220 686 Q 189 683 211 667 Q 254 642 328 653 Q 349 659 373 663 L 420 671 Q 453 683 595 688 L 649 690 Z" style="fill: #0070C0;"></path>
                                                                        <path d="M 419 707 Q 418 729 418 749 Q 421 768 400 776 Q 360 798 337 791 Q 318 784 333 762 Q 355 734 365 700 L 373 663 Q 379 638 382 613 Q 386 591 400 576 Q 413 564 418 577 Q 425 596 422 620 Q 421 647 420 671 L 419 707 Z" style="fill: #0070C0;"></path>
                                                                        <path d="M 672 743 Q 679 761 693 780 Q 709 796 698 807 Q 685 826 649 844 Q 631 854 612 846 Q 602 839 610 827 Q 622 797 606 733 L 595 688 Q 570 588 570 584 Q 571 569 588 581 Q 606 596 649 690 L 672 743 Z" style="fill: #0070C0;"></path>
                                                                        <path d="M 467 564 Q 506 516 538 502 Q 554 499 563 513 Q 569 526 566 543 Q 560 567 542 580 Q 484 617 453 604 Q 447 603 450 590 Q 451 578 467 564 Z" style="fill: #0070C0;"></path>
                                                                        <path d="M 524 432 Q 611 441 914 441 Q 936 441 943 450 Q 950 463 931 480 Q 871 523 828 516 Q 647 483 119 425 Q 94 424 112 403 Q 145 370 191 379 Q 375 427 468 426 L 524 432 Z" style="fill: #0070C0;"></path>
                                                                        <path d="M 517 350 Q 536 331 596 318 Q 635 309 635 275 Q 632 263 628 242 Q 589 77 533 56 Q 518 50 474 65 Q 434 81 430 74 Q 424 64 443 53 Q 488 17 499 -20 Q 503 -36 516 -44 Q 529 -50 565 -27 Q 622 18 667 170 Q 688 248 712 262 Q 725 266 726 276 Q 729 286 705 314 Q 672 350 620 350 Q 584 356 536 374 C 508 384 493 367 517 350 Z" style="fill: #0070C0;"></path>
                                                                        <path d="M 536 374 Q 540 378 544 382 Q 554 389 550 402 Q 546 412 524 432 C 502 453 473 456 468 426 Q 452 297 290 170 Q 287 169 284 166 Q 238 129 127 70 Q 117 64 124 60 Q 131 56 144 58 Q 217 74 284 110 Q 399 165 504 331 Q 510 341 517 350 L 536 374 Z" style="fill: #0070C0;"></path>
                                    
                                    
                                                                                                                                                                                                                                                                                                                                                                                                                                                                                                                                                                                                                                </g>
                            </svg>