<svg width='83' height='83' >
                                <g transform="translate(3, 70) scale(0.07, -0.07)">
                                    <!-- 先将完整的字以灰色字体绘制完成，层级位于下面 -->
                                                                        <path d="M 637 636 Q 743 646 829 641 Q 845 640 851 650 Q 857 662 842 677 Q 788 722 683 694 Q 668 693 655 689 L 595 678 Q 513 666 423 652 L 371 645 Q 286 635 196 624 Q 165 620 187 604 Q 232 574 315 593 Q 346 602 381 607 L 427 615 Q 439 624 587 632 L 637 636 Z" style="fill: #0070C0;"></path>
                                                                        <path d="M 423 652 Q 419 688 418 717 Q 419 739 397 744 Q 358 765 331 756 Q 312 746 329 726 Q 360 689 371 645 L 381 607 Q 393 544 411 524 Q 424 514 430 526 Q 437 547 432 571 Q 429 593 427 615 L 423 652 Z" style="fill: #0070C0;"></path>
                                                                        <path d="M 655 689 Q 664 717 682 754 Q 697 770 684 781 Q 671 797 633 814 Q 614 824 596 813 Q 586 806 595 794 Q 608 766 595 678 L 587 632 Q 566 556 569 532 Q 572 516 588 530 Q 606 548 637 636 L 655 689 Z" style="fill: #0070C0;"></path>
                                                                        <path d="M 347 261 Q 390 439 392 440 Q 401 458 384 467 Q 336 503 310 492 Q 297 488 303 473 Q 336 413 295 269 Q 259 152 123 56 Q 110 46 123 44 Q 136 44 171 58 Q 219 80 254 113 Q 314 168 336 232 L 347 261 Z" style="fill: #0070C0;"></path>
                                                                        <path d="M 336 232 Q 340 228 350 220 Q 390 186 434 144 Q 446 134 459 133 Q 469 133 473 145 Q 477 158 471 183 Q 462 225 347 261 C 318 270 314 252 336 232 Z" style="fill: #0070C0;"></path>
                                                                        <path d="M 650 300 Q 654 319 657 338 Q 669 440 683 465 Q 693 486 675 494 Q 623 530 594 519 Q 579 513 587 497 Q 623 443 588 280 Q 585 276 585 270 Q 549 141 434 55 Q 418 42 402 29 Q 389 19 402 16 Q 471 22 544 98 Q 587 138 608 182 Q 615 201 626 221 Q 633 240 641 262 L 650 300 Z" style="fill: #0070C0;"></path>
                                                                        <path d="M 641 262 Q 713 126 788 30 Q 807 5 827 4 Q 885 8 935 11 Q 956 12 956 17 Q 957 23 934 37 Q 810 106 765 156 Q 699 226 650 300 C 633 325 627 288 641 262 Z" style="fill: #0070C0;"></path>
                                    
                                    
                                                                                                                                                                                                                                                                                                                                                                                                                                                                                                                                                                                                                                </g>
                            </svg>