<svg width='83' height='83' >
                                <g transform="translate(3, 70) scale(0.07, -0.07)">
                                    <!-- 先将完整的字以灰色字体绘制完成，层级位于下面 -->
                                                                        <path d="M 641 651 Q 726 661 826 655 Q 842 654 847 663 Q 851 675 839 690 Q 784 732 692 708 Q 676 707 661 702 L 600 691 Q 518 679 428 665 L 381 659 Q 294 649 199 638 Q 169 635 190 619 Q 238 591 324 611 Q 355 618 388 624 L 430 631 Q 445 640 589 647 L 641 651 Z" style="fill: #0070C0;"></path>
                                                                        <path d="M 428 665 Q 425 704 425 735 Q 428 754 407 761 Q 368 782 346 775 Q 328 766 343 747 Q 373 708 381 659 L 388 624 Q 395 569 412 552 Q 425 540 429 552 Q 435 570 430 631 L 428 665 Z" style="fill: #0070C0;"></path>
                                                                        <path d="M 661 702 Q 661 703 662 703 Q 672 728 690 760 Q 706 776 695 787 Q 682 806 645 824 Q 627 834 608 825 Q 598 818 606 806 Q 618 781 600 691 L 589 647 Q 568 584 570 560 Q 571 545 588 557 Q 609 575 641 651 L 661 702 Z" style="fill: #0070C0;"></path>
                                                                        <path d="M 302 396 Q 320 421 336 444 Q 363 486 376 504 Q 383 516 381 524 Q 377 534 352 538 Q 327 544 316 539 Q 309 538 309 525 Q 303 443 143 272 Q 127 256 150 262 Q 193 274 284 375 Q 288 381 294 386 L 302 396 Z" style="fill: #0070C0;"></path>
                                                                        <path d="M 309 191 Q 305 187 301 180 Q 241 98 140 19 Q 119 6 137 7 Q 212 11 317 132 Q 383 208 434 311 Q 458 360 474 375 Q 486 384 480 394 Q 476 404 429 424 Q 419 428 399 418 Q 371 405 302 396 C 280 393 280 393 294 386 Q 306 374 335 377 Q 395 390 398 381 Q 402 366 382 314 Q 367 271 326 214 L 309 191 Z" style="fill: #0070C0;"></path>
                                                                        <path d="M 326 214 Q 320 251 290 266 Q 256 287 240 291 Q 231 292 230 282 Q 227 275 233 265 Q 282 192 309 191 C 331 188 331 188 326 214 Z" style="fill: #0070C0;"></path>
                                                                        <path d="M 588 433 Q 622 446 717 466 Q 724 467 731 463 Q 741 457 740 440 Q 737 397 717 320 Q 713 292 686 297 Q 652 303 626 308 Q 611 309 615 301 Q 616 291 644 273 Q 678 243 699 211 Q 706 201 717 205 Q 724 206 740 229 Q 761 256 773 314 Q 791 431 807 446 Q 819 455 814 466 Q 807 478 773 502 Q 760 511 707 499 Q 691 499 573 472 C 544 465 560 423 588 433 Z" style="fill: #0070C0;"></path>
                                                                        <path d="M 971 73 Q 961 97 950 166 Q 951 181 945 186 Q 939 189 934 173 Q 901 101 883 80 Q 868 61 824 49 Q 719 27 632 63 Q 596 82 587 104 Q 548 177 588 433 C 592 461 592 461 573 472 Q 563 481 546 487 Q 533 491 525 486 Q 518 482 524 464 Q 537 427 534 389 Q 519 151 540 85 Q 544 57 570 32 Q 660 -43 837 -15 Q 855 -12 873 -7 Q 919 6 962 38 Q 981 50 971 73 Z" style="fill: #0070C0;"></path>
                                    
                                    
                                                                                                                                                                                                                                                                                                                                                                                                                                                                                                                                                                                                                                                                                                            </g>
                            </svg>