<svg width='83' height='83' >
                                <g transform="translate(3, 70) scale(0.07, -0.07)">
                                    <!-- 先将完整的字以灰色字体绘制完成，层级位于下面 -->
                                                                        <path d="M 631 680 Q 734 689 832 681 Q 848 680 854 690 Q 860 702 846 717 Q 792 765 707 741 Q 679 737 651 731 L 596 723 Q 511 711 417 699 L 368 693 Q 280 686 185 675 Q 154 672 175 655 Q 221 625 305 643 Q 339 652 374 655 L 418 663 Q 437 669 584 678 L 631 680 Z" style="fill: #0070C0;"></path>
                                                                        <path d="M 417 699 Q 417 736 417 764 Q 420 785 399 792 Q 357 814 337 808 Q 318 801 332 779 Q 366 733 368 693 L 374 655 Q 378 609 396 589 Q 409 576 414 589 Q 417 598 418 663 L 417 699 Z" style="fill: #0070C0;"></path>
                                                                        <path d="M 651 731 Q 660 764 682 796 Q 695 812 685 822 Q 673 838 638 856 Q 622 865 604 856 Q 594 850 602 839 Q 612 817 609 788 Q 605 760 596 723 L 584 678 Q 565 611 566 595 Q 567 582 583 592 Q 593 601 631 680 L 651 731 Z" style="fill: #0070C0;"></path>
                                                                        <path d="M 445 495 Q 547 520 629 531 Q 656 534 661 525 Q 667 515 662 490 Q 650 420 632 389 Q 608 356 578 364 Q 551 371 527 381 Q 502 388 520 365 Q 563 323 582 290 Q 595 271 611 283 Q 668 308 714 447 Q 721 490 747 515 Q 762 528 756 542 Q 746 555 689 585 Q 667 597 644 583 Q 614 567 499 544 Q 384 519 287 516 Q 265 516 261 505 Q 260 495 288 480 Q 318 459 342 468 Q 367 475 394 482 L 445 495 Z" style="fill: #0070C0;"></path>
                                                                        <path d="M 322 237 Q 385 297 440 407 Q 453 431 468 452 Q 475 461 471 472 Q 465 481 445 495 C 421 513 396 512 394 482 Q 390 367 278 260 Q 275 259 273 256 Q 239 220 157 161 Q 150 154 155 151 Q 162 148 173 152 Q 231 171 282 207 Q 292 214 303 222 L 322 237 Z" style="fill: #0070C0;"></path>
                                                                        <path d="M 378 221 Q 377 222 376 223 Q 363 230 322 237 C 297 241 297 241 303 222 Q 303 218 308 209 Q 341 145 362 38 Q 366 5 386 -16 Q 405 -40 411 -22 Q 415 -9 415 10 L 409 49 Q 390 149 386 185 C 382 215 382 219 378 221 Z" style="fill: #0070C0;"></path>
                                                                        <path d="M 691 74 Q 718 161 755 189 Q 774 208 759 229 Q 675 295 614 264 Q 518 237 378 221 C 348 217 356 181 386 185 Q 392 185 615 219 Q 640 225 650 213 Q 660 203 658 182 Q 648 122 635 74 C 627 45 682 45 691 74 Z" style="fill: #0070C0;"></path>
                                                                        <path d="M 415 10 Q 416 10 421 10 Q 515 23 715 27 Q 728 27 730 37 Q 731 46 698 71 Q 695 72 691 74 L 635 74 Q 509 56 409 49 C 379 47 385 8 415 10 Z" style="fill: #0070C0;"></path>
                                    
                                    
                                                                                                                                                                                                                                                                                                                                                                                                                                                                                                                                                                                                                                                                                                            </g>
                            </svg>