<svg width='83' height='83' >
                                <g transform="translate(3, 70) scale(0.07, -0.07)">
                                    <!-- 先将完整的字以灰色字体绘制完成，层级位于下面 -->
                                                                        <path d="M 658 625 Q 733 634 859 624 Q 875 621 882 632 Q 888 645 873 661 Q 819 710 732 687 Q 705 684 677 678 L 617 670 Q 523 658 417 646 L 368 641 Q 274 634 174 624 Q 141 621 164 604 Q 207 573 272 582 Q 324 595 375 602 L 419 609 Q 464 621 605 623 L 658 625 Z" style="fill: #0070C0;"></path>
                                                                        <path d="M 417 646 Q 413 692 412 732 Q 413 753 393 759 Q 353 783 327 774 Q 308 765 323 744 Q 357 696 368 641 L 375 602 Q 381 560 384 522 Q 390 500 403 485 Q 416 472 422 485 Q 426 501 419 609 L 417 646 Z" style="fill: #0070C0;"></path>
                                                                        <path d="M 677 678 Q 690 717 717 765 Q 733 781 721 794 Q 706 813 667 832 Q 648 842 628 832 Q 616 825 626 812 Q 642 772 617 670 L 605 623 Q 568 503 569 485 Q 570 469 589 482 Q 607 497 658 625 L 677 678 Z" style="fill: #0070C0;"></path>
                                                                        <path d="M 268 414 Q 243 430 214 438 Q 207 441 201 435 Q 191 428 202 416 Q 253 331 260 130 Q 261 64 301 31 Q 302 30 307 27 Q 325 23 328 51 L 327 87 Q 324 109 318 136 Q 294 365 294 371 C 291 400 291 400 268 414 Z" style="fill: #0070C0;"></path>
                                                                        <path d="M 669 76 Q 679 48 704 -6 Q 711 -25 723 -24 Q 739 -21 751 6 Q 791 82 799 186 Q 809 250 817 325 Q 823 379 848 412 Q 867 434 853 448 Q 828 472 777 495 Q 756 505 720 493 Q 623 459 513 438 Q 413 423 268 414 C 238 412 264 368 294 371 Q 304 370 316 372 Q 382 385 470 401 L 513 409 Q 592 424 690 439 Q 730 446 747 428 Q 757 410 757 391 Q 753 253 721 120 Q 718 96 708 94 C 695 67 658 104 669 76 Z" style="fill: #0070C0;"></path>
                                                                        <path d="M 535 241 Q 587 248 636 251 Q 661 254 653 268 Q 643 284 616 290 Q 579 296 537 283 L 485 273 Q 427 263 377 254 Q 359 251 379 234 Q 392 224 418 227 Q 451 231 486 235 L 535 241 Z" style="fill: #0070C0;"></path>
                                                                        <path d="M 530 108 Q 531 180 535 241 L 537 283 Q 537 332 541 360 Q 548 387 513 409 C 488 426 458 429 470 401 Q 482 382 485 281 Q 484 278 485 273 L 486 235 Q 486 183 487 103 C 487 73 530 78 530 108 Z" style="fill: #0070C0;"></path>
                                                                        <path d="M 328 51 Q 332 51 338 51 Q 444 70 669 76 C 699 77 734 79 708 94 Q 707 94 668 118 Q 650 128 530 108 L 487 103 Q 402 94 327 87 C 297 84 298 50 328 51 Z" style="fill: #0070C0;"></path>
                                    
                                    
                                                                                                                                                                                                                                                                                                                                                                                                                                                                                                                                                                                                                                                                                                            </g>
                            </svg>