<svg width='83' height='83' >
                                <g transform="translate(3, 70) scale(0.07, -0.07)">
                                    <!-- 先将完整的字以灰色字体绘制完成，层级位于下面 -->
                                                                        <path d="M 617 675 Q 705 684 782 679 Q 798 678 803 687 Q 807 699 795 714 Q 737 757 643 730 Q 640 730 639 729 L 577 718 Q 495 706 407 693 L 358 686 Q 294 679 227 671 Q 197 667 218 651 Q 263 624 322 636 Q 341 642 365 646 L 409 654 Q 460 667 565 672 L 617 675 Z" style="fill: #0070C0;"></path>
                                                                        <path d="M 407 693 Q 406 730 406 761 Q 407 780 388 788 Q 348 810 325 803 Q 306 796 320 775 Q 350 733 358 686 L 365 646 Q 372 585 388 568 Q 401 556 406 569 Q 412 590 409 654 L 407 693 Z" style="fill: #0070C0;"></path>
                                                                        <path d="M 639 729 Q 651 756 671 790 Q 687 806 675 818 Q 662 837 624 856 Q 605 866 586 857 Q 576 850 584 838 Q 594 814 590 786 Q 586 756 577 718 L 565 672 Q 544 609 546 585 Q 547 569 565 581 Q 580 594 617 675 L 639 729 Z" style="fill: #0070C0;"></path>
                                                                        <path d="M 641 492 Q 729 496 838 495 Q 872 494 903 495 Q 925 494 931 504 Q 937 517 919 532 Q 862 575 820 567 Q 589 525 102 472 Q 80 471 96 451 Q 112 435 131 429 Q 155 423 172 428 Q 361 477 589 490 L 641 492 Z" style="fill: #0070C0;"></path>
                                                                        <path d="M 293 370 Q 281 376 253 381 Q 240 385 237 379 Q 230 373 239 357 Q 264 305 278 219 Q 281 194 296 176 Q 314 154 319 169 Q 323 182 323 204 L 319 237 Q 307 318 307 342 C 306 364 306 364 293 370 Z" style="fill: #0070C0;"></path>
                                                                        <path d="M 460 260 Q 476 324 497 344 Q 519 369 496 383 Q 433 416 430 416 Q 421 416 413 411 Q 380 390 293 370 C 264 363 278 335 307 342 Q 358 354 392 361 Q 414 365 420 357 Q 426 353 421 325 Q 415 295 409 260 C 404 230 452 231 460 260 Z" style="fill: #0070C0;"></path>
                                                                        <path d="M 323 204 Q 333 203 344 206 Q 386 216 477 225 Q 487 226 489 236 Q 489 243 460 260 C 445 269 438 267 409 260 Q 358 247 319 237 C 290 230 293 205 323 204 Z" style="fill: #0070C0;"></path>
                                                                        <path d="M 551 26 Q 526 32 493 37 Q 480 38 481 32 Q 482 23 494 15 Q 567 -34 614 -75 Q 627 -84 641 -67 Q 681 -10 674 73 Q 667 341 673 428 Q 680 456 673 467 Q 666 477 641 492 C 616 509 577 517 589 490 Q 590 483 597 473 Q 607 448 608 57 Q 605 38 597 26 Q 584 17 551 26 Z" style="fill: #0070C0;"></path>
                                    
                                    
                                                                                                                                                                                                                                                                                                                                                                                                                                                                                                                                                                                                                                                                                                            </g>
                            </svg>