<svg width='83' height='83' >
                                <g transform="translate(3, 70) scale(0.07, -0.07)">
                                    <!-- 先将完整的字以灰色字体绘制完成，层级位于下面 -->
                                                                        <path d="M 625 673 Q 748 688 850 681 Q 866 680 871 690 Q 877 702 862 717 Q 807 763 729 738 Q 687 732 645 722 L 588 712 Q 506 700 415 685 L 371 679 Q 280 669 184 656 Q 153 652 175 636 Q 217 609 293 623 Q 335 636 378 643 L 418 650 Q 484 663 577 669 L 625 673 Z" style="fill: #0070C0;"></path>
                                                                        <path d="M 415 685 Q 411 731 410 768 Q 411 787 392 793 Q 353 814 331 806 Q 312 797 328 778 Q 362 733 371 679 L 378 643 Q 384 609 399 592 Q 412 582 417 593 Q 424 614 418 650 L 415 685 Z" style="fill: #0070C0;"></path>
                                                                        <path d="M 645 722 Q 657 756 678 790 Q 693 806 682 817 Q 669 833 634 852 Q 616 862 598 852 Q 588 846 596 834 Q 611 803 588 712 L 577 669 Q 561 609 562 596 Q 563 581 580 593 Q 596 606 625 673 L 645 722 Z" style="fill: #0070C0;"></path>
                                                                        <path d="M 444 483 Q 444 484 445 484 Q 470 512 483 523 Q 493 536 491 545 Q 487 558 461 566 Q 431 576 419 573 Q 412 572 408 557 Q 402 500 273 385 Q 251 369 279 373 Q 331 379 420 460 L 444 483 Z" style="fill: #0070C0;"></path>
                                                                        <path d="M 595 42 Q 580 41 505 74 Q 495 78 495 72 Q 494 68 505 57 Q 550 5 569 -31 Q 579 -55 594 -54 Q 613 -55 632 -37 Q 702 17 726 155 Q 742 249 755 395 Q 756 428 778 452 Q 791 465 791 475 Q 790 482 769 498 Q 741 520 704 531 Q 683 538 605 516 Q 599 516 593 513 Q 536 500 444 483 C 415 477 390 464 420 460 Q 421 460 424 459 Q 454 450 607 473 Q 670 480 679 473 Q 695 421 675 232 Q 659 130 629 75 Q 613 44 595 42 Z" style="fill: #0070C0;"></path>
                                                                        <path d="M 251 329 Q 247 332 235 333 Q 222 336 219 330 Q 212 324 222 307 Q 247 258 265 176 Q 268 152 283 136 Q 302 114 307 130 Q 311 143 310 165 L 306 201 Q 293 282 293 299 Q 292 300 292 302 C 290 314 279 318 251 329 Z" style="fill: #0070C0;"></path>
                                                                        <path d="M 483 213 Q 510 279 536 297 Q 552 316 538 333 Q 522 346 471 372 Q 453 379 432 371 Q 363 344 261 331 Q 254 331 251 329 C 222 323 262 300 292 302 Q 305 302 323 307 Q 437 323 442 319 Q 451 310 434 225 C 428 196 471 185 483 213 Z" style="fill: #0070C0;"></path>
                                                                        <path d="M 310 165 Q 317 165 326 166 Q 378 175 490 180 Q 502 181 503 190 Q 503 197 483 213 L 434 225 Q 427 225 422 223 Q 358 210 306 201 C 276 196 280 164 310 165 Z" style="fill: #0070C0;"></path>
                                    
                                    
                                                                                                                                                                                                                                                                                                                                                                                                                                                                                                                                                                                                                                                                                                            </g>
                            </svg>