<svg width='83' height='83' >
                                <g transform="translate(3, 70) scale(0.07, -0.07)">
                                    <!-- 先将完整的字以灰色字体绘制完成，层级位于下面 -->
                                                                        <path d="M 431 709 Q 428 740 427 764 Q 428 783 408 789 Q 371 810 347 801 Q 329 792 344 773 Q 371 740 382 702 L 390 668 Q 405 598 419 584 Q 432 574 437 585 Q 441 600 433 680 L 431 709 Z" style="fill: #0070C0;"></path>
                                                                        <path d="M 433 680 Q 446 683 463 691 Q 470 695 468 703 Q 467 710 453 712 Q 443 711 431 709 L 382 702 Q 319 695 235 681 Q 198 682 177 681 Q 167 682 164 677 Q 161 670 169 660 Q 182 644 211 633 Q 229 623 246 629 Q 315 648 390 668 L 433 680 Z" style="fill: #0070C0;"></path>
                                                                        <path d="M 647 738 Q 656 757 670 780 Q 686 796 674 807 Q 661 826 625 844 Q 607 854 588 845 Q 578 838 586 827 Q 596 800 583 729 L 577 699 Q 553 606 553 594 Q 556 581 570 589 Q 583 601 628 692 L 647 738 Z" style="fill: #0070C0;"></path>
                                                                        <path d="M 628 692 Q 712 714 824 700 Q 837 699 843 708 Q 847 718 836 731 Q 791 767 710 749 Q 680 745 647 738 L 583 729 Q 574 729 565 727 Q 540 724 557 710 Q 567 704 577 699 C 603 686 603 686 628 692 Z" style="fill: #0070C0;"></path>
                                                                        <path d="M 374 489 Q 386 507 399 521 Q 411 534 396 551 Q 350 590 323 588 Q 311 587 313 570 Q 320 476 206 359 Q 182 337 170 321 Q 160 305 177 309 Q 226 313 309 404 Q 315 413 361 472 L 374 489 Z" style="fill: #0070C0;"></path>
                                                                        <path d="M 507 458 Q 603 477 704 495 Q 758 507 766 513 Q 776 522 771 531 Q 764 544 732 553 Q 701 560 592 526 Q 471 499 380 491 Q 376 491 374 489 C 345 483 340 482 361 472 Q 406 450 443 449 Q 455 449 470 450 L 507 458 Z" style="fill: #0070C0;"></path>
                                                                        <path d="M 535 201 Q 534 250 535 293 Q 535 300 535 306 L 535 339 Q 536 393 541 417 Q 544 430 536 437 Q 521 450 507 458 C 482 474 460 478 470 450 Q 492 414 475 154 Q 472 135 470 117 Q 469 92 465 79 Q 453 22 509 -36 Q 509 -37 512 -39 Q 525 -40 530 -26 Q 543 8 539 40 Q 536 107 535 167 L 535 201 Z" style="fill: #0070C0;"></path>
                                                                        <path d="M 535 306 Q 577 300 670 319 Q 745 338 748 339 Q 757 348 752 356 Q 745 368 714 374 Q 683 380 652 366 Q 625 357 596 349 Q 566 343 535 339 C 505 335 505 309 535 306 Z" style="fill: #0070C0;"></path>
                                    
                                    
                                                                                                                                                                                                                                                                                                                                                                                                                                                                                                                                                                                                                                                                                                            </g>
                            </svg>