<svg width='83' height='83' >
                                <g transform="translate(3, 70) scale(0.07, -0.07)">
                                    <!-- 先将完整的字以灰色字体绘制完成，层级位于下面 -->
                                                                        <path d="M 625 693 Q 757 702 840 693 Q 856 692 862 702 Q 868 714 854 729 Q 797 775 702 752 Q 672 749 644 743 L 584 734 Q 509 725 428 715 L 373 708 Q 279 701 177 691 Q 146 688 167 671 Q 212 641 301 658 Q 341 668 382 673 L 428 680 Q 497 687 575 691 L 625 693 Z" style="fill: #0070C0;"></path>
                                                                        <path d="M 428 715 Q 427 740 427 759 Q 430 781 408 787 Q 369 811 343 803 Q 324 794 339 773 Q 363 743 373 708 L 382 673 Q 391 619 407 601 Q 420 588 426 601 Q 432 622 428 680 L 428 715 Z" style="fill: #0070C0;"></path>
                                                                        <path d="M 644 743 Q 651 765 667 791 Q 682 807 671 817 Q 658 833 621 851 Q 605 861 586 851 Q 576 844 584 833 Q 594 812 584 734 L 575 691 Q 560 628 562 612 Q 563 597 580 609 Q 590 621 625 693 L 644 743 Z" style="fill: #0070C0;"></path>
                                                                        <path d="M 529 491 Q 583 501 720 511 Q 730 510 740 522 Q 741 534 719 545 Q 686 569 590 543 Q 559 539 529 530 L 478 521 Q 457 518 241 496 Q 213 495 234 476 Q 261 449 294 454 Q 376 470 478 484 L 529 491 Z" style="fill: #0070C0;"></path>
                                                                        <path d="M 535 345 Q 587 352 657 352 Q 673 351 687 352 Q 703 352 707 360 Q 711 370 698 380 Q 650 413 595 397 Q 565 391 527 381 L 478 372 Q 477 373 474 372 Q 389 359 290 343 Q 272 340 286 327 Q 313 303 343 312 Q 389 325 444 334 L 535 345 Z" style="fill: #0070C0;"></path>
                                                                        <path d="M 527 381 Q 528 447 529 491 L 529 530 Q 529 560 531 566 Q 535 576 526 585 Q 513 595 486 609 Q 476 615 470 608 Q 466 602 470 594 Q 477 581 478 521 L 478 484 Q 478 429 478 372 L 476 287 Q 469 74 462 19 Q 459 -24 484 -57 Q 494 -72 505 -54 Q 526 -17 526 55 Q 523 109 526 308 L 527 381 Z" style="fill: #0070C0;"></path>
                                                                        <path d="M 444 334 Q 404 217 170 72 Q 154 60 169 58 Q 179 55 218 70 Q 272 86 320 122 Q 420 195 475 285 Q 475 286 476 287 C 513 348 461 378 444 334 Z" style="fill: #0070C0;"></path>
                                                                        <path d="M 526 308 Q 613 197 724 80 Q 743 59 776 62 Q 885 69 921 77 Q 931 80 932 85 Q 932 91 917 97 Q 764 148 718 183 Q 633 250 535 345 C 513 366 495 348 526 308 Z" style="fill: #0070C0;"></path>
                                    
                                    
                                                                                                                                                                                                                                                                                                                                                                                                                                                                                                                                                                                                                                                                                                            </g>
                            </svg>