<svg width='83' height='83' >
                                <g transform="translate(3, 70) scale(0.07, -0.07)">
                                    <!-- 先将完整的字以灰色字体绘制完成，层级位于下面 -->
                                                                        <path d="M 638 667 Q 719 676 821 669 Q 837 668 843 678 Q 847 690 834 705 Q 783 747 693 727 Q 677 726 660 721 L 598 711 Q 519 701 431 688 L 377 681 Q 296 672 208 663 Q 177 660 199 644 Q 242 611 314 628 Q 350 637 387 643 L 433 651 Q 449 657 586 665 L 638 667 Z" style="fill: #0070C0;"></path>
                                                                        <path d="M 431 688 Q 430 716 429 740 Q 430 762 409 768 Q 367 789 343 781 Q 324 772 340 751 Q 367 720 377 681 L 387 643 Q 399 582 415 564 Q 428 554 434 566 Q 437 578 433 651 L 431 688 Z" style="fill: #0070C0;"></path>
                                                                        <path d="M 660 721 Q 670 743 686 772 Q 702 788 691 799 Q 678 818 641 836 Q 623 846 604 837 Q 594 830 602 818 Q 612 794 598 711 L 586 665 Q 565 592 566 572 Q 567 557 584 569 Q 599 582 638 667 L 660 721 Z" style="fill: #0070C0;"></path>
                                                                        <path d="M 301 341 Q 421 488 423 492 Q 422 496 422 499 Q 419 512 394 536 Q 370 557 352 558 Q 334 558 340 536 Q 350 508 337 485 Q 262 346 113 201 Q 103 192 100 186 Q 96 176 109 177 Q 142 181 273 311 L 301 341 Z" style="fill: #0070C0;"></path>
                                                                        <path d="M 273 311 Q 303 244 272 77 Q 254 26 291 -22 Q 292 -22 294 -25 Q 310 -40 322 -15 Q 335 24 335 67 Q 334 230 339 267 Q 346 292 337 302 Q 321 321 301 341 C 280 362 262 339 273 311 Z" style="fill: #0070C0;"></path>
                                                                        <path d="M 652 306 Q 725 316 832 318 Q 886 318 892 328 Q 898 341 881 354 Q 823 393 760 374 Q 715 364 654 351 L 599 340 Q 505 325 396 307 Q 375 304 391 287 Q 421 260 470 272 Q 528 290 600 299 L 652 306 Z" style="fill: #0070C0;"></path>
                                                                        <path d="M 643 134 Q 647 222 652 306 L 654 351 Q 654 427 673 485 Q 676 497 655 511 Q 618 530 593 535 Q 577 538 568 529 Q 561 522 569 506 Q 593 472 594 449 Q 597 397 599 340 L 600 299 Q 600 217 598 125 C 597 95 642 104 643 134 Z" style="fill: #0070C0;"></path>
                                                                        <path d="M 598 125 Q 528 115 444 102 Q 423 101 439 83 Q 472 55 508 64 Q 592 86 803 87 Q 822 88 828 96 Q 832 108 816 122 Q 756 164 696 145 Q 672 141 643 134 L 598 125 Z" style="fill: #0070C0;"></path>
                                    
                                    
                                                                                                                                                                                                                                                                                                                                                                                                                                                                                                                                                                                                                                                                                                            </g>
                            </svg>