<svg width='83' height='83' >
                                <g transform="translate(3, 70) scale(0.07, -0.07)">
                                    <!-- 先将完整的字以灰色字体绘制完成，层级位于下面 -->
                                                                        <path d="M 633 650 Q 661 651 830 652 Q 849 652 855 660 Q 861 672 844 686 Q 787 729 711 709 Q 684 706 655 699 L 602 691 Q 557 687 507 678 Q 468 674 430 668 L 384 662 Q 297 653 205 642 Q 183 641 199 623 Q 212 610 231 603 Q 252 597 268 602 Q 326 618 392 627 L 433 633 Q 487 645 589 648 L 633 650 Z" style="fill: #0070C0;"></path>
                                                                        <path d="M 430 668 Q 427 707 426 736 Q 427 755 408 761 Q 371 782 347 773 Q 328 766 344 746 Q 363 722 384 662 L 392 627 Q 395 590 415 568 Q 428 558 433 569 Q 439 587 433 633 L 430 668 Z" style="fill: #0070C0;"></path>
                                                                        <path d="M 589 648 Q 574 602 575 583 Q 576 570 591 580 Q 595 584 633 650 L 655 699 Q 662 727 692 774 Q 705 787 696 798 Q 684 814 651 832 Q 635 842 619 833 Q 609 827 616 817 Q 628 787 602 691 L 589 648 Z" style="fill: #0070C0;"></path>
                                                                        <path d="M 531 401 Q 594 470 627 492 Q 642 502 637 511 Q 636 520 579 547 Q 566 556 517 534 Q 438 507 335 494 Q 316 493 329 477 Q 351 459 392 469 Q 515 493 520 489 Q 523 485 513 471 Q 435 350 219 213 Q 203 203 218 200 Q 290 200 444 321 Q 456 333 470 343 Q 492 362 514 384 L 531 401 Z" style="fill: #0070C0;"></path>
                                                                        <path d="M 514 384 Q 515 383 520 380 Q 607 331 713 256 Q 729 241 744 240 Q 751 241 756 251 Q 765 264 746 299 Q 725 347 531 401 C 502 409 489 400 514 384 Z" style="fill: #0070C0;"></path>
                                                                        <path d="M 505 212 Q 634 239 639 243 Q 648 250 643 260 Q 636 272 606 279 Q 575 286 544 273 Q 511 263 476 254 Q 436 247 390 242 Q 353 235 379 218 Q 418 197 466 205 L 505 212 Z" style="fill: #0070C0;"></path>
                                                                        <path d="M 466 205 Q 472 199 472 68 C 472 38 514 42 517 72 Q 530 186 531 187 L 530 188 Q 517 203 505 212 C 481 231 456 233 466 205 Z" style="fill: #0070C0;"></path>
                                                                        <path d="M 472 68 Q 217 50 174 50 Q 159 51 158 39 Q 157 26 176 10 Q 194 -3 226 -16 Q 236 -20 256 -12 Q 295 1 435 16 Q 469 20 511 22 Q 557 23 599 26 Q 704 35 834 18 Q 859 15 865 24 Q 872 37 861 50 Q 786 122 736 98 Q 679 89 517 72 L 472 68 Z" style="fill: #0070C0;"></path>
                                    
                                    
                                                                                                                                                                                                                                                                                                                                                                                                                                                                                                                                                                                                                                                                                                            </g>
                            </svg>