<svg width='83' height='83' >
                                <g transform="translate(3, 70) scale(0.07, -0.07)">
                                    <!-- 先将完整的字以灰色字体绘制完成，层级位于下面 -->
                                                                        <path d="M 629 659 Q 713 668 817 659 Q 833 658 838 667 Q 844 679 830 694 Q 785 736 688 716 Q 669 713 649 709 L 588 699 Q 498 687 399 674 L 350 669 Q 274 662 192 654 Q 162 651 183 635 Q 234 605 293 619 Q 326 628 361 633 L 404 640 Q 447 652 577 656 L 629 659 Z" style="fill: #0070C0;"></path>
                                                                        <path d="M 399 674 Q 395 708 393 734 Q 394 753 373 758 Q 334 776 311 767 Q 293 757 310 739 Q 338 708 350 669 L 361 633 Q 373 581 391 563 Q 404 553 408 565 Q 409 574 404 640 L 399 674 Z" style="fill: #0070C0;"></path>
                                                                        <path d="M 649 709 Q 652 727 684 783 Q 700 799 688 810 Q 675 829 636 848 Q 617 858 598 848 Q 588 841 596 829 Q 611 793 588 699 L 577 656 Q 556 590 558 564 Q 559 548 577 561 Q 593 576 629 659 L 649 709 Z" style="fill: #0070C0;"></path>
                                                                        <path d="M 222 439 Q 264 387 298 371 Q 313 367 323 381 Q 330 394 327 411 Q 321 436 304 449 Q 256 482 218 482 Q 212 482 209 480 Q 203 479 205 466 Q 206 454 222 439 Z" style="fill: #0070C0;"></path>
                                                                        <path d="M 157 103 Q 145 102 145 84 Q 148 12 180 -11 Q 186 -18 196 -18 Q 203 -17 208 7 Q 221 59 338 270 Q 345 283 346 290 Q 346 300 337 294 Q 319 285 199 136 Q 186 118 157 103 Z" style="fill: #0070C0;"></path>
                                                                        <path d="M 501 450 Q 505 468 542 523 Q 551 536 535 548 Q 493 576 468 571 Q 458 567 461 554 Q 479 470 393 360 Q 384 348 380 340 Q 373 324 387 330 Q 429 339 488 428 L 501 450 Z" style="fill: #0070C0;"></path>
                                                                        <path d="M 488 428 Q 507 407 532 414 Q 586 433 645 443 Q 676 450 686 447 Q 693 434 688 429 Q 688 423 646 361 Q 636 351 641 344 Q 645 338 659 349 Q 764 401 808 412 Q 818 413 820 421 Q 821 434 793 453 Q 771 469 749 485 Q 721 504 705 497 Q 629 469 501 450 C 471 445 469 445 488 428 Z" style="fill: #0070C0;"></path>
                                                                        <path d="M 562 234 Q 574 294 582 306 Q 589 313 583 324 Q 577 331 547 343 Q 513 359 498 354 Q 485 348 496 331 Q 518 274 492 196 Q 453 100 338 45 Q 310 33 274 18 Q 247 8 278 4 Q 359 0 459 63 Q 471 73 483 85 Q 529 130 553 206 L 562 234 Z" style="fill: #0070C0;"></path>
                                                                        <path d="M 553 206 Q 616 115 686 31 Q 708 6 747 1 Q 817 -8 893 1 Q 912 1 914 6 Q 917 13 902 20 Q 728 98 722 102 Q 626 174 609 190 Q 578 220 562 234 C 540 254 536 231 553 206 Z" style="fill: #0070C0;"></path>
                                    
                                    
                                                                                                                                                                                                                                                                                                                                                                                                                                                                                                                                                                                                                                                                                                                                                                                        </g>
                            </svg>