<svg width='83' height='83' >
                                <g transform="translate(3, 70) scale(0.07, -0.07)">
                                    <!-- 先将完整的字以灰色字体绘制完成，层级位于下面 -->
                                                                        <path d="M 626 687 Q 720 696 817 689 Q 833 688 839 698 Q 843 710 830 725 Q 779 768 686 747 Q 671 744 658 741 L 592 731 Q 507 719 411 705 L 365 700 Q 289 693 204 683 Q 173 680 195 664 Q 237 633 324 651 Q 346 657 372 661 L 412 668 Q 469 680 573 683 L 626 687 Z" style="fill: #0070C0;"></path>
                                                                        <path d="M 411 705 Q 410 745 409 775 Q 410 794 391 801 Q 352 822 330 815 Q 312 808 327 787 Q 354 753 365 700 L 372 661 Q 372 634 392 612 Q 405 600 409 612 Q 410 619 412 668 L 411 705 Z" style="fill: #0070C0;"></path>
                                                                        <path d="M 658 741 Q 670 763 691 790 Q 707 805 698 817 Q 688 836 653 859 Q 637 872 617 864 Q 605 860 613 846 Q 620 815 592 731 L 573 683 Q 554 640 551 617 Q 551 601 569 611 Q 582 620 626 687 L 658 741 Z" style="fill: #0070C0;"></path>
                                                                        <path d="M 448 507 Q 487 547 501 555 Q 511 562 509 574 Q 508 586 487 609 Q 468 628 452 632 Q 436 633 440 614 Q 446 584 374 499 Q 340 462 294 420 Q 284 413 282 409 Q 278 400 289 400 Q 314 400 425 486 L 448 507 Z" style="fill: #0070C0;"></path>
                                                                        <path d="M 425 486 Q 462 470 512 478 Q 548 487 673 507 Q 692 510 702 499 Q 718 480 720 435 Q 732 210 692 73 Q 683 51 673 45 Q 666 39 632 44 Q 565 60 562 53 Q 558 46 577 31 Q 619 -9 640 -46 Q 658 -74 674 -69 Q 720 -54 756 59 Q 778 137 794 392 Q 797 459 815 481 Q 834 503 809 522 Q 737 570 702 561 Q 698 561 694 559 Q 570 526 448 507 C 418 502 396 494 425 486 Z" style="fill: #0070C0;"></path>
                                                                        <path d="M 274 357 Q 265 363 251 368 Q 242 372 232 368 Q 225 364 231 353 Q 255 269 241 171 Q 228 117 263 81 Q 273 68 282 80 Q 286 87 289 94 L 294 127 Q 294 172 294 216 L 294 243 Q 294 285 296 329 C 297 344 297 344 274 357 Z" style="fill: #0070C0;"></path>
                                                                        <path d="M 445 107 Q 481 41 489 40 Q 499 40 509 63 Q 521 99 522 192 Q 513 301 526 338 Q 535 359 523 368 Q 516 380 479 397 Q 463 406 376 378 Q 307 363 274 357 C 245 351 267 321 296 329 Q 303 330 311 333 Q 362 349 427 355 Q 448 356 453 350 Q 462 341 459 211 Q 459 165 454 155 Q 450 145 436 148 Q 435 149 429 148 C 422 148 430 133 445 107 Z" style="fill: #0070C0;"></path>
                                                                        <path d="M 294 216 Q 357 222 403 229 Q 425 233 417 245 Q 407 258 383 263 Q 344 266 294 243 C 267 231 264 213 294 216 Z" style="fill: #0070C0;"></path>
                                                                        <path d="M 289 94 Q 316 103 445 107 C 475 108 459 153 429 148 L 294 127 C 264 122 260 86 289 94 Z" style="fill: #0070C0;"></path>
                                    
                                    
                                                                                                                                                                                                                                                                                                                                                                                                                                                                                                                                                                                                                                                                                                                                                                                        </g>
                            </svg>