<svg width='83' height='83' >
                                <g transform="translate(3, 70) scale(0.07, -0.07)">
                                    <!-- 先将完整的字以灰色字体绘制完成，层级位于下面 -->
                                                                        <path d="M 646 675 Q 697 685 817 677 Q 833 676 839 686 Q 843 698 830 713 Q 775 761 673 732 Q 670 732 669 731 L 612 722 Q 522 709 420 695 L 368 688 Q 289 681 204 671 Q 173 668 195 652 Q 238 619 310 636 Q 343 645 380 650 L 424 658 Q 469 667 600 674 L 646 675 Z" style="fill: #0070C0;"></path>
                                                                        <path d="M 420 695 Q 419 723 417 747 Q 418 768 397 773 Q 355 791 333 784 Q 314 775 331 755 Q 358 725 368 688 L 380 650 Q 395 596 407 584 Q 420 574 425 585 Q 429 600 424 658 L 420 695 Z" style="fill: #0070C0;"></path>
                                                                        <path d="M 669 731 Q 678 756 697 788 Q 712 803 701 813 Q 689 831 654 848 Q 638 858 620 848 Q 610 842 618 831 Q 628 803 612 722 L 600 674 Q 581 611 582 595 Q 583 582 599 592 Q 611 604 646 675 L 669 731 Z" style="fill: #0070C0;"></path>
                                                                        <path d="M 316 587 Q 322 560 256 483 Q 225 449 183 412 Q 173 405 170 401 Q 166 392 177 392 Q 225 392 344 501 Q 362 520 376 527 Q 386 534 384 546 Q 383 558 363 581 Q 344 602 329 605 Q 313 606 316 587 Z" style="fill: #0070C0;"></path>
                                                                        <path d="M 305 294 Q 368 363 390 378 Q 400 385 399 399 Q 398 412 375 437 Q 353 459 336 462 Q 318 463 322 441 Q 334 399 229 283 Q 180 231 115 175 Q 105 168 101 162 Q 97 152 109 152 Q 151 152 277 268 L 305 294 Z" style="fill: #0070C0;"></path>
                                                                        <path d="M 277 268 Q 304 205 276 84 Q 266 42 295 0 Q 296 -3 299 -5 Q 315 -20 326 5 Q 339 42 339 83 Q 338 197 342 222 Q 349 247 340 256 Q 324 275 305 294 C 284 315 266 296 277 268 Z" style="fill: #0070C0;"></path>
                                                                        <path d="M 521 520 Q 482 513 511 495 Q 556 471 616 488 Q 677 503 742 518 Q 772 525 776 529 Q 786 539 780 547 Q 771 560 740 566 Q 707 572 675 557 Q 644 545 607 536 Q 567 526 521 520 Z" style="fill: #0070C0;"></path>
                                                                        <path d="M 716 365 Q 779 371 873 372 Q 892 373 897 382 Q 901 394 885 406 Q 828 445 763 423 Q 658 399 443 362 Q 424 359 439 343 Q 452 330 470 326 Q 491 322 506 327 Q 569 345 660 358 L 716 365 Z" style="fill: #0070C0;"></path>
                                                                        <path d="M 623 43 Q 598 47 568 53 Q 556 54 557 48 Q 558 41 569 32 Q 639 -14 683 -52 Q 696 -61 709 -44 Q 745 14 738 125 Q 731 239 736 311 Q 742 338 736 348 Q 730 355 716 365 C 692 383 650 386 660 358 Q 670 348 676 211 Q 676 163 678 95 Q 678 58 667 43 Q 654 36 623 43 Z" style="fill: #0070C0;"></path>
                                    
                                    
                                                                                                                                                                                                                                                                                                                                                                                                                                                                                                                                                                                                                                                                                                                                                                                        </g>
                            </svg>