<svg width='83' height='83' >
                                <g transform="translate(3, 70) scale(0.07, -0.07)">
                                    <!-- 先将完整的字以灰色字体绘制完成，层级位于下面 -->
                                                                        <path d="M 695 678 Q 752 684 863 684 Q 879 685 883 692 Q 887 701 874 712 Q 825 745 767 730 Q 742 726 712 718 L 663 708 Q 564 695 532 688 L 491 682 Q 421 673 350 662 Q 332 661 346 647 Q 358 635 372 631 Q 390 627 403 631 Q 448 644 497 653 L 533 659 Q 576 671 654 675 L 695 678 Z" style="fill: #0070C0;"></path>
                                                                        <path d="M 532 688 Q 531 722 530 748 Q 531 766 514 771 Q 477 789 460 783 Q 444 776 456 758 Q 477 733 491 682 L 497 653 Q 501 620 516 603 Q 528 593 532 603 Q 539 622 533 659 L 532 688 Z" style="fill: #0070C0;"></path>
                                                                        <path d="M 654 675 Q 642 633 643 619 Q 644 606 659 616 Q 672 626 695 678 L 712 718 Q 722 751 748 792 Q 761 805 751 816 Q 741 832 708 848 Q 693 857 677 848 Q 667 842 674 832 Q 683 813 680 788 Q 674 754 663 708 L 654 675 Z" style="fill: #0070C0;"></path>
                                                                        <path d="M 642 538 Q 643 548 638 569 Q 634 582 611 593 Q 557 611 548 606 Q 544 603 545 594 Q 548 587 568 571 Q 599 544 613 531 C 635 511 641 508 642 538 Z" style="fill: #0070C0;"></path>
                                                                        <path d="M 504 474 Q 636 502 802 520 Q 812 519 821 531 Q 822 541 800 552 Q 770 574 683 548 Q 662 544 642 538 L 613 531 Q 588 527 368 495 Q 341 492 362 475 Q 389 453 432 460 Q 444 463 457 464 L 504 474 Z" style="fill: #0070C0;"></path>
                                                                        <path d="M 457 464 Q 467 446 467 420 Q 466 371 448 348 Q 430 327 464 300 Q 474 291 487 302 Q 544 348 722 344 Q 764 344 768 346 Q 774 350 768 361 Q 764 371 731 389 Q 712 401 653 388 Q 581 382 515 363 Q 508 360 506 363 Q 502 366 503 376 Q 507 434 513 451 Q 517 464 507 472 Q 506 473 504 474 C 484 497 445 492 457 464 Z" style="fill: #0070C0;"></path>
                                                                        <path d="M 411 267 Q 430 228 404 144 Q 383 77 290 14 Q 289 14 288 13 Q 278 6 287 3 Q 324 0 383 41 Q 443 86 461 165 Q 473 214 484 234 Q 493 249 480 257 Q 441 288 419 283 Q 406 280 411 267 Z" style="fill: #0070C0;"></path>
                                                                        <path d="M 537 273 Q 561 216 540 80 Q 531 53 557 22 Q 564 12 574 22 Q 593 52 592 86 Q 586 180 600 241 Q 600 244 601 245 Q 607 264 589 275 Q 576 285 561 293 Q 551 297 541 292 Q 534 286 537 273 Z" style="fill: #0070C0;"></path>
                                                                        <path d="M 971 63 Q 961 90 947 171 Q 947 186 941 190 Q 935 193 931 177 Q 906 92 888 64 Q 869 43 801 45 Q 776 46 755 56 Q 737 66 732 77 Q 711 119 738 255 Q 744 286 694 307 Q 681 311 672 306 Q 665 302 670 284 Q 683 244 680 205 Q 671 54 703 23 Q 770 -31 901 -4 Q 902 -3 906 -3 Q 936 6 965 27 Q 981 40 971 63 Z" style="fill: #0070C0;"></path>
                                    
                                    
                                                                                                                                                                                                                                                                                                                                                                                                                                                                                                                                                                                                                                                                                                                                                                                        </g>
                            </svg>