<svg width='83' height='83' >
                                <g transform="translate(3, 70) scale(0.07, -0.07)">
                                    <!-- 先将完整的字以灰色字体绘制完成，层级位于下面 -->
                                                                        <path d="M 636 692 Q 729 702 842 693 Q 858 692 862 701 Q 868 711 855 726 Q 807 771 684 741 Q 669 740 655 736 L 597 728 Q 510 718 414 705 L 365 699 Q 269 692 167 681 Q 139 678 158 663 Q 200 636 254 645 Q 315 661 373 669 L 416 676 Q 497 686 589 690 L 636 692 Z" style="fill: #0070C0;"></path>
                                                                        <path d="M 414 705 Q 411 733 411 756 Q 412 775 392 782 Q 352 800 331 793 Q 312 784 328 765 Q 355 735 365 699 L 373 669 Q 388 615 399 604 Q 412 594 417 605 Q 421 618 416 676 L 414 705 Z" style="fill: #0070C0;"></path>
                                                                        <path d="M 655 736 Q 658 755 683 795 Q 698 811 686 821 Q 673 837 637 855 Q 621 865 602 856 Q 592 849 600 838 Q 612 811 597 728 L 589 690 Q 577 636 578 624 Q 579 609 596 621 Q 608 631 636 692 L 655 736 Z" style="fill: #0070C0;"></path>
                                                                        <path d="M 495 537 Q 529 544 560 548 Q 579 549 583 544 Q 589 535 584 513 Q 574 452 556 424 Q 537 396 510 402 Q 488 406 469 413 Q 447 420 463 399 Q 497 366 514 340 Q 524 324 539 333 Q 590 357 631 488 Q 641 521 656 536 Q 668 546 663 556 Q 656 566 611 590 Q 593 600 576 589 Q 558 580 506 567 L 448 555 Q 375 542 311 539 Q 295 538 292 530 Q 291 523 312 512 Q 334 497 352 503 Q 397 516 438 525 L 495 537 Z" style="fill: #0070C0;"></path>
                                                                        <path d="M 331 366 Q 352 362 417 418 Q 462 457 495 537 L 506 567 Q 507 568 508 571 Q 514 589 523 605 Q 529 614 523 623 Q 517 630 489 644 Q 470 653 461 650 Q 451 646 453 632 Q 459 604 448 555 L 438 525 Q 410 456 330 376 Q 326 372 327 368 C 326 366 326 366 331 366 Z" style="fill: #0070C0;"></path>
                                                                        <path d="M 319 268 Q 383 280 391 273 Q 398 260 392 229 Q 380 142 357 105 Q 341 77 316 83 Q 288 95 262 108 Q 240 117 254 94 Q 299 48 319 13 Q 335 -6 351 7 Q 403 40 435 165 Q 445 243 468 269 Q 480 281 475 290 Q 466 300 420 323 Q 401 332 383 320 Q 368 313 331 302 L 271 289 Q 196 274 135 271 Q 119 270 116 262 Q 115 255 136 244 Q 158 229 176 236 Q 221 248 261 256 L 319 268 Z" style="fill: #0070C0;"></path>
                                                                        <path d="M 261 256 Q 219 157 115 56 Q 111 53 107 48 Q 100 41 106 39 Q 134 35 212 101 Q 273 155 319 268 L 331 302 Q 338 318 347 335 Q 354 344 348 353 Q 344 359 331 366 L 327 368 Q 294 387 284 383 Q 272 379 274 365 Q 281 329 271 289 L 261 256 Z" style="fill: #0070C0;"></path>
                                                                        <path d="M 678 267 Q 718 277 755 280 Q 774 281 777 276 Q 786 261 778 225 Q 762 123 734 80 Q 715 47 686 53 Q 656 60 630 70 Q 606 76 624 54 Q 672 14 694 -17 Q 712 -39 730 -23 Q 781 10 812 114 Q 843 253 858 272 Q 871 284 865 294 Q 858 306 808 329 Q 789 339 769 327 Q 750 317 690 304 L 630 292 Q 572 283 523 280 Q 507 280 503 272 Q 502 265 524 252 Q 546 236 566 243 Q 593 250 619 255 L 678 267 Z" style="fill: #0070C0;"></path>
                                                                        <path d="M 619 255 Q 571 138 452 15 Q 446 11 442 5 Q 435 -2 442 -5 Q 475 -11 564 77 Q 633 140 678 267 L 690 304 Q 693 325 715 369 Q 722 379 715 389 Q 708 398 676 412 Q 654 422 645 418 Q 632 414 635 399 Q 645 350 632 296 Q 631 295 630 292 L 619 255 Z" style="fill: #0070C0;"></path>
                                    
                                    
                                                                                                                                                                                                                                                                                                                                                                                                                                                                                                                                                                                                                                                                                                                                                                                        </g>
                            </svg>