<svg width='83' height='83' >
                                <g transform="translate(3, 70) scale(0.07, -0.07)">
                                    <!-- 先将完整的字以灰色字体绘制完成，层级位于下面 -->
                                                                        <path d="M 617 704 Q 695 713 797 703 Q 813 702 818 711 Q 824 723 810 738 Q 761 783 660 759 Q 650 758 641 755 L 588 747 Q 509 737 420 726 L 373 721 Q 292 714 204 706 Q 174 703 195 687 Q 237 660 312 672 Q 346 679 382 685 L 424 692 Q 440 698 577 703 L 617 704 Z" style="fill: #0070C0;"></path>
                                                                        <path d="M 420 726 Q 419 754 417 778 Q 418 797 399 802 Q 362 820 340 813 Q 324 806 338 786 Q 363 758 373 721 L 382 685 Q 397 631 408 619 Q 421 609 425 620 Q 429 636 424 692 L 420 726 Z" style="fill: #0070C0;"></path>
                                                                        <path d="M 641 755 Q 647 774 664 800 Q 677 813 668 824 Q 656 840 624 856 Q 609 865 593 856 Q 583 850 590 840 Q 599 818 588 747 L 577 703 Q 568 679 571 659 Q 572 646 587 656 Q 605 671 617 704 L 641 755 Z" style="fill: #0070C0;"></path>
                                                                        <path d="M 486 553 Q 546 577 604 579 Q 620 578 624 585 Q 628 594 619 606 Q 568 652 538 653 Q 531 650 529 640 Q 523 597 290 531 Q 284 524 289 520 Q 301 517 406 536 Q 421 539 437 541 L 486 553 Z" style="fill: #0070C0;"></path>
                                                                        <path d="M 445 412 Q 445 413 447 413 Q 495 419 560 422 L 595 426 Q 631 427 840 428 Q 862 428 867 437 Q 873 450 855 465 Q 789 516 745 495 Q 648 479 487 455 Q 478 454 469 452 L 405 444 Q 287 431 154 416 Q 132 413 148 395 Q 163 380 182 374 Q 204 368 222 373 Q 297 392 380 404 L 445 412 Z" style="fill: #0070C0;"></path>
                                                                        <path d="M 366 310 Q 370 316 376 321 Q 410 357 445 412 L 469 452 Q 478 473 508 506 Q 517 515 513 525 Q 509 535 486 553 C 463 572 441 571 437 541 Q 434 496 405 444 L 380 404 Q 286 293 177 223 Q 153 210 126 193 Q 117 187 124 183 Q 131 179 142 182 Q 259 212 350 294 L 366 310 Z" style="fill: #0070C0;"></path>
                                                                        <path d="M 560 422 Q 728 227 774 218 Q 840 208 940 229 Q 959 232 961 237 Q 962 244 947 250 Q 761 310 677 364 Q 662 374 595 426 C 571 444 540 445 560 422 Z" style="fill: #0070C0;"></path>
                                                                        <path d="M 350 294 Q 368 276 361 171 Q 355 90 269 3 Q 265 0 263 -4 Q 262 -11 272 -11 Q 302 -11 345 27 Q 402 81 428 259 Q 435 278 416 288 Q 382 307 366 310 C 337 318 335 319 350 294 Z" style="fill: #0070C0;"></path>
                                                                        <path d="M 579 -40 Q 583 -64 590 -73 Q 596 -80 603 -78 Q 627 -62 628 69 Q 627 105 632 240 Q 635 274 639 285 Q 642 301 628 311 Q 597 332 583 334 Q 571 338 556 330 Q 547 323 554 313 Q 569 283 570 270 Q 573 191 574 64 Q 575 -14 579 -40 Z" style="fill: #0070C0;"></path>
                                    
                                    
                                                                                                                                                                                                                                                                                                                                                                                                                                                                                                                                                                                                                                                                                                                                                                                        </g>
                            </svg>