<svg width='83' height='83' >
                                <g transform="translate(3, 70) scale(0.07, -0.07)">
                                    <!-- 先将完整的字以灰色字体绘制完成，层级位于下面 -->
                                                                        <path d="M 632 660 Q 698 669 805 659 Q 821 658 826 667 Q 832 679 818 694 Q 770 739 659 712 Q 656 712 655 711 L 602 704 Q 511 692 404 679 L 360 675 Q 290 669 216 662 Q 186 659 207 643 Q 255 613 331 630 Q 349 634 368 637 L 407 643 Q 455 655 591 658 L 632 660 Z" style="fill: #0070C0;"></path>
                                                                        <path d="M 404 679 Q 401 722 400 753 Q 403 772 383 778 Q 341 796 324 790 Q 306 783 321 763 Q 348 730 360 675 L 368 637 Q 375 606 388 591 Q 401 581 405 592 Q 406 598 407 643 L 404 679 Z" style="fill: #0070C0;"></path>
                                                                        <path d="M 655 711 Q 664 736 684 770 Q 699 785 688 795 Q 676 811 643 828 Q 627 837 610 828 Q 600 822 608 812 Q 620 782 602 704 L 591 658 Q 582 630 583 611 Q 584 598 599 608 Q 612 618 627 649 Q 628 655 632 660 L 655 711 Z" style="fill: #0070C0;"></path>
                                                                        <path d="M 536 544 Q 539 559 528 575 Q 516 591 499 600 Q 480 610 469 610 Q 460 610 460 597 Q 460 509 280 362 Q 276 361 273 357 Q 222 318 99 247 Q 90 243 100 239 Q 158 235 296 322 Q 395 394 509 518 Q 513 522 516 526 C 536 548 536 540 536 544 Z" style="fill: #0070C0;"></path>
                                                                        <path d="M 516 526 Q 622 412 738 310 Q 763 286 804 287 Q 879 286 956 304 Q 975 307 977 312 Q 980 319 963 325 Q 908 344 845 362 Q 709 402 539 542 Q 536 543 536 544 C 512 562 496 548 516 526 Z" style="fill: #0070C0;"></path>
                                                                        <path d="M 396 366 Q 359 359 387 343 Q 432 319 487 336 Q 530 345 576 355 Q 597 359 600 363 Q 609 372 604 380 Q 595 392 566 398 Q 539 401 459 377 Q 429 370 396 366 Z" style="fill: #0070C0;"></path>
                                                                        <path d="M 508 228 Q 568 235 658 236 Q 706 236 712 246 Q 716 258 701 270 Q 643 312 581 289 Q 326 241 283 234 Q 264 231 279 215 Q 292 202 310 198 Q 331 194 346 198 Q 389 211 439 218 L 508 228 Z" style="fill: #0070C0;"></path>
                                                                        <path d="M 619 94 Q 516 84 408 73 Q 399 72 398 74 Q 397 75 402 82 Q 481 175 510 198 Q 525 211 517 220 Q 513 224 508 228 C 488 250 443 248 439 218 Q 439 170 369 103 Q 350 82 311 65 Q 283 55 282 45 Q 281 29 289 8 Q 298 -13 310 -18 Q 317 -22 329 -17 Q 429 37 624 73 Q 627 74 632 75 C 661 81 649 97 619 94 Z" style="fill: #0070C0;"></path>
                                                                        <path d="M 632 75 Q 692 -7 700 -12 Q 709 -15 717 -6 Q 730 6 725 50 Q 722 104 582 178 Q 575 185 571 173 Q 568 160 619 94 L 632 75 Z" style="fill: #0070C0;"></path>
                                    
                                    
                                                                                                                                                                                                                                                                                                                                                                                                                                                                                                                                                                                                                                                                                                                                                                                        </g>
                            </svg>