<svg width='83' height='83' >
                                <g transform="translate(3, 70) scale(0.07, -0.07)">
                                    <!-- 先将完整的字以灰色字体绘制完成，层级位于下面 -->
                                                                        <path d="M 632 686 Q 689 689 757 686 Q 823 683 830 691 Q 834 701 820 715 Q 769 754 712 742 Q 684 738 652 732 L 597 724 Q 510 718 425 705 L 377 700 Q 289 693 192 684 Q 173 683 187 666 Q 199 653 216 648 Q 235 642 250 646 Q 313 662 385 670 L 427 674 Q 464 683 587 686 L 632 686 Z" style="fill: #0070C0;"></path>
                                                                        <path d="M 425 705 Q 422 735 421 758 Q 422 777 403 782 Q 366 800 344 793 Q 328 786 342 766 Q 367 736 377 700 L 385 670 Q 397 613 412 599 Q 425 589 429 600 Q 432 613 427 674 L 425 705 Z" style="fill: #0070C0;"></path>
                                                                        <path d="M 652 732 Q 662 756 679 782 Q 694 795 684 806 Q 672 822 639 840 Q 623 850 607 842 Q 597 836 604 825 Q 613 798 597 724 L 587 686 Q 571 625 571 615 Q 572 602 587 612 Q 602 624 632 686 L 652 732 Z" style="fill: #0070C0;"></path>
                                                                        <path d="M 243 546 Q 268 525 297 500 Q 313 487 329 489 Q 339 490 345 504 Q 349 520 337 551 Q 325 581 235 596 Q 219 599 212 595 Q 206 591 209 577 Q 213 567 243 546 Z" style="fill: #0070C0;"></path>
                                                                        <path d="M 168 408 Q 208 368 250 349 Q 263 348 271 360 Q 275 373 272 388 Q 259 425 199 439 Q 163 449 153 444 Q 147 443 150 431 Q 153 421 168 408 Z" style="fill: #0070C0;"></path>
                                                                        <path d="M 158 143 Q 148 142 147 125 Q 156 53 184 34 Q 190 27 199 29 Q 206 29 210 53 Q 216 89 323 303 Q 330 316 330 322 Q 330 332 321 326 Q 309 320 196 175 Q 183 159 158 143 Z" style="fill: #0070C0;"></path>
                                                                        <path d="M 683 372 Q 725 378 750 377 Q 774 377 776 367 Q 797 307 744 152 Q 740 142 736 132 Q 726 99 699 69 Q 686 51 674 54 Q 646 63 607 77 Q 592 81 591 78 Q 591 74 606 59 Q 640 25 659 -16 Q 669 -31 677 -34 Q 684 -35 702 -22 Q 753 21 786 89 Q 813 150 836 320 Q 840 345 853 356 Q 866 366 853 381 Q 840 394 811 412 Q 795 422 718 407 Q 598 386 505 376 Q 495 369 490 379 Q 490 394 567 485 Q 606 530 622 534 Q 632 540 633 544 Q 634 551 628 556 Q 609 577 582 587 Q 564 596 535 584 Q 441 551 382 554 Q 369 554 366 549 Q 363 545 368 537 Q 375 527 389 519 Q 402 509 455 522 Q 549 549 552 541 Q 552 505 451 393 Q 417 369 428 333 Q 431 324 457 332 Q 473 336 496 341 L 525 347 Q 568 357 627 366 Q 628 367 631 366 L 683 372 Z" style="fill: #0070C0;"></path>
                                                                        <path d="M 496 341 L 497 340 Q 497 258 375 144 Q 369 140 369 135 Q 369 131 373 131 Q 400 131 474 199 Q 475 202 477 202 Q 513 247 552 291 Q 559 298 553 311 Q 547 326 525 347 C 504 368 493 371 496 341 Z" style="fill: #0070C0;"></path>
                                                                        <path d="M 631 366 Q 644 291 535 151 Q 532 150 531 146 Q 500 106 417 27 Q 410 23 419 20 Q 489 35 593 156 Q 594 160 598 163 Q 637 212 694 309 Q 701 322 708 328 Q 715 332 712 342 Q 711 355 683 372 C 658 389 628 396 631 366 Z" style="fill: #0070C0;"></path>
                                    
                                    
                                                                                                                                                                                                                                                                                                                                                                                                                                                                                                                                                                                                                                                                                                                                                                                        </g>
                            </svg>