<svg width='83' height='83' >
                                <g transform="translate(3, 70) scale(0.07, -0.07)">
                                    <!-- 先将完整的字以灰色字体绘制完成，层级位于下面 -->
                                                                        <path d="M 627 665 Q 676 666 734 665 Q 795 662 802 671 Q 806 681 792 695 Q 738 735 677 719 Q 661 718 646 714 L 592 706 Q 457 691 423 685 L 374 680 Q 298 674 216 664 Q 197 663 211 646 Q 224 633 240 628 Q 259 622 274 626 Q 325 639 382 647 L 425 652 Q 473 661 582 664 L 627 665 Z" style="fill: #0070C0;"></path>
                                                                        <path d="M 423 685 Q 422 710 421 729 Q 422 748 403 754 Q 361 772 344 766 Q 328 759 341 739 Q 363 712 374 680 L 382 647 Q 394 590 408 575 Q 421 565 425 576 Q 429 591 425 652 L 423 685 Z" style="fill: #0070C0;"></path>
                                                                        <path d="M 646 714 Q 647 715 648 718 Q 657 740 673 770 Q 686 785 677 795 Q 664 811 631 827 Q 615 837 598 828 Q 588 821 596 811 Q 608 784 592 706 L 582 664 Q 566 594 566 587 Q 567 574 583 584 Q 593 593 627 665 L 646 714 Z" style="fill: #0070C0;"></path>
                                                                        <path d="M 262 500 Q 262 522 239 539 Q 221 552 219 528 Q 226 494 161 419 Q 143 398 167 343 Q 180 318 200 344 Q 218 369 231 407 Q 244 444 254 468 L 262 500 Z" style="fill: #0070C0;"></path>
                                                                        <path d="M 254 468 Q 278 455 316 463 Q 463 508 689 525 Q 725 528 739 525 Q 755 516 753 508 Q 741 469 727 430 L 729 429 Q 736 425 754 435 Q 809 465 852 471 Q 886 478 887 486 Q 886 496 812 555 Q 788 576 715 562 Q 585 549 364 513 Q 313 506 262 500 C 232 496 226 478 254 468 Z" style="fill: #0070C0;"></path>
                                                                        <path d="M 543 306 Q 573 309 728 309 Q 746 309 750 317 Q 756 327 741 340 Q 690 379 631 361 Q 586 355 528 344 L 478 337 Q 379 325 267 312 Q 248 311 262 295 Q 275 282 291 277 Q 310 273 324 276 Q 378 291 438 297 L 543 306 Z" style="fill: #0070C0;"></path>
                                                                        <path d="M 528 344 Q 529 390 535 411 Q 538 424 530 430 Q 508 451 488 460 Q 475 464 466 457 Q 460 453 467 443 Q 476 428 478 337 L 475 259 Q 475 150 458 81 Q 446 47 479 -8 Q 491 -29 500 -34 Q 512 -35 517 -23 Q 530 10 527 41 Q 526 173 526 282 L 528 344 Z" style="fill: #0070C0;"></path>
                                                                        <path d="M 438 297 Q 402 198 186 59 Q 170 49 185 46 Q 195 43 234 58 Q 283 74 329 106 Q 413 166 473 256 Q 473 257 475 259 C 507 307 459 347 438 297 Z" style="fill: #0070C0;"></path>
                                                                        <path d="M 526 282 Q 664 90 707 68 Q 759 49 881 60 Q 900 60 902 65 Q 905 72 890 79 Q 844 101 790 123 Q 681 168 543 306 C 522 327 507 308 526 282 Z" style="fill: #0070C0;"></path>
                                    
                                    
                                                                                                                                                                                                                                                                                                                                                                                                                                                                                                                                                                                                                                                                                                                                                                                        </g>
                            </svg>