<svg width='83' height='83' >
                                <g transform="translate(3, 70) scale(0.07, -0.07)">
                                    <!-- 先将完整的字以灰色字体绘制完成，层级位于下面 -->
                                                                        <path d="M 623 683 Q 719 692 797 685 Q 813 684 819 694 Q 823 706 810 721 Q 755 767 655 740 Q 651 740 647 738 L 586 728 Q 510 716 425 704 L 372 697 Q 312 691 248 683 Q 217 680 239 664 Q 281 637 359 649 Q 371 653 386 655 L 430 664 Q 466 674 574 680 L 623 683 Z" style="fill: #0070C0;"></path>
                                                                        <path d="M 425 704 Q 421 735 420 759 Q 420 780 398 785 Q 353 803 332 794 Q 313 784 330 764 Q 358 734 372 697 L 386 655 Q 398 613 414 596 Q 429 586 433 598 Q 436 616 430 664 L 425 704 Z" style="fill: #0070C0;"></path>
                                                                        <path d="M 647 738 Q 656 760 673 786 Q 688 801 677 812 Q 665 830 630 848 Q 612 858 594 850 Q 584 843 592 832 Q 604 805 586 728 L 574 680 Q 556 619 558 608 Q 559 593 576 605 Q 588 614 623 683 L 647 738 Z" style="fill: #0070C0;"></path>
                                                                        <path d="M 241 529 Q 232 542 225 547 Q 206 562 204 535 Q 210 505 194 482 Q 179 464 157 445 Q 147 432 151 411 Q 158 380 167 363 Q 183 336 203 365 Q 219 398 252 495 Q 252 498 252 501 L 241 529 Z" style="fill: #0070C0;"></path>
                                                                        <path d="M 252 501 Q 279 483 316 495 Q 478 540 714 557 Q 751 561 767 557 Q 786 550 784 541 Q 762 496 739 448 Q 739 447 741 445 Q 748 441 765 451 Q 823 488 871 499 Q 911 511 910 520 Q 909 530 839 587 Q 814 608 751 595 Q 630 585 370 545 Q 312 538 252 532 Q 245 532 241 529 C 211 524 224 513 252 501 Z" style="fill: #0070C0;"></path>
                                                                        <path d="M 387 375 Q 399 394 412 409 Q 421 419 408 432 Q 374 459 350 457 Q 340 456 342 442 Q 354 385 300 320 Q 287 304 281 294 Q 274 281 287 285 Q 320 289 370 351 L 387 375 Z" style="fill: #0070C0;"></path>
                                                                        <path d="M 545 352 Q 680 373 690 381 Q 699 388 694 396 Q 688 409 660 416 Q 635 422 546 398 L 490 386 Q 441 379 387 375 C 357 373 343 363 370 351 Q 412 330 464 339 Q 476 343 491 343 L 545 352 Z" style="fill: #0070C0;"></path>
                                                                        <path d="M 543 214 Q 579 217 816 217 Q 837 216 843 225 Q 849 238 831 253 Q 776 295 735 287 Q 662 274 543 256 L 491 250 Q 361 237 210 219 Q 188 218 204 199 Q 219 184 238 178 Q 260 171 277 176 Q 416 209 491 210 L 543 214 Z" style="fill: #0070C0;"></path>
                                                                        <path d="M 495 -4 Q 499 -28 506 -37 Q 512 -44 519 -42 Q 532 -33 539 23 Q 542 54 543 214 L 543 256 Q 543 298 545 352 L 546 398 Q 549 422 555 449 Q 558 465 544 475 Q 513 496 499 498 Q 487 502 472 494 Q 463 487 471 477 Q 489 447 490 386 L 491 343 Q 491 301 491 250 L 491 210 Q 491 27 495 -4 Z" style="fill: #0070C0;"></path>
                                    
                                    
                                                                                                                                                                                                                                                                                                                                                                                                                                                                                                                                                                                                                                                                                                                                                                                        </g>
                            </svg>