<svg width='83' height='83' >
                                <g transform="translate(3, 70) scale(0.07, -0.07)">
                                    <!-- 先将完整的字以灰色字体绘制完成，层级位于下面 -->
                                                                        <path d="M 634 651 Q 706 660 812 649 Q 828 648 834 658 Q 840 670 826 685 Q 774 730 681 710 Q 666 709 652 704 L 596 696 Q 517 686 427 675 L 379 670 Q 300 663 213 655 Q 182 652 203 635 Q 245 608 323 619 Q 354 626 388 631 L 430 638 Q 463 647 587 649 L 634 651 Z" style="fill: #0070C0;"></path>
                                                                        <path d="M 427 675 Q 424 712 423 740 Q 424 759 404 765 Q 367 786 343 777 Q 324 768 340 749 Q 368 712 379 670 L 388 631 Q 398 567 415 548 Q 428 538 433 549 Q 440 568 435 591 Q 432 616 430 638 L 427 675 Z" style="fill: #0070C0;"></path>
                                                                        <path d="M 652 704 Q 659 729 676 761 Q 689 777 679 787 Q 666 803 630 818 Q 614 827 596 817 Q 586 810 595 800 Q 607 773 596 696 L 587 649 Q 569 564 570 551 Q 571 538 587 549 Q 603 567 634 651 L 652 704 Z" style="fill: #0070C0;"></path>
                                                                        <path d="M 346 345 Q 345 346 342 345 Q 294 345 255 346 Q 227 346 242 363 Q 299 441 352 498 Q 367 514 365 521 Q 364 534 328 567 Q 313 582 296 579 Q 284 578 290 562 Q 303 525 226 406 Q 210 381 179 356 Q 160 343 162 331 Q 165 312 178 295 Q 187 283 203 292 Q 236 310 327 322 C 357 326 376 345 346 345 Z" style="fill: #0070C0;"></path>
                                                                        <path d="M 327 322 Q 233 211 209 199 Q 196 190 197 177 Q 198 164 223 143 Q 233 130 248 142 Q 305 178 417 213 Q 436 217 439 225 Q 442 235 422 232 Q 365 225 295 209 Q 270 200 287 221 Q 410 365 467 408 Q 480 417 474 427 Q 465 446 434 468 Q 418 478 409 476 Q 399 473 400 458 Q 400 419 346 345 L 327 322 Z" style="fill: #0070C0;"></path>
                                                                        <path d="M 171 51 Q 158 48 158 37 Q 158 24 168 17 Q 193 4 228 -9 Q 238 -10 249 -1 Q 276 27 406 113 Q 425 125 438 138 Q 450 148 449 157 Q 443 161 431 157 Q 334 111 213 60 Q 197 53 171 51 Z" style="fill: #0070C0;"></path>
                                                                        <path d="M 672 408 Q 813 439 819 444 Q 829 453 824 463 Q 815 476 782 483 Q 749 490 670 462 Q 601 444 543 438 Q 501 431 531 412 Q 564 394 610 396 L 672 408 Z" style="fill: #0070C0;"></path>
                                                                        <path d="M 662 133 Q 683 332 690 355 Q 699 386 687 398 Q 684 401 683 402 Q 677 406 672 408 C 645 422 595 422 610 396 Q 623 374 624 359 Q 628 253 623 129 C 622 99 659 103 662 133 Z" style="fill: #0070C0;"></path>
                                                                        <path d="M 623 129 Q 545 122 457 111 Q 435 110 451 91 Q 466 76 484 70 Q 506 64 523 69 Q 703 108 888 90 Q 909 90 914 99 Q 921 111 903 125 Q 846 170 787 155 Q 735 146 662 133 L 623 129 Z" style="fill: #0070C0;"></path>
                                    
                                    
                                                                                                                                                                                                                                                                                                                                                                                                                                                                                                                                                                                                                                                                                                                                                                                        </g>
                            </svg>