<svg width='83' height='83' >
                                <g transform="translate(3, 70) scale(0.07, -0.07)">
                                    <!-- 先将完整的字以灰色字体绘制完成，层级位于下面 -->
                                                                        <path d="M 630 664 Q 718 673 816 665 Q 832 664 839 674 Q 843 686 830 701 Q 776 747 694 725 Q 675 722 655 718 L 596 709 Q 512 699 422 685 L 371 679 Q 293 672 209 663 Q 178 660 199 643 Q 244 613 344 634 Q 362 638 380 640 L 425 647 Q 453 656 583 662 L 630 664 Z" style="fill: #0070C0;"></path>
                                                                        <path d="M 422 685 Q 419 721 418 749 Q 419 770 397 776 Q 358 797 331 788 Q 312 779 329 758 Q 359 724 370 683 Q 370 682 371 679 L 380 640 Q 389 595 407 576 Q 420 566 426 578 Q 432 596 425 647 L 422 685 Z" style="fill: #0070C0;"></path>
                                                                        <path d="M 655 718 Q 664 739 680 764 Q 695 779 684 789 Q 672 805 638 824 Q 622 834 605 826 Q 595 820 602 809 Q 612 782 596 709 L 583 662 Q 567 602 567 592 Q 568 577 584 588 Q 591 594 630 664 L 655 718 Z" style="fill: #0070C0;"></path>
                                                                        <path d="M 300 349 Q 417 493 419 498 Q 418 502 418 505 Q 415 517 391 540 Q 367 559 350 561 Q 332 561 338 540 Q 348 512 335 490 Q 272 367 125 216 Q 115 207 112 202 Q 108 192 121 193 Q 151 197 275 321 L 300 349 Z" style="fill: #0070C0;"></path>
                                                                        <path d="M 275 321 Q 311 242 268 76 Q 258 34 287 -8 Q 288 -11 291 -13 Q 307 -28 318 -3 Q 331 34 331 75 Q 335 238 342 274 Q 349 299 340 308 Q 310 344 300 349 C 276 367 264 349 275 321 Z" style="fill: #0070C0;"></path>
                                                                        <path d="M 562 516 Q 590 494 620 468 Q 633 456 650 458 Q 660 459 665 472 Q 669 488 658 517 Q 651 536 620 548 Q 550 572 532 563 Q 528 559 529 546 Q 533 536 562 516 Z" style="fill: #0070C0;"></path>
                                                                        <path d="M 441 391 Q 401 387 428 367 Q 473 339 533 350 Q 639 366 750 382 Q 801 391 809 397 Q 819 406 815 415 Q 808 428 777 438 Q 747 444 632 415 Q 536 396 441 391 Z" style="fill: #0070C0;"></path>
                                                                        <path d="M 468 250 Q 495 172 517 151 Q 527 144 540 150 Q 550 157 553 173 Q 557 209 492 276 Q 480 286 472 286 Q 466 287 464 276 Q 461 266 468 250 Z" style="fill: #0070C0;"></path>
                                                                        <path d="M 664 120 Q 665 124 669 129 Q 693 171 717 222 Q 727 246 748 275 Q 761 288 753 298 Q 743 314 712 333 Q 699 343 681 336 Q 671 332 678 321 Q 690 281 631 128 Q 628 122 627 116 C 619 87 650 93 664 120 Z" style="fill: #0070C0;"></path>
                                                                        <path d="M 627 116 Q 617 116 606 114 Q 507 104 390 94 Q 368 93 383 75 Q 398 59 416 53 Q 438 46 454 51 Q 638 87 859 67 Q 880 66 885 75 Q 892 87 875 102 Q 818 147 756 133 Q 716 129 664 120 L 627 116 Z" style="fill: #0070C0;"></path>
                                    
                                    
                                                                                                                                                                                                                                                                                                                                                                                                                                                                                                                                                                                                                                                                                                                                                                                                                                                                    </g>
                            </svg>