<svg width='83' height='83' >
                                <g transform="translate(3, 70) scale(0.07, -0.07)">
                                    <!-- 先将完整的字以灰色字体绘制完成，层级位于下面 -->
                                                                        <path d="M 612 709 Q 708 718 798 709 Q 813 708 818 717 Q 822 727 811 742 Q 763 785 679 764 Q 657 761 636 757 L 583 749 Q 507 740 421 729 L 376 724 Q 295 717 207 709 Q 179 706 198 691 Q 241 664 294 672 Q 340 684 385 691 L 424 697 Q 431 706 573 708 L 612 709 Z" style="fill: #0070C0;"></path>
                                                                        <path d="M 421 729 Q 418 760 417 784 Q 418 802 399 807 Q 363 825 342 817 Q 326 810 340 791 Q 365 763 375 728 Q 375 727 376 724 L 385 691 Q 395 652 408 639 Q 420 629 424 640 Q 430 661 424 697 L 421 729 Z" style="fill: #0070C0;"></path>
                                                                        <path d="M 636 757 Q 640 772 659 796 Q 672 809 663 819 Q 653 835 620 852 Q 605 862 589 854 Q 579 848 586 838 Q 595 819 583 749 L 573 708 Q 567 684 567 671 Q 568 658 583 668 Q 595 677 612 709 L 636 757 Z" style="fill: #0070C0;"></path>
                                                                        <path d="M 498 587 Q 523 600 584 603 Q 599 602 602 608 Q 606 615 598 627 Q 555 670 524 671 Q 518 670 516 660 Q 510 624 310 566 Q 304 559 309 556 Q 319 553 459 577 L 498 587 Z" style="fill: #0070C0;"></path>
                                                                        <path d="M 540 485 Q 579 489 756 489 Q 774 489 778 497 Q 784 507 769 520 Q 715 556 680 545 Q 617 535 522 519 L 473 513 Q 361 500 227 484 Q 208 483 222 467 Q 235 454 251 449 Q 270 445 284 448 Q 354 467 434 475 L 540 485 Z" style="fill: #0070C0;"></path>
                                                                        <path d="M 522 519 Q 523 532 534 550 Q 538 557 529 569 Q 514 581 498 587 C 470 599 445 604 459 577 Q 472 556 473 513 L 474 442 Q 471 370 482 347 L 483 345 Q 490 332 503 339 Q 512 346 512 407 Q 512 441 515 472 L 522 519 Z" style="fill: #0070C0;"></path>
                                                                        <path d="M 434 475 Q 427 460 408 443 Q 353 385 294 350 Q 245 317 148 274 Q 129 265 144 261 Q 154 257 195 266 Q 246 273 296 299 Q 395 350 460 426 Q 467 436 474 442 C 510 479 462 523 434 475 Z" style="fill: #0070C0;"></path>
                                                                        <path d="M 515 472 Q 615 381 723 299 Q 748 280 785 283 Q 854 287 922 310 Q 940 314 941 319 Q 942 326 927 330 Q 752 372 725 383 Q 665 405 540 485 C 512 503 493 492 515 472 Z" style="fill: #0070C0;"></path>
                                                                        <path d="M 432 265 Q 498 287 550 296 Q 563 299 566 294 Q 570 290 565 278 Q 538 224 513 205 Q 504 198 506 186 Q 509 167 518 160 Q 528 153 540 161 Q 586 185 631 186 Q 653 187 660 178 Q 678 145 630 50 Q 623 35 609 32 Q 597 29 515 47 Q 488 56 511 32 Q 548 -7 575 -40 Q 587 -59 605 -52 Q 653 -34 683 35 Q 717 134 735 151 Q 751 164 741 177 Q 731 189 695 211 Q 676 220 655 214 Q 597 202 582 205 Q 566 211 581 227 Q 615 275 641 288 Q 666 300 660 311 Q 657 321 610 345 Q 595 354 579 346 Q 525 318 320 281 Q 311 282 309 276 Q 308 269 332 253 Q 357 237 383 250 Q 387 251 394 253 L 432 265 Z" style="fill: #0070C0;"></path>
                                                                        <path d="M 394 253 Q 394 127 205 -8 Q 198 -14 203 -17 Q 230 -27 308 26 Q 380 71 439 184 Q 449 202 462 220 Q 469 227 465 237 Q 461 247 434 265 Q 433 266 432 265 C 406 280 395 283 394 253 Z" style="fill: #0070C0;"></path>
                                    
                                    
                                                                                                                                                                                                                                                                                                                                                                                                                                                                                                                                                                                                                                                                                                                                                                                                                                                                    </g>
                            </svg>