<svg width='83' height='83' >
                                <g transform="translate(3, 70) scale(0.07, -0.07)">
                                    <!-- 先将完整的字以灰色字体绘制完成，层级位于下面 -->
                                                                        <path d="M 619 689 Q 685 698 786 691 Q 802 690 807 699 Q 811 711 798 726 Q 752 769 649 744 Q 648 744 646 743 L 590 733 Q 511 723 422 709 L 374 703 Q 298 696 216 686 Q 185 683 206 667 Q 248 642 322 653 Q 352 660 384 666 L 425 673 Q 461 682 577 687 L 619 689 Z" style="fill: #0070C0;"></path>
                                                                        <path d="M 422 709 Q 419 740 419 765 Q 420 784 400 790 Q 360 808 339 801 Q 321 792 336 773 Q 363 745 373 709 Q 373 706 374 703 L 384 666 Q 390 632 407 615 Q 420 605 425 617 Q 432 639 425 673 L 422 709 Z" style="fill: #0070C0;"></path>
                                                                        <path d="M 646 743 Q 646 744 647 744 Q 654 762 670 784 Q 683 797 674 807 Q 664 823 632 841 Q 617 850 601 843 Q 591 837 598 827 Q 607 808 590 733 L 577 687 Q 568 648 567 639 Q 568 626 583 635 Q 589 641 619 689 L 646 743 Z" style="fill: #0070C0;"></path>
                                                                        <path d="M 478 618 Q 436 585 322 542 Q 316 535 321 532 Q 345 525 486 566 Q 495 575 566 585 Q 581 584 585 591 Q 589 600 579 611 Q 563 626 524 644 Q 511 651 500 652 Q 493 648 492 639 Q 491 626 478 618 Z" style="fill: #0070C0;"></path>
                                                                        <path d="M 293 470 Q 315 449 340 424 Q 350 414 364 414 Q 373 414 377 425 Q 381 437 375 461 Q 371 477 345 491 Q 285 515 272 511 Q 268 507 269 497 Q 272 487 293 470 Z" style="fill: #0070C0;"></path>
                                                                        <path d="M 439 512 Q 461 472 486 457 Q 496 453 504 461 Q 510 470 510 482 Q 509 500 497 511 Q 458 547 434 542 Q 430 541 429 532 Q 429 525 439 512 Z" style="fill: #0070C0;"></path>
                                                                        <path d="M 643 553 Q 627 529 572 473 Q 560 458 577 460 Q 629 481 678 507 Q 697 520 721 527 Q 742 534 734 552 Q 724 570 700 586 Q 679 601 667 599 Q 654 599 657 586 Q 658 568 643 553 Z" style="fill: #0070C0;"></path>
                                                                        <path d="M 519 280 Q 619 356 647 362 Q 666 368 661 384 Q 658 400 596 437 Q 577 447 556 439 Q 492 420 396 396 Q 371 389 312 394 Q 290 395 297 376 Q 304 363 321 352 Q 351 334 383 352 Q 407 359 530 396 Q 543 400 554 393 Q 566 386 560 372 Q 535 338 506 295 C 489 270 495 262 519 280 Z" style="fill: #0070C0;"></path>
                                                                        <path d="M 533 256 Q 530 268 519 280 L 506 295 Q 496 305 482 312 Q 472 319 467 311 Q 463 307 470 294 Q 479 275 485 251 L 493 213 Q 502 60 476 40 Q 467 31 380 42 Q 370 43 364 40 Q 360 39 376 28 Q 436 -15 471 -52 Q 489 -68 505 -59 Q 526 -46 539 7 Q 555 65 548 164 Q 547 194 543 216 L 533 256 Z" style="fill: #0070C0;"></path>
                                                                        <path d="M 543 216 Q 655 223 814 216 Q 895 213 902 222 Q 909 235 890 252 Q 830 301 762 287 Q 671 274 533 256 L 485 251 Q 322 238 131 221 Q 107 220 124 199 Q 158 165 203 173 Q 333 203 493 213 L 543 216 Z" style="fill: #0070C0;"></path>
                                    
                                    
                                                                                                                                                                                                                                                                                                                                                                                                                                                                                                                                                                                                                                                                                                                                                                                                                                                                    </g>
                            </svg>