<svg width='83' height='83' >
                                <g transform="translate(3, 70) scale(0.07, -0.07)">
                                    <!-- 先将完整的字以灰色字体绘制完成，层级位于下面 -->
                                                                        <path d="M 624 661 Q 720 670 812 661 Q 828 660 834 670 Q 840 682 826 697 Q 772 740 682 721 Q 664 720 646 715 L 588 706 Q 504 696 412 683 L 359 677 Q 286 671 209 663 Q 178 660 199 643 Q 245 613 330 630 Q 349 634 370 637 L 415 645 Q 454 654 577 660 L 624 661 Z" style="fill: #0070C0;"></path>
                                                                        <path d="M 412 683 Q 409 711 408 735 Q 409 754 389 761 Q 347 780 325 773 Q 306 763 322 744 Q 347 713 359 677 L 370 637 Q 382 574 399 556 Q 412 546 417 557 Q 420 567 415 645 L 412 683 Z" style="fill: #0070C0;"></path>
                                                                        <path d="M 646 715 Q 653 736 670 760 Q 683 776 673 786 Q 661 802 626 820 Q 610 829 592 820 Q 582 814 590 803 Q 602 776 588 706 L 577 660 Q 562 593 562 583 Q 563 570 579 581 Q 597 594 624 661 L 646 715 Z" style="fill: #0070C0;"></path>
                                                                        <path d="M 534 529 Q 534 530 535 530 Q 544 534 544 545 Q 544 555 533 570 Q 520 586 502 596 Q 481 608 470 607 Q 460 606 460 593 Q 463 512 303 370 Q 290 360 276 349 Q 225 309 103 236 Q 93 232 104 227 Q 170 227 301 312 Q 385 370 514 510 Q 514 511 515 511 L 534 529 Z" style="fill: #0070C0;"></path>
                                                                        <path d="M 515 511 Q 750 288 803 281 Q 884 281 967 303 Q 986 307 987 312 Q 988 319 973 324 Q 763 384 664 439 Q 621 464 580 494 Q 553 515 534 529 C 510 547 493 532 515 511 Z" style="fill: #0070C0;"></path>
                                                                        <path d="M 378 336 Q 342 330 367 314 Q 403 289 461 302 Q 528 314 598 326 Q 629 333 634 337 Q 643 344 639 352 Q 632 364 604 372 Q 576 378 546 367 Q 510 357 471 347 Q 428 340 378 336 Z" style="fill: #0070C0;"></path>
                                                                        <path d="M 306 182 Q 336 152 366 116 Q 376 103 390 103 Q 400 102 405 113 Q 411 125 406 152 Q 403 174 373 193 Q 301 230 288 227 Q 284 224 283 213 Q 286 203 306 182 Z" style="fill: #0070C0;"></path>
                                                                        <path d="M 432 230 Q 480 155 502 152 Q 514 149 522 165 Q 525 177 519 196 Q 512 214 489 226 Q 455 248 440 254 Q 431 257 429 246 Q 428 239 432 230 Z" style="fill: #0070C0;"></path>
                                                                        <path d="M 558 62 Q 604 122 641 177 Q 657 202 684 232 Q 700 242 693 255 Q 686 274 657 297 Q 644 310 625 305 Q 615 301 619 289 Q 626 241 534 85 Q 525 70 522 58 C 513 29 540 38 558 62 Z" style="fill: #0070C0;"></path>
                                                                        <path d="M 522 58 Q 342 43 246 34 Q 224 33 239 15 Q 254 -1 272 -7 Q 294 -14 310 -9 Q 503 31 767 11 Q 788 10 793 19 Q 800 31 783 46 Q 726 91 661 77 Q 616 71 558 62 L 522 58 Z" style="fill: #0070C0;"></path>
                                    
                                    
                                                                                                                                                                                                                                                                                                                                                                                                                                                                                                                                                                                                                                                                                                                                                                                                                                                                    </g>
                            </svg>