<svg width='83' height='83' >
                                <g transform="translate(3, 70) scale(0.07, -0.07)">
                                    <!-- 先将完整的字以灰色字体绘制完成，层级位于下面 -->
                                                                        <path d="M 429 747 Q 425 775 424 797 Q 425 816 405 822 Q 365 840 343 832 Q 325 823 341 804 Q 366 774 378 738 L 388 704 Q 406 637 419 623 Q 432 613 437 625 Q 437 628 432 716 L 429 747 Z" style="fill: #0070C0;"></path>
                                                                        <path d="M 432 716 Q 445 720 460 724 Q 475 727 492 736 Q 498 740 496 747 Q 495 753 482 756 Q 457 752 429 747 L 378 738 Q 317 731 241 717 Q 198 718 177 715 Q 165 716 164 712 Q 163 705 169 695 Q 182 680 209 669 Q 227 660 243 666 Q 313 685 388 704 L 432 716 Z" style="fill: #0070C0;"></path>
                                                                        <path d="M 675 749 Q 676 752 677 754 Q 684 779 701 814 Q 714 830 703 839 Q 690 855 654 870 Q 638 879 620 868 Q 610 861 619 851 Q 631 826 620 743 L 615 715 Q 596 613 597 605 Q 600 593 613 601 Q 628 617 661 707 L 675 749 Z" style="fill: #0070C0;"></path>
                                                                        <path d="M 661 707 Q 751 725 860 711 Q 873 710 878 717 Q 882 727 872 740 Q 830 776 747 759 Q 713 755 675 749 L 620 743 Q 613 743 605 742 Q 580 741 597 726 Q 606 720 615 715 C 637 702 637 702 661 707 Z" style="fill: #0070C0;"></path>
                                                                        <path d="M 352 479 Q 451 501 455 504 Q 462 511 459 518 Q 452 528 427 534 Q 396 541 357 522 L 306 509 Q 264 500 216 496 Q 185 492 207 476 Q 246 455 292 467 Q 298 468 307 470 L 352 479 Z" style="fill: #0070C0;"></path>
                                                                        <path d="M 195 387 Q 191 396 151 405 Q 141 409 137 404 Q 131 400 137 384 Q 158 335 168 255 Q 169 231 182 215 Q 197 194 202 208 Q 209 224 206 260 Q 200 327 198 356 L 195 387 Z" style="fill: #0070C0;"></path>
                                                                        <path d="M 349 385 Q 449 406 458 398 Q 467 391 465 365 Q 462 340 460 308 Q 459 286 451 277 Q 445 267 422 271 Q 377 275 375 273 Q 371 269 384 260 Q 424 227 446 200 Q 455 190 469 192 Q 478 195 487 213 Q 506 241 508 280 Q 512 362 525 390 Q 532 403 526 411 Q 466 451 440 434 Q 407 421 350 410 L 307 401 Q 258 394 195 387 C 165 384 168 352 198 356 Q 205 356 213 358 Q 265 370 307 377 L 349 385 Z" style="fill: #0070C0;"></path>
                                                                        <path d="M 303 223 Q 303 126 283 57 Q 274 18 296 -32 Q 300 -48 308 -51 Q 314 -57 320 -50 Q 327 -46 336 -27 Q 345 -5 344 22 Q 343 59 349 385 L 350 410 Q 350 450 352 479 L 357 522 Q 360 544 366 562 Q 373 575 372 587 Q 365 596 317 626 Q 296 641 278 627 Q 274 623 279 609 Q 304 569 306 509 L 307 470 Q 307 437 307 401 L 307 377 Q 306 343 304 306 L 303 223 Z" style="fill: #0070C0;"></path>
                                                                        <path d="M 304 306 Q 237 194 66 46 Q 59 37 69 34 Q 90 30 198 113 Q 250 155 303 223 C 322 247 320 332 304 306 Z" style="fill: #0070C0;"></path>
                                                                        <path d="M 413 132 Q 432 107 454 76 Q 464 61 480 59 Q 490 58 497 69 Q 504 82 501 112 Q 500 131 473 149 Q 415 186 396 183 Q 392 180 390 168 Q 391 156 413 132 Z" style="fill: #0070C0;"></path>
                                                                        <path d="M 584 455 Q 612 386 592 226 Q 586 193 612 162 Q 622 152 630 162 Q 646 189 647 269 Q 647 395 652 427 Q 658 448 639 459 Q 599 481 588 475 Q 581 468 584 455 Z" style="fill: #0070C0;"></path>
                                    
                                    
                                                                                                                                                                                                                                                                                                                                                                                                                                                                                                                                                                                                                                                                                                                                                                                                                                                                                                                                                </g>
                            </svg>