<svg width='83' height='83' >
                                <g transform="translate(3, 70) scale(0.07, -0.07)">
                                    <!-- 先将完整的字以灰色字体绘制完成，层级位于下面 -->
                                                                        <path d="M 535 590 Q 532 693 536 718 Q 537 739 525 750 Q 504 766 479 775 Q 466 779 458 774 Q 451 768 457 754 Q 472 730 479 705 Q 483 680 497 583 C 501 553 536 560 535 590 Z" style="fill: #0070C0;"></path>
                                                                        <path d="M 631 608 Q 653 752 669 788 Q 673 797 657 811 Q 629 829 608 834 Q 595 838 588 831 Q 581 825 587 812 Q 600 793 599 778 Q 600 696 593 601 C 591 571 626 578 631 608 Z" style="fill: #0070C0;"></path>
                                                                        <path d="M 387 632 Q 430 589 443 589 Q 453 589 457 601 Q 461 614 454 639 Q 450 652 428 662 Q 377 680 364 675 Q 360 671 361 660 Q 364 650 387 632 Z" style="fill: #0070C0;"></path>
                                                                        <path d="M 719 734 Q 712 716 673 657 Q 666 641 681 646 Q 702 658 760 696 Q 776 712 797 723 Q 816 733 805 749 Q 792 762 767 775 Q 745 785 733 782 Q 723 781 727 768 Q 731 752 719 734 Z" style="fill: #0070C0;"></path>
                                                                        <path d="M 656 571 Q 716 578 801 581 Q 852 581 860 591 Q 864 603 849 615 Q 797 651 735 632 Q 690 622 631 608 L 593 601 Q 589 601 586 600 Q 559 596 535 590 L 497 583 Q 433 573 367 561 Q 348 558 362 543 Q 375 531 393 527 Q 412 523 427 527 Q 535 561 622 567 L 656 571 Z" style="fill: #0070C0;"></path>
                                                                        <path d="M 451 495 Q 481 432 503 429 Q 513 425 523 440 Q 526 450 521 470 Q 509 498 459 517 Q 452 520 449 511 Q 446 504 451 495 Z" style="fill: #0070C0;"></path>
                                                                        <path d="M 627 442 Q 628 446 631 448 Q 647 467 663 492 Q 670 502 682 516 Q 695 526 689 536 Q 682 552 656 571 C 632 589 611 595 622 567 Q 622 566 624 562 Q 631 538 598 451 Q 594 442 591 433 C 581 405 613 416 627 442 Z" style="fill: #0070C0;"></path>
                                                                        <path d="M 556 393 Q 620 406 725 418 Q 734 417 741 427 Q 742 436 724 445 Q 694 461 633 444 Q 630 444 627 442 L 591 433 Q 590 434 588 433 Q 536 423 416 407 Q 392 404 410 390 Q 440 369 462 376 Q 486 382 515 386 L 556 393 Z" style="fill: #0070C0;"></path>
                                                                        <path d="M 585 288 Q 646 298 701 304 Q 725 307 717 320 Q 707 335 682 341 Q 649 347 593 331 L 528 317 Q 464 305 404 293 Q 388 290 407 274 Q 420 264 451 268 Q 488 275 526 279 L 585 288 Z" style="fill: #0070C0;"></path>
                                                                        <path d="M 586 191 Q 670 203 840 203 Q 859 203 863 211 Q 867 221 853 235 Q 805 271 769 262 Q 696 246 572 226 L 517 218 Q 426 206 327 193 Q 308 190 322 175 Q 335 162 352 157 Q 371 153 387 157 Q 442 173 505 181 L 586 191 Z" style="fill: #0070C0;"></path>
                                                                        <path d="M 572 226 Q 578 254 585 288 L 593 331 Q 596 346 600 353 Q 607 360 601 370 Q 592 380 556 393 C 528 404 505 413 515 386 Q 515 383 519 377 Q 529 344 529 319 Q 528 318 528 317 L 526 279 Q 523 246 517 218 L 505 181 Q 472 81 330 3 Q 324 0 319 -3 Q 297 -16 325 -15 Q 409 -19 492 61 Q 501 71 510 83 Q 537 117 558 175 Q 558 179 560 181 L 572 226 Z" style="fill: #0070C0;"></path>
                                                                        <path d="M 560 181 Q 692 -9 731 -17 Q 737 -17 747 -16 Q 835 -6 863 2 Q 870 5 872 9 Q 873 13 861 20 Q 723 74 613 169 Q 598 179 586 191 C 561 214 543 206 560 181 Z" style="fill: #0070C0;"></path>
                                    
                                    
                                                                                                                                                                                                                                                                                                                                                                                                                                                                                                                                                                                                                                                                                                                                                                                                                                                                                                                                                                                                                            </g>
                            </svg>