<svg width='83' height='83' >
                                <g transform="translate(3, 70) scale(0.07, -0.07)">
                                    <!-- 先将完整的字以灰色字体绘制完成，层级位于下面 -->
                                                                        <path d="M 639 686 Q 681 696 802 685 Q 817 684 822 693 Q 826 703 815 718 Q 766 763 672 738 Q 665 738 660 736 L 602 727 Q 514 715 416 703 L 365 698 Q 292 692 215 685 Q 187 682 206 667 Q 251 640 331 655 Q 352 659 374 663 L 417 670 Q 456 682 591 684 L 639 686 Z" style="fill: #0070C0;"></path>
                                                                        <path d="M 416 703 Q 415 730 414 751 Q 415 770 396 777 Q 357 798 335 790 Q 316 783 331 762 Q 355 732 365 698 L 374 663 Q 387 600 400 588 Q 413 578 417 589 Q 421 604 417 670 L 416 703 Z" style="fill: #0070C0;"></path>
                                                                        <path d="M 660 736 Q 669 755 685 780 Q 698 795 689 805 Q 676 823 642 840 Q 626 850 608 841 Q 598 835 606 824 Q 616 800 602 727 L 591 684 Q 573 627 575 607 Q 576 594 592 604 Q 607 617 639 686 L 660 736 Z" style="fill: #0070C0;"></path>
                                                                        <path d="M 479 584 Q 501 566 524 545 Q 537 533 551 535 Q 561 536 565 548 Q 569 561 559 589 Q 553 605 527 615 Q 461 633 452 627 Q 448 623 449 611 Q 453 601 479 584 Z" style="fill: #0070C0;"></path>
                                                                        <path d="M 269 479 Q 257 506 245 516 Q 226 531 224 504 Q 224 467 192 429 Q 147 387 179 327 Q 194 299 215 328 Q 231 350 243 385 Q 255 424 265 448 C 274 469 274 469 269 479 Z" style="fill: #0070C0;"></path>
                                                                        <path d="M 265 448 Q 289 436 326 443 Q 453 482 677 503 Q 719 507 733 505 Q 751 492 748 484 Q 748 480 725 415 Q 718 402 725 397 Q 732 393 749 406 Q 801 442 844 454 Q 880 466 879 474 Q 878 484 804 536 Q 782 552 710 540 Q 560 524 372 492 Q 320 485 269 479 C 239 475 236 457 265 448 Z" style="fill: #0070C0;"></path>
                                                                        <path d="M 453 314 Q 534 329 625 342 Q 677 352 685 359 Q 695 366 691 376 Q 684 388 654 397 Q 627 403 502 370 Q 372 349 312 345 Q 275 341 300 322 Q 345 295 401 307 Q 402 307 406 307 L 453 314 Z" style="fill: #0070C0;"></path>
                                                                        <path d="M 402 201 Q 415 222 470 276 Q 480 286 478 295 Q 475 307 453 314 C 425 326 414 331 406 307 Q 394 264 345 205 L 327 185 Q 245 104 128 19 Q 109 6 134 9 Q 194 12 343 141 L 402 201 Z" style="fill: #0070C0;"></path>
                                                                        <path d="M 345 205 L 344 206 Q 331 210 327 204 Q 320 200 327 185 L 343 141 Q 359 93 369 25 Q 370 -3 387 -23 Q 406 -47 411 -31 Q 417 -15 416 12 L 412 49 Q 400 139 400 165 L 345 205 Z" style="fill: #0070C0;"></path>
                                                                        <path d="M 680 74 Q 702 146 734 168 Q 753 187 737 206 Q 719 221 665 248 Q 646 257 623 248 Q 554 224 402 201 C 360 194 367 161 400 165 Q 415 166 601 196 Q 623 200 632 190 Q 641 183 640 165 Q 634 119 626 81 C 620 52 671 45 680 74 Z" style="fill: #0070C0;"></path>
                                                                        <path d="M 416 12 Q 420 12 430 13 Q 514 28 693 36 Q 705 37 707 46 Q 707 55 680 74 C 661 88 655 87 626 81 Q 505 57 412 49 C 382 46 386 10 416 12 Z" style="fill: #0070C0;"></path>
                                    
                                    
                                                                                                                                                                                                                                                                                                                                                                                                                                                                                                                                                                                                                                                                                                                                                                                                                                                                                                                                                </g>
                            </svg>