<svg width='83' height='83' >
                                <g transform="translate(3, 70) scale(0.07, -0.07)">
                                    <!-- 先将完整的字以灰色字体绘制完成，层级位于下面 -->
                                                                        <path d="M 629 659 Q 719 668 817 657 Q 833 656 838 665 Q 842 675 831 690 Q 786 732 690 712 Q 669 711 649 706 L 592 698 Q 514 691 429 679 L 380 675 Q 296 669 203 661 Q 175 658 194 643 Q 233 616 290 623 Q 338 635 386 642 L 430 648 Q 436 655 584 658 L 629 659 Z" style="fill: #0070C0;"></path>
                                                                        <path d="M 429 679 Q 429 716 429 745 Q 432 764 411 772 Q 369 794 349 788 Q 330 779 344 759 Q 365 729 380 675 L 386 642 Q 390 603 408 584 Q 421 572 426 585 Q 429 595 430 648 L 429 679 Z" style="fill: #0070C0;"></path>
                                                                        <path d="M 649 706 Q 661 737 679 767 Q 692 782 682 793 Q 669 809 634 828 Q 616 837 598 828 Q 588 821 596 810 Q 609 780 592 698 L 584 658 Q 572 622 574 600 Q 575 585 592 597 Q 601 604 629 659 L 649 706 Z" style="fill: #0070C0;"></path>
                                                                        <path d="M 376 190 Q 376 145 359 85 Q 350 46 372 -4 Q 376 -20 384 -23 Q 390 -29 396 -22 Q 403 -18 412 1 Q 416 13 422 154 Q 426 458 442 506 Q 449 519 447 531 Q 441 538 393 570 Q 372 585 354 571 Q 350 567 355 553 Q 377 520 378 472 L 379 433 Q 379 390 379 344 L 378 300 Q 377 258 376 214 L 376 190 Z" style="fill: #0070C0;"></path>
                                                                        <path d="M 378 472 Q 354 479 328 470 Q 300 463 270 457 Q 236 453 197 451 Q 166 448 187 432 Q 217 413 291 421 Q 333 427 379 433 C 409 437 407 465 378 472 Z" style="fill: #0070C0;"></path>
                                                                        <path d="M 379 344 Q 370 345 278 325 Q 248 321 213 318 Q 179 312 203 297 Q 233 278 309 289 Q 342 295 378 300 C 408 304 409 346 379 344 Z" style="fill: #0070C0;"></path>
                                                                        <path d="M 376 214 Q 166 166 140 165 Q 131 166 125 167 Q 112 168 109 155 Q 106 143 118 134 Q 151 110 165 104 Q 183 97 203 107 Q 234 126 376 190 C 403 202 405 221 376 214 Z" style="fill: #0070C0;"></path>
                                                                        <path d="M 625 197 Q 625 251 627 321 L 627 354 Q 627 426 631 465 L 637 500 Q 638 507 641 513 Q 650 528 646 540 Q 640 549 587 581 Q 565 597 546 582 Q 542 578 547 563 Q 571 529 572 479 Q 572 143 571 127 Q 567 96 559 64 Q 550 31 557 12 Q 564 -9 573 -31 Q 580 -47 587 -51 Q 593 -57 600 -50 Q 607 -46 617 -25 Q 626 -3 625 28 Q 624 49 625 161 L 625 197 Z" style="fill: #0070C0;"></path>
                                                                        <path d="M 631 465 Q 668 459 732 472 Q 825 493 828 495 Q 837 504 832 512 Q 825 524 794 530 Q 770 534 692 511 Q 661 505 637 500 C 608 494 601 469 631 465 Z" style="fill: #0070C0;"></path>
                                                                        <path d="M 627 321 Q 697 311 815 339 Q 824 346 819 356 Q 812 368 782 376 Q 751 382 721 370 Q 699 364 675 359 Q 653 356 627 354 C 597 352 597 325 627 321 Z" style="fill: #0070C0;"></path>
                                                                        <path d="M 625 161 Q 659 158 772 168 Q 833 171 893 173 Q 908 174 908 181 Q 909 194 888 212 Q 846 242 796 222 Q 745 210 707 206 Q 667 203 625 197 C 595 193 595 163 625 161 Z" style="fill: #0070C0;"></path>
                                    
                                    
                                                                                                                                                                                                                                                                                                                                                                                                                                                                                                                                                                                                                                                                                                                                                                                                                                                                                                                                                </g>
                            </svg>