<svg width='83' height='83' >
                                <g transform="translate(3, 70) scale(0.07, -0.07)">
                                    <!-- 先将完整的字以灰色字体绘制完成，层级位于下面 -->
                                                                        <path d="M 616 694 Q 691 703 793 695 Q 809 694 814 703 Q 820 715 806 730 Q 760 773 655 750 Q 645 749 636 746 L 584 738 Q 511 729 428 717 L 379 711 Q 295 704 204 694 Q 174 691 195 675 Q 240 648 326 663 Q 356 670 387 675 L 430 681 Q 430 682 431 682 Q 498 689 574 693 L 616 694 Z" style="fill: #0070C0;"></path>
                                                                        <path d="M 428 717 Q 427 747 426 771 Q 427 790 408 797 Q 369 818 347 810 Q 328 803 343 782 Q 370 749 379 711 L 387 675 Q 402 618 412 608 Q 425 598 429 609 Q 435 627 430 681 L 428 717 Z" style="fill: #0070C0;"></path>
                                                                        <path d="M 636 746 Q 637 747 638 750 Q 645 771 661 797 Q 674 810 664 820 Q 652 836 620 851 Q 604 860 588 851 Q 579 845 587 835 Q 596 811 584 738 L 574 693 Q 561 654 563 631 Q 564 618 578 628 Q 590 638 616 694 L 636 746 Z" style="fill: #0070C0;"></path>
                                                                        <path d="M 643 488 Q 656 491 671 492 Q 749 505 761 514 Q 770 521 766 529 Q 760 541 734 549 Q 707 556 657 542 L 578 523 Q 536 516 420 495 L 360 489 Q 311 488 259 485 Q 225 482 248 465 Q 284 438 365 452 L 367 452 L 417 457 Q 496 470 580 480 L 643 488 Z" style="fill: #0070C0;"></path>
                                                                        <path d="M 420 495 Q 426 529 413 542 Q 391 561 365 571 Q 350 578 342 572 Q 333 566 339 550 Q 352 520 360 489 L 367 452 L 368 450 Q 372 398 373 194 C 373 164 413 168 413 198 Q 413 232 413 263 L 413 290 Q 413 326 414 355 L 414 381 Q 414 412 417 457 L 420 495 Z" style="fill: #0070C0;"></path>
                                                                        <path d="M 618 218 Q 630 347 640 464 Q 641 477 643 488 L 657 542 Q 657 545 658 545 Q 662 555 642 572 Q 606 591 582 596 Q 566 600 558 591 Q 551 584 558 569 Q 576 544 578 523 L 580 480 Q 583 356 576 213 C 575 183 615 188 618 218 Z" style="fill: #0070C0;"></path>
                                                                        <path d="M 414 355 Q 415 355 418 355 Q 485 365 536 371 Q 557 374 549 385 Q 539 398 517 402 Q 490 408 414 381 C 386 371 384 354 414 355 Z" style="fill: #0070C0;"></path>
                                                                        <path d="M 413 263 Q 480 272 532 279 Q 553 282 545 293 Q 535 306 513 310 Q 483 316 413 290 C 385 280 383 259 413 263 Z" style="fill: #0070C0;"></path>
                                                                        <path d="M 373 194 Q 264 187 147 176 Q 123 175 140 155 Q 155 139 175 132 Q 197 125 216 129 Q 477 189 874 167 Q 896 167 902 176 Q 908 189 891 205 Q 825 256 782 241 Q 715 231 618 218 L 576 213 Q 540 212 502 206 Q 459 203 413 198 L 373 194 Z" style="fill: #0070C0;"></path>
                                                                        <path d="M 376 118 Q 360 64 207 -32 Q 183 -44 211 -45 Q 286 -48 443 72 Q 456 82 455 92 Q 454 105 429 118 Q 402 133 389 132 Q 382 131 376 118 Z" style="fill: #0070C0;"></path>
                                                                        <path d="M 574 94 Q 638 42 713 -36 Q 729 -55 745 -59 Q 754 -60 761 -49 Q 773 -36 758 7 Q 743 61 574 125 Q 564 129 563 117 Q 563 104 574 94 Z" style="fill: #0070C0;"></path>
                                    
                                    
                                                                                                                                                                                                                                                                                                                                                                                                                                                                                                                                                                                                                                                                                                                                                                                                                                                                                                                                                </g>
                            </svg>