<svg width='83' height='83' >
                                <g transform="translate(3, 70) scale(0.07, -0.07)">
                                    <!-- 先将完整的字以灰色字体绘制完成，层级位于下面 -->
                                                                        <path d="M 634 714 Q 685 724 810 713 Q 825 712 830 721 Q 834 731 823 746 Q 775 789 694 768 Q 673 767 655 762 L 597 753 Q 503 741 399 728 L 351 724 Q 272 717 187 709 Q 159 706 178 691 Q 221 664 302 679 Q 330 685 360 690 L 401 696 Q 432 706 585 712 L 634 714 Z" style="fill: #0070C0;"></path>
                                                                        <path d="M 399 728 Q 398 753 397 774 Q 398 793 379 798 Q 337 816 320 810 Q 304 801 318 783 Q 340 758 351 724 L 360 690 Q 370 645 384 631 Q 397 621 401 632 Q 407 653 401 696 L 399 728 Z" style="fill: #0070C0;"></path>
                                                                        <path d="M 655 762 Q 662 781 678 802 Q 693 815 683 826 Q 673 842 639 861 Q 624 871 607 863 Q 597 857 604 846 Q 614 816 597 753 L 585 712 Q 561 643 563 627 Q 564 614 579 624 Q 589 633 634 714 L 655 762 Z" style="fill: #0070C0;"></path>
                                                                        <path d="M 422 560 Q 422 561 424 562 Q 470 610 482 616 Q 497 626 487 638 Q 474 648 453 656 Q 434 663 424 660 Q 415 657 420 648 Q 424 630 364 523 Q 358 510 371 514 Q 389 530 403 542 L 422 560 Z" style="fill: #0070C0;"></path>
                                                                        <path d="M 672 34 Q 660 30 597 50 Q 587 54 587 48 Q 586 44 598 35 Q 638 -8 655 -38 Q 665 -57 677 -57 Q 699 -57 720 -33 Q 792 37 805 196 Q 815 305 813 471 Q 812 508 833 538 Q 846 551 845 560 Q 844 569 824 582 Q 797 601 762 612 Q 743 618 681 602 Q 662 599 634 592 Q 526 571 422 560 C 392 557 373 545 403 542 Q 439 532 589 549 Q 724 567 737 553 Q 762 507 752 266 Q 745 155 710 75 Q 694 38 672 34 Z" style="fill: #0070C0;"></path>
                                                                        <path d="M 357 438 Q 367 451 378 460 Q 388 469 378 483 Q 347 514 326 514 Q 316 513 317 501 Q 318 438 251 378 Q 235 363 226 354 Q 219 342 230 344 Q 260 344 327 403 Q 333 409 342 421 L 357 438 Z" style="fill: #0070C0;"></path>
                                                                        <path d="M 443 407 Q 581 434 587 438 Q 594 445 591 453 Q 584 463 558 471 Q 530 477 503 466 Q 472 456 438 448 Q 401 441 357 438 C 327 436 322 435 342 421 Q 354 409 402 402 L 443 407 Z" style="fill: #0070C0;"></path>
                                                                        <path d="M 464 301 Q 549 316 659 324 Q 675 325 676 333 Q 679 346 661 355 Q 636 368 612 364 Q 530 349 467 338 L 413 328 Q 251 306 171 302 Q 158 301 155 293 Q 151 283 165 271 Q 204 240 244 253 Q 341 278 413 292 L 464 301 Z" style="fill: #0070C0;"></path>
                                                                        <path d="M 454 170 Q 458 243 464 301 L 467 338 Q 471 380 468 385 Q 455 398 443 407 C 419 426 393 431 402 402 Q 411 375 413 328 L 413 292 Q 413 244 412 161 C 412 131 452 140 454 170 Z" style="fill: #0070C0;"></path>
                                                                        <path d="M 553 186 Q 498 180 454 170 L 412 161 Q 364 152 325 139 Q 310 136 314 154 Q 326 184 316 203 Q 303 219 283 232 Q 273 236 265 236 Q 255 232 261 216 Q 282 158 251 125 Q 235 110 241 98 Q 251 85 265 75 Q 277 68 285 75 Q 318 114 505 148 Q 536 154 546 150 C 576 146 583 189 553 186 Z" style="fill: #0070C0;"></path>
                                                                        <path d="M 546 150 L 547 148 Q 553 123 561 106 Q 568 93 579 103 Q 597 122 601 196 Q 610 224 616 229 Q 623 242 613 253 Q 597 266 568 281 Q 558 287 547 281 Q 541 278 544 267 Q 553 258 559 225 Q 558 203 553 186 C 545 157 545 154 546 150 Z" style="fill: #0070C0;"></path>
                                    
                                    
                                                                                                                                                                                                                                                                                                                                                                                                                                                                                                                                                                                                                                                                                                                                                                                                                                                                                                                                                </g>
                            </svg>