<svg width='83' height='83' >
                                <g transform="translate(3, 70) scale(0.07, -0.07)">
                                    <!-- 先将完整的字以灰色字体绘制完成，层级位于下面 -->
                                                                        <path d="M 412 727 Q 409 761 408 791 Q 409 809 390 815 Q 350 837 328 829 Q 310 819 325 801 Q 353 764 365 720 L 372 684 Q 379 633 396 613 Q 410 605 415 615 Q 419 628 414 694 L 412 727 Z" style="fill: #0070C0;"></path>
                                                                        <path d="M 414 694 Q 442 704 464 708 Q 479 710 493 718 Q 499 722 499 727 Q 499 735 484 739 Q 460 735 412 727 L 365 720 Q 316 717 258 706 Q 218 707 198 706 Q 188 707 186 703 Q 184 698 186 693 Q 192 675 229 660 Q 246 649 263 655 L 372 684 L 414 694 Z" style="fill: #0070C0;"></path>
                                                                        <path d="M 653 747 Q 655 760 684 813 Q 698 827 688 838 Q 682 845 672 853 Q 633 883 608 870 L 606 868 Q 601 864 606 855 Q 615 831 613 808 Q 610 780 602 741 L 595 714 Q 574 641 575 623 Q 578 612 591 619 Q 602 627 637 707 L 653 747 Z" style="fill: #0070C0;"></path>
                                                                        <path d="M 637 707 Q 725 717 786 717 L 845 714 Q 854 715 857 721 Q 860 731 851 743 Q 811 776 735 759 Q 699 755 653 747 L 602 741 Q 593 741 586 739 Q 570 739 571 733 Q 572 728 595 714 C 611 704 611 704 637 707 Z" style="fill: #0070C0;"></path>
                                                                        <path d="M 92 9 Q 95 9 99 10 Q 129 17 169 55 Q 239 122 263 217 L 269 252 Q 280 337 280 339 L 284 374 Q 287 451 291 472 C 294 493 294 493 284 499 Q 280 502 270 508 Q 232 525 220 521 Q 201 519 216 499 Q 252 441 223 249 Q 212 204 196 163 Q 177 115 116 51 Q 85 19 83 16 Q 82 9 89 9 L 92 9 Z" style="fill: #0070C0;"></path>
                                                                        <path d="M 291 472 Q 315 476 365 491 Q 397 500 406 494 Q 414 486 414 459 Q 415 242 404 114 Q 402 86 392 74 Q 388 71 368 74 Q 308 83 310 76 Q 362 34 392 -2 Q 402 -12 412 -16 Q 419 -19 427 -10 Q 465 39 464 83 Q 451 441 474 480 Q 484 496 474 507 Q 455 523 422 537 Q 404 546 351 515 Q 326 508 284 499 C 255 493 262 466 291 472 Z" style="fill: #0070C0;"></path>
                                                                        <path d="M 280 339 Q 327 345 363 353 Q 384 359 375 370 Q 347 398 284 374 C 256 364 250 335 280 339 Z" style="fill: #0070C0;"></path>
                                                                        <path d="M 263 217 L 270 217 Q 320 225 368 231 Q 394 235 383 249 Q 367 268 335 269 Q 302 269 269 252 C 242 239 233 217 263 217 Z" style="fill: #0070C0;"></path>
                                                                        <path d="M 627 265 Q 631 323 633 367 L 634 400 Q 634 480 637 499 C 639 524 639 524 626 531 Q 626 533 612 539 Q 570 556 559 552 Q 539 548 555 527 Q 592 472 579 260 Q 572 206 548 137 Q 527 78 450 -10 Q 433 -20 426 -37 Q 425 -44 437 -43 Q 478 -40 542 38 Q 608 121 624 237 L 627 265 Z" style="fill: #0070C0;"></path>
                                                                        <path d="M 637 499 Q 639 500 744 529 Q 760 533 770 525 Q 780 515 780 484 Q 781 449 782 404 Q 792 73 772 43 Q 767 39 750 42 L 703 57 Q 682 66 682 55 Q 704 32 720 10 L 757 -39 Q 772 -61 786 -67 Q 796 -71 805 -61 Q 851 -15 851 65 Q 821 449 849 508 Q 849 509 851 514 Q 862 533 851 544 Q 829 562 789 578 Q 766 587 711 555 Q 638 534 626 531 C 597 523 608 491 637 499 Z" style="fill: #0070C0;"></path>
                                                                        <path d="M 633 367 L 639 367 Q 670 370 733 379 Q 759 384 749 398 Q 732 416 702 416 Q 667 417 634 400 C 607 387 603 367 633 367 Z" style="fill: #0070C0;"></path>
                                    
                                    
                                                                                                                                                                                                                                                                                                                                                                                                                                                                                                                                                                                                                                                                                                                                                                                                                                                                                                                                                </g>
                            </svg>