<svg width='83' height='83' >
                                <g transform="translate(3, 70) scale(0.07, -0.07)">
                                    <!-- 先将完整的字以灰色字体绘制完成，层级位于下面 -->
                                                                        <path d="M 641 714 Q 716 723 813 715 Q 829 714 835 723 Q 839 735 826 750 Q 775 796 672 768 Q 666 768 663 766 L 601 756 Q 519 746 427 733 L 375 728 Q 308 722 236 714 Q 206 711 227 695 Q 276 665 350 683 Q 366 687 384 689 L 428 697 Q 473 709 591 712 L 641 714 Z" style="fill: #0070C0;"></path>
                                                                        <path d="M 427 733 Q 426 760 426 781 Q 429 802 408 808 Q 368 830 345 823 Q 326 814 341 794 Q 365 764 375 728 L 384 689 Q 394 640 407 624 Q 420 612 426 625 Q 432 646 428 697 L 427 733 Z" style="fill: #0070C0;"></path>
                                                                        <path d="M 663 766 Q 670 779 681 796 Q 694 811 685 821 Q 672 839 638 856 Q 622 866 604 857 Q 594 851 602 840 Q 611 813 601 756 L 591 712 Q 573 637 574 631 Q 575 618 591 628 Q 606 640 641 714 L 663 766 Z" style="fill: #0070C0;"></path>
                                                                        <path d="M 478 599 Q 497 584 516 565 Q 529 555 543 555 Q 553 556 557 568 Q 561 581 551 609 Q 542 630 472 643 Q 457 646 452 643 Q 448 639 449 627 Q 453 617 478 599 Z" style="fill: #0070C0;"></path>
                                                                        <path d="M 257 495 Q 247 517 237 525 Q 218 541 215 513 Q 221 474 159 417 Q 138 396 163 335 Q 176 307 199 335 Q 217 357 230 393 Q 254 460 260 465 C 267 475 267 475 257 495 Z" style="fill: #0070C0;"></path>
                                                                        <path d="M 260 465 Q 284 450 324 459 Q 468 501 693 520 Q 736 524 751 521 Q 767 511 765 504 Q 765 501 734 431 Q 727 418 733 413 Q 740 409 758 420 Q 816 454 862 465 Q 899 475 899 484 Q 898 494 824 552 Q 797 571 716 556 Q 536 535 373 509 Q 316 502 260 496 Q 259 496 257 495 C 227 491 232 476 260 465 Z" style="fill: #0070C0;"></path>
                                                                        <path d="M 377 418 Q 343 414 367 397 Q 404 373 456 385 Q 528 398 603 411 Q 637 418 642 422 Q 651 429 646 437 Q 640 447 614 455 Q 586 462 559 451 Q 520 439 478 430 Q 432 421 377 418 Z" style="fill: #0070C0;"></path>
                                                                        <path d="M 357 314 Q 345 320 312 324 Q 300 327 297 321 Q 290 315 300 299 Q 330 244 350 152 Q 354 124 371 107 Q 390 85 395 102 Q 396 109 397 117 L 396 141 Q 395 151 393 162 Q 389 184 385 202 L 380 227 Q 373 266 369 283 C 363 312 363 312 357 314 Z" style="fill: #0070C0;"></path>
                                                                        <path d="M 588 139 Q 601 117 616 109 Q 626 102 642 122 Q 655 138 684 238 Q 694 268 717 292 Q 730 304 720 317 Q 705 335 664 361 Q 649 370 577 354 Q 534 354 357 314 C 328 307 340 275 369 283 Q 448 305 584 322 Q 615 326 626 316 Q 636 304 633 292 Q 614 196 606 182 Q 602 170 588 168 C 573 160 573 160 588 139 Z" style="fill: #0070C0;"></path>
                                                                        <path d="M 385 202 L 575 229 Q 597 233 589 245 Q 579 258 555 263 Q 536 266 380 227 C 351 220 355 198 385 202 Z" style="fill: #0070C0;"></path>
                                                                        <path d="M 397 117 Q 401 117 410 117 Q 510 132 588 139 C 618 142 617 159 588 168 Q 584 169 579 171 Q 564 174 396 141 C 367 135 367 117 397 117 Z" style="fill: #0070C0;"></path>
                                                                        <path d="M 514 9 Q 560 10 606 15 Q 730 22 848 7 Q 870 4 877 12 Q 884 25 873 37 Q 812 95 741 78 Q 441 36 210 30 Q 192 30 175 30 Q 162 31 161 20 Q 160 8 177 -6 Q 193 -19 223 -30 Q 233 -34 250 -27 Q 265 -23 329 -14 Q 411 2 514 9 Z" style="fill: #0070C0;"></path>
                                    
                                    
                                                                                                                                                                                                                                                                                                                                                                                                                                                                                                                                                                                                                                                                                                                                                                                                                                                                                                                                                                                                                            </g>
                            </svg>