<svg width='83' height='83' >
                                <g transform="translate(3, 70) scale(0.07, -0.07)">
                                    <!-- 先将完整的字以灰色字体绘制完成，层级位于下面 -->
                                                                        <path d="M 625 709 Q 655 719 775 710 Q 790 709 795 718 Q 799 728 787 742 Q 742 782 648 759 Q 647 759 645 758 L 587 748 Q 511 736 430 724 L 386 719 Q 310 710 222 700 Q 194 697 214 683 Q 247 661 324 672 Q 358 681 394 685 L 432 692 Q 432 693 434 693 Q 501 702 577 706 L 625 709 Z" style="fill: #0070C0;"></path>
                                                                        <path d="M 430 724 Q 426 761 426 790 Q 427 809 408 814 Q 368 832 348 825 Q 332 816 346 798 Q 376 765 386 719 L 394 685 Q 401 654 416 639 Q 429 629 433 640 Q 439 665 432 692 L 430 724 Z" style="fill: #0070C0;"></path>
                                                                        <path d="M 645 758 Q 652 779 669 804 Q 684 820 673 830 Q 661 846 626 864 Q 610 873 592 864 Q 582 858 590 847 Q 600 823 587 748 L 577 706 Q 561 643 562 631 Q 563 618 579 628 Q 591 638 625 709 L 645 758 Z" style="fill: #0070C0;"></path>
                                                                        <path d="M 521 501 Q 612 519 618 522 Q 625 529 622 537 Q 616 547 590 556 Q 556 565 526 550 L 469 535 Q 456 534 445 530 Q 393 520 334 517 Q 300 513 323 497 Q 362 472 412 484 Q 440 488 472 493 L 521 501 Z" style="fill: #0070C0;"></path>
                                                                        <path d="M 512 410 Q 516 456 521 501 L 526 550 Q 529 568 532 579 Q 536 589 538 596 Q 541 606 523 619 Q 492 635 471 640 Q 458 643 450 635 Q 443 628 451 615 Q 464 597 469 535 L 472 493 Q 473 453 473 405 C 473 375 509 380 512 410 Z" style="fill: #0070C0;"></path>
                                                                        <path d="M 582 383 Q 642 389 904 388 Q 926 388 931 397 Q 937 410 919 425 Q 864 467 823 459 Q 745 446 633 427 L 548 415 Q 529 414 512 410 L 473 405 Q 310 387 122 368 Q 100 365 116 347 Q 149 314 190 324 Q 323 360 508 378 L 582 383 Z" style="fill: #0070C0;"></path>
                                                                        <path d="M 470 289 Q 533 344 582 383 L 633 427 Q 688 476 709 497 Q 740 528 769 539 Q 785 543 786 554 Q 785 561 774 569 Q 743 591 715 600 Q 699 604 689 588 Q 673 540 548 415 L 508 378 Q 462 338 407 292 L 381 270 Q 357 252 333 231 Q 230 150 83 65 Q 76 61 77 57 Q 78 54 86 55 Q 162 71 202 96 Q 296 151 392 225 L 470 289 Z" style="fill: #0070C0;"></path>
                                                                        <path d="M 407 292 Q 392 298 382 296 Q 370 292 376 282 Q 377 278 381 270 L 392 225 Q 392 96 373 57 Q 357 21 389 -16 Q 395 -28 404 -23 Q 414 -16 422 11 L 431 47 Q 432 63 434 83 Q 434 114 435 139 L 436 170 Q 436 233 440 253 L 407 292 Z" style="fill: #0070C0;"></path>
                                                                        <path d="M 597 32 Q 630 -8 652 -47 Q 662 -66 672 -65 Q 688 -64 705 -30 Q 723 7 720 54 Q 713 112 707 217 Q 706 248 722 268 Q 732 281 723 291 Q 704 310 654 333 Q 638 343 622 334 Q 595 321 470 289 C 407 273 410 249 440 253 Q 458 253 606 285 Q 628 289 639 282 Q 663 252 648 60 L 648 58 Q 642 39 624 47 L 623 47 C 593 46 586 45 597 32 Z" style="fill: #0070C0;"></path>
                                                                        <path d="M 435 139 Q 519 151 582 158 Q 606 162 597 176 Q 587 192 559 196 Q 526 202 436 170 C 408 160 405 135 435 139 Z" style="fill: #0070C0;"></path>
                                                                        <path d="M 422 11 Q 428 11 435 12 Q 487 24 597 32 C 627 34 633 35 623 47 Q 616 57 594 71 Q 578 81 547 72 Q 484 56 431 47 C 401 42 392 10 422 11 Z" style="fill: #0070C0;"></path>
                                    
                                    
                                                                                                                                                                                                                                                                                                                                                                                                                                                                                                                                                                                                                                                                                                                                                                                                                                                                                                                                                </g>
                            </svg>