<svg width='83' height='83' >
                                <g transform="translate(3, 70) scale(0.07, -0.07)">
                                    <!-- 先将完整的字以灰色字体绘制完成，层级位于下面 -->
                                                                        <path d="M 636 725 Q 729 734 834 725 Q 849 724 854 733 Q 858 743 847 758 Q 796 803 716 781 Q 688 778 659 772 L 599 763 Q 523 754 437 743 L 391 739 Q 297 730 191 721 Q 163 718 182 703 Q 224 678 294 688 Q 346 701 398 707 L 439 712 Q 509 721 590 724 L 636 725 Z" style="fill: #0070C0;"></path>
                                                                        <path d="M 437 743 Q 436 773 436 797 Q 437 816 419 822 Q 377 841 360 835 Q 342 828 357 808 Q 382 777 391 739 L 398 707 Q 407 658 420 643 Q 433 633 437 644 Q 443 663 439 712 L 437 743 Z" style="fill: #0070C0;"></path>
                                                                        <path d="M 659 772 Q 665 784 674 796 Q 687 809 678 819 Q 668 835 636 852 Q 621 862 605 854 Q 595 850 602 838 Q 609 820 599 763 L 590 724 Q 575 679 575 659 Q 576 646 591 655 Q 601 664 636 725 L 659 772 Z" style="fill: #0070C0;"></path>
                                                                        <path d="M 408 398 Q 409 399 410 402 Q 410 403 410 405 L 412 431 Q 411 443 401 487 L 395 513 Q 386 552 383 570 C 378 599 378 599 371 602 Q 361 608 324 611 Q 312 614 309 608 Q 303 601 313 586 Q 343 535 365 449 Q 368 436 374 423 C 386 395 400 369 408 398 Z" style="fill: #0070C0;"></path>
                                                                        <path d="M 602 425 Q 618 398 633 390 Q 642 383 657 401 Q 670 420 699 522 Q 709 550 731 573 Q 744 585 733 598 Q 720 614 681 640 Q 666 649 590 634 Q 572 634 462 616 Q 413 607 371 602 C 341 598 354 561 383 570 Q 434 588 605 604 Q 635 607 644 597 Q 654 584 651 573 Q 630 465 616 450 C 602 425 602 425 602 425 Z" style="fill: #0070C0;"></path>
                                                                        <path d="M 401 487 Q 402 487 407 487 Q 501 503 571 513 Q 593 517 585 529 Q 575 542 551 547 Q 518 551 395 513 C 366 504 371 487 401 487 Z" style="fill: #0070C0;"></path>
                                                                        <path d="M 410 405 Q 417 404 430 405 Q 527 418 602 425 C 632 428 641 434 616 450 Q 606 457 592 461 Q 580 464 412 431 C 383 425 380 407 410 405 Z" style="fill: #0070C0;"></path>
                                                                        <path d="M 371 320 Q 395 342 418 361 Q 428 368 420 384 Q 414 391 408 398 L 374 423 Q 373 424 371 424 Q 361 424 360 412 Q 348 333 235 256 Q 217 247 187 226 Q 177 216 191 215 Q 206 214 230 224 Q 305 255 356 305 L 371 320 Z" style="fill: #0070C0;"></path>
                                                                        <path d="M 521 304 Q 654 325 702 323 Q 720 323 725 315 Q 741 282 727 131 Q 712 68 701 43 Q 692 21 679 20 Q 667 16 600 34 Q 591 37 591 32 Q 591 28 601 20 Q 641 -20 659 -49 Q 669 -67 681 -66 Q 694 -67 709 -54 Q 760 -15 780 104 Q 790 167 799 257 Q 800 281 816 299 Q 829 312 829 320 Q 828 327 809 341 Q 784 360 749 372 Q 730 378 659 361 Q 640 358 614 352 Q 473 325 371 320 C 341 318 329 317 356 305 Q 377 284 441 296 Q 459 300 480 300 L 521 304 Z" style="fill: #0070C0;"></path>
                                                                        <path d="M 515 237 Q 527 252 541 263 Q 551 272 541 286 Q 531 296 521 304 C 498 323 483 330 480 300 Q 476 237 403 178 Q 384 163 374 154 Q 365 142 378 144 Q 390 144 408 152 Q 463 179 498 220 Q 498 221 500 222 L 515 237 Z" style="fill: #0070C0;"></path>
                                                                        <path d="M 500 222 Q 503 219 508 216 Q 566 191 638 150 Q 654 140 666 140 Q 673 141 676 150 Q 682 163 662 192 Q 640 228 515 237 C 485 239 478 240 500 222 Z" style="fill: #0070C0;"></path>
                                                                        <path d="M 357 177 Q 363 190 352 201 Q 334 220 306 232 Q 293 236 286 229 Q 280 225 289 208 Q 305 183 303 146 Q 296 103 276 84 Q 266 71 270 61 Q 277 43 293 30 Q 303 20 319 32 Q 404 86 594 75 Q 604 75 616 73 Q 635 69 644 75 Q 651 81 646 91 Q 640 101 607 122 Q 586 134 519 122 Q 507 128 354 96 Q 344 92 343 95 Q 339 99 341 107 Q 350 162 357 177 Z" style="fill: #0070C0;"></path>
                                    
                                    
                                                                                                                                                                                                                                                                                                                                                                                                                                                                                                                                                                                                                                                                                                                                                                                                                                                                                                                                                                                                                            </g>
                            </svg>