<svg width='83' height='83' >
                                <g transform="translate(3, 70) scale(0.07, -0.07)">
                                    <!-- 先将完整的字以灰色字体绘制完成，层级位于下面 -->
                                                                        <path d="M 629 692 Q 722 699 816 693 Q 832 692 839 702 Q 843 714 830 729 Q 776 775 693 753 Q 672 750 653 746 L 591 736 Q 515 726 429 713 L 380 708 Q 304 701 217 691 Q 186 688 207 672 Q 246 644 327 656 Q 357 663 389 669 L 432 676 Q 480 685 580 690 L 629 692 Z" style="fill: #0070C0;"></path>
                                                                        <path d="M 429 713 Q 428 741 427 764 Q 428 783 408 789 Q 371 810 347 801 Q 328 792 344 773 Q 369 743 380 708 L 389 669 Q 404 612 415 600 Q 428 590 433 601 Q 437 614 432 676 L 429 713 Z" style="fill: #0070C0;"></path>
                                                                        <path d="M 653 746 Q 660 762 672 780 Q 687 795 677 805 Q 664 823 630 840 Q 614 850 597 841 Q 587 835 594 824 Q 601 805 600 781 Q 596 762 591 736 L 580 690 Q 562 630 563 611 Q 564 598 580 608 Q 592 620 629 692 L 653 746 Z" style="fill: #0070C0;"></path>
                                                                        <path d="M 385 508 Q 469 530 471 532 Q 478 539 475 546 Q 468 556 443 562 Q 418 566 392 556 Q 391 556 390 555 L 332 536 Q 323 535 315 532 Q 272 522 219 516 Q 188 510 210 496 Q 237 481 311 492 Q 323 495 337 497 L 385 508 Z" style="fill: #0070C0;"></path>
                                                                        <path d="M 383 410 Q 386 411 459 425 Q 468 424 475 435 Q 475 444 456 452 Q 429 470 384 450 L 342 438 Q 314 432 290 427 Q 269 424 246 419 Q 224 415 242 402 Q 269 381 295 391 Q 314 397 343 401 L 383 410 Z" style="fill: #0070C0;"></path>
                                                                        <path d="M 381 314 Q 462 353 469 357 Q 481 363 481 371 Q 477 375 466 374 Q 426 362 381 348 L 344 339 Q 296 329 247 315 Q 231 311 206 312 Q 196 311 193 302 Q 192 292 199 284 Q 218 269 247 252 Q 256 249 266 256 Q 317 292 344 298 L 381 314 Z" style="fill: #0070C0;"></path>
                                                                        <path d="M 344 298 Q 344 267 353 246 Q 359 236 366 242 Q 376 251 381 314 L 381 348 Q 382 381 383 410 L 384 450 Q 384 478 385 508 L 390 555 Q 396 571 386 581 Q 373 591 348 602 Q 329 609 310 600 Q 300 593 313 580 Q 329 547 332 536 L 337 497 Q 340 470 342 438 L 343 401 Q 343 371 344 339 L 344 298 Z" style="fill: #0070C0;"></path>
                                                                        <path d="M 603 518 Q 661 536 709 541 Q 722 542 726 539 Q 732 527 725 499 Q 710 420 689 388 Q 668 358 642 366 Q 623 370 606 377 Q 584 384 599 362 Q 630 325 645 298 Q 658 279 675 291 Q 729 319 768 447 Q 781 510 803 531 Q 815 541 810 552 Q 803 562 756 586 Q 738 596 719 584 Q 703 574 640 561 Q 576 546 523 543 Q 507 542 504 534 Q 503 527 524 516 Q 546 501 564 508 Q 565 509 570 509 L 603 518 Z" style="fill: #0070C0;"></path>
                                                                        <path d="M 570 509 Q 573 503 571 488 Q 555 413 493 328 Q 489 324 488 318 Q 488 314 493 315 Q 542 325 613 443 Q 613 450 630 472 Q 636 481 628 492 Q 615 511 603 518 C 578 535 563 538 570 509 Z" style="fill: #0070C0;"></path>
                                                                        <path d="M 534 198 Q 603 204 880 205 Q 901 204 906 213 Q 913 226 895 241 Q 835 286 771 271 Q 677 255 534 236 L 468 228 Q 320 212 150 195 Q 128 194 144 175 Q 159 160 178 154 Q 200 147 217 152 Q 331 180 459 192 Q 460 193 464 192 L 534 198 Z" style="fill: #0070C0;"></path>
                                                                        <path d="M 534 236 Q 538 245 542 250 Q 549 257 543 268 Q 537 275 507 287 Q 473 303 458 298 Q 445 292 456 275 Q 471 245 469 231 Q 468 230 468 228 L 464 192 Q 445 92 344 42 Q 301 18 192 -15 Q 164 -22 194 -29 Q 282 -32 391 20 Q 410 32 429 46 Q 487 89 517 179 L 534 236 Z" style="fill: #0070C0;"></path>
                                                                        <path d="M 517 179 Q 602 79 697 -14 Q 719 -36 757 -39 Q 824 -43 896 -30 Q 915 -27 916 -23 Q 917 -16 904 -10 Q 712 59 642 111 Q 624 123 534 198 C 511 217 498 202 517 179 Z" style="fill: #0070C0;"></path>
                                    
                                    
                                                                                                                                                                                                                                                                                                                                                                                                                                                                                                                                                                                                                                                                                                                                                                                                                                                                                                                                                                                                                            </g>
                            </svg>