<svg width='83' height='83' >
                                <g transform="translate(3, 70) scale(0.07, -0.07)">
                                    <!-- 先将完整的字以灰色字体绘制完成，层级位于下面 -->
                                                                        <path d="M 626 716 Q 695 725 798 717 Q 814 716 819 725 Q 823 735 811 750 Q 763 793 670 769 Q 661 769 653 766 L 595 756 Q 516 746 427 734 L 379 728 Q 304 722 223 713 Q 195 710 214 695 Q 259 665 321 680 Q 354 689 391 694 L 431 701 Q 453 708 583 714 L 626 716 Z" style="fill: #0070C0;"></path>
                                                                        <path d="M 427 734 Q 424 759 423 780 Q 424 799 404 803 Q 367 821 345 811 Q 329 802 343 784 Q 368 762 378 732 Q 378 731 379 728 L 391 694 Q 400 664 415 651 Q 428 641 432 653 Q 438 672 432 693 Q 431 697 431 701 L 427 734 Z" style="fill: #0070C0;"></path>
                                                                        <path d="M 653 766 Q 659 778 668 789 Q 681 802 673 812 Q 663 828 633 845 Q 620 855 603 847 Q 593 843 600 832 Q 607 811 595 756 L 583 714 Q 571 678 572 663 Q 572 650 587 659 Q 597 668 626 716 L 653 766 Z" style="fill: #0070C0;"></path>
                                                                        <path d="M 549 621 Q 550 634 541 652 Q 531 673 469 676 Q 456 677 452 675 Q 448 671 450 661 Q 454 652 478 638 Q 493 626 510 612 C 533 593 548 591 549 621 Z" style="fill: #0070C0;"></path>
                                                                        <path d="M 510 612 Q 456 605 305 590 Q 278 587 298 571 Q 326 547 353 552 Q 551 589 710 603 Q 720 602 728 612 Q 729 622 709 633 Q 685 657 570 626 Q 558 625 549 621 L 510 612 Z" style="fill: #0070C0;"></path>
                                                                        <path d="M 401 526 Q 391 532 358 535 Q 348 536 344 532 Q 340 526 348 512 Q 369 481 386 427 Q 390 411 401 401 Q 417 383 422 397 Q 423 401 423 407 L 421 438 Q 412 481 410 498 C 407 523 407 523 401 526 Z" style="fill: #0070C0;"></path>
                                                                        <path d="M 643 462 Q 661 489 682 501 Q 698 516 686 532 Q 673 544 631 568 Q 616 575 598 570 Q 535 546 401 526 C 371 522 381 492 410 498 Q 417 499 426 502 Q 505 514 579 527 Q 598 531 606 523 Q 609 519 598 470 C 592 441 626 438 643 462 Z" style="fill: #0070C0;"></path>
                                                                        <path d="M 423 407 Q 430 406 440 407 Q 507 422 652 432 Q 662 433 663 441 Q 663 448 643 462 L 598 470 Q 594 470 592 469 Q 496 448 421 438 C 391 434 393 409 423 407 Z" style="fill: #0070C0;"></path>
                                                                        <path d="M 251 350 Q 250 353 250 355 Q 237 379 225 387 Q 206 400 206 374 Q 213 341 166 284 Q 135 256 167 195 Q 183 170 202 197 Q 211 212 246 317 L 251 350 Z" style="fill: #0070C0;"></path>
                                                                        <path d="M 246 317 Q 268 308 301 314 Q 401 341 661 364 Q 743 371 763 366 Q 779 356 776 349 Q 777 345 772 334 Q 744 274 749 269 Q 756 265 773 275 Q 825 305 868 312 Q 902 321 902 328 Q 901 338 833 393 Q 809 412 712 398 Q 493 377 360 360 Q 305 354 251 350 C 221 348 217 324 246 317 Z" style="fill: #0070C0;"></path>
                                                                        <path d="M 547 247 Q 599 253 671 253 Q 714 250 723 261 Q 727 271 713 283 Q 667 319 609 304 Q 483 277 307 252 Q 288 251 302 235 Q 315 223 331 218 Q 350 214 364 218 Q 448 242 495 242 L 547 247 Z" style="fill: #0070C0;"></path>
                                                                        <path d="M 495 242 Q 504 205 504 111 Q 504 63 499 52 Q 498 36 467 37 Q 433 43 395 48 Q 383 47 383 40 Q 382 34 393 27 Q 472 -21 499 -51 Q 518 -63 529 -59 Q 539 -55 550 -22 Q 563 12 559 71 Q 556 156 557 187 Q 564 227 547 247 C 531 272 489 271 495 242 Z" style="fill: #0070C0;"></path>
                                    
                                    
                                                                                                                                                                                                                                                                                                                                                                                                                                                                                                                                                                                                                                                                                                                                                                                                                                                                                                                                                                                                                            </g>
                            </svg>