<svg width='83' height='83' >
                                <g transform="translate(3, 70) scale(0.07, -0.07)">
                                    <!-- 先将完整的字以灰色字体绘制完成，层级位于下面 -->
                                                                        <path d="M 644 707 Q 714 719 811 712 Q 827 711 831 721 Q 835 731 823 746 Q 772 788 682 762 Q 673 761 665 758 L 607 748 Q 525 735 435 720 L 384 713 Q 308 704 226 694 Q 198 690 218 675 Q 257 650 341 667 Q 366 673 393 678 L 437 687 Q 476 697 598 704 L 644 707 Z" style="fill: #0070C0;"></path>
                                                                        <path d="M 435 720 Q 432 751 432 775 Q 433 794 413 801 Q 368 819 349 813 Q 330 804 346 784 Q 373 754 384 713 L 393 678 Q 402 633 419 616 Q 432 606 437 617 Q 443 635 437 687 L 435 720 Z" style="fill: #0070C0;"></path>
                                                                        <path d="M 665 758 Q 672 774 685 794 Q 698 809 689 819 Q 676 835 643 851 Q 627 861 610 852 Q 600 846 608 835 Q 617 817 607 748 L 598 704 Q 583 662 586 639 Q 587 626 603 636 Q 612 645 644 707 L 665 758 Z" style="fill: #0070C0;"></path>
                                                                        <path d="M 591 532 Q 604 536 620 538 Q 678 551 686 558 Q 695 565 690 573 Q 684 583 658 591 Q 625 600 582 581 L 535 567 Q 403 534 293 525 Q 290 525 288 523 C 259 517 274 497 304 494 Q 338 488 419 502 Q 482 514 550 525 L 591 532 Z" style="fill: #0070C0;"></path>
                                                                        <path d="M 288 523 Q 243 548 228 546 Q 209 543 223 521 Q 256 469 227 293 Q 218 247 194 191 Q 169 133 96 67 Q 83 54 78 48 Q 77 41 88 41 Q 127 41 187 103 Q 277 199 295 434 Q 295 449 297 462 Q 300 480 304 494 C 308 512 308 512 288 523 Z" style="fill: #0070C0;"></path>
                                                                        <path d="M 357 430 Q 351 436 335 443 Q 328 446 320 443 Q 314 439 319 430 Q 341 360 324 252 Q 303 212 337 172 Q 344 162 353 172 Q 362 184 364 236 Q 368 387 369 398 Q 370 405 370 410 C 371 420 371 420 357 430 Z" style="fill: #0070C0;"></path>
                                                                        <path d="M 488 222 Q 482 204 493 188 Q 503 166 510 167 Q 520 168 533 192 Q 545 211 543 228 Q 524 370 551 416 Q 564 438 495 468 Q 486 471 422 446 Q 362 431 357 430 C 328 423 340 406 370 410 Q 374 410 380 411 Q 468 435 481 429 Q 488 414 491 372 Q 495 246 488 222 Z" style="fill: #0070C0;"></path>
                                                                        <path d="M 417 323 Q 421 167 363 106 Q 359 103 354 99 Q 332 80 282 54 Q 272 51 270 48 Q 266 44 277 42 Q 307 38 373 72 Q 422 99 440 161 Q 446 188 460 300 Q 461 321 469 346 Q 473 353 466 360 Q 453 372 427 382 Q 411 389 399 385 Q 384 379 396 366 Q 417 345 417 323 Z" style="fill: #0070C0;"></path>
                                                                        <path d="M 488 97 Q 513 69 538 34 Q 548 21 562 19 Q 571 18 577 29 Q 584 41 580 68 Q 579 87 551 108 Q 485 147 472 143 Q 468 140 467 129 Q 468 119 488 97 Z" style="fill: #0070C0;"></path>
                                                                        <path d="M 663 219 Q 741 57 865 -28 Q 893 -47 908 -46 Q 921 -47 928 -35 Q 935 -25 923 15 Q 914 70 918 166 Q 919 194 911 195 Q 904 196 896 171 Q 871 54 845 66 Q 767 114 694 255 L 671 304 Q 638 380 593 526 Q 592 530 591 532 L 582 581 Q 582 629 581 630 Q 575 637 551 648 Q 529 658 516 658 Q 503 657 504 655 Q 483 646 504 628 Q 516 622 535 567 L 550 525 Q 584 383 644 259 L 663 219 Z" style="fill: #0070C0;"></path>
                                                                        <path d="M 644 259 Q 620 223 568 156 Q 561 149 571 148 Q 596 154 663 219 L 694 255 Q 743 331 784 411 Q 799 438 797 443 Q 794 453 780 462 Q 743 489 713 477 Q 704 473 708 461 Q 726 407 671 304 L 644 259 Z" style="fill: #0070C0;"></path>
                                                                        <path d="M 711 605 Q 732 587 754 566 Q 767 553 782 555 Q 792 556 797 568 Q 801 583 792 611 Q 786 627 760 638 Q 694 656 684 651 Q 680 647 681 635 Q 685 625 711 605 Z" style="fill: #0070C0;"></path>
                                    
                                    
                                                                                                                                                                                                                                                                                                                                                                                                                                                                                                                                                                                                                                                                                                                                                                                                                                                                                                                                                                                                                            </g>
                            </svg>