<svg width='83' height='83' >
                                <g transform="translate(3, 70) scale(0.07, -0.07)">
                                    <!-- 先将完整的字以灰色字体绘制完成，层级位于下面 -->
                                                                        <path d="M 617 726 Q 677 735 775 727 Q 790 726 795 734 Q 799 744 787 759 Q 738 799 639 774 Q 636 774 635 773 L 581 765 Q 512 756 438 745 L 391 740 Q 318 733 238 724 Q 210 721 230 707 Q 264 683 337 694 Q 367 701 399 706 L 440 713 Q 444 719 573 724 L 617 726 Z" style="fill: #0070C0;"></path>
                                                                        <path d="M 438 745 Q 437 769 436 787 Q 437 806 419 811 Q 380 829 362 822 Q 346 815 359 796 Q 381 771 391 740 L 399 706 Q 411 652 424 639 Q 436 629 440 640 Q 444 653 440 713 L 438 745 Z" style="fill: #0070C0;"></path>
                                                                        <path d="M 635 773 Q 642 792 654 813 Q 667 828 657 836 Q 644 852 612 867 Q 596 874 581 866 Q 571 860 579 850 Q 591 828 581 765 L 573 724 Q 560 676 562 654 Q 563 641 578 652 Q 587 659 617 726 L 635 773 Z" style="fill: #0070C0;"></path>
                                                                        <path d="M 257 587 Q 245 611 234 620 Q 215 635 213 608 Q 219 584 202 558 Q 186 537 161 514 Q 151 502 154 482 Q 158 452 167 435 Q 182 408 202 435 Q 206 442 253 556 C 262 578 262 578 257 587 Z" style="fill: #0070C0;"></path>
                                                                        <path d="M 253 556 Q 274 546 323 553 Q 459 595 693 615 Q 738 619 753 617 Q 766 607 765 601 Q 749 559 731 514 L 733 513 Q 740 509 758 519 Q 816 552 861 561 Q 898 570 899 578 Q 898 588 825 646 Q 798 665 715 650 Q 586 635 366 601 Q 311 594 257 587 C 227 583 224 563 253 556 Z" style="fill: #0070C0;"></path>
                                                                        <path d="M 373 523 Q 342 519 363 504 Q 396 486 464 495 Q 521 504 582 514 Q 613 520 618 524 Q 625 531 622 538 Q 616 548 592 555 Q 567 562 540 552 Q 504 542 465 534 Q 422 527 373 523 Z" style="fill: #0070C0;"></path>
                                                                        <path d="M 396 398 Q 484 417 616 434 Q 625 433 633 444 Q 634 454 614 464 Q 587 485 496 458 Q 487 457 480 454 Q 447 448 324 430 Q 299 426 318 411 Q 346 392 361 392 L 396 398 Z" style="fill: #0070C0;"></path>
                                                                        <path d="M 399 348 Q 421 367 423 372 Q 423 382 405 394 Q 401 397 396 398 C 373 407 373 407 361 392 Q 318 335 190 273 Q 171 266 192 263 Q 243 256 365 326 Q 366 332 376 334 L 399 348 Z" style="fill: #0070C0;"></path>
                                                                        <path d="M 536 266 L 536 267 L 523 281 Q 466 335 399 348 C 370 355 350 350 376 334 Q 382 328 398 322 L 451 293 Q 464 284 477 272 L 510 223 Q 531 171 511 73 Q 504 36 492 29 Q 483 23 431 28 Q 380 37 380 28 Q 379 21 392 9 Q 456 -34 483 -66 Q 498 -82 512 -78 Q 555 -51 571 67 Q 578 158 563 207 L 536 266 Z" style="fill: #0070C0;"></path>
                                                                        <path d="M 398 322 Q 368 253 193 153 Q 175 144 196 143 Q 263 143 415 263 Q 434 281 447 288 Q 450 291 451 293 C 473 314 411 349 398 322 Z" style="fill: #0070C0;"></path>
                                                                        <path d="M 477 272 Q 393 145 182 27 Q 167 17 177 13 Q 184 7 198 10 Q 319 34 460 169 Q 503 209 503 213 Q 507 217 510 223 C 527 248 494 297 477 272 Z" style="fill: #0070C0;"></path>
                                                                        <path d="M 536 267 Q 588 289 622 306 Q 691 346 725 353 Q 747 359 740 378 Q 730 397 708 415 Q 687 433 675 432 Q 662 433 664 419 Q 664 389 591 334 Q 557 309 523 281 C 500 262 508 255 536 267 Z" style="fill: #0070C0;"></path>
                                                                        <path d="M 563 207 Q 737 45 778 37 Q 836 30 947 60 Q 966 64 967 69 Q 968 76 953 81 Q 772 129 745 141 Q 658 184 536 266 C 511 283 541 227 563 207 Z" style="fill: #0070C0;"></path>
                                    
                                    
                                                                                                                                                                                                                                                                                                                                                                                                                                                                                                                                                                                                                                                                                                                                                                                                                                                                                                                                                                                                                                                                                                        </g>
                            </svg>