<svg width='83' height='83' >
                                <g transform="translate(3, 70) scale(0.07, -0.07)">
                                    <!-- 先将完整的字以灰色字体绘制完成，层级位于下面 -->
                                                                        <path d="M 447 736 Q 446 764 445 785 Q 446 806 425 812 Q 383 833 359 825 Q 340 815 356 795 Q 383 765 393 729 L 403 694 Q 421 640 431 628 Q 444 618 450 630 Q 454 645 449 706 L 447 736 Z" style="fill: #0070C0;"></path>
                                                                        <path d="M 449 706 Q 459 710 472 713 Q 487 714 503 724 Q 510 728 508 735 Q 507 741 494 744 Q 472 743 447 736 L 393 729 Q 338 723 266 711 Q 226 712 205 711 Q 195 712 193 708 Q 190 701 197 691 Q 210 676 237 665 Q 253 655 271 661 Q 334 677 403 694 L 449 706 Z" style="fill: #0070C0;"></path>
                                                                        <path d="M 679 760 Q 689 782 706 808 Q 722 821 712 832 Q 700 850 667 869 Q 651 879 633 871 Q 623 867 630 854 Q 639 826 620 752 L 612 725 Q 578 614 578 610 Q 579 597 593 604 Q 611 616 659 716 L 679 760 Z" style="fill: #0070C0;"></path>
                                                                        <path d="M 659 716 Q 671 716 685 718 Q 749 733 872 725 Q 885 724 891 732 Q 895 742 883 755 Q 838 792 760 773 Q 721 767 679 760 L 620 752 Q 613 752 605 751 Q 580 748 597 734 Q 604 730 612 725 L 659 716 Z" style="fill: #0070C0;"></path>
                                                                        <path d="M 228 538 Q 250 517 276 492 Q 288 480 302 480 Q 312 481 317 493 Q 321 506 314 533 Q 305 561 224 582 Q 209 585 204 583 Q 200 579 200 568 Q 204 558 228 538 Z" style="fill: #0070C0;"></path>
                                                                        <path d="M 140 396 Q 177 353 210 336 Q 223 333 232 345 Q 236 355 235 370 Q 226 409 152 430 Q 137 434 129 431 Q 123 430 126 419 Q 127 409 140 396 Z" style="fill: #0070C0;"></path>
                                                                        <path d="M 126 103 Q 116 99 117 83 Q 135 13 165 -2 Q 172 -9 182 -6 Q 189 -5 189 19 Q 192 56 274 294 Q 280 309 279 315 Q 278 324 270 318 Q 263 314 161 142 Q 151 123 126 103 Z" style="fill: #0070C0;"></path>
                                                                        <path d="M 403 385 Q 434 425 470 486 Q 485 516 499 531 Q 506 541 502 553 Q 498 563 471 583 Q 446 599 429 597 Q 413 594 420 575 Q 447 521 308 312 Q 301 302 298 297 Q 297 287 308 290 Q 324 293 374 349 L 403 385 Z" style="fill: #0070C0;"></path>
                                                                        <path d="M 374 349 Q 401 298 382 141 Q 376 95 364 47 Q 352 -4 386 -43 Q 387 -46 390 -48 Q 406 -64 418 -38 Q 433 2 432 47 Q 433 263 440 311 Q 447 338 438 348 Q 414 373 403 385 C 383 407 362 377 374 349 Z" style="fill: #0070C0;"></path>
                                                                        <path d="M 624 533 Q 652 511 682 485 Q 695 473 710 475 Q 720 476 725 488 Q 729 503 719 531 Q 707 564 617 579 Q 602 582 596 579 Q 592 575 593 563 Q 597 553 624 533 Z" style="fill: #0070C0;"></path>
                                                                        <path d="M 525 394 Q 488 387 515 370 Q 560 346 615 361 Q 702 380 792 399 Q 832 409 839 415 Q 848 424 843 432 Q 836 444 806 451 Q 782 455 660 418 Q 560 399 525 394 Z" style="fill: #0070C0;"></path>
                                                                        <path d="M 524 282 Q 555 204 578 195 Q 590 191 600 204 Q 604 214 603 235 Q 599 254 579 269 Q 551 297 536 304 Q 529 308 524 298 Q 520 291 524 282 Z" style="fill: #0070C0;"></path>
                                                                        <path d="M 704 148 Q 735 205 760 255 Q 770 276 788 303 Q 803 316 794 326 Q 784 342 752 361 Q 739 371 721 364 Q 711 360 718 348 Q 733 306 678 169 Q 672 156 670 143 C 664 114 690 122 704 148 Z" style="fill: #0070C0;"></path>
                                    
                                    
                                                                                                                                                                                                                                                                                                                                                                                                                                                                                                                                                                                                                                                                                                                                                                                                                                                                                                                                                                                                                                                                                                        </g>
                            </svg>