<svg width='83' height='83' >
                                <g transform="translate(3, 70) scale(0.07, -0.07)">
                                    <!-- 先将完整的字以灰色字体绘制完成，层级位于下面 -->
                                                                        <path d="M 400 738 Q 399 759 397 776 Q 398 795 379 799 Q 343 817 322 809 Q 306 800 320 783 Q 342 758 353 729 L 364 694 Q 376 637 392 623 Q 404 613 408 624 Q 412 640 403 707 L 400 738 Z" style="fill: #0070C0;"></path>
                                                                        <path d="M 403 707 Q 413 711 425 715 Q 438 718 456 727 Q 462 733 460 739 Q 459 745 445 747 Q 424 744 400 738 L 353 729 Q 298 720 229 706 Q 192 707 171 704 Q 161 704 159 699 Q 158 692 164 683 Q 177 670 205 659 Q 223 650 239 656 Q 300 675 364 694 L 403 707 Z" style="fill: #0070C0;"></path>
                                                                        <path d="M 644 765 Q 653 786 669 809 Q 682 822 674 832 Q 664 848 633 864 Q 620 874 603 867 Q 593 861 600 851 Q 609 824 591 758 L 580 722 Q 573 697 561 667 Q 554 649 554 635 C 552 605 554 607 572 631 Q 585 646 624 721 L 644 765 Z" style="fill: #0070C0;"></path>
                                                                        <path d="M 624 721 Q 636 733 735 733 Q 768 736 821 730 Q 834 729 839 737 Q 843 747 832 759 Q 790 795 710 776 Q 679 772 644 765 L 591 758 Q 572 757 552 754 Q 527 751 545 738 Q 563 726 580 722 C 609 714 609 713 624 721 Z" style="fill: #0070C0;"></path>
                                                                        <path d="M 265 557 Q 287 538 310 515 Q 320 505 333 506 Q 342 506 345 517 Q 349 527 342 551 Q 336 573 261 594 Q 248 597 244 595 Q 240 591 241 581 Q 244 574 265 557 Z" style="fill: #0070C0;"></path>
                                                                        <path d="M 152 426 Q 118 420 142 405 Q 182 386 232 397 Q 308 413 386 432 Q 422 441 427 446 Q 436 453 431 461 Q 424 471 397 478 Q 370 482 343 471 Q 303 456 258 445 Q 209 433 152 426 Z" style="fill: #0070C0;"></path>
                                                                        <path d="M 175 311 Q 203 227 223 220 Q 233 214 245 227 Q 249 237 249 257 Q 246 276 228 293 Q 200 323 187 331 Q 180 335 176 326 Q 172 320 175 311 Z" style="fill: #0070C0;"></path>
                                                                        <path d="M 324 183 Q 336 201 374 293 Q 383 314 399 342 Q 412 355 403 365 Q 393 380 361 396 Q 346 403 331 396 Q 321 392 328 381 Q 344 345 300 203 Q 294 187 293 174 C 289 144 309 157 324 183 Z" style="fill: #0070C0;"></path>
                                                                        <path d="M 293 174 Q 227 158 159 140 Q 140 134 111 136 Q 98 135 97 125 Q 94 113 103 105 Q 124 89 155 70 Q 165 67 176 75 Q 210 100 379 170 Q 404 179 421 192 Q 433 199 434 207 Q 430 213 417 211 Q 372 198 324 183 L 293 174 Z" style="fill: #0070C0;"></path>
                                                                        <path d="M 554 635 Q 551 636 549 636 Q 534 633 542 616 Q 557 586 509 489 Q 485 444 452 394 Q 445 385 443 380 Q 440 370 452 373 Q 477 382 547 474 L 557 489 Q 617 586 618 590 Q 617 594 616 596 Q 607 617 572 631 L 554 635 Z" style="fill: #0070C0;"></path>
                                                                        <path d="M 547 474 Q 577 465 702 488 Q 708 494 755 494 Q 762 495 765 491 Q 772 481 773 440 Q 776 274 755 183 Q 725 69 689 57 Q 676 53 593 71 Q 583 74 583 68 Q 583 64 595 55 Q 643 12 665 -20 Q 678 -41 691 -39 Q 710 -38 730 -17 Q 796 40 817 177 Q 832 271 842 415 Q 843 446 863 469 Q 876 482 875 491 Q 874 498 854 512 Q 827 531 793 541 Q 769 550 715 528 Q 706 527 696 523 Q 672 517 557 489 C 528 482 517 477 547 474 Z" style="fill: #0070C0;"></path>
                                                                        <path d="M 504 346 Q 494 352 468 357 Q 458 360 454 356 Q 450 352 455 337 Q 477 285 488 201 Q 489 176 503 158 Q 516 139 522 152 Q 528 167 526 193 L 523 219 Q 513 298 512 322 C 511 343 511 343 504 346 Z" style="fill: #0070C0;"></path>
                                                                        <path d="M 648 238 Q 667 299 687 319 Q 708 341 687 354 Q 671 364 647 381 Q 635 390 583 366 Q 559 359 504 346 C 475 339 483 316 512 322 Q 557 331 595 337 Q 614 341 619 333 Q 623 329 603 243 C 596 214 639 209 648 238 Z" style="fill: #0070C0;"></path>
                                    
                                    
                                                                                                                                                                                                                                                                                                                                                                                                                                                                                                                                                                                                                                                                                                                                                                                                                                                                                                                                                                                                                                                                                                        </g>
                            </svg>