<svg width='83' height='83' >
                                <g transform="translate(3, 70) scale(0.07, -0.07)">
                                    <!-- 先将完整的字以灰色字体绘制完成，层级位于下面 -->
                                                                        <path d="M 641 699 Q 743 708 841 699 Q 857 698 862 707 Q 868 719 854 734 Q 805 779 718 757 Q 690 754 661 748 L 605 740 Q 521 730 428 718 L 378 713 Q 294 706 204 698 Q 174 695 195 679 Q 238 651 295 659 Q 343 671 389 678 L 431 685 Q 453 692 595 698 L 641 699 Z" style="fill: #0070C0;"></path>
                                                                        <path d="M 428 718 Q 425 749 424 773 Q 425 792 404 798 Q 365 816 343 808 Q 325 799 341 780 Q 368 750 378 713 L 389 678 Q 398 632 415 615 Q 428 605 433 617 Q 436 632 431 685 L 428 718 Z" style="fill: #0070C0;"></path>
                                                                        <path d="M 661 748 Q 668 770 685 794 Q 698 809 688 819 Q 676 835 643 852 Q 627 861 610 852 Q 600 846 608 835 Q 618 811 605 740 L 595 698 Q 577 638 578 619 Q 579 606 595 616 Q 610 631 641 699 L 661 748 Z" style="fill: #0070C0;"></path>
                                                                        <path d="M 265 527 Q 319 473 331 473 Q 340 473 345 485 Q 349 498 343 523 Q 336 548 263 569 Q 250 573 244 571 Q 240 567 240 556 Q 243 546 265 527 Z" style="fill: #0070C0;"></path>
                                                                        <path d="M 438 573 Q 422 533 388 480 Q 382 465 395 470 Q 440 507 477 544 Q 489 559 507 570 Q 523 580 512 593 Q 499 605 477 613 Q 456 620 446 616 Q 436 613 442 604 Q 446 589 438 573 Z" style="fill: #0070C0;"></path>
                                                                        <path d="M 371 405 Q 503 436 507 438 Q 514 445 511 453 Q 504 463 478 471 Q 454 475 356 446 Q 278 428 216 422 Q 183 416 207 401 Q 238 380 310 394 Q 317 395 326 397 L 371 405 Z" style="fill: #0070C0;"></path>
                                                                        <path d="M 374 219 Q 375 220 380 221 Q 425 233 445 232 C 475 233 483 267 453 264 Q 414 260 380 251 L 328 240 Q 285 231 250 219 Q 234 215 238 233 Q 247 294 239 304 Q 227 319 207 330 Q 198 334 190 333 Q 181 329 187 314 Q 202 281 197 248 Q 193 217 180 203 Q 165 188 172 177 Q 181 164 195 156 Q 202 153 221 163 Q 242 182 322 204 L 374 219 Z" style="fill: #0070C0;"></path>
                                                                        <path d="M 445 232 Q 448 207 455 191 Q 461 178 471 186 Q 492 207 501 272 Q 513 314 521 321 Q 528 333 520 344 Q 507 357 481 375 Q 471 381 461 377 Q 454 374 456 363 Q 463 356 464 304 Q 460 282 453 264 L 445 232 Z" style="fill: #0070C0;"></path>
                                                                        <path d="M 322 204 Q 300 90 197 0 Q 184 -10 179 -16 Q 178 -23 188 -23 Q 216 -24 280 28 Q 340 83 374 219 L 380 251 Q 386 291 392 339 Q 396 357 399 367 Q 406 386 388 396 Q 379 402 371 405 C 344 419 317 426 326 397 Q 325 397 326 396 Q 342 360 328 240 L 322 204 Z" style="fill: #0070C0;"></path>
                                                                        <path d="M 627 267 Q 627 270 628 273 Q 632 307 635 349 L 636 381 Q 639 489 641 497 C 643 521 643 521 625 529 Q 579 550 565 547 Q 546 543 563 523 Q 594 471 581 272 Q 574 220 550 158 Q 532 107 450 14 Q 437 1 434 -5 Q 433 -12 444 -11 Q 483 -7 544 64 Q 604 133 621 232 L 627 267 Z" style="fill: #0070C0;"></path>
                                                                        <path d="M 641 497 Q 642 498 725 523 Q 744 530 750 520 Q 771 465 769 152 Q 763 83 759 74 Q 755 68 735 72 Q 713 76 691 79 Q 672 85 672 75 Q 723 30 752 -3 Q 765 -22 781 -27 Q 790 -30 798 -20 Q 837 25 836 84 Q 802 462 826 509 Q 838 528 826 539 Q 804 557 767 571 Q 748 578 733 570 Q 703 551 684 544 Q 662 537 625 529 C 596 522 612 488 641 497 Z" style="fill: #0070C0;"></path>
                                                                        <path d="M 635 349 Q 690 359 732 365 Q 754 369 745 381 Q 735 394 711 398 Q 657 401 636 381 C 613 361 605 344 635 349 Z" style="fill: #0070C0;"></path>
                                                                        <path d="M 621 232 Q 685 242 735 248 Q 757 252 749 264 Q 739 279 713 283 Q 670 289 627 267 C 600 254 591 227 621 232 Z" style="fill: #0070C0;"></path>
                                    
                                    
                                                                                                                                                                                                                                                                                                                                                                                                                                                                                                                                                                                                                                                                                                                                                                                                                                                                                                                                                                                                                                                                                                        </g>
                            </svg>