<svg width='83' height='83' >
                                <g transform="translate(3, 70) scale(0.07, -0.07)">
                                    <!-- 先将完整的字以灰色字体绘制完成，层级位于下面 -->
                                                                        <path d="M 630 685 Q 690 694 801 683 Q 817 682 822 691 Q 828 703 814 718 Q 765 763 665 738 Q 659 738 653 736 L 593 727 Q 515 718 428 707 L 378 701 Q 296 694 208 686 Q 178 683 199 667 Q 241 640 316 652 Q 350 659 386 665 L 430 672 Q 434 678 582 683 L 630 685 Z" style="fill: #0070C0;"></path>
                                                                        <path d="M 428 707 Q 427 734 426 756 Q 427 775 408 781 Q 369 802 347 794 Q 328 785 343 766 Q 367 736 378 701 L 386 665 Q 401 607 412 596 Q 425 586 429 597 Q 435 615 430 672 L 428 707 Z" style="fill: #0070C0;"></path>
                                                                        <path d="M 653 736 Q 662 755 676 776 Q 691 791 680 801 Q 668 817 634 836 Q 618 846 601 838 Q 591 832 598 821 Q 607 797 593 727 L 582 683 Q 566 625 567 611 Q 568 598 584 608 Q 596 617 630 685 L 653 736 Z" style="fill: #0070C0;"></path>
                                                                        <path d="M 321 552 Q 308 556 284 561 Q 272 564 269 559 Q 262 553 271 537 Q 304 461 321 338 Q 324 301 344 276 Q 362 254 367 269 Q 368 276 370 285 L 371 308 Q 371 327 367 350 Q 345 479 340 518 C 336 548 336 548 321 552 Z" style="fill: #0070C0;"></path>
                                                                        <path d="M 601 309 Q 622 275 640 265 Q 652 256 669 279 Q 687 307 724 468 Q 734 502 760 527 Q 775 540 763 556 Q 747 574 702 603 Q 681 612 598 595 Q 597 595 437 571 Q 373 559 321 552 C 291 548 311 512 340 518 Q 343 518 348 519 Q 442 543 610 563 Q 647 567 659 554 Q 674 536 670 518 Q 637 355 619 335 C 605 308 599 313 601 309 Z" style="fill: #0070C0;"></path>
                                                                        <path d="M 514 446 Q 529 452 604 463 Q 611 462 618 472 Q 619 481 601 488 Q 580 503 526 485 L 475 471 Q 391 458 374 454 Q 353 450 370 438 Q 394 420 437 431 Q 452 435 470 437 L 514 446 Z" style="fill: #0070C0;"></path>
                                                                        <path d="M 510 433 Q 511 440 514 446 L 526 485 Q 527 489 530 494 Q 537 506 525 513 Q 495 540 474 533 Q 464 530 469 519 Q 475 510 475 471 L 470 437 Q 461 389 396 342 Q 386 336 395 334 Q 426 331 465 363 Q 478 376 505 416 L 510 433 Z" style="fill: #0070C0;"></path>
                                                                        <path d="M 505 416 Q 536 397 573 366 Q 583 357 592 356 Q 596 356 600 362 Q 606 369 595 392 Q 586 417 510 433 C 481 439 480 432 505 416 Z" style="fill: #0070C0;"></path>
                                                                        <path d="M 370 285 Q 382 282 399 284 Q 514 300 601 309 C 631 312 644 319 619 335 Q 610 342 598 344 Q 580 348 371 308 C 342 302 340 290 370 285 Z" style="fill: #0070C0;"></path>
                                                                        <path d="M 238 212 Q 210 154 172 103 Q 148 72 165 34 Q 172 15 194 27 Q 249 63 261 151 Q 268 185 262 211 Q 258 220 251 221 Q 242 220 238 212 Z" style="fill: #0070C0;"></path>
                                                                        <path d="M 318 192 Q 336 87 417 30 Q 522 -37 726 -22 Q 760 -16 789 -5 Q 814 5 817 22 Q 821 31 787 56 Q 738 105 701 153 Q 691 172 684 165 Q 681 162 693 84 Q 702 48 668 39 Q 655 38 638 36 Q 473 35 405 98 Q 374 125 361 174 Q 354 198 342 203 Q 329 210 321 207 Q 315 206 318 192 Z" style="fill: #0070C0;"></path>
                                                                        <path d="M 486 209 Q 537 161 575 147 Q 591 146 599 160 Q 603 173 600 191 Q 578 237 498 249 Q 497 250 495 250 Q 477 253 469 248 Q 462 247 466 234 Q 469 222 486 209 Z" style="fill: #0070C0;"></path>
                                                                        <path d="M 737 234 Q 791 195 857 137 Q 876 118 893 116 Q 902 115 909 127 Q 919 143 901 187 Q 888 227 810 249 Q 761 262 734 266 Q 724 270 724 257 Q 725 244 737 234 Z" style="fill: #0070C0;"></path>
                                    
                                    
                                                                                                                                                                                                                                                                                                                                                                                                                                                                                                                                                                                                                                                                                                                                                                                                                                                                                                                                                                                                                                                                                                        </g>
                            </svg>