<svg width='83' height='83' >
                                <g transform="translate(3, 70) scale(0.07, -0.07)">
                                    <!-- 先将完整的字以灰色字体绘制完成，层级位于下面 -->
                                                                        <path d="M 616 717 Q 721 724 805 714 Q 820 711 825 721 Q 831 731 818 746 Q 773 791 668 769 Q 658 769 648 766 L 588 758 Q 509 751 422 741 L 371 737 Q 302 734 228 728 Q 200 727 218 711 Q 261 681 356 699 Q 369 702 384 703 L 426 708 Q 447 714 573 717 L 616 717 Z" style="fill: #0070C0;"></path>
                                                                        <path d="M 422 741 Q 421 760 420 776 Q 420 795 400 799 Q 364 815 341 807 Q 325 798 340 780 Q 359 761 371 737 L 384 703 Q 393 667 411 651 Q 424 641 428 653 Q 431 674 426 708 L 422 741 Z" style="fill: #0070C0;"></path>
                                                                        <path d="M 648 766 Q 655 778 668 790 Q 683 802 675 813 Q 666 831 637 851 Q 624 861 606 856 Q 596 852 601 841 Q 607 820 588 758 L 573 717 Q 561 681 560 675 Q 560 662 576 670 Q 583 676 616 717 L 648 766 Z" style="fill: #0070C0;"></path>
                                                                        <path d="M 517 580 Q 599 596 601 597 Q 611 604 606 612 Q 600 624 572 633 Q 548 639 526 633 L 469 618 Q 394 606 343 603 Q 307 599 332 581 Q 368 559 440 569 Q 455 572 472 573 L 517 580 Z" style="fill: #0070C0;"></path>
                                                                        <path d="M 508 527 Q 512 555 517 580 L 526 633 Q 526 637 528 639 Q 531 646 533 653 Q 536 660 520 673 Q 493 689 475 692 Q 462 696 456 689 Q 450 683 456 671 Q 463 661 469 618 L 472 573 Q 472 549 472 522 C 472 492 504 497 508 527 Z" style="fill: #0070C0;"></path>
                                                                        <path d="M 588 497 Q 658 501 841 502 Q 862 502 867 511 Q 873 523 856 537 Q 796 582 734 563 Q 692 557 640 547 L 563 534 Q 536 533 508 527 L 472 522 Q 319 503 145 483 Q 123 482 139 463 Q 154 448 172 443 Q 194 437 211 442 Q 365 482 522 493 L 588 497 Z" style="fill: #0070C0;"></path>
                                                                        <path d="M 416 358 Q 419 362 425 365 Q 519 434 588 497 L 640 547 Q 679 584 704 603 Q 714 610 711 628 Q 698 685 666 695 Q 650 699 650 679 Q 641 637 639 631 Q 608 585 563 534 L 522 493 Q 494 466 430 416 L 378 379 Q 368 373 359 366 Q 241 287 96 218 Q 89 215 86 209 Q 85 205 90 203 Q 99 202 109 204 Q 214 235 269 268 Q 324 296 379 333 L 416 358 Z" style="fill: #0070C0;"></path>
                                                                        <path d="M 416 334 Q 506 352 568 380 Q 602 393 633 398 Q 646 398 650 404 Q 653 411 644 421 Q 601 457 572 453 Q 566 450 566 442 Q 563 418 415 346 C 388 333 387 328 416 334 Z" style="fill: #0070C0;"></path>
                                                                        <path d="M 415 346 Q 415 352 416 358 L 430 416 Q 429 428 420 434 Q 380 462 368 458 Q 358 452 363 440 Q 376 415 378 379 L 379 333 Q 379 305 412 284 Q 458 254 615 270 Q 687 277 713 295 Q 737 310 724 334 Q 706 368 690 427 Q 687 439 681 442 Q 674 445 673 429 Q 672 354 662 340 Q 638 312 530 301 Q 472 300 445 308 Q 423 318 417 332 Q 416 333 416 334 L 415 346 Z" style="fill: #0070C0;"></path>
                                                                        <path d="M 416 205 Q 412 211 404 214 Q 379 224 362 222 Q 352 218 357 208 Q 387 156 368 53 Q 350 38 373 -10 Q 376 -17 384 -26 Q 391 -36 400 -31 Q 407 -25 412 -10 L 420 17 Q 421 29 422 88 L 422 115 Q 422 161 422 177 L 416 205 Z" style="fill: #0070C0;"></path>
                                                                        <path d="M 594 3 Q 619 -30 639 -61 Q 646 -77 657 -76 Q 672 -75 685 -45 Q 701 -11 698 31 Q 692 70 685 142 Q 684 170 699 189 Q 708 201 699 210 Q 683 228 636 249 Q 620 258 606 249 Q 552 228 416 205 C 386 200 392 174 422 177 Q 440 177 588 204 Q 612 208 623 199 Q 632 190 633 35 L 633 33 Q 632 30 631 27 Q 624 34 612 37 Q 602 40 583 38 C 568 37 576 27 594 3 Z" style="fill: #0070C0;"></path>
                                                                        <path d="M 422 88 Q 423 88 432 88 Q 520 95 585 98 Q 607 99 600 113 Q 591 128 568 134 Q 543 140 422 115 C 393 109 392 88 422 88 Z" style="fill: #0070C0;"></path>
                                                                        <path d="M 412 -10 Q 415 -10 424 -10 Q 518 -1 594 3 C 624 5 613 37 583 38 Q 579 41 580 38 Q 570 39 558 36 Q 485 26 420 17 C 390 13 382 -10 412 -10 Z" style="fill: #0070C0;"></path>
                                    
                                    
                                                                                                                                                                                                                                                                                                                                                                                                                                                                                                                                                                                                                                                                                                                                                                                                                                                                                                                                                                                                                                                                                                        </g>
                            </svg>