<svg width='83' height='83' >
                                <g transform="translate(3, 70) scale(0.07, -0.07)">
                                    <!-- 先将完整的字以灰色字体绘制完成，层级位于下面 -->
                                                                        <path d="M 632 677 Q 647 677 857 678 Q 878 678 883 687 Q 889 699 871 713 Q 811 759 748 741 Q 703 735 649 724 L 595 716 Q 541 712 439 696 L 395 692 Q 284 682 161 667 Q 139 666 155 647 Q 170 632 188 626 Q 210 620 227 625 Q 309 647 402 658 L 443 663 Q 476 672 586 676 L 632 677 Z" style="fill: #0070C0;"></path>
                                                                        <path d="M 439 696 Q 436 736 434 766 Q 435 785 416 790 Q 376 808 356 801 Q 340 792 354 774 Q 384 738 394 696 Q 394 695 395 692 L 402 658 Q 417 603 427 591 Q 440 581 444 592 Q 448 605 443 663 L 439 696 Z" style="fill: #0070C0;"></path>
                                                                        <path d="M 649 724 Q 652 742 679 793 Q 692 809 682 818 Q 669 834 634 851 Q 618 860 600 850 Q 590 844 599 833 Q 611 805 595 716 L 586 676 Q 568 610 570 591 Q 571 578 587 589 Q 602 602 632 677 L 649 724 Z" style="fill: #0070C0;"></path>
                                                                        <path d="M 354 514 Q 355 517 358 519 Q 370 538 380 546 Q 387 553 384 564 Q 381 574 360 592 Q 341 607 326 607 Q 311 606 317 589 Q 327 568 284 491 Q 263 457 234 419 Q 227 412 224 407 Q 221 398 232 400 Q 260 404 335 491 L 354 514 Z" style="fill: #0070C0;"></path>
                                                                        <path d="M 404 405 Q 462 471 496 493 Q 512 502 501 513 Q 489 525 457 543 Q 442 547 430 539 Q 423 536 369 518 Q 362 517 354 514 C 325 505 306 497 335 491 Q 350 485 404 497 Q 410 498 411 497 Q 414 494 411 487 Q 390 430 371 398 C 356 372 384 383 404 405 Z" style="fill: #0070C0;"></path>
                                                                        <path d="M 238 372 Q 228 376 201 380 Q 189 381 187 377 Q 181 371 190 356 Q 218 301 239 208 Q 243 180 260 162 Q 278 143 282 157 Q 283 161 284 167 L 284 189 Q 283 202 280 218 Q 259 315 255 344 C 251 368 251 368 238 372 Z" style="fill: #0070C0;"></path>
                                                                        <path d="M 446 187 Q 458 171 469 166 Q 478 159 492 178 Q 505 199 532 312 Q 539 339 560 360 Q 572 370 562 382 Q 549 397 512 420 Q 499 426 431 411 Q 419 411 404 405 L 371 398 Q 364 398 238 372 C 209 366 227 332 255 344 Q 259 350 337 365 L 369 371 Q 403 378 444 385 Q 471 389 479 381 Q 489 368 487 355 Q 468 247 458 231 Q 455 222 439 217 C 426 210 426 210 446 187 Z" style="fill: #0070C0;"></path>
                                                                        <path d="M 393 280 Q 420 286 445 288 Q 464 291 457 302 Q 448 314 427 317 Q 414 320 394 314 L 349 302 Q 321 295 298 286 Q 285 283 301 271 Q 305 268 351 273 L 393 280 Z" style="fill: #0070C0;"></path>
                                                                        <path d="M 390 215 Q 391 249 393 280 L 394 314 Q 394 315 395 317 Q 395 351 380 363 Q 374 369 369 371 C 343 386 324 392 337 365 Q 346 350 349 302 L 351 273 Q 351 246 354 206 C 356 176 389 185 390 215 Z" style="fill: #0070C0;"></path>
                                                                        <path d="M 284 167 Q 288 166 296 167 Q 380 180 446 187 C 476 190 468 210 439 217 Q 438 218 435 218 Q 419 222 390 215 L 354 206 Q 317 199 284 189 C 255 180 254 170 284 167 Z" style="fill: #0070C0;"></path>
                                                                        <path d="M 163 84 Q 150 83 147 73 Q 143 60 152 50 Q 174 31 206 9 Q 216 5 229 12 Q 272 37 319 53 Q 389 75 460 99 Q 488 106 507 120 Q 522 126 523 135 Q 519 142 505 140 Q 217 77 163 84 Z" style="fill: #0070C0;"></path>
                                                                        <path d="M 596 459 Q 617 408 605 268 Q 599 241 624 210 Q 634 200 642 210 Q 657 234 658 303 Q 658 391 664 431 Q 670 452 651 463 Q 636 472 620 480 Q 608 484 600 479 Q 593 472 596 459 Z" style="fill: #0070C0;"></path>
                                                                        <path d="M 736 519 Q 740 492 740 86 Q 740 70 731 63 Q 722 59 634 76 Q 600 86 603 76 Q 604 69 626 55 Q 702 3 723 -29 Q 747 -66 764 -65 Q 780 -66 794 -30 Q 810 18 807 94 Q 776 430 809 547 Q 825 578 768 602 Q 734 620 713 613 Q 694 606 711 582 Q 733 554 736 519 Z" style="fill: #0070C0;"></path>
                                    
                                    
                                                                                                                                                                                                                                                                                                                                                                                                                                                                                                                                                                                                                                                                                                                                                                                                                                                                                                                                                                                                                                                                                                        </g>
                            </svg>