<svg width='83' height='83' >
                                <g transform="translate(3, 70) scale(0.07, -0.07)">
                                    <!-- 先将完整的字以灰色字体绘制完成，层级位于下面 -->
                                                                        <path d="M 615 688 Q 702 695 798 689 Q 814 688 818 697 Q 824 707 811 722 Q 765 765 654 739 Q 645 739 638 736 L 582 728 Q 506 718 420 706 L 372 701 Q 293 694 207 685 Q 179 682 198 667 Q 240 640 294 649 Q 339 661 382 667 L 423 674 Q 435 680 569 686 L 615 688 Z" style="fill: #0070C0;"></path>
                                                                        <path d="M 420 706 Q 417 740 416 765 Q 417 784 397 790 Q 357 808 335 800 Q 317 791 333 772 Q 360 742 371 706 Q 371 705 372 701 L 382 667 Q 386 631 407 611 Q 420 601 425 613 Q 429 631 423 674 L 420 706 Z" style="fill: #0070C0;"></path>
                                                                        <path d="M 638 736 Q 648 757 665 781 Q 680 794 671 805 Q 661 823 627 841 Q 612 851 595 843 Q 585 839 592 827 Q 601 803 582 728 L 569 686 Q 556 638 555 627 Q 556 614 571 623 Q 575 627 615 688 L 638 736 Z" style="fill: #0070C0;"></path>
                                                                        <path d="M 541 573 Q 540 583 534 596 Q 525 617 459 624 Q 449 625 444 622 Q 440 619 443 610 Q 446 603 467 590 Q 483 580 502 564 C 525 545 545 543 541 573 Z" style="fill: #0070C0;"></path>
                                                                        <path d="M 568 534 Q 682 558 690 562 Q 697 569 694 577 Q 688 587 662 596 Q 641 602 541 573 L 502 564 Q 349 543 333 541 Q 300 537 323 521 Q 362 496 412 508 Q 473 518 537 529 L 568 534 Z" style="fill: #0070C0;"></path>
                                                                        <path d="M 543 450 Q 592 501 593 502 Q 593 509 586 519 Q 579 529 568 534 C 542 549 542 549 537 529 Q 531 496 502 465 Q 501 465 501 464 L 474 435 Q 410 384 386 368 Q 379 365 387 362 Q 435 362 507 419 L 543 450 Z" style="fill: #0070C0;"></path>
                                                                        <path d="M 507 419 Q 585 383 588 382 Q 594 383 596 390 Q 600 400 585 423 Q 575 442 543 450 L 501 464 Q 432 482 399 486 Q 393 487 394 479 Q 397 472 405 467 Q 438 454 474 435 L 507 419 Z" style="fill: #0070C0;"></path>
                                                                        <path d="M 493 330 Q 515 336 541 339 Q 641 354 661 344 C 690 338 692 381 662 379 Q 473 366 331 332 Q 315 331 321 348 Q 325 370 332 392 Q 338 413 331 426 Q 319 442 300 456 Q 291 463 282 462 Q 272 459 277 442 Q 289 405 279 370 Q 272 336 256 323 Q 238 310 244 297 Q 253 282 267 272 Q 274 268 291 274 Q 310 292 450 322 L 493 330 Z" style="fill: #0070C0;"></path>
                                                                        <path d="M 661 344 Q 664 326 670 312 Q 676 297 688 307 Q 712 328 721 401 Q 736 437 743 443 Q 750 456 743 468 Q 727 484 699 503 Q 689 510 677 506 Q 670 502 672 491 Q 681 473 681 437 Q 675 404 662 379 L 661 344 Z" style="fill: #0070C0;"></path>
                                                                        <path d="M 263 212 Q 236 234 217 239 Q 213 242 207 236 Q 203 230 207 218 Q 229 169 216 44 Q 212 22 219 3 Q 229 -16 244 -27 Q 257 -37 259 -26 Q 266 -22 269 -3 Q 273 10 271 59 Q 270 138 272 170 C 274 200 274 204 263 212 Z" style="fill: #0070C0;"></path>
                                                                        <path d="M 485 221 Q 597 242 736 247 Q 755 246 764 235 Q 771 226 766 213 Q 762 72 751 52 Q 747 40 732 44 Q 699 48 665 55 Q 635 58 656 39 Q 728 -15 758 -54 Q 767 -67 779 -59 Q 806 -37 819 72 Q 823 183 845 210 Q 861 231 854 239 Q 847 252 795 286 Q 776 301 760 295 Q 732 283 677 275 Q 577 265 506 254 L 446 245 Q 394 238 364 230 Q 307 218 263 212 C 233 208 242 165 272 170 Q 285 169 300 174 Q 349 193 432 211 L 485 221 Z" style="fill: #0070C0;"></path>
                                                                        <path d="M 573 136 Q 506 127 431 110 Q 424 107 421 110 Q 420 113 424 123 Q 460 183 485 221 L 506 254 Q 522 278 529 286 Q 539 296 533 307 Q 527 317 493 330 C 465 341 441 351 450 322 Q 450 318 453 312 Q 463 290 450 255 Q 449 251 446 245 L 432 211 Q 390 132 342 93 Q 330 81 334 72 Q 340 57 363 40 Q 373 31 385 41 Q 421 74 585 116 L 587 116 C 616 123 603 140 573 136 Z" style="fill: #0070C0;"></path>
                                                                        <path d="M 587 116 Q 617 77 627 73 Q 634 72 641 81 Q 648 91 646 115 Q 643 146 569 186 Q 557 190 552 190 Q 548 189 547 178 Q 547 169 564 149 Q 568 143 573 136 L 587 116 Z" style="fill: #0070C0;"></path>
                                    
                                    
                                                                                                                                                                                                                                                                                                                                                                                                                                                                                                                                                                                                                                                                                                                                                                                                                                                                                                                                                                                                                                                                                                        </g>
                            </svg>