<svg width='83' height='83' >
                                <g transform="translate(3, 70) scale(0.07, -0.07)">
                                    <!-- 先将完整的字以灰色字体绘制完成，层级位于下面 -->
                                                                        <path d="M 619 682 Q 703 691 790 685 Q 806 684 811 693 Q 815 703 803 718 Q 755 758 666 738 Q 651 735 638 732 L 583 723 Q 510 713 426 700 L 378 694 Q 303 687 223 677 Q 195 674 214 659 Q 256 632 336 649 Q 360 655 386 659 L 429 666 Q 453 672 574 680 L 619 682 Z" style="fill: #0070C0;"></path>
                                                                        <path d="M 426 700 Q 423 734 422 760 Q 423 779 404 785 Q 367 806 343 797 Q 324 790 340 770 Q 368 736 378 694 L 386 659 Q 401 604 411 592 Q 424 582 429 593 Q 435 609 429 666 L 426 700 Z" style="fill: #0070C0;"></path>
                                                                        <path d="M 638 732 Q 645 754 662 783 Q 675 798 665 807 Q 653 823 619 839 Q 603 848 586 839 Q 576 832 585 822 Q 597 797 583 723 L 574 680 Q 556 617 558 599 Q 559 586 575 596 Q 588 609 619 682 L 638 732 Z" style="fill: #0070C0;"></path>
                                                                        <path d="M 248 533 Q 236 555 226 563 Q 207 576 205 551 Q 211 524 178 479 Q 129 439 163 375 Q 178 350 198 376 Q 214 400 224 435 Q 239 478 249 503 Q 250 504 250 507 L 248 533 Z" style="fill: #0070C0;"></path>
                                                                        <path d="M 488 533 Q 690 567 735 557 Q 751 547 749 540 Q 749 537 718 470 Q 711 457 717 453 Q 724 449 741 460 Q 795 494 839 503 Q 875 513 875 522 Q 874 532 804 585 Q 780 606 721 592 Q 627 583 363 546 Q 308 539 252 534 Q 249 534 248 533 C 218 529 222 519 250 507 Q 274 491 312 499 Q 427 533 447 527 L 488 533 Z" style="fill: #0070C0;"></path>
                                                                        <path d="M 524 478 Q 525 479 525 482 Q 525 509 488 533 C 464 551 452 557 447 527 Q 440 442 281 322 Q 274 318 268 313 Q 219 279 104 215 Q 94 212 104 207 Q 174 201 322 298 Q 454 412 484 440 Q 493 452 506 461 C 524 476 524 476 524 478 Z" style="fill: #0070C0;"></path>
                                                                        <path d="M 506 461 Q 732 254 790 244 Q 868 244 947 268 Q 965 272 965 277 Q 966 284 952 288 Q 751 343 725 356 Q 635 401 524 478 C 499 495 484 481 506 461 Z" style="fill: #0070C0;"></path>
                                                                        <path d="M 507 297 Q 615 319 619 322 Q 626 329 623 337 Q 616 347 590 355 Q 562 361 535 350 Q 499 340 461 330 Q 418 321 369 318 Q 335 312 359 297 Q 395 273 450 286 Q 456 287 463 288 L 507 297 Z" style="fill: #0070C0;"></path>
                                                                        <path d="M 523 189 Q 655 213 662 218 Q 669 225 666 233 Q 660 245 634 252 Q 612 258 525 234 L 472 221 Q 469 222 468 221 Q 404 209 330 205 Q 296 201 319 185 Q 355 161 408 171 Q 439 177 473 181 L 523 189 Z" style="fill: #0070C0;"></path>
                                                                        <path d="M 517 52 Q 520 128 523 189 C 524 219 525 233 525 234 Q 525 235 526 235 Q 530 278 511 294 Q 508 295 507 297 C 484 316 454 317 463 288 Q 467 284 472 221 L 473 181 Q 473 132 475 47 C 476 17 516 22 517 52 Z" style="fill: #0070C0;"></path>
                                                                        <path d="M 322 114 Q 386 59 396 57 Q 405 58 409 69 Q 413 81 406 105 Q 402 123 375 136 Q 315 160 300 155 Q 296 151 297 141 Q 300 131 322 114 Z" style="fill: #0070C0;"></path>
                                                                        <path d="M 617 161 Q 601 133 567 91 Q 563 85 567 79 Q 574 78 580 82 Q 647 127 680 143 Q 695 147 691 156 Q 687 169 670 185 Q 654 201 635 203 Q 622 202 623 186 Q 624 174 617 161 Z" style="fill: #0070C0;"></path>
                                                                        <path d="M 475 47 Q 366 38 237 26 Q 216 25 231 7 Q 244 -8 262 -14 Q 284 -20 300 -16 Q 504 32 777 12 Q 796 12 802 20 Q 808 32 791 46 Q 740 88 703 80 Q 633 67 517 52 L 475 47 Z" style="fill: #0070C0;"></path>
                                    
                                    
                                                                                                                                                                                                                                                                                                                                                                                                                                                                                                                                                                                                                                                                                                                                                                                                                                                                                                                                                                                                                                                                                                        </g>
                            </svg>