<svg width='83' height='83' >
                                <g transform="translate(3, 70) scale(0.07, -0.07)">
                                    <!-- 先将完整的字以灰色字体绘制完成，层级位于下面 -->
                                                                        <path d="M 648 713 Q 657 723 800 713 Q 813 712 818 720 Q 822 730 811 743 Q 763 782 677 760 Q 673 760 670 759 L 611 749 Q 524 739 426 726 L 381 721 Q 311 715 233 707 Q 208 704 225 690 Q 258 668 328 678 Q 356 685 389 690 L 429 696 Q 453 705 601 711 C 631 712 648 713 648 713 Z" style="fill: #0070C0;"></path>
                                                                        <path d="M 426 726 Q 422 754 421 777 Q 422 795 403 799 Q 367 817 346 809 Q 330 800 345 783 Q 369 755 381 721 L 389 690 Q 402 639 416 627 Q 429 617 432 628 Q 435 638 429 696 L 426 726 Z" style="fill: #0070C0;"></path>
                                                                        <path d="M 670 759 Q 677 775 690 794 Q 705 807 695 818 Q 685 834 651 853 Q 636 863 619 854 Q 609 850 616 838 Q 625 819 611 749 L 601 711 Q 586 665 587 647 Q 588 634 603 644 Q 618 656 648 713 L 670 759 Z" style="fill: #0070C0;"></path>
                                                                        <path d="M 523 603 Q 538 621 547 627 Q 554 637 553 645 Q 550 655 528 662 Q 504 669 494 667 Q 488 666 486 655 Q 480 604 364 503 Q 346 490 369 493 Q 405 497 454 538 Q 457 541 462 544 L 476 556 Q 489 568 501 579 L 523 603 Z" style="fill: #0070C0;"></path>
                                                                        <path d="M 542 439 Q 546 443 572 464 L 599 486 Q 684 568 707 582 Q 720 589 717 598 Q 716 605 669 630 Q 657 639 614 621 Q 568 611 523 603 C 493 598 471 582 501 579 Q 516 573 603 587 Q 615 588 618 584 Q 619 580 611 569 Q 589 538 559 507 L 538 487 Q 463 418 318 335 Q 305 328 316 325 Q 364 318 520 423 L 542 439 Z" style="fill: #0070C0;"></path>
                                                                        <path d="M 572 464 Q 750 346 781 342 Q 838 342 924 378 Q 940 382 940 388 Q 941 394 927 396 Q 725 435 717 438 Q 642 465 599 486 L 559 507 Q 555 510 550 512 Q 498 545 476 556 C 450 570 439 563 462 544 Q 471 535 538 487 L 572 464 Z" style="fill: #0070C0;"></path>
                                                                        <path d="M 587 318 Q 618 325 654 330 Q 685 337 690 341 Q 697 348 694 354 Q 688 364 665 370 Q 641 376 588 358 L 538 345 Q 495 338 447 334 Q 419 330 439 315 Q 469 297 520 306 Q 527 309 539 309 L 587 318 Z" style="fill: #0070C0;"></path>
                                                                        <path d="M 586 243 Q 644 253 694 258 Q 716 259 709 273 Q 699 286 675 292 Q 642 298 586 280 L 540 271 Q 489 262 443 252 Q 427 249 446 234 Q 458 225 483 229 Q 511 233 540 237 L 586 243 Z" style="fill: #0070C0;"></path>
                                                                        <path d="M 587 163 Q 605 166 793 165 Q 809 165 814 171 Q 818 181 805 193 Q 757 229 700 213 Q 652 207 586 196 L 540 191 Q 464 184 379 174 Q 361 173 374 158 Q 384 148 400 142 Q 416 138 430 141 Q 482 154 541 159 L 587 163 Z" style="fill: #0070C0;"></path>
                                                                        <path d="M 570 46 Q 582 65 587 163 L 586 196 Q 585 215 586 243 L 586 280 Q 586 298 587 318 L 588 358 Q 591 379 594 397 Q 597 412 585 419 Q 560 437 547 438 Q 546 439 542 439 C 513 445 504 447 520 423 Q 521 422 523 420 Q 524 416 529 410 Q 532 404 538 345 L 539 309 Q 539 291 540 271 L 540 237 Q 540 216 540 191 L 541 159 Q 542 71 553 50 C 562 25 562 25 570 46 Z" style="fill: #0070C0;"></path>
                                                                        <path d="M 216 570 Q 241 549 270 525 Q 283 513 298 514 Q 308 515 313 528 Q 317 543 307 571 Q 295 598 209 615 Q 193 618 188 615 Q 184 611 185 599 Q 189 589 216 570 Z" style="fill: #0070C0;"></path>
                                                                        <path d="M 276 139 Q 291 148 297 164 Q 304 200 270 250 Q 240 301 300 377 Q 304 383 309 387 Q 328 405 310 419 Q 291 435 258 448 Q 237 460 220 443 Q 192 424 156 412 Q 108 394 93 397 Q 86 398 84 393 Q 83 389 90 384 Q 126 366 209 392 Q 221 395 229 381 Q 248 363 231 338 Q 191 295 241 223 Q 259 186 260 170 Q 261 154 258 145 Q 257 144 256 140 C 250 118 253 120 276 139 Z" style="fill: #0070C0;"></path>
                                                                        <path d="M 256 140 Q 208 144 160 126 Q 130 113 85 109 Q 78 108 75 100 Q 72 93 82 83 Q 100 65 125 55 Q 137 49 154 64 Q 211 112 275 102 Q 339 89 470 29 Q 671 -64 760 -53 Q 766 -50 775 -49 Q 833 -28 884 7 Q 906 20 883 21 Q 682 21 570 46 L 553 50 Q 463 75 344 121 Q 310 134 276 139 L 256 140 Z" style="fill: #0070C0;"></path>
                                    
                                    
                                                                                                                                                                                                                                                                                                                                                                                                                                                                                                                                                                                                                                                                                                                                                                                                                                                                                                                                                                                                                                                                                                        </g>
                            </svg>