<svg width='83' height='83' >
                                <g transform="translate(3, 70) scale(0.07, -0.07)">
                                    <!-- 先将完整的字以灰色字体绘制完成，层级位于下面 -->
                                                                        <path d="M 629 729 Q 710 738 826 727 Q 841 726 846 734 Q 850 744 839 759 Q 794 799 709 780 Q 679 777 648 771 L 595 764 Q 513 755 424 744 L 383 740 Q 289 733 186 724 Q 159 721 178 706 Q 215 682 286 692 Q 338 705 392 711 L 428 716 Q 501 725 586 727 L 629 729 Z" style="fill: #0070C0;"></path>
                                                                        <path d="M 424 744 Q 421 772 419 792 Q 420 808 402 813 Q 369 828 350 820 Q 335 813 349 796 Q 373 772 383 740 L 392 711 Q 401 677 416 662 Q 428 653 431 663 Q 434 679 428 716 L 424 744 Z" style="fill: #0070C0;"></path>
                                                                        <path d="M 594 671 Q 597 674 629 729 L 648 771 Q 657 789 671 812 Q 684 825 675 835 Q 665 851 632 868 Q 617 877 601 869 Q 591 863 598 853 Q 607 832 595 764 L 586 727 Q 574 697 575 668 C 575 643 577 646 594 671 Z" style="fill: #0070C0;"></path>
                                                                        <path d="M 368 634 Q 358 640 327 643 Q 317 644 314 640 Q 310 636 317 622 Q 344 574 363 496 Q 367 472 382 457 Q 398 439 401 453 Q 402 460 403 468 L 401 495 Q 398 504 391 539 L 386 560 Q 379 590 377 604 C 372 632 372 632 368 634 Z" style="fill: #0070C0;"></path>
                                                                        <path d="M 593 490 Q 602 474 612 466 Q 619 459 636 475 Q 648 488 681 566 Q 691 591 714 611 Q 726 621 718 634 Q 705 650 671 676 Q 656 685 594 671 L 575 668 Q 574 669 571 668 Q 456 653 368 634 C 339 628 348 595 377 604 Q 377 605 378 605 Q 457 627 597 646 Q 628 650 638 640 Q 645 630 642 620 Q 617 544 609 532 Q 606 523 589 521 C 576 517 577 515 593 490 Z" style="fill: #0070C0;"></path>
                                                                        <path d="M 391 539 Q 397 538 405 539 Q 493 555 560 564 Q 579 567 573 578 Q 564 590 543 594 Q 516 598 386 560 C 357 552 361 541 391 539 Z" style="fill: #0070C0;"></path>
                                                                        <path d="M 403 468 Q 409 468 417 469 Q 472 482 593 490 C 623 492 616 507 589 521 L 588 522 Q 575 529 551 524 Q 467 505 401 495 C 371 490 373 467 403 468 Z" style="fill: #0070C0;"></path>
                                                                        <path d="M 216 413 Q 203 414 201 409 Q 197 402 207 387 Q 235 351 261 287 Q 268 268 282 257 Q 304 238 306 254 Q 306 258 307 262 L 303 291 Q 302 295 301 298 Q 285 350 278 375 C 270 404 246 413 216 413 Z" style="fill: #0070C0;"></path>
                                                                        <path d="M 661 293 Q 661 292 662 288 Q 663 273 675 272 Q 690 272 727 313 Q 749 356 787 378 Q 806 388 794 406 Q 781 424 740 454 Q 725 467 660 455 Q 543 449 405 426 Q 312 414 216 413 C 186 412 248 370 278 375 Q 282 375 289 376 Q 326 386 382 395 L 404 399 Q 458 409 531 416 L 572 420 Q 689 435 711 420 Q 717 416 709 397 Q 681 331 671 318 Q 670 318 670 317 C 659 298 659 298 661 293 Z" style="fill: #0070C0;"></path>
                                                                        <path d="M 422 301 Q 429 322 410 384 Q 409 393 404 399 C 387 423 375 424 382 395 Q 385 383 386 364 Q 386 328 406 300 C 417 284 417 284 422 301 Z" style="fill: #0070C0;"></path>
                                                                        <path d="M 539 317 Q 539 329 582 390 Q 592 400 586 407 Q 582 414 572 420 C 547 436 522 445 531 416 Q 537 404 524 337 Q 520 325 520 315 C 519 285 533 288 539 317 Z" style="fill: #0070C0;"></path>
                                                                        <path d="M 307 262 Q 314 261 324 262 Q 432 283 661 293 C 691 294 692 297 670 317 Q 666 321 658 328 Q 643 337 539 317 L 520 315 Q 469 308 422 301 L 406 300 Q 352 297 303 291 C 273 287 277 263 307 262 Z" style="fill: #0070C0;"></path>
                                                                        <path d="M 537 69 Q 579 109 617 169 Q 633 194 654 208 Q 673 220 664 235 Q 654 248 625 263 Q 603 275 518 246 Q 400 228 384 225 Q 371 225 365 218 Q 361 211 379 203 Q 415 188 463 202 Q 544 224 558 224 Q 571 221 567 206 Q 542 139 497 94 L 471 72 Q 384 8 203 -26 Q 188 -27 198 -37 Q 205 -41 259 -39 Q 326 -35 405 -8 Q 462 11 507 43 L 537 69 Z" style="fill: #0070C0;"></path>
                                                                        <path d="M 507 43 Q 670 -86 715 -82 Q 799 -69 866 -44 Q 900 -34 895 -25 Q 894 -21 857 -16 Q 829 -13 796 -11 Q 655 2 560 57 Q 548 63 537 69 L 497 94 Q 457 121 414 152 Q 375 180 344 175 Q 328 174 326 168 Q 326 162 341 155 Q 386 139 471 72 L 507 43 Z" style="fill: #0070C0;"></path>
                                    
                                    
                                                                                                                                                                                                                                                                                                                                                                                                                                                                                                                                                                                                                                                                                                                                                                                                                                                                                                                                                                                                                                                                                                                                                                                    </g>
                            </svg>