<svg width='83' height='83' >
                                <g transform="translate(3, 70) scale(0.07, -0.07)">
                                    <!-- 先将完整的字以灰色字体绘制完成，层级位于下面 -->
                                                                        <path d="M 626 694 Q 681 703 797 691 Q 813 690 818 699 Q 824 711 810 726 Q 762 771 653 747 Q 650 747 649 746 L 592 738 Q 508 728 418 716 L 370 712 Q 291 706 204 698 Q 174 695 195 679 Q 237 649 324 666 Q 351 672 379 675 L 420 681 Q 453 690 580 692 L 626 694 Z" style="fill: #0070C0;"></path>
                                                                        <path d="M 418 716 Q 417 747 417 771 Q 420 790 399 797 Q 360 818 339 811 Q 320 802 335 783 Q 360 753 369 718 Q 369 715 370 712 L 379 675 Q 385 639 400 624 Q 413 612 417 624 Q 418 631 420 681 L 418 716 Z" style="fill: #0070C0;"></path>
                                                                        <path d="M 649 746 Q 656 765 672 786 Q 685 799 676 810 Q 664 826 631 844 Q 615 854 599 845 Q 589 839 596 829 Q 605 805 592 738 L 580 692 Q 565 647 567 627 Q 568 614 583 624 Q 595 634 626 694 L 649 746 Z" style="fill: #0070C0;"></path>
                                                                        <path d="M 258 502 Q 274 509 333 541 Q 349 551 367 557 Q 385 563 378 577 Q 369 590 351 604 Q 335 617 324 615 Q 314 615 316 605 Q 317 581 274 544 Q 262 534 249 520 C 228 498 231 489 258 502 Z" style="fill: #0070C0;"></path>
                                                                        <path d="M 249 520 Q 240 527 205 535 Q 192 536 187 532 Q 183 526 192 512 Q 226 472 219 362 Q 212 332 183 299 Q 173 290 179 273 Q 185 251 196 241 Q 205 234 216 245 Q 253 282 364 353 Q 377 359 380 366 Q 381 370 377 371 Q 370 372 281 343 Q 274 342 272 344 Q 269 345 269 353 Q 257 482 258 502 C 258 516 258 516 249 520 Z" style="fill: #0070C0;"></path>
                                                                        <path d="M 443 529 Q 515 604 525 611 Q 540 621 528 634 Q 515 644 492 652 Q 471 658 462 654 Q 452 650 458 641 Q 464 623 420 531 C 407 504 422 507 443 529 Z" style="fill: #0070C0;"></path>
                                                                        <path d="M 420 531 Q 411 537 393 542 Q 384 546 381 542 Q 375 538 380 524 Q 399 460 400 359 Q 399 329 412 307 Q 424 288 430 299 Q 436 312 438 332 L 438 355 Q 438 356 434 421 L 433 440 Q 432 486 431 504 C 430 525 430 525 420 531 Z" style="fill: #0070C0;"></path>
                                                                        <path d="M 542 343 Q 549 330 558 314 Q 571 295 577 296 Q 581 297 590 310 Q 597 325 598 346 Q 602 488 618 509 Q 628 524 621 533 Q 615 542 575 556 Q 556 565 540 557 Q 488 538 443 529 C 411 522 391 498 431 504 Q 435 505 444 506 Q 475 512 512 522 Q 545 529 555 519 Q 567 507 559 385 Q 560 369 549 368 C 535 356 535 356 542 343 Z" style="fill: #0070C0;"></path>
                                                                        <path d="M 434 421 Q 435 420 444 421 Q 496 428 534 433 Q 552 437 545 446 Q 536 458 517 461 Q 490 464 433 440 C 405 428 404 425 434 421 Z" style="fill: #0070C0;"></path>
                                                                        <path d="M 438 332 Q 439 332 443 332 Q 498 339 542 343 C 572 346 576 355 549 368 Q 542 372 531 374 Q 497 380 438 355 C 410 343 408 332 438 332 Z" style="fill: #0070C0;"></path>
                                                                        <path d="M 759 366 Q 786 487 831 524 Q 847 542 833 559 Q 817 572 766 595 Q 750 602 695 581 Q 661 571 632 565 Q 619 564 620 555 Q 621 548 638 543 Q 651 539 729 549 Q 738 549 740 548 Q 753 535 748 507 Q 729 425 707 358 C 698 329 752 337 759 366 Z" style="fill: #0070C0;"></path>
                                                                        <path d="M 707 358 Q 661 348 625 342 Q 606 339 618 324 Q 625 315 634 312 Q 644 311 656 313 Q 698 320 789 328 Q 799 329 800 337 Q 800 344 772 363 Q 766 366 759 366 L 707 358 Z" style="fill: #0070C0;"></path>
                                                                        <path d="M 368 275 Q 368 146 202 16 Q 190 7 177 -3 Q 170 -10 175 -13 Q 199 -22 283 33 Q 358 78 416 197 Q 426 216 439 234 Q 446 243 442 253 Q 438 263 409 281 Q 390 294 380 292 Q 367 289 368 275 Z" style="fill: #0070C0;"></path>
                                                                        <path d="M 935 43 Q 914 91 900 174 Q 897 190 889 194 Q 882 198 879 178 Q 869 75 855 56 Q 822 25 706 26 Q 642 30 613 41 Q 589 54 584 71 Q 578 90 582 139 Q 588 193 600 218 Q 613 248 594 265 Q 543 304 528 300 Q 513 294 520 277 Q 539 240 535 184 Q 529 64 549 35 Q 571 -1 652 -17 Q 710 -27 801 -25 Q 885 -24 917 -6 Q 948 10 935 43 Z" style="fill: #0070C0;"></path>
                                    
                                    
                                                                                                                                                                                                                                                                                                                                                                                                                                                                                                                                                                                                                                                                                                                                                                                                                                                                                                                                                                                                                                                                                                                                                                                    </g>
                            </svg>