<svg width='83' height='83' >
                                <g transform="translate(3, 70) scale(0.07, -0.07)">
                                    <!-- 先将完整的字以灰色字体绘制完成，层级位于下面 -->
                                                                        <path d="M 624 685 Q 717 694 814 687 Q 830 686 835 695 Q 839 707 826 722 Q 780 764 675 740 Q 660 739 648 735 L 589 725 Q 516 716 437 704 L 389 698 Q 301 689 204 678 Q 173 675 194 659 Q 243 629 329 650 Q 362 657 396 663 L 439 670 Q 503 679 577 682 L 624 685 Z" style="fill: #0070C0;"></path>
                                                                        <path d="M 437 704 Q 434 738 434 767 Q 435 786 416 793 Q 377 814 355 806 Q 336 799 351 778 Q 379 744 388 703 Q 388 702 389 698 L 396 663 Q 406 614 420 600 Q 433 590 437 601 Q 443 620 439 670 L 437 704 Z" style="fill: #0070C0;"></path>
                                                                        <path d="M 648 735 Q 657 756 675 784 Q 690 797 680 809 Q 668 825 635 845 Q 619 855 601 847 Q 591 841 598 830 Q 607 803 589 725 L 577 682 Q 561 640 563 620 Q 564 605 580 616 Q 589 622 624 685 L 648 735 Z" style="fill: #0070C0;"></path>
                                                                        <path d="M 327 528 Q 358 516 418 524 Q 541 542 672 559 Q 736 571 745 578 Q 754 585 750 593 Q 744 605 718 613 Q 696 619 583 590 Q 453 563 323 557 Q 316 557 311 555 C 281 550 298 537 327 528 Z" style="fill: #0070C0;"></path>
                                                                        <path d="M 311 555 Q 301 564 285 572 Q 269 584 256 580 Q 244 574 249 561 Q 291 503 209 245 Q 203 229 196 210 Q 157 126 84 24 Q 78 18 77 13 Q 73 3 83 4 Q 122 13 199 127 Q 206 140 214 152 Q 275 269 315 485 Q 318 501 323 516 Q 327 523 327 528 C 331 540 331 540 311 555 Z" style="fill: #0070C0;"></path>
                                                                        <path d="M 351 459 Q 381 411 398 408 Q 407 405 414 418 Q 415 428 411 443 Q 399 465 357 478 Q 350 479 349 472 Q 348 466 351 459 Z" style="fill: #0070C0;"></path>
                                                                        <path d="M 461 391 Q 509 448 537 472 Q 549 478 545 485 Q 523 515 490 513 Q 480 512 483 497 Q 487 488 483 476 Q 467 440 434 383 C 419 357 442 368 461 391 Z" style="fill: #0070C0;"></path>
                                                                        <path d="M 412 342 Q 545 375 547 375 Q 554 381 550 387 Q 546 396 523 401 Q 499 405 461 391 L 434 383 Q 421 382 412 377 Q 375 368 330 364 Q 302 360 322 347 Q 346 332 387 337 L 412 342 Z" style="fill: #0070C0;"></path>
                                                                        <path d="M 428 185 Q 429 186 435 187 Q 474 196 485 193 C 515 191 519 223 489 220 Q 458 217 433 212 L 393 204 Q 368 200 348 193 Q 336 192 340 204 Q 349 247 344 258 Q 334 270 319 280 Q 312 284 305 284 Q 298 281 302 268 Q 320 216 290 183 Q 278 171 283 162 Q 290 152 301 144 Q 310 138 317 144 Q 332 162 388 174 L 428 185 Z" style="fill: #0070C0;"></path>
                                                                        <path d="M 485 193 Q 485 180 495 164 Q 499 155 508 162 L 543 277 Q 550 292 537 302 Q 527 311 515 319 Q 508 323 500 320 Q 494 317 498 289 Q 498 250 489 220 L 485 193 Z" style="fill: #0070C0;"></path>
                                                                        <path d="M 388 174 Q 370 96 299 25 Q 284 16 277 5 Q 276 1 284 0 Q 311 -3 356 40 Q 402 88 428 185 L 433 212 Q 439 245 444 283 Q 448 296 449 305 Q 455 320 440 328 Q 424 338 412 342 C 384 353 380 355 387 337 Q 405 298 393 204 L 388 174 Z" style="fill: #0070C0;"></path>
                                                                        <path d="M 616 387 Q 634 415 652 453 Q 659 472 668 483 Q 674 492 669 501 Q 665 510 641 523 Q 619 533 605 530 Q 592 526 601 511 Q 626 481 553 331 Q 547 322 546 318 Q 545 309 555 313 Q 565 317 600 364 L 616 387 Z" style="fill: #0070C0;"></path>
                                                                        <path d="M 600 364 Q 612 355 643 361 Q 722 392 745 384 Q 754 375 750 369 Q 750 363 716 309 Q 709 302 713 296 Q 716 292 726 301 Q 808 350 844 361 Q 851 362 853 368 Q 854 380 831 393 Q 813 405 795 417 Q 773 430 761 425 Q 704 403 616 387 C 587 382 573 376 600 364 Z" style="fill: #0070C0;"></path>
                                                                        <path d="M 653 210 Q 659 238 675 261 Q 684 274 671 284 Q 658 297 645 303 Q 627 316 611 313 Q 599 310 603 297 Q 621 245 583 147 Q 541 60 437 1 Q 425 -6 436 -9 Q 484 -15 544 32 Q 619 86 644 182 L 653 210 Z" style="fill: #0070C0;"></path>
                                                                        <path d="M 644 182 Q 705 91 783 -6 Q 799 -22 825 -22 Q 915 -18 943 -13 Q 950 -12 952 -7 Q 953 -3 941 4 Q 812 58 746 121 Q 701 160 653 210 C 632 232 627 207 644 182 Z" style="fill: #0070C0;"></path>
                                    
                                    
                                                                                                                                                                                                                                                                                                                                                                                                                                                                                                                                                                                                                                                                                                                                                                                                                                                                                                                                                                                                                                                                                                                                                                                                                                                                </g>
                            </svg>