<svg width='83' height='83' >
                                <g transform="translate(3, 70) scale(0.07, -0.07)">
                                    <!-- 先将完整的字以灰色字体绘制完成，层级位于下面 -->
                                                                        <path d="M 621 688 Q 720 695 814 689 Q 830 688 834 697 Q 840 707 827 722 Q 782 764 692 743 Q 668 740 645 735 L 585 726 Q 512 717 433 706 L 385 701 Q 303 694 215 685 Q 187 682 206 667 Q 248 640 302 649 Q 348 661 396 668 L 437 674 Q 443 680 574 686 L 621 688 Z" style="fill: #0070C0;"></path>
                                                                        <path d="M 433 706 Q 429 734 428 756 Q 428 775 408 779 Q 372 795 349 787 Q 333 777 348 760 Q 372 736 385 701 L 396 668 Q 415 623 423 615 Q 436 605 440 617 Q 443 636 437 674 L 433 706 Z" style="fill: #0070C0;"></path>
                                                                        <path d="M 645 735 Q 651 747 661 759 Q 674 772 666 782 Q 656 798 624 817 Q 609 827 593 819 Q 583 815 590 804 Q 596 788 585 726 L 574 686 Q 556 635 555 615 Q 556 602 571 611 Q 584 623 621 688 L 645 735 Z" style="fill: #0070C0;"></path>
                                                                        <path d="M 233 547 Q 275 498 288 495 Q 297 495 301 505 Q 305 515 302 539 Q 299 554 278 566 Q 230 590 216 586 Q 212 585 212 574 Q 213 565 233 547 Z" style="fill: #0070C0;"></path>
                                                                        <path d="M 368 572 Q 364 560 325 496 Q 318 481 332 486 Q 362 505 379 520 Q 436 565 437 565 Q 453 575 443 588 Q 404 622 379 615 Q 369 612 374 602 Q 378 589 368 572 Z" style="fill: #0070C0;"></path>
                                                                        <path d="M 197 437 Q 187 441 166 444 Q 156 445 152 441 Q 148 435 155 422 Q 183 368 201 281 Q 205 256 221 238 Q 237 219 242 233 Q 245 242 245 255 L 243 276 Q 242 283 240 291 Q 221 384 216 411 C 212 432 212 432 197 437 Z" style="fill: #0070C0;"></path>
                                                                        <path d="M 403 279 Q 416 260 429 254 Q 438 248 450 266 Q 460 284 482 381 Q 489 406 507 428 Q 517 438 508 450 Q 495 463 459 485 Q 450 489 375 474 Q 372 474 371 473 Q 242 449 197 437 C 168 430 187 402 216 411 Q 247 421 294 430 L 322 436 Q 413 458 429 444 Q 438 434 437 422 Q 422 319 410 306 C 399 284 399 284 403 279 Z" style="fill: #0070C0;"></path>
                                                                        <path d="M 350 345 Q 369 349 389 352 Q 408 356 401 366 Q 392 378 371 381 Q 364 382 353 380 L 306 368 Q 281 359 257 351 Q 244 347 261 335 Q 262 335 307 338 L 350 345 Z" style="fill: #0070C0;"></path>
                                                                        <path d="M 347 271 Q 375 277 403 279 C 433 281 438 294 410 306 Q 394 315 350 304 Q 347 304 348 303 C 335 299 334 298 305 292 Q 272 285 243 276 C 214 267 215 258 245 255 Q 249 254 257 255 Q 281 259 304 263 L 347 271 Z" style="fill: #0070C0;"></path>
                                                                        <path d="M 346 171 Q 398 184 461 193 Q 477 194 478 202 Q 479 214 462 222 Q 437 232 415 228 Q 376 219 346 211 L 301 201 Q 151 171 96 165 Q 84 164 81 156 Q 78 146 93 135 Q 129 108 169 122 Q 245 147 297 161 L 346 171 Z" style="fill: #0070C0;"></path>
                                                                        <path d="M 297 161 Q 290 82 286 74 Q 277 40 306 -5 Q 316 -23 323 -26 Q 333 -27 338 -16 Q 350 12 347 39 Q 346 109 346 171 L 346 211 Q 346 242 347 271 L 348 303 Q 348 327 350 345 L 353 380 Q 356 408 352 414 Q 336 429 322 436 C 296 452 280 457 294 430 Q 294 429 297 425 Q 306 410 306 368 L 307 338 Q 306 317 305 292 L 304 263 Q 304 242 301 201 L 297 161 Z" style="fill: #0070C0;"></path>
                                                                        <path d="M 589 471 Q 691 505 706 512 Q 749 533 788 542 Q 804 543 808 552 Q 811 562 799 573 Q 777 588 732 602 Q 716 609 703 607 Q 696 603 696 592 Q 697 562 570 486 C 544 471 561 462 589 471 Z" style="fill: #0070C0;"></path>
                                                                        <path d="M 579 367 Q 579 371 580 375 Q 583 429 588 448 Q 595 461 589 471 L 570 486 Q 536 510 517 503 Q 507 496 513 484 Q 549 429 511 217 Q 483 124 458 76 Q 445 48 429 20 Q 425 14 423 8 Q 422 -2 431 1 Q 465 8 522 122 Q 525 129 529 137 Q 565 224 577 345 L 579 367 Z" style="fill: #0070C0;"></path>
                                                                        <path d="M 732 361 Q 789 370 865 371 Q 881 372 885 380 Q 889 390 874 400 Q 828 431 765 411 Q 758 411 579 367 C 550 360 549 354 577 345 Q 601 335 638 342 Q 653 346 676 350 L 732 361 Z" style="fill: #0070C0;"></path>
                                                                        <path d="M 699 -20 Q 703 -44 710 -53 Q 716 -60 723 -58 Q 736 -49 743 7 Q 743 268 759 325 Q 762 341 748 351 Q 739 357 732 361 C 706 377 661 376 676 350 Q 677 346 681 342 Q 693 320 694 90 Q 695 8 699 -20 Z" style="fill: #0070C0;"></path>
                                    
                                    
                                                                                                                                                                                                                                                                                                                                                                                                                                                                                                                                                                                                                                                                                                                                                                                                                                                                                                                                                                                                                                                                                                                                                                                                                                                                </g>
                            </svg>