<svg width='83' height='83' >
                                <g transform="translate(3, 70) scale(0.07, -0.07)">
                                    <!-- 先将完整的字以灰色字体绘制完成，层级位于下面 -->
                                                                        <path d="M 616 690 Q 703 699 801 691 Q 817 690 822 699 Q 828 711 814 726 Q 765 771 654 744 Q 645 744 638 741 L 584 732 Q 499 722 402 708 L 355 703 Q 288 699 212 690 Q 182 687 203 671 Q 249 644 303 652 Q 334 661 365 665 L 404 672 Q 452 685 574 688 L 616 690 Z" style="fill: #0070C0;"></path>
                                                                        <path d="M 402 708 Q 399 739 398 762 Q 399 781 380 786 Q 340 804 320 797 Q 304 788 318 770 Q 343 742 354 707 Q 354 706 355 703 L 365 665 Q 371 634 387 615 Q 400 605 404 616 Q 410 635 404 672 L 402 708 Z" style="fill: #0070C0;"></path>
                                                                        <path d="M 638 741 Q 645 760 660 784 Q 673 797 664 808 Q 652 824 620 839 Q 605 848 588 840 Q 579 834 586 824 Q 598 800 584 732 L 574 688 Q 561 649 563 627 Q 564 614 579 624 Q 598 639 616 690 L 638 741 Z" style="fill: #0070C0;"></path>
                                                                        <path d="M 259 581 Q 268 554 211 476 Q 184 442 147 402 Q 140 395 137 391 Q 133 384 144 384 Q 192 393 289 506 Q 304 525 316 535 Q 323 542 321 552 Q 320 562 300 581 Q 282 596 269 598 Q 256 598 259 581 Z" style="fill: #0070C0;"></path>
                                                                        <path d="M 251 301 Q 267 320 284 342 Q 305 372 322 386 Q 331 393 328 405 Q 325 415 304 436 Q 283 452 268 454 Q 252 454 257 436 Q 264 414 256 396 Q 228 338 186 284 Q 146 232 92 177 Q 82 170 80 164 Q 77 155 88 156 Q 124 162 228 274 L 251 301 Z" style="fill: #0070C0;"></path>
                                                                        <path d="M 228 274 Q 253 205 223 80 Q 213 43 244 -1 L 245 -2 Q 260 -15 269 7 Q 282 41 281 79 Q 282 205 288 233 Q 295 255 286 264 Q 261 294 251 301 C 228 320 219 303 228 274 Z" style="fill: #0070C0;"></path>
                                                                        <path d="M 490 443 Q 499 498 507 547 Q 510 565 517 583 Q 520 590 507 602 Q 482 617 465 621 Q 455 624 448 618 Q 442 614 448 602 Q 463 581 458 435 C 457 405 485 413 490 443 Z" style="fill: #0070C0;"></path>
                                                                        <path d="M 548 455 Q 517 451 490 443 L 458 435 Q 436 431 419 423 Q 406 419 408 435 Q 411 489 407 498 Q 379 526 359 523 Q 352 519 358 505 Q 371 477 367 446 Q 366 418 354 406 Q 341 391 347 381 Q 356 369 369 362 Q 379 356 387 363 Q 403 384 509 418 Q 536 424 548 424 C 578 426 578 459 548 455 Z" style="fill: #0070C0;"></path>
                                                                        <path d="M 548 424 Q 549 409 555 398 Q 561 385 571 394 Q 589 410 598 475 Q 610 508 616 516 Q 623 526 615 538 Q 602 551 578 567 Q 568 573 559 569 Q 553 566 554 556 Q 563 544 563 505 Q 560 478 548 455 L 548 424 Z" style="fill: #0070C0;"></path>
                                                                        <path d="M 376 319 Q 345 310 369 297 Q 408 285 479 304 Q 539 320 558 330 Q 565 339 560 346 Q 553 356 525 359 Q 510 360 432 333 Q 405 326 376 319 Z" style="fill: #0070C0;"></path>
                                                                        <path d="M 406 235 Q 397 242 384 248 Q 371 255 361 252 Q 352 248 357 237 Q 358 234 361 229 Q 367 223 363 146 Q 356 86 321 23 Q 317 19 316 14 Q 315 7 322 8 Q 346 14 378 70 Q 403 127 414 194 Q 414 198 415 200 C 419 226 419 226 406 235 Z" style="fill: #0070C0;"></path>
                                                                        <path d="M 415 200 Q 419 200 446 218 Q 470 228 478 222 Q 482 219 478 158 Q 477 109 462 64 Q 449 40 487 0 Q 496 -9 503 -3 Q 509 3 516 22 Q 544 71 605 158 Q 612 168 610 174 Q 609 180 600 171 Q 567 140 534 106 Q 513 84 515 113 Q 515 192 545 225 Q 555 232 547 243 Q 540 256 508 271 Q 498 275 484 267 Q 460 252 406 235 C 377 226 388 187 415 200 Z" style="fill: #0070C0;"></path>
                                                                        <path d="M 676 416 Q 718 476 746 529 Q 758 554 769 567 Q 776 577 771 588 Q 767 598 740 615 Q 715 628 699 625 Q 684 622 693 604 Q 703 589 699 574 Q 683 493 615 375 Q 608 365 606 360 Q 605 350 616 354 Q 619 354 662 398 L 676 416 Z" style="fill: #0070C0;"></path>
                                                                        <path d="M 763 395 Q 890 431 892 432 Q 899 439 895 446 Q 888 456 863 461 Q 838 465 812 453 Q 782 441 751 432 Q 715 422 676 416 C 646 411 638 410 662 398 Q 663 398 666 396 Q 690 383 720 386 L 763 395 Z" style="fill: #0070C0;"></path>
                                                                        <path d="M 747 188 Q 751 200 784 309 Q 788 333 799 352 Q 808 368 793 377 Q 778 389 763 395 C 736 408 709 414 720 386 Q 732 365 729 320 Q 728 278 712 226 Q 711 225 710 222 L 693 182 Q 648 113 572 62 Q 560 53 571 51 Q 652 51 722 145 L 747 188 Z" style="fill: #0070C0;"></path>
                                                                        <path d="M 722 145 Q 770 84 814 33 Q 827 17 852 16 Q 978 29 986 42 Q 989 48 980 52 Q 830 116 756 180 Q 752 184 747 188 L 710 222 Q 676 256 635 301 Q 625 314 610 316 Q 591 316 585 310 Q 584 306 589 302 Q 620 284 640 254 Q 667 217 693 182 L 722 145 Z" style="fill: #0070C0;"></path>
                                    
                                    
                                                                                                                                                                                                                                                                                                                                                                                                                                                                                                                                                                                                                                                                                                                                                                                                                                                                                                                                                                                                                                                                                                                                                                                                                                                                                                                                            </g>
                            </svg>