<svg width='83' height='83' >
                                <g transform="translate(3, 70) scale(0.07, -0.07)">
                                    <!-- 先将完整的字以灰色字体绘制完成，层级位于下面 -->
                                                                        <path d="M 605 698 Q 744 705 825 697 Q 841 696 846 705 Q 850 715 839 730 Q 791 772 705 753 Q 666 749 624 741 L 570 734 Q 497 727 417 717 L 371 712 Q 281 705 183 697 Q 155 694 174 679 Q 213 652 270 659 Q 325 672 379 680 L 419 686 Q 488 693 561 696 L 605 698 Z" style="fill: #0070C0;"></path>
                                                                        <path d="M 417 717 Q 416 747 416 769 Q 417 788 399 794 Q 357 813 340 807 Q 322 798 337 780 Q 355 759 371 712 L 379 680 Q 385 649 400 631 Q 413 621 417 632 Q 418 638 419 686 L 417 717 Z" style="fill: #0070C0;"></path>
                                                                        <path d="M 624 741 Q 631 762 648 788 Q 661 801 651 812 Q 641 828 608 844 Q 593 853 577 844 Q 567 838 574 828 Q 586 804 570 734 L 561 696 Q 546 641 547 627 Q 548 614 563 624 Q 575 634 605 698 L 624 741 Z" style="fill: #0070C0;"></path>
                                                                        <path d="M 255 477 Q 342 570 354 577 Q 369 589 357 601 Q 344 613 320 620 Q 298 627 288 622 Q 278 619 284 609 Q 291 584 237 484 C 223 458 234 455 255 477 Z" style="fill: #0070C0;"></path>
                                                                        <path d="M 250 281 Q 250 285 251 288 Q 251 316 251 341 L 251 373 Q 251 424 254 446 C 258 489 260 470 237 484 Q 218 497 197 504 Q 190 505 183 498 Q 180 494 187 483 Q 235 374 196 165 Q 181 119 186 95 Q 195 64 205 52 Q 215 39 225 52 Q 235 64 247 129 L 250 163 Q 250 208 250 252 L 250 281 Z" style="fill: #0070C0;"></path>
                                                                        <path d="M 406 394 Q 427 448 447 460 Q 460 476 447 491 Q 381 537 334 507 Q 286 488 255 477 C 227 467 225 438 254 446 Q 261 447 271 452 Q 362 479 368 474 Q 375 467 362 402 C 356 373 395 366 406 394 Z" style="fill: #0070C0;"></path>
                                                                        <path d="M 251 341 Q 258 340 268 343 Q 314 355 414 367 Q 424 368 425 377 Q 425 384 406 394 L 362 402 Q 358 402 352 400 Q 297 384 251 373 C 222 366 221 342 251 341 Z" style="fill: #0070C0;"></path>
                                                                        <path d="M 408 190 Q 427 242 450 255 Q 463 271 451 287 Q 436 299 390 319 Q 374 325 356 317 Q 328 304 300 295 Q 275 288 250 281 C 221 273 220 247 250 252 Q 253 252 355 273 Q 364 274 368 271 Q 375 265 373 252 Q 369 221 362 194 C 355 165 397 162 408 190 Z" style="fill: #0070C0;"></path>
                                                                        <path d="M 247 129 Q 256 128 268 130 Q 316 143 422 157 Q 432 158 433 168 Q 433 175 408 190 L 362 194 Q 358 194 354 192 Q 296 174 250 163 C 221 156 217 131 247 129 Z" style="fill: #0070C0;"></path>
                                                                        <path d="M 630 607 Q 645 592 660 575 Q 672 565 684 565 Q 693 566 697 577 Q 701 589 694 613 Q 690 626 669 635 Q 617 650 608 647 Q 604 643 605 633 Q 608 624 630 607 Z" style="fill: #0070C0;"></path>
                                                                        <path d="M 735 514 Q 754 520 774 523 Q 813 533 819 538 Q 826 545 823 553 Q 816 563 790 571 Q 768 574 667 544 Q 570 523 524 518 Q 490 512 515 497 Q 554 476 616 491 Q 656 500 700 507 L 735 514 Z" style="fill: #0070C0;"></path>
                                                                        <path d="M 542 448 Q 572 385 592 377 Q 602 373 611 387 Q 615 397 611 415 Q 607 431 589 442 Q 564 464 551 469 Q 544 472 540 463 Q 537 456 542 448 Z" style="fill: #0070C0;"></path>
                                                                        <path d="M 698 377 Q 702 384 710 394 Q 725 413 741 439 Q 748 451 760 465 Q 773 475 766 485 Q 757 498 735 514 C 711 532 696 537 700 507 Q 706 480 677 395 Q 670 383 668 372 C 661 343 682 352 698 377 Z" style="fill: #0070C0;"></path>
                                                                        <path d="M 652 332 Q 727 344 852 345 Q 898 342 907 353 Q 911 363 897 375 Q 846 414 789 395 Q 750 388 698 377 L 668 372 Q 661 372 656 370 Q 565 355 459 340 Q 440 339 454 323 Q 467 311 483 306 Q 502 302 516 306 Q 558 319 605 325 L 652 332 Z" style="fill: #0070C0;"></path>
                                                                        <path d="M 681 195 Q 748 202 809 207 Q 837 210 829 226 Q 817 245 786 253 Q 744 262 682 244 L 624 233 Q 557 223 498 212 Q 477 209 501 189 Q 516 177 547 181 Q 587 185 625 189 L 681 195 Z" style="fill: #0070C0;"></path>
                                                                        <path d="M 632 -30 Q 636 -52 643 -61 Q 647 -68 655 -66 Q 667 -57 674 -4 Q 674 -1 681 195 L 682 244 Q 682 245 683 247 Q 683 254 689 291 Q 692 307 679 316 Q 663 326 652 332 C 626 347 593 353 605 325 Q 605 318 615 307 Q 624 292 624 233 L 625 189 Q 631 -25 632 -30 Z" style="fill: #0070C0;"></path>
                                    
                                    
                                                                                                                                                                                                                                                                                                                                                                                                                                                                                                                                                                                                                                                                                                                                                                                                                                                                                                                                                                                                                                                                                                                                                                                                                                                                                                                                            </g>
                            </svg>