<svg width='83' height='83' >
                                <g transform="translate(3, 70) scale(0.07, -0.07)">
                                    <!-- 先将完整的字以灰色字体绘制完成，层级位于下面 -->
                                                                        <path d="M 630 710 Q 837 710 845 717 Q 845 718 846 719 Q 852 729 836 743 Q 781 785 734 769 Q 694 763 647 753 L 595 745 Q 553 741 506 734 Q 469 730 431 725 L 384 720 Q 297 711 204 700 Q 185 699 198 683 Q 211 670 228 664 Q 247 660 263 663 Q 324 679 393 689 L 434 695 Q 500 707 588 709 L 630 710 Z" style="fill: #0070C0;"></path>
                                                                        <path d="M 431 725 Q 428 753 427 775 Q 428 794 408 799 Q 369 817 349 808 Q 331 799 347 781 Q 372 754 384 720 L 393 689 Q 408 643 419 631 Q 432 621 436 633 Q 439 648 434 695 L 431 725 Z" style="fill: #0070C0;"></path>
                                                                        <path d="M 647 753 Q 654 772 668 794 Q 681 807 671 817 Q 661 832 629 847 Q 614 856 599 847 Q 589 841 597 832 Q 604 811 595 745 L 588 709 Q 573 652 575 638 Q 576 625 590 636 Q 602 646 630 710 L 647 753 Z" style="fill: #0070C0;"></path>
                                                                        <path d="M 355 491 Q 380 498 408 503 Q 439 510 444 516 Q 451 523 447 530 Q 440 540 415 546 Q 391 549 361 538 L 313 522 Q 250 507 199 500 Q 168 494 190 480 Q 223 462 300 479 Q 306 480 314 481 L 355 491 Z" style="fill: #0070C0;"></path>
                                                                        <path d="M 353 399 Q 372 405 397 410 Q 428 419 432 423 Q 438 429 435 435 Q 429 444 407 449 Q 382 452 353 438 L 315 425 Q 207 401 201 400 Q 173 396 194 383 Q 219 368 289 384 Q 301 387 315 390 L 353 399 Z" style="fill: #0070C0;"></path>
                                                                        <path d="M 352 300 Q 385 310 423 317 Q 438 320 438 327 Q 439 339 422 346 Q 392 356 352 342 L 313 330 Q 157 291 110 283 Q 98 282 96 274 Q 95 264 108 255 Q 144 233 181 246 Q 244 271 290 284 L 352 300 Z" style="fill: #0070C0;"></path>
                                                                        <path d="M 351 238 Q 351 268 352 300 L 352 342 Q 352 370 353 399 L 353 438 Q 353 441 354 444 Q 354 469 355 491 L 361 538 Q 364 559 370 576 Q 377 589 375 601 Q 369 608 322 638 Q 303 651 285 639 Q 281 635 286 621 Q 313 582 313 522 L 314 481 Q 314 454 315 425 L 315 390 Q 314 362 313 330 L 312 225 Q 312 123 292 52 Q 283 22 304 -33 Q 310 -48 317 -51 Q 321 -57 328 -50 Q 335 -46 343 -28 Q 352 -7 351 19 Q 350 47 351 212 L 351 238 Z" style="fill: #0070C0;"></path>
                                                                        <path d="M 290 284 Q 233 164 86 42 Q 76 30 84 29 Q 93 25 103 30 Q 202 70 301 209 Q 307 218 312 225 C 364 299 304 313 290 284 Z" style="fill: #0070C0;"></path>
                                                                        <path d="M 351 212 Q 354 212 419 158 Q 429 151 439 151 Q 446 151 450 160 Q 453 170 446 191 Q 437 218 355 238 Q 352 239 351 238 C 321 238 325 227 351 212 Z" style="fill: #0070C0;"></path>
                                                                        <path d="M 726 522 Q 739 526 753 528 Q 796 538 803 544 Q 810 551 807 558 Q 800 568 775 575 Q 753 579 734 573 L 680 555 Q 647 548 583 532 L 538 525 Q 516 524 492 520 Q 461 516 483 500 Q 507 488 542 486 L 581 492 Q 627 502 678 512 L 726 522 Z" style="fill: #0070C0;"></path>
                                                                        <path d="M 583 532 Q 584 553 586 559 Q 590 578 578 588 Q 559 604 537 612 Q 525 616 518 612 Q 511 608 516 594 Q 528 570 538 525 L 542 486 Q 543 452 548 394 C 551 364 583 370 582 400 Q 581 455 581 492 L 583 532 Z" style="fill: #0070C0;"></path>
                                                                        <path d="M 710 421 Q 717 473 726 522 L 734 573 Q 740 604 749 624 Q 753 633 737 647 Q 709 665 688 670 Q 675 674 668 667 Q 661 661 667 648 Q 680 626 680 612 Q 680 585 680 555 L 678 512 Q 677 466 672 415 C 669 385 706 391 710 421 Z" style="fill: #0070C0;"></path>
                                                                        <path d="M 548 394 Q 499 390 447 380 Q 428 379 442 363 Q 455 351 471 346 Q 490 342 504 346 Q 643 383 869 384 Q 887 385 891 393 Q 895 403 881 415 Q 830 454 762 433 Q 738 429 710 421 L 672 415 Q 645 414 582 400 L 548 394 Z" style="fill: #0070C0;"></path>
                                                                        <path d="M 551 283 Q 544 298 504 308 Q 497 309 491 303 Q 488 299 495 289 Q 525 208 504 83 Q 492 40 496 22 Q 505 -6 515 -17 Q 525 -29 532 -17 Q 541 -5 547 23 L 551 55 Q 552 70 553 143 L 554 170 Q 554 230 556 254 L 551 283 Z" style="fill: #0070C0;"></path>
                                                                        <path d="M 694 35 Q 719 2 739 -29 Q 746 -45 757 -44 Q 772 -43 785 -13 Q 801 21 798 63 Q 792 120 785 226 Q 784 254 798 273 Q 805 285 798 293 Q 782 311 734 331 Q 718 338 705 331 Q 671 312 615 298 Q 575 289 551 283 C 522 276 527 248 556 254 Q 566 255 696 285 Q 714 289 723 283 Q 748 252 733 65 Q 729 47 713 56 L 712 56 C 682 56 678 57 694 35 Z" style="fill: #0070C0;"></path>
                                                                        <path d="M 553 143 Q 554 143 557 143 Q 632 155 687 161 Q 709 165 701 177 Q 691 190 667 195 Q 640 198 554 170 C 525 161 523 142 553 143 Z" style="fill: #0070C0;"></path>
                                                                        <path d="M 547 23 Q 553 22 560 23 Q 603 32 694 35 C 724 36 733 36 712 56 Q 705 63 692 72 Q 677 81 648 74 Q 594 62 551 55 C 521 50 517 26 547 23 Z" style="fill: #0070C0;"></path>
                                    
                                    
                                                                                                                                                                                                                                                                                                                                                                                                                                                                                                                                                                                                                                                                                                                                                                                                                                                                                                                                                                                                                                                                                                                                                                                                                                                                                                                                                                                                                        </g>
                            </svg>