<svg width='83' height='83' >
                                <g transform="translate(3, 70) scale(0.07, -0.07)">
                                    <!-- 先将完整的字以灰色字体绘制完成，层级位于下面 -->
                                                                        <path d="M 420 718 Q 417 746 416 768 Q 417 786 399 791 Q 363 809 342 801 Q 326 794 340 775 Q 365 747 375 710 L 383 679 Q 399 628 408 619 Q 421 609 424 620 Q 427 632 422 692 L 420 718 Z" style="fill: #0070C0;"></path>
                                                                        <path d="M 422 692 Q 435 695 452 704 Q 458 708 456 715 Q 455 721 442 723 Q 432 722 420 718 L 375 710 Q 219 689 191 686 Q 181 686 180 682 Q 177 675 184 666 Q 197 653 223 643 Q 239 634 255 640 Q 316 659 383 679 L 422 692 Z" style="fill: #0070C0;"></path>
                                                                        <path d="M 651 739 Q 652 742 653 744 Q 660 763 676 790 Q 689 803 679 813 Q 669 828 637 843 Q 622 852 607 843 Q 597 839 605 828 Q 615 798 601 731 L 594 699 Q 576 642 578 625 Q 579 613 592 620 Q 610 635 635 699 L 651 739 Z" style="fill: #0070C0;"></path>
                                                                        <path d="M 635 699 Q 656 720 811 710 Q 824 709 827 716 Q 831 725 821 736 Q 785 769 709 750 Q 681 746 651 739 L 601 731 Q 586 731 571 728 Q 549 727 564 714 Q 580 704 594 699 C 619 689 619 689 635 699 Z" style="fill: #0070C0;"></path>
                                                                        <path d="M 329 494 Q 369 518 427 530 Q 440 531 444 537 Q 447 547 437 556 Q 389 592 357 587 Q 351 584 351 575 Q 351 539 188 462 Q 184 455 189 452 Q 205 452 302 484 L 329 494 Z" style="fill: #0070C0;"></path>
                                                                        <path d="M 351 347 Q 391 356 438 362 Q 453 363 453 371 Q 454 383 438 390 Q 413 400 353 386 L 313 377 Q 175 347 100 339 Q 88 338 86 331 Q 83 321 97 311 Q 136 287 169 298 Q 241 322 292 335 L 351 347 Z" style="fill: #0070C0;"></path>
                                                                        <path d="M 350 278 Q 350 312 351 347 L 353 386 Q 354 434 360 457 Q 363 472 329 494 C 305 511 294 513 302 484 Q 311 466 313 377 L 311 281 Q 311 164 291 63 Q 276 33 310 -21 Q 320 -39 327 -42 Q 337 -43 342 -32 Q 354 -4 351 24 Q 348 145 349 249 L 350 278 Z" style="fill: #0070C0;"></path>
                                                                        <path d="M 292 335 Q 267 274 233 219 Q 196 161 108 54 Q 102 47 112 45 Q 131 45 222 145 Q 268 197 310 280 Q 310 281 311 281 C 351 352 304 363 292 335 Z" style="fill: #0070C0;"></path>
                                                                        <path d="M 349 249 Q 350 248 354 245 Q 379 224 407 199 Q 416 190 427 191 Q 434 191 438 201 Q 441 211 435 231 Q 431 247 405 260 Q 381 269 350 278 C 321 286 326 268 349 249 Z" style="fill: #0070C0;"></path>
                                                                        <path d="M 553 580 Q 535 590 516 595 Q 510 596 507 592 Q 501 588 509 579 Q 533 543 544 458 Q 548 409 579 390 Q 591 389 592 406 L 591 428 Q 590 443 581 477 L 577 501 Q 574 531 572 556 C 571 571 571 571 553 580 Z" style="fill: #0070C0;"></path>
                                                                        <path d="M 726 421 Q 739 400 753 394 Q 763 387 776 406 Q 786 422 809 516 Q 816 541 837 563 Q 847 573 838 585 Q 825 600 790 622 Q 775 628 719 614 Q 715 614 553 580 C 524 574 543 548 572 556 Q 626 572 725 589 Q 746 592 755 585 Q 765 578 763 563 Q 745 460 732 448 C 721 428 721 428 726 421 Z" style="fill: #0070C0;"></path>
                                                                        <path d="M 581 477 Q 654 493 710 501 Q 728 504 721 514 Q 712 526 693 528 Q 663 532 577 501 C 549 491 552 471 581 477 Z" style="fill: #0070C0;"></path>
                                                                        <path d="M 592 406 Q 667 415 726 421 C 756 424 760 437 732 448 Q 731 449 727 450 Q 700 456 591 428 C 562 421 562 402 592 406 Z" style="fill: #0070C0;"></path>
                                                                        <path d="M 571 316 Q 581 328 590 337 Q 597 346 589 357 Q 555 384 542 382 Q 533 381 534 370 Q 537 316 461 237 Q 454 227 466 229 Q 500 229 555 294 Q 555 297 560 302 L 571 316 Z" style="fill: #0070C0;"></path>
                                                                        <path d="M 652 303 Q 767 327 813 327 Q 826 327 829 322 Q 833 315 833 286 Q 832 168 815 102 Q 793 23 766 13 Q 756 10 704 26 Q 695 29 695 24 Q 694 20 704 12 Q 735 -25 747 -51 Q 754 -67 764 -67 Q 800 -64 834 -5 Q 867 52 894 264 Q 895 288 911 303 Q 923 315 922 322 Q 921 329 905 341 Q 883 359 851 368 Q 833 374 769 355 Q 759 354 746 350 Q 704 341 571 316 C 542 310 533 309 560 302 Q 584 290 629 301 Q 632 301 638 301 L 652 303 Z" style="fill: #0070C0;"></path>
                                                                        <path d="M 666 230 Q 679 249 691 264 Q 698 271 689 282 Q 662 303 652 303 L 638 301 Q 635 300 636 292 Q 642 250 591 178 Q 576 162 569 152 Q 563 142 573 145 Q 610 151 658 217 L 666 230 Z" style="fill: #0070C0;"></path>
                                                                        <path d="M 658 217 Q 659 216 661 214 Q 691 192 728 160 Q 738 150 747 148 Q 753 147 756 154 Q 763 161 752 187 Q 745 211 702 221 Q 681 227 666 230 C 640 235 640 235 658 217 Z" style="fill: #0070C0;"></path>
                                    
                                    
                                                                                                                                                                                                                                                                                                                                                                                                                                                                                                                                                                                                                                                                                                                                                                                                                                                                                                                                                                                                                                                                                                                                                                                                                                                                                                                                                                                                                        </g>
                            </svg>