<svg width='83' height='83' >
                                <g transform="translate(3, 70) scale(0.07, -0.07)">
                                    <!-- 先将完整的字以灰色字体绘制完成，层级位于下面 -->
                                                                        <path d="M 636 739 Q 732 748 827 739 Q 842 738 846 746 Q 850 756 839 771 Q 794 811 693 789 Q 674 788 656 783 L 602 775 Q 529 768 446 756 L 403 751 Q 316 744 222 736 Q 195 733 214 719 Q 254 692 335 707 Q 372 716 412 721 L 449 727 Q 516 734 594 737 L 636 739 Z" style="fill: #0070C0;"></path>
                                                                        <path d="M 446 756 Q 445 778 443 796 Q 444 812 426 817 Q 392 832 374 825 Q 358 818 372 801 Q 393 779 403 751 L 412 721 Q 427 676 436 666 Q 448 657 451 667 Q 454 682 449 727 L 446 756 Z" style="fill: #0070C0;"></path>
                                                                        <path d="M 656 783 Q 660 795 670 808 Q 683 821 674 830 Q 664 845 634 859 Q 621 868 605 860 Q 596 856 603 845 Q 612 827 602 775 L 594 737 Q 591 724 588 709 Q 584 696 582 684 C 578 665 578 665 592 672 Q 593 672 598 675 Q 601 679 636 739 L 656 783 Z" style="fill: #0070C0;"></path>
                                                                        <path d="M 582 684 Q 560 697 542 700 Q 532 703 526 697 Q 520 693 526 682 Q 538 664 542 571 C 543 541 569 545 573 575 Q 576 600 581 621 L 586 646 Q 587 653 590 657 Q 593 669 592 672 C 592 678 592 678 582 684 Z" style="fill: #0070C0;"></path>
                                                                        <path d="M 581 621 Q 584 624 691 645 Q 709 649 701 658 Q 692 668 672 671 Q 645 674 586 646 C 559 633 553 610 581 621 Z" style="fill: #0070C0;"></path>
                                                                        <path d="M 542 571 Q 499 567 449 558 C 419 553 417 514 446 522 Q 501 537 545 544 L 568 548 Q 641 564 711 575 Q 741 578 742 566 Q 743 559 732 525 Q 725 512 731 509 Q 737 505 748 516 Q 803 550 825 556 Q 841 559 842 568 Q 841 578 779 611 Q 760 620 737 614 Q 661 593 595 580 Q 585 579 573 575 L 542 571 Z" style="fill: #0070C0;"></path>
                                                                        <path d="M 449 558 Q 436 570 411 579 Q 396 586 387 582 Q 378 576 384 566 Q 417 518 388 332 Q 384 316 380 299 Q 361 229 316 149 Q 312 143 311 139 Q 310 130 317 133 Q 344 142 391 229 Q 395 242 402 256 Q 438 350 443 470 Q 446 515 446 522 C 447 552 450 557 449 558 Z" style="fill: #0070C0;"></path>
                                                                        <path d="M 552 505 Q 534 501 519 498 Q 501 495 482 491 Q 463 488 478 477 Q 499 464 529 470 Q 536 473 550 474 L 578 481 Q 599 490 662 498 Q 669 498 675 507 Q 675 514 660 520 Q 641 533 583 514 L 552 505 Z" style="fill: #0070C0;"></path>
                                                                        <path d="M 545 544 Q 545 543 546 539 Q 550 523 552 505 L 550 474 Q 550 434 565 422 Q 607 394 690 414 Q 690 415 693 415 Q 712 421 732 433 Q 742 443 733 459 Q 726 466 710 494 Q 709 503 704 505 Q 700 506 699 496 Q 681 451 657 443 Q 618 434 594 442 Q 584 446 582 451 Q 579 458 578 481 L 583 514 Q 584 518 585 522 Q 588 532 581 539 Q 575 545 568 548 C 542 563 541 564 545 544 Z" style="fill: #0070C0;"></path>
                                                                        <path d="M 582 340 Q 625 350 675 358 Q 706 364 711 368 Q 717 374 714 380 Q 710 387 689 394 Q 682 395 574 370 Q 531 361 482 358 Q 457 354 474 342 Q 498 326 542 333 Q 543 334 545 333 L 582 340 Z" style="fill: #0070C0;"></path>
                                                                        <path d="M 545 333 Q 512 290 432 243 Q 419 236 434 236 Q 480 232 558 292 Q 577 307 587 313 C 612 329 564 356 545 333 Z" style="fill: #0070C0;"></path>
                                                                        <path d="M 687 235 Q 684 247 680 256 L 672 272 Q 635 323 582 340 C 533 358 534 351 587 313 Q 591 312 596 307 L 632 274 Q 635 271 638 266 L 654 221 Q 660 191 646 138 Q 640 116 633 112 Q 626 108 608 109 Q 548 124 548 116 Q 547 110 557 101 Q 603 64 622 40 Q 632 27 644 29 Q 657 33 669 53 Q 702 116 694 200 L 687 235 Z" style="fill: #0070C0;"></path>
                                                                        <path d="M 596 307 Q 595 306 593 301 Q 572 253 448 179 Q 435 172 450 172 Q 505 169 629 272 Q 630 273 632 274 C 656 292 609 334 596 307 Z" style="fill: #0070C0;"></path>
                                                                        <path d="M 638 266 Q 637 266 636 264 Q 576 179 440 106 Q 430 99 436 97 Q 448 88 505 111 Q 554 129 622 190 Q 650 215 651 218 Q 652 219 654 221 C 674 243 657 289 638 266 Z" style="fill: #0070C0;"></path>
                                                                        <path d="M 680 256 Q 750 298 784 313 Q 799 316 796 324 Q 792 337 778 354 Q 765 370 746 372 Q 734 373 734 357 Q 735 341 672 272 C 652 250 654 241 680 256 Z" style="fill: #0070C0;"></path>
                                                                        <path d="M 694 200 Q 745 166 805 117 Q 820 104 833 101 Q 840 101 844 110 Q 853 123 837 155 Q 821 195 687 235 C 658 244 669 217 694 200 Z" style="fill: #0070C0;"></path>
                                                                        <path d="M 213 570 Q 240 549 270 524 Q 283 512 299 514 Q 309 515 313 528 Q 317 543 306 571 Q 294 599 205 616 Q 189 617 184 615 Q 180 611 181 599 Q 185 589 213 570 Z" style="fill: #0070C0;"></path>
                                                                        <path d="M 275 124 Q 294 145 285 188 Q 279 206 257 243 Q 239 282 270 332 Q 291 366 308 384 Q 327 400 310 415 Q 292 428 261 442 Q 240 454 205 424 Q 136 387 116 388 Q 109 388 107 383 Q 106 379 114 375 Q 147 360 217 390 Q 224 393 232 385 Q 251 363 230 337 Q 185 292 226 219 Q 247 174 251 151 Q 252 133 250 125 C 247 95 259 99 275 124 Z" style="fill: #0070C0;"></path>
                                                                        <path d="M 250 125 Q 213 126 173 112 Q 142 99 95 95 Q 88 94 85 86 Q 82 79 91 70 Q 107 54 131 43 Q 141 37 159 51 Q 217 99 282 88 Q 349 75 487 19 Q 718 -80 801 -53 Q 856 -32 903 2 Q 924 17 902 16 Q 697 9 547 43 Q 459 67 347 108 Q 313 121 275 124 L 250 125 Z" style="fill: #0070C0;"></path>
                                    
                                    
                                                                                                                                                                                                                                                                                                                                                                                                                                                                                                                                                                                                                                                                                                                                                                                                                                                                                                                                                                                                                                                                                                                                                                                                                                                                                                                                                                                                                                                                                                                                                                                </g>
                            </svg>