<svg width='83' height='83' >
                                <g transform="translate(3, 70) scale(0.07, -0.07)">
                                    <!-- 先将完整的字以灰色字体绘制完成，层级位于下面 -->
                                                                        <path d="M 529 681 Q 533 723 539 760 L 541 781 Q 541 793 548 809 Q 551 818 534 829 Q 506 844 486 847 Q 473 848 466 842 Q 460 835 467 824 Q 485 800 495 675 C 497 645 526 651 529 681 Z" style="fill: #0070C0;"></path>
                                                                        <path d="M 539 760 Q 582 744 627 759 Q 655 765 685 773 Q 698 776 701 778 Q 708 785 704 794 Q 697 804 669 808 Q 650 811 586 790 Q 567 786 546 783 Q 542 783 541 781 C 513 770 512 769 539 760 Z" style="fill: #0070C0;"></path>
                                                                        <path d="M 314 608 Q 321 608 328 610 Q 403 635 631 669 Q 698 678 716 675 Q 732 665 730 658 Q 730 657 713 601 Q 707 588 713 585 Q 720 581 734 592 Q 779 623 816 632 Q 846 642 845 649 Q 844 658 778 704 Q 757 719 664 701 Q 585 692 529 681 L 495 675 Q 443 669 379 657 Q 339 651 300 645 C 270 640 285 602 314 608 Z" style="fill: #0070C0;"></path>
                                                                        <path d="M 300 645 Q 260 676 236 669 Q 224 662 231 648 Q 250 615 247 566 Q 246 551 245 531 Q 239 372 194 241 Q 163 153 79 18 Q 73 12 72 6 Q 69 -4 80 -3 Q 110 0 192 128 Q 204 152 217 177 Q 280 316 302 540 Q 305 576 314 608 C 320 631 320 631 300 645 Z" style="fill: #0070C0;"></path>
                                                                        <path d="M 505 551 Q 547 563 644 579 Q 651 578 658 588 Q 659 597 641 604 Q 617 619 520 588 Q 516 588 514 586 Q 510 585 509 584 L 472 575 Q 444 571 420 565 Q 389 561 354 554 Q 332 550 350 538 Q 374 519 397 526 Q 428 535 470 543 L 505 551 Z" style="fill: #0070C0;"></path>
                                                                        <path d="M 710 531 Q 703 541 686 572 Q 686 582 680 585 Q 676 588 674 575 Q 649 527 618 514 Q 594 508 566 505 Q 544 504 526 508 Q 511 512 509 520 Q 506 529 505 551 L 509 584 Q 513 620 508 625 Q 498 635 482 641 Q 472 644 466 641 Q 462 638 465 625 Q 472 600 472 575 L 470 543 Q 470 498 489 484 Q 546 454 652 480 Q 653 481 656 481 Q 681 488 707 505 Q 719 515 710 531 Z" style="fill: #0070C0;"></path>
                                                                        <path d="M 402 409 Q 392 413 366 415 Q 356 416 352 412 Q 348 406 356 392 Q 378 358 397 301 Q 401 283 413 273 Q 429 255 434 269 Q 435 276 435 288 L 431 316 Q 421 364 418 382 C 414 405 414 405 402 409 Z" style="fill: #0070C0;"></path>
                                                                        <path d="M 658 348 Q 671 375 693 387 Q 708 402 696 417 Q 683 429 641 451 Q 626 458 609 452 Q 525 419 402 409 C 372 406 388 377 418 382 Q 608 412 611 412 Q 614 412 617 408 Q 621 404 611 351 C 606 321 644 322 658 348 Z" style="fill: #0070C0;"></path>
                                                                        <path d="M 435 288 Q 439 287 449 289 Q 518 305 669 318 Q 678 319 679 326 Q 679 333 658 348 C 644 358 640 357 611 351 Q 509 329 431 316 C 401 311 405 288 435 288 Z" style="fill: #0070C0;"></path>
                                                                        <path d="M 535 202 Q 673 229 674 230 Q 683 237 678 245 Q 672 255 646 264 Q 619 270 539 246 Q 431 228 393 225 Q 360 221 383 205 Q 422 180 472 192 Q 473 193 475 192 L 535 202 Z" style="fill: #0070C0;"></path>
                                                                        <path d="M 545 103 Q 608 109 822 110 Q 841 109 847 118 Q 851 128 836 142 Q 785 181 750 173 Q 669 157 534 138 L 481 131 Q 372 121 248 105 Q 229 104 243 87 Q 256 74 273 68 Q 294 62 309 67 Q 385 86 472 96 L 545 103 Z" style="fill: #0070C0;"></path>
                                                                        <path d="M 534 138 Q 541 163 549 171 Q 556 183 549 191 Q 543 198 535 202 C 510 219 464 220 475 192 Q 487 170 481 131 L 472 96 Q 448 9 322 -39 Q 303 -45 283 -52 Q 267 -61 286 -62 Q 376 -66 449 -17 Q 488 10 521 91 L 534 138 Z" style="fill: #0070C0;"></path>
                                                                        <path d="M 521 91 Q 590 15 665 -55 Q 687 -74 723 -74 Q 789 -74 855 -56 Q 871 -53 873 -49 Q 874 -42 861 -38 Q 699 10 689 15 Q 641 39 545 103 C 520 120 501 113 521 91 Z" style="fill: #0070C0;"></path>
                                    
                                    
                                                                                                                                                                                                                                                                                                                                                                                                                                                                                                                                                                                                                                                                                                                                                                                                                                                                                                                                                                                                                                                                                                        </g>
                            </svg>