<svg width='83' height='83' >
                                <g transform="translate(3, 70) scale(0.07, -0.07)">
                                    <!-- 先将完整的字以灰色字体绘制完成，层级位于下面 -->
                                                                        <path d="M 161 512 Q 149 519 112 524 Q 100 527 97 522 Q 90 515 99 500 Q 129 443 147 350 Q 151 322 168 303 Q 186 281 191 297 Q 195 310 193 332 L 189 364 Q 173 448 169 479 C 165 509 165 510 161 512 Z" style="fill: #0070C0;"></path>
                                                                        <path d="M 423 397 Q 453 479 483 496 Q 499 515 485 532 Q 412 592 355 560 Q 331 553 310 544 L 260 530 Q 211 521 161 512 C 131 507 141 470 169 479 Q 181 485 261 500 L 309 510 Q 381 528 391 518 Q 398 511 396 493 Q 386 447 375 409 C 367 380 412 369 423 397 Z" style="fill: #0070C0;"></path>
                                                                        <path d="M 306 351 Q 358 361 429 369 Q 439 370 440 380 Q 440 386 423 397 C 399 414 399 414 375 409 Q 342 403 307 390 L 262 379 Q 222 372 189 364 C 160 357 163 327 193 332 L 262 343 L 306 351 Z" style="fill: #0070C0;"></path>
                                                                        <path d="M 302 208 Q 303 281 306 351 L 307 390 Q 308 451 309 510 L 310 544 Q 310 622 331 712 Q 334 724 312 739 Q 275 758 248 762 Q 230 766 222 756 Q 215 749 223 732 Q 254 686 255 655 Q 258 594 260 530 L 261 500 Q 262 442 262 379 L 262 343 Q 261 271 258 194 C 257 164 302 178 302 208 Z" style="fill: #0070C0;"></path>
                                                                        <path d="M 389 236 Q 346 223 302 208 L 258 194 Q 120 157 98 157 Q 85 156 82 144 Q 81 131 90 122 Q 114 106 148 87 Q 158 84 171 93 Q 210 123 372 198 Q 387 205 401 214 C 427 230 418 245 389 236 Z" style="fill: #0070C0;"></path>
                                                                        <path d="M 401 214 Q 428 163 438 160 Q 445 157 454 165 Q 461 175 463 199 Q 464 233 388 291 Q 378 298 372 298 Q 368 297 365 287 Q 365 278 389 236 L 401 214 Z" style="fill: #0070C0;"></path>
                                                                        <path d="M 573 581 Q 572 582 568 584 Q 519 606 503 603 Q 482 599 500 577 Q 533 523 519 322 Q 512 270 488 206 Q 464 139 386 60 Q 373 47 369 40 Q 368 33 380 34 Q 419 34 483 109 Q 564 203 577 412 Q 580 535 583 552 C 585 575 585 575 573 581 Z" style="fill: #0070C0;"></path>
                                                                        <path d="M 962 35 Q 1001 47 986 85 Q 964 143 958 233 Q 957 258 950 263 Q 940 270 936 252 Q 906 123 885 106 Q 873 100 848 102 Q 784 111 760 161 Q 732 210 730 298 Q 729 386 753 481 Q 774 551 814 585 Q 844 610 809 623 Q 791 632 752 644 Q 731 653 675 620 Q 644 607 573 581 C 545 571 554 546 583 552 Q 614 558 685 577 Q 698 581 705 575 Q 714 562 692 409 Q 649 97 831 30 Q 852 24 879 22 Q 921 21 962 35 Z" style="fill: #0070C0;"></path>
                                    
                                    
                                                                                                                                                                                                                                                                                                                                                                                                                                                                                                                                                                                                                                                                                                            </g>
                            </svg>