<svg width='83' height='83' >
                                <g transform="translate(3, 70) scale(0.07, -0.07)">
                                    <!-- 先将完整的字以灰色字体绘制完成，层级位于下面 -->
                                                                        <path d="M 141 524 Q 131 528 106 532 Q 96 535 92 530 Q 88 524 95 510 Q 120 461 136 379 Q 139 354 153 338 Q 169 319 174 333 Q 178 345 177 362 L 173 387 Q 158 469 156 496 C 154 520 154 520 141 524 Z" style="fill: #0070C0;"></path>
                                                                        <path d="M 390 438 Q 409 510 434 527 Q 447 543 434 558 Q 365 606 320 576 Q 299 569 281 560 L 238 547 Q 190 535 141 524 C 112 517 128 486 156 496 Q 177 505 239 518 L 280 529 Q 301 536 325 541 Q 344 547 352 539 Q 365 526 348 442 C 342 413 382 409 390 438 Z" style="fill: #0070C0;"></path>
                                                                        <path d="M 276 381 Q 291 387 403 408 Q 413 411 414 416 Q 413 425 395 436 Q 394 437 390 438 L 348 442 Q 309 427 277 415 L 238 404 Q 204 397 173 387 C 144 378 147 361 177 362 Q 186 362 201 364 Q 219 368 237 372 L 276 381 Z" style="fill: #0070C0;"></path>
                                                                        <path d="M 272 263 Q 273 324 276 381 L 277 415 Q 278 473 280 529 L 281 560 Q 282 626 302 740 Q 306 750 286 765 Q 252 783 228 787 Q 212 790 204 781 Q 197 774 205 759 Q 235 716 235 687 Q 238 620 238 547 L 239 518 Q 239 463 238 404 L 237 372 Q 236 314 232 252 C 230 222 271 233 272 263 Z" style="fill: #0070C0;"></path>
                                                                        <path d="M 361 290 Q 316 277 272 263 L 232 252 Q 111 219 86 220 Q 73 219 72 209 Q 71 197 79 189 Q 100 173 131 155 Q 141 152 153 160 Q 181 182 349 257 Q 361 263 372 269 C 398 283 390 298 361 290 Z" style="fill: #0070C0;"></path>
                                                                        <path d="M 372 269 Q 393 227 406 220 Q 413 217 422 225 Q 429 235 431 259 Q 432 292 360 347 Q 350 354 344 354 Q 340 353 337 343 Q 337 334 361 290 L 372 269 Z" style="fill: #0070C0;"></path>
                                                                        <path d="M 743 720 Q 867 753 872 755 Q 881 764 875 772 Q 868 784 838 791 Q 808 795 717 763 Q 642 744 573 734 Q 536 727 563 710 Q 611 689 698 710 L 743 720 Z" style="fill: #0070C0;"></path>
                                                                        <path d="M 767 488 Q 782 494 915 491 Q 937 490 946 502 Q 953 512 932 524 Q 866 569 817 544 Q 795 540 773 534 Q 769 534 768 533 L 715 523 Q 640 511 569 492 Q 536 482 546 510 Q 558 582 571 610 Q 581 620 574 631 Q 567 641 531 656 Q 513 665 503 657 Q 493 647 503 634 Q 519 600 503 521 Q 500 500 476 476 Q 466 466 469 452 Q 472 442 489 428 Q 502 421 516 433 Q 579 466 684 478 L 767 488 Z" style="fill: #0070C0;"></path>
                                                                        <path d="M 714 415 Q 714 285 714 98 Q 713 70 703 59 Q 693 53 605 87 Q 593 91 593 84 Q 593 77 602 66 Q 669 5 711 -44 Q 721 -54 736 -38 Q 778 10 776 92 Q 764 329 767 488 L 768 533 Q 769 597 776 659 Q 782 686 776 696 Q 769 706 743 720 C 717 736 691 739 698 710 Q 713 659 714 566 Q 714 547 715 523 L 714 415 Z" style="fill: #0070C0;"></path>
                                                                        <path d="M 684 478 Q 677 456 659 426 Q 598 327 528 258 Q 470 197 346 106 Q 328 91 346 90 Q 379 87 480 151 Q 564 211 643 309 Q 686 366 714 415 C 761 496 699 518 684 478 Z" style="fill: #0070C0;"></path>
                                    
                                    
                                                                                                                                                                                                                                                                                                                                                                                                                                                                                                                                                                                                                                                                                                                                                                                                                                                                    </g>
                            </svg>