<svg width='83' height='83' >
                                <g transform="translate(3, 70) scale(0.07, -0.07)">
                                    <!-- 先将完整的字以灰色字体绘制完成，层级位于下面 -->
                                                                        <path d="M 112 552 Q 105 555 93 555 Q 81 556 79 552 Q 73 545 83 531 Q 111 482 135 401 Q 139 376 156 362 Q 175 343 178 358 Q 181 368 179 385 L 173 414 Q 151 502 147 525 C 144 543 141 544 112 552 Z" style="fill: #0070C0;"></path>
                                                                        <path d="M 408 456 Q 436 534 464 554 Q 480 573 465 589 Q 449 602 397 625 Q 379 632 358 623 Q 322 607 290 595 L 240 580 Q 179 564 112 552 C 82 547 118 518 147 525 Q 156 526 167 531 Q 201 541 241 549 L 289 561 Q 359 582 372 572 Q 379 565 378 550 Q 371 501 359 462 C 351 433 398 428 408 456 Z" style="fill: #0070C0;"></path>
                                                                        <path d="M 285 405 Q 340 417 418 427 Q 428 428 429 437 Q 429 444 408 456 C 386 469 386 469 359 462 Q 320 452 286 441 L 242 429 Q 205 422 173 414 C 144 407 149 386 179 385 Q 186 384 196 386 Q 215 392 242 397 L 285 405 Z" style="fill: #0070C0;"></path>
                                                                        <path d="M 281 280 Q 282 344 285 405 L 286 441 Q 287 502 289 561 L 290 595 Q 290 670 309 739 Q 312 752 291 768 Q 254 787 229 790 Q 213 794 204 784 Q 197 777 205 761 Q 235 718 235 689 Q 238 637 240 580 L 241 549 Q 242 491 242 429 L 242 397 Q 241 333 238 265 C 237 235 280 250 281 280 Z" style="fill: #0070C0;"></path>
                                                                        <path d="M 367 313 Q 324 298 281 280 L 238 265 Q 183 247 127 228 Q 109 221 79 221 Q 67 220 66 209 Q 65 196 74 189 Q 96 174 128 158 Q 138 157 149 165 Q 149 166 375 291 C 401 306 395 323 367 313 Z" style="fill: #0070C0;"></path>
                                                                        <path d="M 375 291 Q 399 224 410 218 Q 417 214 426 222 Q 435 229 440 253 Q 446 289 375 361 Q 366 370 361 370 Q 357 369 352 360 Q 349 344 367 313 L 375 291 Z" style="fill: #0070C0;"></path>
                                                                        <path d="M 543 642 Q 577 602 612 586 Q 627 583 635 597 Q 641 609 638 625 Q 631 649 613 660 Q 568 688 534 682 Q 531 682 529 680 Q 523 679 526 667 Q 527 655 543 642 Z" style="fill: #0070C0;"></path>
                                                                        <path d="M 530 485 Q 569 437 599 423 Q 614 420 623 433 Q 630 445 627 461 Q 621 485 604 497 Q 577 516 542 522 Q 526 528 517 524 Q 511 523 514 511 Q 515 499 530 485 Z" style="fill: #0070C0;"></path>
                                                                        <path d="M 756 337 Q 822 349 946 344 Q 965 343 970 350 Q 976 360 966 370 Q 941 392 903 407 Q 891 411 870 404 Q 828 394 784 386 Q 769 385 756 381 L 698 374 Q 646 370 560 355 Q 518 348 455 344 Q 443 344 442 334 Q 442 324 458 313 Q 473 303 499 294 Q 508 291 523 298 Q 565 316 698 331 L 756 337 Z" style="fill: #0070C0;"></path>
                                                                        <path d="M 698 331 Q 694 -9 715 -44 Q 731 -60 741 -37 Q 757 9 756 337 L 756 381 Q 757 601 763 698 Q 764 732 782 760 Q 789 778 767 794 Q 740 815 694 826 Q 673 832 659 817 Q 649 807 662 795 Q 692 770 694 735 Q 697 585 698 374 L 698 331 Z" style="fill: #0070C0;"></path>
                                    
                                    
                                                                                                                                                                                                                                                                                                                                                                                                                                                                                                                                                                                                                                                                                                                                                                                                                                                                    </g>
                            </svg>