<svg width='83' height='83' >
                                <g transform="translate(3, 70) scale(0.07, -0.07)">
                                    <!-- 先将完整的字以灰色字体绘制完成，层级位于下面 -->
                                                                        <path d="M 127 504 Q 117 508 88 511 Q 76 514 73 509 Q 67 502 76 487 Q 104 436 126 352 Q 130 327 147 311 Q 166 289 171 306 Q 174 316 173 329 L 169 359 Q 151 450 145 477 C 140 500 140 500 127 504 Z" style="fill: #0070C0;"></path>
                                                                        <path d="M 398 401 Q 422 479 451 500 Q 466 518 452 534 Q 382 586 330 557 Q 308 550 287 541 L 241 528 Q 186 515 127 504 C 98 498 116 469 145 477 Q 224 498 242 500 L 287 511 Q 351 529 364 520 Q 376 507 350 405 C 343 376 389 372 398 401 Z" style="fill: #0070C0;"></path>
                                                                        <path d="M 283 350 Q 335 362 410 371 Q 420 372 421 381 Q 421 388 398 401 C 379 412 379 412 350 405 Q 314 396 284 386 L 241 375 Q 202 366 169 359 C 140 353 143 330 173 329 Q 180 328 188 330 Q 209 337 240 342 L 283 350 Z" style="fill: #0070C0;"></path>
                                                                        <path d="M 278 203 Q 279 278 283 350 L 284 386 Q 285 450 287 511 L 287 541 Q 290 659 310 743 Q 314 756 292 771 Q 255 790 228 795 Q 210 798 202 789 Q 195 780 203 764 Q 237 715 237 681 Q 240 608 241 528 L 242 500 Q 242 439 241 375 L 240 342 Q 239 269 234 188 C 232 158 278 173 278 203 Z" style="fill: #0070C0;"></path>
                                                                        <path d="M 376 237 Q 328 221 278 203 L 234 188 Q 176 172 118 152 Q 99 145 65 145 Q 52 144 50 132 Q 49 119 58 110 Q 82 94 117 76 Q 127 73 139 82 Q 178 113 363 199 Q 376 206 390 214 C 416 229 404 247 376 237 Z" style="fill: #0070C0;"></path>
                                                                        <path d="M 390 214 Q 415 168 430 163 Q 437 160 445 169 Q 452 179 454 205 Q 454 235 377 288 Q 367 295 360 294 Q 356 293 353 282 Q 353 276 376 237 L 390 214 Z" style="fill: #0070C0;"></path>
                                                                        <path d="M 565 510 Q 755 651 771 657 Q 795 667 783 687 Q 768 706 740 721 Q 715 736 700 733 Q 687 732 691 717 Q 697 684 623 603 Q 587 566 549 523 C 529 501 541 492 565 510 Z" style="fill: #0070C0;"></path>
                                                                        <path d="M 569 411 Q 569 462 573 479 Q 574 498 565 510 L 549 523 Q 530 538 507 546 Q 491 552 482 545 Q 473 538 480 522 Q 507 467 518 409 Q 525 351 536 115 C 537 85 580 90 578 120 Q 569 294 569 379 L 569 411 Z" style="fill: #0070C0;"></path>
                                                                        <path d="M 753 402 Q 882 438 884 439 Q 893 448 888 456 Q 881 468 850 474 Q 823 480 729 446 Q 645 422 569 411 C 539 407 540 385 569 379 Q 606 369 674 384 Q 686 387 701 390 L 753 402 Z" style="fill: #0070C0;"></path>
                                                                        <path d="M 742 141 Q 775 336 792 362 Q 796 372 778 388 Q 765 397 753 402 C 726 415 690 418 701 390 Q 722 350 701 135 C 698 105 737 111 742 141 Z" style="fill: #0070C0;"></path>
                                                                        <path d="M 536 115 Q 455 108 369 99 Q 347 98 363 79 Q 378 64 396 58 Q 418 52 435 56 Q 663 114 956 94 Q 977 94 982 103 Q 989 115 971 129 Q 913 174 847 157 Q 802 151 742 141 L 701 135 Q 676 134 650 129 Q 614 125 578 120 L 536 115 Z" style="fill: #0070C0;"></path>
                                    
                                    
                                                                                                                                                                                                                                                                                                                                                                                                                                                                                                                                                                                                                                                                                                                                                                                                                                                                                                                                                </g>
                            </svg>