<svg width='83' height='83' >
                                <g transform="translate(3, 70) scale(0.07, -0.07)">
                                    <!-- 先将完整的字以灰色字体绘制完成，层级位于下面 -->
                                                                        <path d="M 146 512 Q 136 516 109 520 Q 97 523 95 517 Q 89 511 97 497 Q 124 448 142 367 Q 146 342 160 326 Q 178 307 182 321 Q 185 330 185 341 L 182 372 Q 167 457 162 484 C 158 508 158 508 146 512 Z" style="fill: #0070C0;"></path>
                                                                        <path d="M 404 410 Q 428 491 455 513 Q 470 529 456 545 Q 389 593 338 564 Q 316 557 297 548 L 251 535 Q 199 522 146 512 C 117 506 133 476 162 484 Q 168 485 178 489 Q 212 499 251 507 L 296 518 Q 318 525 342 530 Q 363 536 372 527 Q 387 512 362 415 C 355 386 395 381 404 410 Z" style="fill: #0070C0;"></path>
                                                                        <path d="M 293 361 Q 345 371 418 379 Q 428 380 428 389 Q 428 396 404 410 L 362 415 Q 358 415 356 414 Q 323 405 294 397 L 252 386 Q 213 379 182 372 C 153 365 155 340 185 341 Q 192 341 200 342 Q 221 348 251 353 L 293 361 Z" style="fill: #0070C0;"></path>
                                                                        <path d="M 289 221 Q 290 293 293 361 L 294 397 Q 295 458 296 518 L 297 548 Q 297 642 317 729 Q 321 741 299 756 Q 262 775 237 778 Q 221 782 212 772 Q 205 765 213 749 Q 246 703 246 671 Q 249 605 251 535 L 251 507 Q 252 449 252 386 L 251 353 Q 250 283 246 208 C 244 178 289 191 289 221 Z" style="fill: #0070C0;"></path>
                                                                        <path d="M 383 252 Q 337 239 289 221 L 246 208 Q 192 193 136 176 Q 117 170 86 171 Q 73 170 71 159 Q 70 146 78 138 Q 100 122 134 103 Q 144 100 156 109 Q 193 139 366 214 Q 382 223 397 231 C 423 245 412 260 383 252 Z" style="fill: #0070C0;"></path>
                                                                        <path d="M 397 231 Q 419 186 435 183 Q 442 180 449 189 Q 456 199 457 223 Q 457 253 380 305 Q 370 311 364 310 Q 360 309 358 299 Q 358 289 373 268 Q 377 261 383 252 L 397 231 Z" style="fill: #0070C0;"></path>
                                                                        <path d="M 559 657 Q 543 670 529 676 Q 517 679 508 675 Q 499 671 502 660 Q 526 609 528 571 Q 528 211 527 124 C 527 94 571 98 571 128 Q 572 218 573 298 L 573 326 Q 574 393 575 455 L 575 482 Q 576 527 577 567 Q 578 595 579 614 Q 580 621 581 626 C 583 640 583 640 559 657 Z" style="fill: #0070C0;"></path>
                                                                        <path d="M 792 150 Q 792 400 803 564 Q 806 606 825 633 Q 838 648 824 665 Q 814 677 763 706 Q 745 716 680 688 Q 571 660 559 657 C 530 650 553 616 581 626 Q 581 627 584 628 Q 678 655 718 661 Q 734 664 739 659 Q 746 646 746 613 Q 743 345 737 144 C 736 114 792 120 792 150 Z" style="fill: #0070C0;"></path>
                                                                        <path d="M 575 455 Q 578 455 583 455 Q 650 462 698 468 Q 722 472 713 484 Q 703 499 677 504 Q 635 510 575 482 C 548 469 545 455 575 455 Z" style="fill: #0070C0;"></path>
                                                                        <path d="M 573 298 Q 577 298 583 298 Q 646 304 693 307 Q 718 310 709 324 Q 699 340 671 345 Q 632 351 573 326 C 545 314 543 298 573 298 Z" style="fill: #0070C0;"></path>
                                                                        <path d="M 660 96 Q 700 97 740 101 Q 830 110 952 97 Q 973 94 978 101 Q 985 113 974 123 Q 949 148 911 166 Q 899 169 792 150 L 737 144 Q 670 140 632 134 Q 598 133 571 128 L 527 124 Q 506 124 491 121 Q 439 114 360 115 Q 348 115 347 105 Q 346 95 362 81 Q 401 54 431 64 Q 470 77 602 91 Q 629 94 660 96 Z" style="fill: #0070C0;"></path>
                                    
                                    
                                                                                                                                                                                                                                                                                                                                                                                                                                                                                                                                                                                                                                                                                                                                                                                                                                                                                                                                                </g>
                            </svg>