<svg width='83' height='83' >
                                <g transform="translate(3, 70) scale(0.07, -0.07)">
                                    <!-- 先将完整的字以灰色字体绘制完成，层级位于下面 -->
                                                                        <path d="M 125 543 Q 115 547 101 548 Q 89 551 87 545 Q 81 539 89 525 Q 116 476 134 395 Q 138 370 152 354 Q 170 335 174 349 Q 177 359 177 373 L 173 404 Q 157 494 154 516 C 151 534 151 534 125 543 Z" style="fill: #0070C0;"></path>
                                                                        <path d="M 396 440 Q 420 513 451 537 Q 467 553 453 570 Q 381 622 330 594 Q 306 585 286 577 L 241 565 Q 186 552 125 543 C 95 538 124 511 154 516 Q 166 517 176 521 Q 207 528 242 535 L 286 545 Q 310 552 336 557 Q 357 563 365 555 Q 374 546 371 529 Q 362 484 351 447 C 343 418 386 412 396 440 Z" style="fill: #0070C0;"></path>
                                                                        <path d="M 284 393 Q 333 403 406 411 Q 416 412 416 421 Q 416 428 396 440 L 351 447 Q 347 447 344 445 Q 311 436 284 428 L 243 418 Q 206 411 173 404 C 144 398 147 372 177 373 Q 184 373 192 374 Q 213 380 242 385 L 284 393 Z" style="fill: #0070C0;"></path>
                                                                        <path d="M 281 269 Q 282 333 284 393 L 284 428 Q 285 488 286 545 L 286 577 Q 286 638 304 747 Q 308 759 287 773 Q 251 791 226 794 Q 210 797 202 788 Q 195 781 204 765 Q 234 722 235 692 Q 239 631 241 565 L 242 535 Q 243 478 243 418 L 242 385 Q 242 324 239 255 C 238 225 280 239 281 269 Z" style="fill: #0070C0;"></path>
                                                                        <path d="M 333 288 Q 305 279 281 269 L 239 255 Q 94 210 68 209 Q 55 208 54 197 Q 53 184 62 177 Q 84 162 116 146 Q 126 143 137 152 Q 140 155 345 269 C 371 284 362 297 333 288 Z" style="fill: #0070C0;"></path>
                                                                        <path d="M 345 269 Q 372 214 384 208 Q 391 207 398 213 Q 405 222 406 242 Q 407 276 338 328 Q 329 334 324 334 Q 320 333 318 324 Q 318 317 329 296 Q 330 293 333 288 L 345 269 Z" style="fill: #0070C0;"></path>
                                                                        <path d="M 504 731 Q 526 709 550 682 Q 560 670 575 670 Q 584 670 589 681 Q 593 693 588 719 Q 584 737 559 752 Q 532 762 503 773 Q 490 777 484 775 Q 480 771 480 760 Q 483 750 504 731 Z" style="fill: #0070C0;"></path>
                                                                        <path d="M 730 795 Q 721 776 657 686 Q 650 670 665 674 Q 683 686 774 755 Q 790 771 814 783 Q 833 795 822 811 Q 809 827 782 839 Q 757 851 745 847 Q 733 846 738 832 Q 742 814 730 795 Z" style="fill: #0070C0;"></path>
                                                                        <path d="M 644 581 Q 704 594 771 605 Q 816 615 822 621 Q 831 628 827 636 Q 820 648 792 656 Q 764 662 734 651 Q 683 635 629 622 Q 568 609 498 604 Q 462 598 487 582 Q 523 557 581 570 Q 582 571 587 571 L 644 581 Z" style="fill: #0070C0;"></path>
                                                                        <path d="M 669 445 Q 802 472 806 474 Q 815 481 810 489 Q 804 499 778 508 Q 754 514 672 489 L 614 476 Q 568 469 517 466 Q 483 462 507 445 Q 543 421 598 433 Q 604 434 614 436 L 669 445 Z" style="fill: #0070C0;"></path>
                                                                        <path d="M 667 311 Q 748 321 923 321 Q 942 321 947 330 Q 953 340 936 354 Q 885 391 850 383 Q 780 370 667 350 L 613 342 Q 525 332 424 317 Q 403 316 419 299 Q 432 286 450 280 Q 469 276 486 280 Q 546 296 613 305 L 667 311 Z" style="fill: #0070C0;"></path>
                                                                        <path d="M 613 -34 Q 619 -59 626 -69 Q 632 -76 639 -74 Q 654 -64 661 -5 Q 670 71 668 146 Q 665 189 667 311 L 667 350 Q 667 393 669 445 L 672 489 Q 672 490 681 537 Q 684 556 670 565 Q 655 575 644 581 C 618 596 574 598 587 571 Q 588 570 590 567 Q 614 512 614 476 L 614 436 Q 614 393 613 342 L 613 305 Q 607 25 613 -34 Z" style="fill: #0070C0;"></path>
                                    
                                    
                                                                                                                                                                                                                                                                                                                                                                                                                                                                                                                                                                                                                                                                                                                                                                                                                                                                                                                                                                                                                            </g>
                            </svg>