<svg width='83' height='83' >
                                <g transform="translate(3, 70) scale(0.07, -0.07)">
                                    <!-- 先将完整的字以灰色字体绘制完成，层级位于下面 -->
                                                                        <path d="M 114 560 Q 104 564 82 569 Q 70 572 67 567 Q 60 561 68 546 Q 90 500 105 422 Q 108 398 121 383 Q 137 362 143 377 Q 144 384 146 394 L 145 423 Q 145 424 145 427 Q 135 509 133 532 C 131 554 131 554 114 560 Z" style="fill: #0070C0;"></path>
                                                                        <path d="M 361 468 Q 385 531 411 549 Q 427 565 413 582 Q 397 595 350 616 Q 334 623 263 595 L 213 580 Q 164 570 114 560 C 85 554 103 527 133 532 Q 143 533 156 537 Q 184 544 214 549 L 262 560 Q 278 564 299 569 Q 318 573 325 566 Q 332 560 331 546 Q 324 504 314 471 C 306 442 350 440 361 468 Z" style="fill: #0070C0;"></path>
                                                                        <path d="M 256 419 Q 305 431 371 441 Q 381 442 381 450 Q 381 456 361 468 C 342 480 342 480 314 471 Q 286 462 258 453 L 213 439 Q 177 432 145 423 C 116 415 117 387 146 394 Q 147 394 212 410 L 256 419 Z" style="fill: #0070C0;"></path>
                                                                        <path d="M 250 290 Q 253 357 256 419 L 258 453 Q 259 508 262 560 L 263 595 Q 264 632 284 745 Q 288 755 267 771 Q 230 790 205 795 Q 189 799 180 789 Q 173 782 181 766 Q 209 724 210 695 Q 211 640 213 580 L 214 549 Q 214 497 213 439 L 212 410 Q 211 346 206 276 C 204 246 249 260 250 290 Z" style="fill: #0070C0;"></path>
                                                                        <path d="M 322 314 Q 286 304 250 290 L 206 276 Q 155 261 102 244 Q 86 238 57 239 Q 44 238 42 227 Q 41 214 50 206 Q 72 190 106 173 Q 116 170 128 179 Q 149 197 315 282 Q 322 288 333 291 C 361 301 351 322 322 314 Z" style="fill: #0070C0;"></path>
                                                                        <path d="M 333 291 Q 351 249 364 244 Q 373 240 381 249 Q 390 259 393 286 Q 394 310 334 355 Q 322 362 317 362 Q 311 361 308 350 Q 308 340 322 314 L 333 291 Z" style="fill: #0070C0;"></path>
                                                                        <path d="M 572 752 Q 591 785 609 812 Q 618 824 605 836 Q 566 863 544 861 Q 534 858 536 845 Q 549 755 456 648 Q 444 644 417 603 Q 410 590 423 594 Q 447 598 503 654 L 516 668 Q 541 699 562 733 L 572 752 Z" style="fill: #0070C0;"></path>
                                                                        <path d="M 639 592 Q 739 710 765 729 Q 778 738 774 746 Q 773 755 720 779 Q 704 789 685 778 Q 669 771 644 764 Q 607 757 572 752 C 542 748 534 744 562 733 Q 590 715 646 733 Q 665 737 670 729 Q 673 722 660 703 Q 635 660 599 614 L 581 592 Q 491 496 366 405 Q 353 395 365 393 Q 455 408 616 567 L 639 592 Z" style="fill: #0070C0;"></path>
                                                                        <path d="M 616 567 Q 794 435 834 432 Q 897 432 981 465 Q 997 469 998 474 Q 999 481 985 484 Q 784 527 773 531 Q 668 576 639 592 L 599 614 Q 598 617 593 619 Q 538 656 516 668 C 490 683 480 673 503 654 Q 509 648 581 592 L 616 567 Z" style="fill: #0070C0;"></path>
                                                                        <path d="M 629 388 Q 666 397 705 403 Q 745 412 751 417 Q 758 424 754 431 Q 748 440 725 446 Q 703 452 634 429 L 575 413 Q 521 403 463 398 Q 433 394 455 379 Q 482 361 546 373 Q 559 376 575 378 L 629 388 Z" style="fill: #0070C0;"></path>
                                                                        <path d="M 626 291 Q 662 300 700 306 Q 737 315 743 320 Q 750 327 747 334 Q 740 344 715 351 Q 691 355 627 334 L 575 320 Q 523 310 464 304 Q 433 300 455 284 Q 492 265 549 277 Q 559 280 574 281 L 626 291 Z" style="fill: #0070C0;"></path>
                                                                        <path d="M 624 182 Q 687 189 863 189 Q 882 189 887 198 Q 891 208 876 222 Q 821 265 763 246 Q 705 236 624 221 L 573 214 Q 468 201 348 185 Q 329 184 343 167 Q 356 154 374 148 Q 393 144 410 147 Q 486 168 573 176 L 624 182 Z" style="fill: #0070C0;"></path>
                                                                        <path d="M 575 -48 Q 579 -72 586 -81 Q 592 -88 599 -86 Q 612 -77 619 -21 Q 623 21 624 182 L 624 221 Q 624 252 626 291 L 627 334 Q 628 364 629 388 L 634 429 Q 635 439 639 449 Q 642 465 628 475 Q 597 496 583 498 Q 571 502 556 494 Q 547 487 554 477 Q 572 438 575 413 L 575 378 Q 575 351 575 320 L 574 281 Q 574 250 573 214 L 573 176 Q 567 29 575 -48 Z" style="fill: #0070C0;"></path>
                                    
                                    
                                                                                                                                                                                                                                                                                                                                                                                                                                                                                                                                                                                                                                                                                                                                                                                                                                                                                                                                                                                                                                                                                                        </g>
                            </svg>