<svg width='83' height='83' >
                                <g transform="translate(3, 70) scale(0.07, -0.07)">
                                    <!-- 先将完整的字以灰色字体绘制完成，层级位于下面 -->
                                                                        <path d="M 150 532 L 148 534 Q 136 540 101 543 Q 89 544 87 540 Q 81 533 91 519 Q 119 470 143 389 Q 147 364 164 350 Q 183 331 186 346 Q 189 356 187 373 L 181 402 Q 162 477 157 504 C 152 531 152 531 150 532 Z" style="fill: #0070C0;"></path>
                                                                        <path d="M 398 445 Q 423 515 451 532 Q 466 548 452 565 Q 386 617 332 586 Q 313 580 297 572 L 247 556 Q 198 543 150 532 C 121 525 128 497 157 504 Q 166 505 178 510 Q 212 520 248 528 L 296 541 Q 317 547 339 552 Q 360 559 368 551 Q 375 544 373 528 Q 363 485 351 449 C 342 420 388 417 398 445 Z" style="fill: #0070C0;"></path>
                                                                        <path d="M 291 394 Q 340 404 410 415 Q 420 416 421 425 Q 421 432 398 445 C 377 457 377 457 351 449 Q 350 449 348 448 Q 318 439 293 431 L 248 418 Q 211 409 181 402 C 152 395 157 374 187 373 Q 197 372 208 375 Q 224 379 247 385 L 291 394 Z" style="fill: #0070C0;"></path>
                                                                        <path d="M 286 252 Q 289 325 291 394 L 293 431 Q 294 486 296 541 L 297 572 Q 297 641 317 721 Q 321 733 299 748 Q 262 767 237 771 Q 221 774 212 765 Q 205 758 213 741 Q 243 698 243 668 Q 246 614 247 556 L 248 528 Q 248 476 248 418 L 247 385 Q 246 315 242 237 C 241 207 285 222 286 252 Z" style="fill: #0070C0;"></path>
                                                                        <path d="M 373 282 Q 330 269 286 252 L 242 237 Q 185 221 127 201 Q 108 194 77 195 Q 64 194 62 183 Q 61 170 70 162 Q 92 146 126 128 Q 136 125 148 135 Q 170 154 358 245 Q 371 252 385 259 C 412 273 402 291 373 282 Z" style="fill: #0070C0;"></path>
                                                                        <path d="M 385 259 Q 409 207 422 200 Q 429 197 438 205 Q 445 215 448 238 Q 451 257 430 283 Q 379 334 365 334 Q 361 333 357 323 Q 356 314 369 291 Q 370 287 373 282 L 385 259 Z" style="fill: #0070C0;"></path>
                                                                        <path d="M 544 721 Q 534 728 496 731 Q 484 734 481 728 Q 475 722 484 706 Q 515 652 537 563 Q 541 535 559 518 Q 578 497 583 514 Q 586 526 584 544 L 579 576 Q 560 660 554 690 C 548 719 548 719 544 721 Z" style="fill: #0070C0;"></path>
                                                                        <path d="M 805 611 Q 832 674 866 696 Q 884 714 870 732 Q 789 798 742 766 Q 666 741 544 721 C 514 716 524 685 554 690 Q 590 696 744 727 Q 766 731 774 723 Q 786 707 750 613 C 739 585 793 584 805 611 Z" style="fill: #0070C0;"></path>
                                                                        <path d="M 584 544 Q 587 544 592 545 Q 662 563 817 580 Q 827 581 828 589 Q 828 596 805 611 C 788 623 779 620 750 613 Q 656 589 579 576 C 549 571 554 540 584 544 Z" style="fill: #0070C0;"></path>
                                                                        <path d="M 566 227 Q 569 276 573 312 L 575 339 Q 579 403 585 424 Q 585 427 585 428 L 573 459 Q 572 462 568 463 Q 540 479 522 479 Q 509 475 513 463 Q 562 346 503 150 Q 479 92 482 82 Q 482 55 499 30 Q 506 17 516 22 Q 552 43 562 168 Q 563 184 564 198 L 566 227 Z" style="fill: #0070C0;"></path>
                                                                        <path d="M 585 428 Q 598 428 741 461 Q 759 465 767 455 Q 774 448 776 423 Q 791 225 787 105 Q 786 75 777 62 Q 773 56 750 61 Q 722 65 692 71 Q 670 77 673 67 Q 736 18 771 -18 Q 786 -37 802 -42 Q 812 -46 820 -35 Q 862 13 858 75 Q 825 402 849 444 Q 862 465 849 475 Q 825 494 787 510 Q 768 517 752 510 Q 683 473 573 459 C 543 455 555 423 585 428 Z" style="fill: #0070C0;"></path>
                                                                        <path d="M 573 312 Q 576 312 580 312 Q 665 328 727 337 Q 749 341 741 353 Q 731 366 707 370 Q 683 373 575 339 C 546 330 543 312 573 312 Z" style="fill: #0070C0;"></path>
                                                                        <path d="M 564 198 Q 568 198 574 198 Q 664 211 730 220 Q 754 224 745 236 Q 735 251 709 256 Q 684 262 566 227 C 537 219 534 198 564 198 Z" style="fill: #0070C0;"></path>
                                    
                                    
                                                                                                                                                                                                                                                                                                                                                                                                                                                                                                                                                                                                                                                                                                                                                                                                                                                                                                                                                                                                                                                                                                        </g>
                            </svg>