<svg width='83' height='83' >
                                <g transform="translate(3, 70) scale(0.07, -0.07)">
                                    <!-- 先将完整的字以灰色字体绘制完成，层级位于下面 -->
                                                                        <path d="M 125 505 Q 112 509 88 512 Q 76 515 73 509 Q 66 503 76 487 Q 104 436 123 352 Q 127 327 143 311 Q 162 289 167 306 Q 170 318 169 337 L 164 367 Q 148 451 144 476 C 140 501 140 501 125 505 Z" style="fill: #0070C0;"></path>
                                                                        <path d="M 376 400 Q 400 473 431 497 Q 447 513 433 530 Q 364 579 314 555 Q 296 549 278 541 L 229 526 Q 177 514 125 505 C 95 500 115 470 144 476 Q 154 477 164 481 Q 195 488 230 496 L 277 507 Q 337 522 345 514 Q 354 507 351 489 Q 342 444 331 407 C 323 378 366 372 376 400 Z" style="fill: #0070C0;"></path>
                                                                        <path d="M 273 355 Q 319 364 386 371 Q 396 372 396 381 Q 396 388 376 400 L 331 407 Q 325 408 274 392 L 230 381 Q 194 374 164 367 C 135 360 139 336 169 337 Q 176 337 184 338 Q 202 344 230 348 L 273 355 Z" style="fill: #0070C0;"></path>
                                                                        <path d="M 269 218 Q 270 288 273 355 L 274 392 Q 275 450 277 507 L 278 541 Q 278 587 297 701 Q 301 713 279 728 Q 242 747 217 750 Q 201 754 192 744 Q 185 737 193 721 Q 224 678 224 647 Q 227 589 229 526 L 230 496 Q 231 441 230 381 L 230 348 Q 229 281 226 205 C 225 175 269 188 269 218 Z" style="fill: #0070C0;"></path>
                                                                        <path d="M 343 243 Q 306 231 269 218 L 226 205 Q 168 189 108 170 Q 89 164 57 164 Q 45 163 43 153 Q 42 140 50 133 Q 72 117 104 100 Q 114 97 125 105 Q 173 141 357 220 C 385 232 372 252 343 243 Z" style="fill: #0070C0;"></path>
                                                                        <path d="M 357 220 Q 390 166 402 162 Q 409 161 417 169 Q 424 179 425 205 Q 426 227 402 251 Q 341 302 328 298 Q 324 297 321 286 Q 322 276 337 253 Q 340 249 343 243 L 357 220 Z" style="fill: #0070C0;"></path>
                                                                        <path d="M 484 725 Q 506 700 530 669 Q 540 656 556 654 Q 566 653 573 665 Q 579 678 575 708 Q 568 739 485 771 Q 470 777 464 775 Q 460 772 459 759 Q 460 749 484 725 Z" style="fill: #0070C0;"></path>
                                                                        <path d="M 690 775 Q 681 756 617 666 Q 610 650 625 654 Q 643 666 734 735 Q 750 751 774 763 Q 793 775 782 791 Q 769 807 742 819 Q 717 831 705 827 Q 693 826 698 812 Q 702 794 690 775 Z" style="fill: #0070C0;"></path>
                                                                        <path d="M 601 570 Q 767 606 775 611 Q 784 618 779 628 Q 772 640 742 647 Q 715 653 614 621 Q 529 603 474 598 Q 437 592 463 574 Q 503 553 562 562 L 601 570 Z" style="fill: #0070C0;"></path>
                                                                        <path d="M 615 457 Q 654 469 749 481 Q 758 480 766 492 Q 767 502 746 511 Q 721 532 635 503 Q 631 503 627 501 L 566 486 Q 547 483 528 479 Q 500 475 467 470 Q 442 466 462 451 Q 492 430 515 435 Q 536 439 559 445 L 615 457 Z" style="fill: #0070C0;"></path>
                                                                        <path d="M 585 338 Q 684 357 849 358 Q 868 359 872 367 Q 876 379 861 391 Q 804 427 750 409 Q 692 397 607 380 Q 601 380 596 378 L 543 368 Q 474 358 399 345 Q 380 342 394 327 Q 407 314 425 310 Q 444 306 459 311 Q 493 321 532 328 L 585 338 Z" style="fill: #0070C0;"></path>
                                                                        <path d="M 596 378 Q 602 402 608 425 Q 611 441 615 457 L 627 501 Q 628 508 632 514 Q 642 527 636 540 Q 624 556 601 570 C 576 587 553 591 562 562 Q 575 532 566 486 L 559 445 Q 552 405 543 368 L 532 328 Q 475 157 357 16 Q 351 10 349 5 Q 346 -5 356 -4 Q 384 -4 465 93 Q 481 115 499 142 Q 550 229 585 338 L 596 378 Z" style="fill: #0070C0;"></path>
                                                                        <path d="M 947 56 Q 931 84 909 175 Q 908 190 901 194 Q 895 197 892 180 Q 874 83 859 51 Q 835 21 750 27 Q 717 30 692 41 Q 670 53 663 68 Q 642 113 669 265 Q 675 295 626 315 Q 613 319 605 314 Q 598 310 604 293 Q 616 254 613 217 Q 601 45 639 9 Q 705 -48 857 -24 Q 864 -21 873 -20 Q 909 -10 943 14 Q 962 30 947 56 Z" style="fill: #0070C0;"></path>
                                    
                                    
                                                                                                                                                                                                                                                                                                                                                                                                                                                                                                                                                                                                                                                                                                                                                                                                                                                                                                                                                                                                                                                                                                        </g>
                            </svg>