<svg width='83' height='83' >
                                <g transform="translate(3, 70) scale(0.07, -0.07)">
                                    <!-- 先将完整的字以灰色字体绘制完成，层级位于下面 -->
                                                                        <path d="M 205 714 Q 168 707 195 691 Q 241 667 295 683 Q 373 701 453 720 Q 490 730 496 735 Q 505 744 500 752 Q 493 764 462 770 Q 431 776 400 762 Q 360 747 314 734 Q 263 721 205 714 Z" style="fill: #0070C0;"></path>
                                                                        <path d="M 230 601 Q 220 605 198 608 Q 188 611 185 606 Q 179 600 187 586 Q 208 549 222 485 Q 226 466 237 454 Q 253 435 258 449 Q 259 453 260 461 L 259 490 Q 249 559 248 577 C 247 595 247 595 230 601 Z" style="fill: #0070C0;"></path>
                                                                        <path d="M 422 515 Q 440 572 463 588 Q 476 604 464 617 Q 451 627 409 645 Q 396 651 378 644 Q 320 620 230 601 C 201 595 219 569 248 577 Q 269 583 369 604 Q 382 608 388 602 Q 395 596 394 583 Q 388 547 382 518 C 376 489 413 487 422 515 Z" style="fill: #0070C0;"></path>
                                                                        <path d="M 260 461 Q 264 461 269 462 Q 321 474 434 486 Q 443 487 444 494 Q 444 501 422 515 C 415 520 412 520 382 518 Q 379 519 377 518 Q 313 502 259 490 C 230 483 230 459 260 461 Z" style="fill: #0070C0;"></path>
                                                                        <path d="M 164 380 Q 137 398 113 396 Q 100 392 106 381 Q 151 296 116 143 Q 92 82 124 44 Q 131 31 140 37 Q 170 59 171 156 Q 171 309 173 346 C 174 374 174 374 164 380 Z" style="fill: #0070C0;"></path>
                                                                        <path d="M 173 346 Q 180 347 189 350 Q 282 389 427 405 Q 440 406 450 398 Q 457 392 454 380 Q 460 142 445 106 Q 441 97 431 99 Q 406 100 380 104 Q 358 104 375 91 Q 432 57 456 29 Q 471 14 484 28 Q 500 47 508 78 Q 517 111 502 285 Q 495 349 512 383 Q 524 401 518 407 Q 511 417 469 440 Q 454 449 420 437 Q 402 433 377 426 Q 325 419 164 380 C 135 373 144 337 173 346 Z" style="fill: #0070C0;"></path>
                                                                        <path d="M 234 314 Q 261 265 271 260 Q 277 259 282 265 Q 288 272 288 291 Q 288 312 240 341 Q 233 345 228 346 Q 224 345 223 337 Q 223 330 234 314 Z" style="fill: #0070C0;"></path>
                                                                        <path d="M 348 335 Q 345 320 327 281 Q 324 271 334 274 Q 355 290 379 314 Q 388 326 401 335 Q 413 345 404 353 Q 394 362 376 367 Q 360 371 352 368 Q 345 367 349 358 Q 353 348 348 335 Z" style="fill: #0070C0;"></path>
                                                                        <path d="M 325 215 Q 373 225 415 229 Q 437 233 429 245 Q 419 258 395 263 Q 373 267 334 257 Q 264 238 203 224 Q 187 221 206 206 Q 209 203 279 208 L 325 215 Z" style="fill: #0070C0;"></path>
                                                                        <path d="M 279 208 Q 273 76 294 58 Q 303 48 312 68 Q 336 122 325 215 C 322 245 280 238 279 208 Z" style="fill: #0070C0;"></path>
                                                                        <path d="M 586 506 Q 576 512 546 516 Q 536 519 532 514 Q 528 508 535 494 Q 562 442 578 354 Q 582 327 597 310 Q 613 291 618 305 Q 619 312 621 324 L 618 355 Q 612 371 597 475 C 593 503 593 503 586 506 Z" style="fill: #0070C0;"></path>
                                                                        <path d="M 861 394 Q 885 475 915 501 Q 931 519 916 536 Q 838 593 790 560 Q 762 551 737 540 L 691 527 Q 639 517 586 506 C 557 500 567 470 597 475 Q 610 476 623 481 Q 657 490 691 496 L 736 507 Q 811 528 823 517 Q 832 510 831 492 Q 824 441 814 399 C 807 370 852 365 861 394 Z" style="fill: #0070C0;"></path>
                                                                        <path d="M 733 344 Q 791 354 873 363 Q 883 364 884 373 Q 884 380 861 394 C 843 405 843 405 814 399 Q 771 390 734 379 L 692 369 Q 652 362 618 355 C 589 349 591 324 621 324 Q 625 323 636 325 Q 658 332 691 337 L 733 344 Z" style="fill: #0070C0;"></path>
                                                                        <path d="M 729 201 Q 730 274 733 344 L 734 379 Q 735 445 736 507 L 737 540 Q 737 634 757 721 Q 761 733 739 748 Q 702 767 677 770 Q 661 774 652 764 Q 645 757 653 741 Q 686 693 686 661 Q 689 597 691 527 L 691 496 Q 692 435 692 369 L 691 337 Q 690 267 686 190 C 685 160 729 171 729 201 Z" style="fill: #0070C0;"></path>
                                                                        <path d="M 839 230 Q 787 217 729 201 L 686 190 Q 637 180 586 167 Q 567 161 536 164 Q 523 163 521 154 Q 520 141 527 133 Q 548 117 579 97 Q 588 94 600 101 Q 646 132 807 191 Q 819 195 850 209 C 877 221 868 237 839 230 Z" style="fill: #0070C0;"></path>
                                                                        <path d="M 850 209 Q 916 82 918 79 Q 925 76 933 82 Q 946 89 948 127 Q 949 181 832 284 Q 826 290 821 281 Q 817 271 823 259 Q 830 246 839 230 L 850 209 Z" style="fill: #0070C0;"></path>
                                    
                                    
                                                                                                                                                                                                                                                                                                                                                                                                                                                                                                                                                                                                                                                                                                                                                                                                                                                                                                                                                                                                                                                                                                                                                                                                                                                                                                                                            </g>
                            </svg>