<svg width='83' height='83' >
                                <g transform="translate(3, 70) scale(0.07, -0.07)">
                                    <!-- 先将完整的字以灰色字体绘制完成，层级位于下面 -->
                                                                        <path d="M 139 490 Q 120 502 96 504 Q 85 504 83 501 Q 76 495 84 480 Q 108 431 122 353 Q 122 328 137 312 Q 157 285 163 318 Q 163 321 164 329 L 161 359 Q 151 429 149 461 C 147 485 147 485 139 490 Z" style="fill: #0070C0;"></path>
                                                                        <path d="M 365 390 Q 388 457 415 476 Q 429 493 416 509 Q 347 559 296 529 Q 282 526 270 519 L 223 507 Q 180 498 139 490 C 110 484 121 451 149 461 Q 172 470 223 478 L 269 488 Q 318 502 328 496 Q 330 496 332 494 Q 346 478 321 398 C 312 369 355 362 365 390 Z" style="fill: #0070C0;"></path>
                                                                        <path d="M 164 329 Q 172 327 204 335 L 221 338 L 265 345 Q 309 355 374 361 Q 384 362 385 370 Q 385 377 365 390 L 321 398 Q 310 398 265 382 L 223 372 L 161 359 C 132 353 134 330 164 329 Z" style="fill: #0070C0;"></path>
                                                                        <path d="M 221 338 Q 220 270 216 206 C 214 176 256 188 258 218 L 265 345 L 265 382 Q 266 431 269 488 L 270 519 Q 272 600 288 669 Q 294 690 290 698 Q 286 704 274 710 Q 212 748 190 729 Q 184 721 196 698 Q 214 664 218 652 Q 220 641 221 632 Q 221 571 223 507 L 223 478 Q 223 445 223 372 L 221 338 Z" style="fill: #0070C0;"></path>
                                                                        <path d="M 216 206 L 129 184 Q 114 179 86 180 Q 71 178 72 165 Q 73 157 79 149 Q 98 134 131 116 Q 141 112 153 121 Q 171 134 263 177 Q 319 204 349 220 C 376 234 367 249 338 241 Q 298 230 258 218 L 216 206 Z" style="fill: #0070C0;"></path>
                                                                        <path d="M 349 220 Q 374 172 384 169 Q 396 164 403 180 Q 407 190 408 206 Q 408 224 371 259 Q 341 286 329 287 Q 318 284 325 265 Q 331 254 338 241 L 349 220 Z" style="fill: #0070C0;"></path>
                                                                        <path d="M 759 708 Q 804 715 878 712 Q 919 710 926 716 Q 927 717 929 719 Q 932 728 921 741 Q 876 778 783 753 Q 780 753 779 752 L 727 742 Q 641 729 586 721 L 544 715 Q 495 711 443 704 Q 419 701 437 688 Q 466 667 523 676 Q 549 680 553 680 L 588 690 Q 641 702 717 705 L 759 708 Z" style="fill: #0070C0;"></path>
                                                                        <path d="M 586 721 Q 585 753 585 764 Q 586 780 568 786 Q 535 804 517 797 Q 502 790 515 772 Q 535 749 544 715 L 553 680 Q 557 650 573 631 Q 583 621 588 632 Q 592 649 588 690 L 586 721 Z" style="fill: #0070C0;"></path>
                                                                        <path d="M 779 752 Q 784 764 801 788 Q 808 800 802 808 Q 792 821 762 838 Q 751 847 733 839 Q 727 837 729 831 Q 733 809 733 798 Q 734 774 727 742 L 717 705 Q 704 666 704 643 Q 705 629 719 641 Q 732 653 759 708 L 779 752 Z" style="fill: #0070C0;"></path>
                                                                        <path d="M 796 411 L 796 412 L 811 468 L 832 515 Q 838 525 853 543 Q 864 557 859 566 Q 857 574 855 575 Q 798 621 759 608 L 684 584 L 641 575 Q 525 556 520 555 Q 506 554 507 545 Q 511 536 530 530 Q 549 524 580 531 L 641 545 L 680 553 Q 749 568 762 560 L 764 559 Q 774 551 770 504 L 764 466 Q 756 429 753 415 C 747 386 789 382 796 411 Z" style="fill: #0070C0;"></path>
                                                                        <path d="M 811 468 Q 864 472 899 472 Q 962 472 969 482 Q 973 492 958 504 Q 917 541 868 523 Q 850 517 832 515 L 770 504 Q 724 498 678 489 L 641 482 L 429 455 Q 411 453 424 437 Q 451 410 481 419 Q 484 419 486 420 L 641 453 L 676 458 Q 717 465 764 466 L 811 468 Z" style="fill: #0070C0;"></path>
                                                                        <path d="M 676 361 L 815 375 Q 823 376 824 384 Q 825 392 796 411 L 753 415 Q 743 417 676 398 L 639 390 Q 585 376 531 371 Q 513 369 519.5 356.5 Q 526 344 539 339 Q 545 337 572 341 Q 630 351 637 355 L 676 361 Z" style="fill: #0070C0;"></path>
                                                                        <path d="M 629 -35 Q 633 -55 639 -64.5 Q 645 -74 654 -67 Q 659 -62 662 -53 Q 678 -4 676 112 L 675 332 Q 676 347 676 361 L 676 398 L 676 458 L 678 489 Q 678 510 678 519 Q 678 543 680 553 L 684 584 L 692 619 Q 693 633 682 639 Q 645 662 632 662 Q 623 661 618 657 Q 611 651 616 640 L 629 617 Q 637 604 641 575 L 641 545 Q 641 508 641 482 L 641 453 L 639 390 L 637 355 Q 625 -14 629 -35 Z" style="fill: #0070C0;"></path>
                                                                        <path d="M 456 300 Q 482 255 459 140 Q 445 67 387 10 Q 382 4 372 -4 Q 347 -25 366 -25 Q 398 -26 441 18 Q 500 74 519 249 Q 525 292 523 294 Q 521 298 514 302 Q 472 324 461 322 Q 444 319 456 300 Z" style="fill: #0070C0;"></path>
                                                                        <path d="M 801 323 Q 843 221 811 -2 Q 806 -53 835 -84 Q 845 -94 853 -82 Q 877 -49 874 12 Q 870 20 868 184 Q 867 237 872 294 Q 874 316 868 321 Q 865 325 858 329 Q 827 349 814 349 Q 808 348 805 345 Q 795 337 801 323 Z" style="fill: #0070C0;"></path>
                                                                        <path d="M 564 263 Q 556 257 563 241 Q 570 233 558 164 Q 548 106 510 57 L 504 49 Q 503 43 507 43 L 509 43 Q 553 51 586 135 Q 601 171 612 225 Q 613 231 613 233 Q 599 253 581 259 Q 571 263 564 263 Z" style="fill: #0070C0;"></path>
                                                                        <path d="M 698 272 Q 695 265 703 249 L 745 170 Q 757 150 761 137 Q 770 118 780 111 Q 786 108 794 114 Q 807 122 808 157 Q 808 198 710 276 Q 702 281 698 272 Z" style="fill: #0070C0;"></path>
                                    
                                    
                                                                                                                                                                                                                                                                                                                                                                                                                                                                                                                                                                                                                                                                                                                                                                                                                                                                                                                                                                                                                                                                                                                                                                                                                                                                                                                                                                                                                        </g>
                            </svg>