<svg width='83' height='83' >
                                <g transform="translate(3, 70) scale(0.07, -0.07)">
                                    <!-- 先将完整的字以灰色字体绘制完成，层级位于下面 -->
                                                                        <path d="M 129 550 Q 117 554 102 556 Q 92 559 88 554 Q 84 548 91 534 Q 116 488 132 409 Q 135 385 149 370 Q 165 351 170 365 Q 171 374 173 386 L 170 415 Q 155 500 152 524 C 149 544 149 544 129 550 Z" style="fill: #0070C0;"></path>
                                                                        <path d="M 362 459 Q 384 526 408 542 Q 421 558 409 573 Q 342 621 287 590 Q 278 587 269 583 L 225 570 Q 179 560 129 550 C 100 544 122 521 152 524 Q 164 524 178 529 Q 200 535 226 540 L 269 550 Q 318 562 328 556 Q 340 544 319 459 C 312 430 352 431 362 459 Z" style="fill: #0070C0;"></path>
                                                                        <path d="M 266 405 Q 312 417 379 427 Q 389 428 389 437 Q 389 444 362 459 C 348 467 348 467 319 459 Q 318 459 316 458 Q 289 451 267 442 L 227 430 Q 196 423 170 415 C 141 406 143 384 173 386 Q 186 386 227 396 L 266 405 Z" style="fill: #0070C0;"></path>
                                                                        <path d="M 264 292 Q 265 350 266 405 L 267 442 Q 268 497 269 550 L 269 583 Q 269 646 287 753 Q 290 763 270 777 Q 236 795 212 798 Q 196 801 188 792 Q 181 785 189 770 Q 219 728 219 700 Q 223 637 225 570 L 226 540 Q 227 488 227 430 L 227 396 Q 226 341 224 280 C 223 250 263 262 264 292 Z" style="fill: #0070C0;"></path>
                                                                        <path d="M 348 318 Q 306 306 264 292 L 224 280 Q 176 268 129 254 Q 113 250 86 250 Q 74 249 72 240 Q 71 227 79 220 Q 100 205 129 188 Q 139 185 149 193 Q 171 211 329 283 Q 345 292 360 300 C 386 314 377 326 348 318 Z" style="fill: #0070C0;"></path>
                                                                        <path d="M 360 300 Q 385 261 396 258 Q 403 257 410 265 Q 416 275 415 297 Q 415 313 394 332 Q 343 369 332 366 Q 328 365 327 355 Q 327 351 348 318 L 360 300 Z" style="fill: #0070C0;"></path>
                                                                        <path d="M 588 816 Q 609 798 632 777 Q 644 767 657 769 Q 666 769 669 780 Q 673 793 664 817 Q 654 844 582 855 Q 569 856 564 855 Q 560 851 561 841 Q 565 832 588 816 Z" style="fill: #0070C0;"></path>
                                                                        <path d="M 725 710 Q 735 713 746 714 Q 788 723 794 728 Q 801 735 798 742 Q 792 752 768 759 Q 749 765 651 738 Q 527 719 493 715 Q 462 711 483 696 Q 519 678 582 687 Q 631 696 686 704 L 725 710 Z" style="fill: #0070C0;"></path>
                                                                        <path d="M 502 644 Q 532 581 552 573 Q 562 569 571 583 Q 575 593 571 611 Q 567 627 549 638 Q 524 660 511 665 Q 504 668 500 659 Q 497 652 502 644 Z" style="fill: #0070C0;"></path>
                                                                        <path d="M 685 578 Q 739 650 747 658 Q 760 668 753 679 Q 746 692 725 710 C 702 730 682 734 686 704 Q 692 680 662 597 Q 655 584 653 572 C 647 543 667 554 685 578 Z" style="fill: #0070C0;"></path>
                                                                        <path d="M 653 572 Q 646 572 639 570 Q 542 554 427 536 Q 408 535 422 519 Q 435 507 451 502 Q 470 498 484 502 Q 641 548 882 548 Q 900 549 904 557 Q 908 567 893 579 Q 839 616 784 598 Q 742 591 685 578 L 653 572 Z" style="fill: #0070C0;"></path>
                                                                        <path d="M 501 457 Q 491 461 470 464 Q 460 467 456 462 Q 452 456 459 442 Q 484 393 500 314 Q 503 290 517 274 Q 533 255 538 269 Q 541 278 541 289 L 539 312 Q 538 316 538 321 Q 534 343 531 360 L 527 380 Q 521 414 520 428 C 518 451 518 451 501 457 Z" style="fill: #0070C0;"></path>
                                                                        <path d="M 694 303 Q 707 281 721 274 Q 730 267 744 285 Q 754 301 782 387 Q 789 414 811 435 Q 823 445 813 458 Q 800 474 764 498 Q 749 505 683 491 Q 674 491 577 472 Q 534 463 501 457 C 472 452 491 419 520 428 Q 519 429 522 429 Q 585 447 698 462 Q 722 466 730 457 Q 739 447 736 437 Q 721 364 707 333 C 696 305 693 304 694 303 Z" style="fill: #0070C0;"></path>
                                                                        <path d="M 531 360 Q 535 359 544 360 Q 620 373 677 380 Q 696 383 689 394 Q 680 406 659 410 Q 632 413 527 380 C 498 371 501 363 531 360 Z" style="fill: #0070C0;"></path>
                                                                        <path d="M 634 297 Q 664 301 694 303 C 724 305 734 320 707 333 Q 706 334 700 336 Q 678 342 539 312 C 510 306 511 288 541 289 Q 547 289 581 292 L 634 297 Z" style="fill: #0070C0;"></path>
                                                                        <path d="M 657 173 Q 723 179 904 179 Q 922 179 927 187 Q 931 197 916 211 Q 862 251 804 234 Q 744 224 658 208 L 600 200 Q 492 188 368 173 Q 349 172 362 155 Q 375 142 392 137 Q 411 131 427 136 Q 508 157 601 167 L 657 173 Z" style="fill: #0070C0;"></path>
                                                                        <path d="M 608 -25 Q 612 -49 619 -57 Q 623 -64 631 -62 Q 655 -44 655 72 Q 654 97 657 173 L 658 208 Q 658 224 665 259 Q 668 275 655 284 Q 643 291 634 297 C 609 313 567 318 581 292 Q 581 291 590 276 Q 596 269 600 200 L 601 167 Q 607 -20 608 -25 Z" style="fill: #0070C0;"></path>
                                    
                                    
                                                                                                                                                                                                                                                                                                                                                                                                                                                                                                                                                                                                                                                                                                                                                                                                                                                                                                                                                                                                                                                                                                                                                                                                                                                                                                                                                                                                                        </g>
                            </svg>