<svg width='83' height='83' >
                                <g transform="translate(3, 70) scale(0.07, -0.07)">
                                    <!-- 先将完整的字以灰色字体绘制完成，层级位于下面 -->
                                                                        <path d="M 143 535 Q 133 539 106 544 Q 96 547 92 542 Q 88 536 95 522 Q 120 473 136 394 Q 139 370 153 354 Q 169 335 174 349 Q 177 358 177 372 L 173 403 Q 158 482 156 508 C 154 531 154 531 143 535 Z" style="fill: #0070C0;"></path>
                                                                        <path d="M 233 555 Q 188 545 143 535 C 114 528 128 498 156 508 Q 168 514 234 528 L 276 538 Q 291 542 309 547 Q 327 551 334 545 Q 341 538 341 522 Q 334 474 323 435 C 315 406 357 405 365 434 Q 384 507 413 531 Q 426 547 414 561 Q 350 606 300 578 Q 287 574 276 568 L 233 555 Z" style="fill: #0070C0;"></path>
                                                                        <path d="M 177 372 Q 184 371 196 373 Q 212 377 235 380 L 274 387 Q 319 394 381 400 Q 391 401 392 409 Q 392 416 365 434 C 357 440 353 439 323 435 Q 322 436 320 435 Q 295 429 274 423 L 235 414 Q 201 408 173 403 C 143 398 147 373 177 372 Z" style="fill: #0070C0;"></path>
                                                                        <path d="M 276 568 Q 276 652 294 718 Q 297 728 277 742 Q 243 758 221 762 Q 205 765 198 757 Q 191 750 199 736 Q 227 696 228 668 Q 231 613 233 555 L 234 528 Q 235 473 235 414 L 235 380 Q 234 323 233 263 C 232 233 271 245 272 275 Q 273 332 274 387 L 274 423 Q 275 481 276 538 L 276 568 Z" style="fill: #0070C0;"></path>
                                                                        <path d="M 233 263 Q 182 250 130 233 Q 114 229 89 228 Q 76 227 75 217 Q 74 204 82 197 Q 104 182 136 165 Q 146 162 157 171 Q 175 186 323 262 Q 339 271 353 281 C 378 298 372 307 343 298 Q 309 288 272 275 L 233 263 Z" style="fill: #0070C0;"></path>
                                                                        <path d="M 353 281 Q 377 230 388 225 Q 395 222 402 229 Q 409 236 411 258 Q 412 288 346 344 Q 337 350 332 350 Q 328 349 326 340 Q 323 331 343 298 L 353 281 Z" style="fill: #0070C0;"></path>
                                                                        <path d="M 715 697 Q 766 706 836 703 Q 849 702 852 711 Q 856 720 845 731 Q 802 762 732 742 L 679 730 Q 627 721 569 709 L 528 702 Q 477 695 427 686 Q 403 682 420 670 Q 454 651 523 666 Q 527 667 535 669 L 572 678 Q 597 687 673 692 L 715 697 Z" style="fill: #0070C0;"></path>
                                                                        <path d="M 569 709 Q 568 740 566 765 Q 567 781 550 787 Q 516 805 496 799 Q 480 792 493 774 Q 518 741 528 702 L 535 669 Q 538 630 556 606 Q 568 597 572 607 Q 576 623 572 678 L 569 709 Z" style="fill: #0070C0;"></path>
                                                                        <path d="M 732 742 Q 738 758 750 779 Q 762 792 752 802 Q 740 815 709 830 Q 694 837 679 830 Q 669 824 677 814 Q 689 792 679 730 L 673 692 Q 660 647 662 626 Q 663 613 678 624 Q 684 630 715 697 L 732 742 Z" style="fill: #0070C0;"></path>
                                                                        <path d="M 476 572 Q 464 576 443 579 Q 433 582 430 577 Q 426 573 433 559 Q 457 514 473 441 Q 477 419 490 405 Q 506 387 510 401 Q 511 411 512 425 L 509 447 Q 497 519 491 544 Q 491 545 492 546 C 492 567 492 567 476 572 Z" style="fill: #0070C0;"></path>
                                                                        <path d="M 718 453 Q 731 431 745 423 Q 752 416 767 433 Q 776 445 800 516 Q 807 541 828 561 Q 838 571 830 583 Q 818 596 783 619 Q 768 628 690 610 Q 681 610 476 572 C 447 567 463 538 492 546 Q 517 553 551 560 L 568 563 Q 602 570 645 578 L 669 581 Q 736 596 752 582 Q 759 573 757 565 Q 742 484 730 476 C 717 455 717 455 718 453 Z" style="fill: #0070C0;"></path>
                                                                        <path d="M 592 462 Q 583 507 575 552 Q 572 559 568 563 C 548 586 547 588 551 560 Q 554 541 555 520 Q 558 472 573 458 C 594 436 598 433 592 462 Z" style="fill: #0070C0;"></path>
                                                                        <path d="M 660 476 Q 661 479 663 482 Q 690 542 694 548 Q 703 557 696 563 Q 689 573 669 581 C 641 593 638 594 645 578 Q 645 577 648 572 Q 657 554 639 480 Q 638 476 637 471 C 631 442 648 449 660 476 Z" style="fill: #0070C0;"></path>
                                                                        <path d="M 512 425 Q 518 425 527 426 Q 636 442 718 453 C 748 457 757 462 730 476 Q 724 480 715 482 Q 684 488 660 476 L 637 471 Q 613 468 592 462 L 573 458 Q 539 455 509 447 C 480 440 482 424 512 425 Z" style="fill: #0070C0;"></path>
                                                                        <path d="M 674 314 Q 702 321 732 326 Q 772 336 779 341 Q 786 348 782 355 Q 776 364 753 370 Q 731 374 670 354 L 621 340 Q 533 324 500 318 C 470 313 471 295 501 290 Q 514 284 601 300 Q 614 303 631 305 L 674 314 Z" style="fill: #0070C0;"></path>
                                                                        <path d="M 500 318 Q 499 319 497 320 Q 482 330 470 334 Q 451 344 436 337 Q 426 333 431 321 Q 458 281 436 173 Q 409 77 342 28 Q 330 18 318 8 Q 308 1 318 -2 Q 396 8 451 100 Q 454 106 457 111 Q 482 169 488 214 Q 495 280 501 290 C 508 313 508 313 500 318 Z" style="fill: #0070C0;"></path>
                                                                        <path d="M 527 191 Q 576 142 582 140 Q 589 140 594 149 Q 598 159 594 179 Q 591 194 571 206 Q 523 230 512 226 Q 508 225 508 215 Q 509 208 527 191 Z" style="fill: #0070C0;"></path>
                                                                        <path d="M 717 107 Q 759 37 833 -9 Q 897 -40 915 -26 Q 930 -17 922 13 Q 915 43 911 149 Q 911 167 906 170 Q 903 171 899 155 Q 874 70 856 54 Q 849 50 827 64 Q 772 100 747 141 L 723 182 Q 692 239 674 314 L 670 354 Q 669 370 672 380 Q 676 402 639 417 Q 609 430 595 425 Q 579 421 591 401 Q 613 373 621 340 L 631 305 Q 656 220 696 142 L 717 107 Z" style="fill: #0070C0;"></path>
                                                                        <path d="M 696 142 Q 686 132 676 119 Q 649 88 581 26 Q 574 22 583 19 Q 643 34 717 107 L 747 141 Q 777 177 820 240 Q 836 264 837 267 Q 836 276 825 286 Q 797 311 769 307 Q 762 306 763 295 Q 769 259 726 186 Q 725 185 723 182 L 696 142 Z" style="fill: #0070C0;"></path>
                                                                        <path d="M 816 406 Q 837 384 859 356 Q 868 346 880 344 Q 887 343 893 353 Q 899 363 895 387 Q 891 415 817 444 Q 805 448 800 446 Q 796 445 796 434 Q 797 425 816 406 Z" style="fill: #0070C0;"></path>
                                    
                                    
                                                                                                                                                                                                                                                                                                                                                                                                                                                                                                                                                                                                                                                                                                                                                                                                                                                                                                                                                                                                                                                                                                                                                                                                                                                                                                                                                                                                                                                                                                                                                                                                                                                            </g>
                            </svg>