<svg width='83' height='83' >
                                <g transform="translate(3, 70) scale(0.07, -0.07)">
                                    <!-- 先将完整的字以灰色字体绘制完成，层级位于下面 -->
                                                                        <path d="M 116 514 Q 104 518 86 520 Q 76 523 72 518 Q 68 512 75 498 Q 100 449 116 370 Q 119 346 133 330 Q 149 311 154 325 Q 158 335 157 353 L 152 385 Q 137 467 136 488 C 134 509 134 509 116 514 Z" style="fill: #0070C0;"></path>
                                                                        <path d="M 358 416 Q 379 489 405 511 Q 418 527 406 541 Q 393 551 348 571 Q 332 577 262 547 L 217 534 Q 168 524 116 514 C 87 508 107 481 136 488 Q 197 503 218 507 L 262 518 Q 278 522 299 527 Q 318 533 326 525 Q 336 515 319 428 C 313 399 349 387 358 416 Z" style="fill: #0070C0;"></path>
                                                                        <path d="M 260 374 Q 303 384 362 391 Q 372 392 373 401 Q 373 407 358 416 L 319 428 Q 300 427 260 412 L 219 401 Q 183 392 152 385 C 123 378 127 349 157 353 Q 161 353 168 355 Q 187 361 218 366 L 260 374 Z" style="fill: #0070C0;"></path>
                                                                        <path d="M 257 245 Q 258 311 260 374 L 260 412 Q 261 466 262 518 L 262 547 Q 262 616 280 723 Q 284 735 263 749 Q 227 767 202 770 Q 186 773 178 764 Q 171 757 180 741 Q 210 698 211 668 Q 215 604 217 534 L 218 507 Q 219 456 219 401 L 218 366 Q 217 302 215 233 C 214 203 257 215 257 245 Z" style="fill: #0070C0;"></path>
                                                                        <path d="M 332 268 Q 295 258 257 245 L 215 233 Q 163 220 110 204 Q 94 200 66 200 Q 53 199 52 189 Q 49 176 58 169 Q 80 153 111 136 Q 121 133 133 141 Q 160 163 316 234 Q 331 241 343 249 C 368 265 361 276 332 268 Z" style="fill: #0070C0;"></path>
                                                                        <path d="M 343 249 Q 370 197 380 192 Q 387 191 394 197 Q 401 206 402 226 Q 403 260 334 312 Q 325 318 320 318 Q 316 317 314 308 Q 314 299 332 268 L 343 249 Z" style="fill: #0070C0;"></path>
                                                                        <path d="M 467 797 Q 466 798 465 799 Q 446 811 435 807 Q 431 803 435 795 Q 456 717 443 643 Q 436 607 458 579 Q 465 572 472 579 Q 475 583 477 589 L 480 613 Q 480 632 480 653 L 480 675 Q 480 694 480 710 L 480 733 Q 480 764 481 768 Q 482 775 481 780 C 481 787 481 787 467 797 Z" style="fill: #0070C0;"></path>
                                                                        <path d="M 571 604 Q 572 601 575 597 Q 585 578 591 579 Q 600 580 610 601 Q 620 619 618 632 Q 599 750 622 787 Q 629 797 623 804 Q 604 820 572 831 Q 562 835 547 828 Q 514 810 467 797 C 438 789 451 775 481 780 Q 490 780 525 791 Q 553 801 562 798 Q 568 785 571 751 Q 575 651 571 628 L 571 604 Z" style="fill: #0070C0;"></path>
                                                                        <path d="M 480 710 Q 517 720 548 723 Q 563 727 557 735 Q 550 744 532 746 Q 504 749 480 733 C 455 717 451 702 480 710 Z" style="fill: #0070C0;"></path>
                                                                        <path d="M 480 653 Q 520 660 551 664 Q 567 667 561 675 Q 554 685 537 687 Q 510 690 480 675 C 453 662 450 648 480 653 Z" style="fill: #0070C0;"></path>
                                                                        <path d="M 477 589 Q 478 589 481 589 Q 532 599 571 604 C 601 608 598 616 571 628 Q 565 631 557 632 Q 541 633 480 613 C 451 604 447 589 477 589 Z" style="fill: #0070C0;"></path>
                                                                        <path d="M 677 821 Q 673 825 665 827 Q 659 828 652 826 Q 648 823 651 815 Q 675 739 662 658 Q 655 624 678 595 Q 685 588 692 595 Q 695 599 696 604 L 699 626 Q 699 650 698 673 L 698 695 Q 697 717 697 734 L 697 755 Q 697 785 697 788 Q 698 797 697 802 C 697 808 697 808 677 821 Z" style="fill: #0070C0;"></path>
                                                                        <path d="M 790 613 Q 791 612 793 608 Q 803 586 810 587 Q 820 588 833 612 Q 845 631 843 648 Q 828 771 851 803 Q 858 815 852 822 Q 833 838 799 852 Q 792 855 730 832 Q 700 825 677 821 C 647 816 667 797 697 802 Q 706 802 743 813 Q 774 822 782 818 Q 788 805 791 769 Q 794 663 788 642 Q 787 642 787 641 C 783 626 783 626 790 613 Z" style="fill: #0070C0;"></path>
                                                                        <path d="M 697 734 Q 740 743 772 748 Q 787 751 781 759 Q 774 769 756 770 Q 726 773 697 755 C 671 739 668 728 697 734 Z" style="fill: #0070C0;"></path>
                                                                        <path d="M 698 673 Q 738 680 771 684 Q 787 687 781 695 Q 774 705 757 707 Q 733 710 698 695 C 670 683 668 668 698 673 Z" style="fill: #0070C0;"></path>
                                                                        <path d="M 696 604 Q 697 604 702 604 Q 751 610 790 613 C 820 615 815 631 787 641 Q 787 642 785 642 Q 757 646 699 626 C 671 616 666 604 696 604 Z" style="fill: #0070C0;"></path>
                                                                        <path d="M 489 468 Q 517 508 532 525 Q 539 535 536 541 Q 532 551 512 554 Q 490 558 482 555 Q 476 554 475 543 Q 475 498 378 390 Q 365 377 384 382 Q 408 385 472 448 L 489 468 Z" style="fill: #0070C0;"></path>
                                                                        <path d="M 517 300 Q 518 307 518 312 Q 517 394 519 414 Q 523 433 497 461 Q 493 465 489 468 C 466 487 462 476 472 448 Q 471 448 472 447 Q 491 407 472 313 Q 462 283 488 249 L 489 248 Q 501 238 508 255 Q 512 267 514 278 L 517 300 Z" style="fill: #0070C0;"></path>
                                                                        <path d="M 623 579 Q 644 546 665 545 Q 675 544 680 559 Q 681 569 672 585 Q 660 600 625 600 Q 618 601 618 592 Q 617 585 623 579 Z" style="fill: #0070C0;"></path>
                                                                        <path d="M 682 506 Q 713 513 749 519 Q 777 525 782 528 Q 789 534 786 540 Q 782 547 761 554 Q 740 558 719 551 Q 685 541 649 533 Q 609 526 562 522 Q 537 518 554 506 Q 575 491 642 500 L 682 506 Z" style="fill: #0070C0;"></path>
                                                                        <path d="M 692 435 Q 729 442 765 446 Q 783 447 776 458 Q 769 470 749 474 Q 731 477 699 469 Q 696 469 694 468 L 648 457 Q 608 450 570 441 Q 557 440 572 427 Q 579 421 648 429 L 692 435 Z" style="fill: #0070C0;"></path>
                                                                        <path d="M 688 368 Q 733 375 772 378 Q 791 379 784 390 Q 777 402 757 407 Q 724 413 690 399 L 648 391 Q 603 384 566 377 Q 553 376 568 362 Q 578 355 599 357 Q 624 361 649 363 L 688 368 Z" style="fill: #0070C0;"></path>
                                                                        <path d="M 686 324 Q 687 348 688 368 L 690 399 Q 690 418 692 435 L 694 468 Q 694 493 682 506 C 664 530 639 530 642 500 Q 642 497 648 457 L 648 429 Q 648 413 648 391 L 649 363 Q 649 344 650 319 C 651 289 685 294 686 324 Z" style="fill: #0070C0;"></path>
                                                                        <path d="M 650 319 Q 587 312 517 300 C 487 295 486 287 514 278 Q 538 269 554 272 Q 647 299 840 298 Q 855 298 858 304 Q 862 311 850 322 Q 810 352 745 335 Q 718 331 686 324 L 650 319 Z" style="fill: #0070C0;"></path>
                                                                        <path d="M 677 78 Q 713 115 745 169 Q 760 194 780 210 Q 799 223 789 237 Q 779 250 749 264 Q 731 273 657 249 Q 582 230 507 221 Q 494 220 489 214 Q 485 207 503 199 Q 539 186 587 199 Q 668 224 682 223 Q 698 220 692 203 Q 673 145 638 104 L 607 76 Q 538 25 410 -1 Q 395 -4 406 -13 Q 412 -17 455 -15 Q 510 -11 573 13 Q 607 26 638 45 L 677 78 Z" style="fill: #0070C0;"></path>
                                                                        <path d="M 638 45 Q 749 -55 803 -56 Q 804 -55 807 -55 Q 889 -48 955 -32 Q 965 -28 968 -20 Q 971 -13 952 -12 Q 907 -2 858 4 Q 779 16 677 78 L 638 104 Q 560 182 488 167 Q 479 163 484 155 Q 488 148 499 147 Q 535 147 607 76 L 638 45 Z" style="fill: #0070C0;"></path>
                                    
                                    
                                                                                                                                                                                                                                                                                                                                                                                                                                                                                                                                                                                                                                                                                                                                                                                                                                                                                                                                                                                                                                                                                                                                                                                                                                                                                                                                                                                                                                                                                                                                                                                                                                                                                                                                                                                                                                                                                                                                                                                                                                                                                                                                    </g>
                            </svg>