<svg width='83' height='83' >
                                <g transform="translate(3, 70) scale(0.07, -0.07)">
                                    <!-- 先将完整的字以灰色字体绘制完成，层级位于下面 -->
                                                                        <path d="M 302 819 Q 312 786 243 697 Q 210 657 166 611 Q 156 604 153 598 Q 149 588 161 589 Q 207 589 328 714 Q 349 744 372 758 Q 382 767 380 780 Q 379 792 355 817 Q 333 838 315 840 Q 297 840 302 819 Z" style="fill: #0070C0;"></path>
                                                                        <path d="M 264 417 Q 366 550 368 553 Q 368 557 367 560 Q 364 573 338 596 Q 314 615 296 617 Q 278 617 284 595 Q 294 565 282 542 Q 210 403 57 245 Q 47 236 44 230 Q 40 220 53 221 Q 95 227 237 384 L 264 417 Z" style="fill: #0070C0;"></path>
                                                                        <path d="M 237 384 Q 268 324 238 148 Q 213 66 254 23 Q 270 8 282 33 Q 295 72 295 115 Q 296 301 303 343 Q 310 368 301 378 Q 270 415 264 417 C 241 436 225 412 237 384 Z" style="fill: #0070C0;"></path>
                                                                        <path d="M 540 604 Q 570 614 603 622 Q 628 629 633 634 Q 640 641 636 650 Q 629 660 601 664 Q 573 668 547 654 Q 544 653 544 652 L 494 634 Q 488 633 486 632 Q 452 622 409 615 Q 376 606 402 593 Q 441 575 494 591 L 540 604 Z" style="fill: #0070C0;"></path>
                                                                        <path d="M 533 517 Q 536 562 540 604 L 544 652 Q 548 734 564 785 Q 567 795 548 809 Q 515 828 493 832 Q 477 835 470 827 Q 463 820 470 806 Q 489 781 489 762 Q 493 701 494 634 L 494 591 Q 494 551 493 505 C 492 475 531 487 533 517 Z" style="fill: #0070C0;"></path>
                                                                        <path d="M 510 470 Q 547 480 650 501 Q 660 500 667 512 Q 667 522 646 531 Q 613 546 533 517 L 493 505 Q 453 495 416 487 Q 385 481 350 474 Q 325 470 345 455 Q 378 434 411 445 Q 441 454 478 461 L 510 470 Z" style="fill: #0070C0;"></path>
                                                                        <path d="M 540 338 Q 627 368 629 368 Q 636 375 631 382 Q 624 392 599 396 Q 559 400 543 385 C 520 368 520 368 492 364 Q 485 364 480 361 Q 440 349 393 341 Q 362 334 386 320 Q 425 304 470 318 Q 480 321 492 324 L 540 338 Z" style="fill: #0070C0;"></path>
                                                                        <path d="M 533 236 Q 536 291 540 338 L 543 385 Q 543 400 545 417 Q 552 433 544 443 Q 526 461 510 470 C 484 486 467 489 478 461 Q 488 443 492 364 L 492 324 Q 492 285 492 227 C 492 197 531 206 533 236 Z" style="fill: #0070C0;"></path>
                                                                        <path d="M 492 227 Q 372 203 348 204 Q 336 203 334 194 Q 331 181 339 173 Q 360 157 390 137 Q 400 133 412 141 Q 442 163 602 224 Q 624 233 640 244 Q 653 251 654 259 Q 650 265 637 263 Q 588 250 533 236 L 492 227 Z" style="fill: #0070C0;"></path>
                                                                        <path d="M 681 654 Q 642 641 673 628 Q 715 612 796 637 Q 829 647 865 659 Q 884 666 887 670 Q 896 680 889 688 Q 879 700 848 703 Q 821 704 742 670 Q 712 661 681 654 Z" style="fill: #0070C0;"></path>
                                                                        <path d="M 787 458 Q 806 468 937 475 Q 976 475 981 485 Q 985 495 970 507 Q 916 540 864 521 Q 719 485 642 469 Q 623 465 638 451 Q 668 430 703 439 Q 718 445 739 448 L 787 458 Z" style="fill: #0070C0;"></path>
                                                                        <path d="M 701 59 Q 679 63 652 68 Q 640 71 641 64 Q 642 57 653 47 Q 714 1 757 -39 Q 769 -49 783 -32 Q 816 22 816 112 Q 806 265 815 399 Q 822 426 816 436 Q 809 446 787 458 C 761 474 727 476 739 448 Q 751 436 753 353 Q 753 271 755 107 Q 754 71 743 58 Q 731 51 701 59 Z" style="fill: #0070C0;"></path>
                                    
                                    
                                                                                                                                                                                                                                                                                                                                                                                                                                                                                                                                                                                                                                                                                                                                                                                                                                                                                                                                                                                                                            </g>
                            </svg>