<svg width='83' height='83' >
                                <g transform="translate(3, 70) scale(0.07, -0.07)">
                                    <!-- 先将完整的字以灰色字体绘制完成，层级位于下面 -->
                                                                        <path d="M 446 797 Q 483 770 523 738 Q 539 725 557 728 Q 567 729 572 744 Q 576 760 564 792 Q 546 832 436 848 Q 418 851 412 847 Q 406 843 409 829 Q 415 817 446 797 Z" style="fill: #0070C0;"></path>
                                                                        <path d="M 439 587 Q 550 609 667 630 Q 752 649 766 660 Q 776 669 771 678 Q 764 691 731 701 Q 697 708 662 696 Q 445 624 200 601 Q 160 595 188 576 Q 239 546 298 561 Q 343 570 390 578 L 439 587 Z" style="fill: #0070C0;"></path>
                                                                        <path d="M 441 504 Q 450 516 458 523 Q 467 533 461 550 Q 451 574 439 587 C 421 611 392 608 390 578 Q 396 482 146 257 Q 56 185 56 181 Q 56 175 62 175 Q 92 175 182 238 Q 183 241 187 242 Q 250 287 337 379 L 360 404 Q 385 435 408 463 Q 415 475 424 484 L 441 504 Z" style="fill: #0070C0;"></path>
                                                                        <path d="M 337 379 Q 356 342 356 307 Q 359 168 349 122 Q 343 91 330 72 Q 315 48 325 24 Q 338 -10 356 -24 Q 368 -33 382 -12 Q 419 37 547 156 Q 566 172 567 181 Q 568 196 546 183 Q 494 152 437 118 Q 416 105 407 109 Q 400 113 399 134 Q 403 299 413 340 Q 417 362 403 374 Q 381 398 360 404 C 333 416 325 406 337 379 Z" style="fill: #0070C0;"></path>
                                                                        <path d="M 594 338 Q 595 339 596 339 Q 708 430 764 466 Q 783 472 779 484 Q 772 502 750 522 Q 728 541 702 543 Q 686 542 688 520 Q 691 505 681 487 Q 647 435 580 352 C 561 329 570 320 594 338 Z" style="fill: #0070C0;"></path>
                                                                        <path d="M 580 352 Q 534 406 482 472 Q 466 494 441 504 C 414 518 401 503 424 484 Q 460 463 553 318 Q 610 234 716 128 Q 743 104 837 110 Q 922 116 941 122 Q 950 129 936 140 Q 920 150 783 200 Q 699 228 594 338 L 580 352 Z" style="fill: #0070C0;"></path>
                                    
                                    
                                                                                                                                                                                                                                                                                                                                                                                                                                                                                                                                                    </g>
                            </svg>