<svg width='83' height='83' >
                                <g transform="translate(3, 70) scale(0.07, -0.07)">
                                    <!-- 先将完整的字以灰色字体绘制完成，层级位于下面 -->
                                                                        <path d="M 341 739 Q 372 717 404 688 Q 417 676 434 678 Q 444 679 449 692 Q 453 708 442 737 Q 429 771 334 787 Q 318 790 312 787 Q 308 783 309 770 Q 313 760 341 739 Z" style="fill: #0070C0;"></path>
                                                                        <path d="M 295 346 Q 331 392 372 453 Q 406 507 452 541 Q 467 551 455 567 Q 436 582 407 592 Q 385 601 368 589 Q 278 523 126 517 Q 114 518 112 511 Q 109 501 123 491 Q 159 467 191 472 Q 215 481 328 529 Q 347 536 351 529 Q 357 520 344 498 Q 268 353 100 195 Q 85 185 88 181 Q 91 178 104 183 Q 176 217 271 318 L 295 346 Z" style="fill: #0070C0;"></path>
                                                                        <path d="M 271 318 Q 307 234 272 72 Q 262 30 291 -12 Q 292 -15 295 -17 Q 311 -32 322 -7 Q 335 30 335 71 Q 334 234 338 270 Q 345 295 336 304 Q 306 340 295 346 C 271 364 260 346 271 318 Z" style="fill: #0070C0;"></path>
                                                                        <path d="M 390 353 Q 439 389 464 402 Q 477 406 473 414 Q 469 424 454 437 Q 441 450 424 450 Q 414 450 415 436 Q 416 421 375 359 C 358 334 366 335 390 353 Z" style="fill: #0070C0;"></path>
                                                                        <path d="M 375 359 Q 356 368 348 366 Q 344 365 345 355 Q 346 348 363 331 Q 388 307 415 278 Q 424 269 434 268 Q 441 268 446 277 Q 450 287 445 307 Q 442 325 417 341 Q 404 348 390 353 L 375 359 Z" style="fill: #0070C0;"></path>
                                                                        <path d="M 697 197 Q 763 311 798 459 Q 804 496 823 516 Q 839 532 819 547 Q 797 563 760 574 Q 738 581 716 567 Q 640 528 534 513 Q 507 509 496 502 Q 487 495 506 485 Q 533 472 573 487 Q 642 503 709 520 Q 733 527 734 501 Q 734 455 714 368 Q 695 295 658 236 L 631 196 Q 630 193 627 190 Q 564 118 403 59 Q 388 53 399 46 Q 406 42 436 48 Q 589 72 664 153 L 697 197 Z" style="fill: #0070C0;"></path>
                                                                        <path d="M 664 153 Q 761 27 786 21 Q 822 12 945 25 Q 963 26 970 34 Q 974 41 963 45 Q 786 108 701 193 Q 698 196 697 197 L 658 236 Q 606 293 545 369 Q 533 388 514 391 Q 486 392 478 383 Q 475 377 484 371 Q 521 349 546 312 Q 589 251 631 196 L 664 153 Z" style="fill: #0070C0;"></path>
                                                                        <path d="M 576 431 Q 600 413 625 390 Q 635 381 646 382 Q 653 383 657 392 Q 661 404 654 425 Q 645 449 572 466 Q 560 469 556 466 Q 552 463 554 454 Q 557 447 576 431 Z" style="fill: #0070C0;"></path>
                                    
                                    
                                                                                                                                                                                                                                                                                                                                                                                                                                                                                                                                                                                                                                                                                                            </g>
                            </svg>