<svg width='83' height='83' >
                                <g transform="translate(3, 70) scale(0.07, -0.07)">
                                    <!-- 先将完整的字以灰色字体绘制完成，层级位于下面 -->
                                                                        <path d="M 325 766 Q 355 741 387 710 Q 403 694 422 696 Q 435 697 440 713 Q 446 731 434 765 Q 427 787 392 803 Q 311 831 292 824 Q 286 820 288 803 Q 292 790 325 766 Z" style="fill: #0070C0;"></path>
                                                                        <path d="M 311 374 Q 341 416 374 465 Q 411 526 464 564 Q 480 577 467 592 Q 448 608 416 619 Q 394 629 375 617 Q 285 551 116 537 Q 103 538 100 530 Q 97 518 113 508 Q 155 481 187 486 Q 202 490 332 549 Q 351 556 356 549 Q 362 539 347 514 Q 262 352 68 171 Q 53 161 56 157 Q 59 154 72 159 Q 172 207 284 340 L 311 374 Z" style="fill: #0070C0;"></path>
                                                                        <path d="M 284 340 Q 314 277 284 102 Q 266 51 303 2 Q 304 2 306 -1 Q 322 -16 334 9 Q 347 48 347 91 Q 343 263 347 303 Q 354 328 345 338 Q 335 350 311 374 C 290 395 273 368 284 340 Z" style="fill: #0070C0;"></path>
                                                                        <path d="M 445 366 Q 499 417 528 437 Q 541 441 537 450 Q 510 486 481 484 Q 471 483 472 468 Q 476 458 471 445 Q 456 417 429 371 C 414 345 423 345 445 366 Z" style="fill: #0070C0;"></path>
                                                                        <path d="M 429 371 Q 396 381 388 379 Q 384 375 385 365 Q 388 358 409 341 Q 434 320 462 295 Q 472 285 485 286 Q 494 286 497 297 Q 501 307 494 331 Q 485 358 445 366 L 429 371 Z" style="fill: #0070C0;"></path>
                                                                        <path d="M 753 789 Q 763 734 663 613 Q 660 612 659 609 Q 631 578 558 516 Q 549 512 560 508 Q 614 508 720 605 Q 721 608 725 610 Q 779 673 833 737 Q 840 741 840 753 Q 839 763 826 776 Q 793 809 761 804 Q 752 803 753 789 Z" style="fill: #0070C0;"></path>
                                                                        <path d="M 761 556 Q 765 466 573 310 Q 563 304 554 295 Q 545 291 556 287 Q 605 287 717 377 Q 718 380 722 382 Q 759 416 820 490 Q 829 500 834 504 Q 841 508 841 518 Q 838 545 799 562 Q 780 569 769 569 Q 760 568 761 556 Z" style="fill: #0070C0;"></path>
                                                                        <path d="M 790 341 Q 793 251 643 98 Q 633 91 624 81 Q 576 36 459 -47 Q 449 -51 460 -56 Q 518 -56 654 42 Q 748 121 856 257 Q 869 272 876 278 Q 886 282 885 295 Q 881 328 835 348 Q 813 358 799 357 Q 789 356 790 341 Z" style="fill: #0070C0;"></path>
                                    
                                    
                                                                                                                                                                                                                                                                                                                                                                                                                                                                                                                                                                                                                                                                                                            </g>
                            </svg>