<svg width='83' height='83' >
                                <g transform="translate(3, 70) scale(0.07, -0.07)">
                                    <!-- 先将完整的字以灰色字体绘制完成，层级位于下面 -->
                                                                        <path d="M 497 818 Q 522 802 548 780 Q 564 770 579 772 Q 589 773 593 788 Q 596 804 583 832 Q 568 862 485 865 Q 469 866 464 863 Q 460 859 462 846 Q 468 836 497 818 Z" style="fill: #0070C0;"></path>
                                                                        <path d="M 273 708 Q 245 705 266 688 Q 294 660 327 667 Q 528 707 772 735 Q 782 734 792 746 Q 793 758 771 768 Q 740 792 663 769 Q 464 727 393 720 Q 335 716 273 708 Z" style="fill: #0070C0;"></path>
                                                                        <path d="M 380 612 Q 367 616 341 620 Q 329 623 327 617 Q 321 611 329 597 Q 348 560 363 507 L 370 477 Q 388 405 400 390 Q 418 371 422 385 Q 423 392 425 399 L 425 420 Q 421 459 413 484 L 407 512 Q 398 560 395 580 C 390 609 390 609 380 612 Z" style="fill: #0070C0;"></path>
                                                                        <path d="M 576 415 Q 591 393 605 385 Q 615 378 630 398 Q 642 417 666 508 L 679 553 Q 688 575 706 592 Q 719 602 708 617 Q 693 633 652 659 Q 636 668 575 652 Q 569 652 453 628 Q 411 618 380 612 C 351 606 366 571 395 580 Q 395 581 396 581 Q 463 600 580 620 Q 607 624 615 616 Q 625 601 624 588 Q 620 563 614 542 L 606 505 Q 596 468 592 458 Q 589 446 573 443 C 560 436 560 436 576 415 Z" style="fill: #0070C0;"></path>
                                                                        <path d="M 666 508 Q 738 514 867 513 Q 886 513 891 522 Q 897 532 880 546 Q 826 588 766 569 Q 726 563 679 553 L 614 542 Q 563 535 507 526 Q 458 520 407 512 L 363 507 Q 264 497 156 481 Q 135 480 151 463 Q 164 450 182 444 Q 201 440 218 444 Q 290 465 370 477 L 413 484 Q 473 499 606 505 L 666 508 Z" style="fill: #0070C0;"></path>
                                                                        <path d="M 470 402 Q 528 411 576 415 C 606 418 599 428 573 443 Q 569 446 563 447 Q 536 451 425 420 C 396 412 395 399 425 399 Q 429 399 437 399 L 470 402 Z" style="fill: #0070C0;"></path>
                                                                        <path d="M 495 338 Q 501 369 470 402 C 451 425 440 429 437 399 Q 437 324 277 207 Q 210 158 127 113 Q 120 110 118 105 Q 117 101 122 99 Q 188 90 362 218 L 394 243 Q 419 265 441 285 Q 460 306 477 317 C 495 330 495 330 495 338 Z" style="fill: #0070C0;"></path>
                                                                        <path d="M 362 218 Q 393 127 351 57 Q 323 15 365 -29 Q 366 -30 369 -33 Q 379 -40 393 -22 Q 424 14 526 104 Q 545 119 546 126 Q 547 139 527 128 Q 427 83 421 85 Q 414 91 414 111 Q 423 213 423 215 Q 417 227 394 243 C 370 261 353 247 362 218 Z" style="fill: #0070C0;"></path>
                                                                        <path d="M 604 250 Q 707 311 760 333 Q 779 336 775 348 Q 771 364 754 386 Q 736 407 714 412 Q 698 413 697 393 Q 698 366 589 265 C 567 245 578 235 604 250 Z" style="fill: #0070C0;"></path>
                                                                        <path d="M 589 265 Q 516 334 495 338 C 468 351 453 335 477 317 Q 523 287 616 179 Q 727 53 770 50 Q 858 50 924 60 Q 958 64 956 75 Q 953 85 793 130 Q 790 131 789 131 Q 707 161 604 250 L 589 265 Z" style="fill: #0070C0;"></path>
                                    
                                    
                                                                                                                                                                                                                                                                                                                                                                                                                                                                                                                                                                                                                                                                                                                                                                                                                                                                    </g>
                            </svg>