<svg width='83' height='83' >
                                <g transform="translate(3, 70) scale(0.07, -0.07)">
                                    <!-- 先将完整的字以灰色字体绘制完成，层级位于下面 -->
                                                                        <path d="M 295 778 Q 325 750 357 714 Q 372 698 389 698 Q 402 698 408 713 Q 415 729 407 764 Q 398 800 293 833 Q 275 837 268 835 Q 262 831 263 816 Q 267 803 295 778 Z" style="fill: #0070C0;"></path>
                                                                        <path d="M 271 363 Q 305 409 342 465 Q 376 520 424 557 Q 440 567 427 583 Q 408 598 380 608 Q 358 618 341 606 Q 260 552 111 545 Q 99 546 96 539 Q 93 529 107 519 Q 143 495 174 499 Q 177 499 299 545 Q 315 551 319 544 Q 325 535 312 511 Q 239 367 64 195 Q 49 185 52 181 Q 55 178 68 183 Q 155 228 247 334 L 271 363 Z" style="fill: #0070C0;"></path>
                                                                        <path d="M 247 334 Q 283 250 248 92 Q 238 50 267 8 Q 268 5 271 3 Q 287 -12 298 13 Q 311 50 311 91 Q 310 250 314 286 Q 321 311 312 320 Q 281 357 271 363 C 248 382 236 362 247 334 Z" style="fill: #0070C0;"></path>
                                                                        <path d="M 373 368 Q 421 408 447 424 Q 460 430 456 437 Q 450 449 434 461 Q 418 474 401 473 Q 391 472 392 457 Q 395 447 390 434 Q 378 412 357 377 C 342 351 350 349 373 368 Z" style="fill: #0070C0;"></path>
                                                                        <path d="M 357 377 Q 353 381 347 383 Q 337 387 332 386 Q 328 385 327 375 L 391 290 Q 398 280 409 278 Q 416 277 422 285 Q 426 294 425 315 Q 424 334 400 353 Q 387 362 373 368 L 357 377 Z" style="fill: #0070C0;"></path>
                                                                        <path d="M 660 612 Q 781 664 807 670 Q 826 671 829 681 Q 833 693 819 704 Q 795 719 748 735 Q 732 742 717 741 Q 710 737 709 724 Q 712 682 516 581 Q 512 571 518 568 Q 534 568 614 597 L 660 612 Z" style="fill: #0070C0;"></path>
                                                                        <path d="M 692 377 Q 779 389 924 389 Q 943 389 948 398 Q 952 408 937 422 Q 877 462 815 442 Q 764 433 693 417 L 635 408 Q 553 396 460 382 Q 439 379 455 363 Q 468 350 486 345 Q 507 341 522 345 Q 576 361 635 369 L 692 377 Z" style="fill: #0070C0;"></path>
                                                                        <path d="M 687 180 Q 688 286 692 377 L 693 417 Q 696 580 697 581 Q 678 599 660 612 C 636 630 604 625 614 597 Q 632 554 635 443 Q 634 428 635 408 L 635 369 Q 635 291 635 173 C 635 143 687 150 687 180 Z" style="fill: #0070C0;"></path>
                                                                        <path d="M 635 173 Q 557 164 472 153 Q 453 150 466 135 Q 479 122 496 117 Q 515 111 531 116 Q 639 143 887 143 Q 906 143 911 151 Q 915 161 900 175 Q 846 215 788 198 Q 746 191 687 180 L 635 173 Z" style="fill: #0070C0;"></path>
                                    
                                    
                                                                                                                                                                                                                                                                                                                                                                                                                                                                                                                                                                                                                                                                                                                                                                                        </g>
                            </svg>