<svg width='83' height='83' >
                                <g transform="translate(3, 70) scale(0.07, -0.07)">
                                    <!-- 先将完整的字以灰色字体绘制完成，层级位于下面 -->
                                                                        <path d="M 526 782 Q 527 785 530 786 Q 537 790 537 801 Q 537 811 525 824 Q 492 857 463 854 Q 454 853 456 840 Q 460 747 302 598 Q 299 597 296 593 Q 250 550 138 471 Q 129 467 140 463 Q 233 476 360 592 Q 366 599 375 607 Q 427 659 511 766 Q 511 767 512 767 L 526 782 Z" style="fill: #0070C0;"></path>
                                                                        <path d="M 512 767 Q 734 524 785 511 Q 839 501 936 519 Q 952 520 954 525 Q 957 532 943 537 Q 751 613 738 621 Q 672 661 532 778 Q 528 781 526 782 C 502 800 492 789 512 767 Z" style="fill: #0070C0;"></path>
                                                                        <path d="M 459 659 Q 501 610 521 609 Q 531 609 536 623 Q 537 633 529 649 Q 511 673 462 680 Q 455 681 454 672 Q 453 665 459 659 Z" style="fill: #0070C0;"></path>
                                                                        <path d="M 362 547 Q 343 547 349 529 Q 356 519 373 509 Q 400 494 432 513 Q 546 562 562 556 Q 572 550 568 539 Q 538 497 503 448 Q 497 442 504 440 Q 507 440 586 496 Q 622 521 647 529 Q 663 533 659 549 Q 656 562 599 595 Q 583 604 563 596 Q 511 577 432 553 Q 413 546 362 547 Z" style="fill: #0070C0;"></path>
                                                                        <path d="M 518 360 Q 527 378 523 399 Q 522 414 501 427 Q 449 454 440 450 Q 436 449 435 438 Q 436 429 455 410 Q 498 359 501 357 C 512 346 512 346 518 360 Z" style="fill: #0070C0;"></path>
                                                                        <path d="M 448 315 Q 574 336 796 337 Q 815 337 819 346 Q 825 356 808 370 Q 757 406 721 398 Q 645 382 518 360 L 501 357 Q 500 358 496 357 Q 369 338 220 318 Q 199 315 215 299 Q 228 286 246 281 Q 267 277 282 280 Q 340 296 406 308 L 448 315 Z" style="fill: #0070C0;"></path>
                                                                        <path d="M 474 277 Q 474 296 448 315 C 425 334 413 337 406 308 Q 397 245 272 152 Q 269 152 267 149 Q 230 122 139 74 Q 132 71 139 67 Q 199 60 324 142 Q 327 145 331 147 Q 350 162 377 184 L 403 207 Q 454 255 455 255 C 475 273 475 273 474 277 Z" style="fill: #0070C0;"></path>
                                                                        <path d="M 377 184 Q 402 127 385 66 Q 379 38 367 22 Q 354 3 362 -19 Q 372 -50 388 -62 Q 398 -69 410 -51 Q 435 -18 524 65 Q 540 78 542 86 Q 543 99 524 88 Q 440 49 435 52 Q 428 56 429 75 Q 435 139 439 155 Q 443 173 431 185 Q 416 201 403 207 C 377 222 366 212 377 184 Z" style="fill: #0070C0;"></path>
                                                                        <path d="M 603 178 Q 685 224 728 239 Q 746 242 743 253 Q 739 269 722 290 Q 706 309 684 314 Q 669 315 668 296 Q 669 275 587 191 C 566 169 577 163 603 178 Z" style="fill: #0070C0;"></path>
                                                                        <path d="M 587 191 Q 547 224 503 265 Q 491 278 476 278 Q 475 278 474 277 C 444 280 428 268 455 255 Q 486 242 508 215 Q 703 4 735 0 Q 780 0 863 27 Q 876 30 882 38 Q 885 44 875 47 Q 725 89 643 148 Q 624 163 603 178 L 587 191 Z" style="fill: #0070C0;"></path>
                                    
                                    
                                                                                                                                                                                                                                                                                                                                                                                                                                                                                                                                                                                                                                                                                                                                                                                                                                                                    </g>
                            </svg>