<svg width='83' height='83' >
                                <g transform="translate(3, 70) scale(0.07, -0.07)">
                                    <!-- 先将完整的字以灰色字体绘制完成，层级位于下面 -->
                                                                        <path d="M 264 779 Q 298 751 335 718 Q 350 705 365 706 Q 375 707 381 720 Q 385 736 376 765 Q 364 798 258 827 Q 242 830 236 827 Q 232 823 233 810 Q 237 800 264 779 Z" style="fill: #0070C0;"></path>
                                                                        <path d="M 258 388 Q 289 431 325 487 Q 356 539 400 574 Q 416 584 403 600 Q 384 615 356 625 Q 334 634 317 622 Q 239 571 103 565 Q 91 566 88 559 Q 85 549 99 539 Q 135 515 166 519 Q 185 523 282 560 Q 297 564 300 558 Q 306 551 294 528 Q 227 392 67 231 Q 54 221 56 217 Q 59 214 72 220 Q 151 260 234 358 L 258 388 Z" style="fill: #0070C0;"></path>
                                                                        <path d="M 234 358 Q 234 357 236 354 Q 267 282 234 114 Q 218 66 252 18 Q 253 17 255 15 Q 271 0 282 25 Q 295 62 295 103 Q 294 275 298 314 Q 305 339 296 348 Q 268 381 258 388 C 235 408 222 386 234 358 Z" style="fill: #0070C0;"></path>
                                                                        <path d="M 362 397 Q 404 439 426 456 Q 438 462 433 469 Q 411 499 378 497 Q 368 494 372 481 Q 376 466 347 403 C 335 376 341 376 362 397 Z" style="fill: #0070C0;"></path>
                                                                        <path d="M 347 403 Q 314 418 304 414 Q 300 413 301 403 Q 301 399 367 337 Q 376 327 387 328 Q 394 328 398 337 Q 401 347 396 367 Q 392 383 369 395 Q 366 396 362 397 L 347 403 Z" style="fill: #0070C0;"></path>
                                                                        <path d="M 465 627 Q 502 572 533 551 Q 546 547 556 557 Q 563 567 562 582 Q 556 627 480 659 Q 467 665 458 663 Q 452 662 453 652 Q 453 642 465 627 Z" style="fill: #0070C0;"></path>
                                                                        <path d="M 777 696 Q 771 683 713 598 Q 706 582 721 586 Q 763 628 844 677 Q 850 681 858 685 Q 877 695 866 712 Q 853 727 826 739 Q 804 749 791 747 Q 779 744 784 732 Q 788 716 777 696 Z" style="fill: #0070C0;"></path>
                                                                        <path d="M 666 458 Q 795 486 798 489 Q 807 496 803 504 Q 796 516 768 524 Q 738 530 666 505 L 613 491 Q 558 481 494 476 Q 458 470 483 454 Q 523 430 588 445 Q 598 448 613 448 L 666 458 Z" style="fill: #0070C0;"></path>
                                                                        <path d="M 665 308 Q 753 318 923 319 Q 942 320 948 328 Q 952 340 936 354 Q 876 396 827 379 Q 763 366 665 348 L 612 340 Q 515 327 404 310 Q 383 309 399 291 Q 429 264 478 275 Q 539 293 611 300 L 665 308 Z" style="fill: #0070C0;"></path>
                                                                        <path d="M 611 300 Q 607 -27 624 -56 Q 639 -72 648 -51 Q 666 1 665 308 L 665 348 Q 665 408 666 458 L 666 505 Q 667 635 673 705 Q 674 739 693 768 Q 700 784 680 800 Q 655 819 612 831 Q 593 835 579 822 Q 569 813 582 801 Q 612 776 614 740 Q 614 652 613 491 L 613 448 Q 613 394 612 340 L 611 300 Z" style="fill: #0070C0;"></path>
                                    
                                    
                                                                                                                                                                                                                                                                                                                                                                                                                                                                                                                                                                                                                                                                                                                                                                                                                                                                    </g>
                            </svg>