<svg width='83' height='83' >
                                <g transform="translate(3, 70) scale(0.07, -0.07)">
                                    <!-- 先将完整的字以灰色字体绘制完成，层级位于下面 -->
                                                                        <path d="M 467 811 Q 498 789 530 763 Q 543 753 557 755 Q 566 756 569 768 Q 572 781 562 806 Q 550 836 459 852 Q 446 853 440 851 Q 436 847 438 836 Q 442 826 467 811 Z" style="fill: #0070C0;"></path>
                                                                        <path d="M 249 703 Q 222 702 242 684 Q 252 674 266 666 Q 279 657 300 663 Q 525 705 761 725 Q 771 724 780 735 Q 781 745 760 757 Q 729 781 653 758 Q 496 727 249 703 Z" style="fill: #0070C0;"></path>
                                                                        <path d="M 533 501 Q 537 505 528 513 Q 527 514 525 514 C 502 533 491 530 473 506 Q 407 416 227 341 Q 211 334 224 329 Q 255 320 343 355 Q 398 383 437 413 Q 450 423 510 482 L 533 501 Z" style="fill: #0070C0;"></path>
                                                                        <path d="M 336 171 Q 354 129 342 85 Q 338 57 325 42 Q 312 23 319 1 Q 329 -30 344 -42 Q 354 -49 367 -32 Q 397 2 494 82 Q 512 95 514 102 Q 515 115 496 105 Q 462 92 425 76 Q 403 63 393 68 Q 384 74 386 96 Q 390 147 393 160 Q 397 179 384 189 Q 377 196 371 199 C 347 216 325 199 336 171 Z" style="fill: #0070C0;"></path>
                                                                        <path d="M 510 482 Q 529 467 537 441 Q 540 399 525 377 Q 516 358 493 361 Q 471 364 450 366 Q 441 367 445 360 Q 449 354 463 347 Q 494 325 504 308 Q 513 296 524 299 Q 534 300 551 321 Q 581 357 575 425 Q 572 458 564 475 Q 554 493 533 501 C 506 513 488 502 510 482 Z" style="fill: #0070C0;"></path>
                                                                        <path d="M 562 218 Q 535 240 508 265 Q 484 287 461 293 C 433 304 425 285 450 268 Q 490 243 591 142 Q 714 25 753 22 Q 819 22 905 42 Q 939 49 935 58 Q 934 62 900 70 Q 717 106 638 162 Q 607 183 576 207 L 562 218 Z" style="fill: #0070C0;"></path>
                                                                        <path d="M 533 566 Q 602 614 636 621 Q 652 625 647 640 Q 646 653 592 684 Q 576 693 558 687 Q 507 668 431 646 Q 412 639 363 641 Q 344 641 350 625 Q 357 615 372 605 Q 397 592 425 608 Q 540 656 556 649 Q 566 643 562 633 Q 543 608 521 578 C 503 554 508 549 533 566 Z" style="fill: #0070C0;"></path>
                                                                        <path d="M 540 542 Q 541 546 542 550 Q 541 557 533 566 L 521 578 Q 493 594 452 590 Q 445 589 447 581 Q 447 574 454 570 Q 479 554 504 540 Q 507 539 508 537 C 530 516 533 514 540 542 Z" style="fill: #0070C0;"></path>
                                                                        <path d="M 525 514 Q 661 541 698 534 Q 714 530 714 522 Q 714 519 686 463 Q 679 453 685 449 Q 691 445 704 454 Q 750 482 786 491 Q 817 498 816 506 Q 815 515 756 560 Q 735 578 634 557 Q 610 556 540 542 L 508 537 Q 442 530 356 513 Q 307 504 255 498 Q 227 497 245 481 Q 273 459 310 469 Q 398 497 473 506 L 525 514 Z" style="fill: #0070C0;"></path>
                                                                        <path d="M 576 207 Q 577 208 579 208 Q 673 259 720 277 Q 739 280 735 292 Q 731 308 714 330 Q 696 351 674 356 Q 658 357 657 337 Q 657 316 562 218 C 541 196 549 195 576 207 Z" style="fill: #0070C0;"></path>
                                                                        <path d="M 461 293 Q 457 315 429 333 Q 411 343 400 345 Q 391 345 391 333 Q 385 261 245 160 Q 242 160 240 157 Q 200 129 104 79 Q 95 76 104 71 Q 170 64 301 146 Q 307 153 336 171 L 371 199 Q 441 263 450 268 C 466 280 466 280 461 293 Z" style="fill: #0070C0;"></path>
                                    
                                    
                                                                                                                                                                                                                                                                                                                                                                                                                                                                                                                                                                                                                                                                                                                                                                                                                                                                                                                                                </g>
                            </svg>