<svg width='83' height='83' >
                                <g transform="translate(3, 70) scale(0.07, -0.07)">
                                    <!-- 先将完整的字以灰色字体绘制完成，层级位于下面 -->
                                                                        <path d="M 294 745 Q 322 721 353 693 Q 368 680 385 681 Q 395 682 401 696 Q 405 712 395 743 Q 383 774 287 795 Q 271 798 264 795 Q 258 791 261 777 Q 265 767 294 745 Z" style="fill: #0070C0;"></path>
                                                                        <path d="M 248 342 Q 281 382 316 436 Q 347 485 389 516 Q 405 529 391 544 Q 370 560 340 570 Q 316 577 298 566 Q 222 511 85 498 Q 72 499 70 491 Q 67 481 83 471 Q 122 446 139 449 Q 148 452 272 503 Q 288 509 291 502 Q 295 495 285 474 Q 218 345 68 205 Q 52 193 56 189 Q 59 186 73 192 Q 139 223 223 313 L 248 342 Z" style="fill: #0070C0;"></path>
                                                                        <path d="M 223 313 Q 256 246 222 82 Q 206 34 240 -14 Q 241 -15 243 -17 Q 259 -32 270 -7 Q 283 30 283 71 Q 284 230 290 266 Q 297 291 288 300 Q 261 333 248 342 C 225 361 211 341 223 313 Z" style="fill: #0070C0;"></path>
                                                                        <path d="M 357 301 Q 394 341 416 360 Q 426 364 422 371 Q 416 380 402 389 Q 389 398 374 396 Q 365 395 368 382 Q 374 373 343 309 C 330 282 337 279 357 301 Z" style="fill: #0070C0;"></path>
                                                                        <path d="M 343 309 Q 322 321 312 318 Q 308 317 308 307 Q 309 300 326 283 Q 348 259 371 232 Q 378 222 390 221 Q 397 220 402 229 Q 406 239 403 259 Q 400 275 377 292 Q 367 298 357 301 L 343 309 Z" style="fill: #0070C0;"></path>
                                                                        <path d="M 462 483 Q 513 543 547 597 Q 560 624 574 636 Q 581 646 577 657 Q 573 669 547 687 Q 523 703 507 702 Q 491 699 498 680 Q 525 638 397 447 Q 388 438 387 432 Q 384 422 396 425 Q 408 428 436 456 L 462 483 Z" style="fill: #0070C0;"></path>
                                                                        <path d="M 436 456 Q 460 381 460 354 Q 459 333 459 313 Q 459 216 434 115 Q 422 66 457 25 L 458 23 Q 474 8 486 33 Q 499 72 499 115 Q 499 350 507 403 Q 514 428 505 438 Q 472 477 462 483 C 439 503 427 485 436 456 Z" style="fill: #0070C0;"></path>
                                                                        <path d="M 710 414 Q 854 456 857 459 Q 866 468 860 476 Q 853 488 822 493 Q 791 497 761 483 Q 737 474 713 465 L 662 448 Q 619 438 571 431 Q 534 422 562 407 Q 599 388 658 400 L 710 414 Z" style="fill: #0070C0;"></path>
                                                                        <path d="M 705 367 Q 706 391 710 414 L 713 465 Q 714 505 715 546 Q 715 672 733 745 Q 737 755 729 763 Q 710 779 674 792 Q 653 799 637 794 Q 618 785 634 769 Q 662 741 664 711 Q 668 564 662 448 L 658 400 Q 637 220 571 120 Q 552 96 523 66 Q 511 59 509 54 Q 505 47 521 49 Q 548 49 618 112 Q 673 169 697 313 L 705 367 Z" style="fill: #0070C0;"></path>
                                                                        <path d="M 697 313 Q 796 70 843 61 Q 901 57 953 50 Q 975 49 976 53 Q 979 59 956 76 Q 838 157 808 198 Q 748 282 705 367 C 691 394 686 341 697 313 Z" style="fill: #0070C0;"></path>
                                                                        <path d="M 784 645 Q 814 623 846 594 Q 858 584 872 584 Q 881 585 885 596 Q 889 609 880 635 Q 874 654 844 668 Q 774 692 760 687 Q 756 683 757 672 Q 761 662 784 645 Z" style="fill: #0070C0;"></path>
                                    
                                    
                                                                                                                                                                                                                                                                                                                                                                                                                                                                                                                                                                                                                                                                                                                                                                                                                                                                                                                                                </g>
                            </svg>