<svg width='83' height='83' >
                                <g transform="translate(3, 70) scale(0.07, -0.07)">
                                    <!-- 先将完整的字以灰色字体绘制完成，层级位于下面 -->
                                                                        <path d="M 477 825 Q 505 806 536 782 Q 549 772 564 774 Q 574 775 577 788 Q 580 801 569 828 Q 557 856 467 868 Q 454 869 448 867 Q 444 863 446 851 Q 450 841 477 825 Z" style="fill: #0070C0;"></path>
                                                                        <path d="M 463 693 Q 703 730 721 742 Q 730 749 726 757 Q 720 769 694 776 Q 670 782 573 756 Q 405 717 262 709 Q 228 705 252 689 Q 285 664 340 674 Q 377 680 418 686 L 463 693 Z" style="fill: #0070C0;"></path>
                                                                        <path d="M 486 659 Q 482 680 463 693 C 440 712 425 715 418 686 Q 408 620 272 522 Q 268 521 266 518 Q 226 490 127 438 Q 120 435 127 431 Q 193 425 326 513 Q 329 516 333 518 Q 352 533 380 555 L 411 583 Q 468 637 472 639 C 488 653 488 653 486 659 Z" style="fill: #0070C0;"></path>
                                                                        <path d="M 380 555 Q 398 479 365 433 Q 341 397 377 360 Q 378 359 381 357 Q 390 350 401 366 Q 432 397 531 473 Q 547 485 549 491 Q 552 501 533 494 Q 437 451 427 455 Q 420 461 421 480 Q 425 535 429 548 Q 433 564 422 574 Q 416 580 411 583 C 387 601 374 584 380 555 Z" style="fill: #0070C0;"></path>
                                                                        <path d="M 603 583 Q 729 628 731 629 Q 753 633 746 652 Q 737 670 717 687 Q 699 703 687 704 Q 675 705 677 692 Q 674 668 585 596 C 562 577 575 573 603 583 Z" style="fill: #0070C0;"></path>
                                                                        <path d="M 585 596 Q 561 614 537 634 Q 510 656 486 659 C 457 666 445 653 472 639 Q 520 617 615 525 Q 735 420 775 423 Q 850 430 909 448 Q 940 455 937 464 Q 936 468 903 475 Q 722 505 660 547 Q 632 565 603 583 L 585 596 Z" style="fill: #0070C0;"></path>
                                                                        <path d="M 297 343 Q 275 355 259 354 Q 246 350 251 339 Q 285 255 246 91 Q 240 73 232 59 Q 213 28 239 -15 Q 240 -18 244 -22 Q 250 -35 260 -30 Q 294 -8 301 94 Q 313 265 320 304 C 324 330 324 330 297 343 Z" style="fill: #0070C0;"></path>
                                                                        <path d="M 320 304 Q 324 304 330 305 Q 682 383 709 355 Q 716 351 720 314 Q 730 193 726 56 Q 726 37 719 30 Q 706 20 640 34 Q 624 35 626 27 Q 627 20 639 15 Q 699 -27 730 -59 Q 749 -78 762 -75 Q 774 -71 784 -44 Q 797 -1 796 62 Q 781 218 780 276 Q 780 313 791 337 Q 801 358 792 369 Q 782 384 735 406 Q 714 416 645 396 Q 461 357 297 343 C 267 340 290 299 320 304 Z" style="fill: #0070C0;"></path>
                                                                        <path d="M 407 283 Q 401 247 331 176 Q 318 166 335 169 Q 380 178 433 239 Q 448 255 455 263 Q 462 270 460 277 Q 457 286 440 290 Q 421 294 414 293 Q 410 292 407 283 Z" style="fill: #0070C0;"></path>
                                                                        <path d="M 580 265 Q 605 244 630 219 Q 640 209 653 210 Q 662 210 665 221 Q 669 231 662 255 Q 658 271 632 284 Q 575 308 560 303 Q 556 299 557 289 Q 560 282 580 265 Z" style="fill: #0070C0;"></path>
                                                                        <path d="M 424 162 Q 414 168 383 171 Q 373 172 370 169 Q 366 163 373 150 Q 395 111 413 45 Q 417 26 430 13 Q 446 -5 449 9 Q 452 18 451 32 L 446 60 Q 434 118 432 138 C 429 160 429 160 424 162 Z" style="fill: #0070C0;"></path>
                                                                        <path d="M 606 77 Q 622 126 640 140 Q 661 162 641 175 Q 625 185 603 201 Q 587 211 570 202 Q 522 175 424 162 C 394 158 403 132 432 138 Q 519 156 539 159 Q 567 165 575 154 Q 579 150 563 85 C 556 56 596 49 606 77 Z" style="fill: #0070C0;"></path>
                                                                        <path d="M 451 32 Q 460 31 469 33 Q 515 43 613 50 Q 623 51 624 58 Q 624 64 606 77 L 563 85 Q 559 85 557 84 Q 496 68 446 60 C 416 55 421 34 451 32 Z" style="fill: #0070C0;"></path>
                                    
                                    
                                                                                                                                                                                                                                                                                                                                                                                                                                                                                                                                                                                                                                                                                                                                                                                                                                                                                                                                                                                                                                                                                                        </g>
                            </svg>