<svg width='83' height='83' >
                                <g transform="translate(3, 70) scale(0.07, -0.07)">
                                    <!-- 先将完整的字以灰色字体绘制完成，层级位于下面 -->
                                                                        <path d="M 522 681 Q 667 714 675 718 Q 682 725 679 733 Q 672 743 646 751 Q 622 757 527 726 L 472 711 Q 414 701 349 694 Q 315 688 339 673 Q 372 652 431 664 Q 450 668 473 671 L 522 681 Z" style="fill: #0070C0;"></path>
                                                                        <path d="M 473 671 Q 474 562 468 524 Q 467 509 473 492 Q 479 483 484 471 Q 494 455 510 464 Q 523 476 520 564 Q 519 625 522 681 L 527 726 Q 536 780 546 796 Q 552 806 540 820 Q 516 839 487 850 Q 471 857 455 852 Q 442 848 448 832 Q 470 798 471 742 Q 471 726 472 711 L 473 671 Z" style="fill: #0070C0;"></path>
                                                                        <path d="M 278 605 Q 306 572 339 558 Q 352 557 360 568 Q 364 580 361 594 Q 349 627 287 640 Q 272 643 265 639 Q 259 638 262 627 Q 263 617 278 605 Z" style="fill: #0070C0;"></path>
                                                                        <path d="M 183 461 Q 170 458 170 447 Q 169 434 180 426 Q 205 413 242 398 Q 252 397 264 407 Q 279 423 409 514 Q 425 524 438 538 Q 450 548 449 557 Q 443 561 431 558 Q 233 465 183 461 Z" style="fill: #0070C0;"></path>
                                                                        <path d="M 646 647 Q 640 641 588 587 Q 578 575 592 576 Q 625 586 644 595 Q 690 619 710 623 Q 728 627 722 643 Q 713 659 695 673 Q 677 686 667 686 Q 657 686 659 675 Q 659 660 646 647 Z" style="fill: #0070C0;"></path>
                                                                        <path d="M 589 523 Q 665 472 726 431 Q 750 416 766 416 Q 782 417 788 424 Q 795 437 783 463 Q 767 493 735 513 Q 705 526 624 542 Q 590 551 576 549 Q 566 546 571 538 Q 574 531 589 523 Z" style="fill: #0070C0;"></path>
                                                                        <path d="M 693 789 Q 723 768 756 743 Q 769 733 784 734 Q 794 735 797 748 Q 800 761 789 788 Q 782 807 750 819 Q 674 837 664 831 Q 660 827 662 815 Q 666 805 693 789 Z" style="fill: #0070C0;"></path>
                                                                        <path d="M 495 373 Q 496 376 497 377 Q 501 390 493 415 Q 489 428 467 436 Q 416 451 404 447 Q 400 443 401 432 Q 405 422 428 405 Q 443 392 458 374 Q 465 368 471 365 C 487 356 487 356 495 373 Z" style="fill: #0070C0;"></path>
                                                                        <path d="M 457 315 Q 506 327 563 337 Q 615 350 623 357 Q 632 364 627 373 Q 620 383 592 391 Q 559 397 495 373 L 471 365 Q 315 331 253 324 Q 219 318 243 302 Q 277 281 364 297 Q 379 300 398 303 L 457 315 Z" style="fill: #0070C0;"></path>
                                                                        <path d="M 470 291 Q 467 304 457 315 C 440 339 409 331 398 303 Q 376 237 250 143 Q 246 142 244 139 Q 201 108 99 54 Q 92 51 99 47 Q 165 41 298 131 Q 305 137 313 141 Q 331 156 354 175 L 385 204 Q 452 268 459 272 C 473 283 473 283 470 291 Z" style="fill: #0070C0;"></path>
                                                                        <path d="M 354 175 Q 369 136 358 59 Q 354 28 340 10 Q 316 -27 359 -72 Q 360 -73 365 -77 Q 377 -84 388 -65 Q 419 -20 526 94 Q 542 110 543 118 Q 543 131 524 118 Q 418 46 410 48 Q 404 52 403 66 Q 410 135 416 152 Q 422 171 408 183 Q 396 196 385 204 C 362 223 345 204 354 175 Z" style="fill: #0070C0;"></path>
                                                                        <path d="M 582 206 Q 622 227 649 243 Q 727 289 742 294 Q 764 301 755 320 Q 743 338 719 354 Q 697 370 684 368 Q 671 367 675 354 Q 675 326 564 218 C 543 197 555 192 582 206 Z" style="fill: #0070C0;"></path>
                                                                        <path d="M 564 218 Q 474 290 470 291 C 446 308 440 295 459 272 Q 462 268 468 261 Q 591 134 743 5 Q 768 -16 803 -9 Q 923 10 960 23 Q 970 27 972 33 Q 971 39 954 45 Q 774 78 685 135 Q 636 168 582 206 L 564 218 Z" style="fill: #0070C0;"></path>
                                    
                                    
                                                                                                                                                                                                                                                                                                                                                                                                                                                                                                                                                                                                                                                                                                                                                                                                                                                                                                                                                                                                                                                                                                        </g>
                            </svg>