<svg width='83' height='83' >
                                <g transform="translate(3, 70) scale(0.07, -0.07)">
                                    <!-- 先将完整的字以灰色字体绘制完成，层级位于下面 -->
                                                                        <path d="M 280 774 Q 308 753 337 727 Q 353 715 369 717 Q 381 718 385 732 Q 389 748 377 779 Q 370 798 337 810 Q 261 831 248 823 Q 242 819 245 805 Q 249 795 280 774 Z" style="fill: #0070C0;"></path>
                                                                        <path d="M 248 386 Q 339 533 377 563 Q 392 575 379 589 Q 360 604 330 612 Q 308 619 292 608 Q 211 548 81 541 Q 69 542 67 534 Q 64 524 79 515 Q 116 490 133 494 Q 146 497 258 545 Q 273 551 276 545 Q 282 536 271 514 Q 205 370 47 204 Q 34 192 36 188 Q 39 187 51 192 Q 135 237 225 354 L 248 386 Z" style="fill: #0070C0;"></path>
                                                                        <path d="M 225 354 Q 255 324 235 165 Q 217 47 247 15 Q 263 0 274 25 Q 287 62 287 103 Q 286 272 290 310 Q 297 335 288 344 Q 261 377 248 386 C 225 405 208 379 225 354 Z" style="fill: #0070C0;"></path>
                                                                        <path d="M 349 372 Q 392 420 418 440 Q 430 446 425 453 Q 403 483 370 481 Q 360 478 363 465 Q 369 453 334 379 C 321 352 329 350 349 372 Z" style="fill: #0070C0;"></path>
                                                                        <path d="M 334 379 Q 316 389 304 386 Q 300 385 301 375 Q 301 372 375 298 Q 384 288 394 288 Q 401 288 406 297 Q 410 307 405 327 Q 399 355 349 372 L 334 379 Z" style="fill: #0070C0;"></path>
                                                                        <path d="M 765 445 Q 772 494 782 528 L 795 570 Q 796 579 801 584 Q 817 621 837 642 Q 853 661 838 679 Q 757 739 706 704 Q 606 667 495 651 Q 479 650 482 640 Q 485 633 502 627 Q 523 620 551 626 L 590 636 Q 728 670 739 661 Q 755 646 752 614 Q 748 586 742 559 L 735 523 Q 725 480 715 440 C 708 411 760 415 765 445 Z" style="fill: #0070C0;"></path>
                                                                        <path d="M 782 528 Q 837 534 905 536 Q 963 539 968 546 Q 972 556 958 568 Q 906 601 854 584 Q 827 578 795 570 L 742 559 Q 661 546 606 533 L 557 526 Q 493 516 422 504 Q 404 501 418 487 Q 431 475 446 472 Q 464 468 478 472 Q 512 484 553 492 L 601 502 Q 650 515 735 523 L 782 528 Z" style="fill: #0070C0;"></path>
                                                                        <path d="M 573 372 Q 655 388 788 405 Q 798 406 800 416 Q 801 423 770 443 Q 767 444 765 445 C 755 450 744 447 715 440 Q 645 422 582 407 L 536 398 Q 502 394 470 387 Q 451 386 463 368 Q 470 359 480 356 Q 486 356 527 363 L 573 372 Z" style="fill: #0070C0;"></path>
                                                                        <path d="M 529 249 Q 562 318 573 372 L 582 407 Q 591 450 601 502 L 606 533 Q 607 551 612 569 Q 618 585 620 596 Q 627 612 610 624 Q 600 631 590 636 C 564 651 544 655 551 626 Q 561 598 557 526 L 553 492 Q 546 453 536 398 L 527 363 Q 482 210 344 109 Q 329 97 324 92 Q 323 85 332 85 Q 384 82 493 195 Q 499 204 507 213 L 529 249 Z" style="fill: #0070C0;"></path>
                                                                        <path d="M 544 245 Q 538 248 529 249 C 499 254 497 241 507 213 Q 528 156 539 70 Q 540 40 557 19 Q 573 -2 579 13 Q 585 28 583 54 L 579 88 Q 566 187 564 215 C 562 239 562 239 544 245 Z" style="fill: #0070C0;"></path>
                                                                        <path d="M 794 120 Q 815 201 846 228 Q 862 246 847 263 Q 831 276 780 298 Q 762 305 742 296 Q 649 260 544 245 C 514 241 535 207 564 215 Q 568 218 727 250 Q 745 254 753 247 Q 763 238 761 218 Q 754 166 743 120 C 736 91 786 91 794 120 Z" style="fill: #0070C0;"></path>
                                                                        <path d="M 583 54 Q 587 54 595 55 Q 664 70 811 82 Q 821 83 823 92 Q 824 99 794 120 C 782 129 772 127 743 120 Q 652 99 579 88 C 549 83 553 52 583 54 Z" style="fill: #0070C0;"></path>
                                    
                                    
                                                                                                                                                                                                                                                                                                                                                                                                                                                                                                                                                                                                                                                                                                                                                                                                                                                                                                                                                                                                                            </g>
                            </svg>