<svg width='83' height='83' >
                                <g transform="translate(3, 70) scale(0.07, -0.07)">
                                    <!-- 先将完整的字以灰色字体绘制完成，层级位于下面 -->
                                                                        <path d="M 239 758 Q 264 737 293 712 Q 309 699 325 701 Q 335 702 341 716 Q 345 732 333 763 Q 321 793 231 808 Q 215 811 208 807 Q 202 803 205 789 Q 209 779 239 758 Z" style="fill: #0070C0;"></path>
                                                                        <path d="M 228 375 Q 258 418 290 475 Q 317 526 357 560 Q 370 572 359 586 Q 340 599 311 607 Q 289 614 273 602 Q 206 551 86 539 Q 74 540 72 533 Q 69 523 83 514 Q 120 492 136 495 Q 137 495 246 541 Q 258 545 261 541 Q 267 534 257 513 Q 197 378 59 224 Q 46 212 48 208 Q 52 207 63 212 Q 117 242 206 345 L 228 375 Z" style="fill: #0070C0;"></path>
                                                                        <path d="M 206 345 Q 236 315 209 146 Q 187 61 224 22 Q 240 9 250 32 Q 263 66 262 107 Q 263 266 269 301 Q 276 325 267 334 Q 251 352 240 364 Q 234 371 228 375 C 205 394 189 370 206 345 Z" style="fill: #0070C0;"></path>
                                                                        <path d="M 332 338 Q 365 368 383 379 Q 393 385 389 391 Q 385 400 370 409 Q 357 418 343 417 Q 333 416 336 403 Q 339 396 318 345 C 307 317 310 318 332 338 Z" style="fill: #0070C0;"></path>
                                                                        <path d="M 318 345 Q 297 357 288 354 Q 284 353 285 344 L 355 270 Q 362 263 372 261 Q 378 261 382 269 Q 385 276 382 295 Q 379 319 332 338 L 318 345 Z" style="fill: #0070C0;"></path>
                                                                        <path d="M 422 533 Q 474 617 504 685 Q 517 721 532 738 Q 538 748 532 760 Q 528 770 499 786 Q 474 799 457 796 Q 441 792 451 774 Q 475 738 417 603 Q 390 542 350 472 Q 343 462 341 456 Q 340 446 352 450 Q 362 453 401 502 L 422 533 Z" style="fill: #0070C0;"></path>
                                                                        <path d="M 401 502 Q 404 493 409 486 Q 436 429 417 250 Q 411 199 398 147 Q 386 98 421 57 L 422 55 Q 438 40 450 65 Q 463 104 463 147 Q 463 394 471 451 Q 478 476 469 486 Q 436 525 422 533 C 398 551 388 529 401 502 Z" style="fill: #0070C0;"></path>
                                                                        <path d="M 598 702 Q 588 708 558 712 Q 548 715 544 710 Q 540 704 547 690 Q 569 645 585 571 Q 588 549 601 534 Q 617 515 622 529 Q 623 533 624 540 L 623 572 Q 623 575 623 577 Q 613 647 609 673 C 605 699 605 699 598 702 Z" style="fill: #0070C0;"></path>
                                                                        <path d="M 787 596 Q 809 662 839 680 Q 854 696 841 713 Q 774 767 728 739 Q 671 718 598 702 C 569 695 580 666 609 673 Q 748 706 756 700 Q 763 693 761 677 Q 751 634 740 599 C 731 570 777 568 787 596 Z" style="fill: #0070C0;"></path>
                                                                        <path d="M 681 548 Q 726 557 801 563 Q 811 564 812 573 Q 812 580 787 596 C 770 607 769 607 740 599 Q 676 581 623 572 C 593 567 594 541 624 540 Q 630 539 640 541 Q 644 542 651 543 L 681 548 Z" style="fill: #0070C0;"></path>
                                                                        <path d="M 712 417 Q 775 427 874 429 Q 917 429 924 438 Q 928 448 914 460 Q 862 493 809 475 Q 769 466 713 454 L 670 446 Q 600 434 518 420 Q 500 417 514 403 Q 527 391 542 388 Q 560 384 574 388 Q 602 398 636 403 L 712 417 Z" style="fill: #0070C0;"></path>
                                                                        <path d="M 712 411 Q 712 415 712 417 L 713 454 Q 714 488 718 508 Q 719 518 714 525 Q 696 540 681 548 C 655 564 638 570 651 543 Q 651 542 655 536 Q 664 521 670 446 L 670 369 Q 670 158 653 105 Q 649 66 677 23 Q 687 5 695 2 Q 705 1 711 13 Q 715 31 717 92 Q 713 215 712 369 L 712 411 Z" style="fill: #0070C0;"></path>
                                                                        <path d="M 636 403 Q 626 322 472 179 Q 459 166 472 167 Q 482 167 513 185 Q 550 204 581 236 Q 609 266 638 309 Q 657 340 670 369 C 694 420 644 451 636 403 Z" style="fill: #0070C0;"></path>
                                                                        <path d="M 712 369 Q 760 290 823 201 Q 850 171 975 191 Q 982 192 984 197 Q 985 201 974 208 Q 851 269 780 341 Q 747 374 712 411 C 691 433 696 395 712 369 Z" style="fill: #0070C0;"></path>
                                    
                                    
                                                                                                                                                                                                                                                                                                                                                                                                                                                                                                                                                                                                                                                                                                                                                                                                                                                                                                                                                                                                                                                                                                                                                                                    </g>
                            </svg>