<svg width='83' height='83' >
                                <g transform="translate(3, 70) scale(0.07, -0.07)">
                                    <!-- 先将完整的字以灰色字体绘制完成，层级位于下面 -->
                                                                        <path d="M 468 812 Q 493 794 520 771 Q 533 761 548 763 Q 558 764 561 776 Q 564 789 554 816 Q 542 843 460 856 Q 445 857 440 855 Q 436 851 438 839 Q 442 829 468 812 Z" style="fill: #0070C0;"></path>
                                                                        <path d="M 200 686 Q 179 683 195 667 Q 208 654 226 649 Q 247 645 262 649 Q 479 712 805 713 L 808 713 Q 827 713 832 722 Q 836 732 821 746 Q 769 782 733 774 Q 601 744 200 686 Z" style="fill: #0070C0;"></path>
                                                                        <path d="M 302 625 Q 295 626 286 626 Q 276 627 273 623 Q 267 616 277 603 Q 307 558 331 482 Q 337 458 352 444 Q 371 428 373 442 Q 374 448 374 455 L 370 485 Q 363 509 341 589 C 333 618 332 622 302 625 Z" style="fill: #0070C0;"></path>
                                                                        <path d="M 647 488 L 648 487 Q 652 472 663 472 Q 681 475 712 528 Q 728 576 764 601 Q 783 614 768 630 Q 752 646 708 673 Q 695 682 611 666 Q 571 666 430 639 Q 346 626 302 625 C 272 624 313 579 341 589 Q 345 595 428 609 L 451 613 Q 491 620 546 627 L 586 632 Q 661 642 680 633 Q 686 629 681 608 Q 660 533 652 518 C 642 494 642 494 647 488 Z" style="fill: #0070C0;"></path>
                                                                        <path d="M 478 499 Q 481 551 457 603 Q 454 609 451 613 C 434 638 424 639 428 609 Q 431 585 432 565 Q 432 513 449 495 C 468 472 477 469 478 499 Z" style="fill: #0070C0;"></path>
                                                                        <path d="M 566 516 Q 566 525 605 596 Q 615 606 607 614 Q 600 624 586 632 C 560 648 534 655 546 627 Q 558 606 539 510 C 533 481 559 487 566 516 Z" style="fill: #0070C0;"></path>
                                                                        <path d="M 374 455 Q 378 455 384 456 Q 468 475 647 488 C 677 490 676 500 652 518 Q 649 521 646 523 Q 630 532 566 516 L 539 510 Q 508 506 478 499 L 449 495 Q 407 491 370 485 C 340 480 344 452 374 455 Z" style="fill: #0070C0;"></path>
                                                                        <path d="M 484 449 Q 499 407 492 338 Q 489 323 509 294 Q 518 285 525 294 Q 537 315 539 355 Q 539 391 545 424 Q 551 443 533 453 Q 520 460 505 468 Q 495 472 487 467 Q 480 463 484 449 Z" style="fill: #0070C0;"></path>
                                                                        <path d="M 294 400 Q 345 349 367 351 Q 380 351 383 369 Q 383 381 372 398 Q 362 411 341 415 Q 308 425 295 425 Q 286 426 287 415 Q 286 408 294 400 Z" style="fill: #0070C0;"></path>
                                                                        <path d="M 244 279 Q 234 279 233 265 Q 233 249 255 235 Q 276 217 288 216 Q 297 216 306 234 Q 343 268 429 338 Q 435 342 433 349 Q 430 353 423 350 Q 284 281 267 279 Q 255 279 244 279 Z" style="fill: #0070C0;"></path>
                                                                        <path d="M 674 445 Q 652 421 610 387 Q 603 383 607 375 Q 613 372 620 375 Q 696 405 731 414 Q 747 415 745 425 Q 744 438 730 458 Q 718 477 699 482 Q 687 483 684 468 Q 684 456 674 445 Z" style="fill: #0070C0;"></path>
                                                                        <path d="M 609 325 Q 657 306 718 276 Q 734 266 747 268 Q 754 269 756 278 Q 760 291 740 319 Q 715 355 601 347 Q 594 348 595 339 Q 598 329 609 325 Z" style="fill: #0070C0;"></path>
                                                                        <path d="M 492 269 Q 486 294 463 313 Q 447 325 437 326 Q 428 326 427 315 Q 421 255 273 153 Q 269 153 267 150 Q 227 125 128 82 Q 119 79 128 74 Q 192 65 326 139 Q 330 143 371 168 L 405 194 Q 432 215 465 241 Q 469 245 473 247 C 494 263 494 263 492 269 Z" style="fill: #0070C0;"></path>
                                                                        <path d="M 371 168 Q 386 119 376 77 Q 369 49 357 35 Q 344 16 350 -6 Q 359 -37 374 -49 Q 384 -56 397 -40 Q 431 -6 545 79 Q 564 91 566 98 Q 569 111 548 102 Q 434 54 426 59 Q 417 65 419 88 Q 425 139 428 151 Q 432 170 420 181 Q 413 188 405 194 C 382 213 363 197 371 168 Z" style="fill: #0070C0;"></path>
                                                                        <path d="M 593 192 Q 659 217 691 226 Q 707 227 705 237 Q 704 250 690 270 Q 678 289 659 294 Q 647 295 644 280 Q 644 262 576 204 C 553 184 565 181 593 192 Z" style="fill: #0070C0;"></path>
                                                                        <path d="M 576 204 Q 501 267 492 269 C 466 285 447 261 473 247 Q 501 234 522 210 Q 637 89 730 8 Q 746 -8 771 -5 Q 856 14 887 26 Q 902 30 905 38 Q 909 45 899 47 Q 739 86 637 159 Q 616 174 593 192 L 576 204 Z" style="fill: #0070C0;"></path>
                                    
                                    
                                                                                                                                                                                                                                                                                                                                                                                                                                                                                                                                                                                                                                                                                                                                                                                                                                                                                                                                                                                                                                                                                                                                                                                                                                                                                                                                            </g>
                            </svg>