<svg width='83' height='83' >
                                <g transform="translate(3, 70) scale(0.07, -0.07)">
                                    <!-- 先将完整的字以灰色字体绘制完成，层级位于下面 -->
                                                                        <path d="M 475 815 Q 494 799 516 778 Q 528 768 541 769 Q 550 769 553 780 Q 557 793 549 817 Q 540 841 470 854 Q 457 857 452 855 Q 448 851 449 841 Q 453 831 475 815 Z" style="fill: #0070C0;"></path>
                                                                        <path d="M 249 727 Q 221 724 242 707 Q 272 682 300 688 Q 466 721 745 753 Q 755 752 764 763 Q 765 773 744 785 Q 714 809 639 785 Q 471 752 282 731 Q 266 730 249 727 Z" style="fill: #0070C0;"></path>
                                                                        <path d="M 321 646 Q 311 652 283 656 Q 273 657 270 654 Q 266 648 272 635 Q 291 601 305 545 Q 308 529 318 518 Q 334 499 338 513 Q 339 519 340 527 L 338 551 Q 331 606 330 623 C 329 642 329 642 321 646 Z" style="fill: #0070C0;"></path>
                                                                        <path d="M 453 569 Q 465 614 480 627 Q 498 649 478 660 Q 462 669 439 683 Q 424 690 382 667 Q 354 657 321 646 C 293 636 301 617 330 623 Q 363 630 396 639 Q 412 642 415 636 Q 419 632 408 571 C 403 541 445 540 453 569 Z" style="fill: #0070C0;"></path>
                                                                        <path d="M 340 527 Q 341 527 343 526 Q 352 525 362 528 Q 393 535 463 543 Q 472 544 472 552 Q 472 558 453 569 C 436 579 436 579 408 571 Q 368 559 338 551 C 309 543 311 534 340 527 Z" style="fill: #0070C0;"></path>
                                                                        <path d="M 582 548 Q 586 547 589 552 Q 592 559 593 570 L 592 595 Q 586 647 586 663 C 586 682 586 682 574 687 Q 567 691 545 696 Q 535 699 532 695 Q 528 691 533 678 Q 549 644 560 586 Q 561 562 580 549 L 582 548 Z" style="fill: #0070C0;"></path>
                                                                        <path d="M 719 614 Q 734 656 749 669 Q 768 691 749 703 Q 733 713 709 728 Q 694 737 651 712 Q 612 700 574 687 C 546 677 557 656 586 663 Q 592 664 599 667 Q 632 676 661 682 Q 680 686 685 679 Q 686 678 674 616 C 668 587 709 586 719 614 Z" style="fill: #0070C0;"></path>
                                                                        <path d="M 593 570 Q 603 570 614 571 Q 651 580 731 588 Q 740 589 740 596 Q 740 602 719 614 C 702 624 702 624 674 616 Q 629 603 592 595 C 563 589 563 570 593 570 Z" style="fill: #0070C0;"></path>
                                                                        <path d="M 601 461 Q 706 485 710 488 Q 717 495 714 502 Q 708 512 684 519 Q 657 526 615 510 L 550 492 Q 522 485 494 478 Q 475 475 455 471 L 401 462 Q 362 459 321 455 Q 290 451 311 436 Q 350 415 397 425 Q 400 426 408 426 L 452 434 Q 498 444 550 452 L 601 461 Z" style="fill: #0070C0;"></path>
                                                                        <path d="M 589 377 Q 632 386 678 390 Q 700 391 693 405 Q 683 418 659 424 Q 637 428 598 419 Q 595 419 595 418 L 549 409 Q 497 400 452 389 L 412 382 Q 360 373 311 364 Q 295 361 314 346 Q 332 333 369 339 Q 391 343 415 347 L 452 353 Q 500 363 548 370 L 589 377 Z" style="fill: #0070C0;"></path>
                                                                        <path d="M 455 471 Q 456 487 446 497 Q 427 512 405 520 Q 393 524 386 519 Q 379 515 385 501 Q 395 483 401 462 L 408 426 Q 409 410 412 382 L 415 347 Q 416 328 419 301 C 422 271 455 276 454 306 Q 453 331 452 353 L 452 389 Q 452 411 452 434 L 455 471 Z" style="fill: #0070C0;"></path>
                                                                        <path d="M 581 330 Q 585 354 589 377 L 595 418 Q 596 440 601 461 L 615 510 Q 615 526 604 536 Q 592 543 582 548 L 580 549 Q 568 556 558 557 Q 545 561 538 554 Q 531 550 537 536 Q 549 518 550 492 L 550 452 Q 549 431 549 409 L 548 370 Q 545 348 545 323 C 545 293 576 300 581 330 Z" style="fill: #0070C0;"></path>
                                                                        <path d="M 437 272 Q 474 291 717 300 Q 727 301 741 301 Q 805 301 812 311 Q 816 323 801 335 Q 743 372 693 354 Q 644 345 581 330 L 545 323 Q 475 314 454 306 L 419 301 Q 313 285 191 265 Q 172 262 186 247 Q 199 234 217 230 Q 236 226 251 231 Q 312 250 382 263 L 437 272 Z" style="fill: #0070C0;"></path>
                                                                        <path d="M 455 248 Q 456 251 456 252 Q 455 262 437 272 C 412 289 398 289 382 263 Q 325 164 106 38 Q 85 28 110 27 Q 189 27 355 155 L 389 184 Q 423 218 443 232 C 456 242 456 242 455 248 Z" style="fill: #0070C0;"></path>
                                                                        <path d="M 355 155 Q 368 118 357 66 Q 351 38 338 23 Q 325 4 332 -18 Q 341 -49 356 -61 Q 366 -68 379 -52 Q 412 -16 518 70 Q 536 83 538 90 Q 539 103 520 93 Q 415 45 407 49 Q 400 55 401 75 Q 407 129 411 143 Q 415 161 403 172 Q 396 179 389 184 C 366 203 347 184 355 155 Z" style="fill: #0070C0;"></path>
                                                                        <path d="M 596 152 Q 675 201 717 220 Q 733 223 730 233 Q 726 248 710 266 Q 694 282 674 287 Q 661 287 661 270 Q 662 249 580 164 C 559 142 570 136 596 152 Z" style="fill: #0070C0;"></path>
                                                                        <path d="M 580 164 Q 549 189 516 219 Q 482 250 455 248 C 425 251 418 249 443 232 Q 521 178 595 103 Q 713 -9 749 -10 Q 806 -10 893 9 Q 924 16 921 24 Q 920 28 888 36 Q 861 42 833 47 Q 710 77 626 131 Q 610 141 596 152 L 580 164 Z" style="fill: #0070C0;"></path>
                                    
                                    
                                                                                                                                                                                                                                                                                                                                                                                                                                                                                                                                                                                                                                                                                                                                                                                                                                                                                                                                                                                                                                                                                                                                                                                                                                                                                                                                                                                                                        </g>
                            </svg>