<svg width='83' height='83' >
                                <g transform="translate(3, 70) scale(0.07, -0.07)">
                                    <!-- 先将完整的字以灰色字体绘制完成，层级位于下面 -->
                                                                        <path d="M 354 733 Q 333 749 309 756 Q 299 757 292 749 Q 288 742 297 731 Q 336 623 305 442 Q 287 382 292 360 Q 302 323 315 309 Q 328 294 338 309 Q 366 348 368 480 Q 368 645 378 701 C 380 715 379 716 354 733 Z" style="fill: #0070C0;"></path>
                                                                        <path d="M 631 392 Q 624 367 637 344 Q 652 313 662 314 Q 677 315 694 350 Q 709 378 708 400 Q 696 493 698 636 Q 698 678 721 713 Q 731 731 724 741 Q 694 766 643 789 Q 627 795 601 786 Q 487 738 354 733 C 324 731 348 696 378 701 Q 382 701 388 702 Q 599 747 622 733 Q 634 708 639 639 Q 642 431 631 392 Z" style="fill: #0070C0;"></path>
                                                                        <path d="M 461 555 Q 451 255 345 132 Q 327 114 305 95 Q 260 56 163 7 Q 150 3 146 -2 Q 142 -8 157 -10 Q 247 -16 380 96 Q 396 114 412 133 Q 493 245 509 451 Q 518 541 535 584 Q 541 594 532 603 Q 514 621 478 637 Q 457 647 440 643 Q 419 636 435 617 Q 462 586 461 555 Z" style="fill: #0070C0;"></path>
                                                                        <path d="M 969 60 Q 947 121 932 225 Q 929 241 922 246 Q 913 250 910 230 Q 903 98 885 73 Q 855 39 717 34 Q 644 35 611 47 Q 583 62 577 80 Q 567 108 570 180 Q 577 259 593 295 Q 606 326 587 344 Q 535 384 519 381 Q 503 375 510 357 Q 531 317 525 259 Q 516 81 540 45 Q 565 2 658 -12 Q 722 -21 824 -16 Q 915 -12 951 9 Q 984 27 969 60 Z" style="fill: #0070C0;"></path>
                                    
                                    
                                                                                                                                                                                                                                                                                                                                                                                            </g>
                            </svg>