<svg width='83' height='83' >
                                <g transform="translate(3, 70) scale(0.07, -0.07)">
                                    <!-- 先将完整的字以灰色字体绘制完成，层级位于下面 -->
                                                                        <path d="M 514 828 Q 454 786 330 740 Q 324 731 329 728 Q 366 719 517 768 Q 538 783 613 791 Q 629 791 635 798 Q 639 808 628 820 Q 609 838 566 858 Q 551 867 538 866 Q 531 863 529 852 Q 528 837 514 828 Z" style="fill: #0070C0;"></path>
                                                                        <path d="M 288 659 Q 313 634 342 602 Q 352 590 367 590 Q 376 590 381 601 Q 385 613 380 639 Q 373 672 287 700 Q 274 704 268 703 Q 264 699 264 688 Q 265 678 288 659 Z" style="fill: #0070C0;"></path>
                                                                        <path d="M 436 699 Q 476 632 499 628 Q 511 625 518 640 Q 521 650 515 670 Q 500 703 443 722 Q 436 725 433 715 Q 432 708 436 699 Z" style="fill: #0070C0;"></path>
                                                                        <path d="M 686 739 Q 674 724 600 653 Q 588 638 605 640 Q 618 646 720 692 Q 739 705 763 711 Q 785 718 777 736 Q 767 754 744 770 Q 723 786 711 785 Q 699 785 701 772 Q 702 754 686 739 Z" style="fill: #0070C0;"></path>
                                                                        <path d="M 341 544 Q 322 559 300 564 Q 291 565 285 557 Q 282 551 290 541 Q 320 459 297 325 Q 284 312 292 272 Q 302 241 313 228 Q 323 215 333 228 Q 357 253 357 402 Q 357 489 362 515 C 364 528 364 528 341 544 Z" style="fill: #0070C0;"></path>
                                                                        <path d="M 605 292 Q 598 270 611 247 Q 624 217 634 218 Q 649 219 665 252 Q 680 279 678 299 Q 659 482 690 531 Q 700 547 693 557 Q 665 582 615 603 Q 599 607 575 599 Q 461 548 341 544 C 311 543 332 512 362 515 Q 375 514 484 539 Q 575 563 597 550 Q 606 531 609 478 Q 613 322 605 292 Z" style="fill: #0070C0;"></path>
                                                                        <path d="M 442 416 Q 430 167 305 80 Q 265 49 178 12 Q 165 8 162 5 Q 158 1 172 -3 Q 247 -10 359 66 Q 380 82 397 103 Q 457 176 489 363 Q 495 408 510 439 Q 514 449 508 457 Q 492 473 460 489 Q 441 499 426 495 Q 407 489 420 472 Q 444 444 442 416 Z" style="fill: #0070C0;"></path>
                                                                        <path d="M 939 38 Q 920 96 907 193 Q 906 209 897 214 Q 890 218 886 198 Q 876 75 859 53 Q 829 17 693 16 Q 620 17 589 30 Q 562 43 556 63 Q 549 85 552 140 Q 559 201 572 230 Q 585 260 566 277 Q 515 316 500 312 Q 485 306 492 289 Q 511 252 507 196 Q 500 64 521 28 Q 549 -14 635 -28 Q 698 -38 797 -33 Q 887 -29 922 -10 Q 953 6 939 38 Z" style="fill: #0070C0;"></path>
                                    
                                    
                                                                                                                                                                                                                                                                                                                                                                                                                                                                                                                                                                                                                                                                                                            </g>
                            </svg>