<svg width='83' height='83' >
                                <g transform="translate(3, 70) scale(0.07, -0.07)">
                                    <!-- 先将完整的字以灰色字体绘制完成，层级位于下面 -->
                                                                        <path d="M 436 696 Q 473 736 507 770 Q 520 780 508 798 Q 469 841 446 841 Q 434 841 433 826 Q 429 723 288 621 Q 282 618 231 580 Q 221 567 236 568 Q 255 567 285 582 Q 367 624 424 683 L 436 696 Z" style="fill: #0070C0;"></path>
                                                                        <path d="M 532 537 Q 659 666 690 684 Q 709 696 696 710 Q 681 723 640 747 Q 631 750 577 733 Q 484 703 436 696 C 412 692 412 692 424 683 Q 434 671 460 670 Q 473 669 570 690 Q 583 693 586 689 Q 590 685 584 674 Q 539 589 511 549 Q 504 539 501 531 C 487 504 511 516 532 537 Z" style="fill: #0070C0;"></path>
                                                                        <path d="M 341 506 Q 341 507 340 507 Q 289 531 273 528 Q 252 524 270 501 Q 306 443 284 253 Q 275 207 256 153 Q 234 93 159 17 Q 144 4 141 -3 Q 140 -10 152 -10 Q 188 -10 254 60 Q 320 138 337 256 Q 350 331 351 442 Q 352 458 355 467 C 360 496 360 497 341 506 Z" style="fill: #0070C0;"></path>
                                                                        <path d="M 524 505 Q 689 544 706 527 Q 718 520 721 468 Q 731 293 721 94 Q 720 64 709 57 Q 694 45 621 58 Q 605 61 606 51 Q 607 44 621 38 Q 687 -4 722 -38 Q 743 -57 756 -54 Q 768 -51 779 -22 Q 794 23 792 89 Q 779 348 780 443 Q 780 482 791 505 Q 803 527 792 538 Q 782 553 735 576 Q 716 586 697 581 Q 646 563 536 538 Q 533 538 532 537 L 501 531 Q 422 518 341 506 C 311 502 326 459 355 467 Q 409 483 470 494 L 524 505 Z" style="fill: #0070C0;"></path>
                                                                        <path d="M 540 345 Q 648 367 651 370 Q 658 377 655 385 Q 648 395 622 403 Q 592 409 541 390 L 487 376 Q 447 369 401 366 Q 367 360 391 345 Q 427 321 480 334 Q 481 335 488 335 L 540 345 Z" style="fill: #0070C0;"></path>
                                                                        <path d="M 538 207 Q 584 217 634 224 Q 671 231 678 237 Q 687 244 683 252 Q 676 264 648 272 Q 623 278 538 254 L 488 242 Q 440 235 386 231 Q 350 227 375 210 Q 414 183 471 196 Q 477 197 488 199 L 538 207 Z" style="fill: #0070C0;"></path>
                                                                        <path d="M 538 254 Q 538 291 540 345 L 541 390 Q 541 435 550 471 Q 551 487 540 496 Q 531 502 524 505 C 498 519 458 521 470 494 Q 485 470 486 396 Q 486 387 487 376 L 488 335 Q 488 292 488 242 L 488 199 Q 488 55 503 35 Q 507 28 515 30 Q 527 39 534 92 Q 537 126 538 207 L 538 254 Z" style="fill: #0070C0;"></path>
                                    
                                    
                                                                                                                                                                                                                                                                                                                                                                                                                                                                                                                                                                                                                                </g>
                            </svg>