<svg width='83' height='83' >
                                <g transform="translate(3, 70) scale(0.07, -0.07)">
                                    <!-- 先将完整的字以灰色字体绘制完成，层级位于下面 -->
                                                                        <path d="M 267 753 Q 301 728 337 696 Q 353 683 369 685 Q 379 686 385 700 Q 389 716 378 747 Q 371 769 334 784 Q 249 812 236 803 Q 230 799 233 785 Q 237 775 267 753 Z" style="fill: #0070C0;"></path>
                                                                        <path d="M 80 574 Q 67 573 65 565 Q 62 555 77 544 Q 113 517 174 537 Q 273 571 393 591 Q 409 594 410 601 Q 411 614 393 622 Q 366 634 344 628 Q 155 583 80 574 Z" style="fill: #0070C0;"></path>
                                                                        <path d="M 202 470 Q 186 466 207 451 Q 214 447 230 449 Q 303 465 356 475 Q 378 479 370 492 Q 358 507 332 509 Q 308 510 202 470 Z" style="fill: #0070C0;"></path>
                                                                        <path d="M 198 370 Q 182 364 203 351 Q 210 347 226 350 Q 301 368 356 379 Q 380 385 370 396 Q 358 409 332 413 Q 307 414 198 370 Z" style="fill: #0070C0;"></path>
                                                                        <path d="M 203 270 Q 191 276 160 280 Q 148 284 145 278 Q 138 272 147 256 Q 175 201 192 112 Q 196 85 212 67 Q 230 45 235 61 Q 239 77 237 106 L 232 137 Q 217 222 215 245 C 213 266 213 266 203 270 Z" style="fill: #0070C0;"></path>
                                                                        <path d="M 372 167 Q 385 234 405 256 Q 424 281 402 293 Q 384 303 358 318 Q 343 325 294 300 Q 257 285 203 270 C 174 262 187 234 215 245 Q 216 248 300 268 Q 325 275 331 265 Q 338 261 333 229 Q 329 201 323 166 C 318 136 366 138 372 167 Z" style="fill: #0070C0;"></path>
                                                                        <path d="M 237 106 Q 244 105 256 108 Q 298 120 390 133 Q 400 134 401 144 Q 401 151 372 167 C 357 175 352 174 323 166 L 322 166 Q 273 150 232 137 C 203 128 207 107 237 106 Z" style="fill: #0070C0;"></path>
                                                                        <path d="M 591 765 Q 619 743 649 716 Q 665 703 681 705 Q 691 706 697 720 Q 701 736 690 767 Q 678 798 583 815 Q 567 819 560 815 Q 554 811 557 797 Q 561 787 591 765 Z" style="fill: #0070C0;"></path>
                                                                        <path d="M 488 628 Q 478 653 455 666 Q 451 670 446 666 Q 440 662 441 651 Q 447 621 422 556 Q 412 540 415 521 Q 419 503 429 489 Q 436 479 442 487 Q 448 488 455 504 Q 459 511 466 537 Q 478 582 488 601 C 494 614 494 614 488 628 Z" style="fill: #0070C0;"></path>
                                                                        <path d="M 488 601 Q 507 589 556 602 Q 670 641 776 650 L 784 650 Q 800 644 798 634 Q 798 633 773 569 Q 766 556 771 552 Q 778 549 794 560 Q 842 594 881 605 Q 914 615 913 624 Q 910 633 846 679 Q 822 698 746 679 Q 704 673 556 641 Q 522 634 488 628 C 458 623 460 611 488 601 Z" style="fill: #0070C0;"></path>
                                                                        <path d="M 515 502 Q 482 495 506 481 Q 548 460 596 475 Q 654 488 716 503 Q 744 510 748 514 Q 755 521 751 529 Q 744 539 717 546 Q 690 550 663 538 Q 632 526 597 517 Q 560 507 515 502 Z" style="fill: #0070C0;"></path>
                                                                        <path d="M 516 392 Q 506 399 474 405 Q 462 409 459 404 Q 452 398 460 383 Q 487 319 499 216 Q 500 185 517 164 Q 533 142 539 157 Q 543 169 544 185 L 542 214 Q 539 226 535 268 L 531 295 Q 525 341 524 362 C 522 389 522 389 516 392 Z" style="fill: #0070C0;"></path>
                                                                        <path d="M 692 199 Q 710 177 725 169 Q 735 162 750 184 Q 762 206 784 324 Q 791 354 813 378 Q 825 390 813 403 Q 798 419 757 442 Q 738 449 681 432 Q 660 432 516 392 C 487 384 496 352 524 362 Q 524 363 526 363 Q 584 382 689 401 Q 710 405 720 398 Q 733 389 730 371 Q 714 236 695 226 C 683 209 683 209 692 199 Z" style="fill: #0070C0;"></path>
                                                                        <path d="M 535 268 Q 535 269 538 269 Q 614 284 672 293 Q 694 297 685 309 Q 675 322 651 326 Q 617 329 531 295 C 503 284 506 260 535 268 Z" style="fill: #0070C0;"></path>
                                                                        <path d="M 544 185 L 546 184 Q 556 183 568 185 Q 607 192 692 199 C 722 201 717 206 695 226 Q 691 230 684 235 Q 668 242 640 236 Q 586 221 542 214 C 512 209 515 192 544 185 Z" style="fill: #0070C0;"></path>
                                                                        <path d="M 405 77 Q 384 76 399 59 Q 412 46 429 39 Q 450 33 465 38 Q 595 66 871 67 Q 887 67 902 66 Q 921 66 926 74 Q 932 84 916 99 Q 865 138 830 130 Q 742 115 405 77 Z" style="fill: #0070C0;"></path>
                                    
                                    
                                                                                                                                                                                                                                                                                                                                                                                                                                                                                                                                                                                                                                                                                                                                                                                                                                                                                                                                                                                                                                                                                                                                                                                                                                                                                                                                            </g>
                            </svg>