<svg width='83' height='83' >
                                <g transform="translate(3, 70) scale(0.07, -0.07)">
                                    <!-- 先将完整的字以灰色字体绘制完成，层级位于下面 -->
                                                                        <path d="M 256 735 Q 295 705 335 670 Q 350 657 365 658 Q 375 659 381 672 Q 385 688 375 717 Q 363 754 250 783 Q 234 786 228 783 Q 224 779 225 766 Q 229 756 256 735 Z" style="fill: #0070C0;"></path>
                                                                        <path d="M 141 468 Q 92 449 63 444 Q 48 444 46 436 Q 43 426 55 420 Q 98 398 125 411 Q 266 483 268 483 Q 271 483 274 481 Q 284 475 280 450 Q 286 282 245 137 Q 229 104 272 52 Q 282 39 293 46 Q 300 53 313 78 Q 359 133 456 227 Q 469 239 466 246 Q 465 255 453 245 Q 404 214 355 179 Q 303 137 313 200 Q 312 270 335 443 Q 339 468 361 493 Q 373 503 362 516 Q 350 532 311 548 Q 298 554 282 542 Q 192 487 141 468 Z" style="fill: #0070C0;"></path>
                                    
                                    
                                                                                                                                                                                                                                    </g>
                            </svg>