<svg width='83' height='83' >
                                <g transform="translate(3, 70) scale(0.07, -0.07)">
                                    <!-- 先将完整的字以灰色字体绘制完成，层级位于下面 -->
                                                                        <path d="M 290 733 Q 323 708 357 677 Q 372 664 389 665 Q 399 666 405 680 Q 409 696 398 727 Q 391 749 356 764 Q 272 789 260 783 Q 254 779 257 765 Q 261 755 290 733 Z" style="fill: #0070C0;"></path>
                                                                        <path d="M 153 483 Q 101 467 74 465 Q 58 465 56 458 Q 52 449 64 441 Q 86 426 103 424 Q 121 420 238 475 Q 266 488 276 481 Q 286 474 280 446 Q 280 406 278 365 Q 277 247 245 141 Q 230 108 275 58 Q 285 45 296 53 Q 303 60 314 85 Q 347 134 417 222 Q 429 235 426 242 Q 423 251 413 240 Q 379 216 347 189 Q 308 155 313 204 Q 312 271 335 439 Q 339 464 362 488 Q 375 498 365 512 Q 353 528 314 546 Q 301 552 284 541 Q 200 498 153 483 Z" style="fill: #0070C0;"></path>
                                                                        <path d="M 656 496 Q 737 509 866 510 Q 920 510 928 520 Q 934 533 916 546 Q 858 585 808 569 Q 748 556 661 538 L 611 529 Q 520 516 416 499 Q 395 496 411 479 Q 441 452 481 461 Q 539 479 609 489 L 656 496 Z" style="fill: #0070C0;"></path>
                                                                        <path d="M 635 311 Q 645 407 656 496 L 661 538 Q 667 637 697 742 Q 701 754 681 770 Q 647 792 621 797 Q 605 801 596 793 Q 587 786 595 770 Q 620 728 618 701 Q 617 619 611 529 L 609 489 Q 602 401 591 303 C 588 273 632 281 635 311 Z" style="fill: #0070C0;"></path>
                                                                        <path d="M 514 294 Q 501 300 473 305 Q 460 309 457 303 Q 450 297 459 281 Q 489 212 503 100 Q 506 67 524 44 Q 542 22 547 37 Q 554 56 551 88 L 546 124 Q 530 229 526 262 C 522 291 522 291 514 294 Z" style="fill: #0070C0;"></path>
                                                                        <path d="M 782 150 Q 804 238 840 265 Q 856 284 842 302 Q 826 315 772 341 Q 754 348 732 340 Q 680 321 635 311 L 591 303 Q 551 299 514 294 C 484 290 496 257 526 262 Q 529 262 713 293 Q 734 297 741 288 Q 751 278 750 258 Q 741 200 729 151 C 722 122 774 121 782 150 Z" style="fill: #0070C0;"></path>
                                                                        <path d="M 551 88 Q 557 88 566 89 Q 641 102 801 108 Q 813 109 815 118 Q 816 127 784 149 Q 783 150 782 150 L 729 151 Q 629 132 546 124 C 516 121 521 87 551 88 Z" style="fill: #0070C0;"></path>
                                    
                                    
                                                                                                                                                                                                                                                                                                                                                                                                                                                                                                                                                                                                                                </g>
                            </svg>