<svg width='83' height='83' >
                                <g transform="translate(3, 70) scale(0.07, -0.07)">
                                    <!-- 先将完整的字以灰色字体绘制完成，层级位于下面 -->
                                                                        <path d="M 280 762 Q 317 738 356 709 Q 371 699 387 701 Q 397 702 401 716 Q 404 732 391 760 Q 382 782 346 795 Q 258 816 248 807 Q 244 803 246 790 Q 250 780 280 762 Z" style="fill: #0070C0;"></path>
                                                                        <path d="M 150 508 Q 101 493 74 491 Q 59 492 57 484 Q 53 477 64 469 Q 103 444 130 455 Q 176 476 218 497 Q 245 510 254 503 Q 264 496 258 469 Q 258 432 256 393 Q 256 284 227 183 Q 211 152 254 103 Q 264 91 274 98 Q 281 105 292 129 Q 329 180 405 267 Q 417 279 414 286 Q 413 293 402 284 Q 363 257 326 227 Q 286 193 291 243 Q 290 307 311 463 Q 315 485 336 509 Q 349 519 339 532 Q 329 548 290 564 Q 278 571 261 560 Q 191 521 150 508 Z" style="fill: #0070C0;"></path>
                                                                        <path d="M 652 687 Q 805 717 810 719 Q 819 726 815 736 Q 808 748 778 757 Q 751 763 664 739 Q 583 721 515 717 Q 478 713 504 694 Q 531 675 591 677 L 652 687 Z" style="fill: #0070C0;"></path>
                                                                        <path d="M 465 516 Q 487 497 510 472 Q 523 459 538 460 Q 548 460 553 473 Q 557 486 549 515 Q 545 533 518 545 Q 454 569 440 563 Q 436 559 436 547 Q 440 537 465 516 Z" style="fill: #0070C0;"></path>
                                                                        <path d="M 774 588 Q 771 584 714 501 Q 705 485 721 489 Q 758 511 780 526 Q 822 560 851 575 Q 870 584 860 600 Q 847 615 823 627 Q 801 639 790 636 Q 778 635 783 622 Q 786 606 774 588 Z" style="fill: #0070C0;"></path>
                                                                        <path d="M 668 365 Q 734 372 927 373 Q 946 373 951 382 Q 955 392 940 406 Q 891 445 854 436 Q 784 423 668 403 L 617 396 Q 515 384 400 369 Q 381 368 395 351 Q 408 338 426 332 Q 445 328 462 331 Q 532 350 616 360 L 668 365 Z" style="fill: #0070C0;"></path>
                                                                        <path d="M 617 2 Q 623 -23 630 -33 Q 636 -40 643 -38 Q 658 -29 664 31 Q 667 70 668 365 L 668 403 Q 668 565 681 650 Q 685 668 670 677 Q 660 684 652 687 C 626 702 575 702 591 677 Q 595 668 603 658 Q 616 633 617 596 Q 618 511 617 396 L 616 360 Q 610 62 617 2 Z" style="fill: #0070C0;"></path>
                                    
                                    
                                                                                                                                                                                                                                                                                                                                                                                                                                                                                                                                                                                                                                </g>
                            </svg>