<svg width='83' height='83' >
                                <g transform="translate(3, 70) scale(0.07, -0.07)">
                                    <!-- 先将完整的字以灰色字体绘制完成，层级位于下面 -->
                                                                        <path d="M 306 745 Q 339 720 373 689 Q 388 676 405 677 Q 415 678 421 692 Q 425 708 414 739 Q 407 761 372 776 Q 288 801 276 795 Q 270 791 273 777 Q 277 767 306 745 Z" style="fill: #0070C0;"></path>
                                                                        <path d="M 152 492 Q 101 476 73 473 Q 58 473 56 465 Q 52 456 63 449 Q 105 424 133 436 Q 194 461 251 490 Q 276 503 286 496 Q 296 489 291 463 Q 284 259 246 142 Q 231 112 274 58 Q 284 45 295 53 Q 302 60 314 84 Q 351 138 429 230 Q 441 243 438 250 Q 437 259 425 248 Q 386 220 348 188 Q 311 155 316 203 Q 316 276 346 455 Q 350 480 373 503 Q 386 513 376 527 Q 364 543 325 561 Q 313 568 296 556 Q 205 508 152 492 Z" style="fill: #0070C0;"></path>
                                                                        <path d="M 651 663 Q 718 679 774 686 Q 795 689 799 682 Q 808 669 801 633 Q 788 533 762 491 Q 743 457 712 462 Q 684 466 659 474 Q 634 480 653 458 Q 699 419 721 388 Q 739 367 757 383 Q 787 402 809 437 Q 834 479 859 611 Q 866 657 885 679 Q 898 692 892 704 Q 882 716 829 741 Q 808 751 787 737 Q 763 724 672 705 Q 581 683 502 679 Q 483 679 480 669 Q 479 662 504 648 Q 529 632 551 638 Q 579 647 610 653 L 651 663 Z" style="fill: #0070C0;"></path>
                                                                        <path d="M 610 653 Q 626 608 546 479 Q 512 424 465 370 Q 459 366 460 359 Q 460 355 465 355 Q 540 373 645 561 Q 648 576 675 615 Q 681 625 673 637 Q 661 653 651 663 C 631 685 604 682 610 653 Z" style="fill: #0070C0;"></path>
                                                                        <path d="M 543 291 Q 531 298 495 305 Q 482 309 479 303 Q 472 297 481 280 Q 512 210 529 94 Q 532 60 551 36 Q 570 14 575 29 Q 582 50 578 86 L 573 120 Q 557 225 553 259 C 549 288 549 288 543 291 Z" style="fill: #0070C0;"></path>
                                                                        <path d="M 808 157 Q 829 245 863 276 Q 879 295 863 313 Q 847 326 792 349 Q 773 356 752 347 Q 673 314 543 291 C 513 286 523 256 553 259 Q 571 259 737 296 Q 756 300 764 293 Q 774 283 774 263 Q 767 205 758 157 C 753 127 801 128 808 157 Z" style="fill: #0070C0;"></path>
                                                                        <path d="M 578 86 Q 587 85 598 87 Q 671 103 831 116 Q 841 117 843 126 Q 844 135 812 156 Q 811 157 808 157 L 758 157 Q 655 133 573 120 C 543 115 548 87 578 86 Z" style="fill: #0070C0;"></path>
                                    
                                    
                                                                                                                                                                                                                                                                                                                                                                                                                                                                                                                                                                                                                                </g>
                            </svg>