<svg width='83' height='83' >
                                <g transform="translate(3, 70) scale(0.07, -0.07)">
                                    <!-- 先将完整的字以灰色字体绘制完成，层级位于下面 -->
                                                                        <path d="M 289 758 Q 317 733 347 703 Q 362 690 379 689 Q 391 690 396 705 Q 402 721 392 753 Q 386 775 353 790 Q 277 817 260 811 Q 254 807 256 793 Q 260 780 289 758 Z" style="fill: #0070C0;"></path>
                                                                        <path d="M 135 512 Q 87 494 61 491 Q 46 491 44 483 Q 40 476 52 468 Q 74 455 90 453 Q 105 450 193 495 Q 244 523 253 516 Q 263 510 258 485 Q 264 323 227 187 Q 209 154 253 106 Q 263 94 273 101 Q 280 108 292 131 Q 329 180 409 264 Q 421 274 418 282 Q 417 289 406 281 Q 367 256 330 229 Q 284 190 291 247 Q 290 314 311 479 Q 314 501 335 526 Q 347 536 337 548 Q 327 564 288 579 Q 276 585 260 574 Q 181 528 135 512 Z" style="fill: #0070C0;"></path>
                                                                        <path d="M 667 623 Q 779 654 785 659 Q 792 668 788 676 Q 781 688 750 693 Q 710 699 672 676 L 619 658 Q 547 640 511 635 Q 474 626 502 611 Q 545 587 616 610 Q 617 610 619 610 L 667 623 Z" style="fill: #0070C0;"></path>
                                                                        <path d="M 658 526 Q 662 575 667 623 L 672 676 Q 673 739 693 803 Q 696 813 677 828 Q 643 847 620 852 Q 604 856 596 847 Q 589 840 596 825 Q 615 798 615 779 Q 618 721 619 658 L 619 610 Q 618 567 616 517 C 615 487 656 496 658 526 Z" style="fill: #0070C0;"></path>
                                                                        <path d="M 616 517 Q 513 498 394 473 Q 375 470 390 455 Q 417 434 466 445 Q 598 493 915 518 Q 934 519 937 527 Q 941 539 926 550 Q 877 581 840 573 Q 773 554 658 526 L 616 517 Z" style="fill: #0070C0;"></path>
                                                                        <path d="M 746 350 Q 795 356 858 357 Q 909 357 917 367 Q 921 379 905 391 Q 853 427 790 408 Q 771 404 751 398 L 695 386 Q 670 382 644 376 Q 544 357 427 337 Q 408 334 422 319 Q 435 307 453 303 Q 472 299 487 303 Q 589 336 695 345 L 746 350 Z" style="fill: #0070C0;"></path>
                                                                        <path d="M 653 69 Q 617 76 582 83 Q 570 86 571 78 Q 572 71 583 64 Q 659 3 687 -34 Q 702 -50 717 -37 Q 747 -4 749 82 Q 746 137 746 350 L 751 398 Q 754 411 759 423 Q 768 442 751 455 Q 726 477 696 486 Q 677 493 669 486 Q 663 479 674 464 Q 693 427 695 386 L 695 345 Q 698 90 677 72 Q 668 65 653 69 Z" style="fill: #0070C0;"></path>
                                                                        <path d="M 485 229 Q 507 205 532 178 Q 544 165 558 165 Q 568 165 573 177 Q 579 190 572 217 Q 568 236 541 251 Q 478 278 464 275 Q 460 271 460 260 Q 461 250 485 229 Z" style="fill: #0070C0;"></path>
                                    
                                    
                                                                                                                                                                                                                                                                                                                                                                                                                                                                                                                                                                                                                                                                                                            </g>
                            </svg>