<svg width='83' height='83' >
                                <g transform="translate(3, 70) scale(0.07, -0.07)">
                                    <!-- 先将完整的字以灰色字体绘制完成，层级位于下面 -->
                                                                        <path d="M 274 737 Q 311 710 349 677 Q 365 664 381 665 Q 391 666 397 680 Q 401 696 390 727 Q 383 751 345 766 Q 258 797 244 787 Q 238 783 241 769 Q 245 759 274 737 Z" style="fill: #0070C0;"></path>
                                                                        <path d="M 163 494 Q 112 476 84 473 Q 69 472 67 464 Q 63 455 75 448 Q 114 429 151 440 Q 253 494 260 492 Q 261 492 264 490 Q 274 484 269 460 Q 263 289 223 178 Q 204 148 248 94 Q 258 81 268 87 Q 277 94 289 118 Q 329 169 412 255 Q 425 267 422 274 Q 421 283 409 273 Q 369 248 330 220 Q 285 184 294 238 Q 295 299 324 451 Q 328 475 351 498 Q 364 508 354 522 Q 344 538 304 556 Q 292 563 275 552 Q 203 509 163 494 Z" style="fill: #0070C0;"></path>
                                                                        <path d="M 556 604 Q 578 611 612 621 Q 669 636 711 655 Q 759 674 800 683 Q 819 684 823 692 Q 827 704 814 715 Q 792 731 744 751 Q 728 758 714 757 Q 707 753 705 741 Q 705 710 543 625 C 516 611 527 595 556 604 Z" style="fill: #0070C0;"></path>
                                                                        <path d="M 526 286 Q 538 371 544 434 L 546 464 Q 547 545 555 597 Q 556 601 556 604 C 558 618 558 618 543 625 Q 542 626 539 627 Q 490 651 474 648 Q 455 644 471 622 Q 504 568 488 366 Q 484 284 442 184 Q 409 103 315 16 Q 302 3 298 -4 Q 297 -11 308 -10 Q 324 -10 345 5 Q 396 41 426 75 Q 490 147 520 257 L 526 286 Z" style="fill: #0070C0;"></path>
                                                                        <path d="M 544 434 Q 598 419 640 429 Q 892 484 903 493 Q 913 502 908 511 Q 899 524 868 531 Q 837 538 728 499 Q 599 471 546 464 C 516 460 515 441 544 434 Z" style="fill: #0070C0;"></path>
                                                                        <path d="M 573 274 Q 549 286 526 286 C 506 287 508 284 520 257 Q 550 193 567 89 Q 570 58 588 36 Q 606 14 611 29 Q 617 47 614 78 L 608 113 Q 592 212 587 243 C 583 270 583 270 573 274 Z" style="fill: #0070C0;"></path>
                                                                        <path d="M 824 141 Q 851 232 883 257 Q 899 276 885 293 Q 867 306 815 331 Q 796 338 775 329 Q 715 302 573 274 C 544 268 558 237 587 243 Q 597 244 611 249 Q 779 285 787 278 Q 802 263 773 146 C 766 117 815 112 824 141 Z" style="fill: #0070C0;"></path>
                                                                        <path d="M 614 78 Q 621 78 630 79 Q 696 92 839 104 Q 849 105 851 114 Q 851 123 824 141 L 773 146 Q 772 147 770 146 Q 680 124 608 113 C 578 108 584 77 614 78 Z" style="fill: #0070C0;"></path>
                                    
                                    
                                                                                                                                                                                                                                                                                                                                                                                                                                                                                                                                                                                                                                                                                                            </g>
                            </svg>