<svg width='83' height='83' >
                                <g transform="translate(3, 70) scale(0.07, -0.07)">
                                    <!-- 先将完整的字以灰色字体绘制完成，层级位于下面 -->
                                                                        <path d="M 256 762 Q 290 737 325 707 Q 341 695 357 697 Q 369 698 373 712 Q 377 728 365 759 Q 358 781 321 795 Q 237 820 224 811 Q 218 807 221 793 Q 225 783 256 762 Z" style="fill: #0070C0;"></path>
                                                                        <path d="M 133 517 Q 84 501 58 499 Q 43 500 41 492 Q 37 485 48 476 Q 70 463 86 460 Q 104 457 206 508 Q 231 521 241 514 Q 250 508 243 402 Q 242 287 211 183 Q 196 149 239 104 Q 249 92 259 99 Q 266 106 277 130 Q 311 182 386 275 Q 396 287 394 294 Q 391 301 382 292 Q 345 262 307 230 Q 273 199 276 243 Q 275 310 298 474 Q 302 498 324 521 Q 336 531 326 544 Q 316 560 278 576 Q 266 582 249 571 Q 176 531 133 517 Z" style="fill: #0070C0;"></path>
                                                                        <path d="M 737 641 Q 833 650 883 649 Q 896 648 900 657 Q 904 667 892 679 Q 850 713 753 686 L 702 675 Q 636 663 568 650 L 525 642 Q 476 636 423 627 Q 398 623 416 611 Q 450 592 514 603 Q 523 606 533 607 L 571 617 Q 598 626 692 636 L 737 641 Z" style="fill: #0070C0;"></path>
                                                                        <path d="M 568 650 Q 565 687 564 715 Q 565 734 547 739 Q 508 757 490 750 Q 474 743 487 724 Q 515 687 525 642 L 533 607 Q 540 553 556 535 Q 569 525 572 536 Q 575 546 571 617 L 568 650 Z" style="fill: #0070C0;"></path>
                                                                        <path d="M 753 686 Q 759 711 787 767 Q 800 782 789 791 Q 777 807 743 823 Q 727 832 710 822 Q 700 816 709 805 Q 722 772 702 675 L 692 636 Q 670 546 670 535 Q 671 522 687 533 Q 705 548 737 641 L 753 686 Z" style="fill: #0070C0;"></path>
                                                                        <path d="M 600 381 Q 667 399 871 400 Q 928 400 935 409 Q 939 419 925 431 Q 880 467 844 458 Q 796 448 618 417 L 552 407 Q 471 397 383 384 Q 364 383 378 367 Q 391 354 407 350 Q 426 346 440 350 Q 486 363 538 371 L 600 381 Z" style="fill: #0070C0;"></path>
                                                                        <path d="M 532 257 Q 583 344 600 381 L 618 417 Q 634 450 646 467 Q 653 480 649 489 Q 643 501 616 502 Q 588 506 576 500 Q 569 497 569 484 Q 569 453 552 407 L 538 371 Q 484 242 306 33 Q 290 14 314 23 Q 395 54 499 209 Q 499 210 501 211 L 532 257 Z" style="fill: #0070C0;"></path>
                                                                        <path d="M 543 253 Q 540 256 532 257 C 503 264 492 240 501 211 Q 517 162 530 90 Q 533 62 549 43 Q 565 22 570 37 Q 574 47 575 62 L 572 95 Q 557 191 553 223 C 550 250 550 250 543 253 Z" style="fill: #0070C0;"></path>
                                                                        <path d="M 779 121 Q 806 202 838 227 Q 854 246 840 264 Q 824 277 771 303 Q 753 310 682 284 Q 607 263 543 253 C 513 248 523 219 553 223 Q 565 223 718 254 Q 734 258 742 250 Q 752 241 749 222 Q 739 165 725 120 C 716 91 769 93 779 121 Z" style="fill: #0070C0;"></path>
                                                                        <path d="M 575 62 Q 584 61 595 62 Q 659 75 799 82 Q 809 83 811 91 Q 812 100 782 120 Q 781 121 779 121 L 725 120 Q 640 104 572 95 C 542 91 545 64 575 62 Z" style="fill: #0070C0;"></path>
                                    
                                    
                                                                                                                                                                                                                                                                                                                                                                                                                                                                                                                                                                                                                                                                                                                                                                                                                                                                    </g>
                            </svg>