<svg width='83' height='83' >
                                <g transform="translate(3, 70) scale(0.07, -0.07)">
                                    <!-- 先将完整的字以灰色字体绘制完成，层级位于下面 -->
                                                                        <path d="M 277 725 Q 307 700 339 667 Q 354 654 371 654 Q 383 654 388 669 Q 394 685 384 717 Q 378 739 344 756 Q 266 786 248 779 Q 242 775 244 761 Q 248 748 277 725 Z" style="fill: #0070C0;"></path>
                                                                        <path d="M 145 473 Q 96 457 70 455 Q 55 456 53 448 Q 49 441 60 432 Q 82 419 98 416 Q 116 413 218 464 Q 243 477 251 469 Q 261 463 255 439 Q 249 264 209 148 Q 190 118 231 67 Q 241 54 250 60 Q 259 67 271 90 Q 305 130 376 200 Q 389 210 386 218 Q 385 227 374 218 Q 344 202 314 185 Q 265 148 276 206 Q 277 270 307 430 Q 311 452 334 475 Q 346 485 337 498 Q 327 514 290 531 Q 278 538 261 527 Q 188 487 145 473 Z" style="fill: #0070C0;"></path>
                                                                        <path d="M 588 771 Q 615 749 643 722 Q 658 709 673 710 Q 683 711 689 724 Q 693 740 683 769 Q 677 788 646 802 Q 576 826 560 819 Q 556 815 557 802 Q 561 792 588 771 Z" style="fill: #0070C0;"></path>
                                                                        <path d="M 489 630 Q 452 623 479 606 Q 527 585 579 598 Q 670 620 766 641 Q 809 653 816 659 Q 825 668 820 676 Q 813 688 782 695 Q 755 698 660 666 Q 561 639 489 630 Z" style="fill: #0070C0;"></path>
                                                                        <path d="M 503 448 Q 528 488 554 518 Q 563 528 551 540 Q 515 568 496 566 Q 487 565 488 553 Q 497 483 421 404 Q 402 385 393 374 Q 386 361 398 365 Q 428 368 488 430 L 503 448 Z" style="fill: #0070C0;"></path>
                                                                        <path d="M 488 430 Q 528 375 548 371 Q 558 370 565 384 Q 566 394 560 412 Q 550 430 503 448 C 475 459 470 454 488 430 Z" style="fill: #0070C0;"></path>
                                                                        <path d="M 646 386 Q 682 401 726 457 L 740 478 Q 747 490 755 502 Q 773 535 790 562 Q 797 574 785 585 Q 746 609 725 607 Q 716 604 719 592 Q 732 522 665 431 Q 656 431 636 394 Q 635 394 635 393 C 624 376 624 376 646 386 Z" style="fill: #0070C0;"></path>
                                                                        <path d="M 726 457 Q 822 388 835 389 Q 842 390 846 400 Q 847 412 839 432 Q 832 451 801 464 Q 773 473 740 478 C 710 483 702 474 726 457 Z" style="fill: #0070C0;"></path>
                                                                        <path d="M 658 262 Q 742 272 896 273 Q 915 273 920 282 Q 924 292 909 306 Q 849 348 785 326 Q 731 317 659 302 L 603 292 Q 506 279 392 262 Q 371 259 387 243 Q 400 230 418 225 Q 439 221 454 225 Q 524 244 604 255 L 658 262 Z" style="fill: #0070C0;"></path>
                                                                        <path d="M 611 -34 Q 617 -56 623 -65 Q 627 -72 635 -70 Q 647 -61 654 -7 Q 654 5 658 262 L 659 302 Q 659 306 666 355 Q 669 371 656 380 Q 652 384 646 386 L 635 393 Q 620 402 612 402 Q 600 406 586 398 Q 579 391 585 381 Q 597 354 603 292 L 604 255 Q 608 -24 611 -34 Z" style="fill: #0070C0;"></path>
                                    
                                    
                                                                                                                                                                                                                                                                                                                                                                                                                                                                                                                                                                                                                                                                                                                                                                                                                                                                    </g>
                            </svg>