<svg width='83' height='83' >
                                <g transform="translate(3, 70) scale(0.07, -0.07)">
                                    <!-- 先将完整的字以灰色字体绘制完成，层级位于下面 -->
                                                                        <path d="M 260 725 Q 288 700 319 668 Q 334 653 351 654 Q 363 654 369 669 Q 373 685 365 718 Q 356 751 256 778 Q 240 782 232 779 Q 226 775 228 761 Q 232 748 260 725 Z" style="fill: #0070C0;"></path>
                                                                        <path d="M 137 501 Q 88 485 62 483 Q 47 484 45 476 Q 41 469 52 460 Q 91 436 138 456 Q 240 505 248 498 Q 258 491 252 466 Q 252 295 212 168 Q 197 138 239 89 Q 249 77 259 84 Q 266 91 277 114 Q 308 163 374 251 Q 384 263 382 270 Q 379 277 370 268 Q 337 243 306 215 Q 275 187 278 227 Q 278 294 305 458 Q 309 482 331 504 Q 343 514 334 527 Q 324 543 286 560 Q 274 566 257 555 Q 181 515 137 501 Z" style="fill: #0070C0;"></path>
                                                                        <path d="M 590 721 Q 615 754 632 763 Q 639 770 638 781 Q 637 791 616 813 Q 597 829 582 832 Q 567 832 571 814 Q 584 771 456 635 Q 447 628 445 624 Q 441 615 452 616 Q 479 619 565 696 L 590 721 Z" style="fill: #0070C0;"></path>
                                                                        <path d="M 622 587 Q 719 677 749 692 Q 767 701 756 714 Q 744 727 711 748 Q 699 754 650 736 Q 611 730 590 721 C 562 710 535 698 565 696 Q 578 693 651 703 Q 658 704 661 702 Q 664 698 659 691 Q 625 627 604 598 Q 598 588 595 582 C 581 556 600 567 622 587 Z" style="fill: #0070C0;"></path>
                                                                        <path d="M 462 565 Q 452 569 429 572 Q 417 573 415 569 Q 409 563 418 548 Q 442 506 459 437 Q 463 415 476 402 Q 494 383 498 397 Q 499 404 500 414 L 497 445 Q 484 518 482 538 C 480 559 480 559 462 565 Z" style="fill: #0070C0;"></path>
                                                                        <path d="M 781 473 Q 805 533 834 552 Q 850 568 837 584 Q 822 597 777 621 Q 761 628 742 621 Q 678 599 622 587 L 595 582 Q 528 572 462 565 C 432 562 452 533 482 538 Q 491 539 502 542 Q 533 548 565 553 L 604 560 Q 656 570 713 580 Q 740 586 750 574 Q 757 567 755 553 Q 746 516 736 484 C 727 455 769 445 781 473 Z" style="fill: #0070C0;"></path>
                                                                        <path d="M 673 435 Q 722 442 787 444 Q 797 445 799 453 Q 799 460 781 473 C 762 488 762 488 736 484 Q 730 484 728 483 Q 667 470 610 460 L 561 453 Q 527 450 497 445 C 467 440 470 414 500 414 Q 506 413 516 415 Q 531 419 553 421 L 599 427 Q 612 430 630 431 L 673 435 Z" style="fill: #0070C0;"></path>
                                                                        <path d="M 553 421 Q 507 286 361 204 Q 349 197 359 195 Q 407 189 479 242 Q 519 269 540 302 Q 549 317 559 331 Q 584 371 598 420 Q 598 424 599 427 L 610 460 Q 611 466 614 471 Q 620 496 634 519 Q 643 532 630 541 Q 618 553 604 560 C 578 576 558 582 565 553 Q 575 526 561 453 L 553 421 Z" style="fill: #0070C0;"></path>
                                                                        <path d="M 893 281 L 877 284 Q 853 260 773 257 Q 728 257 708 263 Q 692 270 687 283 Q 672 328 700 379 Q 712 409 673 435 C 649 453 619 459 630 431 Q 646 397 644 349 Q 641 252 686 231 Q 702 225 733 219 Q 776 212 845 216 Q 906 219 931 232 Q 956 245 945 272 Q 929 312 918 380 Q 915 393 909 398 Q 902 402 899 384 Q 889 300 876 285 L 893 281 Z" style="fill: #0070C0;"></path>
                                                                        <path d="M 554 218 Q 623 149 649 151 Q 662 151 667 170 Q 668 183 656 203 Q 643 221 616 228 Q 574 244 556 245 Q 546 246 547 234 Q 546 227 554 218 Z" style="fill: #0070C0;"></path>
                                                                        <path d="M 534 90 Q 589 42 658 -27 Q 674 -46 689 -51 Q 698 -52 705 -41 Q 717 -28 703 15 Q 690 63 534 121 Q 524 125 523 113 Q 523 100 534 90 Z" style="fill: #0070C0;"></path>
                                    
                                    
                                                                                                                                                                                                                                                                                                                                                                                                                                                                                                                                                                                                                                                                                                                                                                                                                                                                                                                                                </g>
                            </svg>