<svg width='83' height='83' >
                                <g transform="translate(3, 70) scale(0.07, -0.07)">
                                    <!-- 先将完整的字以灰色字体绘制完成，层级位于下面 -->
                                                                        <path d="M 276 731 Q 304 709 335 680 Q 351 667 368 668 Q 380 669 385 684 Q 389 700 378 733 Q 371 754 337 767 Q 256 792 244 783 Q 238 779 241 765 Q 245 752 276 731 Z" style="fill: #0070C0;"></path>
                                                                        <path d="M 144 492 Q 93 476 65 473 Q 50 473 48 465 Q 44 456 55 449 Q 97 424 125 436 Q 165 457 203 478 Q 228 491 238 484 Q 248 477 243 451 Q 242 411 239 371 Q 235 254 202 149 Q 183 119 225 64 Q 235 51 246 57 Q 255 64 267 88 Q 309 133 394 208 Q 407 218 406 226 Q 405 235 393 226 Q 356 207 317 185 Q 257 142 271 211 Q 271 278 298 443 Q 302 468 325 491 Q 338 501 328 515 Q 316 531 277 549 Q 265 555 247 544 Q 181 507 144 492 Z" style="fill: #0070C0;"></path>
                                                                        <path d="M 647 773 Q 599 731 477 675 Q 473 666 477 664 Q 525 664 654 717 Q 676 732 742 746 Q 758 747 761 754 Q 764 764 753 774 Q 734 789 693 804 Q 680 811 667 810 Q 660 806 660 796 Q 659 783 647 773 Z" style="fill: #0070C0;"></path>
                                                                        <path d="M 475 581 Q 497 559 520 534 Q 530 522 544 522 Q 553 522 557 533 Q 561 545 556 569 Q 549 597 474 621 Q 461 625 456 623 Q 452 620 452 609 Q 455 599 475 581 Z" style="fill: #0070C0;"></path>
                                                                        <path d="M 584 635 Q 624 568 647 564 Q 659 561 666 576 Q 669 586 663 606 Q 648 639 591 658 Q 584 661 581 651 Q 580 644 584 635 Z" style="fill: #0070C0;"></path>
                                                                        <path d="M 800 662 Q 764 610 691 533 Q 685 526 691 519 Q 698 518 706 522 Q 818 607 872 640 Q 890 644 886 655 Q 880 671 862 690 Q 843 708 821 710 Q 806 710 807 691 Q 810 678 800 662 Z" style="fill: #0070C0;"></path>
                                                                        <path d="M 535 427 Q 542 440 552 451 Q 559 461 548 473 Q 512 498 491 496 Q 482 493 484 482 Q 497 424 421 326 Q 415 320 412 314 Q 406 301 418 306 Q 458 312 512 389 Q 516 398 523 408 L 535 427 Z" style="fill: #0070C0;"></path>
                                                                        <path d="M 674 403 Q 816 433 822 437 Q 831 444 827 452 Q 820 464 792 471 Q 768 477 664 447 Q 561 431 538 428 Q 535 428 535 427 C 506 421 501 420 523 408 Q 524 408 527 406 Q 566 382 623 394 L 674 403 Z" style="fill: #0070C0;"></path>
                                                                        <path d="M 684 273 Q 762 283 874 287 Q 932 291 937 298 Q 941 310 925 322 Q 867 361 803 340 Q 754 330 685 313 L 633 303 Q 530 287 411 266 Q 392 263 407 247 Q 420 234 438 230 Q 459 226 474 230 Q 549 254 634 266 L 684 273 Z" style="fill: #0070C0;"></path>
                                                                        <path d="M 678 108 Q 681 198 684 273 L 685 313 Q 686 326 687 339 Q 690 387 679 399 Q 676 402 674 403 C 653 424 614 422 623 394 Q 629 388 633 303 L 634 266 Q 634 205 635 100 C 635 70 677 78 678 108 Z" style="fill: #0070C0;"></path>
                                                                        <path d="M 817 129 Q 742 122 678 108 L 635 100 Q 574 90 523 72 Q 507 69 511 89 Q 515 116 521 143 Q 525 165 517 178 Q 487 215 462 212 Q 452 208 459 191 Q 475 151 467 111 Q 461 74 445 57 Q 429 42 434 29 Q 444 14 460 5 Q 473 -2 481 5 Q 520 44 740 88 Q 798 100 814 93 C 844 88 847 132 817 129 Z" style="fill: #0070C0;"></path>
                                                                        <path d="M 814 93 Q 813 92 813 88 Q 809 79 813 65 Q 822 40 832 25 Q 842 12 850 23 Q 868 47 862 118 Q 865 190 870 201 Q 874 214 864 225 Q 846 235 817 248 Q 805 252 796 245 Q 790 241 794 230 Q 816 208 817 129 L 814 93 Z" style="fill: #0070C0;"></path>
                                    
                                    
                                                                                                                                                                                                                                                                                                                                                                                                                                                                                                                                                                                                                                                                                                                                                                                                                                                                                                                                                                                                                            </g>
                            </svg>