<svg width='83' height='83' >
                                <g transform="translate(3, 70) scale(0.07, -0.07)">
                                    <!-- 先将完整的字以灰色字体绘制完成，层级位于下面 -->
                                                                        <path d="M 201 725 Q 229 700 259 669 Q 272 656 288 655 Q 298 656 305 669 Q 309 684 302 713 Q 296 735 265 751 Q 192 782 176 775 Q 172 771 172 758 Q 175 748 201 725 Z" style="fill: #0070C0;"></path>
                                                                        <path d="M 123 492 Q 74 474 48 471 Q 35 471 32 463 Q 28 454 40 448 Q 62 435 78 434 Q 99 431 180 481 Q 202 494 211 487 Q 221 483 217 458 Q 210 274 180 175 Q 164 145 207 96 Q 217 84 227 91 Q 234 98 245 122 Q 282 177 362 275 Q 372 287 370 294 Q 367 301 358 292 Q 316 258 275 222 Q 241 191 245 235 Q 245 296 269 450 Q 273 474 294 497 Q 306 507 296 519 Q 286 535 248 551 Q 236 557 220 546 Q 159 506 123 492 Z" style="fill: #0070C0;"></path>
                                                                        <path d="M 469 711 Q 524 727 581 745 Q 588 752 583 759 Q 576 768 553 772 Q 535 775 463 748 Q 436 741 404 735 Q 376 728 397 716 Q 412 707 444 707 L 469 711 Z" style="fill: #0070C0;"></path>
                                                                        <path d="M 577 609 Q 547 633 498 621 Q 494 621 489 619 Q 486 619 484 617 L 440 609 Q 412 605 386 595 Q 380 592 379 594 Q 376 595 378 602 Q 382 638 387 648 Q 391 658 383 665 Q 370 680 349 687 Q 339 690 334 685 Q 330 681 337 670 Q 367 622 331 584 Q 322 574 326 567 Q 333 554 344 543 Q 353 536 364 545 Q 385 563 431 572 L 473 580 Q 512 587 563 586 Q 570 585 575 586 C 605 586 602 592 577 609 Z" style="fill: #0070C0;"></path>
                                                                        <path d="M 484 617 Q 488 648 498 665 Q 505 674 502 684 Q 493 696 469 711 C 444 727 440 730 444 707 Q 450 673 448 649 Q 447 648 440 609 L 431 572 Q 407 481 327 382 Q 323 378 321 374 Q 318 367 326 367 Q 350 367 412 446 Q 412 449 415 451 Q 445 499 460 543 L 467 562 Q 470 572 473 580 L 484 617 Z" style="fill: #0070C0;"></path>
                                                                        <path d="M 460 543 Q 478 503 464 463 Q 460 442 450 431 Q 440 416 445 400 Q 452 376 464 367 Q 471 363 481 375 Q 506 405 592 480 Q 605 490 606 496 Q 607 505 592 497 Q 558 478 519 457 Q 506 450 501 453 Q 497 456 497 468 Q 503 508 507 517 Q 511 530 502 540 Q 486 559 472 562 Q 469 563 467 562 C 451 564 451 564 460 543 Z" style="fill: #0070C0;"></path>
                                                                        <path d="M 721 746 Q 721 747 820 773 Q 842 779 845 782 Q 852 789 847 797 Q 840 807 813 813 Q 798 814 712 788 Q 682 781 646 775 Q 613 768 638 753 Q 657 744 687 743 L 721 746 Z" style="fill: #0070C0;"></path>
                                                                        <path d="M 719 613 Q 765 623 846 624 Q 862 624 868 633 Q 872 640 857 648 Q 817 675 756 654 Q 741 653 728 647 L 681 634 Q 660 630 642 623 Q 621 616 626 634 Q 635 679 644 697 Q 651 704 646 712 Q 642 719 616 730 Q 603 736 596 731 Q 589 724 596 715 Q 606 693 596 642 Q 595 627 577 610 Q 576 610 577 609 C 565 595 565 595 575 586 Q 579 582 587 575 Q 597 569 606 579 Q 648 603 674 603 L 719 613 Z" style="fill: #0070C0;"></path>
                                                                        <path d="M 711 590 Q 715 602 719 613 L 728 647 Q 728 650 729 651 Q 738 694 744 703 Q 751 713 747 723 Q 738 736 721 746 C 696 763 680 772 687 743 Q 697 721 681 634 L 674 603 Q 673 600 673 596 Q 648 505 575 415 Q 571 411 569 406 Q 566 399 574 399 Q 601 399 660 481 Q 660 484 663 486 Q 684 520 701 560 L 711 590 Z" style="fill: #0070C0;"></path>
                                                                        <path d="M 936 420 Q 926 441 911 502 Q 910 514 904 517 Q 900 520 897 507 Q 879 440 867 419 Q 861 412 844 407 Q 802 398 768 414 Q 755 421 750 431 Q 738 459 752 549 Q 758 576 716 589 Q 715 590 711 590 C 694 595 695 589 701 560 Q 707 535 707 509 Q 706 400 741 377 Q 751 371 767 365 Q 863 340 932 389 Q 945 402 936 420 Z" style="fill: #0070C0;"></path>
                                                                        <path d="M 478 318 Q 460 331 441 337 Q 434 338 428 332 Q 427 328 432 318 Q 462 246 436 106 Q 423 94 429 62 Q 436 34 447 23 Q 457 13 464 23 Q 473 33 477 50 L 483 84 Q 484 100 485 114 Q 485 145 486 175 L 487 202 Q 487 269 491 290 C 493 308 493 308 478 318 Z" style="fill: #0070C0;"></path>
                                                                        <path d="M 650 64 Q 678 28 699 -5 Q 706 -21 717 -20 Q 732 -19 745 11 Q 761 45 758 87 Q 751 147 745 258 Q 744 286 759 305 Q 766 317 759 326 Q 743 342 695 364 Q 679 373 666 364 Q 599 333 478 318 C 448 314 461 285 491 290 Q 495 290 650 319 Q 672 323 683 315 Q 708 285 693 91 L 693 89 Q 692 82 686 78 C 674 51 632 88 650 64 Z" style="fill: #0070C0;"></path>
                                                                        <path d="M 486 175 Q 490 174 499 175 Q 580 188 638 196 Q 662 200 653 212 Q 643 227 617 231 Q 586 234 487 202 C 458 193 456 178 486 175 Z" style="fill: #0070C0;"></path>
                                                                        <path d="M 477 50 Q 487 49 499 50 Q 548 60 650 64 C 680 65 692 66 686 78 Q 685 87 658 104 Q 642 114 611 107 Q 541 92 483 84 C 453 80 447 52 477 50 Z" style="fill: #0070C0;"></path>
                                    
                                    
                                                                                                                                                                                                                                                                                                                                                                                                                                                                                                                                                                                                                                                                                                                                                                                                                                                                                                                                                                                                                                                                                                                                                                                    </g>
                            </svg>