<svg width='83' height='83' >
                                <g transform="translate(3, 70) scale(0.07, -0.07)">
                                    <!-- 先将完整的字以灰色字体绘制完成，层级位于下面 -->
                                                                        <path d="M 258 737 Q 288 712 319 680 Q 332 667 349 667 Q 359 667 365 681 Q 369 696 361 725 Q 352 758 254 786 Q 238 790 232 787 Q 228 783 228 770 Q 232 760 258 737 Z" style="fill: #0070C0;"></path>
                                                                        <path d="M 133 476 Q 87 460 61 458 Q 48 458 46 451 Q 42 442 53 436 Q 75 423 89 421 Q 108 418 202 468 Q 226 481 234 474 Q 243 468 238 444 Q 238 282 201 166 Q 186 133 226 89 Q 236 77 245 84 Q 252 90 263 113 Q 300 161 377 244 Q 389 254 386 262 Q 385 269 374 261 Q 335 236 298 206 Q 258 172 264 222 Q 264 285 289 437 Q 292 459 313 481 Q 325 491 315 503 Q 305 518 269 534 Q 259 540 242 529 Q 173 490 133 476 Z" style="fill: #0070C0;"></path>
                                                                        <path d="M 623 692 Q 710 755 740 761 Q 756 765 751 780 Q 750 793 695 824 Q 680 833 661 826 Q 613 808 540 786 Q 521 780 474 781 Q 455 781 462 765 Q 469 755 484 745 Q 509 732 537 748 Q 643 796 660 789 Q 670 783 666 773 Q 639 740 608 700 C 590 676 599 674 623 692 Z" style="fill: #0070C0;"></path>
                                                                        <path d="M 637 654 Q 637 655 638 656 Q 639 674 623 692 L 608 700 Q 602 706 548 712 Q 539 712 535 710 Q 534 707 535 700 Q 574 675 616 648 C 632 638 632 638 637 654 Z" style="fill: #0070C0;"></path>
                                                                        <path d="M 622 623 Q 674 636 728 645 Q 758 649 760 637 Q 760 625 736 578 Q 729 565 735 561 Q 741 557 753 568 Q 819 614 845 623 Q 866 627 864 639 Q 863 649 798 683 Q 779 692 754 686 Q 691 668 637 654 L 616 648 Q 609 649 606 647 Q 528 632 419 615 Q 395 612 414 592 Q 429 574 470 587 Q 518 600 568 611 L 622 623 Z" style="fill: #0070C0;"></path>
                                                                        <path d="M 612 597 Q 639 570 630 529 Q 629 513 621 502 Q 614 489 595 493 Q 577 497 561 501 Q 554 504 557 496 Q 558 492 570 482 Q 592 460 599 442 Q 606 430 617 433 Q 627 434 644 452 Q 674 485 668 549 Q 665 580 657 597 Q 645 616 622 623 C 594 633 592 619 612 597 Z" style="fill: #0070C0;"></path>
                                                                        <path d="M 568 611 Q 535 545 382 469 Q 367 462 379 458 Q 388 455 421 463 Q 455 470 488 488 Q 516 504 552 533 Q 580 555 597 578 Q 606 591 612 597 C 638 626 605 679 568 611 Z" style="fill: #0070C0;"></path>
                                                                        <path d="M 440 403 Q 437 407 432 409 Q 405 422 389 421 Q 376 417 382 406 Q 425 313 387 126 Q 369 63 369 62 Q 369 37 388 12 Q 395 0 404 5 Q 437 29 440 140 Q 444 315 448 365 C 450 395 450 396 440 403 Z" style="fill: #0070C0;"></path>
                                                                        <path d="M 448 365 Q 455 364 467 367 Q 738 436 763 412 Q 770 408 774 369 Q 783 239 775 93 Q 774 71 766 65 Q 756 55 695 55 Q 679 56 682 48 Q 683 41 696 37 Q 753 6 784 -20 Q 803 -36 815 -34 Q 825 -30 835 -4 Q 847 36 843 97 Q 822 359 840 394 Q 850 413 841 425 Q 831 438 788 460 Q 770 469 701 449 Q 584 421 440 403 C 410 399 418 361 448 365 Z" style="fill: #0070C0;"></path>
                                                                        <path d="M 524 352 Q 527 345 524 338 Q 490 296 454 252 Q 451 248 459 247 Q 486 247 547 302 Q 556 311 563 315 Q 569 319 568 327 Q 567 334 554 349 Q 542 362 532 363 Q 522 364 524 352 Z" style="fill: #0070C0;"></path>
                                                                        <path d="M 661 339 Q 721 294 732 294 Q 739 295 742 304 Q 743 314 736 334 Q 730 350 706 359 Q 649 375 640 370 Q 636 367 638 359 Q 641 352 661 339 Z" style="fill: #0070C0;"></path>
                                                                        <path d="M 543 233 L 543 234 Q 533 238 504 244 Q 495 245 492 242 Q 488 238 494 224 Q 513 190 526 130 Q 527 112 539 101 Q 552 85 557 96 Q 558 103 559 114 L 557 140 Q 550 191 548 210 L 543 233 Z" style="fill: #0070C0;"></path>
                                                                        <path d="M 684 162 Q 700 201 716 212 Q 735 233 716 245 Q 700 255 679 270 Q 663 280 648 271 Q 627 258 601 249 Q 576 242 543 233 C 514 225 518 206 548 210 Q 557 211 568 214 Q 602 221 630 228 Q 649 232 654 225 Q 658 221 652 201 Q 646 183 639 162 C 630 134 672 134 684 162 Z" style="fill: #0070C0;"></path>
                                                                        <path d="M 559 114 Q 568 113 578 116 Q 615 126 696 135 Q 703 136 705 144 Q 705 150 684 162 C 669 171 668 170 639 162 Q 593 149 557 140 C 528 133 529 115 559 114 Z" style="fill: #0070C0;"></path>
                                    
                                    
                                                                                                                                                                                                                                                                                                                                                                                                                                                                                                                                                                                                                                                                                                                                                                                                                                                                                                                                                                                                                                                                                                                                                                                    </g>
                            </svg>