<svg width='83' height='83' >
                                <g transform="translate(3, 70) scale(0.07, -0.07)">
                                    <!-- 先将完整的字以灰色字体绘制完成，层级位于下面 -->
                                                                        <path d="M 438 691 Q 526 710 620 726 Q 681 739 690 748 Q 700 757 695 766 Q 688 779 655 789 Q 625 795 539 769 Q 389 727 260 717 Q 218 711 248 692 Q 299 664 368 680 Q 378 683 390 683 L 438 691 Z" style="fill: #0070C0;"></path>
                                                                        <path d="M 381 578 Q 420 617 449 633 Q 459 640 458 652 Q 458 664 438 691 C 421 715 397 712 390 683 Q 383 622 181 472 Q 171 466 166 461 Q 162 454 173 452 Q 212 449 356 558 L 381 578 Z" style="fill: #0070C0;"></path>
                                                                        <path d="M 524 450 Q 490 529 381 578 C 354 591 330 573 356 558 Q 375 548 392 535 L 450 484 Q 474 457 482 437 L 505 364 Q 526 268 492 125 Q 476 62 457 54 Q 442 48 367 73 Q 325 86 324 80 Q 323 73 334 59 Q 407 -2 437 -42 Q 452 -64 469 -60 Q 497 -50 521 -11 Q 564 76 571 245 Q 568 312 554 372 L 536 430 L 524 450 Z" style="fill: #0070C0;"></path>
                                                                        <path d="M 392 535 Q 392 495 330 428 Q 321 421 314 411 L 280 381 Q 204 327 139 289 Q 132 286 139 283 Q 193 277 305 355 L 348 390 Q 382 421 432 470 Q 441 479 450 484 C 475 501 395 565 392 535 Z" style="fill: #0070C0;"></path>
                                                                        <path d="M 482 437 Q 394 286 179 146 Q 151 130 117 108 Q 102 96 113 93 Q 122 87 136 91 Q 283 131 431 282 Q 443 295 457 310 Q 496 352 505 364 C 524 387 497 463 482 437 Z" style="fill: #0070C0;"></path>
                                                                        <path d="M 314 411 Q 278 432 235 447 Q 228 451 226 442 Q 226 432 234 424 Q 256 405 280 381 L 305 355 Q 350 310 356 307 Q 363 306 369 314 Q 378 324 368 358 Q 365 373 348 390 L 314 411 Z" style="fill: #0070C0;"></path>
                                                                        <path d="M 536 430 Q 657 532 720 570 Q 739 576 735 588 Q 728 606 706 626 Q 684 645 659 648 Q 643 647 644 625 Q 647 609 637 591 Q 598 536 524 450 C 504 427 513 411 536 430 Z" style="fill: #0070C0;"></path>
                                                                        <path d="M 554 372 Q 743 159 786 143 Q 855 128 969 147 Q 988 148 990 154 Q 993 161 977 168 Q 922 190 858 212 Q 717 266 549 420 Q 542 426 536 430 C 512 448 534 394 554 372 Z" style="fill: #0070C0;"></path>
                                    
                                    
                                                                                                                                                                                                                                                                                                                                                                                                                                                                                                                                                                                                                                                                                                            </g>
                            </svg>