<svg width='83' height='83' >
                                <g transform="translate(3, 70) scale(0.07, -0.07)">
                                    <!-- 先将完整的字以灰色字体绘制完成，层级位于下面 -->
                                                                        <path d="M 346 787 Q 367 771 390 751 Q 403 739 419 742 Q 429 743 433 756 Q 436 771 425 798 Q 413 823 337 832 Q 321 833 316 831 Q 312 827 314 815 Q 318 805 346 787 Z" style="fill: #0070C0;"></path>
                                                                        <path d="M 427 672 Q 433 675 441 676 Q 478 686 484 692 Q 491 699 487 706 Q 480 716 455 721 Q 434 724 346 694 Q 274 673 206 664 Q 175 658 198 644 Q 234 625 282 638 Q 334 651 392 664 L 427 672 Z" style="fill: #0070C0;"></path>
                                                                        <path d="M 239 589 Q 257 531 277 523 Q 287 519 296 530 Q 300 540 299 557 Q 293 584 250 608 Q 243 611 240 603 Q 236 597 239 589 Z" style="fill: #0070C0;"></path>
                                                                        <path d="M 397 537 Q 398 541 401 544 Q 416 569 431 599 Q 437 612 450 629 Q 462 639 454 648 Q 447 660 427 672 C 402 688 385 693 392 664 Q 401 634 370 544 Q 366 537 365 528 C 360 498 384 510 397 537 Z" style="fill: #0070C0;"></path>
                                                                        <path d="M 289 471 Q 331 483 466 507 Q 475 506 482 517 Q 483 527 463 535 Q 442 550 412 542 Q 403 541 397 537 L 365 528 Q 227 495 134 477 Q 110 473 130 459 Q 160 438 183 445 Q 214 454 252 462 L 289 471 Z" style="fill: #0070C0;"></path>
                                                                        <path d="M 253 386 Q 296 429 303 432 Q 309 435 309 442 Q 309 458 289 471 C 265 489 263 490 252 462 Q 225 387 86 300 Q 79 297 87 294 Q 135 294 234 368 L 253 386 Z" style="fill: #0070C0;"></path>
                                                                        <path d="M 326 336 Q 286 373 253 386 C 226 399 208 384 234 368 Q 247 361 258 352 L 300 317 Q 307 308 316 298 L 341 253 Q 359 196 333 107 Q 323 76 312 70 Q 306 67 238 74 Q 225 78 224 72 Q 223 65 233 55 Q 279 15 298 -11 Q 308 -26 322 -23 Q 362 -8 383 91 Q 410 244 337 325 L 326 336 Z" style="fill: #0070C0;"></path>
                                                                        <path d="M 258 352 Q 257 351 257 348 Q 242 296 96 200 Q 80 191 99 192 Q 156 192 261 281 Q 262 284 265 285 Q 289 307 300 317 C 322 337 266 381 258 352 Z" style="fill: #0070C0;"></path>
                                                                        <path d="M 316 298 Q 315 299 315 298 Q 261 196 112 97 Q 100 87 108 85 Q 123 76 185 108 Q 242 138 308 212 Q 338 243 337 246 Q 340 250 341 253 C 355 280 333 323 316 298 Z" style="fill: #0070C0;"></path>
                                                                        <path d="M 337 325 Q 373 344 395 360 Q 443 394 467 403 Q 483 410 476 425 Q 466 438 446 452 Q 427 464 417 461 Q 407 461 410 450 Q 411 429 368 380 Q 349 361 326 336 C 306 314 311 311 337 325 Z" style="fill: #0070C0;"></path>
                                                                        <path d="M 416 274 Q 437 252 459 224 Q 468 214 480 212 Q 487 211 493 221 Q 499 231 495 255 Q 491 283 417 312 Q 405 316 400 314 Q 396 313 396 302 Q 397 293 416 274 Z" style="fill: #0070C0;"></path>
                                    
                                    
                                                                                                                                                                                                                                                                                                                                                                                                                                                                                                                                                                                                                                                                                                                                                                                                                                                                                                                                                </g>
                            </svg>