<svg width='83' height='83' >
                                <g transform="translate(3, 70) scale(0.07, -0.07)">
                                    <!-- 先将完整的字以灰色字体绘制完成，层级位于下面 -->
                                                                        <path d="M 281 580 Q 380 680 409 693 Q 427 699 420 713 Q 417 726 358 756 Q 342 763 322 756 Q 276 737 203 713 Q 184 706 138 707 Q 117 707 125 689 Q 132 679 149 669 Q 176 654 205 673 Q 305 724 324 714 Q 336 707 330 694 Q 299 646 265 590 C 249 564 260 559 281 580 Z" style="fill: #0070C0;"></path>
                                                                        <path d="M 265 590 Q 261 594 212 600 Q 200 601 196 599 Q 192 595 194 585 Q 198 578 220 563 Q 241 550 263 531 Q 275 522 286 524 Q 295 525 297 536 Q 300 548 290 570 Q 287 577 281 580 L 265 590 Z" style="fill: #0070C0;"></path>
                                                                        <path d="M 256 450 Q 289 460 327 468 Q 355 472 357 461 Q 357 448 331 396 Q 325 384 331 381 Q 337 378 347 388 Q 408 439 434 449 Q 453 455 452 467 Q 451 477 390 505 Q 369 514 274 482 Q 124 448 71 437 Q 49 434 66 416 Q 79 400 118 413 Q 172 429 228 443 L 256 450 Z" style="fill: #0070C0;"></path>
                                                                        <path d="M 199 106 Q 181 110 159 115 Q 149 118 149 112 Q 150 105 158 98 Q 209 56 242 21 Q 252 14 264 27 Q 298 73 292 173 Q 286 287 295 392 Q 299 414 295 423 Q 288 435 256 450 C 229 464 224 466 228 443 Q 234 410 243 374 Q 247 125 232 104 Q 222 98 199 106 Z" style="fill: #0070C0;"></path>
                                                                        <path d="M 579 766 Q 580 770 585 772 Q 598 788 610 794 Q 617 801 616 811 Q 615 821 596 841 Q 580 857 566 859 Q 553 860 555 843 Q 562 819 510 753 Q 485 722 452 690 Q 445 683 441 679 Q 437 672 448 672 Q 457 672 477 685 Q 498 695 524 717 Q 542 730 562 750 L 579 766 Z" style="fill: #0070C0;"></path>
                                                                        <path d="M 629 645 Q 704 721 743 741 Q 759 748 749 762 Q 739 772 706 794 Q 700 797 608 772 Q 595 769 579 766 C 550 760 538 758 562 750 Q 580 740 650 751 Q 657 752 659 750 Q 662 747 658 739 Q 624 678 604 649 Q 600 645 598 639 C 584 613 608 624 629 645 Z" style="fill: #0070C0;"></path>
                                                                        <path d="M 427 618 Q 417 619 414 616 Q 410 610 418 597 Q 443 557 463 487 Q 467 465 482 453 Q 498 435 501 449 Q 502 456 502 464 L 500 486 Q 488 522 477 584 C 472 614 457 617 427 618 Z" style="fill: #0070C0;"></path>
                                                                        <path d="M 720 493 Q 733 474 745 467 Q 752 460 767 476 Q 776 488 800 556 Q 807 583 828 603 Q 840 613 830 626 Q 817 641 781 664 Q 768 671 705 657 Q 684 656 629 645 L 598 639 Q 576 638 553 632 Q 463 616 427 618 C 397 618 448 576 477 584 Q 523 597 594 609 L 632 616 Q 666 623 708 628 Q 741 632 751 621 Q 758 614 756 605 Q 740 526 727 518 C 715 500 715 500 720 493 Z" style="fill: #0070C0;"></path>
                                                                        <path d="M 596 476 Q 663 488 720 493 C 750 496 755 508 727 518 Q 699 531 612 507 L 563 497 Q 530 493 500 486 C 471 479 472 463 502 464 Q 509 464 520 465 Q 532 468 547 469 L 596 476 Z" style="fill: #0070C0;"></path>
                                                                        <path d="M 549 408 Q 580 451 596 476 L 612 507 Q 619 523 628 542 Q 638 563 651 583 Q 658 590 653 598 Q 649 605 632 616 C 607 633 595 639 594 609 Q 594 572 579 530 Q 572 515 563 497 L 547 469 Q 496 393 388 314 Q 382 308 387 306 Q 393 303 401 307 Q 468 334 531 389 L 549 408 Z" style="fill: #0070C0;"></path>
                                                                        <path d="M 662 299 L 662 300 L 654 314 Q 615 374 549 408 C 523 423 506 406 531 389 Q 546 379 561 367 L 599 330 Q 608 320 616 306 L 640 248 Q 652 184 622 89 Q 609 52 597 47 Q 588 44 525 64 Q 501 76 500 68 Q 499 61 507 49 Q 555 -3 573 -35 Q 583 -54 599 -52 Q 618 -48 638 -21 Q 687 60 688 186 Q 688 207 681 246 L 662 299 Z" style="fill: #0070C0;"></path>
                                                                        <path d="M 561 367 Q 537 298 376 188 Q 360 179 379 180 Q 442 186 561 293 Q 562 299 599 330 C 622 349 572 395 561 367 Z" style="fill: #0070C0;"></path>
                                                                        <path d="M 616 306 Q 550 180 364 53 Q 351 43 360 41 Q 367 37 380 40 Q 521 82 638 246 Q 638 247 640 248 C 658 272 630 332 616 306 Z" style="fill: #0070C0;"></path>
                                                                        <path d="M 662 300 Q 689 312 767 354 Q 786 367 808 373 Q 829 380 821 397 Q 811 413 788 429 Q 769 444 757 443 Q 745 443 747 430 Q 748 402 698 357 Q 676 338 654 314 C 634 292 635 288 662 300 Z" style="fill: #0070C0;"></path>
                                                                        <path d="M 681 246 Q 733 186 789 129 Q 808 110 840 109 Q 898 106 959 118 Q 975 119 976 124 Q 977 128 966 134 Q 788 197 708 260 Q 698 270 662 299 C 639 318 661 269 681 246 Z" style="fill: #0070C0;"></path>
                                    
                                    
                                                                                                                                                                                                                                                                                                                                                                                                                                                                                                                                                                                                                                                                                                                                                                                                                                                                                                                                                                                                                                                                                                                                                                                                                                                                </g>
                            </svg>