<svg width='83' height='83' >
                                <g transform="translate(3, 70) scale(0.07, -0.07)">
                                    <!-- 先将完整的字以灰色字体绘制完成，层级位于下面 -->
                                                                        <path d="M 272 660 Q 455 711 461 717 Q 468 724 464 733 Q 457 743 427 749 Q 399 753 370 739 Q 328 723 284 708 Q 233 695 175 685 Q 141 676 166 662 Q 196 649 236 651 L 272 660 Z" style="fill: #0070C0;"></path>
                                                                        <path d="M 228 534 Q 273 588 295 603 Q 302 610 301 621 Q 300 633 272 660 C 251 681 234 681 236 651 Q 245 618 165 525 Q 128 482 77 435 Q 67 428 65 424 Q 61 415 72 416 Q 109 416 210 516 L 228 534 Z" style="fill: #0070C0;"></path>
                                                                        <path d="M 323 446 Q 289 503 228 534 C 202 549 185 532 210 516 Q 228 506 243 491 L 280 449 Q 290 434 299 414 L 318 344 Q 330 248 302 132 Q 287 77 270 70 Q 263 66 218 69 Q 185 73 184 68 Q 183 61 194 51 Q 240 14 259 -12 Q 269 -27 283 -23 Q 307 -17 328 16 Q 382 121 370 281 Q 364 371 331 431 L 323 446 Z" style="fill: #0070C0;"></path>
                                                                        <path d="M 243 491 Q 242 490 241 484 Q 220 412 75 297 Q 60 287 79 289 Q 134 293 248 411 Q 248 414 280 449 C 300 471 251 520 243 491 Z" style="fill: #0070C0;"></path>
                                                                        <path d="M 299 414 Q 293 413 290 404 Q 236 283 71 155 Q 59 143 68 141 Q 86 132 155 175 Q 236 223 316 342 Q 316 343 318 344 C 336 368 321 435 299 414 Z" style="fill: #0070C0;"></path>
                                                                        <path d="M 331 431 L 332 431 Q 408 501 448 528 Q 463 534 458 542 Q 451 555 434 569 Q 416 584 397 583 Q 385 582 387 565 Q 391 546 323 446 C 306 421 307 413 331 431 Z" style="fill: #0070C0;"></path>
                                                                        <path d="M 390 386 Q 447 332 458 331 Q 465 331 470 341 Q 474 351 468 373 Q 461 400 388 421 Q 376 424 372 422 Q 368 421 369 410 Q 370 403 390 386 Z" style="fill: #0070C0;"></path>
                                                                        <path d="M 538 664 Q 522 676 502 680 Q 496 683 491 678 Q 484 674 492 662 Q 529 599 531 450 Q 534 384 567 367 L 568 366 Q 583 362 585 390 L 585 404 L 582 432 Q 566 552 565 637 C 565 646 563 647 538 664 Z" style="fill: #0070C0;"></path>
                                                                        <path d="M 731 421 Q 732 420 734 418 Q 753 390 769 382 Q 779 375 793 395 Q 811 429 840 608 Q 847 636 868 660 Q 880 670 869 684 Q 856 699 815 721 Q 797 730 734 710 Q 730 710 627 685 Q 578 672 538 664 C 509 658 537 628 565 637 Q 625 658 751 683 Q 770 686 781 679 Q 800 666 795 640 Q 765 454 746 439 C 734 418 728 424 731 421 Z" style="fill: #0070C0;"></path>
                                                                        <path d="M 670 549 Q 703 621 703 624 Q 696 639 670 642 Q 657 643 650 641 Q 646 638 648 631 Q 663 598 625 526 Q 615 505 587 463 Q 583 459 589 459 Q 622 472 662 534 L 670 549 Z" style="fill: #0070C0;"></path>
                                                                        <path d="M 662 534 Q 661 534 662 533 Q 720 475 739 473 Q 748 473 752 486 Q 752 495 745 508 Q 732 532 670 549 C 649 555 649 555 662 534 Z" style="fill: #0070C0;"></path>
                                                                        <path d="M 637 91 Q 637 92 638 93 Q 644 136 616 251 Q 615 254 615 255 Q 614 267 608 275 C 592 301 581 299 584 269 Q 585 256 589 242 Q 590 232 597 132 Q 598 111 615 89 C 631 67 631 67 637 91 Z" style="fill: #0070C0;"></path>
                                                                        <path d="M 585 404 Q 592 403 601 405 Q 641 415 731 421 C 761 423 763 423 746 439 Q 739 446 726 454 Q 711 461 685 455 Q 630 442 582 432 C 553 426 555 406 585 404 Z" style="fill: #0070C0;"></path>
                                                                        <path d="M 707 100 Q 734 214 750 241 Q 757 257 749 270 Q 739 283 727 294 C 705 315 691 320 695 290 Q 699 259 698 229 Q 695 201 672 96 C 666 67 700 71 707 100 Z" style="fill: #0070C0;"></path>
                                                                        <path d="M 835 118 Q 865 238 900 273 Q 919 295 893 312 Q 868 331 842 345 Q 826 357 804 347 Q 779 337 742 330 Q 675 320 597 304 Q 551 295 518 290 C 488 285 500 254 530 258 Q 539 258 551 261 Q 567 265 584 269 L 608 275 Q 632 284 695 290 L 727 294 Q 758 300 796 303 Q 806 304 811 298 Q 827 271 778 109 C 769 80 827 89 835 118 Z" style="fill: #0070C0;"></path>
                                                                        <path d="M 518 78 Q 472 75 424 69 Q 405 68 419 51 Q 432 38 449 31 Q 470 27 485 30 Q 617 63 914 63 Q 930 63 946 62 Q 965 62 970 70 Q 976 80 960 95 Q 903 137 843 120 Q 839 120 835 118 L 778 109 Q 744 106 707 100 L 672 96 Q 654 95 637 91 L 615 89 Q 584 86 550 81 L 518 78 Z" style="fill: #0070C0;"></path>
                                    
                                    
                                                                                                                                                                                                                                                                                                                                                                                                                                                                                                                                                                                                                                                                                                                                                                                                                                                                                                                                                                                                                                                                                                                                                                                                                                                                                                                                            </g>
                            </svg>