<svg width='83' height='83' >
                                <g transform="translate(3, 70) scale(0.07, -0.07)">
                                    <!-- 先将完整的字以灰色字体绘制完成，层级位于下面 -->
                                                                        <path d="M 278 668 Q 315 687 345 703 Q 423 749 454 757 Q 476 764 469 782 Q 459 801 436 819 Q 415 835 402 835 Q 389 836 391 822 Q 392 794 312 730 Q 270 697 225 661 Q 212 648 229 647 Q 245 654 260 661 L 278 668 Z" style="fill: #0070C0;"></path>
                                                                        <path d="M 151 570 Q 181 537 207 525 Q 217 524 224 533 Q 228 542 226 554 Q 222 570 208 580 Q 160 607 141 598 Q 137 597 138 588 Q 139 579 151 570 Z" style="fill: #0070C0;"></path>
                                                                        <path d="M 260 661 Q 257 651 295 605 Q 308 589 323 587 Q 335 586 342 600 Q 343 612 337 630 Q 325 651 278 668 C 260 675 260 675 260 661 Z" style="fill: #0070C0;"></path>
                                                                        <path d="M 287 481 Q 486 611 502 616 Q 517 619 518 627 Q 519 634 509 641 Q 484 663 461 673 Q 448 677 438 665 Q 402 587 178 456 Q 126 429 126 425 Q 126 422 133 422 Q 188 428 264 469 L 287 481 Z" style="fill: #0070C0;"></path>
                                                                        <path d="M 381 299 Q 402 226 361 122 Q 348 88 337 84 Q 327 78 264 91 Q 233 97 232 92 Q 231 85 242 72 Q 294 23 315 -9 Q 327 -27 341 -24 Q 359 -23 378 1 Q 400 32 416 92 Q 438 173 434 226 Q 428 359 327 452 Q 302 474 287 481 C 261 497 244 492 264 469 Q 265 466 286 445 L 324 405 Q 340 386 353 361 L 381 299 Z" style="fill: #0070C0;"></path>
                                                                        <path d="M 286 445 Q 285 444 285 441 Q 270 390 120 296 Q 104 289 123 288 Q 184 284 291 377 Q 310 395 324 405 C 348 423 294 474 286 445 Z" style="fill: #0070C0;"></path>
                                                                        <path d="M 353 361 Q 352 360 352 358 Q 288 241 131 130 Q 125 127 120 123 Q 107 111 116 109 Q 137 99 206 136 Q 269 169 346 256 Q 380 293 379 296 Q 380 297 381 299 C 397 325 366 388 353 361 Z" style="fill: #0070C0;"></path>
                                                                        <path d="M 569 534 Q 570 538 575 542 Q 624 603 679 697 Q 701 740 721 762 Q 731 772 725 787 Q 721 800 690 823 Q 660 841 641 840 Q 622 837 631 815 Q 644 787 636 762 Q 608 680 561 602 Q 516 527 454 444 Q 444 434 442 427 Q 438 415 453 418 Q 483 425 554 515 L 569 534 Z" style="fill: #0070C0;"></path>
                                                                        <path d="M 718 77 Q 702 74 621 102 Q 611 106 611 100 Q 610 96 622 86 Q 671 37 692 2 Q 704 -20 718 -18 Q 739 -19 758 0 Q 830 58 850 201 Q 866 298 876 449 Q 877 483 898 509 Q 913 524 911 532 Q 910 541 889 555 Q 861 577 821 588 Q 797 597 736 575 Q 727 574 716 569 Q 695 565 569 534 C 540 527 524 520 554 515 Q 588 500 736 526 Q 791 536 799 527 Q 820 481 797 261 Q 776 156 753 112 Q 737 79 718 77 Z" style="fill: #0070C0;"></path>
                                                                        <path d="M 552 338 Q 582 307 613 271 Q 626 256 643 256 Q 653 255 661 269 Q 667 284 660 316 Q 653 352 551 388 Q 535 394 528 391 Q 522 387 523 374 Q 526 362 552 338 Z" style="fill: #0070C0;"></path>
                                    
                                    
                                                                                                                                                                                                                                                                                                                                                                                                                                                                                                                                                                                                                                                                                                                                                                                                                                                                    </g>
                            </svg>