<svg width='83' height='83' >
                                <g transform="translate(3, 70) scale(0.07, -0.07)">
                                    <!-- 先将完整的字以灰色字体绘制完成，层级位于下面 -->
                                                                        <path d="M 318 763 Q 267 709 132 631 Q 128 622 133 620 Q 169 620 310 696 Q 371 733 414 746 Q 430 747 433 756 Q 434 766 423 775 Q 369 806 333 802 Q 327 798 328 787 Q 329 774 318 763 Z" style="fill: #0070C0;"></path>
                                                                        <path d="M 136 567 Q 178 503 199 499 Q 211 498 218 512 Q 221 524 214 542 Q 201 570 143 590 Q 136 593 133 583 Q 132 576 136 567 Z" style="fill: #0070C0;"></path>
                                                                        <path d="M 243 621 Q 273 567 293 564 Q 303 561 310 575 Q 313 585 308 601 Q 299 620 250 642 Q 243 643 241 635 Q 240 629 243 621 Z" style="fill: #0070C0;"></path>
                                                                        <path d="M 269 482 Q 315 515 370 561 Q 401 592 426 604 Q 436 610 436 621 Q 435 631 420 654 Q 405 673 392 678 Q 377 681 378 663 Q 379 644 358 609 Q 268 513 104 409 Q 94 405 91 400 Q 87 393 97 391 Q 125 388 233 458 Q 239 462 246 466 L 269 482 Z" style="fill: #0070C0;"></path>
                                                                        <path d="M 344 312 Q 353 227 319 139 Q 304 102 292 97 Q 283 93 230 100 Q 197 104 196 100 Q 195 93 206 81 Q 255 36 274 7 Q 284 -9 298 -6 Q 317 -3 338 22 Q 399 122 393 254 Q 393 317 371 366 Q 332 445 269 482 C 244 498 224 486 246 466 Q 255 457 267 447 L 303 407 Q 313 392 324 373 L 344 312 Z" style="fill: #0070C0;"></path>
                                                                        <path d="M 267 447 Q 266 446 265 442 Q 243 381 112 289 Q 96 279 115 280 Q 182 287 303 407 C 324 428 278 475 267 447 Z" style="fill: #0070C0;"></path>
                                                                        <path d="M 324 373 Q 260 258 88 141 Q 75 131 84 129 Q 91 125 104 128 Q 212 159 343 311 Q 343 312 344 312 C 364 334 339 399 324 373 Z" style="fill: #0070C0;"></path>
                                                                        <path d="M 547 620 Q 583 654 644 719 Q 659 738 679 751 Q 697 764 684 779 Q 668 792 642 801 Q 617 810 606 804 Q 594 801 601 789 Q 610 762 528 622 Q 527 619 526 616 C 516 591 525 599 547 620 Z" style="fill: #0070C0;"></path>
                                                                        <path d="M 501 611 Q 491 615 467 620 Q 455 624 453 619 Q 447 613 454 599 Q 485 527 500 413 Q 503 379 522 355 Q 537 334 542 349 Q 545 358 546 369 L 546 398 Q 545 411 542 424 Q 520 542 516 580 C 513 607 513 607 501 611 Z" style="fill: #0070C0;"></path>
                                                                        <path d="M 722 391 Q 735 372 749 366 Q 759 359 773 378 Q 788 406 816 552 Q 823 580 844 603 Q 856 615 845 627 Q 832 643 792 666 Q 774 673 699 653 Q 693 653 580 628 Q 561 625 547 620 L 526 616 Q 513 615 501 611 C 472 604 488 569 516 580 Q 516 581 518 582 Q 591 604 719 627 Q 747 633 757 623 Q 770 607 768 591 Q 744 449 730 426 C 718 398 718 396 722 391 Z" style="fill: #0070C0;"></path>
                                                                        <path d="M 662 511 Q 678 533 698 566 Q 707 584 708 585 Q 707 591 699 598 Q 677 613 658 610 Q 654 609 655 601 Q 658 579 634 527 Q 633 526 632 523 L 615 496 Q 611 492 608 486 Q 592 465 552 423 Q 548 420 554 419 Q 579 419 639 482 L 662 511 Z" style="fill: #0070C0;"></path>
                                                                        <path d="M 639 482 Q 661 469 685 452 Q 695 443 704 443 Q 708 443 712 450 Q 716 457 705 480 Q 696 498 662 511 L 632 523 Q 625 530 551 548 Q 545 549 546 543 Q 546 540 615 496 L 639 482 Z" style="fill: #0070C0;"></path>
                                                                        <path d="M 546 369 Q 601 382 722 391 C 752 393 756 411 730 426 L 730 427 Q 715 434 689 428 Q 610 409 546 398 C 516 393 517 362 546 369 Z" style="fill: #0070C0;"></path>
                                                                        <path d="M 503 213 Q 507 213 513 214 Q 573 227 617 236 Q 639 242 630 253 Q 618 266 594 268 Q 560 271 505 240 C 479 225 473 211 503 213 Z" style="fill: #0070C0;"></path>
                                                                        <path d="M 505 240 Q 506 256 509 264 Q 513 280 502 290 Q 480 312 464 315 Q 454 316 449 313 Q 440 307 449 296 Q 465 265 464 238 Q 465 147 458 115 Q 454 90 443 76 Q 431 58 438 39 Q 447 11 462 1 Q 471 -6 482 10 Q 512 47 613 136 Q 629 149 630 155 Q 631 165 614 157 Q 574 135 528 110 Q 512 100 504 103 Q 497 107 498 124 Q 499 179 503 213 L 505 240 Z" style="fill: #0070C0;"></path>
                                                                        <path d="M 717 201 Q 817 243 865 256 Q 881 256 880 266 Q 879 282 866 302 Q 854 321 835 329 Q 822 332 818 314 Q 815 293 718 223 C 694 205 689 189 717 201 Z" style="fill: #0070C0;"></path>
                                                                        <path d="M 984 83 Q 972 105 956 176 Q 955 189 949 194 Q 943 195 940 181 Q 921 105 906 82 Q 899 70 872 63 Q 817 48 759 73 Q 738 83 732 98 Q 711 137 717 201 L 718 223 Q 719 269 728 322 Q 732 338 720 347 Q 708 359 687 366 Q 675 369 668 364 Q 662 361 667 345 Q 680 311 679 276 Q 673 65 723 33 Q 738 24 763 14 Q 892 -23 979 48 Q 995 61 984 83 Z" style="fill: #0070C0;"></path>
                                    
                                    
                                                                                                                                                                                                                                                                                                                                                                                                                                                                                                                                                                                                                                                                                                                                                                                                                                                                                                                                                                                                                                                                                                                                                                                                                                                                                                                                                                                                                        </g>
                            </svg>