<svg width='83' height='83' >
                                <g transform="translate(3, 70) scale(0.07, -0.07)">
                                    <!-- 先将完整的字以灰色字体绘制完成，层级位于下面 -->
                                                                        <path d="M 469 747 Q 485 763 498 772 Q 508 779 507 794 Q 506 807 482 833 Q 460 855 442 858 Q 424 859 428 837 Q 437 803 357 707 Q 318 664 267 616 Q 257 609 253 602 Q 249 592 262 592 Q 317 599 453 730 L 469 747 Z" style="fill: #0070C0;"></path>
                                                                        <path d="M 526 584 Q 644 695 686 718 Q 705 727 694 742 Q 681 755 644 781 Q 626 788 611 779 Q 601 775 516 754 Q 494 750 469 747 C 439 743 426 742 453 730 Q 471 715 575 731 Q 585 732 588 729 Q 592 725 585 715 Q 539 646 491 575 C 474 550 504 563 526 584 Z" style="fill: #0070C0;"></path>
                                                                        <path d="M 344 560 Q 325 573 302 580 Q 292 581 286 573 Q 282 567 290 556 Q 326 471 299 306 Q 296 287 289 265 Q 282 237 286 217 Q 296 183 308 169 Q 320 154 330 169 Q 357 200 358 307 Q 362 418 368 530 C 369 545 369 545 344 560 Z" style="fill: #0070C0;"></path>
                                                                        <path d="M 650 258 Q 643 231 658 206 Q 674 172 686 174 Q 702 175 720 214 Q 738 245 735 269 Q 704 480 742 543 Q 757 567 717 592 Q 693 607 662 620 Q 646 626 619 616 Q 576 598 526 584 L 491 575 Q 409 560 344 560 C 314 559 338 527 368 530 Q 377 529 386 531 Q 453 544 505 554 Q 611 579 635 563 Q 645 541 652 479 Q 659 295 650 258 Z" style="fill: #0070C0;"></path>
                                                                        <path d="M 476 426 Q 480 173 386 82 Q 373 72 359 61 Q 319 30 228 -11 Q 215 -15 211 -18 Q 205 -24 221 -27 Q 317 -33 434 56 Q 446 68 457 81 Q 520 157 531 344 Q 534 420 549 457 Q 553 469 545 477 Q 526 493 490 509 Q 468 518 451 512 Q 432 505 447 487 Q 475 457 476 426 Z" style="fill: #0070C0;"></path>
                                                                        <path d="M 574 134 Q 638 76 713 -11 Q 731 -33 747 -39 Q 757 -40 765 -29 Q 778 -16 766 33 Q 756 91 576 168 Q 566 174 563 161 Q 562 145 574 134 Z" style="fill: #0070C0;"></path>
                                    
                                    
                                                                                                                                                                                                                                                                                                                                                                                                                                                                                                                                                    </g>
                            </svg>