<svg width='83' height='83' >
                                <g transform="translate(3, 70) scale(0.07, -0.07)">
                                    <!-- 先将完整的字以灰色字体绘制完成，层级位于下面 -->
                                                                        <path d="M 524 749 Q 588 764 657 775 Q 703 785 710 791 Q 720 798 715 808 Q 708 820 678 828 Q 656 834 522 797 Q 423 779 370 774 Q 333 768 359 750 Q 404 726 462 738 Q 469 739 480 741 L 524 749 Z" style="fill: #0070C0;"></path>
                                                                        <path d="M 532 628 Q 539 697 543 702 Q 552 726 524 749 C 501 769 478 771 480 741 L 486 622 C 488 592 529 598 532 628 Z" style="fill: #0070C0;"></path>
                                                                        <path d="M 486 622 Q 320 603 126 580 Q 104 579 120 559 Q 153 526 197 536 Q 447 603 846 603 Q 871 603 895 602 Q 917 602 923 612 Q 930 625 911 640 Q 848 688 782 669 Q 682 651 532 628 L 486 622 Z" style="fill: #0070C0;"></path>
                                                                        <path d="M 391 511 Q 370 529 344 536 Q 335 537 329 530 Q 326 524 334 514 Q 367 423 341 285 Q 328 245 333 221 Q 342 188 353 176 Q 363 163 373 176 Q 397 200 398 298 Q 398 443 405 483 C 407 498 407 498 391 511 Z" style="fill: #0070C0;"></path>
                                                                        <path d="M 646 255 Q 639 230 653 208 Q 668 177 678 178 Q 693 179 710 214 Q 726 242 724 264 Q 714 333 716 440 Q 716 471 733 497 Q 743 513 736 524 Q 708 549 658 569 Q 642 575 618 566 Q 509 518 391 511 C 361 509 375 478 405 483 Q 409 483 522 506 Q 615 530 635 517 Q 645 498 649 445 Q 653 286 646 255 Z" style="fill: #0070C0;"></path>
                                                                        <path d="M 491 375 Q 485 159 410 83 Q 392 65 369 49 Q 332 24 250 -9 Q 238 -12 234 -15 Q 230 -19 244 -24 Q 332 -30 440 44 Q 449 53 458 62 Q 521 135 537 297 Q 540 354 559 400 Q 563 410 556 417 Q 540 433 508 449 Q 489 459 473 454 Q 454 448 468 431 Q 493 403 491 375 Z" style="fill: #0070C0;"></path>
                                                                        <path d="M 606 133 Q 655 70 713 -16 Q 726 -41 742 -48 Q 752 -51 762 -42 Q 777 -29 771 20 Q 767 84 612 166 Q 603 173 599 160 Q 596 145 606 133 Z" style="fill: #0070C0;"></path>
                                    
                                    
                                                                                                                                                                                                                                                                                                                                                                                                                                                                                                                                                                                                                                </g>
                            </svg>