<svg width='83' height='83' >
                                <g transform="translate(3, 70) scale(0.07, -0.07)">
                                    <!-- 先将完整的字以灰色字体绘制完成，层级位于下面 -->
                                                                        <path d="M 217 678 Q 208 687 185 697 Q 175 701 164 697 Q 157 693 162 680 Q 183 616 178 480 Q 169 372 162 344 Q 147 290 182 245 Q 192 232 203 244 Q 218 265 220 348 Q 227 616 231 634 Q 232 644 232 651 C 233 666 233 666 217 678 Z" style="fill: #0070C0;"></path>
                                                                        <path d="M 390 332 Q 383 310 396 289 Q 409 261 418 262 Q 431 263 447 295 Q 460 320 460 340 Q 447 434 449 578 Q 449 621 472 656 Q 482 672 475 681 Q 448 703 404 722 Q 389 728 315 699 Q 279 687 217 678 C 187 673 203 644 232 651 Q 233 652 236 652 Q 276 661 306 668 Q 370 684 384 675 Q 394 650 400 580 Q 401 372 390 332 Z" style="fill: #0070C0;"></path>
                                                                        <path d="M 292 529 Q 304 261 235 153 Q 201 105 122 50 Q 112 46 109 41 Q 105 37 119 35 Q 158 35 238 96 Q 338 177 339 441 Q 339 510 352 558 Q 356 568 348 574 Q 332 587 300 599 Q 282 606 268 600 Q 252 593 265 579 Q 290 554 292 529 Z" style="fill: #0070C0;"></path>
                                                                        <path d="M 361 193 Q 383 168 406 137 Q 416 124 430 123 Q 439 122 445 133 Q 451 145 447 172 Q 446 191 419 208 Q 359 242 344 239 Q 340 236 339 225 Q 340 215 361 193 Z" style="fill: #0070C0;"></path>
                                                                        <path d="M 754 528 Q 802 540 898 555 Q 910 554 918 568 Q 919 581 894 590 Q 858 611 780 582 Q 767 579 755 574 L 703 559 Q 648 546 602 537 Q 560 531 515 522 Q 485 518 509 500 Q 546 476 574 483 Q 616 496 667 506 L 754 528 Z" style="fill: #0070C0;"></path>
                                                                        <path d="M 703 425 Q 703 302 703 125 Q 702 101 690 92 Q 681 86 618 99 Q 584 111 587 100 Q 588 93 609 78 Q 672 26 687 -2 Q 706 -36 721 -37 Q 737 -38 751 -2 Q 770 46 767 122 Q 752 326 754 528 L 755 574 Q 755 689 773 751 Q 789 782 732 805 Q 698 824 677 817 Q 658 810 675 786 Q 697 758 700 723 Q 701 705 703 559 L 703 425 Z" style="fill: #0070C0;"></path>
                                                                        <path d="M 667 506 Q 661 413 487 217 Q 469 199 495 207 Q 579 231 696 413 Q 697 420 703 425 C 773 530 673 558 667 506 Z" style="fill: #0070C0;"></path>
                                    
                                    
                                                                                                                                                                                                                                                                                                                                                                                                                                                                                                                                                                                                                                </g>
                            </svg>