<svg width='83' height='83' >
                                <g transform="translate(3, 70) scale(0.07, -0.07)">
                                    <!-- 先将完整的字以灰色字体绘制完成，层级位于下面 -->
                                                                        <path d="M 215 702 Q 239 657 235 523 Q 232 496 257 469 Q 266 460 274 471 Q 287 496 283 564 Q 279 642 282 680 Q 286 699 267 709 Q 230 727 218 721 Q 211 714 215 702 Z" style="fill: #0070C0;"></path>
                                                                        <path d="M 376 487 Q 382 466 387 458 Q 391 452 398 455 Q 405 458 409 471 Q 415 493 416 684 Q 416 744 420 764 Q 423 779 411 787 Q 366 814 346 802 Q 339 795 345 786 Q 357 768 364 679 Q 368 522 376 487 Z" style="fill: #0070C0;"></path>
                                                                        <path d="M 660 596 Q 661 599 664 601 Q 697 646 727 718 Q 739 745 758 761 Q 776 776 764 789 Q 752 801 723 812 Q 701 819 675 807 Q 648 797 612 787 Q 575 777 515 772 Q 502 772 498 765 Q 494 758 511 751 Q 545 738 591 750 Q 646 769 657 768 Q 679 765 672 741 Q 657 672 623 625 L 600 597 Q 545 548 460 523 Q 447 519 458 511 Q 462 507 497 510 Q 560 514 629 566 L 660 596 Z" style="fill: #0070C0;"></path>
                                                                        <path d="M 629 566 Q 734 461 773 462 Q 846 466 905 479 Q 936 486 932 494 Q 931 500 783 535 Q 726 553 660 596 L 623 625 Q 595 647 568 671 Q 534 702 505 700 Q 489 699 487 694 Q 486 688 500 681 Q 522 668 538 653 Q 566 631 600 597 L 629 566 Z" style="fill: #0070C0;"></path>
                                                                        <path d="M 374 418 Q 355 433 332 441 Q 325 442 319 435 Q 316 431 322 421 Q 353 334 323 232 Q 317 210 321 194 Q 328 166 339 155 Q 349 143 357 155 Q 372 173 380 294 Q 374 312 384 390 C 386 409 386 409 374 418 Z" style="fill: #0070C0;"></path>
                                                                        <path d="M 620 213 Q 613 192 625 172 Q 638 145 646 146 Q 659 147 674 177 Q 687 201 686 219 Q 671 363 697 402 Q 706 417 693 432 Q 669 451 630 468 Q 615 474 593 466 Q 496 423 374 418 C 344 416 354 386 384 390 Q 388 390 394 391 Q 593 433 613 419 Q 620 404 623 362 Q 627 238 620 213 Z" style="fill: #0070C0;"></path>
                                                                        <path d="M 464 299 Q 461 128 391 66 Q 375 54 354 41 Q 317 19 231 -7 Q 218 -8 215 -11 Q 209 -15 223 -21 Q 290 -33 410 20 Q 426 30 440 43 Q 494 95 512 239 Q 515 288 531 324 Q 535 334 528 342 Q 512 358 480 373 Q 461 383 445 378 Q 426 371 440 355 Q 465 327 464 299 Z" style="fill: #0070C0;"></path>
                                                                        <path d="M 550 110 Q 610 62 681 -8 Q 697 -27 713 -31 Q 722 -32 729 -21 Q 741 -8 726 35 Q 708 92 554 140 Q 551 141 550 141 Q 540 145 539 133 Q 539 120 550 110 Z" style="fill: #0070C0;"></path>
                                    
                                    
                                                                                                                                                                                                                                                                                                                                                                                                                                                                                                                                                                                                                                                                                                            </g>
                            </svg>