<svg width='83' height='83' >
                                <g transform="translate(3, 70) scale(0.07, -0.07)">
                                    <!-- 先将完整的字以灰色字体绘制完成，层级位于下面 -->
                                                                        <path d="M 305 693 Q 359 754 382 769 Q 392 776 390 789 Q 389 801 367 825 Q 348 844 331 848 Q 315 849 318 829 Q 324 804 312 787 Q 251 687 110 565 Q 100 558 97 553 Q 93 544 105 544 Q 141 544 279 667 L 305 693 Z" style="fill: #0070C0;"></path>
                                                                        <path d="M 279 667 Q 295 628 273 524 Q 263 485 292 449 Q 292 448 294 446 Q 307 433 317 454 Q 329 487 328 524 Q 331 612 335 632 Q 341 656 305 693 C 284 715 269 695 279 667 Z" style="fill: #0070C0;"></path>
                                                                        <path d="M 514 655 Q 478 637 434 615 Q 427 609 440 606 Q 479 613 517 627 L 558 643 Q 657 692 722 739 Q 738 752 761 762 Q 773 768 771 776 Q 768 783 752 793 Q 715 812 694 810 Q 685 810 685 799 Q 678 757 556 679 L 514 655 Z" style="fill: #0070C0;"></path>
                                                                        <path d="M 517 627 Q 517 593 554 565 Q 603 528 784 538 Q 865 544 896 562 Q 924 577 911 605 Q 895 642 882 707 Q 881 722 873 726 Q 866 730 863 712 Q 850 633 838 618 Q 808 585 689 581 Q 622 581 594 591 Q 561 607 558 643 L 556 679 Q 556 737 574 780 Q 584 808 568 823 Q 522 857 508 853 Q 495 849 501 832 Q 519 798 515 748 Q 514 690 514 655 L 517 627 Z" style="fill: #0070C0;"></path>
                                                                        <path d="M 399 467 Q 383 483 351 492 Q 342 493 337 486 Q 334 482 341 472 Q 377 390 349 236 Q 337 206 343 180 Q 352 150 362 139 Q 372 127 381 140 Q 402 170 403 323 Q 403 407 405 437 C 406 461 406 461 399 467 Z" style="fill: #0070C0;"></path>
                                                                        <path d="M 615 215 Q 608 193 622 170 Q 637 142 646 142 Q 661 143 676 177 Q 691 204 689 224 Q 679 288 680 386 Q 679 414 695 440 Q 705 456 698 466 Q 670 491 622 511 Q 606 517 583 508 Q 504 477 399 467 C 369 464 375 433 405 437 Q 493 449 583 462 Q 595 462 601 457 Q 610 439 615 391 Q 622 244 615 215 Z" style="fill: #0070C0;"></path>
                                                                        <path d="M 480 330 Q 480 134 401 61 Q 386 49 369 36 Q 332 11 250 -21 Q 238 -24 235 -27 Q 229 -31 243 -36 Q 315 -42 422 17 Q 441 30 456 46 Q 516 113 533 299 Q 534 326 547 356 Q 553 366 545 374 Q 529 390 496 404 Q 477 414 461 409 Q 442 403 457 386 Q 482 358 480 330 Z" style="fill: #0070C0;"></path>
                                                                        <path d="M 564 97 Q 616 45 679 -32 Q 694 -53 709 -57 Q 716 -58 725 -50 Q 738 -37 728 7 Q 716 65 578 122 Q 571 125 566 127 Q 557 133 555 121 Q 554 108 564 97 Z" style="fill: #0070C0;"></path>
                                    
                                    
                                                                                                                                                                                                                                                                                                                                                                                                                                                                                                                                                                                                                                                                                                            </g>
                            </svg>