<svg width='83' height='83' >
                                <g transform="translate(3, 70) scale(0.07, -0.07)">
                                    <!-- 先将完整的字以灰色字体绘制完成，层级位于下面 -->
                                                                        <path d="M 319 667 Q 332 680 347 696 Q 374 727 394 742 Q 404 749 403 763 Q 402 776 379 801 Q 357 823 340 825 Q 322 826 326 805 Q 347 733 111 527 Q 101 520 97 514 Q 93 504 105 504 Q 156 510 292 639 L 319 667 Z" style="fill: #0070C0;"></path>
                                                                        <path d="M 292 639 Q 292 638 293 636 Q 293 567 286 536 Q 276 503 306 462 L 307 461 Q 320 449 329 469 Q 339 500 340 536 Q 340 600 342 616 Q 348 635 340 644 Q 328 657 319 667 C 299 689 288 669 292 639 Z" style="fill: #0070C0;"></path>
                                                                        <path d="M 606 665 Q 730 717 732 719 Q 739 729 733 737 Q 724 747 693 750 Q 662 751 634 734 Q 607 721 579 706 L 539 687 Q 484 665 419 648 Q 383 635 413 623 Q 452 607 542 641 Q 551 645 562 648 L 606 665 Z" style="fill: #0070C0;"></path>
                                                                        <path d="M 562 648 Q 659 498 786 442 Q 789 442 794 439 Q 849 417 881 418 Q 903 425 893 454 Q 881 479 865 605 Q 864 617 858 617 Q 854 617 835 546 Q 825 507 804 507 Q 788 511 757 526 Q 678 568 606 665 L 579 706 Q 546 763 548 816 Q 549 835 508 849 Q 468 861 457 855 Q 447 848 455 832 Q 482 813 499 770 Q 518 727 539 687 L 562 648 Z" style="fill: #0070C0;"></path>
                                                                        <path d="M 717 811 Q 744 789 772 762 Q 785 752 799 752 Q 809 752 813 765 Q 817 778 808 805 Q 799 833 712 854 Q 697 858 692 855 Q 688 851 689 839 Q 693 829 717 811 Z" style="fill: #0070C0;"></path>
                                                                        <path d="M 388 427 Q 367 443 341 452 Q 334 453 327 446 Q 324 442 331 431 Q 364 365 339 214 Q 326 163 330 147 Q 339 116 350 104 Q 360 91 369 104 Q 393 131 393 263 Q 393 402 409 403 C 414 409 413 410 388 427 Z" style="fill: #0070C0;"></path>
                                                                        <path d="M 626 179 Q 619 155 634 134 Q 649 104 658 106 Q 673 107 687 141 Q 702 168 700 189 Q 673 369 703 416 Q 715 435 694 451 Q 667 469 630 484 Q 615 488 592 480 Q 505 441 388 427 C 358 423 380 396 409 403 Q 458 415 501 422 Q 589 446 610 433 Q 619 414 625 363 Q 632 209 626 179 Z" style="fill: #0070C0;"></path>
                                                                        <path d="M 481 310 Q 484 96 372 23 Q 335 -4 250 -37 Q 238 -40 234 -43 Q 230 -47 244 -52 Q 290 -56 388 -15 Q 439 10 460 35 Q 514 101 534 282 Q 537 307 548 336 Q 552 346 545 354 Q 529 370 496 384 Q 477 394 461 389 Q 442 382 457 366 Q 482 338 481 310 Z" style="fill: #0070C0;"></path>
                                                                        <path d="M 569 83 Q 627 28 695 -51 Q 711 -73 728 -78 Q 737 -79 745 -69 Q 758 -56 746 -9 Q 736 51 571 116 Q 561 122 559 109 Q 558 94 569 83 Z" style="fill: #0070C0;"></path>
                                    
                                    
                                                                                                                                                                                                                                                                                                                                                                                                                                                                                                                                                                                                                                                                                                                                                                                        </g>
                            </svg>