<svg width='83' height='83' >
                                <g transform="translate(3, 70) scale(0.07, -0.07)">
                                    <!-- 先将完整的字以灰色字体绘制完成，层级位于下面 -->
                                                                        <path d="M 213 688 Q 198 703 178 709 Q 169 713 158 709 Q 151 705 156 693 Q 174 636 175 513 Q 169 392 158 348 Q 145 294 178 253 Q 188 240 198 252 Q 216 274 214 357 Q 220 631 222 649 Q 223 656 223 660 C 225 678 225 678 213 688 Z" style="fill: #0070C0;"></path>
                                                                        <path d="M 376 325 Q 369 303 380 282 Q 393 254 402 254 Q 415 255 432 286 Q 447 311 446 331 Q 419 598 467 671 Q 477 687 470 696 Q 394 760 341 725 Q 278 698 213 688 C 183 683 194 653 223 660 Q 365 693 368 693 Q 374 694 379 691 Q 391 663 393 589 Q 389 367 376 325 Z" style="fill: #0070C0;"></path>
                                                                        <path d="M 285 551 Q 298 262 219 151 Q 176 102 110 54 Q 100 48 97 45 Q 93 41 107 39 Q 164 39 254 129 Q 266 144 278 162 Q 329 250 330 486 Q 330 529 342 579 Q 346 589 339 595 Q 323 608 293 618 Q 275 625 261 620 Q 245 613 259 599 Q 284 577 285 551 Z" style="fill: #0070C0;"></path>
                                                                        <path d="M 355 158 Q 383 124 412 84 Q 422 71 436 68 Q 446 67 453 77 Q 460 90 457 118 Q 454 152 360 202 Q 347 208 340 207 Q 336 204 334 192 Q 335 182 355 158 Z" style="fill: #0070C0;"></path>
                                                                        <path d="M 801 498 Q 699 482 591 455 Q 581 451 576 454 Q 572 458 579 474 Q 700 690 727 726 Q 740 738 731 752 Q 724 765 668 785 Q 649 792 639 786 Q 626 779 634 756 Q 664 692 539 491 Q 517 463 479 432 Q 464 417 470 406 Q 477 387 507 367 Q 520 357 533 370 Q 584 415 819 473 L 820 473 C 849 480 831 503 801 498 Z" style="fill: #0070C0;"></path>
                                                                        <path d="M 820 473 Q 880 395 885 392 Q 892 391 901 398 Q 914 408 908 450 Q 904 504 757 586 Q 750 592 746 581 Q 745 569 753 558 Q 775 531 801 498 L 820 473 Z" style="fill: #0070C0;"></path>
                                                                        <path d="M 561 278 Q 549 284 519 289 Q 506 293 503 287 Q 496 281 505 264 Q 533 201 551 99 Q 554 69 571 48 Q 590 26 595 41 Q 599 54 600 74 L 597 108 Q 581 208 577 243 C 573 273 573 273 561 278 Z" style="fill: #0070C0;"></path>
                                                                        <path d="M 816 134 Q 846 224 883 248 Q 901 267 886 287 Q 868 302 809 331 Q 791 337 770 330 Q 686 297 561 278 C 531 273 547 238 577 243 Q 596 246 753 277 Q 772 281 781 273 Q 791 263 788 243 Q 775 185 761 138 C 753 109 806 106 816 134 Z" style="fill: #0070C0;"></path>
                                                                        <path d="M 600 74 Q 612 71 626 74 Q 690 87 830 96 Q 842 97 843 106 Q 843 115 816 134 C 799 147 790 145 761 138 Q 670 117 597 108 C 567 104 570 79 600 74 Z" style="fill: #0070C0;"></path>
                                    
                                    
                                                                                                                                                                                                                                                                                                                                                                                                                                                                                                                                                                                                                                                                                                                                                                                        </g>
                            </svg>