<svg width='83' height='83' >
                                <g transform="translate(3, 70) scale(0.07, -0.07)">
                                    <!-- 先将完整的字以灰色字体绘制完成，层级位于下面 -->
                                                                        <path d="M 196 653 Q 174 669 149 676 Q 142 677 135 670 Q 132 664 139 655 Q 176 565 156 385 Q 140 295 140 292 L 141 290 Q 151 259 161 247 Q 171 235 181 248 Q 205 275 205 451 Q 205 604 208 625 C 210 644 210 644 196 653 Z" style="fill: #0070C0;"></path>
                                                                        <path d="M 350 320 Q 344 299 357 279 Q 370 254 378 254 Q 391 255 405 286 Q 418 310 416 328 Q 403 419 401 562 Q 400 604 422 639 Q 431 654 424 663 Q 354 718 296 686 Q 245 664 196 653 C 167 646 179 616 208 625 L 272 644 Q 324 660 338 654 Q 350 629 355 562 Q 361 360 350 320 Z" style="fill: #0070C0;"></path>
                                                                        <path d="M 260 503 Q 275 233 192 134 Q 134 77 96 49 Q 87 45 85 41 Q 82 37 94 36 Q 130 36 210 103 Q 303 182 303 440 Q 303 492 312 530 Q 316 540 309 545 Q 267 578 237 567 Q 222 560 235 547 Q 257 526 260 503 Z" style="fill: #0070C0;"></path>
                                                                        <path d="M 327 165 Q 355 132 382 95 Q 392 82 406 80 Q 415 79 421 89 Q 428 101 425 128 Q 422 161 331 206 Q 318 212 312 211 Q 308 208 307 197 Q 308 187 327 165 Z" style="fill: #0070C0;"></path>
                                                                        <path d="M 665 538 Q 702 551 745 563 Q 791 578 797 585 Q 804 592 800 601 Q 793 611 763 616 Q 739 619 657 584 L 616 569 Q 502 538 462 529 Q 428 520 454 506 Q 490 491 559 507 Q 589 516 625 526 L 665 538 Z" style="fill: #0070C0;"></path>
                                                                        <path d="M 564 331 Q 573 337 630 348 Q 637 347 644 359 Q 644 368 625 374 Q 598 387 568 373 L 524 358 Q 476 345 441 335 Q 419 331 437 318 Q 464 303 507 315 Q 513 318 521 319 L 564 331 Z" style="fill: #0070C0;"></path>
                                                                        <path d="M 521 319 Q 511 241 434 175 Q 425 166 434 166 Q 473 172 515 219 Q 552 258 564 331 L 568 373 Q 569 382 570 389 Q 570 407 576 423 Q 580 438 568 442 Q 555 451 543 453 Q 525 462 512 455 Q 502 451 509 440 Q 524 419 524 358 L 521 319 Z" style="fill: #0070C0;"></path>
                                                                        <path d="M 709 240 Q 772 95 870 15 Q 931 -31 959 -30 Q 978 -26 971 3 Q 964 49 960 183 Q 959 205 950 206 Q 947 206 916 119 Q 901 77 878 92 Q 868 98 857 106 Q 796 164 742 271 L 725 314 Q 697 389 665 538 L 657 584 Q 644 674 651 746 Q 661 786 608 805 Q 574 818 555 811 Q 536 804 545 785 Q 591 748 592 714 Q 604 636 616 569 L 625 526 Q 655 372 694 276 L 709 240 Z" style="fill: #0070C0;"></path>
                                                                        <path d="M 694 276 Q 672 251 647 230 Q 611 202 594 183 Q 585 170 600 173 Q 630 176 709 240 L 742 271 Q 773 305 800 343 Q 834 394 867 435 Q 877 445 865 461 Q 825 497 802 495 Q 792 494 792 479 Q 793 403 725 314 L 694 276 Z" style="fill: #0070C0;"></path>
                                                                        <path d="M 750 725 Q 777 703 805 677 Q 820 664 837 665 Q 847 666 853 680 Q 857 696 846 727 Q 834 760 743 775 Q 727 778 720 775 Q 714 771 717 757 Q 721 747 750 725 Z" style="fill: #0070C0;"></path>
                                    
                                    
                                                                                                                                                                                                                                                                                                                                                                                                                                                                                                                                                                                                                                                                                                                                                                                                                                                                    </g>
                            </svg>