<svg width='83' height='83' >
                                <g transform="translate(3, 70) scale(0.07, -0.07)">
                                    <!-- 先将完整的字以灰色字体绘制完成，层级位于下面 -->
                                                                        <path d="M 204 696 Q 195 712 153 725 Q 146 726 139 718 Q 136 714 143 703 Q 186 606 152 409 Q 133 348 138 327 Q 147 296 158 284 Q 168 271 177 284 Q 204 317 204 485 Q 204 617 210 667 C 212 687 212 687 204 696 Z" style="fill: #0070C0;"></path>
                                                                        <path d="M 348 357 Q 341 336 353 316 Q 366 289 374 290 Q 387 291 402 321 Q 415 345 415 363 Q 403 454 406 594 Q 407 636 429 670 Q 439 685 432 694 Q 407 716 361 736 Q 348 742 325 733 Q 279 712 204 696 C 175 689 180 662 210 667 Q 217 667 278 681 Q 333 694 345 687 Q 355 662 360 596 Q 360 395 348 357 Z" style="fill: #0070C0;"></path>
                                                                        <path d="M 262 537 Q 268 255 196 159 Q 136 99 99 74 Q 89 70 85 65 Q 81 61 95 59 Q 155 59 237 140 Q 244 150 252 161 Q 303 242 307 434 Q 311 530 323 565 Q 327 575 320 581 Q 304 594 272 607 Q 254 614 240 609 Q 224 602 237 588 Q 262 563 262 537 Z" style="fill: #0070C0;"></path>
                                                                        <path d="M 323 197 Q 345 170 367 139 Q 376 126 390 124 Q 399 123 405 133 Q 412 145 409 172 Q 408 191 382 209 Q 324 246 308 243 Q 304 240 302 229 Q 303 219 323 197 Z" style="fill: #0070C0;"></path>
                                                                        <path d="M 631 617 Q 724 644 904 644 Q 925 644 929 654 Q 933 666 917 678 Q 863 715 802 695 Q 672 665 642 659 L 590 649 Q 521 637 447 622 Q 426 619 443 603 Q 456 591 475 586 Q 494 582 510 588 Q 541 598 578 606 L 631 617 Z" style="fill: #0070C0;"></path>
                                                                        <path d="M 572 461 Q 573 465 577 470 Q 605 528 631 617 L 642 659 Q 667 753 687 784 Q 697 799 691 808 Q 678 835 626 846 Q 610 850 594 842 Q 584 832 594 822 Q 610 806 614 786 Q 618 759 591 650 Q 590 650 590 649 L 578 606 Q 551 516 515 447 Q 478 377 388 269 Q 379 253 390 252 Q 394 251 407 260 Q 480 311 545 411 L 572 461 Z" style="fill: #0070C0;"></path>
                                                                        <path d="M 582 219 Q 583 264 588 297 L 591 327 Q 594 396 600 421 C 604 443 604 443 588 453 Q 582 459 572 461 C 544 472 540 441 545 411 Q 566 308 525 161 Q 501 101 502 94 Q 502 64 520 42 Q 526 29 536 34 Q 579 62 580 187 Q 580 190 581 192 L 582 219 Z" style="fill: #0070C0;"></path>
                                                                        <path d="M 600 421 Q 604 421 713 454 Q 734 461 740 450 Q 758 402 762 144 Q 762 102 753 85 Q 747 78 725 83 Q 697 87 668 92 Q 646 96 649 87 Q 712 41 748 5 Q 763 -14 779 -19 Q 789 -23 797 -12 Q 837 45 834 99 Q 797 396 820 439 Q 832 461 819 471 Q 797 490 757 504 Q 738 511 722 503 Q 665 467 588 453 C 559 447 571 413 600 421 Z" style="fill: #0070C0;"></path>
                                                                        <path d="M 588 297 Q 657 313 705 324 Q 727 330 718 341 Q 706 354 682 356 Q 648 359 591 327 C 565 312 559 290 588 297 Z" style="fill: #0070C0;"></path>
                                                                        <path d="M 581 192 Q 584 192 591 193 Q 655 205 704 212 Q 726 216 717 229 Q 707 242 683 245 Q 655 246 582 219 C 554 209 551 190 581 192 Z" style="fill: #0070C0;"></path>
                                    
                                    
                                                                                                                                                                                                                                                                                                                                                                                                                                                                                                                                                                                                                                                                                                                                                                                                                                                                    </g>
                            </svg>