<svg width='83' height='83' >
                                <g transform="translate(3, 70) scale(0.07, -0.07)">
                                    <!-- 先将完整的字以灰色字体绘制完成，层级位于下面 -->
                                                                        <path d="M 183 714 Q 171 726 150 733 Q 141 737 130 733 Q 123 729 129 717 Q 130 708 134 700 Q 158 651 144 449 Q 126 347 140 319 Q 146 307 154 297 Q 164 284 174 296 Q 190 317 189 397 Q 193 656 195 673 Q 196 683 196 689 C 197 703 197 703 183 714 Z" style="fill: #0070C0;"></path>
                                                                        <path d="M 332 345 Q 325 324 337 304 Q 350 277 358 278 Q 371 279 386 309 Q 399 333 398 351 Q 385 453 388 609 Q 388 655 413 694 Q 423 707 416 717 Q 391 738 348 756 Q 335 760 314 753 Q 284 738 247 726 Q 211 717 183 714 C 153 710 167 683 196 689 Q 199 689 267 704 Q 318 719 330 711 Q 342 684 346 610 Q 345 387 332 345 Z" style="fill: #0070C0;"></path>
                                                                        <path d="M 253 590 Q 260 298 168 194 Q 143 161 85 118 Q 75 112 73 109 Q 69 105 82 104 Q 118 104 192 169 Q 295 265 296 543 Q 297 577 308 616 Q 312 625 305 631 Q 290 644 262 654 Q 244 661 231 656 Q 216 650 229 637 Q 251 615 253 590 Z" style="fill: #0070C0;"></path>
                                                                        <path d="M 292 250 Q 325 195 345 191 Q 355 190 362 203 Q 363 213 359 229 Q 344 257 298 270 Q 291 271 289 263 Q 288 257 292 250 Z" style="fill: #0070C0;"></path>
                                                                        <path d="M 550 699 Q 589 695 676 715 Q 802 754 805 755 Q 814 764 808 772 Q 801 784 770 789 Q 746 792 644 755 Q 560 734 544 731 C 515 725 520 701 550 699 Z" style="fill: #0070C0;"></path>
                                                                        <path d="M 523 466 Q 529 511 544 661 Q 544 679 550 699 C 555 722 555 722 544 731 Q 498 770 472 760 Q 460 753 467 739 Q 485 712 486 654 Q 485 638 485 617 Q 479 440 437 316 Q 406 222 322 82 Q 318 76 315 70 Q 314 60 324 61 Q 348 65 425 179 Q 443 212 461 250 Q 491 319 519 449 L 523 466 Z" style="fill: #0070C0;"></path>
                                                                        <path d="M 582 601 Q 548 592 574 578 Q 619 559 669 575 Q 714 587 761 599 Q 782 606 785 609 Q 792 616 788 625 Q 781 635 751 641 Q 727 644 647 614 Q 617 607 582 601 Z" style="fill: #0070C0;"></path>
                                                                        <path d="M 581 444 Q 720 492 849 493 Q 867 493 870 501 Q 873 511 859 520 Q 808 550 754 526 Q 709 514 523 466 C 501 460 501 460 519 449 Q 526 443 536 440 L 581 444 Z" style="fill: #0070C0;"></path>
                                                                        <path d="M 610 418 Q 604 430 581 444 C 556 461 521 466 536 440 Q 537 436 542 430 Q 561 393 560 359 Q 561 233 551 192 Q 545 161 532 143 Q 519 121 527 98 Q 539 64 557 51 Q 569 44 581 63 Q 606 100 695 194 Q 714 210 715 218 Q 716 231 695 219 Q 613 177 606 179 Q 599 183 599 202 Q 605 344 613 385 C 617 410 617 410 610 418 Z" style="fill: #0070C0;"></path>
                                                                        <path d="M 729 312 Q 808 361 850 380 Q 868 383 865 394 Q 859 410 842 430 Q 824 449 802 452 Q 789 453 788 434 Q 789 412 713 327 C 693 305 703 296 729 312 Z" style="fill: #0070C0;"></path>
                                                                        <path d="M 713 327 Q 686 352 660 383 Q 635 411 610 418 C 582 429 591 405 613 385 Q 640 364 701 278 Q 785 170 821 162 Q 896 159 954 162 Q 985 165 982 173 Q 982 177 954 189 Q 807 246 737 304 Q 733 308 729 312 L 713 327 Z" style="fill: #0070C0;"></path>
                                    
                                    
                                                                                                                                                                                                                                                                                                                                                                                                                                                                                                                                                                                                                                                                                                                                                                                                                                                                                                                                                </g>
                            </svg>