<svg width='83' height='83' >
                                <g transform="translate(3, 70) scale(0.07, -0.07)">
                                    <!-- 先将完整的字以灰色字体绘制完成，层级位于下面 -->
                                                                        <path d="M 185 685 Q 172 698 152 706 Q 143 710 133 706 Q 126 702 132 691 Q 133 682 137 674 Q 158 635 142 415 Q 124 309 136 287 Q 140 278 147 269 Q 156 257 166 268 Q 181 289 182 367 Q 189 632 192 651 Q 193 657 193 661 C 195 677 195 677 185 685 Z" style="fill: #0070C0;"></path>
                                                                        <path d="M 310 354 Q 303 335 315 315 Q 325 290 334 291 Q 347 291 361 319 Q 374 341 373 359 Q 346 602 391 667 Q 400 680 393 689 Q 369 708 329 726 Q 317 730 258 705 Q 195 687 185 685 C 156 678 163 658 193 661 Q 200 661 208 662 Q 298 690 312 684 Q 322 659 325 593 Q 324 392 310 354 Z" style="fill: #0070C0;"></path>
                                                                        <path d="M 258 267 Q 273 355 275 489 Q 275 525 286 567 Q 290 576 283 581 Q 241 614 215 603 Q 200 597 213 585 Q 234 564 235 542 Q 242 401 227 308 Q 209 170 104 80 Q 85 70 81 61 Q 78 57 90 56 Q 121 56 186 117 Q 229 159 252 240 L 258 267 Z" style="fill: #0070C0;"></path>
                                                                        <path d="M 252 240 Q 276 216 303 180 Q 310 170 322 169 Q 329 168 334 177 Q 338 187 335 207 Q 334 225 310 241 Q 286 253 258 267 C 231 280 231 261 252 240 Z" style="fill: #0070C0;"></path>
                                                                        <path d="M 616 765 Q 628 783 652 796 Q 661 803 659 814 Q 658 824 640 845 Q 624 863 609 866 Q 594 867 597 849 Q 603 828 551 762 Q 526 734 493 702 Q 484 696 482 692 Q 478 685 488 684 Q 513 684 590 743 L 616 765 Z" style="fill: #0070C0;"></path>
                                                                        <path d="M 667 646 Q 745 725 775 743 Q 791 752 781 763 Q 769 775 737 794 Q 730 797 651 774 Q 633 771 616 765 C 587 756 563 748 590 743 Q 606 737 681 750 Q 688 751 691 749 Q 694 746 690 738 Q 662 677 643 649 Q 639 645 637 639 C 623 613 646 625 667 646 Z" style="fill: #0070C0;"></path>
                                                                        <path d="M 493 590 Q 514 587 579 596 L 608 602 Q 851 654 863 663 Q 870 669 866 675 Q 862 684 839 690 Q 817 694 794 686 Q 733 664 667 646 L 637 639 Q 565 626 486 616 C 456 612 463 592 493 590 Z" style="fill: #0070C0;"></path>
                                                                        <path d="M 486 616 Q 473 629 449 639 Q 431 649 419 645 Q 409 638 414 625 Q 430 606 431 545 Q 410 340 387 253 Q 383 241 379 229 Q 345 136 266 13 Q 262 6 260 1 Q 257 -9 267 -7 Q 301 0 374 119 Q 386 141 399 167 Q 460 311 481 521 Q 484 582 493 590 C 499 606 499 606 486 616 Z" style="fill: #0070C0;"></path>
                                                                        <path d="M 579 596 Q 589 560 516 467 Q 512 464 518 463 Q 557 463 624 565 Q 627 569 630 572 Q 634 575 632 581 Q 631 587 623 594 Q 616 600 608 602 C 580 612 576 613 579 596 Z" style="fill: #0070C0;"></path>
                                                                        <path d="M 702 569 Q 783 493 785 491 Q 791 490 797 498 Q 804 508 795 540 Q 791 556 778 568 Q 768 574 744 581 Q 717 588 702 591 Q 695 595 694 586 Q 694 576 702 569 Z" style="fill: #0070C0;"></path>
                                                                        <path d="M 623 493 Q 665 441 688 437 Q 700 436 704 452 Q 705 462 698 479 Q 689 492 670 500 Q 639 513 626 515 Q 619 516 618 507 Q 617 500 623 493 Z" style="fill: #0070C0;"></path>
                                                                        <path d="M 494 387 Q 476 384 490 371 Q 502 359 516 356 Q 534 352 547 356 Q 686 396 893 396 L 895 396 Q 911 396 915 404 Q 919 414 906 424 Q 855 460 799 439 Q 601 403 494 387 Z" style="fill: #0070C0;"></path>
                                                                        <path d="M 581 312 Q 554 308 574 295 Q 599 280 673 295 Q 707 302 745 310 Q 767 316 771 319 Q 778 325 774 331 Q 770 340 747 345 Q 725 349 702 340 Q 677 330 648 323 Q 617 316 581 312 Z" style="fill: #0070C0;"></path>
                                                                        <path d="M 573 228 Q 545 222 566 211 Q 596 196 674 215 Q 708 224 744 233 Q 769 239 772 243 Q 779 249 775 255 Q 769 264 747 268 Q 725 272 702 262 Q 674 252 645 242 Q 611 233 573 228 Z" style="fill: #0070C0;"></path>
                                                                        <path d="M 567 139 Q 555 143 531 149 Q 519 152 517 147 Q 511 143 518 127 Q 539 84 551 14 Q 554 -7 566 -21 Q 581 -42 586 -27 Q 590 -17 590 0 L 587 28 Q 580 89 579 110 C 577 136 577 136 567 139 Z" style="fill: #0070C0;"></path>
                                                                        <path d="M 789 46 Q 810 103 832 113 Q 847 131 833 147 Q 818 159 770 181 Q 754 188 733 180 Q 661 153 567 139 C 537 134 550 104 579 110 Q 588 111 598 115 Q 661 125 721 137 Q 737 140 743 133 Q 749 129 749 115 Q 746 84 741 56 C 736 26 778 18 789 46 Z" style="fill: #0070C0;"></path>
                                                                        <path d="M 590 0 Q 602 0 613 0 Q 670 13 793 22 Q 802 23 803 30 Q 803 36 789 46 L 741 56 Q 740 57 737 56 Q 652 35 587 28 C 557 25 560 0 590 0 Z" style="fill: #0070C0;"></path>
                                    
                                    
                                                                                                                                                                                                                                                                                                                                                                                                                                                                                                                                                                                                                                                                                                                                                                                                                                                                                                                                                                                                                                                                                                                                                                                                                                                                                                                                                                                                                        </g>
                            </svg>