<svg width='83' height='83' >
                                <g transform="translate(3, 70) scale(0.07, -0.07)">
                                    <!-- 先将完整的字以灰色字体绘制完成，层级位于下面 -->
                                                                        <path d="M 454 817 Q 482 801 515 780 Q 528 771 542 774 Q 551 775 553 788 Q 554 801 543 825 Q 528 852 442 857 Q 429 858 423 855 Q 420 851 423 840 Q 427 831 454 817 Z" style="fill: #0070C0;"></path>
                                                                        <path d="M 370 692 Q 541 723 729 737 Q 739 736 748 747 Q 749 757 728 769 Q 698 791 626 772 Q 427 738 257 723 Q 230 722 250 704 Q 260 694 274 685 L 317 684 L 370 692 Z" style="fill: #0070C0;"></path>
                                                                        <path d="M 317 684 Q 332 669 338 631 Q 338 615 321 594 Q 309 575 336 557 Q 348 553 357 563 Q 409 593 566 609 Q 612 613 674 611 Q 692 611 699 621 Q 703 628 687 638 Q 639 672 585 652 Q 572 649 560 646 Q 478 633 399 612 Q 366 599 374 629 Q 375 657 380 669 Q 386 679 380 687 Q 377 690 370 692 C 345 709 299 708 317 684 Z" style="fill: #0070C0;"></path>
                                                                        <path d="M 379 538 Q 369 541 352 543 Q 342 544 340 541 Q 336 537 343 524 Q 362 490 377 433 Q 380 415 391 405 Q 406 389 409 401 Q 410 407 411 416 L 407 444 Q 398 495 396 512 C 393 534 393 534 379 538 Z" style="fill: #0070C0;"></path>
                                                                        <path d="M 629 472 Q 656 523 667 529 Q 682 545 661 558 Q 643 573 624 584 Q 615 591 562 575 Q 544 575 436 550 Q 403 543 379 538 C 350 532 369 500 396 512 Q 420 527 590 548 Q 599 549 602 545 Q 605 538 592 480 C 586 451 615 446 629 472 Z" style="fill: #0070C0;"></path>
                                                                        <path d="M 411 416 Q 420 415 429 417 Q 495 433 637 446 Q 647 447 648 454 Q 648 460 629 472 L 592 480 Q 586 481 581 479 Q 485 457 407 444 C 377 439 381 417 411 416 Z" style="fill: #0070C0;"></path>
                                                                        <path d="M 196 161 Q 196 162 197 165 Q 201 192 203 223 L 205 251 Q 206 278 207 306 Q 208 322 209 329 C 211 347 211 347 201 351 Q 162 369 150 368 Q 135 365 147 348 Q 172 309 160 169 Q 154 132 137 87 Q 119 39 65 -16 Q 55 -26 52 -31 Q 51 -35 60 -36 Q 112 -30 171 68 Q 174 75 177 81 Q 186 105 192 134 L 196 161 Z" style="fill: #0070C0;"></path>
                                                                        <path d="M 209 329 Q 212 332 270 347 Q 283 353 288 346 Q 292 336 293 319 Q 300 159 294 63 Q 293 41 286 31 Q 283 28 227 36 Q 212 40 213 32 Q 256 1 282 -26 Q 292 -39 304 -43 Q 311 -46 317 -38 Q 347 -2 345 40 Q 324 298 344 336 Q 353 351 344 358 Q 328 371 301 382 Q 289 388 240 363 Q 225 359 201 351 C 172 342 181 319 209 329 Z" style="fill: #0070C0;"></path>
                                                                        <path d="M 203 223 Q 237 229 263 232 Q 281 236 273 246 Q 264 256 244 258 Q 228 259 205 251 C 177 241 173 218 203 223 Z" style="fill: #0070C0;"></path>
                                                                        <path d="M 192 134 Q 193 134 196 134 Q 232 141 259 144 Q 277 148 269 158 Q 260 168 240 171 Q 222 171 196 161 C 168 150 162 134 192 134 Z" style="fill: #0070C0;"></path>
                                                                        <path d="M 409 357 Q 394 369 376 373 Q 370 374 366 368 Q 365 364 369 357 Q 396 285 376 191 Q 367 152 389 125 Q 396 116 403 126 Q 418 145 419 254 Q 418 321 421 338 C 422 347 422 347 409 357 Z" style="fill: #0070C0;"></path>
                                                                        <path d="M 539 195 Q 533 179 542 163 Q 552 142 558 143 Q 568 144 580 166 Q 590 185 590 199 Q 578 307 600 341 Q 607 351 602 358 Q 583 374 551 389 Q 541 393 524 387 Q 499 375 465 366 Q 434 360 409 357 C 379 353 391 333 421 338 Q 424 338 479 350 Q 525 362 535 355 Q 541 343 543 311 Q 544 214 539 195 Z" style="fill: #0070C0;"></path>
                                                                        <path d="M 460 262 Q 460 88 394 19 Q 376 4 350 -17 Q 343 -21 341 -24 Q 338 -28 348 -28 Q 366 -31 421 9 Q 484 58 494 209 Q 498 264 505 282 Q 509 289 503 294 Q 491 304 469 314 Q 456 320 444 316 Q 432 312 442 300 Q 460 281 460 262 Z" style="fill: #0070C0;"></path>
                                                                        <path d="M 506 112 Q 531 57 550 53 Q 560 50 566 61 Q 569 70 566 85 Q 557 109 513 129 Q 507 132 504 124 Q 503 118 506 112 Z" style="fill: #0070C0;"></path>
                                                                        <path d="M 676 248 Q 679 291 679 342 Q 680 355 682 362 C 685 382 685 382 672 388 Q 672 389 671 389 Q 634 405 622 404 Q 607 400 620 384 Q 653 330 632 177 Q 626 140 609 94 Q 596 58 529 -20 Q 519 -30 516 -35 Q 515 -41 524 -40 Q 584 -31 647 86 Q 647 89 649 91 Q 667 140 674 220 L 676 248 Z" style="fill: #0070C0;"></path>
                                                                        <path d="M 682 362 Q 712 369 752 385 Q 759 386 763 383 Q 757 157 762 130 Q 786 -51 952 -41 Q 965 -40 968 -33 Q 974 -23 965 -1 Q 955 33 952 91 Q 952 101 946 108 Q 940 114 937 99 Q 919 23 906 17 Q 899 14 892 15 Q 871 16 850 38 Q 796 89 793 202 Q 790 331 843 385 Q 853 392 843 401 Q 833 414 805 425 Q 778 435 767 428 Q 728 404 672 388 C 643 379 653 354 682 362 Z" style="fill: #0070C0;"></path>
                                                                        <path d="M 674 220 Q 723 151 734 153 Q 735 156 738 157 Q 742 164 743 183 Q 743 199 724 216 Q 687 249 676 248 C 652 251 657 244 674 220 Z" style="fill: #0070C0;"></path>
                                    
                                    
                                                                                                                                                                                                                                                                                                                                                                                                                                                                                                                                                                                                                                                                                                                                                                                                                                                                                                                                                                                                                                                                                                                                                                                                                                                                                                                                                                                                                        </g>
                            </svg>