<svg width='83' height='83' >
                                <g transform="translate(3, 70) scale(0.07, -0.07)">
                                    <!-- 先将完整的字以灰色字体绘制完成，层级位于下面 -->
                                                                        <path d="M 372 589 Q 397 596 428 602 Q 459 611 464 615 Q 473 624 468 632 Q 461 644 430 650 Q 402 654 376 645 L 319 625 Q 229 607 204 602 Q 167 595 195 579 Q 240 555 303 574 Q 310 577 320 577 L 372 589 Z" style="fill: #0070C0;"></path>
                                                                        <path d="M 363 482 Q 367 537 372 589 L 376 645 Q 379 717 396 776 Q 400 788 379 803 Q 342 822 317 827 Q 301 831 292 822 Q 285 815 293 798 Q 314 770 314 749 Q 318 689 319 625 L 320 577 Q 320 526 318 471 C 317 441 361 452 363 482 Z" style="fill: #0070C0;"></path>
                                                                        <path d="M 345 437 Q 403 450 473 459 Q 489 462 490 469 Q 491 482 473 490 Q 442 503 363 482 L 318 471 Q 161 438 69 426 Q 56 425 53 417 Q 50 407 65 395 Q 104 368 145 382 Q 280 427 306 428 L 345 437 Z" style="fill: #0070C0;"></path>
                                                                        <path d="M 363 188 Q 367 254 372 308 L 375 345 Q 376 354 377 362 Q 383 404 378 410 Q 362 426 345 437 C 320 454 296 456 306 428 Q 315 410 318 328 Q 318 286 318 215 C 318 185 361 158 363 188 Z" style="fill: #0070C0;"></path>
                                                                        <path d="M 372 308 Q 427 320 472 327 Q 494 331 486 344 Q 474 359 448 361 Q 427 362 375 345 C 346 336 343 302 372 308 Z" style="fill: #0070C0;"></path>
                                                                        <path d="M 237 268 Q 249 290 261 308 Q 271 321 255 335 Q 213 366 187 361 Q 175 358 179 344 Q 195 247 93 118 Q 72 97 44 60 Q 37 44 52 50 Q 71 54 95 75 Q 171 141 211 221 Q 215 231 222 241 L 237 268 Z" style="fill: #0070C0;"></path>
                                                                        <path d="M 222 241 Q 319 163 476 69 Q 668 -40 714 -42 Q 753 -38 902 8 Q 933 18 941 30 Q 945 42 926 41 Q 829 48 770 48 Q 604 48 363 188 L 318 215 Q 278 240 237 268 C 212 285 198 260 222 241 Z" style="fill: #0070C0;"></path>
                                                                        <path d="M 674 713 Q 687 735 703 755 Q 713 768 699 782 Q 656 815 631 812 Q 621 809 622 795 Q 635 702 529 583 Q 520 580 485 536 Q 478 521 492 525 Q 510 528 534 547 Q 610 604 651 676 Q 655 683 659 690 L 674 713 Z" style="fill: #0070C0;"></path>
                                                                        <path d="M 659 690 Q 729 609 817 525 Q 835 510 861 515 Q 949 528 975 538 Q 982 541 984 545 Q 984 549 972 554 Q 840 591 759 649 Q 717 679 674 713 C 650 732 639 713 659 690 Z" style="fill: #0070C0;"></path>
                                                                        <path d="M 643 580 Q 649 537 584 470 Q 566 451 522 414 Q 515 410 523 407 Q 589 407 699 525 Q 705 529 708 532 Q 715 536 714 545 Q 714 554 704 565 Q 694 578 677 585 Q 661 592 650 592 Q 643 591 643 580 Z" style="fill: #0070C0;"></path>
                                                                        <path d="M 676 449 Q 679 428 645 386 Q 618 350 543 298 Q 536 295 543 291 Q 571 285 651 329 Q 652 332 655 332 Q 682 350 726 389 Q 742 401 743 408 Q 743 432 710 451 Q 694 460 684 460 Q 677 460 676 449 Z" style="fill: #0070C0;"></path>
                                                                        <path d="M 725 334 Q 718 274 613 201 Q 610 200 609 198 Q 578 176 504 138 Q 495 135 504 131 Q 553 124 660 181 Q 663 184 666 185 Q 705 209 770 262 Q 779 269 785 272 Q 792 275 794 284 Q 795 294 787 307 Q 766 340 734 345 Q 727 345 725 334 Z" style="fill: #0070C0;"></path>
                                    
                                    
                                                                                                                                                                                                                                                                                                                                                                                                                                                                                                                                                                                                                                                                                                                                                                                                                                                                                                                                                                                                                            </g>
                            </svg>