<svg width='83' height='83' >
                                <g transform="translate(3, 70) scale(0.07, -0.07)">
                                    <!-- 先将完整的字以灰色字体绘制完成，层级位于下面 -->
                                                                        <path d="M 375 757 Q 365 763 328 768 Q 316 771 313 765 Q 306 759 316 743 Q 350 679 372 572 Q 376 539 395 519 Q 414 497 419 514 Q 422 523 422 535 L 419 569 Q 403 645 386 722 C 380 751 379 755 375 757 Z" style="fill: #0070C0;"></path>
                                                                        <path d="M 643 599 Q 677 698 713 722 Q 732 743 716 762 Q 698 778 642 807 Q 623 816 598 807 Q 517 777 375 757 C 345 753 357 716 386 722 Q 395 723 405 726 Q 493 739 578 754 Q 600 758 609 750 Q 619 740 616 718 Q 603 655 587 604 C 578 575 633 571 643 599 Z" style="fill: #0070C0;"></path>
                                                                        <path d="M 516 550 Q 570 559 656 566 Q 666 567 668 575 Q 668 584 643 599 C 622 612 616 611 587 604 Q 493 582 419 569 C 389 564 392 533 422 535 Q 428 535 435 536 Q 450 540 473 543 L 516 550 Z" style="fill: #0070C0;"></path>
                                                                        <path d="M 530 213 Q 534 301 537 375 L 538 402 Q 541 480 544 500 Q 551 518 542 528 Q 529 541 516 550 C 492 568 460 570 473 543 Q 488 513 488 485 Q 489 458 488 239 C 488 209 529 183 530 213 Z" style="fill: #0070C0;"></path>
                                                                        <path d="M 537 375 L 716 395 Q 744 399 733 415 Q 721 431 691 437 Q 655 443 538 402 C 510 392 507 372 537 375 Z" style="fill: #0070C0;"></path>
                                                                        <path d="M 349 342 Q 362 366 376 386 Q 386 401 370 417 Q 319 453 292 448 Q 279 444 283 428 Q 299 293 152 122 Q 140 119 89 54 Q 80 36 97 42 Q 122 48 155 76 Q 257 164 310 270 Q 320 292 333 313 L 349 342 Z" style="fill: #0070C0;"></path>
                                                                        <path d="M 333 313 Q 471 183 708 40 Q 739 27 907 63 Q 940 72 948 82 Q 954 94 935 95 Q 850 108 797 112 Q 665 122 530 213 L 488 239 Q 419 285 349 342 C 326 361 311 333 333 313 Z" style="fill: #0070C0;"></path>
                                    
                                    
                                                                                                                                                                                                                                                                                                                                                                                                                                                                                                                                                                                                                                </g>
                            </svg>