<svg width='83' height='83' >
                                <g transform="translate(3, 70) scale(0.07, -0.07)">
                                    <!-- 先将完整的字以灰色字体绘制完成，层级位于下面 -->
                                                                        <path d="M 186 704 Q 176 708 149 712 Q 137 715 135 709 Q 129 703 137 689 Q 165 635 184 546 Q 188 519 204 502 Q 222 483 226 497 Q 227 503 228 509 L 227 541 Q 221 575 202 678 C 198 700 198 700 186 704 Z" style="fill: #0070C0;"></path>
                                                                        <path d="M 383 570 Q 404 655 429 680 Q 453 707 429 722 Q 410 734 382 752 Q 364 764 315 737 Q 269 719 186 704 C 156 699 172 678 202 678 Q 214 677 230 681 Q 339 709 350 696 Q 357 689 349 653 Q 340 614 329 569 C 322 540 376 541 383 570 Z" style="fill: #0070C0;"></path>
                                                                        <path d="M 294 522 Q 333 531 398 539 Q 408 540 409 549 Q 409 556 383 570 C 366 579 358 577 329 569 Q 271 553 227 541 C 198 533 198 505 228 509 Q 229 509 254 513 L 294 522 Z" style="fill: #0070C0;"></path>
                                                                        <path d="M 313 223 Q 314 299 316 365 L 316 399 Q 320 498 318 502 Q 306 514 294 522 C 270 540 243 541 254 513 Q 266 492 270 385 Q 270 322 272 209 C 273 179 313 193 313 223 Z" style="fill: #0070C0;"></path>
                                                                        <path d="M 316 365 Q 374 377 416 383 Q 438 387 430 400 Q 418 415 392 417 Q 356 420 316 399 C 289 385 287 359 316 365 Z" style="fill: #0070C0;"></path>
                                                                        <path d="M 209 188 Q 196 321 199 348 Q 200 369 186 379 Q 164 395 139 401 Q 126 405 119 399 Q 112 393 119 380 Q 137 352 146 322 Q 153 292 172 176 C 177 146 212 158 209 188 Z" style="fill: #0070C0;"></path>
                                                                        <path d="M 172 176 Q 99 155 76 153 Q 63 152 61 140 Q 60 127 70 118 Q 94 102 129 85 Q 139 82 152 92 Q 180 116 352 204 Q 376 216 393 231 Q 406 238 406 249 Q 397 256 313 223 L 272 209 Q 241 199 209 188 L 172 176 Z" style="fill: #0070C0;"></path>
                                                                        <path d="M 488 404 Q 497 394 497 383 Q 500 347 439 227 Q 379 148 342 111 Q 332 98 341 96 Q 357 92 413 135 Q 476 186 529 299 Q 553 351 567 366 Q 574 373 571 380 Q 567 402 519 421 Q 506 428 491 422 Q 481 415 488 404 Z" style="fill: #0070C0;"></path>
                                                                        <path d="M 567 557 Q 601 529 619 488 Q 769 178 805 157 Q 853 139 968 133 Q 986 132 994 138 Q 1000 145 989 151 Q 836 238 780 312 Q 714 397 632 547 Q 623 568 605 573 Q 574 580 563 572 Q 559 566 567 557 Z" style="fill: #0070C0;"></path>
                                    
                                    
                                                                                                                                                                                                                                                                                                                                                                                                                                                                                                                                                                                                                                                                                                                                                                                        </g>
                            </svg>