<svg width='83' height='83' >
                                <g transform="translate(3, 70) scale(0.07, -0.07)">
                                    <!-- 先将完整的字以灰色字体绘制完成，层级位于下面 -->
                                                                        <path d="M 187 671 Q 177 675 150 680 Q 140 683 136 678 Q 132 672 139 658 Q 167 601 185 508 Q 189 480 205 462 Q 221 443 226 457 Q 230 470 228 490 L 224 520 Q 203 619 200 646 C 197 668 197 668 187 671 Z" style="fill: #0070C0;"></path>
                                                                        <path d="M 361 545 Q 374 627 397 652 Q 418 677 395 689 Q 337 720 332 720 Q 323 720 315 714 Q 276 689 187 671 C 158 665 170 641 200 646 Q 207 647 217 649 Q 257 659 293 667 Q 315 671 322 663 Q 329 657 325 624 Q 319 588 314 546 C 310 516 356 515 361 545 Z" style="fill: #0070C0;"></path>
                                                                        <path d="M 284 499 Q 318 508 375 515 Q 385 516 385 525 Q 385 532 361 545 L 314 546 Q 313 546 312 546 Q 263 530 224 520 C 195 512 198 493 228 490 Q 232 489 244 490 L 284 499 Z" style="fill: #0070C0;"></path>
                                                                        <path d="M 301 209 Q 302 282 304 345 L 304 377 Q 308 479 306 482 L 305 483 Q 295 493 284 499 C 259 515 233 518 244 490 Q 254 474 258 367 Q 258 307 260 196 C 261 166 301 179 301 209 Z" style="fill: #0070C0;"></path>
                                                                        <path d="M 304 345 Q 355 357 394 364 Q 415 370 406 381 Q 394 394 370 395 Q 325 398 304 377 C 282 357 275 338 304 345 Z" style="fill: #0070C0;"></path>
                                                                        <path d="M 208 181 Q 192 295 196 325 Q 197 346 183 356 Q 161 371 136 377 Q 123 381 115 374 Q 108 368 115 354 Q 133 329 143 300 Q 150 273 170 169 C 176 140 212 151 208 181 Z" style="fill: #0070C0;"></path>
                                                                        <path d="M 170 169 Q 92 156 89 155 Q 76 154 75 143 Q 74 130 82 122 Q 104 106 138 88 Q 148 84 160 93 Q 185 114 357 195 Q 379 205 397 219 Q 410 226 410 236 Q 404 242 392 239 Q 349 226 301 209 L 260 196 Q 235 189 208 181 L 170 169 Z" style="fill: #0070C0;"></path>
                                                                        <path d="M 484 488 Q 547 590 579 654 Q 594 691 609 709 Q 616 721 610 733 Q 604 745 575 762 Q 547 777 529 774 Q 511 770 522 750 Q 558 687 410 434 Q 403 424 401 417 Q 400 407 412 410 Q 415 411 458 454 L 484 488 Z" style="fill: #0070C0;"></path>
                                                                        <path d="M 458 454 Q 473 421 480 370 Q 480 223 460 135 Q 448 84 482 45 Q 483 42 486 40 Q 502 24 514 50 Q 529 90 528 135 Q 522 357 528 407 Q 535 434 526 444 Q 489 484 484 488 C 463 509 447 482 458 454 Z" style="fill: #0070C0;"></path>
                                                                        <path d="M 802 494 Q 845 500 904 502 Q 919 503 932 504 Q 950 505 953 513 Q 957 523 942 535 Q 887 568 826 548 Q 814 545 801 540 L 752 529 Q 739 528 726 523 Q 651 507 562 489 Q 543 485 558 471 Q 588 447 621 457 Q 675 476 753 487 L 802 494 Z" style="fill: #0070C0;"></path>
                                                                        <path d="M 753 487 Q 754 355 758 140 Q 758 118 746 109 Q 739 103 673 116 Q 640 126 643 117 Q 644 110 665 95 Q 728 47 744 19 Q 763 -14 779 -15 Q 794 -15 807 20 Q 823 66 820 139 Q 804 317 802 494 L 801 540 Q 801 667 816 726 Q 832 757 776 777 Q 742 795 723 788 Q 705 781 722 758 Q 744 731 746 698 Q 749 680 752 529 L 753 487 Z" style="fill: #0070C0;"></path>
                                                                        <path d="M 601 352 Q 620 327 642 296 Q 652 281 668 279 Q 678 278 685 289 Q 692 302 689 332 Q 688 351 661 369 Q 603 406 584 403 Q 580 400 578 388 Q 579 376 601 352 Z" style="fill: #0070C0;"></path>
                                    
                                    
                                                                                                                                                                                                                                                                                                                                                                                                                                                                                                                                                                                                                                                                                                                                                                                                                                                                                                                                                                                                                            </g>
                            </svg>