<svg width='83' height='83' >
                                <g transform="translate(3, 70) scale(0.07, -0.07)">
                                    <!-- 先将完整的字以灰色字体绘制完成，层级位于下面 -->
                                                                        <path d="M 220 693 Q 207 697 184 700 Q 172 703 169 697 Q 163 691 172 675 Q 197 627 217 547 Q 221 522 235 507 Q 254 485 259 502 Q 260 508 261 515 L 260 542 Q 260 548 259 554 Q 243 639 240 665 C 237 688 237 688 220 693 Z" style="fill: #0070C0;"></path>
                                                                        <path d="M 414 569 Q 433 642 457 664 Q 481 689 458 705 Q 437 718 410 737 Q 389 749 343 723 Q 289 705 220 693 C 190 688 210 660 240 665 Q 247 666 258 668 Q 304 678 344 686 Q 371 690 377 680 Q 384 676 376 645 Q 369 611 359 570 C 352 541 406 540 414 569 Z" style="fill: #0070C0;"></path>
                                                                        <path d="M 335 524 Q 371 533 426 539 Q 436 540 437 549 Q 437 556 414 569 C 395 580 388 578 359 570 Q 304 554 260 542 C 231 534 232 521 261 515 Q 264 515 266 514 Q 276 511 288 515 Q 289 516 293 516 L 335 524 Z" style="fill: #0070C0;"></path>
                                                                        <path d="M 349 209 Q 352 293 354 363 L 356 397 Q 356 451 360 479 Q 366 500 335 524 C 312 543 285 545 293 516 Q 303 486 307 390 Q 307 324 308 196 C 308 166 348 179 349 209 Z" style="fill: #0070C0;"></path>
                                                                        <path d="M 354 363 Q 411 376 454 386 Q 476 393 466 405 Q 453 418 428 419 Q 389 419 356 397 C 331 381 325 356 354 363 Z" style="fill: #0070C0;"></path>
                                                                        <path d="M 234 174 Q 224 315 227 345 Q 228 367 215 378 Q 193 394 166 401 Q 153 405 144 400 Q 137 393 144 379 Q 163 348 172 315 Q 179 284 195 162 C 199 132 236 144 234 174 Z" style="fill: #0070C0;"></path>
                                                                        <path d="M 195 162 Q 176 158 158 151 Q 137 144 102 145 Q 89 144 87 132 Q 84 119 94 110 Q 118 94 152 75 Q 162 71 175 81 Q 209 106 416 199 Q 444 211 464 227 Q 477 234 478 244 Q 472 250 460 247 Q 406 229 349 209 L 308 196 Q 271 186 234 174 L 195 162 Z" style="fill: #0070C0;"></path>
                                                                        <path d="M 587 664 Q 623 658 674 669 Q 866 715 872 719 Q 881 728 875 736 Q 868 748 838 755 Q 808 759 717 727 Q 642 708 573 698 Q 569 698 566 696 C 537 689 557 668 587 664 Z" style="fill: #0070C0;"></path>
                                                                        <path d="M 799 364 Q 824 446 860 473 Q 876 492 862 511 Q 846 524 791 550 Q 770 557 713 534 Q 653 513 581 501 C 551 496 551 475 581 472 Q 603 468 631 477 Q 755 504 763 497 Q 772 488 769 469 Q 759 414 745 370 C 736 341 790 335 799 364 Z" style="fill: #0070C0;"></path>
                                                                        <path d="M 579 308 Q 597 299 618 302 Q 679 315 814 325 Q 826 326 828 337 Q 828 346 799 364 L 745 370 Q 742 371 740 370 Q 652 348 581 338 Q 580 338 579 337 C 550 330 551 320 579 308 Z" style="fill: #0070C0;"></path>
                                                                        <path d="M 581 501 Q 584 582 587 664 C 588 684 588 684 566 696 Q 556 703 538 712 Q 517 722 509 715 Q 502 708 509 693 Q 528 657 530 592 Q 539 385 522 194 Q 519 154 495 117 Q 485 102 494 81 Q 501 59 512 50 Q 522 41 540 54 Q 640 118 927 108 Q 952 107 954 119 Q 954 135 925 156 Q 907 171 807 156 Q 644 144 600 136 Q 588 133 583 138 Q 577 139 576 156 Q 577 229 579 308 L 579 337 Q 580 403 581 472 L 581 501 Z" style="fill: #0070C0;"></path>
                                    
                                    
                                                                                                                                                                                                                                                                                                                                                                                                                                                                                                                                                                                                                                                                                                                                                                                                                                                                                                                                                </g>
                            </svg>