<svg width='83' height='83' >
                                <g transform="translate(3, 70) scale(0.07, -0.07)">
                                    <!-- 先将完整的字以灰色字体绘制完成，层级位于下面 -->
                                                                        <path d="M 208 704 Q 196 708 175 712 Q 163 716 160 711 Q 156 705 162 691 Q 189 633 203 538 Q 206 510 222 490 Q 238 471 242 485 Q 245 495 246 509 L 244 540 Q 235 568 223 677 C 220 700 220 700 208 704 Z" style="fill: #0070C0;"></path>
                                                                        <path d="M 401 572 Q 420 654 444 679 Q 466 704 444 719 Q 425 729 399 748 Q 378 758 334 734 Q 273 715 208 704 C 178 699 193 673 223 677 Q 232 678 244 680 Q 292 692 333 699 Q 361 705 367 694 Q 373 688 350 569 C 344 540 394 543 401 572 Z" style="fill: #0070C0;"></path>
                                                                        <path d="M 313 522 Q 353 531 418 539 Q 428 540 429 549 Q 429 556 401 572 C 387 580 379 577 350 569 Q 289 551 244 540 C 215 533 216 507 246 509 Q 255 509 272 513 L 313 522 Z" style="fill: #0070C0;"></path>
                                                                        <path d="M 333 227 Q 334 305 337 369 L 337 398 Q 341 497 339 501 L 338 502 Q 325 514 313 522 C 289 539 261 541 272 513 Q 284 492 288 388 Q 288 327 291 215 C 292 185 333 197 333 227 Z" style="fill: #0070C0;"></path>
                                                                        <path d="M 337 369 Q 337 370 340 370 Q 395 380 437 388 Q 459 394 450 405 Q 438 418 414 420 Q 378 423 337 398 C 311 383 308 360 337 369 Z" style="fill: #0070C0;"></path>
                                                                        <path d="M 219 196 Q 204 323 209 362 Q 210 384 196 394 Q 174 410 146 417 Q 133 421 125 415 Q 118 408 125 394 Q 143 367 152 338 Q 159 308 181 186 C 186 156 222 166 219 196 Z" style="fill: #0070C0;"></path>
                                                                        <path d="M 181 186 Q 168 185 156 180 Q 137 176 107 176 Q 94 175 92 165 Q 89 152 99 142 Q 121 126 156 105 Q 166 102 179 111 Q 210 135 379 208 Q 403 218 420 231 Q 433 238 434 248 Q 430 254 416 251 Q 376 241 333 227 L 291 215 Q 254 206 219 196 L 181 186 Z" style="fill: #0070C0;"></path>
                                                                        <path d="M 565 644 Q 655 674 714 708 Q 754 727 789 738 Q 805 739 808 747 Q 809 757 798 767 Q 750 800 710 796 Q 703 792 703 782 Q 704 752 550 658 C 524 642 537 634 565 644 Z" style="fill: #0070C0;"></path>
                                                                        <path d="M 550 658 Q 534 671 515 677 Q 502 681 493 674 Q 487 667 497 651 Q 515 623 513 582 Q 514 470 476 413 Q 464 398 470 387 Q 479 368 496 352 Q 509 342 525 355 Q 558 382 662 401 L 713 408 Q 771 415 845 412 Q 867 409 877 416 Q 884 422 877 434 Q 871 446 833 467 Q 812 477 745 464 Q 739 464 714 459 L 660 449 Q 609 442 561 427 Q 551 423 549 426 Q 539 433 544 454 Q 559 581 572 617 Q 578 632 565 644 L 550 658 Z" style="fill: #0070C0;"></path>
                                                                        <path d="M 662 401 Q 666 242 660 153 Q 660 128 647 119 Q 637 112 621 115 Q 581 119 542 125 Q 529 126 532 118 Q 533 111 544 105 Q 631 53 665 16 Q 680 0 694 16 Q 727 55 721 121 Q 717 161 713 408 L 714 459 Q 715 484 723 504 Q 732 522 715 535 Q 690 557 659 566 Q 641 572 633 564 Q 627 558 638 543 Q 659 506 660 449 L 662 401 Z" style="fill: #0070C0;"></path>
                                                                        <path d="M 511 273 Q 484 224 450 180 Q 426 147 442 114 Q 448 95 470 106 Q 522 142 531 213 Q 538 246 534 271 Q 530 280 524 281 Q 515 281 511 273 Z" style="fill: #0070C0;"></path>
                                                                        <path d="M 779 276 Q 821 219 868 138 Q 878 116 892 109 Q 899 106 909 114 Q 924 124 920 167 Q 920 221 786 305 Q 779 312 774 300 Q 771 288 779 276 Z" style="fill: #0070C0;"></path>
                                    
                                    
                                                                                                                                                                                                                                                                                                                                                                                                                                                                                                                                                                                                                                                                                                                                                                                                                                                                                                                                                                                                                            </g>
                            </svg>