<svg width='83' height='83' >
                                <g transform="translate(3, 70) scale(0.07, -0.07)">
                                    <!-- 先将完整的字以灰色字体绘制完成，层级位于下面 -->
                                                                        <path d="M 190 690 Q 178 694 149 700 Q 139 704 135 699 Q 128 693 137 678 Q 161 629 176 547 Q 179 523 193 507 Q 209 486 214 501 Q 215 507 217 514 C 221 528 221 528 217 544 Q 214 553 201 662 C 198 688 198 688 190 690 Z" style="fill: #0070C0;"></path>
                                                                        <path d="M 358 568 Q 379 641 402 662 Q 426 686 403 701 Q 345 737 336 736 Q 329 736 321 731 Q 287 710 190 690 C 161 684 172 654 201 662 Q 207 665 295 683 Q 322 687 327 678 Q 334 671 325 640 Q 318 609 307 570 C 299 541 349 539 358 568 Z" style="fill: #0070C0;"></path>
                                                                        <path d="M 284 527 Q 317 534 367 541 Q 376 542 377 550 Q 377 557 358 568 C 338 580 336 579 307 570 Q 256 554 217 544 C 188 536 187 509 217 514 Q 218 514 246 519 L 284 527 Z" style="fill: #0070C0;"></path>
                                                                        <path d="M 305 237 Q 306 307 308 367 L 308 399 Q 311 502 310 506 L 309 507 Q 296 519 284 527 C 260 544 236 547 246 519 Q 259 485 260 466 Q 261 441 264 222 C 264 192 305 207 305 237 Z" style="fill: #0070C0;"></path>
                                                                        <path d="M 308 367 Q 357 377 397 384 Q 419 390 410 401 Q 398 414 374 416 Q 352 417 314 403 Q 310 402 308 399 C 286 378 279 361 308 367 Z" style="fill: #0070C0;"></path>
                                                                        <path d="M 201 202 Q 185 335 188 361 Q 189 382 175 392 Q 153 407 128 413 Q 115 417 107 410 Q 100 404 107 391 Q 125 364 135 334 Q 142 306 164 190 C 170 161 205 172 201 202 Z" style="fill: #0070C0;"></path>
                                                                        <path d="M 164 190 Q 91 174 80 173 Q 67 172 65 160 Q 64 147 74 138 Q 98 122 133 105 Q 143 102 156 111 Q 190 139 231 160 Q 292 190 353 221 Q 375 233 393 247 Q 406 254 406 264 Q 400 270 387 267 Q 347 254 305 237 L 264 222 Q 233 213 201 202 L 164 190 Z" style="fill: #0070C0;"></path>
                                                                        <path d="M 666 667 Q 706 676 825 690 Q 835 689 845 702 Q 846 714 823 724 Q 796 745 698 718 Q 689 718 604 695 L 549 686 Q 540 686 440 673 Q 412 669 434 652 Q 464 627 505 636 Q 515 639 529 640 L 587 652 Q 612 658 641 662 L 666 667 Z" style="fill: #0070C0;"></path>
                                                                        <path d="M 604 695 Q 614 723 624 757 Q 634 785 645 810 Q 652 820 646 829 Q 639 839 609 852 Q 587 861 578 858 Q 566 854 569 839 Q 582 772 549 686 L 529 640 Q 481 550 370 441 Q 363 434 370 431 Q 377 430 387 434 Q 445 465 493 514 Q 548 565 587 652 L 604 695 Z" style="fill: #0070C0;"></path>
                                                                        <path d="M 641 662 Q 642 658 649 651 Q 709 564 775 484 Q 812 439 973 457 Q 991 458 993 463 Q 996 470 981 476 Q 807 545 724 615 Q 714 624 705 631 Q 680 655 666 667 C 644 687 624 686 641 662 Z" style="fill: #0070C0;"></path>
                                                                        <path d="M 507 490 Q 474 483 498 469 Q 540 448 588 463 Q 631 472 676 482 Q 697 486 700 490 Q 707 497 703 505 Q 696 515 669 522 Q 648 525 570 501 Q 540 494 507 490 Z" style="fill: #0070C0;"></path>
                                                                        <path d="M 565 350 Q 625 366 792 373 Q 837 373 844 382 Q 848 392 834 404 Q 780 438 723 418 Q 672 409 602 393 Q 517 377 414 360 Q 396 357 410 343 Q 423 331 438 328 Q 456 324 470 328 Q 492 335 517 340 L 565 350 Z" style="fill: #0070C0;"></path>
                                                                        <path d="M 498 180 Q 541 211 630 232 Q 666 242 687 236 Q 709 229 712 193 Q 706 123 674 67 Q 659 42 645 37 Q 627 30 552 54 Q 536 61 534 54 Q 534 48 546 36 Q 589 -6 616 -43 Q 626 -55 637 -54 Q 653 -55 672 -42 Q 732 15 763 162 Q 763 195 778 221 Q 790 234 779 246 Q 763 262 724 278 Q 703 287 628 262 Q 598 256 561 249 Q 542 245 551 264 Q 573 301 582 310 Q 595 323 585 338 Q 576 345 565 350 C 540 367 513 370 517 340 L 518 339 Q 530 312 497 263 Q 490 253 469 238 Q 453 222 455 207 Q 456 194 473 179 Q 485 169 498 180 Z" style="fill: #0070C0;"></path>
                                    
                                    
                                                                                                                                                                                                                                                                                                                                                                                                                                                                                                                                                                                                                                                                                                                                                                                                                                                                                                                                                                                                                                                                                                        </g>
                            </svg>