<svg width='83' height='83' >
                                <g transform="translate(3, 70) scale(0.07, -0.07)">
                                    <!-- 先将完整的字以灰色字体绘制完成，层级位于下面 -->
                                                                        <path d="M 195 702 Q 183 708 157 713 Q 144 717 141 712 Q 134 706 142 690 Q 167 638 179 551 Q 182 526 196 508 Q 212 486 219 501 Q 222 508 223 518 L 223 548 Q 217 569 210 674 C 208 696 208 696 195 702 Z" style="fill: #0070C0;"></path>
                                                                        <path d="M 385 575 Q 407 654 432 675 Q 457 700 433 717 Q 372 756 363 754 Q 354 754 347 749 Q 301 721 195 702 C 165 697 182 664 210 674 Q 211 677 315 698 Q 346 705 353 692 Q 360 686 351 655 Q 342 619 330 576 C 322 547 377 546 385 575 Z" style="fill: #0070C0;"></path>
                                                                        <path d="M 297 533 Q 334 542 395 549 Q 404 550 405 558 Q 405 564 385 575 C 367 586 359 584 330 576 Q 269 560 223 548 C 194 540 193 519 223 518 Q 229 517 237 519 Q 244 522 255 524 L 297 533 Z" style="fill: #0070C0;"></path>
                                                                        <path d="M 311 261 Q 314 334 318 394 L 320 428 Q 321 444 322 460 Q 326 506 322 512 Q 309 525 297 533 C 273 551 249 553 255 524 Q 264 484 267 406 Q 267 349 267 244 C 267 214 310 231 311 261 Z" style="fill: #0070C0;"></path>
                                                                        <path d="M 318 394 L 416 409 Q 440 416 430 428 Q 417 443 390 445 Q 366 445 320 428 C 292 418 288 389 318 394 Z" style="fill: #0070C0;"></path>
                                                                        <path d="M 199 220 Q 190 329 195 365 Q 196 387 183 397 Q 161 413 134 422 Q 121 426 112 420 Q 105 414 112 399 Q 128 374 137 345 Q 143 317 160 207 C 165 177 201 190 199 220 Z" style="fill: #0070C0;"></path>
                                                                        <path d="M 160 207 Q 91 186 71 185 Q 58 184 56 172 Q 55 159 65 150 Q 90 135 125 118 Q 135 115 148 125 Q 178 152 352 243 Q 376 256 393 271 Q 406 278 406 289 Q 396 296 311 261 L 267 244 Q 233 234 199 220 L 160 207 Z" style="fill: #0070C0;"></path>
                                                                        <path d="M 575 662 Q 624 758 635 768 Q 642 780 637 792 Q 633 804 602 823 Q 575 838 557 835 Q 539 832 549 812 Q 562 790 556 770 Q 538 703 507 638 Q 476 577 431 506 Q 424 496 421 489 Q 420 479 432 482 Q 445 486 494 542 L 507 560 Q 525 584 563 643 L 575 662 Z" style="fill: #0070C0;"></path>
                                                                        <path d="M 442 230 Q 542 311 626 419 L 651 454 Q 694 515 738 585 Q 757 613 792 644 Q 807 656 801 665 Q 800 675 736 697 Q 723 704 678 685 Q 597 666 575 662 C 546 656 537 654 563 643 Q 591 622 654 642 Q 679 648 687 638 Q 694 620 613 486 L 593 455 Q 488 314 357 194 Q 344 181 358 182 Q 368 183 434 224 L 442 230 Z" style="fill: #0070C0;"></path>
                                                                        <path d="M 626 419 Q 714 325 789 252 Q 808 233 835 236 Q 985 258 993 274 Q 997 281 986 284 Q 820 330 738 387 Q 698 415 651 454 L 613 486 Q 583 514 550 545 Q 537 561 518 562 Q 511 562 507 560 C 477 558 467 555 494 542 Q 530 529 593 455 L 626 419 Z" style="fill: #0070C0;"></path>
                                                                        <path d="M 493 218 Q 459 236 442 230 C 433 229 433 229 434 224 Q 433 218 439 205 Q 467 142 481 40 Q 482 9 500 -12 Q 518 -34 523 -19 Q 529 -4 527 21 L 523 57 Q 508 154 506 186 C 504 212 504 212 493 218 Z" style="fill: #0070C0;"></path>
                                                                        <path d="M 746 80 Q 773 164 805 186 Q 821 205 807 224 Q 791 237 737 264 Q 718 273 696 264 Q 621 237 493 218 C 463 213 477 180 506 186 Q 513 187 523 190 Q 602 203 678 216 Q 697 220 705 212 Q 715 202 713 182 Q 703 130 692 87 C 685 58 737 52 746 80 Z" style="fill: #0070C0;"></path>
                                                                        <path d="M 527 21 Q 534 20 546 22 Q 613 35 758 44 Q 770 45 771 54 Q 771 61 746 80 L 692 87 Q 691 87 690 87 Q 596 66 523 57 C 493 53 497 22 527 21 Z" style="fill: #0070C0;"></path>
                                    
                                    
                                                                                                                                                                                                                                                                                                                                                                                                                                                                                                                                                                                                                                                                                                                                                                                                                                                                                                                                                                                                                                                                                                        </g>
                            </svg>