<svg width='83' height='83' >
                                <g transform="translate(3, 70) scale(0.07, -0.07)">
                                    <!-- 先将完整的字以灰色字体绘制完成，层级位于下面 -->
                                                                        <path d="M 199 691 Q 199 692 198 693 Q 188 699 154 704 Q 144 705 140 701 Q 136 697 143 682 Q 171 627 189 535 Q 193 508 209 490 Q 225 471 230 485 Q 233 497 232 514 L 228 545 Q 210 633 205 664 L 199 691 Z" style="fill: #0070C0;"></path>
                                                                        <path d="M 361 564 Q 377 646 400 671 Q 421 695 398 708 Q 380 718 354 734 Q 336 744 294 719 Q 243 701 199 691 C 170 684 176 655 205 664 Q 235 674 294 686 Q 319 692 326 682 Q 333 676 327 645 Q 323 612 315 573 C 309 544 355 535 361 564 Z" style="fill: #0070C0;"></path>
                                                                        <path d="M 283 524 Q 314 531 367 539 Q 377 540 377 549 Q 377 555 361 564 C 338 577 338 577 315 573 Q 308 572 304 570 Q 261 554 228 545 C 199 537 202 514 232 514 Q 236 514 245 514 L 283 524 Z" style="fill: #0070C0;"></path>
                                                                        <path d="M 301 243 Q 302 307 305 363 L 306 395 Q 309 500 310 500 Q 309 503 308 503 Q 295 516 283 524 C 259 542 233 542 245 514 Q 257 495 260 393 Q 260 335 260 229 C 260 199 300 213 301 243 Z" style="fill: #0070C0;"></path>
                                                                        <path d="M 305 363 Q 351 375 390 381 Q 411 387 402 397 Q 392 410 368 411 Q 347 412 311 398 Q 308 397 306 395 C 282 378 276 355 305 363 Z" style="fill: #0070C0;"></path>
                                                                        <path d="M 196 210 Q 187 336 191 365 Q 192 387 179 397 Q 157 413 130 422 Q 117 426 108 420 Q 101 413 108 399 Q 124 374 132 346 Q 139 316 158 198 C 163 168 198 180 196 210 Z" style="fill: #0070C0;"></path>
                                                                        <path d="M 158 198 Q 89 185 85 184 Q 72 183 71 173 Q 70 160 78 153 Q 100 138 132 121 Q 142 118 153 127 Q 186 152 223 171 Q 280 196 336 225 Q 358 235 373 248 Q 385 255 385 264 Q 381 268 369 266 Q 336 256 301 243 L 260 229 Q 229 220 196 210 L 158 198 Z" style="fill: #0070C0;"></path>
                                                                        <path d="M 686 634 Q 794 698 807 704 Q 825 708 827 717 Q 828 729 814 738 Q 742 768 711 758 Q 704 752 706 741 Q 710 704 555 584 Q 551 574 558 572 Q 579 579 658 619 L 686 634 Z" style="fill: #0070C0;"></path>
                                                                        <path d="M 733 419 Q 784 432 893 444 Q 903 443 913 456 Q 914 469 890 479 Q 854 500 758 471 Q 745 470 733 465 L 681 454 Q 648 448 619 444 Q 582 440 540 434 Q 510 430 534 412 Q 567 384 598 393 Q 635 402 682 410 L 733 419 Z" style="fill: #0070C0;"></path>
                                                                        <path d="M 687 170 Q 693 148 699 139 Q 703 132 711 134 Q 723 143 730 197 Q 736 251 734 305 Q 733 335 733 419 L 733 465 Q 733 516 742 587 Q 745 603 732 612 Q 702 630 686 634 C 658 644 644 645 658 619 Q 658 616 669 600 Q 676 585 681 454 L 682 410 Q 682 208 687 170 Z" style="fill: #0070C0;"></path>
                                                                        <path d="M 432 648 Q 465 579 492 572 Q 505 568 515 586 Q 519 599 513 620 Q 506 636 486 648 Q 455 669 441 674 Q 432 677 429 666 Q 426 657 432 648 Z" style="fill: #0070C0;"></path>
                                                                        <path d="M 493 199 Q 511 217 503 255 Q 497 271 478 301 Q 460 337 487 387 Q 503 421 520 440 Q 538 456 521 468 Q 505 481 477 491 Q 459 501 425 472 Q 365 447 364 446 Q 358 446 357 442 Q 356 438 362 435 Q 392 422 438 444 Q 445 447 452 438 Q 474 417 453 390 Q 410 342 452 278 Q 473 227 470 201 C 470 171 476 175 493 199 Z" style="fill: #0070C0;"></path>
                                                                        <path d="M 470 201 Q 427 204 384 191 Q 363 184 332 180 Q 325 180 322 171 Q 321 164 329 154 Q 348 138 373 127 Q 385 123 402 138 Q 456 195 546 143 Q 577 125 624 95 Q 777 -5 844 8 Q 905 21 960 50 Q 984 62 961 64 Q 793 76 659 134 Q 527 194 503 198 Q 497 199 493 199 L 470 201 Z" style="fill: #0070C0;"></path>
                                    
                                    
                                                                                                                                                                                                                                                                                                                                                                                                                                                                                                                                                                                                                                                                                                                                                                                                                                                                                                                                                                                                                                                                                                        </g>
                            </svg>