<svg width='83' height='83' >
                                <g transform="translate(3, 70) scale(0.07, -0.07)">
                                    <!-- 先将完整的字以灰色字体绘制完成，层级位于下面 -->
                                                                        <path d="M 208 688 Q 198 692 173 696 Q 163 699 159 694 Q 153 688 161 673 Q 189 618 205 528 Q 209 500 225 483 Q 241 462 246 477 Q 250 490 249 511 L 246 536 Q 227 639 226 664 C 225 683 225 683 208 688 Z" style="fill: #0070C0;"></path>
                                                                        <path d="M 379 564 Q 395 645 419 670 Q 440 695 418 708 Q 400 718 374 734 Q 356 744 314 719 Q 262 701 208 688 C 179 681 198 653 226 664 Q 239 671 314 686 Q 339 692 346 682 Q 353 676 347 641 Q 340 607 333 569 C 328 540 373 535 379 564 Z" style="fill: #0070C0;"></path>
                                                                        <path d="M 307 520 Q 355 532 388 536 Q 398 539 398 544 Q 398 554 379 564 C 353 579 353 579 333 569 Q 329 568 329 567 Q 301 554 279 546 Q 261 542 246 536 C 218 525 219 511 249 511 Q 256 511 270 511 L 307 520 Z" style="fill: #0070C0;"></path>
                                                                        <path d="M 325 225 Q 326 304 330 371 L 331 403 Q 331 445 335 474 Q 342 498 307 520 C 282 537 260 539 270 511 Q 282 480 283 460 Q 284 433 284 212 C 284 182 325 195 325 225 Z" style="fill: #0070C0;"></path>
                                                                        <path d="M 330 371 Q 331 371 334 371 Q 383 384 419 391 Q 440 398 430 409 Q 418 421 394 422 Q 373 422 331 403 C 304 391 300 371 330 371 Z" style="fill: #0070C0;"></path>
                                                                        <path d="M 225 194 Q 216 314 221 355 Q 222 376 210 387 Q 188 403 163 410 Q 150 414 142 409 Q 135 402 142 389 Q 167 344 189 184 C 193 154 227 164 225 194 Z" style="fill: #0070C0;"></path>
                                                                        <path d="M 189 184 Q 164 178 141 170 Q 122 164 90 165 Q 77 164 75 152 Q 72 139 82 130 Q 106 114 140 95 Q 150 91 163 101 Q 193 125 377 209 Q 402 221 420 235 Q 433 242 434 252 Q 428 258 416 255 Q 373 242 325 225 L 284 212 Q 253 205 225 194 L 189 184 Z" style="fill: #0070C0;"></path>
                                                                        <path d="M 677 606 Q 773 699 813 713 Q 832 720 826 736 Q 822 751 758 785 Q 740 794 718 786 Q 664 767 583 743 Q 562 736 511 738 Q 489 739 496 719 Q 503 707 522 696 Q 550 680 583 698 Q 602 705 694 742 Q 707 746 720 739 Q 732 730 726 717 Q 695 671 662 615 C 647 589 655 585 677 606 Z" style="fill: #0070C0;"></path>
                                                                        <path d="M 662 615 Q 662 616 661 616 Q 598 640 584 635 Q 580 631 581 621 Q 584 611 606 595 Q 633 573 660 547 Q 672 537 684 537 Q 693 538 697 549 Q 701 561 693 585 Q 689 597 677 606 C 673 609 673 609 662 615 Z" style="fill: #0070C0;"></path>
                                                                        <path d="M 501 491 Q 479 501 463 501 Q 450 497 456 486 Q 507 377 456 169 Q 425 91 455 53 Q 462 40 472 46 Q 508 70 512 192 Q 518 405 525 453 C 528 480 528 480 501 491 Z" style="fill: #0070C0;"></path>
                                                                        <path d="M 649 483 Q 781 517 799 500 Q 809 494 812 448 Q 822 292 814 115 Q 813 90 803 82 Q 791 72 727 79 Q 712 80 714 71 Q 715 65 728 60 Q 786 26 818 -3 Q 837 -19 849 -17 Q 859 -14 869 12 Q 882 54 879 113 Q 866 341 866 425 Q 865 461 876 482 Q 886 501 877 513 Q 867 526 823 547 Q 804 556 733 534 Q 520 495 501 491 C 472 485 496 445 525 453 Q 528 456 609 474 L 649 483 Z" style="fill: #0070C0;"></path>
                                                                        <path d="M 677 340 Q 707 350 741 358 Q 765 365 769 369 Q 776 376 771 383 Q 764 392 741 396 Q 711 399 678 380 L 629 365 Q 599 358 564 351 Q 536 344 558 332 Q 585 317 629 326 L 677 340 Z" style="fill: #0070C0;"></path>
                                                                        <path d="M 674 231 Q 767 252 775 257 Q 782 264 779 271 Q 772 280 749 286 Q 727 290 675 271 L 628 258 Q 589 251 550 246 Q 522 242 542 227 Q 576 209 621 220 Q 622 221 627 220 L 674 231 Z" style="fill: #0070C0;"></path>
                                                                        <path d="M 630 44 Q 634 23 639 15 Q 643 8 650 11 Q 657 14 661 26 Q 673 66 674 231 L 675 271 Q 675 302 677 340 L 678 380 Q 678 383 679 386 Q 679 411 687 443 Q 690 458 678 466 Q 660 478 649 483 C 623 497 595 500 609 474 Q 609 471 620 455 Q 629 437 629 365 L 629 326 Q 629 295 628 258 L 627 220 Q 627 66 630 44 Z" style="fill: #0070C0;"></path>
                                    
                                    
                                                                                                                                                                                                                                                                                                                                                                                                                                                                                                                                                                                                                                                                                                                                                                                                                                                                                                                                                                                                                                                                                                                                                                                    </g>
                            </svg>