<svg width='83' height='83' >
                                <g transform="translate(3, 70) scale(0.07, -0.07)">
                                    <!-- 先将完整的字以灰色字体绘制完成，层级位于下面 -->
                                                                        <path d="M 176 711 Q 166 715 137 720 Q 127 723 123 718 Q 117 712 125 697 Q 150 651 167 573 Q 170 549 184 535 Q 202 514 206 529 Q 207 535 209 542 L 207 576 Q 207 577 207 580 Q 194 659 190 684 C 186 708 186 708 176 711 Z" style="fill: #0070C0;"></path>
                                                                        <path d="M 348 602 Q 369 669 391 690 Q 413 715 391 729 Q 372 741 346 758 Q 328 768 282 743 Q 239 725 176 711 C 147 704 162 674 190 684 Q 193 687 282 708 Q 310 715 316 704 Q 323 698 314 666 Q 307 639 299 607 C 292 578 339 573 348 602 Z" style="fill: #0070C0;"></path>
                                                                        <path d="M 260 554 Q 296 564 359 573 Q 369 574 370 584 Q 370 591 348 602 L 299 607 Q 295 607 290 605 Q 245 589 207 576 C 179 566 179 538 209 542 Q 218 543 229 546 L 260 554 Z" style="fill: #0070C0;"></path>
                                                                        <path d="M 293 247 Q 294 334 297 406 L 298 443 Q 298 470 300 499 Q 307 517 298 526 Q 279 545 260 554 C 234 568 219 574 229 546 Q 229 540 241 522 Q 248 498 251 234 C 251 204 293 217 293 247 Z" style="fill: #0070C0;"></path>
                                                                        <path d="M 297 406 Q 297 407 298 407 Q 358 423 401 433 Q 426 440 414 452 Q 401 465 374 467 Q 334 467 298 443 C 273 427 270 393 297 406 Z" style="fill: #0070C0;"></path>
                                                                        <path d="M 194 217 Q 181 349 184 378 Q 185 400 171 410 Q 149 426 122 433 Q 109 437 101 431 Q 94 424 101 410 Q 119 382 128 352 Q 135 322 155 206 C 160 176 197 187 194 217 Z" style="fill: #0070C0;"></path>
                                                                        <path d="M 155 206 Q 136 202 116 194 Q 97 188 66 189 Q 53 188 50 176 Q 49 163 58 154 Q 82 138 116 119 Q 126 116 139 125 Q 265 191 393 259 Q 406 266 406 276 Q 400 282 388 279 Q 342 264 293 247 L 251 234 Q 221 227 194 217 L 155 206 Z" style="fill: #0070C0;"></path>
                                                                        <path d="M 475 747 Q 465 753 437 756 Q 427 759 423 754 Q 417 748 425 733 Q 458 663 477 548 Q 481 514 501 491 Q 517 470 522 485 Q 525 495 525 507 L 525 527 Q 524 543 520 561 Q 495 679 491 716 C 488 742 488 742 475 747 Z" style="fill: #0070C0;"></path>
                                                                        <path d="M 697 520 Q 730 468 754 503 Q 769 531 795 675 Q 802 706 825 730 Q 837 743 826 756 Q 810 772 769 796 Q 751 803 688 788 Q 679 788 475 747 C 446 741 462 707 491 716 Q 491 717 492 717 Q 529 727 584 737 L 617 743 Q 651 750 694 756 Q 722 760 731 750 Q 744 734 743 718 Q 724 583 710 555 C 700 527 697 520 697 520 Z" style="fill: #0070C0;"></path>
                                                                        <path d="M 639 627 Q 667 633 692 637 Q 714 641 705 653 Q 695 666 671 669 Q 656 670 639 666 L 594 653 Q 564 643 538 633 Q 522 629 542 615 L 595 619 L 639 627 Z" style="fill: #0070C0;"></path>
                                                                        <path d="M 639 522 Q 687 534 697 520 C 720 500 737 542 710 555 Q 689 567 643 556 Q 640 556 639 555 L 595 544 Q 558 535 525 527 C 496 520 495 505 525 507 Q 534 507 596 516 L 639 522 Z" style="fill: #0070C0;"></path>
                                                                        <path d="M 648 386 Q 726 399 843 399 Q 894 396 903 407 Q 909 417 893 431 Q 841 470 791 454 Q 730 441 639 424 L 595 417 Q 502 404 399 389 Q 380 386 394 371 Q 407 358 424 353 Q 443 349 459 353 Q 505 368 558 374 L 648 386 Z" style="fill: #0070C0;"></path>
                                                                        <path d="M 639 424 Q 639 473 639 522 L 639 555 Q 640 582 640 608 Q 639 618 639 627 L 639 666 Q 639 727 638 728 Q 629 735 617 743 C 593 760 575 766 584 737 Q 591 725 593 700 Q 593 678 594 653 L 595 619 Q 595 582 595 544 L 596 516 Q 596 467 595 417 L 594 341 Q 594 158 583 41 Q 580 2 604 -30 Q 616 -43 625 -27 Q 650 21 643 64 Q 640 110 639 355 L 639 424 Z" style="fill: #0070C0;"></path>
                                                                        <path d="M 558 374 Q 554 358 538 337 Q 492 267 437 218 Q 391 175 298 111 Q 282 99 296 98 Q 306 97 343 111 Q 395 130 441 166 Q 481 199 529 250 Q 547 272 594 341 C 624 385 576 422 558 374 Z" style="fill: #0070C0;"></path>
                                                                        <path d="M 639 355 Q 706 252 793 141 Q 812 122 842 122 Q 945 125 977 130 Q 987 131 988 137 Q 989 141 976 150 Q 823 216 761 277 Q 707 326 648 386 C 627 407 616 390 639 355 Z" style="fill: #0070C0;"></path>
                                    
                                    
                                                                                                                                                                                                                                                                                                                                                                                                                                                                                                                                                                                                                                                                                                                                                                                                                                                                                                                                                                                                                                                                                                                                                                                                                                                                </g>
                            </svg>