<svg width='83' height='83' >
                                <g transform="translate(3, 70) scale(0.07, -0.07)">
                                    <!-- 先将完整的字以灰色字体绘制完成，层级位于下面 -->
                                                                        <path d="M 251 658 Q 285 692 304 716 Q 352 777 374 795 Q 392 810 378 824 Q 362 837 333 844 Q 308 851 295 846 Q 283 842 291 829 Q 300 805 250 701 Q 238 679 227 654 C 215 627 230 637 251 658 Z" style="fill: #0070C0;"></path>
                                                                        <path d="M 217 653 Q 201 666 187 673 Q 177 676 169 672 Q 162 668 164 659 Q 179 623 182 543 Q 182 479 184 337 C 184 307 224 318 225 348 Q 226 388 226 426 L 227 452 Q 227 483 228 511 L 229 539 Q 229 617 233 626 C 235 639 235 639 217 653 Z" style="fill: #0070C0;"></path>
                                                                        <path d="M 370 296 Q 361 92 350 75 Q 347 72 266 91 Q 247 97 249 88 Q 307 39 341 2 Q 354 -16 368 -21 Q 377 -24 385 -15 Q 425 31 424 83 Q 417 264 422 558 Q 421 613 434 637 Q 446 655 434 665 Q 415 683 380 697 Q 365 703 314 678 Q 284 666 251 658 L 227 654 Q 221 654 217 653 C 187 649 204 619 233 626 Q 236 626 340 652 Q 356 659 363 650 Q 375 619 372 392 L 370 296 Z" style="fill: #0070C0;"></path>
                                                                        <path d="M 228 511 Q 286 527 330 535 Q 349 539 341 550 Q 331 560 310 563 Q 286 564 229 539 C 201 527 199 503 228 511 Z" style="fill: #0070C0;"></path>
                                                                        <path d="M 226 426 Q 226 427 228 427 Q 286 442 331 451 Q 350 455 341 466 Q 331 476 310 479 Q 276 479 227 452 C 201 438 198 415 226 426 Z" style="fill: #0070C0;"></path>
                                                                        <path d="M 184 337 Q 150 330 119 320 Q 101 316 71 316 Q 58 315 56 305 Q 55 293 63 285 Q 85 269 115 251 Q 125 248 136 256 Q 176 286 341 352 C 369 363 401 401 372 392 Q 302 371 225 348 L 184 337 Z" style="fill: #0070C0;"></path>
                                                                        <path d="M 341 352 Q 328 295 225 194 Q 152 137 78 80 Q 62 67 77 66 Q 114 62 212 126 Q 263 165 313 220 Q 347 260 370 296 C 444 408 362 420 341 352 Z" style="fill: #0070C0;"></path>
                                                                        <path d="M 688 426 Q 706 687 717 721 Q 720 731 701 746 Q 667 764 645 767 Q 629 770 622 762 Q 615 755 623 741 Q 642 713 643 693 Q 653 566 649 418 C 648 388 686 396 688 426 Z" style="fill: #0070C0;"></path>
                                                                        <path d="M 509 565 Q 554 493 577 487 Q 590 484 598 501 Q 602 514 595 534 Q 588 552 565 564 Q 531 585 516 590 Q 507 593 505 582 Q 504 575 509 565 Z" style="fill: #0070C0;"></path>
                                                                        <path d="M 805 631 Q 789 598 737 519 Q 730 501 746 506 Q 776 528 852 591 Q 870 609 892 622 Q 913 635 900 651 Q 884 667 857 679 Q 832 689 819 686 Q 806 683 812 670 Q 816 651 805 631 Z" style="fill: #0070C0;"></path>
                                                                        <path d="M 511 385 Q 486 397 469 395 Q 456 391 462 380 Q 511 284 474 138 Q 453 87 488 47 Q 495 35 504 41 Q 534 63 532 159 Q 529 313 530 349 C 530 377 530 377 511 385 Z" style="fill: #0070C0;"></path>
                                                                        <path d="M 530 349 Q 537 350 547 353 Q 647 398 818 417 Q 837 417 846 407 Q 853 400 850 387 Q 857 137 842 100 Q 841 97 834 99 Q 807 106 778 117 Q 753 123 769 104 Q 832 49 856 9 Q 872 -7 886 7 Q 904 29 911 62 Q 921 96 907 285 Q 900 355 918 391 Q 931 410 925 417 Q 918 429 869 456 Q 851 469 838 462 Q 813 450 764 440 Q 721 433 688 426 L 649 418 Q 597 409 570 400 Q 536 391 511 385 C 482 378 501 340 530 349 Z" style="fill: #0070C0;"></path>
                                                                        <path d="M 603 294 Q 593 298 575 300 Q 565 303 562 298 Q 558 294 564 279 Q 586 239 599 171 Q 602 152 614 138 Q 630 119 634 133 Q 637 143 636 162 L 632 189 Q 622 255 622 271 C 621 288 621 288 603 294 Z" style="fill: #0070C0;"></path>
                                                                        <path d="M 762 210 Q 777 261 793 276 Q 812 300 792 312 Q 734 342 730 340 Q 723 340 717 335 Q 675 310 603 294 C 574 287 593 262 622 271 Q 643 278 699 290 Q 720 294 725 287 Q 729 283 715 211 C 709 182 753 181 762 210 Z" style="fill: #0070C0;"></path>
                                                                        <path d="M 636 162 Q 643 161 653 163 Q 690 173 775 181 Q 784 182 784 190 Q 784 197 762 210 C 746 220 744 219 715 211 Q 669 198 632 189 C 603 182 606 164 636 162 Z" style="fill: #0070C0;"></path>
                                    
                                    
                                                                                                                                                                                                                                                                                                                                                                                                                                                                                                                                                                                                                                                                                                                                                                                                                                                                                                                                                                                                                                                                                                                                                                                                                                                                </g>
                            </svg>