<svg width='83' height='83' >
                                <g transform="translate(3, 70) scale(0.07, -0.07)">
                                    <!-- 先将完整的字以灰色字体绘制完成，层级位于下面 -->
                                                                        <path d="M 306 614 Q 370 630 443 645 Q 489 657 495 663 Q 504 672 499 680 Q 492 692 462 699 Q 435 705 331 668 L 275 653 Q 218 641 157 634 Q 120 627 147 610 Q 186 589 258 603 L 306 614 Z" style="fill: #0070C0;"></path>
                                                                        <path d="M 385 399 Q 422 408 455 411 Q 486 414 476 428 Q 467 441 449 448 Q 431 454 387 436 L 338 423 Q 292 414 239 402 Q 226 399 223 402 Q 222 403 224 414 Q 258 505 306 614 L 331 668 Q 364 741 379 754 Q 392 766 376 787 Q 349 815 329 828 Q 314 835 305 833 Q 295 829 302 807 Q 308 774 275 653 L 258 603 Q 192 440 153 400 Q 137 384 142 368 Q 149 347 161 337 Q 170 327 181 332 Q 220 356 319 383 Q 328 386 338 388 L 385 399 Z" style="fill: #0070C0;"></path>
                                                                        <path d="M 329 237 Q 317 117 310 96 Q 298 63 333 5 Q 343 -14 352 -18 Q 364 -21 369 -7 Q 382 26 379 56 Q 379 165 381 262 L 382 300 Q 382 354 385 399 L 387 436 Q 388 475 394 495 Q 397 507 390 514 Q 368 535 347 545 Q 335 549 326 541 Q 320 538 327 528 Q 340 506 338 423 L 338 388 Q 335 298 332 282 L 329 237 Z" style="fill: #0070C0;"></path>
                                                                        <path d="M 381 262 Q 445 295 460 306 Q 473 315 474 325 Q 468 331 455 327 Q 419 314 382 300 L 332 282 Q 244 254 150 223 Q 128 216 93 215 Q 80 214 77 202 Q 76 187 86 179 Q 111 163 147 143 Q 157 140 171 150 Q 222 190 329 237 L 381 262 Z" style="fill: #0070C0;"></path>
                                                                        <path d="M 951 79 Q 973 94 956 132 Q 940 196 941 279 Q 941 289 934 299 Q 924 306 919 283 Q 907 249 891 194 Q 878 142 860 120 Q 854 108 828 103 Q 735 76 666 100 Q 632 109 618 149 Q 599 206 611 440 Q 620 654 646 697 Q 662 739 574 767 Q 571 768 569 768 Q 550 772 542 763 Q 533 754 541 744 Q 560 726 564 668 Q 564 623 562 531 Q 550 234 571 138 Q 580 92 623 67 Q 689 25 862 44 Q 874 47 886 50 Q 932 62 951 79 Z" style="fill: #0070C0;"></path>
                                    
                                    
                                                                                                                                                                                                                                                                                                                                                                                                                                                                        </g>
                            </svg>