<svg width='83' height='83' >
                                <g transform="translate(3, 70) scale(0.07, -0.07)">
                                    <!-- 先将完整的字以灰色字体绘制完成，层级位于下面 -->
                                                                        <path d="M 314 618 Q 498 660 503 663 Q 512 670 507 680 Q 500 692 470 699 Q 439 706 408 693 Q 374 683 337 671 L 282 657 Q 230 647 174 642 Q 137 635 163 618 Q 208 594 263 608 Q 264 609 266 608 L 314 618 Z" style="fill: #0070C0;"></path>
                                                                        <path d="M 392 399 Q 425 406 459 407 Q 489 408 480 423 Q 471 436 454 444 Q 436 450 395 436 L 346 425 Q 303 418 252 408 Q 236 405 234 408 Q 228 420 314 618 L 337 671 Q 368 741 384 754 Q 397 767 380 787 Q 353 814 332 828 Q 319 835 308 832 Q 299 828 306 806 Q 312 773 282 657 L 266 608 Q 197 443 164 408 Q 148 392 153 376 Q 160 355 172 344 Q 182 335 192 340 Q 231 361 326 385 Q 333 388 345 389 L 392 399 Z" style="fill: #0070C0;"></path>
                                                                        <path d="M 336 242 Q 321 107 315 88 Q 303 54 337 -3 Q 347 -22 356 -27 Q 368 -28 373 -15 Q 386 16 384 48 Q 384 162 387 261 L 388 293 Q 388 335 392 399 L 395 436 Q 396 472 402 491 Q 405 503 398 509 Q 374 531 356 541 Q 343 545 334 538 Q 328 534 335 524 Q 344 508 346 425 L 345 389 Q 342 299 338 279 L 336 242 Z" style="fill: #0070C0;"></path>
                                                                        <path d="M 387 261 Q 388 262 393 264 Q 453 286 454 304 Q 450 308 437 307 Q 412 300 388 293 L 338 279 Q 247 257 149 233 Q 130 229 96 230 Q 83 229 81 219 Q 78 206 87 198 Q 109 180 141 161 Q 151 157 163 165 Q 217 201 336 242 L 387 261 Z" style="fill: #0070C0;"></path>
                                                                        <path d="M 664 537 Q 731 556 801 565 Q 814 566 819 559 Q 826 540 823 492 Q 810 315 775 221 Q 759 163 738 144 Q 726 131 700 138 Q 664 148 631 157 Q 609 163 625 143 Q 674 95 700 58 Q 712 37 732 45 Q 753 48 778 77 Q 851 155 874 448 Q 878 514 903 552 Q 919 574 910 584 Q 894 603 858 617 Q 833 630 806 617 Q 668 559 530 557 Q 511 558 511 548 Q 510 538 532 524 Q 559 506 584 515 Q 603 522 626 527 L 664 537 Z" style="fill: #0070C0;"></path>
                                                                        <path d="M 626 527 Q 626 526 627 522 Q 658 386 540 217 Q 537 214 535 211 Q 504 162 417 73 Q 411 66 418 63 Q 425 62 436 67 Q 500 104 550 159 Q 638 246 687 434 Q 696 465 708 494 Q 715 504 708 513 Q 701 523 668 536 Q 667 537 664 537 C 636 548 621 553 626 527 Z" style="fill: #0070C0;"></path>
                                                                        <path d="M 536 440 Q 518 391 491 347 Q 476 319 491 294 Q 497 281 513 290 Q 553 321 558 395 Q 561 420 555 440 Q 551 447 546 447 Q 539 446 536 440 Z" style="fill: #0070C0;"></path>
                                    
                                    
                                                                                                                                                                                                                                                                                                                                                                                                                                                                                                                                                                                                                                </g>
                            </svg>