<svg width='83' height='83' >
                                <g transform="translate(3, 70) scale(0.07, -0.07)">
                                    <!-- 先将完整的字以灰色字体绘制完成，层级位于下面 -->
                                                                        <path d="M 600 657 Q 715 712 752 722 Q 770 725 774 733 Q 777 745 763 756 Q 739 771 692 786 Q 674 793 661 791 Q 654 787 653 775 Q 654 730 436 613 Q 432 603 438 600 Q 459 600 553 639 Q 557 640 565 643 L 600 657 Z" style="fill: #0070C0;"></path>
                                                                        <path d="M 646 439 Q 724 452 839 457 Q 893 457 901 468 Q 905 481 889 493 Q 826 532 772 512 Q 720 500 647 482 L 591 471 Q 492 452 379 431 Q 358 427 375 411 Q 405 384 472 404 Q 527 420 591 430 L 646 439 Z" style="fill: #0070C0;"></path>
                                                                        <path d="M 598 145 Q 602 120 610 111 Q 616 104 623 106 Q 639 116 643 173 Q 650 234 648 294 Q 645 331 646 439 L 647 482 Q 647 527 656 608 Q 659 624 645 634 Q 617 653 600 657 C 572 667 555 671 565 643 Q 575 613 588 583 Q 588 580 589 576 Q 590 530 591 471 L 591 430 Q 597 150 598 145 Z" style="fill: #0070C0;"></path>
                                                                        <path d="M 250 723 Q 277 699 305 671 Q 321 656 338 657 Q 351 657 356 673 Q 362 689 352 723 Q 340 759 245 778 Q 227 782 220 779 Q 214 775 216 760 Q 220 747 250 723 Z" style="fill: #0070C0;"></path>
                                                                        <path d="M 316 169 Q 325 176 328 191 Q 335 231 292 301 Q 256 359 345 463 Q 367 481 347 497 Q 328 513 292 527 Q 274 539 230 507 Q 143 459 107 461 Q 100 462 98 457 Q 97 451 105 447 Q 144 431 244 468 Q 253 472 261 461 Q 285 437 261 406 Q 206 349 252 287 Q 294 212 289 171 C 289 141 299 144 316 169 Z" style="fill: #0070C0;"></path>
                                                                        <path d="M 289 171 Q 244 174 200 159 Q 166 146 111 141 Q 105 141 101 133 Q 98 126 107 116 Q 123 97 148 85 Q 158 79 178 93 Q 262 159 396 104 Q 442 88 507 58 Q 729 -45 808 -18 Q 871 4 924 41 Q 946 57 923 56 Q 701 56 581 86 Q 496 110 389 150 Q 352 166 316 169 L 289 171 Z" style="fill: #0070C0;"></path>
                                    
                                    
                                                                                                                                                                                                                                                                                                                                                                                                                                                                                                                                                    </g>
                            </svg>