<svg width='83' height='83' >
                                <g transform="translate(3, 70) scale(0.07, -0.07)">
                                    <!-- 先将完整的字以灰色字体绘制完成，层级位于下面 -->
                                                                        <path d="M 575 699 Q 650 717 710 723 Q 731 724 735 719 Q 742 707 737 678 Q 727 597 707 563 Q 688 529 658 536 Q 628 543 603 553 Q 578 560 596 537 Q 642 494 665 461 Q 680 442 697 455 Q 745 485 775 574 Q 806 700 820 714 Q 833 727 828 739 Q 819 751 766 777 Q 744 787 724 774 Q 700 761 608 743 Q 517 722 439 719 Q 420 719 417 710 Q 414 701 440 688 Q 465 670 487 678 Q 511 685 534 690 L 575 699 Z" style="fill: #0070C0;"></path>
                                                                        <path d="M 534 690 Q 543 605 396 433 Q 384 426 384 415 Q 384 411 389 411 Q 458 426 567 600 Q 571 621 598 650 Q 604 660 596 673 Q 586 689 575 699 C 554 720 533 720 534 690 Z" style="fill: #0070C0;"></path>
                                                                        <path d="M 460 378 Q 450 382 432 385 Q 420 388 417 383 Q 410 377 419 361 Q 447 300 464 201 Q 467 171 484 152 Q 502 130 507 145 Q 511 158 511 178 L 507 212 Q 489 315 487 345 C 485 370 485 370 460 378 Z" style="fill: #0070C0;"></path>
                                                                        <path d="M 735 234 Q 765 315 800 342 Q 818 360 804 379 Q 788 394 735 422 Q 716 431 694 423 Q 589 387 460 378 C 430 376 457 341 487 345 Q 494 346 673 373 Q 695 377 703 368 Q 712 358 709 339 Q 696 282 682 237 C 673 208 724 206 735 234 Z" style="fill: #0070C0;"></path>
                                                                        <path d="M 511 178 Q 523 175 538 176 Q 605 188 753 192 Q 765 193 766 202 Q 767 211 736 234 L 735 234 L 682 237 Q 582 218 507 212 C 477 209 482 183 511 178 Z" style="fill: #0070C0;"></path>
                                                                        <path d="M 239 719 Q 267 694 299 665 Q 315 652 332 653 Q 344 654 349 668 Q 353 684 343 717 Q 331 751 232 771 Q 216 775 208 771 Q 202 767 205 753 Q 209 740 239 719 Z" style="fill: #0070C0;"></path>
                                                                        <path d="M 308 179 Q 315 186 318 201 Q 324 241 278 324 Q 245 381 331 468 Q 355 487 335 504 Q 314 520 278 537 Q 256 552 236 534 Q 202 512 160 497 Q 102 475 84 478 Q 77 479 74 474 Q 73 468 81 464 Q 121 442 224 478 Q 234 481 243 469 Q 262 447 241 422 Q 193 376 229 320 Q 283 226 277 181 C 277 151 294 153 308 179 Z" style="fill: #0070C0;"></path>
                                                                        <path d="M 277 181 Q 234 184 188 169 Q 151 156 97 154 Q 90 154 86 145 Q 82 138 91 128 Q 107 109 131 97 Q 143 90 162 104 Q 235 153 305 137 Q 369 124 500 67 Q 716 -30 805 -8 Q 806 -7 809 -7 Q 870 15 923 54 Q 947 70 922 69 Q 700 60 524 109 Q 457 130 377 159 Q 343 174 308 179 L 277 181 Z" style="fill: #0070C0;"></path>
                                    
                                    
                                                                                                                                                                                                                                                                                                                                                                                                                                                                                                                                                                                                                                                                                                            </g>
                            </svg>