<svg width='83' height='83' >
                                <g transform="translate(3, 70) scale(0.07, -0.07)">
                                    <!-- 先将完整的字以灰色字体绘制完成，层级位于下面 -->
                                                                        <path d="M 495 551 Q 519 558 543 563 Q 553 564 557 560 Q 563 550 560 520 Q 553 417 533 361 Q 523 327 511 316 Q 501 303 475 310 Q 450 316 426 321 Q 405 327 420 308 Q 457 268 478 238 Q 485 220 503 225 Q 516 226 534 245 Q 582 288 611 484 Q 617 527 634 552 Q 647 570 640 578 Q 627 594 597 606 Q 576 616 554 607 Q 530 595 503 584 L 446 566 Q 442 566 436 564 Q 373 548 337 545 Q 322 546 322 537 Q 322 530 340 520 Q 362 508 380 516 Q 408 526 439 536 L 495 551 Z" style="fill: #0070C0;"></path>
                                                                        <path d="M 439 536 Q 403 404 316 289 Q 312 283 309 277 Q 305 267 316 269 Q 325 269 364 306 Q 448 387 495 551 L 503 584 Q 528 711 532 718 Q 541 731 535 744 Q 520 760 492 776 Q 474 788 462 784 Q 450 778 456 764 Q 469 740 463 681 Q 462 678 462 674 Q 456 616 446 566 L 439 536 Z" style="fill: #0070C0;"></path>
                                                                        <path d="M 702 545 Q 692 551 667 557 Q 657 561 653 557 Q 647 551 653 537 Q 678 470 686 365 Q 686 334 702 311 Q 717 290 722 304 Q 729 322 728 355 L 725 385 Q 713 485 713 517 C 713 540 713 540 702 545 Z" style="fill: #0070C0;"></path>
                                                                        <path d="M 874 401 Q 893 486 918 513 Q 942 540 918 555 Q 899 567 870 585 Q 851 597 810 574 Q 774 559 702 545 C 673 539 683 515 713 517 Q 723 517 738 520 Q 777 527 810 533 Q 832 537 837 528 Q 844 522 838 485 Q 831 448 821 404 C 814 375 867 372 874 401 Z" style="fill: #0070C0;"></path>
                                                                        <path d="M 728 355 Q 738 354 748 355 Q 791 364 888 368 Q 898 369 899 377 Q 899 384 874 401 C 858 412 850 410 821 404 Q 767 392 725 385 C 695 380 698 357 728 355 Z" style="fill: #0070C0;"></path>
                                                                        <path d="M 225 734 Q 252 709 281 677 Q 296 661 314 662 Q 326 662 332 677 Q 339 693 330 728 Q 321 761 221 789 Q 203 793 196 791 Q 190 787 191 772 Q 195 759 225 734 Z" style="fill: #0070C0;"></path>
                                                                        <path d="M 270 217 Q 280 226 285 241 Q 294 281 252 349 Q 221 403 288 485 Q 292 491 298 496 Q 320 515 299 530 Q 278 546 243 559 Q 222 571 181 536 Q 103 491 83 493 Q 76 494 74 488 Q 73 484 81 479 Q 117 464 196 498 Q 205 502 214 492 Q 235 473 215 445 Q 169 394 219 323 Q 244 275 245 249 Q 245 230 242 219 C 237 189 251 193 270 217 Z" style="fill: #0070C0;"></path>
                                                                        <path d="M 242 219 Q 194 220 148 204 Q 120 194 74 189 Q 67 189 64 180 Q 61 173 70 163 Q 88 145 112 134 Q 124 128 142 143 Q 194 188 265 178 Q 335 165 478 105 Q 718 0 805 28 Q 806 29 809 29 Q 870 51 923 90 Q 945 106 922 106 Q 673 97 513 142 Q 434 164 337 200 Q 303 213 270 217 L 242 219 Z" style="fill: #0070C0;"></path>
                                    
                                    
                                                                                                                                                                                                                                                                                                                                                                                                                                                                                                                                                                                                                                                                                                            </g>
                            </svg>