<svg width='83' height='83' >
                                <g transform="translate(3, 70) scale(0.07, -0.07)">
                                    <!-- 先将完整的字以灰色字体绘制完成，层级位于下面 -->
                                                                        <path d="M 420 538 Q 392 554 365 562 Q 358 563 352 558 Q 345 552 355 540 Q 403 465 413 294 Q 414 228 458 200 L 459 199 Q 478 195 478 227 Q 478 228 478 230 L 475 264 Q 454 345 441 502 C 439 528 439 528 420 538 Z" style="fill: #0070C0;"></path>
                                                                        <path d="M 704 255 Q 714 228 735 182 Q 744 163 755 164 Q 771 167 783 194 Q 816 255 822 337 Q 829 389 837 449 Q 844 498 868 527 Q 886 546 874 561 Q 852 583 806 605 Q 787 615 754 605 Q 691 583 623 566 L 571 556 Q 504 547 420 538 C 390 535 412 495 441 502 Q 441 503 444 503 Q 499 516 572 530 L 622 540 Q 751 570 770 552 Q 795 501 750 303 Q 749 284 740 282 Q 739 281 732 282 C 709 263 703 258 704 255 Z" style="fill: #0070C0;"></path>
                                                                        <path d="M 618 401 Q 663 410 702 414 Q 727 418 717 432 Q 707 448 679 452 Q 657 455 619 445 L 572 431 Q 532 421 496 410 Q 478 406 500 390 Q 506 386 572 394 L 618 401 Z" style="fill: #0070C0;"></path>
                                                                        <path d="M 623 566 Q 626 696 644 766 Q 648 779 625 794 Q 585 813 559 818 Q 541 822 532 812 Q 525 803 533 787 Q 564 744 565 713 Q 569 637 571 556 L 572 530 Q 572 482 572 431 L 572 394 Q 571 339 569 277 C 568 247 614 256 615 286 Q 616 344 618 401 L 619 445 Q 620 494 622 540 L 623 566 Z" style="fill: #0070C0;"></path>
                                                                        <path d="M 478 230 Q 484 229 495 231 Q 562 246 704 255 C 734 257 754 262 732 282 Q 725 289 714 296 Q 704 306 615 286 L 569 277 Q 518 270 475 264 C 445 260 448 231 478 230 Z" style="fill: #0070C0;"></path>
                                                                        <path d="M 227 709 Q 249 687 275 660 Q 291 644 309 645 Q 322 645 328 661 Q 334 677 324 714 Q 318 733 287 747 Q 209 774 196 768 Q 190 764 192 748 Q 196 735 227 709 Z" style="fill: #0070C0;"></path>
                                                                        <path d="M 284 177 Q 294 186 301 202 Q 313 245 270 316 Q 240 367 323 465 Q 347 484 326 500 Q 304 516 268 532 Q 246 545 226 527 Q 192 502 149 485 Q 91 460 71 462 Q 64 463 61 457 Q 60 453 69 448 Q 111 429 217 471 Q 226 475 235 465 Q 256 443 234 416 Q 186 368 221 312 Q 258 246 259 210 Q 259 191 254 179 C 247 150 265 154 284 177 Z" style="fill: #0070C0;"></path>
                                                                        <path d="M 254 179 Q 206 180 160 163 Q 127 150 78 145 Q 71 145 68 136 Q 65 129 74 119 Q 92 101 116 90 Q 128 84 146 99 Q 203 148 277 138 Q 347 125 492 68 Q 738 -34 825 -4 Q 886 20 938 59 Q 960 75 937 75 Q 702 66 561 97 Q 468 119 349 161 Q 316 174 284 177 L 254 179 Z" style="fill: #0070C0;"></path>
                                    
                                    
                                                                                                                                                                                                                                                                                                                                                                                                                                                                                                                                                                                                                                                                                                            </g>
                            </svg>