<svg width='83' height='83' >
                                <g transform="translate(3, 70) scale(0.07, -0.07)">
                                    <!-- 先将完整的字以灰色字体绘制完成，层级位于下面 -->
                                                                        <path d="M 489 553 Q 504 587 519 614 Q 526 627 511 638 Q 468 663 445 656 Q 435 652 439 639 Q 460 573 403 479 Q 400 476 379 439 Q 375 424 387 431 Q 400 434 415 449 Q 457 489 481 536 L 489 553 Z" style="fill: #0070C0;"></path>
                                                                        <path d="M 643 546 Q 686 559 731 570 Q 767 580 772 586 Q 779 593 775 601 Q 768 611 741 617 Q 720 620 646 592 L 601 577 Q 550 564 494 555 Q 490 555 489 553 C 464 546 464 546 481 536 Q 488 529 521 523 Q 539 520 599 535 L 643 546 Z" style="fill: #0070C0;"></path>
                                                                        <path d="M 625 388 Q 677 398 844 414 Q 862 415 866 424 Q 870 434 854 446 Q 797 482 738 458 Q 693 446 632 430 L 586 419 Q 498 400 394 378 Q 375 374 390 359 Q 420 335 463 349 Q 514 367 578 379 L 625 388 Z" style="fill: #0070C0;"></path>
                                                                        <path d="M 578 379 Q 551 256 431 166 Q 421 159 420 154 Q 421 150 433 151 Q 445 147 476 163 Q 591 211 625 388 L 632 430 Q 636 487 643 546 L 646 592 Q 656 722 672 755 Q 679 768 668 779 Q 646 795 609 807 Q 585 813 577 806 Q 568 800 575 788 Q 597 754 600 708 Q 603 641 601 577 L 599 535 Q 593 456 586 419 L 578 379 Z" style="fill: #0070C0;"></path>
                                                                        <path d="M 645 298 Q 706 246 778 169 Q 794 150 809 146 Q 818 145 825 155 Q 837 168 824 211 Q 806 271 646 328 Q 637 334 635 321 Q 635 308 645 298 Z" style="fill: #0070C0;"></path>
                                                                        <path d="M 212 701 Q 237 679 263 651 Q 279 635 297 636 Q 310 637 316 653 Q 322 671 311 706 Q 305 725 273 740 Q 195 767 180 760 Q 174 756 176 740 Q 180 727 212 701 Z" style="fill: #0070C0;"></path>
                                                                        <path d="M 303 173 Q 312 180 314 195 Q 318 235 276 305 Q 242 365 330 475 Q 351 494 331 509 Q 310 525 275 538 Q 253 550 235 532 Q 205 507 165 489 Q 113 464 95 465 Q 88 465 86 460 Q 85 456 93 451 Q 132 435 229 478 Q 236 482 246 473 Q 271 448 245 414 Q 194 360 228 304 Q 282 214 277 175 C 278 145 287 148 303 173 Z" style="fill: #0070C0;"></path>
                                                                        <path d="M 277 175 Q 228 178 180 161 Q 144 146 90 141 Q 84 141 80 132 Q 77 125 86 115 Q 104 97 128 86 Q 140 80 158 95 Q 227 146 297 133 Q 364 120 499 61 Q 722 -38 813 -16 Q 814 -15 817 -15 Q 878 7 931 46 Q 955 62 930 61 Q 707 52 521 103 Q 451 125 369 155 Q 336 168 303 173 L 277 175 Z" style="fill: #0070C0;"></path>
                                    
                                    
                                                                                                                                                                                                                                                                                                                                                                                                                                                                                                                                                                                                                                                                                                            </g>
                            </svg>