<svg width='83' height='83' >
                                <g transform="translate(3, 70) scale(0.07, -0.07)">
                                    <!-- 先将完整的字以灰色字体绘制完成，层级位于下面 -->
                                                                        <path d="M 439 606 Q 460 585 482 559 Q 492 546 506 546 Q 516 546 521 557 Q 527 569 521 595 Q 514 625 439 648 Q 426 652 420 651 Q 416 648 416 636 Q 417 626 439 606 Z" style="fill: #0070C0;"></path>
                                                                        <path d="M 740 682 Q 731 666 682 594 Q 673 578 689 581 Q 728 603 749 619 Q 812 667 820 669 Q 839 679 829 695 Q 816 711 791 723 Q 767 735 756 732 Q 743 731 748 717 Q 752 701 740 682 Z" style="fill: #0070C0;"></path>
                                                                        <path d="M 616 463 Q 680 475 776 478 Q 824 482 829 489 Q 833 499 818 511 Q 763 544 702 524 Q 666 515 618 503 L 584 495 Q 497 477 394 457 Q 375 453 390 439 Q 420 415 453 425 Q 504 443 563 453 L 616 463 Z" style="fill: #0070C0;"></path>
                                                                        <path d="M 581 387 Q 577 260 562 208 Q 561 192 567 172 Q 574 162 579 148 Q 591 130 607 140 Q 623 155 619 231 Q 613 375 616 463 L 618 503 Q 624 662 658 728 Q 665 738 652 755 Q 589 803 559 792 Q 543 786 550 770 Q 589 706 585 604 Q 585 546 584 495 L 581 387 Z" style="fill: #0070C0;"></path>
                                                                        <path d="M 563 453 Q 511 336 374 218 Q 364 206 372 205 Q 381 201 391 207 Q 487 249 577 382 Q 577 385 581 387 C 640 465 576 480 563 453 Z" style="fill: #0070C0;"></path>
                                                                        <path d="M 677 355 Q 732 309 799 240 Q 815 221 830 218 Q 837 217 845 226 Q 855 239 843 281 Q 825 338 677 384 Q 668 388 667 377 Q 667 364 677 355 Z" style="fill: #0070C0;"></path>
                                                                        <path d="M 248 733 Q 279 705 311 672 Q 326 657 343 658 Q 355 658 361 673 Q 365 689 357 722 Q 348 756 244 786 Q 228 790 220 787 Q 214 783 216 769 Q 220 756 248 733 Z" style="fill: #0070C0;"></path>
                                                                        <path d="M 304 175 Q 314 184 318 198 Q 330 237 284 313 Q 254 365 321 456 Q 327 465 334 472 Q 356 490 336 506 Q 315 522 281 535 Q 259 548 240 530 Q 212 508 172 493 Q 120 471 104 473 Q 97 474 94 469 Q 93 465 101 459 Q 143 441 232 477 Q 241 480 250 469 Q 272 447 250 416 Q 199 359 244 299 Q 280 238 278 207 Q 278 188 275 177 C 270 147 286 151 304 175 Z" style="fill: #0070C0;"></path>
                                                                        <path d="M 275 177 Q 229 180 180 163 Q 144 147 90 141 Q 83 140 80 132 Q 77 125 86 115 Q 104 97 128 86 Q 140 82 158 96 Q 230 150 296 137 Q 362 122 494 64 Q 711 -38 800 -15 Q 801 -14 804 -14 Q 867 8 920 45 Q 942 61 919 60 Q 679 60 566 92 Q 479 116 369 158 Q 338 171 304 175 L 275 177 Z" style="fill: #0070C0;"></path>
                                    
                                    
                                                                                                                                                                                                                                                                                                                                                                                                                                                                                                                                                                                                                                                                                                                                                                                        </g>
                            </svg>