<svg width='83' height='83' >
                                <g transform="translate(3, 70) scale(0.07, -0.07)">
                                    <!-- 先将完整的字以灰色字体绘制完成，层级位于下面 -->
                                                                        <path d="M 604 631 Q 688 646 820 651 Q 874 651 880 661 Q 884 671 869 683 Q 823 716 788 707 Q 721 689 605 665 L 550 655 Q 463 642 366 624 Q 347 621 362 607 Q 375 595 391 591 Q 410 587 425 592 Q 483 611 550 622 L 604 631 Z" style="fill: #0070C0;"></path>
                                                                        <path d="M 437 512 Q 410 525 393 525 Q 380 521 386 509 Q 434 413 390 256 Q 366 193 396 156 Q 403 143 412 149 Q 442 171 446 272 Q 450 441 453 478 C 455 504 455 504 437 512 Z" style="fill: #0070C0;"></path>
                                                                        <path d="M 601 513 Q 697 537 711 523 Q 720 519 723 481 Q 736 357 734 213 Q 734 192 727 186 Q 717 176 655 182 Q 640 183 642 175 Q 643 168 655 164 Q 712 130 741 101 Q 760 85 773 87 Q 783 91 792 117 Q 805 159 801 218 Q 783 387 780 449 Q 779 485 789 506 Q 799 525 790 536 Q 780 549 737 569 Q 719 578 702 572 Q 669 562 602 542 L 551 531 Q 496 521 437 512 C 407 507 423 474 453 478 Q 460 477 473 480 Q 510 492 551 500 L 601 513 Z" style="fill: #0070C0;"></path>
                                                                        <path d="M 601 389 Q 632 396 664 401 Q 686 405 677 417 Q 667 430 643 434 Q 625 435 601 429 L 551 413 Q 517 403 486 392 Q 470 388 490 375 Q 491 375 551 379 L 601 389 Z" style="fill: #0070C0;"></path>
                                                                        <path d="M 600 282 Q 634 289 667 293 Q 689 297 681 309 Q 671 322 647 327 Q 629 330 601 322 L 550 308 Q 513 298 479 288 Q 463 284 482 271 Q 488 265 549 274 L 600 282 Z" style="fill: #0070C0;"></path>
                                                                        <path d="M 549 274 Q 546 138 565 107 Q 578 94 587 113 Q 596 144 600 282 L 601 322 Q 601 353 601 389 L 601 429 Q 601 471 601 513 L 602 542 Q 602 591 604 631 L 605 665 Q 608 764 625 789 Q 631 805 612 819 Q 590 837 549 847 Q 531 851 520 838 Q 510 831 522 820 Q 547 798 549 769 Q 549 724 550 655 L 550 622 Q 550 582 551 531 L 551 500 Q 551 491 552 481 Q 552 445 551 413 L 551 379 Q 550 339 550 308 L 549 274 Z" style="fill: #0070C0;"></path>
                                                                        <path d="M 698 782 Q 725 761 754 737 Q 767 727 780 728 Q 790 729 793 740 Q 797 753 787 779 Q 775 806 691 823 Q 678 826 672 823 Q 668 819 670 808 Q 673 798 698 782 Z" style="fill: #0070C0;"></path>
                                                                        <path d="M 223 708 Q 248 683 275 654 Q 288 638 306 638 Q 318 638 325 653 Q 331 669 322 702 Q 318 723 286 738 Q 213 769 196 763 Q 190 759 191 745 Q 195 732 223 708 Z" style="fill: #0070C0;"></path>
                                                                        <path d="M 275 170 Q 294 177 299 200 Q 308 240 266 310 Q 238 364 315 448 Q 336 464 317 480 Q 298 495 265 509 Q 244 519 202 488 Q 121 446 96 449 Q 89 449 87 444 Q 86 440 94 435 Q 130 419 218 453 Q 227 457 235 447 Q 254 428 234 402 Q 189 359 235 283 Q 260 235 261 208 Q 262 189 258 177 Q 257 176 256 172 C 251 155 251 155 275 170 Z" style="fill: #0070C0;"></path>
                                                                        <path d="M 256 172 Q 210 176 160 159 Q 133 149 94 145 Q 87 144 84 136 Q 81 129 90 119 Q 108 101 132 91 Q 144 85 162 100 Q 211 143 275 134 Q 342 118 476 56 Q 701 -49 783 -30 Q 786 -29 790 -28 Q 850 -9 900 26 Q 922 39 900 40 Q 666 40 493 96 Q 426 118 344 152 Q 310 167 275 170 L 256 172 Z" style="fill: #0070C0;"></path>
                                    
                                    
                                                                                                                                                                                                                                                                                                                                                                                                                                                                                                                                                                                                                                                                                                                                                                                                                                                                    </g>
                            </svg>