<svg width='83' height='83' >
                                <g transform="translate(3, 70) scale(0.07, -0.07)">
                                    <!-- 先将完整的字以灰色字体绘制完成，层级位于下面 -->
                                                                        <path d="M 628 563 Q 649 770 660 797 Q 663 807 644 821 Q 611 840 589 844 Q 573 847 566 839 Q 559 832 566 818 Q 582 796 583 780 Q 590 675 589 553 C 589 523 625 533 628 563 Z" style="fill: #0070C0;"></path>
                                                                        <path d="M 437 692 Q 488 614 512 611 Q 525 608 534 626 Q 537 639 530 660 Q 521 679 498 691 Q 461 713 445 718 Q 436 721 434 710 Q 431 701 437 692 Z" style="fill: #0070C0;"></path>
                                                                        <path d="M 743 740 Q 727 709 691 658 Q 685 649 691 643 Q 698 642 707 647 Q 783 702 820 722 Q 838 729 833 739 Q 826 755 806 774 Q 785 792 762 792 Q 747 791 749 771 Q 752 758 743 740 Z" style="fill: #0070C0;"></path>
                                                                        <path d="M 514 326 Q 515 372 517 407 L 519 436 Q 520 488 524 505 Q 524 509 524 513 C 525 527 525 527 514 536 Q 495 555 465 553 Q 452 549 457 538 Q 502 445 457 270 Q 430 207 460 168 Q 467 156 476 161 Q 512 188 513 299 L 514 326 Z" style="fill: #0070C0;"></path>
                                                                        <path d="M 524 513 Q 527 514 533 516 Q 669 549 691 540 Q 704 533 702 505 Q 718 345 713 220 Q 712 195 697 189 Q 688 188 637 201 Q 627 204 626 197 Q 627 188 641 179 Q 675 148 700 117 Q 713 101 729 102 Q 745 106 763 151 Q 785 197 781 243 Q 771 354 760 456 Q 756 496 772 529 Q 782 544 770 557 Q 754 570 716 584 Q 697 593 680 582 Q 661 575 628 563 L 589 553 Q 543 543 514 536 C 485 529 495 505 524 513 Z" style="fill: #0070C0;"></path>
                                                                        <path d="M 517 407 Q 592 419 647 425 Q 669 429 661 441 Q 651 454 627 459 Q 600 462 519 436 C 490 427 487 402 517 407 Z" style="fill: #0070C0;"></path>
                                                                        <path d="M 513 299 Q 517 299 522 299 Q 598 309 654 316 Q 678 320 669 332 Q 659 347 633 352 Q 596 356 514 326 C 486 316 483 299 513 299 Z" style="fill: #0070C0;"></path>
                                                                        <path d="M 226 697 Q 248 672 273 643 Q 286 627 305 627 Q 318 626 324 641 Q 331 657 324 692 Q 320 711 289 729 Q 217 762 200 755 Q 194 751 195 736 Q 198 723 226 697 Z" style="fill: #0070C0;"></path>
                                                                        <path d="M 289 176 Q 319 206 310 254 Q 304 276 278 316 Q 247 376 324 454 Q 360 487 268 521 Q 249 533 205 501 Q 121 452 87 454 Q 80 455 77 449 Q 76 445 85 440 Q 127 422 217 459 Q 227 463 236 451 Q 255 433 236 408 Q 197 365 237 298 Q 265 246 264 210 Q 263 191 256 178 C 246 150 270 153 289 176 Z" style="fill: #0070C0;"></path>
                                                                        <path d="M 256 178 Q 213 179 168 165 Q 137 153 90 149 Q 84 149 80 140 Q 77 133 86 123 Q 104 105 128 94 Q 140 88 158 103 Q 216 151 284 137 Q 351 122 485 62 Q 710 -41 796 -19 Q 797 -18 800 -18 Q 863 4 916 41 Q 940 56 915 56 Q 696 56 557 89 Q 469 114 357 157 Q 323 172 289 176 L 256 178 Z" style="fill: #0070C0;"></path>
                                    
                                    
                                                                                                                                                                                                                                                                                                                                                                                                                                                                                                                                                                                                                                                                                                                                                                                                                                                                    </g>
                            </svg>