<svg width='83' height='83' >
                                <g transform="translate(3, 70) scale(0.07, -0.07)">
                                    <!-- 先将完整的字以灰色字体绘制完成，层级位于下面 -->
                                                                        <path d="M 544 778 Q 575 756 609 727 Q 625 714 641 717 Q 653 718 657 732 Q 660 748 649 779 Q 634 812 535 828 Q 519 831 512 827 Q 508 823 509 809 Q 513 799 544 778 Z" style="fill: #0070C0;"></path>
                                                                        <path d="M 439 639 Q 427 667 407 679 Q 404 683 398 679 Q 394 676 392 665 Q 395 640 370 576 Q 360 560 361 542 Q 364 523 373 510 Q 380 498 386 506 Q 398 509 413 553 Q 428 596 435 610 L 435 611 C 443 631 443 631 439 639 Z" style="fill: #0070C0;"></path>
                                                                        <path d="M 435 611 Q 456 601 478 608 Q 589 647 720 666 Q 747 670 758 669 Q 771 662 770 655 Q 770 652 745 593 Q 739 580 745 577 Q 752 573 766 584 Q 814 615 853 625 Q 884 635 884 642 Q 883 652 818 697 Q 796 712 708 692 Q 660 686 506 652 Q 472 645 439 639 C 409 634 406 620 435 611 Z" style="fill: #0070C0;"></path>
                                                                        <path d="M 513 307 Q 513 344 512 383 L 512 410 Q 511 468 515 490 C 517 507 517 507 505 516 Q 504 517 503 518 Q 482 534 459 540 Q 450 541 445 534 Q 442 530 449 519 Q 492 423 465 236 Q 450 173 455 156 Q 464 126 474 115 Q 484 103 493 116 Q 506 135 508 159 L 512 190 Q 513 205 514 278 L 513 307 Z" style="fill: #0070C0;"></path>
                                                                        <path d="M 704 437 Q 722 480 738 494 Q 760 518 739 533 Q 679 570 670 568 Q 663 568 657 563 Q 612 536 505 516 C 476 510 485 485 515 490 Q 519 490 629 514 Q 657 521 664 509 L 652 442 C 647 412 692 409 704 437 Z" style="fill: #0070C0;"></path>
                                                                        <path d="M 512 383 Q 524 377 540 381 Q 595 394 713 407 Q 723 408 724 417 Q 724 424 704 437 C 684 451 681 450 652 442 Q 574 421 512 410 C 482 405 484 393 512 383 Z" style="fill: #0070C0;"></path>
                                                                        <path d="M 727 220 Q 749 268 773 279 Q 789 295 776 311 Q 763 324 716 348 Q 700 355 681 348 Q 615 323 513 307 C 483 302 484 274 514 278 Q 520 278 669 304 Q 685 308 691 301 Q 697 295 695 284 Q 688 248 678 220 C 668 192 714 193 727 220 Z" style="fill: #0070C0;"></path>
                                                                        <path d="M 508 159 Q 514 158 524 159 Q 594 174 744 184 Q 754 185 755 193 Q 756 200 728 220 L 727 220 L 678 220 Q 585 201 512 190 C 482 185 478 161 508 159 Z" style="fill: #0070C0;"></path>
                                                                        <path d="M 221 682 Q 246 658 273 629 Q 288 613 306 614 Q 318 614 324 629 Q 331 645 321 680 Q 312 713 217 737 Q 199 741 192 739 Q 186 735 187 720 Q 191 707 221 682 Z" style="fill: #0070C0;"></path>
                                                                        <path d="M 225 333 Q 225 309 238 289 Q 286 208 271 161 C 265 132 282 135 301 159 Q 311 168 316 182 Q 328 222 284 293 Q 253 347 320 429 Q 324 435 330 440 Q 352 459 332 474 Q 311 490 276 503 Q 254 516 236 498 Q 206 474 166 459 Q 114 435 95 437 Q 88 438 86 433 Q 85 427 93 423 Q 132 407 228 444 Q 237 448 246 436 Q 267 417 247 389 Q 225 364 225 333 Z" style="fill: #0070C0;"></path>
                                                                        <path d="M 271 161 Q 226 162 180 147 Q 149 137 103 133 Q 97 133 93 125 Q 90 118 99 108 Q 115 89 140 77 Q 150 71 170 85 Q 227 131 297 118 Q 361 105 493 52 Q 719 -44 801 -16 Q 862 8 914 47 Q 938 63 913 63 Q 685 54 566 82 Q 479 103 369 141 Q 336 154 301 159 L 271 161 Z" style="fill: #0070C0;"></path>
                                    
                                    
                                                                                                                                                                                                                                                                                                                                                                                                                                                                                                                                                                                                                                                                                                                                                                                                                                                                                                                                                </g>
                            </svg>