<svg width='83' height='83' >
                                <g transform="translate(3, 70) scale(0.07, -0.07)">
                                    <!-- 先将完整的字以灰色字体绘制完成，层级位于下面 -->
                                                                        <path d="M 451 735 Q 441 742 425 746 Q 407 753 397 747 Q 387 740 394 728 Q 431 691 418 462 Q 414 429 408 398 Q 390 314 339 208 Q 335 202 334 196 Q 333 186 342 190 Q 351 191 382 236 Q 475 372 471 616 Q 468 670 471 697 C 473 724 473 724 451 735 Z" style="fill: #0070C0;"></path>
                                                                        <path d="M 471 697 Q 534 718 724 746 Q 743 749 752 738 Q 765 731 769 674 Q 782 481 770 262 Q 769 229 757 221 Q 747 212 690 221 Q 674 225 674 215 Q 675 208 688 200 Q 740 157 765 123 Q 787 102 800 105 Q 813 108 825 137 Q 843 185 842 254 Q 827 543 829 650 Q 830 690 842 713 Q 855 735 844 747 Q 834 762 787 787 Q 766 799 691 776 Q 573 749 451 735 C 421 731 442 689 471 697 Z" style="fill: #0070C0;"></path>
                                                                        <path d="M 618 581 Q 646 590 679 596 Q 704 603 708 607 Q 714 613 711 619 Q 705 628 683 632 Q 653 638 621 619 L 578 605 Q 542 598 505 592 Q 477 586 498 575 Q 528 557 574 571 Q 575 572 580 572 L 618 581 Z" style="fill: #0070C0;"></path>
                                                                        <path d="M 613 523 Q 614 553 618 581 L 621 619 Q 624 652 632 677 Q 633 684 620 695 Q 595 708 577 711 Q 565 714 560 707 Q 554 703 561 691 Q 573 675 578 605 L 580 572 Q 581 544 581 514 C 581 484 612 493 613 523 Z" style="fill: #0070C0;"></path>
                                                                        <path d="M 581 514 Q 562 511 546 508 Q 527 505 506 502 Q 484 498 502 486 Q 521 471 561 477 Q 630 493 700 503 Q 707 502 714 512 Q 715 521 697 528 Q 676 543 613 523 L 581 514 Z" style="fill: #0070C0;"></path>
                                                                        <path d="M 532 409 Q 525 413 504 416 Q 495 417 492 414 Q 488 410 494 397 Q 515 355 528 287 Q 531 266 543 253 Q 556 237 561 248 Q 565 260 563 281 L 559 308 Q 549 366 548 385 C 547 403 547 403 532 409 Z" style="fill: #0070C0;"></path>
                                                                        <path d="M 685 318 Q 701 364 718 378 Q 740 400 720 414 Q 704 424 680 441 Q 665 450 621 430 Q 590 420 532 409 C 503 403 519 377 548 385 Q 560 389 625 399 Q 646 402 651 394 L 639 327 C 634 297 675 290 685 318 Z" style="fill: #0070C0;"></path>
                                                                        <path d="M 563 281 Q 573 281 585 282 Q 618 289 690 294 Q 699 295 700 302 Q 700 308 685 318 L 639 327 Q 635 327 633 326 Q 591 316 559 308 C 530 301 533 281 563 281 Z" style="fill: #0070C0;"></path>
                                                                        <path d="M 226 708 Q 250 683 275 654 Q 288 639 306 639 Q 318 639 325 653 Q 331 669 323 702 Q 319 721 288 738 Q 218 769 200 763 Q 194 759 195 745 Q 198 732 226 708 Z" style="fill: #0070C0;"></path>
                                                                        <path d="M 244 189 Q 245 190 249 194 Q 271 207 279 231 Q 288 271 244 325 Q 213 370 288 455 Q 292 462 300 468 Q 322 487 303 502 Q 282 518 248 533 Q 226 546 189 516 Q 111 468 79 469 Q 72 470 70 464 Q 69 460 77 455 Q 116 439 200 475 Q 207 479 216 471 Q 234 450 212 415 Q 161 358 201 317 Q 237 257 237 232 Q 238 213 234 202 Q 230 195 233 189 C 232 179 232 179 244 189 Z" style="fill: #0070C0;"></path>
                                                                        <path d="M 233 189 Q 182 189 140 176 Q 100 163 72 159 Q 57 158 60 147 Q 63 137 105 114 Q 124 107 153 126 Q 184 162 252 155 Q 327 143 495 70 Q 540 52 580 31 Q 724 -41 778 -29 Q 868 -7 970 50 Q 977 53 975 59 Q 974 63 958 64 Q 616 58 374 151 Q 272 199 244 189 L 233 189 Z" style="fill: #0070C0;"></path>
                                    
                                    
                                                                                                                                                                                                                                                                                                                                                                                                                                                                                                                                                                                                                                                                                                                                                                                                                                                                                                                                                </g>
                            </svg>