<svg width='83' height='83' >
                                <g transform="translate(3, 70) scale(0.07, -0.07)">
                                    <!-- 先将完整的字以灰色字体绘制完成，层级位于下面 -->
                                                                        <path d="M 542 722 Q 602 791 604 795 Q 603 798 603 801 Q 602 811 580 833 Q 559 849 544 851 Q 528 851 533 833 Q 540 817 533 803 Q 496 728 412 636 Q 403 629 401 624 Q 397 615 409 616 Q 440 619 530 709 L 542 722 Z" style="fill: #0070C0;"></path>
                                                                        <path d="M 589 581 Q 608 597 649 642 Q 686 684 723 707 Q 739 716 729 727 Q 717 739 684 758 Q 671 764 657 755 Q 648 751 582 731 Q 564 727 542 722 C 516 716 516 716 530 709 Q 545 694 629 712 Q 636 713 639 712 Q 643 708 638 699 Q 601 629 577 595 Q 570 582 567 576 C 553 549 567 561 589 581 Z" style="fill: #0070C0;"></path>
                                                                        <path d="M 428 552 L 428 553 Q 416 559 381 564 Q 369 567 367 562 Q 361 555 369 541 Q 396 490 414 408 Q 417 383 432 366 Q 450 347 454 361 Q 455 368 457 376 L 455 406 Q 452 415 435 523 L 428 552 Z" style="fill: #0070C0;"></path>
                                                                        <path d="M 725 445 Q 753 520 788 542 Q 804 558 792 576 Q 777 589 730 615 Q 714 622 693 616 Q 639 595 589 581 L 567 576 Q 566 577 564 576 Q 497 561 428 552 C 398 548 406 514 435 523 Q 453 530 530 544 L 570 552 Q 688 582 703 569 Q 715 553 675 452 C 664 424 714 417 725 445 Z" style="fill: #0070C0;"></path>
                                                                        <path d="M 567 394 Q 633 406 733 416 Q 743 417 744 425 Q 744 432 725 445 L 675 452 Q 674 453 672 452 Q 623 442 576 429 L 530 419 Q 490 412 455 406 C 425 401 427 372 457 376 Q 460 376 521 386 L 567 394 Z" style="fill: #0070C0;"></path>
                                                                        <path d="M 521 386 Q 484 281 377 159 Q 373 152 378 150 Q 385 149 393 154 Q 517 239 564 385 Q 565 389 567 394 L 576 429 Q 580 450 585 471 Q 592 496 601 521 Q 605 531 599 538 Q 593 544 570 552 C 542 563 523 570 530 544 Q 530 543 531 541 Q 546 492 530 419 L 521 386 Z" style="fill: #0070C0;"></path>
                                                                        <path d="M 909 189 Q 896 213 877 284 Q 876 297 869 302 Q 863 305 860 289 Q 841 210 826 186 Q 799 156 718 159 Q 687 160 663 169 Q 641 179 636 192 Q 621 226 641 335 Q 647 360 604 378 Q 594 382 586 377 Q 580 374 584 359 Q 594 325 592 293 Q 588 202 595 175 Q 599 156 617 140 Q 687 86 834 119 Q 835 120 839 120 Q 873 130 905 152 Q 921 167 909 189 Z" style="fill: #0070C0;"></path>
                                                                        <path d="M 698 357 Q 738 302 760 298 Q 770 297 777 312 Q 778 322 772 339 Q 757 366 702 379 Q 695 380 693 371 Q 692 364 698 357 Z" style="fill: #0070C0;"></path>
                                                                        <path d="M 224 709 Q 251 685 279 656 Q 294 641 311 642 Q 323 642 329 657 Q 333 673 325 705 Q 316 736 220 762 Q 204 766 196 763 Q 190 759 192 745 Q 196 732 224 709 Z" style="fill: #0070C0;"></path>
                                                                        <path d="M 288 156 Q 297 163 301 178 Q 307 214 268 281 Q 238 333 300 413 Q 307 426 318 435 Q 339 454 319 469 Q 298 485 263 498 Q 242 510 201 476 Q 123 431 99 433 Q 92 434 90 428 Q 89 424 97 419 Q 134 404 216 439 Q 225 443 234 433 Q 256 411 234 382 Q 186 331 232 260 Q 266 190 262 158 Q 261 158 261 157 C 259 127 270 132 288 156 Z" style="fill: #0070C0;"></path>
                                                                        <path d="M 261 157 Q 218 158 172 142 Q 138 127 85 121 Q 78 120 75 112 Q 74 105 82 95 Q 100 77 124 67 Q 137 61 154 76 Q 218 130 288 119 Q 358 106 500 46 Q 639 -15 777 -36 Q 831 -45 935 28 Q 957 43 934 43 Q 691 34 530 81 Q 451 103 356 139 Q 323 152 288 156 L 261 157 Z" style="fill: #0070C0;"></path>
                                    
                                    
                                                                                                                                                                                                                                                                                                                                                                                                                                                                                                                                                                                                                                                                                                                                                                                                                                                                                                                                                </g>
                            </svg>