<svg width='83' height='83' >
                                <g transform="translate(3, 70) scale(0.07, -0.07)">
                                    <!-- 先将完整的字以灰色字体绘制完成，层级位于下面 -->
                                                                        <path d="M 457 743 Q 485 692 514 675 Q 527 671 539 681 Q 546 693 547 709 Q 541 751 493 771 Q 463 786 450 783 Q 444 783 445 771 Q 445 759 457 743 Z" style="fill: #0070C0;"></path>
                                                                        <path d="M 675 813 Q 659 780 593 686 Q 586 670 601 674 Q 652 713 720 774 Q 736 792 759 804 Q 780 816 767 832 Q 752 847 726 859 Q 701 869 689 866 Q 676 863 682 850 Q 686 832 675 813 Z" style="fill: #0070C0;"></path>
                                                                        <path d="M 573 587 Q 639 605 713 622 Q 758 634 764 641 Q 771 648 767 657 Q 760 667 732 674 Q 705 678 590 637 Q 491 613 436 604 Q 400 597 427 582 Q 464 560 537 579 Q 538 579 540 579 L 573 587 Z" style="fill: #0070C0;"></path>
                                                                        <path d="M 549 504 Q 589 547 590 553 Q 589 554 589 556 Q 582 577 573 587 C 555 611 550 607 540 579 Q 516 506 381 415 Q 375 412 374 407 Q 373 403 377 402 Q 425 402 528 485 L 549 504 Z" style="fill: #0070C0;"></path>
                                                                        <path d="M 700 350 Q 694 386 667 417 L 656 430 Q 608 481 549 504 C 521 516 502 499 528 485 Q 540 479 553 471 L 596 440 Q 609 428 622 414 L 653 368 Q 671 319 641 234 Q 631 206 620 200 Q 610 194 557 197 Q 512 206 512 196 Q 511 189 524 178 Q 584 138 609 108 Q 619 93 632 97 Q 672 115 696 211 Q 711 278 705 318 L 700 350 Z" style="fill: #0070C0;"></path>
                                                                        <path d="M 553 471 Q 541 416 396 309 Q 380 299 399 300 Q 463 309 571 415 Q 586 431 596 440 C 618 460 561 500 553 471 Z" style="fill: #0070C0;"></path>
                                                                        <path d="M 622 414 Q 562 302 408 194 Q 395 184 404 181 Q 411 177 424 181 Q 517 208 619 324 Q 650 360 649 362 Q 650 365 653 368 C 668 394 637 440 622 414 Z" style="fill: #0070C0;"></path>
                                                                        <path d="M 667 417 Q 709 439 735 457 Q 795 502 819 510 Q 838 517 830 534 Q 820 550 796 565 Q 775 578 763 576 Q 751 575 755 563 Q 756 539 704 480 Q 680 458 656 430 C 636 407 640 403 667 417 Z" style="fill: #0070C0;"></path>
                                                                        <path d="M 705 318 Q 765 275 836 211 Q 851 196 864 194 Q 871 193 877 202 Q 886 215 871 250 Q 858 292 700 350 C 672 360 681 336 705 318 Z" style="fill: #0070C0;"></path>
                                                                        <path d="M 233 701 Q 263 676 295 643 Q 310 630 327 630 Q 339 630 344 645 Q 350 661 340 693 Q 334 715 300 732 Q 222 762 204 755 Q 198 751 200 737 Q 204 724 233 701 Z" style="fill: #0070C0;"></path>
                                                                        <path d="M 300 155 Q 309 164 313 177 Q 325 216 280 289 Q 249 343 322 431 Q 325 435 330 439 Q 352 458 332 473 Q 313 489 277 504 Q 255 517 237 499 Q 209 478 171 464 Q 120 443 104 446 Q 97 446 94 441 Q 93 437 101 432 Q 138 414 227 446 Q 237 449 246 437 Q 267 415 245 388 Q 194 337 240 275 Q 277 209 271 158 C 270 128 283 131 300 155 Z" style="fill: #0070C0;"></path>
                                                                        <path d="M 271 158 Q 226 161 180 146 Q 149 136 101 134 Q 94 134 90 125 Q 87 118 95 108 Q 111 89 135 77 Q 147 70 166 84 Q 229 129 297 113 Q 361 100 492 45 Q 714 -54 797 -28 Q 798 -27 801 -27 Q 862 -5 915 34 Q 937 50 914 50 Q 686 41 533 82 Q 458 103 369 135 Q 335 151 300 155 L 271 158 Z" style="fill: #0070C0;"></path>
                                    
                                    
                                                                                                                                                                                                                                                                                                                                                                                                                                                                                                                                                                                                                                                                                                                                                                                                                                                                                                                                                                                                                            </g>
                            </svg>