<svg width='83' height='83' >
                                <g transform="translate(3, 70) scale(0.07, -0.07)">
                                    <!-- 先将完整的字以灰色字体绘制完成，层级位于下面 -->
                                                                        <path d="M 537 580 Q 556 671 582 698 Q 603 722 581 735 Q 563 745 537 761 Q 521 770 502 760 Q 484 747 459 737 Q 437 730 407 720 C 379 711 386 691 416 695 Q 426 696 437 699 Q 465 706 490 712 Q 506 716 511 709 Q 517 703 491 588 C 484 559 531 551 537 580 Z" style="fill: #0070C0;"></path>
                                                                        <path d="M 409 530 Q 416 529 429 533 Q 465 543 543 555 Q 553 556 553 565 Q 553 571 537 580 C 516 593 516 593 491 588 Q 484 587 480 585 Q 440 572 409 562 C 380 553 379 531 409 530 Z" style="fill: #0070C0;"></path>
                                                                        <path d="M 406 337 Q 406 341 407 418 L 408 443 Q 408 486 409 530 L 409 562 Q 409 665 416 695 C 419 711 419 711 407 720 Q 389 738 356 748 Q 347 751 341 742 Q 338 736 345 726 Q 369 669 367 619 Q 373 400 340 289 Q 333 264 337 245 Q 346 212 357 200 Q 367 187 377 200 Q 396 221 405 310 L 406 337 Z" style="fill: #0070C0;"></path>
                                                                        <path d="M 407 418 Q 437 414 506 430 Q 516 433 530 436 Q 543 440 545 441 Q 552 448 547 455 Q 540 464 517 468 Q 505 469 439 450 Q 424 446 408 443 C 379 437 377 421 407 418 Z" style="fill: #0070C0;"></path>
                                                                        <path d="M 405 310 Q 438 306 508 322 Q 550 331 557 336 Q 564 343 559 350 Q 552 360 527 364 Q 502 368 476 355 Q 460 349 441 344 Q 425 340 406 337 C 376 332 375 313 405 310 Z" style="fill: #0070C0;"></path>
                                                                        <path d="M 764 636 Q 785 703 808 723 Q 830 748 808 762 Q 751 798 741 796 Q 734 796 726 791 Q 690 766 624 752 Q 614 752 615 746 Q 616 740 629 735 Q 644 728 719 744 Q 732 745 735 741 Q 742 734 731 700 Q 721 669 710 634 C 701 605 755 607 764 636 Z" style="fill: #0070C0;"></path>
                                                                        <path d="M 710 634 Q 652 618 605 608 Q 586 604 599 588 Q 614 573 640 578 Q 683 590 781 601 Q 791 602 793 612 Q 793 619 764 636 C 749 645 739 642 710 634 Z" style="fill: #0070C0;"></path>
                                                                        <path d="M 734 321 Q 759 364 785 427 Q 797 455 816 474 Q 835 490 822 503 Q 809 515 778 526 Q 762 532 686 503 Q 608 485 591 481 Q 578 480 573 473 Q 569 466 587 459 Q 623 446 671 461 Q 704 477 710 477 Q 732 476 727 450 Q 714 392 691 349 L 672 317 Q 612 245 504 212 Q 491 208 502 199 Q 506 195 543 197 Q 636 206 707 284 L 734 321 Z" style="fill: #0070C0;"></path>
                                                                        <path d="M 707 284 Q 750 242 785 198 Q 795 182 807 174 Q 817 170 827 183 Q 834 196 830 222 Q 830 258 734 321 L 691 349 Q 600 407 592 405 Q 588 404 587 393 Q 588 386 601 376 Q 638 348 672 317 L 707 284 Z" style="fill: #0070C0;"></path>
                                                                        <path d="M 185 690 Q 213 665 243 635 Q 258 622 275 621 Q 287 622 292 637 Q 298 653 288 685 Q 282 707 249 722 Q 173 749 156 743 Q 150 739 152 725 Q 156 712 185 690 Z" style="fill: #0070C0;"></path>
                                                                        <path d="M 258 193 Q 271 203 278 220 Q 290 257 251 320 Q 227 368 252 412 Q 270 449 287 466 Q 308 485 288 500 Q 267 516 232 528 Q 213 538 167 504 Q 92 465 75 465 Q 68 466 66 461 Q 65 455 73 451 Q 109 436 184 467 Q 194 471 204 459 Q 223 441 206 416 Q 169 371 213 304 Q 240 258 238 227 Q 237 206 231 194 Q 230 194 230 193 C 219 165 237 172 258 193 Z" style="fill: #0070C0;"></path>
                                                                        <path d="M 230 193 Q 187 194 144 177 Q 111 164 61 157 Q 54 156 51 147 Q 48 140 58 131 Q 76 113 101 103 Q 113 97 130 113 Q 193 164 261 154 Q 333 141 479 82 Q 713 -17 809 5 Q 812 8 817 8 Q 878 32 930 71 Q 954 87 929 87 Q 676 78 548 111 Q 454 135 333 177 Q 296 190 258 193 L 230 193 Z" style="fill: #0070C0;"></path>
                                    
                                    
                                                                                                                                                                                                                                                                                                                                                                                                                                                                                                                                                                                                                                                                                                                                                                                                                                                                                                                                                                                                                            </g>
                            </svg>