<svg width='83' height='83' >
                                <g transform="translate(3, 70) scale(0.07, -0.07)">
                                    <!-- 先将完整的字以灰色字体绘制完成，层级位于下面 -->
                                                                        <path d="M 441 756 Q 404 714 304 658 Q 300 651 305 648 Q 335 648 448 704 Q 475 725 526 740 Q 539 741 542 748 Q 545 757 534 765 Q 477 795 455 789 Q 451 786 450 777 Q 451 765 441 756 Z" style="fill: #0070C0;"></path>
                                                                        <path d="M 297 598 Q 333 547 353 543 Q 363 542 369 555 Q 370 565 365 581 Q 352 605 302 619 Q 295 620 293 611 Q 292 605 297 598 Z" style="fill: #0070C0;"></path>
                                                                        <path d="M 376 641 Q 412 598 423 595 Q 432 594 437 605 Q 438 614 433 627 Q 427 637 412 644 Q 390 656 380 658 Q 374 659 373 652 Q 372 648 376 641 Z" style="fill: #0070C0;"></path>
                                                                        <path d="M 406 518 Q 496 581 525 610 Q 537 620 546 623 Q 556 626 557 632 Q 557 638 550 643 Q 531 658 512 663 Q 502 666 495 655 Q 474 594 318 486 Q 312 483 306 478 Q 302 475 302 473 Q 303 472 308 471 Q 341 477 387 505 L 406 518 Z" style="fill: #0070C0;"></path>
                                                                        <path d="M 493 395 Q 503 344 484 267 Q 474 233 464 226 Q 457 223 399 233 Q 389 237 388 232 Q 387 226 395 218 Q 435 182 451 159 Q 461 144 472 147 Q 514 166 529 266 Q 547 398 503 451 Q 476 485 428 509 Q 416 516 406 518 C 378 528 360 517 387 505 L 388 505 Q 403 498 416 490 L 454 463 Q 464 454 473 442 L 493 395 Z" style="fill: #0070C0;"></path>
                                                                        <path d="M 416 490 Q 415 489 414 485 Q 399 440 311 364 Q 298 354 314 357 Q 368 364 430 436 Q 446 455 454 463 C 475 485 427 518 416 490 Z" style="fill: #0070C0;"></path>
                                                                        <path d="M 473 442 Q 428 346 306 247 Q 297 238 304 237 Q 319 231 370 263 Q 430 302 493 395 C 510 420 486 469 473 442 Z" style="fill: #0070C0;"></path>
                                                                        <path d="M 624 605 Q 661 648 706 705 Q 719 724 737 738 Q 753 751 740 765 Q 724 777 698 783 Q 674 790 664 784 Q 654 780 660 769 Q 669 748 616 638 Q 606 620 596 598 C 583 571 604 582 624 605 Z" style="fill: #0070C0;"></path>
                                                                        <path d="M 622 410 Q 623 414 624 419 L 623 439 Q 616 484 612 498 L 609 517 Q 602 553 601 568 C 599 592 599 592 588 596 Q 579 600 556 604 Q 547 605 544 602 Q 540 598 546 584 Q 571 532 586 448 Q 589 412 611 397 C 618 392 618 392 622 410 Z" style="fill: #0070C0;"></path>
                                                                        <path d="M 750 433 Q 751 432 752 428 Q 756 415 767 417 Q 777 418 783 431 Q 793 446 809 516 Q 819 558 847 583 Q 862 596 848 609 Q 833 622 792 641 Q 783 645 727 632 Q 664 619 624 605 L 596 598 Q 592 598 588 596 C 559 589 573 559 601 568 Q 745 616 768 604 Q 777 600 773 573 Q 760 479 752 456 C 747 439 747 439 750 433 Z" style="fill: #0070C0;"></path>
                                                                        <path d="M 612 498 Q 616 497 626 498 Q 678 508 718 515 Q 737 519 729 530 Q 719 540 698 544 Q 673 545 609 517 C 581 505 582 501 612 498 Z" style="fill: #0070C0;"></path>
                                                                        <path d="M 624 419 Q 628 419 637 419 Q 701 429 750 433 C 780 436 778 441 752 456 Q 746 460 737 462 Q 710 466 623 439 C 594 430 594 419 624 419 Z" style="fill: #0070C0;"></path>
                                                                        <path d="M 611 397 Q 623 355 579 265 Q 578 264 578 262 Q 562 232 528 192 Q 524 189 521 185 Q 518 178 525 178 Q 552 178 593 229 Q 618 265 651 343 Q 651 347 658 358 Q 665 365 663 375 Q 647 405 622 410 C 607 414 607 414 611 397 Z" style="fill: #0070C0;"></path>
                                                                        <path d="M 930 202 Q 918 226 903 297 Q 902 310 897 314 Q 893 315 889 302 Q 870 226 856 201 Q 841 185 792 190 Q 752 196 740 219 Q 727 249 748 363 Q 754 390 712 406 Q 702 410 694 406 Q 688 403 692 388 Q 702 354 699 322 Q 690 201 716 173 Q 770 127 874 143 Q 875 144 878 144 Q 902 150 925 168 Q 941 181 930 202 Z" style="fill: #0070C0;"></path>
                                                                        <path d="M 168 641 Q 190 617 214 588 Q 226 575 240 573 Q 250 573 257 585 Q 263 598 258 628 Q 251 661 169 688 Q 154 692 148 691 Q 144 688 143 675 Q 144 665 168 641 Z" style="fill: #0070C0;"></path>
                                                                        <path d="M 262 170 Q 269 177 272 189 Q 276 222 237 283 Q 207 332 270 424 Q 271 427 274 429 Q 293 445 275 459 Q 256 472 224 484 Q 205 493 169 464 Q 100 427 80 428 Q 73 428 71 423 Q 70 419 78 415 Q 111 400 181 430 Q 190 433 199 422 Q 221 403 202 375 Q 163 332 193 282 Q 242 209 237 171 C 237 141 246 145 262 170 Z" style="fill: #0070C0;"></path>
                                                                        <path d="M 237 171 Q 192 172 148 156 Q 120 146 74 141 Q 67 141 64 132 Q 61 125 70 115 Q 88 97 112 86 Q 124 80 142 95 Q 196 141 264 131 Q 339 118 492 59 Q 690 -20 811 -22 Q 823 -19 839 -14 Q 897 8 946 45 Q 968 61 945 60 Q 684 50 517 94 Q 433 116 332 153 Q 298 166 262 170 L 237 171 Z" style="fill: #0070C0;"></path>
                                    
                                    
                                                                                                                                                                                                                                                                                                                                                                                                                                                                                                                                                                                                                                                                                                                                                                                                                                                                                                                                                                                                                                                                                                                                                                                                                                                                                                                                                                                                                        </g>
                            </svg>