<svg width='83' height='83' >
                                <g transform="translate(3, 70) scale(0.07, -0.07)">
                                    <!-- 先将完整的字以灰色字体绘制完成，层级位于下面 -->
                                                                        <path d="M 316 763 Q 300 723 271 686 Q 264 676 267 665 Q 268 655 284 646 Q 314 627 340 603 Q 355 590 367 592 Q 377 595 378 614 Q 377 635 364 646 Q 357 653 323 657 Q 310 658 302 668 Q 296 674 305 685 Q 320 700 347 731 Q 363 750 378 759 Q 391 766 386 781 Q 376 812 356 825 Q 346 834 335 832 Q 325 831 329 814 Q 333 792 316 763 Z" style="fill: #0070C0;"></path>
                                                                        <path d="M 476 787 Q 461 751 435 718 Q 428 708 430 697 Q 431 687 447 678 Q 477 656 503 632 Q 518 619 530 620 Q 540 623 541 642 Q 541 663 529 675 Q 522 682 487 688 Q 472 689 465 699 Q 461 706 469 717 Q 482 729 506 755 Q 524 774 538 783 Q 551 790 546 805 Q 536 836 516 849 Q 506 858 495 856 Q 485 855 489 839 Q 493 817 476 787 Z" style="fill: #0070C0;"></path>
                                                                        <path d="M 657 813 Q 647 777 613 738 Q 606 731 604 722 Q 603 713 624 697 Q 655 676 698 635 Q 711 619 720 622 Q 733 623 737 640 Q 741 661 734 674 Q 725 692 649 711 Q 636 715 635 721 Q 641 742 697 782 Q 703 786 708 788 Q 735 795 708 833 Q 695 852 678 858 Q 663 862 657 858 Q 654 854 658 846 Q 665 833 657 813 Z" style="fill: #0070C0;"></path>
                                                                        <path d="M 322 567 Q 312 568 308 564 Q 304 558 312 544 Q 334 510 353 453 Q 357 435 369 425 Q 385 407 390 421 Q 391 427 391 435 L 387 466 Q 377 518 374 535 C 369 565 352 566 322 567 Z" style="fill: #0070C0;"></path>
                                                                        <path d="M 627 491 Q 654 534 677 544 Q 693 559 682 576 Q 669 589 624 614 Q 609 623 589 617 Q 427 560 322 567 C 292 568 345 526 374 535 Q 378 536 386 539 Q 479 555 566 574 Q 590 578 599 570 Q 605 558 581 502 C 569 474 611 466 627 491 Z" style="fill: #0070C0;"></path>
                                                                        <path d="M 391 435 Q 397 435 404 436 Q 476 452 632 464 Q 642 465 643 473 Q 643 480 627 491 L 581 502 Q 577 503 572 501 Q 470 477 387 466 C 357 462 361 433 391 435 Z" style="fill: #0070C0;"></path>
                                                                        <path d="M 658 269 Q 685 326 714 344 Q 730 360 718 378 Q 646 438 597 413 Q 471 373 322 357 C 292 354 309 320 338 326 Q 422 342 456 348 L 490 355 Q 610 382 626 368 Q 635 356 607 274 C 598 246 645 242 658 269 Z" style="fill: #0070C0;"></path>
                                                                        <path d="M 456 348 Q 457 342 458 243 C 458 213 493 220 497 250 Q 509 335 508 337 Q 499 347 490 355 C 468 375 454 378 456 348 Z" style="fill: #0070C0;"></path>
                                                                        <path d="M 314 191 Q 324 188 339 191 Q 444 215 671 234 Q 681 235 683 244 Q 683 251 658 269 C 642 281 636 280 607 274 Q 550 262 497 250 L 458 243 Q 382 233 317 224 C 287 220 284 195 314 191 Z" style="fill: #0070C0;"></path>
                                                                        <path d="M 924 73 Q 908 113 895 185 Q 894 201 886 206 Q 877 210 874 191 Q 858 106 844 90 Q 789 30 559 28 Q 433 32 380 55 Q 334 80 323 111 Q 314 135 314 191 L 317 224 Q 321 279 334 307 Q 338 317 338 326 C 343 343 343 343 322 357 Q 274 391 260 387 Q 244 381 253 364 Q 272 327 269 271 Q 266 115 289 72 Q 323 -1 473 -19 Q 569 -29 718 -17 Q 854 -5 905 26 Q 936 41 924 73 Z" style="fill: #0070C0;"></path>
                                    
                                    
                                                                                                                                                                                                                                                                                                                                                                                                                                                                                                                                                                                                                                                                                                                                                                                                                                                                    </g>
                            </svg>