<svg width='83' height='83' >
                                <g transform="translate(3, 70) scale(0.07, -0.07)">
                                    <!-- 先将完整的字以灰色字体绘制完成，层级位于下面 -->
                                                                        <path d="M 423 743 Q 445 749 469 752 Q 515 762 522 769 Q 531 776 527 784 Q 520 796 492 804 Q 468 810 353 775 Q 241 754 186 748 Q 150 742 175 726 Q 188 719 226 710 C 243 706 243 706 268 713 Q 267 714 269 714 Q 326 726 387 736 L 423 743 Z" style="fill: #0070C0;"></path>
                                                                        <path d="M 449 553 Q 497 563 551 569 Q 569 570 570 579 Q 571 592 552 603 Q 519 618 449 599 L 404 588 Q 341 576 295 564 L 246 554 Q 93 533 70 530 Q 57 529 53 520 Q 49 508 66 496 Q 105 471 165 484 Q 204 497 243 507 L 290 520 Q 329 533 403 545 L 449 553 Z" style="fill: #0070C0;"></path>
                                                                        <path d="M 226 710 Q 227 706 232 698 Q 253 662 246 554 L 243 507 Q 237 377 145 277 Q 142 276 139 271 Q 124 256 111 244 Q 98 232 95 227 Q 94 220 104 221 Q 138 221 199 284 Q 271 365 290 520 L 295 564 Q 301 657 305 674 Q 311 693 292 702 Q 279 709 268 713 C 240 725 212 737 226 710 Z" style="fill: #0070C0;"></path>
                                                                        <path d="M 403 545 Q 403 367 384 261 Q 368 207 424 149 Q 425 148 428 146 Q 440 145 445 158 Q 457 191 453 221 Q 450 378 449 553 L 449 599 Q 450 671 456 703 Q 459 716 451 722 Q 436 735 423 743 C 398 760 376 764 387 736 L 388 734 Q 403 710 404 588 L 403 545 Z" style="fill: #0070C0;"></path>
                                                                        <path d="M 652 710 Q 662 713 677 719 Q 722 735 760 747 Q 764 750 776 744 Q 786 737 777 716 Q 704 559 704 555 Q 703 542 726 533 Q 822 473 837 388 Q 837 355 827 345 Q 814 335 785 341 Q 742 350 706 356 Q 699 357 699 349 Q 702 342 717 331 Q 795 289 815 258 Q 824 243 837 242 Q 849 241 865 254 Q 902 303 900 362 Q 897 452 771 544 Q 734 562 800 648 Q 807 658 815 667 Q 840 704 872 722 Q 903 738 877 759 Q 838 793 814 804 Q 796 811 780 801 Q 750 777 651 746 Q 647 745 644 744 C 615 735 624 700 652 710 Z" style="fill: #0070C0;"></path>
                                                                        <path d="M 593 -2 Q 599 -27 606 -37 Q 612 -44 619 -42 Q 634 -33 640 28 Q 649 124 645 219 Q 642 273 642 638 Q 642 645 652 710 C 656 737 656 737 644 744 Q 643 745 642 746 Q 608 767 593 770 Q 580 774 564 765 Q 555 756 563 746 Q 591 689 592 655 Q 595 486 589 219 Q 588 53 593 -2 Z" style="fill: #0070C0;"></path>
                                    
                                    
                                                                                                                                                                                                                                                                                                                                                                                                                                                                                                                                                    </g>
                            </svg>