<svg width='83' height='83' >
                                <g transform="translate(3, 70) scale(0.07, -0.07)">
                                    <!-- 先将完整的字以灰色字体绘制完成，层级位于下面 -->
                                                                        <path d="M 147 515 Q 125 528 102 534 Q 95 537 90 531 Q 83 525 92 514 Q 140 436 148 248 Q 149 188 185 159 Q 188 158 191 155 Q 207 151 209 179 L 208 211 Q 207 230 200 253 Q 179 397 175 483 C 174 500 173 501 147 515 Z" style="fill: #0070C0;"></path>
                                                                        <path d="M 421 208 Q 440 184 457 177 Q 469 170 483 192 Q 502 234 527 452 Q 534 483 557 510 Q 570 523 558 537 Q 542 553 496 579 Q 480 585 400 566 Q 387 566 350 556 L 305 546 Q 281 543 256 537 Q 196 524 147 515 C 118 509 146 474 175 483 Q 229 501 306 515 L 350 523 Q 378 529 414 534 Q 447 540 457 528 Q 479 506 476 482 Q 452 278 436 247 C 426 219 420 209 421 208 Z" style="fill: #0070C0;"></path>
                                                                        <path d="M 347 360 Q 380 367 411 371 Q 433 375 425 388 Q 415 403 389 407 Q 373 408 348 403 L 306 390 Q 263 377 223 365 Q 207 361 227 347 Q 233 341 306 353 L 347 360 Z" style="fill: #0070C0;"></path>
                                                                        <path d="M 350 556 Q 350 674 370 761 Q 373 773 352 788 Q 315 807 289 810 Q 273 813 264 804 Q 257 795 266 780 Q 299 734 299 701 Q 303 626 305 546 L 306 515 Q 307 454 306 390 L 306 353 Q 305 292 302 227 C 301 197 345 206 345 236 Q 346 300 347 360 L 348 403 Q 348 464 350 523 L 350 556 Z" style="fill: #0070C0;"></path>
                                                                        <path d="M 209 179 Q 216 179 228 180 Q 291 196 421 208 C 451 211 465 238 436 247 Q 420 254 392 248 Q 367 242 345 236 L 302 227 Q 251 218 208 211 C 178 206 179 178 209 179 Z" style="fill: #0070C0;"></path>
                                                                        <path d="M 661 630 Q 682 642 762 662 Q 768 663 777 658 Q 787 651 779 626 Q 748 529 735 508 Q 728 493 729 485 Q 729 472 750 466 Q 873 388 859 295 Q 856 289 851 282 Q 836 272 807 276 Q 764 283 726 288 Q 717 289 719 281 Q 722 274 737 264 Q 819 228 843 198 Q 850 185 863 184 Q 875 184 889 197 Q 923 246 921 302 Q 918 392 793 476 Q 760 494 783 524 Q 783 536 824 591 Q 842 624 869 639 Q 897 657 872 675 Q 835 706 811 716 Q 795 722 779 712 Q 761 700 637 657 C 609 647 633 618 661 630 Z" style="fill: #0070C0;"></path>
                                                                        <path d="M 593 -10 Q 599 -35 606 -45 Q 612 -52 619 -50 Q 634 -40 641 19 Q 650 104 648 186 Q 644 256 649 530 Q 650 581 661 622 Q 661 626 661 630 C 663 642 663 642 637 657 Q 613 673 601 674 Q 588 678 572 670 Q 563 661 571 651 Q 575 641 582 631 Q 595 606 596 570 Q 597 420 591 186 Q 588 39 593 -10 Z" style="fill: #0070C0;"></path>
                                    
                                    
                                                                                                                                                                                                                                                                                                                                                                                                                                                                                                                                                                                                                                </g>
                            </svg>