<svg width='83' height='83' >
                                <g transform="translate(3, 70) scale(0.07, -0.07)">
                                    <!-- 先将完整的字以灰色字体绘制完成，层级位于下面 -->
                                                                        <path d="M 383 695 Q 405 732 427 751 Q 437 761 432 777 Q 428 790 397 816 Q 369 835 348 836 Q 329 835 337 810 Q 352 774 338 745 Q 295 645 231 552 Q 168 462 84 365 Q 72 355 70 347 Q 66 335 82 338 Q 125 344 300 567 Q 333 615 370 672 Q 370 673 371 674 L 383 695 Z" style="fill: #0070C0;"></path>
                                                                        <path d="M 371 674 Q 372 673 377 668 Q 432 625 501 558 Q 516 542 530 538 Q 539 537 545 546 Q 555 559 541 598 Q 529 643 383 695 C 355 705 350 695 371 674 Z" style="fill: #0070C0;"></path>
                                                                        <path d="M 316 513 Q 391 431 413 429 Q 426 428 433 446 Q 434 459 425 480 Q 413 501 385 513 Q 340 535 321 540 Q 311 541 310 530 Q 309 521 316 513 Z" style="fill: #0070C0;"></path>
                                                                        <path d="M 383 179 Q 417 219 455 266 Q 495 318 530 337 Q 549 346 541 361 Q 537 377 468 408 Q 449 417 426 406 Q 371 384 286 355 Q 264 348 209 347 Q 187 347 195 327 Q 202 314 222 304 Q 253 288 287 309 Q 306 316 402 359 Q 418 365 432 356 Q 445 346 439 330 Q 405 264 368 188 C 355 161 364 156 383 179 Z" style="fill: #0070C0;"></path>
                                                                        <path d="M 368 188 Q 359 197 297 226 Q 290 232 286 221 Q 285 209 293 198 Q 330 153 376 90 Q 388 69 401 64 Q 408 63 417 70 Q 430 80 423 122 Q 420 152 383 179 L 368 188 Z" style="fill: #0070C0;"></path>
                                                                        <path d="M 660 641 Q 675 642 693 651 Q 756 678 770 671 Q 782 664 773 640 Q 739 538 730 525 Q 723 509 724 500 Q 723 487 746 481 Q 839 418 850 335 Q 850 305 839 293 Q 826 283 797 287 Q 754 294 718 300 Q 711 301 711 293 Q 714 286 729 275 Q 807 235 828 205 Q 835 192 849 190 Q 861 190 876 202 Q 913 250 914 307 Q 914 397 791 492 Q 758 507 781 545 Q 805 584 822 607 Q 841 638 867 653 Q 898 672 870 691 Q 830 724 806 733 Q 787 740 771 729 Q 750 711 662 678 Q 656 677 650 673 C 622 662 631 634 660 641 Z" style="fill: #0070C0;"></path>
                                                                        <path d="M 597 -26 Q 603 -51 610 -61 Q 616 -68 623 -66 Q 638 -57 644 3 Q 654 93 651 182 Q 651 198 650 571 Q 650 598 660 641 C 665 664 665 664 650 673 Q 616 695 601 698 Q 588 702 572 693 Q 563 686 571 675 Q 595 608 597 604 Q 597 282 594 181 Q 591 27 597 -26 Z" style="fill: #0070C0;"></path>
                                    
                                    
                                                                                                                                                                                                                                                                                                                                                                                                                                                                                                                                                                                                                                </g>
                            </svg>