<svg width='83' height='83' >
                                <g transform="translate(3, 70) scale(0.07, -0.07)">
                                    <!-- 先将完整的字以灰色字体绘制完成，层级位于下面 -->
                                                                        <path d="M 493 544 Q 503 593 513 626 L 530 670 Q 530 671 531 672 Q 544 703 564 721 Q 580 740 565 756 Q 549 769 497 791 Q 479 798 459 789 Q 372 750 232 731 Q 216 730 218 720 Q 221 713 238 707 Q 262 698 296 709 L 339 717 Q 459 748 471 738 Q 484 725 481 697 Q 477 678 474 659 L 466 618 Q 456 578 445 539 C 437 510 487 515 493 544 Z" style="fill: #0070C0;"></path>
                                                                        <path d="M 513 626 Q 540 630 569 633 Q 585 634 585 642 Q 586 654 570 663 Q 548 673 530 670 L 474 659 Q 404 646 353 634 L 296 623 Q 145 602 125 600 Q 113 599 110 592 Q 107 582 121 571 Q 158 544 197 556 Q 245 571 288 582 L 344 596 Q 368 605 466 618 L 513 626 Z" style="fill: #0070C0;"></path>
                                                                        <path d="M 310 469 Q 394 488 521 505 Q 531 506 532 516 Q 533 523 501 542 Q 497 543 493 544 L 445 539 Q 379 521 322 506 L 268 494 Q 217 484 174 476 Q 153 472 167 456 Q 174 447 184 444 Q 187 444 257 458 L 310 469 Z" style="fill: #0070C0;"></path>
                                                                        <path d="M 274 378 Q 292 420 310 469 L 322 506 Q 332 543 340 578 Q 341 588 344 596 L 353 634 Q 353 635 354 636 Q 358 652 364 666 Q 374 679 368 692 Q 358 705 339 717 C 315 735 293 739 296 709 Q 302 670 296 623 L 288 582 Q 279 537 268 494 L 257 458 Q 206 313 93 176 Q 87 170 85 165 Q 82 155 92 156 Q 125 156 211 266 Q 221 282 233 299 Q 240 312 249 327 L 274 378 Z" style="fill: #0070C0;"></path>
                                                                        <path d="M 277 377 Q 276 378 274 378 C 250 396 240 356 249 327 Q 265 279 275 211 Q 276 183 293 163 Q 309 142 315 157 Q 322 176 317 213 L 312 246 Q 302 325 300 349 C 297 379 296 388 277 377 Z" style="fill: #0070C0;"></path>
                                                                        <path d="M 495 276 Q 511 336 531 353 Q 555 380 530 395 Q 511 407 482 425 Q 461 437 418 411 Q 367 390 277 377 C 247 373 271 342 300 349 Q 346 361 411 374 Q 442 381 449 368 Q 455 364 450 336 Q 446 311 440 280 C 434 251 487 247 495 276 Z" style="fill: #0070C0;"></path>
                                                                        <path d="M 317 213 Q 324 213 332 214 Q 386 230 505 245 Q 515 246 517 256 Q 517 263 495 276 L 440 280 L 439 280 Q 369 258 312 246 C 283 240 287 212 317 213 Z" style="fill: #0070C0;"></path>
                                                                        <path d="M 683 652 Q 690 655 702 661 Q 742 677 776 690 Q 780 693 793 687 Q 803 680 796 658 Q 745 510 745 508 Q 745 496 766 490 Q 892 403 867 323 Q 863 317 859 312 Q 841 306 813 320 Q 773 342 735 358 Q 728 361 727 353 Q 728 346 740 332 Q 815 274 833 236 Q 840 220 854 215 Q 867 214 887 224 Q 923 270 924 324 Q 925 406 809 500 Q 770 518 828 601 Q 849 650 886 672 Q 914 691 888 708 Q 849 738 825 747 Q 809 751 793 742 Q 771 723 751 715 Q 717 702 678 686 C 650 675 656 640 683 652 Z" style="fill: #0070C0;"></path>
                                                                        <path d="M 621 -6 Q 627 -31 634 -41 Q 640 -48 647 -46 Q 662 -37 668 24 Q 678 112 675 201 Q 675 217 674 588 Q 674 603 683 652 C 688 678 688 678 678 686 Q 657 707 625 714 Q 612 718 596 709 Q 587 702 595 691 Q 619 624 621 621 Q 621 324 618 200 Q 615 46 621 -6 Z" style="fill: #0070C0;"></path>
                                    
                                    
                                                                                                                                                                                                                                                                                                                                                                                                                                                                                                                                                                                                                                                                                                                                                                                        </g>
                            </svg>