<svg width='83' height='83' >
                                <g transform="translate(3, 70) scale(0.07, -0.07)">
                                    <!-- 先将完整的字以灰色字体绘制完成，层级位于下面 -->
                                                                        <path d="M 166 658 Q 188 633 210 605 Q 220 592 234 591 Q 243 590 249 601 Q 255 613 251 640 Q 248 658 222 674 Q 162 707 148 703 Q 144 700 143 689 Q 144 679 166 658 Z" style="fill: #0070C0;"></path>
                                                                        <path d="M 457 730 Q 439 702 403 659 Q 399 653 403 647 Q 410 646 416 650 Q 486 693 519 711 Q 534 715 531 724 Q 527 737 510 753 Q 494 769 475 771 Q 462 771 463 755 Q 464 743 457 730 Z" style="fill: #0070C0;"></path>
                                                                        <path d="M 344 595 Q 362 656 372 730 Q 375 752 386 779 Q 392 789 384 797 Q 368 813 336 829 Q 317 839 301 834 Q 282 828 296 811 Q 335 769 310 650 Q 286 520 177 436 Q 165 430 157 422 Q 153 416 168 415 Q 192 411 260 461 Q 308 497 337 576 L 344 595 Z" style="fill: #0070C0;"></path>
                                                                        <path d="M 337 576 Q 343 572 358 560 Q 394 535 433 505 Q 443 496 455 498 Q 462 499 466 508 Q 467 520 460 541 Q 447 575 352 595 Q 348 596 344 595 C 314 592 314 592 337 576 Z" style="fill: #0070C0;"></path>
                                                                        <path d="M 133 325 Q 152 301 174 273 Q 184 260 198 259 Q 207 258 213 269 Q 219 281 215 308 Q 214 326 188 342 Q 128 373 116 371 Q 112 368 111 357 Q 112 347 133 325 Z" style="fill: #0070C0;"></path>
                                                                        <path d="M 442 412 Q 426 384 391 339 Q 387 333 391 327 Q 398 326 404 330 Q 471 378 505 395 Q 520 399 516 409 Q 510 422 494 437 Q 478 453 458 454 Q 446 453 447 437 Q 448 425 442 412 Z" style="fill: #0070C0;"></path>
                                                                        <path d="M 327 278 Q 333 342 352 394 Q 355 406 361 415 Q 370 431 354 440 Q 312 474 286 465 Q 273 461 280 447 Q 310 384 267 242 Q 219 116 120 56 Q 107 46 91 34 Q 79 27 91 23 Q 148 23 219 90 Q 285 147 320 253 L 327 278 Z" style="fill: #0070C0;"></path>
                                                                        <path d="M 320 253 Q 372 210 437 147 Q 452 129 466 126 Q 475 125 481 134 Q 491 147 478 186 Q 462 240 327 278 C 298 286 297 272 320 253 Z" style="fill: #0070C0;"></path>
                                                                        <path d="M 648 617 Q 655 620 666 625 Q 747 661 763 655 Q 773 648 766 628 Q 712 496 713 494 Q 712 482 734 474 Q 857 387 833 308 Q 829 304 825 298 Q 815 289 761 289 Q 697 295 699 285 Q 702 278 718 270 Q 800 240 822 212 Q 829 200 841 200 Q 851 201 864 212 Q 898 258 898 313 Q 895 400 777 484 Q 738 505 801 581 Q 804 588 810 594 Q 829 624 856 638 Q 884 656 859 674 Q 820 704 797 714 Q 781 720 764 709 Q 740 688 647 652 Q 644 652 626 645 C 598 635 621 605 648 617 Z" style="fill: #0070C0;"></path>
                                                                        <path d="M 586 -15 Q 592 -40 598 -49 Q 604 -56 611 -54 Q 627 -44 631 13 Q 635 59 636 300 Q 633 514 648 612 Q 648 615 648 617 C 650 631 650 631 626 645 Q 602 661 590 662 Q 577 666 562 658 Q 553 649 561 639 Q 565 629 572 619 Q 585 595 586 560 Q 589 412 583 178 Q 580 33 586 -15 Z" style="fill: #0070C0;"></path>
                                    
                                    
                                                                                                                                                                                                                                                                                                                                                                                                                                                                                                                                                                                                                                                                                                                                                                                                                                                                    </g>
                            </svg>