<svg width='83' height='83' >
                                <g transform="translate(3, 70) scale(0.07, -0.07)">
                                    <!-- 先将完整的字以灰色字体绘制完成，层级位于下面 -->
                                                                        <path d="M 245 738 Q 278 725 318 732 Q 411 748 507 765 Q 552 774 558 780 Q 565 787 562 794 Q 556 804 532 811 Q 510 817 404 787 Q 302 768 245 763 Q 238 763 235 761 C 206 755 217 748 245 738 Z" style="fill: #0070C0;"></path>
                                                                        <path d="M 311 671 Q 302 675 282 680 Q 273 683 270 680 Q 266 676 271 663 Q 290 612 299 531 Q 300 506 313 489 Q 325 473 329 484 Q 332 491 333 500 L 333 521 Q 333 528 332 537 Q 331 553 328 566 L 326 588 Q 322 625 320 642 C 317 669 317 669 311 671 Z" style="fill: #0070C0;"></path>
                                                                        <path d="M 449 518 Q 464 497 477 490 Q 486 484 498 502 Q 508 520 530 617 Q 536 642 554 664 Q 564 674 554 686 Q 541 699 505 719 Q 492 725 436 708 Q 346 684 311 671 C 283 661 292 630 320 642 Q 344 654 453 681 Q 471 685 477 680 Q 487 670 485 658 Q 473 565 463 549 C 452 521 448 519 449 518 Z" style="fill: #0070C0;"></path>
                                                                        <path d="M 328 566 Q 331 570 427 588 Q 445 592 437 602 Q 428 612 408 614 Q 383 615 326 588 C 299 575 301 553 328 566 Z" style="fill: #0070C0;"></path>
                                                                        <path d="M 384 507 Q 417 514 449 518 C 479 522 493 548 463 549 Q 447 550 416 543 Q 373 533 333 521 C 304 512 303 498 333 500 Q 340 500 356 503 L 384 507 Z" style="fill: #0070C0;"></path>
                                                                        <path d="M 383 427 Q 390 448 405 467 Q 412 473 410 480 Q 406 490 384 507 C 361 526 352 533 356 503 Q 363 482 343 421 L 328 385 Q 304 342 307 332 Q 308 325 322 322 Q 365 310 387 296 L 419 279 Q 450 260 493 228 Q 514 215 527 215 Q 543 216 542 232 Q 541 247 517 280 Q 505 299 449 315 L 409 326 Q 376 336 355 339 Q 340 342 348 356 Q 357 377 365 392 L 383 427 Z" style="fill: #0070C0;"></path>
                                                                        <path d="M 493 451 Q 490 455 487 457 Q 474 470 458 470 Q 448 469 449 457 Q 450 450 451 441 L 444 405 Q 443 404 443 401 Q 433 367 409 327 Q 408 327 409 326 L 387 296 Q 332 244 259 218 Q 249 214 256 210 Q 295 200 357 231 Q 381 243 419 279 L 449 315 Q 459 331 467 348 Q 494 403 503 413 C 515 430 514 430 493 451 Z" style="fill: #0070C0;"></path>
                                                                        <path d="M 503 413 Q 540 419 573 422 Q 582 421 589 431 Q 590 440 572 449 Q 539 465 493 451 L 451 441 Q 439 440 429 437 Q 405 433 383 427 L 343 421 Q 334 421 244 411 Q 220 408 238 394 Q 265 376 300 381 Q 312 384 328 385 L 365 392 Q 401 399 444 405 L 503 413 Z" style="fill: #0070C0;"></path>
                                                                        <path d="M 235 761 Q 225 771 200 784 Q 179 794 171 788 Q 164 781 171 767 Q 210 685 169 273 Q 159 177 137 142 Q 127 129 135 108 Q 142 87 152 79 Q 162 72 179 83 Q 275 146 541 147 Q 565 147 565 158 Q 565 171 538 191 Q 523 203 419 184 Q 389 180 362 176 Q 304 172 233 158 Q 206 152 212 207 Q 222 402 234 645 Q 235 729 245 738 C 249 752 249 752 235 761 Z" style="fill: #0070C0;"></path>
                                                                        <path d="M 675 635 Q 687 639 701 646 Q 740 662 773 676 Q 777 679 787 674 Q 797 667 790 648 Q 736 516 737 514 Q 736 502 758 494 Q 845 434 857 355 Q 857 325 846 314 Q 833 304 806 306 Q 764 310 729 312 Q 722 313 723 305 Q 780 269 837 232 Q 838 232 840 229 Q 849 217 860 217 Q 870 217 883 228 Q 920 274 919 329 Q 919 416 801 504 Q 762 525 825 601 Q 828 608 834 614 Q 853 644 880 658 Q 908 676 882 694 Q 845 724 821 733 Q 803 739 788 728 Q 761 707 660 665 C 632 653 647 623 675 635 Z" style="fill: #0070C0;"></path>
                                                                        <path d="M 618 -7 Q 622 -32 630 -41 Q 636 -48 643 -46 Q 659 -36 663 21 Q 672 106 668 192 Q 667 223 666 565 Q 666 577 675 635 C 678 654 678 654 660 665 Q 632 684 618 686 Q 606 690 590 681 Q 581 674 589 663 Q 613 606 615 591 Q 615 18 618 -7 Z" style="fill: #0070C0;"></path>
                                    
                                    
                                                                                                                                                                                                                                                                                                                                                                                                                                                                                                                                                                                                                                                                                                                                                                                                                                                                                                                                                </g>
                            </svg>