<svg width='83' height='83' >
                                <g transform="translate(3, 70) scale(0.07, -0.07)">
                                    <!-- 先将完整的字以灰色字体绘制完成，层级位于下面 -->
                                                                        <path d="M 260 756 Q 250 760 225 764 Q 215 767 211 762 Q 205 756 213 741 Q 237 695 252 620 Q 255 598 269 583 Q 285 562 290 577 Q 291 583 293 591 L 293 618 Q 283 651 277 728 C 275 751 275 751 260 756 Z" style="fill: #0070C0;"></path>
                                                                        <path d="M 481 647 Q 508 722 538 740 Q 554 756 540 773 Q 471 827 418 797 Q 337 770 260 756 C 231 750 248 722 277 728 Q 280 728 431 761 Q 447 765 453 758 Q 460 751 458 735 Q 448 692 436 655 C 427 626 471 619 481 647 Z" style="fill: #0070C0;"></path>
                                                                        <path d="M 338 594 Q 389 607 490 619 Q 500 620 501 629 Q 501 636 481 647 L 436 655 Q 432 655 428 653 Q 353 631 293 618 C 264 612 264 600 293 591 Q 294 590 298 589 Q 302 589 306 589 L 338 594 Z" style="fill: #0070C0;"></path>
                                                                        <path d="M 340 490 Q 380 506 572 528 Q 588 529 589 537 Q 590 550 573 559 Q 546 571 524 566 Q 424 545 358 531 L 308 521 Q 161 499 106 494 Q 93 493 90 485 Q 86 475 101 463 Q 135 438 190 450 Q 248 468 299 480 L 340 490 Z" style="fill: #0070C0;"></path>
                                                                        <path d="M 309 421 Q 310 425 314 431 Q 327 458 340 490 L 358 531 Q 362 541 369 550 Q 379 560 372 569 Q 362 582 338 594 C 311 608 293 616 306 589 Q 306 588 309 583 Q 316 564 308 521 L 299 480 Q 286 437 280 415 C 272 386 297 393 309 421 Z" style="fill: #0070C0;"></path>
                                                                        <path d="M 193 395 Q 181 401 157 405 Q 144 409 141 404 Q 134 398 142 382 Q 175 301 190 173 Q 191 134 212 108 Q 228 86 235 101 Q 238 111 240 125 L 240 148 Q 239 164 236 185 Q 214 326 210 364 C 207 389 207 389 193 395 Z" style="fill: #0070C0;"></path>
                                                                        <path d="M 458 157 Q 477 132 493 125 Q 503 118 519 140 Q 535 171 561 335 Q 568 366 592 393 Q 605 406 592 420 Q 576 436 532 462 Q 514 469 423 445 Q 413 445 309 421 L 280 415 Q 231 405 193 395 C 164 388 181 355 210 364 Q 295 391 447 418 Q 481 424 493 413 Q 509 395 507 377 Q 486 209 468 190 C 455 163 454 162 458 157 Z" style="fill: #0070C0;"></path>
                                                                        <path d="M 282 335 Q 275 338 262 340 Q 252 341 250 338 Q 246 334 252 322 Q 268 288 280 229 Q 281 213 292 201 Q 305 185 309 196 Q 310 203 312 215 L 310 241 Q 301 301 301 315 C 300 328 300 328 282 335 Z" style="fill: #0070C0;"></path>
                                                                        <path d="M 420 262 Q 432 304 446 317 Q 462 338 445 349 Q 429 356 408 370 Q 392 379 378 369 Q 362 357 338 350 Q 313 343 282 335 C 253 327 273 305 301 315 Q 316 321 365 330 Q 381 333 384 327 Q 390 321 378 261 C 372 232 411 233 420 262 Z" style="fill: #0070C0;"></path>
                                                                        <path d="M 312 215 Q 318 214 326 216 Q 360 226 436 235 Q 443 236 445 244 Q 445 250 420 262 L 378 261 Q 341 251 310 241 C 281 232 282 217 312 215 Z" style="fill: #0070C0;"></path>
                                                                        <path d="M 240 125 Q 247 124 260 126 Q 371 145 458 157 C 488 161 498 187 468 190 Q 452 193 419 185 Q 323 166 240 148 C 211 142 210 126 240 125 Z" style="fill: #0070C0;"></path>
                                                                        <path d="M 702 626 Q 715 635 789 661 Q 793 664 805 658 Q 817 651 808 628 Q 780 546 770 529 Q 763 513 764 505 Q 763 492 786 485 Q 906 388 878 299 Q 874 293 868 286 Q 855 276 827 280 Q 785 287 750 292 Q 743 293 743 285 Q 746 278 761 267 Q 840 224 855 198 Q 862 185 875 183 Q 887 182 901 193 Q 943 241 946 299 Q 953 386 831 496 Q 786 520 859 599 Q 878 629 903 641 Q 933 660 906 679 Q 866 710 841 721 Q 822 727 807 716 Q 786 698 692 660 C 664 649 675 613 702 626 Z" style="fill: #0070C0;"></path>
                                                                        <path d="M 640 -45 Q 646 -70 653 -81 Q 660 -88 667 -86 Q 682 -77 689 -14 Q 698 77 694 165 Q 693 198 692 557 Q 692 582 702 626 C 707 651 707 651 692 660 Q 658 682 640 686 Q 627 690 610 681 Q 601 672 609 661 Q 634 616 637 575 Q 641 415 635 164 Q 634 8 640 -45 Z" style="fill: #0070C0;"></path>
                                    
                                    
                                                                                                                                                                                                                                                                                                                                                                                                                                                                                                                                                                                                                                                                                                                                                                                                                                                                                                                                                                                                                                                                                                        </g>
                            </svg>