<svg width='83' height='83' >
                                <g transform="translate(3, 70) scale(0.07, -0.07)">
                                    <!-- 先将完整的字以灰色字体绘制完成，层级位于下面 -->
                                                                        <path d="M 359 759 Q 381 737 406 710 Q 418 697 433 696 Q 443 696 449 709 Q 453 722 447 752 Q 443 770 415 784 Q 354 811 336 807 Q 332 803 332 791 Q 335 781 359 759 Z" style="fill: #0070C0;"></path>
                                                                        <path d="M 605 812 Q 593 790 526 691 Q 516 673 534 678 Q 553 691 653 769 Q 671 787 695 800 Q 717 812 704 830 Q 689 846 660 860 Q 635 872 621 868 Q 608 865 613 852 Q 617 833 605 812 Z" style="fill: #0070C0;"></path>
                                                                        <path d="M 583 605 Q 686 629 902 612 Q 924 609 930 618 Q 937 631 926 642 Q 860 700 798 680 Q 686 659 483 635 Q 138 599 124 598 Q 117 599 110 598 Q 97 598 96 587 Q 95 575 113 562 Q 129 550 159 539 Q 169 535 187 543 Q 239 562 398 585 L 442 591 Q 484 600 521 600 L 583 605 Z" style="fill: #0070C0;"></path>
                                                                        <path d="M 315 453 Q 296 469 271 477 Q 261 478 255 470 Q 252 464 259 454 Q 296 370 265 165 Q 244 89 248 72 Q 257 38 268 25 Q 280 10 290 25 Q 300 37 307 60 L 314 95 Q 318 128 323 259 Q 327 382 333 418 C 336 438 336 438 315 453 Z" style="fill: #0070C0;"></path>
                                                                        <path d="M 641 84 Q 677 39 702 -2 Q 712 -21 724 -21 Q 742 -20 759 17 Q 778 60 775 111 Q 766 205 759 381 Q 758 415 776 439 Q 786 454 777 465 Q 756 487 699 514 Q 680 524 662 514 Q 619 498 567 485 L 532 477 Q 504 473 474 468 Q 464 467 456 465 L 415 460 Q 351 453 315 453 C 285 452 303 415 333 418 Q 351 418 379 424 Q 395 427 413 429 L 452 435 Q 489 442 530 448 L 563 453 Q 654 474 682 451 Q 715 423 696 114 Q 690 96 676 99 C 653 80 634 93 641 84 Z" style="fill: #0070C0;"></path>
                                                                        <path d="M 398 585 Q 419 564 415 460 L 413 429 Q 412 408 363 262 Q 362 255 369 257 Q 390 264 431 347 Q 431 350 433 352 Q 445 386 451 425 Q 451 429 452 435 L 456 465 Q 459 513 459 542 Q 463 575 460 580 Q 453 587 442 591 C 415 604 381 610 398 585 Z" style="fill: #0070C0;"></path>
                                                                        <path d="M 567 485 Q 571 531 587 584 Q 591 597 584 605 L 583 605 C 570 632 508 627 521 600 Q 536 582 532 477 L 530 448 Q 521 328 555 302 Q 568 287 632 286 Q 660 285 671 297 Q 680 306 675 312 Q 669 318 603 329 Q 554 335 563 453 L 567 485 Z" style="fill: #0070C0;"></path>
                                                                        <path d="M 392 214 Q 374 210 395 194 Q 405 187 426 188 Q 526 201 600 207 Q 625 210 617 224 Q 607 240 580 246 Q 555 250 511 241 Q 447 225 392 214 Z" style="fill: #0070C0;"></path>
                                                                        <path d="M 307 60 Q 317 59 330 59 Q 430 77 641 84 C 671 85 686 86 676 99 Q 672 109 648 126 Q 632 136 599 131 Q 440 103 314 95 C 284 93 277 62 307 60 Z" style="fill: #0070C0;"></path>
                                    
                                    
                                                                                                                                                                                                                                                                                                                                                                                                                                                                                                                                                                                                                                                                                                                                                                                        </g>
                            </svg>