<svg width='83' height='83' >
                                <g transform="translate(3, 70) scale(0.07, -0.07)">
                                    <!-- 先将完整的字以灰色字体绘制完成，层级位于下面 -->
                                                                        <path d="M 337 710 Q 445 735 451 741 Q 460 748 455 757 Q 448 767 420 775 Q 390 779 362 768 Q 316 752 267 740 Q 212 727 149 720 Q 113 714 139 698 Q 167 682 206 684 L 242 689 Q 267 696 294 701 L 337 710 Z" style="fill: #0070C0;"></path>
                                                                        <path d="M 149 554 Q 130 570 107 577 Q 98 578 93 571 Q 90 567 97 556 Q 136 436 105 258 Q 89 189 92 177 Q 99 147 110 135 Q 120 123 129 136 Q 138 146 143 166 L 149 199 Q 150 217 156 366 Q 156 492 162 526 C 164 543 164 543 149 554 Z" style="fill: #0070C0;"></path>
                                                                        <path d="M 354 187 Q 384 150 404 114 Q 411 99 421 100 Q 434 101 448 128 Q 461 155 462 186 L 462 201 Q 441 519 467 555 Q 474 567 467 575 Q 451 591 406 612 Q 394 618 339 596 L 308 586 Q 283 580 258 573 L 223 566 Q 177 559 149 554 C 119 549 133 519 162 526 Q 210 538 221 539 L 256 547 Q 281 554 307 558 L 336 564 Q 375 579 396 564 Q 409 551 411 441 L 411 424 Q 411 298 400 203 Q 396 187 381 195 Q 378 196 375 198 C 345 200 344 200 354 187 Z" style="fill: #0070C0;"></path>
                                                                        <path d="M 206 684 Q 227 663 223 566 L 221 539 Q 218 464 174 377 Q 171 373 171 369 Q 170 362 176 364 Q 197 367 234 452 Q 234 455 236 457 Q 245 490 256 547 L 258 573 Q 259 598 260 644 Q 263 672 261 679 Q 254 685 242 689 C 214 700 189 709 206 684 Z" style="fill: #0070C0;"></path>
                                                                        <path d="M 339 596 Q 342 638 356 684 Q 360 696 353 702 Q 346 706 337 710 C 310 723 278 727 294 701 Q 312 683 308 586 L 307 558 Q 298 444 332 416 Q 341 409 379 411 Q 401 412 411 424 C 426 436 426 436 411 441 Q 404 445 394 445 Q 360 445 354 450 Q 329 469 336 564 L 339 596 Z" style="fill: #0070C0;"></path>
                                                                        <path d="M 191 308 Q 175 305 194 291 Q 201 285 217 287 Q 292 299 347 305 Q 369 309 361 321 Q 351 334 327 339 Q 303 342 191 308 Z" style="fill: #0070C0;"></path>
                                                                        <path d="M 143 166 Q 150 165 160 167 Q 221 180 354 187 C 380 188 380 188 375 198 Q 372 208 348 224 Q 333 233 304 226 Q 219 207 149 199 C 119 195 113 167 143 166 Z" style="fill: #0070C0;"></path>
                                                                        <path d="M 659 695 Q 722 731 781 748 Q 797 749 800 758 Q 803 768 791 778 Q 728 817 699 809 Q 692 805 692 794 Q 695 755 496 647 Q 492 638 498 636 Q 517 636 601 672 Q 607 675 616 677 L 659 695 Z" style="fill: #0070C0;"></path>
                                                                        <path d="M 687 508 Q 714 517 840 539 Q 850 538 858 551 Q 859 561 837 571 Q 795 587 724 560 Q 705 556 686 548 L 643 537 Q 594 528 487 507 Q 459 503 481 487 Q 514 466 551 475 Q 584 484 626 493 L 687 508 Z" style="fill: #0070C0;"></path>
                                                                        <path d="M 644 428 Q 644 193 631 132 Q 615 74 638 22 Q 638 21 639 19 Q 645 3 652 1 Q 658 -5 664 2 Q 671 6 680 25 Q 687 47 687 74 Q 686 114 685 465 L 686 548 Q 689 600 700 638 Q 707 651 704 664 Q 698 671 659 695 C 634 711 601 703 616 677 Q 640 641 641 604 Q 642 573 643 537 L 644 428 Z" style="fill: #0070C0;"></path>
                                                                        <path d="M 462 186 Q 484 186 572 301 Q 611 353 644 428 C 684 517 636 521 626 493 Q 605 435 577 380 Q 543 317 462 201 C 448 181 448 181 462 186 Z" style="fill: #0070C0;"></path>
                                                                        <path d="M 685 465 Q 809 228 854 223 Q 906 226 953 228 Q 972 228 972 233 Q 973 239 953 252 Q 838 318 798 363 Q 726 441 687 508 L 686 508 C 667 531 671 492 685 465 Z" style="fill: #0070C0;"></path>
                                    
                                    
                                                                                                                                                                                                                                                                                                                                                                                                                                                                                                                                                                                                                                                                                                                                                                                                                                                                                                                                                                                                                            </g>
                            </svg>