<svg width='83' height='83' >
                                <g transform="translate(3, 70) scale(0.07, -0.07)">
                                    <!-- 先将完整的字以灰色字体绘制完成，层级位于下面 -->
                                                                        <path d="M 320 693 Q 354 703 395 711 Q 434 721 439 726 Q 448 733 443 741 Q 436 751 410 758 Q 385 762 276 726 Q 168 705 148 702 Q 114 696 139 681 Q 167 666 201 668 L 229 673 Q 257 680 288 686 L 320 693 Z" style="fill: #0070C0;"></path>
                                                                        <path d="M 160 541 Q 153 554 123 565 Q 114 569 103 566 Q 96 562 102 550 Q 103 541 107 533 Q 128 494 112 275 Q 96 178 96 174 Q 96 152 119 125 Q 128 113 138 124 Q 147 136 149 151 L 152 183 Q 153 201 154 224 Q 163 510 166 515 C 168 533 168 533 160 541 Z" style="fill: #0070C0;"></path>
                                                                        <path d="M 359 169 Q 383 139 400 110 Q 407 95 417 96 Q 430 97 444 125 Q 459 158 456 197 Q 449 303 443 498 Q 442 523 456 542 Q 463 554 455 562 Q 439 578 396 597 Q 381 603 335 583 L 302 572 Q 280 568 259 560 L 224 553 Q 184 546 160 541 C 131 535 136 510 166 515 Q 179 516 206 523 Q 215 526 224 527 L 258 534 Q 279 540 301 544 L 330 551 Q 364 566 385 552 Q 413 524 395 199 Q 391 186 378 188 C 356 173 356 173 359 169 Z" style="fill: #0070C0;"></path>
                                                                        <path d="M 201 668 Q 219 629 224 553 L 224 527 Q 224 458 184 362 Q 183 361 182 357 Q 182 350 188 352 Q 194 353 212 381 Q 255 447 257 529 Q 257 532 258 534 L 259 560 Q 259 617 258 626 Q 258 635 259 642 Q 263 652 258 660 Q 248 669 229 673 C 200 681 195 682 201 668 Z" style="fill: #0070C0;"></path>
                                                                        <path d="M 335 583 Q 339 622 352 664 Q 356 674 349 682 Q 339 688 320 693 C 291 701 280 705 288 686 Q 303 656 303 594 Q 302 584 302 572 L 301 544 Q 286 415 324 384 Q 330 378 358 378 Q 383 378 392 390 Q 399 397 394 404 Q 339 417 334 435 Q 322 462 330 551 L 335 583 Z" style="fill: #0070C0;"></path>
                                                                        <path d="M 191 301 Q 175 297 195 283 Q 202 279 217 280 Q 287 292 339 299 Q 363 303 353 316 Q 343 331 317 334 Q 290 337 191 301 Z" style="fill: #0070C0;"></path>
                                                                        <path d="M 149 151 Q 161 148 175 150 Q 233 163 359 169 C 389 170 394 171 378 188 Q 371 197 354 208 Q 338 218 307 211 Q 222 192 152 183 C 122 179 119 156 149 151 Z" style="fill: #0070C0;"></path>
                                                                        <path d="M 658 780 Q 609 726 492 659 Q 488 650 493 648 Q 515 648 653 716 Q 701 749 751 764 Q 766 765 768 773 Q 771 783 759 792 Q 707 822 673 817 Q 666 813 667 803 Q 668 790 658 780 Z" style="fill: #0070C0;"></path>
                                                                        <path d="M 520 577 Q 571 511 579 509 Q 588 508 593 517 Q 600 527 598 551 Q 595 576 525 614 Q 513 620 508 618 Q 504 617 503 606 Q 504 597 520 577 Z" style="fill: #0070C0;"></path>
                                                                        <path d="M 611 639 Q 650 570 671 564 Q 683 561 691 576 Q 694 586 689 606 Q 683 622 663 634 Q 633 656 619 661 Q 612 665 609 655 Q 606 648 611 639 Z" style="fill: #0070C0;"></path>
                                                                        <path d="M 800 654 Q 796 648 715 557 Q 705 542 721 544 Q 766 568 837 610 Q 856 623 879 632 Q 900 639 891 657 Q 879 673 855 689 Q 834 704 822 702 Q 809 701 813 688 Q 814 670 800 654 Z" style="fill: #0070C0;"></path>
                                                                        <path d="M 749 389 Q 803 393 876 394 Q 925 394 932 403 Q 936 413 921 427 Q 867 466 800 445 Q 776 441 750 434 L 698 423 L 475 389 Q 456 386 470 371 Q 483 358 501 354 Q 520 350 535 354 Q 619 378 700 385 L 749 389 Z" style="fill: #0070C0;"></path>
                                                                        <path d="M 670 105 Q 633 114 598 123 Q 586 126 587 118 Q 588 112 598 104 Q 671 43 698 5 Q 711 -11 727 3 Q 757 36 758 117 Q 754 174 749 389 L 750 434 Q 751 452 758 466 Q 765 484 750 496 Q 725 515 697 525 Q 679 531 672 523 Q 666 517 677 502 Q 698 466 698 423 L 700 385 Q 712 124 690 107 Q 683 101 670 105 Z" style="fill: #0070C0;"></path>
                                                                        <path d="M 549 285 Q 568 261 590 233 Q 600 220 614 219 Q 623 218 629 229 Q 635 241 631 268 Q 630 286 604 302 Q 544 333 532 331 Q 528 328 527 317 Q 528 307 549 285 Z" style="fill: #0070C0;"></path>
                                    
                                    
                                                                                                                                                                                                                                                                                                                                                                                                                                                                                                                                                                                                                                                                                                                                                                                                                                                                                                                                                                                                                                                                                                                                                                                    </g>
                            </svg>