<svg width='83' height='83' >
                                <g transform="translate(3, 70) scale(0.07, -0.07)">
                                    <!-- 先将完整的字以灰色字体绘制完成，层级位于下面 -->
                                                                        <path d="M 371 698 Q 390 725 409 744 Q 414 749 416 754 Q 420 772 378 808 Q 351 826 331 825 Q 312 823 319 801 Q 335 765 321 735 Q 306 697 284 659 Q 212 519 71 353 Q 61 342 59 336 Q 58 335 58 334 Q 55 324 69 327 Q 122 333 284 559 Q 345 647 357 674 L 371 698 Z" style="fill: #0070C0;"></path>
                                                                        <path d="M 357 674 Q 364 668 372 662 Q 426 623 462 595 Q 472 586 482 586 Q 496 585 499 598 Q 503 612 494 635 Q 482 672 371 698 C 342 705 334 693 357 674 Z" style="fill: #0070C0;"></path>
                                                                        <path d="M 339 447 Q 455 484 456 484 Q 463 494 458 502 Q 454 508 439 514 Q 400 527 359 506 Q 305 480 235 468 Q 225 466 220 463 Q 204 454 225 445 Q 255 433 298 435 L 339 447 Z" style="fill: #0070C0;"></path>
                                                                        <path d="M 312 349 L 184 310 Q 166 305 190 288 Q 203 278 229 285 L 312 304 L 361 316 Q 419 329 456 336 Q 483 342 472 357 Q 443 391 363 367 L 312 349 Z" style="fill: #0070C0;"></path>
                                                                        <path d="M 363 367 L 366 410 Q 365 427 339 447 C 316 466 288 463 298 435 Q 307 416 312 349 L 312 304 L 312 110 C 312 80 354 92 355 122 Q 357 229 361 316 L 363 367 Z" style="fill: #0070C0;"></path>
                                                                        <path d="M 161 225 Q 163 218 173 207 Q 210 172 231 149 Q 241 137 256 137 Q 258 137 260 138 Q 278 144 269 188 Q 264 206 239 219 Q 178 244 165 239 Q 161 236 161 225 Z" style="fill: #0070C0;"></path>
                                                                        <path d="M 427 280 Q 429 276 429 271 Q 427 253 388 188 Q 383 180 388 175 Q 395 175 400 180 Q 459 229 486 247 L 490 249 Q 508 261 472 286 Q 455 300 437 298 Q 424 298 427 280 Z" style="fill: #0070C0;"></path>
                                                                        <path d="M 312 110 L 174 74 Q 154 67 117 69 Q 103 67 100 57 Q 97 44 108 34 Q 127 20 165 -3 Q 174 -7 188 2 Q 190 4 192 5 Q 227 27 357 80 Q 472 127 494 143 Q 508 151 508 161 Q 504 167 490 165 L 355 122 L 312 110 Z" style="fill: #0070C0;"></path>
                                    
                                    
                                                                                                                                                                                                                                                                                                                                                                                                                                                                                                                                                                                                                                                                                                            </g>
                            </svg>