<svg width='83' height='83' >
                                <g transform="translate(3, 70) scale(0.07, -0.07)">
                                    <!-- 先将完整的字以灰色字体绘制完成，层级位于下面 -->
                                                                        <path d="M 200 485 Q 200 486 201 486 Q 243 538 326 675 L 338 695 Q 351 714 364 727 Q 373 737 368 752 Q 364 765 334 787 Q 306 806 287 805 Q 268 802 277 780 Q 292 749 280 723 Q 220 570 70 379 Q 60 369 58 363 Q 55 351 69 354 Q 102 363 183 463 L 200 485 Z" style="fill: #0070C0;"></path>
                                                                        <path d="M 326 675 Q 332 669 347 658 Q 380 636 415 609 Q 425 599 438 601 Q 445 602 449 612 Q 452 624 444 646 Q 432 679 341 695 Q 340 696 338 695 C 308 697 304 695 326 675 Z" style="fill: #0070C0;"></path>
                                                                        <path d="M 297 464 Q 336 476 379 486 Q 401 493 405 497 Q 412 504 408 513 Q 401 523 371 528 Q 343 532 314 518 Q 289 508 261 499 Q 233 492 200 485 C 171 479 155 473 183 463 Q 214 451 260 453 L 297 464 Z" style="fill: #0070C0;"></path>
                                                                        <path d="M 324 345 Q 346 352 373 358 Q 404 367 408 372 Q 415 379 411 386 Q 404 396 379 401 Q 354 404 328 393 Q 327 393 326 392 L 274 373 Q 219 358 166 349 Q 135 342 158 328 Q 188 312 275 332 L 324 345 Z" style="fill: #0070C0;"></path>
                                                                        <path d="M 317 167 Q 320 266 324 345 L 326 392 Q 329 435 325 441 Q 312 454 297 464 C 273 481 249 481 260 453 Q 269 437 274 373 L 275 332 Q 275 271 275 155 C 275 125 316 137 317 167 Z" style="fill: #0070C0;"></path>
                                                                        <path d="M 150 260 Q 190 185 208 181 Q 218 177 227 191 Q 231 201 227 219 Q 221 237 202 250 Q 172 275 159 281 Q 152 284 148 275 Q 147 268 150 260 Z" style="fill: #0070C0;"></path>
                                                                        <path d="M 378 290 Q 371 271 354 237 Q 351 231 355 227 Q 361 227 366 231 Q 409 268 432 283 Q 444 289 440 296 Q 434 306 418 317 Q 402 327 387 327 Q 377 326 379 311 Q 382 302 378 290 Z" style="fill: #0070C0;"></path>
                                                                        <path d="M 275 155 Q 230 143 184 129 Q 168 125 141 125 Q 128 124 126 112 Q 125 99 134 90 Q 158 74 192 55 Q 202 52 215 62 Q 237 81 386 157 Q 405 167 421 179 Q 434 186 434 196 Q 428 202 416 199 Q 368 184 317 167 L 275 155 Z" style="fill: #0070C0;"></path>
                                                                        <path d="M 763 614 Q 646 602 588 585 Q 555 578 572 603 Q 585 624 623 672 Q 681 748 692 757 Q 701 764 705 772 Q 709 785 688 800 Q 652 824 626 824 Q 613 824 606 817 Q 603 810 612 802 Q 648 756 520 594 Q 463 569 483 518 Q 492 496 505 496 Q 509 497 526 509 Q 610 563 731 584 Q 770 593 781 590 C 811 590 793 617 763 614 Z" style="fill: #0070C0;"></path>
                                                                        <path d="M 781 590 Q 797 569 814 545 Q 824 530 839 527 Q 849 526 857 537 Q 864 550 862 580 Q 859 620 757 674 Q 744 680 736 679 Q 732 676 730 664 Q 730 655 763 614 L 781 590 Z" style="fill: #0070C0;"></path>
                                                                        <path d="M 561 396 Q 573 418 585 438 Q 592 448 580 459 Q 543 481 524 476 Q 517 475 519 463 Q 534 403 485 337 Q 473 321 468 310 Q 462 297 474 302 Q 510 308 552 380 L 561 396 Z" style="fill: #0070C0;"></path>
                                                                        <path d="M 706 385 Q 817 416 820 418 Q 827 425 823 433 Q 816 443 789 449 Q 761 453 707 430 L 652 413 Q 562 398 561 396 C 534 388 534 388 552 380 Q 600 356 648 371 Q 649 372 653 372 L 706 385 Z" style="fill: #0070C0;"></path>
                                                                        <path d="M 705 234 Q 772 241 870 244 Q 922 244 928 254 Q 932 266 917 278 Q 860 317 801 298 Q 759 289 705 277 L 653 268 Q 560 252 451 234 Q 432 231 447 215 Q 460 202 478 198 Q 499 194 514 198 Q 578 217 653 227 L 705 234 Z" style="fill: #0070C0;"></path>
                                                                        <path d="M 653 227 Q 654 187 654 140 Q 654 -25 670 -49 Q 676 -56 683 -54 Q 698 -45 702 11 Q 703 38 705 234 L 705 277 Q 705 325 706 385 L 707 430 Q 707 442 715 486 Q 718 502 705 511 Q 674 532 659 534 Q 647 538 632 530 Q 623 523 631 512 Q 652 476 652 413 L 653 372 Q 653 326 653 268 L 653 227 Z" style="fill: #0070C0;"></path>
                                    
                                    
                                                                                                                                                                                                                                                                                                                                                                                                                                                                                                                                                                                                                                                                                                                                                                                                                                                                                                                                                                                                                                                                                                                                                                                    </g>
                            </svg>