<svg width='83' height='83' >
                                <g transform="translate(3, 70) scale(0.07, -0.07)">
                                    <!-- 先将完整的字以灰色字体绘制完成，层级位于下面 -->
                                                                        <path d="M 464 683 Q 482 725 504 738 Q 517 753 505 766 Q 492 776 452 795 Q 439 799 421 793 Q 385 775 312 754 C 283 746 287 723 316 729 Q 319 729 420 753 Q 429 756 433 752 Q 439 748 437 736 Q 430 708 422 683 C 413 654 452 656 464 683 Z" style="fill: #0070C0;"></path>
                                                                        <path d="M 295 631 L 297 630 Q 304 629 314 631 Q 365 644 476 658 Q 483 659 484 665 Q 484 671 464 683 C 451 691 451 691 422 683 Q 355 665 300 654 C 271 648 266 637 295 631 Z" style="fill: #0070C0;"></path>
                                                                        <path d="M 276 562 Q 286 593 295 631 L 300 654 Q 303 670 306 686 Q 310 708 316 729 C 321 749 321 749 312 754 Q 303 761 281 767 Q 262 771 254 769 Q 244 763 248 751 Q 293 601 120 383 Q 116 376 122 374 Q 128 373 136 379 Q 221 440 263 530 L 276 562 Z" style="fill: #0070C0;"></path>
                                                                        <path d="M 297 556 Q 290 560 276 562 C 249 566 253 558 263 530 Q 278 491 286 433 Q 287 412 300 398 Q 313 380 317 392 Q 321 405 321 426 L 318 455 Q 311 518 311 534 C 311 550 311 550 297 556 Z" style="fill: #0070C0;"></path>
                                                                        <path d="M 458 475 Q 468 524 484 540 Q 503 562 483 573 Q 467 582 443 596 Q 427 605 412 595 Q 375 571 297 556 C 268 550 282 527 311 534 Q 351 543 393 553 Q 412 557 418 549 Q 424 545 420 522 Q 417 503 413 480 C 408 450 452 446 458 475 Z" style="fill: #0070C0;"></path>
                                                                        <path d="M 321 426 Q 328 425 337 427 Q 377 437 467 449 Q 476 450 477 458 Q 477 464 458 475 C 446 482 443 482 413 480 Q 412 481 409 480 Q 360 464 318 455 C 289 449 291 428 321 426 Z" style="fill: #0070C0;"></path>
                                                                        <path d="M 629 812 Q 650 799 671 782 Q 683 775 695 776 Q 702 777 705 788 Q 708 800 697 822 Q 691 835 668 842 Q 617 852 603 847 Q 600 843 603 833 Q 607 826 629 812 Z" style="fill: #0070C0;"></path>
                                                                        <path d="M 721 730 Q 743 736 768 739 Q 801 745 806 749 Q 813 756 810 762 Q 804 772 781 779 Q 757 785 733 776 Q 696 766 654 756 Q 609 749 556 745 Q 526 742 547 727 Q 575 709 640 719 Q 670 725 703 727 L 721 730 Z" style="fill: #0070C0;"></path>
                                                                        <path d="M 579 662 Q 603 632 619 624 Q 626 621 633 629 Q 637 636 636 646 Q 632 668 588 683 Q 578 687 573 685 Q 569 684 570 677 Q 571 670 579 662 Z" style="fill: #0070C0;"></path>
                                                                        <path d="M 709 624 Q 730 651 753 680 Q 765 689 759 697 Q 752 710 731 726 Q 727 730 721 730 C 703 733 703 733 703 727 Q 702 724 704 718 Q 711 702 689 637 Q 685 627 682 619 C 671 591 691 600 709 624 Z" style="fill: #0070C0;"></path>
                                                                        <path d="M 672 586 Q 729 596 845 597 Q 860 598 863 604 Q 867 613 854 622 Q 809 652 755 634 Q 734 631 709 624 L 682 619 Q 675 619 669 617 Q 602 605 520 592 Q 505 591 517 578 Q 527 569 540 565 Q 555 562 566 566 Q 597 575 632 580 L 672 586 Z" style="fill: #0070C0;"></path>
                                                                        <path d="M 685 496 Q 743 505 794 510 Q 816 511 809 525 Q 799 538 776 544 Q 749 550 688 534 L 641 524 Q 595 517 556 508 Q 540 505 558 490 Q 568 481 593 484 Q 617 488 641 490 L 685 496 Z" style="fill: #0070C0;"></path>
                                                                        <path d="M 645 399 Q 648 381 653 374 Q 657 370 662 371 Q 678 383 685 496 L 688 534 Q 688 535 689 537 Q 690 544 691 548 Q 692 554 693 558 Q 696 570 686 577 Q 679 583 672 586 C 645 600 622 608 632 580 Q 636 576 641 524 L 641 490 Q 642 474 642 453 Q 643 413 645 399 Z" style="fill: #0070C0;"></path>
                                                                        <path d="M 546 405 Q 547 409 547 412 Q 546 424 525 434 Q 501 447 490 445 Q 483 445 479 434 Q 437 326 142 166 Q 121 156 146 155 Q 252 155 447 315 Q 474 343 529 387 C 547 401 547 401 546 405 Z" style="fill: #0070C0;"></path>
                                                                        <path d="M 529 387 Q 766 209 810 207 Q 867 207 957 242 Q 973 246 974 252 Q 975 259 960 261 Q 761 300 754 303 Q 676 336 546 405 C 519 419 505 405 529 387 Z" style="fill: #0070C0;"></path>
                                                                        <path d="M 523 248 Q 556 257 591 263 Q 619 270 623 273 Q 630 280 626 287 Q 620 296 597 302 Q 573 306 549 297 Q 518 287 484 278 Q 447 271 403 266 Q 373 262 394 247 Q 428 229 483 241 L 523 248 Z" style="fill: #0070C0;"></path>
                                                                        <path d="M 540 152 Q 571 159 606 165 Q 640 172 647 177 Q 654 184 650 191 Q 644 200 621 206 Q 603 210 543 193 L 491 180 Q 445 171 387 166 Q 357 162 379 147 Q 406 131 473 141 Q 480 142 492 143 L 540 152 Z" style="fill: #0070C0;"></path>
                                                                        <path d="M 533 43 Q 537 103 540 152 L 543 193 Q 549 224 544 231 Q 534 241 523 248 C 498 265 473 269 483 241 Q 490 226 491 180 L 492 143 Q 492 104 492 39 C 492 9 531 13 533 43 Z" style="fill: #0070C0;"></path>
                                                                        <path d="M 345 92 Q 399 46 410 46 Q 417 47 421 56 Q 425 68 417 89 Q 413 102 389 113 Q 332 131 324 126 Q 320 123 322 114 Q 325 107 345 92 Z" style="fill: #0070C0;"></path>
                                                                        <path d="M 638 138 Q 622 114 588 78 Q 584 74 587 67 Q 593 66 599 69 Q 662 106 692 119 Q 705 122 704 130 Q 700 143 686 157 Q 673 172 656 175 Q 644 175 644 160 Q 645 150 638 138 Z" style="fill: #0070C0;"></path>
                                                                        <path d="M 492 39 Q 386 29 265 17 Q 244 16 259 -1 Q 272 -14 289 -21 Q 310 -27 325 -23 Q 493 16 755 8 Q 774 8 793 6 Q 812 6 818 14 Q 824 24 808 39 Q 757 78 722 71 Q 652 58 533 43 L 492 39 Z" style="fill: #0070C0;"></path>
                                    
                                    
                                                                                                                                                                                                                                                                                                                                                                                                                                                                                                                                                                                                                                                                                                                                                                                                                                                                                                                                                                                                                                                                                                                                                                                                                                                                                                                                                                                                                                                                                                                                                                                                                                                                                                                                        </g>
                            </svg>