<svg width='83' height='83' >
                                <g transform="translate(3, 70) scale(0.07, -0.07)">
                                    <!-- 先将完整的字以灰色字体绘制完成，层级位于下面 -->
                                                                        <path d="M 319 655 Q 356 718 380 740 Q 390 750 386 764 Q 382 777 354 800 Q 329 819 309 819 Q 290 818 298 795 Q 311 762 299 735 Q 230 581 63 390 Q 53 380 51 374 Q 47 364 61 366 Q 118 372 294 617 Q 297 623 301 627 L 319 655 Z" style="fill: #0070C0;"></path>
                                                                        <path d="M 301 627 Q 337 618 408 636 Q 435 643 465 652 Q 483 658 486 661 Q 493 670 488 677 Q 481 687 451 692 Q 427 693 356 666 Q 338 662 319 655 C 291 645 272 633 301 627 Z" style="fill: #0070C0;"></path>
                                                                        <path d="M 313 474 Q 439 516 442 518 Q 449 527 444 534 Q 437 544 409 547 Q 381 550 355 535 Q 328 523 299 513 Q 268 503 228 495 Q 197 486 221 473 Q 242 466 266 465 L 313 474 Z" style="fill: #0070C0;"></path>
                                                                        <path d="M 339 333 Q 463 376 465 377 Q 472 384 468 393 Q 461 403 431 408 Q 406 412 339 382 L 290 364 Q 227 345 166 333 Q 132 324 158 310 Q 201 291 253 308 Q 271 314 291 319 L 339 333 Z" style="fill: #0070C0;"></path>
                                                                        <path d="M 291 319 Q 291 186 253 128 Q 211 91 260 41 L 262 40 Q 275 31 287 48 Q 302 76 445 196 Q 464 209 468 218 Q 472 228 462 228 Q 450 228 341 168 Q 331 161 330 172 Q 337 260 339 333 L 339 382 Q 339 409 344 430 Q 350 451 313 474 C 289 492 255 493 266 465 Q 287 419 290 364 L 291 319 Z" style="fill: #0070C0;"></path>
                                                                        <path d="M 949 65 Q 968 81 948 117 Q 926 178 920 259 Q 919 271 911 280 Q 901 286 896 261 Q 863 123 855 111 Q 849 98 824 93 Q 730 69 666 94 Q 630 107 618 147 Q 600 210 609 442 Q 618 667 645 702 Q 654 726 633 740 Q 603 767 564 776 Q 543 780 535 771 Q 526 761 534 751 Q 555 732 559 674 Q 559 629 557 534 Q 545 228 569 135 Q 578 87 622 57 Q 707 6 867 30 Q 876 33 885 34 Q 930 47 949 65 Z" style="fill: #0070C0;"></path>
                                    
                                    
                                                                                                                                                                                                                                                                                                                                                                                                                                                                                                                                                    </g>
                            </svg>