<svg width='83' height='83' >
                                <g transform="translate(3, 70) scale(0.07, -0.07)">
                                    <!-- 先将完整的字以灰色字体绘制完成，层级位于下面 -->
                                                                        <path d="M 313 651 Q 362 732 381 748 Q 391 758 386 772 Q 382 785 354 808 Q 329 826 309 826 Q 290 825 298 803 Q 313 769 299 741 Q 259 647 198 561 Q 140 477 59 386 Q 49 376 47 370 Q 43 360 57 362 Q 112 368 288 614 Q 291 620 295 624 L 313 651 Z" style="fill: #0070C0;"></path>
                                                                        <path d="M 295 624 Q 337 606 385 623 Q 421 632 458 641 Q 474 645 477 649 Q 484 656 480 665 Q 473 675 443 681 Q 415 684 386 670 Q 358 661 313 651 C 284 644 267 635 295 624 Z" style="fill: #0070C0;"></path>
                                                                        <path d="M 296 462 Q 300 463 307 466 Q 434 508 438 510 Q 445 519 440 526 Q 433 536 405 539 Q 377 542 351 527 Q 324 515 295 505 Q 264 495 224 487 Q 193 478 217 465 Q 230 461 250 457 L 296 462 Z" style="fill: #0070C0;"></path>
                                                                        <path d="M 326 324 Q 438 363 442 366 Q 449 375 444 382 Q 437 392 409 396 Q 373 397 327 372 L 277 353 Q 273 352 271 351 Q 222 335 165 323 Q 132 314 157 301 Q 187 288 257 304 Q 266 307 279 310 L 326 324 Z" style="fill: #0070C0;"></path>
                                                                        <path d="M 279 310 Q 279 184 245 130 Q 205 87 248 37 L 250 36 Q 263 29 274 45 Q 290 73 429 188 Q 448 201 452 210 Q 456 220 446 220 Q 434 220 330 163 Q 320 157 318 168 Q 325 253 326 324 L 327 372 Q 327 396 332 414 Q 338 436 296 462 C 271 479 234 482 250 457 Q 271 436 277 353 L 279 310 Z" style="fill: #0070C0;"></path>
                                                                        <path d="M 516 548 Q 503 547 499 539 Q 498 532 505 528 Q 563 510 657 540 Q 679 546 681 539 Q 688 526 672 504 Q 497 239 504 134 Q 503 133 504 129 Q 508 95 535 74 Q 599 20 757 28 Q 842 32 940 78 Q 970 93 961 116 Q 937 174 922 269 Q 918 282 910 281 Q 904 281 901 265 Q 895 231 890 193 Q 883 141 843 118 Q 806 96 718 92 Q 631 88 597 102 Q 566 115 556 146 Q 523 245 680 443 Q 726 504 777 533 Q 801 545 793 557 Q 786 572 738 598 Q 719 610 693 597 Q 599 557 516 548 Z" style="fill: #0070C0;"></path>
                                    
                                    
                                                                                                                                                                                                                                                                                                                                                                                                                                                                                                                                                    </g>
                            </svg>