<svg width='83' height='83' >
                                <g transform="translate(3, 70) scale(0.07, -0.07)">
                                    <!-- 先将完整的字以灰色字体绘制完成，层级位于下面 -->
                                                                        <path d="M 335 644 Q 372 713 401 736 Q 410 746 406 760 Q 402 773 374 796 Q 349 815 329 815 Q 310 814 318 791 Q 331 760 319 732 Q 253 582 87 390 Q 77 380 75 374 Q 71 364 85 366 Q 142 372 308 604 Q 309 608 314 613 L 335 644 Z" style="fill: #0070C0;"></path>
                                                                        <path d="M 314 613 Q 345 604 407 619 Q 440 628 476 637 Q 495 641 497 645 Q 504 652 500 661 Q 493 671 463 676 Q 439 679 366 652 Q 351 649 335 644 C 306 635 285 620 314 613 Z" style="fill: #0070C0;"></path>
                                                                        <path d="M 333 459 Q 462 502 466 506 Q 473 515 468 522 Q 461 532 433 535 Q 405 536 379 523 Q 352 510 322 499 Q 288 487 248 479 Q 215 469 241 457 Q 262 450 283 449 L 333 459 Z" style="fill: #0070C0;"></path>
                                                                        <path d="M 356 328 Q 480 367 485 370 Q 492 377 488 385 Q 481 395 453 401 Q 423 404 356 373 L 306 356 Q 302 356 301 355 Q 246 339 178 327 Q 145 320 170 305 Q 209 287 263 303 Q 282 310 308 314 L 356 328 Z" style="fill: #0070C0;"></path>
                                                                        <path d="M 308 314 Q 311 191 276 134 Q 236 91 279 41 L 281 40 Q 294 33 306 49 Q 322 77 465 193 Q 484 205 488 214 Q 492 224 482 224 Q 470 224 362 167 Q 350 160 349 172 Q 355 257 356 328 L 356 373 Q 356 398 360 419 Q 364 432 355 443 Q 343 453 333 459 C 308 476 272 477 283 449 Q 302 407 306 356 L 308 314 Z" style="fill: #0070C0;"></path>
                                                                        <path d="M 600 88 Q 588 49 617 -21 Q 624 -40 633 -43 Q 640 -50 647 -41 Q 656 -37 667 -14 Q 677 13 676 47 Q 675 99 676 577 Q 676 676 694 743 Q 703 759 700 774 Q 693 784 632 821 Q 607 839 585 821 Q 579 817 586 799 Q 620 750 622 700 Q 623 627 626 544 Q 625 399 623 240 Q 620 161 600 88 Z" style="fill: #0070C0;"></path>
                                                                        <path d="M 713 464 Q 783 418 868 347 Q 887 331 902 328 Q 911 328 917 339 Q 927 354 908 394 Q 890 451 714 493 Q 711 494 709 494 Q 699 498 700 486 Q 701 473 713 464 Z" style="fill: #0070C0;"></path>
                                    
                                    
                                                                                                                                                                                                                                                                                                                                                                                                                                                                                                                                                                                                                                </g>
                            </svg>