<svg width='83' height='83' >
                                <g transform="translate(3, 70) scale(0.07, -0.07)">
                                    <!-- 先将完整的字以灰色字体绘制完成，层级位于下面 -->
                                                                        <path d="M 299 638 Q 372 756 373 758 Q 372 762 371 765 Q 367 778 338 799 Q 311 817 293 816 Q 274 815 283 793 Q 296 762 286 735 Q 252 647 197 563 Q 145 484 74 395 Q 64 385 62 378 Q 59 368 73 370 Q 131 380 284 613 L 299 638 Z" style="fill: #0070C0;"></path>
                                                                        <path d="M 284 613 Q 320 601 395 621 Q 419 628 447 637 Q 463 641 466 645 Q 473 654 468 661 Q 461 671 431 675 Q 404 676 339 649 Q 318 645 299 638 C 271 628 255 621 284 613 Z" style="fill: #0070C0;"></path>
                                                                        <path d="M 305 467 Q 428 506 429 508 Q 436 515 432 522 Q 425 532 399 536 Q 372 537 348 526 Q 323 514 294 505 Q 263 495 224 489 Q 193 482 217 468 Q 236 461 258 460 L 305 467 Z" style="fill: #0070C0;"></path>
                                                                        <path d="M 331 334 Q 364 346 401 356 Q 437 369 442 374 Q 449 383 444 390 Q 437 400 409 404 Q 382 405 330 382 L 283 363 Q 276 362 271 359 Q 222 343 165 331 Q 132 322 157 309 Q 197 291 247 309 Q 265 315 285 320 L 331 334 Z" style="fill: #0070C0;"></path>
                                                                        <path d="M 285 320 Q 288 188 243 125 Q 222 95 260 55 L 262 54 Q 275 47 285 63 Q 300 91 435 213 Q 453 226 456 234 Q 460 244 450 243 Q 440 243 333 179 Q 326 173 323 181 Q 330 265 331 334 L 330 382 Q 330 406 334 424 Q 340 445 305 467 C 281 485 246 487 258 460 Q 280 415 283 363 L 285 320 Z" style="fill: #0070C0;"></path>
                                                                        <path d="M 513 625 Q 547 574 534 374 Q 527 322 505 260 Q 489 212 417 127 Q 393 109 390 95 Q 389 88 400 89 Q 434 92 501 165 Q 568 247 583 375 Q 593 454 591 572 Q 594 591 595 603 Q 599 624 579 633 Q 530 654 516 651 Q 497 647 513 625 Z" style="fill: #0070C0;"></path>
                                                                        <path d="M 658 585 Q 695 504 666 296 Q 657 254 688 222 Q 697 212 706 222 Q 730 258 726 310 Q 717 425 726 531 Q 726 544 729 557 Q 736 579 716 590 Q 700 600 683 608 Q 671 612 662 606 Q 655 600 658 585 Z" style="fill: #0070C0;"></path>
                                                                        <path d="M 805 87 Q 796 48 823 -15 Q 830 -31 838 -35 Q 845 -42 852 -34 Q 874 -15 876 70 Q 858 629 884 733 Q 893 748 890 762 Q 883 771 826 804 Q 801 820 781 805 Q 777 799 783 784 Q 819 735 819 678 Q 835 222 810 106 Q 807 97 805 87 Z" style="fill: #0070C0;"></path>
                                    
                                    
                                                                                                                                                                                                                                                                                                                                                                                                                                                                                                                                                                                                                                                                                                            </g>
                            </svg>