<svg width='83' height='83' >
                                <g transform="translate(3, 70) scale(0.07, -0.07)">
                                    <!-- 先将完整的字以灰色字体绘制完成，层级位于下面 -->
                                                                        <path d="M 309 640 Q 352 722 386 753 Q 396 763 391 778 Q 387 791 357 816 Q 329 835 310 835 Q 291 834 299 810 Q 314 776 300 748 Q 260 652 199 563 Q 139 478 59 384 Q 49 374 46 367 Q 42 355 57 358 Q 109 364 285 605 Q 286 611 291 614 L 309 640 Z" style="fill: #0070C0;"></path>
                                                                        <path d="M 291 614 Q 333 596 390 615 Q 430 625 472 638 Q 491 644 494 647 Q 501 656 497 664 Q 488 676 457 680 Q 435 683 359 653 Q 358 653 309 640 C 280 632 263 625 291 614 Z" style="fill: #0070C0;"></path>
                                                                        <path d="M 304 462 Q 311 468 421 500 Q 446 509 450 513 Q 457 522 452 529 Q 445 539 415 543 Q 391 546 323 517 Q 272 499 225 489 Q 191 479 217 466 Q 235 457 265 457 L 304 462 Z" style="fill: #0070C0;"></path>
                                                                        <path d="M 341 305 Q 464 350 466 351 Q 473 361 469 368 Q 460 380 430 384 Q 403 387 342 359 L 293 338 Q 286 337 280 334 Q 228 316 166 303 Q 129 293 158 279 Q 203 260 258 279 Q 274 285 294 290 L 341 305 Z" style="fill: #0070C0;"></path>
                                                                        <path d="M 294 290 Q 290 154 259 106 Q 217 60 263 12 L 265 11 Q 278 4 289 20 Q 305 51 454 183 Q 473 196 476 206 Q 480 216 470 216 Q 454 215 339 141 Q 332 137 330 143 Q 339 231 341 305 L 342 359 Q 342 387 347 410 Q 351 423 343 434 Q 324 453 304 462 C 278 477 253 485 265 457 Q 265 453 269 447 Q 293 396 293 338 L 294 290 Z" style="fill: #0070C0;"></path>
                                                                        <path d="M 597 550 Q 654 647 690 725 Q 706 770 724 793 Q 731 805 725 818 Q 719 831 686 850 Q 655 865 636 861 Q 617 857 629 835 Q 645 810 639 785 Q 620 703 584 622 Q 550 544 498 457 Q 489 444 488 438 Q 487 426 500 431 Q 524 440 582 527 L 597 550 Z" style="fill: #0070C0;"></path>
                                                                        <path d="M 732 57 Q 720 54 657 74 Q 647 78 647 72 Q 646 68 658 58 Q 697 12 714 -19 Q 724 -38 736 -39 Q 758 -40 777 -17 Q 850 49 870 230 Q 879 327 883 466 Q 882 503 904 531 Q 917 544 916 554 Q 915 561 894 575 Q 866 594 829 605 Q 801 612 783 603 Q 767 596 728 584 Q 673 568 635 559 Q 613 555 597 550 C 568 543 552 527 582 527 Q 615 523 744 546 Q 795 555 804 548 Q 828 505 813 276 Q 801 165 769 96 Q 753 59 732 57 Z" style="fill: #0070C0;"></path>
                                                                        <path d="M 551 348 Q 593 291 627 275 Q 643 271 654 285 Q 661 298 660 318 Q 654 345 635 360 Q 614 376 567 390 Q 548 397 538 393 Q 531 392 533 378 Q 534 365 551 348 Z" style="fill: #0070C0;"></path>
                                    
                                    
                                                                                                                                                                                                                                                                                                                                                                                                                                                                                                                                                                                                                                                                                                            </g>
                            </svg>