<svg width='83' height='83' >
                                <g transform="translate(3, 70) scale(0.07, -0.07)">
                                    <!-- 先将完整的字以灰色字体绘制完成，层级位于下面 -->
                                                                        <path d="M 304 650 Q 349 734 371 757 Q 381 767 375 781 Q 371 794 342 815 Q 315 833 296 832 Q 278 829 287 808 Q 302 777 290 749 Q 232 592 74 395 Q 64 385 62 378 Q 59 368 73 370 Q 124 379 280 611 Q 281 617 285 620 L 304 650 Z" style="fill: #0070C0;"></path>
                                                                        <path d="M 285 620 Q 322 611 429 638 Q 430 639 434 639 Q 450 643 453 646 Q 460 653 456 661 Q 449 671 421 676 Q 399 679 334 656 Q 328 656 304 650 C 275 643 256 626 285 620 Z" style="fill: #0070C0;"></path>
                                                                        <path d="M 296 469 Q 359 490 425 512 Q 432 519 428 526 Q 421 536 395 539 Q 368 542 344 529 Q 319 519 291 509 Q 260 499 224 493 Q 193 484 217 472 Q 232 466 252 464 L 296 469 Z" style="fill: #0070C0;"></path>
                                                                        <path d="M 324 329 Q 360 341 399 350 Q 435 360 440 366 Q 447 373 443 381 Q 436 391 409 397 Q 382 401 325 376 L 278 360 Q 274 360 270 358 Q 221 343 162 335 Q 129 328 154 313 Q 188 297 255 312 Q 265 315 278 318 L 324 329 Z" style="fill: #0070C0;"></path>
                                                                        <path d="M 278 318 Q 278 186 235 125 Q 216 116 224 86 Q 234 59 247 47 Q 259 40 271 56 Q 283 80 402 182 Q 420 194 424 202 Q 428 212 418 212 Q 412 212 324 169 Q 314 163 313 173 Q 320 258 324 329 L 325 376 Q 325 403 330 424 Q 334 437 325 447 Q 310 460 296 469 C 271 486 235 489 252 464 Q 274 442 278 360 L 278 318 Z" style="fill: #0070C0;"></path>
                                                                        <path d="M 660 618 Q 697 630 863 637 Q 909 637 917 647 Q 921 659 905 671 Q 851 708 788 686 Q 688 662 483 625 Q 464 622 478 607 Q 506 582 544 592 Q 580 604 620 610 L 660 618 Z" style="fill: #0070C0;"></path>
                                                                        <path d="M 637 454 Q 682 530 698 549 Q 705 561 697 576 Q 682 603 660 618 C 636 637 613 639 620 610 L 621 608 Q 640 539 527 381 Q 478 314 414 249 Q 408 243 407 237 Q 407 231 413 232 Q 482 244 609 413 L 637 454 Z" style="fill: #0070C0;"></path>
                                                                        <path d="M 609 413 Q 634 361 621 202 Q 615 156 605 107 Q 590 58 627 10 Q 628 7 632 4 Q 651 -12 663 16 Q 678 58 678 106 Q 672 323 678 373 Q 685 401 675 412 Q 657 434 643 448 Q 640 452 637 454 C 616 475 598 441 609 413 Z" style="fill: #0070C0;"></path>
                                                                        <path d="M 739 385 Q 800 336 875 264 Q 893 245 909 241 Q 918 240 925 251 Q 937 264 921 309 Q 900 370 738 417 Q 728 421 727 409 Q 728 396 739 385 Z" style="fill: #0070C0;"></path>
                                    
                                    
                                                                                                                                                                                                                                                                                                                                                                                                                                                                                                                                                                                                                                                                                                                                                                                        </g>
                            </svg>