<svg width='83' height='83' >
                                <g transform="translate(3, 70) scale(0.07, -0.07)">
                                    <!-- 先将完整的字以灰色字体绘制完成，层级位于下面 -->
                                                                        <path d="M 290 651 Q 344 742 372 768 Q 382 778 378 792 Q 374 805 346 828 Q 321 847 301 847 Q 282 846 290 823 Q 303 790 291 763 Q 222 609 55 418 Q 45 408 43 402 Q 39 392 53 394 Q 101 400 263 612 Q 264 616 268 619 L 290 651 Z" style="fill: #0070C0;"></path>
                                                                        <path d="M 268 619 Q 311 613 433 649 Q 454 655 457 658 Q 464 665 460 674 Q 453 684 425 688 Q 404 691 325 661 Q 307 657 290 651 C 262 641 238 622 268 619 Z" style="fill: #0070C0;"></path>
                                                                        <path d="M 278 475 Q 278 476 393 510 Q 418 517 422 522 Q 429 531 424 538 Q 417 548 389 552 Q 361 553 335 540 Q 307 528 276 517 Q 242 507 201 499 Q 168 490 193 477 Q 211 468 237 468 L 278 475 Z" style="fill: #0070C0;"></path>
                                                                        <path d="M 306 341 Q 340 354 379 365 Q 413 377 418 382 Q 425 391 420 398 Q 413 408 385 411 Q 352 414 308 389 L 260 369 Q 254 368 251 366 Q 205 350 149 339 Q 116 330 141 317 Q 174 302 250 323 Q 254 324 261 326 L 306 341 Z" style="fill: #0070C0;"></path>
                                                                        <path d="M 261 326 Q 257 194 223 138 Q 189 95 234 54 Q 247 47 258 63 Q 268 91 389 215 Q 405 230 409 238 Q 412 248 402 247 Q 392 247 297 181 Q 296 177 293 180 Q 303 268 306 341 L 308 389 Q 308 410 313 427 Q 319 449 278 475 C 254 492 225 496 237 468 Q 237 467 239 464 Q 258 421 260 369 L 261 326 Z" style="fill: #0070C0;"></path>
                                                                        <path d="M 566 674 Q 678 788 691 795 Q 709 808 696 823 Q 680 836 654 845 Q 629 854 618 849 Q 606 845 613 833 Q 622 806 583 742 Q 567 715 550 685 C 535 659 545 653 566 674 Z" style="fill: #0070C0;"></path>
                                                                        <path d="M 575 633 Q 618 649 730 672 Q 740 673 747 669 Q 756 665 756 650 Q 756 613 743 548 Q 739 523 716 526 Q 682 533 654 540 Q 639 541 643 533 Q 644 523 671 504 Q 708 473 729 439 Q 736 430 746 433 Q 753 434 767 456 Q 785 481 799 556 Q 811 647 824 660 Q 834 670 829 681 Q 819 693 782 713 Q 770 719 706 703 Q 694 703 572 670 C 543 662 547 623 575 633 Z" style="fill: #0070C0;"></path>
                                                                        <path d="M 572 670 Q 568 673 566 674 L 550 685 Q 541 691 529 695 Q 510 702 501 692 Q 494 686 503 675 Q 516 648 518 478 Q 518 394 507 345 Q 501 323 517 308 Q 538 290 561 306 Q 594 333 714 348 Q 831 372 854 350 Q 867 340 854 294 Q 830 116 797 70 Q 790 57 764 59 Q 730 69 698 78 Q 682 82 683 75 Q 683 69 691 62 Q 749 10 769 -27 Q 778 -48 796 -38 Q 859 -8 874 65 Q 896 159 912 265 Q 919 304 939 337 Q 952 353 940 367 Q 921 388 883 410 Q 861 423 832 409 Q 792 393 755 388 Q 703 382 594 360 Q 566 356 566 378 Q 565 448 565 522 Q 564 591 575 633 C 580 663 581 664 572 670 Z" style="fill: #0070C0;"></path>
                                                                        <path d="M 605 173 Q 734 186 751 187 Q 797 187 803 194 Q 809 207 797 216 Q 769 237 729 250 Q 728 250 633 228 Q 581 218 553 213 Q 423 189 395 185 Q 383 184 383 174 Q 384 164 402 152 Q 417 143 445 136 Q 455 133 470 142 Q 515 160 605 173 Z" style="fill: #0070C0;"></path>
                                    
                                    
                                                                                                                                                                                                                                                                                                                                                                                                                                                                                                                                                                                                                                                                                                                                                                                        </g>
                            </svg>