<svg width='83' height='83' >
                                <g transform="translate(3, 70) scale(0.07, -0.07)">
                                    <!-- 先将完整的字以灰色字体绘制完成，层级位于下面 -->
                                                                        <path d="M 215 476 Q 254 531 298 613 L 313 643 Q 364 754 371 762 Q 378 768 374 778 Q 371 788 357 798 Q 341 810 320 813 Q 298 817 287 813 Q 278 809 283 797 Q 310 707 197 525 Q 127 428 52 340 Q 45 333 55 333 Q 92 339 197 453 L 215 476 Z" style="fill: #0070C0;"></path>
                                                                        <path d="M 298 613 Q 340 601 381 616 Q 415 625 451 634 Q 467 638 469 641 Q 476 648 472 657 Q 465 667 435 672 Q 407 676 378 662 Q 360 655 341 650 Q 328 647 313 643 C 284 635 269 621 298 613 Z" style="fill: #0070C0;"></path>
                                                                        <path d="M 294 453 Q 342 469 393 483 Q 418 490 421 494 Q 428 503 424 510 Q 417 520 389 524 Q 361 527 335 513 Q 307 501 278 492 Q 248 483 215 476 C 186 470 169 463 197 453 L 198 453 Q 216 444 254 444 L 294 453 Z" style="fill: #0070C0;"></path>
                                                                        <path d="M 328 312 Q 415 343 418 345 Q 425 352 420 361 Q 413 371 383 376 Q 355 379 329 365 L 279 344 Q 180 316 153 309 Q 119 299 146 286 Q 188 268 258 291 Q 268 294 280 297 L 328 312 Z" style="fill: #0070C0;"></path>
                                                                        <path d="M 280 297 Q 280 138 240 79 Q 200 43 247 -6 Q 248 -7 251 -9 Q 264 -16 275 0 Q 290 31 439 171 Q 457 184 460 194 Q 464 204 454 204 Q 442 204 321 123 Q 317 119 315 123 Q 325 228 328 312 L 329 365 Q 330 386 335 402 Q 339 415 330 426 Q 311 444 294 453 C 269 469 238 469 254 444 Q 275 423 279 344 L 280 297 Z" style="fill: #0070C0;"></path>
                                                                        <path d="M 652 676 Q 668 722 688 747 Q 695 759 689 772 Q 682 784 650 802 Q 620 815 601 813 Q 582 807 595 787 Q 611 760 600 707 Q 560 560 450 368 Q 441 356 440 350 Q 439 338 452 343 Q 503 362 620 601 Q 630 625 641 649 L 652 676 Z" style="fill: #0070C0;"></path>
                                                                        <path d="M 641 649 Q 707 540 794 423 Q 810 404 840 403 Q 937 402 969 407 Q 979 408 980 413 Q 981 417 968 425 Q 827 494 755 566 Q 706 615 652 676 C 632 698 625 675 641 649 Z" style="fill: #0070C0;"></path>
                                                                        <path d="M 586 440 Q 643 374 668 376 Q 683 375 688 395 Q 689 408 678 430 Q 666 446 643 453 Q 606 466 589 469 Q 579 470 579 458 Q 578 449 586 440 Z" style="fill: #0070C0;"></path>
                                                                        <path d="M 658 96 Q 776 244 814 265 Q 833 274 825 289 Q 821 305 752 336 Q 733 343 710 334 Q 655 310 572 284 Q 550 275 497 275 Q 473 275 483 255 Q 490 242 510 232 Q 541 216 575 237 Q 593 244 687 287 Q 702 293 716 284 Q 729 274 722 259 Q 686 189 644 105 C 631 78 639 73 658 96 Z" style="fill: #0070C0;"></path>
                                                                        <path d="M 644 105 Q 625 124 562 154 Q 555 161 551 149 Q 548 136 558 124 Q 609 66 668 -17 Q 681 -39 696 -44 Q 705 -47 713 -38 Q 726 -26 719 18 Q 716 55 658 96 L 644 105 Z" style="fill: #0070C0;"></path>
                                    
                                    
                                                                                                                                                                                                                                                                                                                                                                                                                                                                                                                                                                                                                                                                                                                                                                                                                                                                    </g>
                            </svg>