<svg width='83' height='83' >
                                <g transform="translate(3, 70) scale(0.07, -0.07)">
                                    <!-- 先将完整的字以灰色字体绘制完成，层级位于下面 -->
                                                                        <path d="M 300 639 Q 342 715 367 741 Q 376 751 371 765 Q 367 778 338 799 Q 311 817 293 816 Q 274 815 283 793 Q 296 762 286 735 Q 252 647 197 563 Q 145 484 74 395 Q 64 385 62 378 Q 59 368 73 370 Q 121 379 278 603 Q 279 609 283 612 L 300 639 Z" style="fill: #0070C0;"></path>
                                                                        <path d="M 283 612 Q 316 597 393 618 Q 420 625 449 633 Q 467 637 469 641 Q 476 648 472 657 Q 465 667 435 672 Q 410 675 340 648 Q 319 644 300 639 C 271 632 255 623 283 612 Z" style="fill: #0070C0;"></path>
                                                                        <path d="M 307 464 Q 421 497 426 502 Q 433 511 428 518 Q 421 528 393 532 Q 365 535 339 521 Q 315 511 289 502 Q 259 493 225 487 Q 192 478 217 465 Q 235 456 262 456 L 307 464 Z" style="fill: #0070C0;"></path>
                                                                        <path d="M 335 336 Q 366 346 400 354 Q 436 364 441 370 Q 448 377 444 385 Q 437 395 409 401 Q 385 404 334 383 L 287 367 Q 280 366 272 362 Q 223 347 166 339 Q 133 332 158 317 Q 197 299 251 314 Q 267 320 289 323 L 335 336 Z" style="fill: #0070C0;"></path>
                                                                        <path d="M 289 323 Q 292 187 253 123 Q 220 110 262 52 Q 265 49 269 45 Q 282 38 292 55 Q 305 83 437 212 Q 453 225 457 234 Q 460 244 450 243 Q 441 243 335 172 Q 331 168 327 173 Q 334 264 335 336 L 334 383 Q 334 404 338 420 Q 342 433 334 444 Q 321 456 307 464 C 282 481 250 484 262 456 Q 281 416 287 367 L 289 323 Z" style="fill: #0070C0;"></path>
                                                                        <path d="M 624 755 Q 658 731 694 702 Q 709 690 725 692 Q 737 693 741 708 Q 744 724 732 754 Q 719 787 615 804 Q 599 807 592 803 Q 588 799 590 785 Q 594 775 624 755 Z" style="fill: #0070C0;"></path>
                                                                        <path d="M 629 540 Q 699 559 869 586 Q 879 585 889 599 Q 890 612 865 622 Q 829 643 744 615 Q 608 585 488 563 Q 457 559 481 540 Q 520 513 552 523 Q 571 529 601 534 L 629 540 Z" style="fill: #0070C0;"></path>
                                                                        <path d="M 693 314 Q 689 315 686 314 Q 631 315 586 317 Q 552 318 571 338 Q 622 408 670 460 Q 685 476 682 484 Q 681 499 643 532 Q 637 538 629 540 C 602 554 594 558 601 534 Q 601 531 604 525 Q 619 477 534 356 Q 522 343 505 328 Q 475 309 504 265 Q 514 255 527 261 Q 564 280 675 291 C 705 294 723 314 693 314 Z" style="fill: #0070C0;"></path>
                                                                        <path d="M 805 172 Q 711 156 603 126 Q 578 117 595 138 Q 644 198 760 317 Q 794 357 824 378 Q 839 388 833 400 Q 823 422 787 446 Q 771 458 760 455 Q 748 452 749 435 Q 749 402 693 314 L 675 291 Q 674 290 672 287 Q 540 128 507 114 Q 491 104 494 89 Q 495 74 522 51 Q 532 38 550 50 Q 664 116 817 151 C 846 158 835 177 805 172 Z" style="fill: #0070C0;"></path>
                                                                        <path d="M 817 151 Q 872 43 880 38 Q 887 35 897 42 Q 913 51 913 94 Q 913 145 790 244 Q 783 251 778 240 Q 774 228 805 172 L 817 151 Z" style="fill: #0070C0;"></path>
                                    
                                    
                                                                                                                                                                                                                                                                                                                                                                                                                                                                                                                                                                                                                                                                                                                                                                                                                                                                    </g>
                            </svg>