<svg width='83' height='83' >
                                <g transform="translate(3, 70) scale(0.07, -0.07)">
                                    <!-- 先将完整的字以灰色字体绘制完成，层级位于下面 -->
                                                                        <path d="M 300 635 Q 344 713 371 741 Q 374 745 376 747 Q 386 768 343 803 Q 316 821 296 821 Q 276 819 286 796 Q 299 764 288 735 Q 218 568 59 380 Q 49 370 46 365 Q 43 353 57 355 Q 110 361 276 598 Q 278 604 282 608 L 300 635 Z" style="fill: #0070C0;"></path>
                                                                        <path d="M 282 608 Q 320 598 402 618 L 450 633 Q 465 639 468 641 Q 472 647 472 653 Q 471 669 431 673 Q 412 673 333 645 L 300 635 C 271 626 253 615 282 608 Z" style="fill: #0070C0;"></path>
                                                                        <path d="M 310 461 Q 416 496 419 499 Q 427 508 421 515 Q 417 521 402 525 Q 363 537 327 515 Q 260 488 210 478 Q 178 468 197 459 Q 219 447 265 447 L 310 461 Z" style="fill: #0070C0;"></path>
                                                                        <path d="M 287 325 Q 278 323 267 318 Q 217 298 165 286 Q 129 276 158 263 Q 190 249 228 259 L 286 276 L 333 294 Q 423 327 424 330 Q 431 339 426 347 Q 422 351 414 355 Q 377 369 335 349 L 287 325 Z" style="fill: #0070C0;"></path>
                                                                        <path d="M 335 349 Q 335 370 337 393 Q 341 423 339 431 Q 335 444 310 461 C 286 479 255 475 265 447 Q 284 401 286 347 Q 286 333 287 325 L 286 276 Q 282 150 251 102 Q 206 51 255 8 Q 269 -1 280 16 Q 296 45 443 169 Q 463 182 466 190 Q 470 201 460 201 Q 450 201 334 137 Q 324 130 323 139 Q 330 223 333 294 L 335 349 Z" style="fill: #0070C0;"></path>
                                                                        <path d="M 600 610 Q 597 658 596 686 Q 597 704 578 711 Q 539 733 517 725 Q 498 717 514 696 Q 545 654 554 606 Q 554 604 555 600 L 563 561 Q 570 506 586 490 Q 600 480 604 490 Q 606 502 602 575 L 600 610 Z" style="fill: #0070C0;"></path>
                                                                        <path d="M 602 575 Q 619 583 635 588 Q 655 594 666 602 Q 672 608 670 613 Q 667 619 655 621 Q 628 616 600 610 L 555 600 Q 464 586 431 582 Q 410 582 424 561 Q 439 549 457 541 Q 484 529 501 537 Q 535 551 563 561 L 602 575 Z" style="fill: #0070C0;"></path>
                                                                        <path d="M 776 629 Q 786 667 798 697 L 819 742 Q 822 751 815 757 Q 809 764 796 773 Q 753 803 729 787 Q 719 780 727 768 Q 745 729 725 620 L 717 590 Q 700 526 703 499 Q 707 485 719 495 Q 729 505 761 585 L 776 629 Z" style="fill: #0070C0;"></path>
                                                                        <path d="M 761 585 Q 767 586 781 588 Q 851 598 906 592 Q 919 591 923 600 Q 927 610 915 621 Q 872 658 791 633 Q 785 633 776 629 L 725 620 Q 706 617 698 613 Q 686 610 700 600 L 717 590 C 733 581 733 581 761 585 Z" style="fill: #0070C0;"></path>
                                                                        <path d="M 628 437 Q 689 384 702 384 Q 704 384 706 386 Q 724 394 710 439 Q 702 459 651 474 Q 612 486 602 480 Q 598 477 600 465 Q 604 455 628 437 Z" style="fill: #0070C0;"></path>
                                                                        <path d="M 568 289 Q 688 318 892 347 Q 903 346 912 361 Q 913 373 888 384 Q 849 408 768 380 Q 620 347 474 324 Q 443 319 466 301 Q 500 276 527 278 L 568 289 Z" style="fill: #0070C0;"></path>
                                    
                                    
                                                                                                                                                                                                                                                                                                                                                                                                                                                                                                                                                                                                                                                                                                                                                                                                                                                                                                                                                </g>
                            </svg>