<svg width='83' height='83' >
                                <g transform="translate(3, 70) scale(0.07, -0.07)">
                                    <!-- 先将完整的字以灰色字体绘制完成，层级位于下面 -->
                                                                        <path d="M 292 627 Q 373 756 373 758 Q 372 762 371 765 Q 367 778 338 799 Q 311 817 293 816 Q 274 815 283 793 Q 296 762 286 735 Q 252 647 197 563 Q 145 484 74 395 Q 64 385 62 378 Q 59 368 73 370 Q 127 379 279 605 L 292 627 Z" style="fill: #0070C0;"></path>
                                                                        <path d="M 279 605 Q 315 586 367 602 Q 415 615 463 628 Q 485 635 489 638 Q 496 645 492 654 Q 485 664 457 668 Q 429 672 403 659 Q 378 649 351 640 Q 323 633 292 627 C 263 621 252 618 279 605 Z" style="fill: #0070C0;"></path>
                                                                        <path d="M 297 465 Q 298 468 403 497 Q 425 504 429 508 Q 436 515 432 522 Q 425 532 399 536 Q 372 537 348 526 Q 323 514 294 505 Q 263 495 224 489 Q 193 482 217 468 Q 236 461 255 460 C 281 458 281 458 297 465 Z" style="fill: #0070C0;"></path>
                                                                        <path d="M 322 333 Q 421 366 426 370 Q 433 379 428 386 Q 421 396 393 399 Q 359 402 323 381 L 278 362 Q 221 347 165 331 Q 132 322 157 309 Q 194 293 272 317 Q 275 318 279 319 L 322 333 Z" style="fill: #0070C0;"></path>
                                                                        <path d="M 279 319 Q 275 192 238 140 Q 208 127 245 74 Q 248 70 252 66 Q 264 59 274 74 Q 284 98 393 202 Q 409 215 412 223 Q 416 232 407 231 Q 395 231 319 185 Q 313 181 311 186 Q 320 267 322 333 L 323 381 Q 323 403 328 422 Q 332 434 324 444 Q 311 457 297 465 C 272 482 243 488 255 460 Q 255 459 257 456 Q 276 413 278 362 L 279 319 Z" style="fill: #0070C0;"></path>
                                                                        <path d="M 701 496 Q 794 527 797 530 Q 804 539 800 546 Q 793 556 765 560 Q 732 563 695 541 L 651 524 Q 639 521 629 517 Q 581 501 525 491 Q 524 491 523 490 C 494 483 508 464 538 462 Q 562 459 616 471 Q 634 477 657 482 L 701 496 Z" style="fill: #0070C0;"></path>
                                                                        <path d="M 523 490 Q 480 512 467 510 Q 448 506 463 486 Q 494 432 465 270 Q 456 236 440 196 Q 418 141 355 85 Q 342 73 339 67 Q 338 61 348 61 Q 379 61 437 117 Q 488 171 519 305 L 524 339 Q 533 435 538 462 C 541 481 541 481 523 490 Z" style="fill: #0070C0;"></path>
                                                                        <path d="M 519 305 Q 526 305 533 307 Q 591 325 596 322 Q 603 313 600 288 Q 597 218 581 186 Q 571 165 553 167 Q 532 174 515 184 Q 497 191 509 173 Q 543 139 558 111 Q 571 98 584 109 Q 624 140 639 251 Q 645 308 657 325 Q 666 335 661 343 Q 654 350 615 366 Q 606 369 555 348 Q 546 348 524 339 C 496 328 489 301 519 305 Z" style="fill: #0070C0;"></path>
                                                                        <path d="M 746 163 Q 800 67 853 17 Q 914 -32 944 -30 Q 965 -26 957 3 Q 951 54 952 200 Q 951 222 943 222 Q 915 158 885 92 Q 873 86 846 112 Q 810 152 782 202 L 758 252 Q 721 345 701 496 L 695 541 Q 686 644 699 715 Q 712 758 656 781 Q 620 797 599 791 Q 578 784 588 764 Q 634 721 634 685 Q 641 597 651 524 L 657 482 Q 676 334 727 205 L 746 163 Z" style="fill: #0070C0;"></path>
                                                                        <path d="M 727 205 Q 715 181 638 105 Q 631 98 638 95 Q 668 89 741 158 Q 742 161 746 163 L 782 202 Q 824 263 851 345 Q 858 366 869 386 Q 876 396 869 405 Q 862 414 833 428 Q 811 438 802 435 Q 790 431 793 416 Q 805 349 758 252 L 727 205 Z" style="fill: #0070C0;"></path>
                                                                        <path d="M 765 679 Q 796 655 828 626 Q 841 614 855 616 Q 865 616 869 628 Q 873 641 864 669 Q 858 688 826 703 Q 753 731 740 723 Q 736 719 737 707 Q 741 697 765 679 Z" style="fill: #0070C0;"></path>
                                    
                                    
                                                                                                                                                                                                                                                                                                                                                                                                                                                                                                                                                                                                                                                                                                                                                                                                                                                                                                                                                </g>
                            </svg>