<svg width='83' height='83' >
                                <g transform="translate(3, 70) scale(0.07, -0.07)">
                                    <!-- 先将完整的字以灰色字体绘制完成，层级位于下面 -->
                                                                        <path d="M 265 640 Q 319 725 332 737 Q 341 747 336 759 Q 332 771 307 792 Q 282 808 266 808 Q 248 807 256 787 Q 269 759 258 734 Q 224 653 174 579 Q 125 507 58 428 Q 49 418 47 413 Q 44 403 57 405 Q 102 411 248 614 L 265 640 Z" style="fill: #0070C0;"></path>
                                                                        <path d="M 248 614 Q 279 611 354 630 Q 390 640 393 643 Q 399 650 395 656 Q 389 663 367 667 Q 361 667 265 640 C 236 632 218 616 248 614 Z" style="fill: #0070C0;"></path>
                                                                        <path d="M 263 489 Q 303 504 350 519 Q 371 526 374 529 Q 380 536 376 543 Q 369 552 345 555 Q 324 556 252 525 Q 222 515 187 507 Q 159 498 181 488 Q 196 482 228 481 L 263 489 Z" style="fill: #0070C0;"></path>
                                                                        <path d="M 294 383 Q 315 390 340 397 Q 365 406 369 409 Q 376 416 371 423 Q 364 432 341 435 Q 317 438 296 427 L 250 408 Q 199 392 156 383 Q 128 376 149 364 Q 176 352 238 367 Q 244 368 252 370 L 294 383 Z" style="fill: #0070C0;"></path>
                                                                        <path d="M 252 370 Q 255 244 217 187 Q 190 160 228 120 Q 228 119 231 117 Q 241 110 252 125 Q 262 147 366 251 Q 381 263 384 271 Q 387 280 379 279 Q 370 279 292 231 Q 288 227 285 231 Q 292 316 294 383 L 296 427 Q 300 457 295 465 Q 279 481 263 489 C 237 504 212 506 228 481 Q 243 466 250 408 L 252 370 Z" style="fill: #0070C0;"></path>
                                                                        <path d="M 462 622 Q 455 629 434 638 Q 427 642 418 639 Q 414 635 417 625 Q 418 618 422 612 Q 443 570 429 406 Q 416 318 427 300 Q 430 293 437 284 Q 444 274 453 284 Q 466 300 465 365 Q 468 596 471 598 C 473 614 473 614 462 622 Z" style="fill: #0070C0;"></path>
                                                                        <path d="M 602 329 Q 596 310 607 293 Q 619 269 626 271 Q 638 272 650 298 Q 663 319 661 336 Q 630 546 669 610 Q 676 623 671 631 Q 647 650 607 665 Q 594 669 534 642 Q 489 629 462 622 C 433 614 442 592 471 598 Q 477 598 538 614 Q 584 630 594 624 Q 604 602 609 542 Q 612 364 602 329 Z" style="fill: #0070C0;"></path>
                                                                        <path d="M 515 486 Q 524 224 434 132 Q 407 104 348 64 Q 339 60 337 57 Q 334 53 346 51 Q 383 51 457 109 Q 553 187 554 413 Q 554 471 566 511 Q 570 518 563 525 Q 521 558 495 548 Q 480 541 493 529 Q 514 508 515 486 Z" style="fill: #0070C0;"></path>
                                                                        <path d="M 572 185 Q 597 154 623 116 Q 630 103 643 101 Q 652 100 657 109 Q 664 119 662 143 Q 659 179 577 222 Q 565 226 560 226 Q 556 225 555 214 Q 556 205 572 185 Z" style="fill: #0070C0;"></path>
                                                                        <path d="M 702 566 Q 727 499 712 362 Q 706 335 730 306 Q 737 297 745 307 Q 757 329 759 408 Q 753 498 760 543 Q 766 561 749 570 Q 736 577 722 584 Q 712 588 705 583 Q 698 579 702 566 Z" style="fill: #0070C0;"></path>
                                                                        <path d="M 832 680 Q 836 647 840 140 Q 840 118 828 110 Q 822 107 763 119 Q 732 131 735 121 Q 736 114 754 100 Q 811 54 825 27 Q 841 -4 856 -5 Q 869 -6 883 26 Q 899 69 897 136 Q 863 571 896 706 Q 912 734 860 753 Q 829 769 811 763 Q 795 756 810 736 Q 829 711 832 680 Z" style="fill: #0070C0;"></path>
                                    
                                    
                                                                                                                                                                                                                                                                                                                                                                                                                                                                                                                                                                                                                                                                                                                                                                                                                                                                                                                                                </g>
                            </svg>