<svg width='83' height='83' >
                                <g transform="translate(3, 70) scale(0.07, -0.07)">
                                    <!-- 先将完整的字以灰色字体绘制完成，层级位于下面 -->
                                                                        <path d="M 302 644 Q 341 716 366 740 Q 376 750 371 765 Q 367 778 338 800 Q 311 818 293 817 Q 274 816 282 793 Q 297 762 285 736 Q 249 648 195 565 Q 143 486 70 398 Q 60 388 58 382 Q 55 372 69 374 Q 126 384 284 616 L 302 644 Z" style="fill: #0070C0;"></path>
                                                                        <path d="M 284 616 Q 320 604 443 635 Q 462 639 464 642 Q 471 649 467 657 Q 460 667 433 673 Q 405 677 379 665 Q 358 658 336 652 Q 320 649 302 644 C 273 636 255 624 284 616 Z" style="fill: #0070C0;"></path>
                                                                        <path d="M 283 469 Q 293 470 307 476 Q 421 509 426 514 Q 433 523 428 530 Q 421 540 393 544 Q 365 547 339 533 Q 315 523 289 514 Q 259 505 225 499 Q 192 490 217 477 Q 229 473 243 469 L 283 469 Z" style="fill: #0070C0;"></path>
                                                                        <path d="M 317 326 Q 423 360 425 361 Q 432 368 428 377 Q 421 387 391 393 Q 355 399 317 376 L 270 358 Q 261 357 256 354 Q 211 341 158 333 Q 124 324 150 310 Q 195 291 253 309 Q 260 312 272 313 L 317 326 Z" style="fill: #0070C0;"></path>
                                                                        <path d="M 272 313 Q 272 175 234 123 Q 198 90 240 42 Q 240 41 243 39 Q 256 32 267 47 Q 282 75 422 190 Q 440 202 444 210 Q 448 220 438 220 Q 423 219 320 161 Q 310 155 308 165 Q 315 253 317 326 L 317 376 Q 317 401 322 420 Q 326 433 318 443 Q 300 459 283 469 C 258 486 234 498 243 469 Q 242 465 247 455 Q 268 412 270 358 L 272 313 Z" style="fill: #0070C0;"></path>
                                                                        <path d="M 659 679 Q 677 719 695 738 Q 704 750 698 763 Q 692 775 662 795 Q 634 811 616 808 Q 597 805 607 784 Q 623 757 614 732 Q 589 648 547 569 Q 507 493 448 407 Q 439 397 437 390 Q 436 378 449 382 Q 506 398 637 635 Q 643 647 649 658 L 659 679 Z" style="fill: #0070C0;"></path>
                                                                        <path d="M 649 658 Q 716 568 789 485 Q 808 463 842 460 Q 903 453 968 461 Q 984 462 986 466 Q 989 472 976 478 Q 936 496 888 514 Q 834 536 796 564 Q 747 597 700 641 Q 675 666 659 679 C 636 698 631 682 649 658 Z" style="fill: #0070C0;"></path>
                                                                        <path d="M 640 387 Q 778 424 784 430 Q 791 437 787 445 Q 780 455 753 461 Q 725 465 699 452 Q 660 437 619 424 Q 573 411 518 403 Q 485 396 510 381 Q 547 363 597 375 L 640 387 Z" style="fill: #0070C0;"></path>
                                                                        <path d="M 658 245 Q 781 278 783 278 Q 792 285 787 293 Q 780 303 754 310 Q 724 314 660 290 L 607 275 Q 558 265 504 258 Q 470 252 495 237 Q 531 216 587 230 Q 594 233 607 233 L 658 245 Z" style="fill: #0070C0;"></path>
                                                                        <path d="M 651 122 Q 654 189 658 245 L 660 290 Q 661 303 662 317 Q 666 362 662 368 Q 652 378 640 387 C 616 405 589 404 597 375 Q 603 360 607 275 L 607 233 Q 607 187 607 116 C 607 86 650 92 651 122 Z" style="fill: #0070C0;"></path>
                                                                        <path d="M 607 116 Q 522 107 425 94 Q 403 93 419 75 Q 432 62 451 55 Q 472 51 488 54 Q 621 88 906 88 Q 925 88 931 96 Q 937 108 920 122 Q 862 165 801 147 Q 740 137 651 122 L 607 116 Z" style="fill: #0070C0;"></path>
                                    
                                    
                                                                                                                                                                                                                                                                                                                                                                                                                                                                                                                                                                                                                                                                                                                                                                                                                                                                                                                                                </g>
                            </svg>