<svg width='83' height='83' >
                                <g transform="translate(3, 70) scale(0.07, -0.07)">
                                    <!-- 先将完整的字以灰色字体绘制完成，层级位于下面 -->
                                                                        <path d="M 287 624 Q 344 720 366 740 Q 375 750 370 764 Q 366 777 338 800 Q 311 818 293 817 Q 274 816 282 794 Q 297 761 284 734 Q 221 581 59 386 Q 49 376 46 370 Q 43 360 57 362 Q 97 368 267 592 Q 268 596 272 600 L 287 624 Z" style="fill: #0070C0;"></path>
                                                                        <path d="M 272 600 Q 312 588 368 605 Q 398 614 431 622 Q 447 628 450 630 Q 457 639 452 646 Q 445 656 417 659 Q 392 662 328 635 Q 307 631 287 624 C 259 614 243 608 272 600 Z" style="fill: #0070C0;"></path>
                                                                        <path d="M 288 453 Q 289 454 295 456 Q 401 486 405 490 Q 412 497 408 506 Q 401 516 373 520 Q 349 523 275 493 Q 245 486 213 479 Q 180 470 206 457 Q 221 451 244 448 L 288 453 Z" style="fill: #0070C0;"></path>
                                                                        <path d="M 317 319 Q 411 349 413 350 Q 420 357 416 365 Q 409 375 381 380 Q 365 383 317 367 L 270 349 Q 261 348 252 344 Q 209 331 158 323 Q 125 316 150 301 Q 192 280 241 299 Q 256 303 272 306 L 317 319 Z" style="fill: #0070C0;"></path>
                                                                        <path d="M 272 306 Q 272 177 236 122 Q 199 86 244 39 L 246 38 Q 259 31 269 47 Q 284 75 419 197 Q 437 210 440 218 Q 444 228 434 227 Q 424 227 317 163 Q 310 157 308 165 Q 315 250 317 319 L 317 367 Q 317 389 322 408 Q 326 421 317 431 Q 302 444 288 453 C 263 470 227 473 244 448 Q 265 427 270 349 L 272 306 Z" style="fill: #0070C0;"></path>
                                                                        <path d="M 589 646 Q 611 674 636 710 Q 652 740 668 754 Q 677 763 672 775 Q 668 787 643 808 Q 618 824 602 824 Q 584 823 592 803 Q 610 770 540 654 Q 507 602 462 544 Q 453 534 451 529 Q 448 519 461 521 Q 488 525 557 607 Q 564 616 572 624 L 589 646 Z" style="fill: #0070C0;"></path>
                                                                        <path d="M 572 624 Q 590 617 647 626 Q 689 641 692 634 Q 696 630 692 620 Q 658 533 635 493 Q 628 480 626 472 C 616 444 633 457 653 479 Q 674 501 714 553 Q 753 604 792 633 Q 810 645 797 658 Q 782 671 744 690 Q 726 696 712 685 Q 702 681 626 655 Q 610 651 589 646 C 560 639 543 630 572 624 Z" style="fill: #0070C0;"></path>
                                                                        <path d="M 626 472 Q 572 459 518 449 C 489 443 496 406 524 416 Q 557 428 616 439 L 649 448 Q 695 461 740 471 Q 765 478 775 469 Q 784 460 780 442 Q 770 402 759 366 C 750 337 798 330 809 358 Q 836 428 866 448 Q 882 466 868 483 Q 796 543 739 510 Q 694 492 653 479 L 626 472 Z" style="fill: #0070C0;"></path>
                                                                        <path d="M 616 439 Q 619 433 619 326 C 619 296 654 306 658 336 Q 667 405 667 408 Q 674 421 667 430 Q 658 440 649 448 C 627 468 610 468 616 439 Z" style="fill: #0070C0;"></path>
                                                                        <path d="M 505 270 Q 506 270 508 269 Q 518 268 532 270 Q 622 298 817 329 Q 827 330 829 340 Q 829 347 809 358 L 759 366 Q 755 366 751 364 Q 702 349 658 336 L 619 326 Q 558 313 508 302 C 479 296 475 274 505 270 Z" style="fill: #0070C0;"></path>
                                                                        <path d="M 518 449 Q 505 462 482 471 Q 469 475 461 470 Q 454 466 460 449 Q 472 410 469 373 Q 453 147 472 85 Q 476 57 504 35 Q 588 -28 790 -3 Q 820 3 849 10 Q 901 25 954 58 Q 975 77 957 104 Q 941 132 911 218 Q 910 234 901 238 Q 894 241 892 222 Q 876 126 860 95 Q 818 44 668 46 Q 611 47 568 63 Q 528 81 519 104 Q 495 152 505 270 L 508 302 Q 512 357 524 416 C 529 442 529 442 518 449 Z" style="fill: #0070C0;"></path>
                                    
                                    
                                                                                                                                                                                                                                                                                                                                                                                                                                                                                                                                                                                                                                                                                                                                                                                                                                                                                                                                                </g>
                            </svg>