<svg width='83' height='83' >
                                <g transform="translate(3, 70) scale(0.07, -0.07)">
                                    <!-- 先将完整的字以灰色字体绘制完成，层级位于下面 -->
                                                                        <path d="M 313 641 Q 356 722 386 750 Q 395 760 390 774 Q 386 786 358 808 Q 333 824 314 825 Q 296 824 304 802 Q 319 771 306 744 Q 249 599 86 402 Q 76 392 75 386 Q 71 376 85 378 Q 142 387 295 614 L 313 641 Z" style="fill: #0070C0;"></path>
                                                                        <path d="M 295 614 Q 337 601 379 615 Q 410 622 444 632 Q 459 636 461 638 Q 468 645 464 654 Q 457 664 429 668 Q 402 671 345 648 L 313 641 C 284 635 266 622 295 614 Z" style="fill: #0070C0;"></path>
                                                                        <path d="M 303 467 Q 303 468 408 503 Q 430 510 434 514 Q 441 523 436 530 Q 429 540 401 543 Q 373 544 347 530 Q 322 520 295 509 Q 264 499 228 491 Q 195 481 221 469 Q 236 463 258 461 L 303 467 Z" style="fill: #0070C0;"></path>
                                                                        <path d="M 327 329 Q 360 341 397 351 Q 428 361 434 366 Q 441 375 436 382 Q 429 392 401 396 Q 374 399 328 376 L 281 358 Q 238 345 177 331 Q 144 322 169 309 Q 211 291 259 308 Q 268 311 281 314 L 327 329 Z" style="fill: #0070C0;"></path>
                                                                        <path d="M 281 314 Q 275 215 250 173 Q 205 125 254 82 Q 267 75 278 91 Q 291 119 420 237 Q 436 250 440 258 Q 444 268 434 267 Q 424 267 325 207 Q 319 203 317 208 Q 324 274 327 329 L 328 376 Q 328 380 329 382 Q 329 404 333 424 Q 339 443 303 467 C 279 485 246 489 258 461 Q 279 416 281 358 L 281 314 Z" style="fill: #0070C0;"></path>
                                                                        <path d="M 673 621 Q 830 651 838 658 Q 847 665 843 673 Q 836 683 810 691 Q 791 697 680 665 L 623 652 Q 568 643 509 638 Q 475 634 499 617 Q 532 596 601 608 Q 607 609 617 610 L 673 621 Z" style="fill: #0070C0;"></path>
                                                                        <path d="M 649 508 Q 665 512 785 528 Q 794 527 801 538 Q 802 548 783 556 Q 756 577 682 553 Q 670 552 658 547 L 603 536 Q 560 533 508 525 Q 483 521 502 507 Q 529 488 567 494 Q 579 497 595 498 L 649 508 Z" style="fill: #0070C0;"></path>
                                                                        <path d="M 616 401 Q 721 423 921 424 Q 939 425 943 433 Q 947 443 933 455 Q 884 494 814 472 Q 757 460 674 446 Q 650 443 628 438 L 575 430 Q 514 423 455 412 Q 436 411 450 395 Q 463 383 479 378 Q 498 374 512 378 Q 534 385 560 390 L 616 401 Z" style="fill: #0070C0;"></path>
                                                                        <path d="M 568 292 Q 593 344 616 401 L 628 438 Q 632 450 649 508 L 658 547 Q 665 584 673 621 L 680 665 Q 692 743 702 770 Q 712 783 705 798 Q 689 816 659 832 Q 640 844 627 840 Q 614 833 620 819 Q 639 786 631 709 Q 630 699 628 684 Q 627 668 623 652 L 617 610 Q 610 573 603 536 L 595 498 Q 585 464 575 430 L 560 390 Q 553 375 548 359 Q 499 245 400 115 Q 396 108 393 102 Q 389 92 400 93 Q 439 99 538 239 Q 550 260 563 281 L 568 292 Z" style="fill: #0070C0;"></path>
                                                                        <path d="M 789 282 Q 798 288 891 294 Q 900 293 908 304 Q 909 314 889 325 Q 864 350 799 327 Q 796 327 796 326 L 741 314 Q 657 305 572 294 Q 569 294 568 292 C 555 288 555 288 563 281 Q 575 269 593 259 Q 605 252 625 257 Q 677 267 742 275 L 789 282 Z" style="fill: #0070C0;"></path>
                                                                        <path d="M 708 46 Q 678 52 649 59 Q 639 60 639 55 Q 640 48 649 41 Q 713 -14 735 -48 Q 748 -64 762 -51 Q 795 -21 794 44 Q 790 92 789 282 L 796 326 Q 797 330 800 335 Q 807 351 793 364 Q 769 383 743 393 Q 727 399 719 392 Q 713 386 723 372 Q 739 344 741 314 L 742 275 Q 748 65 728 48 Q 721 42 708 46 Z" style="fill: #0070C0;"></path>
                                                                        <path d="M 553 185 Q 578 164 606 139 Q 616 129 629 130 Q 638 130 641 141 Q 645 151 638 175 Q 629 202 549 222 Q 536 225 532 223 Q 528 219 529 209 Q 532 202 553 185 Z" style="fill: #0070C0;"></path>
                                    
                                    
                                                                                                                                                                                                                                                                                                                                                                                                                                                                                                                                                                                                                                                                                                                                                                                                                                                                                                                                                                                                                            </g>
                            </svg>