<svg width='83' height='83' >
                                <g transform="translate(3, 70) scale(0.07, -0.07)">
                                    <!-- 先将完整的字以灰色字体绘制完成，层级位于下面 -->
                                                                        <path d="M 252 620 Q 295 708 319 733 Q 328 743 323 756 Q 319 768 291 787 Q 266 803 247 802 Q 231 799 239 779 Q 252 754 234 701 Q 174 554 49 389 Q 40 379 38 373 Q 35 363 48 366 Q 93 372 228 581 Q 229 585 232 588 L 252 620 Z" style="fill: #0070C0;"></path>
                                                                        <path d="M 232 588 Q 268 585 344 607 Q 353 610 363 612 Q 376 616 378 618 Q 385 627 380 634 Q 373 644 345 647 Q 317 648 291 634 Q 278 628 261 623 Q 255 622 252 620 C 224 608 202 590 232 588 Z" style="fill: #0070C0;"></path>
                                                                        <path d="M 226 451 Q 236 454 249 459 Q 351 493 354 496 Q 361 503 356 510 Q 349 520 323 523 Q 304 524 231 493 Q 204 484 171 477 Q 141 468 165 457 Q 174 454 185 451 C 207 445 207 445 226 451 Z" style="fill: #0070C0;"></path>
                                                                        <path d="M 257 322 Q 285 332 316 341 Q 346 351 350 356 Q 357 363 352 370 Q 345 380 319 383 Q 286 386 257 367 L 212 348 Q 205 347 199 344 Q 159 331 112 321 Q 81 312 105 300 Q 145 285 190 301 Q 200 305 214 308 L 257 322 Z" style="fill: #0070C0;"></path>
                                                                        <path d="M 214 308 Q 217 164 175 104 Q 154 79 192 40 Q 192 39 195 37 Q 208 30 217 46 Q 227 70 326 177 Q 342 190 345 199 Q 346 208 338 207 Q 334 207 256 159 Q 252 155 250 158 Q 257 249 257 322 L 257 367 Q 257 389 261 406 Q 265 419 256 428 Q 240 443 226 451 C 201 468 175 479 185 451 Q 184 447 189 439 Q 210 397 212 348 L 214 308 Z" style="fill: #0070C0;"></path>
                                                                        <path d="M 660 588 Q 727 604 800 618 Q 837 628 843 633 Q 852 640 847 649 Q 840 659 812 667 Q 782 673 753 661 Q 716 648 679 637 L 634 627 Q 595 621 553 616 Q 517 610 543 594 Q 571 578 620 580 L 660 588 Z" style="fill: #0070C0;"></path>
                                                                        <path d="M 740 405 Q 797 414 846 414 Q 874 414 866 428 Q 859 441 843 448 Q 834 451 742 435 L 691 427 Q 661 426 628 420 Q 609 419 606 422 Q 602 434 660 588 L 679 637 Q 712 721 727 735 Q 737 747 722 765 Q 697 789 677 800 Q 664 807 656 804 Q 647 800 654 780 Q 664 746 634 627 L 620 580 Q 578 460 543 424 Q 528 408 534 394 Q 541 375 551 366 Q 560 357 570 362 Q 604 380 691 396 L 740 405 Z" style="fill: #0070C0;"></path>
                                                                        <path d="M 691 314 Q 609 302 511 289 Q 492 286 506 271 Q 519 258 536 253 Q 555 249 571 253 Q 626 268 691 274 L 738 279 Q 777 282 912 283 Q 931 283 935 291 Q 939 301 925 315 Q 873 354 811 336 Q 778 330 738 322 L 691 314 Z" style="fill: #0070C0;"></path>
                                                                        <path d="M 742 435 Q 742 471 751 503 Q 754 518 742 526 Q 714 545 702 547 Q 692 551 678 543 Q 671 537 676 528 Q 691 498 691 431 Q 691 430 691 427 L 691 396 Q 691 359 691 314 L 691 274 Q 691 144 703 118 Q 707 112 714 115 Q 721 118 725 130 Q 737 170 738 279 L 738 322 Q 738 356 740 405 L 742 435 Z" style="fill: #0070C0;"></path>
                                                                        <path d="M 401 668 Q 447 593 472 587 Q 485 584 495 602 Q 498 615 491 636 Q 484 655 460 667 Q 426 689 409 694 Q 400 697 397 686 Q 396 677 401 668 Z" style="fill: #0070C0;"></path>
                                                                        <path d="M 464 183 Q 477 190 482 207 Q 489 241 455 292 Q 428 343 495 432 Q 514 448 496 462 Q 478 475 448 486 Q 430 495 395 466 Q 340 439 336 439 Q 329 439 328 435 Q 327 431 334 427 Q 365 414 407 435 Q 416 438 423 428 Q 445 409 425 381 Q 382 335 423 278 Q 447 239 448 213 Q 449 197 446 188 C 442 165 442 165 464 183 Z" style="fill: #0070C0;"></path>
                                                                        <path d="M 446 188 Q 428 192 406 189 Q 384 185 364 190 Q 349 193 347 186 Q 343 176 356 165 Q 372 147 423 156 Q 456 160 518 127 Q 615 75 731 8 Q 762 -13 809 5 Q 870 24 928 45 Q 947 51 947 59 Q 947 69 900 70 Q 726 82 699 89 Q 489 173 477 178 Q 471 181 464 183 L 446 188 Z" style="fill: #0070C0;"></path>
                                    
                                    
                                                                                                                                                                                                                                                                                                                                                                                                                                                                                                                                                                                                                                                                                                                                                                                                                                                                                                                                                                                                                            </g>
                            </svg>