<svg width='83' height='83' >
                                <g transform="translate(3, 70) scale(0.07, -0.07)">
                                    <!-- 先将完整的字以灰色字体绘制完成，层级位于下面 -->
                                                                        <path d="M 287 626 Q 348 728 365 742 Q 374 752 370 765 Q 366 778 338 800 Q 313 818 294 817 Q 276 816 284 794 Q 299 760 285 733 Q 213 567 47 374 Q 37 364 35 358 Q 31 348 45 350 Q 99 359 267 595 L 287 626 Z" style="fill: #0070C0;"></path>
                                                                        <path d="M 267 595 Q 294 592 370 611 Q 394 620 420 626 Q 439 633 442 636 Q 449 643 444 650 Q 437 660 411 663 Q 393 664 322 637 Q 321 637 287 626 C 258 617 237 597 267 595 Z" style="fill: #0070C0;"></path>
                                                                        <path d="M 295 454 Q 409 487 418 494 Q 425 503 420 510 Q 413 520 385 523 Q 357 526 331 512 Q 306 502 279 491 Q 248 482 212 475 Q 181 466 205 453 Q 226 446 247 445 L 295 454 Z" style="fill: #0070C0;"></path>
                                                                        <path d="M 311 311 Q 404 342 409 346 Q 416 353 412 362 Q 405 372 377 376 Q 341 379 312 360 L 268 342 Q 258 341 252 337 Q 210 324 161 315 Q 128 306 154 293 Q 193 274 243 292 Q 253 296 268 299 L 311 311 Z" style="fill: #0070C0;"></path>
                                                                        <path d="M 268 299 Q 264 187 241 145 Q 202 91 243 54 Q 253 47 265 62 Q 278 87 404 198 Q 420 211 424 219 Q 427 228 419 227 Q 406 227 312 171 Q 305 167 303 174 Q 309 249 311 311 L 312 360 Q 312 399 316 418 Q 320 433 295 454 C 273 475 235 472 247 445 Q 268 403 268 342 L 268 299 Z" style="fill: #0070C0;"></path>
                                                                        <path d="M 661 575 Q 674 714 690 786 Q 694 796 676 810 Q 645 828 622 832 Q 607 835 600 827 Q 593 820 600 807 Q 616 786 616 771 Q 623 675 621 563 C 621 533 658 545 661 575 Z" style="fill: #0070C0;"></path>
                                                                        <path d="M 484 685 Q 520 618 545 612 Q 558 609 567 625 Q 570 638 564 658 Q 549 691 492 710 Q 485 713 481 702 Q 478 695 484 685 Z" style="fill: #0070C0;"></path>
                                                                        <path d="M 777 744 Q 770 729 713 649 Q 706 633 720 637 Q 759 662 816 708 Q 832 723 852 733 Q 870 743 860 757 Q 847 772 824 783 Q 802 793 792 790 Q 780 789 785 777 Q 789 761 777 744 Z" style="fill: #0070C0;"></path>
                                                                        <path d="M 530 549 Q 511 562 491 568 Q 482 569 477 562 Q 474 558 481 548 Q 517 467 492 304 Q 480 250 483 236 Q 492 206 502 195 Q 512 183 521 196 Q 542 226 543 390 Q 543 495 547 524 C 548 537 548 537 530 549 Z" style="fill: #0070C0;"></path>
                                                                        <path d="M 745 272 Q 738 250 752 229 Q 765 201 774 202 Q 787 203 803 235 Q 816 260 815 280 Q 788 479 824 537 Q 834 552 826 561 Q 801 583 755 602 Q 740 606 719 598 Q 691 586 661 575 L 621 563 Q 570 553 530 549 C 500 546 518 519 547 524 Q 550 524 646 544 Q 719 565 736 554 Q 746 533 750 476 Q 754 305 745 272 Z" style="fill: #0070C0;"></path>
                                                                        <path d="M 619 384 Q 622 195 566 108 Q 548 87 523 66 Q 490 39 415 4 Q 405 0 402 -3 Q 398 -7 411 -10 Q 456 -14 548 37 Q 657 104 663 313 Q 667 385 677 410 Q 681 420 674 426 Q 659 439 629 451 Q 611 458 598 453 Q 582 447 595 433 Q 617 409 619 384 Z" style="fill: #0070C0;"></path>
                                                                        <path d="M 694 132 Q 740 80 792 7 Q 805 -15 820 -20 Q 829 -23 837 -14 Q 850 -2 843 42 Q 837 84 769 124 Q 723 151 698 162 Q 691 169 687 157 Q 684 144 694 132 Z" style="fill: #0070C0;"></path>
                                    
                                    
                                                                                                                                                                                                                                                                                                                                                                                                                                                                                                                                                                                                                                                                                                                                                                                                                                                                                                                                                                                                                            </g>
                            </svg>