<svg width='83' height='83' >
                                <g transform="translate(3, 70) scale(0.07, -0.07)">
                                    <!-- 先将完整的字以灰色字体绘制完成，层级位于下面 -->
                                                                        <path d="M 299 641 Q 338 713 366 740 Q 375 750 370 764 Q 366 777 338 800 Q 311 818 293 817 Q 274 816 282 794 Q 297 763 285 735 Q 248 644 191 560 Q 137 479 63 390 Q 53 380 50 374 Q 47 364 61 366 Q 118 375 275 605 Q 278 609 281 614 L 299 641 Z" style="fill: #0070C0;"></path>
                                                                        <path d="M 281 614 Q 320 601 363 616 Q 397 625 434 635 Q 450 639 453 642 Q 460 649 456 658 Q 449 668 421 672 Q 406 673 332 649 Q 314 646 299 641 C 270 632 252 623 281 614 Z" style="fill: #0070C0;"></path>
                                                                        <path d="M 291 463 Q 300 467 400 497 Q 422 504 426 509 Q 433 518 428 525 Q 421 535 391 539 Q 361 542 334 527 Q 309 515 281 506 Q 250 496 213 489 Q 179 479 205 466 Q 220 460 247 455 L 291 463 Z" style="fill: #0070C0;"></path>
                                                                        <path d="M 317 329 Q 344 339 377 347 Q 408 357 413 362 Q 420 369 416 378 Q 409 388 381 392 Q 365 393 317 378 L 270 358 Q 261 357 252 353 Q 209 340 157 331 Q 124 322 150 309 Q 190 290 239 307 Q 254 311 272 316 L 317 329 Z" style="fill: #0070C0;"></path>
                                                                        <path d="M 272 316 Q 272 181 239 129 Q 196 87 241 40 L 243 39 Q 256 32 267 47 Q 282 75 422 190 Q 440 202 444 210 Q 448 220 438 220 Q 423 219 320 161 Q 310 155 308 165 Q 315 256 317 329 L 317 378 Q 317 402 322 420 Q 326 433 318 443 Q 305 456 291 463 C 266 479 235 483 247 455 Q 268 412 270 358 L 272 316 Z" style="fill: #0070C0;"></path>
                                                                        <path d="M 599 765 Q 627 743 657 716 Q 673 703 689 705 Q 699 706 705 720 Q 709 736 698 767 Q 686 798 591 815 Q 575 819 568 815 Q 562 811 565 797 Q 569 787 599 765 Z" style="fill: #0070C0;"></path>
                                                                        <path d="M 689 391 Q 705 369 721 362 Q 731 355 744 375 Q 759 405 780 557 Q 786 587 806 611 Q 818 623 806 635 Q 790 650 749 672 Q 730 679 679 660 Q 664 660 544 620 C 516 611 536 581 564 591 Q 612 609 691 627 Q 710 631 717 625 Q 733 609 731 592 Q 716 469 701 422 C 693 393 687 394 689 391 Z" style="fill: #0070C0;"></path>
                                                                        <path d="M 556 477 Q 625 493 673 504 Q 695 510 686 521 Q 674 534 650 536 Q 625 537 555 506 C 528 494 527 470 556 477 Z" style="fill: #0070C0;"></path>
                                                                        <path d="M 585 375 Q 642 385 689 391 C 719 395 728 408 701 422 Q 697 425 689 426 Q 664 429 556 397 C 506 382 539 367 585 375 Z" style="fill: #0070C0;"></path>
                                                                        <path d="M 544 620 Q 525 636 507 644 Q 488 651 478 645 Q 468 638 477 622 Q 537 496 492 128 Q 482 88 449 43 Q 436 27 444 2 Q 456 -26 469 -39 Q 482 -48 496 -29 Q 512 -1 658 118 Q 679 131 684 141 Q 688 151 678 152 Q 662 152 559 99 Q 546 92 544 105 Q 554 243 555 360 L 556 397 Q 556 439 556 477 L 555 506 Q 556 548 563 583 Q 564 587 564 591 C 566 604 566 604 544 620 Z" style="fill: #0070C0;"></path>
                                                                        <path d="M 715 244 Q 815 308 866 331 Q 885 335 882 347 Q 878 365 858 386 Q 839 407 815 411 Q 799 412 798 391 Q 799 376 789 359 Q 758 319 697 259 C 676 238 690 228 715 244 Z" style="fill: #0070C0;"></path>
                                                                        <path d="M 697 259 Q 649 305 592 367 Q 588 371 585 375 C 565 397 531 378 555 360 Q 580 344 598 318 Q 790 78 822 71 Q 900 71 961 84 Q 977 87 982 94 Q 985 101 975 104 Q 813 152 715 244 L 697 259 Z" style="fill: #0070C0;"></path>
                                    
                                    
                                                                                                                                                                                                                                                                                                                                                                                                                                                                                                                                                                                                                                                                                                                                                                                                                                                                                                                                                                                                                            </g>
                            </svg>