<svg width='83' height='83' >
                                <g transform="translate(3, 70) scale(0.07, -0.07)">
                                    <!-- 先将完整的字以灰色字体绘制完成，层级位于下面 -->
                                                                        <path d="M 292 637 Q 349 739 367 757 Q 377 767 371 781 Q 367 794 338 815 Q 311 833 292 832 Q 274 829 283 808 Q 298 777 286 750 Q 226 594 78 407 Q 68 397 66 390 Q 63 380 77 382 Q 128 391 270 603 Q 271 607 275 610 L 292 637 Z" style="fill: #0070C0;"></path>
                                                                        <path d="M 275 610 Q 317 597 359 611 Q 390 618 424 628 Q 439 632 441 634 Q 448 641 444 650 Q 437 660 409 664 Q 382 667 325 644 Q 324 644 292 637 C 263 631 246 618 275 610 Z" style="fill: #0070C0;"></path>
                                                                        <path d="M 299 467 Q 299 468 302 469 Q 422 506 426 512 Q 433 519 428 526 Q 421 536 395 539 Q 368 540 344 528 Q 319 516 291 506 Q 260 496 224 489 Q 193 480 217 468 Q 232 462 255 459 C 276 456 276 456 299 467 Z" style="fill: #0070C0;"></path>
                                                                        <path d="M 325 332 Q 362 345 401 356 Q 437 369 442 374 Q 449 383 444 390 Q 437 400 409 404 Q 373 405 325 379 L 278 361 Q 274 360 271 359 Q 222 343 165 331 Q 132 322 157 309 Q 196 293 273 317 Q 276 318 280 319 L 325 332 Z" style="fill: #0070C0;"></path>
                                                                        <path d="M 280 319 Q 280 184 242 131 Q 206 98 248 50 Q 248 49 251 47 Q 264 40 275 55 Q 290 83 430 198 Q 448 210 452 218 Q 456 228 446 228 Q 431 227 328 169 Q 318 163 316 173 Q 323 261 325 332 L 325 379 Q 325 404 330 424 Q 334 437 326 447 Q 313 460 299 467 C 274 483 243 487 255 459 Q 276 414 278 361 L 280 319 Z" style="fill: #0070C0;"></path>
                                                                        <path d="M 493 698 Q 481 702 466 704 Q 456 705 452 701 Q 448 697 455 682 Q 480 633 499 550 Q 502 526 517 510 Q 533 491 538 505 Q 539 511 540 519 L 539 543 Q 527 607 517 665 C 512 692 512 692 493 698 Z" style="fill: #0070C0;"></path>
                                                                        <path d="M 806 553 Q 806 550 808 547 Q 812 532 823 533 Q 836 534 843 547 Q 853 556 872 605 Q 888 653 923 679 Q 941 694 926 708 Q 910 724 864 750 Q 852 759 790 745 Q 708 738 601 715 Q 538 705 493 698 C 463 693 488 658 517 665 Q 521 665 525 666 Q 550 675 589 681 L 613 686 Q 653 695 705 701 L 741 706 Q 810 721 836 708 Q 843 704 838 680 Q 819 595 810 578 C 803 560 803 560 806 553 Z" style="fill: #0070C0;"></path>
                                                                        <path d="M 636 559 Q 636 560 637 560 Q 640 582 620 666 Q 619 669 619 670 Q 618 679 613 686 C 597 712 589 711 589 681 Q 589 591 615 555 C 628 535 628 535 636 559 Z" style="fill: #0070C0;"></path>
                                                                        <path d="M 722 574 Q 762 665 765 668 Q 775 678 768 687 Q 759 697 741 706 C 714 720 693 728 705 701 Q 720 674 696 570 C 689 541 710 547 722 574 Z" style="fill: #0070C0;"></path>
                                                                        <path d="M 623 528 Q 723 544 806 553 C 836 556 837 565 810 578 Q 804 582 797 583 Q 770 587 722 574 L 696 570 Q 665 566 636 559 L 615 555 Q 575 551 539 543 C 510 537 510 517 540 519 Q 547 519 590 523 L 623 528 Z" style="fill: #0070C0;"></path>
                                                                        <path d="M 618 429 Q 636 459 655 472 Q 662 479 660 490 Q 657 500 636 520 Q 629 526 623 528 C 597 542 583 549 590 523 Q 590 522 591 519 Q 609 471 463 300 Q 454 293 452 288 Q 449 279 460 280 Q 475 283 529 329 L 544 345 Q 545 348 549 350 Q 573 372 599 405 L 618 429 Z" style="fill: #0070C0;"></path>
                                                                        <path d="M 742 342 Q 679 132 438 -5 Q 414 -9 418 -20 Q 419 -24 427 -24 Q 545 -17 674 121 Q 690 142 709 164 Q 760 233 811 343 Q 829 373 857 392 Q 873 399 874 410 Q 873 423 843 442 Q 806 467 789 467 Q 777 467 765 458 Q 684 436 625 429 Q 621 430 618 429 C 588 426 570 414 599 405 Q 638 384 719 411 Q 746 421 757 412 Q 766 406 742 342 Z" style="fill: #0070C0;"></path>
                                                                        <path d="M 529 329 Q 532 322 550 304 Q 581 274 612 239 Q 622 227 635 227 Q 644 226 649 237 Q 653 249 649 273 Q 646 295 616 315 Q 559 345 544 345 C 518 348 518 348 529 329 Z" style="fill: #0070C0;"></path>
                                    
                                    
                                                                                                                                                                                                                                                                                                                                                                                                                                                                                                                                                                                                                                                                                                                                                                                                                                                                                                                                                                                                                                                                                                        </g>
                            </svg>