<svg width='83' height='83' >
                                <g transform="translate(3, 70) scale(0.07, -0.07)">
                                    <!-- 先将完整的字以灰色字体绘制完成，层级位于下面 -->
                                                                        <path d="M 290 651 Q 345 738 361 754 Q 370 764 365 777 Q 361 790 334 812 Q 309 830 291 829 Q 272 828 280 806 Q 293 776 282 750 Q 246 663 191 583 Q 139 507 67 422 Q 57 412 55 406 Q 51 396 65 398 Q 114 407 269 619 Q 270 623 274 627 L 290 651 Z" style="fill: #0070C0;"></path>
                                                                        <path d="M 274 627 Q 311 615 369 629 Q 400 638 436 646 Q 454 652 457 654 Q 464 661 460 670 Q 453 680 425 684 Q 401 687 333 662 Q 312 658 290 651 C 261 642 245 635 274 627 Z" style="fill: #0070C0;"></path>
                                                                        <path d="M 287 482 Q 405 516 409 520 Q 416 527 411 534 Q 404 544 379 548 Q 354 551 328 539 Q 303 529 275 519 Q 245 510 209 505 Q 178 498 202 484 Q 221 475 247 475 L 287 482 Z" style="fill: #0070C0;"></path>
                                                                        <path d="M 315 354 Q 412 382 417 386 Q 424 393 420 401 Q 413 411 385 417 Q 363 420 316 401 L 271 385 Q 214 373 158 359 Q 125 352 150 337 Q 190 318 240 334 Q 255 338 273 342 L 315 354 Z" style="fill: #0070C0;"></path>
                                                                        <path d="M 273 342 Q 273 207 234 151 Q 204 124 246 80 Q 246 79 249 77 Q 261 70 271 86 Q 283 111 401 226 Q 417 239 420 247 Q 423 256 414 255 Q 405 255 314 197 Q 308 193 307 198 Q 314 283 315 354 L 316 401 Q 316 422 320 438 Q 324 450 316 460 Q 301 473 287 482 C 262 499 235 502 247 475 Q 247 474 249 471 Q 268 431 271 385 L 273 342 Z" style="fill: #0070C0;"></path>
                                                                        <path d="M 634 769 Q 656 750 681 725 Q 696 712 713 713 Q 723 714 729 728 Q 733 744 723 775 Q 711 802 627 819 Q 611 822 604 819 Q 598 815 601 801 Q 605 791 634 769 Z" style="fill: #0070C0;"></path>
                                                                        <path d="M 514 590 Q 501 617 483 627 Q 479 631 474 627 Q 470 623 469 612 Q 473 582 445 516 Q 435 500 436 482 Q 440 463 449 449 Q 456 439 462 446 Q 474 449 489 496 Q 507 556 515 563 C 523 573 523 573 514 590 Z" style="fill: #0070C0;"></path>
                                                                        <path d="M 515 563 Q 537 553 558 560 Q 672 605 781 618 Q 796 621 802 620 Q 815 610 811 603 Q 811 599 788 530 Q 782 517 789 513 Q 796 509 811 522 Q 860 562 902 577 Q 936 590 935 599 Q 934 608 863 651 Q 842 666 778 648 Q 718 639 514 590 C 485 583 486 572 515 563 Z" style="fill: #0070C0;"></path>
                                                                        <path d="M 668 427 Q 783 461 785 462 Q 792 469 788 477 Q 781 487 753 492 Q 726 496 661 469 Q 604 451 554 443 Q 521 436 546 421 Q 580 405 626 415 L 668 427 Z" style="fill: #0070C0;"></path>
                                                                        <path d="M 682 168 Q 685 232 687 285 L 688 314 Q 691 405 691 407 Q 681 417 668 427 C 645 446 618 444 626 415 Q 635 397 639 192 C 640 162 681 138 682 168 Z" style="fill: #0070C0;"></path>
                                                                        <path d="M 687 285 Q 742 285 824 312 L 825 312 Q 832 319 828 326 Q 821 336 795 340 Q 770 343 714 321 Q 701 318 688 314 C 659 305 657 285 687 285 Z" style="fill: #0070C0;"></path>
                                                                        <path d="M 547 252 Q 557 271 569 286 Q 579 298 565 311 Q 529 341 503 338 Q 493 337 494 323 Q 506 220 393 98 Q 383 94 345 47 Q 338 34 351 37 Q 370 41 395 61 Q 474 124 517 201 Q 524 216 534 230 L 547 252 Z" style="fill: #0070C0;"></path>
                                                                        <path d="M 534 230 Q 640 134 753 48 Q 780 27 819 30 Q 889 34 962 59 Q 981 63 982 69 Q 983 76 968 80 Q 916 93 854 104 Q 781 122 682 168 L 639 192 Q 594 222 547 252 C 522 268 512 250 534 230 Z" style="fill: #0070C0;"></path>
                                    
                                    
                                                                                                                                                                                                                                                                                                                                                                                                                                                                                                                                                                                                                                                                                                                                                                                                                                                                                                                                                                                                                                                                                                        </g>
                            </svg>