<svg width='83' height='83' >
                                <g transform="translate(3, 70) scale(0.07, -0.07)">
                                    <!-- 先将完整的字以灰色字体绘制完成，层级位于下面 -->
                                                                        <path d="M 290 619 Q 338 712 367 739 Q 377 749 372 764 Q 368 777 338 799 Q 310 818 291 817 Q 272 816 281 793 Q 296 760 284 732 Q 247 638 189 549 Q 134 464 58 371 Q 48 361 46 355 Q 43 343 57 346 Q 108 352 269 587 Q 270 591 274 595 L 290 619 Z" style="fill: #0070C0;"></path>
                                                                        <path d="M 274 595 Q 313 579 360 592 Q 394 599 430 608 Q 446 612 448 614 Q 455 621 451 629 Q 444 639 417 645 Q 390 649 330 627 Q 323 627 290 619 C 261 612 246 606 274 595 Z" style="fill: #0070C0;"></path>
                                                                        <path d="M 282 439 Q 328 455 380 470 Q 402 479 406 482 Q 413 491 408 498 Q 401 508 373 511 Q 345 512 319 499 Q 294 487 265 477 Q 234 467 196 459 Q 163 449 189 437 Q 210 430 232 429 L 282 439 Z" style="fill: #0070C0;"></path>
                                                                        <path d="M 301 305 Q 338 318 379 330 Q 413 340 418 346 Q 425 355 420 362 Q 413 372 385 376 Q 349 377 302 352 L 252 332 Q 206 317 153 307 Q 120 298 145 285 Q 182 270 243 288 Q 247 289 253 290 L 301 305 Z" style="fill: #0070C0;"></path>
                                                                        <path d="M 253 290 Q 249 172 221 125 Q 176 76 225 31 L 227 30 Q 240 23 252 40 Q 265 71 408 207 Q 424 220 429 230 Q 432 240 422 239 Q 407 239 297 163 Q 293 159 290 163 Q 297 241 301 305 L 302 352 Q 302 377 307 398 Q 313 416 282 439 C 259 459 222 457 232 429 Q 250 384 252 332 L 253 290 Z" style="fill: #0070C0;"></path>
                                                                        <path d="M 512 732 Q 546 677 571 664 Q 583 660 592 669 Q 599 679 598 693 Q 597 712 584 726 Q 569 741 527 762 Q 514 769 506 766 Q 500 766 501 756 Q 501 746 512 732 Z" style="fill: #0070C0;"></path>
                                                                        <path d="M 717 787 Q 705 763 645 669 Q 638 653 653 658 Q 698 692 722 716 Q 770 765 795 780 Q 813 790 802 806 Q 787 819 763 830 Q 741 840 729 836 Q 717 833 723 821 Q 727 805 717 787 Z" style="fill: #0070C0;"></path>
                                                                        <path d="M 635 587 Q 692 600 753 612 Q 793 622 799 628 Q 806 635 803 642 Q 796 652 771 658 Q 746 662 720 653 Q 674 637 624 624 Q 569 611 503 604 Q 472 598 495 584 Q 526 568 595 578 L 635 587 Z" style="fill: #0070C0;"></path>
                                                                        <path d="M 648 482 Q 678 489 762 501 Q 771 500 778 511 Q 779 520 760 528 Q 733 546 654 519 Q 651 519 650 518 L 602 507 Q 581 504 499 491 Q 477 488 494 474 Q 521 456 555 463 Q 574 469 603 473 L 648 482 Z" style="fill: #0070C0;"></path>
                                                                        <path d="M 644 408 Q 645 448 648 482 L 650 518 Q 651 527 652 534 Q 652 571 651 572 Q 642 581 635 587 C 613 607 590 607 595 578 Q 598 566 602 507 L 603 473 Q 603 445 605 401 C 606 371 643 378 644 408 Z" style="fill: #0070C0;"></path>
                                                                        <path d="M 605 401 Q 532 391 450 375 Q 432 374 446 359 Q 459 347 474 343 Q 492 339 506 344 Q 653 386 849 386 L 851 386 Q 867 387 872 394 Q 876 404 862 416 Q 807 452 762 433 Q 714 423 644 408 L 605 401 Z" style="fill: #0070C0;"></path>
                                                                        <path d="M 652 244 Q 700 254 792 255 Q 808 256 812 264 Q 816 274 802 284 Q 756 317 694 296 Q 673 292 649 284 L 589 271 Q 540 262 485 251 Q 469 248 482 235 Q 503 216 550 226 Q 563 230 583 233 L 652 244 Z" style="fill: #0070C0;"></path>
                                                                        <path d="M 649 284 Q 649 285 650 285 Q 654 304 660 313 Q 667 320 661 330 Q 655 337 627 348 Q 596 364 581 358 Q 571 352 579 337 Q 588 310 589 271 L 583 233 Q 565 125 442 60 Q 409 45 361 25 Q 336 15 365 12 Q 458 8 548 77 Q 555 84 564 92 Q 606 135 636 225 L 649 284 Z" style="fill: #0070C0;"></path>
                                                                        <path d="M 636 225 Q 700 128 785 24 Q 801 8 829 8 Q 922 12 950 18 Q 959 21 960 25 Q 961 29 949 36 Q 811 96 755 147 Q 706 189 652 244 C 631 265 619 250 636 225 Z" style="fill: #0070C0;"></path>
                                    
                                    
                                                                                                                                                                                                                                                                                                                                                                                                                                                                                                                                                                                                                                                                                                                                                                                                                                                                                                                                                                                                                                                                                                                                                                                    </g>
                            </svg>