<svg width='83' height='83' >
                                <g transform="translate(3, 70) scale(0.07, -0.07)">
                                    <!-- 先将完整的字以灰色字体绘制完成，层级位于下面 -->
                                                                        <path d="M 280 632 Q 328 722 352 749 Q 361 759 356 773 Q 352 786 322 807 Q 295 823 276 823 Q 257 822 267 799 Q 283 768 271 739 Q 237 643 181 555 Q 127 470 53 375 Q 44 365 42 358 Q 39 348 53 350 Q 116 368 259 597 L 280 632 Z" style="fill: #0070C0;"></path>
                                                                        <path d="M 259 597 Q 346 597 447 637 Q 447 638 449 638 Q 456 645 452 654 Q 445 664 417 668 Q 393 671 318 642 Q 317 642 280 632 C 251 624 229 597 259 597 Z" style="fill: #0070C0;"></path>
                                                                        <path d="M 278 457 Q 278 458 281 459 Q 392 498 394 500 Q 401 507 396 514 Q 389 524 363 526 Q 341 527 267 495 Q 237 485 203 477 Q 172 468 197 456 Q 210 452 231 449 C 255 445 255 445 278 457 Z" style="fill: #0070C0;"></path>
                                                                        <path d="M 301 322 Q 332 332 369 342 Q 403 352 409 358 Q 416 365 412 373 Q 405 383 377 388 Q 353 391 301 369 L 255 351 Q 246 350 241 347 Q 195 332 138 323 Q 105 314 130 301 Q 164 285 236 304 Q 243 307 256 309 L 301 322 Z" style="fill: #0070C0;"></path>
                                                                        <path d="M 256 309 Q 256 168 215 112 Q 182 97 223 41 Q 224 38 229 35 Q 242 28 253 43 Q 263 68 379 173 Q 395 186 400 194 Q 404 204 394 204 Q 388 204 302 158 Q 293 152 292 161 Q 299 249 301 322 L 301 369 Q 301 396 306 416 Q 310 429 302 439 Q 289 451 278 457 C 253 474 219 476 231 449 Q 253 404 255 351 L 256 309 Z" style="fill: #0070C0;"></path>
                                                                        <path d="M 719 727 Q 762 733 800 736 Q 809 735 817 746 Q 818 756 799 765 Q 772 784 695 763 Q 677 760 659 755 Q 631 751 484 732 Q 459 731 478 715 Q 505 696 521 695 L 554 701 Q 606 711 674 721 L 719 727 Z" style="fill: #0070C0;"></path>
                                                                        <path d="M 521 695 Q 530 665 531 656 Q 532 635 532 469 C 532 439 564 446 565 476 Q 566 504 567 530 L 568 554 Q 569 582 571 607 L 572 633 Q 572 648 574 664 Q 581 682 554 701 C 530 719 512 724 521 695 Z" style="fill: #0070C0;"></path>
                                                                        <path d="M 738 511 Q 738 661 745 695 Q 748 710 719 727 C 694 743 665 750 674 721 Q 689 673 691 653 Q 694 533 694 501 L 695 463 Q 696 412 708 394 Q 712 390 718 391 Q 724 394 728 405 L 736 468 L 738 511 Z" style="fill: #0070C0;"></path>
                                                                        <path d="M 571 607 Q 619 619 655 624 Q 673 628 665 638 Q 656 648 636 651 Q 606 654 572 633 C 546 617 542 600 571 607 Z" style="fill: #0070C0;"></path>
                                                                        <path d="M 567 530 Q 621 542 659 549 Q 677 553 669 562 Q 660 572 640 575 Q 610 578 568 554 C 542 539 538 524 567 530 Z" style="fill: #0070C0;"></path>
                                                                        <path d="M 736 468 Q 785 474 848 476 Q 867 477 883 478 Q 901 479 904 486 Q 908 496 894 508 Q 840 541 782 522 Q 761 518 738 511 L 694 501 Q 669 497 642 491 Q 605 484 565 476 L 532 469 Q 483 462 430 452 Q 412 449 426 435 Q 453 414 495 424 Q 592 454 695 463 L 736 468 Z" style="fill: #0070C0;"></path>
                                                                        <path d="M 556 166 Q 580 209 601 270 Q 611 295 627 311 Q 643 326 631 337 Q 619 347 592 355 Q 571 361 548 348 Q 527 339 499 330 Q 471 321 423 315 Q 410 314 406 308 Q 403 302 419 295 Q 450 283 494 296 Q 525 311 532 311 Q 554 311 551 287 Q 539 232 520 190 L 501 156 Q 453 92 363 62 Q 351 58 362 52 Q 366 48 396 50 Q 468 59 530 127 L 556 166 Z" style="fill: #0070C0;"></path>
                                                                        <path d="M 530 127 Q 552 106 576 81 Q 586 68 597 64 Q 603 63 608 70 Q 617 79 608 109 Q 601 136 556 166 L 520 190 Q 465 224 434 239 Q 427 243 426 234 Q 426 225 433 218 Q 464 191 501 156 L 530 127 Z" style="fill: #0070C0;"></path>
                                                                        <path d="M 730 133 Q 684 88 626 63 Q 614 57 626 52 Q 630 48 659 50 Q 708 56 755 102 L 788 139 Q 827 208 855 300 Q 862 327 879 345 Q 895 361 882 372 Q 869 382 840 389 Q 818 393 795 379 Q 774 369 746 358 Q 718 348 670 339 Q 657 338 654 331 Q 650 325 667 319 Q 700 309 742 323 Q 773 339 780 341 Q 805 340 800 314 Q 787 223 754 169 L 730 133 Z" style="fill: #0070C0;"></path>
                                                                        <path d="M 755 102 Q 804 42 849 30 Q 909 26 960 30 Q 988 31 987 39 Q 984 48 865 94 Q 861 97 859 97 Q 817 115 794 135 Q 791 136 788 139 L 754 169 Q 723 197 693 233 Q 665 266 637 268 Q 624 269 620 265 Q 619 261 630 251 Q 663 227 729 135 L 730 133 L 755 102 Z" style="fill: #0070C0;"></path>
                                    
                                    
                                                                                                                                                                                                                                                                                                                                                                                                                                                                                                                                                                                                                                                                                                                                                                                                                                                                                                                                                                                                                                                                                                                                                                                                                                                                </g>
                            </svg>