<svg width='83' height='83' >
                                <g transform="translate(3, 70) scale(0.07, -0.07)">
                                    <!-- 先将完整的字以灰色字体绘制完成，层级位于下面 -->
                                                                        <path d="M 296 640 Q 344 722 365 742 Q 375 752 370 765 Q 366 778 338 800 Q 313 816 294 817 Q 276 816 284 794 Q 299 763 286 735 Q 222 579 62 390 Q 52 380 51 374 Q 47 364 61 366 Q 118 375 272 603 Q 275 609 278 612 L 296 640 Z" style="fill: #0070C0;"></path>
                                                                        <path d="M 278 612 Q 323 608 374 621 Q 401 628 429 636 Q 447 640 449 644 Q 456 651 452 658 Q 445 668 419 672 Q 394 675 331 649 Q 313 645 296 640 C 267 632 248 614 278 612 Z" style="fill: #0070C0;"></path>
                                                                        <path d="M 280 464 Q 283 465 369 491 Q 387 497 389 500 Q 396 507 392 514 Q 385 524 359 527 Q 332 530 308 517 Q 289 508 266 501 Q 241 494 212 489 Q 181 480 205 468 Q 220 462 239 460 L 280 464 Z" style="fill: #0070C0;"></path>
                                                                        <path d="M 312 332 Q 334 339 360 346 Q 388 353 393 358 Q 400 365 395 373 Q 388 383 361 389 Q 336 392 313 382 L 265 363 Q 181 344 158 339 Q 125 332 150 317 Q 192 299 248 316 Q 255 319 267 320 L 312 332 Z" style="fill: #0070C0;"></path>
                                                                        <path d="M 267 320 Q 267 181 230 122 Q 196 79 241 38 Q 254 31 264 47 Q 276 74 393 192 Q 409 205 413 214 Q 416 224 406 223 Q 394 223 307 165 Q 303 161 301 165 Q 310 256 312 332 L 313 382 Q 314 401 318 416 Q 322 429 313 439 Q 297 455 280 464 C 255 480 227 488 239 460 Q 260 415 265 363 L 267 320 Z" style="fill: #0070C0;"></path>
                                                                        <path d="M 535 601 Q 592 671 640 745 L 650 762 Q 653 771 667 785 Q 674 789 672 799 Q 671 808 658 818 Q 630 843 599 838 Q 592 835 593 824 Q 612 764 510 630 Q 507 629 506 625 Q 478 589 405 519 Q 398 513 407 512 Q 446 519 523 589 L 535 601 Z" style="fill: #0070C0;"></path>
                                                                        <path d="M 640 745 Q 796 568 843 561 Q 918 561 963 569 Q 978 570 979 575 Q 980 581 969 585 Q 809 648 807 649 Q 773 667 650 762 C 626 780 620 767 640 745 Z" style="fill: #0070C0;"></path>
                                                                        <path d="M 523 589 Q 533 579 561 573 Q 579 570 722 598 Q 725 599 727 601 Q 734 608 730 615 Q 724 624 701 630 Q 677 634 605 612 Q 575 606 539 602 Q 536 602 535 601 C 513 597 513 597 523 589 Z" style="fill: #0070C0;"></path>
                                                                        <path d="M 547 504 Q 538 510 508 516 Q 498 520 494 515 Q 490 511 496 497 Q 512 463 523 409 Q 524 393 535 382 Q 548 363 554 376 Q 555 382 557 389 L 556 417 Q 552 463 552 480 C 552 501 552 501 547 504 Z" style="fill: #0070C0;"></path>
                                                                        <path d="M 729 444 Q 744 474 764 486 Q 777 501 766 514 Q 753 524 713 545 Q 700 551 682 544 Q 648 529 615 520 Q 582 511 547 504 C 518 498 522 476 552 480 Q 559 480 675 505 Q 687 508 692 503 Q 696 499 696 488 Q 692 466 686 446 C 678 417 715 418 729 444 Z" style="fill: #0070C0;"></path>
                                                                        <path d="M 557 389 Q 566 388 577 390 Q 629 402 742 414 Q 751 415 752 422 Q 752 429 729 444 C 716 453 715 453 686 446 L 685 446 Q 613 427 556 417 C 526 412 527 391 557 389 Z" style="fill: #0070C0;"></path>
                                                                        <path d="M 627 319 Q 678 340 717 346 Q 729 346 732 351 Q 735 358 727 367 Q 688 398 663 398 Q 647 373 631 361 Q 556 321 493 296 Q 489 290 493 288 Q 515 288 575 305 Q 587 308 602 311 L 627 319 Z" style="fill: #0070C0;"></path>
                                                                        <path d="M 672 234 Q 702 241 735 246 Q 772 255 779 260 Q 786 267 782 274 Q 776 284 751 291 Q 721 297 660 273 L 621 262 Q 614 262 609 260 Q 557 250 496 244 Q 465 240 487 224 Q 526 203 570 214 Q 597 220 629 225 L 672 234 Z" style="fill: #0070C0;"></path>
                                                                        <path d="M 680 146 Q 741 150 827 151 Q 875 148 883 158 Q 887 168 873 180 Q 822 217 769 200 Q 730 194 678 183 L 635 176 Q 632 176 415 147 Q 396 146 410 131 Q 422 119 437 114 Q 456 110 469 114 Q 574 142 637 142 L 680 146 Z" style="fill: #0070C0;"></path>
                                                                        <path d="M 637 142 Q 640 45 615 18 Q 609 15 523 29 Q 514 32 509 28 Q 505 27 518 17 Q 575 -25 608 -62 Q 624 -77 639 -69 Q 658 -57 671 -11 Q 686 50 680 146 L 678 183 Q 677 213 672 234 L 660 273 Q 648 301 627 319 C 606 340 590 339 602 311 Q 612 289 621 262 L 629 225 Q 633 203 635 176 L 637 142 Z" style="fill: #0070C0;"></path>
                                    
                                    
                                                                                                                                                                                                                                                                                                                                                                                                                                                                                                                                                                                                                                                                                                                                                                                                                                                                                                                                                                                                                                                                                                                                                                                                                                                                </g>
                            </svg>