<svg width='83' height='83' >
                                <g transform="translate(3, 70) scale(0.07, -0.07)">
                                    <!-- 先将完整的字以灰色字体绘制完成，层级位于下面 -->
                                                                        <path d="M 290 639 Q 365 760 365 761 Q 363 778 338 797 Q 309 820 287 819 Q 269 817 276 796 Q 292 764 280 737 Q 274 722 267 707 Q 202 561 63 392 Q 53 382 50 375 Q 47 366 61 368 Q 116 376 269 604 L 290 639 Z" style="fill: #0070C0;"></path>
                                                                        <path d="M 269 604 Q 305 600 368 616 L 422 632 Q 429 639 425 649 Q 423 652 418 655 Q 387 675 306 643 Q 304 643 290 639 C 261 631 239 607 269 604 Z" style="fill: #0070C0;"></path>
                                                                        <path d="M 267 455 Q 393 494 400 500 Q 404 506 404 510 Q 402 525 367 529 Q 341 530 267 498 Q 233 488 201 480 Q 172 472 186 462.5 Q 200 453 229 451 L 267 455 Z" style="fill: #0070C0;"></path>
                                                                        <path d="M 256 353 Q 251 352 245 349 Q 204 335 147 326 Q 114 318 139 303 Q 174 288 214 295 L 258 306 L 300 318 Q 328 329 368 339 Q 401 348 406 355 Q 414 361 410 370 Q 402 380 372.5 385 Q 343 390 301 369 L 256 353 Z" style="fill: #0070C0;"></path>
                                                                        <path d="M 229 451 Q 229 447 234 438 Q 253 399 256 353 L 258 306 Q 254 176 229 134 Q 203 98 209 79 Q 213 69 217 61 Q 233 24 253 50 Q 263 72 341 141 Q 398 191 402 196 Q 406 205 396 205 Q 384 205 302 160 Q 293 153 292 163 Q 299 245 300 318 L 301 369 Q 301 382 304 395 Q 307 416 305 421 Q 301 435 267 455 C 242 471 218 479 229 451 Z" style="fill: #0070C0;"></path>
                                                                        <path d="M 587 813 Q 591 806 608 792 Q 650 759 668 739 Q 678 731 688 729 Q 705 726 711 743 Q 715 758 706 786 Q 700 804 671 815 Q 603 836 590 830 Q 586 825 587 813 Z" style="fill: #0070C0;"></path>
                                                                        <path d="M 466 665 Q 466 639 445 591 Q 428 557 428 546 Q 435 511 447 511 Q 459 510 478 557 Q 494 600 503 613 Q 503 615 504 615 C 513 630 513 630 508 639 Q 493 668 480 677 Q 478 680 476 680 Q 468 680 466 665 Z" style="fill: #0070C0;"></path>
                                                                        <path d="M 504 615 Q 525 604 550 610 Q 655 650 778 663 L 787 663 Q 800 659 798 653 Q 798 652 768 590 Q 760 577 766 574 Q 773 570 798 585 Q 843 612 876 618 Q 907 625 907 634 Q 906 643 845 690 Q 823 708 764 692 Q 650 676 508 639 C 479 632 476 626 504 615 Z" style="fill: #0070C0;"></path>
                                                                        <path d="M 598 515 Q 596 528 583 536 Q 565 548 545 548 Q 539 547 541 538 Q 547 487 455 398 Q 448 394 456 392 Q 494 392 546 449 L 594 505 Q 598 510 598 515 Z" style="fill: #0070C0;"></path>
                                                                        <path d="M 664 540 Q 664 537 665 535 Q 667 527 682 517 Q 737 476 782 435 Q 795 422 808 419 Q 811 419 814 421 Q 830 433 815 472 Q 805 503 672 547 Q 665 550 664 540 Z" style="fill: #0070C0;"></path>
                                                                        <path d="M 497 212 Q 548 263 582 305 L 645 385 L 659 404 Q 661 408 661 412 Q 661 423 634 431 Q 613 437 604 437 Q 594 435 592 422 Q 574 318 344 123 Q 339 120 337 117 Q 335 112 351 114 Q 402 123 480 194 L 497 212 Z" style="fill: #0070C0;"></path>
                                                                        <path d="M 645 385 Q 796 211 835 200 Q 986 200 988 212 Q 989 216 978 221 Q 888 257 874 262 Q 815 286 776 313 Q 760 323 659 404 C 636 423 625 408 645 385 Z" style="fill: #0070C0;"></path>
                                                                        <path d="M 480 194 Q 482 194 489 178 Q 509 129 519 65 Q 523 41 536 25 Q 543 17 549 16 Q 561 12 559 47 L 554 79 Q 551 105 540 174 C 536 201 536 201 527 204 Q 517 208 497 212 C 468 218 462 218 480 194 Z" style="fill: #0070C0;"></path>
                                                                        <path d="M 737 104 Q 755 159 782 177 Q 798 194 785 211 Q 715 266 676 241 Q 614 221 527 204 C 498 198 511 167 540 174 Q 551 176 561 180 L 676 202 Q 692 204 698 198 Q 708 188 688 106 C 681 77 727 76 737 104 Z" style="fill: #0070C0;"></path>
                                                                        <path d="M 559 47 Q 564 45 580 47 Q 670 60 754 67 Q 764 68 766 76 Q 766 83 737 104 C 723 115 717 113 688 106 Q 615 88 554 79 C 524 75 529 51 559 47 Z" style="fill: #0070C0;"></path>
                                    
                                    
                                                                                                                                                                                                                                                                                                                                                                                                                                                                                                                                                                                                                                                                                                                                                                                                                                                                                                                                                                                                                                                                                                                                                                                                                                                                </g>
                            </svg>