<svg width='83' height='83' >
                                <g transform="translate(3, 70) scale(0.07, -0.07)">
                                    <!-- 先将完整的字以灰色字体绘制完成，层级位于下面 -->
                                                                        <path d="M 304 649 Q 353 730 372 746 Q 382 756 377 769 Q 373 782 346 804 Q 321 822 303 822 Q 284 821 292 799 Q 305 766 293 739 Q 224 586 59 393 Q 49 384 47 378 Q 43 368 57 369 Q 108 376 279 610 Q 280 614 285 619 L 304 649 Z" style="fill: #0070C0;"></path>
                                                                        <path d="M 285 619 Q 312 610 400 628 Q 443 635 456 642 Q 463 649 459 657 Q 452 667 425 673 Q 401 676 336 655 Q 329 655 304 649 C 275 642 256 627 285 619 Z" style="fill: #0070C0;"></path>
                                                                        <path d="M 293 463 Q 399 496 406 502 Q 413 511 408 518 Q 401 528 373 531 Q 346 532 273 500 Q 243 491 208 483 Q 175 473 201 461 Q 222 454 247 453 L 293 463 Z" style="fill: #0070C0;"></path>
                                                                        <path d="M 317 329 Q 344 339 377 347 Q 408 357 413 362 Q 420 369 416 378 Q 409 388 381 392 Q 365 393 317 378 L 270 358 Q 261 357 252 353 Q 209 340 157 331 Q 124 322 150 309 Q 190 290 239 307 Q 254 311 272 316 L 317 329 Z" style="fill: #0070C0;"></path>
                                                                        <path d="M 272 316 Q 272 177 233 115 Q 200 100 241 44 Q 244 41 248 38 Q 260 31 271 47 Q 281 72 396 184 Q 412 197 416 206 Q 420 216 410 215 Q 395 214 316 164 Q 310 158 308 165 Q 315 256 317 329 L 317 378 Q 317 402 322 420 Q 328 441 293 463 C 269 481 235 480 247 453 Q 268 410 270 358 L 272 316 Z" style="fill: #0070C0;"></path>
                                                                        <path d="M 723 738 Q 744 744 767 747 Q 807 757 814 762 Q 823 769 819 777 Q 812 787 786 795 Q 762 801 659 770 Q 569 752 509 746 Q 475 742 499 725 Q 500 725 541 710 L 581 712 L 667 728 L 723 738 Z" style="fill: #0070C0;"></path>
                                                                        <path d="M 497 599 Q 487 603 459 607 Q 449 610 446 605 Q 442 601 449 587 Q 473 541 489 466 Q 492 444 506 429 Q 522 411 526 425 Q 527 432 528 445 L 525 473 Q 513 542 507 569 C 501 598 501 598 497 599 Z" style="fill: #0070C0;"></path>
                                                                        <path d="M 756 482 Q 771 458 785 450 Q 794 443 808 461 Q 818 474 842 551 Q 849 579 871 600 Q 881 610 872 623 Q 859 638 822 661 Q 806 668 791 663 Q 758 656 719 646 L 675 637 Q 642 631 610 623 L 571 614 Q 531 607 497 599 C 468 592 479 559 507 569 Q 522 576 574 588 L 610 597 Q 638 604 675 611 L 716 619 Q 729 623 747 625 Q 780 632 791 621 Q 798 611 796 602 Q 778 514 767 505 C 755 483 755 483 756 482 Z" style="fill: #0070C0;"></path>
                                                                        <path d="M 541 710 Q 541 707 544 701 Q 560 671 571 614 L 574 588 Q 578 549 585 483 C 588 453 618 459 616 489 Q 612 553 610 597 L 610 623 Q 610 660 612 671 Q 613 689 602 699 Q 592 706 581 712 C 555 727 532 739 541 710 Z" style="fill: #0070C0;"></path>
                                                                        <path d="M 719 646 Q 725 694 735 718 Q 738 725 723 738 C 701 759 654 755 667 728 Q 674 715 675 703 Q 675 672 675 637 L 675 611 Q 674 559 669 501 C 666 471 698 479 702 509 Q 709 566 716 619 L 719 646 Z" style="fill: #0070C0;"></path>
                                                                        <path d="M 528 445 Q 553 457 756 482 C 786 486 789 486 767 505 Q 763 509 756 514 Q 738 523 702 509 L 669 501 Q 641 497 616 489 L 585 483 Q 554 479 525 473 C 496 467 500 435 528 445 Z" style="fill: #0070C0;"></path>
                                                                        <path d="M 533 382 Q 499 376 523 361 Q 553 342 628 353 Q 677 362 731 373 Q 759 379 763 382 Q 770 389 767 397 Q 760 407 734 415 Q 706 421 679 410 Q 648 400 614 392 Q 577 385 533 382 Z" style="fill: #0070C0;"></path>
                                                                        <path d="M 666 266 Q 759 279 878 280 Q 896 281 900 289 Q 904 299 889 311 Q 838 347 782 328 Q 683 309 434 264 Q 415 263 430 247 Q 443 235 459 231 Q 478 227 493 231 Q 554 250 626 260 L 666 266 Z" style="fill: #0070C0;"></path>
                                                                        <path d="M 626 260 Q 636 227 635 126 Q 634 74 629 62 Q 626 49 601 51 Q 579 55 555 58 Q 545 59 543 53 Q 542 47 552 38 Q 610 -8 629 -35 Q 642 -47 652 -45 Q 662 -41 674 -10 Q 689 21 687 79 Q 686 167 687 198 Q 694 235 678 255 Q 671 262 666 266 C 644 286 619 289 626 260 Z" style="fill: #0070C0;"></path>
                                                                        <path d="M 497 172 Q 469 135 435 101 Q 411 77 421 45 Q 424 29 444 35 Q 493 59 509 118 Q 519 146 518 168 Q 515 175 510 178 Q 503 179 497 172 Z" style="fill: #0070C0;"></path>
                                                                        <path d="M 760 159 Q 800 122 850 65 Q 863 46 878 43 Q 885 42 893 50 Q 903 63 893 102 Q 884 144 761 188 Q 752 192 751 181 Q 750 169 760 159 Z" style="fill: #0070C0;"></path>
                                    
                                    
                                                                                                                                                                                                                                                                                                                                                                                                                                                                                                                                                                                                                                                                                                                                                                                                                                                                                                                                                                                                                                                                                                                                                                                                                                                                                                                                            </g>
                            </svg>