<svg width='83' height='83' >
                                <g transform="translate(3, 70) scale(0.07, -0.07)">
                                    <!-- 先将完整的字以灰色字体绘制完成，层级位于下面 -->
                                                                        <path d="M 281 639 Q 320 717 348 747 Q 355 757 351 770 Q 347 783 318 803 Q 293 819 274 819 Q 256 816 265 796 Q 280 765 269 738 Q 209 579 61 390 Q 52 380 50 374 Q 47 364 61 366 Q 113 375 257 600 Q 258 604 262 608 L 281 639 Z" style="fill: #0070C0;"></path>
                                                                        <path d="M 262 608 Q 298 604 382 625 Q 418 635 422 638 Q 429 647 424 654 Q 417 664 389 667 Q 371 668 281 639 C 252 630 232 610 262 608 Z" style="fill: #0070C0;"></path>
                                                                        <path d="M 275 465 Q 312 480 374 502 Q 393 509 396 513 Q 403 522 397 529 Q 388 539 359 542 Q 332 542 262 507 Q 235 498 203 490 Q 169 478 197 466 Q 212 460 238 459 L 275 465 Z" style="fill: #0070C0;"></path>
                                                                        <path d="M 306 333 Q 399 367 402 370 Q 409 379 404 386 Q 397 396 369 399 Q 344 400 307 382 L 262 362 Q 252 359 245 356 Q 205 343 156 331 Q 123 321 149 309 Q 188 296 263 319 L 306 333 Z" style="fill: #0070C0;"></path>
                                                                        <path d="M 263 319 Q 263 178 219 122 Q 198 92 235 54 L 237 53 Q 249 46 259 62 Q 272 90 401 210 Q 417 223 420 231 Q 424 240 415 239 Q 402 239 302 173 Q 298 169 295 174 Q 304 262 306 333 L 307 382 Q 308 401 312 418 Q 316 430 308 440 Q 290 456 275 465 C 250 482 226 487 238 459 Q 238 456 241 452 Q 260 410 262 362 L 263 319 Z" style="fill: #0070C0;"></path>
                                                                        <path d="M 598 594 Q 595 699 600 732 Q 601 751 590 761 Q 571 776 549 783 Q 537 787 530 783 Q 524 779 529 765 Q 542 743 548 717 Q 552 692 564 588 C 567 558 599 564 598 594 Z" style="fill: #0070C0;"></path>
                                                                        <path d="M 689 613 Q 717 769 728 793 Q 731 802 716 815 Q 689 833 670 838 Q 657 842 650 835 Q 643 829 649 817 Q 661 798 661 784 Q 661 702 653 605 C 651 575 684 583 689 613 Z" style="fill: #0070C0;"></path>
                                                                        <path d="M 450 663 Q 489 609 510 606 Q 523 605 529 621 Q 530 633 523 652 Q 516 665 497 672 Q 469 685 456 687 Q 447 688 446 678 Q 445 671 450 663 Z" style="fill: #0070C0;"></path>
                                                                        <path d="M 776 732 Q 760 707 724 667 Q 718 661 723 655 Q 729 654 736 657 Q 805 697 837 710 Q 853 714 850 723 Q 846 736 830 754 Q 815 770 796 773 Q 783 773 783 757 Q 784 745 776 732 Z" style="fill: #0070C0;"></path>
                                                                        <path d="M 720 579 Q 763 583 821 586 Q 837 587 852 588 Q 868 589 872 596 Q 876 606 862 616 Q 814 649 752 628 Q 724 622 689 613 L 653 605 Q 643 605 598 594 L 564 588 Q 509 579 449 567 Q 433 564 446 551 Q 473 529 511 540 Q 587 565 685 575 L 720 579 Z" style="fill: #0070C0;"></path>
                                                                        <path d="M 507 508 Q 543 442 564 436 Q 574 433 583 447 Q 586 457 581 476 Q 575 492 556 503 Q 528 524 515 529 Q 508 532 505 523 Q 502 516 507 508 Z" style="fill: #0070C0;"></path>
                                                                        <path d="M 681 443 Q 685 450 693 460 Q 708 479 724 505 Q 731 517 743 530 Q 756 540 749 550 Q 742 563 720 579 C 696 597 676 604 685 575 L 686 573 Q 693 549 661 462 Q 654 447 653 436 C 649 406 665 418 681 443 Z" style="fill: #0070C0;"></path>
                                                                        <path d="M 618 392 Q 688 408 789 420 Q 798 419 805 430 Q 806 440 787 448 Q 760 469 688 445 Q 684 445 681 443 C 662 437 662 437 653 436 Q 650 437 649 436 Q 601 424 479 409 Q 455 405 474 391 Q 504 370 529 376 Q 551 382 579 385 L 618 392 Z" style="fill: #0070C0;"></path>
                                                                        <path d="M 646 296 Q 719 309 782 318 Q 804 321 797 333 Q 787 346 763 352 Q 742 356 651 335 L 590 321 Q 529 311 475 300 Q 459 297 478 282 Q 493 272 524 276 Q 555 282 589 287 L 646 296 Z" style="fill: #0070C0;"></path>
                                                                        <path d="M 654 195 Q 729 205 866 206 Q 884 207 887 214 Q 891 224 877 236 Q 826 272 783 256 Q 725 244 633 227 L 579 218 Q 507 208 426 195 Q 408 194 422 179 Q 434 167 450 163 Q 468 159 482 163 Q 522 175 570 183 L 654 195 Z" style="fill: #0070C0;"></path>
                                                                        <path d="M 633 227 Q 639 258 646 296 L 651 335 Q 654 350 657 357 Q 664 363 658 372 Q 654 379 627 389 Q 623 392 618 392 C 590 402 569 409 579 385 Q 592 358 591 323 Q 590 322 590 321 L 589 287 Q 586 251 580 220 Q 579 219 579 218 L 570 183 Q 537 93 458 34 Q 443 24 426 12 Q 405 -1 432 1 Q 471 -2 535 43 Q 589 79 623 187 L 633 227 Z" style="fill: #0070C0;"></path>
                                                                        <path d="M 624 191 Q 687 98 769 -1 Q 785 -17 811 -16 Q 899 -12 927 -5 Q 934 -4 936 1 Q 936 5 925 12 Q 808 57 750 107 Q 705 146 654 195 C 623 224 596 200 623 187 Q 623 190 624 191 Z" style="fill: #0070C0;"></path>
                                    
                                    
                                                                                                                                                                                                                                                                                                                                                                                                                                                                                                                                                                                                                                                                                                                                                                                                                                                                                                                                                                                                                                                                                                                                                                                                                                                                                                                                                                                                                        </g>
                            </svg>