<svg width='83' height='83' >
                                <g transform="translate(3, 70) scale(0.07, -0.07)">
                                    <!-- 先将完整的字以灰色字体绘制完成，层级位于下面 -->
                                                                        <path d="M 284 615 Q 344 724 360 741 Q 369 751 364 765 Q 360 778 330 799 Q 303 815 284 815 Q 265 812 275 791 Q 291 758 279 729 Q 219 566 57 355 Q 48 345 46 338 Q 43 328 57 330 Q 121 348 266 584 L 284 615 Z" style="fill: #0070C0;"></path>
                                                                        <path d="M 266 584 Q 302 578 337 592 Q 421 622 423 624 Q 429 631 424 639 Q 417 648 391 650 Q 370 650 288 617 Q 285 617 284 615 C 257 602 236 588 266 584 Z" style="fill: #0070C0;"></path>
                                                                        <path d="M 289 451 Q 288 452 290 452 Q 386 479 389 484 Q 396 491 392 498 Q 385 508 359 511 Q 332 514 308 501 Q 289 492 266 485 Q 241 478 212 473 Q 181 464 205 452 Q 224 445 248 444 C 269 443 269 443 289 451 Z" style="fill: #0070C0;"></path>
                                                                        <path d="M 323 317 Q 347 327 373 334 Q 406 344 410 350 Q 417 359 412 366 Q 405 376 377 379 Q 349 382 323 368 Q 322 368 322 367 L 275 346 Q 262 343 248 337 Q 205 322 152 311 Q 121 302 145 289 Q 187 276 251 296 Q 263 300 277 303 L 323 317 Z" style="fill: #0070C0;"></path>
                                                                        <path d="M 277 303 Q 280 168 236 109 Q 217 79 255 39 L 257 38 Q 270 31 280 47 Q 292 75 413 196 Q 429 209 433 218 Q 436 228 426 227 Q 417 227 322 165 Q 318 161 315 165 Q 322 249 323 317 L 322 367 Q 322 388 326 404 Q 330 417 322 428 Q 306 443 289 451 C 263 466 231 469 248 444 Q 269 423 275 346 L 277 303 Z" style="fill: #0070C0;"></path>
                                                                        <path d="M 666 720 Q 799 754 804 758 Q 811 765 807 773 Q 800 783 773 790 Q 745 794 719 782 Q 682 769 641 757 Q 596 745 543 738 Q 510 731 534 717 Q 573 699 622 710 L 666 720 Z" style="fill: #0070C0;"></path>
                                                                        <path d="M 495 606 Q 476 634 463 642 Q 459 646 454 642 Q 450 639 449 628 Q 453 598 428 536 Q 418 520 420 502 Q 424 483 433 470 Q 440 458 446 467 Q 456 470 471 515 Q 490 575 495 578 C 504 592 504 592 495 606 Z" style="fill: #0070C0;"></path>
                                                                        <path d="M 678 616 Q 793 643 818 640 Q 833 630 831 623 Q 824 587 815 550 L 817 549 Q 824 546 837 558 Q 880 591 917 602 Q 947 614 946 620 Q 945 630 878 671 Q 857 686 774 664 Q 732 660 680 645 L 637 637 Q 616 634 495 606 C 466 599 465 581 495 578 Q 513 572 563 586 Q 605 601 638 607 L 678 616 Z" style="fill: #0070C0;"></path>
                                                                        <path d="M 638 607 Q 638 538 623 444 Q 614 405 641 374 Q 648 364 658 374 Q 679 404 677 455 Q 676 491 678 596 Q 678 606 678 616 L 680 645 Q 681 666 685 685 Q 692 704 674 715 Q 670 718 666 720 C 641 736 612 738 622 710 Q 629 694 637 637 L 638 607 Z" style="fill: #0070C0;"></path>
                                                                        <path d="M 521 516 Q 566 477 586 479 Q 596 480 598 495 Q 598 505 587 519 Q 578 529 560 532 Q 532 538 521 537 Q 514 537 515 528 Q 515 521 521 516 Z" style="fill: #0070C0;"></path>
                                                                        <path d="M 512 431 Q 563 388 577 388 Q 587 388 591 403 Q 591 413 582 428 Q 558 452 513 452 Q 506 453 506 444 Q 506 437 512 431 Z" style="fill: #0070C0;"></path>
                                                                        <path d="M 715 541 Q 764 502 786 506 Q 796 507 798 523 Q 797 533 785 546 Q 763 568 713 562 Q 706 561 707 552 Q 707 546 715 541 Z" style="fill: #0070C0;"></path>
                                                                        <path d="M 705 448 Q 757 406 778 407 Q 788 408 790 423 Q 790 433 779 447 Q 769 459 749 462 Q 718 469 705 469 Q 698 469 699 460 Q 699 453 705 448 Z" style="fill: #0070C0;"></path>
                                                                        <path d="M 502 320 Q 480 336 454 344 Q 448 345 443 341 Q 436 337 445 326 Q 481 263 486 110 Q 489 47 521 28 L 523 27 Q 539 21 541 50 Q 541 51 541 54 L 538 85 Q 537 98 533 114 Q 521 204 518 285 C 517 310 517 310 502 320 Z" style="fill: #0070C0;"></path>
                                                                        <path d="M 753 74 Q 762 49 785 0 Q 792 -16 803 -16 Q 818 -13 827 11 Q 857 68 872 229 Q 878 275 900 303 Q 916 322 905 334 Q 884 356 840 376 Q 822 386 791 375 Q 679 336 502 320 C 472 317 488 282 518 285 Q 527 284 536 286 Q 575 295 624 302 L 657 308 Q 709 318 773 328 Q 798 332 810 321 Q 832 279 797 108 Q 796 92 788 90 Q 787 90 785 90 C 768 65 746 93 753 74 Z" style="fill: #0070C0;"></path>
                                                                        <path d="M 682 190 Q 722 197 759 201 Q 781 205 773 217 Q 763 230 739 236 Q 720 239 685 230 L 636 217 Q 597 208 563 200 Q 547 197 566 182 Q 576 175 595 178 Q 616 182 637 184 L 682 190 Z" style="fill: #0070C0;"></path>
                                                                        <path d="M 677 106 Q 678 152 682 190 L 685 230 Q 685 245 688 260 Q 695 276 687 284 Q 671 300 657 308 C 632 324 610 329 624 302 Q 627 295 632 289 Q 635 276 636 217 L 637 184 Q 637 150 637 99 C 637 69 676 76 677 106 Z" style="fill: #0070C0;"></path>
                                                                        <path d="M 541 54 Q 545 53 556 55 Q 620 68 753 74 C 783 75 795 76 785 90 Q 781 99 760 112 Q 745 121 677 106 L 637 99 Q 583 92 538 85 C 508 80 511 54 541 54 Z" style="fill: #0070C0;"></path>
                                    
                                    
                                                                                                                                                                                                                                                                                                                                                                                                                                                                                                                                                                                                                                                                                                                                                                                                                                                                                                                                                                                                                                                                                                                                                                                                                                                                                                                                                                                                                                                                                                    </g>
                            </svg>