<svg width='83' height='83' >
                                <g transform="translate(3, 70) scale(0.07, -0.07)">
                                    <!-- 先将完整的字以灰色字体绘制完成，层级位于下面 -->
                                                                        <path d="M 299 746 Q 359 655 388 651 Q 404 647 415 669 Q 419 685 409 711 Q 399 733 371 747 Q 328 774 308 779 Q 296 783 294 768 Q 291 758 299 746 Z" style="fill: #0070C0;"></path>
                                                                        <path d="M 180 682 Q 205 622 204 550 Q 205 277 161 146 Q 139 83 178 38 Q 191 22 203 38 Q 242 80 244 243 Q 250 564 267 644 Q 270 665 251 676 Q 226 698 194 708 Q 184 711 176 701 Q 172 694 180 682 Z" style="fill: #0070C0;"></path>
                                                                        <path d="M 519 749 Q 500 750 505 738 Q 512 725 537 712 Q 553 702 618 719 Q 732 755 754 717 Q 761 698 765 648 Q 783 405 769 128 Q 768 88 753 76 Q 738 66 666 85 Q 650 89 650 79 Q 651 72 664 64 Q 728 16 762 -21 Q 784 -42 797 -39 Q 810 -36 822 -6 Q 838 40 837 110 Q 819 498 822 642 Q 822 685 835 709 Q 848 733 836 745 Q 826 761 775 787 Q 754 797 689 779 Q 598 758 519 749 Z" style="fill: #0070C0;"></path>
                                    
                                    
                                                                                                                                                                                                                                                                                                                </g>
                            </svg>