<svg width='83' height='83' >
                                <g transform="translate(3, 70) scale(0.07, -0.07)">
                                    <!-- 先将完整的字以灰色字体绘制完成，层级位于下面 -->
                                                                        <path d="M 300 752 Q 361 668 393 665 Q 409 664 418 685 Q 419 701 410 725 Q 398 746 370 757 Q 327 779 307 784 Q 297 787 294 773 Q 293 763 300 752 Z" style="fill: #0070C0;"></path>
                                                                        <path d="M 174 687 Q 201 620 200 552 Q 206 282 160 142 Q 141 78 179 38 Q 191 22 202 37 Q 239 82 241 243 Q 241 552 258 651 Q 261 670 243 682 Q 218 703 188 712 Q 178 715 170 705 Q 166 698 174 687 Z" style="fill: #0070C0;"></path>
                                                                        <path d="M 503 755 Q 485 756 490 745 Q 497 732 521 720 Q 536 711 570 718 Q 735 763 754 737 Q 770 728 776 653 Q 792 401 778 115 Q 777 73 761 62 Q 745 49 659 67 Q 640 70 642 59 Q 643 52 658 45 Q 734 -3 775 -41 Q 799 -62 812 -59 Q 825 -55 838 -24 Q 854 25 851 98 Q 832 498 835 646 Q 836 688 849 713 Q 862 735 852 749 Q 840 765 790 792 Q 769 802 749 798 Q 718 788 650 774 Q 580 761 503 755 Z" style="fill: #0070C0;"></path>
                                                                        <path d="M 308 393 Q 289 390 302 375 Q 315 362 332 357 Q 351 353 367 356 Q 469 383 700 383 Q 719 383 723 391 Q 727 401 713 415 Q 661 454 598 436 Q 418 408 308 393 Z" style="fill: #0070C0;"></path>
                                    
                                    
                                                                                                                                                                                                                                                                                                                                                                                            </g>
                            </svg>