<svg width='83' height='83' >
                                <g transform="translate(3, 70) scale(0.07, -0.07)">
                                    <!-- 先将完整的字以灰色字体绘制完成，层级位于下面 -->
                                                                        <path d="M 302 757 Q 368 661 394 659 Q 409 655 419 676 Q 422 691 414 715 Q 404 737 375 753 Q 330 781 311 787 Q 301 790 298 777 Q 295 767 302 757 Z" style="fill: #0070C0;"></path>
                                                                        <path d="M 176 680 Q 231 533 186 219 Q 156 96 157 86 Q 157 55 179 29 Q 192 14 202 29 Q 239 68 240 234 Q 240 561 257 645 Q 258 664 242 675 Q 217 696 189 704 Q 179 707 172 698 Q 168 691 176 680 Z" style="fill: #0070C0;"></path>
                                                                        <path d="M 503 754 Q 487 755 491 744 Q 498 731 520 721 Q 532 712 567 719 Q 739 764 758 738 Q 774 729 780 655 Q 798 406 784 123 Q 783 81 767 70 Q 746 60 657 93 Q 641 97 642 87 Q 643 80 655 73 Q 734 19 774 -23 Q 795 -42 808 -40 Q 821 -37 832 -9 Q 848 36 847 101 Q 829 506 832 655 Q 833 695 845 718 Q 858 739 847 751 Q 837 767 790 791 Q 771 801 751 796 Q 720 786 651 772 Q 579 760 503 754 Z" style="fill: #0070C0;"></path>
                                                                        <path d="M 390 508 Q 354 502 379 486 Q 412 465 490 476 Q 544 485 600 495 Q 630 501 634 505 Q 643 512 639 520 Q 632 532 604 540 Q 576 546 546 535 Q 512 525 476 518 Q 436 511 390 508 Z" style="fill: #0070C0;"></path>
                                                                        <path d="M 378 389 Q 344 385 368 369 Q 401 344 456 354 Q 525 363 596 373 Q 627 377 633 382 Q 642 389 638 397 Q 632 409 606 416 Q 581 422 506 403 Q 439 391 378 389 Z" style="fill: #0070C0;"></path>
                                                                        <path d="M 300 252 Q 281 251 294 235 Q 307 222 324 216 Q 343 212 359 215 Q 455 240 689 240 Q 698 240 707 239 Q 726 239 730 247 Q 736 257 720 271 Q 669 310 613 296 Q 496 277 300 252 Z" style="fill: #0070C0;"></path>
                                    
                                    
                                                                                                                                                                                                                                                                                                                                                                                                                                                                                                                                                    </g>
                            </svg>