<svg width='83' height='83' >
                                <g transform="translate(3, 70) scale(0.07, -0.07)">
                                    <!-- 先将完整的字以灰色字体绘制完成，层级位于下面 -->
                                                                        <path d="M 302 765 Q 368 669 394 667 Q 409 663 419 684 Q 422 699 414 723 Q 404 745 375 761 Q 330 789 311 795 Q 301 798 298 785 Q 295 775 302 765 Z" style="fill: #0070C0;"></path>
                                                                        <path d="M 176 688 Q 231 541 186 227 Q 156 104 157 94 Q 157 63 179 37 Q 192 22 202 37 Q 239 76 240 242 Q 240 569 257 653 Q 258 672 242 683 Q 217 704 189 712 Q 179 715 172 706 Q 168 699 176 688 Z" style="fill: #0070C0;"></path>
                                                                        <path d="M 516 758 Q 500 759 503 748 Q 510 736 532 724 Q 545 715 569 719 Q 735 761 755 740 Q 800 707 785 197 Q 784 161 782 122 Q 781 80 766 69 Q 750 59 678 81 Q 662 85 662 75 Q 663 68 676 60 Q 740 9 773 -29 Q 795 -50 808 -47 Q 821 -44 833 -14 Q 849 32 849 102 Q 831 502 834 650 Q 835 690 848 715 Q 861 737 850 749 Q 840 765 791 791 Q 770 803 716 787 Q 572 763 516 758 Z" style="fill: #0070C0;"></path>
                                                                        <path d="M 495 464 Q 561 477 685 491 Q 695 490 704 502 Q 705 514 683 524 Q 653 545 581 525 Q 530 516 515 510 L 460 500 Q 439 500 349 488 Q 321 485 342 468 Q 369 444 415 451 Q 425 454 442 455 L 495 464 Z" style="fill: #0070C0;"></path>
                                                                        <path d="M 442 455 Q 406 371 291 219 Q 284 213 294 212 Q 345 227 438 358 Q 465 401 495 464 L 515 510 Q 545 594 558 615 Q 564 622 561 631 Q 549 655 510 659 Q 491 662 480 658 Q 473 654 477 643 Q 495 603 460 500 L 442 455 Z" style="fill: #0070C0;"></path>
                                                                        <path d="M 607 218 Q 543 212 475 199 Q 468 198 466 199 Q 465 202 470 210 Q 561 322 581 342 Q 593 351 588 363 Q 582 375 538 398 Q 522 405 513 402 Q 501 398 506 378 Q 519 327 432 226 Q 411 208 383 190 Q 370 180 373 168 Q 377 152 401 133 Q 411 123 424 132 Q 457 159 599 191 Q 612 195 620 199 C 648 210 637 221 607 218 Z" style="fill: #0070C0;"></path>
                                                                        <path d="M 620 199 Q 647 148 663 143 Q 670 142 677 149 Q 684 159 685 183 Q 686 205 661 230 Q 603 281 588 278 Q 584 277 582 267 Q 582 263 607 218 L 620 199 Z" style="fill: #0070C0;"></path>
                                    
                                    
                                                                                                                                                                                                                                                                                                                                                                                                                                                                                                                                                                                                                                </g>
                            </svg>