<svg width='83' height='83' >
                                <g transform="translate(3, 70) scale(0.07, -0.07)">
                                    <!-- 先将完整的字以灰色字体绘制完成，层级位于下面 -->
                                                                        <path d="M 298 770 Q 371 689 398 688 Q 414 687 421 708 Q 422 724 410 746 Q 397 767 368 777 Q 322 798 302 801 Q 292 802 291 789 Q 290 779 298 770 Z" style="fill: #0070C0;"></path>
                                                                        <path d="M 172 712 Q 199 640 198 571 Q 202 283 154 142 Q 136 85 169 43 L 171 41 Q 184 26 194 41 Q 231 81 233 252 Q 233 543 249 660 Q 250 670 252 677 Q 255 696 238 707 Q 213 728 185 736 Q 175 739 168 730 Q 164 723 172 712 Z" style="fill: #0070C0;"></path>
                                                                        <path d="M 499 770 Q 483 771 487 760 Q 494 747 516 737 Q 528 728 588 741 Q 756 783 774 751 Q 796 712 801 407 Q 801 271 795 125 Q 794 82 778 71 Q 765 59 694 67 Q 676 68 678 59 Q 679 52 694 46 Q 758 6 793 -28 Q 815 -47 829 -45 Q 842 -41 853 -11 Q 868 37 865 106 Q 835 685 857 732 Q 872 756 862 769 Q 852 785 803 810 Q 782 822 700 800 Q 592 778 499 770 Z" style="fill: #0070C0;"></path>
                                                                        <path d="M 363 578 Q 345 590 331 586 Q 325 582 330 571 Q 331 564 336 555 Q 348 536 348 314 Q 345 286 337 251 Q 324 206 356 168 Q 365 158 373 168 Q 379 175 381 185 L 385 212 Q 386 233 386 263 Q 387 516 389 534 Q 390 543 390 548 C 391 563 389 564 363 578 Z" style="fill: #0070C0;"></path>
                                                                        <path d="M 611 195 Q 642 158 663 123 Q 670 107 681 108 Q 696 109 709 139 Q 725 173 722 215 Q 715 320 709 514 Q 708 542 723 563 Q 732 575 723 584 Q 707 602 658 624 Q 642 633 628 624 Q 573 603 490 590 Q 399 577 363 578 C 333 577 360 546 390 548 Q 420 548 600 579 Q 631 583 646 571 Q 673 544 658 224 Q 657 221 657 217 Q 653 199 637 208 Q 631 212 623 215 C 595 226 592 218 611 195 Z" style="fill: #0070C0;"></path>
                                                                        <path d="M 536 434 Q 555 438 623 442 Q 630 441 637 450 Q 638 457 622 466 Q 595 482 538 465 L 506 460 Q 464 457 420 452 Q 399 451 414 438 Q 430 426 462 424 Q 478 428 501 429 L 536 434 Z" style="fill: #0070C0;"></path>
                                                                        <path d="M 536 391 Q 536 413 536 434 L 538 465 Q 539 484 547 501 Q 551 511 544 520 Q 531 530 508 541 Q 499 545 491 541 Q 487 538 488 529 Q 506 505 506 460 L 503 369 Q 502 359 502 347 Q 501 320 496 304 Q 486 289 508 252 Q 515 242 522 250 Q 534 268 536 375 L 536 391 Z" style="fill: #0070C0;"></path>
                                                                        <path d="M 501 429 Q 474 374 405 292 Q 401 285 408 284 Q 438 284 503 369 C 555 436 514 456 501 429 Z" style="fill: #0070C0;"></path>
                                                                        <path d="M 536 375 L 537 375 Q 570 353 609 319 Q 619 309 628 308 Q 632 308 636 314 Q 642 321 632 344 Q 622 369 536 391 C 507 399 509 388 536 375 Z" style="fill: #0070C0;"></path>
                                                                        <path d="M 381 185 Q 388 185 398 185 Q 519 192 611 195 C 641 196 644 196 623 215 Q 598 245 445 219 Q 414 216 385 212 C 355 208 351 185 381 185 Z" style="fill: #0070C0;"></path>
                                    
                                    
                                                                                                                                                                                                                                                                                                                                                                                                                                                                                                                                                                                                                                                                                                                                                                                                                                                                    </g>
                            </svg>