<svg width='83' height='83' >
                                <g transform="translate(3, 70) scale(0.07, -0.07)">
                                    <!-- 先将完整的字以灰色字体绘制完成，层级位于下面 -->
                                                                        <path d="M 321 764 Q 396 682 420 681 Q 433 680 441 699 Q 442 712 432 734 Q 419 755 390 766 Q 345 788 325 792 Q 315 793 314 782 Q 313 773 321 764 Z" style="fill: #0070C0;"></path>
                                                                        <path d="M 202 689 Q 227 629 226 559 Q 230 294 187 162 Q 169 105 204 65 Q 216 50 226 65 Q 260 102 262 261 Q 262 561 279 655 Q 282 674 265 684 Q 241 703 214 713 Q 204 714 198 706 Q 194 700 202 689 Z" style="fill: #0070C0;"></path>
                                                                        <path d="M 531 737 Q 515 737 519 727 Q 526 715 548 705 Q 557 701 613 710 Q 763 750 781 724 Q 791 708 796 649 Q 814 405 800 128 Q 799 88 784 76 Q 763 63 665 87 Q 649 88 650 79 Q 651 72 665 67 Q 752 21 798 -18 Q 820 -37 832 -34 Q 845 -31 855 -2 Q 870 44 867 110 Q 837 665 861 709 Q 873 730 862 741 Q 852 756 806 779 Q 785 789 719 770 Q 596 745 531 737 Z" style="fill: #0070C0;"></path>
                                                                        <path d="M 392 562 Q 435 511 448 508 Q 455 507 461 517 Q 467 527 463 551 Q 459 575 393 600 Q 381 604 376 602 Q 372 601 372 590 Q 373 581 392 562 Z" style="fill: #0070C0;"></path>
                                                                        <path d="M 578 630 Q 557 593 514 535 Q 510 528 515 523 Q 521 522 527 527 Q 602 593 639 618 Q 652 622 648 631 Q 642 644 626 657 Q 610 670 591 671 Q 579 670 582 654 Q 585 644 578 630 Z" style="fill: #0070C0;"></path>
                                                                        <path d="M 430 300 Q 431 307 431 317 L 427 344 Q 414 410 412 432 C 410 453 410 453 399 457 Q 389 461 368 463 Q 359 466 356 461 Q 352 457 358 444 Q 380 402 395 332 Q 398 310 411 297 C 428 278 428 278 430 300 Z" style="fill: #0070C0;"></path>
                                                                        <path d="M 595 370 Q 617 428 640 441 Q 653 456 641 470 Q 628 480 586 501 Q 571 507 554 500 Q 497 476 399 457 C 370 451 383 426 412 432 Q 419 433 428 436 Q 557 466 564 459 Q 571 452 569 439 Q 562 402 553 372 C 545 343 584 342 595 370 Z" style="fill: #0070C0;"></path>
                                                                        <path d="M 431 317 Q 438 317 446 318 Q 497 331 607 344 Q 614 345 616 352 Q 616 358 595 370 C 580 379 580 379 553 372 Q 481 354 427 344 C 398 338 401 316 431 317 Z" style="fill: #0070C0;"></path>
                                                                        <path d="M 411 297 Q 410 296 411 290 Q 411 223 295 126 Q 291 123 289 118 Q 289 114 293 114 Q 348 114 437 222 Q 449 237 457 244 Q 463 251 459 262 Q 444 295 430 300 C 411 311 411 311 411 297 Z" style="fill: #0070C0;"></path>
                                                                        <path d="M 745 184 Q 735 203 722 266 Q 722 278 716 281 Q 712 284 709 271 Q 688 204 675 183 Q 668 176 648 171 Q 599 161 570 169 Q 557 173 554 180 Q 545 199 561 270 Q 567 294 529 310 Q 519 314 513 310 Q 507 307 511 293 Q 520 262 517 234 Q 511 162 532 144 Q 586 107 692 133 Q 716 140 741 155 Q 754 165 745 184 Z" style="fill: #0070C0;"></path>
                                    
                                    
                                                                                                                                                                                                                                                                                                                                                                                                                                                                                                                                                                                                                                                                                                                                                                                                                                                                    </g>
                            </svg>