<svg width='83' height='83' >
                                <g transform="translate(3, 70) scale(0.07, -0.07)">
                                    <!-- 先将完整的字以灰色字体绘制完成，层级位于下面 -->
                                                                        <path d="M 250 649 Q 292 658 334 678 Q 353 688 365 677 Q 371 671 363 654 Q 347 617 335 580 Q 322 555 337 534 Q 398 444 383 423 Q 376 411 351 413 Q 318 417 284 416 Q 259 415 288 402 Q 349 377 404 342 Q 420 330 432 343 Q 447 353 453 380 Q 465 437 396 519 Q 357 558 381 595 Q 424 659 448 675 Q 469 688 458 703 Q 445 722 404 743 Q 382 752 366 739 Q 311 697 241 681 C 212 673 221 642 250 649 Z" style="fill: #0070C0;"></path>
                                                                        <path d="M 241 681 Q 232 700 180 716 Q 170 717 162 708 Q 158 701 167 690 Q 228 531 185 227 Q 176 184 162 137 Q 153 107 159 86 Q 169 47 182 33 Q 195 18 206 34 Q 240 73 241 288 Q 241 580 250 649 C 252 670 252 670 241 681 Z" style="fill: #0070C0;"></path>
                                                                        <path d="M 611 378 Q 629 457 637 535 Q 652 649 669 692 Q 676 705 666 715 Q 645 736 604 755 Q 579 767 559 761 Q 535 754 553 732 Q 584 696 583 660 Q 577 497 552 391 Q 516 214 386 116 Q 349 91 297 58 Q 282 51 279 47 Q 272 40 292 38 Q 305 37 361 56 Q 400 69 459 109 Q 552 176 597 328 Q 597 332 599 334 L 611 378 Z" style="fill: #0070C0;"></path>
                                                                        <path d="M 599 334 Q 759 33 817 28 Q 886 28 946 27 Q 971 27 972 33 Q 973 40 946 55 Q 802 130 773 162 Q 679 267 611 378 C 595 403 585 360 599 334 Z" style="fill: #0070C0;"></path>
                                    
                                    
                                                                                                                                                                                                                                                                                                                                                                                            </g>
                            </svg>