<svg width='83' height='83' >
                                <g transform="translate(3, 70) scale(0.07, -0.07)">
                                    <!-- 先将完整的字以灰色字体绘制完成，层级位于下面 -->
                                                                        <path d="M 306 432 Q 299 422 278 426 Q 253 430 224 431 Q 202 432 226 418 Q 278 393 324 359 Q 339 347 351 360 Q 364 370 371 395 Q 383 447 321 523 Q 278 566 302 603 Q 342 667 368 683 Q 387 695 377 708 Q 364 726 328 744 Q 309 751 294 740 Q 239 698 183 687 C 154 680 171 652 200 660 Q 234 669 267 684 Q 283 694 294 684 Q 300 678 291 661 Q 275 624 260 586 Q 248 564 262 545 Q 322 452 306 432 Z" style="fill: #0070C0;"></path>
                                                                        <path d="M 183 687 Q 161 705 134 712 Q 124 713 118 705 Q 114 699 122 688 Q 149 622 151 549 Q 163 264 117 121 Q 110 93 114 73 Q 124 39 136 25 Q 148 10 158 25 Q 189 62 191 281 Q 194 470 200 660 C 200 675 200 675 183 687 Z" style="fill: #0070C0;"></path>
                                                                        <path d="M 616 677 Q 694 722 738 734 Q 754 737 757 744 Q 760 756 747 765 Q 684 802 651 795 Q 644 791 644 780 Q 645 734 420 608 Q 416 598 422 596 Q 440 596 540 642 Q 556 649 576 656 L 616 677 Z" style="fill: #0070C0;"></path>
                                                                        <path d="M 652 439 Q 737 452 869 457 Q 927 461 933 468 Q 937 481 921 494 Q 861 533 810 515 Q 747 502 653 480 L 601 471 Q 505 455 396 435 Q 374 431 391 415 Q 419 390 470 401 Q 530 420 601 431 L 652 439 Z" style="fill: #0070C0;"></path>
                                                                        <path d="M 601 -2 Q 607 -27 614 -37 Q 620 -44 627 -42 Q 642 -33 648 27 Q 657 112 654 194 Q 651 252 652 439 L 653 480 Q 653 552 665 630 Q 669 648 654 657 Q 632 672 616 677 C 589 689 565 684 576 656 Q 600 605 601 530 Q 601 503 601 471 L 601 431 Q 595 59 601 -2 Z" style="fill: #0070C0;"></path>
                                    
                                    
                                                                                                                                                                                                                                                                                                                                                                                                                                                                        </g>
                            </svg>