<svg width="83" height="83" xmlns="http://www.w3.org/2000/svg" xmlns:xlink="http://www.w3.org/1999/xlink" xml:space="preserve" overflow="hidden"><g transform="translate(-546 -221)"><g><g><path d="M538.597 296.392C545.573 295.139 552.549 292.632 559.525 288.873 562.514 287.119 564.757 287.119 566.501 288.873 567.746 289.875 567.497 292.131 566.002 295.39 563.013 302.157 560.521 309.176 558.279 316.444 556.037 320.956 556.286 325.217 559.027 328.726 568.244 342.26 571.732 350.532 569.74 354.042 568.494 355.796 565.753 356.798 561.518 356.547 556.286 356.046 550.805 356.046 545.075 356.547 540.341 356.798 540.839 357.801 546.32 360.056 556.535 364.568 566.252 369.582 575.469 375.346 577.961 377.602 580.204 377.602 582.196 375.346 584.688 373.341 586.431 370.333 587.429 366.323 589.172 356.297 584.19 344.516 572.729 330.981 565.753 323.964 566.75 315.191 575.22 304.162 580.453 295.891 584.937 290.628 588.425 288.622 591.913 286.115 592.66 283.61 590.917 281.103 588.425 277.594 583.442 274.335 575.968 270.826 572.231 269.573 568.992 269.824 566.252 272.079 558.03 279.348 547.068 284.612 533.614 288.372 525.642 290.628 530.624 298.398 538.597 296.392" fill="#0070C0" fill-rule="evenodd" transform="matrix(1.00002 0 0 1 65.3202 -14.602)"/><path d="M534.343 289.042C530.562 285.056 525.016 282.067 517.705 279.825 515.94 279.576 514.176 280.323 512.662 282.067 511.906 283.063 512.41 284.807 514.176 287.049 519.721 301 522.243 313.956 521.991 326.412 523.755 379.975 520.226 420.084 511.906 446.99 510.142 451.972 509.638 456.706 510.646 461.191 512.662 467.916 514.932 472.9 517.453 475.889 519.973 478.629 521.991 478.629 524.008 475.639 530.814 467.916 534.091 441.26 534.343 396.168 534.343 330.149 536.109 297.014 539.386 297.014 540.646 294.025 540.646 294.025 534.343 289.042" fill="#0070C0" fill-rule="evenodd" transform="matrix(1.00002 0 0 1 65.3202 -14.602)"/><path d="M633.014 324.614C675.873 316.183 697.93 311.225 699.434 310.234 701.439 308.993 701.69 307.258 700.937 305.523 699.684 303.291 696.175 301.308 690.41 299.82 684.646 298.581 678.881 299.077 673.117 301.308 662.84 304.779 652.062 307.754 641.034 310.481 639.781 310.729 638.527 310.977 637.776 311.225L624.993 313.457C616.973 314.2 608.951 315.192 600.68 315.935 593.662 317.176 592.66 319.407 597.673 322.63 603.939 326.101 611.709 327.588 620.482 327.092L633.014 324.614Z" fill="#0070C0" fill-rule="evenodd" transform="matrix(1.00002 0 0 1 65.3202 -14.602)"/><path d="M656.281 385.188C659.525 384.195 671.502 383.2 691.713 382.455 699.199 382.207 703.191 380.965 703.441 378.978 703.69 376.495 701.195 373.514 696.204 370.036 691.713 367.055 678.738 368.049 656.78 372.769L644.554 374.755C636.819 375.5 628.335 376.495 619.352 377.736 615.36 378.233 613.115 378.233 612.865 377.24 612.865 376.495 613.364 374.507 614.861 371.03 619.601 359.355 625.341 343.707 632.577 324.333L637.318 310.92C645.552 286.825 652.039 272.916 656.53 268.942 659.525 266.21 660.024 263.725 658.278 261.739 648.047 253.293 640.561 249.567 636.07 250.065 634.573 250.313 634.323 252.3 635.571 256.274 637.816 264.968 634.074 284.094 624.592 313.156L620.1 326.816C611.367 351.904 602.635 368.049 594.15 375.5 590.158 378.978 589.659 384.94 592.653 393.881 593.651 396.862 595.897 397.607 598.892 396.365 611.367 391.895 626.339 388.665 644.554 386.43L656.281 385.188Z" fill="#0070C0" fill-rule="evenodd" transform="matrix(1.00002 0 0 1 65.3202 -14.602)"/><path d="M643.58 420.429C621.173 422.891 596.774 425.6 570.383 428.801 566.151 428.801 565.653 430.77 568.641 433.971 571.13 436.433 574.118 438.157 577.603 439.388 581.587 440.619 584.824 440.619 587.811 439.881 610.219 433.971 628.642 431.016 643.083 431.016L656.277 429.539C666.983 428.801 690.885 428.308 727.981 428.308 731.466 428.308 733.707 427.569 734.951 426.092 735.699 423.876 734.702 421.414 731.716 418.705 721.01 410.826 709.806 408.61 698.354 411.811 686.651 413.535 672.461 415.751 656.277 418.459L643.58 420.429Z" fill="#0070C0" fill-rule="evenodd" transform="matrix(1.00002 0 0 1 65.3202 -14.602)"/><path d="M643.107 343.599C646.834 343.425 657.138 346.96 658.45 348.167 663.012 350.457 662.465 352.764 662.679 354.433 659.995 375.661 659.238 454.494 657.558 479.548 655.664 504.356 651.284 508.862 648.977 503.783 646.672 498.705 645.441 486.474 645.595 480.898 646.467 447.268 645.664 413.628 645.684 379.979 645.393 359.062 644.718 363.589 644.234 357.897 643.23 352.811 640.702 349.108 640.05 347.281 639.721 346.814 639.454 344.734 639.935 344.432 639.936 344.432 639.936 344.432 639.937 344.431 640.759 343.901 641.863 343.657 643.107 343.599Z" fill="#0070C0" fill-rule="evenodd" transform="matrix(1.00002 0 0 1 65.3202 -14.602)"/></g></g></g></svg>