<svg width="83" height="80" xmlns="http://www.w3.org/2000/svg" xmlns:xlink="http://www.w3.org/1999/xlink" xml:space="preserve" overflow="hidden"><g transform="translate(-479 -234)"><path d="M288.982 195.486C290.437 195.752 291.828 196.15 293.284 196.35 293.599 197.478 294.358 197.611 294.105 199.669 294.486 218.656 294.549 237.643 294.358 256.63 294.296 260.879 293.727 264.53 292.651 268.38 292.524 268.912 291.956 269.244 291.449 269.111 291.196 269.044 291.006 268.845 290.88 268.647 289.488 266.389 288.666 263.933 288.285 261.277 287.654 256.962 289.361 251.186 289.678 246.672 290.69 233.195 290.816 219.718 289.931 206.242 289.741 203.121 288.982 200.067 287.59 197.146 287.526 196.947 287.463 196.682 287.526 196.415 287.654 195.619 288.16 195.354 288.982 195.486" fill="#0070C0" fill-rule="evenodd" transform="matrix(1 0 0 1.00046 191.537 42.6076)"/><path d="M306.027 191.371C308.767 191.632 311.106 192.676 313.112 194.57 313.78 195.157 313.78 196.137 313.179 196.725 313.112 196.856 313.046 196.921 312.979 196.986 309.034 199.599 307.832 203.712 305.692 208.675 305.091 210.047 304.957 211.418 305.425 212.724 306.762 216.773 307.965 220.496 309.904 224.609 310.839 226.503 312.043 229.702 310.371 231.401 310.238 231.596 310.037 231.662 309.77 231.727 308.967 231.793 308.233 231.662 307.698 231.205 303.754 228.071 299.61 225.262 295.332 222.781 295.199 222.715 295.131 222.52 295.265 222.389 295.332 222.259 295.466 222.193 295.533 222.259 298.273 222.651 300.88 222.259 303.353 221.083 303.62 221.018 303.754 220.757 303.687 220.496 303.42 218.014 302.952 215.598 302.284 213.246 302.016 212.137 301.949 211.026 302.083 209.916 302.752 205.867 302.952 201.819 302.818 197.77 302.818 197.444 302.484 197.182 302.149 197.247 302.149 197.247 302.083 197.247 302.083 197.247L293.393 199.337 293.259 199.533 292.925 199.141C292.524 198.553 292.658 197.9 292.925 197.247L293.461 196.529 296.869 196.203C299.61 195.223 302.551 193.002 305.291 191.501 305.492 191.371 305.759 191.305 306.027 191.371Z" fill="#0070C0" fill-rule="evenodd" transform="matrix(1 0 0 1.00046 191.537 42.6076)"/><path d="M330.128 202.182C328.269 201.926 324.55 200.835 323.09 199.616 322.89 199.488 322.89 199.168 323.09 198.974 323.155 198.911 323.222 198.847 323.355 198.782 328.601 197.82 333.98 197.307 339.027 196.088 341.949 195.382 344.871 194.74 347.859 194.035 351.179 193.329 352.773 193.522 355.629 195.061 356.093 195.318 356.293 195.895 356.027 196.408 355.961 196.537 355.828 196.601 355.761 196.665 354.698 197.5 353.172 198.205 351.777 198.526 346.265 199.808 340.688 200.963 335.109 201.99 333.25 202.375 331.589 202.439 330.128 202.182" fill="#0070C0" fill-rule="evenodd" transform="matrix(1 0 0 1.00046 191.537 42.6076)"/><path d="M359.846 211.824C363.44 211.549 366.511 212.236 369.06 215.329 369.451 215.879 369.385 216.635 368.929 217.047 368.733 217.254 368.536 217.322 368.275 217.391 363.767 218.01 359.323 218.284 354.88 218.559L346.451 219.384 346.385 219.315 343.968 219.658 341.419 219.865 341.224 220.003 335.343 220.759 335.343 220.69C331.749 220.964 328.22 221.377 324.758 221.996 320.511 222.683 318.224 221.927 314.63 220.14 313.911 219.796 313.78 219.315 314.238 218.628 314.565 218.147 315.153 217.872 316.002 217.803 316.786 217.803 317.178 217.734 317.178 217.734 330.247 216.566 343.184 214.779 356.122 212.374 357.428 212.098 358.67 211.893 359.846 211.824Z" fill="#0070C0" fill-rule="evenodd" transform="matrix(1 0 0 1.00046 191.537 42.6076)"/><path d="M336.651 218.734C337.824 219.061 339.062 219.388 340.366 219.912L340.758 220.042 340.627 220.042C340.627 220.174 340.692 220.238 340.953 220.37 342.321 221.155 343.364 222.267 344.016 223.706 344.146 223.968 344.146 224.23 344.082 224.492 341.148 235.941 343.82 248.763 343.233 257.922 342.973 262.502 341.734 267.736 338.15 270.745 337.563 271.268 336.781 271.138 336.325 270.614 336.259 270.549 336.259 270.549 336.259 270.483 335.282 269.043 334.826 267.081 334.108 265.707 332.283 262.502 329.937 259.689 327.134 257.399 327.004 257.268 326.939 257.071 327.07 256.941 327.134 256.81 327.265 256.744 327.396 256.81L334.37 258.576C335.607 258.903 336.911 258.119 337.237 256.81 337.237 256.68 337.303 256.548 337.303 256.352 337.563 250.399 337.824 244.707 338.02 239.407 338.281 232.473 335.869 224.492 335.607 221.024 335.412 217.622 335.412 218.407 336.651 218.734Z" fill="#0070C0" fill-rule="evenodd" transform="matrix(1 0 0 1.00046 191.537 42.6076)"/><path d="M315.68 257.221C313.916 254.176 313.78 249.736 316.291 246.944 317.173 245.929 317.784 245.104 318.123 244.407 319.616 241.425 321.448 238.633 323.552 236.032 323.756 235.841 323.891 235.841 323.959 236.096 325.927 243.011 324.23 253.097 317.852 257.665 317.241 258.11 316.291 257.983 315.816 257.412 315.748 257.349 315.68 257.285 315.68 257.221" fill="#0070C0" fill-rule="evenodd" transform="matrix(1 0 0 1.00046 191.537 42.6076)"/><path d="M349.178 234.957C355.365 234.829 368.734 240.58 370.065 247.288 370.463 249.269 370.065 251.25 368.867 253.23 368.534 253.806 367.802 254.061 367.204 253.741 365.142 252.719 363.479 251.441 362.149 249.908 358.091 245.116 353.569 240.643 348.58 236.618 347.183 235.532 347.382 234.957 349.178 234.957" fill="#0070C0" fill-rule="evenodd" transform="matrix(1 0 0 1.00046 191.537 42.6076)"/></g></svg>