<svg width="83" height="83" xmlns="http://www.w3.org/2000/svg" xmlns:xlink="http://www.w3.org/1999/xlink" xml:space="preserve" overflow="hidden"><g transform="translate(-321 -438)"><g><g><g><path d="M223.844 208.64C225.248 208.89 226.666 209.273 228.101 209.457 228.37 210.485 229.168 210.617 228.91 212.539 229.28 230.428 229.349 248.317 229.114 266.206 229.065 270.205 228.502 273.624 227.475 277.237 227.323 277.768 226.777 278.074 226.254 277.92 226.027 277.852 225.831 277.704 225.701 277.501 224.36 275.384 223.502 273.064 223.127 270.541 222.528 266.478 224.196 261.055 224.533 256.842 225.547 244.151 225.624 231.455 224.766 218.755 224.569 215.799 223.807 212.951 222.479 210.214 222.374 209.99 222.342 209.737 222.388 209.491 222.538 208.776 223.023 208.492 223.844 208.64Z" fill="#0D0D0D" fill-rule="evenodd" transform="matrix(1 0 0 1.00001 100.953 237.275)"/><path d="M240.121 204.372C242.682 204.641 244.902 205.662 246.783 207.433 247.381 207.997 247.411 208.937 246.85 209.533 246.778 209.608 246.699 209.677 246.612 209.736 242.934 212.273 241.829 216.213 239.802 220.939 239.239 222.252 239.159 223.539 239.561 224.8 240.808 228.719 241.942 232.241 243.778 236.195 244.628 238.037 245.798 241.055 244.224 242.714 244.073 242.869 243.889 242.961 243.671 242.99 242.878 243.084 242.219 242.922 241.694 242.501 238.004 239.511 234.158 236.833 230.156 234.466 230.018 234.377 229.978 234.193 230.067 234.055 230.129 233.958 230.241 233.906 230.355 233.92 232.92 234.321 235.348 233.962 237.64 232.843 237.87 232.728 238.004 232.482 237.973 232.226 237.685 229.869 237.25 227.567 236.669 225.318 236.395 224.255 236.334 223.192 236.485 222.129 237.052 218.227 237.272 214.359 237.144 210.523 237.13 210.206 236.861 209.961 236.544 209.976 236.507 209.977 236.471 209.983 236.435 209.991L228.342 212.025 228.223 212.181 227.87 211.806C227.545 211.238 227.63 210.62 227.92 209.977L228.362 209.293 231.602 209.021C234.167 208.085 236.896 205.931 239.469 204.507 239.667 204.396 239.895 204.349 240.121 204.372Z" fill="#0D0D0D" fill-rule="evenodd" transform="matrix(1 0 0 1.00001 100.953 237.275)"/><path d="M263.029 214.828C261.276 214.551 257.763 213.494 256.413 212.342 256.218 212.175 256.198 211.88 256.366 211.682 256.434 211.602 256.526 211.547 256.628 211.525 261.556 210.563 266.621 210.046 271.362 208.886 274.14 208.201 276.923 207.538 279.71 206.896 282.85 206.167 284.337 206.357 286.995 207.859 287.457 208.117 287.625 208.707 287.37 209.176 287.309 209.29 287.225 209.389 287.125 209.47 286.162 210.243 284.718 210.964 283.411 211.27 278.199 212.5 272.965 213.623 267.706 214.639 265.924 214.983 264.365 215.047 263.029 214.828Z" fill="#0D0D0D" fill-rule="evenodd" transform="matrix(1 0 0 1.00001 100.953 237.275)"/><path d="M291.173 224.002C294.598 223.763 297.491 224.395 299.925 227.209 300.33 227.678 300.276 228.383 299.802 228.785 299.638 228.924 299.436 229.014 299.221 229.043 294.922 229.651 290.648 229.862 286.37 230.103L278.306 230.883 278.268 230.833 275.964 231.109 273.497 231.348 273.334 231.425 267.703 232.102 267.689 232.093C264.257 232.317 260.884 232.699 257.571 233.238 253.538 233.891 251.33 233.224 247.872 231.58 247.195 231.261 247.072 230.8 247.503 230.195 247.834 229.732 248.409 229.484 249.228 229.451 249.934 229.423 250.303 229.406 250.336 229.402 262.823 228.329 275.234 226.689 287.57 224.483 288.832 224.258 290.032 224.082 291.173 224.002Z" fill="#0D0D0D" fill-rule="evenodd" transform="matrix(1 0 0 1.00001 100.953 237.275)"/><path d="M269.177 230.094C270.336 230.406 271.496 230.718 272.764 231.164L273.119 231.289 273.018 231.338C273.005 231.419 273.106 231.518 273.321 231.638 274.646 232.375 275.63 233.441 276.274 234.835 276.377 235.068 276.398 235.306 276.337 235.549 273.489 246.51 276.085 258.743 275.539 267.528 275.267 271.853 274.063 276.855 270.633 279.782 270.106 280.232 269.319 280.159 268.875 279.618 268.848 279.586 268.823 279.552 268.8 279.518 267.869 278.126 267.463 276.242 266.749 274.964 265.004 271.857 262.781 269.198 260.08 266.986 259.947 266.884 259.918 266.692 260.017 266.556 260.092 266.454 260.219 266.409 260.339 266.443L267.022 268.142C268.234 268.447 269.46 267.692 269.758 266.456 269.793 266.312 269.814 266.164 269.822 266.015 270.079 260.31 270.309 254.903 270.514 249.793 270.776 243.204 268.435 235.556 268.212 232.273 267.989 228.989 268.018 229.781 269.177 230.094Z" fill="#0D0D0D" fill-rule="evenodd" transform="matrix(1 0 0 1.00001 100.953 237.275)"/><path d="M280.968 245.664C286.746 245.585 299.338 251.206 300.586 257.727 300.959 259.698 300.586 261.652 299.468 263.59 299.143 264.147 298.438 264.354 297.862 264.061 295.965 263.095 294.393 261.84 293.146 260.298 289.338 255.603 285.083 251.275 280.381 247.314 279.1 246.238 279.296 245.687 280.968 245.664Z" fill="#0D0D0D" fill-rule="evenodd" transform="matrix(1 0 0 1.00001 100.953 237.275)"/><path d="M249.505 267.211C247.87 264.205 247.776 259.835 250.083 257.076 250.903 256.095 251.469 255.265 251.782 254.585 253.142 251.629 254.809 248.877 256.786 246.33 256.945 246.128 257.058 246.149 257.126 246.393 258.941 253.191 257.379 263.115 251.522 267.619 250.939 268.066 250.093 267.969 249.633 267.401 249.585 267.341 249.542 267.278 249.505 267.211Z" fill="#0D0D0D" fill-rule="evenodd" transform="matrix(1 0 0 1.00001 100.953 237.275)"/></g></g></g></g></svg>