<svg width='83' height='83' >
                                <g transform="translate(3, 70) scale(0.07, -0.07)">
                                    <!-- 先将完整的字以灰色字体绘制完成，层级位于下面 -->
                                                                        <path d="M 353 442 Q 346 432 324 433 Q 296 437 264 435 Q 240 436 267 422 Q 322 397 371 365 Q 384 353 398 365 Q 411 375 418 399 Q 433 457 360 538 Q 329 575 372 630 Q 400 675 419 686 Q 438 699 428 713 Q 415 731 375 749 Q 354 756 340 745 Q 295 706 221 685 C 192 676 202 646 231 654 Q 271 664 313 684 Q 329 694 341 685 Q 347 679 339 662 Q 323 625 311 587 Q 298 562 313 544 Q 368 460 353 442 Z" style="fill: #0070C0;"></path>
                                                                        <path d="M 221 685 Q 199 707 166 716 Q 156 717 150 709 Q 146 703 154 692 Q 184 620 182 553 Q 191 265 146 125 Q 137 98 142 78 Q 152 42 164 29 Q 176 14 186 29 Q 219 68 220 273 Q 220 582 231 654 C 233 675 233 675 221 685 Z" style="fill: #0070C0;"></path>
                                                                        <path d="M 655 534 Q 697 583 739 645 Q 758 673 790 703 Q 805 713 799 723 Q 798 733 735 754 Q 716 764 698 749 Q 634 715 503 694 Q 484 691 497 677 Q 521 661 561 670 Q 616 683 660 694 Q 679 698 685 692 Q 689 685 677 665 Q 613 529 434 374 Q 421 362 434 361 Q 444 362 488 387 Q 527 408 571 447 Q 605 478 641 517 L 655 534 Z" style="fill: #0070C0;"></path>
                                                                        <path d="M 641 517 Q 642 513 648 510 Q 732 459 835 381 Q 853 365 867 364 Q 874 364 880 375 Q 890 388 871 426 Q 850 481 671 530 Q 662 533 655 534 C 626 540 620 539 641 517 Z" style="fill: #0070C0;"></path>
                                                                        <path d="M 617 293 Q 764 321 770 325 Q 779 332 775 340 Q 768 352 740 360 Q 716 366 629 342 Q 560 326 482 319 Q 446 315 471 298 Q 510 271 567 284 Q 573 285 580 286 L 617 293 Z" style="fill: #0070C0;"></path>
                                                                        <path d="M 622 92 Q 632 168 639 228 Q 645 265 642 270 Q 629 283 617 293 C 594 312 574 315 580 286 Q 586 262 584 156 Q 583 128 581 88 C 580 58 618 62 622 92 Z" style="fill: #0070C0;"></path>
                                                                        <path d="M 581 88 Q 478 79 361 69 Q 340 68 355 50 Q 368 37 385 31 Q 404 25 421 29 Q 622 74 889 54 Q 908 54 913 62 Q 919 72 904 87 Q 853 126 818 119 Q 745 107 622 92 L 581 88 Z" style="fill: #0070C0;"></path>
                                    
                                    
                                                                                                                                                                                                                                                                                                                                                                                                                                                                                                                                                                                                                                </g>
                            </svg>