<svg width='83' height='83' >
                                <g transform="translate(3, 70) scale(0.07, -0.07)">
                                    <!-- 先将完整的字以灰色字体绘制完成，层级位于下面 -->
                                                                        <path d="M 207 640 Q 238 647 274 666 Q 290 676 299 667 Q 305 661 297 645 Q 281 609 268 574 Q 255 552 269 533 Q 317 452 303 437 Q 299 427 277 428 Q 252 429 223 427 Q 201 427 227 415 Q 275 393 318 363 Q 331 351 343 363 Q 356 370 363 394 Q 378 449 317 522 Q 281 558 321 606 Q 352 654 373 667 Q 391 680 381 692 Q 368 710 331 727 Q 312 734 298 724 Q 256 687 198 670 C 169 661 178 632 207 640 Z" style="fill: #0070C0;"></path>
                                                                        <path d="M 198 670 Q 177 691 142 700 Q 132 701 126 693 Q 122 687 130 676 Q 187 543 148 242 Q 141 194 125 145 Q 118 117 122 97 Q 132 63 144 49 Q 156 34 166 49 Q 199 88 199 325 Q 199 583 207 640 C 209 661 209 661 198 670 Z" style="fill: #0070C0;"></path>
                                                                        <path d="M 616 680 Q 631 707 645 721 Q 654 733 648 746 Q 644 758 614 779 Q 586 795 568 794 Q 549 791 559 770 Q 572 745 564 720 Q 537 641 494 564 Q 452 491 393 411 Q 383 401 382 394 Q 379 382 393 386 Q 456 404 597 644 Q 600 651 604 656 L 616 680 Z" style="fill: #0070C0;"></path>
                                                                        <path d="M 604 656 Q 686 551 779 454 Q 800 430 837 427 Q 904 420 977 431 Q 995 432 997 437 Q 998 443 985 449 Q 810 525 785 542 Q 740 569 621 676 Q 618 679 616 680 C 593 699 585 680 604 656 Z" style="fill: #0070C0;"></path>
                                                                        <path d="M 601 415 Q 637 427 678 438 Q 702 445 705 449 Q 714 456 708 465 Q 701 475 671 480 Q 643 483 614 469 Q 589 459 559 449 Q 528 439 490 433 Q 456 424 482 410 Q 516 395 559 403 L 601 415 Z" style="fill: #0070C0;"></path>
                                                                        <path d="M 626 291 Q 689 298 778 301 Q 826 301 832 310 Q 836 320 822 332 Q 768 368 711 347 Q 674 341 628 329 L 571 319 Q 486 304 386 287 Q 368 286 382 271 Q 395 259 410 255 Q 428 251 442 256 Q 500 275 571 284 L 626 291 Z" style="fill: #0070C0;"></path>
                                                                        <path d="M 528 65 Q 512 69 492 75 Q 482 79 481 72 Q 481 65 490 55 Q 538 6 568 -34 Q 578 -43 593 -28 Q 635 29 629 138 Q 625 232 626 291 L 628 329 Q 628 344 630 358 Q 636 383 630 393 Q 623 403 601 415 C 575 431 548 431 559 403 Q 569 393 571 319 L 571 284 Q 572 215 572 101 Q 571 73 561 63 Q 551 57 528 65 Z" style="fill: #0070C0;"></path>
                                                                        <path d="M 416 209 Q 391 163 358 121 Q 337 91 350 57 Q 356 39 377 50 Q 428 80 436 152 Q 443 183 438 207 Q 434 216 429 217 Q 420 217 416 209 Z" style="fill: #0070C0;"></path>
                                                                        <path d="M 701 189 Q 749 144 806 79 Q 822 58 837 54 Q 846 53 853 63 Q 866 76 853 119 Q 841 170 702 220 Q 693 224 691 213 Q 690 200 701 189 Z" style="fill: #0070C0;"></path>
                                    
                                    
                                                                                                                                                                                                                                                                                                                                                                                                                                                                                                                                                                                                                                                                                                                                                                                        </g>
                            </svg>