<svg width='83' height='83' >
                                <g transform="translate(3, 70) scale(0.07, -0.07)">
                                    <!-- 先将完整的字以灰色字体绘制完成，层级位于下面 -->
                                                                        <path d="M 217 638 Q 257 645 299 662 Q 317 671 326 660 Q 332 654 323 637 Q 307 600 292 564 Q 279 539 293 520 Q 347 436 330 418 Q 323 409 303 412 Q 276 416 248 415 Q 224 416 251 402 Q 300 374 346 341 Q 359 328 372 341 Q 385 350 393 373 Q 400 395 385 434 Q 370 479 339 512 Q 312 545 330 568 Q 379 640 405 656 Q 426 669 416 682 Q 403 701 365 722 Q 344 731 329 719 Q 274 680 206 670 C 176 665 188 632 217 638 Z" style="fill: #0070C0;"></path>
                                                                        <path d="M 206 670 Q 205 671 203 672 Q 178 691 149 700 Q 139 701 132 692 Q 128 686 137 675 Q 165 602 166 537 Q 178 255 135 113 Q 128 85 132 63 Q 142 26 155 13 Q 168 -2 178 13 Q 208 55 210 246 Q 210 585 217 638 C 219 661 219 661 206 670 Z" style="fill: #0070C0;"></path>
                                                                        <path d="M 598 644 Q 652 728 670 744 Q 679 754 675 768 Q 671 781 642 804 Q 615 822 597 821 Q 578 820 586 798 Q 598 776 589 756 Q 565 689 527 628 Q 490 568 439 502 Q 429 492 426 486 Q 423 476 437 478 Q 476 482 588 630 L 598 644 Z" style="fill: #0070C0;"></path>
                                                                        <path d="M 588 630 Q 604 614 675 624 Q 720 637 724 631 Q 728 627 722 614 Q 670 512 637 465 Q 625 446 623 437 Q 620 427 634 432 Q 650 441 728 534 Q 776 592 823 626 Q 842 636 830 651 Q 815 664 777 686 Q 761 692 745 682 Q 735 678 654 653 Q 629 646 598 644 C 568 641 567 641 588 630 Z" style="fill: #0070C0;"></path>
                                                                        <path d="M 456 321 Q 480 333 542 373 Q 558 386 579 394 Q 597 401 589 416 Q 579 431 557 444 Q 538 456 527 454 Q 517 453 519 442 Q 522 418 478 372 Q 462 354 443 334 C 422 312 429 307 456 321 Z" style="fill: #0070C0;"></path>
                                                                        <path d="M 482 76 Q 479 119 469 189 L 466 217 Q 457 290 457 310 Q 457 317 456 321 C 455 329 455 329 443 334 Q 430 340 405 346 Q 393 350 389 345 Q 382 339 390 323 Q 421 236 431 99 Q 432 57 453 29 Q 469 5 475 21 Q 478 30 480 41 L 482 76 Z" style="fill: #0070C0;"></path>
                                                                        <path d="M 469 189 Q 542 205 596 213 Q 618 217 609 229 Q 599 242 575 246 Q 539 249 466 217 C 438 205 440 183 469 189 Z" style="fill: #0070C0;"></path>
                                                                        <path d="M 753 59 Q 763 37 782 -5 Q 789 -21 799 -20 Q 812 -17 822 6 Q 856 73 862 166 Q 869 224 876 290 Q 883 333 904 359 Q 920 375 910 388 Q 891 407 851 428 Q 835 438 805 429 Q 777 419 742 411 Q 709 405 659 402 Q 652 403 649 399 Q 648 392 658 384 Q 679 371 714 369 Q 807 385 817 378 Q 829 354 820 263 L 817 229 Q 810 168 796 103 Q 793 82 784 80 Q 781 79 771 83 C 742 83 742 83 753 59 Z" style="fill: #0070C0;"></path>
                                                                        <path d="M 820 263 Q 807 276 670 245 Q 666 245 664 244 Q 648 241 666 226 Q 673 219 691 220 Q 760 226 817 229 C 847 231 847 249 820 263 Z" style="fill: #0070C0;"></path>
                                                                        <path d="M 771 83 Q 738 116 698 106 Q 578 84 482 76 C 452 73 450 46 480 41 Q 490 38 506 40 Q 585 55 753 59 C 783 60 793 63 771 83 Z" style="fill: #0070C0;"></path>
                                    
                                    
                                                                                                                                                                                                                                                                                                                                                                                                                                                                                                                                                                                                                                                                                                                                                                                                                                                                    </g>
                            </svg>