<svg width='83' height='83' >
                                <g transform="translate(3, 70) scale(0.07, -0.07)">
                                    <!-- 先将完整的字以灰色字体绘制完成，层级位于下面 -->
                                                                        <path d="M 222 667 Q 256 676 296 695 Q 312 705 323 695 Q 330 691 322 670 Q 288 568 299 551 Q 363 446 343 425 Q 337 415 314 417 Q 286 421 255 419 Q 233 420 259 407 Q 311 382 358 351 Q 373 338 386 351 Q 402 361 409 388 Q 424 440 361 525 Q 318 577 339 609 Q 375 679 399 698 Q 418 711 407 723 Q 394 739 356 757 Q 335 764 323 752 Q 271 710 198 693 C 169 685 193 658 222 667 Z" style="fill: #0070C0;"></path>
                                                                        <path d="M 198 693 Q 179 709 153 715 Q 143 716 136 708 Q 132 701 141 690 Q 169 626 173 551 Q 188 266 146 120 Q 139 92 144 71 Q 154 34 167 21 Q 180 6 190 21 Q 223 63 221 209 Q 215 597 223 658 Q 223 662 222 667 C 222 677 222 677 198 693 Z" style="fill: #0070C0;"></path>
                                                                        <path d="M 557 664 Q 656 776 665 782 Q 684 797 669 811 Q 653 824 625 832 Q 600 839 588 835 Q 575 831 583 818 Q 593 793 525 666 Q 522 663 521 658 C 509 631 537 642 557 664 Z" style="fill: #0070C0;"></path>
                                                                        <path d="M 472 651 Q 459 660 442 664 Q 436 665 431 661 Q 424 657 433 646 Q 463 597 470 486 Q 473 420 507 403 Q 520 399 523 417 L 524 440 Q 523 462 516 490 Q 515 502 513 514 L 511 539 Q 508 581 506 617 C 505 631 498 635 472 651 Z" style="fill: #0070C0;"></path>
                                                                        <path d="M 706 435 Q 724 410 741 401 Q 751 394 767 415 Q 780 437 810 562 Q 819 593 844 620 Q 857 633 845 647 Q 829 665 785 693 Q 769 702 697 686 Q 645 686 557 664 L 521 658 Q 494 655 472 651 C 442 646 477 609 506 617 Q 506 618 508 618 Q 580 636 707 649 Q 735 652 744 642 Q 756 629 754 614 Q 735 496 726 477 Q 722 468 713 464 C 696 447 696 447 706 435 Z" style="fill: #0070C0;"></path>
                                                                        <path d="M 513 514 Q 517 513 530 514 Q 623 529 691 537 Q 713 541 705 553 Q 695 566 671 571 Q 650 575 511 539 C 482 532 483 516 513 514 Z" style="fill: #0070C0;"></path>
                                                                        <path d="M 523 417 Q 532 416 544 417 Q 635 429 706 435 C 736 438 742 457 713 464 Q 683 474 532 441 Q 528 441 524 440 C 494 436 493 419 523 417 Z" style="fill: #0070C0;"></path>
                                                                        <path d="M 639 298 Q 783 322 785 322 Q 794 329 790 337 Q 784 349 758 357 Q 736 363 625 338 Q 544 328 483 325 Q 449 322 472 305 Q 505 281 563 288 Q 572 289 586 291 L 639 298 Z" style="fill: #0070C0;"></path>
                                                                        <path d="M 640 173 Q 650 176 771 185 Q 780 184 788 194 Q 789 204 771 213 Q 744 234 647 210 Q 644 210 642 209 L 591 202 Q 561 199 537 197 Q 506 196 469 192 Q 444 191 462 175 Q 481 157 519 157 Q 550 163 591 167 L 640 173 Z" style="fill: #0070C0;"></path>
                                                                        <path d="M 633 79 Q 636 130 640 173 L 642 209 Q 643 228 645 247 Q 645 259 646 266 Q 653 284 645 293 Q 642 296 639 298 C 616 317 581 321 586 291 Q 590 275 591 202 L 591 167 Q 591 130 591 75 C 591 45 631 49 633 79 Z" style="fill: #0070C0;"></path>
                                                                        <path d="M 591 75 Q 485 68 362 58 Q 340 57 355 39 Q 368 24 386 18 Q 407 11 423 15 Q 624 58 909 37 Q 910 38 912 37 Q 931 36 937 44 Q 943 56 927 70 Q 876 112 839 105 Q 763 93 633 79 L 591 75 Z" style="fill: #0070C0;"></path>
                                    
                                    
                                                                                                                                                                                                                                                                                                                                                                                                                                                                                                                                                                                                                                                                                                                                                                                                                                                                                                                                                </g>
                            </svg>