<svg width='83' height='83' >
                                <g transform="translate(3, 70) scale(0.07, -0.07)">
                                    <!-- 先将完整的字以灰色字体绘制完成，层级位于下面 -->
                                                                        <path d="M 306 551 Q 340 605 379 667 Q 412 730 442 760 Q 452 773 447 789 Q 443 805 408 831 Q 377 853 354 852 Q 332 851 341 824 Q 360 784 344 748 Q 298 631 225 523 Q 155 420 60 305 Q 48 292 45 285 Q 41 272 58 275 Q 112 287 277 510 L 306 551 Z" style="fill: #0070C0;"></path>
                                                                        <path d="M 346 138 Q 346 396 356 458 Q 365 488 340 514 Q 310 548 306 551 C 285 573 264 537 277 510 Q 278 504 283 498 Q 301 461 303 424 Q 303 378 302 332 Q 302 205 269 75 Q 263 53 273 16 Q 286 -23 298 -35 Q 319 -53 331 -23 Q 344 19 346 107 L 346 138 Z" style="fill: #0070C0;"></path>
                                                                        <path d="M 566 754 Q 593 732 621 707 Q 637 694 655 695 Q 668 696 672 712 Q 676 730 664 763 Q 657 782 624 794 Q 548 815 532 807 Q 526 803 529 788 Q 533 775 566 754 Z" style="fill: #0070C0;"></path>
                                                                        <path d="M 606 566 Q 667 579 735 591 Q 787 601 794 609 Q 803 616 799 624 Q 792 636 764 644 Q 737 650 616 613 Q 475 589 430 584 Q 394 578 419 562 Q 453 538 557 557 L 606 566 Z" style="fill: #0070C0;"></path>
                                                                        <path d="M 632 411 Q 675 421 725 429 Q 768 439 774 445 Q 783 452 779 460 Q 772 472 744 479 Q 723 485 633 458 L 576 444 Q 521 434 457 428 Q 423 422 447 406 Q 481 385 557 397 Q 564 398 576 400 L 632 411 Z" style="fill: #0070C0;"></path>
                                                                        <path d="M 628 280 Q 779 311 786 317 Q 795 324 791 332 Q 784 344 756 352 Q 732 358 629 326 L 576 313 Q 518 303 450 296 Q 414 290 439 274 Q 473 253 547 265 Q 559 268 576 270 L 628 280 Z" style="fill: #0070C0;"></path>
                                                                        <path d="M 625 171 Q 626 228 628 280 L 629 326 Q 630 371 632 411 L 633 458 Q 633 485 636 512 Q 645 539 606 566 C 582 584 547 585 557 557 Q 572 521 576 444 L 576 400 Q 576 364 576 313 L 576 270 Q 576 224 576 165 C 576 135 624 141 625 171 Z" style="fill: #0070C0;"></path>
                                                                        <path d="M 576 165 Q 470 153 346 138 C 316 134 319 119 346 107 Q 373 92 400 98 Q 553 137 848 137 Q 864 137 882 136 Q 901 136 907 144 Q 911 156 896 170 Q 836 215 787 198 Q 721 188 625 171 L 576 165 Z" style="fill: #0070C0;"></path>
                                    
                                    
                                                                                                                                                                                                                                                                                                                                                                                                                                                                                                                                                                                                                                                                                                            </g>
                            </svg>