<svg width='83' height='83' >
                                <g transform="translate(3, 70) scale(0.07, -0.07)">
                                    <!-- 先将完整的字以灰色字体绘制完成，层级位于下面 -->
                                                                        <path d="M 323 714 Q 366 699 413 707 Q 771 768 795 780 Q 795 781 797 781 Q 807 790 803 799 Q 796 812 765 821 Q 728 830 645 802 Q 476 759 320 747 Q 319 747 319 746 C 289 742 294 723 323 714 Z" style="fill: #0070C0;"></path>
                                                                        <path d="M 319 746 Q 303 762 274 775 Q 255 787 241 782 Q 228 775 235 760 Q 257 730 250 647 Q 249 641 249 632 Q 233 436 186 316 Q 140 199 56 76 Q 50 69 48 63 Q 45 51 56 53 Q 89 59 168 174 Q 189 207 209 246 Q 281 402 304 602 Q 311 671 322 713 Q 322 714 323 714 C 329 738 329 738 319 746 Z" style="fill: #0070C0;"></path>
                                                                        <path d="M 364 449 Q 424 524 449 565 Q 465 593 479 607 Q 486 616 483 627 Q 479 637 456 656 Q 434 669 418 670 Q 402 669 410 650 Q 425 616 362 507 Q 331 458 289 401 Q 282 394 279 388 Q 276 378 288 381 Q 300 382 343 425 L 364 449 Z" style="fill: #0070C0;"></path>
                                                                        <path d="M 343 425 Q 361 365 362 323 Q 361 313 361 300 Q 360 218 337 132 Q 325 92 357 49 Q 358 48 360 46 Q 376 33 386 56 Q 399 90 398 131 Q 402 329 409 373 Q 416 397 407 406 Q 391 424 380 436 Q 373 445 364 449 C 339 466 335 454 343 425 Z" style="fill: #0070C0;"></path>
                                                                        <path d="M 516 470 Q 522 479 530 488 Q 564 531 601 595 Q 617 626 631 640 Q 638 650 634 662 Q 630 672 603 691 Q 579 706 562 705 Q 546 702 554 683 Q 581 631 440 419 Q 433 410 430 404 Q 429 394 440 397 Q 450 400 495 444 L 516 470 Z" style="fill: #0070C0;"></path>
                                                                        <path d="M 559 152 Q 559 341 567 387 Q 574 412 565 422 Q 549 441 536 454 Q 527 464 516 470 C 491 487 485 472 495 444 Q 519 380 520 321 Q 520 195 494 91 Q 482 42 517 1 L 518 -1 Q 534 -16 546 9 Q 558 46 559 124 L 559 152 Z" style="fill: #0070C0;"></path>
                                                                        <path d="M 694 636 Q 713 618 734 596 Q 746 584 759 585 Q 769 585 773 597 Q 777 610 770 635 Q 764 657 691 678 Q 678 681 672 679 Q 668 675 669 664 Q 672 654 694 636 Z" style="fill: #0070C0;"></path>
                                                                        <path d="M 728 486 Q 876 525 879 526 Q 888 533 883 541 Q 876 551 849 558 Q 822 562 795 551 Q 755 536 710 525 Q 661 513 604 506 Q 570 500 594 485 Q 634 466 684 477 Q 685 478 690 478 L 728 486 Z" style="fill: #0070C0;"></path>
                                                                        <path d="M 750 376 Q 795 385 835 391 Q 857 395 849 408 Q 839 423 813 427 Q 791 430 752 418 L 703 404 Q 658 392 619 381 Q 603 377 623 363 Q 629 359 703 367 L 750 376 Z" style="fill: #0070C0;"></path>
                                                                        <path d="M 745 271 Q 794 281 839 288 Q 861 292 853 304 Q 843 319 817 323 Q 793 326 752 314 Q 748 313 746 312 L 702 299 Q 657 289 619 277 Q 603 273 623 259 Q 629 255 702 263 L 745 271 Z" style="fill: #0070C0;"></path>
                                                                        <path d="M 740 181 Q 741 229 745 271 L 746 312 Q 747 346 750 376 L 752 418 Q 753 431 754 441 Q 761 457 752 467 Q 740 479 728 486 C 703 502 678 505 690 478 Q 702 457 703 404 L 703 367 Q 703 340 702 299 L 702 263 Q 701 224 701 174 C 701 144 739 151 740 181 Z" style="fill: #0070C0;"></path>
                                                                        <path d="M 701 174 Q 634 165 559 152 C 529 147 532 137 559 124 Q 581 111 608 118 Q 722 149 901 149 Q 916 148 929 149 Q 947 149 951 157 Q 955 167 941 179 Q 890 218 833 199 Q 794 192 740 181 L 701 174 Z" style="fill: #0070C0;"></path>
                                    
                                    
                                                                                                                                                                                                                                                                                                                                                                                                                                                                                                                                                                                                                                                                                                                                                                                                                                                                                                                                                                                                                            </g>
                            </svg>