<svg width='83' height='83' >
                                <g transform="translate(3, 70) scale(0.07, -0.07)">
                                    <!-- 先将完整的字以灰色字体绘制完成，层级位于下面 -->
                                                                        <path d="M 350 698 Q 390 711 434 722 Q 462 731 465 735 Q 474 744 468 752 Q 461 764 430 769 Q 399 772 369 757 Q 338 744 304 733 Q 267 723 223 715 Q 186 705 214 691 Q 259 672 314 688 Q 315 689 318 689 L 350 698 Z" style="fill: #0070C0;"></path>
                                                                        <path d="M 378 511 Q 403 518 436 524 Q 458 527 456 538 Q 455 551 425 564 Q 409 571 382 561 Q 381 561 381 560 L 331 540 Q 271 521 228 501 Q 222 497 219 499 Q 225 532 234 571 Q 238 599 236 606 Q 229 616 207 632 Q 192 644 184 639 Q 177 635 182 621 Q 192 590 184 538 Q 184 542 184 548 Q 180 514 159 484 Q 141 457 172 426 Q 181 419 196 429 Q 236 471 313 493 L 378 511 Z" style="fill: #0070C0;"></path>
                                                                        <path d="M 328 413 Q 325 304 322 149 Q 321 118 311 106 Q 305 103 228 120 Q 216 123 217 116 Q 218 109 227 101 Q 285 56 322 18 Q 332 11 344 24 Q 381 73 377 142 Q 373 403 378 511 L 381 560 Q 382 599 388 636 Q 394 661 388 670 Q 381 682 350 698 C 324 713 311 718 318 689 Q 333 641 331 540 L 328 413 Z" style="fill: #0070C0;"></path>
                                                                        <path d="M 313 493 Q 259 367 95 178 Q 88 168 100 167 Q 121 164 229 275 Q 281 330 328 413 C 387 516 325 520 313 493 Z" style="fill: #0070C0;"></path>
                                                                        <path d="M 530 548 Q 530 549 531 549 Q 577 613 627 708 Q 646 751 666 774 Q 675 784 669 798 Q 665 811 634 831 Q 606 847 588 845 Q 569 842 579 821 Q 594 793 586 769 Q 561 687 517 607 Q 475 531 416 447 Q 407 437 405 430 Q 404 418 417 422 Q 438 428 503 510 L 530 548 Z" style="fill: #0070C0;"></path>
                                                                        <path d="M 569 161 Q 569 399 578 461 Q 585 491 559 519 Q 538 543 530 548 C 508 568 493 538 503 510 Q 531 437 532 379 Q 520 175 519 163 Q 510 111 497 55 Q 482 6 519 -42 Q 520 -45 524 -48 Q 543 -64 555 -36 Q 570 6 570 54 Q 569 94 569 132 L 569 161 Z" style="fill: #0070C0;"></path>
                                                                        <path d="M 719 719 Q 741 697 766 670 Q 778 657 793 656 Q 803 656 809 669 Q 813 682 807 712 Q 803 730 775 744 Q 714 771 696 767 Q 692 763 692 751 Q 695 741 719 719 Z" style="fill: #0070C0;"></path>
                                                                        <path d="M 754 562 Q 901 601 903 601 Q 912 608 907 617 Q 900 627 872 634 Q 848 638 749 607 Q 647 586 612 580 Q 578 573 603 558 Q 642 537 699 550 Q 702 551 709 551 L 754 562 Z" style="fill: #0070C0;"></path>
                                                                        <path d="M 766 427 Q 815 440 859 446 Q 883 450 873 464 Q 861 479 835 483 Q 810 484 768 472 L 720 456 Q 674 443 635 430 Q 617 426 640 411 Q 647 405 720 418 L 766 427 Z" style="fill: #0070C0;"></path>
                                                                        <path d="M 761 300 Q 816 312 866 318 Q 891 322 881 336 Q 871 351 843 356 Q 800 362 763 343 L 718 331 Q 667 318 624 306 Q 606 302 628 286 Q 640 279 664 283 Q 691 289 718 292 L 761 300 Z" style="fill: #0070C0;"></path>
                                                                        <path d="M 757 193 Q 758 250 761 300 L 763 343 Q 763 388 766 427 L 768 472 Q 768 496 771 523 Q 780 545 754 562 C 730 581 702 580 709 551 Q 718 518 720 456 L 720 418 Q 719 384 718 331 L 718 292 Q 717 246 716 186 C 715 156 756 163 757 193 Z" style="fill: #0070C0;"></path>
                                                                        <path d="M 716 186 Q 646 176 569 161 C 540 155 542 144 569 132 Q 593 119 619 126 Q 727 156 905 159 Q 920 158 933 159 Q 952 159 956 167 Q 960 179 945 191 Q 891 230 838 211 Q 804 204 757 193 L 716 186 Z" style="fill: #0070C0;"></path>
                                    
                                    
                                                                                                                                                                                                                                                                                                                                                                                                                                                                                                                                                                                                                                                                                                                                                                                                                                                                                                                                                                                                                            </g>
                            </svg>