<svg width='83' height='83' >
                                <g transform="translate(3, 70) scale(0.07, -0.07)">
                                    <!-- 先将完整的字以灰色字体绘制完成，层级位于下面 -->
                                                                        <path d="M 519 805 Q 544 787 571 765 Q 587 752 605 755 Q 617 756 621 772 Q 624 788 610 820 Q 603 838 571 848 Q 495 863 484 855 Q 478 851 482 837 Q 488 825 519 805 Z" style="fill: #0070C0;"></path>
                                                                        <path d="M 694 596 Q 724 650 750 661 Q 769 679 755 698 Q 739 714 686 743 Q 667 752 645 745 Q 548 706 380 685 C 350 681 353 651 383 654 Q 396 653 621 695 Q 646 699 655 690 Q 662 681 637 604 C 628 575 679 570 694 596 Z" style="fill: #0070C0;"></path>
                                                                        <path d="M 349 511 Q 367 505 383 508 Q 483 536 704 563 Q 714 564 716 574 Q 716 581 694 596 L 637 604 Q 634 604 633 603 Q 479 561 356 542 C 326 537 320 518 349 511 Z" style="fill: #0070C0;"></path>
                                                                        <path d="M 380 685 Q 364 701 338 717 Q 319 730 305 726 Q 292 719 298 704 Q 314 676 309 622 Q 276 394 217 265 Q 163 153 70 35 Q 63 29 61 23 Q 57 11 69 13 Q 85 13 130 61 Q 283 202 349 511 L 356 542 Q 363 579 370 613 Q 374 632 381 651 Q 382 652 383 654 C 391 676 391 676 380 685 Z" style="fill: #0070C0;"></path>
                                                                        <path d="M 396 327 Q 418 352 444 386 Q 460 410 473 420 Q 480 429 478 441 Q 474 451 451 472 Q 429 488 413 489 Q 397 488 404 469 Q 416 441 357 347 Q 329 304 291 258 Q 282 249 280 244 Q 276 235 288 237 Q 309 240 371 301 L 396 327 Z" style="fill: #0070C0;"></path>
                                                                        <path d="M 432 61 Q 436 209 443 247 Q 450 272 441 282 Q 425 301 412 314 Q 405 323 396 327 C 371 344 361 329 371 301 Q 390 250 391 196 Q 390 187 390 177 Q 389 93 366 7 Q 354 -42 389 -83 L 390 -85 Q 406 -100 418 -75 Q 430 -38 431 39 L 432 61 Z" style="fill: #0070C0;"></path>
                                                                        <path d="M 583 485 Q 607 469 633 448 Q 643 439 655 441 Q 662 442 666 452 Q 667 464 659 484 Q 653 500 628 509 Q 568 524 560 518 Q 556 515 558 506 Q 562 499 583 485 Z" style="fill: #0070C0;"></path>
                                                                        <path d="M 641 378 Q 699 391 759 403 Q 798 413 803 418 Q 810 425 807 433 Q 800 443 774 450 Q 750 456 652 424 Q 553 403 512 398 Q 478 392 503 377 Q 542 356 592 368 Q 593 369 596 368 L 641 378 Z" style="fill: #0070C0;"></path>
                                                                        <path d="M 660 275 Q 715 287 766 294 Q 791 298 781 312 Q 771 327 743 332 Q 712 335 662 319 L 607 304 Q 552 291 504 278 Q 486 274 508 258 Q 521 249 547 254 Q 577 261 607 265 L 660 275 Z" style="fill: #0070C0;"></path>
                                                                        <path d="M 655 177 Q 727 190 789 199 Q 814 202 805 216 Q 795 232 767 237 Q 749 240 657 219 L 607 207 Q 546 195 492 182 Q 474 178 496 162 Q 509 152 540 157 Q 574 164 607 169 L 655 177 Z" style="fill: #0070C0;"></path>
                                                                        <path d="M 650 89 Q 651 135 655 177 L 657 219 Q 658 249 660 275 L 662 319 Q 668 352 662 360 Q 652 370 641 378 C 617 396 584 396 596 368 Q 605 353 607 304 L 607 265 Q 607 241 607 207 L 607 169 Q 607 132 607 83 C 607 53 649 59 650 89 Z" style="fill: #0070C0;"></path>
                                                                        <path d="M 607 83 Q 525 74 432 61 C 406 57 407 57 431 39 Q 458 15 494 23 Q 620 57 895 57 Q 914 57 919 66 Q 923 76 908 90 Q 854 132 794 114 Q 736 104 650 89 L 607 83 Z" style="fill: #0070C0;"></path>
                                    
                                    
                                                                                                                                                                                                                                                                                                                                                                                                                                                                                                                                                                                                                                                                                                                                                                                                                                                                                                                                                                                                                            </g>
                            </svg>