<svg width='83' height='83' >
                                <g transform="translate(3, 70) scale(0.07, -0.07)">
                                    <!-- 先将完整的字以灰色字体绘制完成，层级位于下面 -->
                                                                        <path d="M 499 778 Q 650 808 654 811 Q 664 818 659 828 Q 652 840 622 848 Q 591 855 561 844 Q 518 831 471 820 Q 419 810 359 805 Q 322 801 348 782 Q 390 757 447 769 Q 448 770 450 769 L 499 778 Z" style="fill: #0070C0;"></path>
                                                                        <path d="M 225 666 Q 215 685 205 692 Q 186 707 184 680 Q 188 653 173 627 Q 157 609 135 589 Q 125 577 128 555 Q 134 524 143 507 Q 159 479 179 508 Q 185 520 229 632 C 235 648 235 648 225 666 Z" style="fill: #0070C0;"></path>
                                                                        <path d="M 514 675 Q 709 705 751 696 Q 766 689 764 682 Q 746 640 728 598 L 729 597 Q 736 593 753 602 Q 808 633 853 642 Q 890 649 890 658 Q 889 668 820 724 Q 796 743 710 728 Q 658 722 515 703 L 465 696 Q 407 690 341 680 Q 283 673 225 666 C 195 662 200 639 229 632 Q 250 623 271 628 Q 365 658 466 669 L 514 675 Z" style="fill: #0070C0;"></path>
                                                                        <path d="M 466 669 Q 469 630 456 526 Q 449 495 475 459 L 476 458 Q 485 448 494 458 Q 512 485 513 557 Q 513 615 514 675 L 515 703 Q 516 722 520 741 Q 527 763 507 773 Q 503 776 499 778 C 473 794 439 797 450 769 Q 463 741 465 696 L 466 669 Z" style="fill: #0070C0;"></path>
                                                                        <path d="M 310 574 Q 355 544 383 539 Q 395 539 400 552 Q 401 562 397 576 Q 379 607 312 607 Q 299 608 291 603 Q 287 600 291 591 Q 295 582 310 574 Z" style="fill: #0070C0;"></path>
                                                                        <path d="M 296 485 Q 339 449 366 444 Q 379 444 384 456 Q 387 466 382 481 Q 364 517 303 518 Q 302 518 301 518 Q 288 519 280 515 Q 276 514 279 503 Q 282 494 296 485 Z" style="fill: #0070C0;"></path>
                                                                        <path d="M 587 619 Q 638 591 667 585 Q 680 586 684 600 Q 685 610 679 624 Q 669 640 651 646 Q 603 665 571 649 Q 568 649 567 647 Q 563 644 567 635 Q 571 626 587 619 Z" style="fill: #0070C0;"></path>
                                                                        <path d="M 579 519 Q 630 491 659 485 Q 672 486 676 500 Q 677 510 671 524 Q 661 540 643 546 Q 595 565 563 549 Q 560 549 559 547 Q 555 544 559 535 Q 563 526 579 519 Z" style="fill: #0070C0;"></path>
                                                                        <path d="M 366 420 Q 330 414 355 398 Q 391 373 449 386 Q 522 399 598 413 Q 632 420 638 425 Q 647 432 643 440 Q 636 452 608 460 Q 584 466 485 437 Q 392 422 366 420 Z" style="fill: #0070C0;"></path>
                                                                        <path d="M 454 301 Q 526 325 835 325 Q 854 325 859 334 Q 865 344 848 358 Q 790 401 735 381 Q 573 350 188 298 Q 167 295 183 279 Q 196 266 214 261 Q 233 255 250 260 Q 323 282 409 295 L 454 301 Z" style="fill: #0070C0;"></path>
                                                                        <path d="M 358 128 Q 416 165 534 185 Q 568 194 588 189 Q 609 182 611 148 Q 602 85 569 38 Q 553 16 539 12 Q 521 9 460 35 Q 445 45 443 38 Q 442 32 451 19 Q 482 -26 501 -64 Q 508 -77 520 -78 Q 536 -82 557 -71 Q 623 -20 663 123 Q 666 153 677 170 Q 690 182 679 194 Q 663 210 626 227 Q 610 234 546 217 Q 441 201 421 197 Q 414 196 418 202 Q 455 245 467 255 Q 482 265 474 282 Q 467 292 454 301 C 432 321 412 325 409 295 Q 415 267 371 216 Q 361 204 333 191 Q 314 176 316 160 Q 317 145 332 129 Q 342 117 358 128 Z" style="fill: #0070C0;"></path>
                                    
                                    
                                                                                                                                                                                                                                                                                                                                                                                                                                                                                                                                                                                                                                                                                                                                                                                                                                                                                                                                                </g>
                            </svg>