<svg width='83' height='83' >
                                <g transform="translate(3, 70) scale(0.07, -0.07)">
                                    <!-- 先将完整的字以灰色字体绘制完成，层级位于下面 -->
                                                                        <path d="M 506 768 Q 567 781 633 793 Q 676 803 682 809 Q 691 816 687 824 Q 680 836 652 843 Q 631 849 520 817 Q 409 796 365 792 Q 331 786 355 770 Q 394 746 453 759 Q 457 760 464 760 L 506 768 Z" style="fill: #0070C0;"></path>
                                                                        <path d="M 264 648 Q 255 675 241 684 Q 222 700 219 673 Q 222 645 195 607 Q 150 558 149 537 Q 149 518 163 483 Q 178 455 199 483 Q 218 508 232 546 Q 256 609 265 628 C 268 636 268 636 264 648 Z" style="fill: #0070C0;"></path>
                                                                        <path d="M 532 658 Q 703 692 743 683 Q 756 673 754 665 Q 754 664 725 591 Q 718 578 725 573 Q 732 569 750 581 Q 805 618 852 631 Q 889 643 889 651 Q 888 661 813 714 Q 786 733 688 712 Q 633 706 532 688 L 481 680 Q 435 674 383 665 Q 329 655 275 650 Q 268 650 264 648 C 236 644 239 643 265 628 Q 298 604 336 616 Q 426 643 482 650 L 532 658 Z" style="fill: #0070C0;"></path>
                                                                        <path d="M 482 650 Q 485 634 475 544 Q 469 511 496 482 Q 505 472 514 482 Q 535 512 532 552 Q 531 579 532 658 L 532 688 Q 533 707 537 725 Q 544 747 524 758 Q 515 764 506 768 C 479 781 455 789 464 760 Q 464 757 466 753 Q 475 734 481 680 L 482 650 Z" style="fill: #0070C0;"></path>
                                                                        <path d="M 336 567 Q 385 530 405 533 Q 415 534 417 552 Q 416 564 403 578 Q 393 588 374 588 Q 346 592 334 590 Q 325 590 327 580 Q 328 573 336 567 Z" style="fill: #0070C0;"></path>
                                                                        <path d="M 304 472 Q 361 424 386 425 Q 399 426 402 446 Q 401 459 388 476 Q 376 488 353 491 Q 317 498 303 498 Q 294 498 295 487 Q 295 480 304 472 Z" style="fill: #0070C0;"></path>
                                                                        <path d="M 608 602 Q 662 562 680 566 Q 692 567 694 584 Q 693 596 680 611 Q 656 632 606 626 Q 597 626 599 616 Q 600 609 608 602 Z" style="fill: #0070C0;"></path>
                                                                        <path d="M 588 501 Q 646 455 667 458 Q 680 459 682 477 Q 681 489 668 505 Q 641 532 587 526 Q 578 526 579 515 Q 579 508 588 501 Z" style="fill: #0070C0;"></path>
                                                                        <path d="M 447 418 Q 468 402 491 381 Q 501 372 514 373 Q 521 374 525 384 Q 528 396 520 419 Q 516 432 491 443 Q 437 459 424 455 Q 420 451 422 441 Q 425 434 447 418 Z" style="fill: #0070C0;"></path>
                                                                        <path d="M 568 325 Q 640 332 735 333 Q 796 330 804 342 Q 808 352 792 366 Q 741 402 705 394 Q 576 364 216 314 Q 195 311 211 295 Q 224 282 242 277 Q 263 273 278 277 Q 395 310 522 321 L 568 325 Z" style="fill: #0070C0;"></path>
                                                                        <path d="M 532 137 Q 557 180 578 226 Q 588 251 598 267 Q 605 279 599 288 Q 586 312 568 325 C 546 345 523 351 522 321 Q 523 249 484 173 L 465 143 Q 405 38 177 15 Q 167 16 161 13 Q 154 10 163 3 Q 167 -1 183 -2 Q 276 -14 348 4 Q 435 20 509 104 L 532 137 Z" style="fill: #0070C0;"></path>
                                                                        <path d="M 509 104 Q 692 -58 731 -62 Q 737 -61 743 -61 Q 836 -54 910 -33 Q 949 -24 944 -14 Q 943 -8 902 -1 Q 737 29 692 44 Q 629 68 532 137 L 484 173 Q 454 198 423 224 Q 383 260 348 256 Q 330 255 328 249 Q 327 242 343 233 Q 391 211 465 143 L 509 104 Z" style="fill: #0070C0;"></path>
                                    
                                    
                                                                                                                                                                                                                                                                                                                                                                                                                                                                                                                                                                                                                                                                                                                                                                                                                                                                                                                                                                                                                            </g>
                            </svg>