<svg width='83' height='83' >
                                <g transform="translate(3, 70) scale(0.07, -0.07)">
                                    <!-- 先将完整的字以灰色字体绘制完成，层级位于下面 -->
                                                                        <path d="M 496 777 Q 674 807 677 807 Q 687 814 682 824 Q 676 837 647 846 Q 616 853 585 844 Q 537 831 486 823 Q 431 814 364 813 Q 327 809 352 790 Q 395 763 451 772 Q 454 773 458 772 L 496 777 Z" style="fill: #0070C0;"></path>
                                                                        <path d="M 252 681 Q 242 700 232 708 Q 213 724 210 696 Q 213 669 196 639 Q 145 585 147 568 Q 147 544 163 511 Q 179 483 201 512 Q 235 581 259 651 C 263 662 263 662 252 681 Z" style="fill: #0070C0;"></path>
                                                                        <path d="M 523 685 Q 698 715 741 705 Q 759 695 757 686 Q 758 683 753 671 Q 726 611 733 605 Q 740 601 756 612 Q 808 645 850 654 Q 884 664 884 672 Q 883 682 811 735 Q 789 753 716 741 Q 580 726 525 716 L 473 709 Q 424 705 367 695 Q 312 688 256 683 Q 253 683 252 681 C 222 676 230 660 259 651 Q 281 639 318 647 Q 405 672 475 679 L 523 685 Z" style="fill: #0070C0;"></path>
                                                                        <path d="M 475 679 Q 478 646 469 565 Q 463 537 488 506 Q 498 496 506 506 Q 521 530 522 595 Q 522 640 523 685 L 525 716 Q 526 726 528 735 Q 534 756 515 767 Q 505 773 496 777 C 469 790 452 798 458 772 Q 458 768 460 763 Q 463 754 473 709 L 475 679 Z" style="fill: #0070C0;"></path>
                                                                        <path d="M 329 583 Q 389 547 405 552 Q 417 555 417 572 Q 414 584 401 597 Q 382 615 325 607 Q 318 606 320 596 Q 321 589 329 583 Z" style="fill: #0070C0;"></path>
                                                                        <path d="M 307 493 Q 376 454 394 457 Q 404 460 405 475 Q 404 485 391 498 Q 363 520 304 514 Q 297 513 299 504 Q 300 498 307 493 Z" style="fill: #0070C0;"></path>
                                                                        <path d="M 604 615 Q 664 573 685 577 Q 697 578 697 596 Q 696 608 683 622 Q 655 643 602 638 Q 593 638 595 628 Q 596 621 604 615 Z" style="fill: #0070C0;"></path>
                                                                        <path d="M 595 508 Q 653 457 678 458 Q 691 459 694 478 Q 694 491 681 508 Q 657 533 595 534 Q 586 534 587 523 Q 587 516 595 508 Z" style="fill: #0070C0;"></path>
                                                                        <path d="M 515 455 Q 518 462 517 467 Q 516 480 489 490 Q 461 502 448 500 Q 439 499 436 485 Q 397 368 145 188 Q 117 170 86 148 Q 64 135 91 136 Q 205 140 422 356 Q 426 365 498 437 L 515 455 Z" style="fill: #0070C0;"></path>
                                                                        <path d="M 498 437 Q 730 205 791 194 Q 800 194 812 193 Q 887 194 964 215 Q 983 219 985 224 Q 986 231 970 237 Q 769 297 757 302 Q 652 354 515 455 C 491 473 477 458 498 437 Z" style="fill: #0070C0;"></path>
                                                                        <path d="M 457 320 Q 479 304 501 285 Q 511 276 523 278 Q 530 279 534 288 Q 535 300 528 321 Q 524 334 500 344 Q 443 359 436 354 Q 432 351 434 342 Q 437 335 457 320 Z" style="fill: #0070C0;"></path>
                                                                        <path d="M 505 80 Q 626 164 668 172 Q 689 176 683 195 Q 682 211 615 255 Q 596 268 571 260 Q 504 238 405 215 Q 378 208 316 213 Q 291 214 299 193 Q 306 180 326 167 Q 357 148 394 167 Q 418 174 543 213 Q 556 217 567 211 Q 579 204 574 191 Q 531 145 483 88 C 464 65 480 63 505 80 Z" style="fill: #0070C0;"></path>
                                                                        <path d="M 483 88 Q 435 103 410 109 Q 400 113 399 101 Q 400 88 411 79 Q 460 40 521 -18 Q 537 -36 553 -39 Q 562 -40 569 -29 Q 579 -16 564 27 Q 552 64 505 80 L 483 88 Z" style="fill: #0070C0;"></path>
                                    
                                    
                                                                                                                                                                                                                                                                                                                                                                                                                                                                                                                                                                                                                                                                                                                                                                                                                                                                                                                                                                                                                                                                                                        </g>
                            </svg>