<svg width='83' height='83' >
                                <g transform="translate(3, 70) scale(0.07, -0.07)">
                                    <!-- 先将完整的字以灰色字体绘制完成，层级位于下面 -->
                                                                        <path d="M 499 751 Q 659 781 670 787 Q 680 794 675 804 Q 668 816 638 824 Q 608 831 509 801 Q 377 780 347 777 Q 310 773 336 754 Q 369 732 456 743 L 499 751 Z" style="fill: #0070C0;"></path>
                                                                        <path d="M 238 642 Q 228 664 218 672 Q 199 687 197 661 Q 201 631 159 578 Q 114 536 142 477 L 143 475 Q 156 448 178 475 Q 178 478 239 612 C 246 626 246 626 238 642 Z" style="fill: #0070C0;"></path>
                                                                        <path d="M 519 653 Q 705 680 735 676 Q 748 660 743 654 Q 734 611 723 566 L 725 565 Q 734 561 751 575 Q 806 612 851 625 Q 888 637 887 646 Q 884 656 807 707 Q 783 725 686 706 Q 602 696 522 682 L 470 675 Q 413 668 350 657 Q 293 648 238 642 C 208 639 210 621 239 612 Q 260 600 297 608 Q 381 635 471 646 L 519 653 Z" style="fill: #0070C0;"></path>
                                                                        <path d="M 471 646 Q 471 582 457 505 Q 448 471 476 438 Q 485 428 494 438 Q 513 468 515 540 Q 516 597 519 653 L 522 682 Q 523 695 527 708 Q 534 730 515 741 Q 508 747 499 751 C 473 765 447 772 456 743 Q 456 742 457 739 Q 469 709 470 675 L 471 646 Z" style="fill: #0070C0;"></path>
                                                                        <path d="M 307 565 Q 376 535 394 543 Q 406 547 403 564 Q 399 574 384 587 Q 371 596 348 593 Q 314 592 300 588 Q 293 587 296 577 Q 297 570 307 565 Z" style="fill: #0070C0;"></path>
                                                                        <path d="M 294 485 Q 355 452 378 459 Q 388 463 388 480 Q 384 490 370 504 Q 343 522 289 508 Q 280 507 284 496 Q 285 489 294 485 Z" style="fill: #0070C0;"></path>
                                                                        <path d="M 571 610 Q 650 577 670 586 Q 682 590 679 608 Q 675 618 659 630 Q 626 651 564 632 Q 557 631 560 621 Q 561 614 571 610 Z" style="fill: #0070C0;"></path>
                                                                        <path d="M 567 519 Q 639 482 661 487 Q 673 491 672 509 Q 669 521 654 534 Q 639 544 615 545 Q 576 546 561 544 Q 554 543 556 532 Q 557 525 567 519 Z" style="fill: #0070C0;"></path>
                                                                        <path d="M 293 294 Q 332 321 364 348 Q 389 373 404 384 C 424 399 424 399 414 411 Q 410 420 393 426 Q 368 436 357 435 Q 350 434 347 423 Q 329 360 173 255 Q 154 243 178 244 Q 215 244 273 281 L 293 294 Z" style="fill: #0070C0;"></path>
                                                                        <path d="M 404 384 Q 425 368 444 374 Q 609 408 620 393 Q 627 381 624 352 Q 620 268 600 232 Q 582 199 554 204 Q 533 208 515 213 Q 490 220 508 197 Q 545 157 563 128 Q 579 109 595 123 Q 647 159 672 273 Q 687 372 706 393 Q 718 405 712 415 Q 705 427 655 449 Q 636 459 617 446 Q 598 436 530 425 Q 466 413 414 411 C 384 409 378 399 404 384 Z" style="fill: #0070C0;"></path>
                                                                        <path d="M 473 203 Q 491 246 507 259 Q 529 281 508 296 Q 490 306 466 324 Q 445 336 406 311 Q 358 295 316 283 C 287 275 306 251 335 258 Q 399 274 413 277 Q 434 281 438 274 Q 442 270 436 246 Q 430 227 423 205 C 414 176 461 175 473 203 Z" style="fill: #0070C0;"></path>
                                                                        <path d="M 321 152 Q 322 152 329 153 Q 378 165 486 174 Q 495 175 496 182 Q 496 189 473 203 C 457 213 452 212 423 205 Q 368 192 324 183 C 295 177 291 148 321 152 Z" style="fill: #0070C0;"></path>
                                                                        <path d="M 882 73 Q 870 101 856 188 Q 856 204 849 210 Q 843 214 837 196 Q 804 105 784 76 Q 757 48 686 28 Q 520 -17 391 22 Q 340 41 329 69 Q 314 97 321 152 L 324 183 Q 327 214 334 249 Q 335 253 335 258 C 338 276 338 276 316 283 Q 307 289 293 294 C 267 308 266 309 273 281 Q 273 278 275 274 Q 285 240 283 205 Q 276 85 286 52 Q 290 21 324 -5 Q 411 -65 653 -44 Q 699 -37 746 -24 Q 810 -5 875 34 Q 894 49 882 73 Z" style="fill: #0070C0;"></path>
                                    
                                    
                                                                                                                                                                                                                                                                                                                                                                                                                                                                                                                                                                                                                                                                                                                                                                                                                                                                                                                                                                                                                                                                                                        </g>
                            </svg>