<svg width='83' height='83' >
                                <g transform="translate(3, 70) scale(0.07, -0.07)">
                                    <!-- 先将完整的字以灰色字体绘制完成，层级位于下面 -->
                                                                        <path d="M 519 773 Q 585 786 655 798 Q 698 807 706 813 Q 715 820 711 828 Q 704 840 676 848 Q 652 854 542 823 Q 440 804 382 799 Q 346 795 371 778 Q 410 751 468 765 Q 471 765 475 765 L 519 773 Z" style="fill: #0070C0;"></path>
                                                                        <path d="M 277 658 Q 268 680 258 689 Q 242 705 237 679 Q 237 646 195 599 Q 147 560 175 499 Q 188 471 210 497 Q 229 521 244 557 Q 263 602 276 627 C 284 642 284 642 277 658 Z" style="fill: #0070C0;"></path>
                                                                        <path d="M 537 664 Q 726 691 751 684 Q 769 672 766 664 Q 757 625 747 586 L 749 585 Q 756 581 772 594 Q 821 627 861 638 Q 894 648 893 656 Q 892 666 820 715 Q 799 730 726 718 Q 609 706 538 692 L 492 686 Q 440 680 382 671 Q 328 664 277 658 C 247 654 247 633 276 627 Q 294 618 350 628 Q 435 652 493 657 L 537 664 Z" style="fill: #0070C0;"></path>
                                                                        <path d="M 538 692 Q 539 714 543 735 Q 550 756 531 766 Q 525 770 519 773 C 493 788 465 793 475 765 Q 485 741 492 686 L 493 657 Q 493 590 481 507 Q 472 471 500 438 Q 509 428 518 438 Q 536 463 536 555 Q 536 609 537 664 L 538 692 Z" style="fill: #0070C0;"></path>
                                                                        <path d="M 350 576 Q 401 537 422 538 Q 432 539 434 555 Q 433 565 422 579 Q 412 589 392 592 Q 361 598 349 597 Q 342 597 343 588 Q 343 581 350 576 Z" style="fill: #0070C0;"></path>
                                                                        <path d="M 330 488 Q 387 443 406 447 Q 416 448 418 463 Q 417 473 407 487 Q 395 499 375 502 Q 342 509 329 509 Q 322 509 323 500 Q 323 493 330 488 Z" style="fill: #0070C0;"></path>
                                                                        <path d="M 595 592 Q 661 547 681 550 Q 693 551 694 568 Q 693 578 680 593 Q 667 605 645 608 Q 608 615 593 614 Q 586 613 587 604 Q 588 597 595 592 Z" style="fill: #0070C0;"></path>
                                                                        <path d="M 594 499 Q 652 451 673 455 Q 683 456 686 472 Q 685 482 674 497 Q 664 510 641 513 Q 607 522 593 521 Q 586 521 587 512 Q 587 505 594 499 Z" style="fill: #0070C0;"></path>
                                                                        <path d="M 380 296 Q 386 299 476 310 Q 486 309 493 320 Q 494 330 474 340 Q 438 355 387 339 L 341 327 Q 337 327 334 326 Q 270 311 167 298 Q 142 294 162 279 Q 195 255 217 263 Q 263 275 322 284 L 380 296 Z" style="fill: #0070C0;"></path>
                                                                        <path d="M 379 242 Q 379 269 380 296 L 387 339 Q 391 358 398 377 Q 405 393 394 405 Q 375 420 342 436 Q 329 443 318 436 Q 311 432 314 419 Q 333 386 341 327 L 340 230 Q 328 62 318 39 Q 308 15 335 -37 Q 344 -52 355 -40 Q 376 -19 377 99 Q 377 162 379 215 L 379 242 Z" style="fill: #0070C0;"></path>
                                                                        <path d="M 322 284 Q 268 179 115 57 Q 105 47 112 45 Q 119 41 130 46 Q 232 82 332 219 Q 335 225 340 230 C 390 294 336 310 322 284 Z" style="fill: #0070C0;"></path>
                                                                        <path d="M 379 215 Q 388 212 451 158 Q 461 151 471 151 Q 478 151 482 161 Q 485 171 478 191 Q 469 221 383 242 Q 380 243 379 242 C 349 242 352 229 379 215 Z" style="fill: #0070C0;"></path>
                                                                        <path d="M 573 379 Q 566 386 548 393 Q 539 397 529 394 Q 523 390 528 378 Q 529 371 533 363 Q 557 323 542 129 Q 539 105 532 76 Q 519 27 551 -11 Q 561 -23 570 -12 Q 579 3 581 26 L 583 54 Q 584 67 584 81 Q 584 118 584 150 L 585 174 Q 585 211 586 240 L 586 265 Q 587 332 589 339 Q 590 346 590 350 C 592 366 592 366 573 379 Z" style="fill: #0070C0;"></path>
                                                                        <path d="M 715 45 Q 745 8 766 -25 Q 775 -41 785 -41 Q 800 -40 813 -9 Q 829 25 825 67 Q 818 154 810 314 Q 809 342 823 362 Q 832 372 823 382 Q 807 400 760 421 Q 744 428 730 420 Q 693 404 573 379 C 544 373 560 345 590 350 Q 740 375 743 374 Q 744 373 747 371 Q 778 346 760 69 Q 756 56 746 57 C 723 37 708 54 715 45 Z" style="fill: #0070C0;"></path>
                                                                        <path d="M 586 240 Q 589 243 716 262 Q 737 266 729 277 Q 719 290 697 293 Q 670 296 586 265 C 558 255 557 231 586 240 Z" style="fill: #0070C0;"></path>
                                                                        <path d="M 584 150 Q 590 149 600 150 Q 670 157 722 162 Q 744 165 737 177 Q 727 190 703 196 Q 678 202 585 174 C 556 165 554 153 584 150 Z" style="fill: #0070C0;"></path>
                                                                        <path d="M 581 26 Q 654 39 715 45 C 745 48 749 48 746 57 Q 746 58 745 61 Q 735 74 713 79 Q 685 83 583 54 C 554 46 551 21 581 26 Z" style="fill: #0070C0;"></path>
                                    
                                    
                                                                                                                                                                                                                                                                                                                                                                                                                                                                                                                                                                                                                                                                                                                                                                                                                                                                                                                                                                                                                                                                                                                                                                                                                                                                                                                                                                                                                        </g>
                            </svg>