<svg width='83' height='83' >
                                <g transform="translate(3, 70) scale(0.07, -0.07)">
                                    <!-- 先将完整的字以灰色字体绘制完成，层级位于下面 -->
                                                                        <path d="M 510 768 Q 570 782 630 791 Q 657 798 668 802 Q 684 808 682 817 Q 678 829 649 838 Q 624 844 517 811 Q 390 794 378 793 Q 357 790 359 782 L 363 778 Q 390 749 474 762 L 510 768 Z" style="fill: #0070C0;"></path>
                                                                        <path d="M 276 674 Q 267 694 257 701 Q 247 709 242 702 Q 239 699 239 690 Q 243 668 221 633 L 204 608 L 194 594 Q 178 574 202 527 Q 218 508 231 529 L 278 649 C 282 660 282 660 276 674 Z" style="fill: #0070C0;"></path>
                                                                        <path d="M 486 707 Q 449 702 408 695 Q 321 679 280 675 Q 276 675 276 674 C 246 670 250 661 278 649 Q 292 640 308 639 Q 326 637 369 651 Q 436 672 488 676 L 533 684 Q 697 710 727 706 Q 731 706 735 705 Q 746 700 745 690 Q 745 684 731 657 Q 710 613 711 608 Q 713 606 715 606 Q 723 604 749 619 Q 796 647 833 655 Q 866 662 866 673 Q 866 684 798 735 Q 774 757 678 735 Q 593 727 536 713 L 486 707 Z" style="fill: #0070C0;"></path>
                                                                        <path d="M 488 676 Q 488 633 482 594 Q 476 548 476 545 Q 476 521 495 500 Q 502 490 512 500 Q 531 529 529 563 L 529 564 L 531 633 Q 532 650 533 665 L 533 684 L 536 713 L 539 730 Q 543 749 527 758 L 510 768 C 484 783 468 791 474 762 Q 474 759 476 753 Q 485 725 486 707 L 488 676 Z" style="fill: #0070C0;"></path>
                                                                        <path d="M 344 618 Q 347 608 374 594 Q 406 577 420 579 Q 431 582 431 598 Q 429 606 423 613 Q 406 634 363 629 L 349 628 Q 343 627 344 618 Z" style="fill: #0070C0;"></path>
                                                                        <path d="M 423 525 Q 422 539 408 551 Q 380 571 338 564 Q 331 564 332 554 Q 332 548 340 543 Q 418 481 423 525 Z" style="fill: #0070C0;"></path>
                                                                        <path d="M 593 639 Q 637 609 657 608 Q 670 608 671 625 Q 670 635 659 649 Q 640 664 600 662 Q 582 662 584 652 Q 586 645 593 639 Z" style="fill: #0070C0;"></path>
                                                                        <path d="M 584 566 Q 635 527 657 527 Q 666 529 668 545 Q 666 564 645 576 Q 617 589 583 587 Q 576 587 577 578 Q 577 571 584 566 Z" style="fill: #0070C0;"></path>
                                                                        <path d="M 251 457 Q 247 460 241 463 Q 219 474 207 472 Q 204 472 201 470 Q 193 465 199 455 L 201 452 Q 231 404 202 219 L 194 186 Q 176 124 128 33 Q 124 28 123 24 Q 122 18 125 17 Q 127 16 131 17 Q 155 25 203 108 Q 204 111 206 114 Q 228 167 242 221 L 248 248 L 256 312 L 259 342 Q 261 355 261 368 Q 268 429 270 432 C 272 445 272 445 251 457 Z" style="fill: #0070C0;"></path>
                                                                        <path d="M 270 432 L 276 435 L 323 448 Q 344 454 351 447 Q 359 439 359 416 Q 359 405 359 392 Q 368 125 351 92 Q 348 90 321 95 L 285 104 Q 281 104 278 104 Q 270 106 270 100 Q 284 88 296 78 Q 323 53 351 22 Q 357 14 367 12 Q 374 8 380 16 Q 410 52 412 114 Q 411 126 410 141 Q 392 400 413 437 Q 421 454 413 461 Q 404 468 390 476 Q 361 492 346 490 Q 340 488 329 482 Q 292 464 251 457 C 222 451 242 422 270 432 Z" style="fill: #0070C0;"></path>
                                                                        <path d="M 256 312 Q 300 319 331 324 Q 351 328 342 339 Q 323 359 280 349 L 259 342 C 231 333 226 307 256 312 Z" style="fill: #0070C0;"></path>
                                                                        <path d="M 242 221 L 334 233 L 340 233 Q 351 237 347 247 Q 339 256 327 260 Q 297 270 248 248 C 221 236 212 217 242 221 Z" style="fill: #0070C0;"></path>
                                                                        <path d="M 741 451 Q 735 476 697 496 Q 668 510 653 508 Q 650 508 648 506 Q 641 498 659 478 Q 686 444 719 423 Q 722 422 725 423 Q 741 425 741 451 Z" style="fill: #0070C0;"></path>
                                                                        <path d="M 713 312 Q 713 319 713 325 Q 715 339 726 367 Q 731 382 724 389 Q 708 404 672 417 Q 661 422 639 413 L 592 395 L 525 375 Q 515 374 517 369 Q 529 352 543 353 Q 580 359 592 363 L 637 374 Q 651 382 657.5 376 Q 664 370 664 351 Q 671 321 672 236 Q 674 112 659 93 Q 656 90 619 96 Q 562 104 559 101 Q 557 100 557 97 Q 615 59 655 25 Q 660 20 664 16 Q 684 -5 697 11 Q 731 55 730 106 Q 715 174 715 260 L 713 312 Z" style="fill: #0070C0;"></path>
                                                                        <path d="M 462 272 Q 455 273 453 270 L 449 265 Q 448 257 468 247 Q 500 231 519 235 L 525 237 L 551 247 Q 557 244 553 236 L 547 225 Q 525 186 435 145 Q 431 143 429 141 Q 421 135 429 133 Q 434 131 439 131 L 457 136 Q 518 147 555 167 Q 586 182 608 212 Q 622 233 629 239 Q 639 246 639 253 Q 639 266 599 284 Q 586 293 559 286 L 531 278 L 527 276 L 462 272 Z" style="fill: #0070C0;"></path>
                                                                        <path d="M 760 227 L 870 303 Q 877 309 885 314 L 914 331 Q 929 340 925 351 Q 922 361 900 376 Q 866 401 849 398 Q 835 398 839 382 Q 845 359 796 299 L 750 247 C 730 225 735 210 760 227 Z" style="fill: #0070C0;"></path>
                                                                        <path d="M 856 41 Q 988 53 994 66 Q 994 70 980 76 Q 890 114 813 155 L 760 227 L 750 247 L 713 312 C 698 338 703 287 715 260 L 808 56 Q 827 40 853 41 L 856 41 Z" style="fill: #0070C0;"></path>
                                    
                                    
                                                                                                                                                                                                                                                                                                                                                                                                                                                                                                                                                                                                                                                                                                                                                                                                                                                                                                                                                                                                                                                                                                                                                                                                                                                                                                                                                                                                                        </g>
                            </svg>