<svg width='83' height='83' >
                                <g transform="translate(3, 70) scale(0.07, -0.07)">
                                    <!-- 先将完整的字以灰色字体绘制完成，层级位于下面 -->
                                                                        <path d="M 539 701 Q 701 734 706 737 Q 715 744 710 752 Q 704 764 676 772 Q 648 779 618 769 Q 581 759 543 748 L 481 735 Q 415 725 343 719 Q 307 715 332 698 Q 368 671 425 683 Q 453 687 484 692 L 539 701 Z" style="fill: #0070C0;"></path>
                                                                        <path d="M 533 593 Q 567 602 672 614 Q 681 613 689 624 Q 690 634 670 644 Q 642 665 540 633 Q 537 633 535 632 L 486 621 Q 441 615 348 602 Q 323 598 342 583 Q 373 562 408 569 Q 442 578 487 584 L 533 593 Z" style="fill: #0070C0;"></path>
                                                                        <path d="M 528 506 Q 531 551 533 593 L 535 632 Q 536 668 539 701 L 543 748 Q 544 763 547 773 Q 551 789 554 800 Q 558 810 538 825 Q 504 843 480 847 Q 464 850 456 841 Q 449 834 457 819 Q 478 791 479 772 Q 480 754 481 735 L 484 692 Q 485 658 486 621 L 487 584 Q 487 544 487 500 C 487 470 526 476 528 506 Z" style="fill: #0070C0;"></path>
                                                                        <path d="M 487 500 Q 367 487 306 475 Q 236 462 129 458 Q 116 458 115 447 Q 115 435 133 421 Q 178 394 209 405 Q 240 418 402 449 Q 456 459 517 466 Q 572 472 624 479 Q 780 500 911 488 Q 933 487 940 495 Q 947 508 935 519 Q 869 576 806 554 Q 745 541 681 529 Q 587 516 528 506 L 487 500 Z" style="fill: #0070C0;"></path>
                                                                        <path d="M 391 177 Q 392 217 397 247 L 400 274 Q 404 328 408 346 Q 408 350 408 353 C 410 370 410 370 396 381 Q 378 399 347 399 Q 334 395 339 383 Q 381 289 330 109 Q 297 40 328 -2 Q 334 -15 344 -10 Q 377 11 387 121 Q 388 137 389 151 L 391 177 Z" style="fill: #0070C0;"></path>
                                                                        <path d="M 408 353 Q 420 354 437 359 Q 570 387 592 377 Q 605 373 609 346 Q 625 184 620 58 Q 619 33 605 27 Q 593 23 534 38 Q 521 41 522 32 Q 523 25 539 15 Q 576 -16 605 -50 Q 621 -66 638 -65 Q 654 -61 672 -15 Q 696 31 691 79 Q 681 193 670 296 Q 666 338 682 371 Q 695 387 679 402 Q 660 418 620 431 Q 598 441 579 429 Q 560 422 525 410 Q 438 389 396 381 C 367 375 379 347 408 353 Z" style="fill: #0070C0;"></path>
                                                                        <path d="M 397 247 Q 418 241 541 261 Q 542 262 547 262 Q 568 266 571 269 Q 578 276 574 283 Q 568 292 545 298 Q 532 301 448 281 Q 426 277 400 274 C 370 270 367 252 397 247 Z" style="fill: #0070C0;"></path>
                                                                        <path d="M 389 151 Q 419 147 505 155 Q 527 159 551 162 Q 575 166 578 169 Q 585 176 582 182 Q 576 192 553 199 Q 529 205 505 196 Q 480 189 451 184 Q 423 180 391 177 C 361 174 359 154 389 151 Z" style="fill: #0070C0;"></path>
                                    
                                    
                                                                                                                                                                                                                                                                                                                                                                                                                                                                                                                                                                                                                                                                                                            </g>
                            </svg>