<svg width='83' height='83' >
                                <g transform="translate(3, 70) scale(0.07, -0.07)">
                                    <!-- 先将完整的字以灰色字体绘制完成，层级位于下面 -->
                                                                        <path d="M 358 638 Q 484 668 487 670 Q 494 677 491 685 Q 484 695 458 702 Q 431 708 368 685 L 314 670 Q 266 660 212 654 Q 178 648 203 633 Q 248 609 308 628 Q 309 628 311 628 L 358 638 Z" style="fill: #0070C0;"></path>
                                                                        <path d="M 343 568 Q 350 604 358 638 L 368 685 Q 372 724 392 769 Q 396 778 381 793 Q 353 812 331 819 Q 318 823 310 817 Q 303 811 308 797 Q 321 775 320 761 Q 319 718 314 670 L 311 628 Q 307 595 303 559 C 300 529 337 539 343 568 Z" style="fill: #0070C0;"></path>
                                                                        <path d="M 208 535 Q 198 539 175 545 Q 165 548 161 543 Q 155 539 162 524 Q 186 470 198 383 Q 199 356 214 339 Q 229 318 234 333 Q 237 340 238 352 L 238 373 Q 237 380 237 389 Q 234 411 231 429 L 228 453 Q 224 489 222 505 C 219 531 219 531 208 535 Z" style="fill: #0070C0;"></path>
                                                                        <path d="M 374 372 Q 387 353 401 346 Q 411 339 424 358 Q 434 376 458 472 Q 465 500 485 522 Q 495 532 486 545 Q 473 560 434 582 Q 421 588 359 573 L 343 568 L 303 559 Q 240 546 208 535 C 179 526 194 496 222 505 Q 277 524 374 542 Q 396 546 403 540 Q 412 528 411 517 Q 396 426 388 411 Q 384 401 374 397 C 362 388 362 388 374 372 Z" style="fill: #0070C0;"></path>
                                                                        <path d="M 231 429 Q 234 429 238 429 Q 302 442 349 450 Q 370 454 361 465 Q 351 478 329 481 Q 305 482 228 453 C 200 442 201 429 231 429 Z" style="fill: #0070C0;"></path>
                                                                        <path d="M 324 364 Q 349 370 374 372 C 404 375 402 385 374 397 Q 368 400 361 401 Q 333 404 238 373 C 209 364 208 352 238 352 Q 242 352 247 352 Q 269 356 292 359 L 324 364 Z" style="fill: #0070C0;"></path>
                                                                        <path d="M 345 248 Q 382 258 431 268 Q 447 271 447 278 Q 447 291 429 298 Q 405 307 347 291 L 298 277 Q 163 244 118 237 Q 106 236 104 227 Q 101 217 116 207 Q 155 185 193 198 Q 251 223 296 235 L 345 248 Z" style="fill: #0070C0;"></path>
                                                                        <path d="M 296 235 Q 296 151 283 118 Q 270 69 318 19 L 319 18 Q 329 17 334 28 Q 346 56 344 83 Q 343 173 345 248 L 347 291 Q 350 346 341 351 Q 332 360 324 364 C 299 381 283 387 292 359 Q 301 341 298 277 L 296 235 Z" style="fill: #0070C0;"></path>
                                                                        <path d="M 674 588 Q 809 622 812 625 Q 819 632 815 641 Q 808 651 780 658 Q 750 662 722 651 Q 697 642 674 634 L 629 621 Q 581 611 528 604 Q 494 597 519 582 Q 558 558 616 575 Q 620 576 628 577 L 674 588 Z" style="fill: #0070C0;"></path>
                                                                        <path d="M 672 460 Q 798 493 800 494 Q 807 501 803 509 Q 796 519 769 526 Q 742 530 673 504 L 626 491 Q 580 481 527 474 Q 494 468 518 453 Q 549 438 625 449 L 672 460 Z" style="fill: #0070C0;"></path>
                                                                        <path d="M 672 350 Q 811 378 830 364 Q 837 358 836 345 Q 823 251 815 239 Q 808 227 795 232 Q 765 239 734 246 Q 709 250 727 232 Q 785 183 809 147 Q 815 137 825 141 Q 852 159 880 282 Q 887 319 903 335 Q 918 354 912 363 Q 905 376 855 407 Q 837 420 823 414 Q 795 404 744 396 Q 704 390 672 383 L 623 374 Q 575 367 551 358 Q 511 348 480 343 Q 458 339 455 330 Q 454 323 470 314 Q 501 295 532 308 Q 563 323 622 337 L 672 350 Z" style="fill: #0070C0;"></path>
                                                                        <path d="M 672 383 Q 672 417 672 460 L 673 504 Q 673 544 674 588 L 674 634 Q 674 715 689 794 Q 693 812 678 821 Q 644 843 629 846 Q 616 850 600 842 Q 591 833 599 823 Q 624 765 628 746 Q 628 685 629 621 L 628 577 Q 627 537 626 491 L 625 449 Q 624 413 623 374 L 622 337 Q 610 6 634 -25 Q 640 -32 647 -30 Q 660 -21 669 39 Q 679 145 676 249 Q 673 283 672 350 L 672 383 Z" style="fill: #0070C0;"></path>
                                    
                                    
                                                                                                                                                                                                                                                                                                                                                                                                                                                                                                                                                                                                                                                                                                                                                                                                                                                                                                                                                                                                                            </g>
                            </svg>