<svg width='83' height='83' >
                                <g transform="translate(3, 70) scale(0.07, -0.07)">
                                    <!-- 先将完整的字以灰色字体绘制完成，层级位于下面 -->
                                                                        <path d="M 477 795 Q 502 776 527 752 Q 542 740 558 742 Q 568 743 573 756 Q 577 772 566 801 Q 554 831 470 843 Q 454 846 448 843 Q 444 839 445 826 Q 449 816 477 795 Z" style="fill: #0070C0;"></path>
                                                                        <path d="M 636 659 Q 648 662 664 664 Q 724 676 733 683 Q 743 690 739 700 Q 732 712 702 721 Q 675 727 566 697 Q 422 667 320 661 Q 283 657 308 638 Q 353 611 407 622 Q 495 637 589 651 L 636 659 Z" style="fill: #0070C0;"></path>
                                                                        <path d="M 357 544 Q 384 490 407 474 Q 417 470 428 478 Q 435 487 437 500 Q 434 536 375 572 Q 363 579 354 578 Q 350 578 349 568 Q 348 558 357 544 Z" style="fill: #0070C0;"></path>
                                                                        <path d="M 570 471 Q 612 540 625 567 Q 635 588 654 613 Q 667 625 660 635 Q 653 647 636 659 C 612 677 584 681 589 651 Q 598 618 544 487 Q 540 477 537 466 C 529 437 554 445 570 471 Z" style="fill: #0070C0;"></path>
                                                                        <path d="M 537 466 Q 524 466 511 463 Q 333 441 122 416 Q 98 415 116 395 Q 152 362 192 372 Q 444 441 912 442 Q 934 442 939 452 Q 946 465 927 480 Q 861 529 800 509 Q 706 491 570 471 L 537 466 Z" style="fill: #0070C0;"></path>
                                                                        <path d="M 385 329 Q 367 347 335 344 Q 322 340 328 328 Q 373 243 338 87 Q 313 23 347 -16 Q 354 -29 364 -23 Q 371 -16 379 3 L 389 35 Q 395 68 396 159 L 396 188 Q 397 273 399 296 C 400 317 400 317 385 329 Z" style="fill: #0070C0;"></path>
                                                                        <path d="M 563 16 Q 591 -21 612 -55 Q 622 -74 632 -73 Q 648 -72 665 -38 Q 683 -1 680 46 Q 673 122 667 261 Q 666 292 682 314 Q 692 327 682 337 Q 664 356 612 380 Q 594 389 579 380 Q 513 350 385 329 C 355 324 370 290 399 296 Q 582 332 592 329 Q 595 328 599 325 Q 626 298 608 50 Q 604 37 594 37 C 573 16 559 22 563 16 Z" style="fill: #0070C0;"></path>
                                                                        <path d="M 396 159 Q 400 159 405 159 Q 487 171 550 178 Q 574 182 565 196 Q 555 212 527 216 Q 500 220 396 188 C 367 179 366 159 396 159 Z" style="fill: #0070C0;"></path>
                                                                        <path d="M 379 3 Q 389 -1 403 2 Q 455 12 563 16 C 593 17 614 18 594 37 Q 587 44 570 57 Q 554 66 523 59 Q 450 44 389 35 C 359 31 350 11 379 3 Z" style="fill: #0070C0;"></path>
                                    
                                    
                                                                                                                                                                                                                                                                                                                                                                                                                                                                                                                                                                                                                                                                                                                                                                                        </g>
                            </svg>