<svg width='83' height='83' >
                                <g transform="translate(3, 70) scale(0.07, -0.07)">
                                    <!-- 先将完整的字以灰色字体绘制完成，层级位于下面 -->
                                                                        <path d="M 245 649 Q 335 685 370 705 Q 409 727 443 738 Q 459 741 461 748 Q 464 758 451 767 Q 394 800 361 792 Q 355 788 356 778 Q 357 751 240 668 C 216 651 217 638 245 649 Z" style="fill: #0070C0;"></path>
                                                                        <path d="M 241 533 Q 241 617 245 649 C 246 665 246 665 240 668 Q 236 672 230 674 Q 184 693 171 691 Q 153 687 168 667 Q 202 619 188 420 Q 181 369 159 307 Q 140 253 61 165 Q 49 153 46 147 Q 45 140 56 141 Q 92 144 153 215 Q 232 314 240 498 L 241 533 Z" style="fill: #0070C0;"></path>
                                                                        <path d="M 373 524 Q 433 537 490 547 Q 503 550 503 556 Q 503 568 480 581 Q 438 603 394 578 Q 348 560 310 550 Q 276 543 241 533 C 212 525 210 495 240 498 Q 250 499 264 500 Q 298 507 328 513 L 373 524 Z" style="fill: #0070C0;"></path>
                                                                        <path d="M 353 117 Q 357 95 363 86 Q 367 80 374 82 Q 386 91 393 142 Q 399 190 398 237 Q 392 376 408 485 Q 411 501 399 509 Q 384 519 373 524 C 346 538 313 539 328 513 Q 344 489 347 463 Q 350 373 349 234 Q 349 146 353 117 Z" style="fill: #0070C0;"></path>
                                                                        <path d="M 695 721 Q 881 760 886 763 Q 896 770 891 780 Q 884 792 854 800 Q 827 806 711 772 Q 581 750 539 745 Q 502 741 528 722 Q 567 698 640 712 Q 646 713 655 714 L 695 721 Z" style="fill: #0070C0;"></path>
                                                                        <path d="M 633 588 Q 648 604 686 653 Q 693 665 708 678 Q 721 687 715 697 Q 709 709 695 721 C 673 741 657 744 655 714 Q 655 689 620 613 Q 611 597 609 586 Q 608 585 608 584 C 599 555 613 566 633 588 Z" style="fill: #0070C0;"></path>
                                                                        <path d="M 582 582 Q 566 595 545 600 Q 538 601 531 594 Q 528 590 535 579 Q 571 492 545 335 Q 530 278 534 259 Q 543 228 553 216 Q 563 203 573 216 Q 597 244 598 392 Q 601 473 604 555 C 604 566 604 566 582 582 Z" style="fill: #0070C0;"></path>
                                                                        <path d="M 781 288 Q 774 266 788 245 Q 801 217 810 218 Q 823 219 839 251 Q 852 276 851 296 Q 823 504 860 561 Q 870 579 851 595 Q 826 613 790 628 Q 777 634 682 599 Q 652 593 633 588 L 608 584 Q 595 584 582 582 C 552 579 574 550 604 555 Q 605 555 691 571 Q 757 587 771 578 Q 781 556 786 498 Q 790 323 781 288 Z" style="fill: #0070C0;"></path>
                                                                        <path d="M 665 435 Q 674 200 590 109 Q 586 106 582 101 Q 554 73 492 34 Q 480 30 478 25 Q 474 21 488 19 Q 524 15 607 71 Q 712 143 714 368 Q 714 419 728 464 Q 732 474 725 481 Q 709 494 676 507 Q 657 516 642 510 Q 624 503 639 488 Q 664 463 665 435 Z" style="fill: #0070C0;"></path>
                                                                        <path d="M 743 142 Q 788 96 841 32 Q 854 11 869 7 Q 878 6 885 14 Q 898 27 887 68 Q 881 107 813 141 Q 770 162 746 171 Q 737 177 735 165 Q 734 152 743 142 Z" style="fill: #0070C0;"></path>
                                    
                                    
                                                                                                                                                                                                                                                                                                                                                                                                                                                                                                                                                                                                                                                                                                                                                                                                                                                                    </g>
                            </svg>