<svg width='83' height='83' >
                                <g transform="translate(3, 70) scale(0.07, -0.07)">
                                    <!-- 先将完整的字以灰色字体绘制完成，层级位于下面 -->
                                                                        <path d="M 342 662 Q 358 690 377 706 Q 386 716 381 729 Q 377 742 350 764 Q 325 782 307 781 Q 288 780 296 759 Q 311 725 297 697 Q 257 603 196 517 Q 138 433 59 342 Q 49 332 47 326 Q 43 316 57 317 Q 126 338 298 589 Q 317 623 330 642 L 342 662 Z" style="fill: #0070C0;"></path>
                                                                        <path d="M 330 642 Q 379 605 439 547 Q 452 534 465 531 Q 471 530 477 538 Q 484 548 473 582 Q 461 622 342 662 C 314 672 306 660 330 642 Z" style="fill: #0070C0;"></path>
                                                                        <path d="M 230 453 Q 196 444 222 430 Q 267 411 317 427 Q 357 437 399 448 Q 418 454 421 457 Q 428 464 424 473 Q 417 483 387 489 Q 363 492 289 465 Q 262 458 230 453 Z" style="fill: #0070C0;"></path>
                                                                        <path d="M 224 325 Q 212 331 177 336 Q 165 339 163 333 Q 157 327 165 313 Q 196 253 215 155 Q 219 125 236 106 Q 254 87 258 101 Q 264 119 260 148 L 253 182 Q 237 261 232 292 C 227 322 227 324 224 325 Z" style="fill: #0070C0;"></path>
                                                                        <path d="M 418 207 Q 440 273 470 295 Q 486 314 472 330 Q 456 343 405 367 Q 387 374 367 366 Q 313 342 224 325 C 195 319 203 286 232 292 Q 322 310 359 317 Q 372 320 378 314 Q 388 305 385 287 Q 378 247 369 211 C 362 182 408 179 418 207 Z" style="fill: #0070C0;"></path>
                                                                        <path d="M 260 148 Q 329 169 401 170 L 404 169 L 407 169 Q 419 173 433 173 Q 443 174 444 184 Q 444 191 418 207 L 369 211 Q 368 211 367 211 Q 303 193 253 182 C 224 175 231 139 260 148 Z" style="fill: #0070C0;"></path>
                                                                        <path d="M 676 692 Q 877 728 886 735 Q 895 742 891 752 Q 884 764 854 773 Q 833 779 725 750 Q 632 728 535 721 Q 498 717 524 698 Q 563 671 623 684 Q 624 685 631 685 L 676 692 Z" style="fill: #0070C0;"></path>
                                                                        <path d="M 622 564 Q 671 630 689 646 Q 702 656 696 667 Q 692 679 676 692 C 653 711 633 715 631 685 Q 631 658 600 584 Q 593 571 590 560 C 581 531 604 540 622 564 Z" style="fill: #0070C0;"></path>
                                                                        <path d="M 570 558 Q 551 574 527 580 Q 518 581 513 574 Q 510 570 517 560 Q 553 478 525 324 Q 513 294 519 268 Q 528 238 538 227 Q 548 215 557 228 Q 578 258 579 411 Q 579 502 582 530 C 583 548 583 548 570 558 Z" style="fill: #0070C0;"></path>
                                                                        <path d="M 784 284 Q 777 262 791 240 Q 804 213 814 214 Q 827 215 842 248 Q 855 273 854 293 Q 823 479 857 538 Q 867 556 847 572 Q 822 590 787 605 Q 771 609 749 602 Q 700 580 622 564 L 590 560 Q 580 560 570 558 C 540 555 552 527 582 530 Q 589 530 598 531 Q 748 565 767 554 Q 777 533 783 479 Q 792 316 784 284 Z" style="fill: #0070C0;"></path>
                                                                        <path d="M 653 408 Q 665 204 597 128 Q 585 116 569 103 Q 538 78 466 44 Q 453 40 450 37 Q 446 33 460 29 Q 535 23 633 95 Q 642 104 651 114 Q 700 177 705 337 Q 709 412 718 439 Q 722 449 714 456 Q 696 471 663 483 Q 644 492 628 486 Q 610 479 625 462 Q 652 437 653 408 Z" style="fill: #0070C0;"></path>
                                                                        <path d="M 737 163 Q 786 105 843 21 Q 856 -1 872 -8 Q 879 -11 889 -2 Q 904 10 897 56 Q 893 114 747 192 Q 744 193 743 194 Q 734 201 731 188 Q 728 175 737 163 Z" style="fill: #0070C0;"></path>
                                    
                                    
                                                                                                                                                                                                                                                                                                                                                                                                                                                                                                                                                                                                                                                                                                                                                                                                                                                                                                                                                                                                                            </g>
                            </svg>