<svg width='83' height='83' >
                                <g transform="translate(3, 70) scale(0.07, -0.07)">
                                    <!-- 先将完整的字以灰色字体绘制完成，层级位于下面 -->
                                                                        <path d="M 257 611 Q 320 632 409 670 Q 428 677 449 681 Q 468 684 464 701 Q 457 717 439 735 Q 423 751 412 752 Q 402 753 402 742 Q 399 717 257 629 C 232 613 229 601 257 611 Z" style="fill: #0070C0;"></path>
                                                                        <path d="M 257 629 Q 257 686 270 721 Q 279 745 264 757 Q 224 785 213 782 Q 201 778 207 764 Q 223 736 221 693 Q 220 579 228 556 Q 234 534 250 522 Q 266 510 304 504 Q 421 491 473 515 Q 495 528 485 551 Q 472 581 461 634 Q 460 646 453 650 Q 446 654 444 638 Q 434 574 423 562 Q 407 543 338 539 Q 301 538 283 544 Q 259 557 257 611 L 257 629 Z" style="fill: #0070C0;"></path>
                                                                        <path d="M 364 336 Q 364 393 375 423 Q 384 439 368 452 Q 346 471 319 481 Q 303 487 295 480 Q 289 474 299 460 Q 318 426 317 387 Q 323 138 301 120 Q 291 114 221 131 Q 211 132 211 127 Q 212 120 221 113 Q 285 58 307 24 Q 320 8 334 21 Q 367 51 366 116 Q 365 144 364 309 L 364 336 Z" style="fill: #0070C0;"></path>
                                                                        <path d="M 97 350 Q 87 349 87 343 Q 86 337 98 332 Q 135 314 156 324 Q 207 345 212 345 Q 224 344 217 321 Q 184 222 154 175 Q 123 123 68 68 Q 58 56 65 56 Q 74 55 88 65 Q 196 132 272 323 Q 279 342 287 351 Q 297 361 291 368 Q 282 378 252 386 Q 233 393 218 384 Q 203 375 176 366 Q 145 357 97 350 Z" style="fill: #0070C0;"></path>
                                                                        <path d="M 403 320 Q 461 374 489 395 Q 502 401 498 409 Q 491 421 474 433 Q 456 445 438 444 Q 428 443 430 427 Q 436 412 390 327 Q 389 327 389 326 C 373 301 381 300 403 320 Z" style="fill: #0070C0;"></path>
                                                                        <path d="M 389 326 Q 374 332 364 336 C 336 347 341 328 364 309 Q 407 275 461 223 Q 474 210 485 207 Q 492 206 496 214 Q 505 224 494 255 Q 482 294 403 320 L 389 326 Z" style="fill: #0070C0;"></path>
                                                                        <path d="M 676 692 Q 877 728 886 735 Q 895 742 891 752 Q 884 764 854 773 Q 833 779 725 750 Q 632 728 535 721 Q 498 717 524 698 Q 563 671 623 684 Q 624 685 631 685 L 676 692 Z" style="fill: #0070C0;"></path>
                                                                        <path d="M 622 564 Q 671 630 689 646 Q 702 656 696 667 Q 692 679 676 692 C 653 711 633 715 631 685 Q 631 658 600 584 Q 593 571 590 560 C 581 531 604 540 622 564 Z" style="fill: #0070C0;"></path>
                                                                        <path d="M 570 558 Q 551 574 527 580 Q 518 581 513 574 Q 510 570 517 560 Q 553 478 525 324 Q 513 294 519 268 Q 528 238 538 227 Q 548 215 557 228 Q 578 258 579 411 Q 579 502 582 530 C 583 548 583 548 570 558 Z" style="fill: #0070C0;"></path>
                                                                        <path d="M 784 284 Q 777 262 791 240 Q 804 213 814 214 Q 827 215 842 248 Q 855 273 854 293 Q 823 479 857 538 Q 867 556 847 572 Q 822 590 787 605 Q 771 609 749 602 Q 700 580 622 564 L 590 560 Q 580 560 570 558 C 540 555 552 527 582 530 Q 589 530 598 531 Q 748 565 767 554 Q 777 533 783 479 Q 792 316 784 284 Z" style="fill: #0070C0;"></path>
                                                                        <path d="M 653 408 Q 665 204 597 128 Q 585 116 569 103 Q 538 78 466 44 Q 453 40 450 37 Q 446 33 460 29 Q 535 23 633 95 Q 642 104 651 114 Q 700 177 705 337 Q 709 412 718 439 Q 722 449 714 456 Q 696 471 663 483 Q 644 492 628 486 Q 610 479 625 462 Q 652 437 653 408 Z" style="fill: #0070C0;"></path>
                                                                        <path d="M 737 163 Q 786 105 843 21 Q 856 -1 872 -8 Q 879 -11 889 -2 Q 904 10 897 56 Q 893 114 747 192 Q 744 193 743 194 Q 734 201 731 188 Q 728 175 737 163 Z" style="fill: #0070C0;"></path>
                                    
                                    
                                                                                                                                                                                                                                                                                                                                                                                                                                                                                                                                                                                                                                                                                                                                                                                                                                                                                                                                                                                                                            </g>
                            </svg>