<svg width='83' height='83' >
                                <g transform="translate(3, 70) scale(0.07, -0.07)">
                                    <!-- 先将完整的字以灰色字体绘制完成，层级位于下面 -->
                                                                        <path d="M 260 674 Q 350 701 385 720 Q 421 736 452 744 Q 465 745 468 751 Q 471 760 461 769 Q 413 802 384 797 Q 378 794 378 785 Q 378 760 261 693 C 235 678 231 665 260 674 Z" style="fill: #0070C0;"></path>
                                                                        <path d="M 261 693 Q 262 729 271 770 Q 275 786 264 795 Q 252 807 231 814 Q 219 818 212 813 Q 206 810 211 794 Q 223 758 221 725 Q 215 602 253 573 Q 266 567 289 560 Q 400 536 489 595 Q 502 604 494 621 Q 487 637 477 690 Q 478 702 473 705 Q 469 708 464 696 Q 439 641 425 625 Q 416 615 392 608 Q 335 593 290 608 Q 272 615 268 625 Q 259 643 260 674 L 261 693 Z" style="fill: #0070C0;"></path>
                                                                        <path d="M 312 449 Q 363 471 406 480 Q 419 480 423 487 Q 426 494 416 504 Q 400 517 364 532 Q 351 538 341 537 Q 335 534 334 525 Q 334 492 185 426 Q 181 419 185 416 Q 204 416 263 434 Q 272 437 289 438 L 312 449 Z" style="fill: #0070C0;"></path>
                                                                        <path d="M 341 328 Q 387 338 446 348 Q 462 351 462 358 Q 463 370 446 378 Q 415 390 343 369 L 298 358 Q 159 328 100 321 Q 88 320 85 312 Q 82 302 97 291 Q 136 267 195 288 Q 238 304 273 312 L 341 328 Z" style="fill: #0070C0;"></path>
                                                                        <path d="M 296 261 Q 292 129 278 98 Q 269 64 298 19 Q 308 1 315 -2 Q 325 -3 330 8 Q 342 36 339 63 Q 336 282 341 328 L 343 369 Q 344 394 348 409 Q 349 419 344 426 Q 326 441 312 449 C 287 465 279 466 289 438 Q 298 423 298 358 L 296 261 Z" style="fill: #0070C0;"></path>
                                                                        <path d="M 273 312 Q 222 201 71 85 Q 61 75 68 73 Q 75 69 86 74 Q 183 113 289 252 Q 292 258 296 261 C 346 323 288 343 273 312 Z" style="fill: #0070C0;"></path>
                                                                        <path d="M 375 233 Q 430 170 441 168 Q 448 168 454 177 Q 458 187 455 209 Q 451 234 376 268 Q 366 272 360 270 Q 356 269 356 259 Q 357 250 375 233 Z" style="fill: #0070C0;"></path>
                                                                        <path d="M 621 703 Q 856 754 863 758 Q 870 765 867 773 Q 860 783 834 791 Q 807 797 715 766 Q 622 742 537 734 Q 503 728 527 713 Q 552 697 592 699 L 621 703 Z" style="fill: #0070C0;"></path>
                                                                        <path d="M 592 563 Q 604 576 637 629 Q 643 639 653 651 Q 666 661 658 670 Q 651 685 624 701 Q 623 702 621 703 C 596 719 589 723 592 699 Q 591 696 594 691 Q 603 670 579 590 Q 573 575 572 560 C 570 537 573 540 592 563 Z" style="fill: #0070C0;"></path>
                                                                        <path d="M 548 558 Q 532 571 511 577 Q 502 578 497 571 Q 494 565 501 556 Q 538 469 508 303 Q 495 258 499 240 Q 508 210 518 199 Q 528 187 537 200 Q 558 230 560 325 Q 560 490 567 532 C 569 543 569 543 548 558 Z" style="fill: #0070C0;"></path>
                                                                        <path d="M 749 260 Q 742 238 755 217 Q 768 189 778 190 Q 791 191 806 223 Q 819 248 819 268 Q 806 349 806 474 Q 805 510 825 541 Q 834 557 827 565 Q 800 587 756 606 Q 741 610 719 603 Q 683 585 592 563 L 572 560 Q 559 559 548 558 C 518 555 538 526 567 532 Q 571 532 652 550 Q 721 568 736 558 Q 746 536 752 476 Q 758 295 749 260 Z" style="fill: #0070C0;"></path>
                                                                        <path d="M 629 395 Q 633 167 561 85 Q 548 73 533 60 Q 502 33 429 0 Q 417 -4 414 -7 Q 410 -11 423 -15 Q 436 -16 481 -4 Q 512 3 559 28 Q 595 47 616 74 Q 668 144 676 314 Q 680 390 692 423 Q 696 433 688 440 Q 672 455 640 467 Q 621 476 606 470 Q 588 463 603 448 Q 628 423 629 395 Z" style="fill: #0070C0;"></path>
                                                                        <path d="M 699 134 Q 748 85 805 16 Q 818 -5 833 -9 Q 842 -10 849 -2 Q 862 11 851 52 Q 845 91 774 128 Q 728 153 702 163 Q 693 169 691 157 Q 690 144 699 134 Z" style="fill: #0070C0;"></path>
                                    
                                    
                                                                                                                                                                                                                                                                                                                                                                                                                                                                                                                                                                                                                                                                                                                                                                                                                                                                                                                                                                                                                                                                                                        </g>
                            </svg>