<svg width='83' height='83' >
                                <g transform="translate(3, 70) scale(0.07, -0.07)">
                                    <!-- 先将完整的字以灰色字体绘制完成，层级位于下面 -->
                                                                        <path d="M 258 748 Q 248 752 226 757 Q 214 761 211 756 Q 204 750 212 735 Q 237 675 248 580 Q 249 552 265 532 Q 281 510 287 525 Q 288 529 290 535 L 292 560 Q 286 621 284 629 L 282 651 Q 276 702 276 719 C 275 742 275 742 258 748 Z" style="fill: #0070C0;"></path>
                                                                        <path d="M 401 552 Q 419 528 433 522 Q 443 515 455 535 Q 468 559 489 685 Q 496 713 515 736 Q 525 746 515 759 Q 500 772 462 794 Q 447 800 390 783 Q 371 783 258 748 C 229 739 248 710 276 719 Q 322 735 406 753 Q 425 757 431 750 Q 444 737 442 723 Q 427 605 418 586 Q 415 576 404 572 C 392 563 392 563 401 552 Z" style="fill: #0070C0;"></path>
                                                                        <path d="M 284 629 Q 285 629 290 629 Q 345 638 385 644 Q 404 648 397 658 Q 388 670 367 673 Q 337 676 282 651 C 255 639 254 629 284 629 Z" style="fill: #0070C0;"></path>
                                                                        <path d="M 290 535 Q 296 534 303 536 Q 334 545 401 552 C 421 554 421 554 404 572 Q 401 576 393 580 Q 381 586 359 579 Q 322 567 292 560 C 263 553 260 537 290 535 Z" style="fill: #0070C0;"></path>
                                                                        <path d="M 357 447 Q 421 459 505 467 Q 520 468 521 474 Q 522 486 506 495 Q 482 507 462 502 Q 234 460 121 450 Q 111 450 107 443 Q 103 433 117 423 Q 148 398 208 413 Q 268 431 316 439 L 357 447 Z" style="fill: #0070C0;"></path>
                                                                        <path d="M 368 196 Q 369 257 373 309 L 374 332 Q 375 360 377 385 Q 381 428 362 444 Q 359 445 357 447 C 332 464 308 468 316 439 Q 325 418 328 219 C 328 189 367 166 368 196 Z" style="fill: #0070C0;"></path>
                                                                        <path d="M 373 309 Q 377 309 487 319 Q 509 323 501 336 Q 491 351 465 355 Q 423 361 374 332 C 348 317 343 307 373 309 Z" style="fill: #0070C0;"></path>
                                                                        <path d="M 236 277 Q 261 326 268 332 Q 275 336 272 346 Q 271 353 258 363 Q 231 384 200 379 Q 193 376 196 366 Q 215 311 132 191 Q 110 160 52 94 Q 45 90 55 88 Q 133 112 221 251 L 236 277 Z" style="fill: #0070C0;"></path>
                                                                        <path d="M 221 251 Q 372 134 542 51 Q 653 -18 724 -1 Q 791 17 864 41 Q 894 51 901 62 Q 905 74 887 73 Q 796 79 739 77 Q 586 77 368 196 L 328 219 Q 282 247 236 277 C 211 293 197 269 221 251 Z" style="fill: #0070C0;"></path>
                                                                        <path d="M 659 714 Q 659 715 660 715 Q 858 757 867 762 Q 874 769 871 777 Q 864 787 838 795 Q 813 799 718 769 Q 631 751 580 746 Q 547 740 571 725 Q 601 709 630 711 C 650 711 650 711 659 714 Z" style="fill: #0070C0;"></path>
                                                                        <path d="M 635 601 Q 654 625 671 648 Q 677 655 686 664 Q 699 674 692 683 Q 685 696 661 714 Q 660 715 659 714 C 631 724 624 727 630 711 Q 630 710 632 706 Q 639 687 617 620 Q 611 608 609 598 C 602 569 616 577 635 601 Z" style="fill: #0070C0;"></path>
                                                                        <path d="M 605 598 Q 599 610 562 621 Q 555 622 550 615 Q 549 611 554 603 Q 587 527 562 400 Q 553 382 559 357 Q 566 332 576 322 Q 585 312 592 323 Q 608 341 609 464 Q 609 555 610 573 L 605 598 Z" style="fill: #0070C0;"></path>
                                                                        <path d="M 781 365 Q 775 346 786 327 Q 798 302 806 303 Q 819 304 832 331 Q 845 353 844 371 Q 825 539 855 584 Q 864 597 857 606 Q 833 627 791 644 Q 778 648 758 641 Q 715 620 635 601 L 609 598 Q 606 598 605 598 C 575 595 580 568 610 573 Q 616 573 697 591 Q 761 609 776 600 Q 783 582 787 535 Q 788 393 781 365 Z" style="fill: #0070C0;"></path>
                                                                        <path d="M 672 485 Q 672 320 620 251 Q 611 244 602 234 Q 560 207 518 177 Q 514 173 526 170 Q 590 170 659 238 Q 660 242 663 244 Q 702 296 713 427 Q 717 484 726 508 Q 730 517 723 523 Q 710 536 682 547 Q 666 554 653 550 Q 638 544 650 530 Q 672 508 672 485 Z" style="fill: #0070C0;"></path>
                                                                        <path d="M 733 262 Q 778 216 832 149 Q 844 133 855 128 Q 862 127 869 134 Q 879 144 872 180 Q 863 228 738 286 Q 737 287 735 287 Q 728 291 726 281 Q 725 271 733 262 Z" style="fill: #0070C0;"></path>
                                    
                                    
                                                                                                                                                                                                                                                                                                                                                                                                                                                                                                                                                                                                                                                                                                                                                                                                                                                                                                                                                                                                                                                                                                                                                                                                                                                                </g>
                            </svg>