<svg width='83' height='83' >
                                <g transform="translate(3, 70) scale(0.07, -0.07)">
                                    <!-- 先将完整的字以灰色字体绘制完成，层级位于下面 -->
                                                                        <path d="M 356 793 Q 383 774 412 751 Q 425 741 440 742 Q 450 743 453 756 Q 456 771 445 796 Q 433 823 348 836 Q 333 837 328 835 Q 324 831 326 819 Q 330 809 356 793 Z" style="fill: #0070C0;"></path>
                                                                        <path d="M 199 650 Q 174 646 194 631 Q 227 607 249 615 Q 375 640 476 654 Q 486 653 493 664 Q 494 674 474 684 Q 447 703 370 680 Q 262 659 199 650 Z" style="fill: #0070C0;"></path>
                                                                        <path d="M 260 542 Q 281 503 292 499 Q 299 498 306 505 Q 312 515 312 537 Q 312 547 298 559 Q 259 584 252 582 Q 248 581 246 571 Q 246 562 260 542 Z" style="fill: #0070C0;"></path>
                                                                        <path d="M 377 485 Q 402 510 420 538 Q 433 560 446 579 Q 453 589 442 599 Q 409 621 392 617 Q 385 616 386 605 Q 396 557 340 478 Q 339 477 338 474 C 324 448 356 464 377 485 Z" style="fill: #0070C0;"></path>
                                                                        <path d="M 239 429 Q 300 429 489 476 Q 492 479 495 479 Q 502 485 498 491 Q 494 500 471 506 Q 455 509 377 485 L 338 474 Q 337 475 335 474 Q 287 464 233 456 C 203 452 209 428 239 429 Z" style="fill: #0070C0;"></path>
                                                                        <path d="M 233 456 Q 221 466 202 476 Q 187 486 176 482 Q 166 476 171 465 Q 183 450 179 396 Q 179 306 143 206 Q 122 149 66 66 Q 62 60 60 55 Q 59 46 66 48 Q 97 54 161 154 Q 161 157 164 160 Q 207 250 232 404 Q 235 416 238 426 Q 239 427 239 429 C 244 448 244 448 233 456 Z" style="fill: #0070C0;"></path>
                                                                        <path d="M 355 413 Q 351 368 251 270 Q 236 257 256 261 Q 305 267 382 358 Q 401 382 410 392 Q 417 401 415 408 Q 412 418 392 422 Q 370 428 362 425 Q 356 424 355 413 Z" style="fill: #0070C0;"></path>
                                                                        <path d="M 393 317 Q 377 256 243 153 Q 228 143 247 145 Q 308 152 402 250 Q 403 253 442 292 Q 449 299 448 307 Q 447 316 428 322 Q 409 329 400 327 Q 396 326 393 317 Z" style="fill: #0070C0;"></path>
                                                                        <path d="M 406 207 Q 388 128 200 -26 Q 182 -39 205 -35 Q 274 -31 413 118 Q 413 122 466 179 Q 475 189 473 197 Q 470 207 448 214 Q 424 221 414 219 Q 408 218 406 207 Z" style="fill: #0070C0;"></path>
                                                                        <path d="M 680 682 Q 717 694 871 694 Q 887 695 892 702 Q 896 712 881 724 Q 827 757 778 741 Q 738 734 683 721 Q 614 709 534 695 Q 516 694 530 679 Q 543 667 558 663 Q 576 659 590 664 Q 609 670 632 673 L 680 682 Z" style="fill: #0070C0;"></path>
                                                                        <path d="M 622 556 Q 626 563 633 571 Q 649 593 666 619 Q 673 632 686 646 Q 699 656 693 666 Q 689 673 680 682 C 659 704 634 703 632 673 Q 632 649 601 574 Q 595 562 593 552 C 586 523 606 531 622 556 Z" style="fill: #0070C0;"></path>
                                                                        <path d="M 572 550 Q 554 562 545 566 Q 536 570 527 566 Q 521 562 526 552 Q 527 545 530 537 Q 548 501 535 320 Q 513 229 544 193 Q 553 181 561 192 Q 576 208 576 278 Q 582 498 583 513 Q 584 519 584 523 C 586 541 586 541 572 550 Z" style="fill: #0070C0;"></path>
                                                                        <path d="M 766 253 Q 759 231 772 209 Q 785 181 794 182 Q 807 183 823 215 Q 838 240 836 260 Q 826 339 828 462 Q 828 498 848 528 Q 858 544 851 553 Q 824 577 778 596 Q 765 602 670 567 Q 637 560 622 556 L 593 552 Q 581 552 572 550 C 542 547 554 519 584 523 Q 590 523 679 539 Q 745 555 759 547 Q 769 525 773 465 Q 776 287 766 253 Z" style="fill: #0070C0;"></path>
                                                                        <path d="M 648 399 Q 657 159 563 68 Q 509 29 453 -11 Q 449 -15 463 -17 Q 473 -18 515 -1 Q 543 9 586 41 Q 691 119 693 337 Q 693 388 706 426 Q 710 436 702 442 Q 687 455 657 467 Q 639 474 626 469 Q 610 462 623 448 Q 647 424 648 399 Z" style="fill: #0070C0;"></path>
                                                                        <path d="M 715 121 Q 769 66 831 -15 Q 846 -36 860 -41 Q 869 -42 877 -34 Q 890 -21 881 22 Q 869 79 718 151 Q 709 157 707 145 Q 706 132 715 121 Z" style="fill: #0070C0;"></path>
                                    
                                    
                                                                                                                                                                                                                                                                                                                                                                                                                                                                                                                                                                                                                                                                                                                                                                                                                                                                                                                                                                                                                                                                                                                                                                                                                                                                </g>
                            </svg>