<svg width='83' height='83' >
                                <g transform="translate(3, 70) scale(0.07, -0.07)">
                                    <!-- 先将完整的字以灰色字体绘制完成，层级位于下面 -->
                                                                        <path d="M 398 687 Q 401 715 404 742 L 406 768 Q 406 769 407 771 Q 410 792 416 805 Q 417 812 404 823 Q 379 836 361 839 Q 349 842 344 836 Q 338 830 345 819 Q 361 798 365 678 C 366 648 395 657 398 687 Z" style="fill: #0070C0;"></path>
                                                                        <path d="M 404 742 Q 405 742 410 742 Q 462 752 501 758 Q 522 762 513 773 Q 503 786 480 788 Q 444 791 406 768 C 380 753 374 742 404 742 Z" style="fill: #0070C0;"></path>
                                                                        <path d="M 292 660 Q 286 735 278 741 Q 277 742 276 742 Q 257 752 236 757 Q 226 760 219 754 Q 215 750 221 738 Q 234 723 260 652 C 270 624 294 630 292 660 Z" style="fill: #0070C0;"></path>
                                                                        <path d="M 383 647 Q 434 660 496 671 Q 509 674 510 680 Q 511 690 495 698 Q 467 708 398 687 L 365 678 Q 320 668 292 660 L 260 652 Q 236 649 227 646 Q 188 639 154 633 Q 144 632 141 625 Q 140 616 152 607 Q 188 585 221 597 Q 296 625 345 638 Q 346 639 349 639 L 383 647 Z" style="fill: #0070C0;"></path>
                                                                        <path d="M 349 639 Q 361 612 353 552 Q 350 534 367 515 Q 374 508 381 515 Q 388 528 396 593 Q 397 606 400 619 Q 404 635 391 643 Q 387 646 383 647 C 355 658 339 664 349 639 Z" style="fill: #0070C0;"></path>
                                                                        <path d="M 276 581 Q 257 547 233 515 Q 214 493 228 463 Q 232 448 250 457 Q 289 482 293 535 Q 299 560 295 580 Q 291 587 286 588 Q 279 588 276 581 Z" style="fill: #0070C0;"></path>
                                                                        <path d="M 472 632 Q 472 527 195 356 Q 182 353 178 343 Q 177 339 181 338 Q 275 338 461 522 Q 483 550 516 577 Q 523 584 520 596 Q 505 639 483 645 Q 471 648 472 632 Z" style="fill: #0070C0;"></path>
                                                                        <path d="M 643 781 Q 680 790 811 808 Q 818 807 825 816 Q 826 825 809 833 Q 785 849 711 828 Q 701 827 692 823 Q 649 813 609 809 Q 581 806 551 802 Q 529 799 546 786 Q 570 768 595 773 Q 602 776 612 776 L 643 781 Z" style="fill: #0070C0;"></path>
                                                                        <path d="M 604 702 Q 610 708 639 740 Q 643 744 650 750 Q 660 757 656 764 Q 652 771 643 781 C 623 803 613 806 612 776 Q 612 761 598 723 Q 591 711 590 703 Q 589 702 590 700 C 590 688 590 688 604 702 Z" style="fill: #0070C0;"></path>
                                                                        <path d="M 577 699 Q 564 709 548 713 Q 542 714 538 709 Q 535 705 541 697 Q 565 643 544 556 Q 540 538 542 525 Q 549 503 557 494 Q 564 484 572 494 Q 581 509 589 607 Q 589 662 591 676 C 592 688 592 688 577 699 Z" style="fill: #0070C0;"></path>
                                                                        <path d="M 733 554 Q 729 538 738 522 Q 748 503 754 503 Q 764 504 775 527 Q 785 546 784 560 Q 772 656 789 682 Q 796 694 791 701 Q 769 720 734 734 Q 722 738 704 732 Q 691 726 604 702 L 590 700 Q 583 700 577 699 C 547 697 563 664 591 676 Q 597 683 682 694 Q 712 700 722 693 Q 728 683 731 655 Q 737 570 733 554 Z" style="fill: #0070C0;"></path>
                                                                        <path d="M 635 608 Q 638 500 593 461 Q 577 448 541 429 Q 532 426 530 424 Q 526 420 536 418 Q 557 415 608 435 Q 641 448 658 494 Q 661 509 675 595 Q 676 610 682 628 Q 686 635 680 641 Q 668 651 644 662 Q 631 668 619 664 Q 606 660 616 648 Q 635 629 635 608 Z" style="fill: #0070C0;"></path>
                                                                        <path d="M 692 483 Q 726 452 765 408 Q 775 395 786 392 Q 792 391 796 398 Q 805 407 796 435 Q 789 468 693 503 Q 687 507 686 498 Q 685 489 692 483 Z" style="fill: #0070C0;"></path>
                                                                        <path d="M 437 373 Q 459 394 483 417 Q 495 430 510 442 Q 523 452 514 463 Q 502 473 482 480 Q 463 487 454 483 Q 445 480 450 471 Q 456 453 417 381 Q 414 375 410 367 C 397 340 415 352 437 373 Z" style="fill: #0070C0;"></path>
                                                                        <path d="M 363 361 Q 351 367 319 370 Q 309 371 306 368 Q 302 362 310 349 Q 335 309 355 239 Q 359 217 374 205 Q 390 187 393 201 Q 394 205 394 208 L 393 231 Q 392 238 390 247 Q 377 302 371 329 C 364 358 364 361 363 361 Z" style="fill: #0070C0;"></path>
                                                                        <path d="M 653 242 Q 657 229 667 228 Q 679 229 686 241 Q 693 245 711 275 Q 727 320 760 343 Q 778 356 764 370 Q 749 386 707 411 Q 695 420 634 406 Q 546 393 457 378 Q 447 377 437 373 L 410 367 Q 383 366 363 361 C 334 355 341 327 371 329 Q 381 328 390 331 Q 430 344 501 356 L 547 363 Q 664 384 681 373 Q 687 369 682 351 Q 666 290 654 266 C 647 250 647 250 653 242 Z" style="fill: #0070C0;"></path>
                                                                        <path d="M 530 291 Q 566 298 598 303 Q 614 306 609 315 Q 602 325 583 328 Q 567 331 538 323 L 497 312 Q 466 305 437 296 Q 425 295 440 283 Q 444 280 490 284 L 530 291 Z" style="fill: #0070C0;"></path>
                                                                        <path d="M 585 233 Q 619 239 653 242 C 683 245 682 254 654 266 Q 650 269 643 270 Q 625 273 517 252 L 476 244 Q 433 238 393 231 C 363 226 364 205 394 208 L 465 216 L 505 222 Q 524 226 543 228 L 585 233 Z" style="fill: #0070C0;"></path>
                                                                        <path d="M 465 216 Q 449 183 414 129 C 398 104 422 111 443 132 Q 479 166 505 222 L 517 252 Q 523 271 530 291 L 538 323 Q 538 326 539 328 Q 543 353 547 363 C 556 392 495 385 501 356 Q 507 335 497 312 L 490 284 Q 483 265 476 244 L 465 216 Z" style="fill: #0070C0;"></path>
                                                                        <path d="M 606 113 Q 642 116 881 116 Q 900 116 906 124 Q 912 136 896 150 Q 845 190 806 182 Q 730 169 609 152 L 557 145 Q 535 145 443 132 L 414 129 Q 323 122 225 110 Q 204 109 219 91 Q 232 76 251 71 Q 272 65 288 69 Q 423 102 557 110 L 606 113 Z" style="fill: #0070C0;"></path>
                                                                        <path d="M 559 -53 Q 563 -74 568 -81 Q 572 -87 578 -85 Q 590 -79 597 -31 Q 600 -10 606 113 L 609 152 Q 609 155 617 196 Q 620 211 609 218 Q 596 228 585 233 C 558 247 530 255 543 228 Q 543 225 551 213 Q 557 200 557 145 L 557 110 Q 557 -40 559 -53 Z" style="fill: #0070C0;"></path>
                                    
                                    
                                                                                                                                                                                                                                                                                                                                                                                                                                                                                                                                                                                                                                                                                                                                                                                                                                                                                                                                                                                                                                                                                                                                                                                                                                                                                                                                                                                                                                                                                                                                                                                                                                                                                                                                        </g>
                            </svg>