<svg width='83' height='83' >
                                <g transform="translate(3, 70) scale(0.07, -0.07)">
                                    <!-- 先将完整的字以灰色字体绘制完成，层级位于下面 -->
                                                                        <path d="M 592 394 Q 583 580 664 643 Q 680 653 677 668 Q 673 681 606 709 Q 584 719 563 704 Q 487 659 369 628 Q 236 594 131 583 Q 106 582 121 564 Q 134 549 162 539 Q 189 529 220 545 Q 302 579 538 643 Q 562 650 559 626 Q 513 337 596 169 Q 612 136 635 111 Q 681 56 756 21 Q 814 -7 872 -5 Q 921 -4 948 14 Q 961 20 955 41 Q 931 102 914 187 Q 908 214 900 189 Q 875 86 864 75 Q 849 60 826 69 Q 688 96 629 227 Q 604 284 595 364 L 592 394 Z" style="fill: #0070C0;"></path>
                                                                        <path d="M 719 548 Q 707 526 627 428 Q 617 409 635 413 Q 695 449 766 500 Q 785 518 812 529 Q 834 539 823 559 Q 808 578 780 593 Q 755 608 740 605 Q 727 604 731 588 Q 735 569 719 548 Z" style="fill: #0070C0;"></path>
                                                                        <path d="M 595 364 Q 677 318 776 245 Q 795 229 810 227 Q 819 228 824 239 Q 834 254 813 294 Q 788 354 592 394 C 563 400 569 379 595 364 Z" style="fill: #0070C0;"></path>
                                    
                                    
                                                                                                                                                                                                                                                                                                                </g>
                            </svg>