<svg width='83' height='83' >
                                <g transform="translate(3, 70) scale(0.07, -0.07)">
                                    <!-- 先将完整的字以灰色字体绘制完成，层级位于下面 -->
                                                                        <path d="M 321 513 Q 331 526 346 540 Q 407 610 501 747 L 516 768 Q 537 798 537 800 Q 536 810 523 823 Q 490 856 455 852 Q 445 851 447 837 Q 462 743 291 547 Q 272 528 253 509 Q 195 452 54 344 Q 45 340 56 336 Q 69 337 102 355 Q 159 380 210 416 Q 256 450 308 500 L 321 513 Z" style="fill: #0070C0;"></path>
                                                                        <path d="M 501 747 Q 607 617 741 482 Q 763 460 798 463 Q 915 472 952 480 Q 962 484 964 489 Q 964 495 948 502 Q 765 553 702 608 Q 615 677 516 768 C 494 788 482 770 501 747 Z" style="fill: #0070C0;"></path>
                                                                        <path d="M 455 602 Q 503 556 535 546 Q 548 545 556 556 Q 560 568 556 582 Q 544 618 485 631 Q 451 640 440 635 Q 436 634 438 623 Q 441 613 455 602 Z" style="fill: #0070C0;"></path>
                                                                        <path d="M 537 283 Q 553 258 569 250 Q 579 243 593 262 Q 608 287 638 427 Q 645 455 667 479 Q 679 491 668 504 Q 653 520 614 543 Q 595 550 581 546 Q 562 539 530 531 Q 493 521 444 509 Q 404 499 373 489 C 344 480 365 454 394 461 Q 400 462 404 463 Q 458 481 553 501 Q 574 505 581 499 Q 594 483 591 468 Q 563 315 544 306 C 532 290 532 290 537 283 Z" style="fill: #0070C0;"></path>
                                                                        <path d="M 389 364 Q 393 364 399 365 Q 469 378 521 388 Q 540 392 533 402 Q 524 414 503 417 Q 476 420 388 387 C 360 377 359 362 389 364 Z" style="fill: #0070C0;"></path>
                                                                        <path d="M 390 260 Q 391 260 395 260 Q 474 275 537 283 C 567 287 571 292 544 306 Q 511 327 395 285 Q 392 285 390 284 C 361 278 360 260 390 260 Z" style="fill: #0070C0;"></path>
                                                                        <path d="M 373 489 Q 357 502 341 510 Q 326 516 321 513 C 300 517 300 517 308 500 Q 309 496 313 490 Q 361 400 338 119 Q 335 71 295 24 Q 273 -6 311 -50 L 313 -51 Q 326 -58 338 -43 Q 354 -16 503 90 Q 522 102 528 110 Q 532 120 522 120 Q 510 120 402 72 Q 384 65 384 81 Q 390 178 390 260 L 390 284 Q 389 326 389 364 L 388 387 Q 385 453 394 461 C 397 472 397 472 373 489 Z" style="fill: #0070C0;"></path>
                                                                        <path d="M 586 160 Q 643 197 713 228 Q 722 232 732 235 Q 751 242 744 258 Q 734 274 713 289 Q 694 302 682 302 Q 672 302 674 290 Q 674 263 569 166 C 547 146 561 144 586 160 Z" style="fill: #0070C0;"></path>
                                                                        <path d="M 569 166 Q 467 205 457 202 Q 451 201 454 188 Q 455 179 473 171 Q 630 95 739 6 Q 755 -10 771 -16 Q 784 -20 791 -1 Q 795 15 786 44 Q 774 92 586 160 L 569 166 Z" style="fill: #0070C0;"></path>
                                    
                                    
                                                                                                                                                                                                                                                                                                                                                                                                                                                                                                                                                                                                                                                                                                                                                                                        </g>
                            </svg>