<svg width='83' height='83' >
                                <g transform="translate(3, 70) scale(0.07, -0.07)">
                                    <!-- 先将完整的字以灰色字体绘制完成，层级位于下面 -->
                                                                        <path d="M 173 468 Q 188 490 214 534 L 223 550 Q 251 619 266 638 Q 272 648 263 661 Q 230 704 201 701 Q 186 700 193 681 Q 214 633 141 491 Q 108 433 64 375 Q 60 369 59 363 Q 60 359 65 359 Q 92 365 161 451 L 173 468 Z" style="fill: #0070C0;"></path>
                                                                        <path d="M 214 534 Q 224 524 255 531 Q 304 543 307 536 Q 314 521 296 462 Q 281 398 221 306 Q 163 209 60 113 Q 38 97 58 100 Q 139 112 243 255 Q 309 346 354 463 Q 376 520 392 537 Q 404 547 397 558 Q 391 568 339 587 Q 326 591 305 579 Q 280 566 223 550 C 194 542 191 541 214 534 Z" style="fill: #0070C0;"></path>
                                                                        <path d="M 161 451 Q 164 444 173 431 Q 189 406 206 377 Q 213 365 224 363 Q 231 362 238 369 Q 244 379 244 401 Q 244 417 224 435 Q 203 451 179 465 Q 175 466 173 468 C 148 484 148 478 161 451 Z" style="fill: #0070C0;"></path>
                                                                        <path d="M 618 744 Q 628 771 641 786 Q 648 793 645 803 Q 642 812 628 822 Q 594 847 561 838 Q 552 835 556 823 Q 580 748 474 579 Q 470 573 465 566 Q 432 518 348 424 Q 341 417 351 416 Q 432 443 531 585 Q 532 589 536 593 Q 564 639 605 718 L 618 744 Z" style="fill: #0070C0;"></path>
                                                                        <path d="M 605 718 Q 683 618 769 524 Q 791 499 830 496 Q 902 489 977 499 Q 996 500 998 505 Q 1001 512 985 519 Q 802 600 797 602 Q 734 641 622 740 Q 619 743 618 744 C 596 764 586 742 605 718 Z" style="fill: #0070C0;"></path>
                                                                        <path d="M 580 574 Q 613 537 636 528 Q 649 525 656 537 Q 660 547 658 561 Q 649 592 605 603 Q 575 609 569 607 Q 565 606 566 596 Q 567 586 580 574 Z" style="fill: #0070C0;"></path>
                                                                        <path d="M 654 282 Q 655 278 659 272 Q 678 238 703 263 Q 716 276 727 313 Q 737 401 767 442 Q 782 460 768 476 Q 752 494 721 512 Q 705 519 689 513 Q 610 483 518 468 C 488 463 512 430 540 440 Q 544 443 627 467 Q 673 480 689 471 Q 696 467 693 443 Q 683 379 674 324 Q 670 306 660 301 C 650 290 650 290 654 282 Z" style="fill: #0070C0;"></path>
                                                                        <path d="M 533 353 Q 533 354 535 354 Q 601 367 649 376 Q 671 382 661 393 Q 651 406 626 409 Q 592 412 533 382 C 506 369 505 343 533 353 Z" style="fill: #0070C0;"></path>
                                                                        <path d="M 531 262 Q 537 262 545 264 Q 578 273 654 282 C 678 285 678 285 660 301 Q 653 308 635 317 Q 619 324 592 314 Q 558 302 532 295 C 503 287 501 260 531 262 Z" style="fill: #0070C0;"></path>
                                                                        <path d="M 518 468 Q 503 480 489 487 Q 471 494 463 488 Q 453 482 461 467 Q 483 418 486 362 Q 493 259 473 100 Q 472 51 431 3 Q 421 -13 427 -35 Q 437 -60 450 -72 Q 463 -79 475 -64 Q 488 -36 621 76 Q 640 89 644 98 Q 648 108 638 108 Q 632 108 529 56 Q 519 49 518 59 Q 528 168 531 262 L 532 295 Q 533 326 533 353 L 533 382 Q 534 407 539 430 Q 540 436 540 440 C 542 451 542 451 518 468 Z" style="fill: #0070C0;"></path>
                                                                        <path d="M 694 167 Q 776 225 817 248 Q 835 252 831 264 Q 825 280 806 298 Q 787 316 765 318 Q 750 317 751 298 Q 755 277 673 176 C 654 153 669 150 694 167 Z" style="fill: #0070C0;"></path>
                                                                        <path d="M 673 176 Q 613 209 584 205 Q 574 202 578 194 Q 579 188 801 31 Q 823 15 838 14 Q 854 15 860 20 Q 867 33 857 57 Q 835 111 694 167 L 673 176 Z" style="fill: #0070C0;"></path>
                                    
                                    
                                                                                                                                                                                                                                                                                                                                                                                                                                                                                                                                                                                                                                                                                                                                                                                                                                                                                                                                                                                                                            </g>
                            </svg>