<svg width='83' height='83' >
                                <g transform="translate(3, 70) scale(0.07, -0.07)">
                                    <!-- 先将完整的字以灰色字体绘制完成，层级位于下面 -->
                                                                        <path d="M 294 469 Q 248 470 209 470 Q 172 470 192 493 Q 258 611 322 701 Q 335 719 333 726 Q 330 741 290 770 Q 274 783 255 779 Q 245 776 251 761 Q 269 719 185 554 Q 167 517 127 479 Q 109 464 111 452 Q 115 434 129 416 Q 139 406 152 413 Q 177 426 259 442 Q 269 443 279 444 C 309 447 324 468 294 469 Z" style="fill: #0070C0;"></path>
                                                                        <path d="M 335 300 Q 289 294 232 277 Q 198 264 220 293 Q 262 357 360 489 Q 388 529 412 552 Q 425 562 418 573 Q 406 592 371 610 Q 355 619 345 616 Q 335 612 337 596 Q 341 560 294 469 L 279 444 Q 168 276 141 262 Q 128 252 130 237 Q 131 224 160 204 Q 172 192 186 205 Q 243 247 330 279 C 358 290 365 304 335 300 Z" style="fill: #0070C0;"></path>
                                                                        <path d="M 330 279 Q 285 150 134 8 Q 128 1 134 -2 Q 141 -3 150 1 Q 208 32 256 78 Q 341 156 389 317 Q 398 342 410 369 Q 417 378 411 386 Q 404 395 377 408 Q 358 417 349 414 Q 339 410 340 397 Q 347 351 335 300 L 330 279 Z" style="fill: #0070C0;"></path>
                                                                        <path d="M 462 497 Q 540 578 616 715 L 628 738 Q 629 748 646 769 Q 653 775 650 784 Q 649 793 635 803 Q 599 827 573 819 Q 564 816 568 805 Q 586 727 482 577 Q 479 574 478 571 Q 447 528 368 443 Q 361 437 371 436 Q 383 439 447 485 L 462 497 Z" style="fill: #0070C0;"></path>
                                                                        <path d="M 616 715 Q 698 604 805 488 Q 824 469 853 470 Q 953 476 985 482 Q 995 483 996 489 Q 996 493 982 500 Q 834 548 768 608 Q 702 665 628 738 C 607 759 598 739 616 715 Z" style="fill: #0070C0;"></path>
                                                                        <path d="M 576 582 Q 634 531 648 532 Q 660 532 663 548 Q 663 558 654 574 Q 630 604 578 604 Q 571 605 570 595 Q 570 588 576 582 Z" style="fill: #0070C0;"></path>
                                                                        <path d="M 657 280 Q 658 279 660 276 Q 679 246 700 271 Q 710 283 721 346 Q 727 427 748 458 Q 760 474 747 488 Q 731 503 702 519 Q 687 523 673 518 Q 598 488 511 472 C 482 466 499 436 527 447 Q 528 450 611 473 Q 657 486 674 477 Q 681 473 679 449 Q 675 382 669 325 Q 668 309 658 302 C 649 291 649 291 657 280 Z" style="fill: #0070C0;"></path>
                                                                        <path d="M 520 350 Q 527 350 536 351 Q 594 366 639 375 Q 658 379 649 390 Q 639 400 618 403 Q 585 403 520 370 C 493 357 490 349 520 350 Z" style="fill: #0070C0;"></path>
                                                                        <path d="M 517 252 Q 520 255 657 280 C 687 285 685 288 658 302 Q 630 320 522 278 Q 519 278 518 277 C 489 269 489 242 517 252 Z" style="fill: #0070C0;"></path>
                                                                        <path d="M 511 472 Q 480 500 462 497 C 440 502 440 502 447 485 Q 447 481 451 475 Q 493 388 465 147 Q 462 101 424 55 Q 400 25 439 -15 L 441 -16 Q 454 -23 465 -8 Q 480 17 613 122 Q 632 134 636 142 Q 640 152 631 152 Q 616 151 521 103 Q 508 97 508 109 Q 514 185 517 252 L 518 277 Q 519 316 520 350 L 520 370 Q 523 409 527 447 C 528 458 528 458 511 472 Z" style="fill: #0070C0;"></path>
                                                                        <path d="M 701 187 Q 771 245 806 267 Q 822 273 817 282 Q 811 295 794 309 Q 778 324 758 324 Q 745 323 747 307 Q 750 289 686 195 C 669 170 678 168 701 187 Z" style="fill: #0070C0;"></path>
                                                                        <path d="M 686 195 Q 626 223 592 237 Q 583 241 583 230 Q 584 218 594 210 Q 694 141 818 39 Q 834 23 847 21 Q 854 21 861 30 Q 870 43 854 80 Q 835 129 701 187 L 686 195 Z" style="fill: #0070C0;"></path>
                                    
                                    
                                                                                                                                                                                                                                                                                                                                                                                                                                                                                                                                                                                                                                                                                                                                                                                                                                                                                                                                                                                                                            </g>
                            </svg>