<svg width='83' height='83' >
                                <g transform="translate(3, 70) scale(0.07, -0.07)">
                                    <!-- 先将完整的字以灰色字体绘制完成，层级位于下面 -->
                                                                        <path d="M 292 582 Q 323 642 363 732 Q 379 771 380 774 Q 368 802 323 809 Q 301 813 289 808 Q 280 804 285 792 Q 315 714 201 520 Q 197 514 192 506 Q 158 452 67 345 Q 60 338 71 337 Q 143 358 251 512 Q 258 525 268 539 Q 272 549 279 559 L 292 582 Z" style="fill: #0070C0;"></path>
                                                                        <path d="M 279 559 Q 297 555 380 573 Q 395 583 403 576 Q 406 573 402 565 Q 375 498 358 467 Q 351 455 350 449 Q 349 439 361 444 Q 373 450 428 513 Q 462 553 497 576 Q 515 588 502 600 Q 489 612 450 631 Q 434 635 419 626 Q 410 620 331 592 Q 313 586 292 582 C 263 576 249 561 279 559 Z" style="fill: #0070C0;"></path>
                                                                        <path d="M 319 382 Q 323 395 315 406 Q 291 428 269 439 Q 251 446 243 441 Q 233 435 241 419 Q 277 338 258 180 Q 255 131 216 83 Q 204 67 212 45 Q 222 18 235 7 Q 248 0 260 16 Q 275 46 418 168 Q 436 181 440 190 Q 444 200 434 200 Q 428 200 312 136 Q 305 130 302 139 Q 314 250 314 335 Q 314 360 319 382 Z" style="fill: #0070C0;"></path>
                                                                        <path d="M 628 568 Q 782 646 791 648 Q 809 651 811 659 Q 814 671 800 681 Q 734 717 699 710 Q 692 706 693 693 Q 694 650 496 528 Q 492 518 498 516 Q 510 516 587 550 L 628 568 Z" style="fill: #0070C0;"></path>
                                                                        <path d="M 655 370 Q 728 383 848 384 Q 899 384 904 394 Q 908 406 893 418 Q 835 460 773 437 Q 725 428 658 413 L 605 404 Q 530 392 447 378 Q 428 375 443 359 Q 456 346 474 342 Q 495 338 510 342 Q 552 355 600 362 L 655 370 Z" style="fill: #0070C0;"></path>
                                                                        <path d="M 600 362 Q 567 178 431 77 Q 416 64 402 52 Q 389 42 402 40 Q 417 41 450 57 Q 504 85 543 128 Q 588 171 608 219 Q 615 241 625 261 Q 637 292 645 324 L 658 413 Q 661 482 678 522 Q 687 541 669 548 Q 651 560 628 568 C 600 579 574 577 587 550 Q 611 516 605 404 L 600 362 Z" style="fill: #0070C0;"></path>
                                                                        <path d="M 645 324 Q 717 171 798 65 Q 817 37 839 35 Q 902 36 956 36 Q 980 36 980 41 Q 981 48 957 63 Q 830 135 796 175 Q 706 277 655 370 C 640 396 617 382 645 324 Z" style="fill: #0070C0;"></path>
                                    
                                    
                                                                                                                                                                                                                                                                                                                                                                                                                                                                                                                                                                                                                                </g>
                            </svg>