<svg width='83' height='83' >
                                <g transform="translate(3, 70) scale(0.07, -0.07)">
                                    <!-- 先将完整的字以灰色字体绘制完成，层级位于下面 -->
                                                                        <path d="M 285 592 Q 372 737 381 745 Q 390 757 385 771 Q 381 784 350 807 Q 322 826 301 825 Q 282 822 291 799 Q 307 765 295 735 Q 231 567 58 348 Q 48 338 46 331 Q 42 319 57 322 Q 115 338 275 576 L 285 592 Z" style="fill: #0070C0;"></path>
                                                                        <path d="M 275 576 Q 290 564 367 578 Q 401 591 409 585 Q 412 582 408 574 Q 384 507 369 475 Q 363 463 362 457 Q 361 447 373 452 Q 385 458 440 522 Q 474 562 508 585 Q 526 597 513 610 Q 498 622 459 642 Q 452 645 396 625 Q 308 597 285 592 C 256 585 254 584 275 576 Z" style="fill: #0070C0;"></path>
                                                                        <path d="M 323 394 Q 329 407 319 418 Q 295 440 273 451 Q 255 458 247 452 Q 237 446 245 431 Q 281 350 265 204 Q 264 155 224 106 Q 214 90 221 69 Q 231 42 244 31 Q 257 24 268 40 Q 283 68 422 192 Q 440 205 444 214 Q 448 224 438 224 Q 425 224 320 161 Q 311 155 310 164 Q 320 269 319 349 Q 319 374 323 394 Z" style="fill: #0070C0;"></path>
                                                                        <path d="M 578 520 Q 641 647 656 686 Q 668 725 682 746 Q 689 758 682 770 Q 675 782 642 798 Q 612 810 594 805 Q 578 799 589 780 Q 631 725 505 454 Q 502 450 500 443 Q 493 431 492 425 Q 491 413 504 419 Q 523 428 571 506 L 578 520 Z" style="fill: #0070C0;"></path>
                                                                        <path d="M 571 506 Q 572 505 574 502 Q 596 480 621 488 Q 673 509 732 522 Q 763 531 773 528 Q 785 518 781 510 Q 781 504 732 432 Q 725 423 729 416 Q 733 412 745 422 Q 848 486 892 500 Q 902 501 904 510 Q 905 523 877 540 Q 855 555 833 569 Q 806 585 791 579 Q 713 545 581 522 Q 580 522 578 520 C 562 515 562 515 571 506 Z" style="fill: #0070C0;"></path>
                                                                        <path d="M 633 268 Q 640 302 648 346 Q 652 370 657 380 Q 664 387 658 397 Q 652 404 623 416 Q 592 432 575 426 Q 565 420 573 404 Q 609 313 546 177 Q 540 168 535 158 Q 493 91 376 30 Q 351 17 381 17 Q 462 14 545 88 Q 555 100 567 114 Q 609 168 626 241 L 633 268 Z" style="fill: #0070C0;"></path>
                                                                        <path d="M 626 241 Q 761 27 803 14 Q 890 14 942 22 Q 951 25 952 29 Q 953 33 941 41 Q 806 101 719 183 Q 707 195 633 268 C 612 289 610 266 626 241 Z" style="fill: #0070C0;"></path>
                                    
                                    
                                                                                                                                                                                                                                                                                                                                                                                                                                                                                                                                                                                                                                </g>
                            </svg>