<svg width='83' height='83' >
                                <g transform="translate(3, 70) scale(0.07, -0.07)">
                                    <!-- 先将完整的字以灰色字体绘制完成，层级位于下面 -->
                                                                        <path d="M 268 568 Q 296 622 331 701 Q 346 737 346 740 Q 343 749 329 759 Q 290 784 261 772 Q 252 768 257 756 Q 282 678 179 501 Q 176 500 175 495 Q 144 446 63 348 Q 56 341 67 340 Q 143 368 240 517 Q 241 521 245 525 Q 251 537 259 550 L 268 568 Z" style="fill: #0070C0;"></path>
                                                                        <path d="M 259 550 Q 275 543 366 567 Q 375 570 378 567 Q 381 564 377 556 Q 346 487 327 455 Q 320 442 318 436 Q 317 426 328 432 Q 341 438 397 503 Q 431 545 466 568 Q 482 578 471 591 Q 458 601 421 620 Q 411 623 345 595 Q 279 571 268 568 C 239 559 229 554 259 550 Z" style="fill: #0070C0;"></path>
                                                                        <path d="M 306 369 Q 312 382 302 394 Q 280 416 258 427 Q 240 434 231 429 Q 221 423 229 408 Q 262 335 244 188 Q 243 139 203 90 Q 193 74 200 52 Q 210 25 224 15 Q 237 8 248 24 Q 264 58 416 202 Q 432 217 437 226 Q 440 236 430 235 Q 421 235 292 147 Q 291 143 287 147 Q 300 247 301 326 Q 302 350 306 369 Z" style="fill: #0070C0;"></path>
                                                                        <path d="M 614 512 Q 749 561 760 571 Q 767 581 761 589 Q 752 599 721 602 Q 690 603 662 586 Q 634 573 605 558 L 561 540 Q 527 530 491 520 Q 455 507 485 495 Q 519 480 570 495 L 614 512 Z" style="fill: #0070C0;"></path>
                                                                        <path d="M 645 386 Q 684 401 811 439 Q 823 439 830 455 Q 829 468 802 475 Q 760 493 678 449 Q 657 442 638 433 Q 635 432 634 431 L 590 414 Q 580 411 443 368 Q 413 358 440 344 Q 482 323 510 335 Q 552 351 602 369 L 645 386 Z" style="fill: #0070C0;"></path>
                                                                        <path d="M 684 167 Q 744 59 824 -4 Q 888 -52 917 -50 Q 938 -44 929 -16 Q 925 39 935 199 Q 935 221 927 223 Q 924 223 880 113 Q 862 65 837 74 Q 825 80 810 92 Q 762 138 723 199 L 698 244 Q 667 308 645 386 L 634 431 Q 622 473 614 512 L 605 558 Q 584 670 593 757 Q 605 800 544 821 Q 507 836 485 827 Q 463 820 475 798 Q 526 756 528 721 Q 544 622 561 540 L 570 495 Q 579 452 590 414 L 602 369 Q 618 306 662 212 L 684 167 Z" style="fill: #0070C0;"></path>
                                                                        <path d="M 662 212 Q 590 151 437 93 Q 427 89 433 83 Q 460 64 579 109 Q 639 128 684 167 L 723 199 Q 757 230 796 276 Q 815 297 836 316 Q 846 322 844 333 Q 841 345 818 370 Q 802 389 792 389 Q 779 390 775 375 Q 763 323 698 244 L 662 212 Z" style="fill: #0070C0;"></path>
                                                                        <path d="M 718 720 Q 752 692 790 659 Q 803 646 818 647 Q 828 648 833 661 Q 837 674 828 703 Q 822 725 787 743 Q 706 774 692 767 Q 688 763 689 751 Q 692 741 718 720 Z" style="fill: #0070C0;"></path>
                                    
                                    
                                                                                                                                                                                                                                                                                                                                                                                                                                                                                                                                                                                                                                                                                                            </g>
                            </svg>