<svg width='83' height='83' >
                                <g transform="translate(3, 70) scale(0.07, -0.07)">
                                    <!-- 先将完整的字以灰色字体绘制完成，层级位于下面 -->
                                                                        <path d="M 276 603 Q 354 744 369 760 Q 379 770 373 785 Q 369 798 338 819 Q 310 835 290 835 Q 271 832 281 810 Q 297 777 286 747 Q 228 581 65 368 Q 55 356 54 350 Q 51 338 65 342 Q 122 357 267 588 L 276 603 Z" style="fill: #0070C0;"></path>
                                                                        <path d="M 267 588 Q 282 576 368 594 Q 395 603 401 598 Q 405 595 401 586 Q 373 519 354 487 Q 347 474 346 468 Q 345 458 356 464 Q 368 470 423 533 Q 457 573 490 597 Q 506 607 495 619 Q 482 629 447 649 Q 431 653 418 644 Q 408 640 328 614 Q 306 607 276 603 C 246 599 241 598 267 588 Z" style="fill: #0070C0;"></path>
                                                                        <path d="M 302 416 Q 306 429 297 439 Q 275 460 254 470 Q 238 477 229 472 Q 219 466 227 452 Q 263 377 243 207 Q 239 161 201 115 Q 191 102 197 80 Q 207 55 219 43 Q 231 36 242 52 Q 258 80 402 194 Q 420 206 424 214 Q 428 224 418 224 Q 400 223 296 164 Q 286 158 285 169 Q 297 281 297 368 Q 297 393 302 416 Z" style="fill: #0070C0;"></path>
                                                                        <path d="M 519 720 Q 497 720 497 708 Q 498 698 521 682 Q 545 666 558 667 Q 567 667 579 673 Q 640 701 752 719 Q 797 731 817 715 Q 821 708 817 564 Q 811 344 817 207 Q 821 107 812 94 Q 808 85 795 84 Q 782 83 706 95 Q 693 96 691 91 Q 690 84 717 67 Q 768 39 803 8 Q 834 -20 845 -15 Q 855 -12 863 4 Q 885 53 882 92 Q 837 632 894 698 Q 901 710 900 716 Q 901 726 870 748 Q 822 781 793 772 Q 658 724 519 720 Z" style="fill: #0070C0;"></path>
                                                                        <path d="M 508 558 Q 471 551 499 535 Q 544 511 599 528 Q 641 537 685 547 Q 704 551 708 555 Q 717 564 712 572 Q 705 584 674 590 Q 643 594 612 581 Q 558 563 508 558 Z" style="fill: #0070C0;"></path>
                                                                        <path d="M 507 421 Q 497 428 466 432 Q 456 435 452 430 Q 448 426 454 411 Q 478 362 493 282 Q 496 258 510 242 Q 526 223 530 237 Q 534 249 533 269 L 529 300 Q 517 370 515 394 C 513 418 513 418 507 421 Z" style="fill: #0070C0;"></path>
                                                                        <path d="M 674 324 Q 693 382 712 400 Q 734 424 713 437 Q 695 447 670 465 Q 652 477 610 451 Q 550 430 507 421 C 478 415 486 387 515 394 Q 521 395 529 398 Q 572 410 610 418 Q 635 424 642 414 Q 648 410 640 381 Q 633 354 625 324 C 617 295 664 296 674 324 Z" style="fill: #0070C0;"></path>
                                                                        <path d="M 533 269 Q 537 269 544 270 Q 590 280 690 291 Q 700 292 700 301 Q 700 308 674 324 C 659 334 654 332 625 324 Q 573 309 529 300 C 500 294 503 267 533 269 Z" style="fill: #0070C0;"></path>
                                    
                                    
                                                                                                                                                                                                                                                                                                                                                                                                                                                                                                                                                                                                                                                                                                            </g>
                            </svg>