<svg width='83' height='83' >
                                <g transform="translate(3, 70) scale(0.07, -0.07)">
                                    <!-- 先将完整的字以灰色字体绘制完成，层级位于下面 -->
                                                                        <path d="M 292 581 Q 325 645 369 743 Q 376 762 383 770 Q 390 776 387 786 Q 375 814 332 821 Q 310 825 299 821 Q 290 817 295 805 Q 328 715 196 506 Q 193 503 191 499 Q 154 442 55 328 Q 48 321 59 321 Q 123 337 232 480 Q 275 552 280 559 L 292 581 Z" style="fill: #0070C0;"></path>
                                                                        <path d="M 280 559 Q 301 556 392 577 Q 402 580 405 577 Q 409 574 405 565 Q 377 498 358 467 Q 351 454 350 448 Q 349 438 360 444 Q 372 450 427 513 Q 461 553 494 577 Q 510 587 499 599 Q 486 611 450 628 Q 434 634 421 623 Q 411 619 332 591 Q 314 585 292 581 C 263 575 250 560 280 559 Z" style="fill: #0070C0;"></path>
                                                                        <path d="M 323 406 Q 327 419 319 430 Q 295 452 274 463 Q 255 470 247 465 Q 237 459 245 443 Q 281 362 262 200 Q 259 151 220 103 Q 210 87 216 65 Q 226 38 240 27 Q 253 20 264 36 Q 279 64 414 184 Q 432 197 436 206 Q 440 216 430 216 Q 420 216 316 157 Q 309 151 306 159 Q 318 271 318 358 Q 318 385 323 406 Z" style="fill: #0070C0;"></path>
                                                                        <path d="M 528 717 Q 561 656 593 633 Q 606 626 619 638 Q 628 648 629 666 Q 626 708 548 753 Q 533 762 523 760 Q 516 760 516 747 Q 515 735 528 717 Z" style="fill: #0070C0;"></path>
                                                                        <path d="M 753 773 Q 747 757 680 635 Q 673 616 690 623 Q 715 645 805 734 Q 821 755 845 770 Q 864 783 850 800 Q 834 816 804 826 Q 776 836 764 830 Q 751 826 758 813 Q 765 794 753 773 Z" style="fill: #0070C0;"></path>
                                                                        <path d="M 754 552 Q 773 558 795 562 Q 837 572 843 579 Q 853 588 847 596 Q 840 608 810 615 Q 782 619 670 582 Q 601 564 525 554 Q 488 547 515 530 Q 528 523 546 518 C 572 510 574 510 603 518 Q 612 521 705 542 L 754 552 Z" style="fill: #0070C0;"></path>
                                                                        <path d="M 784 361 Q 853 368 921 368 Q 940 369 945 378 Q 949 390 933 402 Q 878 441 810 418 Q 798 417 785 412 L 731 400 Q 724 400 615 377 L 564 368 Q 500 358 435 346 Q 416 343 431 327 Q 444 314 462 310 Q 483 306 498 311 Q 528 321 561 327 L 611 338 Q 656 348 732 356 L 784 361 Z" style="fill: #0070C0;"></path>
                                                                        <path d="M 546 518 Q 571 467 564 368 L 561 327 Q 561 225 489 122 Q 458 85 427 57 Q 414 45 411 39 Q 410 33 420 33 Q 435 33 454 46 Q 493 71 516 96 Q 586 171 611 338 L 615 377 Q 619 447 626 485 Q 632 504 613 513 Q 607 516 603 518 C 577 532 535 546 546 518 Z" style="fill: #0070C0;"></path>
                                                                        <path d="M 734 -27 Q 738 -52 746 -61 Q 752 -68 759 -66 Q 777 -54 780 1 Q 780 10 784 361 L 785 412 Q 785 448 796 508 Q 799 524 785 534 Q 767 546 754 552 C 728 566 690 568 705 542 Q 706 541 709 536 Q 713 527 719 518 Q 729 496 731 400 L 732 356 Q 732 -7 734 -27 Z" style="fill: #0070C0;"></path>
                                    
                                    
                                                                                                                                                                                                                                                                                                                                                                                                                                                                                                                                                                                                                                                                                                                                                                                        </g>
                            </svg>