<svg width='83' height='83' >
                                <g transform="translate(3, 70) scale(0.07, -0.07)">
                                    <!-- 先将完整的字以灰色字体绘制完成，层级位于下面 -->
                                                                        <path d="M 264 577 Q 292 637 331 727 Q 346 764 346 768 Q 343 778 329 787 Q 290 811 261 799 Q 252 795 257 784 Q 288 702 174 505 Q 171 502 169 498 Q 135 444 47 336 Q 40 329 51 329 Q 105 345 203 473 Q 224 509 252 555 L 264 577 Z" style="fill: #0070C0;"></path>
                                                                        <path d="M 252 555 Q 273 552 364 573 Q 374 576 377 573 Q 381 570 377 561 Q 349 494 330 463 Q 323 450 322 444 Q 321 434 332 440 Q 344 446 399 509 Q 433 549 466 573 Q 482 583 471 595 Q 458 607 422 624 Q 406 630 393 619 Q 383 615 304 587 Q 286 581 264 577 C 235 571 222 556 252 555 Z" style="fill: #0070C0;"></path>
                                                                        <path d="M 299 394 Q 303 407 294 418 Q 272 440 250 451 Q 232 458 223 453 Q 213 447 221 432 Q 254 359 239 220 Q 236 171 196 123 Q 184 107 192 85 Q 202 60 215 48 Q 228 39 239 56 Q 254 84 394 204 Q 412 217 416 226 Q 420 236 410 236 Q 400 236 293 176 Q 284 170 283 179 Q 293 276 294 352 Q 294 374 299 394 Z" style="fill: #0070C0;"></path>
                                                                        <path d="M 527 701 Q 517 705 495 707 Q 485 708 482 705 Q 478 699 485 686 Q 507 650 523 590 Q 526 572 538 561 Q 554 543 557 557 Q 558 564 559 573 L 556 600 Q 546 655 543 675 C 540 697 540 697 527 701 Z" style="fill: #0070C0;"></path>
                                                                        <path d="M 791 638 Q 812 677 833 690 Q 846 706 835 721 Q 822 733 777 755 Q 762 761 744 755 Q 707 740 676 730 L 624 718 Q 575 709 527 701 C 497 696 514 668 543 675 Q 594 688 625 692 L 675 703 Q 697 709 724 714 Q 745 718 753 710 Q 759 704 746 642 C 740 613 776 612 791 638 Z" style="fill: #0070C0;"></path>
                                                                        <path d="M 667 591 Q 722 601 802 610 Q 811 611 812 618 Q 812 625 791 638 C 775 649 775 649 746 642 Q 706 633 669 623 L 627 613 Q 588 606 556 600 C 527 594 529 574 559 573 Q 566 572 577 574 Q 598 580 627 584 L 667 591 Z" style="fill: #0070C0;"></path>
                                                                        <path d="M 663 536 Q 664 564 667 591 L 669 623 Q 670 665 675 703 L 676 730 Q 676 731 677 733 Q 680 766 690 797 Q 693 807 675 819 Q 644 835 623 839 Q 610 842 602 835 Q 595 828 603 815 Q 619 790 624 718 L 625 692 Q 626 655 627 613 L 627 584 Q 626 559 626 530 C 626 500 662 506 663 536 Z" style="fill: #0070C0;"></path>
                                                                        <path d="M 626 530 Q 530 517 426 499 Q 408 498 422 483 Q 435 471 450 467 Q 468 463 482 467 Q 662 522 924 522 L 926 522 Q 944 523 947 530 Q 951 540 937 552 Q 889 583 860 576 Q 788 558 665 537 Q 664 537 663 536 L 626 530 Z" style="fill: #0070C0;"></path>
                                                                        <path d="M 546 434 Q 528 447 509 453 Q 502 454 497 447 Q 494 443 500 434 Q 527 380 509 245 Q 497 208 502 188 Q 509 161 519 151 Q 529 141 536 151 Q 555 175 556 307 Q 556 385 559 407 C 561 424 561 424 546 434 Z" style="fill: #0070C0;"></path>
                                                                        <path d="M 737 201 Q 730 182 742 163 Q 754 138 762 139 Q 775 140 788 168 Q 801 190 799 208 Q 778 370 807 412 Q 822 436 774 460 Q 759 469 743 475 Q 730 479 708 473 Q 630 439 546 434 C 516 432 529 403 559 407 Q 563 407 648 422 Q 712 437 727 428 Q 734 412 739 365 Q 743 227 737 201 Z" style="fill: #0070C0;"></path>
                                                                        <path d="M 618 291 Q 621 126 553 62 Q 544 56 534 47 Q 503 25 436 -2 Q 426 -5 422 -8 Q 418 -12 430 -15 Q 506 -22 596 44 Q 600 50 607 56 Q 652 107 662 237 Q 666 292 675 315 Q 679 324 673 330 Q 658 343 630 355 Q 614 362 600 358 Q 584 352 596 338 Q 618 316 618 291 Z" style="fill: #0070C0;"></path>
                                                                        <path d="M 698 104 Q 744 55 800 -13 Q 813 -32 826 -37 Q 833 -38 841 -30 Q 853 -20 844 20 Q 834 74 701 131 Q 694 135 690 125 Q 689 113 698 104 Z" style="fill: #0070C0;"></path>
                                    
                                    
                                                                                                                                                                                                                                                                                                                                                                                                                                                                                                                                                                                                                                                                                                                                                                                                                                                                                                                                                                                                                            </g>
                            </svg>