<svg width='83' height='83' >
                                <g transform="translate(3, 70) scale(0.07, -0.07)">
                                    <!-- 先将完整的字以灰色字体绘制完成，层级位于下面 -->
                                                                        <path d="M 270 613 Q 351 751 351 756 Q 351 760 349 765 Q 345 778 314 799 Q 286 815 266 815 Q 247 812 257 790 Q 272 762 253 709 Q 195 558 65 384 Q 55 372 54 366 Q 51 354 65 358 Q 116 371 253 584 L 270 613 Z" style="fill: #0070C0;"></path>
                                                                        <path d="M 253 584 Q 269 585 332 599 Q 341 602 344 599 Q 347 596 343 588 Q 321 527 305 497 Q 299 485 298 480 Q 297 470 308 476 Q 318 480 367 540 Q 398 577 428 598 Q 443 608 432 619 Q 420 629 387 647 Q 380 650 296 622 Q 272 615 270 613 C 242 601 223 581 253 584 Z" style="fill: #0070C0;"></path>
                                                                        <path d="M 307 426 Q 311 439 303 450 Q 279 472 258 483 Q 239 490 231 485 Q 221 479 229 463 Q 265 382 246 220 Q 245 171 205 122 Q 193 106 201 85 Q 211 58 224 47 Q 237 40 249 56 Q 262 84 394 203 Q 412 216 416 226 Q 420 236 410 236 Q 404 236 299 177 Q 292 171 290 179 Q 302 291 302 378 Q 302 405 307 426 Z" style="fill: #0070C0;"></path>
                                                                        <path d="M 490 641 Q 529 665 577 700 Q 593 713 613 722 Q 631 731 622 745 Q 610 758 589 771 Q 570 783 558 780 Q 548 779 551 768 Q 554 744 478 654 C 459 631 465 625 490 641 Z" style="fill: #0070C0;"></path>
                                                                        <path d="M 582 561 Q 504 507 496 508 Q 490 512 489 526 Q 490 604 494 623 Q 495 635 490 641 L 478 654 Q 462 669 449 669 Q 439 670 434 667 Q 427 661 436 651 Q 458 612 453 518 Q 452 491 441 477 Q 431 459 439 442 Q 449 417 464 408 Q 473 402 482 418 Q 506 454 591 546 C 611 568 607 578 582 561 Z" style="fill: #0070C0;"></path>
                                                                        <path d="M 591 546 Q 609 519 619 516 Q 625 515 630 521 Q 634 528 634 547 Q 635 563 614 583 Q 566 622 556 618 Q 552 617 551 609 Q 551 608 582 561 L 591 546 Z" style="fill: #0070C0;"></path>
                                                                        <path d="M 720 665 Q 777 681 823 686 Q 836 687 838 683 Q 845 670 839 639 Q 823 551 800 515 Q 785 491 764 496 Q 745 503 728 511 Q 709 520 721 499 Q 752 462 765 433 Q 780 414 796 428 Q 853 462 884 621 Q 891 661 908 679 Q 918 689 914 699 Q 907 709 864 729 Q 848 738 830 727 Q 815 718 756 706 Q 698 693 647 689 Q 632 689 629 681 Q 628 674 648 664 Q 657 658 692 657 L 720 665 Z" style="fill: #0070C0;"></path>
                                                                        <path d="M 692 657 Q 708 618 655 519 Q 633 477 600 435 Q 596 431 596 426 Q 596 422 601 423 Q 656 441 730 579 Q 733 597 751 620 Q 755 629 748 638 Q 736 656 720 665 C 695 681 684 686 692 657 Z" style="fill: #0070C0;"></path>
                                                                        <path d="M 493 347 Q 483 351 458 357 Q 446 361 443 356 Q 436 350 444 335 Q 475 253 488 122 Q 489 83 509 56 Q 525 34 531 49 Q 535 61 536 77 L 536 108 Q 523 210 508 314 C 504 343 504 343 493 347 Z" style="fill: #0070C0;"></path>
                                                                        <path d="M 744 88 Q 754 66 774 23 Q 781 7 791 8 Q 804 11 813 34 Q 841 91 857 262 Q 861 305 882 333 Q 898 351 887 363 Q 868 382 825 401 Q 809 411 779 400 Q 674 363 493 347 C 463 344 478 310 508 314 Q 511 314 613 330 L 647 336 Q 698 346 761 356 Q 785 360 796 349 Q 820 306 785 127 Q 784 111 776 108 Q 775 108 768 108 C 744 90 743 90 744 88 Z" style="fill: #0070C0;"></path>
                                                                        <path d="M 667 207 Q 710 214 749 216 Q 773 219 765 232 Q 755 247 729 253 Q 707 257 669 248 L 624 236 Q 588 229 556 221 Q 540 218 559 202 Q 568 195 587 197 Q 606 200 625 202 L 667 207 Z" style="fill: #0070C0;"></path>
                                                                        <path d="M 663 122 Q 664 168 667 207 L 669 248 Q 673 314 670 318 Q 658 330 647 336 C 621 352 603 358 613 330 Q 620 317 624 236 L 625 202 Q 625 168 626 117 C 627 87 662 92 663 122 Z" style="fill: #0070C0;"></path>
                                                                        <path d="M 536 77 Q 545 76 555 77 Q 616 87 744 88 C 774 88 789 88 768 108 Q 761 115 748 125 Q 730 137 663 122 L 626 117 Q 577 113 536 108 C 506 104 506 79 536 77 Z" style="fill: #0070C0;"></path>
                                    
                                    
                                                                                                                                                                                                                                                                                                                                                                                                                                                                                                                                                                                                                                                                                                                                                                                                                                                                                                                                                                                                                                                                                                        </g>
                            </svg>