<svg width='83' height='83' >
                                <g transform="translate(3, 70) scale(0.07, -0.07)">
                                    <!-- 先将完整的字以灰色字体绘制完成，层级位于下面 -->
                                                                        <path d="M 368 427 Q 386 445 402 608 Q 412 660 445 693 Q 461 709 445 723 Q 426 738 375 759 Q 362 765 311 749 Q 307 749 228 726 Q 192 714 170 709 Q 154 708 152 702 Q 148 698 165 688 Q 195 676 232 688 Q 329 718 348 712 Q 363 705 359 660 Q 343 492 331 458 Q 325 431 339 416 C 351 394 354 400 368 427 Z" style="fill: #0070C0;"></path>
                                                                        <path d="M 339 416 Q 272 400 250 393 Q 226 389 224 407 Q 233 557 246 587 Q 252 602 246 612 Q 231 628 208 639 Q 192 646 184 638 Q 178 634 185 623 Q 200 584 180 419 Q 177 401 172 382 Q 165 363 179 348 Q 197 333 219 345 Q 240 366 344 382 Q 374 385 386 372 Q 398 362 386 320 Q 379 259 366 194 Q 357 145 334 112 Q 327 103 310 106 Q 279 118 252 128 Q 239 134 239 127 Q 238 123 245 114 Q 291 62 306 28 Q 313 9 330 16 Q 390 41 405 109 Q 424 197 439 294 Q 446 330 464 359 Q 477 375 466 387 Q 450 406 414 427 Q 393 439 368 427 L 339 416 Z" style="fill: #0070C0;"></path>
                                                                        <path d="M 59 227 Q 46 226 45 214 Q 44 201 53 194 Q 77 179 111 162 Q 121 159 132 168 Q 157 192 293 265 Q 312 275 325 287 Q 338 294 338 304 Q 332 310 320 306 Q 107 228 59 227 Z" style="fill: #0070C0;"></path>
                                                                        <path d="M 599 675 Q 629 730 649 748 Q 656 757 652 769 Q 648 779 623 800 Q 599 815 583 815 Q 567 814 574 794 Q 592 758 521 638 Q 487 583 441 523 Q 432 514 431 509 Q 428 499 440 501 Q 465 504 526 580 L 539 596 Q 558 618 579 647 L 599 675 Z" style="fill: #0070C0;"></path>
                                                                        <path d="M 677 488 Q 717 545 759 613 Q 777 643 809 673 Q 824 686 817 695 Q 816 704 752 723 Q 737 730 688 703 Q 643 690 599 675 C 571 665 549 651 579 647 Q 606 638 676 661 Q 697 668 705 660 Q 709 653 697 629 Q 675 577 641 522 L 621 492 Q 579 425 461 310 Q 448 297 462 298 Q 472 299 515 326 Q 552 350 596 393 Q 624 421 652 456 L 677 488 Z" style="fill: #0070C0;"></path>
                                                                        <path d="M 652 456 Q 763 345 785 326 Q 815 296 880 307 Q 922 316 958 322 Q 971 323 982 330 Q 989 337 978 344 Q 963 351 848 383 Q 773 407 677 488 L 641 522 Q 617 546 593 571 Q 574 593 542 596 Q 539 597 539 596 C 509 600 500 595 526 580 Q 559 565 621 492 L 652 456 Z" style="fill: #0070C0;"></path>
                                                                        <path d="M 525 253 Q 512 257 492 260 Q 480 264 477 258 Q 470 252 479 236 Q 507 181 524 89 Q 528 61 544 43 Q 562 21 567 37 Q 571 47 570 65 L 566 98 Q 550 195 547 223 C 544 248 544 248 525 253 Z" style="fill: #0070C0;"></path>
                                                                        <path d="M 772 119 Q 802 198 833 219 Q 852 238 837 257 Q 759 321 697 290 Q 612 268 525 253 C 495 248 518 214 547 223 Q 551 224 559 227 Q 635 239 707 252 Q 726 256 734 248 Q 747 233 714 122 C 706 93 761 91 772 119 Z" style="fill: #0070C0;"></path>
                                                                        <path d="M 570 65 Q 576 64 587 66 Q 650 76 786 82 Q 796 83 799 92 Q 799 99 772 119 C 757 130 743 128 714 122 Q 632 106 566 98 C 536 94 540 66 570 65 Z" style="fill: #0070C0;"></path>
                                    
                                    
                                                                                                                                                                                                                                                                                                                                                                                                                                                                                                                                                                                                                                                                                                                                                                                        </g>
                            </svg>