<svg width='83' height='83' >
                                <g transform="translate(3, 70) scale(0.07, -0.07)">
                                    <!-- 先将完整的字以灰色字体绘制完成，层级位于下面 -->
                                                                        <path d="M 371 428 Q 390 449 407 592 Q 417 644 449 677 Q 465 695 449 708 Q 430 721 378 742 Q 363 749 310 730 Q 265 718 227 704 Q 190 691 165 685 Q 149 684 147 678 Q 144 674 161 664 Q 195 651 213 659 Q 249 675 332 695 Q 347 698 352 696 Q 365 689 362 649 Q 349 498 339 466 Q 335 448 341 433 Q 345 426 350 422 C 360 408 360 408 371 428 Z" style="fill: #0070C0;"></path>
                                                                        <path d="M 350 422 Q 332 413 317 410 Q 293 404 246 389 Q 221 385 219 404 Q 222 545 235 576 Q 241 591 234 601 Q 219 617 196 627 Q 180 633 172 625 Q 166 621 173 610 Q 185 585 175 413 Q 172 395 168 377 Q 161 358 175 343 Q 193 328 215 341 Q 234 362 328 377 Q 359 381 374 369 Q 387 359 375 313 Q 372 252 366 189 Q 362 140 342 107 Q 335 98 318 98 Q 285 108 256 117 Q 243 121 243 115 Q 243 111 250 103 Q 302 54 321 20 Q 328 1 346 11 Q 403 41 412 108 Q 424 195 430 291 Q 436 328 452 359 Q 465 375 453 387 Q 435 406 398 425 Q 385 432 371 428 L 350 422 Z" style="fill: #0070C0;"></path>
                                                                        <path d="M 44 207 Q 31 206 30 195 Q 29 182 38 174 Q 60 158 94 141 Q 104 140 116 148 Q 135 164 290 248 Q 311 258 325 271 Q 338 278 338 288 Q 332 294 320 290 Q 91 209 44 207 Z" style="fill: #0070C0;"></path>
                                                                        <path d="M 773 636 Q 682 621 584 595 Q 574 591 571 594 Q 568 598 574 607 Q 671 743 692 765 Q 704 775 698 787 Q 691 800 644 822 Q 628 829 618 825 Q 606 819 612 799 Q 633 736 533 621 Q 512 602 484 580 Q 471 568 475 558 Q 479 542 505 522 Q 517 512 529 522 Q 572 558 774 609 Q 783 612 791 615 C 819 625 803 641 773 636 Z" style="fill: #0070C0;"></path>
                                                                        <path d="M 791 615 Q 824 579 835 576 Q 844 575 849 585 Q 855 597 851 621 Q 850 643 819 665 Q 753 708 736 703 Q 732 700 731 689 Q 732 680 752 660 Q 762 650 773 636 L 791 615 Z" style="fill: #0070C0;"></path>
                                                                        <path d="M 535 490 Q 544 442 457 349 Q 450 345 458 343 Q 506 343 588 449 Q 592 453 594 456 Q 600 460 598 468 Q 597 475 588 484 Q 566 506 540 501 Q 533 500 535 490 Z" style="fill: #0070C0;"></path>
                                                                        <path d="M 733 485 Q 776 457 824 423 Q 837 413 852 414 Q 862 415 865 428 Q 868 443 857 468 Q 848 493 808 509 Q 718 536 704 527 Q 700 523 702 511 Q 706 501 733 485 Z" style="fill: #0070C0;"></path>
                                                                        <path d="M 619 348 Q 626 361 633 368 Q 640 380 637 388 Q 633 398 608 402 Q 583 406 572 402 Q 565 401 565 388 Q 559 313 430 168 Q 414 152 437 158 Q 476 170 557 260 L 573 280 Q 586 299 598 317 Q 599 320 601 322 L 619 348 Z" style="fill: #0070C0;"></path>
                                                                        <path d="M 660 150 Q 647 134 632 116 Q 581 68 452 29 Q 439 25 447 18 Q 454 12 481 16 Q 566 26 617 50 Q 657 72 691 112 L 718 150 Q 751 201 772 276 Q 779 309 799 325 Q 814 338 797 354 Q 778 370 746 382 Q 727 389 706 379 Q 670 360 621 349 Q 620 349 619 348 C 590 340 571 322 601 322 Q 622 318 698 336 Q 717 342 717 320 Q 717 254 680 184 L 660 150 Z" style="fill: #0070C0;"></path>
                                                                        <path d="M 557 260 Q 585 244 605 217 Q 633 183 660 150 L 691 112 Q 746 48 795 -3 Q 810 -19 835 -19 Q 965 -3 974 10 Q 977 16 967 19 Q 813 70 718 150 L 680 184 Q 643 220 599 265 Q 589 280 573 280 C 544 288 532 276 557 260 Z" style="fill: #0070C0;"></path>
                                    
                                    
                                                                                                                                                                                                                                                                                                                                                                                                                                                                                                                                                                                                                                                                                                                                                                                                                                                                    </g>
                            </svg>