<svg width='83' height='83' >
                                <g transform="translate(3, 70) scale(0.07, -0.07)">
                                    <!-- 先将完整的字以灰色字体绘制完成，层级位于下面 -->
                                                                        <path d="M 408 714 Q 430 720 453 724 Q 490 733 495 737 Q 502 744 498 751 Q 492 760 469 766 Q 441 772 412 757 L 363 742 Q 237 720 227 718 Q 197 714 218 699 Q 248 683 310 694 Q 335 700 364 705 L 408 714 Z" style="fill: #0070C0;"></path>
                                                                        <path d="M 399 637 Q 441 647 485 658 Q 485 659 487 660 Q 487 669 469 676 Q 450 688 403 675 L 363 663 Q 342 659 262 642 Q 240 638 258 626 Q 279 610 315 617 Q 336 623 362 628 L 399 637 Z" style="fill: #0070C0;"></path>
                                                                        <path d="M 394 592 Q 395 616 399 637 L 403 675 Q 404 694 408 714 L 412 757 Q 415 776 425 805 Q 428 812 412 825 Q 385 841 367 844 Q 354 848 348 841 Q 342 835 348 823 Q 363 801 363 742 L 364 705 Q 364 686 363 663 L 362 628 Q 362 607 361 583 C 360 553 392 562 394 592 Z" style="fill: #0070C0;"></path>
                                                                        <path d="M 371 554 Q 414 564 472 574 Q 485 575 485 581 Q 486 591 472 598 Q 451 607 434 602 Q 413 598 394 592 L 361 583 Q 217 552 170 546 Q 160 545 158 538 Q 157 531 168 522 Q 198 501 245 518 Q 293 536 331 544 L 371 554 Z" style="fill: #0070C0;"></path>
                                                                        <path d="M 376 521 Q 418 517 428 503 Q 431 497 425 474 Q 413 452 405 445 Q 404 444 401 444 Q 394 441 365 448 Q 341 458 338 453 Q 335 447 347 440 Q 377 410 379 397 Q 382 387 390 382 Q 397 378 420 392 Q 445 414 466 472 Q 472 482 476 485 Q 483 488 485 493 Q 486 500 472 516 Q 451 537 412 537 Q 397 540 380 544 C 351 551 346 524 376 521 Z" style="fill: #0070C0;"></path>
                                                                        <path d="M 380 544 Q 379 547 378 548 Q 375 552 371 554 C 348 574 341 572 331 544 Q 306 468 154 363 Q 148 362 154 358 Q 229 358 369 513 Q 372 517 376 521 C 387 534 387 534 380 544 Z" style="fill: #0070C0;"></path>
                                                                        <path d="M 599 708 Q 617 735 636 768 Q 648 790 658 802 Q 665 811 660 821 Q 656 831 632 847 Q 610 860 595 858 Q 580 855 588 839 Q 604 815 561 722 Q 540 680 511 633 Q 504 624 503 619 Q 500 610 512 613 Q 536 622 585 689 L 599 708 Z" style="fill: #0070C0;"></path>
                                                                        <path d="M 677 682 Q 831 721 836 724 Q 843 731 839 738 Q 832 748 807 753 Q 782 757 756 747 Q 722 734 684 724 Q 644 715 599 708 C 569 703 559 702 585 689 Q 612 674 648 677 L 677 682 Z" style="fill: #0070C0;"></path>
                                                                        <path d="M 665 539 Q 671 551 677 563 Q 701 617 712 629 Q 722 642 712 651 Q 691 675 677 682 C 652 698 643 704 648 677 Q 648 676 649 672 Q 658 633 628 569 L 614 540 Q 569 474 492 442 Q 485 439 479 436 Q 467 432 476 427 Q 518 418 577 449 Q 592 458 644 508 L 665 539 Z" style="fill: #0070C0;"></path>
                                                                        <path d="M 644 508 Q 755 397 785 396 Q 854 396 910 409 Q 938 415 936 422 Q 935 428 799 464 Q 742 480 665 539 L 628 569 Q 580 617 549 615 Q 534 615 532 611 Q 531 605 544 598 Q 565 586 578 572 Q 594 559 614 540 L 644 508 Z" style="fill: #0070C0;"></path>
                                                                        <path d="M 565 227 Q 571 234 585 264 Q 595 307 624 335 Q 640 350 625 362 Q 609 375 566 394 Q 554 400 504 386 Q 462 380 428 368 Q 394 359 371 356 Q 356 355 354 350 Q 350 346 366 336 Q 396 321 415 328 Q 448 340 525 351 Q 538 352 543 350 Q 549 349 547 331 Q 535 232 536 228 Q 537 227 538 223 C 543 193 549 202 565 227 Z" style="fill: #0070C0;"></path>
                                                                        <path d="M 400 155 Q 469 200 676 208 Q 707 209 719 198 Q 731 186 717 145 Q 713 112 706 78 Q 702 53 689 35 Q 682 26 664 29 Q 639 36 617 44 Q 604 50 602 43 Q 602 39 609 30 Q 649 -21 660 -53 Q 667 -74 685 -65 Q 742 -41 754 18 Q 778 154 793 177 Q 794 181 798 185 Q 811 201 799 213 Q 783 232 746 254 Q 725 266 698 254 Q 653 236 612 233 Q 591 232 565 227 L 538 223 Q 490 217 433 206 Q 417 196 410 212 Q 425 264 425 267 Q 415 283 395 296 Q 382 303 374 298 Q 368 295 373 284 Q 380 260 362 200 Q 361 199 360 196 Q 353 178 365 163 Q 381 145 400 155 Z" style="fill: #0070C0;"></path>
                                                                        <path d="M 415 77 Q 448 78 478 83 Q 544 89 645 84 Q 664 83 670 89 Q 676 99 665 110 Q 640 132 604 148 Q 591 152 570 145 Q 524 133 380 115 Q 307 108 270 101 Q 228 94 167 92 Q 155 92 155 83 Q 155 73 170 61 Q 185 51 211 42 Q 220 38 235 46 Q 301 64 415 77 Z" style="fill: #0070C0;"></path>
                                    
                                    
                                                                                                                                                                                                                                                                                                                                                                                                                                                                                                                                                                                                                                                                                                                                                                                                                                                                                                                                                                                                                                                                                                        </g>
                            </svg>