<svg width='83' height='83' >
                                <g transform="translate(3, 70) scale(0.07, -0.07)">
                                    <!-- 先将完整的字以灰色字体绘制完成，层级位于下面 -->
                                                                        <path d="M 388 756 Q 366 772 338 782 Q 325 786 316 780 Q 309 774 316 760 Q 346 706 369 513 C 373 483 409 489 407 519 Q 403 577 399 619 L 398 645 Q 398 649 398 653 Q 397 707 398 723 C 399 748 399 748 388 756 Z" style="fill: #0070C0;"></path>
                                                                        <path d="M 669 558 Q 682 702 724 750 Q 740 771 723 788 Q 705 801 649 822 Q 630 829 608 818 Q 530 784 388 756 C 359 750 369 716 398 723 Q 609 771 615 768 Q 618 767 621 764 Q 637 752 636 722 Q 632 626 618 550 C 613 520 666 528 669 558 Z" style="fill: #0070C0;"></path>
                                                                        <path d="M 534 539 Q 543 603 557 630 Q 564 637 560 646 Q 554 656 513 671 Q 507 674 398 645 C 369 637 369 619 399 619 Q 409 618 418 622 Q 484 646 493 641 Q 500 637 496 533 C 495 503 530 509 534 539 Z" style="fill: #0070C0;"></path>
                                                                        <path d="M 220 492 Q 208 516 197 523 Q 178 538 176 510 Q 180 480 147 430 Q 111 387 114 366 Q 120 333 131 315 Q 147 288 167 317 Q 183 344 196 384 Q 209 429 220 456 C 228 477 228 477 220 492 Z" style="fill: #0070C0;"></path>
                                                                        <path d="M 220 456 Q 239 447 263 453 Q 393 492 672 528 Q 763 540 786 536 Q 805 526 803 518 Q 803 515 769 439 Q 762 426 769 421 Q 776 417 793 429 Q 850 469 897 482 Q 934 495 934 503 Q 933 513 858 568 Q 837 584 813 580 Q 746 571 669 558 L 618 550 Q 579 546 534 539 L 496 533 Q 454 529 407 519 L 369 513 Q 354 513 339 509 Q 279 500 220 492 C 190 488 191 462 220 456 Z" style="fill: #0070C0;"></path>
                                                                        <path d="M 403 175 Q 404 218 409 252 L 411 276 Q 415 342 421 365 C 425 386 425 386 416 396 Q 395 423 356 423 Q 343 419 347 406 Q 396 292 337 97 Q 315 40 315 34 Q 315 1 334 -25 Q 341 -40 352 -34 Q 389 -13 399 112 Q 400 133 401 151 L 403 175 Z" style="fill: #0070C0;"></path>
                                                                        <path d="M 421 365 Q 433 365 573 399 Q 594 406 599 395 Q 618 343 619 115 Q 619 55 609 40 Q 606 37 524 44 Q 502 48 505 39 Q 568 -6 604 -40 Q 620 -59 636 -64 Q 646 -67 654 -56 Q 694 1 691 54 Q 655 334 680 383 Q 693 404 680 415 Q 656 434 618 449 Q 599 456 582 448 Q 513 409 416 396 C 386 391 391 360 421 365 Z" style="fill: #0070C0;"></path>
                                                                        <path d="M 409 252 Q 415 251 424 252 Q 496 265 548 273 Q 570 277 561 289 Q 551 302 527 306 Q 490 309 411 276 C 383 265 379 255 409 252 Z" style="fill: #0070C0;"></path>
                                                                        <path d="M 401 151 Q 407 150 418 151 Q 494 163 551 169 Q 573 173 565 185 Q 555 198 531 203 Q 497 207 403 175 C 375 165 371 154 401 151 Z" style="fill: #0070C0;"></path>
                                    
                                    
                                                                                                                                                                                                                                                                                                                                                                                                                                                                                                                                                                                                                                                                                                                                                                                        </g>
                            </svg>