<svg width='83' height='83' >
                                <g transform="translate(3, 70) scale(0.07, -0.07)">
                                    <!-- 先将完整的字以灰色字体绘制完成，层级位于下面 -->
                                                                        <path d="M 227 733 Q 214 743 197 747 Q 185 751 178 745 Q 172 741 178 727 Q 194 699 203 668 Q 209 637 224 509 C 228 479 258 486 256 516 Q 252 567 251 605 L 250 629 Q 250 633 250 636 Q 249 685 250 697 Q 250 703 249 708 C 248 719 248 719 227 733 Z" style="fill: #0070C0;"></path>
                                                                        <path d="M 445 553 Q 458 682 494 720 Q 507 738 493 753 Q 424 796 372 771 Q 321 753 227 733 C 198 727 219 703 249 708 Q 253 708 384 734 Q 397 738 403 732 Q 416 722 417 697 Q 413 612 399 544 C 393 515 442 523 445 553 Z" style="fill: #0070C0;"></path>
                                                                        <path d="M 351 535 Q 355 599 372 619 Q 385 641 366 649 Q 350 655 328 665 Q 312 669 300 660 Q 290 650 274 641 Q 264 635 250 629 C 223 617 221 600 251 605 Q 261 606 273 612 Q 289 616 301 619 Q 310 622 313 618 Q 319 614 313 528 C 311 498 349 505 351 535 Z" style="fill: #0070C0;"></path>
                                                                        <path d="M 167 500 Q 155 519 145 525 Q 129 535 129 514 Q 135 484 96 431 Q 74 413 103 358 Q 116 337 132 362 Q 144 384 151 415 Q 161 452 168 476 C 173 492 173 492 167 500 Z" style="fill: #0070C0;"></path>
                                                                        <path d="M 168 476 Q 186 467 230 479 Q 320 510 434 523 Q 449 526 455 525 Q 468 518 468 512 Q 459 479 449 445 Q 455 442 467 451 Q 507 479 540 488 Q 568 495 567 503 Q 566 510 509 551 Q 488 566 445 553 L 399 544 Q 387 543 376 540 Q 363 539 351 535 L 313 528 Q 285 524 256 516 L 224 509 Q 196 505 167 500 C 137 495 139 483 168 476 Z" style="fill: #0070C0;"></path>
                                                                        <path d="M 256 223 Q 257 266 261 297 L 264 327 Q 267 373 270 391 Q 270 394 270 395 C 272 412 272 412 261 420 Q 243 438 214 438 Q 202 434 207 424 Q 250 328 200 135 Q 170 63 197 28 Q 203 16 213 21 Q 250 49 252 163 Q 252 181 254 196 L 256 223 Z" style="fill: #0070C0;"></path>
                                                                        <path d="M 270 395 Q 282 396 355 421 Q 370 427 376 420 Q 380 408 382 389 Q 391 211 384 104 Q 384 85 378 75 Q 374 71 360 74 Q 338 81 317 89 Q 301 96 300 88 Q 343 42 366 9 Q 376 -7 390 -12 Q 397 -16 405 -8 Q 441 34 441 91 Q 420 367 439 409 Q 449 425 439 434 Q 420 449 390 461 Q 374 467 361 460 Q 334 444 318 436 Q 297 429 261 420 C 232 413 241 388 270 395 Z" style="fill: #0070C0;"></path>
                                                                        <path d="M 261 297 Q 262 297 267 297 Q 310 303 341 306 Q 362 310 353 321 Q 343 334 321 337 Q 299 338 264 327 C 235 318 231 297 261 297 Z" style="fill: #0070C0;"></path>
                                                                        <path d="M 254 196 Q 258 196 265 196 Q 313 202 348 205 Q 370 209 361 221 Q 351 234 327 238 Q 287 244 256 223 C 231 207 224 196 254 196 Z" style="fill: #0070C0;"></path>
                                                                        <path d="M 710 440 Q 777 453 884 457 Q 929 457 937 467 Q 941 479 925 491 Q 867 525 805 505 Q 766 496 716 483 L 663 471 Q 591 458 510 441 Q 491 438 506 423 Q 519 411 537 407 Q 556 403 572 409 Q 612 422 659 431 L 710 440 Z" style="fill: #0070C0;"></path>
                                                                        <path d="M 689 294 Q 699 369 710 440 L 716 483 Q 735 657 761 720 Q 765 733 746 752 Q 709 776 683 782 Q 665 788 656 779 Q 646 772 654 754 Q 679 711 676 684 Q 673 582 663 471 L 659 431 Q 652 361 642 283 C 638 253 685 264 689 294 Z" style="fill: #0070C0;"></path>
                                                                        <path d="M 574 272 Q 562 279 529 285 Q 516 289 513 283 Q 506 277 515 261 Q 543 194 560 86 Q 561 55 580 32 Q 598 10 603 25 Q 607 38 607 56 L 604 92 Q 604 93 604 96 Q 588 204 583 240 C 579 270 579 270 574 272 Z" style="fill: #0070C0;"></path>
                                                                        <path d="M 821 120 Q 848 220 884 245 Q 900 264 886 283 Q 868 298 813 323 Q 794 330 771 322 Q 728 306 689 294 L 642 283 Q 608 279 574 272 C 545 266 554 234 583 240 Q 770 277 778 274 Q 779 273 782 271 Q 792 261 790 238 Q 778 171 763 117 C 755 88 813 91 821 120 Z" style="fill: #0070C0;"></path>
                                                                        <path d="M 607 56 Q 617 56 626 57 Q 696 70 846 76 Q 856 77 859 86 Q 860 95 828 117 Q 825 118 821 120 L 763 117 Q 675 101 604 92 C 574 88 577 55 607 56 Z" style="fill: #0070C0;"></path>
                                    
                                    
                                                                                                                                                                                                                                                                                                                                                                                                                                                                                                                                                                                                                                                                                                                                                                                                                                                                                                                                                                                                                                                                                                                                                                                    </g>
                            </svg>