<svg width='83' height='83' >
                                <g transform="translate(3, 70) scale(0.07, -0.07)">
                                    <!-- 先将完整的字以灰色字体绘制完成，层级位于下面 -->
                                                                        <path d="M 326 760 Q 344 757 425 772 Q 456 781 491 788 Q 516 795 520 799 Q 526 805 523 811 Q 517 820 495 824 Q 473 828 450 818 Q 422 808 391 798 Q 357 789 317 784 Q 313 784 312 782 C 284 772 296 762 326 760 Z" style="fill: #0070C0;"></path>
                                                                        <path d="M 329 563 Q 328 590 327 612 L 326 627 Q 325 658 325 683 L 324 699 Q 324 729 326 760 C 327 772 327 772 312 782 Q 294 795 272 803 Q 260 807 252 802 Q 245 796 251 783 Q 267 753 276 720 Q 282 689 294 555 C 297 525 330 533 329 563 Z" style="fill: #0070C0;"></path>
                                                                        <path d="M 325 683 Q 332 679 348 682 Q 420 698 474 707 Q 493 711 485 722 Q 475 734 454 736 Q 424 739 324 699 C 303 691 303 691 325 683 Z" style="fill: #0070C0;"></path>
                                                                        <path d="M 327 612 Q 333 609 400 621 Q 445 633 482 639 Q 501 643 493 654 Q 483 666 462 668 Q 444 669 326 627 C 298 617 297 615 327 612 Z" style="fill: #0070C0;"></path>
                                                                        <path d="M 348 537 Q 423 555 519 569 Q 532 570 533 576 Q 534 586 520 594 Q 498 604 479 599 Q 388 577 329 563 L 294 555 Q 188 534 127 527 Q 117 526 114 520 Q 113 511 124 502 Q 154 481 197 494 Q 252 513 300 525 L 348 537 Z" style="fill: #0070C0;"></path>
                                                                        <path d="M 451 476 Q 372 452 291 426 Q 285 425 283 426 Q 282 427 286 431 Q 335 495 356 512 Q 366 522 360 530 Q 356 534 348 537 C 322 552 301 555 300 525 Q 303 488 258 440 Q 245 425 220 413 Q 201 403 200 394 Q 200 381 209 366 Q 218 351 228 348 Q 235 347 243 351 Q 300 402 455 460 Q 458 461 461 462 C 489 472 480 485 451 476 Z" style="fill: #0070C0;"></path>
                                                                        <path d="M 461 462 Q 485 429 496 426 Q 503 425 510 433 Q 516 443 514 465 Q 511 495 439 534 Q 429 538 424 538 Q 420 537 419 527 Q 420 518 435 499 Q 442 489 451 476 L 461 462 Z" style="fill: #0070C0;"></path>
                                                                        <path d="M 705 830 Q 693 779 557 678 Q 538 668 561 668 Q 618 668 721 759 Q 724 766 764 797 Q 773 807 772 815 Q 771 825 749 834 Q 725 844 715 842 Q 708 841 705 830 Z" style="fill: #0070C0;"></path>
                                                                        <path d="M 752 736 Q 730 675 573 573 Q 555 563 577 564 Q 631 561 757 661 Q 760 668 805 703 Q 815 710 814 719 Q 813 729 793 738 Q 771 748 761 747 Q 755 746 752 736 Z" style="fill: #0070C0;"></path>
                                                                        <path d="M 795 632 Q 768 562 574 462 Q 553 452 577 451 Q 650 448 793 546 Q 796 553 852 589 Q 862 598 863 607 Q 862 619 841 630 Q 819 643 807 643 Q 800 643 795 632 Z" style="fill: #0070C0;"></path>
                                                                        <path d="M 498 350 Q 570 369 628 375 Q 650 378 655 371 Q 659 365 658 350 Q 657 310 647 290 Q 625 257 595 266 Q 570 273 547 281 Q 522 288 540 266 Q 580 227 599 197 Q 608 181 621 189 Q 666 205 711 320 Q 721 348 736 360 Q 749 373 744 383 Q 735 395 686 421 Q 667 431 646 420 Q 621 405 523 387 Q 426 365 343 362 Q 325 361 322 352 Q 321 345 344 332 Q 369 316 389 322 Q 423 332 455 339 L 498 350 Z" style="fill: #0070C0;"></path>
                                                                        <path d="M 374 144 Q 435 195 484 263 Q 500 282 518 300 Q 527 307 524 317 Q 521 327 498 350 C 477 372 462 368 455 339 Q 425 198 199 91 Q 165 79 172 71 Q 178 67 189 68 Q 264 80 341 121 L 374 144 Z" style="fill: #0070C0;"></path>
                                                                        <path d="M 402 134 Q 395 138 374 144 C 345 152 329 148 341 121 Q 363 73 379 -4 Q 382 -29 396 -44 Q 414 -66 419 -51 Q 422 -44 422 -32 L 420 4 Q 410 74 408 101 C 406 131 405 132 402 134 Z" style="fill: #0070C0;"></path>
                                                                        <path d="M 702 28 Q 727 91 755 108 Q 771 127 758 145 Q 680 208 625 177 Q 534 150 402 134 C 372 130 378 97 408 101 Q 411 101 626 136 Q 650 142 659 131 Q 668 122 651 37 C 645 8 690 0 702 28 Z" style="fill: #0070C0;"></path>
                                                                        <path d="M 422 -32 Q 432 -33 442 -32 Q 527 -16 713 -8 Q 725 -7 726 2 Q 727 9 702 28 L 651 37 Q 648 38 646 37 Q 520 13 420 4 C 390 1 392 -31 422 -32 Z" style="fill: #0070C0;"></path>
                                    
                                    
                                                                                                                                                                                                                                                                                                                                                                                                                                                                                                                                                                                                                                                                                                                                                                                                                                                                                                                                                                                                                                                                                                                                                                                                                                                                </g>
                            </svg>