<svg width='83' height='83' >
                                <g transform="translate(3, 70) scale(0.07, -0.07)">
                                    <!-- 先将完整的字以灰色字体绘制完成，层级位于下面 -->
                                                                        <path d="M 335 757 Q 298 753 324 734 Q 361 707 423 721 Q 534 740 649 761 Q 701 771 710 779 Q 720 786 715 796 Q 708 808 678 816 Q 647 823 616 812 Q 556 793 491 778 Q 419 763 335 757 Z" style="fill: #0070C0;"></path>
                                                                        <path d="M 368 646 Q 359 650 337 651 Q 325 654 323 649 Q 317 642 326 628 Q 351 585 370 513 Q 374 491 388 478 Q 406 459 410 473 Q 411 480 412 491 L 408 523 Q 392 598 391 619 C 389 639 389 639 368 646 Z" style="fill: #0070C0;"></path>
                                                                        <path d="M 638 550 Q 663 610 690 624 Q 706 640 694 658 Q 625 715 572 689 Q 491 662 368 646 C 338 642 362 612 391 619 Q 397 620 406 623 Q 491 638 573 654 Q 594 658 603 650 Q 613 637 588 557 C 579 528 626 522 638 550 Z" style="fill: #0070C0;"></path>
                                                                        <path d="M 412 491 Q 415 491 420 492 Q 492 508 648 520 Q 658 521 659 529 Q 659 536 638 550 C 618 564 617 563 588 557 Q 488 535 408 523 C 378 518 382 487 412 491 Z" style="fill: #0070C0;"></path>
                                                                        <path d="M 240 394 Q 234 401 226 404 Q 195 417 176 414 Q 163 408 169 397 Q 223 301 190 139 Q 166 69 205 28 Q 212 15 224 22 Q 254 49 252 154 Q 246 308 247 355 C 247 385 247 388 240 394 Z" style="fill: #0070C0;"></path>
                                                                        <path d="M 608 414 Q 663 421 746 425 Q 762 426 768 418 Q 777 411 778 370 Q 787 196 767 97 Q 760 57 725 62 Q 689 68 657 72 Q 642 76 642 69 Q 641 62 653 50 Q 729 -10 750 -41 Q 760 -57 771 -54 Q 786 -53 799 -25 Q 821 15 829 62 Q 842 125 848 348 Q 849 388 861 410 Q 880 432 864 439 Q 848 455 807 473 Q 786 486 728 470 Q 404 427 380 421 Q 308 405 240 394 C 210 389 218 347 247 355 Q 325 382 562 410 Q 568 411 578 411 L 608 414 Z" style="fill: #0070C0;"></path>
                                                                        <path d="M 380 321 Q 422 257 435 254 Q 442 253 449 261 Q 456 271 454 295 Q 451 322 384 358 Q 374 362 368 362 Q 364 361 362 350 Q 363 341 380 321 Z" style="fill: #0070C0;"></path>
                                                                        <path d="M 578 411 Q 584 387 544 314 Q 537 299 534 289 Q 533 279 545 284 Q 555 287 605 345 Q 612 355 625 366 Q 638 373 633 383 Q 627 396 608 414 C 586 435 574 441 578 411 Z" style="fill: #0070C0;"></path>
                                                                        <path d="M 528 214 Q 553 220 670 232 Q 680 231 689 243 Q 690 253 668 264 Q 641 285 581 267 Q 415 237 332 227 Q 305 224 326 207 Q 347 191 390 190 Q 429 199 477 205 L 528 214 Z" style="fill: #0070C0;"></path>
                                                                        <path d="M 477 205 Q 471 52 496 26 Q 506 16 516 38 Q 537 83 528 214 C 526 244 478 235 477 205 Z" style="fill: #0070C0;"></path>
                                    
                                    
                                                                                                                                                                                                                                                                                                                                                                                                                                                                                                                                                                                                                                                                                                                                                                                                                                                                    </g>
                            </svg>