<svg width='83' height='83' >
                                <g transform="translate(3, 70) scale(0.07, -0.07)">
                                    <!-- 先将完整的字以灰色字体绘制完成，层级位于下面 -->
                                                                        <path d="M 205 618 Q 227 651 291 754 Q 301 775 319 792 Q 335 808 319 820 Q 301 830 273 833 Q 248 837 237 830 Q 227 824 235 814 Q 251 790 185 614 Q 184 614 184 613 C 171 586 188 593 205 618 Z" style="fill: #0070C0;"></path>
                                                                        <path d="M 123 601 Q 114 605 95 609 Q 85 612 81 607 Q 75 601 82 587 Q 109 526 123 425 Q 124 395 142 375 Q 157 354 162 369 Q 163 373 165 379 L 166 400 Q 166 415 163 434 Q 145 542 143 573 Q 143 574 144 574 C 145 593 145 593 123 601 Z" style="fill: #0070C0;"></path>
                                                                        <path d="M 318 397 Q 331 378 345 370 Q 354 364 366 382 Q 381 407 405 545 Q 412 570 431 592 Q 441 602 432 614 Q 419 627 383 648 Q 370 654 301 638 Q 300 638 205 618 L 184 613 Q 150 606 123 601 C 94 595 115 565 144 574 Q 174 584 219 593 L 248 599 Q 335 620 353 608 Q 366 598 363 578 Q 341 431 322 419 C 312 405 312 405 318 397 Z" style="fill: #0070C0;"></path>
                                                                        <path d="M 264 489 Q 286 493 310 497 Q 328 501 321 510 Q 312 520 293 524 Q 281 525 266 522 L 227 510 Q 203 501 181 494 Q 168 490 184 479 Q 185 479 228 482 L 264 489 Z" style="fill: #0070C0;"></path>
                                                                        <path d="M 260 421 Q 261 458 264 489 L 266 522 Q 272 577 268 583 Q 258 593 248 599 C 223 615 212 622 219 593 Q 226 566 227 510 L 228 482 Q 228 454 228 414 C 228 384 259 391 260 421 Z" style="fill: #0070C0;"></path>
                                                                        <path d="M 165 379 Q 169 378 177 379 Q 256 391 318 397 C 348 400 349 405 322 419 Q 315 423 305 426 Q 289 429 260 421 L 228 414 Q 194 407 166 400 C 137 393 135 382 165 379 Z" style="fill: #0070C0;"></path>
                                                                        <path d="M 175 321 Q 194 276 121 158 Q 90 109 49 60 Q 45 56 44 50 Q 44 46 49 47 Q 118 63 210 239 Q 220 261 234 282 Q 238 291 232 301 Q 219 320 205 329 Q 195 336 182 336 Q 169 336 175 321 Z" style="fill: #0070C0;"></path>
                                                                        <path d="M 266 270 Q 253 119 261 87 Q 273 41 308 11 Q 416 -85 742 -63 Q 889 -48 946 -20 Q 976 -4 962 28 Q 946 56 928 108 Q 924 123 917 126 Q 910 130 908 111 Q 901 48 891 37 Q 869 0 799 -10 Q 705 -23 578 -17 Q 430 -7 371 22 Q 316 52 305 87 Q 296 115 300 186 Q 310 264 326 298 Q 339 325 323 342 Q 280 379 265 376 Q 250 372 257 355 Q 273 321 266 270 Z" style="fill: #0070C0;"></path>
                                                                        <path d="M 440 235 Q 412 231 391 225 Q 373 221 380 234 Q 402 280 424 316 Q 431 328 429 332 Q 426 341 400 356 Q 390 363 378 358 Q 371 355 377 347 Q 389 326 362 253 Q 356 237 342 221 Q 333 211 335 203 Q 339 193 350 183 Q 357 177 364 183 Q 385 202 445 222 C 473 232 470 239 440 235 Z" style="fill: #0070C0;"></path>
                                                                        <path d="M 445 222 Q 451 215 457 206 Q 461 202 465 204 C 483 208 483 208 476 232 Q 475 236 474 238 Q 465 253 445 274 Q 439 278 434 279 Q 431 280 429 274 Q 426 268 440 235 L 445 222 Z" style="fill: #0070C0;"></path>
                                                                        <path d="M 689 630 Q 692 667 695 702 L 697 726 Q 697 729 698 730 Q 698 745 706 764 Q 707 771 693 783 Q 666 796 648 799 Q 636 800 630 794 Q 624 788 631 778 Q 641 765 643 755 Q 652 694 656 624 C 658 594 687 600 689 630 Z" style="fill: #0070C0;"></path>
                                                                        <path d="M 695 702 Q 761 702 821 731 L 822 731 Q 828 738 823 744 Q 817 751 795 754 Q 786 754 724 734 Q 711 731 697 726 C 669 716 665 702 695 702 Z" style="fill: #0070C0;"></path>
                                                                        <path d="M 566 576 Q 710 612 787 626 Q 815 627 816 616 Q 817 604 799 559 Q 793 547 799 545 Q 805 542 814 552 Q 868 600 890 610 Q 908 616 906 626 Q 905 636 847 662 Q 831 669 809 662 Q 745 643 689 630 L 656 624 Q 608 617 552 606 C 523 600 537 569 566 576 Z" style="fill: #0070C0;"></path>
                                                                        <path d="M 465 204 Q 455 185 446 163 Q 433 132 416 101 Q 412 97 411 91 Q 410 82 418 85 Q 451 94 509 217 Q 512 226 516 233 Q 556 353 561 494 Q 564 563 566 576 C 568 596 568 596 552 606 Q 519 630 501 621 Q 492 615 498 605 Q 543 551 503 323 Q 494 283 476 232 L 465 204 Z" style="fill: #0070C0;"></path>
                                                                        <path d="M 675 503 Q 693 509 770 530 Q 776 529 780 537 Q 780 544 766 548 Q 745 555 684 532 Q 680 531 678 529 L 646 519 Q 636 518 628 514 Q 609 510 588 505 Q 572 501 586 492 Q 605 480 645 494 L 675 503 Z" style="fill: #0070C0;"></path>
                                                                        <path d="M 645 494 Q 642 449 662 429 Q 707 389 796 411 Q 815 417 835 432 Q 847 442 838 457 Q 831 472 817 517 Q 817 527 812 529 Q 809 530 807 521 Q 794 470 783 455 Q 771 440 724 443 Q 708 444 694 451 Q 682 457 679 465 Q 676 474 675 503 L 678 529 Q 679 539 682 548 Q 686 560 678 566 Q 669 575 655 581 Q 646 584 641 580 Q 637 579 640 566 Q 647 544 646 519 L 645 494 Z" style="fill: #0070C0;"></path>
                                                                        <path d="M 683 157 Q 684 251 685 323 Q 688 356 684 361 Q 668 376 652 383 Q 645 384 638 382 Q 632 379 635 372 Q 645 354 651 243 L 651 222 Q 651 194 653 152 C 654 122 683 127 683 157 Z" style="fill: #0070C0;"></path>
                                                                        <path d="M 757 172 Q 760 203 764 231 L 768 256 Q 768 272 787 359 Q 790 366 777 376 Q 755 389 740 393 Q 730 396 724 390 Q 718 386 723 376 Q 736 357 735 344 Q 736 262 729 166 C 727 136 754 142 757 172 Z" style="fill: #0070C0;"></path>
                                                                        <path d="M 651 243 Q 635 240 618 235 Q 605 231 603 233 Q 600 234 600 244 Q 610 310 609 314 Q 602 324 582 335 Q 572 342 565 340 Q 558 337 563 326 Q 576 301 573 266 Q 572 238 562 224 Q 556 211 563 196 Q 573 180 585 187 Q 606 200 651 222 C 678 235 680 249 651 243 Z" style="fill: #0070C0;"></path>
                                                                        <path d="M 853 268 Q 856 277 894 352 Q 898 358 888 370 Q 872 388 857 394 Q 848 398 842 395 Q 836 392 839 382 Q 845 364 824 271 C 817 242 842 240 853 268 Z" style="fill: #0070C0;"></path>
                                    
                                    
                                                                                                                                                                                                                                                                                                                                                                                                                                                                                                                                                                                                                                                                                                                                                                                                                                                                                                                                                                                                                                                                                                                                                                                                                                                                                                                                                                                                                                                                                                                                                                                                                                                            </g>
                            </svg>