<svg width='83' height='83' >
                                <g transform="translate(3, 70) scale(0.07, -0.07)">
                                    <!-- 先将完整的字以灰色字体绘制完成，层级位于下面 -->
                                                                        <path d="M 282 672 Q 315 724 338 747 Q 347 756 343 768 Q 339 780 315 800 Q 293 816 275 817 Q 259 816 266 796 Q 281 760 212 652 Q 179 603 134 547 Q 125 538 123 533 Q 120 523 133 525 Q 172 531 269 655 L 282 672 Z" style="fill: #0070C0;"></path>
                                                                        <path d="M 332 513 Q 437 645 455 659 Q 471 669 459 681 Q 446 691 412 710 Q 403 713 322 683 Q 298 676 282 672 C 253 664 249 663 269 655 Q 281 643 356 660 Q 363 661 365 659 Q 369 656 365 645 Q 332 560 311 520 Q 307 513 305 507 C 293 479 313 490 332 513 Z" style="fill: #0070C0;"></path>
                                                                        <path d="M 177 479 Q 167 483 142 489 Q 130 492 127 487 Q 120 481 128 466 Q 158 400 173 293 Q 174 262 193 239 Q 209 218 215 233 Q 216 239 218 246 L 219 272 Q 218 285 215 303 Q 196 414 193 448 Q 193 449 194 450 C 195 473 195 473 177 479 Z" style="fill: #0070C0;"></path>
                                                                        <path d="M 370 270 Q 383 251 397 246 Q 407 239 419 259 Q 432 284 453 417 Q 460 445 479 468 Q 491 478 480 491 Q 465 506 427 527 Q 415 531 344 516 Q 338 516 332 513 L 305 507 Q 275 503 245 494 Q 208 485 177 479 C 148 473 165 441 194 450 Q 222 460 266 468 L 299 474 Q 381 495 395 483 Q 408 468 406 453 Q 391 329 382 310 Q 378 300 368 296 C 357 286 357 286 370 270 Z" style="fill: #0070C0;"></path>
                                                                        <path d="M 319 372 Q 343 378 365 380 Q 384 383 377 394 Q 368 406 347 409 Q 337 410 321 407 L 276 395 Q 249 386 226 378 Q 211 375 229 363 Q 232 362 277 365 L 319 372 Z" style="fill: #0070C0;"></path>
                                                                        <path d="M 314 297 Q 315 337 319 372 L 321 407 Q 321 425 323 433 Q 329 451 299 474 C 276 493 259 497 266 468 Q 272 444 276 395 L 277 365 Q 277 334 278 286 C 279 256 313 267 314 297 Z" style="fill: #0070C0;"></path>
                                                                        <path d="M 218 246 Q 227 246 238 247 Q 278 259 370 270 C 400 274 393 279 368 296 Q 364 299 360 301 Q 339 310 314 297 L 278 286 Q 245 280 219 272 C 190 263 188 246 218 246 Z" style="fill: #0070C0;"></path>
                                                                        <path d="M 87 144 Q 74 143 73 134 Q 70 121 79 113 Q 100 97 131 78 Q 141 75 152 83 Q 182 104 365 181 Q 390 191 409 204 Q 421 211 422 219 Q 418 225 405 223 Q 147 142 87 144 Z" style="fill: #0070C0;"></path>
                                                                        <path d="M 620 530 Q 690 548 829 568 Q 841 567 849 580 Q 850 593 826 603 Q 790 625 702 595 Q 675 591 629 576 L 582 567 Q 573 567 488 554 Q 458 550 481 532 Q 515 510 558 517 Q 564 518 573 520 L 620 530 Z" style="fill: #0070C0;"></path>
                                                                        <path d="M 587 401 Q 605 458 620 530 L 629 576 Q 647 705 672 754 Q 682 772 674 782 Q 662 807 604 815 Q 588 819 572 808 Q 563 798 574 787 Q 607 762 602 695 Q 596 635 582 567 L 573 520 Q 551 417 514 334 Q 475 246 379 109 Q 370 93 382 92 Q 388 92 399 102 Q 450 145 491 202 Q 522 248 550 305 L 558 323 Q 573 369 577 373 L 587 401 Z" style="fill: #0070C0;"></path>
                                                                        <path d="M 713 184 Q 753 242 778 337 Q 785 370 803 386 Q 819 399 801 415 Q 782 430 750 442 Q 729 449 709 438 Q 660 413 593 402 Q 589 402 587 401 C 557 396 547 372 577 373 Q 595 370 702 395 Q 723 402 722 379 Q 722 301 676 219 L 654 185 Q 645 175 635 162 Q 584 110 452 69 Q 439 65 447 58 Q 454 52 481 57 Q 620 73 683 145 L 713 184 Z" style="fill: #0070C0;"></path>
                                                                        <path d="M 683 145 Q 720 99 766 51 Q 779 33 806 32 Q 882 25 947 29 Q 980 30 978 40 Q 975 46 827 107 Q 782 128 713 184 L 676 219 Q 648 250 619 284 Q 588 321 558 323 C 529 329 527 324 550 305 Q 583 281 654 185 L 683 145 Z" style="fill: #0070C0;"></path>
                                                                        <path d="M 769 705 Q 785 686 802 661 Q 812 648 826 647 Q 835 646 841 657 Q 847 669 843 696 Q 842 711 819 725 Q 765 755 752 751 Q 748 748 747 737 Q 748 727 769 705 Z" style="fill: #0070C0;"></path>
                                    
                                    
                                                                                                                                                                                                                                                                                                                                                                                                                                                                                                                                                                                                                                                                                                                                                                                                                                                                                                                                                                                                                                                                                                        </g>
                            </svg>