<svg width='83' height='83' >
                                <g transform="translate(3, 70) scale(0.07, -0.07)">
                                    <!-- 先将完整的字以灰色字体绘制完成，层级位于下面 -->
                                                                        <path d="M 297 682 Q 363 772 363 775 Q 362 778 362 780 Q 359 790 335 812 Q 313 828 296 830 Q 280 829 286 809 Q 310 752 143 555 Q 133 546 131 541 Q 128 531 141 533 Q 180 537 279 659 L 297 682 Z" style="fill: #0070C0;"></path>
                                                                        <path d="M 332 511 Q 350 532 391 587 Q 427 638 463 667 Q 479 677 467 689 Q 454 699 420 718 Q 411 721 328 691 Q 325 691 297 682 C 268 673 249 664 279 659 Q 295 653 364 668 Q 371 669 373 667 Q 377 664 373 653 Q 340 568 319 528 Q 312 515 310 506 C 301 478 313 488 332 511 Z" style="fill: #0070C0;"></path>
                                                                        <path d="M 185 479 Q 175 483 150 489 Q 138 492 135 487 Q 128 481 136 466 Q 166 397 181 287 Q 182 254 201 231 Q 217 210 223 225 Q 224 232 226 243 L 227 269 Q 226 282 224 297 Q 205 412 201 448 Q 201 449 202 450 C 202 473 202 473 185 479 Z" style="fill: #0070C0;"></path>
                                                                        <path d="M 388 273 Q 401 257 413 250 Q 423 243 435 262 Q 450 287 475 421 Q 482 448 502 470 Q 512 482 503 494 Q 490 507 451 530 Q 439 536 365 518 Q 353 518 332 511 L 310 506 Q 298 506 185 479 C 156 472 173 442 202 450 Q 235 460 282 471 L 315 477 Q 346 486 384 491 Q 409 495 419 487 Q 432 472 429 458 Q 410 334 400 314 Q 396 305 387 301 C 374 289 374 289 388 273 Z" style="fill: #0070C0;"></path>
                                                                        <path d="M 335 375 Q 360 381 385 384 Q 404 387 397 398 Q 388 410 367 413 Q 354 414 337 410 L 292 398 Q 258 388 230 378 Q 215 375 233 363 Q 239 360 293 368 L 335 375 Z" style="fill: #0070C0;"></path>
                                                                        <path d="M 330 297 Q 331 340 335 375 L 337 410 Q 337 428 339 437 Q 345 452 337 460 Q 327 470 315 477 C 290 493 275 500 282 471 Q 288 449 292 398 L 293 368 Q 293 337 294 286 C 295 256 329 267 330 297 Z" style="fill: #0070C0;"></path>
                                                                        <path d="M 226 243 Q 233 242 242 244 Q 288 259 388 273 C 418 277 411 284 387 301 Q 386 302 383 304 Q 365 314 330 297 L 294 286 Q 257 277 227 269 C 198 261 196 245 226 243 Z" style="fill: #0070C0;"></path>
                                                                        <path d="M 120 122 Q 107 121 105 111 Q 102 98 111 90 Q 133 74 165 53 Q 175 49 187 58 Q 217 80 408 156 Q 433 166 452 180 Q 465 187 466 196 Q 462 202 449 199 Q 173 121 120 122 Z" style="fill: #0070C0;"></path>
                                                                        <path d="M 686 309 Q 690 411 695 506 L 696 540 Q 697 624 718 731 Q 722 743 700 759 Q 663 778 636 783 Q 618 786 610 777 Q 603 768 611 753 Q 638 714 639 687 Q 649 509 642 299 C 641 269 685 279 686 309 Z" style="fill: #0070C0;"></path>
                                                                        <path d="M 695 506 Q 732 502 810 520 Q 835 527 865 534 Q 886 540 889 543 Q 898 552 892 560 Q 885 572 854 577 Q 824 581 747 551 Q 723 547 696 540 C 667 533 665 508 695 506 Z" style="fill: #0070C0;"></path>
                                                                        <path d="M 545 283 Q 533 289 508 293 Q 495 297 491 292 Q 484 285 493 268 Q 523 198 538 86 Q 541 52 559 29 Q 578 5 583 21 Q 587 34 588 53 L 585 90 Q 585 93 585 95 Q 567 215 564 250 C 561 276 561 276 545 283 Z" style="fill: #0070C0;"></path>
                                                                        <path d="M 812 109 Q 842 220 883 253 Q 902 274 886 293 Q 867 309 809 337 Q 788 346 764 336 Q 724 320 686 309 L 642 299 Q 594 292 545 283 C 515 278 535 244 564 250 Q 573 251 586 255 Q 668 271 747 285 Q 768 289 776 282 Q 794 261 754 120 C 746 91 804 80 812 109 Z" style="fill: #0070C0;"></path>
                                                                        <path d="M 588 53 Q 600 52 613 53 Q 680 66 821 74 Q 834 75 835 85 Q 835 92 812 109 L 754 120 Q 751 121 749 120 Q 658 99 585 90 C 555 86 558 55 588 53 Z" style="fill: #0070C0;"></path>
                                    
                                    
                                                                                                                                                                                                                                                                                                                                                                                                                                                                                                                                                                                                                                                                                                                                                                                                                                                                                                                                                                                                                                                                                                        </g>
                            </svg>