<svg width='83' height='83' >
                                <g transform="translate(3, 70) scale(0.07, -0.07)">
                                    <!-- 先将完整的字以灰色字体绘制完成，层级位于下面 -->
                                                                        <path d="M 292 689 Q 334 750 349 763 Q 358 772 354 784 Q 351 794 327 816 Q 305 832 288 834 Q 272 833 278 813 Q 302 756 135 559 Q 125 550 123 545 Q 120 535 133 537 Q 169 541 273 666 L 292 689 Z" style="fill: #0070C0;"></path>
                                                                        <path d="M 332 525 Q 351 547 383 591 Q 419 642 455 671 Q 471 681 460 693 Q 447 703 413 722 Q 406 725 336 702 Q 315 696 292 689 C 263 680 243 671 273 666 Q 286 660 356 673 Q 363 674 365 672 Q 369 669 365 658 Q 332 573 311 532 Q 307 526 305 520 C 292 493 313 502 332 525 Z" style="fill: #0070C0;"></path>
                                                                        <path d="M 169 487 Q 159 491 134 497 Q 122 500 119 495 Q 112 489 120 474 Q 150 405 165 295 Q 166 262 185 239 Q 201 218 207 233 Q 210 242 211 252 L 211 274 Q 210 289 208 305 Q 187 428 185 460 C 183 482 183 482 169 487 Z" style="fill: #0070C0;"></path>
                                                                        <path d="M 357 278 Q 372 259 385 254 Q 395 247 407 267 Q 420 292 441 429 Q 448 457 467 480 Q 477 492 467 503 Q 454 518 415 538 Q 400 544 332 525 L 305 520 Q 245 508 169 487 C 140 479 156 451 185 460 Q 215 470 259 479 L 288 485 Q 313 492 351 498 Q 375 502 383 494 Q 396 481 395 465 Q 377 320 361 307 C 350 286 350 286 357 278 Z" style="fill: #0070C0;"></path>
                                                                        <path d="M 312 381 Q 334 387 354 389 Q 372 393 365 402 Q 356 412 337 416 Q 327 417 313 414 L 272 402 Q 244 393 221 386 Q 208 382 224 371 Q 225 371 273 374 L 312 381 Z" style="fill: #0070C0;"></path>
                                                                        <path d="M 309 303 Q 310 345 312 381 L 313 414 Q 313 429 315 444 Q 321 463 288 485 C 263 502 246 506 259 479 Q 262 472 266 467 Q 269 458 272 402 L 273 374 Q 273 341 275 292 C 276 262 308 273 309 303 Z" style="fill: #0070C0;"></path>
                                                                        <path d="M 211 252 Q 232 259 357 278 C 387 283 390 300 361 307 Q 357 308 353 309 Q 337 310 309 303 L 275 292 Q 241 285 211 274 C 183 264 182 244 211 252 Z" style="fill: #0070C0;"></path>
                                                                        <path d="M 96 130 Q 83 129 81 119 Q 78 106 87 98 Q 109 82 141 61 Q 151 57 163 65 Q 205 93 250 111 Q 319 136 387 164 Q 412 174 432 188 Q 445 195 446 204 Q 442 208 429 207 Q 305 170 148 133 Q 129 129 96 130 Z" style="fill: #0070C0;"></path>
                                                                        <path d="M 551 705 Q 514 701 540 682 Q 583 655 639 667 Q 730 682 824 697 Q 867 706 874 711 Q 883 718 879 728 Q 872 740 842 749 Q 821 755 707 726 Q 626 711 551 705 Z" style="fill: #0070C0;"></path>
                                                                        <path d="M 531 422 Q 532 503 538 530 C 541 546 541 546 529 555 Q 511 570 489 577 Q 482 578 476 572 Q 473 568 480 559 Q 525 447 484 237 Q 468 177 471 164 Q 478 137 487 127 Q 497 117 504 127 Q 529 154 530 332 Q 530 365 531 400 L 531 422 Z" style="fill: #0070C0;"></path>
                                                                        <path d="M 538 530 Q 545 531 550 532 Q 574 539 598 545 Q 614 549 618 541 Q 624 520 625 317 Q 619 155 611 144 Q 607 140 594 143 Q 575 147 556 154 Q 540 161 541 153 Q 580 110 601 81 Q 611 66 623 61 Q 630 58 637 66 Q 671 100 672 146 Q 656 488 678 530 Q 688 546 679 554 Q 663 570 633 582 Q 618 588 606 582 Q 584 569 569 564 Q 553 560 529 555 C 500 549 509 524 538 530 Z" style="fill: #0070C0;"></path>
                                                                        <path d="M 531 400 Q 534 396 539 391 Q 582 337 591 334 Q 598 334 602 341 Q 606 348 604 367 Q 601 391 541 419 Q 535 422 531 422 C 511 425 512 423 531 400 Z" style="fill: #0070C0;"></path>
                                                                        <path d="M 748 568 Q 747 569 744 570 Q 737 577 724 581 Q 715 585 705 581 Q 699 577 704 566 Q 723 497 725 482 Q 724 481 725 476 Q 737 275 708 159 Q 695 111 727 73 Q 737 61 746 72 Q 761 96 761 381 L 762 411 Q 763 517 765 527 Q 766 536 766 541 C 767 556 767 556 748 568 Z" style="fill: #0070C0;"></path>
                                                                        <path d="M 835 102 Q 814 105 794 107 Q 775 113 777 104 Q 825 64 852 35 Q 865 17 878 14 Q 887 10 894 19 Q 930 67 927 113 Q 900 474 919 534 Q 920 540 923 544 Q 933 562 923 571 Q 904 587 870 601 Q 854 607 840 600 Q 818 587 802 581 Q 783 575 748 568 C 719 562 737 535 766 541 Q 787 544 831 559 Q 849 563 854 554 Q 875 500 869 200 Q 865 113 858 103 Q 854 99 835 102 Z" style="fill: #0070C0;"></path>
                                                                        <path d="M 761 381 Q 783 359 807 331 Q 814 322 824 322 Q 830 321 834 329 Q 838 336 835 355 Q 834 371 810 387 Q 788 400 762 411 C 734 423 740 402 761 381 Z" style="fill: #0070C0;"></path>
                                    
                                    
                                                                                                                                                                                                                                                                                                                                                                                                                                                                                                                                                                                                                                                                                                                                                                                                                                                                                                                                                                                                                                                                                                                                                                                                                                                                </g>
                            </svg>