<svg width='83' height='83' >
                                <g transform="translate(3, 70) scale(0.07, -0.07)">
                                    <!-- 先将完整的字以灰色字体绘制完成，层级位于下面 -->
                                                                        <path d="M 286 691 Q 350 781 351 783 Q 350 786 350 788 Q 347 798 323 820 Q 301 836 284 838 Q 268 837 274 817 Q 298 760 131 563 Q 121 554 119 549 Q 116 539 129 541 Q 157 544 270 671 L 286 691 Z" style="fill: #0070C0;"></path>
                                                                        <path d="M 322 526 Q 340 547 377 597 Q 411 646 448 675 Q 463 685 453 696 Q 440 706 408 723 Q 395 727 382 719 Q 375 715 311 697 Q 299 694 286 691 C 257 684 240 676 270 671 Q 285 665 354 677 Q 361 678 363 677 Q 367 673 363 663 Q 329 579 307 539 Q 300 527 298 520 C 287 492 303 503 322 526 Z" style="fill: #0070C0;"></path>
                                                                        <path d="M 180 490 Q 168 496 142 501 Q 130 504 127 499 Q 120 493 128 478 Q 158 409 173 299 Q 174 266 193 243 Q 209 222 215 237 Q 219 250 219 268 L 218 288 Q 217 298 216 309 Q 197 430 193 463 C 190 486 190 486 180 490 Z" style="fill: #0070C0;"></path>
                                                                        <path d="M 351 289 Q 367 268 381 262 Q 391 255 403 275 Q 416 300 437 433 Q 444 461 463 483 Q 473 493 463 505 Q 450 520 412 540 Q 397 546 328 528 Q 324 528 322 526 L 298 520 Q 256 513 180 490 C 151 481 165 454 193 463 Q 221 473 264 482 L 297 490 Q 321 497 350 502 Q 372 506 379 499 Q 392 484 391 470 Q 375 346 362 320 C 352 292 351 289 351 289 Z" style="fill: #0070C0;"></path>
                                                                        <path d="M 312 388 Q 333 394 354 397 Q 372 401 365 410 Q 356 420 336 423 Q 326 424 313 421 L 272 408 Q 244 398 221 390 Q 208 386 224 375 L 273 379 L 312 388 Z" style="fill: #0070C0;"></path>
                                                                        <path d="M 309 314 Q 310 354 312 388 L 313 421 Q 313 439 315 456 Q 321 475 297 490 C 272 507 251 509 264 482 Q 265 481 266 479 Q 269 469 272 408 L 273 379 Q 273 349 275 304 C 276 274 308 284 309 314 Z" style="fill: #0070C0;"></path>
                                                                        <path d="M 219 268 Q 225 267 233 268 Q 297 281 351 289 C 381 293 391 314 362 320 Q 359 321 357 321 Q 338 322 309 314 L 275 304 Q 242 297 218 288 C 190 278 189 271 219 268 Z" style="fill: #0070C0;"></path>
                                                                        <path d="M 108 126 Q 95 125 93 115 Q 90 102 99 94 Q 121 78 153 57 Q 163 53 175 61 Q 217 89 262 107 Q 331 132 399 160 Q 424 170 444 184 Q 457 191 458 200 Q 454 204 441 203 Q 317 166 160 129 Q 141 125 108 126 Z" style="fill: #0070C0;"></path>
                                                                        <path d="M 589 294 Q 586 225 565 143 Q 552 80 589 38 Q 599 23 611 37 Q 632 65 630 189 Q 634 640 638 669 Q 642 691 636 700 Q 632 716 588 736 Q 578 740 565 736 Q 558 732 563 718 Q 590 616 591 615 Q 591 584 593 567 L 594 536 Q 594 496 593 443 L 593 411 Q 592 369 590 319 L 589 294 Z" style="fill: #0070C0;"></path>
                                                                        <path d="M 593 567 Q 566 576 537 562 Q 522 559 486 554 Q 456 548 478 536 Q 505 521 569 533 Q 581 536 594 536 C 624 537 622 558 593 567 Z" style="fill: #0070C0;"></path>
                                                                        <path d="M 593 443 Q 575 449 507 429 Q 488 425 465 422 Q 437 416 458 404 Q 485 389 562 405 Q 575 408 593 411 C 623 416 622 437 593 443 Z" style="fill: #0070C0;"></path>
                                                                        <path d="M 590 319 Q 449 273 437 272 Q 427 271 426 262 Q 425 252 433 246 Q 452 236 479 222 Q 488 221 496 228 Q 505 237 588 294 L 589 294 C 615 309 619 328 590 319 Z" style="fill: #0070C0;"></path>
                                                                        <path d="M 768 314 Q 767 362 767 418 L 766 452 Q 766 503 766 560 L 765 594 Q 766 673 780 729 Q 789 744 786 758 Q 779 767 722 800 Q 698 816 677 801 Q 673 795 679 780 Q 712 735 713 689 Q 719 566 720 292 Q 720 192 701 119 Q 694 85 701 64 Q 720 3 734 -3 Q 741 -10 748 -2 Q 775 20 773 81 Q 770 112 768 279 L 768 314 Z" style="fill: #0070C0;"></path>
                                                                        <path d="M 766 560 Q 767 561 769 560 Q 814 556 921 581 Q 921 582 923 582 Q 930 589 927 597 Q 920 607 894 615 Q 876 618 800 600 Q 782 599 765 594 C 736 586 736 561 766 560 Z" style="fill: #0070C0;"></path>
                                                                        <path d="M 767 418 Q 836 418 904 435 Q 904 436 906 436 Q 913 443 910 450 Q 904 460 880 467 Q 877 467 766 452 C 736 448 737 418 767 418 Z" style="fill: #0070C0;"></path>
                                                                        <path d="M 768 279 Q 804 279 856 287 Q 899 290 939 293 Q 952 294 953 300 Q 954 310 934 326 Q 898 351 852 331 Q 849 331 768 314 C 739 308 738 279 768 279 Z" style="fill: #0070C0;"></path>
                                    
                                    
                                                                                                                                                                                                                                                                                                                                                                                                                                                                                                                                                                                                                                                                                                                                                                                                                                                                                                                                                                                                                                                                                                                                                                                                                                                                                                                                            </g>
                            </svg>