<svg width='83' height='83' >
                                <g transform="translate(3, 70) scale(0.07, -0.07)">
                                    <!-- 先将完整的字以灰色字体绘制完成，层级位于下面 -->
                                                                        <path d="M 297 690 Q 363 780 363 783 Q 362 786 362 788 Q 359 798 335 820 Q 313 836 296 838 Q 280 837 286 817 Q 310 760 143 563 Q 133 554 131 549 Q 128 539 141 541 Q 180 545 279 667 L 297 690 Z" style="fill: #0070C0;"></path>
                                                                        <path d="M 335 523 Q 354 545 391 595 Q 427 646 463 675 Q 479 685 467 697 Q 454 707 420 726 Q 411 729 328 699 Q 325 699 297 690 C 268 681 249 672 279 667 Q 295 661 364 676 Q 371 677 373 675 Q 377 672 373 661 Q 340 576 319 536 Q 313 526 311 517 C 301 489 316 500 335 523 Z" style="fill: #0070C0;"></path>
                                                                        <path d="M 190 485 Q 180 491 150 497 Q 138 500 135 495 Q 128 489 136 474 Q 166 405 181 295 Q 182 262 201 239 Q 217 218 223 233 Q 226 242 227 252 L 227 275 Q 226 288 224 305 Q 205 419 201 455 C 198 481 198 481 190 485 Z" style="fill: #0070C0;"></path>
                                                                        <path d="M 384 286 Q 399 265 413 258 Q 423 251 435 270 Q 450 297 475 437 Q 482 464 501 487 Q 511 497 502 510 Q 487 523 449 545 Q 431 552 377 534 Q 350 531 335 523 L 311 517 Q 284 511 258 503 Q 221 493 190 485 C 161 477 173 444 201 455 Q 200 456 202 456 Q 233 468 282 480 L 312 488 Q 405 515 419 503 Q 432 487 430 472 Q 409 330 392 312 C 380 290 380 290 384 286 Z" style="fill: #0070C0;"></path>
                                                                        <path d="M 335 383 Q 360 389 385 392 Q 404 395 397 406 Q 388 418 367 421 Q 354 422 337 418 L 292 405 Q 261 396 233 387 Q 220 383 237 371 Q 240 371 293 374 L 335 383 Z" style="fill: #0070C0;"></path>
                                                                        <path d="M 330 307 Q 331 349 335 383 L 337 418 Q 337 436 339 445 Q 346 466 312 488 C 287 505 275 509 282 480 Q 288 458 292 405 L 293 374 Q 293 343 294 295 C 295 265 329 277 330 307 Z" style="fill: #0070C0;"></path>
                                                                        <path d="M 227 252 Q 228 252 384 286 C 413 292 419 299 392 312 Q 388 315 380 316 Q 362 317 330 307 L 294 295 Q 257 285 227 275 C 199 266 198 246 227 252 Z" style="fill: #0070C0;"></path>
                                                                        <path d="M 120 122 Q 107 121 105 111 Q 102 98 111 90 Q 133 74 165 53 Q 175 49 187 58 Q 217 80 408 156 Q 433 166 452 180 Q 465 187 466 196 Q 462 202 449 199 Q 173 121 120 122 Z" style="fill: #0070C0;"></path>
                                                                        <path d="M 562 707 Q 552 711 527 716 Q 517 719 514 714 Q 510 710 516 695 Q 547 628 565 517 Q 568 484 586 462 Q 602 443 606 457 Q 609 467 609 479 L 608 501 Q 605 529 595 572 L 590 596 Q 577 654 575 678 C 572 704 572 704 562 707 Z" style="fill: #0070C0;"></path>
                                                                        <path d="M 735 495 Q 753 470 769 462 Q 779 455 793 475 Q 806 500 830 636 Q 837 664 858 688 Q 870 700 859 713 Q 844 728 805 751 Q 786 758 772 752 Q 747 746 717 740 Q 677 733 624 721 Q 591 714 562 707 C 533 700 546 670 575 678 Q 633 694 738 711 Q 762 715 769 707 Q 782 692 780 677 Q 762 536 746 519 C 734 496 734 496 735 495 Z" style="fill: #0070C0;"></path>
                                                                        <path d="M 595 572 Q 604 578 717 594 Q 738 598 729 609 Q 719 622 697 625 Q 667 626 590 596 C 562 585 567 561 595 572 Z" style="fill: #0070C0;"></path>
                                                                        <path d="M 609 479 Q 610 479 615 479 Q 682 489 735 495 C 765 498 773 505 746 519 Q 739 523 729 526 Q 704 529 608 501 C 579 493 579 479 609 479 Z" style="fill: #0070C0;"></path>
                                                                        <path d="M 547 350 L 547 351 Q 537 358 502 365 Q 490 369 487 364 Q 480 358 488 343 Q 521 262 535 133 Q 536 94 557 67 Q 573 46 579 61 Q 582 71 583 83 L 584 115 Q 581 142 571 194 L 567 223 Q 557 284 554 313 L 547 350 Z" style="fill: #0070C0;"></path>
                                                                        <path d="M 783 110 Q 793 85 820 33 Q 829 14 839 16 Q 855 19 864 45 Q 888 96 904 256 Q 908 304 932 333 Q 948 352 937 365 Q 915 387 870 408 Q 851 418 819 406 Q 699 366 547 350 C 517 347 524 308 554 313 Q 558 313 564 314 Q 819 368 836 351 Q 858 314 829 145 Q 828 129 821 128 C 809 101 771 137 783 110 Z" style="fill: #0070C0;"></path>
                                                                        <path d="M 571 194 Q 580 200 755 227 Q 777 231 769 244 Q 759 259 733 263 Q 709 266 668 254 Q 613 238 567 223 C 538 214 543 184 571 194 Z" style="fill: #0070C0;"></path>
                                                                        <path d="M 583 83 Q 590 83 600 84 Q 658 99 783 110 C 813 113 849 117 821 128 Q 817 128 784 147 Q 768 154 740 148 Q 655 126 584 115 C 554 110 553 82 583 83 Z" style="fill: #0070C0;"></path>
                                    
                                    
                                                                                                                                                                                                                                                                                                                                                                                                                                                                                                                                                                                                                                                                                                                                                                                                                                                                                                                                                                                                                                                                                                                                                                                                                                                                                                                                            </g>
                            </svg>