<svg width='83' height='83' >
                                <g transform="translate(3, 70) scale(0.07, -0.07)">
                                    <!-- 先将完整的字以灰色字体绘制完成，层级位于下面 -->
                                                                        <path d="M 283 690 Q 328 747 342 758 Q 351 765 348 777 Q 345 787 324 808 Q 303 826 288 827 Q 272 826 277 808 Q 295 753 136 581 Q 126 574 124 568 Q 121 559 132 560 Q 172 566 273 678 L 283 690 Z" style="fill: #0070C0;"></path>
                                                                        <path d="M 323 526 Q 342 548 377 592 Q 416 644 454 673 Q 470 683 460 695 Q 447 707 413 725 Q 403 728 341 706 Q 293 694 283 690 C 265 684 265 684 273 678 Q 280 668 302 666 Q 309 666 357 677 Q 363 678 365 676 Q 369 673 364 662 Q 357 647 294 520 C 281 493 304 503 323 526 Z" style="fill: #0070C0;"></path>
                                                                        <path d="M 162 493 Q 149 497 129 501 Q 119 504 115 499 Q 108 493 117 478 Q 147 409 163 299 Q 166 265 185 243 Q 201 222 206 237 Q 210 250 210 270 L 208 296 Q 187 401 181 465 C 179 488 179 488 162 493 Z" style="fill: #0070C0;"></path>
                                                                        <path d="M 366 294 Q 378 279 389 274 Q 399 267 411 286 Q 424 310 447 433 Q 454 460 474 481 Q 484 493 475 504 Q 462 519 424 540 Q 412 546 344 531 Q 338 531 323 526 L 294 520 Q 266 516 239 509 Q 196 499 162 493 C 132 488 152 456 181 465 Q 181 466 184 466 Q 215 476 261 486 L 295 492 Q 376 513 391 500 Q 403 487 401 472 Q 385 357 375 338 Q 371 328 359 325 Q 356 325 357 324 C 344 317 346 316 366 294 Z" style="fill: #0070C0;"></path>
                                                                        <path d="M 310 397 Q 332 403 354 405 Q 372 409 365 418 Q 356 428 337 432 Q 325 433 312 430 L 270 418 Q 240 411 217 402 Q 204 398 220 387 Q 221 387 270 390 L 310 397 Z" style="fill: #0070C0;"></path>
                                                                        <path d="M 305 320 Q 306 362 310 397 L 312 430 Q 312 448 314 456 Q 321 474 295 492 C 271 510 251 514 261 486 Q 267 474 270 418 L 270 390 Q 270 359 271 310 C 272 280 304 290 305 320 Z" style="fill: #0070C0;"></path>
                                                                        <path d="M 210 270 Q 217 269 226 271 Q 269 283 366 294 C 396 297 384 310 357 324 L 356 325 Q 347 331 305 320 L 271 310 Q 237 304 208 296 C 179 288 180 272 210 270 Z" style="fill: #0070C0;"></path>
                                                                        <path d="M 102 134 Q 89 133 87 123 Q 86 110 94 102 Q 116 86 150 67 Q 160 63 172 72 Q 208 100 249 117 Q 310 144 372 172 Q 396 182 413 195 Q 426 202 426 212 Q 420 218 408 215 Q 153 133 102 134 Z" style="fill: #0070C0;"></path>
                                                                        <path d="M 620 762 Q 654 737 689 707 Q 705 695 721 697 Q 733 698 737 712 Q 741 728 729 759 Q 722 781 685 795 Q 601 820 588 811 Q 582 807 585 793 Q 589 783 620 762 Z" style="fill: #0070C0;"></path>
                                                                        <path d="M 490 600 Q 471 597 486 583 Q 499 571 516 567 Q 535 563 549 568 Q 693 616 889 616 L 891 616 Q 909 617 913 625 Q 917 635 902 647 Q 844 681 780 659 Q 741 652 490 600 Z" style="fill: #0070C0;"></path>
                                                                        <path d="M 553 489 Q 543 493 522 496 Q 512 497 508 493 Q 504 489 511 474 Q 536 425 555 342 Q 558 318 573 302 Q 589 283 594 297 Q 597 307 596 320 L 593 351 Q 575 439 572 464 C 569 484 569 484 553 489 Z" style="fill: #0070C0;"></path>
                                                                        <path d="M 786 377 Q 813 453 846 471 Q 862 489 849 505 Q 833 518 785 542 Q 767 551 701 524 Q 611 500 553 489 C 524 483 542 461 572 464 Q 584 464 598 469 Q 752 502 759 496 Q 771 481 737 383 C 727 355 776 349 786 377 Z" style="fill: #0070C0;"></path>
                                                                        <path d="M 685 333 Q 730 342 797 348 Q 807 349 808 357 Q 808 364 786 377 L 737 383 L 736 383 Q 657 361 593 351 C 563 346 566 321 596 320 Q 606 319 616 321 Q 626 324 640 326 L 685 333 Z" style="fill: #0070C0;"></path>
                                                                        <path d="M 611 93 Q 592 97 568 103 Q 558 107 557 100 Q 558 93 567 85 Q 622 40 657 3 Q 667 -6 680 9 Q 719 63 710 152 Q 706 203 708 281 Q 714 305 709 314 Q 702 323 685 333 C 660 349 631 355 640 326 Q 653 296 657 132 Q 656 102 647 92 Q 637 85 611 93 Z" style="fill: #0070C0;"></path>
                                                                        <path d="M 523 238 Q 496 192 461 153 Q 439 123 451 90 Q 455 71 477 81 Q 528 112 541 180 Q 550 211 546 235 Q 542 244 537 246 Q 528 246 523 238 Z" style="fill: #0070C0;"></path>
                                                                        <path d="M 765 222 Q 813 177 870 114 Q 886 95 901 90 Q 910 89 917 99 Q 929 112 917 155 Q 901 212 766 252 Q 757 258 755 245 Q 754 232 765 222 Z" style="fill: #0070C0;"></path>
                                    
                                    
                                                                                                                                                                                                                                                                                                                                                                                                                                                                                                                                                                                                                                                                                                                                                                                                                                                                                                                                                                                                                                                                                                                                                                                                                                                                                                                                            </g>
                            </svg>