<svg width='83' height='83' >
                                <g transform="translate(3, 70) scale(0.07, -0.07)">
                                    <!-- 先将完整的字以灰色字体绘制完成，层级位于下面 -->
                                                                        <path d="M 250 688 Q 295 751 316 770 Q 323 777 321 790 Q 318 800 296 820 Q 274 836 259 837 Q 243 836 249 818 Q 258 794 220 724 Q 178 658 119 589 Q 110 582 108 576 Q 104 567 116 569 Q 146 572 234 670 L 250 688 Z" style="fill: #0070C0;"></path>
                                                                        <path d="M 291 538 Q 378 649 412 674 Q 427 684 416 695 Q 404 705 372 723 Q 357 727 344 719 Q 337 715 277 695 Q 264 691 250 688 C 221 681 206 678 234 670 Q 250 661 319 676 Q 326 677 327 676 Q 331 672 327 662 Q 293 583 271 546 Q 267 539 265 533 C 253 505 272 514 291 538 Z" style="fill: #0070C0;"></path>
                                                                        <path d="M 146 505 Q 136 511 107 516 Q 95 520 93 515 Q 87 509 94 495 Q 122 428 138 321 Q 139 288 158 267 Q 173 246 178 261 Q 182 271 182 288 L 181 308 Q 181 318 179 331 Q 160 442 156 477 C 153 502 153 502 146 505 Z" style="fill: #0070C0;"></path>
                                                                        <path d="M 328 308 Q 344 289 357 282 Q 367 275 379 295 Q 392 319 410 446 Q 417 473 436 495 Q 446 507 436 518 Q 423 531 384 553 Q 374 557 305 542 Q 304 542 291 538 L 265 533 Q 241 530 146 505 C 117 497 128 467 156 477 Q 168 483 227 495 L 256 501 Q 338 522 351 511 Q 364 498 363 483 Q 347 342 329 333 C 319 318 319 318 328 308 Z" style="fill: #0070C0;"></path>
                                                                        <path d="M 278 400 Q 303 407 325 408 Q 344 412 337 422 Q 328 434 307 437 Q 295 438 280 435 L 237 422 Q 213 415 193 407 Q 180 403 197 391 Q 200 390 238 393 L 278 400 Z" style="fill: #0070C0;"></path>
                                                                        <path d="M 274 333 Q 275 370 278 400 L 280 435 Q 280 451 282 460 Q 288 481 256 501 C 231 518 217 523 227 495 Q 233 482 237 422 L 238 393 Q 238 365 239 324 C 240 294 273 303 274 333 Z" style="fill: #0070C0;"></path>
                                                                        <path d="M 182 288 Q 186 287 193 288 Q 269 301 328 308 C 358 312 356 319 329 333 Q 325 336 317 337 Q 301 340 274 333 L 239 324 Q 208 317 181 308 C 152 299 152 291 182 288 Z" style="fill: #0070C0;"></path>
                                                                        <path d="M 86 184 Q 73 183 71 174 Q 67 161 76 153 Q 95 137 126 116 Q 136 112 147 119 Q 183 143 361 204 Q 386 213 404 224 Q 417 231 418 239 Q 414 245 402 243 Q 129 179 86 184 Z" style="fill: #0070C0;"></path>
                                                                        <path d="M 533 597 Q 564 604 600 609 L 635 616 Q 668 623 706 628 L 747 634 Q 805 643 858 648 Q 868 647 877 659 Q 878 669 856 680 Q 829 701 756 680 Q 755 680 753 679 L 708 668 Q 672 664 634 652 L 597 645 Q 563 641 535 636 L 490 631 Q 456 628 420 623 Q 393 620 414 603 Q 435 587 477 586 Q 483 589 492 589 L 533 597 Z" style="fill: #0070C0;"></path>
                                                                        <path d="M 600 609 Q 600 608 601 604 Q 607 508 615 493 Q 619 484 627 490 Q 631 494 633 508 Q 633 514 634 518 L 636 548 Q 636 599 635 616 L 634 652 Q 634 754 633 756 L 632 757 Q 593 784 565 771 Q 556 764 568 753 Q 586 729 597 645 L 600 609 Z" style="fill: #0070C0;"></path>
                                                                        <path d="M 736 565 Q 740 601 747 634 L 753 679 Q 762 745 776 782 Q 780 791 764 804 Q 737 820 718 826 Q 705 829 698 823 Q 691 817 697 804 Q 710 782 710 767 Q 710 721 708 668 L 706 628 Q 705 598 701 565 C 698 535 733 535 736 565 Z" style="fill: #0070C0;"></path>
                                                                        <path d="M 634 518 Q 640 517 649 519 Q 682 526 755 533 Q 764 534 764 542 Q 765 549 738 565 L 736 565 L 701 565 Q 700 566 697 565 Q 663 555 636 548 C 607 540 604 520 634 518 Z" style="fill: #0070C0;"></path>
                                                                        <path d="M 628 429 Q 710 450 824 444 Q 846 443 846 454 Q 847 466 814 483 Q 790 498 734 481 Q 731 481 583 457 Q 555 450 542 455 Q 529 461 533 475 Q 532 535 533 597 L 535 636 Q 535 645 536 653 Q 540 675 521 691 Q 490 716 471 714 Q 453 713 463 695 Q 485 664 490 631 L 492 589 Q 496 474 485 453 Q 475 437 484 423 Q 497 401 510 401 Q 517 401 537 411 Q 562 418 593 424 L 628 429 Z" style="fill: #0070C0;"></path>
                                                                        <path d="M 668 304 Q 743 313 893 313 Q 911 313 915 321 Q 919 331 905 343 Q 854 382 807 366 Q 744 354 648 338 L 605 331 Q 521 321 427 308 Q 408 307 422 291 Q 435 278 451 274 Q 470 270 484 273 Q 527 286 575 292 L 668 304 Z" style="fill: #0070C0;"></path>
                                                                        <path d="M 648 338 Q 649 378 653 398 Q 654 408 649 414 Q 639 423 628 429 C 603 445 582 452 593 424 Q 605 406 605 331 L 604 254 Q 604 92 588 49 Q 579 16 610 -30 Q 620 -46 627 -50 Q 637 -51 642 -39 Q 652 -11 650 16 Q 647 109 647 289 L 648 338 Z" style="fill: #0070C0;"></path>
                                                                        <path d="M 575 292 Q 535 189 361 63 Q 346 51 360 50 Q 370 49 403 64 Q 446 82 486 115 Q 520 143 560 191 Q 587 225 604 254 C 634 304 591 330 575 292 Z" style="fill: #0070C0;"></path>
                                                                        <path d="M 647 289 Q 710 192 793 89 Q 820 59 954 79 Q 963 80 964 85 Q 965 89 953 96 Q 815 159 748 223 Q 709 260 668 304 C 647 326 631 314 647 289 Z" style="fill: #0070C0;"></path>
                                    
                                    
                                                                                                                                                                                                                                                                                                                                                                                                                                                                                                                                                                                                                                                                                                                                                                                                                                                                                                                                                                                                                                                                                                                                                                                                                                                                                                                                                                                                                        </g>
                            </svg>