<svg width='83' height='83' >
                                <g transform="translate(3, 70) scale(0.07, -0.07)">
                                    <!-- 先将完整的字以灰色字体绘制完成，层级位于下面 -->
                                                                        <path d="M 281 684 Q 333 757 349 770 Q 356 779 353 790 Q 350 800 328 820 Q 306 836 291 836 Q 275 835 281 817 Q 290 799 283 783 Q 261 731 229 683 Q 198 637 154 585 Q 147 578 144 572 Q 140 563 152 565 Q 191 571 265 665 L 281 684 Z" style="fill: #0070C0;"></path>
                                                                        <path d="M 310 520 Q 412 631 449 654 Q 467 663 456 676 Q 443 689 408 711 Q 392 718 378 709 Q 371 706 310 689 Q 297 686 281 684 C 251 680 238 678 265 665 Q 278 653 346 663 Q 353 664 354 663 Q 358 659 352 648 Q 307 561 276 513 C 260 488 290 498 310 520 Z" style="fill: #0070C0;"></path>
                                                                        <path d="M 163 487 Q 153 491 126 496 Q 116 499 112 494 Q 108 488 115 474 Q 146 411 164 309 Q 168 278 185 258 Q 201 239 206 253 Q 207 259 208 265 L 208 295 Q 207 307 204 320 Q 180 429 176 461 C 173 484 173 484 163 487 Z" style="fill: #0070C0;"></path>
                                                                        <path d="M 354 287 Q 367 265 381 258 Q 390 252 402 269 Q 418 296 447 437 Q 454 462 473 483 Q 483 493 474 505 Q 461 518 426 540 Q 408 549 310 520 L 276 513 Q 260 510 243 506 Q 198 496 163 487 C 134 480 147 455 176 461 Q 180 461 188 463 Q 216 473 261 482 L 295 490 Q 382 512 397 501 Q 410 485 407 469 Q 379 325 365 311 C 353 288 353 288 354 287 Z" style="fill: #0070C0;"></path>
                                                                        <path d="M 307 390 Q 331 396 354 399 Q 373 403 365 414 Q 355 426 334 428 Q 324 429 308 426 L 269 414 Q 239 404 213 395 Q 200 391 217 379 L 270 383 L 307 390 Z" style="fill: #0070C0;"></path>
                                                                        <path d="M 304 319 Q 305 358 307 390 L 308 426 Q 308 442 310 459 Q 314 474 295 490 C 273 510 253 511 261 482 Q 265 473 269 414 L 270 383 Q 270 355 272 310 C 273 280 303 289 304 319 Z" style="fill: #0070C0;"></path>
                                                                        <path d="M 208 265 Q 214 265 221 266 Q 264 278 354 287 C 384 290 388 292 365 311 Q 361 315 350 322 Q 335 329 309 321 Q 305 320 304 319 L 272 310 Q 236 303 208 295 C 179 287 178 264 208 265 Z" style="fill: #0070C0;"></path>
                                                                        <path d="M 111 162 Q 99 161 97 152 Q 96 140 103 132 Q 124 117 152 99 Q 162 95 173 103 Q 200 122 352 185 Q 374 192 389 204 Q 401 211 402 219 Q 398 223 386 222 Q 158 161 111 162 Z" style="fill: #0070C0;"></path>
                                                                        <path d="M 505 721 Q 499 722 494 723 Q 484 726 480 721 Q 476 715 483 701 Q 511 652 530 567 Q 534 542 549 526 Q 565 507 570 521 Q 571 525 572 532 L 571 558 Q 570 567 568 576 Q 547 673 544 695 C 541 715 535 716 505 721 Z" style="fill: #0070C0;"></path>
                                                                        <path d="M 777 558 Q 789 539 800 530 Q 809 523 824 540 Q 837 556 872 654 Q 882 681 904 701 Q 917 711 908 723 Q 895 739 860 765 Q 847 774 772 759 Q 757 759 630 740 Q 566 728 515 724 Q 508 724 505 721 C 476 715 515 687 544 695 Q 547 698 610 709 L 631 712 Q 665 719 711 725 L 753 730 Q 766 733 783 734 Q 816 738 826 727 Q 835 714 831 703 Q 800 594 784 586 C 770 568 770 568 777 558 Z" style="fill: #0070C0;"></path>
                                                                        <path d="M 656 572 Q 656 573 657 575 Q 660 624 634 707 Q 633 710 631 712 C 615 737 608 739 610 709 Q 620 586 639 568 C 652 553 652 553 656 572 Z" style="fill: #0070C0;"></path>
                                                                        <path d="M 728 588 Q 750 657 771 697 Q 780 707 772 715 Q 766 722 753 730 C 728 746 699 753 711 725 Q 726 697 701 591 Q 700 587 699 581 C 694 551 719 559 728 588 Z" style="fill: #0070C0;"></path>
                                                                        <path d="M 572 532 Q 579 532 589 533 Q 649 548 777 558 C 807 560 807 566 784 586 Q 783 587 780 590 Q 767 597 728 588 L 699 581 Q 677 577 656 572 L 639 568 Q 602 564 571 558 C 542 552 542 531 572 532 Z" style="fill: #0070C0;"></path>
                                                                        <path d="M 639 495 Q 667 452 641 165 Q 626 57 634 33 Q 646 -15 672 -30 Q 684 -31 689 -19 Q 702 14 698 45 Q 695 385 707 463 Q 710 476 703 482 Q 679 503 660 512 Q 647 516 638 509 Q 632 505 639 495 Z" style="fill: #0070C0;"></path>
                                                                        <path d="M 521 427 Q 521 390 443 298 Q 427 285 448 290 Q 490 294 557 377 Q 573 398 581 407 Q 588 417 585 424 Q 581 434 560 438 Q 538 442 528 440 Q 522 437 521 427 Z" style="fill: #0070C0;"></path>
                                                                        <path d="M 539 302 Q 533 230 383 75 Q 367 60 389 66 Q 468 88 564 228 Q 589 265 602 281 Q 609 291 607 300 Q 603 310 580 314 Q 555 320 546 316 Q 539 315 539 302 Z" style="fill: #0070C0;"></path>
                                                                        <path d="M 785 405 Q 818 380 854 350 Q 867 340 880 340 Q 889 341 893 352 Q 897 365 888 391 Q 876 422 779 447 Q 766 448 760 447 Q 756 443 757 432 Q 761 422 785 405 Z" style="fill: #0070C0;"></path>
                                                                        <path d="M 766 267 Q 815 216 875 143 Q 888 124 902 119 Q 909 118 917 126 Q 929 138 920 178 Q 911 229 769 295 Q 762 301 759 289 Q 758 277 766 267 Z" style="fill: #0070C0;"></path>
                                    
                                    
                                                                                                                                                                                                                                                                                                                                                                                                                                                                                                                                                                                                                                                                                                                                                                                                                                                                                                                                                                                                                                                                                                                                                                                                                                                                                                                                                                                                                                                                                                    </g>
                            </svg>