<svg width='83' height='83' >
                                <g transform="translate(3, 70) scale(0.07, -0.07)">
                                    <!-- 先将完整的字以灰色字体绘制完成，层级位于下面 -->
                                                                        <path d="M 339 584 Q 343 632 348 677 L 351 706 Q 351 710 366 783 Q 370 792 353 805 Q 325 821 306 824 Q 293 827 286 820 Q 279 814 286 802 Q 299 783 301 768 Q 307 680 304 575 C 303 545 336 554 339 584 Z" style="fill: #0070C0;"></path>
                                                                        <path d="M 348 677 Q 372 674 443 687 Q 458 691 476 694 Q 489 698 492 700 Q 499 707 495 714 Q 488 724 463 729 Q 457 729 351 706 C 322 700 318 680 348 677 Z" style="fill: #0070C0;"></path>
                                                                        <path d="M 450 465 Q 474 525 496 537 Q 512 555 497 572 Q 427 623 376 598 Q 357 592 339 584 L 304 575 Q 264 566 224 559 C 194 554 220 522 249 529 Q 261 532 384 557 Q 400 561 406 554 Q 413 548 412 535 Q 408 499 402 469 C 396 440 439 437 450 465 Z" style="fill: #0070C0;"></path>
                                                                        <path d="M 230 398 Q 242 410 464 430 Q 474 431 476 440 Q 476 447 450 465 C 437 474 432 473 402 469 Q 401 470 399 469 Q 308 447 234 435 C 204 430 203 385 230 398 Z" style="fill: #0070C0;"></path>
                                                                        <path d="M 224 559 Q 190 583 170 576 Q 158 569 165 556 Q 207 484 154 252 Q 150 239 146 225 Q 113 132 58 42 Q 54 35 51 29 Q 50 19 59 21 Q 84 24 152 130 Q 161 149 172 170 Q 214 272 230 398 L 234 435 Q 237 463 240 487 Q 240 496 249 529 C 252 541 249 543 224 559 Z" style="fill: #0070C0;"></path>
                                                                        <path d="M 584 659 Q 695 779 700 782 Q 716 795 704 808 Q 688 821 662 828 Q 638 835 628 830 Q 618 826 623 815 Q 633 791 601 727 Q 586 699 570 668 C 556 641 564 637 584 659 Z" style="fill: #0070C0;"></path>
                                                                        <path d="M 590 619 Q 618 634 735 664 Q 744 665 750 661 Q 760 657 761 639 Q 761 596 745 517 Q 744 495 723 498 Q 695 502 673 507 Q 660 510 663 502 Q 664 493 688 476 Q 719 449 736 420 Q 743 411 753 415 Q 760 418 774 440 Q 792 468 803 565 Q 806 638 821 652 Q 831 662 825 672 Q 818 682 784 702 Q 772 708 715 693 Q 694 693 586 657 C 558 648 563 607 590 619 Z" style="fill: #0070C0;"></path>
                                                                        <path d="M 606 573 Q 645 527 663 526 Q 672 525 676 538 Q 677 547 670 561 Q 654 585 608 591 Q 602 592 601 584 Q 600 578 606 573 Z" style="fill: #0070C0;"></path>
                                                                        <path d="M 568 305 Q 619 341 788 350 Q 819 353 833 340 Q 845 328 832 285 Q 825 227 812 168 Q 805 122 782 91 Q 772 79 748 83 Q 717 90 690 98 Q 674 102 675 95 Q 675 89 683 82 Q 735 31 753 -3 Q 762 -24 779 -13 Q 839 15 853 81 Q 872 165 887 258 Q 894 295 914 326 Q 927 342 915 355 Q 899 374 861 397 Q 840 410 812 397 Q 778 384 745 380 Q 699 376 604 358 Q 579 352 576 374 Q 577 443 579 513 Q 579 580 590 619 C 596 648 596 650 586 657 Q 585 658 584 659 C 583 662 583 662 570 668 Q 563 675 551 679 Q 533 685 525 677 Q 519 671 527 661 Q 539 634 536 464 Q 536 398 522 345 Q 516 326 530 310 Q 549 294 568 305 Z" style="fill: #0070C0;"></path>
                                                                        <path d="M 561 174 Q 684 189 733 186 Q 754 186 759 194 Q 765 206 753 215 Q 725 237 685 250 Q 672 254 650 245 Q 608 233 510 215 Q 357 191 352 189 Q 340 188 340 178 Q 340 168 358 156 Q 373 147 401 139 Q 411 136 426 145 Q 462 160 561 174 Z" style="fill: #0070C0;"></path>
                                    
                                    
                                                                                                                                                                                                                                                                                                                                                                                                                                                                                                                                                                                                                                                                                                                                                                                                                                                                    </g>
                            </svg>