<svg width='83' height='83' >
                                <g transform="translate(3, 70) scale(0.07, -0.07)">
                                    <!-- 先将完整的字以灰色字体绘制完成，层级位于下面 -->
                                                                        <path d="M 213 755 Q 202 760 176 762 Q 161 763 160 760 Q 153 753 163 739 Q 188 696 207 623 Q 210 602 225 588 Q 247 564 249 594 L 249 604 L 245 635 Q 230 702 227 729 C 224 751 224 751 213 755 Z" style="fill: #0070C0;"></path>
                                                                        <path d="M 337 803 Q 333 803 324 796 Q 295 777 213 755 C 184 747 197 726 227 729 Q 240 729 288 743 Q 331 755 338 746 Q 345 741 333 697 Q 329 683 323 662 C 315 633 366 625 376 653 Q 396 714 415 731 Q 437 756 415 770 Q 351 809 337 803 Z" style="fill: #0070C0;"></path>
                                                                        <path d="M 249 604 Q 257 604 276 609 Q 313 619 381 629 Q 390 629 392 639 Q 392 645 376 653 C 349 667 345 670 323 662 L 264 641 Q 255 638 245 635 C 216 626 219 602 249 604 Z" style="fill: #0070C0;"></path>
                                                                        <path d="M 202 453 L 413 505 Q 427 509 427 515 Q 427 529 408 536 Q 383 545 363 537 Q 232 490 74 466 Q 61 465 59 457 Q 57 447 73 437 Q 108 416 149 432 Q 176 443 177 443 L 202 453 Z" style="fill: #0070C0;"></path>
                                                                        <path d="M 177 443 Q 190 414 171 370 Q 161 348 145 334 Q 127 318 143 298 L 151 290 Q 161 282 176 294 L 202 314 Q 229 336 306 333 Q 325 333 330 326 Q 341 312 331 251 Q 318 172 288 135 Q 280 125 276 122 Q 269 114 199 137 Q 180 143 180 134 Q 181 122 196 110 Q 228 78 246 49 Q 259 27 278 40 Q 339 77 353 132 Q 394 298 402 310 Q 412 324 404 336 Q 388 359 365 367 Q 316 381 249 357 Q 216 345 213 349 Q 212 349 223 379 Q 236 412 231 423 Q 226 437 202 453 C 179 472 170 472 177 443 Z" style="fill: #0070C0;"></path>
                                                                        <path d="M 554 657 Q 589 691 637 747 Q 659 773 670 780 Q 686 794 674 808 Q 649 827 615 831 Q 604 831 598 829 Q 588 825 593 813 Q 604 790 570 725 L 540 666 C 526 639 533 636 554 657 Z" style="fill: #0070C0;"></path>
                                                                        <path d="M 561 617 Q 566 617 585 623 Q 625 638 712 655 Q 730 659 736 642 Q 737 637 737 630 Q 737 590 718 515 Q 715 500 705 497 Q 691 494 643 505 Q 629 508 633 500 Q 637 490 659 474 Q 685 449 705 418 Q 717 400 739 429 L 743 437 Q 760 465 774 544 Q 786 631 798 641 Q 808 651 803 661 Q 796 670 762 692 Q 750 700 694 686 Q 682 686 559 655 C 530 648 532 610 561 617 Z" style="fill: #0070C0;"></path>
                                                                        <path d="M 576 570 Q 635 502 647 536 Q 649 564 614 579 Q 599 586 578 589 Q 571 590 570 582 Q 570 575 576 570 Z" style="fill: #0070C0;"></path>
                                                                        <path d="M 539 286 Q 594 325 770 334 Q 802 337 815 325 Q 827 314 815 270 Q 800 138 782 98 Q 776 82 768 71 Q 759 59 733 65 L 668 82 Q 653 86 653 79 Q 653 74 662 67 Q 719 14 739 -24 Q 749 -44 766 -33 Q 825 -3 840 63 Q 858 145 871 243 Q 878 280 898 312 Q 910 327 900 340 Q 880 363 844 382 Q 827 392 800 384 L 759 369 Q 741 365 723 363 Q 672 359 574 339 Q 549 335 546 355 Q 546 568 561 617 C 567 646 567 650 559 655 Q 557 657 554 657 L 540 666 Q 514 686 499 678 Q 497 677 495 675 Q 488 669 497 660 Q 509 632 506 460 Q 506 380 492 326 Q 486 308 500 291 Q 518 275 539 286 Z" style="fill: #0070C0;"></path>
                                                                        <path d="M 480 155 Q 517 171 598 179 Q 627 182 636 184 Q 686 192 744 190 Q 762 189 768 196 Q 771 209 761 218 Q 735 236 696 250 Q 684 254 664 245 Q 488 208 410 196 Q 400 194 398 186 Q 398 169 441 154 Q 449 151 457.5 149 Q 466 147 480 155 Z" style="fill: #0070C0;"></path>
                                    
                                    
                                                                                                                                                                                                                                                                                                                                                                                                                                                                                                                                                                                                                                                                                                                                                                                                                                                                    </g>
                            </svg>