<svg width='83' height='83' >
                                <g transform="translate(3, 70) scale(0.07, -0.07)">
                                    <!-- 先将完整的字以灰色字体绘制完成，层级位于下面 -->
                                                                        <path d="M 293 663 Q 371 708 404 720 Q 420 723 423 731 Q 424 741 412 751 Q 390 763 346 773 Q 330 777 318 775 Q 311 771 312 759 Q 313 731 187 637 C 163 619 168 611 196 621 Q 214 627 255 646 L 293 663 Z" style="fill: #0070C0;"></path>
                                                                        <path d="M 187 637 Q 166 656 146 666 Q 128 673 120 667 Q 110 661 119 646 Q 161 556 140 315 Q 137 269 100 223 Q 88 208 96 187 Q 105 162 117 151 Q 130 144 141 160 Q 156 185 289 290 Q 308 302 312 310 Q 316 320 307 320 Q 292 319 197 271 Q 184 264 183 278 Q 195 429 190 547 Q 189 584 195 613 Q 196 617 196 621 C 197 629 197 629 187 637 Z" style="fill: #0070C0;"></path>
                                                                        <path d="M 338 488 Q 449 530 450 532 Q 457 539 452 546 Q 445 556 419 558 Q 398 559 331 528 L 296 513 Q 260 503 223 493 Q 192 483 217 472 Q 259 460 302 475 L 338 488 Z" style="fill: #0070C0;"></path>
                                                                        <path d="M 302 475 Q 326 322 407 249 Q 455 209 478 210 Q 494 214 488 236 Q 481 273 475 383 Q 474 402 467 402 Q 461 401 457 384 Q 450 356 444 332 Q 438 307 429 306 Q 423 306 412 316 Q 361 370 338 488 L 331 528 Q 325 585 331 616 Q 340 646 300 661 Q 297 662 293 663 C 265 674 234 667 255 646 Q 286 618 286 594 Q 290 551 296 513 L 302 475 Z" style="fill: #0070C0;"></path>
                                                                        <path d="M 285 214 Q 351 153 357 151 Q 364 151 370 161 Q 374 171 369 193 Q 363 220 284 249 Q 272 252 268 250 Q 264 249 265 238 Q 266 231 285 214 Z" style="fill: #0070C0;"></path>
                                                                        <path d="M 570 657 Q 600 688 618 709 Q 669 770 681 778 Q 697 791 684 805 Q 639 838 608 825 Q 598 821 604 810 Q 613 789 556 668 C 543 641 549 635 570 657 Z" style="fill: #0070C0;"></path>
                                                                        <path d="M 574 615 Q 578 615 583 617 Q 619 633 712 656 Q 719 657 726 654 Q 736 650 737 632 Q 738 589 725 513 Q 724 492 703 494 Q 678 498 657 503 Q 644 506 647 498 Q 648 489 671 471 Q 699 444 717 416 Q 724 407 734 411 Q 741 414 753 436 Q 769 463 778 533 Q 784 632 797 645 Q 807 654 801 664 Q 794 674 760 694 Q 748 700 693 686 Q 663 686 575 654 C 547 644 545 606 574 615 Z" style="fill: #0070C0;"></path>
                                                                        <path d="M 590 569 Q 629 523 647 522 Q 656 521 660 534 Q 661 543 654 557 Q 638 581 592 587 Q 586 588 585 580 Q 584 574 590 569 Z" style="fill: #0070C0;"></path>
                                                                        <path d="M 561 310 Q 612 346 776 360 Q 806 363 818 350 Q 830 340 818 299 Q 790 131 756 88 Q 746 75 719 78 Q 685 87 654 94 Q 638 98 639 91 Q 639 85 648 78 Q 705 27 726 -8 Q 735 -29 752 -18 Q 815 15 829 80 Q 853 170 872 269 Q 879 306 899 336 Q 912 352 901 365 Q 883 384 848 407 Q 827 420 799 408 Q 765 393 733 389 Q 688 383 596 363 Q 571 357 567 378 Q 566 445 567 516 Q 566 577 574 615 C 578 645 579 651 575 654 Q 571 657 570 657 L 556 668 Q 546 675 535 678 Q 517 684 509 676 Q 503 670 511 660 Q 523 633 525 490 Q 525 400 514 348 Q 508 329 523 313 Q 542 297 561 310 Z" style="fill: #0070C0;"></path>
                                                                        <path d="M 600 169 Q 705 184 750 181 Q 769 181 773 189 Q 779 201 767 209 Q 740 228 702 241 Q 690 245 670 235 Q 637 226 548 208 Q 428 186 412 183 Q 400 182 401 172 Q 401 162 418 152 Q 433 143 460 137 Q 529 152 600 169 Z" style="fill: #0070C0;"></path>
                                    
                                    
                                                                                                                                                                                                                                                                                                                                                                                                                                                                                                                                                                                                                                                                                                                                                                                                                                                                    </g>
                            </svg>