<svg width='83' height='83' >
                                <g transform="translate(3, 70) scale(0.07, -0.07)">
                                    <!-- 先将完整的字以灰色字体绘制完成，层级位于下面 -->
                                                                        <path d="M 252 781 Q 261 696 171 603 Q 149 581 137 567 Q 130 554 144 557 Q 184 561 261 646 Q 309 715 329 740 Q 339 752 326 766 Q 284 799 262 797 Q 250 796 252 781 Z" style="fill: #0070C0;"></path>
                                                                        <path d="M 392 736 Q 432 696 474 677 Q 487 676 495 688 Q 499 701 496 716 Q 483 753 423 767 Q 387 777 377 772 Q 371 771 374 759 Q 377 749 392 736 Z" style="fill: #0070C0;"></path>
                                                                        <path d="M 195 326 Q 262 395 337 524 L 348 545 Q 355 557 362 569 Q 369 584 376 590 Q 382 594 380 604 Q 379 613 366 623 Q 333 648 307 640 Q 300 639 302 627 Q 320 551 199 386 Q 196 383 194 380 Q 158 335 68 247 Q 61 241 71 240 Q 101 246 173 306 L 195 326 Z" style="fill: #0070C0;"></path>
                                                                        <path d="M 337 524 Q 386 481 445 419 Q 458 403 471 399 Q 478 398 485 406 Q 495 418 484 454 Q 474 494 348 545 C 320 556 315 544 337 524 Z" style="fill: #0070C0;"></path>
                                                                        <path d="M 230 316 Q 223 322 195 326 C 165 331 163 331 173 306 Q 172 306 173 305 Q 203 242 220 139 Q 223 108 241 87 Q 257 66 262 81 Q 268 97 265 127 L 259 162 Q 243 252 238 284 C 233 314 233 314 230 316 Z" style="fill: #0070C0;"></path>
                                                                        <path d="M 421 189 Q 439 271 469 298 Q 482 316 469 331 Q 453 343 405 362 Q 392 366 324 340 Q 288 331 230 316 C 201 308 209 277 238 284 Q 245 285 256 289 Q 311 301 362 312 Q 375 316 381 310 Q 391 301 391 282 Q 387 233 378 192 C 372 163 414 160 421 189 Z" style="fill: #0070C0;"></path>
                                                                        <path d="M 265 127 Q 275 126 287 129 Q 335 141 440 151 Q 452 152 452 162 Q 452 171 421 189 L 378 192 Q 372 192 369 190 Q 308 172 259 162 C 230 156 235 128 265 127 Z" style="fill: #0070C0;"></path>
                                                                        <path d="M 584 659 Q 618 690 636 713 Q 685 773 700 782 Q 716 795 704 808 Q 688 821 662 828 Q 638 835 628 830 Q 618 826 623 815 Q 633 791 601 727 Q 586 699 570 668 C 556 641 562 639 584 659 Z" style="fill: #0070C0;"></path>
                                                                        <path d="M 590 615 Q 594 615 603 618 Q 640 634 739 656 Q 748 657 753 653 Q 763 649 764 631 Q 764 589 750 513 Q 749 495 731 497 Q 706 504 685 510 Q 672 514 674 506 Q 675 497 696 477 Q 724 447 740 416 Q 747 407 757 411 Q 764 414 777 436 Q 792 461 803 525 Q 809 630 825 644 Q 835 654 829 664 Q 822 674 788 694 Q 776 700 719 686 Q 692 686 592 653 C 563 644 561 607 590 615 Z" style="fill: #0070C0;"></path>
                                                                        <path d="M 606 573 Q 645 527 663 526 Q 672 525 676 538 Q 677 547 670 561 Q 654 585 608 591 Q 602 592 601 584 Q 600 578 606 573 Z" style="fill: #0070C0;"></path>
                                                                        <path d="M 573 310 Q 627 347 808 360 Q 839 363 852 351 Q 864 341 851 298 Q 827 121 794 79 Q 785 69 764 74 Q 731 87 702 96 Q 687 102 686 95 Q 686 89 694 81 Q 746 26 763 -12 Q 770 -33 789 -24 Q 855 7 868 75 Q 890 166 906 270 Q 913 307 933 338 Q 946 354 934 366 Q 918 387 880 408 Q 859 420 831 408 Q 794 392 759 389 Q 710 383 608 363 Q 583 357 580 378 Q 580 579 590 615 C 594 645 595 651 592 653 Q 588 657 584 659 L 570 668 Q 563 675 551 679 Q 533 685 525 676 Q 519 672 527 660 Q 548 620 536 412 Q 533 379 526 349 Q 520 328 535 314 Q 554 298 573 310 Z" style="fill: #0070C0;"></path>
                                                                        <path d="M 652 194 Q 671 195 691 198 Q 742 205 796 201 Q 815 200 820 208 Q 826 218 815 228 Q 788 249 751 262 Q 738 266 718 257 Q 679 247 600 235 Q 492 217 469 216 Q 457 215 457 205 Q 458 195 474 184 Q 489 175 516 168 Q 525 165 539 173 Q 602 188 652 194 Z" style="fill: #0070C0;"></path>
                                    
                                    
                                                                                                                                                                                                                                                                                                                                                                                                                                                                                                                                                                                                                                                                                                                                                                                                                                                                                                                                                                                                                            </g>
                            </svg>