<svg width='83' height='83' >
                                <g transform="translate(3, 70) scale(0.07, -0.07)">
                                    <!-- 先将完整的字以灰色字体绘制完成，层级位于下面 -->
                                                                        <path d="M 177 706 Q 170 710 140 716 Q 131 717 128 714 Q 124 710 130 696 Q 151 656 164 590 Q 167 571 179 557 Q 194 541 197 552 Q 200 559 200 571 L 197 598 Q 187 662 184 684 C 181 704 181 704 177 706 Z" style="fill: #0070C0;"></path>
                                                                        <path d="M 292 617 Q 302 675 317 693 Q 333 712 315 722 Q 300 729 279 741 Q 266 748 252 739 Q 228 723 177 706 C 149 696 156 673 184 684 Q 191 688 240 701 Q 256 705 259 699 Q 262 696 255 618 C 252 588 287 587 292 617 Z" style="fill: #0070C0;"></path>
                                                                        <path d="M 200 571 Q 206 571 214 573 Q 242 582 305 591 Q 312 592 313 600 Q 313 606 292 617 L 255 618 Q 251 618 250 617 Q 220 607 197 598 C 169 587 170 569 200 571 Z" style="fill: #0070C0;"></path>
                                                                        <path d="M 380 741 Q 373 745 347 752 Q 338 753 336 750 Q 332 746 337 735 Q 355 698 365 638 Q 366 620 377 608 Q 389 593 393 604 Q 394 611 395 623 L 393 647 Q 386 699 384 719 C 382 740 382 740 380 741 Z" style="fill: #0070C0;"></path>
                                                                        <path d="M 492 658 Q 502 709 517 724 Q 533 743 515 754 Q 500 761 480 773 Q 467 779 420 754 Q 402 748 380 741 C 351 732 356 709 384 719 Q 399 725 442 734 Q 455 737 459 731 Q 463 728 461 707 Q 458 686 455 662 C 451 632 486 629 492 658 Z" style="fill: #0070C0;"></path>
                                                                        <path d="M 395 623 Q 396 623 399 622 Q 408 621 418 623 Q 445 627 503 632 Q 510 633 512 640 Q 512 646 492 658 L 455 662 Q 451 662 450 661 Q 417 651 393 647 C 363 642 366 630 395 623 Z" style="fill: #0070C0;"></path>
                                                                        <path d="M 235 520 Q 204 514 226 500 Q 259 482 322 497 Q 362 506 406 515 Q 428 521 432 524 Q 439 531 435 538 Q 428 548 403 553 Q 378 557 352 547 Q 327 538 300 531 Q 270 524 235 520 Z" style="fill: #0070C0;"></path>
                                                                        <path d="M 294 391 Q 354 409 493 425 Q 509 426 509 434 Q 510 446 494 455 Q 469 465 447 462 Q 201 408 97 400 Q 85 399 82 392 Q 79 382 93 371 Q 130 344 169 356 Q 206 368 239 376 L 294 391 Z" style="fill: #0070C0;"></path>
                                                                        <path d="M 235 239 Q 260 264 317 284 Q 348 293 368 289 Q 387 283 391 251 Q 387 178 352 119 Q 340 101 329 97 Q 316 94 260 118 Q 245 127 243 122 Q 242 116 250 104 Q 280 62 297 27 Q 306 14 316 13 Q 331 12 351 21 Q 414 85 439 233 Q 440 260 450 276 Q 460 288 451 299 Q 435 312 401 326 Q 383 332 319 311 Q 313 311 290 303 Q 265 296 275 321 Q 291 355 297 364 Q 307 377 296 390 Q 295 391 294 391 C 283 419 238 406 239 376 Q 245 352 227 313 Q 223 303 206 288 Q 193 273 196 260 Q 199 248 213 237 Q 225 228 235 239 Z" style="fill: #0070C0;"></path>
                                                                        <path d="M 591 630 Q 615 654 676 721 Q 689 740 708 754 Q 724 767 712 781 Q 696 793 670 800 Q 646 807 636 801 Q 626 797 631 786 Q 641 764 610 701 Q 595 670 579 637 C 566 610 570 609 591 630 Z" style="fill: #0070C0;"></path>
                                                                        <path d="M 611 594 Q 647 609 739 630 Q 748 631 754 627 Q 764 623 764 605 Q 763 562 747 486 Q 744 467 726 469 Q 705 472 689 475 Q 676 478 679 470 Q 680 463 701 445 Q 723 420 736 395 Q 743 386 752 390 Q 759 393 772 414 Q 793 445 797 480 Q 801 532 810 577 Q 811 605 822 617 Q 832 626 826 636 Q 819 646 787 666 Q 775 673 721 659 Q 717 659 593 628 C 564 621 583 583 611 594 Z" style="fill: #0070C0;"></path>
                                                                        <path d="M 620 548 Q 651 503 671 499 Q 680 498 685 510 Q 686 519 681 533 Q 674 545 659 551 Q 635 564 625 566 Q 618 567 617 560 Q 616 554 620 548 Z" style="fill: #0070C0;"></path>
                                                                        <path d="M 593 628 Q 592 629 591 630 L 579 637 Q 573 641 567 643 Q 549 649 541 640 Q 535 636 543 624 Q 564 584 552 376 Q 549 343 542 313 Q 536 294 551 279 Q 569 264 591 277 Q 645 313 793 322 Q 842 329 859 314 Q 869 304 842 150 Q 836 107 816 79 Q 807 69 785 72 Q 755 79 730 85 Q 714 89 715 83 Q 714 77 723 70 Q 772 19 788 -15 Q 797 -34 815 -25 Q 878 8 886 67 Q 902 146 913 234 Q 920 271 939 301 Q 952 317 940 330 Q 922 349 886 370 Q 865 382 838 370 Q 801 354 768 351 Q 719 345 621 326 Q 596 322 596 342 Q 596 579 611 594 C 616 616 616 616 593 628 Z" style="fill: #0070C0;"></path>
                                                                        <path d="M 648 169 Q 669 170 688 173 Q 745 180 796 177 Q 815 176 820 184 Q 826 196 815 204 Q 788 225 751 238 Q 738 242 718 233 Q 708 232 597 208 Q 473 189 461 187 Q 449 187 449 177 Q 450 167 466 156 Q 481 147 508 140 Q 517 137 531 145 Q 562 158 648 169 Z" style="fill: #0070C0;"></path>
                                    
                                    
                                                                                                                                                                                                                                                                                                                                                                                                                                                                                                                                                                                                                                                                                                                                                                                                                                                                                                                                                                                                                                                                                                                                                                                    </g>
                            </svg>