<svg width='83' height='83' >
                                <g transform="translate(3, 70) scale(0.07, -0.07)">
                                    <!-- 先将完整的字以灰色字体绘制完成，层级位于下面 -->
                                                                        <path d="M 145 633 L 270 731 Q 288 747 308 755 Q 341 772 280 806 Q 261 817 249 815 Q 238 813 242 801 Q 245 774 171 688 Q 142 655 139 649 C 122 624 121 614 145 633 Z" style="fill: #0070C0;"></path>
                                                                        <path d="M 225 527 Q 152 478 145 478 Q 139 482 139 495 Q 139 597 145 625 L 145 633 C 146 643 146 643 139 649 Q 104 680 86 670 Q 80 666 88 653 Q 102 626 104 607 L 104 600 Q 108 496 98 465 Q 94 455 89 447 Q 76 421 100 390 Q 107 380 112 377 Q 122 371 131 388 Q 153 421 229 510 Q 229 512 231 512 C 251 534 250 544 225 527 Z" style="fill: #0070C0;"></path>
                                                                        <path d="M 231 512 Q 243 481 255 476 Q 267 470 272 491 Q 274 496 276 504 Q 276 519 247 551 Q 225 572 217 572 Q 213 570 211 564 Q 211 563 225 527 L 231 512 Z" style="fill: #0070C0;"></path>
                                                                        <path d="M 361 649 Q 421 671 437 664 Q 443 646 431 573 Q 417 491 400 474 Q 392 468 345 478 Q 334 481 334 476 L 372 412 Q 380 399 386 398 L 392 398 Q 402 398 417 414 Q 460 453 482 604 Q 486 631 504 662 Q 512 674 507 680 Q 490 698 466 706 Q 445 712 429 705 Q 352 664 267 659 Q 253 659 252 651 Q 252 643 269 635 Q 284 625 332 639 L 361 649 Z" style="fill: #0070C0;"></path>
                                                                        <path d="M 332 639 Q 344 626 327 574 Q 302 494 229 396 Q 225 392 225 388 Q 225 383 229 384 Q 282 403 369 566 Q 369 577 388 608 Q 395 621 373 639 Q 367 645 361 649 C 337 667 319 666 332 639 Z" style="fill: #0070C0;"></path>
                                                                        <path d="M 147 310 Q 123 329 103 333 Q 94 335 89 332 Q 82 327 90 318 Q 122 261 126 116 Q 126 61 160 35 Q 173 28 176 50 Q 177 53 177 57 L 177 71 L 173 106 Q 172 112 171 119 Q 171 135 165 194 Q 161 229 161 276 C 161 300 161 300 147 310 Z" style="fill: #0070C0;"></path>
                                                                        <path d="M 357 94 Q 362 82 384 34 Q 396 8 413 29 Q 417 35 421 44 Q 446 90 461 245 Q 464 278 482 312 Q 492 327 490 335 L 486 339 Q 467 357 428 373 Q 411 382 335 351 Q 226 320 147 310 C 117 306 131 271 161 276 Q 171 276 200 285 Q 220 291 243 296 L 278 306 Q 390 338 404 326 Q 412 321 412 303 Q 410 213 394 130 Q 393 118 386 114 L 385 114 C 370 88 350 111 357 94 Z" style="fill: #0070C0;"></path>
                                                                        <path d="M 297 196 Q 323 204 353 206 Q 375 210 367 221 Q 345 247 299 235 L 253 221 L 203 205 Q 190 202 199 194 Q 210 183 229 184 Q 241 188 254 188 L 297 196 Z" style="fill: #0070C0;"></path>
                                                                        <path d="M 299 235 L 302 274 Q 300 288 278 306 C 255 325 231 323 243 296 Q 249 290 253 221 L 254 188 Q 254 173 255 122 C 256 92 292 101 293 131 Q 294 163 297 196 L 299 235 Z" style="fill: #0070C0;"></path>
                                                                        <path d="M 177 71 Q 186 71 214 76 Q 259 86 357 94 C 387 96 398 97 385 114 Q 380 123 359 135 Q 339 148 293 131 L 255 122 L 173 106 C 144 100 147 69 177 71 Z" style="fill: #0070C0;"></path>
                                                                        <path d="M 596 651 Q 632 687 653 711 Q 704 772 715 780 Q 731 794 718 808 Q 674 841 643 828 Q 632 823 639 813 Q 647 792 585 661 C 572 634 575 630 596 651 Z" style="fill: #0070C0;"></path>
                                                                        <path d="M 602 610 Q 606 610 623 617 Q 664 632 755 655 Q 776 658 779 635 Q 780 633 780 630 Q 778 586 761 511 Q 759 490 739 493 L 692 505 Q 679 508 682 500 Q 682 493 700 476 Q 733 445 750 414 Q 757 404 766 409 Q 774 412 788 433 Q 804 457 817 542 Q 825 627 839 643 Q 849 651 844 661 Q 837 671 804 690 Q 792 698 735 682 Q 725 682 649 659 L 602 647 C 573 640 573 601 602 610 Z" style="fill: #0070C0;"></path>
                                                                        <path d="M 624 570 Q 684 500 694 536 Q 697 552 681 566 Q 662 584 626 589 Q 619 590 619 582 Q 619 576 624 570 Z" style="fill: #0070C0;"></path>
                                                                        <path d="M 549 306 Q 564 294 577 298 L 617 316 Q 630 321 645 324 Q 741 349 809 351 Q 845 351 857 343 Q 869 333 858 289 Q 839 118 808 73 Q 796 61 757 73 L 709 86 Q 693 90 694 83 Q 694 76 715 57 Q 757 18 774 -10 Q 777 -14 780 -20 Q 789 -39 806 -29 Q 866 4 880 73 Q 898 159 911 263 Q 918 300 937 332 Q 945 345 942 351 Q 941 355 937 359 Q 919 378 883 398 Q 866 408 845 401 L 800 386 Q 783 382 766 379 Q 723 376 622 355 Q 595 351 593 371 Q 589 568 602 610 C 607 640 608 643 602 647 Q 599 651 596 651 L 585 661 Q 550 684 535 670 Q 529 664 537 655 Q 549 625 551 484 Q 551 392 540 341 Q 534 321 549 306 Z" style="fill: #0070C0;"></path>
                                                                        <path d="M 570 174 Q 598 188 702 200 Q 773 208 803 204 Q 829 204 827 218 Q 826 225 819 231 Q 764 272 703 250 Q 672 247 593 229 Q 538 218 503 215 Q 493 214 492 204 Q 494 186 537 172 L 548 170 Q 558 167 570 174 Z" style="fill: #0070C0;"></path>
                                    
                                    
                                                                                                                                                                                                                                                                                                                                                                                                                                                                                                                                                                                                                                                                                                                                                                                                                                                                                                                                                                                                                                                                                                                                                                                                                                                                </g>
                            </svg>