<svg width='83' height='83' >
                                <g transform="translate(3, 70) scale(0.07, -0.07)">
                                    <!-- 先将完整的字以灰色字体绘制完成，层级位于下面 -->
                                                                        <path d="M 233 593 Q 263 635 295 688 Q 317 728 337 748 Q 346 758 341 771 Q 337 783 311 804 Q 286 820 268 820 Q 250 819 258 798 Q 282 750 184 599 Q 139 529 78 453 Q 68 443 67 437 Q 63 427 77 429 Q 122 441 210 563 L 233 593 Z" style="fill: #0070C0;"></path>
                                                                        <path d="M 260 306 Q 260 504 263 532 Q 269 556 233 593 C 213 615 199 591 210 563 Q 237 505 211 343 Q 196 265 226 234 Q 239 221 249 242 Q 255 258 257 276 L 260 306 Z" style="fill: #0070C0;"></path>
                                                                        <path d="M 403 768 Q 422 752 442 731 Q 454 721 467 721 Q 477 721 481 733 Q 485 746 477 771 Q 473 786 449 796 Q 391 814 380 811 Q 376 807 377 796 Q 380 786 403 768 Z" style="fill: #0070C0;"></path>
                                                                        <path d="M 405 609 Q 438 619 477 628 Q 501 634 504 637 Q 511 644 507 651 Q 500 660 477 665 Q 452 669 429 658 Q 402 648 374 639 Q 343 632 305 626 Q 277 620 298 608 Q 325 593 365 599 L 405 609 Z" style="fill: #0070C0;"></path>
                                                                        <path d="M 422 499 Q 494 518 496 519 Q 502 525 498 531 Q 494 540 471 545 Q 449 549 426 539 Q 423 538 423 537 L 376 523 Q 345 517 309 512 Q 282 508 302 495 Q 332 477 377 489 L 422 499 Z" style="fill: #0070C0;"></path>
                                                                        <path d="M 418 404 Q 442 411 471 418 Q 493 424 496 427 Q 503 433 499 439 Q 493 448 471 452 Q 435 459 420 443 C 408 433 407 433 377 429 Q 376 430 374 429 Q 344 422 309 416 Q 281 410 302 399 Q 335 384 377 394 L 418 404 Z" style="fill: #0070C0;"></path>
                                                                        <path d="M 416 337 Q 417 373 418 404 L 420 443 Q 420 473 422 499 L 423 537 Q 423 547 426 568 Q 432 586 405 609 C 383 629 354 627 365 599 Q 374 584 376 523 L 377 489 Q 377 464 377 429 L 377 394 Q 377 364 377 327 C 377 297 415 307 416 337 Z" style="fill: #0070C0;"></path>
                                                                        <path d="M 377 327 Q 338 318 304 313 Q 282 310 260 306 C 230 301 227 280 257 276 Q 275 272 329 279 Q 410 297 509 311 Q 519 310 526 321 Q 527 331 507 340 Q 477 355 416 337 L 377 327 Z" style="fill: #0070C0;"></path>
                                                                        <path d="M 146 195 Q 136 143 114 94 Q 101 63 124 34 Q 134 19 150 34 Q 189 80 179 148 Q 178 179 168 199 Q 161 206 156 206 Q 149 203 146 195 Z" style="fill: #0070C0;"></path>
                                                                        <path d="M 233 181 Q 251 112 265 105 Q 274 99 285 109 Q 291 118 291 136 Q 288 169 246 198 Q 240 202 235 195 Q 231 191 233 181 Z" style="fill: #0070C0;"></path>
                                                                        <path d="M 320 201 Q 345 138 365 130 Q 375 126 384 138 Q 388 148 385 165 Q 376 193 330 220 Q 323 224 320 215 Q 317 209 320 201 Z" style="fill: #0070C0;"></path>
                                                                        <path d="M 405 231 Q 432 171 450 165 Q 459 162 467 173 Q 470 182 467 197 Q 458 224 413 249 Q 407 250 404 244 Q 403 238 405 231 Z" style="fill: #0070C0;"></path>
                                                                        <path d="M 600 635 Q 630 666 649 687 Q 703 751 713 758 Q 729 771 716 785 Q 700 797 674 804 Q 650 811 640 805 Q 630 801 635 790 Q 644 766 581 637 C 568 610 579 613 600 635 Z" style="fill: #0070C0;"></path>
                                                                        <path d="M 607 599 Q 644 614 740 636 Q 749 637 754 634 Q 764 630 766 613 Q 766 571 753 498 Q 752 479 734 481 Q 715 484 701 486 Q 688 490 691 482 Q 692 475 712 456 Q 734 431 745 407 Q 752 398 761 402 Q 768 405 780 426 Q 798 456 805 525 Q 808 612 823 627 Q 832 636 827 645 Q 820 655 786 674 Q 771 681 600 635 C 571 627 547 577 607 599 Z" style="fill: #0070C0;"></path>
                                                                        <path d="M 621 548 Q 663 499 679 498 Q 688 497 692 510 Q 693 519 687 533 Q 680 545 663 552 Q 636 565 624 567 Q 618 568 617 560 Q 616 554 621 548 Z" style="fill: #0070C0;"></path>
                                                                        <path d="M 581 637 Q 574 643 563 646 Q 545 652 537 644 Q 531 638 539 628 Q 551 601 553 458 Q 553 368 542 316 Q 536 297 551 282 Q 570 266 588 279 Q 636 315 804 328 Q 835 331 850 318 Q 862 308 850 262 Q 846 207 840 149 Q 836 104 817 74 Q 808 64 786 65 Q 749 75 718 82 Q 702 86 703 79 Q 703 73 712 66 Q 772 15 794 -21 Q 804 -40 821 -30 Q 878 0 891 89 Q 900 161 906 239 Q 913 276 930 308 Q 942 324 930 337 Q 912 356 874 376 Q 853 386 826 374 Q 792 359 759 355 Q 714 349 621 330 Q 596 326 595 346 Q 589 581 607 599 C 614 625 609 627 581 637 Z" style="fill: #0070C0;"></path>
                                                                        <path d="M 666 166 Q 684 167 702 170 Q 747 177 797 173 Q 816 172 821 180 Q 825 192 815 201 Q 755 244 702 224 Q 687 221 671 217 Q 631 210 611 206 Q 523 191 492 187 Q 482 186 481 177 Q 481 167 498 156 Q 513 147 540 140 Q 549 139 563 146 Q 623 161 666 166 Z" style="fill: #0070C0;"></path>
                                    
                                    
                                                                                                                                                                                                                                                                                                                                                                                                                                                                                                                                                                                                                                                                                                                                                                                                                                                                                                                                                                                                                                                                                                                                                                                                                                                                                                                                                                                                                        </g>
                            </svg>