<svg width='83' height='83' >
                                <g transform="translate(3, 70) scale(0.07, -0.07)">
                                    <!-- 先将完整的字以灰色字体绘制完成，层级位于下面 -->
                                                                        <path d="M 423 681 Q 435 687 523 684 Q 536 683 540 691 Q 544 700 533 712 Q 490 743 442 728 L 395 719 Q 347 710 294 700 L 257 694 Q 203 687 143 678 Q 119 674 136 662 Q 175 640 236 656 Q 249 660 265 662 L 297 668 Q 297 669 300 669 Q 340 675 384 678 L 423 681 Z" style="fill: #0070C0;"></path>
                                                                        <path d="M 294 700 Q 293 725 291 746 Q 292 762 276 766 Q 246 781 229 775 Q 216 768 227 753 Q 248 728 257 694 L 265 662 Q 274 620 285 609 Q 295 602 299 610 Q 302 622 297 668 L 294 700 Z" style="fill: #0070C0;"></path>
                                                                        <path d="M 442 728 Q 449 750 466 778 Q 478 791 469 799 Q 459 812 431 827 Q 418 834 403 828 Q 394 822 401 813 Q 411 786 395 719 L 384 678 Q 366 618 367 605 Q 368 593 381 603 Q 396 618 423 681 L 442 728 Z" style="fill: #0070C0;"></path>
                                                                        <path d="M 177 555 Q 170 559 145 563 Q 136 566 134 562 Q 130 558 136 545 Q 154 512 167 456 Q 170 440 180 428 Q 193 412 197 424 Q 200 433 199 447 L 195 469 Q 188 518 186 535 C 184 552 184 552 177 555 Z" style="fill: #0070C0;"></path>
                                                                        <path d="M 302 486 Q 312 525 324 536 Q 340 555 323 565 Q 310 574 289 586 Q 276 592 233 571 Q 206 564 177 555 C 148 546 157 528 186 535 Q 189 536 246 548 Q 262 551 266 545 Q 270 542 268 523 Q 265 507 263 487 C 260 457 294 457 302 486 Z" style="fill: #0070C0;"></path>
                                                                        <path d="M 199 447 Q 208 447 218 448 Q 248 455 312 462 Q 319 463 320 469 Q 320 475 302 486 C 288 495 288 495 263 487 Q 223 475 195 469 C 166 463 169 447 199 447 Z" style="fill: #0070C0;"></path>
                                                                        <path d="M 375 581 Q 368 585 350 588 Q 341 591 338 587 Q 334 583 339 571 Q 355 537 365 481 Q 366 465 376 453 Q 389 437 393 448 Q 396 455 396 469 L 394 494 Q 390 548 389 561 C 388 575 388 575 375 581 Z" style="fill: #0070C0;"></path>
                                                                        <path d="M 497 506 Q 507 549 521 564 Q 537 583 519 594 Q 504 601 484 614 Q 471 621 456 612 Q 440 600 417 593 Q 399 587 375 581 C 346 574 360 552 389 561 Q 389 562 391 562 Q 419 569 443 575 Q 459 579 463 572 Q 467 569 464 548 Q 461 530 459 509 C 456 479 490 477 497 506 Z" style="fill: #0070C0;"></path>
                                                                        <path d="M 396 469 Q 400 469 406 470 Q 437 477 507 482 Q 514 483 516 489 Q 516 495 497 506 C 482 515 482 515 459 509 Q 422 500 394 494 C 365 488 366 467 396 469 Z" style="fill: #0070C0;"></path>
                                                                        <path d="M 198 280 Q 262 359 263 366 L 262 369 Q 261 378 240 396 Q 222 411 208 412 Q 195 412 199 395 Q 211 365 144 271 Q 113 228 70 182 Q 63 175 60 171 Q 57 164 68 164 Q 101 170 177 256 L 198 280 Z" style="fill: #0070C0;"></path>
                                                                        <path d="M 228 68 Q 229 186 234 216 Q 240 240 209 269 Q 205 275 198 280 C 175 300 166 284 177 256 Q 210 184 174 44 Q 164 11 194 -30 L 195 -31 Q 208 -43 217 -23 Q 227 8 227 43 L 228 68 Z" style="fill: #0070C0;"></path>
                                                                        <path d="M 331 413 Q 373 374 383 375 Q 390 375 394 385 Q 397 395 390 415 Q 383 434 327 446 Q 317 447 312 446 Q 308 443 309 435 Q 312 428 331 413 Z" style="fill: #0070C0;"></path>
                                                                        <path d="M 373 310 Q 407 319 443 326 Q 468 332 471 335 Q 478 341 474 347 Q 470 356 447 361 Q 425 365 402 357 Q 374 347 343 339 Q 309 332 270 328 Q 242 324 262 311 Q 292 293 336 303 L 373 310 Z" style="fill: #0070C0;"></path>
                                                                        <path d="M 388 227 Q 407 234 428 238 Q 449 242 452 246 Q 456 252 454 257 Q 450 264 430 268 Q 411 271 392 263 Q 391 263 390 262 L 345 247 Q 317 241 284 236 Q 260 232 277 221 Q 307 209 340 217 Q 341 218 346 218 L 388 227 Z" style="fill: #0070C0;"></path>
                                                                        <path d="M 385 148 Q 407 154 432 158 Q 456 162 459 166 Q 465 170 462 177 Q 458 184 439 189 Q 415 195 386 180 L 346 170 Q 315 164 277 160 Q 253 156 270 145 Q 294 130 335 139 Q 339 140 346 140 L 385 148 Z" style="fill: #0070C0;"></path>
                                                                        <path d="M 382 90 Q 383 121 385 148 L 386 180 Q 386 205 388 227 L 390 262 Q 394 290 390 296 Q 381 303 373 310 C 350 329 327 332 336 303 Q 345 276 345 247 L 346 218 Q 346 199 346 170 L 346 140 Q 346 115 346 83 C 346 53 381 60 382 90 Z" style="fill: #0070C0;"></path>
                                                                        <path d="M 346 83 Q 310 77 279 73 Q 254 72 228 68 C 198 64 200 56 227 43 Q 243 31 303 39 Q 409 57 476 60 Q 485 59 493 70 Q 494 80 475 89 Q 453 107 382 90 L 346 83 Z" style="fill: #0070C0;"></path>
                                                                        <path d="M 611 642 Q 645 678 665 702 Q 710 760 729 774 Q 745 787 732 801 Q 687 834 656 821 Q 646 817 652 806 Q 661 782 620 697 Q 608 672 595 645 Q 594 644 594 643 C 581 616 590 620 611 642 Z" style="fill: #0070C0;"></path>
                                                                        <path d="M 615 604 Q 655 620 758 641 Q 767 642 773 638 Q 785 634 785 614 Q 784 568 766 485 Q 765 464 744 467 Q 711 476 685 483 Q 672 486 675 478 Q 676 469 699 451 Q 735 420 756 388 Q 763 379 773 383 Q 780 386 794 409 Q 812 436 822 503 Q 828 611 844 628 Q 854 637 849 647 Q 842 657 809 678 Q 797 685 738 671 Q 717 671 611 642 C 582 634 557 583 615 604 Z" style="fill: #0070C0;"></path>
                                                                        <path d="M 621 552 Q 663 503 679 502 Q 688 501 692 514 Q 693 523 687 537 Q 680 549 663 556 Q 636 569 624 571 Q 618 572 617 564 Q 616 558 621 552 Z" style="fill: #0070C0;"></path>
                                                                        <path d="M 614 602 Q 614 603 615 604 C 621 631 621 631 594 643 Q 584 650 571 655 Q 553 661 545 652 Q 539 648 547 636 Q 562 608 560 546 Q 559 498 558 437 Q 558 377 546 329 Q 540 308 555 294 Q 573 279 596 292 Q 650 328 816 343 Q 847 347 861 337 Q 874 327 864 283 Q 848 103 816 56 Q 806 46 784 51 Q 753 58 726 66 Q 710 70 711 63 Q 711 57 719 50 Q 771 -1 789 -35 Q 798 -56 815 -45 Q 878 -12 889 60 Q 905 154 918 258 Q 924 295 941 326 Q 953 342 941 354 Q 923 373 887 393 Q 865 403 839 391 Q 803 375 770 371 Q 724 365 627 344 Q 602 338 600 358 Q 600 560 614 602 Z" style="fill: #0070C0;"></path>
                                                                        <path d="M 667 183 Q 685 184 701 188 Q 767 194 793 191 Q 812 191 815 199 Q 819 209 810 218 Q 783 237 748 248 Q 736 252 717 243 Q 695 237 672 232 Q 635 225 615 221 Q 519 203 501 201 Q 491 200 490 191 Q 491 181 507 172 Q 520 163 546 157 Q 555 156 569 163 Q 606 175 667 183 Z" style="fill: #0070C0;"></path>
                                    
                                    
                                                                                                                                                                                                                                                                                                                                                                                                                                                                                                                                                                                                                                                                                                                                                                                                                                                                                                                                                                                                                                                                                                                                                                                                                                                                                                                                                                                                                                                                                                                                                                                                                                                                                                                                                                                                                    </g>
                            </svg>