<svg width='83' height='83' >
                                <g transform="translate(3, 70) scale(0.07, -0.07)">
                                    <!-- 先将完整的字以灰色字体绘制完成，层级位于下面 -->
                                                                        <path d="M 478 810 Q 508 792 540 769 Q 555 759 569 762 Q 578 763 581 776 Q 582 791 571 816 Q 564 834 532 843 Q 462 859 448 851 Q 444 847 447 835 Q 451 825 478 810 Z" style="fill: #0070C0;"></path>
                                                                        <path d="M 583 696 Q 730 723 733 726 Q 742 733 738 741 Q 732 753 706 761 Q 682 767 571 738 Q 460 716 346 709 Q 342 709 340 707 C 311 701 314 692 343 683 Q 386 668 441 676 Q 495 685 554 692 L 583 696 Z" style="fill: #0070C0;"></path>
                                                                        <path d="M 340 707 Q 325 723 300 736 Q 282 748 270 743 Q 258 737 264 724 Q 280 694 276 637 Q 273 621 271 600 Q 253 434 199 301 Q 154 202 64 77 Q 58 71 56 65 Q 53 55 64 57 Q 94 63 180 176 Q 198 203 216 235 Q 294 391 331 641 Q 340 680 343 683 C 348 700 348 700 340 707 Z" style="fill: #0070C0;"></path>
                                                                        <path d="M 649 500 Q 649 499 650 497 Q 653 484 663 484 Q 673 485 702 518 Q 717 560 748 583 Q 764 596 751 609 Q 738 624 697 647 Q 687 654 611 639 L 561 631 Q 516 625 478 615 L 431 605 Q 394 599 367 596 Q 352 596 350 591 Q 347 587 362 576 Q 392 561 410 567 Q 422 571 437 574 L 477 584 Q 511 594 558 600 L 601 607 Q 656 617 675 610 Q 679 606 675 591 Q 662 545 656 530 C 647 504 647 504 649 500 Z" style="fill: #0070C0;"></path>
                                                                        <path d="M 478 615 Q 479 631 469 640 Q 453 653 432 659 Q 422 663 415 658 Q 409 654 414 642 Q 424 626 431 605 L 437 574 Q 441 549 448 500 C 452 470 482 476 480 506 Q 477 548 477 584 L 478 615 Z" style="fill: #0070C0;"></path>
                                                                        <path d="M 611 639 Q 612 643 614 646 Q 618 653 620 659 Q 624 666 612 678 Q 596 690 583 696 C 556 709 550 712 554 692 Q 554 689 556 683 Q 563 667 561 631 L 558 600 Q 554 563 549 521 C 545 491 573 499 580 528 Q 590 568 601 607 L 611 639 Z" style="fill: #0070C0;"></path>
                                                                        <path d="M 591 493 Q 616 497 649 500 C 679 503 684 519 656 530 Q 629 543 580 528 L 549 521 Q 513 514 480 506 L 448 500 Q 417 497 388 492 Q 372 491 382 475 Q 388 468 396 465 Q 406 462 417 465 Q 469 478 565 489 L 591 493 Z" style="fill: #0070C0;"></path>
                                                                        <path d="M 379 390 Q 385 389 397 390 Q 461 403 510 411 Q 529 415 521 426 Q 511 438 490 440 Q 472 441 382 410 C 354 400 349 393 379 390 Z" style="fill: #0070C0;"></path>
                                                                        <path d="M 382 410 Q 385 441 379 448 Q 361 467 347 470 Q 337 473 333 469 Q 326 465 333 453 Q 369 380 326 321 Q 325 321 325 320 Q 313 305 318 288 Q 324 263 336 253 Q 343 246 354 260 Q 379 284 464 341 Q 479 350 481 355 Q 484 365 467 359 Q 385 335 380 336 Q 373 342 379 390 L 382 410 Z" style="fill: #0070C0;"></path>
                                                                        <path d="M 603 402 Q 676 402 757 440 Q 767 444 781 447 Q 791 451 791 458 Q 790 464 777 474 Q 749 493 732 495 Q 725 496 723 488 Q 714 458 604 414 C 576 403 573 402 603 402 Z" style="fill: #0070C0;"></path>
                                                                        <path d="M 850 372 Q 841 385 826 431 Q 825 443 820 445 Q 816 448 814 435 Q 796 386 785 369 Q 775 359 748 352 Q 685 337 632 357 Q 613 366 608 378 Q 604 388 603 402 L 604 414 Q 605 436 612 463 Q 615 475 607 482 Q 600 489 591 493 C 566 509 559 513 565 489 Q 565 488 567 482 Q 574 455 573 429 Q 570 354 595 333 Q 655 282 784 312 Q 785 313 789 313 Q 817 322 846 342 Q 859 354 850 372 Z" style="fill: #0070C0;"></path>
                                                                        <path d="M 530 263 Q 561 275 589 278 Q 602 278 605 284 Q 608 291 599 301 Q 557 338 529 334 Q 523 333 522 323 Q 516 295 385 237 Q 381 230 385 228 Q 397 228 494 250 L 530 263 Z" style="fill: #0070C0;"></path>
                                                                        <path d="M 552 177 Q 627 184 734 185 Q 786 182 795 193 Q 799 203 785 215 Q 734 255 678 236 Q 621 226 540 211 L 497 205 Q 397 192 283 176 Q 264 175 278 159 Q 291 146 307 142 Q 326 138 340 141 Q 398 157 465 166 L 552 177 Z" style="fill: #0070C0;"></path>
                                                                        <path d="M 540 211 Q 540 256 539 257 Q 535 261 530 263 C 505 280 489 280 494 250 Q 497 241 497 205 L 496 133 Q 493 40 487 23 Q 478 -5 507 -47 Q 517 -63 523 -66 Q 532 -67 536 -56 Q 546 -31 543 -6 Q 539 84 539 158 L 540 211 Z" style="fill: #0070C0;"></path>
                                                                        <path d="M 465 166 Q 422 91 247 13 Q 231 6 244 1 Q 253 -2 288 6 Q 328 12 366 31 Q 400 49 440 80 Q 452 90 496 133 C 533 169 488 204 465 166 Z" style="fill: #0070C0;"></path>
                                                                        <path d="M 539 158 Q 612 79 691 6 Q 712 -13 746 -13 Q 807 -14 871 2 Q 887 3 888 9 Q 889 15 877 19 Q 724 68 714 73 Q 648 103 552 177 C 528 195 519 180 539 158 Z" style="fill: #0070C0;"></path>
                                    
                                    
                                                                                                                                                                                                                                                                                                                                                                                                                                                                                                                                                                                                                                                                                                                                                                                                                                                                                                                                                                                                                                                                                                                                                                                                                                                                                                                                            </g>
                            </svg>