<svg width='83' height='83' >
                                <g transform="translate(3, 70) scale(0.07, -0.07)">
                                    <!-- 先将完整的字以灰色字体绘制完成，层级位于下面 -->
                                                                        <path d="M 541 684 Q 701 712 709 719 Q 719 726 715 736 Q 708 748 678 757 Q 648 764 545 733 L 481 719 Q 405 706 320 701 Q 283 697 308 678 Q 351 651 407 663 Q 443 669 482 675 L 541 684 Z" style="fill: #0070C0;"></path>
                                                                        <path d="M 533 569 Q 560 575 680 587 Q 690 586 700 598 Q 701 610 679 620 Q 648 644 564 621 Q 549 618 536 614 L 483 603 Q 429 597 317 584 Q 289 581 310 564 Q 337 537 384 546 Q 427 555 483 562 L 533 569 Z" style="fill: #0070C0;"></path>
                                                                        <path d="M 526 485 Q 529 528 533 569 L 536 614 Q 537 650 541 684 L 545 733 Q 548 758 560 800 Q 564 812 543 827 Q 506 846 481 851 Q 465 855 456 846 Q 449 839 457 822 Q 478 794 478 773 Q 479 748 481 719 L 482 675 Q 483 641 483 603 L 483 562 Q 482 523 482 480 C 482 450 524 455 526 485 Z" style="fill: #0070C0;"></path>
                                                                        <path d="M 460 435 Q 479 439 503 441 Q 560 445 613 453 Q 749 469 907 457 Q 931 456 937 464 Q 944 477 932 489 Q 902 516 858 535 Q 845 541 818 532 Q 725 513 526 485 L 482 480 Q 352 465 286 455 Q 214 442 105 440 Q 92 440 90 428 Q 90 416 109 402 Q 125 389 157 378 Q 167 374 186 382 Q 202 389 280 403 Q 338 418 405 427 L 460 435 Z" style="fill: #0070C0;"></path>
                                                                        <path d="M 456 365 Q 460 374 477 387 Q 484 391 484 402 Q 484 420 460 435 C 436 453 410 457 405 427 Q 395 348 278 240 Q 275 239 273 236 Q 236 202 142 135 Q 135 131 144 127 Q 201 127 317 218 Q 347 248 378 277 L 392 292 Q 411 314 435 340 L 456 365 Z" style="fill: #0070C0;"></path>
                                                                        <path d="M 580 151 Q 614 200 640 267 Q 653 304 676 320 Q 695 333 677 352 Q 658 371 624 390 Q 602 400 577 392 Q 531 371 467 366 Q 461 366 456 365 C 426 362 407 350 435 340 Q 462 325 503 334 Q 534 338 564 344 Q 586 348 584 325 Q 584 259 539 188 L 513 152 Q 494 128 468 107 Q 399 56 223 14 Q 207 13 215 2 Q 222 -5 253 -5 Q 367 5 433 31 Q 499 58 548 112 L 580 151 Z" style="fill: #0070C0;"></path>
                                                                        <path d="M 548 112 Q 689 -29 713 -37 Q 767 -47 900 -27 Q 939 -21 935 -11 Q 934 -5 896 7 Q 707 61 653 97 Q 647 101 642 105 Q 611 127 580 151 L 539 188 Q 505 219 472 252 Q 433 292 396 292 Q 393 293 392 292 C 362 295 353 294 378 277 Q 441 235 513 152 L 548 112 Z" style="fill: #0070C0;"></path>
                                    
                                    
                                                                                                                                                                                                                                                                                                                                                                                                                                                                                                                                                                                                                                </g>
                            </svg>