<svg width='83' height='83' >
                                <g transform="translate(3, 70) scale(0.07, -0.07)">
                                    <!-- 先将完整的字以灰色字体绘制完成，层级位于下面 -->
                                                                        <path d="M 644 655 Q 702 662 754 666 Q 766 663 775 677 Q 776 689 754 701 Q 718 723 656 707 L 591 693 Q 569 690 549 685 Q 489 675 434 667 L 383 662 Q 328 659 270 654 Q 239 651 262 632 Q 296 602 325 610 Q 355 616 389 620 L 435 628 Q 504 640 585 649 L 644 655 Z" style="fill: #0070C0;"></path>
                                                                        <path d="M 434 667 Q 434 710 436 722 Q 437 744 424 756 Q 400 772 373 781 Q 360 785 350 780 Q 343 773 350 758 Q 371 722 383 662 L 389 620 Q 393 574 404 495 C 408 465 446 470 444 500 Q 438 576 435 628 L 434 667 Z" style="fill: #0070C0;"></path>
                                                                        <path d="M 609 520 Q 627 590 644 655 L 656 707 Q 657 710 658 712 Q 668 748 682 772 Q 688 782 670 801 Q 639 825 615 833 Q 599 840 590 832 Q 581 826 587 810 Q 600 782 598 765 Q 595 731 591 693 L 585 649 Q 576 585 564 514 C 559 484 602 491 609 520 Z" style="fill: #0070C0;"></path>
                                                                        <path d="M 500 469 Q 578 476 898 477 Q 920 477 927 486 Q 933 499 915 516 Q 857 561 812 553 Q 730 537 609 520 L 564 514 Q 531 511 497 506 Q 470 505 444 500 L 404 495 Q 265 482 111 465 Q 86 464 104 443 Q 120 427 140 420 Q 165 413 183 419 Q 306 450 444 463 Q 451 464 461 464 L 500 469 Z" style="fill: #0070C0;"></path>
                                                                        <path d="M 327 377 Q 317 383 280 388 Q 268 391 265 385 Q 259 379 268 363 Q 302 297 323 189 Q 327 156 347 135 Q 366 113 371 130 Q 372 134 372 138 L 373 164 Q 372 180 368 201 Q 346 301 338 340 C 332 369 331 375 327 377 Z" style="fill: #0070C0;"></path>
                                                                        <path d="M 630 163 Q 631 159 633 152 Q 639 136 652 137 Q 667 138 675 154 Q 688 172 712 257 Q 730 312 769 344 Q 790 360 772 377 Q 753 396 700 424 Q 687 433 614 419 Q 548 413 531 409 L 477 401 Q 449 398 423 392 Q 368 383 327 377 C 297 373 309 332 338 340 Q 378 353 478 366 L 529 373 Q 650 386 663 378 Q 673 371 668 338 Q 646 221 635 192 L 630 163 Z" style="fill: #0070C0;"></path>
                                                                        <path d="M 524 269 Q 563 275 598 278 Q 620 279 613 293 Q 603 306 579 312 Q 560 316 526 308 L 478 297 Q 433 288 395 280 Q 379 277 398 262 Q 408 255 428 257 Q 453 261 479 263 L 524 269 Z" style="fill: #0070C0;"></path>
                                                                        <path d="M 531 409 Q 531 442 530 444 Q 515 459 500 469 C 476 486 450 492 461 464 Q 476 427 477 401 L 478 366 Q 478 341 478 297 L 479 263 Q 479 227 479 179 C 479 149 520 156 521 186 Q 522 229 524 269 L 526 308 Q 527 342 529 373 L 531 409 Z" style="fill: #0070C0;"></path>
                                                                        <path d="M 372 138 Q 382 137 395 138 Q 528 156 630 163 C 660 165 663 180 635 192 Q 631 195 624 196 Q 600 202 521 186 L 479 179 Q 422 173 373 164 C 343 159 342 140 372 138 Z" style="fill: #0070C0;"></path>
                                                                        <path d="M 376 105 Q 352 47 191 -41 Q 167 -51 195 -54 Q 268 -57 401 29 Q 426 47 441 55 Q 454 65 454 75 Q 453 88 429 102 Q 402 118 390 118 Q 381 118 376 105 Z" style="fill: #0070C0;"></path>
                                                                        <path d="M 599 81 Q 657 35 727 -36 Q 745 -55 761 -59 Q 770 -60 777 -49 Q 789 -36 773 9 Q 758 63 598 113 Q 588 117 587 105 Q 587 92 599 81 Z" style="fill: #0070C0;"></path>
                                    
                                    
                                                                                                                                                                                                                                                                                                                                                                                                                                                                                                                                                                                                                                                                                                                                                                                                                                                                                                                                                </g>
                            </svg>