<svg width='83' height='83' >
                                <g transform="translate(3, 70) scale(0.07, -0.07)">
                                    <!-- 先将完整的字以灰色字体绘制完成，层级位于下面 -->
                                                                        <path d="M 358 728 Q 397 750 462 764 Q 477 765 480 772 Q 484 781 473 791 Q 419 830 390 825 Q 383 821 383 812 Q 383 778 225 703 Q 221 694 225 692 Q 244 692 308 713 Q 317 716 327 718 L 358 728 Z" style="fill: #0070C0;"></path>
                                                                        <path d="M 381 617 Q 418 624 467 631 Q 480 632 481 639 Q 482 651 467 658 Q 439 671 386 654 L 343 645 Q 211 620 156 613 Q 144 612 142 605 Q 139 596 152 586 Q 188 565 221 574 Q 270 592 310 601 L 381 617 Z" style="fill: #0070C0;"></path>
                                                                        <path d="M 377 582 Q 378 601 381 617 L 386 654 Q 387 670 399 688 Q 403 695 395 706 Q 379 719 358 728 C 331 741 313 744 327 718 Q 342 694 343 645 L 342 571 Q 341 513 336 488 Q 335 476 348 448 Q 355 436 366 443 Q 375 449 375 554 Q 375 561 376 567 L 377 582 Z" style="fill: #0070C0;"></path>
                                                                        <path d="M 310 601 Q 255 513 157 446 Q 144 436 156 434 Q 165 433 196 445 Q 227 455 255 477 Q 280 496 308 528 Q 327 550 342 571 C 373 613 335 640 310 601 Z" style="fill: #0070C0;"></path>
                                                                        <path d="M 376 567 Q 380 563 395 553 Q 437 519 448 519 Q 455 520 458 528 Q 459 538 453 556 Q 449 568 429 575 Q 381 587 377 582 C 365 577 365 577 376 567 Z" style="fill: #0070C0;"></path>
                                                                        <path d="M 603 712 Q 634 760 643 767 Q 650 774 646 785 Q 642 795 620 812 Q 599 825 585 824 Q 572 823 578 806 Q 590 784 550 707 Q 531 671 504 632 Q 497 625 495 619 Q 494 610 504 613 Q 525 617 587 691 L 603 712 Z" style="fill: #0070C0;"></path>
                                                                        <path d="M 636 683 Q 697 699 743 706 Q 753 707 756 703 Q 763 691 755 661 Q 739 576 715 541 Q 696 513 671 519 Q 658 522 645 525 Q 624 532 639 511 Q 664 480 675 455 Q 688 436 705 449 Q 759 479 793 598 Q 811 677 829 697 Q 839 707 835 716 Q 828 726 786 747 Q 770 756 753 745 Q 717 727 603 712 C 573 708 561 706 587 691 Q 594 684 609 680 L 636 683 Z" style="fill: #0070C0;"></path>
                                                                        <path d="M 609 680 Q 610 679 611 675 Q 611 674 613 671 Q 620 632 544 526 Q 538 520 537 514 Q 537 510 541 511 Q 595 526 663 637 Q 667 644 662 655 Q 650 673 636 683 C 612 701 598 708 609 680 Z" style="fill: #0070C0;"></path>
                                                                        <path d="M 532 479 Q 538 486 538 493 Q 537 506 513 518 Q 488 531 475 531 Q 468 530 462 518 Q 416 403 99 231 Q 77 221 103 219 Q 205 216 411 376 Q 472 433 513 463 L 532 479 Z" style="fill: #0070C0;"></path>
                                                                        <path d="M 513 463 Q 628 361 753 270 Q 780 251 819 254 Q 889 260 962 284 Q 981 288 982 294 Q 983 301 967 305 Q 762 354 754 358 Q 642 409 532 479 C 507 495 491 483 513 463 Z" style="fill: #0070C0;"></path>
                                                                        <path d="M 448 53 Q 417 56 385 60 Q 373 61 376 55 Q 377 48 387 42 Q 457 -6 485 -38 Q 498 -53 512 -39 Q 542 -8 538 56 Q 525 254 543 303 Q 552 319 536 332 Q 514 351 487 361 Q 471 367 463 360 Q 457 354 467 340 Q 500 277 484 83 Q 481 64 471 56 Q 462 49 448 53 Z" style="fill: #0070C0;"></path>
                                                                        <path d="M 342 259 Q 375 220 401 206 Q 413 203 420 213 Q 424 223 424 236 Q 418 263 353 289 Q 340 293 333 290 Q 329 289 330 280 Q 331 271 342 259 Z" style="fill: #0070C0;"></path>
                                                                        <path d="M 229 95 Q 217 91 217 82 Q 218 69 228 64 Q 250 54 283 42 Q 293 41 302 51 Q 323 76 413 146 Q 426 156 435 167 Q 445 176 444 184 Q 438 188 428 184 Q 266 99 229 95 Z" style="fill: #0070C0;"></path>
                                                                        <path d="M 611 290 Q 595 268 560 231 Q 556 225 559 219 Q 565 218 572 221 Q 639 255 671 266 Q 687 269 684 278 Q 681 293 666 310 Q 651 326 633 330 Q 620 331 619 315 Q 620 303 611 290 Z" style="fill: #0070C0;"></path>
                                                                        <path d="M 584 147 Q 651 99 732 29 Q 751 11 766 8 Q 775 8 781 19 Q 791 32 774 75 Q 756 129 581 178 Q 572 182 571 169 Q 572 156 584 147 Z" style="fill: #0070C0;"></path>
                                    
                                    
                                                                                                                                                                                                                                                                                                                                                                                                                                                                                                                                                                                                                                                                                                                                                                                                                                                                                                                                                                                                                                                                                                                                                                                                                                                                </g>
                            </svg>