<svg width='83' height='83' >
                                <g transform="translate(3, 70) scale(0.07, -0.07)">
                                    <!-- 先将完整的字以灰色字体绘制完成，层级位于下面 -->
                                                                        <path d="M 277 747 Q 264 750 246 752 Q 233 755 229 749 Q 222 742 233 725 Q 272 649 298 525 Q 302 488 326 464 Q 347 440 351 458 Q 352 465 354 474 L 353 506 Q 352 522 347 540 Q 317 667 309 707 C 303 736 302 742 277 747 Z" style="fill: #0070C0;"></path>
                                                                        <path d="M 643 504 Q 643 501 645 498 Q 649 480 664 481 Q 680 482 689 498 Q 705 517 735 617 Q 756 675 798 706 Q 820 724 803 742 Q 784 761 728 793 Q 713 803 639 790 Q 537 781 414 762 Q 291 744 277 747 C 247 746 280 701 309 707 Q 313 707 318 708 Q 370 721 457 733 L 511 740 Q 661 761 689 746 Q 701 739 693 701 Q 662 563 648 536 Q 645 530 643 524 C 638 513 638 513 643 504 Z" style="fill: #0070C0;"></path>
                                                                        <path d="M 366 628 Q 391 583 414 569 Q 424 565 432 573 Q 439 582 439 594 Q 436 624 395 645 Q 371 660 362 658 Q 358 658 357 648 Q 357 641 366 628 Z" style="fill: #0070C0;"></path>
                                                                        <path d="M 593 662 Q 583 637 558 595 Q 554 588 559 583 Q 566 582 572 587 Q 629 633 657 652 Q 672 658 667 667 Q 660 680 642 693 Q 624 706 605 706 Q 592 705 595 688 Q 599 676 593 662 Z" style="fill: #0070C0;"></path>
                                                                        <path d="M 525 495 Q 574 499 639 504 Q 640 505 643 504 C 663 505 663 505 643 524 Q 637 531 624 540 Q 605 552 526 532 L 476 523 Q 409 513 353 506 C 323 502 324 472 354 474 Q 360 474 368 475 Q 410 484 476 490 L 525 495 Z" style="fill: #0070C0;"></path>
                                                                        <path d="M 520 291 Q 520 331 521 369 L 523 417 Q 523 457 525 495 L 526 532 Q 527 596 529 654 Q 532 718 529 724 Q 520 733 511 740 C 488 759 444 760 457 733 Q 461 723 467 714 Q 477 687 476 523 L 476 490 Q 475 453 475 406 L 474 362 Q 474 326 474 284 C 474 254 520 261 520 291 Z" style="fill: #0070C0;"></path>
                                                                        <path d="M 521 369 Q 585 379 639 384 Q 667 388 657 403 Q 645 421 616 427 Q 592 430 523 417 L 475 406 Q 405 393 345 380 Q 326 376 349 358 Q 362 348 392 351 Q 434 358 474 362 L 521 369 Z" style="fill: #0070C0;"></path>
                                                                        <path d="M 474 284 Q 380 271 271 257 Q 252 254 266 239 Q 279 226 296 221 Q 315 217 331 220 Q 467 259 740 259 Q 759 259 763 267 Q 767 277 753 291 Q 701 330 636 312 Q 587 303 520 291 L 474 284 Z" style="fill: #0070C0;"></path>
                                                                        <path d="M 173 163 Q 151 111 119 66 Q 97 30 116 -6 Q 123 -25 147 -12 Q 196 25 201 100 Q 205 136 199 163 Q 193 172 187 173 Q 177 172 173 163 Z" style="fill: #0070C0;"></path>
                                                                        <path d="M 335 115 Q 368 57 394 37 Q 407 31 419 42 Q 428 52 429 69 Q 426 111 374 138 Q 346 157 331 155 Q 324 155 324 143 Q 324 131 335 115 Z" style="fill: #0070C0;"></path>
                                                                        <path d="M 517 143 Q 559 76 586 60 Q 599 54 611 65 Q 618 77 620 93 Q 614 144 536 177 L 535 178 Q 520 185 510 183 Q 504 183 505 171 Q 504 159 517 143 Z" style="fill: #0070C0;"></path>
                                                                        <path d="M 731 168 Q 788 110 854 26 Q 869 4 884 -1 Q 893 -2 901 7 Q 914 19 905 65 Q 893 125 735 199 Q 726 206 723 193 Q 722 180 731 168 Z" style="fill: #0070C0;"></path>
                                    
                                    
                                                                                                                                                                                                                                                                                                                                                                                                                                                                                                                                                                                                                                                                                                                                                                                                                                                                                                                                                                                                                            </g>
                            </svg>