<svg width='83' height='83' >
                                <g transform="translate(3, 70) scale(0.07, -0.07)">
                                    <!-- 先将完整的字以灰色字体绘制完成，层级位于下面 -->
                                                                        <path d="M 315 720 Q 342 756 367 773 Q 377 782 375 794 Q 374 806 351 829 Q 330 848 314 851 Q 298 851 302 831 Q 320 767 114 574 Q 104 567 101 561 Q 97 552 109 552 Q 169 562 296 699 L 315 720 Z" style="fill: #0070C0;"></path>
                                                                        <path d="M 296 699 Q 295 699 296 698 Q 311 665 296 584 Q 286 554 311 518 Q 312 517 315 513 Q 328 501 337 521 Q 347 549 347 584 Q 347 645 349 659 Q 355 678 347 686 Q 325 713 315 720 C 292 739 286 727 296 699 Z" style="fill: #0070C0;"></path>
                                                                        <path d="M 619 683 Q 646 693 675 701 Q 715 714 721 721 Q 728 728 724 737 Q 717 747 687 752 Q 654 755 587 722 L 549 707 Q 540 706 535 703 Q 480 685 414 673 Q 380 664 406 650 Q 449 631 501 648 Q 538 660 576 671 L 619 683 Z" style="fill: #0070C0;"></path>
                                                                        <path d="M 576 671 Q 681 536 814 481 Q 833 474 856 467 Q 911 451 942 454 Q 963 461 951 489 Q 938 511 910 625 Q 907 637 902 637 Q 898 636 897 624 Q 890 596 885 570 Q 878 536 866 534 Q 848 530 804 547 Q 758 563 710 601 Q 677 625 619 683 L 587 722 Q 545 779 542 834 Q 541 853 500 860 Q 460 867 451 861 Q 442 852 451 839 Q 479 823 500 785 Q 524 743 549 707 L 576 671 Z" style="fill: #0070C0;"></path>
                                                                        <path d="M 709 808 Q 740 787 772 760 Q 785 750 797 752 Q 806 753 809 764 Q 812 777 803 800 Q 791 830 702 847 Q 689 848 684 847 Q 680 843 682 833 Q 686 824 709 808 Z" style="fill: #0070C0;"></path>
                                                                        <path d="M 318 495 Q 308 499 273 502 Q 261 503 259 499 Q 253 492 263 478 Q 294 427 320 340 Q 326 313 344 297 Q 363 278 366 294 Q 367 298 367 303 L 365 327 Q 364 339 360 352 Q 338 428 331 460 C 324 489 323 493 318 495 Z" style="fill: #0070C0;"></path>
                                                                        <path d="M 607 332 L 608 331 Q 612 316 623 316 Q 636 317 644 329 Q 654 339 678 392 Q 697 438 732 464 Q 750 477 736 493 Q 721 509 676 537 Q 664 546 588 533 Q 575 533 318 495 C 288 491 302 451 331 460 Q 330 461 333 461 Q 375 474 447 483 L 492 489 Q 628 510 647 497 Q 654 491 648 468 Q 624 381 611 359 C 602 340 602 340 607 332 Z" style="fill: #0070C0;"></path>
                                                                        <path d="M 371 425 Q 411 374 423 371 Q 432 370 437 381 Q 438 390 434 403 Q 422 428 376 442 Q 370 443 369 436 Q 368 432 371 425 Z" style="fill: #0070C0;"></path>
                                                                        <path d="M 564 446 Q 554 427 531 396 Q 528 392 531 388 Q 535 387 541 390 Q 587 421 610 434 Q 622 438 619 444 Q 615 454 602 465 Q 590 475 576 477 Q 567 477 568 465 Q 569 456 564 446 Z" style="fill: #0070C0;"></path>
                                                                        <path d="M 505 320 Q 557 327 607 332 C 637 335 640 350 611 359 Q 593 369 506 351 L 461 343 Q 409 336 365 327 C 336 321 337 300 367 303 Q 370 303 461 314 L 505 320 Z" style="fill: #0070C0;"></path>
                                                                        <path d="M 501 193 Q 501 215 502 237 L 503 275 Q 503 299 505 320 L 506 351 Q 507 388 509 423 Q 512 474 497 485 Q 494 488 492 489 C 469 508 431 509 447 483 Q 450 477 454 472 Q 457 457 461 343 L 461 314 Q 461 293 461 266 L 461 232 Q 461 211 461 187 C 461 157 501 163 501 193 Z" style="fill: #0070C0;"></path>
                                                                        <path d="M 502 237 Q 557 246 606 250 Q 628 251 621 265 Q 611 278 588 285 Q 558 291 503 275 L 461 266 Q 407 257 360 248 Q 344 245 362 230 Q 374 221 399 224 Q 430 228 461 232 L 502 237 Z" style="fill: #0070C0;"></path>
                                                                        <path d="M 461 187 Q 373 177 270 162 Q 254 161 266 146 Q 276 136 292 131 Q 308 127 322 130 Q 451 164 698 164 Q 714 165 718 171 Q 722 181 709 192 Q 664 228 606 211 Q 561 204 501 193 L 461 187 Z" style="fill: #0070C0;"></path>
                                                                        <path d="M 207 119 Q 185 68 155 23 Q 133 -7 153 -43 Q 160 -61 181 -48 Q 229 -12 233 61 Q 237 94 231 119 Q 225 128 220 128 Q 211 127 207 119 Z" style="fill: #0070C0;"></path>
                                                                        <path d="M 346 81 Q 382 5 405 -3 Q 418 -7 428 9 Q 432 21 428 42 Q 422 60 402 74 Q 371 99 356 105 Q 349 109 345 98 Q 341 91 346 81 Z" style="fill: #0070C0;"></path>
                                                                        <path d="M 513 92 Q 564 14 588 11 Q 601 8 610 26 Q 613 39 606 60 Q 597 79 574 91 Q 537 113 521 118 Q 512 121 510 110 Q 507 101 513 92 Z" style="fill: #0070C0;"></path>
                                                                        <path d="M 715 107 Q 761 62 818 -2 Q 831 -21 846 -25 Q 853 -26 861 -18 Q 873 -6 862 34 Q 853 82 720 135 Q 719 136 717 136 Q 710 140 707 129 Q 706 117 715 107 Z" style="fill: #0070C0;"></path>
                                    
                                    
                                                                                                                                                                                                                                                                                                                                                                                                                                                                                                                                                                                                                                                                                                                                                                                                                                                                                                                                                                                                                                                                                                                                                                                                                                                                                                                                                                                                                        </g>
                            </svg>