<svg width='83' height='83' >
                                <g transform="translate(3, 70) scale(0.07, -0.07)">
                                    <!-- 先将完整的字以灰色字体绘制完成，层级位于下面 -->
                                                                        <path d="M 399 735 Q 441 753 487 758 Q 500 758 504 763 Q 507 772 499 781 Q 451 820 430 817 Q 423 816 422 807 Q 416 774 233 709 Q 229 702 233 700 Q 237 699 357 724 L 399 735 Z" style="fill: #0070C0;"></path>
                                                                        <path d="M 406 628 Q 442 635 486 640 Q 499 641 501 647 Q 502 659 487 666 Q 460 678 411 665 L 367 656 Q 217 629 160 625 Q 150 624 147 617 Q 144 608 156 598 Q 189 574 234 588 Q 297 609 345 617 L 406 628 Z" style="fill: #0070C0;"></path>
                                                                        <path d="M 403 596 Q 404 612 406 628 L 411 665 Q 411 666 412 668 Q 413 684 424 705 Q 428 712 420 722 Q 410 729 399 735 C 373 750 346 752 357 724 Q 366 705 367 656 L 367 579 Q 367 545 364 528 Q 364 525 375 488 Q 382 476 394 483 Q 403 489 403 575 L 403 596 Z" style="fill: #0070C0;"></path>
                                                                        <path d="M 345 617 Q 288 548 155 452 Q 148 445 157 441 Q 175 438 268 494 Q 316 524 366 578 Q 366 579 367 579 C 407 622 365 641 345 617 Z" style="fill: #0070C0;"></path>
                                                                        <path d="M 403 575 Q 463 530 479 532 Q 489 532 491 546 Q 490 556 480 569 Q 470 582 448 587 Q 417 597 403 596 C 376 595 379 593 403 575 Z" style="fill: #0070C0;"></path>
                                                                        <path d="M 623 712 Q 662 761 664 768 Q 663 769 663 770 Q 660 780 641 796 Q 622 809 609 810 Q 596 809 601 794 Q 610 773 571 706 Q 552 675 525 642 Q 518 635 516 630 Q 513 623 524 624 Q 539 627 608 694 L 623 712 Z" style="fill: #0070C0;"></path>
                                                                        <path d="M 659 690 Q 720 708 768 714 Q 780 715 782 712 Q 786 705 783 683 Q 776 623 761 598 Q 743 570 717 575 Q 693 579 672 586 Q 651 590 668 573 Q 705 542 724 517 Q 734 501 748 512 Q 790 531 823 639 Q 829 684 851 706 Q 861 716 857 724 Q 850 733 812 751 Q 797 758 782 749 Q 733 725 623 712 C 593 708 583 707 608 694 Q 609 694 612 692 Q 625 683 636 685 L 659 690 Z" style="fill: #0070C0;"></path>
                                                                        <path d="M 636 685 L 637 683 Q 637 617 546 530 Q 542 526 541 522 Q 541 518 545 518 Q 602 533 667 621 Q 677 636 684 642 Q 688 649 684 659 Q 671 684 659 690 C 634 707 633 708 636 685 Z" style="fill: #0070C0;"></path>
                                                                        <path d="M 318 458 Q 306 462 286 463 Q 276 466 272 461 Q 268 455 276 441 Q 303 393 322 313 Q 326 289 341 274 Q 357 255 362 269 Q 363 273 364 280 L 363 304 Q 351 365 338 427 C 332 454 332 454 318 458 Z" style="fill: #0070C0;"></path>
                                                                        <path d="M 632 311 Q 644 290 656 282 Q 665 273 681 292 Q 693 305 725 389 Q 735 417 759 439 Q 772 449 762 463 Q 749 479 712 506 Q 694 516 629 502 Q 613 502 440 476 Q 373 464 318 458 C 288 455 309 419 338 427 Q 337 428 340 428 Q 392 441 468 453 L 507 459 Q 658 486 676 466 Q 683 456 681 446 Q 654 347 635 340 C 622 326 622 326 632 311 Z" style="fill: #0070C0;"></path>
                                                                        <path d="M 384 395 Q 420 340 438 336 Q 447 333 454 346 Q 455 356 451 371 Q 438 395 389 414 Q 382 415 381 408 Q 380 402 384 395 Z" style="fill: #0070C0;"></path>
                                                                        <path d="M 582 419 Q 572 397 547 361 Q 543 357 547 352 Q 551 351 557 354 Q 608 394 632 408 Q 644 412 641 419 Q 637 429 622 441 Q 609 453 594 453 Q 584 452 585 439 Q 588 430 582 419 Z" style="fill: #0070C0;"></path>
                                                                        <path d="M 529 298 Q 584 305 632 311 C 662 315 662 327 635 340 Q 622 353 530 332 L 483 323 Q 420 314 363 304 C 333 299 334 277 364 280 L 484 292 L 529 298 Z" style="fill: #0070C0;"></path>
                                                                        <path d="M 525 171 Q 525 193 526 214 L 527 247 Q 527 274 529 298 L 530 332 Q 531 363 533 391 Q 536 433 532 439 Q 520 451 507 459 C 482 476 453 479 468 453 Q 472 446 477 438 Q 483 420 483 323 L 484 292 Q 484 270 484 240 L 484 208 Q 484 189 485 166 C 486 136 525 141 525 171 Z" style="fill: #0070C0;"></path>
                                                                        <path d="M 526 214 Q 550 220 634 228 Q 641 227 649 236 Q 650 245 633 253 Q 612 274 531 248 Q 528 248 527 247 L 484 240 Q 481 240 388 230 Q 366 227 382 214 Q 403 198 446 202 Q 462 205 484 208 L 526 214 Z" style="fill: #0070C0;"></path>
                                                                        <path d="M 485 166 Q 386 156 275 143 Q 257 142 270 126 Q 282 114 297 110 Q 315 104 329 108 Q 453 141 716 140 Q 729 140 744 139 Q 762 139 766 146 Q 770 156 757 168 Q 711 204 655 191 Q 600 182 525 171 L 485 166 Z" style="fill: #0070C0;"></path>
                                                                        <path d="M 270 83 Q 245 44 212 12 Q 187 -18 199 -54 Q 203 -73 226 -63 Q 277 -39 286 22 Q 296 53 294 79 Q 290 89 285 90 Q 276 90 270 83 Z" style="fill: #0070C0;"></path>
                                                                        <path d="M 392 58 Q 423 -20 446 -29 Q 458 -33 468 -20 Q 472 -10 471 11 Q 467 30 447 45 Q 419 73 404 80 Q 397 84 392 74 Q 388 67 392 58 Z" style="fill: #0070C0;"></path>
                                                                        <path d="M 540 66 Q 594 -12 614 -16 Q 626 -19 634 -3 Q 637 9 631 28 Q 624 47 600 60 Q 564 85 548 90 Q 539 93 537 82 Q 536 75 540 66 Z" style="fill: #0070C0;"></path>
                                                                        <path d="M 696 74 Q 745 28 804 -42 Q 819 -61 833 -65 Q 842 -66 849 -58 Q 861 -45 850 -3 Q 843 34 776 68 Q 770 74 698 104 Q 689 108 687 97 Q 686 84 696 74 Z" style="fill: #0070C0;"></path>
                                    
                                    
                                                                                                                                                                                                                                                                                                                                                                                                                                                                                                                                                                                                                                                                                                                                                                                                                                                                                                                                                                                                                                                                                                                                                                                                                                                                                                                                                                                                                                                                                                                                                                                                                                                            </g>
                            </svg>