<svg width='83' height='83' >
                                <g transform="translate(3, 70) scale(0.07, -0.07)">
                                    <!-- 先将完整的字以灰色字体绘制完成，层级位于下面 -->
                                                                        <path d="M 337 781 Q 328 785 308 788 Q 299 789 296 786 Q 292 782 298 768 Q 314 740 327 689 Q 330 674 339 665 Q 352 649 357 660 Q 358 664 359 671 L 358 695 Q 352 750 352 762 C 352 775 352 775 337 781 Z" style="fill: #0070C0;"></path>
                                                                        <path d="M 459 712 Q 469 755 484 767 Q 500 786 482 796 Q 467 803 447 816 Q 435 822 395 801 Q 374 794 337 781 C 309 771 323 755 352 762 Q 382 769 407 777 Q 423 781 427 775 Q 431 772 428 752 Q 424 734 420 714 C 414 685 452 683 459 712 Z" style="fill: #0070C0;"></path>
                                                                        <path d="M 359 671 Q 366 670 375 673 Q 403 680 469 689 Q 476 690 477 697 Q 477 703 459 712 L 420 714 L 419 714 Q 386 702 358 695 C 329 688 329 673 359 671 Z" style="fill: #0070C0;"></path>
                                                                        <path d="M 552 811 Q 545 815 522 819 Q 515 822 512 818 Q 508 814 513 803 Q 529 772 541 718 Q 542 702 553 692 Q 565 677 568 688 Q 569 695 571 704 L 569 724 Q 560 773 560 791 C 560 808 560 808 552 811 Z" style="fill: #0070C0;"></path>
                                                                        <path d="M 676 743 Q 689 782 702 794 Q 718 813 702 823 Q 687 832 668 845 Q 655 852 640 844 Q 624 832 601 825 Q 580 818 552 811 C 523 804 530 786 560 791 Q 567 792 575 794 Q 603 801 627 807 Q 643 811 647 804 Q 650 801 637 743 C 630 714 666 715 676 743 Z" style="fill: #0070C0;"></path>
                                                                        <path d="M 571 704 Q 574 704 579 704 Q 640 713 685 717 Q 703 720 697 730 Q 690 740 676 743 L 637 743 Q 628 743 619 740 Q 591 731 569 724 C 540 715 541 704 571 704 Z" style="fill: #0070C0;"></path>
                                                                        <path d="M 342 638 Q 330 642 314 643 Q 304 646 300 641 Q 296 635 303 621 Q 327 581 344 511 Q 348 492 361 478 Q 377 459 382 473 Q 383 480 384 488 L 382 510 Q 376 528 365 610 C 362 632 362 632 342 638 Z" style="fill: #0070C0;"></path>
                                                                        <path d="M 612 517 Q 625 498 637 490 Q 646 483 660 501 Q 669 511 693 575 Q 702 602 723 623 Q 735 633 725 646 Q 712 661 676 685 Q 663 694 591 678 Q 585 678 440 654 Q 388 644 342 638 C 312 634 336 602 365 610 Q 411 623 479 633 L 510 639 Q 627 660 642 646 Q 649 637 647 630 Q 634 566 628 555 Q 624 545 611 543 C 598 536 598 536 612 517 Z" style="fill: #0070C0;"></path>
                                                                        <path d="M 522 572 Q 555 578 585 581 Q 603 584 597 594 Q 588 606 569 610 Q 553 611 524 604 L 484 595 Q 444 586 410 577 Q 397 574 412 563 Q 421 556 438 559 Q 462 563 486 566 L 522 572 Z" style="fill: #0070C0;"></path>
                                                                        <path d="M 519 536 Q 520 555 522 572 L 524 604 Q 524 608 525 609 Q 529 622 523 628 Q 516 635 510 639 C 486 657 475 663 479 633 Q 480 626 484 595 L 486 566 Q 486 551 488 530 C 491 500 517 506 519 536 Z" style="fill: #0070C0;"></path>
                                                                        <path d="M 384 488 Q 394 487 409 489 Q 526 508 612 517 C 642 520 640 535 611 543 Q 607 544 601 546 Q 571 553 519 536 L 488 530 Q 431 521 382 510 C 353 504 354 489 384 488 Z" style="fill: #0070C0;"></path>
                                                                        <path d="M 212 432 Q 193 431 206 415 Q 219 402 236 396 Q 255 392 270 395 Q 448 441 784 441 Q 803 441 823 439 Q 842 439 846 447 Q 852 457 836 471 Q 787 508 753 501 Q 593 473 212 432 Z" style="fill: #0070C0;"></path>
                                                                        <path d="M 341 383 Q 338 383 336 383 Q 326 384 324 381 Q 320 377 327 363 Q 343 335 358 288 Q 361 273 371 265 Q 386 249 389 261 Q 390 265 391 272 L 389 295 Q 382 334 381 350 C 379 380 371 383 341 383 Z" style="fill: #0070C0;"></path>
                                                                        <path d="M 632 326 Q 647 350 667 362 Q 682 375 671 391 Q 611 439 572 420 Q 431 375 341 383 C 311 385 351 346 381 350 Q 484 365 589 382 Q 590 381 594 378 Q 598 374 597 365 Q 593 347 589 330 C 582 301 615 301 632 326 Z" style="fill: #0070C0;"></path>
                                                                        <path d="M 493 283 Q 572 295 636 302 Q 655 303 648 314 Q 644 323 632 326 L 589 330 Q 579 329 571 327 Q 472 309 389 295 C 359 290 361 269 391 272 L 448 277 L 493 283 Z" style="fill: #0070C0;"></path>
                                                                        <path d="M 304 218 Q 295 222 262 227 Q 252 230 248 225 Q 244 219 251 205 Q 276 159 295 80 Q 299 58 313 42 Q 329 23 334 37 Q 335 43 336 50 L 335 75 Q 317 162 314 185 C 310 215 309 216 304 218 Z" style="fill: #0070C0;"></path>
                                                                        <path d="M 652 80 Q 656 70 667 69 Q 683 72 713 136 Q 728 182 760 208 Q 776 221 763 236 Q 747 251 703 275 Q 688 282 614 267 Q 608 267 525 255 L 461 245 Q 436 242 415 237 Q 351 225 304 218 C 274 213 284 180 314 185 Q 318 185 325 186 Q 377 202 466 215 L 523 223 Q 653 244 677 232 Q 684 228 679 206 Q 664 128 653 108 C 644 86 644 86 652 80 Z" style="fill: #0070C0;"></path>
                                                                        <path d="M 510 145 Q 556 152 599 156 Q 618 159 612 170 Q 605 182 583 187 Q 552 194 514 179 L 466 170 Q 420 163 379 154 Q 364 153 381 138 Q 390 132 467 140 L 510 145 Z" style="fill: #0070C0;"></path>
                                                                        <path d="M 512 66 Q 585 76 652 80 C 682 82 681 98 653 108 Q 641 120 509 98 L 468 92 Q 398 85 335 75 C 305 70 306 48 336 50 Q 339 50 470 61 L 512 66 Z" style="fill: #0070C0;"></path>
                                                                        <path d="M 896 11 Q 881 54 873 127 Q 872 140 865 146 Q 858 150 854 132 Q 836 44 823 27 Q 795 -6 660 -17 Q 587 -17 556 -6 Q 519 12 512 66 L 509 98 Q 509 108 509 117 Q 509 132 510 145 L 514 179 Q 515 207 523 223 C 531 249 531 249 525 255 Q 519 267 493 283 C 469 300 436 305 448 277 Q 455 262 461 245 L 466 215 Q 466 194 466 170 L 467 140 Q 467 115 468 92 L 470 61 Q 476 -8 516 -35 Q 571 -74 761 -58 Q 848 -51 880 -30 Q 907 -17 896 11 Z" style="fill: #0070C0;"></path>
                                    
                                    
                                                                                                                                                                                                                                                                                                                                                                                                                                                                                                                                                                                                                                                                                                                                                                                                                                                                                                                                                                                                                                                                                                                                                                                                                                                                                                                                                                                                                                                                                                                                                                                                                                                            </g>
                            </svg>