<svg width='83' height='83' >
                                <g transform="translate(3, 70) scale(0.07, -0.07)">
                                    <!-- 先将完整的字以灰色字体绘制完成，层级位于下面 -->
                                                                        <path d="M 387 790 Q 363 809 338 818 Q 331 821 325 816 Q 318 810 326 798 Q 362 726 357 555 Q 356 521 370 488 Q 380 466 392 459 Q 408 452 413 483 L 414 516 Q 414 525 407 582 L 406 610 Q 405 631 404 668 L 404 696 Q 403 729 405 757 Q 405 761 405 763 C 405 776 405 776 387 790 Z" style="fill: #0070C0;"></path>
                                                                        <path d="M 579 503 Q 580 499 584 492 Q 597 461 606 462 Q 621 463 638 495 Q 654 520 654 541 Q 642 718 677 764 Q 687 780 680 790 Q 655 815 608 836 Q 593 842 513 813 Q 428 795 387 790 C 357 786 376 756 405 763 Q 562 803 585 788 Q 592 769 594 718 Q 590 567 580 538 Q 579 535 578 532 C 573 515 573 515 579 503 Z" style="fill: #0070C0;"></path>
                                                                        <path d="M 404 668 Q 405 668 409 668 Q 479 680 531 687 Q 555 691 545 704 Q 535 719 509 722 Q 476 726 404 696 C 376 685 374 668 404 668 Z" style="fill: #0070C0;"></path>
                                                                        <path d="M 407 582 Q 408 582 413 582 Q 485 591 538 596 Q 562 599 553 612 Q 543 627 517 632 Q 486 638 406 610 C 378 600 377 582 407 582 Z" style="fill: #0070C0;"></path>
                                                                        <path d="M 413 483 Q 444 493 579 503 C 609 505 601 513 578 532 Q 574 536 568 539 Q 552 548 524 540 Q 463 525 414 516 C 385 511 384 475 413 483 Z" style="fill: #0070C0;"></path>
                                                                        <path d="M 376 218 Q 376 140 362 73 Q 356 54 367 32 Q 385 -14 400 -18 Q 413 -24 421 2 Q 431 39 428 69 Q 413 306 441 341 Q 460 365 450 377 Q 437 390 399 405 Q 377 412 365 402 Q 331 383 272 371 Q 242 367 243 383 Q 247 434 259 461 Q 268 483 256 492 Q 232 511 211 517 Q 192 521 181 514 Q 171 507 186 488 Q 207 467 191 382 Q 190 366 181 353 Q 174 338 182 325 Q 191 310 205 303 Q 215 299 233 315 Q 273 340 342 358 Q 363 362 372 353 Q 378 344 376 261 L 376 218 Z" style="fill: #0070C0;"></path>
                                                                        <path d="M 260 190 Q 305 208 376 218 C 406 222 406 257 376 261 Q 364 264 352 260 Q 196 227 148 222 Q 135 221 133 213 Q 130 203 145 191 Q 184 167 226 179 L 260 190 Z" style="fill: #0070C0;"></path>
                                                                        <path d="M 226 179 L 227 178 Q 236 115 122 -23 Q 116 -27 116 -33 Q 116 -37 121 -37 Q 181 -22 267 104 Q 267 110 288 136 Q 295 146 288 158 Q 273 180 260 190 C 237 210 220 208 226 179 Z" style="fill: #0070C0;"></path>
                                                                        <path d="M 758 419 Q 780 455 803 488 Q 810 498 816 505 Q 822 509 825 514 Q 832 523 821 543 Q 799 573 779 586 Q 767 595 757 591 Q 747 587 748 571 Q 754 544 710 422 C 700 394 742 393 758 419 Z" style="fill: #0070C0;"></path>
                                                                        <path d="M 616 356 Q 623 356 634 358 Q 679 370 776 381 Q 789 382 789 393 Q 789 402 758 419 L 710 422 Q 706 422 700 420 Q 645 402 599 391 C 570 384 586 354 616 356 Z" style="fill: #0070C0;"></path>
                                                                        <path d="M 613 244 Q 614 334 615 343 Q 616 350 616 356 C 618 376 618 376 599 391 Q 586 404 563 411 Q 553 415 539 411 Q 532 405 538 392 Q 539 385 544 376 Q 556 354 557 138 Q 554 110 547 75 Q 531 12 572 -34 Q 584 -49 595 -35 Q 610 -10 612 179 Q 612 197 613 211 L 613 244 Z" style="fill: #0070C0;"></path>
                                                                        <path d="M 613 211 Q 628 211 731 230 Q 752 237 759 218 Q 768 169 757 85 Q 754 54 769 32 Q 797 -10 808 -8 Q 820 -7 825 14 Q 829 29 824 91 Q 827 215 832 222 Q 847 252 844 256 Q 835 265 805 275 Q 771 288 745 276 Q 690 255 613 244 C 583 240 583 208 613 211 Z" style="fill: #0070C0;"></path>
                                    
                                    
                                                                                                                                                                                                                                                                                                                                                                                                                                                                                                                                                                                                                                                                                                                                                                                                                                                                                                                                                                                                                            </g>
                            </svg>