<svg width='83' height='83' >
                                <g transform="translate(3, 70) scale(0.07, -0.07)">
                                    <!-- 先将完整的字以灰色字体绘制完成，层级位于下面 -->
                                                                        <path d="M 166 640 Q 212 674 239 697 Q 290 746 319 761 Q 338 771 327 785 Q 315 800 292 811 Q 270 821 260 818 Q 248 817 253 805 Q 259 781 154 651 C 135 628 142 622 166 640 Z" style="fill: #0070C0;"></path>
                                                                        <path d="M 193 461 Q 193 464 182 533 L 177 561 Q 167 616 167 631 Q 167 637 166 640 C 165 646 165 646 154 651 Q 144 657 119 660 Q 107 663 105 659 Q 99 653 106 639 Q 134 578 150 477 Q 153 446 170 426 Q 186 407 190 421 Q 191 427 193 433 L 193 461 Z" style="fill: #0070C0;"></path>
                                                                        <path d="M 182 533 Q 219 543 248 550 Q 267 557 258 566 Q 248 576 226 576 Q 207 576 177 561 C 150 548 153 525 182 533 Z" style="fill: #0070C0;"></path>
                                                                        <path d="M 366 458 Q 366 455 368 452 Q 372 439 383 441 Q 393 442 399 455 Q 412 474 429 568 Q 439 608 468 634 Q 483 647 470 659 Q 455 672 414 691 Q 402 697 366 687 Q 341 684 318 676 Q 297 670 283 667 Q 271 667 269 663 Q 266 659 279 651 Q 303 639 321 646 Q 373 664 388 657 Q 398 651 394 620 Q 390 601 388 581 L 383 552 Q 373 497 368 479 Q 367 479 367 478 C 363 466 363 466 366 458 Z" style="fill: #0070C0;"></path>
                                                                        <path d="M 388 581 Q 379 590 329 579 Q 322 575 315 570 Q 300 567 317 554 Q 320 551 329 551 Q 359 552 383 552 C 413 552 412 564 388 581 Z" style="fill: #0070C0;"></path>
                                                                        <path d="M 367 478 Q 339 500 268 479 Q 228 469 193 461 C 164 454 163 434 193 433 Q 200 432 209 434 Q 258 446 366 458 C 392 461 392 461 367 478 Z" style="fill: #0070C0;"></path>
                                                                        <path d="M 138 265 Q 138 319 139 334 L 141 344 Q 142 356 136 361 Q 117 374 100 381 Q 87 385 78 382 Q 71 376 81 362 Q 120 310 95 122 Q 89 104 77 84 Q 67 68 75 59 Q 82 49 102 41 Q 115 35 125 49 Q 135 74 196 119 Q 218 132 227 148 Q 231 157 225 157 Q 219 157 153 126 Q 146 122 141 125 Q 132 126 133 146 Q 136 210 137 251 L 138 265 Z" style="fill: #0070C0;"></path>
                                                                        <path d="M 139 334 Q 148 325 200 302 Q 213 296 222 299 Q 229 300 230 312 Q 229 319 219 329 Q 195 350 142 345 Q 141 345 141 344 C 132 340 132 340 139 334 Z" style="fill: #0070C0;"></path>
                                                                        <path d="M 137 251 Q 141 247 187 222 Q 202 215 212 218 Q 221 219 221 234 Q 220 243 209 254 Q 188 272 139 266 Q 138 266 138 265 C 126 260 126 260 137 251 Z" style="fill: #0070C0;"></path>
                                                                        <path d="M 286 272 Q 286 311 289 336 L 290 353 Q 293 387 285 396 Q 264 415 249 418 Q 239 419 234 416 Q 227 410 236 399 Q 252 371 251 345 Q 263 134 236 98 Q 226 82 232 64 Q 241 37 254 28 Q 263 22 273 37 Q 292 64 358 129 Q 373 141 374 147 Q 375 157 358 149 Q 298 122 293 124 Q 286 128 286 145 Q 285 206 286 250 L 286 272 Z" style="fill: #0070C0;"></path>
                                                                        <path d="M 289 336 Q 347 302 361 303 Q 370 304 370 316 Q 369 323 360 334 Q 350 344 330 347 Q 303 354 290 353 C 262 352 263 351 289 336 Z" style="fill: #0070C0;"></path>
                                                                        <path d="M 286 250 Q 338 214 351 215 Q 361 216 362 230 Q 361 239 352 251 Q 331 272 286 272 C 256 272 261 267 286 250 Z" style="fill: #0070C0;"></path>
                                                                        <path d="M 376 394 Q 395 357 398 316 Q 413 145 468 84 Q 513 29 628 -1 Q 716 -22 822 -15 Q 898 -9 948 17 Q 964 18 956 49 Q 938 110 932 193 Q 933 206 926 214 Q 919 220 915 210 Q 864 57 836 50 Q 817 38 750 38 Q 668 37 618 53 Q 488 92 459 179 Q 446 228 444 307 Q 443 343 451 359 Q 461 375 430 401 Q 396 431 379 426 Q 363 420 376 394 Z" style="fill: #0070C0;"></path>
                                                                        <path d="M 694 677 Q 796 699 799 701 Q 806 708 802 715 Q 796 724 773 730 Q 749 734 697 717 L 643 703 Q 607 699 567 694 Q 537 690 558 675 Q 591 657 637 666 Q 638 667 645 667 L 694 677 Z" style="fill: #0070C0;"></path>
                                                                        <path d="M 687 582 Q 717 589 749 594 Q 774 600 779 603 Q 786 609 782 615 Q 778 624 755 630 Q 734 634 690 620 L 645 609 Q 612 603 574 600 Q 547 596 566 583 Q 596 565 639 574 Q 640 575 645 575 L 687 582 Z" style="fill: #0070C0;"></path>
                                                                        <path d="M 683 526 Q 684 554 687 582 L 690 620 Q 691 650 694 677 L 697 717 Q 697 732 704 770 Q 713 803 704 812 Q 700 816 696 819 Q 665 835 642 839 Q 627 842 620 834 Q 613 827 621 814 Q 639 789 640 771 Q 641 738 643 703 L 645 667 Q 645 639 645 609 L 645 575 Q 645 550 645 520 C 645 490 682 496 683 526 Z" style="fill: #0070C0;"></path>
                                                                        <path d="M 645 520 Q 566 508 474 494 Q 456 493 470 479 Q 482 467 496 463 Q 514 459 527 463 Q 668 503 895 504 Q 911 504 915 512 Q 919 521 906 532 Q 854 568 807 550 Q 756 541 683 526 L 645 520 Z" style="fill: #0070C0;"></path>
                                                                        <path d="M 611 254 Q 612 288 616 313 L 618 338 Q 621 386 625 406 C 628 424 628 424 617 432 Q 616 435 611 437 Q 586 450 572 450 Q 560 447 565 437 Q 598 358 560 213 Q 536 144 558 112 Q 564 100 573 105 Q 609 130 609 231 L 611 254 Z" style="fill: #0070C0;"></path>
                                                                        <path d="M 625 406 Q 631 409 726 431 Q 739 435 748 428 Q 752 424 753 404 Q 760 259 757 172 Q 756 150 749 141 Q 746 138 697 146 Q 681 153 681 144 Q 718 104 739 75 Q 749 59 763 54 Q 770 51 778 59 Q 815 102 814 145 Q 790 380 812 417 Q 822 433 812 442 Q 794 458 763 470 Q 747 477 735 471 Q 690 444 617 432 C 587 427 596 398 625 406 Z" style="fill: #0070C0;"></path>
                                                                        <path d="M 616 313 Q 673 322 713 328 Q 732 332 725 342 Q 716 354 695 357 Q 668 360 618 338 C 590 326 586 308 616 313 Z" style="fill: #0070C0;"></path>
                                                                        <path d="M 609 231 Q 613 231 618 231 Q 675 237 716 240 Q 735 243 729 254 Q 720 266 699 270 Q 672 276 611 254 C 583 244 579 231 609 231 Z" style="fill: #0070C0;"></path>
                                    
                                    
                                                                                                                                                                                                                                                                                                                                                                                                                                                                                                                                                                                                                                                                                                                                                                                                                                                                                                                                                                                                                                                                                                                                                                                                                                                                                                                                                                                                                                                                                                                                                                                                                                                                                                                                        </g>
                            </svg>