<svg width='83' height='83' >
                                <g transform="translate(3, 70) scale(0.07, -0.07)">
                                    <!-- 先将完整的字以灰色字体绘制完成，层级位于下面 -->
                                                                        <path d="M 464 789 Q 503 770 545 743 Q 563 733 579 737 Q 591 741 593 756 Q 594 772 577 803 Q 559 836 447 840 Q 429 840 423 835 Q 419 831 424 816 Q 430 806 464 789 Z" style="fill: #0070C0;"></path>
                                                                        <path d="M 616 663 Q 692 673 757 678 Q 769 675 779 690 Q 780 703 756 716 Q 713 741 649 722 Q 451 686 287 668 Q 271 667 254 664 Q 221 661 246 641 Q 283 611 312 616 Q 423 637 568 656 L 616 663 Z" style="fill: #0070C0;"></path>
                                                                        <path d="M 545 470 Q 579 513 607 564 Q 626 604 640 615 Q 652 625 645 636 Q 638 651 616 663 C 591 680 564 686 568 656 Q 583 602 504 500 L 483 476 Q 408 403 274 367 Q 220 357 150 347 Q 131 343 151 335 Q 293 298 420 359 Q 477 387 520 441 Q 520 442 521 443 L 545 470 Z" style="fill: #0070C0;"></path>
                                                                        <path d="M 521 443 Q 720 280 761 276 Q 765 277 772 277 Q 863 289 936 310 Q 973 320 969 331 Q 968 335 927 341 Q 770 359 732 372 Q 650 397 545 470 L 504 500 Q 467 528 429 559 Q 389 592 356 588 Q 340 587 337 581 Q 336 574 352 566 Q 388 551 411 530 Q 445 508 483 476 L 521 443 Z" style="fill: #0070C0;"></path>
                                                                        <path d="M 369 289 Q 393 253 371 149 Q 347 59 251 -9 Q 238 -18 251 -20 Q 297 -20 356 31 Q 377 50 409 103 Q 421 130 443 219 Q 444 240 455 258 Q 464 276 447 284 Q 431 297 416 302 Q 394 315 376 308 Q 363 304 369 289 Z" style="fill: #0070C0;"></path>
                                                                        <path d="M 568 322 Q 587 285 572 93 Q 571 86 570 78 Q 564 -31 612 -62 Q 624 -63 629 -50 Q 641 -17 637 13 Q 627 239 636 291 Q 639 304 631 310 Q 607 331 588 340 Q 575 344 566 336 Q 560 332 568 322 Z" style="fill: #0070C0;"></path>
                                    
                                    
                                                                                                                                                                                                                                                                                                                                                                                                                                                                                                                                                    </g>
                            </svg>