<svg width='83' height='83' >
                                <g transform="translate(3, 70) scale(0.07, -0.07)">
                                    <!-- 先将完整的字以灰色字体绘制完成，层级位于下面 -->
                                                                        <path d="M 368 538 Q 372 590 377 638 L 379 665 Q 382 704 388 729 Q 398 756 379 771 Q 348 787 327 791 Q 314 795 306 787 Q 299 780 307 767 Q 322 746 323 732 Q 330 638 330 528 C 330 498 366 508 368 538 Z" style="fill: #0070C0;"></path>
                                                                        <path d="M 377 638 Q 440 638 503 659 L 504 659 Q 510 665 506 671 Q 502 680 479 685 Q 463 688 379 665 C 350 657 347 638 377 638 Z" style="fill: #0070C0;"></path>
                                                                        <path d="M 261 510 Q 249 603 252 621 Q 252 640 239 650 Q 217 663 193 669 Q 180 672 173 666 Q 167 659 174 647 Q 193 620 226 501 C 234 472 265 480 261 510 Z" style="fill: #0070C0;"></path>
                                                                        <path d="M 226 501 Q 184 494 169 489 Q 123 479 83 473 Q 71 472 68 463 Q 67 453 81 443 Q 118 419 157 433 Q 298 488 483 524 Q 498 527 498 534 Q 499 546 482 554 Q 449 566 368 538 L 330 528 Q 290 518 261 510 L 226 501 Z" style="fill: #0070C0;"></path>
                                                                        <path d="M 324 315 Q 339 363 365 418 Q 372 431 357 440 Q 314 459 298 453 Q 289 449 294 438 Q 318 360 249 241 Q 237 237 219 194 Q 215 181 226 187 Q 259 197 314 293 L 324 315 Z" style="fill: #0070C0;"></path>
                                                                        <path d="M 314 293 Q 341 265 374 225 Q 384 212 394 208 Q 398 207 405 214 Q 412 221 406 251 Q 399 287 324 315 C 296 326 293 315 314 293 Z" style="fill: #0070C0;"></path>
                                                                        <path d="M 432 175 Q 296 150 194 111 Q 178 107 181 127 Q 191 203 200 283 Q 204 307 195 321 Q 179 339 156 353 Q 144 360 134 357 Q 124 353 131 334 Q 161 261 148 189 Q 138 119 109 90 Q 91 71 99 58 Q 111 42 128 32 Q 143 26 154 36 Q 184 70 349 118 Q 409 136 431 135 C 461 137 461 181 432 175 Z" style="fill: #0070C0;"></path>
                                                                        <path d="M 431 135 Q 437 116 445 102 Q 452 89 463 99 Q 478 126 484 302 Q 484 329 494 354 Q 500 367 490 378 Q 474 391 445 405 Q 433 409 424 404 Q 417 400 420 389 Q 450 353 435 189 Q 434 182 432 175 L 431 135 Z" style="fill: #0070C0;"></path>
                                                                        <path d="M 682 663 Q 743 678 795 685 Q 814 686 818 681 Q 828 665 818 625 Q 797 516 766 468 Q 748 441 724 447 Q 706 453 690 460 Q 668 469 682 446 Q 713 406 727 377 Q 745 355 764 371 Q 827 410 862 571 Q 874 652 896 677 Q 908 689 903 699 Q 894 709 846 733 Q 827 742 809 730 Q 787 717 701 700 Q 616 681 543 676 Q 525 676 523 667 Q 522 660 544 648 Q 566 632 586 639 Q 614 648 645 654 L 682 663 Z" style="fill: #0070C0;"></path>
                                                                        <path d="M 645 654 Q 654 645 648 619 Q 627 516 524 385 Q 520 381 520 375 Q 520 371 525 371 Q 597 390 688 569 Q 691 576 712 613 Q 718 623 710 635 Q 695 654 682 663 C 659 682 632 681 645 654 Z" style="fill: #0070C0;"></path>
                                                                        <path d="M 594 299 Q 584 306 554 314 Q 544 318 539 314 Q 532 308 539 293 Q 564 220 569 104 Q 569 70 586 44 Q 601 22 607 36 Q 617 57 614 98 L 612 132 Q 603 231 602 266 C 601 295 601 295 594 299 Z" style="fill: #0070C0;"></path>
                                                                        <path d="M 829 164 Q 856 245 890 267 Q 908 286 893 306 Q 814 366 760 339 Q 688 315 594 299 C 564 294 573 259 602 266 Q 611 267 623 272 Q 696 285 765 298 Q 783 302 790 295 Q 805 277 770 161 C 761 132 819 136 829 164 Z" style="fill: #0070C0;"></path>
                                                                        <path d="M 614 98 Q 620 97 631 99 Q 700 114 847 126 Q 857 127 859 136 Q 860 143 830 164 L 829 164 L 770 161 Q 683 142 612 132 C 582 128 584 99 614 98 Z" style="fill: #0070C0;"></path>
                                    
                                    
                                                                                                                                                                                                                                                                                                                                                                                                                                                                                                                                                                                                                                                                                                                                                                                                                                                                                                                                                                                                                                                                                                        </g>
                            </svg>