<svg width='83' height='83' >
                                <g transform="translate(3, 70) scale(0.07, -0.07)">
                                    <!-- 先将完整的字以灰色字体绘制完成，层级位于下面 -->
                                                                        <path d="M 363 519 Q 367 579 371 634 L 373 661 Q 373 674 386 753 Q 389 763 371 776 Q 340 792 319 795 Q 306 798 298 790 Q 291 783 299 770 Q 315 748 316 733 Q 326 631 326 511 C 326 481 361 489 363 519 Z" style="fill: #0070C0;"></path>
                                                                        <path d="M 371 634 Q 434 634 499 655 L 500 655 Q 506 661 502 667 Q 498 676 475 681 Q 463 684 373 661 C 344 654 341 634 371 634 Z" style="fill: #0070C0;"></path>
                                                                        <path d="M 253 496 Q 244 589 249 619 Q 250 638 237 648 Q 216 663 192 670 Q 180 674 173 668 Q 166 662 172 649 Q 193 619 217 489 C 222 460 256 466 253 496 Z" style="fill: #0070C0;"></path>
                                                                        <path d="M 217 489 Q 78 471 74 463 Q 71 453 85 443 Q 121 418 157 430 Q 301 478 478 502 Q 493 503 493 511 Q 494 523 478 530 Q 448 543 363 519 L 326 511 Q 283 504 253 496 L 217 489 Z" style="fill: #0070C0;"></path>
                                                                        <path d="M 318 305 Q 325 323 332 340 Q 347 383 361 419 Q 368 431 354 440 Q 311 459 294 453 Q 285 449 290 437 Q 317 350 242 231 Q 223 203 215 186 Q 211 173 222 179 Q 258 194 307 283 L 318 305 Z" style="fill: #0070C0;"></path>
                                                                        <path d="M 307 283 Q 335 255 370 213 Q 380 200 390 196 Q 394 195 401 202 Q 408 209 402 239 Q 396 270 318 305 C 291 317 286 304 307 283 Z" style="fill: #0070C0;"></path>
                                                                        <path d="M 440 181 Q 295 160 189 124 Q 170 120 174 141 Q 180 205 185 270 Q 189 294 178 307 Q 145 343 119 339 Q 109 335 117 316 Q 145 253 137 191 Q 130 130 106 104 Q 90 86 97 73 Q 107 58 125 49 Q 138 42 148 50 Q 175 86 368 135 Q 413 147 431 141 C 461 138 470 185 440 181 Z" style="fill: #0070C0;"></path>
                                                                        <path d="M 431 141 Q 427 125 449 86 Q 456 73 467 83 Q 483 104 484 194 Q 484 317 498 354 Q 504 367 494 378 Q 478 391 449 405 Q 437 409 427 404 Q 421 400 424 389 Q 443 362 444 251 Q 443 230 442 205 Q 441 193 440 181 L 431 141 Z" style="fill: #0070C0;"></path>
                                                                        <path d="M 714 671 Q 763 683 820 692 Q 857 699 862 705 Q 871 712 867 720 Q 860 732 832 739 Q 808 745 704 715 Q 601 699 578 696 Q 542 690 567 674 Q 607 650 662 662 Q 665 663 669 662 L 714 671 Z" style="fill: #0070C0;"></path>
                                                                        <path d="M 710 548 Q 711 563 743 634 Q 747 643 734 658 Q 724 667 714 671 C 687 685 659 690 669 662 Q 679 637 676 620 Q 670 580 662 535 L 656 504 Q 643 441 628 371 C 622 342 656 347 664 376 Q 683 446 701 514 L 710 548 Z" style="fill: #0070C0;"></path>
                                                                        <path d="M 815 399 Q 840 481 867 507 Q 891 532 868 548 Q 849 560 821 579 Q 802 589 783 579 Q 750 560 710 548 L 662 535 Q 617 528 560 521 Q 547 522 549 514 Q 550 507 564 499 Q 585 487 623 496 Q 639 500 656 504 L 701 514 Q 722 521 743 524 Q 780 533 789 517 Q 796 510 786 475 Q 776 436 763 391 C 755 362 806 370 815 399 Z" style="fill: #0070C0;"></path>
                                                                        <path d="M 628 371 Q 577 367 522 358 Q 506 357 518 342 Q 528 332 544 327 Q 560 323 574 326 Q 703 360 950 360 Q 966 361 970 367 Q 974 377 961 388 Q 916 424 866 409 Q 842 405 815 399 L 763 391 Q 742 390 723 385 Q 695 381 664 376 L 628 371 Z" style="fill: #0070C0;"></path>
                                                                        <path d="M 600 248 Q 588 252 565 257 Q 555 260 551 255 Q 544 249 553 234 Q 578 177 594 85 Q 597 57 613 39 Q 629 18 634 33 Q 638 46 638 67 L 635 97 Q 619 188 617 218 C 615 243 615 243 600 248 Z" style="fill: #0070C0;"></path>
                                                                        <path d="M 830 111 Q 855 189 891 216 Q 907 234 894 251 Q 822 309 772 284 Q 705 262 600 248 C 570 244 587 213 617 218 Q 627 219 637 222 Q 707 234 775 245 Q 793 249 800 241 Q 813 225 781 119 C 772 90 820 83 830 111 Z" style="fill: #0070C0;"></path>
                                                                        <path d="M 638 67 Q 648 64 660 66 Q 717 76 839 80 Q 849 81 851 89 Q 851 96 830 111 L 781 119 L 780 119 Q 699 103 635 97 C 605 94 609 73 638 67 Z" style="fill: #0070C0;"></path>
                                    
                                    
                                                                                                                                                                                                                                                                                                                                                                                                                                                                                                                                                                                                                                                                                                                                                                                                                                                                                                                                                                                                                                                                                                                                                                                                                                                                </g>
                            </svg>