<svg width='83' height='83' >
                                <g transform="translate(3, 70) scale(0.07, -0.07)">
                                    <!-- 先将完整的字以灰色字体绘制完成，层级位于下面 -->
                                                                        <path d="M 386 556 Q 389 608 391 654 L 393 682 Q 393 703 402 748 Q 405 757 387 769 Q 357 784 336 786 Q 323 787 316 781 Q 310 774 318 762 Q 333 744 334 731 Q 346 646 350 546 C 351 516 384 526 386 556 Z" style="fill: #0070C0;"></path>
                                                                        <path d="M 391 654 Q 392 655 395 654 Q 434 651 507 674 Q 507 675 508 675 Q 515 681 511 687 Q 505 696 483 700 Q 465 703 411 686 Q 402 686 393 682 C 365 671 361 654 391 654 Z" style="fill: #0070C0;"></path>
                                                                        <path d="M 277 527 Q 265 593 266 639 Q 267 658 254 667 Q 233 680 210 685 Q 198 688 191 682 Q 185 676 192 664 Q 213 640 244 519 C 251 490 282 497 277 527 Z" style="fill: #0070C0;"></path>
                                                                        <path d="M 244 519 Q 142 501 103 495 Q 91 494 89 486 Q 86 477 100 467 Q 137 443 173 456 Q 339 516 503 542 Q 518 543 518 551 Q 519 563 502 570 Q 477 580 457 575 Q 420 565 386 556 L 350 546 Q 308 536 277 527 L 244 519 Z" style="fill: #0070C0;"></path>
                                                                        <path d="M 335 360 Q 336 372 369 447 Q 376 459 361 468 Q 318 487 302 481 Q 293 477 298 466 Q 322 394 259 283 Q 252 280 231 238 Q 227 225 238 231 Q 278 244 325 339 L 335 360 Z" style="fill: #0070C0;"></path>
                                                                        <path d="M 325 339 Q 350 315 379 283 Q 389 271 398 268 Q 404 268 408 274 Q 415 281 408 309 Q 402 331 359 351 Q 346 357 335 360 C 306 368 303 360 325 339 Z" style="fill: #0070C0;"></path>
                                                                        <path d="M 431 235 Q 430 235 430 234 Q 306 212 213 176 Q 198 172 202 190 Q 209 262 218 336 Q 222 358 213 371 Q 200 387 177 399 Q 167 405 158 403 Q 148 399 155 381 Q 183 314 172 248 Q 163 184 136 156 Q 120 140 128 127 Q 138 114 155 104 Q 168 97 176 106 Q 206 148 377 190 Q 419 202 434 198 C 464 197 460 242 431 235 Z" style="fill: #0070C0;"></path>
                                                                        <path d="M 434 198 Q 438 185 445 173 Q 454 160 463 171 Q 478 189 479 275 Q 479 383 492 417 Q 498 430 489 440 Q 473 452 445 465 Q 435 469 425 464 Q 419 460 422 450 Q 450 411 436 253 Q 433 244 431 235 L 434 198 Z" style="fill: #0070C0;"></path>
                                                                        <path d="M 840 594 Q 864 648 887 665 Q 902 681 889 697 Q 819 748 770 719 Q 716 700 623 676 C 594 668 601 643 631 648 Q 643 649 657 654 Q 796 690 804 683 Q 813 674 793 597 C 786 568 827 567 840 594 Z" style="fill: #0070C0;"></path>
                                                                        <path d="M 617 540 Q 623 533 633 530 Q 642 527 653 530 Q 714 548 850 565 Q 860 566 860 574 Q 860 581 840 594 C 823 606 822 605 793 597 Q 697 569 624 556 Q 620 556 618 554 C 606 550 606 550 617 540 Z" style="fill: #0070C0;"></path>
                                                                        <path d="M 623 676 Q 610 686 590 695 Q 574 704 562 700 Q 552 693 558 682 Q 576 658 576 596 Q 558 398 545 337 Q 535 295 521 256 Q 485 157 401 23 Q 397 17 396 12 Q 393 2 402 5 Q 435 11 513 141 Q 526 166 539 193 Q 602 343 617 540 L 618 554 Q 619 582 623 608 Q 624 627 630 646 Q 630 647 631 648 C 636 668 636 668 623 676 Z" style="fill: #0070C0;"></path>
                                                                        <path d="M 729 443 Q 855 474 860 479 Q 866 485 863 491 Q 857 500 835 505 Q 813 508 790 498 Q 759 486 724 476 Q 687 466 641 460 Q 613 456 634 443 Q 652 431 691 434 L 729 443 Z" style="fill: #0070C0;"></path>
                                                                        <path d="M 725 295 Q 759 308 821 323 Q 825 324 829 326 C 857 336 846 347 816 342 Q 753 332 688 314 Q 681 311 679 313 Q 678 314 681 321 Q 738 397 750 410 Q 757 417 753 426 Q 749 433 729 443 C 703 457 682 463 691 434 L 692 433 Q 704 403 667 352 Q 651 327 617 302 Q 608 295 611 286 Q 615 274 633 260 Q 640 253 650 261 Q 662 270 699 286 L 725 295 Z" style="fill: #0070C0;"></path>
                                                                        <path d="M 829 326 Q 857 289 869 286 Q 876 285 882 293 Q 886 302 885 323 Q 884 342 860 361 Q 803 397 792 394 Q 788 393 787 383 Q 788 376 804 358 Q 810 351 816 342 L 829 326 Z" style="fill: #0070C0;"></path>
                                                                        <path d="M 756 191 Q 789 201 823 210 Q 848 217 852 221 Q 859 228 855 235 Q 848 244 825 248 Q 798 252 759 233 L 711 217 Q 677 210 641 203 Q 613 196 634 184 Q 662 169 712 179 L 756 191 Z" style="fill: #0070C0;"></path>
                                                                        <path d="M 751 102 Q 752 151 756 191 L 759 233 Q 759 269 758 270 Q 742 286 725 295 C 699 310 688 314 699 286 Q 708 268 711 217 L 712 179 Q 712 146 714 95 C 715 65 750 72 751 102 Z" style="fill: #0070C0;"></path>
                                                                        <path d="M 714 95 Q 636 85 546 70 Q 528 69 542 55 Q 554 43 568 39 Q 586 35 599 39 Q 728 76 939 76 Q 955 76 959 84 Q 963 93 950 104 Q 898 140 840 120 Q 801 114 751 102 L 714 95 Z" style="fill: #0070C0;"></path>
                                    
                                    
                                                                                                                                                                                                                                                                                                                                                                                                                                                                                                                                                                                                                                                                                                                                                                                                                                                                                                                                                                                                                                                                                                                                                                                                                                                                                                                                                                                                                        </g>
                            </svg>