<svg width='83' height='83' >
                                <g transform="translate(3, 70) scale(0.07, -0.07)">
                                    <!-- 先将完整的字以灰色字体绘制完成，层级位于下面 -->
                                                                        <path d="M 508 507 Q 571 520 641 532 Q 711 547 722 556 Q 732 565 727 574 Q 720 587 687 597 Q 653 604 618 592 Q 548 570 477 552 L 419 540 Q 335 525 240 517 Q 200 511 228 492 Q 273 465 352 480 Q 379 486 409 489 L 466 500 Q 470 501 475 501 L 508 507 Z" style="fill: #0070C0;"></path>
                                                                        <path d="M 477 552 Q 492 631 505 726 Q 512 747 515 759 Q 524 781 502 795 Q 451 828 435 826 Q 413 825 427 798 Q 454 738 419 540 L 409 489 Q 408 488 408 484 Q 366 268 206 133 Q 200 130 195 124 Q 123 70 122 66 Q 119 59 133 58 Q 151 57 175 70 Q 242 106 284 143 Q 375 227 419 338 Q 446 416 466 500 L 477 552 Z" style="fill: #0070C0;"></path>
                                                                        <path d="M 490 167 Q 493 82 536 49 Q 596 6 795 13 Q 886 17 923 36 Q 954 52 942 85 Q 924 133 915 216 Q 914 232 906 238 Q 897 244 893 222 Q 874 122 858 103 Q 824 66 689 65 Q 614 66 583 79 Q 555 94 549 112 Q 539 139 534 193 L 533 243 Q 533 357 561 427 Q 574 458 555 476 Q 527 498 508 507 C 482 522 465 529 475 501 Q 474 497 478 489 Q 499 449 493 391 Q 489 279 489 208 L 490 167 Z" style="fill: #0070C0;"></path>
                                                                        <path d="M 489 208 Q 461 186 430 163 Q 418 156 414 151 Q 408 141 422 140 Q 432 140 490 167 L 534 193 Q 760 373 764 381 Q 764 384 764 388 Q 763 401 742 430 Q 721 455 703 459 Q 685 462 687 439 Q 691 411 677 392 Q 635 338 533 243 L 489 208 Z" style="fill: #0070C0;"></path>
                                                                        <path d="M 693 701 Q 724 676 757 646 Q 772 633 788 634 Q 800 634 805 648 Q 809 664 799 695 Q 792 717 758 731 Q 679 758 664 751 Q 658 747 661 733 Q 665 723 693 701 Z" style="fill: #0070C0;"></path>
                                    
                                    
                                                                                                                                                                                                                                                                                                                                                                                                                                                                        </g>
                            </svg>